<?xml version="1.0" encoding="UTF-8"?>
<svg xmlns="http://www.w3.org/2000/svg"
     xmlns:xlink="http://www.w3.org/1999/xlink"
     xmlns:gadfly="http://www.gadflyjl.org/ns"
     version="1.2"
     width="240mm" height="120mm" viewBox="0 0 240 120"
     stroke="none"
     fill="#000000"
     stroke-width="0.3"
     font-size="3.88"
>
<g stroke="#000000" stroke-opacity="0.000" fill="#222831" id="img-dd92f7e0-1">
  <rect x="0" y="0" width="240" height="120"/>
</g>
<g class="plotroot xscalable yscalable" id="img-dd92f7e0-2">
  <g font-size="3.88" font-family="'PT Sans','Helvetica Neue','Helvetica',sans-serif" fill="#A1A1A1" stroke="#000000" stroke-opacity="0.000" id="img-dd92f7e0-3">
    <text x="120.17" y="108.39" text-anchor="middle" dy="0.6em">Corruption Perceptions Index</text>
  </g>
  <g class="guide xlabels" font-size="2.82" font-family="'PT Sans Caption','Helvetica Neue','Helvetica',sans-serif" fill="#A1A1A1" id="img-dd92f7e0-4">
    <text x="20.63" y="101.72" text-anchor="middle" dy="0.6em">-5</text>
    <text x="70.4" y="101.72" text-anchor="middle" dy="0.6em">0</text>
    <text x="120.17" y="101.72" text-anchor="middle" dy="0.6em">5</text>
    <text x="169.95" y="101.72" text-anchor="middle" dy="0.6em">10</text>
    <text x="219.72" y="101.72" text-anchor="middle" dy="0.6em">15</text>
  </g>
  <g class="guide colorkey" id="img-dd92f7e0-5">
    <g font-size="2.82" font-family="'PT Sans','Helvetica Neue','Helvetica',sans-serif" fill="#A1A1A1" id="img-dd92f7e0-6">
      <text x="226.03" y="74.12" dy="0.35em">1995</text>
      <text x="226.03" y="46.81" dy="0.35em">2015</text>
      <text x="226.03" y="60.47" dy="0.35em">2005</text>
      <text x="226.03" y="53.64" dy="0.35em">2010</text>
      <text x="226.03" y="67.3" dy="0.35em">2000</text>
    </g>
    <g shape-rendering="crispEdges" stroke="#000000" stroke-opacity="0.000" id="img-dd92f7e0-7">
      <rect x="223.72" y="73.44" width="1.31" height="0.68" fill="#005D7F"/>
      <rect x="223.72" y="72.76" width="1.31" height="0.68" fill="#27607E"/>
      <rect x="223.72" y="72.08" width="1.31" height="0.68" fill="#3A647C"/>
      <rect x="223.72" y="71.39" width="1.31" height="0.68" fill="#49677B"/>
      <rect x="223.72" y="70.71" width="1.31" height="0.68" fill="#566B7A"/>
      <rect x="223.72" y="70.03" width="1.31" height="0.68" fill="#626E78"/>
      <rect x="223.72" y="69.35" width="1.31" height="0.68" fill="#6D7277"/>
      <rect x="223.72" y="68.66" width="1.31" height="0.68" fill="#787575"/>
      <rect x="223.72" y="67.98" width="1.31" height="0.68" fill="#827973"/>
      <rect x="223.72" y="67.3" width="1.31" height="0.68" fill="#8B7C72"/>
      <rect x="223.72" y="66.61" width="1.31" height="0.68" fill="#958070"/>
      <rect x="223.72" y="65.93" width="1.31" height="0.68" fill="#9F836E"/>
      <rect x="223.72" y="65.25" width="1.31" height="0.68" fill="#A8876D"/>
      <rect x="223.72" y="64.57" width="1.31" height="0.68" fill="#B18B6B"/>
      <rect x="223.72" y="63.88" width="1.31" height="0.68" fill="#BA8E69"/>
      <rect x="223.72" y="63.2" width="1.31" height="0.68" fill="#C39267"/>
      <rect x="223.72" y="62.52" width="1.31" height="0.68" fill="#CC9564"/>
      <rect x="223.72" y="61.83" width="1.31" height="0.68" fill="#D69962"/>
      <rect x="223.72" y="61.15" width="1.31" height="0.68" fill="#DF9D60"/>
      <rect x="223.72" y="60.47" width="1.31" height="0.68" fill="#E8A05D"/>
      <rect x="223.72" y="59.79" width="1.31" height="0.68" fill="#EDA05C"/>
      <rect x="223.72" y="59.1" width="1.31" height="0.68" fill="#EE9C5D"/>
      <rect x="223.72" y="58.42" width="1.31" height="0.68" fill="#EF985E"/>
      <rect x="223.72" y="57.74" width="1.31" height="0.68" fill="#F0945E"/>
      <rect x="223.72" y="57.06" width="1.31" height="0.68" fill="#F1905F"/>
      <rect x="223.72" y="56.37" width="1.31" height="0.68" fill="#F28C5F"/>
      <rect x="223.72" y="55.69" width="1.31" height="0.68" fill="#F38860"/>
      <rect x="223.72" y="55.01" width="1.31" height="0.68" fill="#F48460"/>
      <rect x="223.72" y="54.32" width="1.31" height="0.68" fill="#F57F61"/>
      <rect x="223.72" y="53.64" width="1.31" height="0.68" fill="#F67B61"/>
      <rect x="223.72" y="52.96" width="1.31" height="0.68" fill="#F77662"/>
      <rect x="223.72" y="52.28" width="1.31" height="0.68" fill="#F87262"/>
      <rect x="223.72" y="51.59" width="1.31" height="0.68" fill="#F96D62"/>
      <rect x="223.72" y="50.91" width="1.31" height="0.68" fill="#FA6863"/>
      <rect x="223.72" y="50.23" width="1.31" height="0.68" fill="#FB6263"/>
      <rect x="223.72" y="49.54" width="1.31" height="0.68" fill="#FB5D64"/>
      <rect x="223.72" y="48.86" width="1.31" height="0.68" fill="#FC5764"/>
      <rect x="223.72" y="48.18" width="1.31" height="0.68" fill="#FD5164"/>
      <rect x="223.72" y="47.5" width="1.31" height="0.68" fill="#FD4A65"/>
      <rect x="223.72" y="46.81" width="1.31" height="0.68" fill="#FE4365"/>
      <g stroke="#FFFFFF" stroke-width="0.2" id="img-dd92f7e0-8">
        <path fill="none" d="M223.72,74.12 L 225.03 74.12"/>
        <path fill="none" d="M223.72,46.81 L 225.03 46.81"/>
        <path fill="none" d="M223.72,60.47 L 225.03 60.47"/>
        <path fill="none" d="M223.72,53.64 L 225.03 53.64"/>
        <path fill="none" d="M223.72,67.3 L 225.03 67.3"/>
      </g>
    </g>
    <g fill="#A1A1A1" font-size="3.88" font-family="'PT Sans','Helvetica Neue','Helvetica',sans-serif" stroke="#000000" stroke-opacity="0.000" id="img-dd92f7e0-9">
      <text x="223.72" y="42.81">variable</text>
    </g>
  </g>
<g clip-path="url(#img-dd92f7e0-10)">
  <g id="img-dd92f7e0-11">
    <g pointer-events="visible" opacity="1" fill="#222831" stroke="#000000" stroke-opacity="0.000" class="guide background" id="img-dd92f7e0-12">
      <rect x="18.63" y="5" width="203.09" height="95.72"/>
    </g>
    <g class="guide ygridlines xfixed" stroke-dasharray="0.5,0.5" stroke-width="0.2" stroke="#575757" id="img-dd92f7e0-13">
      <path fill="none" d="M18.63,98.71 L 221.72 98.71"/>
      <path fill="none" d="M18.63,75.79 L 221.72 75.79"/>
      <path fill="none" d="M18.63,52.86 L 221.72 52.86"/>
      <path fill="none" d="M18.63,29.93 L 221.72 29.93"/>
      <path fill="none" d="M18.63,7 L 221.72 7"/>
    </g>
    <g class="guide xgridlines yfixed" stroke-dasharray="0.5,0.5" stroke-width="0.2" stroke="#575757" id="img-dd92f7e0-14">
      <path fill="none" d="M20.63,5 L 20.63 100.72"/>
      <path fill="none" d="M70.4,5 L 70.4 100.72"/>
      <path fill="none" d="M120.17,5 L 120.17 100.72"/>
      <path fill="none" d="M169.95,5 L 169.95 100.72"/>
      <path fill="none" d="M219.72,5 L 219.72 100.72"/>
    </g>
    <g class="plotpanel" id="img-dd92f7e0-15">
      <g stroke-width="0.3" fill="#000000" fill-opacity="0.000" stroke-dasharray="none" id="img-dd92f7e0-16">
        <path fill="none" d="M48.93,98.71 L 49.45 98.71 49.97 98.71 50.5 98.71 51.02 98.71 51.54 98.71 52.07 98.71 52.59 98.71 53.11 98.71 53.64 98.71 54.16 98.71 54.68 98.7 55.21 98.7 55.73 98.7 56.25 98.69 56.78 98.69 57.3 98.69 57.82 98.68 58.35 98.67 58.87 98.66 59.39 98.65 59.91 98.64 60.44 98.62 60.96 98.61 61.48 98.59 62.01 98.56 62.53 98.54 63.05 98.5 63.58 98.47 64.1 98.43 64.62 98.38 65.15 98.32 65.67 98.26 66.19 98.19 66.72 98.11 67.24 98.02 67.76 97.92 68.29 97.81 68.81 97.68 69.33 97.54 69.85 97.38 70.38 97.21 70.9 97.02 71.42 96.81 71.95 96.58 72.47 96.33 72.99 96.05 73.52 95.75 74.04 95.42 74.56 95.07 75.09 94.69 75.61 94.28 76.13 93.84 76.66 93.37 77.18 92.87 77.7 92.33 78.23 91.77 78.75 91.16 79.27 90.53 79.8 89.86 80.32 89.15 80.84 88.41 81.36 87.64 81.89 86.83 82.41 85.99 82.93 85.12 83.46 84.22 83.98 83.29 84.5 82.33 85.03 81.35 85.55 80.34 86.07 79.32 86.6 78.27 87.12 77.21 87.64 76.14 88.17 75.06 88.69 73.97 89.21 72.88 89.74 71.79 90.26 70.71 90.78 69.64 91.31 68.58 91.83 67.54 92.35 66.52 92.87 65.53 93.4 64.57 93.92 63.64 94.44 62.76 94.97 61.91 95.49 61.11 96.01 60.36 96.54 59.66 97.06 59.02 97.58 58.43 98.11 57.9 98.63 57.43 99.15 57.02 99.68 56.68 100.2 56.39 100.72 56.16 101.25 55.99 101.77 55.88 102.29 55.83 102.81 55.83 103.34 55.89 103.86 55.99 104.38 56.15 104.91 56.34 105.43 56.58 105.95 56.85 106.48 57.15 107 57.49 107.52 57.85 108.05 58.23 108.57 58.64 109.09 59.06 109.62 59.49 110.14 59.94 110.66 60.39 111.19 60.85 111.71 61.32 112.23 61.78 112.76 62.25 113.28 62.72 113.8 63.19 114.32 63.66 114.85 64.13 115.37 64.6 115.89 65.06 116.42 65.53 116.94 66 117.46 66.47 117.99 66.93 118.51 67.41 119.03 67.88 119.56 68.36 120.08 68.84 120.6 69.32 121.13 69.82 121.65 70.31 122.17 70.81 122.7 71.32 123.22 71.83 123.74 72.34 124.27 72.86 124.79 73.38 125.31 73.91 125.83 74.43 126.36 74.96 126.88 75.48 127.4 76.01 127.93 76.52 128.45 77.04 128.97 77.54 129.5 78.04 130.02 78.53 130.54 79.01 131.07 79.48 131.59 79.93 132.11 80.37 132.64 80.79 133.16 81.19 133.68 81.58 134.21 81.95 134.73 82.29 135.25 82.62 135.77 82.93 136.3 83.21 136.82 83.48 137.34 83.72 137.87 83.94 138.39 84.14 138.91 84.32 139.44 84.47 139.96 84.61 140.48 84.72 141.01 84.81 141.53 84.88 142.05 84.93 142.58 84.96 143.1 84.97 143.62 84.96 144.15 84.93 144.67 84.89 145.19 84.82 145.72 84.74 146.24 84.65 146.76 84.54 147.28 84.42 147.81 84.28 148.33 84.13 148.85 83.97 149.38 83.81 149.9 83.63 150.42 83.45 150.95 83.27 151.47 83.09 151.99 82.9 152.52 82.72 153.04 82.54 153.56 82.37 154.09 82.21 154.61 82.06 155.13 81.93 155.66 81.81 156.18 81.7 156.7 81.62 157.23 81.56 157.75 81.53 158.27 81.52 158.79 81.54 159.32 81.59 159.84 81.67 160.36 81.78 160.89 81.93 161.41 82.1 161.93 82.31 162.46 82.55 162.98 82.81 163.5 83.11 164.03 83.44 164.55 83.79 165.07 84.18 165.6 84.58 166.12 85.01 166.64 85.45 167.17 85.91 167.69 86.39 168.21 86.88 168.73 87.38 169.26 87.88 169.78 88.39 170.3 88.9 170.83 89.41 171.35 89.92 171.87 90.42 172.4 90.91 172.92 91.4 173.44 91.87 173.97 92.32 174.49 92.77 175.01 93.2 175.54 93.61 176.06 94 176.58 94.37 177.11 94.73 177.63 95.07 178.15 95.38 178.68 95.68 179.2 95.96 179.72 96.22 180.24 96.46 180.77 96.69 181.29 96.89 181.81 97.08 182.34 97.26 182.86 97.42 183.38 97.56 183.91 97.69 184.43 97.81 184.95 97.92 185.48 98.02 186 98.1 186.52 98.18 187.05 98.25 187.57 98.31 188.09 98.37 188.62 98.41 189.14 98.46 189.66 98.49 190.19 98.52 190.71 98.55 191.23 98.58 191.75 98.6 192.28 98.62 192.8 98.63 193.32 98.64 193.85 98.66 194.37 98.67 194.89 98.67 195.42 98.68 195.94 98.69 196.46 98.69 196.99 98.7 197.51 98.7 198.03 98.7 198.56 98.7 199.08 98.71 199.6 98.71 200.13 98.71 200.65 98.71 201.17 98.71 201.7 98.71 202.22 98.71 202.74 98.71 203.26 98.71 203.79 98.71 204.31 98.71 204.83 98.71 205.36 98.71" stroke="#6B7177" class="geometry color_"/>
        <path fill="none" d="M51.59,98.71 L 52.1 98.71 52.6 98.71 53.11 98.71 53.62 98.71 54.13 98.71 54.64 98.71 55.15 98.71 55.66 98.71 56.17 98.7 56.67 98.7 57.18 98.7 57.69 98.69 58.2 98.69 58.71 98.68 59.22 98.68 59.73 98.67 60.24 98.66 60.74 98.64 61.25 98.63 61.76 98.61 62.27 98.59 62.78 98.57 63.29 98.54 63.8 98.5 64.31 98.46 64.81 98.42 65.32 98.36 65.83 98.3 66.34 98.23 66.85 98.15 67.36 98.05 67.87 97.94 68.37 97.82 68.88 97.68 69.39 97.53 69.9 97.35 70.41 97.15 70.92 96.93 71.43 96.69 71.94 96.42 72.44 96.12 72.95 95.79 73.46 95.43 73.97 95.04 74.48 94.61 74.99 94.14 75.5 93.64 76.01 93.09 76.51 92.51 77.02 91.89 77.53 91.22 78.04 90.52 78.55 89.77 79.06 88.98 79.57 88.15 80.08 87.28 80.58 86.37 81.09 85.43 81.6 84.45 82.11 83.43 82.62 82.39 83.13 81.32 83.64 80.22 84.15 79.11 84.65 77.98 85.16 76.83 85.67 75.67 86.18 74.51 86.69 73.35 87.2 72.19 87.71 71.03 88.21 69.89 88.72 68.76 89.23 67.65 89.74 66.56 90.25 65.5 90.76 64.46 91.27 63.46 91.78 62.49 92.28 61.56 92.79 60.67 93.3 59.82 93.81 59.01 94.32 58.25 94.83 57.54 95.34 56.87 95.85 56.26 96.35 55.69 96.86 55.18 97.37 54.71 97.88 54.3 98.39 53.94 98.9 53.64 99.41 53.38 99.92 53.17 100.42 53.02 100.93 52.92 101.44 52.86 101.95 52.86 102.46 52.9 102.97 52.99 103.48 53.12 103.98 53.31 104.49 53.53 105 53.8 105.51 54.1 106.02 54.45 106.53 54.83 107.04 55.24 107.55 55.69 108.05 56.17 108.56 56.67 109.07 57.21 109.58 57.76 110.09 58.34 110.6 58.93 111.11 59.54 111.62 60.17 112.12 60.81 112.63 61.46 113.14 62.12 113.65 62.78 114.16 63.45 114.67 64.12 115.18 64.79 115.69 65.46 116.19 66.13 116.7 66.8 117.21 67.47 117.72 68.13 118.23 68.78 118.74 69.43 119.25 70.07 119.76 70.7 120.26 71.33 120.77 71.95 121.28 72.55 121.79 73.15 122.3 73.74 122.81 74.32 123.32 74.88 123.82 75.44 124.33 75.98 124.84 76.51 125.35 77.02 125.86 77.52 126.37 78.01 126.88 78.49 127.39 78.94 127.89 79.39 128.4 79.82 128.91 80.23 129.42 80.63 129.93 81.01 130.44 81.38 130.95 81.73 131.46 82.06 131.96 82.38 132.47 82.69 132.98 82.98 133.49 83.25 134 83.51 134.51 83.76 135.02 83.99 135.53 84.21 136.03 84.42 136.54 84.61 137.05 84.79 137.56 84.96 138.07 85.12 138.58 85.26 139.09 85.4 139.6 85.52 140.1 85.63 140.61 85.73 141.12 85.82 141.63 85.9 142.14 85.96 142.65 86.02 143.16 86.06 143.66 86.09 144.17 86.11 144.68 86.12 145.19 86.11 145.7 86.1 146.21 86.07 146.72 86.03 147.23 85.98 147.73 85.91 148.24 85.84 148.75 85.76 149.26 85.66 149.77 85.56 150.28 85.45 150.79 85.34 151.3 85.21 151.8 85.09 152.31 84.96 152.82 84.83 153.33 84.71 153.84 84.58 154.35 84.47 154.86 84.36 155.37 84.25 155.87 84.17 156.38 84.09 156.89 84.03 157.4 83.99 157.91 83.97 158.42 83.97 158.93 83.99 159.44 84.04 159.94 84.11 160.45 84.21 160.96 84.34 161.47 84.49 161.98 84.67 162.49 84.87 163 85.11 163.5 85.36 164.01 85.65 164.52 85.95 165.03 86.28 165.54 86.63 166.05 87 166.56 87.38 167.07 87.78 167.57 88.19 168.08 88.61 168.59 89.04 169.1 89.47 169.61 89.9 170.12 90.34 170.63 90.78 171.14 91.21 171.64 91.64 172.15 92.06 172.66 92.47 173.17 92.87 173.68 93.26 174.19 93.64 174.7 94 175.21 94.35 175.71 94.69 176.22 95.01 176.73 95.31 177.24 95.6 177.75 95.87 178.26 96.12 178.77 96.36 179.28 96.58 179.78 96.78 180.29 96.98 180.8 97.15 181.31 97.31 181.82 97.46 182.33 97.6 182.84 97.72 183.34 97.84 183.85 97.94 184.36 98.03 184.87 98.12 185.38 98.19 185.89 98.26 186.4 98.32 186.91 98.37 187.41 98.41 187.92 98.46 188.43 98.49 188.94 98.52 189.45 98.55 189.96 98.58 190.47 98.6 190.98 98.61 191.48 98.63 191.99 98.64 192.5 98.66 193.01 98.66 193.52 98.67 194.03 98.68 194.54 98.69 195.05 98.69 195.55 98.7 196.06 98.7 196.57 98.7 197.08 98.7 197.59 98.71 198.1 98.71 198.61 98.71 199.11 98.71 199.62 98.71 200.13 98.71 200.64 98.71 201.15 98.71 201.66 98.71 202.17 98.71 202.68 98.71 203.18 98.71 203.69 98.71" stroke="#807874" class="geometry color_"/>
        <path fill="none" d="M47.35,98.71 L 47.88 98.71 48.41 98.71 48.94 98.71 49.46 98.71 49.99 98.71 50.52 98.71 51.04 98.71 51.57 98.71 52.1 98.71 52.62 98.71 53.15 98.7 53.68 98.7 54.21 98.7 54.73 98.69 55.26 98.69 55.79 98.68 56.31 98.68 56.84 98.67 57.37 98.66 57.89 98.65 58.42 98.63 58.95 98.61 59.48 98.6 60 98.57 60.53 98.55 61.06 98.52 61.58 98.48 62.11 98.44 62.64 98.4 63.17 98.34 63.69 98.28 64.22 98.21 64.75 98.14 65.27 98.05 65.8 97.95 66.33 97.84 66.85 97.72 67.38 97.58 67.91 97.43 68.44 97.26 68.96 97.08 69.49 96.87 70.02 96.65 70.54 96.41 71.07 96.14 71.6 95.85 72.13 95.54 72.65 95.21 73.18 94.84 73.71 94.45 74.23 94.04 74.76 93.59 75.29 93.12 75.81 92.62 76.34 92.09 76.87 91.53 77.4 90.93 77.92 90.31 78.45 89.66 78.98 88.98 79.5 88.27 80.03 87.53 80.56 86.76 81.08 85.96 81.61 85.14 82.14 84.29 82.67 83.42 83.19 82.52 83.72 81.6 84.25 80.66 84.77 79.71 85.3 78.73 85.83 77.74 86.36 76.74 86.88 75.73 87.41 74.72 87.94 73.69 88.46 72.67 88.99 71.65 89.52 70.63 90.04 69.62 90.57 68.62 91.1 67.63 91.63 66.67 92.15 65.72 92.68 64.8 93.21 63.9 93.73 63.04 94.26 62.21 94.79 61.42 95.32 60.67 95.84 59.96 96.37 59.3 96.9 58.69 97.42 58.13 97.95 57.62 98.48 57.16 99 56.76 99.53 56.42 100.06 56.13 100.59 55.9 101.11 55.72 101.64 55.61 102.17 55.54 102.69 55.54 103.22 55.58 103.75 55.68 104.27 55.82 104.8 56.02 105.33 56.25 105.86 56.53 106.38 56.85 106.91 57.21 107.44 57.6 107.96 58.02 108.49 58.47 109.02 58.95 109.55 59.45 110.07 59.96 110.6 60.5 111.13 61.05 111.65 61.61 112.18 62.18 112.71 62.76 113.23 63.35 113.76 63.94 114.29 64.53 114.82 65.13 115.34 65.72 115.87 66.32 116.4 66.91 116.92 67.49 117.45 68.08 117.98 68.65 118.51 69.23 119.03 69.79 119.56 70.35 120.09 70.9 120.61 71.45 121.14 71.99 121.67 72.51 122.19 73.03 122.72 73.55 123.25 74.05 123.78 74.54 124.3 75.02 124.83 75.49 125.36 75.95 125.88 76.4 126.41 76.83 126.94 77.26 127.46 77.67 127.99 78.07 128.52 78.45 129.05 78.82 129.57 79.18 130.1 79.52 130.63 79.85 131.15 80.17 131.68 80.46 132.21 80.75 132.74 81.02 133.26 81.27 133.79 81.51 134.32 81.73 134.84 81.94 135.37 82.13 135.9 82.31 136.42 82.48 136.95 82.63 137.48 82.77 138.01 82.9 138.53 83.02 139.06 83.12 139.59 83.21 140.11 83.29 140.64 83.36 141.17 83.42 141.69 83.47 142.22 83.51 142.75 83.54 143.28 83.56 143.8 83.57 144.33 83.58 144.86 83.58 145.38 83.56 145.91 83.55 146.44 83.52 146.97 83.49 147.49 83.46 148.02 83.42 148.55 83.37 149.07 83.32 149.6 83.27 150.13 83.21 150.65 83.16 151.18 83.1 151.71 83.05 152.24 82.99 152.76 82.94 153.29 82.9 153.82 82.86 154.34 82.83 154.87 82.81 155.4 82.8 155.93 82.81 156.45 82.82 156.98 82.86 157.51 82.91 158.03 82.98 158.56 83.06 159.09 83.17 159.61 83.3 160.14 83.46 160.67 83.63 161.2 83.83 161.72 84.05 162.25 84.3 162.78 84.57 163.3 84.85 163.83 85.17 164.36 85.5 164.88 85.85 165.41 86.21 165.94 86.6 166.47 87 166.99 87.41 167.52 87.83 168.05 88.26 168.57 88.7 169.1 89.14 169.63 89.59 170.16 90.03 170.68 90.48 171.21 90.92 171.74 91.36 172.26 91.79 172.79 92.21 173.32 92.62 173.84 93.02 174.37 93.41 174.9 93.78 175.43 94.14 175.95 94.49 176.48 94.82 177.01 95.13 177.53 95.43 178.06 95.71 178.59 95.97 179.12 96.22 179.64 96.45 180.17 96.67 180.7 96.87 181.22 97.05 181.75 97.23 182.28 97.38 182.8 97.53 183.33 97.66 183.86 97.78 184.39 97.89 184.91 97.98 185.44 98.07 185.97 98.15 186.49 98.22 187.02 98.29 187.55 98.34 188.07 98.39 188.6 98.44 189.13 98.48 189.66 98.51 190.18 98.54 190.71 98.57 191.24 98.59 191.76 98.61 192.29 98.62 192.82 98.64 193.35 98.65 193.87 98.66 194.4 98.67 194.93 98.68 195.45 98.68 195.98 98.69 196.51 98.69 197.03 98.7 197.56 98.7 198.09 98.7 198.62 98.71 199.14 98.71 199.67 98.71 200.2 98.71 200.72 98.71 201.25 98.71 201.78 98.71 202.31 98.71 202.83 98.71 203.36 98.71 203.89 98.71 204.41 98.71 204.94 98.71" stroke="#937F71" class="geometry color_"/>
        <path fill="none" d="M39.61,98.71 L 40.16 98.71 40.7 98.71 41.25 98.71 41.8 98.71 42.35 98.71 42.9 98.71 43.45 98.71 44 98.71 44.55 98.71 45.1 98.71 45.64 98.71 46.19 98.71 46.74 98.71 47.29 98.71 47.84 98.7 48.39 98.7 48.94 98.7 49.49 98.69 50.04 98.69 50.58 98.68 51.13 98.68 51.68 98.67 52.23 98.66 52.78 98.65 53.33 98.64 53.88 98.63 54.43 98.62 54.98 98.6 55.52 98.58 56.07 98.56 56.62 98.54 57.17 98.51 57.72 98.48 58.27 98.45 58.82 98.41 59.37 98.37 59.92 98.33 60.46 98.28 61.01 98.23 61.56 98.17 62.11 98.1 62.66 98.03 63.21 97.96 63.76 97.87 64.31 97.78 64.86 97.69 65.4 97.58 65.95 97.47 66.5 97.34 67.05 97.21 67.6 97.07 68.15 96.92 68.7 96.75 69.25 96.57 69.8 96.38 70.35 96.17 70.89 95.95 71.44 95.7 71.99 95.44 72.54 95.16 73.09 94.86 73.64 94.53 74.19 94.18 74.74 93.79 75.29 93.38 75.83 92.94 76.38 92.47 76.93 91.96 77.48 91.41 78.03 90.83 78.58 90.21 79.13 89.55 79.68 88.84 80.23 88.1 80.77 87.31 81.32 86.49 81.87 85.62 82.42 84.71 82.97 83.77 83.52 82.79 84.07 81.77 84.62 80.73 85.17 79.65 85.71 78.55 86.26 77.43 86.81 76.29 87.36 75.14 87.91 73.98 88.46 72.82 89.01 71.66 89.56 70.51 90.11 69.37 90.65 68.25 91.2 67.15 91.75 66.08 92.3 65.04 92.85 64.04 93.4 63.08 93.95 62.17 94.5 61.3 95.05 60.49 95.59 59.74 96.14 59.04 96.69 58.41 97.24 57.83 97.79 57.32 98.34 56.88 98.89 56.49 99.44 56.18 99.99 55.92 100.53 55.73 101.08 55.61 101.63 55.54 102.18 55.54 102.73 55.59 103.28 55.7 103.83 55.86 104.38 56.08 104.93 56.34 105.48 56.65 106.02 57 106.57 57.39 107.12 57.82 107.67 58.29 108.22 58.78 108.77 59.3 109.32 59.84 109.87 60.41 110.42 60.99 110.96 61.59 111.51 62.2 112.06 62.82 112.61 63.44 113.16 64.07 113.71 64.7 114.26 65.34 114.81 65.97 115.36 66.59 115.9 67.22 116.45 67.83 117 68.45 117.55 69.05 118.1 69.65 118.65 70.24 119.2 70.82 119.75 71.39 120.3 71.96 120.84 72.52 121.39 73.06 121.94 73.6 122.49 74.14 123.04 74.66 123.59 75.17 124.14 75.68 124.69 76.17 125.24 76.65 125.78 77.13 126.33 77.58 126.88 78.03 127.43 78.46 127.98 78.87 128.53 79.27 129.08 79.65 129.63 80.01 130.18 80.35 130.72 80.66 131.27 80.96 131.82 81.23 132.37 81.47 132.92 81.69 133.47 81.89 134.02 82.06 134.57 82.2 135.12 82.32 135.66 82.42 136.21 82.49 136.76 82.53 137.31 82.56 137.86 82.56 138.41 82.54 138.96 82.51 139.51 82.46 140.06 82.4 140.6 82.32 141.15 82.23 141.7 82.13 142.25 82.03 142.8 81.92 143.35 81.8 143.9 81.69 144.45 81.57 145 81.45 145.55 81.34 146.09 81.23 146.64 81.12 147.19 81.02 147.74 80.93 148.29 80.85 148.84 80.77 149.39 80.71 149.94 80.66 150.49 80.63 151.03 80.6 151.58 80.6 152.13 80.6 152.68 80.63 153.23 80.67 153.78 80.73 154.33 80.81 154.88 80.91 155.43 81.03 155.97 81.17 156.52 81.34 157.07 81.53 157.62 81.74 158.17 81.97 158.72 82.23 159.27 82.51 159.82 82.81 160.37 83.13 160.91 83.48 161.46 83.85 162.01 84.23 162.56 84.64 163.11 85.06 163.66 85.5 164.21 85.95 164.76 86.42 165.31 86.89 165.85 87.38 166.4 87.87 166.95 88.36 167.5 88.85 168.05 89.35 168.6 89.84 169.15 90.33 169.7 90.81 170.25 91.29 170.79 91.75 171.34 92.2 171.89 92.64 172.44 93.07 172.99 93.48 173.54 93.87 174.09 94.25 174.64 94.61 175.19 94.95 175.73 95.27 176.28 95.58 176.83 95.86 177.38 96.13 177.93 96.38 178.48 96.61 179.03 96.83 179.58 97.02 180.13 97.21 180.68 97.37 181.22 97.52 181.77 97.66 182.32 97.79 182.87 97.9 183.42 98 183.97 98.09 184.52 98.17 185.07 98.24 185.62 98.31 186.16 98.36 186.71 98.41 187.26 98.46 187.81 98.49 188.36 98.53 188.91 98.55 189.46 98.58 190.01 98.6 190.56 98.62 191.1 98.63 191.65 98.65 192.2 98.66 192.75 98.67 193.3 98.68 193.85 98.68 194.4 98.69 194.95 98.69 195.5 98.7 196.04 98.7 196.59 98.7 197.14 98.71 197.69 98.71 198.24 98.71 198.79 98.71 199.34 98.71 199.89 98.71 200.44 98.71 200.98 98.71 201.53 98.71 202.08 98.71 202.63 98.71 203.18 98.71 203.73 98.71" stroke="#A5866D" class="geometry color_"/>
        <path fill="none" d="M48.63,98.71 L 49.14 98.71 49.65 98.71 50.16 98.71 50.66 98.71 51.17 98.71 51.68 98.71 52.19 98.71 52.7 98.71 53.21 98.71 53.72 98.71 54.22 98.71 54.73 98.71 55.24 98.7 55.75 98.7 56.26 98.7 56.77 98.69 57.28 98.69 57.78 98.68 58.29 98.68 58.8 98.67 59.31 98.66 59.82 98.65 60.33 98.64 60.83 98.62 61.34 98.6 61.85 98.58 62.36 98.55 62.87 98.52 63.38 98.49 63.89 98.45 64.39 98.4 64.9 98.35 65.41 98.29 65.92 98.22 66.43 98.14 66.94 98.04 67.45 97.94 67.95 97.82 68.46 97.69 68.97 97.54 69.48 97.37 69.99 97.18 70.5 96.97 71.01 96.74 71.51 96.48 72.02 96.2 72.53 95.88 73.04 95.54 73.55 95.16 74.06 94.75 74.56 94.3 75.07 93.81 75.58 93.28 76.09 92.72 76.6 92.11 77.11 91.45 77.62 90.75 78.12 90.01 78.63 89.22 79.14 88.39 79.65 87.51 80.16 86.58 80.67 85.62 81.18 84.61 81.68 83.56 82.19 82.47 82.7 81.34 83.21 80.18 83.72 78.99 84.23 77.78 84.74 76.55 85.24 75.29 85.75 74.03 86.26 72.75 86.77 71.48 87.28 70.21 87.79 68.94 88.29 67.69 88.8 66.46 89.31 65.25 89.82 64.07 90.33 62.93 90.84 61.83 91.35 60.78 91.85 59.77 92.36 58.82 92.87 57.92 93.38 57.08 93.89 56.31 94.4 55.6 94.91 54.96 95.41 54.38 95.92 53.87 96.43 53.43 96.94 53.06 97.45 52.75 97.96 52.51 98.47 52.33 98.97 52.22 99.48 52.17 99.99 52.17 100.5 52.23 101.01 52.34 101.52 52.5 102.02 52.71 102.53 52.96 103.04 53.25 103.55 53.58 104.06 53.94 104.57 54.34 105.08 54.77 105.58 55.22 106.09 55.7 106.6 56.2 107.11 56.73 107.62 57.27 108.13 57.84 108.64 58.42 109.14 59.01 109.65 59.62 110.16 60.23 110.67 60.87 111.18 61.51 111.69 62.16 112.2 62.81 112.7 63.48 113.21 64.15 113.72 64.82 114.23 65.5 114.74 66.19 115.25 66.87 115.75 67.56 116.26 68.25 116.77 68.94 117.28 69.62 117.79 70.3 118.3 70.98 118.81 71.66 119.31 72.32 119.82 72.98 120.33 73.63 120.84 74.27 121.35 74.9 121.86 75.52 122.37 76.12 122.87 76.7 123.38 77.27 123.89 77.82 124.4 78.35 124.91 78.87 125.42 79.36 125.93 79.83 126.43 80.27 126.94 80.69 127.45 81.09 127.96 81.47 128.47 81.82 128.98 82.15 129.48 82.45 129.99 82.72 130.5 82.98 131.01 83.21 131.52 83.41 132.03 83.6 132.54 83.76 133.04 83.9 133.55 84.03 134.06 84.13 134.57 84.22 135.08 84.29 135.59 84.35 136.1 84.4 136.6 84.43 137.11 84.46 137.62 84.47 138.13 84.48 138.64 84.48 139.15 84.48 139.66 84.47 140.16 84.46 140.67 84.45 141.18 84.43 141.69 84.42 142.2 84.4 142.71 84.38 143.21 84.36 143.72 84.34 144.23 84.31 144.74 84.29 145.25 84.27 145.76 84.24 146.27 84.22 146.77 84.19 147.28 84.16 147.79 84.13 148.3 84.09 148.81 84.06 149.32 84.02 149.83 83.98 150.33 83.93 150.84 83.89 151.35 83.84 151.86 83.8 152.37 83.75 152.88 83.71 153.39 83.67 153.89 83.64 154.4 83.61 154.91 83.59 155.42 83.57 155.93 83.57 156.44 83.58 156.95 83.61 157.45 83.65 157.96 83.7 158.47 83.78 158.98 83.87 159.49 83.99 160 84.12 160.5 84.28 161.01 84.47 161.52 84.67 162.03 84.9 162.54 85.16 163.05 85.43 163.56 85.73 164.06 86.05 164.57 86.39 165.08 86.75 165.59 87.12 166.1 87.52 166.61 87.92 167.12 88.34 167.62 88.77 168.13 89.2 168.64 89.64 169.15 90.09 169.66 90.53 170.17 90.97 170.68 91.41 171.18 91.85 171.69 92.28 172.2 92.69 172.71 93.1 173.22 93.5 173.73 93.88 174.23 94.25 174.74 94.6 175.25 94.93 175.76 95.25 176.27 95.56 176.78 95.84 177.29 96.11 177.79 96.36 178.3 96.59 178.81 96.81 179.32 97 179.83 97.19 180.34 97.36 180.85 97.51 181.35 97.65 181.86 97.78 182.37 97.89 182.88 97.99 183.39 98.08 183.9 98.17 184.41 98.24 184.91 98.3 185.42 98.36 185.93 98.41 186.44 98.45 186.95 98.49 187.46 98.53 187.96 98.56 188.47 98.58 188.98 98.6 189.49 98.62 190 98.64 190.51 98.65 191.02 98.66 191.52 98.67 192.03 98.68 192.54 98.68 193.05 98.69 193.56 98.69 194.07 98.7 194.58 98.7 195.08 98.7 195.59 98.71 196.1 98.71 196.61 98.71 197.12 98.71 197.63 98.71 198.14 98.71 198.64 98.71 199.15 98.71 199.66 98.71 200.17 98.71 200.68 98.71" stroke="#B78D69" class="geometry color_"/>
        <path fill="none" d="M52.57,98.71 L 53.05 98.71 53.54 98.71 54.03 98.71 54.51 98.71 55 98.71 55.48 98.71 55.97 98.71 56.45 98.71 56.94 98.71 57.42 98.7 57.91 98.7 58.4 98.7 58.88 98.69 59.37 98.69 59.85 98.68 60.34 98.68 60.82 98.67 61.31 98.66 61.79 98.64 62.28 98.63 62.76 98.61 63.25 98.59 63.74 98.56 64.22 98.53 64.71 98.49 65.19 98.45 65.68 98.4 66.16 98.34 66.65 98.27 67.13 98.19 67.62 98.1 68.11 97.99 68.59 97.87 69.08 97.73 69.56 97.58 70.05 97.4 70.53 97.2 71.02 96.97 71.5 96.71 71.99 96.42 72.47 96.1 72.96 95.75 73.45 95.35 73.93 94.92 74.42 94.44 74.9 93.91 75.39 93.34 75.87 92.72 76.36 92.04 76.84 91.3 77.33 90.51 77.82 89.67 78.3 88.76 78.79 87.79 79.27 86.76 79.76 85.67 80.24 84.52 80.73 83.32 81.21 82.05 81.7 80.74 82.18 79.37 82.67 77.96 83.16 76.5 83.64 75 84.13 73.47 84.61 71.92 85.1 70.35 85.58 68.76 86.07 67.17 86.55 65.58 87.04 64 87.53 62.44 88.01 60.9 88.5 59.4 88.98 57.95 89.47 56.54 89.95 55.2 90.44 53.92 90.92 52.71 91.41 51.59 91.89 50.55 92.38 49.59 92.87 48.73 93.35 47.97 93.84 47.3 94.32 46.74 94.81 46.28 95.29 45.91 95.78 45.65 96.26 45.48 96.75 45.41 97.24 45.43 97.72 45.54 98.21 45.74 98.69 46.01 99.18 46.35 99.66 46.76 100.15 47.24 100.63 47.77 101.12 48.35 101.6 48.98 102.09 49.65 102.58 50.35 103.06 51.08 103.55 51.83 104.03 52.61 104.52 53.4 105 54.2 105.49 55 105.97 55.82 106.46 56.63 106.95 57.44 107.43 58.24 107.92 59.05 108.4 59.84 108.89 60.62 109.37 61.4 109.86 62.16 110.34 62.91 110.83 63.65 111.31 64.37 111.8 65.09 112.29 65.79 112.77 66.47 113.26 67.15 113.74 67.81 114.23 68.45 114.71 69.09 115.2 69.71 115.68 70.32 116.17 70.92 116.66 71.5 117.14 72.08 117.63 72.64 118.11 73.19 118.6 73.74 119.08 74.27 119.57 74.79 120.05 75.3 120.54 75.8 121.02 76.29 121.51 76.78 122 77.25 122.48 77.71 122.97 78.16 123.45 78.61 123.94 79.04 124.42 79.46 124.91 79.87 125.39 80.28 125.88 80.67 126.37 81.05 126.85 81.42 127.34 81.78 127.82 82.13 128.31 82.46 128.79 82.78 129.28 83.09 129.76 83.39 130.25 83.67 130.73 83.94 131.22 84.2 131.71 84.44 132.19 84.67 132.68 84.88 133.16 85.08 133.65 85.26 134.13 85.43 134.62 85.59 135.1 85.73 135.59 85.86 136.08 85.98 136.56 86.09 137.05 86.19 137.53 86.27 138.02 86.35 138.5 86.42 138.99 86.48 139.47 86.53 139.96 86.57 140.44 86.61 140.93 86.65 141.42 86.68 141.9 86.71 142.39 86.73 142.87 86.76 143.36 86.78 143.84 86.79 144.33 86.81 144.81 86.82 145.3 86.83 145.79 86.84 146.27 86.84 146.76 86.85 147.24 86.85 147.73 86.84 148.21 86.84 148.7 86.83 149.18 86.81 149.67 86.79 150.15 86.77 150.64 86.75 151.13 86.72 151.61 86.69 152.1 86.66 152.58 86.62 153.07 86.59 153.55 86.56 154.04 86.53 154.52 86.5 155.01 86.48 155.5 86.46 155.98 86.45 156.47 86.45 156.95 86.45 157.44 86.47 157.92 86.51 158.41 86.56 158.89 86.62 159.38 86.7 159.87 86.8 160.35 86.92 160.84 87.05 161.32 87.21 161.81 87.38 162.29 87.58 162.78 87.79 163.26 88.02 163.75 88.28 164.23 88.55 164.72 88.83 165.21 89.13 165.69 89.45 166.18 89.78 166.66 90.11 167.15 90.46 167.63 90.82 168.12 91.18 168.6 91.54 169.09 91.91 169.58 92.27 170.06 92.64 170.55 93 171.03 93.35 171.52 93.7 172 94.04 172.49 94.37 172.97 94.69 173.46 95 173.94 95.29 174.43 95.58 174.92 95.84 175.4 96.1 175.89 96.34 176.37 96.56 176.86 96.77 177.34 96.97 177.83 97.15 178.31 97.31 178.8 97.47 179.29 97.61 179.77 97.74 180.26 97.85 180.74 97.96 181.23 98.05 181.71 98.14 182.2 98.21 182.68 98.28 183.17 98.34 183.65 98.39 184.14 98.44 184.63 98.48 185.11 98.52 185.6 98.55 186.08 98.57 186.57 98.59 187.05 98.61 187.54 98.63 188.02 98.65 188.51 98.66 189 98.67 189.48 98.68 189.97 98.68 190.45 98.69 190.94 98.69 191.42 98.7 191.91 98.7 192.39 98.7 192.88 98.71 193.36 98.71 193.85 98.71 194.34 98.71 194.82 98.71 195.31 98.71 195.79 98.71 196.28 98.71 196.76 98.71 197.25 98.71 197.73 98.71" stroke="#C99465" class="geometry color_"/>
        <path fill="none" d="M57.94,98.71 L 58.4 98.71 58.86 98.71 59.31 98.71 59.77 98.71 60.23 98.71 60.68 98.71 61.14 98.71 61.59 98.71 62.05 98.7 62.51 98.7 62.96 98.69 63.42 98.69 63.87 98.68 64.33 98.68 64.79 98.67 65.24 98.65 65.7 98.64 66.16 98.62 66.61 98.6 67.07 98.57 67.52 98.54 67.98 98.5 68.44 98.46 68.89 98.4 69.35 98.34 69.81 98.26 70.26 98.18 70.72 98.07 71.17 97.96 71.63 97.82 72.09 97.66 72.54 97.47 73 97.26 73.46 97.02 73.91 96.75 74.37 96.44 74.82 96.1 75.28 95.7 75.74 95.27 76.19 94.78 76.65 94.24 77.1 93.64 77.56 92.98 78.02 92.26 78.47 91.47 78.93 90.62 79.39 89.69 79.84 88.68 80.3 87.61 80.75 86.45 81.21 85.22 81.67 83.92 82.12 82.54 82.58 81.09 83.04 79.57 83.49 77.99 83.95 76.34 84.4 74.64 84.86 72.89 85.32 71.09 85.77 69.27 86.23 67.41 86.69 65.54 87.14 63.66 87.6 61.78 88.05 59.92 88.51 58.08 88.97 56.27 89.42 54.51 89.88 52.79 90.33 51.15 90.79 49.57 91.25 48.08 91.7 46.68 92.16 45.38 92.62 44.18 93.07 43.09 93.53 42.11 93.98 41.26 94.44 40.52 94.9 39.9 95.35 39.41 95.81 39.04 96.27 38.78 96.72 38.65 97.18 38.63 97.63 38.72 98.09 38.91 98.55 39.21 99 39.6 99.46 40.08 99.92 40.64 100.37 41.27 100.83 41.98 101.28 42.74 101.74 43.56 102.2 44.43 102.65 45.34 103.11 46.29 103.56 47.27 104.02 48.27 104.48 49.29 104.93 50.32 105.39 51.36 105.85 52.41 106.3 53.46 106.76 54.51 107.21 55.55 107.67 56.59 108.13 57.62 108.58 58.63 109.04 59.64 109.5 60.63 109.95 61.6 110.41 62.56 110.86 63.51 111.32 64.43 111.78 65.34 112.23 66.23 112.69 67.1 113.15 67.96 113.6 68.79 114.06 69.6 114.51 70.4 114.97 71.18 115.43 71.93 115.88 72.67 116.34 73.38 116.79 74.08 117.25 74.75 117.71 75.4 118.16 76.02 118.62 76.63 119.08 77.2 119.53 77.76 119.99 78.29 120.44 78.79 120.9 79.27 121.36 79.73 121.81 80.15 122.27 80.56 122.73 80.94 123.18 81.29 123.64 81.62 124.09 81.93 124.55 82.22 125.01 82.48 125.46 82.73 125.92 82.96 126.38 83.17 126.83 83.36 127.29 83.54 127.74 83.71 128.2 83.87 128.66 84.02 129.11 84.16 129.57 84.3 130.02 84.43 130.48 84.55 130.94 84.67 131.39 84.79 131.85 84.9 132.31 85.02 132.76 85.13 133.22 85.24 133.67 85.34 134.13 85.45 134.59 85.55 135.04 85.65 135.5 85.75 135.96 85.85 136.41 85.94 136.87 86.03 137.32 86.12 137.78 86.21 138.24 86.29 138.69 86.37 139.15 86.44 139.61 86.51 140.06 86.58 140.52 86.64 140.97 86.7 141.43 86.76 141.89 86.82 142.34 86.87 142.8 86.92 143.25 86.96 143.71 87 144.17 87.04 144.62 87.07 145.08 87.1 145.54 87.13 145.99 87.15 146.45 87.17 146.9 87.18 147.36 87.18 147.82 87.18 148.27 87.17 148.73 87.16 149.19 87.14 149.64 87.11 150.1 87.08 150.55 87.05 151.01 87.01 151.47 86.96 151.92 86.92 152.38 86.87 152.84 86.82 153.29 86.78 153.75 86.73 154.2 86.69 154.66 86.65 155.12 86.62 155.57 86.6 156.03 86.58 156.49 86.58 156.94 86.59 157.4 86.61 157.85 86.65 158.31 86.7 158.77 86.77 159.22 86.85 159.68 86.96 160.13 87.08 160.59 87.22 161.05 87.38 161.5 87.56 161.96 87.76 162.42 87.98 162.87 88.22 163.33 88.47 163.78 88.74 164.24 89.03 164.7 89.33 165.15 89.64 165.61 89.97 166.07 90.31 166.52 90.65 166.98 91 167.43 91.36 167.89 91.72 168.35 92.09 168.8 92.45 169.26 92.81 169.72 93.17 170.17 93.52 170.63 93.87 171.08 94.21 171.54 94.54 172 94.85 172.45 95.16 172.91 95.45 173.36 95.73 173.82 96 174.28 96.25 174.73 96.48 175.19 96.7 175.65 96.91 176.1 97.1 176.56 97.27 177.01 97.43 177.47 97.58 177.93 97.72 178.38 97.84 178.84 97.95 179.3 98.05 179.75 98.14 180.21 98.21 180.66 98.28 181.12 98.35 181.58 98.4 182.03 98.45 182.49 98.49 182.95 98.52 183.4 98.55 183.86 98.58 184.31 98.6 184.77 98.62 185.23 98.64 185.68 98.65 186.14 98.66 186.59 98.67 187.05 98.68 187.51 98.69 187.96 98.69 188.42 98.7 188.88 98.7 189.33 98.7 189.79 98.71 190.24 98.71 190.7 98.71 191.16 98.71 191.61 98.71 192.07 98.71 192.53 98.71 192.98 98.71 193.44 98.71 193.89 98.71 194.35 98.71" stroke="#DA9B61" class="geometry color_"/>
        <path fill="none" d="M63.07,98.71 L 63.5 98.71 63.92 98.71 64.35 98.71 64.78 98.71 65.21 98.71 65.64 98.71 66.07 98.7 66.5 98.7 66.92 98.7 67.35 98.69 67.78 98.68 68.21 98.67 68.64 98.66 69.07 98.65 69.5 98.63 69.92 98.61 70.35 98.58 70.78 98.55 71.21 98.51 71.64 98.46 72.07 98.4 72.5 98.33 72.92 98.24 73.35 98.14 73.78 98.02 74.21 97.88 74.64 97.72 75.07 97.53 75.5 97.3 75.92 97.04 76.35 96.74 76.78 96.4 77.21 96.01 77.64 95.57 78.07 95.07 78.5 94.5 78.92 93.87 79.35 93.16 79.78 92.37 80.21 91.51 80.64 90.55 81.07 89.5 81.5 88.36 81.93 87.12 82.35 85.78 82.78 84.34 83.21 82.8 83.64 81.16 84.07 79.42 84.5 77.58 84.93 75.65 85.35 73.63 85.78 71.54 86.21 69.37 86.64 67.13 87.07 64.85 87.5 62.52 87.93 60.16 88.35 57.79 88.78 55.41 89.21 53.05 89.64 50.71 90.07 48.42 90.5 46.19 90.93 44.02 91.35 41.95 91.78 39.97 92.21 38.12 92.64 36.38 93.07 34.79 93.5 33.35 93.93 32.06 94.35 30.94 94.78 29.98 95.21 29.2 95.64 28.6 96.07 28.17 96.5 27.91 96.93 27.83 97.35 27.91 97.78 28.15 98.21 28.55 98.64 29.09 99.07 29.77 99.5 30.58 99.93 31.51 100.35 32.54 100.78 33.67 101.21 34.88 101.64 36.17 102.07 37.51 102.5 38.91 102.93 40.35 103.36 41.82 103.78 43.32 104.21 44.82 104.64 46.34 105.07 47.85 105.5 49.36 105.93 50.85 106.36 52.32 106.78 53.78 107.21 55.21 107.64 56.61 108.07 57.98 108.5 59.32 108.93 60.62 109.36 61.89 109.78 63.13 110.21 64.33 110.64 65.5 111.07 66.63 111.5 67.72 111.93 68.78 112.36 69.81 112.78 70.8 113.21 71.76 113.64 72.68 114.07 73.57 114.5 74.43 114.93 75.25 115.36 76.04 115.78 76.8 116.21 77.52 116.64 78.21 117.07 78.86 117.5 79.48 117.93 80.06 118.36 80.61 118.78 81.12 119.21 81.59 119.64 82.02 120.07 82.42 120.5 82.78 120.93 83.11 121.36 83.39 121.79 83.64 122.21 83.86 122.64 84.04 123.07 84.19 123.5 84.31 123.93 84.4 124.36 84.46 124.79 84.5 125.21 84.53 125.64 84.53 126.07 84.52 126.5 84.49 126.93 84.46 127.36 84.43 127.79 84.39 128.21 84.35 128.64 84.32 129.07 84.29 129.5 84.27 129.93 84.27 130.36 84.27 130.79 84.29 131.21 84.33 131.64 84.38 132.07 84.44 132.5 84.52 132.93 84.62 133.36 84.73 133.79 84.85 134.21 84.98 134.64 85.12 135.07 85.27 135.5 85.43 135.93 85.59 136.36 85.75 136.79 85.92 137.21 86.09 137.64 86.25 138.07 86.41 138.5 86.58 138.93 86.73 139.36 86.89 139.79 87.03 140.21 87.18 140.64 87.32 141.07 87.45 141.5 87.58 141.93 87.7 142.36 87.81 142.79 87.92 143.22 88.03 143.64 88.12 144.07 88.22 144.5 88.3 144.93 88.37 145.36 88.44 145.79 88.5 146.22 88.55 146.64 88.58 147.07 88.61 147.5 88.62 147.93 88.62 148.36 88.61 148.79 88.59 149.22 88.55 149.64 88.5 150.07 88.44 150.5 88.37 150.93 88.29 151.36 88.2 151.79 88.1 152.22 88 152.64 87.89 153.07 87.78 153.5 87.67 153.93 87.57 154.36 87.46 154.79 87.37 155.22 87.28 155.64 87.2 156.07 87.13 156.5 87.07 156.93 87.03 157.36 87.01 157.79 87 158.22 87.01 158.64 87.04 159.07 87.09 159.5 87.16 159.93 87.24 160.36 87.35 160.79 87.48 161.22 87.63 161.65 87.79 162.07 87.98 162.5 88.19 162.93 88.41 163.36 88.65 163.79 88.91 164.22 89.18 164.65 89.47 165.07 89.77 165.5 90.09 165.93 90.42 166.36 90.75 166.79 91.1 167.22 91.45 167.65 91.8 168.07 92.16 168.5 92.52 168.93 92.88 169.36 93.24 169.79 93.6 170.22 93.94 170.65 94.28 171.07 94.61 171.5 94.93 171.93 95.24 172.36 95.54 172.79 95.82 173.22 96.09 173.65 96.34 174.07 96.58 174.5 96.8 174.93 97 175.36 97.19 175.79 97.37 176.22 97.53 176.65 97.67 177.07 97.81 177.5 97.92 177.93 98.03 178.36 98.13 178.79 98.21 179.22 98.28 179.65 98.35 180.07 98.4 180.5 98.45 180.93 98.5 181.36 98.53 181.79 98.56 182.22 98.59 182.65 98.61 183.08 98.63 183.5 98.65 183.93 98.66 184.36 98.67 184.79 98.68 185.22 98.69 185.65 98.69 186.08 98.7 186.5 98.7 186.93 98.7 187.36 98.71 187.79 98.71 188.22 98.71 188.65 98.71 189.08 98.71 189.5 98.71 189.93 98.71 190.36 98.71 190.79 98.71 191.22 98.71" stroke="#ECA25C" class="geometry color_"/>
        <path fill="none" d="M62.73,98.71 L 63.16 98.71 63.6 98.71 64.03 98.71 64.46 98.71 64.89 98.71 65.32 98.71 65.75 98.7 66.18 98.7 66.61 98.7 67.04 98.69 67.47 98.69 67.9 98.68 68.33 98.67 68.77 98.65 69.2 98.64 69.63 98.62 70.06 98.6 70.49 98.57 70.92 98.53 71.35 98.49 71.78 98.44 72.21 98.38 72.64 98.3 73.07 98.21 73.5 98.11 73.94 97.99 74.37 97.84 74.8 97.67 75.23 97.47 75.66 97.25 76.09 96.98 76.52 96.68 76.95 96.33 77.38 95.94 77.81 95.49 78.24 94.98 78.67 94.41 79.11 93.77 79.54 93.06 79.97 92.27 80.4 91.4 80.83 90.44 81.26 89.39 81.69 88.24 82.12 87 82.55 85.66 82.98 84.22 83.41 82.68 83.84 81.03 84.28 79.29 84.71 77.45 85.14 75.52 85.57 73.5 86 71.4 86.43 69.22 86.86 66.99 87.29 64.69 87.72 62.36 88.15 59.99 88.58 57.61 89.01 55.22 89.45 52.84 89.88 50.48 90.31 48.17 90.74 45.91 91.17 43.71 91.6 41.61 92.03 39.6 92.46 37.7 92.89 35.92 93.32 34.29 93.75 32.8 94.18 31.46 94.62 30.29 95.05 29.29 95.48 28.46 95.91 27.82 96.34 27.35 96.77 27.06 97.2 26.96 97.63 27.03 98.06 27.28 98.49 27.69 98.92 28.27 99.35 29 99.79 29.88 100.22 30.9 100.65 32.04 101.08 33.3 101.51 34.66 101.94 36.12 102.37 37.66 102.8 39.27 103.23 40.94 103.66 42.65 104.09 44.4 104.52 46.17 104.96 47.95 105.39 49.73 105.82 51.51 106.25 53.26 106.68 54.99 107.11 56.68 107.54 58.33 107.97 59.93 108.4 61.47 108.83 62.95 109.26 64.36 109.69 65.71 110.12 66.99 110.56 68.19 110.99 69.32 111.42 70.37 111.85 71.36 112.28 72.27 112.71 73.11 113.14 73.88 113.57 74.59 114 75.24 114.43 75.83 114.86 76.36 115.29 76.85 115.73 77.29 116.16 77.69 116.59 78.06 117.02 78.39 117.45 78.7 117.88 78.98 118.31 79.24 118.74 79.48 119.17 79.7 119.6 79.92 120.03 80.12 120.46 80.31 120.9 80.5 121.33 80.68 121.76 80.85 122.19 81.02 122.62 81.19 123.05 81.35 123.48 81.51 123.91 81.67 124.34 81.82 124.77 81.97 125.2 82.11 125.63 82.25 126.07 82.38 126.5 82.51 126.93 82.63 127.36 82.75 127.79 82.86 128.22 82.97 128.65 83.08 129.08 83.18 129.51 83.28 129.94 83.38 130.37 83.48 130.8 83.57 131.24 83.67 131.67 83.77 132.1 83.86 132.53 83.97 132.96 84.07 133.39 84.18 133.82 84.29 134.25 84.41 134.68 84.53 135.11 84.65 135.54 84.79 135.97 84.93 136.41 85.07 136.84 85.22 137.27 85.37 137.7 85.53 138.13 85.69 138.56 85.86 138.99 86.03 139.42 86.2 139.85 86.38 140.28 86.55 140.71 86.73 141.14 86.91 141.58 87.08 142.01 87.25 142.44 87.42 142.87 87.58 143.3 87.74 143.73 87.89 144.16 88.03 144.59 88.16 145.02 88.29 145.45 88.4 145.88 88.5 146.31 88.59 146.75 88.66 147.18 88.72 147.61 88.76 148.04 88.79 148.47 88.81 148.9 88.81 149.33 88.79 149.76 88.77 150.19 88.72 150.62 88.67 151.05 88.61 151.48 88.54 151.92 88.45 152.35 88.37 152.78 88.27 153.21 88.18 153.64 88.09 154.07 87.99 154.5 87.9 154.93 87.82 155.36 87.74 155.79 87.67 156.22 87.61 156.65 87.57 157.09 87.54 157.52 87.52 157.95 87.52 158.38 87.54 158.81 87.58 159.24 87.63 159.67 87.7 160.1 87.8 160.53 87.91 160.96 88.04 161.39 88.19 161.82 88.36 162.25 88.55 162.69 88.76 163.12 88.98 163.55 89.22 163.98 89.48 164.41 89.75 164.84 90.03 165.27 90.33 165.7 90.64 166.13 90.95 166.56 91.28 166.99 91.61 167.42 91.94 167.86 92.28 168.29 92.61 168.72 92.95 169.15 93.29 169.58 93.62 170.01 93.95 170.44 94.27 170.87 94.58 171.3 94.89 171.73 95.18 172.16 95.47 172.59 95.74 173.03 96 173.46 96.24 173.89 96.47 174.32 96.69 174.75 96.89 175.18 97.08 175.61 97.26 176.04 97.42 176.47 97.57 176.9 97.7 177.33 97.83 177.76 97.94 178.2 98.04 178.63 98.13 179.06 98.21 179.49 98.28 179.92 98.34 180.35 98.39 180.78 98.44 181.21 98.48 181.64 98.52 182.07 98.55 182.5 98.58 182.93 98.6 183.37 98.62 183.8 98.64 184.23 98.65 184.66 98.66 185.09 98.67 185.52 98.68 185.95 98.69 186.38 98.69 186.81 98.7 187.24 98.7 187.67 98.7 188.1 98.71 188.54 98.71 188.97 98.71 189.4 98.71 189.83 98.71 190.26 98.71 190.69 98.71 191.12 98.71 191.55 98.71" stroke="#EE9A5D" class="geometry color_"/>
        <path fill="none" d="M60.44,98.71 L 60.86 98.71 61.29 98.71 61.72 98.71 62.14 98.71 62.57 98.71 63 98.71 63.42 98.71 63.85 98.71 64.27 98.7 64.7 98.7 65.13 98.7 65.55 98.69 65.98 98.68 66.41 98.67 66.83 98.66 67.26 98.65 67.68 98.63 68.11 98.61 68.54 98.59 68.96 98.56 69.39 98.53 69.81 98.48 70.24 98.43 70.67 98.37 71.09 98.3 71.52 98.21 71.95 98.11 72.37 97.99 72.8 97.85 73.22 97.69 73.65 97.5 74.08 97.29 74.5 97.04 74.93 96.76 75.36 96.44 75.78 96.08 76.21 95.67 76.63 95.21 77.06 94.69 77.49 94.12 77.91 93.48 78.34 92.78 78.77 92.01 79.19 91.16 79.62 90.24 80.04 89.25 80.47 88.17 80.9 87.01 81.32 85.76 81.75 84.43 82.17 83.03 82.6 81.54 83.03 79.97 83.45 78.33 83.88 76.62 84.31 74.84 84.73 73 85.16 71.11 85.58 69.17 86.01 67.2 86.44 65.2 86.86 63.18 87.29 61.16 87.72 59.13 88.14 57.12 88.57 55.13 88.99 53.18 89.42 51.27 89.85 49.41 90.27 47.62 90.7 45.89 91.13 44.26 91.55 42.71 91.98 41.25 92.4 39.9 92.83 38.66 93.26 37.53 93.68 36.53 94.11 35.64 94.53 34.87 94.96 34.23 95.39 33.71 95.81 33.32 96.24 33.06 96.67 32.92 97.09 32.9 97.52 33 97.94 33.23 98.37 33.56 98.8 34.01 99.22 34.56 99.65 35.22 100.08 35.98 100.5 36.83 100.93 37.77 101.35 38.79 101.78 39.88 102.21 41.05 102.63 42.27 103.06 43.55 103.49 44.88 103.91 46.25 104.34 47.64 104.76 49.06 105.19 50.49 105.62 51.92 106.04 53.35 106.47 54.77 106.89 56.17 107.32 57.54 107.75 58.87 108.17 60.16 108.6 61.4 109.03 62.59 109.45 63.72 109.88 64.78 110.3 65.78 110.73 66.72 111.16 67.58 111.58 68.38 112.01 69.11 112.44 69.78 112.86 70.38 113.29 70.93 113.71 71.42 114.14 71.85 114.57 72.25 114.99 72.6 115.42 72.91 115.85 73.2 116.27 73.46 116.7 73.71 117.12 73.94 117.55 74.16 117.98 74.38 118.4 74.6 118.83 74.83 119.25 75.06 119.68 75.31 120.11 75.57 120.53 75.85 120.96 76.14 121.39 76.46 121.81 76.78 122.24 77.13 122.66 77.49 123.09 77.86 123.52 78.25 123.94 78.65 124.37 79.06 124.8 79.47 125.22 79.88 125.65 80.3 126.07 80.71 126.5 81.12 126.93 81.52 127.35 81.91 127.78 82.29 128.21 82.65 128.63 83 129.06 83.33 129.48 83.64 129.91 83.94 130.34 84.21 130.76 84.46 131.19 84.7 131.61 84.91 132.04 85.1 132.47 85.28 132.89 85.44 133.32 85.58 133.75 85.71 134.17 85.83 134.6 85.94 135.02 86.04 135.45 86.13 135.88 86.22 136.3 86.31 136.73 86.4 137.16 86.49 137.58 86.58 138.01 86.68 138.43 86.78 138.86 86.89 139.29 87 139.71 87.12 140.14 87.25 140.57 87.39 140.99 87.53 141.42 87.68 141.84 87.83 142.27 87.99 142.7 88.14 143.12 88.3 143.55 88.46 143.97 88.61 144.4 88.76 144.83 88.91 145.25 89.04 145.68 89.17 146.11 89.29 146.53 89.39 146.96 89.48 147.38 89.56 147.81 89.62 148.24 89.67 148.66 89.7 149.09 89.71 149.52 89.71 149.94 89.7 150.37 89.67 150.79 89.62 151.22 89.57 151.65 89.5 152.07 89.42 152.5 89.34 152.93 89.25 153.35 89.15 153.78 89.05 154.2 88.95 154.63 88.86 155.06 88.76 155.48 88.67 155.91 88.59 156.34 88.52 156.76 88.46 157.19 88.41 157.61 88.38 158.04 88.37 158.47 88.37 158.89 88.4 159.32 88.45 159.74 88.51 160.17 88.6 160.6 88.72 161.02 88.86 161.45 89.02 161.88 89.21 162.3 89.42 162.73 89.65 163.15 89.9 163.58 90.17 164.01 90.47 164.43 90.77 164.86 91.1 165.29 91.43 165.71 91.78 166.14 92.13 166.56 92.49 166.99 92.86 167.42 93.22 167.84 93.58 168.27 93.93 168.7 94.28 169.12 94.63 169.55 94.96 169.97 95.27 170.4 95.58 170.83 95.87 171.25 96.14 171.68 96.4 172.1 96.64 172.53 96.87 172.96 97.08 173.38 97.27 173.81 97.44 174.24 97.6 174.66 97.74 175.09 97.87 175.51 97.99 175.94 98.09 176.37 98.18 176.79 98.26 177.22 98.33 177.65 98.39 178.07 98.44 178.5 98.49 178.92 98.53 179.35 98.56 179.78 98.59 180.2 98.61 180.63 98.63 181.06 98.65 181.48 98.66 181.91 98.67 182.33 98.68 182.76 98.69 183.19 98.69 183.61 98.7 184.04 98.7 184.46 98.7 184.89 98.71 185.32 98.71 185.74 98.71 186.17 98.71 186.6 98.71 187.02 98.71 187.45 98.71 187.87 98.71" stroke="#F1935E" class="geometry color_"/>
        <path fill="none" d="M54.8,98.71 L 55.25 98.71 55.69 98.71 56.14 98.71 56.59 98.71 57.04 98.71 57.48 98.71 57.93 98.71 58.38 98.71 58.83 98.71 59.27 98.71 59.72 98.71 60.17 98.71 60.61 98.7 61.06 98.7 61.51 98.69 61.96 98.69 62.4 98.68 62.85 98.68 63.3 98.67 63.75 98.65 64.19 98.64 64.64 98.62 65.09 98.6 65.53 98.58 65.98 98.55 66.43 98.51 66.88 98.47 67.32 98.42 67.77 98.36 68.22 98.29 68.67 98.21 69.11 98.12 69.56 98.01 70.01 97.89 70.45 97.75 70.9 97.58 71.35 97.4 71.8 97.18 72.24 96.94 72.69 96.67 73.14 96.37 73.59 96.02 74.03 95.64 74.48 95.22 74.93 94.75 75.37 94.23 75.82 93.66 76.27 93.04 76.72 92.36 77.16 91.62 77.61 90.82 78.06 89.96 78.51 89.04 78.95 88.05 79.4 87 79.85 85.88 80.29 84.71 80.74 83.47 81.19 82.18 81.64 80.83 82.08 79.43 82.53 77.98 82.98 76.48 83.43 74.95 83.87 73.39 84.32 71.8 84.77 70.19 85.21 68.56 85.66 66.93 86.11 65.3 86.56 63.67 87 62.06 87.45 60.47 87.9 58.9 88.35 57.37 88.79 55.87 89.24 54.42 89.69 53.02 90.13 51.67 90.58 50.37 91.03 49.14 91.48 47.98 91.92 46.88 92.37 45.86 92.82 44.91 93.27 44.03 93.71 43.24 94.16 42.53 94.61 41.9 95.05 41.36 95.5 40.9 95.95 40.54 96.4 40.26 96.84 40.08 97.29 39.98 97.74 39.98 98.19 40.07 98.63 40.26 99.08 40.54 99.53 40.91 99.97 41.37 100.42 41.92 100.87 42.55 101.32 43.27 101.76 44.06 102.21 44.93 102.66 45.87 103.11 46.88 103.55 47.94 104 49.06 104.45 50.22 104.89 51.41 105.34 52.64 105.79 53.88 106.24 55.14 106.68 56.41 107.13 57.67 107.58 58.91 108.03 60.14 108.47 61.35 108.92 62.51 109.37 63.65 109.81 64.73 110.26 65.77 110.71 66.75 111.16 67.67 111.6 68.54 112.05 69.35 112.5 70.09 112.95 70.77 113.39 71.4 113.84 71.96 114.29 72.47 114.73 72.93 115.18 73.34 115.63 73.7 116.08 74.02 116.52 74.3 116.97 74.55 117.42 74.78 117.87 74.98 118.31 75.17 118.76 75.34 119.21 75.5 119.65 75.66 120.1 75.81 120.55 75.97 121 76.13 121.44 76.29 121.89 76.47 122.34 76.65 122.79 76.84 123.23 77.05 123.68 77.26 124.13 77.49 124.58 77.72 125.02 77.96 125.47 78.22 125.92 78.48 126.36 78.74 126.81 79.01 127.26 79.29 127.71 79.56 128.15 79.84 128.6 80.11 129.05 80.38 129.5 80.65 129.94 80.91 130.39 81.16 130.84 81.41 131.28 81.65 131.73 81.89 132.18 82.11 132.63 82.33 133.07 82.54 133.52 82.74 133.97 82.93 134.42 83.12 134.86 83.3 135.31 83.48 135.76 83.65 136.2 83.81 136.65 83.98 137.1 84.14 137.55 84.3 137.99 84.46 138.44 84.62 138.89 84.77 139.34 84.93 139.78 85.09 140.23 85.26 140.68 85.42 141.12 85.58 141.57 85.75 142.02 85.91 142.47 86.07 142.91 86.24 143.36 86.4 143.81 86.56 144.26 86.72 144.7 86.88 145.15 87.03 145.6 87.18 146.04 87.32 146.49 87.46 146.94 87.59 147.39 87.71 147.83 87.83 148.28 87.94 148.73 88.04 149.18 88.13 149.62 88.22 150.07 88.29 150.52 88.36 150.96 88.42 151.41 88.47 151.86 88.51 152.31 88.55 152.75 88.58 153.2 88.61 153.65 88.63 154.1 88.65 154.54 88.68 154.99 88.7 155.44 88.73 155.88 88.76 156.33 88.79 156.78 88.84 157.23 88.9 157.67 88.96 158.12 89.05 158.57 89.14 159.02 89.26 159.46 89.39 159.91 89.54 160.36 89.7 160.8 89.89 161.25 90.1 161.7 90.32 162.15 90.56 162.59 90.82 163.04 91.1 163.49 91.39 163.94 91.69 164.38 92 164.83 92.33 165.28 92.65 165.72 92.99 166.17 93.32 166.62 93.66 167.07 93.99 167.51 94.32 167.96 94.64 168.41 94.95 168.86 95.26 169.3 95.55 169.75 95.83 170.2 96.09 170.64 96.35 171.09 96.58 171.54 96.8 171.99 97.01 172.43 97.2 172.88 97.37 173.33 97.53 173.78 97.68 174.22 97.81 174.67 97.93 175.12 98.03 175.56 98.13 176.01 98.21 176.46 98.29 176.91 98.35 177.35 98.41 177.8 98.45 178.25 98.5 178.7 98.53 179.14 98.56 179.59 98.59 180.04 98.61 180.48 98.63 180.93 98.65 181.38 98.66 181.83 98.67 182.27 98.68 182.72 98.69 183.17 98.69 183.62 98.7 184.06 98.7 184.51 98.7 184.96 98.71 185.4 98.71 185.85 98.71 186.3 98.71 186.75 98.71 187.19 98.71 187.64 98.71 188.09 98.71 188.54 98.71" stroke="#F38B5F" class="geometry color_"/>
        <path fill="none" d="M56.51,98.71 L 56.95 98.71 57.39 98.71 57.83 98.71 58.28 98.71 58.72 98.71 59.16 98.71 59.6 98.71 60.05 98.71 60.49 98.71 60.93 98.71 61.37 98.71 61.82 98.7 62.26 98.7 62.7 98.7 63.14 98.69 63.59 98.68 64.03 98.68 64.47 98.67 64.91 98.66 65.36 98.64 65.8 98.62 66.24 98.6 66.68 98.58 67.13 98.55 67.57 98.51 68.01 98.47 68.45 98.42 68.9 98.36 69.34 98.29 69.78 98.21 70.22 98.11 70.67 98 71.11 97.87 71.55 97.72 71.99 97.55 72.44 97.36 72.88 97.14 73.32 96.88 73.76 96.6 74.21 96.28 74.65 95.92 75.09 95.52 75.53 95.08 75.98 94.59 76.42 94.04 76.86 93.44 77.3 92.79 77.75 92.07 78.19 91.29 78.63 90.45 79.07 89.53 79.52 88.55 79.96 87.5 80.4 86.38 80.84 85.19 81.29 83.93 81.73 82.6 82.17 81.21 82.61 79.75 83.06 78.23 83.5 76.65 83.94 75.02 84.38 73.34 84.83 71.62 85.27 69.87 85.71 68.08 86.15 66.28 86.6 64.46 87.04 62.65 87.48 60.83 87.92 59.03 88.37 57.25 88.81 55.51 89.25 53.8 89.69 52.14 90.14 50.54 90.58 49.01 91.02 47.55 91.46 46.17 91.91 44.88 92.35 43.68 92.79 42.59 93.24 41.6 93.68 40.71 94.12 39.94 94.56 39.29 95.01 38.75 95.45 38.33 95.89 38.02 96.33 37.84 96.78 37.76 97.22 37.81 97.66 37.96 98.1 38.22 98.55 38.58 98.99 39.04 99.43 39.59 99.87 40.23 100.32 40.94 100.76 41.74 101.2 42.6 101.64 43.51 102.09 44.49 102.53 45.5 102.97 46.56 103.41 47.65 103.86 48.76 104.3 49.89 104.74 51.04 105.18 52.19 105.63 53.33 106.07 54.48 106.51 55.61 106.95 56.72 107.4 57.82 107.84 58.89 108.28 59.94 108.72 60.95 109.17 61.93 109.61 62.88 110.05 63.79 110.49 64.66 110.94 65.49 111.38 66.28 111.82 67.03 112.26 67.73 112.71 68.4 113.15 69.03 113.59 69.63 114.03 70.18 114.48 70.71 114.92 71.2 115.36 71.66 115.8 72.09 116.25 72.5 116.69 72.89 117.13 73.25 117.57 73.6 118.02 73.94 118.46 74.26 118.9 74.58 119.34 74.89 119.79 75.2 120.23 75.5 120.67 75.8 121.11 76.11 121.56 76.42 122 76.73 122.44 77.05 122.88 77.37 123.33 77.7 123.77 78.04 124.21 78.37 124.65 78.71 125.1 79.06 125.54 79.4 125.98 79.75 126.42 80.09 126.87 80.43 127.31 80.76 127.75 81.09 128.19 81.41 128.64 81.72 129.08 82.02 129.52 82.31 129.96 82.59 130.41 82.85 130.85 83.1 131.29 83.33 131.73 83.55 132.18 83.76 132.62 83.95 133.06 84.14 133.51 84.31 133.95 84.47 134.39 84.63 134.83 84.77 135.28 84.91 135.72 85.05 136.16 85.18 136.6 85.31 137.05 85.44 137.49 85.56 137.93 85.69 138.37 85.82 138.82 85.94 139.26 86.07 139.7 86.19 140.14 86.32 140.59 86.44 141.03 86.56 141.47 86.68 141.91 86.79 142.36 86.91 142.8 87.01 143.24 87.12 143.68 87.21 144.13 87.3 144.57 87.38 145.01 87.46 145.45 87.52 145.9 87.58 146.34 87.63 146.78 87.67 147.22 87.71 147.67 87.73 148.11 87.75 148.55 87.76 148.99 87.77 149.44 87.76 149.88 87.76 150.32 87.75 150.76 87.73 151.21 87.72 151.65 87.7 152.09 87.68 152.53 87.66 152.98 87.65 153.42 87.64 153.86 87.63 154.3 87.63 154.75 87.64 155.19 87.66 155.63 87.7 156.07 87.74 156.52 87.8 156.96 87.88 157.4 87.97 157.84 88.08 158.29 88.21 158.73 88.36 159.17 88.53 159.61 88.72 160.06 88.93 160.5 89.16 160.94 89.41 161.38 89.68 161.83 89.96 162.27 90.27 162.71 90.59 163.15 90.92 163.6 91.26 164.04 91.61 164.48 91.97 164.92 92.33 165.37 92.7 165.81 93.06 166.25 93.42 166.69 93.78 167.14 94.13 167.58 94.47 168.02 94.8 168.46 95.12 168.91 95.43 169.35 95.72 169.79 96 170.23 96.27 170.68 96.51 171.12 96.74 171.56 96.95 172 97.15 172.45 97.33 172.89 97.5 173.33 97.65 173.78 97.78 174.22 97.9 174.66 98.01 175.1 98.11 175.55 98.2 175.99 98.27 176.43 98.34 176.87 98.4 177.32 98.45 177.76 98.49 178.2 98.53 178.64 98.56 179.09 98.59 179.53 98.61 179.97 98.63 180.41 98.64 180.86 98.66 181.3 98.67 181.74 98.68 182.18 98.69 182.63 98.69 183.07 98.7 183.51 98.7 183.95 98.7 184.4 98.71 184.84 98.71 185.28 98.71 185.72 98.71 186.17 98.71 186.61 98.71 187.05 98.71 187.49 98.71 187.94 98.71 188.38 98.71 188.82 98.71" stroke="#F58260" class="geometry color_"/>
        <path fill="none" d="M56.21,98.71 L 56.65 98.71 57.09 98.71 57.54 98.71 57.98 98.71 58.42 98.71 58.86 98.71 59.3 98.71 59.74 98.71 60.18 98.71 60.62 98.71 61.07 98.71 61.51 98.7 61.95 98.7 62.39 98.7 62.83 98.69 63.27 98.69 63.71 98.68 64.15 98.67 64.59 98.67 65.04 98.65 65.48 98.64 65.92 98.62 66.36 98.6 66.8 98.58 67.24 98.55 67.68 98.51 68.12 98.47 68.56 98.42 69.01 98.37 69.45 98.3 69.89 98.22 70.33 98.13 70.77 98.03 71.21 97.91 71.65 97.77 72.09 97.61 72.54 97.43 72.98 97.23 73.42 97 73.86 96.74 74.3 96.44 74.74 96.12 75.18 95.75 75.62 95.34 76.06 94.89 76.51 94.39 76.95 93.84 77.39 93.23 77.83 92.57 78.27 91.85 78.71 91.06 79.15 90.21 79.59 89.29 80.04 88.29 80.48 87.23 80.92 86.09 81.36 84.87 81.8 83.59 82.24 82.22 82.68 80.79 83.12 79.28 83.56 77.7 84.01 76.06 84.45 74.35 84.89 72.59 85.33 70.78 85.77 68.93 86.21 67.04 86.65 65.12 87.09 63.19 87.53 61.24 87.98 59.3 88.42 57.37 88.86 55.47 89.3 53.59 89.74 51.77 90.18 49.99 90.62 48.29 91.06 46.66 91.51 45.11 91.95 43.66 92.39 42.31 92.83 41.07 93.27 39.94 93.71 38.93 94.15 38.05 94.59 37.29 95.03 36.66 95.48 36.16 95.92 35.78 96.36 35.54 96.8 35.41 97.24 35.41 97.68 35.52 98.12 35.75 98.56 36.08 99 36.51 99.45 37.04 99.89 37.66 100.33 38.36 100.77 39.14 101.21 39.98 101.65 40.9 102.09 41.86 102.53 42.88 102.98 43.94 103.42 45.04 103.86 46.17 104.3 47.32 104.74 48.49 105.18 49.68 105.62 50.88 106.06 52.08 106.5 53.27 106.95 54.46 107.39 55.65 107.83 56.81 108.27 57.96 108.71 59.08 109.15 60.18 109.59 61.25 110.03 62.29 110.47 63.29 110.92 64.26 111.36 65.2 111.8 66.09 112.24 66.95 112.68 67.77 113.12 68.55 113.56 69.3 114 70 114.45 70.67 114.89 71.31 115.33 71.91 115.77 72.48 116.21 73.02 116.65 73.53 117.09 74.01 117.53 74.47 117.97 74.9 118.42 75.31 118.86 75.71 119.3 76.08 119.74 76.44 120.18 76.79 120.62 77.12 121.06 77.44 121.5 77.76 121.94 78.06 122.39 78.36 122.83 78.66 123.27 78.95 123.71 79.24 124.15 79.53 124.59 79.82 125.03 80.11 125.47 80.39 125.92 80.68 126.36 80.98 126.8 81.27 127.24 81.57 127.68 81.86 128.12 82.16 128.56 82.46 129 82.77 129.44 83.07 129.89 83.37 130.33 83.67 130.77 83.97 131.21 84.27 131.65 84.57 132.09 84.86 132.53 85.15 132.97 85.43 133.41 85.7 133.86 85.96 134.3 86.22 134.74 86.46 135.18 86.7 135.62 86.92 136.06 87.13 136.5 87.33 136.94 87.51 137.39 87.67 137.83 87.83 138.27 87.96 138.71 88.09 139.15 88.19 139.59 88.28 140.03 88.36 140.47 88.42 140.91 88.47 141.36 88.5 141.8 88.52 142.24 88.52 142.68 88.51 143.12 88.5 143.56 88.47 144 88.43 144.44 88.38 144.88 88.33 145.33 88.27 145.77 88.2 146.21 88.13 146.65 88.06 147.09 87.98 147.53 87.9 147.97 87.82 148.41 87.74 148.86 87.66 149.3 87.58 149.74 87.51 150.18 87.43 150.62 87.36 151.06 87.3 151.5 87.24 151.94 87.19 152.38 87.15 152.83 87.11 153.27 87.08 153.71 87.07 154.15 87.06 154.59 87.07 155.03 87.09 155.47 87.13 155.91 87.18 156.36 87.24 156.8 87.33 157.24 87.43 157.68 87.56 158.12 87.7 158.56 87.86 159 88.04 159.44 88.24 159.88 88.46 160.33 88.7 160.77 88.96 161.21 89.24 161.65 89.53 162.09 89.84 162.53 90.17 162.97 90.5 163.41 90.85 163.85 91.21 164.3 91.57 164.74 91.94 165.18 92.31 165.62 92.68 166.06 93.04 166.5 93.41 166.94 93.77 167.38 94.12 167.83 94.46 168.27 94.8 168.71 95.12 169.15 95.42 169.59 95.71 170.03 95.99 170.47 96.25 170.91 96.5 171.35 96.73 171.8 96.94 172.24 97.14 172.68 97.32 173.12 97.48 173.56 97.63 174 97.77 174.44 97.89 174.88 98 175.32 98.1 175.77 98.19 176.21 98.26 176.65 98.33 177.09 98.39 177.53 98.44 177.97 98.48 178.41 98.52 178.85 98.55 179.3 98.58 179.74 98.61 180.18 98.63 180.62 98.64 181.06 98.66 181.5 98.67 181.94 98.68 182.38 98.68 182.82 98.69 183.27 98.7 183.71 98.7 184.15 98.7 184.59 98.71 185.03 98.71 185.47 98.71 185.91 98.71 186.35 98.71 186.79 98.71 187.24 98.71 187.68 98.71 188.12 98.71" stroke="#F77A61" class="geometry color_"/>
        <path fill="none" d="M55.39,98.71 L 55.84 98.71 56.29 98.71 56.74 98.71 57.18 98.71 57.63 98.71 58.08 98.71 58.53 98.71 58.98 98.71 59.42 98.71 59.87 98.71 60.32 98.71 60.77 98.7 61.22 98.7 61.66 98.7 62.11 98.69 62.56 98.68 63.01 98.68 63.46 98.67 63.9 98.66 64.35 98.64 64.8 98.63 65.25 98.61 65.7 98.59 66.14 98.56 66.59 98.53 67.04 98.5 67.49 98.46 67.94 98.41 68.38 98.36 68.83 98.29 69.28 98.22 69.73 98.14 70.18 98.04 70.62 97.94 71.07 97.82 71.52 97.68 71.97 97.53 72.42 97.35 72.86 97.16 73.31 96.94 73.76 96.7 74.21 96.44 74.66 96.14 75.1 95.81 75.55 95.44 76 95.04 76.45 94.6 76.9 94.11 77.34 93.58 77.79 93 78.24 92.36 78.69 91.67 79.14 90.91 79.58 90.09 80.03 89.21 80.48 88.25 80.93 87.22 81.38 86.12 81.82 84.94 82.27 83.68 82.72 82.34 83.17 80.92 83.62 79.42 84.06 77.84 84.51 76.19 84.96 74.46 85.41 72.67 85.85 70.81 86.3 68.89 86.75 66.92 87.2 64.91 87.65 62.87 88.09 60.81 88.54 58.73 88.99 56.65 89.44 54.58 89.89 52.53 90.33 50.52 90.78 48.55 91.23 46.65 91.68 44.82 92.13 43.08 92.57 41.44 93.02 39.9 93.47 38.49 93.92 37.2 94.37 36.05 94.81 35.04 95.26 34.18 95.71 33.48 96.16 32.93 96.61 32.55 97.05 32.32 97.5 32.24 97.95 32.33 98.4 32.56 98.85 32.94 99.29 33.46 99.74 34.11 100.19 34.88 100.64 35.77 101.09 36.76 101.53 37.85 101.98 39.02 102.43 40.27 102.88 41.57 103.33 42.93 103.77 44.33 104.22 45.76 104.67 47.21 105.12 48.67 105.57 50.14 106.01 51.59 106.46 53.03 106.91 54.45 107.36 55.85 107.81 57.21 108.25 58.53 108.7 59.82 109.15 61.05 109.6 62.25 110.05 63.39 110.49 64.49 110.94 65.54 111.39 66.54 111.84 67.49 112.29 68.39 112.73 69.25 113.18 70.06 113.63 70.82 114.08 71.55 114.53 72.23 114.97 72.88 115.42 73.48 115.87 74.06 116.32 74.6 116.76 75.11 117.21 75.59 117.66 76.04 118.11 76.47 118.56 76.87 119 77.25 119.45 77.62 119.9 77.96 120.35 78.29 120.8 78.6 121.24 78.9 121.69 79.19 122.14 79.47 122.59 79.74 123.04 80.01 123.48 80.27 123.93 80.52 124.38 80.77 124.83 81.03 125.28 81.28 125.72 81.53 126.17 81.78 126.62 82.03 127.07 82.28 127.52 82.54 127.96 82.79 128.41 83.05 128.86 83.3 129.31 83.56 129.76 83.81 130.2 84.06 130.65 84.3 131.1 84.54 131.55 84.77 132 85 132.44 85.21 132.89 85.41 133.34 85.6 133.79 85.78 134.24 85.94 134.68 86.08 135.13 86.21 135.58 86.32 136.03 86.42 136.48 86.5 136.92 86.57 137.37 86.62 137.82 86.66 138.27 86.68 138.72 86.7 139.16 86.71 139.61 86.71 140.06 86.7 140.51 86.69 140.96 86.68 141.4 86.67 141.85 86.66 142.3 86.66 142.75 86.66 143.2 86.66 143.64 86.67 144.09 86.68 144.54 86.7 144.99 86.73 145.44 86.76 145.88 86.8 146.33 86.85 146.78 86.89 147.23 86.95 147.67 87 148.12 87.06 148.57 87.12 149.02 87.18 149.47 87.24 149.91 87.3 150.36 87.36 150.81 87.41 151.26 87.47 151.71 87.52 152.15 87.57 152.6 87.62 153.05 87.66 153.5 87.7 153.95 87.75 154.39 87.79 154.84 87.84 155.29 87.89 155.74 87.95 156.19 88.01 156.63 88.08 157.08 88.16 157.53 88.24 157.98 88.34 158.43 88.46 158.87 88.58 159.32 88.73 159.77 88.89 160.22 89.06 160.67 89.25 161.11 89.46 161.56 89.69 162.01 89.94 162.46 90.2 162.91 90.47 163.35 90.76 163.8 91.07 164.25 91.38 164.7 91.71 165.15 92.04 165.59 92.38 166.04 92.72 166.49 93.07 166.94 93.41 167.39 93.75 167.83 94.09 168.28 94.42 168.73 94.75 169.18 95.06 169.63 95.36 170.07 95.65 170.52 95.93 170.97 96.19 171.42 96.44 171.87 96.67 172.31 96.89 172.76 97.09 173.21 97.27 173.66 97.44 174.11 97.6 174.55 97.74 175 97.87 175.45 97.98 175.9 98.08 176.35 98.17 176.79 98.25 177.24 98.32 177.69 98.38 178.14 98.43 178.58 98.48 179.03 98.52 179.48 98.55 179.93 98.58 180.38 98.6 180.82 98.62 181.27 98.64 181.72 98.66 182.17 98.67 182.62 98.68 183.06 98.68 183.51 98.69 183.96 98.7 184.41 98.7 184.86 98.7 185.3 98.71 185.75 98.71 186.2 98.71 186.65 98.71 187.1 98.71 187.54 98.71 187.99 98.71 188.44 98.71 188.89 98.71 189.34 98.71" stroke="#F87162" class="geometry color_"/>
      </g>
    </g>
  </g>
</g>
  <g class="guide ylabels" font-size="2.82" font-family="'PT Sans Caption','Helvetica Neue','Helvetica',sans-serif" fill="#A1A1A1" id="img-dd92f7e0-17">
    <text x="17.63" y="98.71" text-anchor="end" dy="0.35em">0.0</text>
    <text x="17.63" y="75.79" text-anchor="end" dy="0.35em">0.1</text>
    <text x="17.63" y="52.86" text-anchor="end" dy="0.35em">0.2</text>
    <text x="17.63" y="29.93" text-anchor="end" dy="0.35em">0.3</text>
    <text x="17.63" y="7" text-anchor="end" dy="0.35em">0.4</text>
  </g>
  <g font-size="3.88" font-family="'PT Sans','Helvetica Neue','Helvetica',sans-serif" fill="#A1A1A1" stroke="#000000" stroke-opacity="0.000" id="img-dd92f7e0-18">
    <text x="8.81" y="50.86" text-anchor="middle" dy="0.35em" transform="rotate(-90, 8.81, 52.86)">Density</text>
  </g>
</g>
<defs>
  <clipPath id="img-dd92f7e0-10">
  <path d="M18.63,5 L 221.72 5 221.72 100.72 18.63 100.72" />
</clipPath>
</defs>
</svg>
