<?xml version="1.0" encoding="UTF-8"?>
<svg xmlns="http://www.w3.org/2000/svg"
     xmlns:xlink="http://www.w3.org/1999/xlink"
     xmlns:gadfly="http://www.gadflyjl.org/ns"
     version="1.2"
     width="240mm" height="120mm" viewBox="0 0 240 120"
     stroke="none"
     fill="#000000"
     stroke-width="0.3"
     font-size="3.88"
>
<g class="plotroot xscalable yscalable" id="img-d74ba952-1">
  <g font-size="6.35" font-family="'PT Sans','Helvetica Neue','Helvetica',sans-serif" fill="#564A55" stroke="#000000" stroke-opacity="0.000" id="img-d74ba952-2">
    <text x="117.18" y="105.65" text-anchor="middle" dy="0.6em">Corruption Perceptions Index</text>
  </g>
  <g class="guide xlabels" font-size="4.76" font-family="'PT Sans Caption','Helvetica Neue','Helvetica',sans-serif" fill="#6C606B" id="img-d74ba952-3">
    <text x="26.41" y="98.12" text-anchor="middle" dy="0.6em">-5</text>
    <text x="71.79" y="98.12" text-anchor="middle" dy="0.6em">0</text>
    <text x="117.18" y="98.12" text-anchor="middle" dy="0.6em">5</text>
    <text x="162.57" y="98.12" text-anchor="middle" dy="0.6em">10</text>
    <text x="207.95" y="98.12" text-anchor="middle" dy="0.6em">15</text>
  </g>
  <g class="guide colorkey" id="img-d74ba952-4">
    <g font-size="4.76" font-family="'PT Sans','Helvetica Neue','Helvetica',sans-serif" fill="#4C404B" id="img-d74ba952-5">
      <text x="214.72" y="77.7" dy="0.35em">1995</text>
      <text x="214.72" y="51.15" dy="0.35em">2010</text>
      <text x="214.72" y="68.85" dy="0.35em">2000</text>
      <text x="214.72" y="60" dy="0.35em">2005</text>
      <text x="214.72" y="42.3" dy="0.35em">2015</text>
    </g>
    <g shape-rendering="crispEdges" stroke="#000000" stroke-opacity="0.000" id="img-d74ba952-6">
      <rect x="211.95" y="76.81" width="1.76" height="0.88" fill="#004D84"/>
      <rect x="211.95" y="75.93" width="1.76" height="0.88" fill="#005B8D"/>
      <rect x="211.95" y="75.04" width="1.76" height="0.88" fill="#006995"/>
      <rect x="211.95" y="74.16" width="1.76" height="0.88" fill="#00769D"/>
      <rect x="211.95" y="73.27" width="1.76" height="0.88" fill="#0083A3"/>
      <rect x="211.95" y="72.39" width="1.76" height="0.88" fill="#278FA9"/>
      <rect x="211.95" y="71.5" width="1.76" height="0.88" fill="#409BAF"/>
      <rect x="211.95" y="70.62" width="1.76" height="0.88" fill="#55A7B5"/>
      <rect x="211.95" y="69.73" width="1.76" height="0.88" fill="#69B2BA"/>
      <rect x="211.95" y="68.85" width="1.76" height="0.88" fill="#7BBCC0"/>
      <rect x="211.95" y="67.96" width="1.76" height="0.88" fill="#8DC6C5"/>
      <rect x="211.95" y="67.08" width="1.76" height="0.88" fill="#9ED0CB"/>
      <rect x="211.95" y="66.19" width="1.76" height="0.88" fill="#A5CFC7"/>
      <rect x="211.95" y="65.31" width="1.76" height="0.88" fill="#ABCEC4"/>
      <rect x="211.95" y="64.42" width="1.76" height="0.88" fill="#B1CCC2"/>
      <rect x="211.95" y="63.54" width="1.76" height="0.88" fill="#B5CCC1"/>
      <rect x="211.95" y="62.65" width="1.76" height="0.88" fill="#B7CBBF"/>
      <rect x="211.95" y="61.77" width="1.76" height="0.88" fill="#B9CBBD"/>
      <rect x="211.95" y="60.88" width="1.76" height="0.88" fill="#BBCBBB"/>
      <rect x="211.95" y="60" width="1.76" height="0.88" fill="#BDCABA"/>
      <rect x="211.95" y="59.12" width="1.76" height="0.88" fill="#BFCAB8"/>
      <rect x="211.95" y="58.23" width="1.76" height="0.88" fill="#C2C9B7"/>
      <rect x="211.95" y="57.35" width="1.76" height="0.88" fill="#C4C9B6"/>
      <rect x="211.95" y="56.46" width="1.76" height="0.88" fill="#C6C8B5"/>
      <rect x="211.95" y="55.58" width="1.76" height="0.88" fill="#C9C7B4"/>
      <rect x="211.95" y="54.69" width="1.76" height="0.88" fill="#CCC7B2"/>
      <rect x="211.95" y="53.81" width="1.76" height="0.88" fill="#CFC6AE"/>
      <rect x="211.95" y="52.92" width="1.76" height="0.88" fill="#D4C5AA"/>
      <rect x="211.95" y="52.04" width="1.76" height="0.88" fill="#D8C3A6"/>
      <rect x="211.95" y="51.15" width="1.76" height="0.88" fill="#D3B79A"/>
      <rect x="211.95" y="50.27" width="1.76" height="0.88" fill="#CDAB8E"/>
      <rect x="211.95" y="49.38" width="1.76" height="0.88" fill="#C89E82"/>
      <rect x="211.95" y="48.5" width="1.76" height="0.88" fill="#C19177"/>
      <rect x="211.95" y="47.61" width="1.76" height="0.88" fill="#BA836C"/>
      <rect x="211.95" y="46.73" width="1.76" height="0.88" fill="#B27563"/>
      <rect x="211.95" y="45.84" width="1.76" height="0.88" fill="#AA665A"/>
      <rect x="211.95" y="44.96" width="1.76" height="0.88" fill="#A05752"/>
      <rect x="211.95" y="44.07" width="1.76" height="0.88" fill="#96484A"/>
      <rect x="211.95" y="43.19" width="1.76" height="0.88" fill="#8B3844"/>
      <rect x="211.95" y="42.3" width="1.76" height="0.88" fill="#7E273E"/>
      <g stroke="#FFFFFF" stroke-width="0.26" id="img-d74ba952-7">
        <path fill="none" d="M211.95,77.7 L 213.72 77.7"/>
        <path fill="none" d="M211.95,51.15 L 213.72 51.15"/>
        <path fill="none" d="M211.95,68.85 L 213.72 68.85"/>
        <path fill="none" d="M211.95,60 L 213.72 60"/>
        <path fill="none" d="M211.95,42.3 L 213.72 42.3"/>
      </g>
    </g>
    <g fill="#362A35" font-size="6.35" font-family="'PT Sans','Helvetica Neue','Helvetica',sans-serif" stroke="#000000" stroke-opacity="0.000" id="img-d74ba952-8">
      <text x="211.95" y="38.3">variable</text>
    </g>
  </g>
<g clip-path="url(#img-d74ba952-9)">
  <g id="img-d74ba952-10">
    <g pointer-events="visible" opacity="1" fill="#000000" fill-opacity="0.000" stroke="#000000" stroke-opacity="0.000" class="guide background" id="img-d74ba952-11">
      <rect x="24.41" y="5" width="185.55" height="92.12"/>
    </g>
    <g class="guide ygridlines xfixed" stroke-dasharray="0.5,0.5" stroke-width="0.26" stroke="#000000" id="img-d74ba952-12">
      <path fill="none" d="M24.41,95.12 L 209.95 95.12"/>
      <path fill="none" d="M24.41,73.09 L 209.95 73.09"/>
      <path fill="none" d="M24.41,51.06 L 209.95 51.06"/>
      <path fill="none" d="M24.41,29.03 L 209.95 29.03"/>
      <path fill="none" d="M24.41,7 L 209.95 7"/>
    </g>
    <g class="guide xgridlines yfixed" stroke-dasharray="0.5,0.5" stroke-width="0.26" stroke="#000000" id="img-d74ba952-13">
      <path fill="none" d="M26.41,5 L 26.41 97.12"/>
      <path fill="none" d="M71.79,5 L 71.79 97.12"/>
      <path fill="none" d="M117.18,5 L 117.18 97.12"/>
      <path fill="none" d="M162.57,5 L 162.57 97.12"/>
      <path fill="none" d="M207.95,5 L 207.95 97.12"/>
    </g>
    <g class="plotpanel" id="img-d74ba952-14">
      <g stroke-width="0.53" fill="#000000" fill-opacity="0.000" stroke-dasharray="none" id="img-d74ba952-15">
        <path fill="none" d="M52.21,95.12 L 52.69 95.12 53.16 95.12 53.64 95.12 54.12 95.12 54.59 95.12 55.07 95.12 55.55 95.12 56.03 95.12 56.5 95.12 56.98 95.11 57.46 95.11 57.93 95.11 58.41 95.11 58.89 95.1 59.37 95.1 59.84 95.09 60.32 95.09 60.8 95.08 61.27 95.07 61.75 95.06 62.23 95.05 62.7 95.03 63.18 95.02 63.66 95 64.14 94.98 64.61 94.95 65.09 94.92 65.57 94.89 66.04 94.85 66.52 94.8 67 94.75 67.48 94.69 67.95 94.62 68.43 94.54 68.91 94.46 69.38 94.36 69.86 94.25 70.34 94.13 70.82 93.99 71.29 93.84 71.77 93.68 72.25 93.49 72.72 93.29 73.2 93.07 73.68 92.83 74.15 92.56 74.63 92.27 75.11 91.96 75.59 91.62 76.06 91.26 76.54 90.86 77.02 90.44 77.49 89.99 77.97 89.51 78.45 88.99 78.93 88.44 79.4 87.87 79.88 87.25 80.36 86.61 80.83 85.93 81.31 85.22 81.79 84.48 82.27 83.7 82.74 82.9 83.22 82.06 83.7 81.2 84.17 80.3 84.65 79.38 85.13 78.44 85.61 77.47 86.08 76.48 86.56 75.48 87.04 74.46 87.51 73.43 87.99 72.39 88.47 71.34 88.94 70.3 89.42 69.25 89.9 68.21 90.38 67.18 90.85 66.17 91.33 65.17 91.81 64.19 92.28 63.24 92.76 62.31 93.24 61.43 93.72 60.57 94.19 59.76 94.67 58.99 95.15 58.27 95.62 57.6 96.1 56.98 96.58 56.42 97.06 55.91 97.53 55.46 98.01 55.06 98.49 54.73 98.96 54.45 99.44 54.23 99.92 54.07 100.39 53.97 100.87 53.92 101.35 53.92 101.83 53.97 102.3 54.08 102.78 54.22 103.26 54.41 103.73 54.63 104.21 54.9 104.69 55.19 105.17 55.51 105.64 55.86 106.12 56.23 106.6 56.62 107.07 57.02 107.55 57.44 108.03 57.86 108.51 58.3 108.98 58.74 109.46 59.19 109.94 59.64 110.41 60.09 110.89 60.54 111.37 60.99 111.84 61.44 112.32 61.89 112.8 62.34 113.28 62.79 113.75 63.24 114.23 63.69 114.71 64.14 115.18 64.59 115.66 65.04 116.14 65.5 116.62 65.95 117.09 66.42 117.57 66.88 118.05 67.35 118.52 67.83 119 68.31 119.48 68.8 119.96 69.29 120.43 69.78 120.91 70.28 121.39 70.78 121.86 71.29 122.34 71.79 122.82 72.3 123.29 72.8 123.77 73.3 124.25 73.8 124.73 74.29 125.2 74.78 125.68 75.26 126.16 75.73 126.63 76.19 127.11 76.64 127.59 77.07 128.07 77.49 128.54 77.9 129.02 78.29 129.5 78.66 129.97 79.01 130.45 79.34 130.93 79.66 131.41 79.95 131.88 80.23 132.36 80.48 132.84 80.71 133.31 80.93 133.79 81.12 134.27 81.29 134.74 81.44 135.22 81.57 135.7 81.67 136.18 81.76 136.65 81.83 137.13 81.88 137.61 81.9 138.08 81.91 138.56 81.91 139.04 81.88 139.52 81.84 139.99 81.78 140.47 81.7 140.95 81.61 141.42 81.5 141.9 81.38 142.38 81.25 142.86 81.11 143.33 80.96 143.81 80.8 144.29 80.63 144.76 80.46 145.24 80.28 145.72 80.11 146.19 79.93 146.67 79.75 147.15 79.58 147.63 79.42 148.1 79.26 148.58 79.12 149.06 78.99 149.53 78.88 150.01 78.78 150.49 78.7 150.97 78.64 151.44 78.61 151.92 78.6 152.4 78.62 152.87 78.67 153.35 78.75 153.83 78.85 154.31 78.99 154.78 79.16 155.26 79.36 155.74 79.59 156.21 79.84 156.69 80.13 157.17 80.45 157.64 80.79 158.12 81.15 158.6 81.54 159.08 81.95 159.55 82.38 160.03 82.82 160.51 83.28 160.98 83.75 161.46 84.23 161.94 84.72 162.42 85.2 162.89 85.7 163.37 86.18 163.85 86.67 164.32 87.15 164.8 87.63 165.28 88.09 165.76 88.54 166.23 88.98 166.71 89.41 167.19 89.82 167.66 90.21 168.14 90.59 168.62 90.95 169.09 91.29 169.57 91.62 170.05 91.92 170.53 92.21 171 92.47 171.48 92.72 171.96 92.96 172.43 93.17 172.91 93.37 173.39 93.55 173.87 93.72 174.34 93.87 174.82 94.01 175.3 94.14 175.77 94.26 176.25 94.36 176.73 94.45 177.21 94.54 177.68 94.61 178.16 94.68 178.64 94.73 179.11 94.79 179.59 94.83 180.07 94.87 180.55 94.91 181.02 94.94 181.5 94.97 181.98 94.99 182.45 95.01 182.93 95.03 183.41 95.04 183.88 95.05 184.36 95.07 184.84 95.07 185.32 95.08 185.79 95.09 186.27 95.1 186.75 95.1 187.22 95.1 187.7 95.11 188.18 95.11 188.66 95.11 189.13 95.11 189.61 95.12 190.09 95.12 190.56 95.12 191.04 95.12 191.52 95.12 192 95.12 192.47 95.12 192.95 95.12 193.43 95.12 193.9 95.12 194.38 95.12 194.86 95.12" stroke="#3D9AAE" class="geometry color_"/>
        <path fill="none" d="M54.63,95.12 L 55.1 95.12 55.56 95.12 56.03 95.12 56.49 95.12 56.95 95.12 57.42 95.12 57.88 95.12 58.35 95.11 58.81 95.11 59.27 95.11 59.74 95.11 60.2 95.1 60.66 95.1 61.13 95.09 61.59 95.09 62.06 95.08 62.52 95.07 62.98 95.05 63.45 95.04 63.91 95.02 64.38 95 64.84 94.98 65.3 94.95 65.77 94.92 66.23 94.88 66.7 94.84 67.16 94.78 67.62 94.72 68.09 94.65 68.55 94.57 69.01 94.48 69.48 94.38 69.94 94.26 70.41 94.13 70.87 93.98 71.33 93.81 71.8 93.62 72.26 93.41 72.73 93.18 73.19 92.92 73.65 92.63 74.12 92.31 74.58 91.97 75.05 91.59 75.51 91.17 75.97 90.73 76.44 90.24 76.9 89.72 77.37 89.16 77.83 88.56 78.29 87.92 78.76 87.24 79.22 86.53 79.68 85.77 80.15 84.97 80.61 84.13 81.08 83.26 81.54 82.35 82 81.41 82.47 80.44 82.93 79.44 83.4 78.41 83.86 77.36 84.32 76.28 84.79 75.2 85.25 74.1 85.72 72.98 86.18 71.87 86.64 70.75 87.11 69.64 87.57 68.53 88.03 67.43 88.5 66.34 88.96 65.27 89.43 64.23 89.89 63.2 90.35 62.21 90.82 61.24 91.28 60.31 91.75 59.42 92.21 58.56 92.67 57.75 93.14 56.97 93.6 56.24 94.07 55.56 94.53 54.92 94.99 54.33 95.46 53.78 95.92 53.29 96.39 52.85 96.85 52.45 97.31 52.1 97.78 51.81 98.24 51.56 98.7 51.36 99.17 51.22 99.63 51.12 100.1 51.06 100.56 51.06 101.02 51.1 101.49 51.19 101.95 51.32 102.42 51.49 102.88 51.71 103.34 51.96 103.81 52.26 104.27 52.59 104.74 52.95 105.2 53.35 105.66 53.78 106.13 54.24 106.59 54.73 107.05 55.24 107.52 55.77 107.98 56.33 108.45 56.9 108.91 57.49 109.37 58.09 109.84 58.7 110.3 59.33 110.77 59.96 111.23 60.59 111.69 61.24 112.16 61.88 112.62 62.53 113.09 63.17 113.55 63.82 114.01 64.46 114.48 65.1 114.94 65.73 115.41 66.36 115.87 66.98 116.33 67.6 116.8 68.21 117.26 68.81 117.72 69.4 118.19 69.99 118.65 70.56 119.12 71.13 119.58 71.68 120.04 72.22 120.51 72.75 120.97 73.27 121.44 73.78 121.9 74.28 122.36 74.76 122.83 75.23 123.29 75.68 123.76 76.13 124.22 76.55 124.68 76.96 125.15 77.36 125.61 77.74 126.07 78.11 126.54 78.46 127 78.8 127.47 79.12 127.93 79.43 128.39 79.72 128.86 80 129.32 80.27 129.79 80.52 130.25 80.75 130.71 80.98 131.18 81.19 131.64 81.38 132.11 81.57 132.57 81.74 133.03 81.91 133.5 82.06 133.96 82.2 134.42 82.33 134.89 82.44 135.35 82.55 135.82 82.65 136.28 82.73 136.74 82.81 137.21 82.87 137.67 82.92 138.14 82.96 138.6 82.99 139.06 83.01 139.53 83.02 139.99 83.01 140.46 83 140.92 82.97 141.38 82.93 141.85 82.88 142.31 82.82 142.78 82.75 143.24 82.67 143.7 82.58 144.17 82.48 144.63 82.38 145.09 82.27 145.56 82.15 146.02 82.03 146.49 81.91 146.95 81.78 147.41 81.66 147.88 81.54 148.34 81.43 148.81 81.32 149.27 81.23 149.73 81.14 150.2 81.07 150.66 81.01 151.13 80.97 151.59 80.95 152.05 80.95 152.52 80.98 152.98 81.02 153.44 81.09 153.91 81.19 154.37 81.31 154.84 81.45 155.3 81.62 155.76 81.82 156.23 82.05 156.69 82.29 157.16 82.57 157.62 82.86 158.08 83.18 158.55 83.51 159.01 83.86 159.48 84.23 159.94 84.61 160.4 85.01 160.87 85.41 161.33 85.82 161.8 86.24 162.26 86.66 162.72 87.08 163.19 87.5 163.65 87.91 164.11 88.32 164.58 88.73 165.04 89.12 165.51 89.51 165.97 89.88 166.43 90.25 166.9 90.6 167.36 90.93 167.83 91.25 168.29 91.56 168.75 91.85 169.22 92.12 169.68 92.38 170.15 92.63 170.61 92.86 171.07 93.07 171.54 93.27 172 93.45 172.46 93.62 172.93 93.78 173.39 93.92 173.86 94.05 174.32 94.17 174.78 94.28 175.25 94.38 175.71 94.47 176.18 94.55 176.64 94.62 177.1 94.68 177.57 94.74 178.03 94.79 178.5 94.83 178.96 94.87 179.42 94.91 179.89 94.94 180.35 94.97 180.82 94.99 181.28 95.01 181.74 95.03 182.21 95.04 182.67 95.05 183.13 95.06 183.6 95.07 184.06 95.08 184.53 95.09 184.99 95.09 185.45 95.1 185.92 95.1 186.38 95.11 186.85 95.11 187.31 95.11 187.77 95.11 188.24 95.12 188.7 95.12 189.17 95.12 189.63 95.12 190.09 95.12 190.56 95.12 191.02 95.12 191.48 95.12 191.95 95.12 192.41 95.12 192.88 95.12 193.34 95.12" stroke="#65B0B9" class="geometry color_"/>
        <path fill="none" d="M50.77,95.12 L 51.25 95.12 51.74 95.12 52.22 95.12 52.7 95.12 53.18 95.12 53.66 95.12 54.14 95.12 54.62 95.12 55.1 95.11 55.58 95.11 56.06 95.11 56.54 95.11 57.02 95.11 57.5 95.1 57.98 95.1 58.46 95.09 58.94 95.08 59.42 95.08 59.91 95.07 60.39 95.06 60.87 95.04 61.35 95.03 61.83 95.01 62.31 94.99 62.79 94.96 63.27 94.93 63.75 94.9 64.23 94.86 64.71 94.82 65.19 94.76 65.67 94.71 66.15 94.64 66.63 94.57 67.11 94.48 67.6 94.39 68.08 94.28 68.56 94.17 69.04 94.03 69.52 93.89 70 93.73 70.48 93.55 70.96 93.35 71.44 93.14 71.92 92.91 72.4 92.65 72.88 92.37 73.36 92.07 73.84 91.75 74.32 91.4 74.8 91.03 75.29 90.63 75.77 90.2 76.25 89.75 76.73 89.26 77.21 88.75 77.69 88.21 78.17 87.65 78.65 87.05 79.13 86.42 79.61 85.77 80.09 85.08 80.57 84.37 81.05 83.63 81.53 82.87 82.01 82.08 82.49 81.26 82.97 80.42 83.46 79.56 83.94 78.68 84.42 77.78 84.9 76.86 85.38 75.92 85.86 74.97 86.34 74.01 86.82 73.04 87.3 72.06 87.78 71.08 88.26 70.1 88.74 69.12 89.22 68.14 89.7 67.17 90.18 66.21 90.66 65.26 91.15 64.33 91.63 63.42 92.11 62.53 92.59 61.67 93.07 60.85 93.55 60.05 94.03 59.29 94.51 58.57 94.99 57.89 95.47 57.25 95.95 56.66 96.43 56.12 96.91 55.63 97.39 55.2 97.87 54.81 98.35 54.48 98.84 54.2 99.32 53.98 99.8 53.82 100.28 53.7 100.76 53.64 101.24 53.63 101.72 53.68 102.2 53.77 102.68 53.91 103.16 54.1 103.64 54.32 104.12 54.59 104.6 54.9 105.08 55.24 105.56 55.62 106.04 56.02 106.53 56.46 107.01 56.91 107.49 57.39 107.97 57.89 108.45 58.4 108.93 58.93 109.41 59.47 109.89 60.02 110.37 60.58 110.85 61.14 111.33 61.71 111.81 62.28 112.29 62.85 112.77 63.42 113.25 63.99 113.73 64.56 114.21 65.12 114.7 65.68 115.18 66.24 115.66 66.79 116.14 67.33 116.62 67.87 117.1 68.4 117.58 68.92 118.06 69.44 118.54 69.95 119.02 70.45 119.5 70.94 119.98 71.42 120.46 71.89 120.94 72.36 121.42 72.81 121.9 73.25 122.39 73.68 122.87 74.1 123.35 74.51 123.83 74.9 124.31 75.28 124.79 75.65 125.27 76.01 125.75 76.35 126.23 76.68 126.71 77 127.19 77.3 127.67 77.59 128.15 77.86 128.63 78.12 129.11 78.36 129.59 78.59 130.08 78.8 130.56 79 131.04 79.19 131.52 79.36 132 79.52 132.48 79.67 132.96 79.81 133.44 79.93 133.92 80.04 134.4 80.14 134.88 80.22 135.36 80.3 135.84 80.37 136.32 80.43 136.8 80.47 137.28 80.51 137.76 80.54 138.25 80.56 138.73 80.57 139.21 80.58 139.69 80.58 140.17 80.57 140.65 80.55 141.13 80.53 141.61 80.5 142.09 80.46 142.57 80.42 143.05 80.38 143.53 80.33 144.01 80.28 144.49 80.23 144.97 80.17 145.45 80.12 145.94 80.07 146.42 80.02 146.9 79.97 147.38 79.93 147.86 79.89 148.34 79.86 148.82 79.84 149.3 79.83 149.78 79.84 150.26 79.85 150.74 79.89 151.22 79.93 151.7 80 152.18 80.08 152.66 80.19 153.14 80.32 153.63 80.46 154.11 80.63 154.59 80.82 155.07 81.03 155.55 81.27 156.03 81.53 156.51 81.8 156.99 82.1 157.47 82.42 157.95 82.76 158.43 83.11 158.91 83.48 159.39 83.86 159.87 84.26 160.35 84.66 160.83 85.08 161.31 85.5 161.8 85.92 162.28 86.35 162.76 86.78 163.24 87.21 163.72 87.63 164.2 88.05 164.68 88.46 165.16 88.87 165.64 89.26 166.12 89.65 166.6 90.02 167.08 90.38 167.56 90.73 168.04 91.06 168.52 91.38 169 91.68 169.49 91.96 169.97 92.23 170.45 92.49 170.93 92.73 171.41 92.95 171.89 93.16 172.37 93.35 172.85 93.53 173.33 93.69 173.81 93.84 174.29 93.98 174.77 94.11 175.25 94.22 175.73 94.33 176.21 94.42 176.69 94.51 177.18 94.58 177.66 94.65 178.14 94.71 178.62 94.76 179.1 94.81 179.58 94.85 180.06 94.89 180.54 94.92 181.02 94.95 181.5 94.98 181.98 95 182.46 95.02 182.94 95.03 183.42 95.05 183.9 95.06 184.38 95.07 184.87 95.08 185.35 95.09 185.83 95.09 186.31 95.1 186.79 95.1 187.27 95.11 187.75 95.11 188.23 95.11 188.71 95.11 189.19 95.11 189.67 95.12 190.15 95.12 190.63 95.12 191.11 95.12 191.59 95.12 192.07 95.12 192.55 95.12 193.04 95.12 193.52 95.12 194 95.12 194.48 95.12" stroke="#88C4C4" class="geometry color_"/>
        <path fill="none" d="M43.71,95.12 L 44.21 95.12 44.71 95.12 45.21 95.12 45.71 95.12 46.21 95.12 46.71 95.12 47.21 95.12 47.71 95.12 48.21 95.12 48.71 95.12 49.21 95.12 49.72 95.12 50.22 95.11 50.72 95.11 51.22 95.11 51.72 95.11 52.22 95.11 52.72 95.1 53.22 95.1 53.72 95.09 54.22 95.09 54.72 95.08 55.22 95.07 55.72 95.06 56.22 95.05 56.72 95.04 57.22 95.03 57.72 95.01 58.22 94.99 58.73 94.97 59.23 94.95 59.73 94.93 60.23 94.9 60.73 94.87 61.23 94.83 61.73 94.79 62.23 94.75 62.73 94.7 63.23 94.65 63.73 94.6 64.23 94.53 64.73 94.47 65.23 94.39 65.73 94.31 66.23 94.23 66.73 94.13 67.23 94.03 67.74 93.92 68.24 93.81 68.74 93.68 69.24 93.54 69.74 93.39 70.24 93.23 70.74 93.06 71.24 92.88 71.74 92.68 72.24 92.46 72.74 92.23 73.24 91.98 73.74 91.71 74.24 91.42 74.74 91.1 75.24 90.76 75.74 90.39 76.24 90 76.74 89.58 77.25 89.12 77.75 88.63 78.25 88.11 78.75 87.55 79.25 86.95 79.75 86.31 80.25 85.64 80.75 84.92 81.25 84.17 81.75 83.37 82.25 82.54 82.75 81.67 83.25 80.76 83.75 79.82 84.25 78.84 84.75 77.84 85.25 76.8 85.75 75.75 86.26 74.67 86.76 73.58 87.26 72.47 87.76 71.36 88.26 70.24 88.76 69.13 89.26 68.02 89.76 66.92 90.26 65.85 90.76 64.79 91.26 63.76 91.76 62.77 92.26 61.8 92.76 60.88 93.26 60.01 93.76 59.18 94.26 58.4 94.76 57.67 95.27 57 95.77 56.39 96.27 55.84 96.77 55.35 97.27 54.92 97.77 54.55 98.27 54.25 98.77 54.01 99.27 53.82 99.77 53.7 100.27 53.64 100.77 53.64 101.27 53.69 101.77 53.79 102.27 53.95 102.77 54.15 103.27 54.41 103.77 54.7 104.28 55.04 104.78 55.42 105.28 55.83 105.78 56.28 106.28 56.75 106.78 57.25 107.28 57.77 107.78 58.32 108.28 58.88 108.78 59.45 109.28 60.04 109.78 60.63 110.28 61.23 110.78 61.84 111.28 62.44 111.78 63.05 112.28 63.66 112.78 64.26 113.29 64.86 113.79 65.45 114.29 66.04 114.79 66.62 115.29 67.19 115.79 67.76 116.29 68.32 116.79 68.87 117.29 69.41 117.79 69.95 118.29 70.48 118.79 71 119.29 71.51 119.79 72.01 120.29 72.5 120.79 72.99 121.29 73.46 121.79 73.93 122.29 74.38 122.8 74.82 123.3 75.25 123.8 75.66 124.3 76.06 124.8 76.44 125.3 76.8 125.8 77.15 126.3 77.47 126.8 77.78 127.3 78.06 127.8 78.32 128.3 78.56 128.8 78.77 129.3 78.96 129.8 79.12 130.3 79.26 130.8 79.37 131.3 79.46 131.81 79.53 132.31 79.57 132.81 79.6 133.31 79.6 133.81 79.59 134.31 79.55 134.81 79.51 135.31 79.44 135.81 79.37 136.31 79.28 136.81 79.19 137.31 79.09 137.81 78.98 138.31 78.87 138.81 78.76 139.31 78.65 139.81 78.53 140.31 78.42 140.82 78.32 141.32 78.22 141.82 78.12 142.32 78.03 142.82 77.95 143.32 77.88 143.82 77.83 144.32 77.78 144.82 77.74 145.32 77.72 145.82 77.71 146.32 77.72 146.82 77.74 147.32 77.78 147.82 77.84 148.32 77.92 148.82 78.01 149.32 78.13 149.83 78.27 150.33 78.43 150.83 78.61 151.33 78.81 151.83 79.03 152.33 79.28 152.83 79.55 153.33 79.84 153.83 80.15 154.33 80.48 154.83 80.84 155.33 81.21 155.83 81.6 156.33 82 156.83 82.43 157.33 82.86 157.83 83.31 158.33 83.76 158.83 84.23 159.34 84.7 159.84 85.17 160.34 85.65 160.84 86.12 161.34 86.6 161.84 87.07 162.34 87.53 162.84 87.99 163.34 88.43 163.84 88.87 164.34 89.29 164.84 89.7 165.34 90.09 165.84 90.47 166.34 90.83 166.84 91.18 167.34 91.51 167.84 91.82 168.35 92.11 168.85 92.38 169.35 92.64 169.85 92.88 170.35 93.1 170.85 93.31 171.35 93.5 171.85 93.67 172.35 93.83 172.85 93.98 173.35 94.11 173.85 94.23 174.35 94.34 174.85 94.43 175.35 94.52 175.85 94.6 176.35 94.67 176.85 94.73 177.36 94.78 177.86 94.83 178.36 94.87 178.86 94.91 179.36 94.94 179.86 94.97 180.36 94.99 180.86 95.01 181.36 95.03 181.86 95.05 182.36 95.06 182.86 95.07 183.36 95.08 183.86 95.09 184.36 95.09 184.86 95.1 185.36 95.1 185.86 95.11 186.37 95.11 186.87 95.11 187.37 95.11 187.87 95.12 188.37 95.12 188.87 95.12 189.37 95.12 189.87 95.12 190.37 95.12 190.87 95.12 191.37 95.12 191.87 95.12 192.37 95.12 192.87 95.12 193.37 95.12" stroke="#A3CFC8" class="geometry color_"/>
        <path fill="none" d="M51.94,95.12 L 52.4 95.12 52.87 95.12 53.33 95.12 53.79 95.12 54.26 95.12 54.72 95.12 55.18 95.12 55.65 95.12 56.11 95.12 56.57 95.12 57.04 95.12 57.5 95.11 57.97 95.11 58.43 95.11 58.89 95.11 59.36 95.1 59.82 95.1 60.28 95.09 60.75 95.09 61.21 95.08 61.68 95.07 62.14 95.06 62.6 95.05 63.07 95.03 63.53 95.01 63.99 94.99 64.46 94.97 64.92 94.94 65.39 94.91 65.85 94.87 66.31 94.82 66.78 94.77 67.24 94.71 67.7 94.64 68.17 94.57 68.63 94.48 69.1 94.38 69.56 94.26 70.02 94.14 70.49 93.99 70.95 93.83 71.41 93.65 71.88 93.45 72.34 93.22 72.81 92.98 73.27 92.7 73.73 92.4 74.2 92.07 74.66 91.7 75.12 91.31 75.59 90.88 76.05 90.41 76.51 89.9 76.98 89.36 77.44 88.77 77.91 88.14 78.37 87.47 78.83 86.76 79.3 86 79.76 85.2 80.22 84.35 80.69 83.47 81.15 82.54 81.62 81.57 82.08 80.56 82.54 79.51 83.01 78.43 83.47 77.32 83.93 76.17 84.4 75.01 84.86 73.82 85.33 72.62 85.79 71.4 86.25 70.18 86.72 68.95 87.18 67.73 87.64 66.51 88.11 65.31 88.57 64.13 89.04 62.97 89.5 61.84 89.96 60.74 90.43 59.68 90.89 58.67 91.35 57.7 91.82 56.79 92.28 55.93 92.75 55.12 93.21 54.38 93.67 53.7 94.14 53.08 94.6 52.52 95.06 52.03 95.53 51.61 95.99 51.25 96.45 50.96 96.92 50.73 97.38 50.56 97.85 50.45 98.31 50.4 98.77 50.4 99.24 50.46 99.7 50.56 100.16 50.72 100.63 50.91 101.09 51.16 101.56 51.44 102.02 51.75 102.48 52.1 102.95 52.48 103.41 52.89 103.87 53.33 104.34 53.79 104.8 54.28 105.27 54.78 105.73 55.3 106.19 55.85 106.66 56.4 107.12 56.97 107.58 57.55 108.05 58.15 108.51 58.76 108.98 59.37 109.44 59.99 109.9 60.63 110.37 61.26 110.83 61.91 111.29 62.56 111.76 63.21 112.22 63.87 112.69 64.53 113.15 65.19 113.61 65.85 114.08 66.51 114.54 67.17 115 67.82 115.47 68.48 115.93 69.12 116.39 69.76 116.86 70.4 117.32 71.02 117.79 71.64 118.25 72.24 118.71 72.83 119.18 73.41 119.64 73.97 120.1 74.52 120.57 75.05 121.03 75.56 121.5 76.05 121.96 76.52 122.42 76.97 122.89 77.4 123.35 77.81 123.81 78.19 124.28 78.55 124.74 78.89 125.21 79.2 125.67 79.49 126.13 79.76 126.6 80 127.06 80.22 127.52 80.42 127.99 80.6 128.45 80.75 128.92 80.89 129.38 81.01 129.84 81.11 130.31 81.19 130.77 81.27 131.23 81.32 131.7 81.37 132.16 81.4 132.63 81.42 133.09 81.44 133.55 81.45 134.02 81.45 134.48 81.45 134.94 81.44 135.41 81.43 135.87 81.41 136.33 81.4 136.8 81.38 137.26 81.36 137.73 81.35 138.19 81.33 138.65 81.31 139.12 81.29 139.58 81.26 140.04 81.24 140.51 81.22 140.97 81.19 141.44 81.17 141.9 81.14 142.36 81.11 142.83 81.07 143.29 81.04 143.75 81 144.22 80.96 144.68 80.92 145.15 80.88 145.61 80.83 146.07 80.79 146.54 80.75 147 80.71 147.46 80.67 147.93 80.63 148.39 80.61 148.86 80.59 149.32 80.57 149.78 80.57 150.25 80.58 150.71 80.61 151.17 80.64 151.64 80.7 152.1 80.77 152.57 80.86 153.03 80.97 153.49 81.1 153.96 81.26 154.42 81.43 154.88 81.63 155.35 81.85 155.81 82.09 156.27 82.36 156.74 82.65 157.2 82.95 157.67 83.28 158.13 83.62 158.59 83.99 159.06 84.36 159.52 84.75 159.98 85.15 160.45 85.56 160.91 85.98 161.38 86.41 161.84 86.83 162.3 87.26 162.77 87.68 163.23 88.11 163.69 88.52 164.16 88.94 164.62 89.34 165.09 89.73 165.55 90.11 166.01 90.48 166.48 90.83 166.94 91.17 167.4 91.49 167.87 91.8 168.33 92.09 168.8 92.36 169.26 92.62 169.72 92.86 170.19 93.08 170.65 93.29 171.11 93.48 171.58 93.65 172.04 93.82 172.51 93.96 172.97 94.1 173.43 94.22 173.9 94.33 174.36 94.43 174.82 94.52 175.29 94.59 175.75 94.66 176.21 94.73 176.68 94.78 177.14 94.83 177.61 94.87 178.07 94.91 178.53 94.94 179 94.97 179.46 94.99 179.92 95.01 180.39 95.03 180.85 95.05 181.32 95.06 181.78 95.07 182.24 95.08 182.71 95.09 183.17 95.09 183.63 95.1 184.1 95.1 184.56 95.11 185.03 95.11 185.49 95.11 185.95 95.11 186.42 95.12 186.88 95.12 187.34 95.12 187.81 95.12 188.27 95.12 188.74 95.12 189.2 95.12 189.66 95.12 190.13 95.12 190.59 95.12" stroke="#AFCDC3" class="geometry color_"/>
        <path fill="none" d="M55.53,95.12 L 55.97 95.12 56.42 95.12 56.86 95.12 57.3 95.12 57.74 95.12 58.19 95.12 58.63 95.12 59.07 95.12 59.51 95.11 59.96 95.11 60.4 95.11 60.84 95.11 61.29 95.1 61.73 95.1 62.17 95.09 62.61 95.09 63.06 95.08 63.5 95.07 63.94 95.05 64.38 95.04 64.83 95.02 65.27 95 65.71 94.97 66.16 94.94 66.6 94.91 67.04 94.87 67.48 94.82 67.93 94.76 68.37 94.7 68.81 94.62 69.25 94.53 69.7 94.43 70.14 94.31 70.58 94.18 71.03 94.03 71.47 93.86 71.91 93.66 72.35 93.44 72.8 93.2 73.24 92.92 73.68 92.61 74.12 92.27 74.57 91.89 75.01 91.47 75.45 91.01 75.9 90.51 76.34 89.96 76.78 89.36 77.22 88.71 77.67 88 78.11 87.24 78.55 86.43 78.99 85.55 79.44 84.62 79.88 83.64 80.32 82.59 80.77 81.49 81.21 80.33 81.65 79.11 82.09 77.85 82.54 76.54 82.98 75.18 83.42 73.78 83.86 72.34 84.31 70.87 84.75 69.38 85.19 67.86 85.64 66.34 86.08 64.81 86.52 63.28 86.96 61.76 87.41 60.26 87.85 58.79 88.29 57.35 88.73 55.95 89.18 54.6 89.62 53.31 90.06 52.08 90.51 50.92 90.95 49.84 91.39 48.84 91.83 47.92 92.28 47.1 92.72 46.36 93.16 45.73 93.6 45.18 94.05 44.74 94.49 44.39 94.93 44.14 95.38 43.98 95.82 43.91 96.26 43.93 96.7 44.03 97.15 44.22 97.59 44.48 98.03 44.81 98.47 45.21 98.92 45.66 99.36 46.17 99.8 46.73 100.25 47.34 100.69 47.98 101.13 48.65 101.57 49.35 102.02 50.08 102.46 50.82 102.9 51.58 103.34 52.35 103.79 53.12 104.23 53.9 104.67 54.68 105.12 55.46 105.56 56.24 106 57.01 106.44 57.77 106.89 58.52 107.33 59.27 107.77 60 108.21 60.72 108.66 61.43 109.1 62.13 109.54 62.81 109.99 63.48 110.43 64.14 110.87 64.79 111.31 65.42 111.76 66.05 112.2 66.65 112.64 67.25 113.08 67.84 113.53 68.41 113.97 68.98 114.41 69.53 114.86 70.07 115.3 70.6 115.74 71.12 116.18 71.63 116.63 72.13 117.07 72.63 117.51 73.11 117.95 73.58 118.4 74.04 118.84 74.5 119.28 74.94 119.73 75.38 120.17 75.8 120.61 76.22 121.05 76.62 121.5 77.02 121.94 77.41 122.38 77.78 122.82 78.15 123.27 78.5 123.71 78.85 124.15 79.18 124.6 79.5 125.04 79.81 125.48 80.11 125.92 80.4 126.37 80.67 126.81 80.93 127.25 81.17 127.69 81.41 128.14 81.62 128.58 81.83 129.02 82.02 129.47 82.2 129.91 82.36 130.35 82.51 130.79 82.65 131.24 82.78 131.68 82.89 132.12 82.99 132.56 83.08 133.01 83.17 133.45 83.24 133.89 83.3 134.34 83.36 134.78 83.41 135.22 83.46 135.66 83.5 136.11 83.53 136.55 83.56 136.99 83.59 137.43 83.61 137.88 83.63 138.32 83.65 138.76 83.67 139.21 83.68 139.65 83.69 140.09 83.7 140.53 83.71 140.98 83.72 141.42 83.72 141.86 83.72 142.3 83.72 142.75 83.71 143.19 83.7 143.63 83.68 144.08 83.67 144.52 83.65 144.96 83.62 145.4 83.6 145.85 83.57 146.29 83.54 146.73 83.51 147.17 83.47 147.62 83.44 148.06 83.41 148.5 83.38 148.95 83.36 149.39 83.35 149.83 83.34 150.27 83.33 150.72 83.34 151.16 83.36 151.6 83.39 152.04 83.44 152.49 83.5 152.93 83.58 153.37 83.67 153.82 83.78 154.26 83.92 154.7 84.06 155.14 84.23 155.59 84.42 156.03 84.63 156.47 84.85 156.91 85.09 157.36 85.35 157.8 85.63 158.24 85.92 158.69 86.22 159.13 86.53 159.57 86.86 160.01 87.19 160.46 87.53 160.9 87.88 161.34 88.23 161.78 88.58 162.23 88.93 162.67 89.28 163.11 89.63 163.56 89.97 164 90.31 164.44 90.63 164.88 90.95 165.33 91.26 165.77 91.55 166.21 91.84 166.65 92.11 167.1 92.36 167.54 92.61 167.98 92.84 168.43 93.05 168.87 93.25 169.31 93.44 169.75 93.62 170.2 93.78 170.64 93.92 171.08 94.06 171.52 94.18 171.97 94.29 172.41 94.4 172.85 94.49 173.3 94.57 173.74 94.64 174.18 94.71 174.62 94.76 175.07 94.81 175.51 94.86 175.95 94.9 176.39 94.93 176.84 94.96 177.28 94.98 177.72 95.01 178.17 95.03 178.61 95.04 179.05 95.06 179.49 95.07 179.94 95.08 180.38 95.08 180.82 95.09 181.27 95.1 181.71 95.1 182.15 95.11 182.59 95.11 183.04 95.11 183.48 95.11 183.92 95.12 184.36 95.12 184.81 95.12 185.25 95.12 185.69 95.12 186.14 95.12 186.58 95.12 187.02 95.12 187.46 95.12 187.91 95.12" stroke="#B6CBC0" class="geometry color_"/>
        <path fill="none" d="M60.43,95.12 L 60.85 95.12 61.26 95.12 61.68 95.12 62.09 95.12 62.51 95.12 62.93 95.12 63.34 95.11 63.76 95.11 64.18 95.11 64.59 95.11 65.01 95.1 65.42 95.1 65.84 95.09 66.26 95.08 66.67 95.07 67.09 95.06 67.5 95.05 67.92 95.03 68.34 95.01 68.75 94.98 69.17 94.95 69.58 94.92 70 94.87 70.42 94.82 70.83 94.76 71.25 94.69 71.66 94.61 72.08 94.51 72.5 94.39 72.91 94.26 73.33 94.11 73.74 93.93 74.16 93.73 74.58 93.5 74.99 93.24 75.41 92.94 75.82 92.61 76.24 92.23 76.66 91.81 77.07 91.34 77.49 90.82 77.9 90.25 78.32 89.62 78.74 88.92 79.15 88.17 79.57 87.34 79.98 86.45 80.4 85.48 80.82 84.45 81.23 83.34 81.65 82.16 82.06 80.91 82.48 79.58 82.9 78.19 83.31 76.73 83.73 75.21 84.14 73.62 84.56 71.99 84.98 70.31 85.39 68.58 85.81 66.83 86.22 65.05 86.64 63.25 87.06 61.44 87.47 59.64 87.89 57.85 88.3 56.08 88.72 54.34 89.14 52.64 89.55 51 89.97 49.42 90.38 47.91 90.8 46.47 91.22 45.13 91.63 43.88 92.05 42.72 92.46 41.68 92.88 40.74 93.3 39.91 93.71 39.2 94.13 38.61 94.54 38.14 94.96 37.78 95.38 37.54 95.79 37.41 96.21 37.39 96.62 37.48 97.04 37.66 97.46 37.95 97.87 38.32 98.29 38.78 98.7 39.32 99.12 39.93 99.54 40.61 99.95 41.34 100.37 42.13 100.78 42.97 101.2 43.84 101.62 44.75 102.03 45.69 102.45 46.65 102.86 47.63 103.28 48.62 103.7 49.62 104.11 50.63 104.53 51.64 104.94 52.65 105.36 53.65 105.78 54.65 106.19 55.63 106.61 56.61 107.02 57.58 107.44 58.53 107.86 59.46 108.27 60.39 108.69 61.29 109.1 62.18 109.52 63.05 109.94 63.91 110.35 64.75 110.77 65.57 111.19 66.37 111.6 67.15 112.02 67.92 112.43 68.66 112.85 69.39 113.27 70.1 113.68 70.78 114.1 71.45 114.51 72.09 114.93 72.72 115.35 73.32 115.76 73.9 116.18 74.45 116.59 74.99 117.01 75.5 117.43 75.98 117.84 76.44 118.26 76.88 118.67 77.29 119.09 77.68 119.51 78.04 119.92 78.38 120.34 78.7 120.75 78.99 121.17 79.27 121.59 79.52 122 79.76 122.42 79.98 122.83 80.18 123.25 80.37 123.67 80.55 124.08 80.71 124.5 80.86 124.91 81.01 125.33 81.14 125.75 81.27 126.16 81.39 126.58 81.51 126.99 81.63 127.41 81.74 127.83 81.85 128.24 81.96 128.66 82.07 129.07 82.17 129.49 82.27 129.91 82.37 130.32 82.47 130.74 82.57 131.15 82.67 131.57 82.76 131.99 82.85 132.4 82.94 132.82 83.02 133.23 83.1 133.65 83.18 134.07 83.26 134.48 83.33 134.9 83.4 135.31 83.46 135.73 83.52 136.15 83.58 136.56 83.64 136.98 83.69 137.39 83.74 137.81 83.79 138.23 83.83 138.64 83.87 139.06 83.91 139.47 83.94 139.89 83.97 140.31 83.99 140.72 84.01 141.14 84.02 141.55 84.03 141.97 84.04 142.39 84.04 142.8 84.03 143.22 84.02 143.63 84 144.05 83.97 144.47 83.95 144.88 83.91 145.3 83.87 145.71 83.83 146.13 83.79 146.55 83.74 146.96 83.7 147.38 83.65 147.79 83.61 148.21 83.57 148.63 83.53 149.04 83.5 149.46 83.48 149.87 83.47 150.29 83.46 150.71 83.47 151.12 83.49 151.54 83.53 151.95 83.58 152.37 83.64 152.79 83.73 153.2 83.83 153.62 83.94 154.03 84.08 154.45 84.23 154.87 84.41 155.28 84.6 155.7 84.81 156.12 85.03 156.53 85.28 156.95 85.54 157.36 85.81 157.78 86.1 158.2 86.4 158.61 86.72 159.03 87.04 159.44 87.37 159.86 87.71 160.28 88.06 160.69 88.41 161.11 88.75 161.52 89.1 161.94 89.45 162.36 89.8 162.77 90.14 163.19 90.47 163.6 90.79 164.02 91.11 164.44 91.41 164.85 91.71 165.27 91.99 165.68 92.26 166.1 92.51 166.52 92.75 166.93 92.98 167.35 93.19 167.76 93.38 168.18 93.57 168.6 93.74 169.01 93.89 169.43 94.03 169.84 94.16 170.26 94.28 170.68 94.39 171.09 94.48 171.51 94.57 171.92 94.64 172.34 94.71 172.76 94.77 173.17 94.82 173.59 94.86 174 94.9 174.42 94.94 174.84 94.97 175.25 94.99 175.67 95.01 176.08 95.03 176.5 95.05 176.92 95.06 177.33 95.07 177.75 95.08 178.16 95.09 178.58 95.1 179 95.1 179.41 95.1 179.83 95.11 180.24 95.11 180.66 95.11 181.08 95.12 181.49 95.12 181.91 95.12 182.32 95.12 182.74 95.12 183.16 95.12 183.57 95.12 183.99 95.12 184.4 95.12 184.82 95.12" stroke="#BACBBC" class="geometry color_"/>
        <path fill="none" d="M65.1,95.12 L 65.49 95.12 65.88 95.12 66.27 95.12 66.67 95.12 67.06 95.12 67.45 95.11 67.84 95.11 68.23 95.11 68.62 95.1 69.01 95.1 69.4 95.09 69.79 95.08 70.18 95.07 70.57 95.06 70.96 95.04 71.36 95.02 71.75 94.99 72.14 94.96 72.53 94.92 72.92 94.87 73.31 94.82 73.7 94.75 74.09 94.67 74.48 94.57 74.87 94.46 75.26 94.32 75.65 94.16 76.05 93.98 76.44 93.76 76.83 93.52 77.22 93.23 77.61 92.9 78 92.52 78.39 92.1 78.78 91.62 79.17 91.07 79.56 90.46 79.95 89.78 80.35 89.03 80.74 88.2 81.13 87.28 81.52 86.27 81.91 85.18 82.3 83.98 82.69 82.7 83.08 81.31 83.47 79.83 83.86 78.26 84.25 76.58 84.64 74.82 85.04 72.96 85.43 71.02 85.82 69.01 86.21 66.92 86.6 64.78 86.99 62.58 87.38 60.35 87.77 58.08 88.16 55.8 88.55 53.52 88.94 51.25 89.33 49 89.73 46.8 90.12 44.65 90.51 42.57 90.9 40.58 91.29 38.68 91.68 36.9 92.07 35.23 92.46 33.7 92.85 32.32 93.24 31.08 93.63 30 94.02 29.08 94.42 28.33 94.81 27.75 95.2 27.34 95.59 27.09 95.98 27.01 96.37 27.09 96.76 27.32 97.15 27.7 97.54 28.23 97.93 28.88 98.32 29.66 98.71 30.55 99.11 31.54 99.5 32.63 99.89 33.79 100.28 35.02 100.67 36.32 101.06 37.66 101.45 39.05 101.84 40.46 102.23 41.89 102.62 43.34 103.01 44.8 103.4 46.25 103.8 47.7 104.19 49.13 104.58 50.55 104.97 51.95 105.36 53.32 105.75 54.66 106.14 55.98 106.53 57.27 106.92 58.52 107.31 59.74 107.7 60.93 108.09 62.08 108.49 63.2 108.88 64.29 109.27 65.34 109.66 66.36 110.05 67.35 110.44 68.3 110.83 69.22 111.22 70.11 111.61 70.96 112 71.79 112.39 72.58 112.79 73.34 113.18 74.07 113.57 74.76 113.96 75.42 114.35 76.05 114.74 76.64 115.13 77.2 115.52 77.72 115.91 78.21 116.3 78.67 116.69 79.09 117.08 79.47 117.48 79.81 117.87 80.12 118.26 80.4 118.65 80.64 119.04 80.85 119.43 81.02 119.82 81.17 120.21 81.28 120.6 81.37 120.99 81.43 121.38 81.47 121.77 81.49 122.17 81.49 122.56 81.48 122.95 81.46 123.34 81.43 123.73 81.39 124.12 81.36 124.51 81.32 124.9 81.29 125.29 81.26 125.68 81.25 126.07 81.24 126.46 81.25 126.86 81.27 127.25 81.3 127.64 81.35 128.03 81.41 128.42 81.49 128.81 81.58 129.2 81.68 129.59 81.8 129.98 81.92 130.37 82.06 130.76 82.2 131.15 82.35 131.55 82.51 131.94 82.67 132.33 82.83 132.72 82.99 133.11 83.15 133.5 83.3 133.89 83.46 134.28 83.61 134.67 83.76 135.06 83.9 135.45 84.04 135.84 84.17 136.24 84.3 136.63 84.42 137.02 84.54 137.41 84.65 137.8 84.75 138.19 84.85 138.58 84.95 138.97 85.03 139.36 85.11 139.75 85.19 140.14 85.25 140.54 85.31 140.93 85.35 141.32 85.39 141.71 85.41 142.1 85.42 142.49 85.43 142.88 85.42 143.27 85.39 143.66 85.36 144.05 85.31 144.44 85.25 144.83 85.18 145.23 85.11 145.62 85.02 146.01 84.93 146.4 84.83 146.79 84.72 147.18 84.62 147.57 84.51 147.96 84.41 148.35 84.31 148.74 84.22 149.13 84.13 149.52 84.05 149.92 83.99 150.31 83.94 150.7 83.9 151.09 83.87 151.48 83.87 151.87 83.88 152.26 83.9 152.65 83.95 153.04 84.02 153.43 84.1 153.82 84.2 154.21 84.33 154.61 84.47 155 84.63 155.39 84.81 155.78 85 156.17 85.22 156.56 85.45 156.95 85.7 157.34 85.96 157.73 86.24 158.12 86.53 158.51 86.84 158.9 87.15 159.3 87.47 159.69 87.8 160.08 88.14 160.47 88.48 160.86 88.83 161.25 89.17 161.64 89.52 162.03 89.86 162.42 90.2 162.81 90.54 163.2 90.86 163.59 91.18 163.99 91.49 164.38 91.79 164.77 92.07 165.16 92.34 165.55 92.6 165.94 92.84 166.33 93.07 166.72 93.28 167.11 93.48 167.5 93.66 167.89 93.83 168.28 93.98 168.68 94.12 169.07 94.25 169.46 94.36 169.85 94.46 170.24 94.56 170.63 94.64 171.02 94.71 171.41 94.77 171.8 94.82 172.19 94.87 172.58 94.91 172.98 94.95 173.37 94.98 173.76 95 174.15 95.02 174.54 95.04 174.93 95.06 175.32 95.07 175.71 95.08 176.1 95.09 176.49 95.09 176.88 95.1 177.27 95.1 177.67 95.11 178.06 95.11 178.45 95.11 178.84 95.12 179.23 95.12 179.62 95.12 180.01 95.12 180.4 95.12 180.79 95.12 181.18 95.12 181.57 95.12 181.96 95.12" stroke="#BECAB9" class="geometry color_"/>
        <path fill="none" d="M64.8,95.12 L 65.19 95.12 65.58 95.12 65.98 95.12 66.37 95.12 66.76 95.12 67.16 95.11 67.55 95.11 67.94 95.11 68.33 95.1 68.73 95.1 69.12 95.09 69.51 95.09 69.91 95.08 70.3 95.06 70.69 95.05 71.08 95.03 71.48 95.01 71.87 94.98 72.26 94.95 72.66 94.9 73.05 94.86 73.44 94.8 73.83 94.72 74.23 94.64 74.62 94.54 75.01 94.42 75.41 94.28 75.8 94.12 76.19 93.93 76.59 93.71 76.98 93.46 77.37 93.17 77.76 92.83 78.16 92.45 78.55 92.02 78.94 91.53 79.34 90.99 79.73 90.37 80.12 89.69 80.51 88.93 80.91 88.09 81.3 87.17 81.69 86.16 82.09 85.06 82.48 83.87 82.87 82.58 83.26 81.19 83.66 79.71 84.05 78.13 84.44 76.46 84.84 74.69 85.23 72.83 85.62 70.89 86.01 68.87 86.41 66.79 86.8 64.64 87.19 62.43 87.59 60.19 87.98 57.92 88.37 55.62 88.76 53.33 89.16 51.04 89.55 48.78 89.94 46.55 90.34 44.38 90.73 42.28 91.12 40.25 91.51 38.32 91.91 36.5 92.3 34.79 92.69 33.22 93.09 31.79 93.48 30.5 93.87 29.38 94.26 28.42 94.66 27.62 95.05 27 95.44 26.55 95.84 26.28 96.23 26.18 96.62 26.25 97.01 26.48 97.41 26.88 97.8 27.44 98.19 28.14 98.59 28.99 98.98 29.96 99.37 31.06 99.76 32.27 100.16 33.58 100.55 34.98 100.94 36.46 101.34 38.01 101.73 39.61 102.12 41.25 102.51 42.93 102.91 44.63 103.3 46.35 103.69 48.06 104.09 49.76 104.48 51.45 104.87 53.11 105.26 54.73 105.66 56.32 106.05 57.85 106.44 59.33 106.84 60.76 107.23 62.12 107.62 63.41 108.01 64.64 108.41 65.79 108.8 66.88 109.19 67.89 109.59 68.83 109.98 69.71 110.37 70.52 110.76 71.26 111.16 71.94 111.55 72.56 111.94 73.13 112.34 73.65 112.73 74.11 113.12 74.54 113.52 74.92 113.91 75.28 114.3 75.6 114.69 75.89 115.09 76.16 115.48 76.41 115.87 76.64 116.27 76.85 116.66 77.06 117.05 77.25 117.44 77.44 117.84 77.62 118.23 77.79 118.62 77.96 119.02 78.13 119.41 78.29 119.8 78.44 120.19 78.59 120.59 78.74 120.98 78.89 121.37 79.03 121.77 79.17 122.16 79.3 122.55 79.43 122.94 79.55 123.34 79.67 123.73 79.78 124.12 79.89 124.52 80 124.91 80.1 125.3 80.2 125.69 80.29 126.09 80.39 126.48 80.48 126.87 80.57 127.27 80.67 127.66 80.76 128.05 80.85 128.44 80.95 128.84 81.05 129.23 81.15 129.62 81.26 130.02 81.37 130.41 81.49 130.8 81.61 131.19 81.74 131.59 81.87 131.98 82.01 132.37 82.15 132.77 82.3 133.16 82.45 133.55 82.61 133.94 82.77 134.34 82.93 134.73 83.1 135.12 83.27 135.52 83.44 135.91 83.61 136.3 83.78 136.69 83.94 137.09 84.11 137.48 84.27 137.87 84.43 138.27 84.58 138.66 84.72 139.05 84.86 139.44 84.99 139.84 85.1 140.23 85.21 140.62 85.31 141.02 85.39 141.41 85.46 141.8 85.52 142.19 85.56 142.59 85.59 142.98 85.6 143.37 85.6 143.77 85.59 144.16 85.56 144.55 85.52 144.94 85.47 145.34 85.41 145.73 85.34 146.12 85.26 146.52 85.18 146.91 85.09 147.3 85 147.69 84.91 148.09 84.82 148.48 84.73 148.87 84.65 149.27 84.58 149.66 84.51 150.05 84.46 150.45 84.41 150.84 84.38 151.23 84.37 151.62 84.37 152.02 84.38 152.41 84.42 152.8 84.47 153.2 84.54 153.59 84.63 153.98 84.74 154.37 84.87 154.77 85.01 155.16 85.18 155.55 85.36 155.95 85.56 156.34 85.77 156.73 86 157.12 86.25 157.52 86.51 157.91 86.78 158.3 87.07 158.7 87.36 159.09 87.66 159.48 87.97 159.87 88.29 160.27 88.61 160.66 88.94 161.05 89.26 161.45 89.59 161.84 89.91 162.23 90.23 162.62 90.54 163.02 90.85 163.41 91.15 163.8 91.45 164.2 91.73 164.59 92 164.98 92.26 165.37 92.51 165.77 92.75 166.16 92.97 166.55 93.18 166.95 93.37 167.34 93.55 167.73 93.72 168.12 93.88 168.52 94.02 168.91 94.15 169.3 94.27 169.7 94.37 170.09 94.47 170.48 94.56 170.87 94.63 171.27 94.7 171.66 94.76 172.05 94.81 172.45 94.86 172.84 94.9 173.23 94.94 173.62 94.97 174.02 94.99 174.41 95.01 174.8 95.03 175.2 95.05 175.59 95.06 175.98 95.07 176.37 95.08 176.77 95.09 177.16 95.1 177.55 95.1 177.95 95.1 178.34 95.11 178.73 95.11 179.12 95.11 179.52 95.12 179.91 95.12 180.3 95.12 180.7 95.12 181.09 95.12 181.48 95.12 181.87 95.12 182.27 95.12" stroke="#C3C9B7" class="geometry color_"/>
        <path fill="none" d="M58.1,95.12 L 58.51 95.12 58.92 95.12 59.33 95.12 59.74 95.12 60.15 95.12 60.56 95.12 60.96 95.12 61.37 95.12 61.78 95.12 62.19 95.11 62.6 95.11 63.01 95.11 63.41 95.11 63.82 95.1 64.23 95.1 64.64 95.09 65.05 95.09 65.46 95.08 65.87 95.07 66.27 95.05 66.68 95.04 67.09 95.02 67.5 95 67.91 94.98 68.32 94.95 68.73 94.91 69.13 94.87 69.54 94.83 69.95 94.78 70.36 94.72 70.77 94.65 71.18 94.57 71.59 94.48 71.99 94.38 72.4 94.26 72.81 94.13 73.22 93.98 73.63 93.81 74.04 93.63 74.44 93.42 74.85 93.19 75.26 92.93 75.67 92.65 76.08 92.33 76.49 91.98 76.9 91.59 77.3 91.17 77.71 90.7 78.12 90.19 78.53 89.63 78.94 89.02 79.35 88.35 79.76 87.62 80.16 86.84 80.57 85.99 80.98 85.07 81.39 84.08 81.8 83.02 82.21 81.88 82.61 80.67 83.02 79.38 83.43 78.02 83.84 76.58 84.25 75.07 84.66 73.48 85.07 71.82 85.47 70.09 85.88 68.31 86.29 66.47 86.7 64.58 87.11 62.65 87.52 60.68 87.93 58.7 88.33 56.7 88.74 54.7 89.15 52.71 89.56 50.74 89.97 48.81 90.38 46.92 90.78 45.1 91.19 43.34 91.6 41.67 92.01 40.09 92.42 38.61 92.83 37.25 93.24 36.02 93.64 34.91 94.05 33.94 94.46 33.12 94.87 32.44 95.28 31.92 95.69 31.55 96.1 31.33 96.5 31.26 96.91 31.34 97.32 31.56 97.73 31.92 98.14 32.42 98.55 33.05 98.96 33.79 99.36 34.64 99.77 35.6 100.18 36.64 100.59 37.77 101 38.96 101.41 40.22 101.81 41.53 102.22 42.87 102.63 44.24 103.04 45.64 103.45 47.04 103.86 48.45 104.27 49.84 104.67 51.23 105.08 52.59 105.49 53.93 105.9 55.24 106.31 56.51 106.72 57.75 107.13 58.94 107.53 60.08 107.94 61.18 108.35 62.24 108.76 63.25 109.17 64.21 109.58 65.12 109.98 65.99 110.39 66.81 110.8 67.59 111.21 68.32 111.62 69.02 112.03 69.68 112.44 70.29 112.84 70.88 113.25 71.43 113.66 71.95 114.07 72.44 114.48 72.9 114.89 73.33 115.3 73.75 115.7 74.13 116.11 74.5 116.52 74.85 116.93 75.18 117.34 75.5 117.75 75.8 118.15 76.09 118.56 76.36 118.97 76.63 119.38 76.89 119.79 77.15 120.2 77.4 120.61 77.64 121.01 77.88 121.42 78.13 121.83 78.37 122.24 78.61 122.65 78.85 123.06 79.09 123.47 79.33 123.87 79.58 124.28 79.82 124.69 80.07 125.1 80.31 125.51 80.56 125.92 80.8 126.33 81.04 126.73 81.27 127.14 81.5 127.55 81.73 127.96 81.94 128.37 82.15 128.78 82.34 129.18 82.52 129.59 82.69 130 82.84 130.41 82.98 130.82 83.11 131.23 83.22 131.64 83.31 132.04 83.39 132.45 83.45 132.86 83.5 133.27 83.54 133.68 83.56 134.09 83.58 134.5 83.58 134.9 83.58 135.31 83.58 135.72 83.57 136.13 83.56 136.54 83.55 136.95 83.54 137.35 83.54 137.76 83.54 138.17 83.54 138.58 83.55 138.99 83.56 139.4 83.58 139.81 83.61 140.21 83.64 140.62 83.67 141.03 83.72 141.44 83.76 141.85 83.82 142.26 83.87 142.67 83.93 143.07 83.98 143.48 84.04 143.89 84.1 144.3 84.16 144.71 84.21 145.12 84.26 145.52 84.32 145.93 84.36 146.34 84.41 146.75 84.46 147.16 84.5 147.57 84.54 147.98 84.59 148.38 84.63 148.79 84.68 149.2 84.72 149.61 84.78 150.02 84.84 150.43 84.9 150.84 84.98 151.24 85.06 151.65 85.16 152.06 85.27 152.47 85.39 152.88 85.53 153.29 85.68 153.7 85.85 154.1 86.03 154.51 86.23 154.92 86.45 155.33 86.69 155.74 86.94 156.15 87.2 156.55 87.48 156.96 87.77 157.37 88.08 157.78 88.39 158.19 88.71 158.6 89.03 159.01 89.36 159.41 89.7 159.82 90.03 160.23 90.35 160.64 90.68 161.05 91 161.46 91.31 161.87 91.61 162.27 91.9 162.68 92.18 163.09 92.45 163.5 92.7 163.91 92.94 164.32 93.16 164.72 93.37 165.13 93.56 165.54 93.74 165.95 93.9 166.36 94.05 166.77 94.18 167.18 94.31 167.58 94.42 167.99 94.51 168.4 94.6 168.81 94.68 169.22 94.74 169.63 94.8 170.04 94.85 170.44 94.9 170.85 94.93 171.26 94.97 171.67 94.99 172.08 95.02 172.49 95.03 172.89 95.05 173.3 95.06 173.71 95.08 174.12 95.08 174.53 95.09 174.94 95.1 175.35 95.1 175.75 95.11 176.16 95.11 176.57 95.11 176.98 95.12 177.39 95.12 177.8 95.12 178.21 95.12 178.61 95.12 179.02 95.12 179.43 95.12 179.84 95.12 180.25 95.12" stroke="#C69C80" class="geometry color_"/>
        <path fill="none" d="M62.71,95.12 L 63.09 95.12 63.48 95.12 63.87 95.12 64.26 95.12 64.65 95.12 65.04 95.12 65.43 95.12 65.81 95.11 66.2 95.11 66.59 95.11 66.98 95.1 67.37 95.1 67.76 95.09 68.15 95.08 68.54 95.07 68.92 95.06 69.31 95.04 69.7 95.03 70.09 95 70.48 94.97 70.87 94.94 71.26 94.9 71.64 94.85 72.03 94.79 72.42 94.72 72.81 94.64 73.2 94.54 73.59 94.43 73.98 94.29 74.37 94.14 74.75 93.96 75.14 93.75 75.53 93.51 75.92 93.24 76.31 92.94 76.7 92.59 77.09 92.19 77.47 91.75 77.86 91.26 78.25 90.7 78.64 90.09 79.03 89.42 79.42 88.68 79.81 87.87 80.2 86.98 80.58 86.02 80.97 84.99 81.36 83.87 81.75 82.68 82.14 81.4 82.53 80.05 82.92 78.62 83.3 77.11 83.69 75.53 84.08 73.89 84.47 72.18 84.86 70.41 85.25 68.6 85.64 66.74 86.02 64.84 86.41 62.92 86.8 60.98 87.19 59.04 87.58 57.09 87.97 55.16 88.36 53.25 88.75 51.37 89.13 49.53 89.52 47.75 89.91 46.02 90.3 44.37 90.69 42.8 91.08 41.31 91.47 39.91 91.85 38.61 92.24 37.42 92.63 36.34 93.02 35.37 93.41 34.51 93.8 33.78 94.19 33.16 94.58 32.67 94.96 32.29 95.35 32.04 95.74 31.9 96.13 31.89 96.52 31.99 96.91 32.2 97.3 32.52 97.68 32.95 98.07 33.48 98.46 34.12 98.85 34.84 99.24 35.66 99.63 36.56 100.02 37.54 100.41 38.6 100.79 39.71 101.18 40.89 101.57 42.12 101.96 43.4 102.35 44.71 102.74 46.05 103.13 47.41 103.51 48.78 103.9 50.16 104.29 51.54 104.68 52.9 105.07 54.24 105.46 55.56 105.85 56.84 106.24 58.08 106.62 59.27 107.01 60.41 107.4 61.49 107.79 62.52 108.18 63.48 108.57 64.38 108.96 65.21 109.34 65.98 109.73 66.68 110.12 67.32 110.51 67.9 110.9 68.42 111.29 68.89 111.68 69.31 112.07 69.69 112.45 70.03 112.84 70.33 113.23 70.61 113.62 70.86 114.01 71.09 114.4 71.31 114.79 71.53 115.17 71.74 115.56 71.95 115.95 72.17 116.34 72.4 116.73 72.64 117.12 72.89 117.51 73.15 117.9 73.44 118.28 73.73 118.67 74.05 119.06 74.38 119.45 74.73 119.84 75.09 120.23 75.46 120.62 75.84 121 76.23 121.39 76.63 121.78 77.03 122.17 77.43 122.56 77.82 122.95 78.22 123.34 78.6 123.73 78.98 124.11 79.34 124.5 79.69 124.89 80.02 125.28 80.34 125.67 80.64 126.06 80.92 126.45 81.19 126.83 81.43 127.22 81.65 127.61 81.86 128 82.04 128.39 82.21 128.78 82.36 129.17 82.5 129.55 82.63 129.94 82.74 130.33 82.85 130.72 82.94 131.11 83.03 131.5 83.12 131.89 83.21 132.28 83.29 132.66 83.38 133.05 83.46 133.44 83.56 133.83 83.65 134.22 83.76 134.61 83.87 135 83.99 135.38 84.11 135.77 84.24 136.16 84.38 136.55 84.52 136.94 84.66 137.33 84.81 137.72 84.96 138.11 85.12 138.49 85.27 138.88 85.42 139.27 85.56 139.66 85.7 140.05 85.83 140.44 85.95 140.83 86.06 141.21 86.16 141.6 86.25 141.99 86.32 142.38 86.38 142.77 86.43 143.16 86.46 143.55 86.47 143.94 86.47 144.32 86.46 144.71 86.43 145.1 86.39 145.49 86.33 145.88 86.27 146.27 86.2 146.66 86.11 147.04 86.03 147.43 85.93 147.82 85.84 148.21 85.74 148.6 85.65 148.99 85.56 149.38 85.47 149.77 85.4 150.15 85.33 150.54 85.27 150.93 85.23 151.32 85.2 151.71 85.18 152.1 85.19 152.49 85.21 152.87 85.25 153.26 85.32 153.65 85.41 154.04 85.52 154.43 85.65 154.82 85.81 155.21 85.99 155.6 86.19 155.98 86.41 156.37 86.65 156.76 86.92 157.15 87.2 157.54 87.49 157.93 87.8 158.32 88.13 158.7 88.46 159.09 88.8 159.48 89.14 159.87 89.49 160.26 89.84 160.65 90.19 161.04 90.53 161.43 90.87 161.81 91.19 162.2 91.51 162.59 91.82 162.98 92.11 163.37 92.39 163.76 92.65 164.15 92.9 164.53 93.13 164.92 93.35 165.31 93.55 165.7 93.73 166.09 93.9 166.48 94.05 166.87 94.19 167.26 94.31 167.64 94.42 168.03 94.52 168.42 94.61 168.81 94.69 169.2 94.75 169.59 94.81 169.98 94.86 170.36 94.9 170.75 94.94 171.14 94.97 171.53 95 171.92 95.02 172.31 95.04 172.7 95.06 173.09 95.07 173.47 95.08 173.86 95.09 174.25 95.09 174.64 95.1 175.03 95.11 175.42 95.11 175.81 95.11 176.19 95.11 176.58 95.12 176.97 95.12 177.36 95.12 177.75 95.12 178.14 95.12 178.53 95.12 178.91 95.12" stroke="#C7C8B5" class="geometry color_"/>
        <path fill="none" d="M57.56,95.12 L 57.97 95.12 58.38 95.12 58.79 95.12 59.2 95.12 59.6 95.12 60.01 95.12 60.42 95.12 60.83 95.12 61.23 95.12 61.64 95.12 62.05 95.11 62.46 95.11 62.87 95.11 63.27 95.11 63.68 95.1 64.09 95.1 64.5 95.09 64.91 95.08 65.31 95.08 65.72 95.06 66.13 95.05 66.54 95.03 66.94 95.01 67.35 94.99 67.76 94.96 68.17 94.93 68.58 94.89 68.98 94.84 69.39 94.78 69.8 94.72 70.21 94.64 70.62 94.55 71.02 94.45 71.43 94.33 71.84 94.19 72.25 94.03 72.66 93.86 73.06 93.65 73.47 93.42 73.88 93.16 74.29 92.87 74.69 92.54 75.1 92.17 75.51 91.76 75.92 91.31 76.33 90.81 76.73 90.26 77.14 89.67 77.55 89.01 77.96 88.3 78.37 87.54 78.77 86.71 79.18 85.82 79.59 84.87 80 83.86 80.4 82.79 80.81 81.66 81.22 80.48 81.63 79.23 82.04 77.94 82.44 76.59 82.85 75.2 83.26 73.76 83.67 72.29 84.08 70.79 84.48 69.26 84.89 67.71 85.3 66.15 85.71 64.58 86.11 63.02 86.52 61.45 86.93 59.9 87.34 58.37 87.75 56.87 88.15 55.39 88.56 53.96 88.97 52.56 89.38 51.21 89.79 49.92 90.19 48.67 90.6 47.49 91.01 46.37 91.42 45.32 91.83 44.33 92.23 43.42 92.64 42.58 93.05 41.82 93.46 41.14 93.86 40.53 94.27 40.01 94.68 39.58 95.09 39.22 95.5 38.96 95.9 38.78 96.31 38.69 96.72 38.69 97.13 38.78 97.54 38.96 97.94 39.22 98.35 39.58 98.76 40.02 99.17 40.55 99.57 41.16 99.98 41.85 100.39 42.61 100.8 43.45 101.21 44.35 101.61 45.32 102.02 46.34 102.43 47.41 102.84 48.52 103.25 49.67 103.65 50.85 104.06 52.05 104.47 53.26 104.88 54.47 105.28 55.68 105.69 56.88 106.1 58.06 106.51 59.22 106.92 60.34 107.32 61.43 107.73 62.47 108.14 63.46 108.55 64.41 108.96 65.3 109.36 66.13 109.77 66.9 110.18 67.62 110.59 68.28 111 68.87 111.4 69.42 111.81 69.91 112.22 70.35 112.63 70.74 113.03 71.08 113.44 71.39 113.85 71.67 114.26 71.91 114.67 72.12 115.07 72.32 115.48 72.5 115.89 72.66 116.3 72.82 116.71 72.97 117.11 73.12 117.52 73.27 117.93 73.42 118.34 73.58 118.74 73.75 119.15 73.92 119.56 74.11 119.97 74.3 120.38 74.51 120.78 74.72 121.19 74.95 121.6 75.19 122.01 75.43 122.42 75.68 122.82 75.93 123.23 76.19 123.64 76.46 124.05 76.72 124.45 76.98 124.86 77.25 125.27 77.51 125.68 77.76 126.09 78.01 126.49 78.26 126.9 78.5 127.31 78.73 127.72 78.95 128.13 79.17 128.53 79.38 128.94 79.58 129.35 79.77 129.76 79.96 130.17 80.14 130.57 80.31 130.98 80.48 131.39 80.64 131.8 80.8 132.2 80.96 132.61 81.12 133.02 81.27 133.43 81.42 133.84 81.58 134.24 81.73 134.65 81.88 135.06 82.04 135.47 82.19 135.88 82.35 136.28 82.5 136.69 82.66 137.1 82.82 137.51 82.98 137.91 83.13 138.32 83.29 138.73 83.45 139.14 83.6 139.55 83.75 139.95 83.9 140.36 84.04 140.77 84.18 141.18 84.31 141.59 84.43 141.99 84.55 142.4 84.66 142.81 84.77 143.22 84.87 143.62 84.95 144.03 85.03 144.44 85.11 144.85 85.17 145.26 85.23 145.66 85.28 146.07 85.32 146.48 85.35 146.89 85.38 147.3 85.41 147.7 85.43 148.11 85.45 148.52 85.48 148.93 85.5 149.34 85.52 149.74 85.55 150.15 85.59 150.56 85.63 150.97 85.69 151.37 85.75 151.78 85.83 152.19 85.93 152.6 86.03 153.01 86.16 153.41 86.3 153.82 86.46 154.23 86.64 154.64 86.84 155.05 87.06 155.45 87.29 155.86 87.54 156.27 87.8 156.68 88.08 157.08 88.37 157.49 88.67 157.9 88.98 158.31 89.3 158.72 89.62 159.12 89.94 159.53 90.26 159.94 90.58 160.35 90.9 160.76 91.21 161.16 91.51 161.57 91.8 161.98 92.08 162.39 92.35 162.79 92.6 163.2 92.85 163.61 93.07 164.02 93.28 164.43 93.48 164.83 93.66 165.24 93.83 165.65 93.99 166.06 94.13 166.47 94.25 166.87 94.37 167.28 94.47 167.69 94.56 168.1 94.64 168.51 94.71 168.91 94.77 169.32 94.83 169.73 94.87 170.14 94.91 170.54 94.95 170.95 94.98 171.36 95 171.77 95.02 172.18 95.04 172.58 95.06 172.99 95.07 173.4 95.08 173.81 95.09 174.22 95.09 174.62 95.1 175.03 95.1 175.44 95.11 175.85 95.11 176.25 95.11 176.66 95.12 177.07 95.12 177.48 95.12 177.89 95.12 178.29 95.12 178.7 95.12 179.11 95.12 179.52 95.12" stroke="#CDC6B0" class="geometry color_"/>
        <path fill="none" d="M58.85,95.12 L 59.25 95.12 59.66 95.12 60.06 95.12 60.46 95.12 60.86 95.12 61.27 95.12 61.67 95.12 62.07 95.12 62.47 95.12 62.87 95.12 63.28 95.11 63.68 95.11 64.08 95.11 64.48 95.11 64.89 95.1 65.29 95.1 65.69 95.09 66.09 95.08 66.5 95.07 66.9 95.06 67.3 95.05 67.7 95.03 68.1 95.01 68.51 94.99 68.91 94.96 69.31 94.93 69.71 94.89 70.12 94.84 70.52 94.79 70.92 94.72 71.32 94.65 71.73 94.56 72.13 94.46 72.53 94.35 72.93 94.21 73.33 94.06 73.74 93.89 74.14 93.69 74.54 93.47 74.94 93.22 75.35 92.94 75.75 92.63 76.15 92.27 76.55 91.88 76.96 91.45 77.36 90.97 77.76 90.44 78.16 89.86 78.56 89.22 78.97 88.52 79.37 87.77 79.77 86.95 80.17 86.06 80.58 85.11 80.98 84.09 81.38 82.99 81.78 81.82 82.18 80.59 82.59 79.28 82.99 77.9 83.39 76.45 83.79 74.93 84.2 73.35 84.6 71.71 85 70.02 85.4 68.28 85.81 66.5 86.21 64.69 86.61 62.85 87.01 60.99 87.41 59.12 87.82 57.25 88.22 55.4 88.62 53.57 89.02 51.77 89.43 50.01 89.83 48.31 90.23 46.67 90.63 45.1 91.04 43.62 91.44 42.22 91.84 40.92 92.24 39.73 92.64 38.65 93.05 37.68 93.45 36.83 93.85 36.1 94.25 35.5 94.66 35.02 95.06 34.66 95.46 34.42 95.86 34.3 96.27 34.3 96.67 34.4 97.07 34.62 97.47 34.94 97.87 35.36 98.28 35.86 98.68 36.46 99.08 37.13 99.48 37.88 99.89 38.69 100.29 39.57 100.69 40.5 101.09 41.47 101.49 42.49 101.9 43.55 102.3 44.63 102.7 45.74 103.1 46.87 103.51 48.01 103.91 49.16 104.31 50.31 104.71 51.46 105.12 52.61 105.52 53.74 105.92 54.86 106.32 55.96 106.72 57.04 107.13 58.1 107.53 59.12 107.93 60.12 108.33 61.09 108.74 62.02 109.14 62.92 109.54 63.78 109.94 64.6 110.35 65.39 110.75 66.14 111.15 66.86 111.55 67.53 111.95 68.18 112.36 68.79 112.76 69.37 113.16 69.91 113.56 70.43 113.97 70.92 114.37 71.38 114.77 71.82 115.17 72.24 115.58 72.64 115.98 73.01 116.38 73.37 116.78 73.72 117.18 74.05 117.59 74.37 117.99 74.68 118.39 74.99 118.79 75.28 119.2 75.57 119.6 75.85 120 76.13 120.4 76.41 120.8 76.69 121.21 76.97 121.61 77.24 122.01 77.52 122.41 77.8 122.82 78.08 123.22 78.36 123.62 78.64 124.02 78.93 124.43 79.22 124.83 79.51 125.23 79.8 125.63 80.09 126.03 80.38 126.44 80.67 126.84 80.96 127.24 81.25 127.64 81.53 128.05 81.81 128.45 82.08 128.85 82.35 129.25 82.62 129.66 82.87 130.06 83.12 130.46 83.35 130.86 83.58 131.26 83.79 131.67 83.99 132.07 84.18 132.47 84.35 132.87 84.51 133.28 84.66 133.68 84.79 134.08 84.91 134.48 85.01 134.89 85.1 135.29 85.17 135.69 85.23 136.09 85.27 136.49 85.3 136.9 85.32 137.3 85.33 137.7 85.32 138.1 85.3 138.51 85.28 138.91 85.24 139.31 85.2 139.71 85.14 140.11 85.09 140.52 85.02 140.92 84.96 141.32 84.88 141.72 84.81 142.13 84.73 142.53 84.66 142.93 84.58 143.33 84.5 143.74 84.43 144.14 84.35 144.54 84.28 144.94 84.22 145.34 84.15 145.75 84.1 146.15 84.05 146.55 84.01 146.95 83.97 147.36 83.94 147.76 83.93 148.16 83.92 148.56 83.93 148.97 83.95 149.37 83.99 149.77 84.04 150.17 84.1 150.57 84.18 150.98 84.28 151.38 84.4 151.78 84.54 152.18 84.69 152.59 84.87 152.99 85.06 153.39 85.27 153.79 85.5 154.2 85.75 154.6 86.02 155 86.3 155.4 86.6 155.8 86.91 156.21 87.23 156.61 87.57 157.01 87.91 157.41 88.26 157.82 88.61 158.22 88.96 158.62 89.32 159.02 89.67 159.43 90.02 159.83 90.37 160.23 90.71 160.63 91.04 161.03 91.36 161.44 91.66 161.84 91.96 162.24 92.24 162.64 92.51 163.05 92.76 163.45 92.99 163.85 93.21 164.25 93.42 164.65 93.61 165.06 93.78 165.46 93.94 165.86 94.08 166.26 94.21 166.67 94.33 167.07 94.44 167.47 94.53 167.87 94.61 168.28 94.69 168.68 94.75 169.08 94.81 169.48 94.86 169.88 94.9 170.29 94.94 170.69 94.97 171.09 94.99 171.49 95.02 171.9 95.04 172.3 95.05 172.7 95.06 173.1 95.08 173.51 95.08 173.91 95.09 174.31 95.1 174.71 95.1 175.11 95.11 175.52 95.11 175.92 95.11 176.32 95.11 176.72 95.12 177.13 95.12 177.53 95.12 177.93 95.12 178.33 95.12 178.74 95.12 179.14 95.12" stroke="#D2B497" class="geometry color_"/>
        <path fill="none" d="M59.12,95.12 L 59.52 95.12 59.93 95.12 60.33 95.12 60.73 95.12 61.14 95.12 61.54 95.12 61.94 95.12 62.35 95.12 62.75 95.12 63.15 95.12 63.56 95.11 63.96 95.11 64.36 95.11 64.77 95.1 65.17 95.1 65.58 95.09 65.98 95.09 66.38 95.08 66.79 95.07 67.19 95.05 67.59 95.03 68 95.01 68.4 94.99 68.8 94.96 69.21 94.93 69.61 94.89 70.01 94.84 70.42 94.78 70.82 94.71 71.23 94.63 71.63 94.54 72.03 94.43 72.44 94.31 72.84 94.17 73.24 94 73.65 93.82 74.05 93.6 74.45 93.36 74.86 93.09 75.26 92.78 75.66 92.44 76.07 92.06 76.47 91.63 76.87 91.16 77.28 90.63 77.68 90.06 78.09 89.43 78.49 88.74 78.89 87.99 79.3 87.18 79.7 86.3 80.1 85.36 80.51 84.35 80.91 83.27 81.31 82.13 81.72 80.92 82.12 79.64 82.52 78.3 82.93 76.9 83.33 75.44 83.73 73.92 84.14 72.35 84.54 70.74 84.95 69.09 85.35 67.4 85.75 65.69 86.16 63.96 86.56 62.21 86.96 60.47 87.37 58.72 87.77 56.99 88.17 55.28 88.58 53.61 88.98 51.97 89.38 50.37 89.79 48.84 90.19 47.36 90.6 45.96 91 44.64 91.4 43.4 91.81 42.25 92.21 41.19 92.61 40.24 93.02 39.39 93.42 38.65 93.82 38.02 94.23 37.51 94.63 37.1 95.03 36.81 95.44 36.63 95.84 36.56 96.24 36.6 96.65 36.75 97.05 36.99 97.46 37.34 97.86 37.78 98.26 38.31 98.67 38.93 99.07 39.62 99.47 40.38 99.88 41.2 100.28 42.08 100.68 43.02 101.09 44 101.49 45.01 101.89 46.06 102.3 47.13 102.7 48.21 103.11 49.31 103.51 50.42 103.91 51.52 104.32 52.62 104.72 53.7 105.12 54.78 105.53 55.83 105.93 56.86 106.33 57.86 106.74 58.84 107.14 59.78 107.54 60.69 107.95 61.56 108.35 62.4 108.75 63.2 109.16 63.95 109.56 64.67 109.97 65.36 110.37 66 110.77 66.6 111.18 67.17 111.58 67.71 111.98 68.21 112.39 68.68 112.79 69.13 113.19 69.54 113.6 69.93 114 70.31 114.4 70.66 114.81 70.99 115.21 71.32 115.61 71.63 116.02 71.93 116.42 72.23 116.83 72.52 117.23 72.82 117.63 73.11 118.04 73.4 118.44 73.7 118.84 74 119.25 74.31 119.65 74.62 120.05 74.93 120.46 75.25 120.86 75.58 121.26 75.91 121.67 76.24 122.07 76.57 122.48 76.9 122.88 77.23 123.28 77.55 123.69 77.87 124.09 78.19 124.49 78.5 124.9 78.8 125.3 79.08 125.7 79.36 126.11 79.62 126.51 79.88 126.91 80.12 127.32 80.34 127.72 80.55 128.12 80.75 128.53 80.94 128.93 81.12 129.34 81.28 129.74 81.44 130.14 81.59 130.55 81.73 130.95 81.86 131.35 81.99 131.76 82.12 132.16 82.24 132.56 82.37 132.97 82.49 133.37 82.61 133.77 82.73 134.18 82.85 134.58 82.97 134.98 83.09 135.39 83.21 135.79 83.33 136.2 83.44 136.6 83.56 137 83.67 137.41 83.78 137.81 83.88 138.21 83.98 138.62 84.07 139.02 84.16 139.42 84.23 139.83 84.31 140.23 84.37 140.63 84.43 141.04 84.47 141.44 84.51 141.85 84.55 142.25 84.57 142.65 84.59 143.06 84.6 143.46 84.6 143.86 84.6 144.27 84.59 144.67 84.58 145.07 84.57 145.48 84.55 145.88 84.54 146.28 84.52 146.69 84.5 147.09 84.49 147.49 84.48 147.9 84.47 148.3 84.48 148.71 84.49 149.11 84.51 149.51 84.54 149.92 84.58 150.32 84.64 150.72 84.71 151.13 84.8 151.53 84.9 151.93 85.03 152.34 85.17 152.74 85.33 153.14 85.51 153.55 85.72 153.95 85.94 154.35 86.18 154.76 86.44 155.16 86.71 155.57 87.01 155.97 87.31 156.37 87.63 156.78 87.96 157.18 88.3 157.58 88.64 157.99 88.99 158.39 89.34 158.79 89.69 159.2 90.04 159.6 90.38 160 90.72 160.41 91.05 160.81 91.36 161.22 91.67 161.62 91.97 162.02 92.25 162.43 92.52 162.83 92.77 163.23 93 163.64 93.23 164.04 93.43 164.44 93.62 164.85 93.79 165.25 93.95 165.65 94.1 166.06 94.23 166.46 94.34 166.86 94.45 167.27 94.54 167.67 94.62 168.08 94.7 168.48 94.76 168.88 94.82 169.29 94.86 169.69 94.91 170.09 94.94 170.5 94.97 170.9 95 171.3 95.02 171.71 95.04 172.11 95.05 172.51 95.07 172.92 95.08 173.32 95.09 173.72 95.09 174.13 95.1 174.53 95.1 174.94 95.11 175.34 95.11 175.74 95.11 176.15 95.12 176.55 95.12 176.95 95.12 177.36 95.12 177.76 95.12 178.16 95.12 178.57 95.12 178.97 95.12 179.37 95.12 179.78 95.12" stroke="#D5C4A9" class="geometry color_"/>
      </g>
    </g>
  </g>
</g>
  <g class="guide ylabels" font-size="4.76" font-family="'PT Sans Caption','Helvetica Neue','Helvetica',sans-serif" fill="#6C606B" id="img-d74ba952-16">
    <text x="23.41" y="95.12" text-anchor="end" dy="0.35em">0.0</text>
    <text x="23.41" y="73.09" text-anchor="end" dy="0.35em">0.1</text>
    <text x="23.41" y="51.06" text-anchor="end" dy="0.35em">0.2</text>
    <text x="23.41" y="29.03" text-anchor="end" dy="0.35em">0.3</text>
    <text x="23.41" y="7" text-anchor="end" dy="0.35em">0.4</text>
  </g>
  <g font-size="6.35" font-family="'PT Sans','Helvetica Neue','Helvetica',sans-serif" fill="#564A55" stroke="#000000" stroke-opacity="0.000" id="img-d74ba952-17">
    <text x="10.18" y="49.06" text-anchor="middle" dy="0.35em" transform="rotate(-90, 10.18, 51.06)">Density</text>
  </g>
</g>
<defs>
  <clipPath id="img-d74ba952-9">
  <path d="M24.41,5 L 209.95 5 209.95 97.12 24.41 97.12" />
</clipPath>
</defs>
</svg>
