<svg xmlns="http://www.w3.org/2000/svg" xmlns:xlink="http://www.w3.org/1999/xlink" version="1.2" width="240mm" height="120mm" viewBox="0 0 240 120" stroke-width=".3" font-size="3.88"><path d="M0 0h240v120H0z" stroke="#000" stroke-opacity="0" fill="#222831"/><g class="plotroot xscalable yscalable"><text x="126.48" y="108.39" text-anchor="middle" dy=".6em" font-family="'PT Sans','Helvetica Neue','Helvetica',sans-serif" fill="#A1A1A1" stroke="#000" stroke-opacity="0">Year</text><g class="guide xlabels" font-size="2.82" font-family="'PT Sans Caption','Helvetica Neue','Helvetica',sans-serif" fill="#A1A1A1" text-anchor="middle"><text x="19.96" y="101.71" dy=".6em">2012</text><text x="90.97" y="101.71" dy=".6em">2013</text><text x="161.99" y="101.71" dy=".6em">2014</text><text x="233" y="101.71" dy=".6em">2015</text></g><g clip-path="url(#a)"><path d="M17.96 10.61H235v90.1H17.96z" pointer-events="visible" fill="#222831" stroke="#000" stroke-opacity="0" class="guide background"/><g class="guide ygridlines xfixed" stroke-dasharray="0.5,0.5" stroke-width=".2" stroke="#575757" fill="none"><path d="M17.96 98.71H235M17.96 81.49H235M17.96 64.27H235M17.96 47.05H235M17.96 29.83H235M17.96 12.61H235"/></g><g class="guide xgridlines yfixed" stroke-dasharray="0.5,0.5" stroke-width=".2" stroke="#575757" fill="none"><path d="M19.96 10.61v90.1M90.97 10.61v90.1M161.99 10.61v90.1M233 10.61v90.1"/></g><g class="plotpanel"><path d="M233 94.46l-71.01-1.63-71.02 1.18-71.01-1.48V24.77l71.01.62 71.02-.65 71.01.49z" stroke="#000" stroke-opacity="0" class="geometry" fill="#DC6671" fill-opacity=".53"/><g class="geometry color_RGBA{Float32}(0.9960785f0,0.2627451f0,0.39607847f0,1.0f0)" stroke="#B58486" fill="#FE4365"><use xlink:href="#b" x="19.96" y="58.65"/><use xlink:href="#b" x="90.97" y="59.7"/><use xlink:href="#b" x="161.99" y="58.78"/><use xlink:href="#b" x="233" y="59.85"/></g><path fill="none" d="M19.96 58.65l71.01 1.05 71.02-.92L233 59.85" fill-opacity="0" class="geometry" stroke="#FE4365"/></g></g><g class="guide ylabels" font-size="2.82" font-family="'PT Sans Caption','Helvetica Neue','Helvetica',sans-serif" fill="#A1A1A1" text-anchor="end"><text x="16.96" y="98.71" dy=".35em">20</text><text x="16.96" y="81.49" dy=".35em">30</text><text x="16.96" y="64.27" dy=".35em">40</text><text x="16.96" y="47.05" dy=".35em">50</text><text x="16.96" y="29.83" dy=".35em">60</text><text x="16.96" y="12.61" dy=".35em">70</text></g><text x="8.81" y="53.66" text-anchor="middle" dy=".35em" transform="rotate(-90 8.81 55.66)" font-family="'PT Sans','Helvetica Neue','Helvetica',sans-serif" fill="#A1A1A1" stroke="#000" stroke-opacity="0">CPI</text><text x="126.48" y="5" text-anchor="middle" dy=".6em" font-family="'PT Sans','Helvetica Neue','Helvetica',sans-serif" fill="#A1A1A1" stroke="#000" stroke-opacity="0">Average CPI over Time</text></g><defs><clipPath id="a"><path d="M17.96 10.61H235v90.1H17.96"/></clipPath><circle r=".9" id="b"/></defs></svg>