<?xml version="1.0" encoding="UTF-8"?>
<svg xmlns="http://www.w3.org/2000/svg"
     xmlns:xlink="http://www.w3.org/1999/xlink"
     xmlns:gadfly="http://www.gadflyjl.org/ns"
     version="1.2"
     width="240mm" height="120mm" viewBox="0 0 240 120"
     stroke="none"
     fill="#000000"
     stroke-width="0.3"
     font-size="3.88"
>
<g class="plotroot xscalable yscalable" id="img-0f813168-1">
  <g font-size="6.35" font-family="'PT Sans','Helvetica Neue','Helvetica',sans-serif" fill="#FFFFFF" stroke="#000000" stroke-opacity="0.000" id="img-0f813168-2">
    <text x="127.94" y="107.06" text-anchor="middle" dy="0.6em">Year</text>
  </g>
  <g class="guide xlabels" font-size="4.76" font-family="'PT Sans Caption','Helvetica Neue','Helvetica',sans-serif" fill="#FFFFFF" id="img-0f813168-3">
    <text x="22.88" y="99.18" text-anchor="middle" dy="0.6em">2012</text>
    <text x="92.92" y="99.18" text-anchor="middle" dy="0.6em">2013</text>
    <text x="162.96" y="99.18" text-anchor="middle" dy="0.6em">2014</text>
    <text x="233" y="99.18" text-anchor="middle" dy="0.6em">2015</text>
  </g>
<g clip-path="url(#img-0f813168-4)">
  <g id="img-0f813168-5">
    <g pointer-events="visible" opacity="1" fill="#000000" fill-opacity="0.000" stroke="#000000" stroke-opacity="0.000" class="guide background" id="img-0f813168-6">
      <rect x="20.88" y="15.35" width="214.12" height="82.83"/>
    </g>
    <g class="guide ygridlines xfixed" stroke-dasharray="0.5,0.5" stroke-width="0.26" stroke="#FFFFFF" id="img-0f813168-7">
      <path fill="none" d="M20.88,96.18 L 235 96.18"/>
      <path fill="none" d="M20.88,80.41 L 235 80.41"/>
      <path fill="none" d="M20.88,64.65 L 235 64.65"/>
      <path fill="none" d="M20.88,48.88 L 235 48.88"/>
      <path fill="none" d="M20.88,33.12 L 235 33.12"/>
      <path fill="none" d="M20.88,17.35 L 235 17.35"/>
    </g>
    <g class="guide xgridlines yfixed" stroke-dasharray="0.5,0.5" stroke-width="0.26" stroke="#FFFFFF" id="img-0f813168-8">
      <path fill="none" d="M22.88,15.35 L 22.88 98.18"/>
      <path fill="none" d="M92.92,15.35 L 92.92 98.18"/>
      <path fill="none" d="M162.96,15.35 L 162.96 98.18"/>
      <path fill="none" d="M233,15.35 L 233 98.18"/>
    </g>
    <g class="plotpanel" id="img-0f813168-9">
      <g stroke-width="0.53" stroke="#000000" stroke-opacity="0.000" class="geometry" fill="#BDE8FF" id="img-0f813168-10">
        <path d="M233,92.29 L 162.96 90.79 92.92 91.87 22.88 90.52 22.88 28.48 92.92 29.05 162.96 28.45 233 28.9 z"/>
      </g>
      <g class="geometry" id="img-0f813168-11">
        <g class="color_RGBA{Float32}(0.0f0,0.74736935f0,1.0f0,1.0f0)" stroke="#FFFFFF" stroke-width="0.3" fill="#00BFFF" id="img-0f813168-12">
          <use xlink:href="#img-0f813168-13" x="22.88" y="59.5"/>
          <use xlink:href="#img-0f813168-13" x="92.92" y="60.46"/>
          <use xlink:href="#img-0f813168-13" x="162.96" y="59.62"/>
          <use xlink:href="#img-0f813168-13" x="233" y="60.59"/>
        </g>
      </g>
      <g stroke-width="0.53" fill="#000000" fill-opacity="0.000" class="geometry" stroke-dasharray="none" stroke="#00BFFF" id="img-0f813168-14">
        <path fill="none" d="M22.88,59.5 L 92.92 60.46 162.96 59.62 233 60.59"/>
      </g>
    </g>
  </g>
</g>
  <g class="guide ylabels" font-size="4.76" font-family="'PT Sans Caption','Helvetica Neue','Helvetica',sans-serif" fill="#FFFFFF" id="img-0f813168-15">
    <text x="19.88" y="96.18" text-anchor="end" dy="0.35em">20</text>
    <text x="19.88" y="80.41" text-anchor="end" dy="0.35em">30</text>
    <text x="19.88" y="64.65" text-anchor="end" dy="0.35em">40</text>
    <text x="19.88" y="48.88" text-anchor="end" dy="0.35em">50</text>
    <text x="19.88" y="33.12" text-anchor="end" dy="0.35em">60</text>
    <text x="19.88" y="17.35" text-anchor="end" dy="0.35em">70</text>
  </g>
  <g font-size="6.35" font-family="'PT Sans','Helvetica Neue','Helvetica',sans-serif" fill="#FFFFFF" stroke="#000000" stroke-opacity="0.000" id="img-0f813168-16">
    <text x="9.47" y="54.77" text-anchor="middle" dy="0.35em" transform="rotate(-90, 9.47, 56.77)">CPI</text>
  </g>
  <g font-size="6.35" font-family="'PT Sans','Helvetica Neue','Helvetica',sans-serif" fill="#FFFFFF" stroke="#000000" stroke-opacity="0.000" id="img-0f813168-17">
    <text x="127.94" y="13.35" text-anchor="middle">Average CPI over Time</text>
  </g>
</g>
<defs>
  <clipPath id="img-0f813168-4">
  <path d="M20.88,15.35 L 235 15.35 235 98.18 20.88 98.18" />
</clipPath>
  <g id="img-0f813168-13">
    <circle cx="0" cy="0" r="0.9"/>
  </g>
</defs>
</svg>
