<?xml version="1.0" encoding="UTF-8"?>
<svg xmlns="http://www.w3.org/2000/svg"
     xmlns:xlink="http://www.w3.org/1999/xlink"
     xmlns:gadfly="http://www.gadflyjl.org/ns"
     version="1.2"
     width="240mm" height="120mm" viewBox="0 0 240 120"
     stroke="none"
     fill="#000000"
     stroke-width="0.3"
     font-size="3.88"
>
<g class="plotroot xscalable yscalable" id="img-5990acde-1">
  <g font-size="6.35" font-family="'PT Sans','Helvetica Neue','Helvetica',sans-serif" fill="#564A55" stroke="#000000" stroke-opacity="0.000" id="img-5990acde-2">
    <text x="120.35" y="105.65" text-anchor="middle" dy="0.6em">Corruption Perceptions Index</text>
  </g>
  <g class="guide xlabels" font-size="4.76" font-family="'PT Sans Caption','Helvetica Neue','Helvetica',sans-serif" fill="#6C606B" id="img-5990acde-3">
    <text x="32.76" y="98.12" text-anchor="middle" dy="0.6em">-50</text>
    <text x="76.55" y="98.12" text-anchor="middle" dy="0.6em">0</text>
    <text x="120.35" y="98.12" text-anchor="middle" dy="0.6em">50</text>
    <text x="164.15" y="98.12" text-anchor="middle" dy="0.6em">100</text>
    <text x="207.95" y="98.12" text-anchor="middle" dy="0.6em">150</text>
  </g>
  <g class="guide colorkey" id="img-5990acde-4">
    <g font-size="4.76" font-family="'PT Sans','Helvetica Neue','Helvetica',sans-serif" fill="#4C404B" id="img-5990acde-5">
      <text x="214.72" y="75.05" dy="0.35em">2012</text>
      <text x="214.72" y="65.02" dy="0.35em">2013</text>
      <text x="214.72" y="54.98" dy="0.35em">2014</text>
      <text x="214.72" y="44.95" dy="0.35em">2015</text>
    </g>
    <g shape-rendering="crispEdges" stroke="#000000" stroke-opacity="0.000" id="img-5990acde-6">
      <rect x="211.95" y="74.3" width="1.76" height="0.75" fill="#004D84"/>
      <rect x="211.95" y="73.55" width="1.76" height="0.75" fill="#005B8D"/>
      <rect x="211.95" y="72.79" width="1.76" height="0.75" fill="#006995"/>
      <rect x="211.95" y="72.04" width="1.76" height="0.75" fill="#00769D"/>
      <rect x="211.95" y="71.29" width="1.76" height="0.75" fill="#0083A3"/>
      <rect x="211.95" y="70.54" width="1.76" height="0.75" fill="#278FA9"/>
      <rect x="211.95" y="69.78" width="1.76" height="0.75" fill="#409BAF"/>
      <rect x="211.95" y="69.03" width="1.76" height="0.75" fill="#55A7B5"/>
      <rect x="211.95" y="68.28" width="1.76" height="0.75" fill="#69B2BA"/>
      <rect x="211.95" y="67.53" width="1.76" height="0.75" fill="#7BBCC0"/>
      <rect x="211.95" y="66.77" width="1.76" height="0.75" fill="#8DC6C5"/>
      <rect x="211.95" y="66.02" width="1.76" height="0.75" fill="#9ED0CB"/>
      <rect x="211.95" y="65.27" width="1.76" height="0.75" fill="#A5CFC7"/>
      <rect x="211.95" y="64.52" width="1.76" height="0.75" fill="#ABCEC4"/>
      <rect x="211.95" y="63.76" width="1.76" height="0.75" fill="#B1CCC2"/>
      <rect x="211.95" y="63.01" width="1.76" height="0.75" fill="#B5CCC1"/>
      <rect x="211.95" y="62.26" width="1.76" height="0.75" fill="#B7CBBF"/>
      <rect x="211.95" y="61.51" width="1.76" height="0.75" fill="#B9CBBD"/>
      <rect x="211.95" y="60.75" width="1.76" height="0.75" fill="#BBCBBB"/>
      <rect x="211.95" y="60" width="1.76" height="0.75" fill="#BDCABA"/>
      <rect x="211.95" y="59.25" width="1.76" height="0.75" fill="#BFCAB8"/>
      <rect x="211.95" y="58.49" width="1.76" height="0.75" fill="#C2C9B7"/>
      <rect x="211.95" y="57.74" width="1.76" height="0.75" fill="#C4C9B6"/>
      <rect x="211.95" y="56.99" width="1.76" height="0.75" fill="#C6C8B5"/>
      <rect x="211.95" y="56.24" width="1.76" height="0.75" fill="#C9C7B4"/>
      <rect x="211.95" y="55.48" width="1.76" height="0.75" fill="#CCC7B2"/>
      <rect x="211.95" y="54.73" width="1.76" height="0.75" fill="#CFC6AE"/>
      <rect x="211.95" y="53.98" width="1.76" height="0.75" fill="#D4C5AA"/>
      <rect x="211.95" y="53.23" width="1.76" height="0.75" fill="#D8C3A6"/>
      <rect x="211.95" y="52.47" width="1.76" height="0.75" fill="#D3B79A"/>
      <rect x="211.95" y="51.72" width="1.76" height="0.75" fill="#CDAB8E"/>
      <rect x="211.95" y="50.97" width="1.76" height="0.75" fill="#C89E82"/>
      <rect x="211.95" y="50.22" width="1.76" height="0.75" fill="#C19177"/>
      <rect x="211.95" y="49.46" width="1.76" height="0.75" fill="#BA836C"/>
      <rect x="211.95" y="48.71" width="1.76" height="0.75" fill="#B27563"/>
      <rect x="211.95" y="47.96" width="1.76" height="0.75" fill="#AA665A"/>
      <rect x="211.95" y="47.21" width="1.76" height="0.75" fill="#A05752"/>
      <rect x="211.95" y="46.45" width="1.76" height="0.75" fill="#96484A"/>
      <rect x="211.95" y="45.7" width="1.76" height="0.75" fill="#8B3844"/>
      <rect x="211.95" y="44.95" width="1.76" height="0.75" fill="#7E273E"/>
      <g stroke="#FFFFFF" stroke-width="0.26" id="img-5990acde-7">
        <path fill="none" d="M211.95,75.05 L 213.72 75.05"/>
        <path fill="none" d="M211.95,65.02 L 213.72 65.02"/>
        <path fill="none" d="M211.95,54.98 L 213.72 54.98"/>
        <path fill="none" d="M211.95,44.95 L 213.72 44.95"/>
      </g>
    </g>
    <g fill="#362A35" font-size="6.35" font-family="'PT Sans','Helvetica Neue','Helvetica',sans-serif" stroke="#000000" stroke-opacity="0.000" id="img-5990acde-8">
      <text x="211.95" y="40.95">variable</text>
    </g>
  </g>
<g clip-path="url(#img-5990acde-9)">
  <g id="img-5990acde-10">
    <g pointer-events="visible" opacity="1" fill="#000000" fill-opacity="0.000" stroke="#000000" stroke-opacity="0.000" class="guide background" id="img-5990acde-11">
      <rect x="30.76" y="5" width="179.2" height="92.12"/>
    </g>
    <g class="guide ygridlines xfixed" stroke-dasharray="0.5,0.5" stroke-width="0.26" stroke="#000000" id="img-5990acde-12">
      <path fill="none" d="M30.76,95.12 L 209.95 95.12"/>
      <path fill="none" d="M30.76,77.5 L 209.95 77.5"/>
      <path fill="none" d="M30.76,59.87 L 209.95 59.87"/>
      <path fill="none" d="M30.76,42.25 L 209.95 42.25"/>
      <path fill="none" d="M30.76,24.62 L 209.95 24.62"/>
      <path fill="none" d="M30.76,7 L 209.95 7"/>
    </g>
    <g class="guide xgridlines yfixed" stroke-dasharray="0.5,0.5" stroke-width="0.26" stroke="#000000" id="img-5990acde-13">
      <path fill="none" d="M32.76,5 L 32.76 97.12"/>
      <path fill="none" d="M76.55,5 L 76.55 97.12"/>
      <path fill="none" d="M120.35,5 L 120.35 97.12"/>
      <path fill="none" d="M164.15,5 L 164.15 97.12"/>
      <path fill="none" d="M207.95,5 L 207.95 97.12"/>
    </g>
    <g class="plotpanel" id="img-5990acde-14">
      <g stroke-width="0.53" fill="#000000" fill-opacity="0.000" stroke-dasharray="none" id="img-5990acde-15">
        <path fill="none" d="M61.5,95.12 L 61.89 95.12 62.28 95.12 62.67 95.12 63.05 95.12 63.44 95.12 63.83 95.12 64.22 95.11 64.61 95.11 64.99 95.11 65.38 95.11 65.77 95.1 66.16 95.1 66.54 95.09 66.93 95.08 67.32 95.07 67.71 95.06 68.1 95.04 68.48 95.03 68.87 95.01 69.26 94.98 69.65 94.96 70.03 94.92 70.42 94.88 70.81 94.84 71.2 94.79 71.59 94.73 71.97 94.67 72.36 94.59 72.75 94.51 73.14 94.41 73.52 94.3 73.91 94.19 74.3 94.06 74.69 93.91 75.08 93.75 75.46 93.58 75.85 93.39 76.24 93.19 76.63 92.97 77.01 92.73 77.4 92.48 77.79 92.2 78.18 91.91 78.57 91.6 78.95 91.27 79.34 90.92 79.73 90.55 80.12 90.16 80.51 89.75 80.89 89.31 81.28 88.85 81.67 88.37 82.06 87.85 82.44 87.31 82.83 86.73 83.22 86.12 83.61 85.47 84 84.79 84.38 84.06 84.77 83.3 85.16 82.48 85.55 81.62 85.93 80.71 86.32 79.74 86.71 78.72 87.1 77.64 87.49 76.5 87.87 75.3 88.26 74.05 88.65 72.73 89.04 71.35 89.42 69.91 89.81 68.41 90.2 66.86 90.59 65.25 90.98 63.59 91.36 61.87 91.75 60.11 92.14 58.31 92.53 56.46 92.91 54.59 93.3 52.68 93.69 50.74 94.08 48.79 94.47 46.81 94.85 44.83 95.24 42.84 95.63 40.86 96.02 38.88 96.4 36.91 96.79 34.95 97.18 33.02 97.57 31.12 97.96 29.25 98.34 27.42 98.73 25.64 99.12 23.91 99.51 22.24 99.89 20.63 100.28 19.09 100.67 17.63 101.06 16.25 101.45 14.96 101.83 13.76 102.22 12.66 102.61 11.66 103 10.77 103.38 10 103.77 9.35 104.16 8.82 104.55 8.42 104.94 8.14 105.32 8 105.71 7.99 106.1 8.11 106.49 8.37 106.87 8.76 107.26 9.27 107.65 9.92 108.04 10.68 108.43 11.57 108.81 12.56 109.2 13.66 109.59 14.85 109.98 16.14 110.37 17.5 110.75 18.93 111.14 20.43 111.53 21.97 111.92 23.56 112.3 25.18 112.69 26.83 113.08 28.48 113.47 30.15 113.86 31.8 114.24 33.45 114.63 35.08 115.02 36.68 115.41 38.25 115.79 39.79 116.18 41.28 116.57 42.73 116.96 44.13 117.35 45.48 117.73 46.77 118.12 48.01 118.51 49.2 118.9 50.33 119.28 51.4 119.67 52.42 120.06 53.37 120.45 54.28 120.84 55.13 121.22 55.92 121.61 56.67 122 57.36 122.39 58.01 122.77 58.61 123.16 59.17 123.55 59.68 123.94 60.16 124.33 60.6 124.71 61 125.1 61.37 125.49 61.71 125.88 62.02 126.26 62.3 126.65 62.57 127.04 62.81 127.43 63.03 127.82 63.23 128.2 63.43 128.59 63.6 128.98 63.77 129.37 63.93 129.75 64.08 130.14 64.23 130.53 64.37 130.92 64.51 131.31 64.64 131.69 64.78 132.08 64.92 132.47 65.06 132.86 65.2 133.24 65.35 133.63 65.5 134.02 65.66 134.41 65.82 134.8 66 135.18 66.18 135.57 66.37 135.96 66.58 136.35 66.79 136.73 67.02 137.12 67.26 137.51 67.51 137.9 67.77 138.29 68.05 138.67 68.34 139.06 68.64 139.45 68.96 139.84 69.28 140.23 69.61 140.61 69.96 141 70.3 141.39 70.66 141.78 71.01 142.16 71.37 142.55 71.72 142.94 72.07 143.33 72.42 143.72 72.76 144.1 73.09 144.49 73.41 144.88 73.72 145.27 74.02 145.65 74.31 146.04 74.59 146.43 74.86 146.82 75.11 147.21 75.36 147.59 75.61 147.98 75.85 148.37 76.09 148.76 76.32 149.14 76.57 149.53 76.81 149.92 77.07 150.31 77.34 150.7 77.62 151.08 77.92 151.47 78.24 151.86 78.58 152.25 78.94 152.63 79.32 153.02 79.73 153.41 80.16 153.8 80.62 154.19 81.1 154.57 81.59 154.96 82.11 155.35 82.65 155.74 83.19 156.12 83.76 156.51 84.33 156.9 84.9 157.29 85.48 157.68 86.06 158.06 86.63 158.45 87.19 158.84 87.75 159.23 88.29 159.61 88.82 160 89.33 160.39 89.81 160.78 90.28 161.17 90.72 161.55 91.14 161.94 91.53 162.33 91.9 162.72 92.24 163.1 92.56 163.49 92.85 163.88 93.12 164.27 93.36 164.66 93.58 165.04 93.78 165.43 93.96 165.82 94.12 166.21 94.26 166.59 94.38 166.98 94.49 167.37 94.59 167.76 94.67 168.15 94.74 168.53 94.8 168.92 94.86 169.31 94.9 169.7 94.94 170.09 94.97 170.47 95 170.86 95.02 171.25 95.04 171.64 95.06 172.02 95.07 172.41 95.08 172.8 95.09 173.19 95.1 173.58 95.1 173.96 95.11 174.35 95.11 174.74 95.11 175.13 95.11 175.51 95.12 175.9 95.12 176.29 95.12 176.68 95.12 177.07 95.12 177.45 95.12" stroke="#004D84" class="geometry color_"/>
        <path fill="none" d="M60.81,95.12 L 61.21 95.12 61.6 95.12 62 95.12 62.39 95.12 62.79 95.12 63.18 95.12 63.58 95.12 63.97 95.11 64.37 95.11 64.77 95.11 65.16 95.11 65.56 95.1 65.95 95.1 66.35 95.09 66.74 95.08 67.14 95.07 67.53 95.06 67.93 95.05 68.32 95.03 68.72 95.01 69.11 94.99 69.51 94.96 69.9 94.93 70.3 94.89 70.7 94.84 71.09 94.79 71.49 94.73 71.88 94.66 72.28 94.59 72.67 94.5 73.07 94.4 73.46 94.28 73.86 94.15 74.25 94 74.65 93.84 75.04 93.66 75.44 93.46 75.84 93.24 76.23 92.99 76.63 92.72 77.02 92.42 77.42 92.1 77.81 91.75 78.21 91.37 78.6 90.95 79 90.51 79.39 90.03 79.79 89.52 80.18 88.97 80.58 88.38 80.97 87.75 81.37 87.09 81.77 86.39 82.16 85.64 82.56 84.86 82.95 84.03 83.35 83.16 83.74 82.25 84.14 81.3 84.53 80.31 84.93 79.28 85.32 78.2 85.72 77.09 86.11 75.93 86.51 74.73 86.9 73.5 87.3 72.22 87.7 70.91 88.09 69.56 88.49 68.18 88.88 66.76 89.28 65.3 89.67 63.82 90.07 62.29 90.46 60.74 90.86 59.16 91.25 57.55 91.65 55.9 92.04 54.24 92.44 52.54 92.83 50.82 93.23 49.08 93.63 47.33 94.02 45.55 94.42 43.76 94.81 41.96 95.21 40.16 95.6 38.35 96 36.55 96.39 34.75 96.79 32.97 97.18 31.21 97.58 29.47 97.97 27.77 98.37 26.1 98.77 24.49 99.16 22.92 99.56 21.42 99.95 19.99 100.35 18.63 100.74 17.35 101.14 16.16 101.53 15.06 101.93 14.07 102.32 13.18 102.72 12.4 103.11 11.74 103.51 11.2 103.9 10.78 104.3 10.49 104.7 10.33 105.09 10.3 105.49 10.4 105.88 10.62 106.28 10.98 106.67 11.46 107.07 12.07 107.46 12.8 107.86 13.64 108.25 14.59 108.65 15.65 109.04 16.8 109.44 18.04 109.83 19.35 110.23 20.74 110.63 22.19 111.02 23.69 111.42 25.23 111.81 26.79 112.21 28.38 112.6 29.97 113 31.55 113.39 33.13 113.79 34.68 114.18 36.2 114.58 37.68 114.97 39.12 115.37 40.5 115.77 41.83 116.16 43.09 116.56 44.29 116.95 45.43 117.35 46.5 117.74 47.5 118.14 48.45 118.53 49.33 118.93 50.15 119.32 50.92 119.72 51.64 120.11 52.31 120.51 52.95 120.9 53.55 121.3 54.12 121.7 54.67 122.09 55.21 122.49 55.74 122.88 56.26 123.28 56.77 123.67 57.29 124.07 57.82 124.46 58.35 124.86 58.89 125.25 59.45 125.65 60.02 126.04 60.6 126.44 61.19 126.83 61.8 127.23 62.41 127.63 63.04 128.02 63.67 128.42 64.3 128.81 64.93 129.21 65.56 129.6 66.18 130 66.8 130.39 67.39 130.79 67.98 131.18 68.54 131.58 69.08 131.97 69.59 132.37 70.07 132.76 70.52 133.16 70.94 133.56 71.32 133.95 71.67 134.35 71.98 134.74 72.25 135.14 72.48 135.53 72.68 135.93 72.84 136.32 72.97 136.72 73.06 137.11 73.12 137.51 73.16 137.9 73.17 138.3 73.16 138.7 73.13 139.09 73.08 139.49 73.03 139.88 72.96 140.28 72.89 140.67 72.82 141.07 72.75 141.46 72.68 141.86 72.63 142.25 72.58 142.65 72.54 143.04 72.52 143.44 72.51 143.83 72.52 144.23 72.55 144.63 72.6 145.02 72.67 145.42 72.76 145.81 72.87 146.21 73.01 146.6 73.16 147 73.34 147.39 73.54 147.79 73.76 148.18 74 148.58 74.27 148.97 74.55 149.37 74.86 149.76 75.19 150.16 75.54 150.56 75.92 150.95 76.31 151.35 76.73 151.74 77.17 152.14 77.63 152.53 78.1 152.93 78.6 153.32 79.12 153.72 79.66 154.11 80.21 154.51 80.77 154.9 81.35 155.3 81.94 155.69 82.54 156.09 83.14 156.49 83.75 156.88 84.36 157.28 84.96 157.67 85.57 158.07 86.16 158.46 86.75 158.86 87.32 159.25 87.88 159.65 88.43 160.04 88.95 160.44 89.46 160.83 89.94 161.23 90.4 161.63 90.83 162.02 91.24 162.42 91.63 162.81 91.98 163.21 92.32 163.6 92.62 164 92.91 164.39 93.17 164.79 93.4 165.18 93.62 165.58 93.81 165.97 93.98 166.37 94.13 166.76 94.27 167.16 94.39 167.56 94.5 167.95 94.59 168.35 94.67 168.74 94.74 169.14 94.8 169.53 94.86 169.93 94.9 170.32 94.94 170.72 94.97 171.11 95 171.51 95.02 171.9 95.04 172.3 95.06 172.69 95.07 173.09 95.08 173.49 95.09 173.88 95.09 174.28 95.1 174.67 95.1 175.07 95.11 175.46 95.11 175.86 95.11 176.25 95.12 176.65 95.12 177.04 95.12 177.44 95.12 177.83 95.12 178.23 95.12 178.63 95.12 179.02 95.12" stroke="#7E273E" class="geometry color_"/>
        <path fill="none" d="M61.25,95.12 L 61.64 95.12 62.03 95.12 62.43 95.12 62.82 95.12 63.21 95.12 63.6 95.12 64 95.11 64.39 95.11 64.78 95.11 65.17 95.1 65.57 95.1 65.96 95.09 66.35 95.09 66.74 95.08 67.14 95.07 67.53 95.06 67.92 95.04 68.31 95.02 68.71 95 69.1 94.97 69.49 94.94 69.88 94.91 70.28 94.87 70.67 94.82 71.06 94.76 71.45 94.7 71.85 94.62 72.24 94.54 72.63 94.45 73.02 94.34 73.41 94.22 73.81 94.08 74.2 93.93 74.59 93.76 74.98 93.58 75.38 93.38 75.77 93.15 76.16 92.91 76.55 92.65 76.95 92.36 77.34 92.05 77.73 91.71 78.12 91.35 78.52 90.97 78.91 90.55 79.3 90.11 79.69 89.64 80.09 89.14 80.48 88.61 80.87 88.05 81.26 87.45 81.66 86.82 82.05 86.15 82.44 85.44 82.83 84.69 83.23 83.9 83.62 83.06 84.01 82.19 84.4 81.26 84.79 80.28 85.19 79.26 85.58 78.18 85.97 77.05 86.36 75.87 86.76 74.63 87.15 73.33 87.54 71.98 87.93 70.58 88.33 69.12 88.72 67.61 89.11 66.05 89.5 64.43 89.9 62.78 90.29 61.08 90.68 59.34 91.07 57.57 91.47 55.77 91.86 53.94 92.25 52.09 92.64 50.23 93.04 48.36 93.43 46.49 93.82 44.62 94.21 42.77 94.61 40.93 95 39.11 95.39 37.33 95.78 35.58 96.17 33.88 96.57 32.22 96.96 30.62 97.35 29.08 97.74 27.6 98.14 26.19 98.53 24.86 98.92 23.6 99.31 22.42 99.71 21.33 100.1 20.32 100.49 19.39 100.88 18.56 101.28 17.81 101.67 17.15 102.06 16.58 102.45 16.1 102.85 15.7 103.24 15.4 103.63 15.18 104.02 15.04 104.42 14.99 104.81 15.02 105.2 15.14 105.59 15.33 105.99 15.6 106.38 15.95 106.77 16.38 107.16 16.88 107.56 17.45 107.95 18.1 108.34 18.81 108.73 19.58 109.12 20.42 109.52 21.32 109.91 22.27 110.3 23.28 110.69 24.34 111.09 25.44 111.48 26.57 111.87 27.75 112.26 28.95 112.66 30.18 113.05 31.43 113.44 32.69 113.83 33.97 114.23 35.24 114.62 36.52 115.01 37.79 115.4 39.06 115.8 40.3 116.19 41.53 116.58 42.74 116.97 43.92 117.37 45.08 117.76 46.2 118.15 47.28 118.54 48.34 118.94 49.35 119.33 50.33 119.72 51.26 120.11 52.16 120.5 53.01 120.9 53.82 121.29 54.59 121.68 55.33 122.07 56.02 122.47 56.67 122.86 57.29 123.25 57.88 123.64 58.43 124.04 58.95 124.43 59.44 124.82 59.91 125.21 60.35 125.61 60.77 126 61.18 126.39 61.56 126.78 61.93 127.18 62.29 127.57 62.63 127.96 62.96 128.35 63.29 128.75 63.6 129.14 63.91 129.53 64.2 129.92 64.49 130.32 64.77 130.71 65.04 131.1 65.3 131.49 65.54 131.88 65.78 132.28 66 132.67 66.21 133.06 66.4 133.45 66.59 133.85 66.75 134.24 66.91 134.63 67.05 135.02 67.17 135.42 67.29 135.81 67.4 136.2 67.5 136.59 67.6 136.99 67.7 137.38 67.79 137.77 67.89 138.16 68 138.56 68.12 138.95 68.24 139.34 68.38 139.73 68.54 140.13 68.72 140.52 68.91 140.91 69.13 141.3 69.36 141.7 69.62 142.09 69.9 142.48 70.2 142.87 70.53 143.26 70.87 143.66 71.22 144.05 71.6 144.44 71.99 144.83 72.39 145.23 72.8 145.62 73.22 146.01 73.65 146.4 74.08 146.8 74.52 147.19 74.95 147.58 75.39 147.97 75.83 148.37 76.27 148.76 76.7 149.15 77.14 149.54 77.57 149.94 78 150.33 78.44 150.72 78.87 151.11 79.3 151.51 79.74 151.9 80.17 152.29 80.62 152.68 81.06 153.08 81.51 153.47 81.97 153.86 82.43 154.25 82.89 154.65 83.36 155.04 83.84 155.43 84.32 155.82 84.8 156.21 85.29 156.61 85.77 157 86.26 157.39 86.74 157.78 87.22 158.18 87.7 158.57 88.17 158.96 88.63 159.35 89.08 159.75 89.52 160.14 89.94 160.53 90.35 160.92 90.74 161.32 91.12 161.71 91.48 162.1 91.81 162.49 92.13 162.89 92.43 163.28 92.71 163.67 92.97 164.06 93.2 164.46 93.42 164.85 93.62 165.24 93.81 165.63 93.97 166.03 94.12 166.42 94.25 166.81 94.37 167.2 94.48 167.59 94.57 167.99 94.65 168.38 94.72 168.77 94.79 169.16 94.84 169.56 94.88 169.95 94.92 170.34 94.96 170.73 94.99 171.13 95.01 171.52 95.03 171.91 95.05 172.3 95.06 172.7 95.07 173.09 95.08 173.48 95.09 173.87 95.1 174.27 95.1 174.66 95.11 175.05 95.11 175.44 95.11 175.84 95.11 176.23 95.12 176.62 95.12 177.01 95.12 177.41 95.12 177.8 95.12 178.19 95.12 178.58 95.12" stroke="#ABCEC4" class="geometry color_"/>
        <path fill="none" d="M61.78,95.12 L 62.17 95.12 62.57 95.12 62.96 95.12 63.35 95.12 63.74 95.12 64.13 95.12 64.53 95.12 64.92 95.11 65.31 95.11 65.7 95.11 66.09 95.1 66.48 95.1 66.88 95.09 67.27 95.09 67.66 95.08 68.05 95.07 68.44 95.06 68.83 95.04 69.23 95.02 69.62 95 70.01 94.97 70.4 94.94 70.79 94.91 71.19 94.87 71.58 94.82 71.97 94.76 72.36 94.7 72.75 94.62 73.14 94.54 73.54 94.44 73.93 94.34 74.32 94.22 74.71 94.08 75.1 93.93 75.5 93.76 75.89 93.57 76.28 93.37 76.67 93.14 77.06 92.9 77.45 92.63 77.85 92.34 78.24 92.02 78.63 91.68 79.02 91.31 79.41 90.91 79.8 90.48 80.2 90.02 80.59 89.53 80.98 89 81.37 88.44 81.76 87.85 82.16 87.21 82.55 86.54 82.94 85.82 83.33 85.06 83.72 84.25 84.11 83.4 84.51 82.49 84.9 81.54 85.29 80.54 85.68 79.48 86.07 78.38 86.46 77.22 86.86 76 87.25 74.73 87.64 73.41 88.03 72.04 88.42 70.62 88.82 69.15 89.21 67.63 89.6 66.07 89.99 64.47 90.38 62.84 90.77 61.17 91.17 59.47 91.56 57.74 91.95 56 92.34 54.24 92.73 52.47 93.13 50.69 93.52 48.9 93.91 47.12 94.3 45.35 94.69 43.59 95.08 41.84 95.48 40.11 95.87 38.41 96.26 36.74 96.65 35.09 97.04 33.49 97.43 31.92 97.83 30.4 98.22 28.92 98.61 27.5 99 26.13 99.39 24.81 99.79 23.56 100.18 22.37 100.57 21.25 100.96 20.2 101.35 19.22 101.74 18.32 102.14 17.49 102.53 16.75 102.92 16.09 103.31 15.51 103.7 15.01 104.1 14.61 104.49 14.29 104.88 14.07 105.27 13.94 105.66 13.9 106.05 13.95 106.45 14.1 106.84 14.34 107.23 14.67 107.62 15.1 108.01 15.61 108.4 16.22 108.8 16.91 109.19 17.68 109.58 18.52 109.97 19.44 110.36 20.43 110.76 21.49 111.15 22.6 111.54 23.76 111.93 24.96 112.32 26.21 112.71 27.48 113.11 28.77 113.5 30.08 113.89 31.4 114.28 32.72 114.67 34.04 115.07 35.35 115.46 36.64 115.85 37.91 116.24 39.15 116.63 40.37 117.02 41.56 117.42 42.71 117.81 43.82 118.2 44.9 118.59 45.94 118.98 46.94 119.37 47.91 119.77 48.84 120.16 49.73 120.55 50.59 120.94 51.42 121.33 52.22 121.73 53 122.12 53.74 122.51 54.47 122.9 55.17 123.29 55.86 123.68 56.53 124.08 57.18 124.47 57.82 124.86 58.45 125.25 59.06 125.64 59.66 126.04 60.26 126.43 60.83 126.82 61.4 127.21 61.96 127.6 62.5 127.99 63.03 128.39 63.54 128.78 64.04 129.17 64.52 129.56 64.98 129.95 65.42 130.34 65.84 130.74 66.23 131.13 66.6 131.52 66.94 131.91 67.26 132.3 67.54 132.7 67.8 133.09 68.03 133.48 68.23 133.87 68.4 134.26 68.55 134.65 68.67 135.05 68.77 135.44 68.84 135.83 68.89 136.22 68.93 136.61 68.95 137 68.96 137.4 68.96 137.79 68.96 138.18 68.95 138.57 68.95 138.96 68.96 139.36 68.97 139.75 68.99 140.14 69.03 140.53 69.09 140.92 69.17 141.31 69.27 141.71 69.38 142.1 69.53 142.49 69.69 142.88 69.88 143.27 70.1 143.67 70.34 144.06 70.6 144.45 70.88 144.84 71.19 145.23 71.51 145.62 71.86 146.02 72.22 146.41 72.6 146.8 72.99 147.19 73.4 147.58 73.82 147.97 74.26 148.37 74.7 148.76 75.16 149.15 75.63 149.54 76.1 149.93 76.58 150.33 77.08 150.72 77.58 151.11 78.08 151.5 78.6 151.89 79.12 152.28 79.65 152.68 80.18 153.07 80.72 153.46 81.26 153.85 81.81 154.24 82.35 154.64 82.9 155.03 83.46 155.42 84.01 155.81 84.56 156.2 85.1 156.59 85.64 156.99 86.18 157.38 86.7 157.77 87.22 158.16 87.73 158.55 88.23 158.94 88.71 159.34 89.17 159.73 89.62 160.12 90.06 160.51 90.47 160.9 90.87 161.3 91.24 161.69 91.6 162.08 91.93 162.47 92.24 162.86 92.53 163.25 92.81 163.65 93.06 164.04 93.29 164.43 93.5 164.82 93.69 165.21 93.87 165.61 94.03 166 94.17 166.39 94.3 166.78 94.41 167.17 94.51 167.56 94.6 167.96 94.68 168.35 94.74 168.74 94.8 169.13 94.85 169.52 94.9 169.91 94.94 170.31 94.97 170.7 94.99 171.09 95.02 171.48 95.04 171.87 95.05 172.27 95.07 172.66 95.08 173.05 95.09 173.44 95.09 173.83 95.1 174.22 95.1 174.62 95.11 175.01 95.11 175.4 95.11 175.79 95.12 176.18 95.12 176.58 95.12 176.97 95.12 177.36 95.12 177.75 95.12 178.14 95.12 178.53 95.12 178.93 95.12" stroke="#CFC6AE" class="geometry color_"/>
      </g>
    </g>
  </g>
</g>
  <g class="guide ylabels" font-size="4.76" font-family="'PT Sans Caption','Helvetica Neue','Helvetica',sans-serif" fill="#6C606B" id="img-5990acde-16">
    <text x="29.76" y="95.12" text-anchor="end" dy="0.35em">0.000</text>
    <text x="29.76" y="77.5" text-anchor="end" dy="0.35em">0.005</text>
    <text x="29.76" y="59.87" text-anchor="end" dy="0.35em">0.010</text>
    <text x="29.76" y="42.25" text-anchor="end" dy="0.35em">0.015</text>
    <text x="29.76" y="24.62" text-anchor="end" dy="0.35em">0.020</text>
    <text x="29.76" y="7" text-anchor="end" dy="0.35em">0.025</text>
  </g>
  <g font-size="6.35" font-family="'PT Sans','Helvetica Neue','Helvetica',sans-serif" fill="#564A55" stroke="#000000" stroke-opacity="0.000" id="img-5990acde-17">
    <text x="10.18" y="49.06" text-anchor="middle" dy="0.35em" transform="rotate(-90, 10.18, 51.06)">Density</text>
  </g>
</g>
<defs>
  <clipPath id="img-5990acde-9">
  <path d="M30.76,5 L 209.95 5 209.95 97.12 30.76 97.12" />
</clipPath>
</defs>
</svg>
