<?xml version="1.0" encoding="UTF-8"?>
<svg xmlns="http://www.w3.org/2000/svg"
     xmlns:xlink="http://www.w3.org/1999/xlink"
     xmlns:gadfly="http://www.gadflyjl.org/ns"
     version="1.2"
     width="240mm" height="120mm" viewBox="0 0 240 120"
     stroke="none"
     fill="#000000"
     stroke-width="0.3"
     font-size="3.88"
>
<g class="plotroot xscalable yscalable" id="img-4ea51b83-1">
  <g font-size="6.35" font-family="'PT Sans','Helvetica Neue','Helvetica',sans-serif" fill="#FFFFFF" stroke="#000000" stroke-opacity="0.000" id="img-4ea51b83-2">
    <text x="121.24" y="105.65" text-anchor="middle" dy="0.6em">Corruption Perceptions Index</text>
  </g>
  <g class="guide xlabels" font-size="4.76" font-family="'PT Sans Caption','Helvetica Neue','Helvetica',sans-serif" fill="#FFFFFF" id="img-4ea51b83-3">
    <text x="30.99" y="97.77" text-anchor="middle" dy="0.6em">-50</text>
    <text x="76.11" y="97.77" text-anchor="middle" dy="0.6em">0</text>
    <text x="121.24" y="97.77" text-anchor="middle" dy="0.6em">50</text>
    <text x="166.36" y="97.77" text-anchor="middle" dy="0.6em">100</text>
    <text x="211.48" y="97.77" text-anchor="middle" dy="0.6em">150</text>
  </g>
  <g class="guide colorkey" id="img-4ea51b83-4">
    <g font-size="4.76" font-family="'PT Sans','Helvetica Neue','Helvetica',sans-serif" fill="#FFFFFF" id="img-4ea51b83-5">
      <text x="218.42" y="54.45" dy="0.35em">2014</text>
      <text x="218.42" y="65.19" dy="0.35em">2013</text>
      <text x="218.42" y="75.93" dy="0.35em">2012</text>
      <text x="218.42" y="43.71" dy="0.35em">2015</text>
    </g>
    <g shape-rendering="crispEdges" stroke="#000000" stroke-opacity="0.000" id="img-4ea51b83-6">
      <rect x="215.48" y="75.13" width="1.94" height="0.81" fill="#004D84"/>
      <rect x="215.48" y="74.32" width="1.94" height="0.81" fill="#005B8D"/>
      <rect x="215.48" y="73.52" width="1.94" height="0.81" fill="#006995"/>
      <rect x="215.48" y="72.71" width="1.94" height="0.81" fill="#00769D"/>
      <rect x="215.48" y="71.91" width="1.94" height="0.81" fill="#0083A3"/>
      <rect x="215.48" y="71.1" width="1.94" height="0.81" fill="#278FA9"/>
      <rect x="215.48" y="70.3" width="1.94" height="0.81" fill="#409BAF"/>
      <rect x="215.48" y="69.49" width="1.94" height="0.81" fill="#55A7B5"/>
      <rect x="215.48" y="68.68" width="1.94" height="0.81" fill="#69B2BA"/>
      <rect x="215.48" y="67.88" width="1.94" height="0.81" fill="#7BBCC0"/>
      <rect x="215.48" y="67.07" width="1.94" height="0.81" fill="#8DC6C5"/>
      <rect x="215.48" y="66.27" width="1.94" height="0.81" fill="#9ED0CB"/>
      <rect x="215.48" y="65.46" width="1.94" height="0.81" fill="#A5CFC7"/>
      <rect x="215.48" y="64.66" width="1.94" height="0.81" fill="#ABCEC4"/>
      <rect x="215.48" y="63.85" width="1.94" height="0.81" fill="#B1CCC2"/>
      <rect x="215.48" y="63.05" width="1.94" height="0.81" fill="#B5CCC1"/>
      <rect x="215.48" y="62.24" width="1.94" height="0.81" fill="#B7CBBF"/>
      <rect x="215.48" y="61.43" width="1.94" height="0.81" fill="#B9CBBD"/>
      <rect x="215.48" y="60.63" width="1.94" height="0.81" fill="#BBCBBB"/>
      <rect x="215.48" y="59.82" width="1.94" height="0.81" fill="#BDCABA"/>
      <rect x="215.48" y="59.02" width="1.94" height="0.81" fill="#BFCAB8"/>
      <rect x="215.48" y="58.21" width="1.94" height="0.81" fill="#C2C9B7"/>
      <rect x="215.48" y="57.41" width="1.94" height="0.81" fill="#C4C9B6"/>
      <rect x="215.48" y="56.6" width="1.94" height="0.81" fill="#C6C8B5"/>
      <rect x="215.48" y="55.8" width="1.94" height="0.81" fill="#C9C7B4"/>
      <rect x="215.48" y="54.99" width="1.94" height="0.81" fill="#CCC7B2"/>
      <rect x="215.48" y="54.18" width="1.94" height="0.81" fill="#CFC6AE"/>
      <rect x="215.48" y="53.38" width="1.94" height="0.81" fill="#D4C5AA"/>
      <rect x="215.48" y="52.57" width="1.94" height="0.81" fill="#D8C3A6"/>
      <rect x="215.48" y="51.77" width="1.94" height="0.81" fill="#D3B79A"/>
      <rect x="215.48" y="50.96" width="1.94" height="0.81" fill="#CDAB8E"/>
      <rect x="215.48" y="50.16" width="1.94" height="0.81" fill="#C89E82"/>
      <rect x="215.48" y="49.35" width="1.94" height="0.81" fill="#C19177"/>
      <rect x="215.48" y="48.55" width="1.94" height="0.81" fill="#BA836C"/>
      <rect x="215.48" y="47.74" width="1.94" height="0.81" fill="#B27563"/>
      <rect x="215.48" y="46.93" width="1.94" height="0.81" fill="#AA665A"/>
      <rect x="215.48" y="46.13" width="1.94" height="0.81" fill="#A05752"/>
      <rect x="215.48" y="45.32" width="1.94" height="0.81" fill="#96484A"/>
      <rect x="215.48" y="44.52" width="1.94" height="0.81" fill="#8B3844"/>
      <rect x="215.48" y="43.71" width="1.94" height="0.81" fill="#7E273E"/>
      <g stroke="#FFFFFF" stroke-width="0.26" id="img-4ea51b83-7">
        <path fill="none" d="M215.48,54.45 L 217.42 54.45"/>
        <path fill="none" d="M215.48,65.19 L 217.42 65.19"/>
        <path fill="none" d="M215.48,75.93 L 217.42 75.93"/>
        <path fill="none" d="M215.48,43.71 L 217.42 43.71"/>
      </g>
    </g>
    <g fill="#FFFFFF" font-size="6.35" font-family="'PT Sans','Helvetica Neue','Helvetica',sans-serif" stroke="#000000" stroke-opacity="0.000" id="img-4ea51b83-8">
      <text x="215.48" y="39.71">variable</text>
    </g>
  </g>
<g clip-path="url(#img-4ea51b83-9)">
  <g id="img-4ea51b83-10">
    <g pointer-events="visible" opacity="1" fill="#000000" fill-opacity="0.000" stroke="#000000" stroke-opacity="0.000" class="guide background" id="img-4ea51b83-11">
      <rect x="28.99" y="5" width="184.49" height="91.77"/>
    </g>
    <g class="guide ygridlines xfixed" stroke-dasharray="0.5,0.5" stroke-width="0.26" stroke="#FFFFFF" id="img-4ea51b83-12">
      <path fill="none" d="M28.99,94.77 L 213.48 94.77"/>
      <path fill="none" d="M28.99,77.22 L 213.48 77.22"/>
      <path fill="none" d="M28.99,59.66 L 213.48 59.66"/>
      <path fill="none" d="M28.99,42.11 L 213.48 42.11"/>
      <path fill="none" d="M28.99,24.55 L 213.48 24.55"/>
      <path fill="none" d="M28.99,7 L 213.48 7"/>
    </g>
    <g class="guide xgridlines yfixed" stroke-dasharray="0.5,0.5" stroke-width="0.26" stroke="#FFFFFF" id="img-4ea51b83-13">
      <path fill="none" d="M30.99,5 L 30.99 96.77"/>
      <path fill="none" d="M76.11,5 L 76.11 96.77"/>
      <path fill="none" d="M121.24,5 L 121.24 96.77"/>
      <path fill="none" d="M166.36,5 L 166.36 96.77"/>
      <path fill="none" d="M211.48,5 L 211.48 96.77"/>
    </g>
    <g class="plotpanel" id="img-4ea51b83-14">
      <g stroke-width="0.53" fill="#000000" fill-opacity="0.000" stroke-dasharray="none" id="img-4ea51b83-15">
        <path fill="none" d="M60.61,94.77 L 61.01 94.77 61.41 94.77 61.81 94.77 62.21 94.77 62.61 94.76 63 94.76 63.4 94.76 63.8 94.76 64.2 94.76 64.6 94.75 65 94.75 65.4 94.74 65.8 94.74 66.2 94.73 66.6 94.72 67 94.71 67.4 94.69 67.8 94.67 68.2 94.65 68.6 94.63 69 94.6 69.4 94.57 69.8 94.53 70.2 94.49 70.6 94.44 70.99 94.38 71.39 94.31 71.79 94.24 72.19 94.16 72.59 94.06 72.99 93.95 73.39 93.84 73.79 93.71 74.19 93.56 74.59 93.41 74.99 93.23 75.39 93.05 75.79 92.84 76.19 92.62 76.59 92.39 76.99 92.13 77.39 91.86 77.79 91.57 78.19 91.26 78.59 90.94 78.98 90.59 79.38 90.22 79.78 89.83 80.18 89.42 80.58 88.98 80.98 88.53 81.38 88.04 81.78 87.53 82.18 86.98 82.58 86.41 82.98 85.8 83.38 85.16 83.78 84.48 84.18 83.76 84.58 82.99 84.98 82.18 85.38 81.32 85.78 80.41 86.18 79.45 86.58 78.43 86.97 77.36 87.37 76.22 87.77 75.03 88.17 73.78 88.57 72.47 88.97 71.09 89.37 69.66 89.77 68.17 90.17 66.62 90.57 65.02 90.97 63.36 91.37 61.65 91.77 59.9 92.17 58.1 92.57 56.27 92.97 54.4 93.37 52.49 93.77 50.57 94.17 48.62 94.57 46.66 94.97 44.68 95.36 42.7 95.76 40.72 96.16 38.75 96.56 36.79 96.96 34.84 97.36 32.92 97.76 31.02 98.16 29.16 98.56 27.34 98.96 25.57 99.36 23.84 99.76 22.18 100.16 20.58 100.56 19.05 100.96 17.59 101.36 16.21 101.76 14.93 102.16 13.73 102.56 12.63 102.96 11.64 103.35 10.76 103.75 9.99 104.15 9.34 104.55 8.81 104.95 8.41 105.35 8.14 105.75 7.99 106.15 7.98 106.55 8.11 106.95 8.36 107.35 8.75 107.75 9.26 108.15 9.91 108.55 10.67 108.95 11.55 109.35 12.54 109.75 13.63 110.15 14.82 110.55 16.1 110.95 17.46 111.34 18.89 111.74 20.37 112.14 21.91 112.54 23.5 112.94 25.11 113.34 26.75 113.74 28.4 114.14 30.05 114.54 31.7 114.94 33.34 115.34 34.97 115.74 36.56 116.14 38.13 116.54 39.66 116.94 41.14 117.34 42.59 117.74 43.98 118.14 45.32 118.54 46.61 118.94 47.85 119.33 49.03 119.73 50.15 120.13 51.22 120.53 52.23 120.93 53.19 121.33 54.09 121.73 54.93 122.13 55.73 122.53 56.47 122.93 57.16 123.33 57.81 123.73 58.41 124.13 58.96 124.53 59.47 124.93 59.95 125.33 60.38 125.73 60.78 126.13 61.15 126.53 61.49 126.93 61.8 127.33 62.08 127.72 62.34 128.12 62.58 128.52 62.8 128.92 63.01 129.32 63.2 129.72 63.38 130.12 63.54 130.52 63.7 130.92 63.85 131.32 64 131.72 64.14 132.12 64.28 132.52 64.41 132.92 64.55 133.32 64.69 133.72 64.82 134.12 64.97 134.52 65.11 134.92 65.26 135.32 65.42 135.71 65.59 136.11 65.76 136.51 65.94 136.91 66.13 137.31 66.34 137.71 66.55 138.11 66.78 138.51 67.01 138.91 67.27 139.31 67.53 139.71 67.81 140.11 68.1 140.51 68.4 140.91 68.71 141.31 69.03 141.71 69.36 142.11 69.7 142.51 70.05 142.91 70.4 143.31 70.75 143.7 71.11 144.1 71.46 144.5 71.81 144.9 72.15 145.3 72.49 145.7 72.82 146.1 73.14 146.5 73.45 146.9 73.75 147.3 74.04 147.7 74.32 148.1 74.58 148.5 74.84 148.9 75.09 149.3 75.33 149.7 75.57 150.1 75.81 150.5 76.05 150.9 76.29 151.3 76.53 151.69 76.79 152.09 77.06 152.49 77.34 152.89 77.64 153.29 77.96 153.69 78.29 154.09 78.65 154.49 79.04 154.89 79.44 155.29 79.87 155.69 80.32 156.09 80.8 156.49 81.3 156.89 81.81 157.29 82.34 157.69 82.89 158.09 83.45 158.49 84.02 158.89 84.59 159.29 85.16 159.68 85.74 160.08 86.31 160.48 86.87 160.88 87.43 161.28 87.97 161.68 88.49 162.08 89 162.48 89.48 162.88 89.95 163.28 90.39 163.68 90.8 164.08 91.2 164.48 91.56 164.88 91.9 165.28 92.22 165.68 92.51 166.08 92.77 166.48 93.01 166.88 93.23 167.28 93.43 167.68 93.61 168.07 93.77 168.47 93.91 168.87 94.03 169.27 94.14 169.67 94.23 170.07 94.32 170.47 94.39 170.87 94.45 171.27 94.5 171.67 94.55 172.07 94.59 172.47 94.62 172.87 94.65 173.27 94.67 173.67 94.69 174.07 94.7 174.47 94.72 174.87 94.73 175.27 94.74 175.67 94.74 176.06 94.75 176.46 94.75 176.86 94.76 177.26 94.76 177.66 94.76 178.06 94.76 178.46 94.76 178.86 94.77 179.26 94.77 179.66 94.77 180.06 94.77" stroke="#004D84" class="geometry color_"/>
        <path fill="none" d="M59.9,94.77 L 60.3 94.77 60.71 94.77 61.12 94.77 61.52 94.77 61.93 94.77 62.34 94.76 62.75 94.76 63.15 94.76 63.56 94.76 63.97 94.76 64.38 94.75 64.78 94.75 65.19 94.74 65.6 94.74 66 94.73 66.41 94.72 66.82 94.71 67.23 94.69 67.63 94.68 68.04 94.66 68.45 94.63 68.86 94.61 69.26 94.57 69.67 94.54 70.08 94.49 70.48 94.44 70.89 94.38 71.3 94.31 71.71 94.24 72.11 94.15 72.52 94.05 72.93 93.93 73.34 93.8 73.74 93.66 74.15 93.49 74.56 93.31 74.97 93.11 75.37 92.89 75.78 92.65 76.19 92.38 76.59 92.08 77 91.76 77.41 91.41 77.82 91.03 78.22 90.62 78.63 90.17 79.04 89.7 79.45 89.19 79.85 88.64 80.26 88.05 80.67 87.43 81.07 86.77 81.48 86.07 81.89 85.33 82.3 84.55 82.7 83.72 83.11 82.86 83.52 81.95 83.93 81.01 84.33 80.02 84.74 78.99 85.15 77.92 85.55 76.81 85.96 75.65 86.37 74.46 86.78 73.23 87.18 71.96 87.59 70.66 88 69.31 88.41 67.93 88.81 66.52 89.22 65.07 89.63 63.59 90.03 62.07 90.44 60.53 90.85 58.95 91.26 57.34 91.66 55.71 92.07 54.05 92.48 52.36 92.89 50.65 93.29 48.92 93.7 47.16 94.11 45.4 94.51 43.61 94.92 41.82 95.33 40.02 95.74 38.23 96.14 36.43 96.55 34.64 96.96 32.87 97.37 31.11 97.77 29.38 98.18 27.69 98.59 26.03 99 24.42 99.4 22.86 99.81 21.36 100.22 19.93 100.62 18.58 101.03 17.31 101.44 16.12 101.85 15.03 102.25 14.04 102.66 13.15 103.07 12.38 103.48 11.72 103.88 11.18 104.29 10.77 104.7 10.48 105.1 10.32 105.51 10.28 105.92 10.38 106.33 10.61 106.73 10.96 107.14 11.44 107.55 12.05 107.96 12.77 108.36 13.61 108.77 14.56 109.18 15.61 109.58 16.76 109.99 17.99 110.4 19.3 110.81 20.69 111.21 22.13 111.62 23.62 112.03 25.15 112.44 26.71 112.84 28.29 113.25 29.87 113.66 31.45 114.06 33.02 114.47 34.57 114.88 36.08 115.29 37.56 115.69 38.99 116.1 40.36 116.51 41.69 116.92 42.95 117.32 44.14 117.73 45.27 118.14 46.34 118.54 47.34 118.95 48.28 119.36 49.16 119.77 49.98 120.17 50.74 120.58 51.46 120.99 52.13 121.4 52.76 121.8 53.36 122.21 53.93 122.62 54.48 123.02 55.02 123.43 55.54 123.84 56.06 124.25 56.57 124.65 57.09 125.06 57.61 125.47 58.14 125.88 58.69 126.28 59.24 126.69 59.81 127.1 60.38 127.51 60.98 127.91 61.58 128.32 62.19 128.73 62.81 129.13 63.44 129.54 64.07 129.95 64.7 130.36 65.33 130.76 65.95 131.17 66.56 131.58 67.15 131.99 67.73 132.39 68.29 132.8 68.83 133.21 69.34 133.61 69.82 134.02 70.27 134.43 70.68 134.84 71.06 135.24 71.41 135.65 71.72 136.06 71.99 136.47 72.22 136.87 72.41 137.28 72.58 137.69 72.7 138.09 72.79 138.5 72.86 138.91 72.89 139.32 72.91 139.72 72.89 140.13 72.86 140.54 72.82 140.95 72.76 141.35 72.7 141.76 72.63 142.17 72.56 142.57 72.49 142.98 72.42 143.39 72.36 143.8 72.31 144.2 72.28 144.61 72.26 145.02 72.25 145.43 72.26 145.83 72.29 146.24 72.34 146.65 72.41 147.05 72.5 147.46 72.61 147.87 72.74 148.28 72.9 148.68 73.07 149.09 73.27 149.5 73.49 149.91 73.73 150.31 74 150.72 74.28 151.13 74.59 151.54 74.92 151.94 75.27 152.35 75.64 152.76 76.03 153.16 76.45 153.57 76.89 153.98 77.34 154.39 77.82 154.79 78.32 155.2 78.83 155.61 79.36 156.02 79.91 156.42 80.48 156.83 81.05 157.24 81.64 157.64 82.23 158.05 82.84 158.46 83.44 158.87 84.05 159.27 84.65 159.68 85.25 160.09 85.85 160.5 86.43 160.9 87 161.31 87.56 161.72 88.1 162.12 88.62 162.53 89.13 162.94 89.61 163.35 90.06 163.75 90.5 164.16 90.9 164.57 91.29 164.98 91.64 165.38 91.98 165.79 92.28 166.2 92.56 166.6 92.82 167.01 93.06 167.42 93.27 167.83 93.46 168.23 93.63 168.64 93.79 169.05 93.92 169.46 94.04 169.86 94.15 170.27 94.24 170.68 94.32 171.08 94.39 171.49 94.45 171.9 94.51 172.31 94.55 172.71 94.59 173.12 94.62 173.53 94.65 173.94 94.67 174.34 94.69 174.75 94.7 175.16 94.72 175.56 94.73 175.97 94.73 176.38 94.74 176.79 94.75 177.19 94.75 177.6 94.76 178.01 94.76 178.42 94.76 178.82 94.76 179.23 94.76 179.64 94.77 180.05 94.77 180.45 94.77 180.86 94.77 181.27 94.77 181.67 94.77" stroke="#7E273E" class="geometry color_"/>
        <path fill="none" d="M60.35,94.77 L 60.75 94.77 61.16 94.77 61.56 94.77 61.96 94.77 62.37 94.76 62.77 94.76 63.18 94.76 63.58 94.76 63.98 94.76 64.39 94.75 64.79 94.75 65.2 94.74 65.6 94.73 66.01 94.73 66.41 94.72 66.81 94.7 67.22 94.69 67.62 94.67 68.03 94.65 68.43 94.62 68.84 94.59 69.24 94.56 69.64 94.51 70.05 94.47 70.45 94.41 70.86 94.35 71.26 94.27 71.67 94.19 72.07 94.1 72.47 93.99 72.88 93.87 73.28 93.73 73.69 93.58 74.09 93.42 74.5 93.23 74.9 93.03 75.3 92.81 75.71 92.57 76.11 92.3 76.52 92.02 76.92 91.71 77.33 91.38 77.73 91.02 78.13 90.63 78.54 90.22 78.94 89.78 79.35 89.31 79.75 88.81 80.16 88.28 80.56 87.72 80.96 87.13 81.37 86.5 81.77 85.83 82.18 85.12 82.58 84.38 82.99 83.59 83.39 82.76 83.79 81.88 84.2 80.96 84.6 79.99 85.01 78.97 85.41 77.9 85.82 76.77 86.22 75.59 86.62 74.36 87.03 73.07 87.43 71.72 87.84 70.32 88.24 68.87 88.65 67.36 89.05 65.81 89.45 64.2 89.86 62.56 90.26 60.86 90.67 59.13 91.07 57.37 91.48 55.57 91.88 53.75 92.28 51.91 92.69 50.06 93.09 48.2 93.5 46.33 93.9 44.47 94.31 42.62 94.71 40.79 95.11 38.99 95.52 37.21 95.92 35.47 96.33 33.77 96.73 32.12 97.14 30.52 97.54 28.99 97.94 27.52 98.35 26.12 98.75 24.79 99.16 23.53 99.56 22.36 99.96 21.27 100.37 20.26 100.77 19.34 101.18 18.51 101.58 17.77 101.99 17.11 102.39 16.54 102.79 16.06 103.2 15.67 103.6 15.36 104.01 15.14 104.41 15.01 104.82 14.96 105.22 14.99 105.62 15.1 106.03 15.3 106.43 15.57 106.84 15.92 107.24 16.34 107.65 16.84 108.05 17.41 108.45 18.05 108.86 18.76 109.26 19.53 109.67 20.37 110.07 21.26 110.48 22.21 110.88 23.22 111.28 24.27 111.69 25.36 112.09 26.5 112.5 27.66 112.9 28.86 113.31 30.09 113.71 31.33 114.11 32.59 114.52 33.86 114.92 35.13 115.33 36.4 115.73 37.67 116.14 38.93 116.54 40.17 116.94 41.39 117.35 42.6 117.75 43.77 118.16 44.92 118.56 46.04 118.97 47.12 119.37 48.17 119.77 49.18 120.18 50.15 120.58 51.08 120.99 51.98 121.39 52.83 121.8 53.63 122.2 54.4 122.6 55.13 123.01 55.82 123.41 56.48 123.82 57.09 124.22 57.67 124.63 58.22 125.03 58.74 125.43 59.23 125.84 59.7 126.24 60.14 126.65 60.56 127.05 60.96 127.46 61.34 127.86 61.71 128.26 62.07 128.67 62.41 129.07 62.74 129.48 63.06 129.88 63.38 130.29 63.68 130.69 63.98 131.09 64.26 131.5 64.54 131.9 64.81 132.31 65.06 132.71 65.31 133.12 65.54 133.52 65.77 133.92 65.97 134.33 66.17 134.73 66.35 135.14 66.51 135.54 66.67 135.95 66.81 136.35 66.93 136.75 67.05 137.16 67.16 137.56 67.26 137.97 67.36 138.37 67.45 138.77 67.55 139.18 67.65 139.58 67.76 139.99 67.87 140.39 68 140.8 68.14 141.2 68.29 141.6 68.47 142.01 68.66 142.41 68.88 142.82 69.11 143.22 69.37 143.63 69.65 144.03 69.95 144.43 70.27 144.84 70.61 145.24 70.97 145.65 71.34 146.05 71.73 146.46 72.13 146.86 72.54 147.26 72.96 147.67 73.38 148.07 73.81 148.48 74.25 148.88 74.68 149.29 75.12 149.69 75.55 150.09 75.99 150.5 76.42 150.9 76.86 151.31 77.29 151.71 77.72 152.12 78.15 152.52 78.58 152.92 79.01 153.33 79.45 153.73 79.88 154.14 80.32 154.54 80.76 154.95 81.21 155.35 81.67 155.75 82.12 156.16 82.59 156.56 83.06 156.97 83.53 157.37 84.01 157.78 84.49 158.18 84.97 158.58 85.46 158.99 85.94 159.39 86.42 159.8 86.9 160.2 87.38 160.61 87.84 161.01 88.3 161.41 88.75 161.82 89.19 162.22 89.61 162.63 90.02 163.03 90.41 163.44 90.78 163.84 91.14 164.24 91.47 164.65 91.79 165.05 92.09 165.46 92.36 165.86 92.62 166.27 92.86 166.67 93.08 167.07 93.28 167.48 93.46 167.88 93.62 168.29 93.77 168.69 93.9 169.1 94.02 169.5 94.13 169.9 94.22 170.31 94.3 170.71 94.37 171.12 94.43 171.52 94.49 171.93 94.53 172.33 94.57 172.73 94.61 173.14 94.63 173.54 94.66 173.95 94.68 174.35 94.7 174.75 94.71 175.16 94.72 175.56 94.73 175.97 94.74 176.37 94.74 176.78 94.75 177.18 94.75 177.58 94.76 177.99 94.76 178.39 94.76 178.8 94.76 179.2 94.76 179.61 94.77 180.01 94.77 180.41 94.77 180.82 94.77 181.22 94.77" stroke="#ABCEC4" class="geometry color_"/>
        <path fill="none" d="M60.9,94.77 L 61.3 94.77 61.7 94.77 62.11 94.77 62.51 94.77 62.91 94.77 63.32 94.76 63.72 94.76 64.12 94.76 64.53 94.76 64.93 94.76 65.34 94.75 65.74 94.75 66.14 94.74 66.55 94.73 66.95 94.73 67.35 94.72 67.76 94.7 68.16 94.69 68.56 94.67 68.97 94.65 69.37 94.62 69.78 94.59 70.18 94.56 70.58 94.51 70.99 94.47 71.39 94.41 71.79 94.35 72.2 94.27 72.6 94.19 73 94.09 73.41 93.99 73.81 93.87 74.21 93.73 74.62 93.58 75.02 93.41 75.43 93.23 75.83 93.02 76.23 92.8 76.64 92.55 77.04 92.29 77.44 91.99 77.85 91.68 78.25 91.34 78.65 90.97 79.06 90.57 79.46 90.15 79.87 89.69 80.27 89.2 80.67 88.68 81.08 88.12 81.48 87.52 81.88 86.89 82.29 86.22 82.69 85.5 83.09 84.74 83.5 83.94 83.9 83.09 84.31 82.19 84.71 81.24 85.11 80.25 85.52 79.19 85.92 78.09 86.32 76.93 86.73 75.72 87.13 74.46 87.53 73.15 87.94 71.78 88.34 70.36 88.74 68.9 89.15 67.39 89.55 65.84 89.96 64.24 90.36 62.61 90.76 60.95 91.17 59.26 91.57 57.54 91.97 55.8 92.38 54.05 92.78 52.28 93.18 50.51 93.59 48.74 93.99 46.96 94.4 45.2 94.8 43.44 95.2 41.7 95.61 39.98 96.01 38.29 96.41 36.62 96.82 34.98 97.22 33.38 97.62 31.82 98.03 30.3 98.43 28.83 98.84 27.42 99.24 26.05 99.64 24.74 100.05 23.5 100.45 22.31 100.85 21.2 101.26 20.15 101.66 19.17 102.06 18.27 102.47 17.45 102.87 16.71 103.28 16.05 103.68 15.47 104.08 14.98 104.49 14.58 104.89 14.26 105.29 14.04 105.7 13.91 106.1 13.87 106.5 13.92 106.91 14.07 107.31 14.31 107.71 14.64 108.12 15.07 108.52 15.58 108.93 16.18 109.33 16.87 109.73 17.63 110.14 18.48 110.54 19.4 110.94 20.38 111.35 21.43 111.75 22.54 112.15 23.69 112.56 24.89 112.96 26.13 113.37 27.4 113.77 28.68 114.17 29.99 114.58 31.3 114.98 32.62 115.38 33.93 115.79 35.23 116.19 36.52 116.59 37.78 117 39.03 117.4 40.24 117.81 41.42 118.21 42.56 118.61 43.67 119.02 44.75 119.42 45.78 119.82 46.78 120.23 47.74 120.63 48.67 121.03 49.56 121.44 50.42 121.84 51.24 122.25 52.04 122.65 52.81 123.05 53.56 123.46 54.28 123.86 54.98 124.26 55.67 124.67 56.33 125.07 56.98 125.47 57.62 125.88 58.24 126.28 58.85 126.68 59.45 127.09 60.04 127.49 60.62 127.9 61.18 128.3 61.74 128.7 62.28 129.11 62.8 129.51 63.32 129.91 63.81 130.32 64.29 130.72 64.75 131.12 65.18 131.53 65.6 131.93 65.99 132.34 66.36 132.74 66.7 133.14 67.01 133.55 67.3 133.95 67.56 134.35 67.79 134.76 67.99 135.16 68.16 135.56 68.3 135.97 68.42 136.37 68.52 136.78 68.59 137.18 68.64 137.58 68.68 137.99 68.7 138.39 68.71 138.79 68.71 139.2 68.71 139.6 68.7 140 68.7 140.41 68.71 140.81 68.72 141.22 68.75 141.62 68.79 142.02 68.84 142.43 68.92 142.83 69.02 143.23 69.13 143.64 69.28 144.04 69.44 144.44 69.63 144.85 69.85 145.25 70.08 145.65 70.34 146.06 70.63 146.46 70.93 146.87 71.25 147.27 71.6 147.67 71.96 148.08 72.34 148.48 72.73 148.88 73.14 149.29 73.56 149.69 73.99 150.09 74.43 150.5 74.89 150.9 75.35 151.31 75.82 151.71 76.31 152.11 76.8 152.52 77.29 152.92 77.8 153.32 78.31 153.73 78.83 154.13 79.36 154.53 79.89 154.94 80.42 155.34 80.96 155.75 81.51 156.15 82.05 156.55 82.6 156.96 83.15 157.36 83.7 157.76 84.24 158.17 84.79 158.57 85.33 158.97 85.86 159.38 86.39 159.78 86.9 160.19 87.41 160.59 87.9 160.99 88.38 161.4 88.84 161.8 89.29 162.2 89.72 162.61 90.14 163.01 90.53 163.41 90.9 163.82 91.26 164.22 91.59 164.62 91.9 165.03 92.19 165.43 92.46 165.84 92.71 166.24 92.94 166.64 93.15 167.05 93.35 167.45 93.52 167.85 93.68 168.26 93.82 168.66 93.95 169.06 94.06 169.47 94.16 169.87 94.25 170.28 94.33 170.68 94.39 171.08 94.45 171.49 94.5 171.89 94.55 172.29 94.58 172.7 94.62 173.1 94.64 173.5 94.67 173.91 94.68 174.31 94.7 174.72 94.71 175.12 94.72 175.52 94.73 175.93 94.74 176.33 94.75 176.73 94.75 177.14 94.76 177.54 94.76 177.94 94.76 178.35 94.76 178.75 94.76 179.16 94.77 179.56 94.77 179.96 94.77 180.37 94.77 180.77 94.77 181.17 94.77 181.58 94.77" stroke="#CFC6AE" class="geometry color_"/>
      </g>
    </g>
  </g>
</g>
  <g class="guide ylabels" font-size="4.76" font-family="'PT Sans Caption','Helvetica Neue','Helvetica',sans-serif" fill="#FFFFFF" id="img-4ea51b83-16">
    <text x="27.99" y="94.77" text-anchor="end" dy="0.35em">0.000</text>
    <text x="27.99" y="77.22" text-anchor="end" dy="0.35em">0.005</text>
    <text x="27.99" y="59.66" text-anchor="end" dy="0.35em">0.010</text>
    <text x="27.99" y="42.11" text-anchor="end" dy="0.35em">0.015</text>
    <text x="27.99" y="24.55" text-anchor="end" dy="0.35em">0.020</text>
    <text x="27.99" y="7" text-anchor="end" dy="0.35em">0.025</text>
  </g>
  <g font-size="6.35" font-family="'PT Sans','Helvetica Neue','Helvetica',sans-serif" fill="#FFFFFF" stroke="#000000" stroke-opacity="0.000" id="img-4ea51b83-17">
    <text x="10.18" y="48.88" text-anchor="middle" dy="0.35em" transform="rotate(-90, 10.18, 50.88)">Density</text>
  </g>
</g>
<defs>
  <clipPath id="img-4ea51b83-9">
  <path d="M28.99,5 L 213.48 5 213.48 96.77 28.99 96.77" />
</clipPath>
</defs>
</svg>
