<svg xmlns="http://www.w3.org/2000/svg" xmlns:xlink="http://www.w3.org/1999/xlink" version="1.2" width="240mm" height="120mm" viewBox="0 0 240 120" stroke-width=".3" font-size="3.88"><path d="M0 0h240v120H0z" stroke="#000" stroke-opacity="0" fill="#222831"/><g class="plotroot xscalable yscalable"><text x="125.64" y="108.39" text-anchor="middle" dy=".6em" font-family="'PT Sans','Helvetica Neue','Helvetica',sans-serif" fill="#A1A1A1" stroke="#000" stroke-opacity="0">Year</text><g class="guide xlabels" font-size="2.82" font-family="'PT Sans Caption','Helvetica Neue','Helvetica',sans-serif" fill="#A1A1A1" text-anchor="middle"><text x="51.32" y="101.72" dy=".6em">2000</text><text x="133.9" y="101.72" dy=".6em">2005</text><text x="216.48" y="101.72" dy=".6em">2010</text></g><g clip-path="url(#a)"><path d="M16.28 10.61H235v90.1H16.28z" pointer-events="visible" fill="#222831" stroke="#000" stroke-opacity="0" class="guide background"/><g class="guide ygridlines xfixed" stroke-dasharray="0.5,0.5" stroke-width=".2" stroke="#575757" fill="none"><path d="M16.28 98.72H235M16.28 77.19H235M16.28 55.66H235M16.28 34.14H235M16.28 12.61H235"/></g><g class="guide xgridlines yfixed" stroke-dasharray="0.5,0.5" stroke-width=".2" stroke="#575757" fill="none"><path d="M51.32 10.61v90.11M133.9 10.61v90.11M216.48 10.61v90.11"/></g><g class="plotpanel"><path d="M233 77.93l-16.52.1-16.51-.13-16.52.2-16.52.13-16.51-.38-16.52.42-16.52-.41-16.51-.02-16.52-2.64-16.52-1.99-16.51.14-16.52 1.22-16.51-2.59V20.26l16.51 3.49 16.52-2.1 16.51.07 16.52 2.4 16.52 4.56 16.51 1.26 16.52 1.44 16.52.13 16.51 1.73 16.52-.49 16.52.01 16.51.37 16.52-.37z" stroke="#000" stroke-opacity="0" class="geometry" fill="#DC6671" fill-opacity=".53"/><g class="geometry color_RGBA{Float32}(0.9960785f0,0.2627451f0,0.39607847f0,1.0f0)" stroke="#B58486" fill="#FE4365"><use xlink:href="#b" x="18.29" y="46.12"/><use xlink:href="#b" x="34.8" y="49.16"/><use xlink:href="#b" x="51.32" y="47.5"/><use xlink:href="#b" x="67.83" y="47.47"/><use xlink:href="#b" x="84.35" y="49.66"/><use xlink:href="#b" x="100.87" y="53.26"/><use xlink:href="#b" x="117.38" y="53.9"/><use xlink:href="#b" x="133.9" y="54.82"/><use xlink:href="#b" x="150.42" y="54.68"/><use xlink:href="#b" x="166.93" y="55.74"/><use xlink:href="#b" x="183.45" y="55.42"/><use xlink:href="#b" x="199.97" y="55.33"/><use xlink:href="#b" x="216.48" y="55.58"/><use xlink:href="#b" x="233" y="55.35"/></g><path fill="none" d="M18.29 46.12l16.51 3.04 16.52-1.66 16.51-.03 16.52 2.19 16.52 3.6 16.51.64 16.52.92 16.52-.14 16.51 1.06 16.52-.32 16.52-.09 16.51.25 16.52-.23" fill-opacity="0" class="geometry" stroke="#FE4365"/></g></g><g class="guide ylabels" font-size="2.82" font-family="'PT Sans Caption','Helvetica Neue','Helvetica',sans-serif" fill="#A1A1A1" text-anchor="end"><text x="15.28" y="98.72" dy=".35em">0</text><text x="15.28" y="77.19" dy=".35em">2</text><text x="15.28" y="55.66" dy=".35em">4</text><text x="15.28" y="34.14" dy=".35em">6</text><text x="15.28" y="12.61" dy=".35em">8</text></g><text x="8.81" y="53.66" text-anchor="middle" dy=".35em" transform="rotate(-90 8.81 55.66)" font-family="'PT Sans','Helvetica Neue','Helvetica',sans-serif" fill="#A1A1A1" stroke="#000" stroke-opacity="0">CPI</text><text x="125.64" y="5" text-anchor="middle" dy=".6em" font-family="'PT Sans','Helvetica Neue','Helvetica',sans-serif" fill="#A1A1A1" stroke="#000" stroke-opacity="0">Average CPI over Time</text></g><defs><clipPath id="a"><path d="M16.28 10.61H235v90.11H16.28"/></clipPath><circle r=".9" id="b"/></defs></svg>