<?xml version="1.0" encoding="UTF-8"?>
<svg xmlns="http://www.w3.org/2000/svg"
     xmlns:xlink="http://www.w3.org/1999/xlink"
     xmlns:gadfly="http://www.gadflyjl.org/ns"
     version="1.2"
     width="240mm" height="120mm" viewBox="0 0 240 120"
     stroke="none"
     fill="#000000"
     stroke-width="0.3"
     font-size="3.88"
>
<g stroke="#000000" stroke-opacity="0.000" fill="#222831" id="img-8a539d01-1">
  <rect x="0" y="0" width="240" height="120"/>
</g>
<g class="plotroot xscalable yscalable" id="img-8a539d01-2">
  <g font-size="3.88" font-family="'PT Sans','Helvetica Neue','Helvetica',sans-serif" fill="#A1A1A1" stroke="#000000" stroke-opacity="0.000" id="img-8a539d01-3">
    <text x="121.85" y="108.39" text-anchor="middle" dy="0.6em">Corruption Perceptions Index</text>
  </g>
  <g class="guide xlabels" font-size="2.82" font-family="'PT Sans Caption','Helvetica Neue','Helvetica',sans-serif" fill="#A1A1A1" id="img-8a539d01-4">
    <text x="23.98" y="101.72" text-anchor="middle" dy="0.6em">-50</text>
    <text x="72.91" y="101.72" text-anchor="middle" dy="0.6em">0</text>
    <text x="121.85" y="101.72" text-anchor="middle" dy="0.6em">50</text>
    <text x="170.78" y="101.72" text-anchor="middle" dy="0.6em">100</text>
    <text x="219.72" y="101.72" text-anchor="middle" dy="0.6em">150</text>
  </g>
  <g class="guide colorkey" id="img-8a539d01-5">
    <g font-size="2.82" font-family="'PT Sans','Helvetica Neue','Helvetica',sans-serif" fill="#A1A1A1" id="img-8a539d01-6">
      <text x="226.03" y="72.16" dy="0.35em">2012</text>
      <text x="226.03" y="64.36" dy="0.35em">2013</text>
      <text x="226.03" y="48.78" dy="0.35em">2015</text>
      <text x="226.03" y="56.57" dy="0.35em">2014</text>
    </g>
    <g shape-rendering="crispEdges" stroke="#000000" stroke-opacity="0.000" id="img-8a539d01-7">
      <rect x="223.72" y="71.57" width="1.31" height="0.58" fill="#005D7F"/>
      <rect x="223.72" y="70.99" width="1.31" height="0.58" fill="#27607E"/>
      <rect x="223.72" y="70.4" width="1.31" height="0.58" fill="#3A647C"/>
      <rect x="223.72" y="69.82" width="1.31" height="0.58" fill="#49677B"/>
      <rect x="223.72" y="69.23" width="1.31" height="0.58" fill="#566B7A"/>
      <rect x="223.72" y="68.65" width="1.31" height="0.58" fill="#626E78"/>
      <rect x="223.72" y="68.06" width="1.31" height="0.58" fill="#6D7277"/>
      <rect x="223.72" y="67.48" width="1.31" height="0.58" fill="#787575"/>
      <rect x="223.72" y="66.9" width="1.31" height="0.58" fill="#827973"/>
      <rect x="223.72" y="66.31" width="1.31" height="0.58" fill="#8B7C72"/>
      <rect x="223.72" y="65.73" width="1.31" height="0.58" fill="#958070"/>
      <rect x="223.72" y="65.14" width="1.31" height="0.58" fill="#9F836E"/>
      <rect x="223.72" y="64.56" width="1.31" height="0.58" fill="#A8876D"/>
      <rect x="223.72" y="63.97" width="1.31" height="0.58" fill="#B18B6B"/>
      <rect x="223.72" y="63.39" width="1.31" height="0.58" fill="#BA8E69"/>
      <rect x="223.72" y="62.81" width="1.31" height="0.58" fill="#C39267"/>
      <rect x="223.72" y="62.22" width="1.31" height="0.58" fill="#CC9564"/>
      <rect x="223.72" y="61.64" width="1.31" height="0.58" fill="#D69962"/>
      <rect x="223.72" y="61.05" width="1.31" height="0.58" fill="#DF9D60"/>
      <rect x="223.72" y="60.47" width="1.31" height="0.58" fill="#E8A05D"/>
      <rect x="223.72" y="59.88" width="1.31" height="0.58" fill="#EDA05C"/>
      <rect x="223.72" y="59.3" width="1.31" height="0.58" fill="#EE9C5D"/>
      <rect x="223.72" y="58.72" width="1.31" height="0.58" fill="#EF985E"/>
      <rect x="223.72" y="58.13" width="1.31" height="0.58" fill="#F0945E"/>
      <rect x="223.72" y="57.55" width="1.31" height="0.58" fill="#F1905F"/>
      <rect x="223.72" y="56.96" width="1.31" height="0.58" fill="#F28C5F"/>
      <rect x="223.72" y="56.38" width="1.31" height="0.58" fill="#F38860"/>
      <rect x="223.72" y="55.79" width="1.31" height="0.58" fill="#F48460"/>
      <rect x="223.72" y="55.21" width="1.31" height="0.58" fill="#F57F61"/>
      <rect x="223.72" y="54.63" width="1.31" height="0.58" fill="#F67B61"/>
      <rect x="223.72" y="54.04" width="1.31" height="0.58" fill="#F77662"/>
      <rect x="223.72" y="53.46" width="1.31" height="0.58" fill="#F87262"/>
      <rect x="223.72" y="52.87" width="1.31" height="0.58" fill="#F96D62"/>
      <rect x="223.72" y="52.29" width="1.31" height="0.58" fill="#FA6863"/>
      <rect x="223.72" y="51.7" width="1.31" height="0.58" fill="#FB6263"/>
      <rect x="223.72" y="51.12" width="1.31" height="0.58" fill="#FB5D64"/>
      <rect x="223.72" y="50.54" width="1.31" height="0.58" fill="#FC5764"/>
      <rect x="223.72" y="49.95" width="1.31" height="0.58" fill="#FD5164"/>
      <rect x="223.72" y="49.37" width="1.31" height="0.58" fill="#FD4A65"/>
      <rect x="223.72" y="48.78" width="1.31" height="0.58" fill="#FE4365"/>
      <g stroke="#FFFFFF" stroke-width="0.2" id="img-8a539d01-8">
        <path fill="none" d="M223.72,72.16 L 225.03 72.16"/>
        <path fill="none" d="M223.72,64.36 L 225.03 64.36"/>
        <path fill="none" d="M223.72,48.78 L 225.03 48.78"/>
        <path fill="none" d="M223.72,56.57 L 225.03 56.57"/>
      </g>
    </g>
    <g fill="#A1A1A1" font-size="3.88" font-family="'PT Sans','Helvetica Neue','Helvetica',sans-serif" stroke="#000000" stroke-opacity="0.000" id="img-8a539d01-9">
      <text x="223.72" y="44.78">variable</text>
    </g>
  </g>
<g clip-path="url(#img-8a539d01-10)">
  <g id="img-8a539d01-11">
    <g pointer-events="visible" opacity="1" fill="#222831" stroke="#000000" stroke-opacity="0.000" class="guide background" id="img-8a539d01-12">
      <rect x="21.98" y="5" width="199.74" height="95.72"/>
    </g>
    <g class="guide ygridlines xfixed" stroke-dasharray="0.5,0.5" stroke-width="0.2" stroke="#575757" id="img-8a539d01-13">
      <path fill="none" d="M21.98,98.71 L 221.72 98.71"/>
      <path fill="none" d="M21.98,80.37 L 221.72 80.37"/>
      <path fill="none" d="M21.98,62.03 L 221.72 62.03"/>
      <path fill="none" d="M21.98,43.69 L 221.72 43.69"/>
      <path fill="none" d="M21.98,25.34 L 221.72 25.34"/>
      <path fill="none" d="M21.98,7 L 221.72 7"/>
    </g>
    <g class="guide xgridlines yfixed" stroke-dasharray="0.5,0.5" stroke-width="0.2" stroke="#575757" id="img-8a539d01-14">
      <path fill="none" d="M23.98,5 L 23.98 100.72"/>
      <path fill="none" d="M72.91,5 L 72.91 100.72"/>
      <path fill="none" d="M121.85,5 L 121.85 100.72"/>
      <path fill="none" d="M170.78,5 L 170.78 100.72"/>
      <path fill="none" d="M219.72,5 L 219.72 100.72"/>
    </g>
    <g class="plotpanel" id="img-8a539d01-15">
      <g stroke-width="0.3" fill="#000000" fill-opacity="0.000" stroke-dasharray="none" id="img-8a539d01-16">
        <path fill="none" d="M56.1,98.71 L 56.53 98.71 56.96 98.71 57.4 98.71 57.83 98.71 58.26 98.71 58.7 98.71 59.13 98.71 59.56 98.7 60 98.7 60.43 98.7 60.86 98.69 61.3 98.69 61.73 98.68 62.16 98.67 62.6 98.66 63.03 98.65 63.46 98.63 63.9 98.62 64.33 98.6 64.76 98.57 65.2 98.54 65.63 98.51 66.06 98.47 66.49 98.42 66.93 98.37 67.36 98.31 67.79 98.24 68.23 98.16 68.66 98.07 69.09 97.97 69.53 97.86 69.96 97.74 70.39 97.6 70.83 97.45 71.26 97.29 71.69 97.11 72.13 96.91 72.56 96.7 72.99 96.47 73.43 96.23 73.86 95.96 74.29 95.68 74.73 95.37 75.16 95.05 75.59 94.71 76.03 94.35 76.46 93.96 76.89 93.55 77.33 93.12 77.76 92.67 78.19 92.19 78.63 91.68 79.06 91.15 79.49 90.58 79.93 89.98 80.36 89.35 80.79 88.67 81.23 87.96 81.66 87.21 82.09 86.41 82.53 85.56 82.96 84.66 83.39 83.71 83.83 82.7 84.26 81.64 84.69 80.52 85.13 79.33 85.56 78.09 85.99 76.78 86.42 75.41 86.86 73.97 87.29 72.48 87.72 70.92 88.16 69.3 88.59 67.62 89.02 65.89 89.46 64.11 89.89 62.28 90.32 60.4 90.76 58.48 91.19 56.53 91.62 54.54 92.06 52.53 92.49 50.49 92.92 48.44 93.36 46.37 93.79 44.31 94.22 42.24 94.66 40.18 95.09 38.12 95.52 36.09 95.96 34.08 96.39 32.1 96.82 30.16 97.26 28.26 97.69 26.4 98.12 24.6 98.56 22.86 98.99 21.19 99.42 19.59 99.86 18.07 100.29 16.63 100.72 15.28 101.16 14.03 101.59 12.89 102.02 11.85 102.46 10.93 102.89 10.12 103.32 9.44 103.76 8.89 104.19 8.47 104.62 8.19 105.06 8.04 105.49 8.03 105.92 8.16 106.35 8.42 106.79 8.83 107.22 9.37 107.65 10.04 108.09 10.83 108.52 11.75 108.95 12.79 109.39 13.93 109.82 15.17 110.25 16.51 110.69 17.93 111.12 19.42 111.55 20.98 111.99 22.59 112.42 24.24 112.85 25.93 113.29 27.64 113.72 29.36 114.15 31.09 114.59 32.82 115.02 34.53 115.45 36.22 115.89 37.89 116.32 39.53 116.75 41.12 117.19 42.68 117.62 44.19 118.05 45.64 118.49 47.05 118.92 48.4 119.35 49.69 119.79 50.92 120.22 52.09 120.65 53.21 121.09 54.27 121.52 55.26 121.95 56.21 122.39 57.09 122.82 57.92 123.25 58.69 123.69 59.42 124.12 60.09 124.55 60.72 124.99 61.3 125.42 61.83 125.85 62.33 126.28 62.78 126.72 63.2 127.15 63.58 127.58 63.94 128.02 64.26 128.45 64.56 128.88 64.83 129.32 65.08 129.75 65.31 130.18 65.53 130.62 65.73 131.05 65.91 131.48 66.09 131.92 66.25 132.35 66.41 132.78 66.56 133.22 66.71 133.65 66.85 134.08 66.99 134.52 67.14 134.95 67.28 135.38 67.42 135.82 67.57 136.25 67.73 136.68 67.88 137.12 68.05 137.55 68.22 137.98 68.4 138.42 68.59 138.85 68.79 139.28 69 139.72 69.23 140.15 69.46 140.58 69.71 141.02 69.97 141.45 70.25 141.88 70.54 142.32 70.84 142.75 71.16 143.18 71.48 143.62 71.82 144.05 72.17 144.48 72.52 144.92 72.88 145.35 73.25 145.78 73.62 146.21 73.99 146.65 74.36 147.08 74.72 147.51 75.08 147.95 75.44 148.38 75.78 148.81 76.12 149.25 76.44 149.68 76.75 150.11 77.05 150.55 77.34 150.98 77.62 151.41 77.89 151.85 78.15 152.28 78.41 152.71 78.66 153.15 78.9 153.58 79.15 154.01 79.4 154.45 79.66 154.88 79.93 155.31 80.21 155.75 80.5 156.18 80.81 156.61 81.14 157.05 81.5 157.48 81.87 157.91 82.27 158.35 82.7 158.78 83.15 159.21 83.62 159.65 84.12 160.08 84.63 160.51 85.17 160.95 85.73 161.38 86.3 161.81 86.88 162.25 87.48 162.68 88.08 163.11 88.68 163.55 89.28 163.98 89.87 164.41 90.46 164.85 91.04 165.28 91.61 165.71 92.15 166.14 92.68 166.58 93.19 167.01 93.68 167.44 94.14 167.88 94.57 168.31 94.98 168.74 95.36 169.18 95.72 169.61 96.05 170.04 96.35 170.48 96.63 170.91 96.88 171.34 97.11 171.78 97.32 172.21 97.5 172.64 97.67 173.08 97.81 173.51 97.94 173.94 98.06 174.38 98.16 174.81 98.24 175.24 98.32 175.68 98.38 176.11 98.44 176.54 98.48 176.98 98.52 177.41 98.56 177.84 98.59 178.28 98.61 178.71 98.63 179.14 98.65 179.58 98.66 180.01 98.67 180.44 98.68 180.88 98.69 181.31 98.69 181.74 98.7 182.18 98.7 182.61 98.7 183.04 98.71 183.48 98.71 183.91 98.71 184.34 98.71 184.78 98.71 185.21 98.71 185.64 98.71" stroke="#005D7F" class="geometry color_"/>
        <path fill="none" d="M55.81,98.71 L 56.25 98.71 56.69 98.71 57.13 98.71 57.57 98.71 58.01 98.71 58.44 98.71 58.88 98.71 59.32 98.7 59.76 98.7 60.2 98.7 60.64 98.69 61.07 98.69 61.51 98.68 61.95 98.67 62.39 98.66 62.83 98.65 63.27 98.63 63.71 98.61 64.14 98.59 64.58 98.56 65.02 98.53 65.46 98.49 65.9 98.45 66.34 98.4 66.77 98.34 67.21 98.27 67.65 98.2 68.09 98.11 68.53 98.01 68.97 97.9 69.4 97.77 69.84 97.63 70.28 97.48 70.72 97.3 71.16 97.11 71.6 96.9 72.04 96.67 72.47 96.41 72.91 96.14 73.35 95.84 73.79 95.52 74.23 95.17 74.67 94.79 75.1 94.39 75.54 93.96 75.98 93.5 76.42 93.01 76.86 92.49 77.3 91.94 77.73 91.35 78.17 90.73 78.61 90.07 79.05 89.37 79.49 88.64 79.93 87.86 80.37 87.03 80.8 86.17 81.24 85.25 81.68 84.29 82.12 83.27 82.56 82.2 83 81.08 83.43 79.91 83.87 78.67 84.31 77.38 84.75 76.04 85.19 74.63 85.63 73.17 86.07 71.65 86.5 70.08 86.94 68.45 87.38 66.78 87.82 65.05 88.26 63.28 88.7 61.48 89.13 59.63 89.57 57.76 90.01 55.85 90.45 53.93 90.89 51.99 91.33 50.05 91.76 48.1 92.2 46.16 92.64 44.23 93.08 42.31 93.52 40.42 93.96 38.57 94.4 36.75 94.83 34.97 95.27 33.25 95.71 31.58 96.15 29.98 96.59 28.44 97.03 26.97 97.46 25.59 97.9 24.28 98.34 23.05 98.78 21.91 99.22 20.86 99.66 19.9 100.09 19.03 100.53 18.25 100.97 17.56 101.41 16.97 101.85 16.47 102.29 16.06 102.73 15.74 103.16 15.51 103.6 15.37 104.04 15.32 104.48 15.35 104.92 15.47 105.36 15.67 105.79 15.96 106.23 16.32 106.67 16.76 107.11 17.28 107.55 17.88 107.99 18.55 108.42 19.29 108.86 20.1 109.3 20.97 109.74 21.9 110.18 22.9 110.62 23.94 111.06 25.04 111.49 26.19 111.93 27.37 112.37 28.59 112.81 29.85 113.25 31.13 113.69 32.43 114.12 33.74 114.56 35.07 115 36.4 115.44 37.72 115.88 39.05 116.32 40.36 116.76 41.66 117.19 42.94 117.63 44.2 118.07 45.43 118.51 46.63 118.95 47.8 119.39 48.93 119.82 50.02 120.26 51.08 120.7 52.09 121.14 53.07 121.58 54 122.02 54.89 122.45 55.73 122.89 56.53 123.33 57.3 123.77 58.02 124.21 58.7 124.65 59.34 125.09 59.95 125.52 60.53 125.96 61.07 126.4 61.58 126.84 62.07 127.28 62.53 127.72 62.97 128.15 63.39 128.59 63.79 129.03 64.17 129.47 64.54 129.91 64.9 130.35 65.25 130.78 65.58 131.22 65.91 131.66 66.23 132.1 66.54 132.54 66.84 132.98 67.13 133.42 67.41 133.85 67.67 134.29 67.93 134.73 68.18 135.17 68.41 135.61 68.62 136.05 68.83 136.48 69.02 136.92 69.19 137.36 69.35 137.8 69.49 138.24 69.63 138.68 69.75 139.11 69.86 139.55 69.97 139.99 70.07 140.43 70.17 140.87 70.27 141.31 70.38 141.75 70.49 142.18 70.61 142.62 70.74 143.06 70.89 143.5 71.05 143.94 71.23 144.38 71.44 144.81 71.66 145.25 71.91 145.69 72.17 146.13 72.47 146.57 72.78 147.01 73.12 147.45 73.47 147.88 73.84 148.32 74.23 148.76 74.64 149.2 75.06 149.64 75.48 150.08 75.92 150.51 76.37 150.95 76.82 151.39 77.27 151.83 77.72 152.27 78.18 152.71 78.64 153.14 79.09 153.58 79.54 154.02 80 154.46 80.45 154.9 80.9 155.34 81.35 155.78 81.8 156.21 82.25 156.65 82.7 157.09 83.16 157.53 83.62 157.97 84.08 158.41 84.55 158.84 85.02 159.28 85.5 159.72 85.99 160.16 86.48 160.6 86.97 161.04 87.47 161.47 87.97 161.91 88.48 162.35 88.98 162.79 89.49 163.23 89.99 163.67 90.49 164.11 90.99 164.54 91.48 164.98 91.96 165.42 92.43 165.86 92.88 166.3 93.32 166.74 93.75 167.17 94.16 167.61 94.55 168.05 94.92 168.49 95.27 168.93 95.6 169.37 95.91 169.8 96.2 170.24 96.47 170.68 96.72 171.12 96.95 171.56 97.16 172 97.35 172.44 97.52 172.87 97.67 173.31 97.81 173.75 97.93 174.19 98.04 174.63 98.14 175.07 98.23 175.5 98.3 175.94 98.36 176.38 98.42 176.82 98.47 177.26 98.51 177.7 98.54 178.14 98.57 178.57 98.6 179.01 98.62 179.45 98.64 179.89 98.65 180.33 98.66 180.77 98.67 181.2 98.68 181.64 98.69 182.08 98.69 182.52 98.7 182.96 98.7 183.4 98.71 183.83 98.71 184.27 98.71 184.71 98.71 185.15 98.71 185.59 98.71 186.03 98.71 186.47 98.71 186.9 98.71" stroke="#B18B6B" class="geometry color_"/>
        <path fill="none" d="M56.41,98.71 L 56.85 98.71 57.28 98.71 57.72 98.71 58.16 98.71 58.6 98.71 59.04 98.71 59.47 98.71 59.91 98.71 60.35 98.7 60.79 98.7 61.22 98.7 61.66 98.69 62.1 98.69 62.54 98.68 62.97 98.67 63.41 98.66 63.85 98.65 64.29 98.63 64.73 98.61 65.16 98.59 65.6 98.56 66.04 98.53 66.48 98.49 66.91 98.45 67.35 98.4 67.79 98.34 68.23 98.27 68.66 98.2 69.1 98.11 69.54 98.01 69.98 97.9 70.42 97.77 70.85 97.63 71.29 97.47 71.73 97.3 72.17 97.1 72.6 96.89 73.04 96.66 73.48 96.4 73.92 96.12 74.36 95.82 74.79 95.49 75.23 95.13 75.67 94.74 76.11 94.33 76.54 93.88 76.98 93.41 77.42 92.89 77.86 92.35 78.29 91.76 78.73 91.14 79.17 90.48 79.61 89.78 80.05 89.03 80.48 88.24 80.92 87.4 81.36 86.51 81.8 85.57 82.23 84.58 82.67 83.54 83.11 82.44 83.55 81.29 83.99 80.08 84.42 78.81 84.86 77.49 85.3 76.12 85.74 74.69 86.17 73.21 86.61 71.68 87.05 70.1 87.49 68.48 87.92 66.82 88.36 65.11 88.8 63.38 89.24 61.61 89.68 59.81 90.11 58 90.55 56.16 90.99 54.32 91.43 52.47 91.86 50.61 92.3 48.76 92.74 46.91 93.18 45.08 93.61 43.26 94.05 41.46 94.49 39.69 94.93 37.95 95.37 36.24 95.8 34.57 96.24 32.94 96.68 31.35 97.12 29.82 97.55 28.33 97.99 26.91 98.43 25.54 98.87 24.24 99.31 23 99.74 21.83 100.18 20.74 100.62 19.72 101.06 18.78 101.49 17.92 101.93 17.15 102.37 16.46 102.81 15.85 103.24 15.34 103.68 14.92 104.12 14.59 104.56 14.36 105 14.22 105.43 14.18 105.87 14.24 106.31 14.39 106.75 14.64 107.18 14.99 107.62 15.43 108.06 15.97 108.5 16.59 108.94 17.31 109.37 18.11 109.81 18.99 110.25 19.95 110.69 20.98 111.12 22.08 111.56 23.23 112 24.44 112.44 25.7 112.87 26.99 113.31 28.31 113.75 29.66 114.19 31.02 114.63 32.4 115.06 33.77 115.5 35.14 115.94 36.5 116.38 37.85 116.81 39.17 117.25 40.46 117.69 41.73 118.13 42.96 118.57 44.16 119 45.32 119.44 46.44 119.88 47.53 120.32 48.57 120.75 49.57 121.19 50.54 121.63 51.47 122.07 52.37 122.5 53.23 122.94 54.07 123.38 54.87 123.82 55.65 124.26 56.41 124.69 57.14 125.13 57.85 125.57 58.55 126.01 59.23 126.44 59.89 126.88 60.55 127.32 61.18 127.76 61.81 128.19 62.43 128.63 63.03 129.07 63.62 129.51 64.2 129.95 64.76 130.38 65.31 130.82 65.85 131.26 66.36 131.7 66.86 132.13 67.34 132.57 67.8 133.01 68.23 133.45 68.64 133.89 69.03 134.32 69.38 134.76 69.71 135.2 70.01 135.64 70.28 136.07 70.52 136.51 70.73 136.95 70.91 137.39 71.06 137.82 71.18 138.26 71.28 138.7 71.36 139.14 71.41 139.58 71.45 140.01 71.47 140.45 71.48 140.89 71.48 141.33 71.48 141.76 71.48 142.2 71.48 142.64 71.48 143.08 71.5 143.52 71.52 143.95 71.56 144.39 71.62 144.83 71.7 145.27 71.8 145.7 71.93 146.14 72.08 146.58 72.25 147.02 72.45 147.45 72.67 147.89 72.92 148.33 73.19 148.77 73.49 149.21 73.8 149.64 74.14 150.08 74.5 150.52 74.88 150.96 75.27 151.39 75.68 151.83 76.11 152.27 76.55 152.71 77 153.14 77.46 153.58 77.94 154.02 78.42 154.46 78.92 154.9 79.42 155.33 79.93 155.77 80.45 156.21 80.98 156.65 81.52 157.08 82.06 157.52 82.61 157.96 83.16 158.4 83.72 158.84 84.29 159.27 84.85 159.71 85.43 160.15 86 160.59 86.57 161.02 87.15 161.46 87.72 161.9 88.29 162.34 88.85 162.77 89.41 163.21 89.95 163.65 90.49 164.09 91.02 164.53 91.54 164.96 92.04 165.4 92.52 165.84 92.99 166.28 93.44 166.71 93.87 167.15 94.29 167.59 94.68 168.03 95.04 168.47 95.39 168.9 95.72 169.34 96.02 169.78 96.3 170.22 96.57 170.65 96.81 171.09 97.03 171.53 97.23 171.97 97.41 172.4 97.57 172.84 97.72 173.28 97.86 173.72 97.97 174.16 98.08 174.59 98.17 175.03 98.25 175.47 98.32 175.91 98.38 176.34 98.44 176.78 98.48 177.22 98.52 177.66 98.55 178.09 98.58 178.53 98.61 178.97 98.63 179.41 98.64 179.85 98.66 180.28 98.67 180.72 98.68 181.16 98.68 181.6 98.69 182.03 98.7 182.47 98.7 182.91 98.7 183.35 98.71 183.79 98.71 184.22 98.71 184.66 98.71 185.1 98.71 185.54 98.71 185.97 98.71 186.41 98.71 186.85 98.71 187.29 98.71" stroke="#F38860" class="geometry color_"/>
        <path fill="none" d="M55.32,98.71 L 55.77 98.71 56.21 98.71 56.65 98.71 57.09 98.71 57.53 98.71 57.97 98.71 58.42 98.71 58.86 98.71 59.3 98.7 59.74 98.7 60.18 98.7 60.62 98.69 61.07 98.69 61.51 98.68 61.95 98.67 62.39 98.66 62.83 98.65 63.27 98.64 63.72 98.62 64.16 98.6 64.6 98.57 65.04 98.55 65.48 98.51 65.93 98.47 66.37 98.43 66.81 98.37 67.25 98.31 67.69 98.24 68.13 98.16 68.58 98.06 69.02 97.96 69.46 97.84 69.9 97.7 70.34 97.55 70.78 97.38 71.23 97.19 71.67 96.98 72.11 96.75 72.55 96.5 72.99 96.21 73.43 95.91 73.88 95.57 74.32 95.2 74.76 94.81 75.2 94.38 75.64 93.91 76.08 93.42 76.53 92.88 76.97 92.31 77.41 91.7 77.85 91.05 78.29 90.35 78.73 89.62 79.18 88.85 79.62 88.03 80.06 87.17 80.5 86.27 80.94 85.32 81.38 84.33 81.83 83.3 82.27 82.22 82.71 81.11 83.15 79.94 83.59 78.74 84.03 77.49 84.48 76.21 84.92 74.88 85.36 73.52 85.8 72.11 86.24 70.67 86.69 69.19 87.13 67.68 87.57 66.13 88.01 64.55 88.45 62.93 88.89 61.28 89.34 59.61 89.78 57.9 90.22 56.16 90.66 54.4 91.1 52.61 91.54 50.8 91.99 48.97 92.43 47.12 92.87 45.26 93.31 43.39 93.75 41.51 94.19 39.63 94.64 37.75 95.08 35.88 95.52 34.03 95.96 32.19 96.4 30.39 96.84 28.62 97.29 26.88 97.73 25.2 98.17 23.57 98.61 22.01 99.05 20.51 99.49 19.1 99.94 17.77 100.38 16.53 100.82 15.39 101.26 14.35 101.7 13.43 102.14 12.62 102.59 11.93 103.03 11.37 103.47 10.94 103.91 10.64 104.35 10.47 104.79 10.43 105.24 10.53 105.68 10.77 106.12 11.14 106.56 11.64 107 12.28 107.45 13.03 107.89 13.91 108.33 14.9 108.77 16 109.21 17.2 109.65 18.49 110.1 19.86 110.54 21.3 110.98 22.81 111.42 24.37 111.86 25.97 112.3 27.6 112.75 29.25 113.19 30.9 113.63 32.55 114.07 34.19 114.51 35.81 114.95 37.39 115.4 38.93 115.84 40.42 116.28 41.86 116.72 43.25 117.16 44.56 117.6 45.81 118.05 47 118.49 48.11 118.93 49.16 119.37 50.14 119.81 51.05 120.25 51.91 120.7 52.71 121.14 53.46 121.58 54.16 122.02 54.82 122.46 55.45 122.9 56.04 123.35 56.62 123.79 57.18 124.23 57.72 124.67 58.26 125.11 58.8 125.55 59.34 126 59.89 126.44 60.44 126.88 61.01 127.32 61.59 127.76 62.18 128.2 62.78 128.65 63.4 129.09 64.03 129.53 64.67 129.97 65.32 130.41 65.98 130.86 66.64 131.3 67.29 131.74 67.95 132.18 68.6 132.62 69.23 133.06 69.86 133.51 70.46 133.95 71.05 134.39 71.61 134.83 72.14 135.27 72.64 135.71 73.11 136.16 73.55 136.6 73.94 137.04 74.3 137.48 74.62 137.92 74.91 138.36 75.15 138.81 75.36 139.25 75.52 139.69 75.65 140.13 75.75 140.57 75.82 141.01 75.86 141.46 75.87 141.9 75.86 142.34 75.83 142.78 75.78 143.22 75.72 143.66 75.65 144.11 75.58 144.55 75.5 144.99 75.43 145.43 75.36 145.87 75.3 146.31 75.25 146.76 75.21 147.2 75.19 147.64 75.18 148.08 75.19 148.52 75.22 148.96 75.28 149.41 75.35 149.85 75.44 150.29 75.56 150.73 75.7 151.17 75.86 151.62 76.04 152.06 76.25 152.5 76.48 152.94 76.73 153.38 77.01 153.82 77.31 154.27 77.63 154.71 77.97 155.15 78.34 155.59 78.73 156.03 79.14 156.47 79.57 156.92 80.03 157.36 80.5 157.8 81 158.24 81.52 158.68 82.06 159.12 82.62 159.57 83.19 160.01 83.78 160.45 84.38 160.89 84.99 161.33 85.62 161.77 86.24 162.22 86.88 162.66 87.51 163.1 88.14 163.54 88.77 163.98 89.39 164.42 90 164.87 90.6 165.31 91.18 165.75 91.75 166.19 92.29 166.63 92.82 167.07 93.32 167.52 93.8 167.96 94.25 168.4 94.68 168.84 95.08 169.28 95.45 169.72 95.8 170.17 96.12 170.61 96.41 171.05 96.68 171.49 96.92 171.93 97.15 172.37 97.35 172.82 97.53 173.26 97.69 173.7 97.83 174.14 97.96 174.58 98.07 175.03 98.16 175.47 98.25 175.91 98.32 176.35 98.38 176.79 98.44 177.23 98.49 177.68 98.52 178.12 98.56 178.56 98.59 179 98.61 179.44 98.63 179.88 98.65 180.33 98.66 180.77 98.67 181.21 98.68 181.65 98.69 182.09 98.69 182.53 98.7 182.98 98.7 183.42 98.7 183.86 98.71 184.3 98.71 184.74 98.71 185.18 98.71 185.63 98.71 186.07 98.71 186.51 98.71 186.95 98.71 187.39 98.71" stroke="#FE4365" class="geometry color_"/>
      </g>
    </g>
  </g>
</g>
  <g class="guide ylabels" font-size="2.82" font-family="'PT Sans Caption','Helvetica Neue','Helvetica',sans-serif" fill="#A1A1A1" id="img-8a539d01-17">
    <text x="20.98" y="98.71" text-anchor="end" dy="0.35em">0.000</text>
    <text x="20.98" y="80.37" text-anchor="end" dy="0.35em">0.005</text>
    <text x="20.98" y="62.03" text-anchor="end" dy="0.35em">0.010</text>
    <text x="20.98" y="43.69" text-anchor="end" dy="0.35em">0.015</text>
    <text x="20.98" y="25.34" text-anchor="end" dy="0.35em">0.020</text>
    <text x="20.98" y="7" text-anchor="end" dy="0.35em">0.025</text>
  </g>
  <g font-size="3.88" font-family="'PT Sans','Helvetica Neue','Helvetica',sans-serif" fill="#A1A1A1" stroke="#000000" stroke-opacity="0.000" id="img-8a539d01-18">
    <text x="8.81" y="50.86" text-anchor="middle" dy="0.35em" transform="rotate(-90, 8.81, 52.86)">Density</text>
  </g>
</g>
<defs>
  <clipPath id="img-8a539d01-10">
  <path d="M21.98,5 L 221.72 5 221.72 100.72 21.98 100.72" />
</clipPath>
</defs>
</svg>
