<?xml version="1.0" encoding="UTF-8"?>
<svg xmlns="http://www.w3.org/2000/svg"
     xmlns:xlink="http://www.w3.org/1999/xlink"
     xmlns:gadfly="http://www.gadflyjl.org/ns"
     version="1.2"
     width="240mm" height="120mm" viewBox="0 0 240 120"
     stroke="none"
     fill="#000000"
     stroke-width="0.3"
     font-size="3.88"
>
<g stroke="#000000" stroke-opacity="0.000" fill="#222831" id="img-67f7876a-1">
  <rect x="0" y="0" width="240" height="120"/>
</g>
<g class="plotroot xscalable yscalable" id="img-67f7876a-2">
  <g font-size="3.88" font-family="'PT Sans','Helvetica Neue','Helvetica',sans-serif" fill="#A1A1A1" stroke="#000000" stroke-opacity="0.000" id="img-67f7876a-3">
    <text x="126.48" y="108.39" text-anchor="middle" dy="0.6em">Year</text>
  </g>
  <g class="guide xlabels" font-size="2.82" font-family="'PT Sans Caption','Helvetica Neue','Helvetica',sans-serif" fill="#A1A1A1" id="img-67f7876a-4">
    <text x="19.96" y="101.71" text-anchor="middle" dy="0.6em">2012</text>
    <text x="90.97" y="101.71" text-anchor="middle" dy="0.6em">2013</text>
    <text x="161.99" y="101.71" text-anchor="middle" dy="0.6em">2014</text>
    <text x="233" y="101.71" text-anchor="middle" dy="0.6em">2015</text>
  </g>
<g clip-path="url(#img-67f7876a-5)">
  <g id="img-67f7876a-6">
    <g pointer-events="visible" opacity="1" fill="#222831" stroke="#000000" stroke-opacity="0.000" class="guide background" id="img-67f7876a-7">
      <rect x="17.96" y="10.61" width="217.04" height="90.1"/>
    </g>
    <g class="guide ygridlines xfixed" stroke-dasharray="0.5,0.5" stroke-width="0.2" stroke="#575757" id="img-67f7876a-8">
      <path fill="none" d="M17.96,98.71 L 235 98.71"/>
      <path fill="none" d="M17.96,81.49 L 235 81.49"/>
      <path fill="none" d="M17.96,64.27 L 235 64.27"/>
      <path fill="none" d="M17.96,47.05 L 235 47.05"/>
      <path fill="none" d="M17.96,29.83 L 235 29.83"/>
      <path fill="none" d="M17.96,12.61 L 235 12.61"/>
    </g>
    <g class="guide xgridlines yfixed" stroke-dasharray="0.5,0.5" stroke-width="0.2" stroke="#575757" id="img-67f7876a-9">
      <path fill="none" d="M19.96,10.61 L 19.96 100.71"/>
      <path fill="none" d="M90.97,10.61 L 90.97 100.71"/>
      <path fill="none" d="M161.99,10.61 L 161.99 100.71"/>
      <path fill="none" d="M233,10.61 L 233 100.71"/>
    </g>
    <g class="plotpanel" id="img-67f7876a-10">
      <g stroke-width="0.3" stroke="#000000" stroke-opacity="0.000" class="geometry" fill="#DC6671" fill-opacity="0.530" id="img-67f7876a-11">
        <path d="M233,94.46 L 161.99 92.83 90.97 94.01 19.96 92.53 19.96 24.77 90.97 25.39 161.99 24.74 233 25.23 z"/>
      </g>
      <g class="geometry" id="img-67f7876a-12">
        <g class="color_RGBA{Float32}(0.9960785f0,0.2627451f0,0.39607847f0,1.0f0)" stroke="#B58486" stroke-width="0.3" fill="#FE4365" id="img-67f7876a-13">
          <use xlink:href="#img-67f7876a-14" x="19.96" y="58.65"/>
          <use xlink:href="#img-67f7876a-14" x="90.97" y="59.7"/>
          <use xlink:href="#img-67f7876a-14" x="161.99" y="58.78"/>
          <use xlink:href="#img-67f7876a-14" x="233" y="59.85"/>
        </g>
      </g>
      <g stroke-width="0.3" fill="#000000" fill-opacity="0.000" class="geometry" stroke-dasharray="none" stroke="#FE4365" id="img-67f7876a-15">
        <path fill="none" d="M19.96,58.65 L 90.97 59.7 161.99 58.78 233 59.85"/>
      </g>
    </g>
  </g>
</g>
  <g class="guide ylabels" font-size="2.82" font-family="'PT Sans Caption','Helvetica Neue','Helvetica',sans-serif" fill="#A1A1A1" id="img-67f7876a-16">
    <text x="16.96" y="98.71" text-anchor="end" dy="0.35em">20</text>
    <text x="16.96" y="81.49" text-anchor="end" dy="0.35em">30</text>
    <text x="16.96" y="64.27" text-anchor="end" dy="0.35em">40</text>
    <text x="16.96" y="47.05" text-anchor="end" dy="0.35em">50</text>
    <text x="16.96" y="29.83" text-anchor="end" dy="0.35em">60</text>
    <text x="16.96" y="12.61" text-anchor="end" dy="0.35em">70</text>
  </g>
  <g font-size="3.88" font-family="'PT Sans','Helvetica Neue','Helvetica',sans-serif" fill="#A1A1A1" stroke="#000000" stroke-opacity="0.000" id="img-67f7876a-17">
    <text x="8.81" y="53.66" text-anchor="middle" dy="0.35em" transform="rotate(-90, 8.81, 55.66)">CPI</text>
  </g>
  <g font-size="3.88" font-family="'PT Sans','Helvetica Neue','Helvetica',sans-serif" fill="#A1A1A1" stroke="#000000" stroke-opacity="0.000" id="img-67f7876a-18">
    <text x="126.48" y="5" text-anchor="middle" dy="0.6em">Average CPI over Time</text>
  </g>
</g>
<defs>
  <clipPath id="img-67f7876a-5">
  <path d="M17.96,10.61 L 235 10.61 235 100.71 17.96 100.71" />
</clipPath>
  <g id="img-67f7876a-14">
    <circle cx="0" cy="0" r="0.9"/>
  </g>
</defs>
</svg>
