<?xml version="1.0" encoding="UTF-8"?>
<svg xmlns="http://www.w3.org/2000/svg"
     xmlns:xlink="http://www.w3.org/1999/xlink"
     xmlns:gadfly="http://www.gadflyjl.org/ns"
     version="1.2"
     width="240mm" height="120mm" viewBox="0 0 240 120"
     stroke="none"
     fill="#000000"
     stroke-width="0.3"
     font-size="3.88"
>
<g class="plotroot xscalable yscalable" id="img-5bc501e8-1">
  <g font-size="6.35" font-family="'PT Sans','Helvetica Neue','Helvetica',sans-serif" fill="#564A55" stroke="#000000" stroke-opacity="0.000" id="img-5bc501e8-2">
    <text x="126.53" y="107.41" text-anchor="middle" dy="0.6em">Year</text>
  </g>
  <g class="guide xlabels" font-size="4.76" font-family="'PT Sans Caption','Helvetica Neue','Helvetica',sans-serif" fill="#6C606B" id="img-5bc501e8-3">
    <text x="52.82" y="99.89" text-anchor="middle" dy="0.6em">2000</text>
    <text x="134.72" y="99.89" text-anchor="middle" dy="0.6em">2005</text>
    <text x="216.62" y="99.89" text-anchor="middle" dy="0.6em">2010</text>
  </g>
<g clip-path="url(#img-5bc501e8-4)">
  <g id="img-5bc501e8-5">
    <g pointer-events="visible" opacity="1" fill="#000000" fill-opacity="0.000" stroke="#000000" stroke-opacity="0.000" class="guide background" id="img-5bc501e8-6">
      <rect x="18.06" y="15.35" width="216.94" height="83.54"/>
    </g>
    <g class="guide ygridlines xfixed" stroke-dasharray="0.5,0.5" stroke-width="0.26" stroke="#000000" id="img-5bc501e8-7">
      <path fill="none" d="M18.06,96.89 L 235 96.89"/>
      <path fill="none" d="M18.06,77 L 235 77"/>
      <path fill="none" d="M18.06,57.12 L 235 57.12"/>
      <path fill="none" d="M18.06,37.23 L 235 37.23"/>
      <path fill="none" d="M18.06,17.35 L 235 17.35"/>
    </g>
    <g class="guide xgridlines yfixed" stroke-dasharray="0.5,0.5" stroke-width="0.26" stroke="#000000" id="img-5bc501e8-8">
      <path fill="none" d="M52.82,15.35 L 52.82 98.89"/>
      <path fill="none" d="M134.72,15.35 L 134.72 98.89"/>
      <path fill="none" d="M216.62,15.35 L 216.62 98.89"/>
    </g>
    <g class="plotpanel" id="img-5bc501e8-9">
      <g stroke-width="0.53" stroke="#000000" stroke-opacity="0.000" class="geometry" fill="#BDE8FF" id="img-5bc501e8-10">
        <path d="M233,77.69 L 216.62 77.78 200.24 77.66 183.86 77.84 167.48 77.96 151.1 77.61 134.72 78 118.34 77.62 101.96 77.6 85.58 75.16 69.2 73.33 52.82 73.45 36.44 74.58 20.06 72.19 20.06 24.41 36.44 27.64 52.82 25.69 69.2 25.76 85.58 27.98 101.96 32.19 118.34 33.36 134.72 34.68 151.1 34.81 167.48 36.41 183.86 35.96 200.24 35.96 216.62 36.3 233 35.96 z"/>
      </g>
      <g class="geometry" id="img-5bc501e8-11">
        <g class="color_RGBA{Float32}(0.0f0,0.74736935f0,1.0f0,1.0f0)" stroke="#FFFFFF" stroke-width="0.3" fill="#00BFFF" id="img-5bc501e8-12">
          <use xlink:href="#img-5bc501e8-13" x="20.06" y="48.3"/>
          <use xlink:href="#img-5bc501e8-13" x="36.44" y="51.11"/>
          <use xlink:href="#img-5bc501e8-13" x="52.82" y="49.57"/>
          <use xlink:href="#img-5bc501e8-13" x="69.2" y="49.55"/>
          <use xlink:href="#img-5bc501e8-13" x="85.58" y="51.57"/>
          <use xlink:href="#img-5bc501e8-13" x="101.96" y="54.9"/>
          <use xlink:href="#img-5bc501e8-13" x="118.34" y="55.49"/>
          <use xlink:href="#img-5bc501e8-13" x="134.72" y="56.34"/>
          <use xlink:href="#img-5bc501e8-13" x="151.1" y="56.21"/>
          <use xlink:href="#img-5bc501e8-13" x="167.48" y="57.18"/>
          <use xlink:href="#img-5bc501e8-13" x="183.86" y="56.9"/>
          <use xlink:href="#img-5bc501e8-13" x="200.24" y="56.81"/>
          <use xlink:href="#img-5bc501e8-13" x="216.62" y="57.04"/>
          <use xlink:href="#img-5bc501e8-13" x="233" y="56.83"/>
        </g>
      </g>
      <g stroke-width="0.53" fill="#000000" fill-opacity="0.000" class="geometry" stroke-dasharray="none" stroke="#00BFFF" id="img-5bc501e8-14">
        <path fill="none" d="M20.06,48.3 L 36.44 51.11 52.82 49.57 69.2 49.55 85.58 51.57 101.96 54.9 118.34 55.49 134.72 56.34 151.1 56.21 167.48 57.18 183.86 56.9 200.24 56.81 216.62 57.04 233 56.83"/>
      </g>
    </g>
  </g>
</g>
  <g class="guide ylabels" font-size="4.76" font-family="'PT Sans Caption','Helvetica Neue','Helvetica',sans-serif" fill="#6C606B" id="img-5bc501e8-15">
    <text x="17.06" y="96.89" text-anchor="end" dy="0.35em">0</text>
    <text x="17.06" y="77" text-anchor="end" dy="0.35em">2</text>
    <text x="17.06" y="57.12" text-anchor="end" dy="0.35em">4</text>
    <text x="17.06" y="37.23" text-anchor="end" dy="0.35em">6</text>
    <text x="17.06" y="17.35" text-anchor="end" dy="0.35em">8</text>
  </g>
  <g font-size="6.35" font-family="'PT Sans','Helvetica Neue','Helvetica',sans-serif" fill="#564A55" stroke="#000000" stroke-opacity="0.000" id="img-5bc501e8-16">
    <text x="9.29" y="55.12" text-anchor="middle" dy="0.35em" transform="rotate(-90, 9.29, 57.12)">CPI</text>
  </g>
  <g font-size="6.35" font-family="'PT Sans','Helvetica Neue','Helvetica',sans-serif" fill="#564A55" stroke="#000000" stroke-opacity="0.000" id="img-5bc501e8-17">
    <text x="126.53" y="13.35" text-anchor="middle">Average CPI over Time</text>
  </g>
</g>
<defs>
  <clipPath id="img-5bc501e8-4">
  <path d="M18.06,15.35 L 235 15.35 235 98.89 18.06 98.89" />
</clipPath>
  <g id="img-5bc501e8-13">
    <circle cx="0" cy="0" r="0.9"/>
  </g>
</defs>
</svg>
