<svg xmlns="http://www.w3.org/2000/svg" version="1.2" width="240mm" height="120mm" viewBox="0 0 240 120" stroke-width=".3" font-size="3.88"><path d="M0 0h240v120H0z" stroke="#000" stroke-opacity="0" fill="#222831"/><g class="plotroot xscalable yscalable"><text x="120.17" y="108.39" text-anchor="middle" dy=".6em" font-family="'PT Sans','Helvetica Neue','Helvetica',sans-serif" fill="#A1A1A1" stroke="#000" stroke-opacity="0">Corruption Perceptions Index</text><g class="guide xlabels" font-size="2.82" font-family="'PT Sans Caption','Helvetica Neue','Helvetica',sans-serif" fill="#A1A1A1" text-anchor="middle"><text x="20.63" y="101.72" dy=".6em">-5</text><text x="70.4" y="101.72" dy=".6em">0</text><text x="120.17" y="101.72" dy=".6em">5</text><text x="169.95" y="101.72" dy=".6em">10</text><text x="219.72" y="101.72" dy=".6em">15</text></g><g class="guide colorkey"><g font-size="2.82" font-family="'PT Sans','Helvetica Neue','Helvetica',sans-serif" fill="#A1A1A1"><text x="226.03" y="74.12" dy=".35em">1995</text><text x="226.03" y="46.81" dy=".35em">2015</text><text x="226.03" y="60.47" dy=".35em">2005</text><text x="226.03" y="53.64" dy=".35em">2010</text><text x="226.03" y="67.3" dy=".35em">2000</text></g><g shape-rendering="crispEdges" stroke="#000" stroke-opacity="0"><path fill="#005D7F" d="M223.72 73.44h1.31v.68h-1.31z"/><path fill="#27607E" d="M223.72 72.76h1.31v.68h-1.31z"/><path fill="#3A647C" d="M223.72 72.08h1.31v.68h-1.31z"/><path fill="#49677B" d="M223.72 71.39h1.31v.68h-1.31z"/><path fill="#566B7A" d="M223.72 70.71h1.31v.68h-1.31z"/><path fill="#626E78" d="M223.72 70.03h1.31v.68h-1.31z"/><path fill="#6D7277" d="M223.72 69.35h1.31v.68h-1.31z"/><path fill="#787575" d="M223.72 68.66h1.31v.68h-1.31z"/><path fill="#827973" d="M223.72 67.98h1.31v.68h-1.31z"/><path fill="#8B7C72" d="M223.72 67.3h1.31v.68h-1.31z"/><path fill="#958070" d="M223.72 66.61h1.31v.68h-1.31z"/><path fill="#9F836E" d="M223.72 65.93h1.31v.68h-1.31z"/><path fill="#A8876D" d="M223.72 65.25h1.31v.68h-1.31z"/><path fill="#B18B6B" d="M223.72 64.57h1.31v.68h-1.31z"/><path fill="#BA8E69" d="M223.72 63.88h1.31v.68h-1.31z"/><path fill="#C39267" d="M223.72 63.2h1.31v.68h-1.31z"/><path fill="#CC9564" d="M223.72 62.52h1.31v.68h-1.31z"/><path fill="#D69962" d="M223.72 61.83h1.31v.68h-1.31z"/><path fill="#DF9D60" d="M223.72 61.15h1.31v.68h-1.31z"/><path fill="#E8A05D" d="M223.72 60.47h1.31v.68h-1.31z"/><path fill="#EDA05C" d="M223.72 59.79h1.31v.68h-1.31z"/><path fill="#EE9C5D" d="M223.72 59.1h1.31v.68h-1.31z"/><path fill="#EF985E" d="M223.72 58.42h1.31v.68h-1.31z"/><path fill="#F0945E" d="M223.72 57.74h1.31v.68h-1.31z"/><path fill="#F1905F" d="M223.72 57.06h1.31v.68h-1.31z"/><path fill="#F28C5F" d="M223.72 56.37h1.31v.68h-1.31z"/><path fill="#F38860" d="M223.72 55.69h1.31v.68h-1.31z"/><path fill="#F48460" d="M223.72 55.01h1.31v.68h-1.31z"/><path fill="#F57F61" d="M223.72 54.32h1.31V55h-1.31z"/><path fill="#F67B61" d="M223.72 53.64h1.31v.68h-1.31z"/><path fill="#F77662" d="M223.72 52.96h1.31v.68h-1.31z"/><path fill="#F87262" d="M223.72 52.28h1.31v.68h-1.31z"/><path fill="#F96D62" d="M223.72 51.59h1.31v.68h-1.31z"/><path fill="#FA6863" d="M223.72 50.91h1.31v.68h-1.31z"/><path fill="#FB6263" d="M223.72 50.23h1.31v.68h-1.31z"/><path fill="#FB5D64" d="M223.72 49.54h1.31v.68h-1.31z"/><path fill="#FC5764" d="M223.72 48.86h1.31v.68h-1.31z"/><path fill="#FD5164" d="M223.72 48.18h1.31v.68h-1.31z"/><path fill="#FD4A65" d="M223.72 47.5h1.31v.68h-1.31z"/><path fill="#FE4365" d="M223.72 46.81h1.31v.68h-1.31z"/><g stroke="#FFF" stroke-width=".2" fill="none"><path d="M223.72 74.12h1.31M223.72 46.81h1.31M223.72 60.47h1.31M223.72 53.64h1.31M223.72 67.3h1.31"/></g></g><text x="223.72" y="42.81" fill="#A1A1A1" font-family="'PT Sans','Helvetica Neue','Helvetica',sans-serif" stroke="#000" stroke-opacity="0">variable</text></g><g clip-path="url(#a)"><path d="M18.63 5h203.09v95.72H18.63z" pointer-events="visible" fill="#222831" stroke="#000" stroke-opacity="0" class="guide background"/><g class="guide ygridlines xfixed" stroke-dasharray="0.5,0.5" stroke-width=".2" stroke="#575757" fill="none"><path d="M18.63 98.71h203.09M18.63 75.79h203.09M18.63 52.86h203.09M18.63 29.93h203.09M18.63 7h203.09"/></g><g class="guide xgridlines yfixed" stroke-dasharray="0.5,0.5" stroke-width=".2" stroke="#575757" fill="none"><path d="M20.63 5v95.72M70.4 5v95.72M120.17 5v95.72M169.95 5v95.72M219.72 5v95.72"/></g><g fill-opacity="0" class="plotpanel"><path fill="none" d="M48.93 98.71h5.23l.52-.01h1.05l.52-.01h1.05l.52-.01.53-.01.52-.01.52-.01.52-.01.53-.02.52-.01.52-.02.53-.03.52-.02.52-.04.53-.03.52-.04.52-.05.53-.06.52-.06.52-.07.53-.08.52-.09.52-.1.53-.11.52-.13.52-.14.52-.16.53-.17.52-.19.52-.21.53-.23.52-.25.52-.28.53-.3.52-.33.52-.35.53-.38.52-.41.52-.44.53-.47.52-.5.52-.54.53-.56.52-.61.52-.63.53-.67.52-.71.52-.74.52-.77.53-.81.52-.84.52-.87.53-.9.52-.93.52-.96.53-.98.52-1.01.52-1.02.53-1.05.52-1.06.52-1.07.53-1.08.52-1.09.52-1.09.53-1.09.52-1.08.52-1.07.53-1.06.52-1.04.52-1.02.52-.99.53-.96.52-.93.52-.88.53-.85.52-.8.52-.75.53-.7.52-.64.52-.59.53-.53.52-.47.52-.41.53-.34.52-.29.52-.23.53-.17.52-.11.52-.05h.52l.53.06.52.1.52.16.53.19.52.24.52.27.53.3.52.34.52.36.53.38.52.41.52.42.53.43.52.45.52.45.53.46.52.47.52.46.53.47.52.47.52.47.52.47.53.47.52.47.52.46.53.47.52.47.52.47.53.46.52.48.52.47.53.48.52.48.52.48.53.5.52.49.52.5.53.51.52.51.52.51.53.52.52.52.52.53.52.52.53.53.52.52.52.53.53.51.52.52.52.5.53.5.52.49.52.48.53.47.52.45.52.44.53.42.52.4.52.39.53.37.52.34.52.33.52.31.53.28.52.27.52.24.53.22.52.2.52.18.53.15.52.14.52.11.53.09.52.07.52.05.53.03.52.01.52-.01.53-.03.52-.04.52-.07.53-.08.52-.09.52-.11.52-.12.53-.14.52-.15.52-.16.53-.16.52-.18.52-.18.53-.18.52-.18.52-.19.53-.18.52-.18.52-.17.53-.16.52-.15.52-.13.53-.12.52-.11.52-.08.53-.06.52-.03.52-.01.52.02.53.05.52.08.52.11.53.15.52.17.52.21.53.24.52.26.52.3.53.33.52.35.52.39.53.4.52.43.52.44.53.46.52.48.52.49.52.5.53.5.52.51.52.51.53.51.52.51.52.5.53.49.52.49.52.47.53.45.52.45.52.43.53.41.52.39.52.37.53.36.52.34.52.31.53.3.52.28.52.26.52.24.53.23.52.2.52.19.53.18.52.16.52.14.53.13.52.12.52.11.53.1.52.08.52.08.53.07.52.06.52.06.53.04.52.05.52.03.53.03.52.03.52.03.52.02.53.02.52.01.52.01.53.02.52.01h.52l.53.01.52.01h.52l.53.01h1.57l.52.01h6.28" stroke="#6B7177" class="geometry color_"/><path fill="none" d="M51.59 98.71H55.66l.51-.01h1.01l.51-.01h.51l.51-.01h.51l.51-.01.51-.01.5-.02.51-.01.51-.02.51-.02.51-.02.51-.03.51-.04.51-.04.5-.04.51-.06.51-.06.51-.07.51-.08.51-.1.51-.11.5-.12.51-.14.51-.15.51-.18.51-.2.51-.22.51-.24.51-.27.5-.3.51-.33.51-.36.51-.39.51-.43.51-.47.51-.5.51-.55.5-.58.51-.62.51-.67.51-.7.51-.75.51-.79.51-.83.51-.87.5-.91.51-.94.51-.98.51-1.02.51-1.04.51-1.07.51-1.1.51-1.11.5-1.13.51-1.15.51-1.16.51-1.16.51-1.16.51-1.16.51-1.16.5-1.14.51-1.13.51-1.11.51-1.09.51-1.06.51-1.04.51-1 .51-.97.5-.93.51-.89.51-.85.51-.81.51-.76.51-.71.51-.67.51-.61.5-.57.51-.51.51-.47.51-.41.51-.36.51-.3.51-.26.51-.21.5-.15.51-.1.51-.06h.51l.51.04.51.09.51.13.5.19.51.22.51.27.51.3.51.35.51.38.51.41.51.45.5.48.51.5.51.54.51.55.51.58.51.59.51.61.51.63.5.64.51.65.51.66.51.66.51.67.51.67.51.67.51.67.5.67.51.67.51.67.51.66.51.65.51.65.51.64.51.63.5.63.51.62.51.6.51.6.51.59.51.58.51.56.5.56.51.54.51.53.51.51.51.5.51.49.51.48.51.45.5.45.51.43.51.41.51.4.51.38.51.37.51.35.51.33.5.32.51.31.51.29.51.27.51.26.51.25.51.23.51.22.5.21.51.19.51.18.51.17.51.16.51.14.51.14.51.12.5.11.51.1.51.09.51.08.51.06.51.06.51.04.5.03.51.02.51.01.51-.01.51-.01.51-.03.51-.04.51-.05.5-.07.51-.07.51-.08.51-.1.51-.1.51-.11.51-.11.51-.13.5-.12.51-.13.51-.13.51-.12.51-.13.51-.11.51-.11.51-.11.5-.08.51-.08.51-.06.51-.04.51-.02h.51l.51.02.51.05.5.07.51.1.51.13.51.15.51.18.51.2.51.24.5.25.51.29.51.3.51.33.51.35.51.37.51.38.51.4.5.41.51.42.51.43.51.43.51.43.51.44.51.44.51.43.5.43.51.42.51.41.51.4.51.39.51.38.51.36.51.35.5.34.51.32.51.3.51.29.51.27.51.25.51.24.51.22.5.2.51.2.51.17.51.16.51.15.51.14.51.12.5.12.51.1.51.09.51.09.51.07.51.07.51.06.51.05.5.04.51.05.51.03.51.03.51.03.51.03.51.02.51.01.5.02.51.01.51.02h.51l.51.01.51.01.51.01h.51l.5.01h1.53l.51.01H203.69" stroke="#807874" class="geometry color_"/><path fill="none" d="M47.35 98.71H52.62l.53-.01h1.06l.52-.01h.53l.53-.01h.52l.53-.01.53-.01.52-.01.53-.02.53-.02.53-.01.52-.03.53-.02.53-.03.52-.04.53-.04.53-.04.53-.06.52-.06.53-.07.53-.07.52-.09.53-.1.53-.11.52-.12.53-.14.53-.15.53-.17.52-.18.53-.21.53-.22.52-.24.53-.27.53-.29.53-.31.52-.33.53-.37.53-.39.52-.41.53-.45.53-.47.52-.5.53-.53.53-.56.53-.6.52-.62.53-.65.53-.68.52-.71.53-.74.53-.77.52-.8.53-.82.53-.85.53-.87.52-.9.53-.92.53-.94.52-.95.53-.98.53-.99.53-1 .52-1.01.53-1.01.53-1.03.52-1.02.53-1.02.53-1.02.52-1.01.53-1 .53-.99.53-.96.52-.95.53-.92.53-.9.52-.86.53-.83.53-.79.53-.75.52-.71.53-.66.53-.61.52-.56.53-.51.53-.46.52-.4.53-.34.53-.29.53-.23.52-.18.53-.11.53-.07h.52l.53.04.53.1.52.14.53.2.53.23.53.28.52.32.53.36.53.39.52.42.53.45.53.48.53.5.52.51.53.54.53.55.52.56.53.57.53.58.52.59.53.59.53.59.53.6.52.59.53.6.53.59.52.58.53.59.53.57.53.58.52.56.53.56.53.55.52.55.53.54.53.52.52.52.53.52.53.5.53.49.52.48.53.47.53.46.52.45.53.43.53.43.52.41.53.4.53.38.53.37.52.36.53.34.53.33.52.32.53.29.53.29.53.27.52.25.53.24.53.22.52.21.53.19.53.18.52.17.53.15.53.14.53.13.52.12.53.1.53.09.52.08.53.07.53.06.52.05.53.04.53.03.53.02.52.01.53.01h.53l.52-.02.53-.01.53-.03.53-.03.52-.03.53-.04.53-.05.52-.05.53-.05.53-.06.52-.05.53-.06.53-.05.53-.06.52-.05.53-.04.53-.04.52-.03.53-.02.53-.01.53.01.52.01.53.04.53.05.52.07.53.08.53.11.52.13.53.16.53.17.53.2.52.22.53.25.53.27.52.28.53.32.53.33.52.35.53.36.53.39.53.4.52.41.53.42.53.43.52.44.53.44.53.45.53.44.52.45.53.44.53.44.52.43.53.42.53.41.52.4.53.39.53.37.53.36.52.35.53.33.53.31.52.3.53.28.53.26.53.25.52.23.53.22.53.2.52.18.53.18.53.15.52.15.53.13.53.12.53.11.52.09.53.09.53.08.52.07.53.07.53.05.52.05.53.05.53.04.53.03.52.03.53.03.53.02.52.02.53.01.53.02.53.01.52.01.53.01.53.01h.52l.53.01h.53l.52.01h1.06l.53.01H204.94" stroke="#937F71" class="geometry color_"/><path fill="none" d="M39.61 98.71H47.29l.55-.01h1.1l.55-.01h.55l.54-.01h.55l.55-.01.55-.01.55-.01.55-.01.55-.01.55-.01.55-.02.54-.02.55-.02.55-.02.55-.03.55-.03.55-.03.55-.04.55-.04.55-.04.54-.05.55-.05.55-.06.55-.07.55-.07.55-.07.55-.09.55-.09.55-.09.54-.11.55-.11.55-.13.55-.13.55-.14.55-.15.55-.17.55-.18.55-.19.55-.21.54-.22.55-.25.55-.26.55-.28.55-.3.55-.33.55-.35.55-.39.55-.41.54-.44.55-.47.55-.51.55-.55.55-.58.55-.62.55-.66.55-.71.55-.74.54-.79.55-.82.55-.87.55-.91.55-.94.55-.98.55-1.02.55-1.04.55-1.08.54-1.1.55-1.12.55-1.14.55-1.15.55-1.16.55-1.16.55-1.16.55-1.15.55-1.14.54-1.12.55-1.1.55-1.07.55-1.04.55-1 .55-.96.55-.91.55-.87.55-.81.54-.75.55-.7.55-.63.55-.58.55-.51.55-.44.55-.39.55-.31.55-.26.54-.19.55-.12.55-.07h.55l.55.05.55.11.55.16.55.22.55.26.55.31.54.35.55.39.55.43.55.47.55.49.55.52.55.54.55.57.55.58.54.6.55.61.55.62.55.62.55.63.55.63.55.64.55.63.55.62.54.63.55.61.55.62.55.6.55.6.55.59.55.58.55.57.55.57.54.56.55.54.55.54.55.54.55.52.55.51.55.51.55.49.55.48.54.48.55.45.55.45.55.43.55.41.55.4.55.38.55.36.55.34.54.31.55.3.55.27.55.24.55.22.55.2.55.17.55.14.55.12.54.1.55.07.55.04.55.03h.55l.55-.02.55-.03.55-.05.55-.06.54-.08.55-.09.55-.1.55-.1.55-.11.55-.12.55-.11.55-.12.55-.12.55-.11.54-.11.55-.11.55-.1.55-.09.55-.08.55-.08.55-.06.55-.05.55-.03.54-.03h1.1l.55.03.55.04.55.06.55.08.55.1.55.12.54.14.55.17.55.19.55.21.55.23.55.26.55.28.55.3.55.32.54.35.55.37.55.38.55.41.55.42.55.44.55.45.55.47.55.47.54.49.55.49.55.49.55.49.55.5.55.49.55.49.55.48.55.48.54.46.55.45.55.44.55.43.55.41.55.39.55.38.55.36.55.34.54.32.55.31.55.28.55.27.55.25.55.23.55.22.55.19.55.19.55.16.54.15.55.14.55.13.55.11.55.1.55.09.55.08.55.07.55.07.54.05.55.05.55.05.55.03.55.04.55.02.55.03.55.02.55.02.54.01.55.02.55.01.55.01.55.01h.55l.55.01h.55l.55.01h1.09l.55.01H203.73" stroke="#A5866D" class="geometry color_"/><path fill="none" d="M48.63 98.71H54.73l.51-.01h1.02l.51-.01h.51l.5-.01h.51l.51-.01.51-.01.51-.01.51-.01.5-.02.51-.02.51-.02.51-.03.51-.03.51-.03.51-.04.5-.05.51-.05.51-.06.51-.07.51-.08.51-.1.51-.1.5-.12.51-.13.51-.15.51-.17.51-.19.51-.21.51-.23.5-.26.51-.28.51-.32.51-.34.51-.38.51-.41.5-.45.51-.49.51-.53.51-.56.51-.61.51-.66.51-.7.5-.74.51-.79.51-.83.51-.88.51-.93.51-.96.51-1.01.5-1.05.51-1.09.51-1.13.51-1.16.51-1.19.51-1.21.51-1.23.5-1.26.51-1.26.51-1.28.51-1.27.51-1.27.51-1.27.5-1.25.51-1.23.51-1.21.51-1.18.51-1.14.51-1.1.51-1.05.5-1.01.51-.95.51-.9.51-.84.51-.77.51-.71.51-.64.5-.58.51-.51.51-.44.51-.37.51-.31.51-.24.51-.18.5-.11.51-.05h.51l.51.06.51.11.51.16.5.21.51.25.51.29.51.33.51.36.51.4.51.43.5.45.51.48.51.5.51.53.51.54.51.57.51.58.5.59.51.61.51.61.51.64.51.64.51.65.51.65.5.67.51.67.51.67.51.68.51.69.51.68.5.69.51.69.51.69.51.68.51.68.51.68.51.68.5.66.51.66.51.65.51.64.51.63.51.62.51.6.5.58.51.57.51.55.51.53.51.52.51.49.51.47.5.44.51.42.51.4.51.38.51.35.51.33.5.3.51.27.51.26.51.23.51.2.51.19.51.16.5.14.51.13.51.1.51.09.51.07.51.06.51.05.5.03.51.03.51.01.51.01h1.02l.51-.01.5-.01.51-.01.51-.02.51-.01.51-.02.51-.02.5-.02.51-.02.51-.03.51-.02.51-.02.51-.03.51-.02.5-.03.51-.03.51-.03.51-.04.51-.03.51-.04.51-.04.5-.05.51-.04.51-.05.51-.04.51-.05.51-.04.51-.04.5-.03.51-.03.51-.02.51-.02h.51l.51.01.51.03.5.04.51.05.51.08.51.09.51.12.51.13.5.16.51.19.51.2.51.23.51.26.51.27.51.3.5.32.51.34.51.36.51.37.51.4.51.4.51.42.5.43.51.43.51.44.51.45.51.44.51.44.51.44.5.44.51.43.51.41.51.41.51.4.51.38.5.37.51.35.51.33.51.32.51.31.51.28.51.27.5.25.51.23.51.22.51.19.51.19.51.17.51.15.5.14.51.13.51.11.51.1.51.09.51.09.51.07.5.06.51.06.51.05.51.04.51.04.51.04.5.03.51.02.51.02.51.02.51.02.51.01.51.01.5.01.51.01h.51l.51.01h.51l.51.01h1.01l.51.01H200.68" stroke="#B78D69" class="geometry color_"/><path fill="none" d="M52.57 98.71H56.94l.48-.01h.98l.48-.01h.49l.48-.01h.49l.48-.01.49-.01.48-.02.49-.01.48-.02.49-.02.49-.03.48-.03.49-.04.48-.04.49-.05.48-.06.49-.07.48-.08.49-.09.49-.11.48-.12.49-.14.48-.15.49-.18.48-.2.49-.23.48-.26.49-.29.48-.32.49-.35.49-.4.48-.43.49-.48.48-.53.49-.57.48-.62.49-.68.48-.74.49-.79.49-.84.48-.91.49-.97.48-1.03.49-1.09.48-1.15.49-1.2.48-1.27.49-1.31.48-1.37.49-1.41.49-1.46.48-1.5.49-1.53.48-1.55.49-1.57.48-1.59.49-1.59.48-1.59.49-1.58.49-1.56.48-1.54.49-1.5.48-1.45.49-1.41.48-1.34.49-1.28.48-1.21.49-1.12.48-1.04.49-.96.49-.86.48-.76.49-.67.48-.56.49-.46.48-.37.49-.26.48-.17.49-.07.49.02.48.11.49.2.48.27.49.34.48.41.49.48.48.53.49.58.48.63.49.67.49.7.48.73.49.75.48.78.49.79.48.8.49.8.48.82.49.81.49.81.48.8.49.81.48.79.49.78.48.78.49.76.48.75.49.74.48.72.49.72.49.7.48.68.49.68.48.66.49.64.48.64.49.62.48.61.49.6.49.58.48.58.49.56.48.55.49.55.48.53.49.52.48.51.49.5.48.49.49.49.49.47.48.46.49.45.48.45.49.43.48.42.49.41.48.41.49.39.49.38.48.37.49.36.48.35.49.33.48.32.49.31.48.3.49.28.48.27.49.26.49.24.48.23.49.21.48.2.49.18.48.17.49.16.48.14.49.13.49.12.48.11.49.1.48.08.49.08.48.07.49.06.48.05.49.04.48.04.49.04.49.03.48.03.49.02.48.03.49.02.48.01.49.02.48.01.49.01.49.01h.48l.49.01h.48l.49-.01h.48l.49-.01.48-.02.49-.02.48-.02.49-.02.49-.03.48-.03.49-.03.48-.04.49-.03.48-.03.49-.03.48-.03.49-.02.49-.02.48-.01h.97l.49.02.48.04.49.05.48.06.49.08.49.1.48.12.49.13.48.16.49.17.48.2.49.21.48.23.49.26.48.27.49.28.49.3.48.32.49.33.48.33.49.35.48.36.49.36.48.36.49.37.49.36.48.37.49.36.48.35.49.35.48.34.49.33.48.32.49.31.48.29.49.29.49.26.48.26.49.24.48.22.49.21.48.2.49.18.48.16.49.16.49.14.48.13.49.11.48.11.49.09.48.09.49.07.48.07.49.06.48.05.49.05.49.04.48.04.49.03.48.02.49.02.48.02.49.02.48.02.49.01.49.01.48.01h.49l.48.01h.49l.48.01h.97l.49.01h4.85" stroke="#C99465" class="geometry color_"/><path fill="none" d="M57.94 98.71H61.59l.46-.01h.46l.45-.01h.46l.45-.01h.46l.46-.01.45-.02.46-.01.46-.02.45-.02.46-.03.45-.03.46-.04.46-.04.45-.06.46-.06.46-.08.45-.08.46-.11.45-.11.46-.14.46-.16.45-.19.46-.21.46-.24.45-.27.46-.31.45-.34.46-.4.46-.43.45-.49.46-.54.45-.6.46-.66.46-.72.45-.79.46-.85.46-.93.45-1.01.46-1.07.45-1.16.46-1.23.46-1.3.45-1.38.46-1.45.46-1.52.45-1.58.46-1.65.45-1.7.46-1.75.46-1.8.45-1.82.46-1.86.46-1.87.45-1.88.46-1.88.45-1.86.46-1.84.46-1.81.45-1.76.46-1.72.45-1.64.46-1.58.46-1.49.45-1.4.46-1.3.46-1.2.45-1.09.46-.98.45-.85.46-.74.46-.62.45-.49.46-.37.46-.26.45-.13.46-.02.45.09.46.19.46.3.45.39.46.48.46.56.45.63.46.71.45.76.46.82.46.87.45.91.46.95.45.98.46 1 .46 1.02.45 1.03.46 1.04.46 1.05.45 1.05.46 1.05.45 1.04.46 1.04.46 1.03.45 1.01.46 1.01.46.99.45.97.46.96.45.95.46.92.46.91.45.89.46.87.46.86.45.83.46.81.45.8.46.78.46.75.45.74.46.71.45.7.46.67.46.65.45.62.46.61.46.57.45.56.46.53.45.5.46.48.46.46.45.42.46.41.46.38.45.35.46.33.45.31.46.29.46.26.45.25.46.23.46.21.45.19.46.18.45.17.46.16.46.15.45.14.46.14.45.13.46.12.46.12.45.12.46.11.46.12.45.11.46.11.45.1.46.11.46.1.45.1.46.1.46.1.45.09.46.09.45.09.46.09.46.08.45.08.46.07.46.07.45.07.46.06.45.06.46.06.46.06.45.05.46.05.45.04.46.04.46.04.45.03.46.03.46.03.45.02.46.02.45.01h.92l.45-.01.46-.01.46-.02.45-.03.46-.03.45-.03.46-.04.46-.05.45-.04.46-.05.46-.05.45-.04.46-.05.45-.04.46-.04.46-.03.45-.02.46-.02h.46l.45.01.46.02.45.04.46.05.46.07.45.08.46.11.45.12.46.14.46.16.45.18.46.2.46.22.45.24.46.25.45.27.46.29.46.3.45.31.46.33.46.34.45.34.46.35.45.36.46.36.46.37.45.36.46.36.46.36.45.35.46.35.45.34.46.33.46.31.45.31.46.29.45.28.46.27.46.25.45.23.46.22.46.21.45.19.46.17.45.16.46.15.46.14.45.12.46.11.46.1.45.09.46.07.45.07.46.07.46.05.45.05.46.04.46.03.45.03.46.03.45.02.46.02.46.02.45.01.46.01.45.01.46.01.46.01h.45l.46.01h.91l.46.01H194.35" stroke="#DA9B61" class="geometry color_"/><path fill="none" d="M63.07 98.71H65.64l.43-.01h.85l.43-.01.43-.01.43-.01.43-.01.43-.01.43-.02.42-.02.43-.03.43-.03.43-.04.43-.05.43-.06.43-.07.42-.09.43-.1.43-.12.43-.14.43-.16.43-.19.43-.23.42-.26.43-.3.43-.34.43-.39.43-.44.43-.5.43-.57.42-.63.43-.71.43-.79.43-.86.43-.96.43-1.05.43-1.14.43-1.24.42-1.34.43-1.44.43-1.54.43-1.64.43-1.74.43-1.84.43-1.93.42-2.02.43-2.09.43-2.17.43-2.24.43-2.28.43-2.33.43-2.36.42-2.37.43-2.38.43-2.36.43-2.34.43-2.29.43-2.23.43-2.17.42-2.07.43-1.98.43-1.85.43-1.74.43-1.59.43-1.44.43-1.29.42-1.12.43-.96.43-.78.43-.6.43-.43.43-.26.43-.08.42.08.43.24.43.4.43.54.43.68.43.81.43.93.42 1.03.43 1.13.43 1.21.43 1.29.43 1.34.43 1.4.43 1.44.43 1.47.42 1.5.43 1.5.43 1.52.43 1.51.43 1.51.43 1.49.43 1.47.42 1.46.43 1.43.43 1.4.43 1.37.43 1.34.43 1.3.43 1.27.42 1.24.43 1.2.43 1.17.43 1.13.43 1.09.43 1.06.43 1.03.42.99.43.96.43.92.43.89.43.86.43.82.43.79.42.76.43.72.43.69.43.65.43.62.43.58.43.55.42.51.43.47.43.43.43.4.43.36.43.33.43.28.43.25.42.22.43.18.43.15.43.12.43.09.43.06.43.04.42.03h.43l.43-.01.43-.03.43-.03.43-.03.43-.04.42-.04.43-.03.43-.03.43-.02h.86l.43.02.42.04.43.05.43.06.43.08.43.1.43.11.43.12.42.13.43.14.43.15.43.16.43.16.43.16.43.17.42.17.43.16.43.16.43.17.43.15.43.16.43.14.42.15.43.14.43.13.43.13.43.12.43.11.43.11.43.11.42.09.43.1.43.08.43.07.43.07.43.06.43.05.42.03.43.03.43.01h.43l.43-.01.43-.02.43-.04.42-.05.43-.06.43-.07.43-.08.43-.09.43-.1.43-.1.42-.11.43-.11.43-.11.43-.1.43-.11.43-.09.43-.09.42-.08.43-.07.43-.06.43-.04.43-.02.43-.01.43.01.42.03.43.05.43.07.43.08.43.11.43.13.43.15.43.16.42.19.43.21.43.22.43.24.43.26.43.27.43.29.42.3.43.32.43.33.43.33.43.35.43.35.43.35.42.36.43.36.43.36.43.36.43.36.43.34.43.34.42.33.43.32.43.31.43.3.43.28.43.27.43.25.42.24.43.22.43.2.43.19.43.18.43.16.43.14.42.14.43.11.43.11.43.1.43.08.43.07.43.07.42.05.43.05.43.05.43.03.43.03.43.03.43.02.43.02.42.02.43.01.43.01.43.01.43.01h.43l.43.01h.85l.43.01H191.22" stroke="#ECA25C" class="geometry color_"/><path fill="none" d="M62.73 98.71H65.32l.43-.01h.86l.43-.01h.43l.43-.01.43-.01.44-.02.43-.01.43-.02.43-.02.43-.03.43-.04.43-.04.43-.05.43-.06.43-.08.43-.09.43-.1.44-.12.43-.15.43-.17.43-.2.43-.22.43-.27.43-.3.43-.35.43-.39.43-.45.43-.51.43-.57.44-.64.43-.71.43-.79.43-.87.43-.96.43-1.05.43-1.15.43-1.24.43-1.34.43-1.44.43-1.54.43-1.65.44-1.74.43-1.84.43-1.93.43-2.02.43-2.1.43-2.18.43-2.23.43-2.3.43-2.33.43-2.37.43-2.38.43-2.39.44-2.38.43-2.36.43-2.31.43-2.26.43-2.2.43-2.1.43-2.01.43-1.9.43-1.78.43-1.63.43-1.49.43-1.34.44-1.17.43-1 .43-.83.43-.64.43-.47.43-.29.43-.1.43.07.43.25.43.41.43.58.43.73.44.88.43 1.02.43 1.14.43 1.26.43 1.36.43 1.46.43 1.54.43 1.61.43 1.67.43 1.71.43 1.75.43 1.77.44 1.78.43 1.78.43 1.78.43 1.75.43 1.73.43 1.69.43 1.65.43 1.6.43 1.54.43 1.48.43 1.41.43 1.35.43 1.28.44 1.2.43 1.13.43 1.05.43.99.43.91.43.84.43.77.43.71.43.65.43.59.43.53.43.49.44.44.43.4.43.37.43.33.43.31.43.28.43.26.43.24.43.22.43.22.43.2.43.19.44.19.43.18.43.17.43.17.43.17.43.16.43.16.43.16.43.15.43.15.43.14.43.14.44.13.43.13.43.12.43.12.43.11.43.11.43.11.43.1.43.1.43.1.43.1.43.09.44.1.43.1.43.09.43.11.43.1.43.11.43.11.43.12.43.12.43.12.43.14.43.14.44.14.43.15.43.15.43.16.43.16.43.17.43.17.43.17.43.18.43.17.43.18.43.18.44.17.43.17.43.17.43.16.43.16.43.15.43.14.43.13.43.13.43.11.43.1.43.09.44.07.43.06.43.04.43.03.43.02h.43l.43-.02.43-.02.43-.05.43-.05.43-.06.43-.07.44-.09.43-.08.43-.1.43-.09.43-.09.43-.1.43-.09.43-.08.43-.08.43-.07.43-.06.43-.04.44-.03.43-.02h.43l.43.02.43.04.43.05.43.07.43.1.43.11.43.13.43.15.43.17.43.19.44.21.43.22.43.24.43.26.43.27.43.28.43.3.43.31.43.31.43.33.43.33.43.33.44.34.43.33.43.34.43.34.43.33.43.33.43.32.43.31.43.31.43.29.43.29.43.27.44.26.43.24.43.23.43.22.43.2.43.19.43.18.43.16.43.15.43.13.43.13.43.11.44.1.43.09.43.08.43.07.43.06.43.05.43.05.43.04.43.04.43.03.43.03.43.02.44.02.43.02.43.01.43.01.43.01.43.01.43.01h.43l.43.01h.86l.43.01H191.55" stroke="#EE9A5D" class="geometry color_"/><path fill="none" d="M60.44 98.71h3.41l.42-.01h.86l.42-.01.43-.01.43-.01.42-.01.43-.01.42-.02.43-.02.43-.02.42-.03.43-.03.42-.05.43-.05.43-.06.42-.07.43-.09.43-.1.42-.12.43-.14.42-.16.43-.19.43-.21.42-.25.43-.28.43-.32.42-.36.43-.41.42-.46.43-.52.43-.57.42-.64.43-.7.43-.77.42-.85.43-.92.42-.99.43-1.08.43-1.16.42-1.25.43-1.33.42-1.4.43-1.49.43-1.57.42-1.64.43-1.71.43-1.78.42-1.84.43-1.89.42-1.94.43-1.97.43-2 .42-2.02.43-2.02.43-2.03.42-2.01.43-1.99.42-1.95.43-1.91.43-1.86.42-1.79.43-1.73.43-1.63.42-1.55.43-1.46.42-1.35.43-1.24.43-1.13.42-1 .43-.89.42-.77.43-.64.43-.52.42-.39.43-.26.43-.14.42-.02.43.1.42.23.43.33.43.45.42.55.43.66.43.76.42.85.43.94.42 1.02.43 1.09.43 1.17.42 1.22.43 1.28.43 1.33.42 1.37.43 1.39.42 1.42.43 1.43.43 1.43.42 1.43.43 1.42.42 1.4.43 1.37.43 1.33.42 1.29.43 1.24.43 1.19.42 1.13.43 1.06.42 1 .43.94.43.86.42.8.43.73.43.67.42.6.43.55.42.49.43.43.43.4.42.35.43.31.43.29.42.26.43.25.42.23.43.22.43.22.42.22.43.23.42.23.43.25.43.26.42.28.43.29.43.32.42.32.43.35.42.36.43.37.43.39.42.4.43.41.43.41.42.41.43.42.42.41.43.41.43.4.42.39.43.38.43.36.42.35.43.33.42.31.43.3.43.27.42.25.43.24.42.21.43.19.43.18.42.16.43.14.43.13.42.12.43.11.42.1.43.09.43.09.42.09.43.09.43.09.42.09.43.1.42.1.43.11.43.11.42.12.43.13.43.14.42.14.43.15.42.15.43.16.43.15.42.16.43.16.42.15.43.15.43.15.42.13.43.13.43.12.42.1.43.09.42.08.43.06.43.05.42.03.43.01h.43l.42-.01.43-.03.42-.05.43-.05.43-.07.42-.08.43-.08.43-.09.42-.1.43-.1.42-.1.43-.09.43-.1.42-.09.43-.08.43-.07.42-.06.43-.05.42-.03.43-.01h.43l.42.03.43.05.42.06.43.09.43.12.42.14.43.16.43.19.42.21.43.23.42.25.43.27.43.3.42.3.43.33.43.33.42.35.43.35.42.36.43.37.43.36.42.36.43.35.43.35.42.35.43.33.42.31.43.31.43.29.42.27.43.26.42.24.43.23.43.21.42.19.43.17.43.16.42.14.43.13.42.12.43.1.43.09.42.08.43.07.43.06.42.05.43.05.42.04.43.03.43.03.42.02.43.02.43.02.42.01.43.01.42.01.43.01h.43l.42.01h.85l.43.01h2.98" stroke="#F1935E" class="geometry color_"/><path fill="none" d="M54.8 98.71H60.17l.44-.01h.45l.45-.01h.45l.44-.01h.45l.45-.01.45-.02.44-.01.45-.02.45-.02.44-.02.45-.03.45-.04.45-.04.44-.05.45-.06.45-.07.45-.08.44-.09.45-.11.45-.12.44-.14.45-.17.45-.18.45-.22.44-.24.45-.27.45-.3.45-.35.44-.38.45-.42.45-.47.44-.52.45-.57.45-.62.45-.68.44-.74.45-.8.45-.86.45-.92.44-.99.45-1.05.45-1.12.44-1.17.45-1.24.45-1.29.45-1.35.44-1.4.45-1.45.45-1.5.45-1.53.44-1.56.45-1.59.45-1.61.44-1.63.45-1.63.45-1.63.45-1.63.44-1.61.45-1.59.45-1.57.45-1.53.44-1.5.45-1.45.45-1.4.44-1.35.45-1.3.45-1.23.45-1.16.44-1.1.45-1.02.45-.95.45-.88.44-.79.45-.71.45-.63.44-.54.45-.46.45-.36.45-.28.44-.18.45-.1h.45l.45.09.44.19.45.28.45.37.44.46.45.55.45.63.45.72.44.79.45.87.45.94.45 1.01.44 1.06.45 1.12.45 1.16.44 1.19.45 1.23.45 1.24.45 1.26.44 1.27.45 1.26.45 1.24.45 1.23.44 1.21.45 1.16.45 1.14.44 1.08.45 1.04.45.98.45.92.44.87.45.81.45.74.45.68.44.63.45.56.45.51.44.46.45.41.45.36.45.32.44.28.45.25.45.23.45.2.44.19.45.17.45.16.44.16.45.15.45.16.45.16.44.16.45.18.45.18.45.19.44.21.45.21.45.23.45.23.44.24.45.26.45.26.44.26.45.27.45.28.45.27.44.28.45.27.45.27.45.27.44.26.45.25.45.25.44.24.45.24.45.22.45.22.44.21.45.2.45.19.45.19.44.18.45.18.45.17.44.16.45.17.45.16.45.16.44.16.45.16.45.15.45.16.44.16.45.17.45.16.44.16.45.17.45.16.45.16.44.17.45.16.45.16.45.16.44.16.45.15.45.15.44.14.45.14.45.13.45.12.44.12.45.11.45.1.45.09.44.09.45.07.45.07.44.06.45.05.45.04.45.04.44.03.45.03.45.02.45.02.44.03.45.02.45.03.44.03.45.03.45.05.45.06.44.06.45.09.45.09.45.12.44.13.45.15.45.16.44.19.45.21.45.22.45.24.44.26.45.28.45.29.45.3.44.31.45.33.45.32.44.34.45.33.45.34.45.33.44.33.45.32.45.31.45.31.44.29.45.28.45.26.44.26.45.23.45.22.45.21.44.19.45.17.45.16.45.15.44.13.45.12.45.1.44.1.45.08.45.08.45.06.44.06.45.04.45.05.45.03.44.03.45.03.45.02.44.02.45.02.45.01.45.01.44.01.45.01h.45l.45.01h.89l.45.01H188.54" stroke="#F38B5F" class="geometry color_"/><path fill="none" d="M56.51 98.71h4.86l.45-.01h.88l.44-.01.45-.01h.44l.44-.01.44-.01.45-.02.44-.02.44-.02.44-.02.45-.03.44-.04.44-.04.44-.05.45-.06.44-.07.44-.08.44-.1.45-.11.44-.13.44-.15.44-.17.45-.19.44-.22.44-.26.44-.28.45-.32.44-.36.44-.4.44-.44.45-.49.44-.55.44-.6.44-.65.45-.72.44-.78.44-.84.44-.92.45-.98.44-1.05.44-1.12.44-1.19.45-1.26.44-1.33.44-1.39.44-1.46.45-1.52.44-1.58.44-1.63.44-1.68.45-1.72.44-1.75.44-1.79.44-1.8.45-1.82.44-1.81.44-1.82.44-1.8.45-1.78.44-1.74.44-1.71.44-1.66.45-1.6.44-1.53.44-1.46.44-1.38.45-1.29.44-1.2.44-1.09.45-.99.44-.89.44-.77.44-.65.45-.54.44-.42.44-.31.44-.18.45-.08.44.05.44.15.44.26.45.36.44.46.44.55.44.64.45.71.44.8.44.86.44.91.45.98.44 1.01.44 1.06.44 1.09.45 1.11.44 1.13.44 1.15.44 1.15.45 1.14.44 1.15.44 1.13.44 1.11.45 1.1.44 1.07.44 1.05.44 1.01.45.98.44.95.44.91.44.87.45.83.44.79.44.75.44.7.45.67.44.63.44.6.44.55.45.53.44.49.44.46.44.43.45.41.44.39.44.36.44.35.45.34.44.32.44.32.44.31.45.31.44.3.44.3.44.31.45.31.44.31.44.32.44.32.45.33.44.34.44.33.44.34.45.35.44.34.44.35.44.34.45.34.44.33.44.33.44.32.45.31.44.3.44.29.44.28.45.26.44.25.44.23.44.22.45.21.44.19.44.19.45.17.44.16.44.16.44.14.45.14.44.14.44.13.44.13.45.13.44.12.44.13.44.13.45.12.44.13.44.12.44.13.45.12.44.12.44.12.44.11.45.12.44.1.44.11.44.09.45.09.44.08.44.08.44.06.45.06.44.05.44.04.44.04.45.02.44.02.44.01.44.01.45-.01h.44l.44-.01.44-.02.45-.01.44-.02.44-.02.44-.02.45-.01.44-.01.44-.01h.44l.45.01.44.02.44.04.44.04.45.06.44.08.44.09.44.11.45.13.44.15.44.17.44.19.45.21.44.23.44.25.44.27.45.28.44.31.44.32.44.33.45.34.44.35.44.36.44.36.45.37.44.36.44.36.44.36.45.35.44.34.44.33.44.32.45.31.44.29.44.28.44.27.45.24.44.23.44.21.44.2.45.18.44.17.44.15.45.13.44.12.44.11.44.1.45.09.44.07.44.07.44.06.45.05.44.04.44.04.44.03.45.03.44.02.44.02.44.01.45.02.44.01.44.01.44.01h.45l.44.01h.88l.45.01h4.42" stroke="#F58260" class="geometry color_"/><path fill="none" d="M56.21 98.71h4.86l.44-.01h.88l.44-.01h.44l.44-.01.44-.01h.44l.45-.02.44-.01.44-.02.44-.02.44-.02.44-.03.44-.04.44-.04.44-.05.45-.05.44-.07.44-.08.44-.09.44-.1.44-.12.44-.14.44-.16.45-.18.44-.2.44-.23.44-.26.44-.3.44-.32.44-.37.44-.41.44-.45.45-.5.44-.55.44-.61.44-.66.44-.72.44-.79.44-.85.44-.92.45-1 .44-1.06.44-1.14.44-1.22.44-1.28.44-1.37.44-1.43.44-1.51.44-1.58.45-1.64.44-1.71.44-1.76.44-1.81.44-1.85.44-1.89.44-1.92.44-1.93.44-1.95.45-1.94.44-1.93.44-1.9.44-1.88.44-1.82.44-1.78.44-1.7.44-1.63.45-1.55.44-1.45.44-1.35.44-1.24.44-1.13.44-1.01.44-.88.44-.76.44-.63.45-.5.44-.38.44-.24.44-.13h.44l.44.11.44.23.44.33.44.43.45.53.44.62.44.7.44.78.44.84.44.92.44.96.44 1.02.45 1.06.44 1.1.44 1.13.44 1.15.44 1.17.44 1.19.44 1.2.44 1.2.44 1.19.45 1.19.44 1.19.44 1.16.44 1.15.44 1.12.44 1.1.44 1.07.44 1.04.44 1 .45.97.44.94.44.89.44.86.44.82.44.78.44.75.44.7.45.67.44.64.44.6.44.57.44.54.44.51.44.48.44.46.44.43.45.41.44.4.44.37.44.36.44.35.44.33.44.32.44.32.44.3.45.3.44.3.44.29.44.29.44.29.44.29.44.29.44.28.45.29.44.3.44.29.44.3.44.29.44.3.44.3.44.31.44.3.45.3.44.3.44.3.44.3.44.3.44.29.44.29.44.28.44.27.45.26.44.26.44.24.44.24.44.22.44.21.44.2.44.18.45.16.44.16.44.13.44.13.44.1.44.09.44.08.44.06.44.05.45.03.44.02h.44l.44-.01.44-.01.44-.03.44-.04.44-.05.44-.05.45-.06.44-.07.44-.07.44-.07.44-.08.44-.08.44-.08.44-.08.45-.08.44-.08.44-.07.44-.08.44-.07.44-.06.44-.06.44-.05.44-.04.45-.04.44-.03.44-.01.44-.01.44.01.44.02.44.04.44.05.45.06.44.09.44.1.44.13.44.14.44.16.44.18.44.2.44.22.45.24.44.26.44.28.44.29.44.31.44.33.44.33.44.35.44.36.45.36.44.37.44.37.44.37.44.36.44.37.44.36.44.35.45.34.44.34.44.32.44.3.44.29.44.28.44.26.44.25.44.23.45.21.44.2.44.18.44.16.44.15.44.14.44.12.44.11.44.1.45.09.44.07.44.07.44.06.44.05.44.04.44.04.44.03.45.03.44.03.44.02.44.01.44.02.44.01.44.01h.44l.44.01.45.01h.88l.44.01H188.12" stroke="#F77A61" class="geometry color_"/><path fill="none" d="M55.39 98.71H60.32l.45-.01h.89l.45-.01.45-.01h.45l.45-.01.44-.01.45-.02.45-.01.45-.02.45-.02.44-.03.45-.03.45-.03.45-.04.45-.05.44-.05.45-.07.45-.07.45-.08.45-.1.44-.1.45-.12.45-.14.45-.15.45-.18.44-.19.45-.22.45-.24.45-.26.45-.3.44-.33.45-.37.45-.4.45-.44.45-.49.44-.53.45-.58.45-.64.45-.69.45-.76.44-.82.45-.88.45-.96.45-1.03.45-1.1.44-1.18.45-1.26.45-1.34.45-1.42.45-1.5.44-1.58.45-1.65.45-1.73.45-1.79.44-1.86.45-1.92.45-1.97.45-2.01.45-2.04.44-2.06.45-2.08.45-2.08.45-2.07.45-2.05.44-2.01.45-1.97.45-1.9.45-1.83.45-1.74.44-1.64.45-1.54.45-1.41.45-1.29.45-1.15.44-1.01.45-.86.45-.7.45-.55.45-.38.44-.23.45-.08.45.09.45.23.45.38.44.52.45.65.45.77.45.89.45.99.44 1.09.45 1.17.45 1.25.45 1.3.45 1.36.44 1.4.45 1.43.45 1.45.45 1.46.45 1.47.44 1.45.45 1.44.45 1.42.45 1.4.45 1.36.44 1.32.45 1.29.45 1.23.45 1.2.45 1.14.44 1.1.45 1.05.45 1 .45.95.45.9.44.86.45.81.45.76.45.73.45.68.44.65.45.6.45.58.45.54.44.51.45.48.45.45.45.43.45.4.44.38.45.37.45.34.45.33.45.31.44.3.45.29.45.28.45.27.45.27.44.26.45.25.45.25.45.26.45.25.44.25.45.25.45.25.45.25.45.26.44.25.45.26.45.25.45.26.45.25.44.25.45.24.45.24.45.23.45.23.44.21.45.2.45.19.45.18.45.16.44.14.45.13.45.11.45.1.45.08.44.07.45.05.45.04.45.02.45.02.44.01h.45l.45-.01.45-.01.45-.01.44-.01.45-.01h1.35l.44.01.45.01.45.02.45.03.45.03.44.04.45.05.45.04.45.06.44.05.45.06.45.06.45.06.45.06.44.06.45.06.45.05.45.06.45.05.44.05.45.05.45.04.45.04.45.05.44.04.45.05.45.05.45.06.45.06.44.07.45.08.45.08.45.1.45.12.44.12.45.15.45.16.45.17.45.19.44.21.45.23.45.25.45.26.45.27.44.29.45.31.45.31.45.33.45.33.44.34.45.34.45.35.45.34.45.34.44.34.45.33.45.33.45.31.45.3.44.29.45.28.45.26.45.25.45.23.44.22.45.2.45.18.45.17.45.16.44.14.45.13.45.11.45.1.45.09.44.08.45.07.45.06.45.05.44.05.45.04.45.03.45.03.45.02.44.02.45.02.45.02.45.01.45.01h.44l.45.01.45.01h.9l.44.01H189.34" stroke="#F87162" class="geometry color_"/></g></g><g class="guide ylabels" font-size="2.82" font-family="'PT Sans Caption','Helvetica Neue','Helvetica',sans-serif" fill="#A1A1A1" text-anchor="end"><text x="17.63" y="98.71" dy=".35em">0.0</text><text x="17.63" y="75.79" dy=".35em">0.1</text><text x="17.63" y="52.86" dy=".35em">0.2</text><text x="17.63" y="29.93" dy=".35em">0.3</text><text x="17.63" y="7" dy=".35em">0.4</text></g><text x="8.81" y="50.86" text-anchor="middle" dy=".35em" transform="rotate(-90 8.81 52.86)" font-family="'PT Sans','Helvetica Neue','Helvetica',sans-serif" fill="#A1A1A1" stroke="#000" stroke-opacity="0">Density</text></g><defs><clipPath id="a"><path d="M18.63 5h203.09v95.72H18.63"/></clipPath></defs></svg>