<?xml version="1.0" encoding="UTF-8"?>
<svg xmlns="http://www.w3.org/2000/svg"
     xmlns:xlink="http://www.w3.org/1999/xlink"
     xmlns:gadfly="http://www.gadflyjl.org/ns"
     version="1.2"
     width="240mm" height="120mm" viewBox="0 0 240 120"
     stroke="none"
     fill="#000000"
     stroke-width="0.3"
     font-size="3.88"
>
<g class="plotroot xscalable yscalable" id="img-08368810-1">
  <g font-size="6.35" font-family="'PT Sans','Helvetica Neue','Helvetica',sans-serif" fill="#FFFFFF" stroke="#000000" stroke-opacity="0.000" id="img-08368810-2">
    <text x="118.59" y="105.65" text-anchor="middle" dy="0.6em">Corruption Perceptions Index</text>
  </g>
  <g class="guide xlabels" font-size="4.76" font-family="'PT Sans Caption','Helvetica Neue','Helvetica',sans-serif" fill="#FFFFFF" id="img-08368810-3">
    <text x="25.7" y="97.77" text-anchor="middle" dy="0.6em">-5</text>
    <text x="72.15" y="97.77" text-anchor="middle" dy="0.6em">0</text>
    <text x="118.59" y="97.77" text-anchor="middle" dy="0.6em">5</text>
    <text x="165.04" y="97.77" text-anchor="middle" dy="0.6em">10</text>
    <text x="211.48" y="97.77" text-anchor="middle" dy="0.6em">15</text>
  </g>
  <g class="guide colorkey" id="img-08368810-4">
    <g font-size="4.76" font-family="'PT Sans','Helvetica Neue','Helvetica',sans-serif" fill="#FFFFFF" id="img-08368810-5">
      <text x="218.42" y="59.82" dy="0.35em">2005</text>
      <text x="218.42" y="50.31" dy="0.35em">2010</text>
      <text x="218.42" y="69.33" dy="0.35em">2000</text>
      <text x="218.42" y="78.85" dy="0.35em">1995</text>
      <text x="218.42" y="40.8" dy="0.35em">2015</text>
    </g>
    <g shape-rendering="crispEdges" stroke="#000000" stroke-opacity="0.000" id="img-08368810-6">
      <rect x="215.48" y="77.89" width="1.94" height="0.95" fill="#004D84"/>
      <rect x="215.48" y="76.94" width="1.94" height="0.95" fill="#005B8D"/>
      <rect x="215.48" y="75.99" width="1.94" height="0.95" fill="#006995"/>
      <rect x="215.48" y="75.04" width="1.94" height="0.95" fill="#00769D"/>
      <rect x="215.48" y="74.09" width="1.94" height="0.95" fill="#0083A3"/>
      <rect x="215.48" y="73.14" width="1.94" height="0.95" fill="#278FA9"/>
      <rect x="215.48" y="72.19" width="1.94" height="0.95" fill="#409BAF"/>
      <rect x="215.48" y="71.24" width="1.94" height="0.95" fill="#55A7B5"/>
      <rect x="215.48" y="70.29" width="1.94" height="0.95" fill="#69B2BA"/>
      <rect x="215.48" y="69.33" width="1.94" height="0.95" fill="#7BBCC0"/>
      <rect x="215.48" y="68.38" width="1.94" height="0.95" fill="#8DC6C5"/>
      <rect x="215.48" y="67.43" width="1.94" height="0.95" fill="#9ED0CB"/>
      <rect x="215.48" y="66.48" width="1.94" height="0.95" fill="#A5CFC7"/>
      <rect x="215.48" y="65.53" width="1.94" height="0.95" fill="#ABCEC4"/>
      <rect x="215.48" y="64.58" width="1.94" height="0.95" fill="#B1CCC2"/>
      <rect x="215.48" y="63.63" width="1.94" height="0.95" fill="#B5CCC1"/>
      <rect x="215.48" y="62.68" width="1.94" height="0.95" fill="#B7CBBF"/>
      <rect x="215.48" y="61.73" width="1.94" height="0.95" fill="#B9CBBD"/>
      <rect x="215.48" y="60.77" width="1.94" height="0.95" fill="#BBCBBB"/>
      <rect x="215.48" y="59.82" width="1.94" height="0.95" fill="#BDCABA"/>
      <rect x="215.48" y="58.87" width="1.94" height="0.95" fill="#BFCAB8"/>
      <rect x="215.48" y="57.92" width="1.94" height="0.95" fill="#C2C9B7"/>
      <rect x="215.48" y="56.97" width="1.94" height="0.95" fill="#C4C9B6"/>
      <rect x="215.48" y="56.02" width="1.94" height="0.95" fill="#C6C8B5"/>
      <rect x="215.48" y="55.07" width="1.94" height="0.95" fill="#C9C7B4"/>
      <rect x="215.48" y="54.12" width="1.94" height="0.95" fill="#CCC7B2"/>
      <rect x="215.48" y="53.17" width="1.94" height="0.95" fill="#CFC6AE"/>
      <rect x="215.48" y="52.22" width="1.94" height="0.95" fill="#D4C5AA"/>
      <rect x="215.48" y="51.26" width="1.94" height="0.95" fill="#D8C3A6"/>
      <rect x="215.48" y="50.31" width="1.94" height="0.95" fill="#D3B79A"/>
      <rect x="215.48" y="49.36" width="1.94" height="0.95" fill="#CDAB8E"/>
      <rect x="215.48" y="48.41" width="1.94" height="0.95" fill="#C89E82"/>
      <rect x="215.48" y="47.46" width="1.94" height="0.95" fill="#C19177"/>
      <rect x="215.48" y="46.51" width="1.94" height="0.95" fill="#BA836C"/>
      <rect x="215.48" y="45.56" width="1.94" height="0.95" fill="#B27563"/>
      <rect x="215.48" y="44.61" width="1.94" height="0.95" fill="#AA665A"/>
      <rect x="215.48" y="43.66" width="1.94" height="0.95" fill="#A05752"/>
      <rect x="215.48" y="42.7" width="1.94" height="0.95" fill="#96484A"/>
      <rect x="215.48" y="41.75" width="1.94" height="0.95" fill="#8B3844"/>
      <rect x="215.48" y="40.8" width="1.94" height="0.95" fill="#7E273E"/>
      <g stroke="#FFFFFF" stroke-width="0.26" id="img-08368810-7">
        <path fill="none" d="M215.48,59.82 L 217.42 59.82"/>
        <path fill="none" d="M215.48,50.31 L 217.42 50.31"/>
        <path fill="none" d="M215.48,69.33 L 217.42 69.33"/>
        <path fill="none" d="M215.48,78.85 L 217.42 78.85"/>
        <path fill="none" d="M215.48,40.8 L 217.42 40.8"/>
      </g>
    </g>
    <g fill="#FFFFFF" font-size="6.35" font-family="'PT Sans','Helvetica Neue','Helvetica',sans-serif" stroke="#000000" stroke-opacity="0.000" id="img-08368810-8">
      <text x="215.48" y="36.8">variable</text>
    </g>
  </g>
<g clip-path="url(#img-08368810-9)">
  <g id="img-08368810-10">
    <g pointer-events="visible" opacity="1" fill="#000000" fill-opacity="0.000" stroke="#000000" stroke-opacity="0.000" class="guide background" id="img-08368810-11">
      <rect x="23.7" y="5" width="189.78" height="91.77"/>
    </g>
    <g class="guide ygridlines xfixed" stroke-dasharray="0.5,0.5" stroke-width="0.26" stroke="#FFFFFF" id="img-08368810-12">
      <path fill="none" d="M23.7,94.77 L 213.48 94.77"/>
      <path fill="none" d="M23.7,72.83 L 213.48 72.83"/>
      <path fill="none" d="M23.7,50.88 L 213.48 50.88"/>
      <path fill="none" d="M23.7,28.94 L 213.48 28.94"/>
      <path fill="none" d="M23.7,7 L 213.48 7"/>
    </g>
    <g class="guide xgridlines yfixed" stroke-dasharray="0.5,0.5" stroke-width="0.26" stroke="#FFFFFF" id="img-08368810-13">
      <path fill="none" d="M25.7,5 L 25.7 96.77"/>
      <path fill="none" d="M72.15,5 L 72.15 96.77"/>
      <path fill="none" d="M118.59,5 L 118.59 96.77"/>
      <path fill="none" d="M165.04,5 L 165.04 96.77"/>
      <path fill="none" d="M211.48,5 L 211.48 96.77"/>
    </g>
    <g class="plotpanel" id="img-08368810-14">
      <g stroke-width="0.53" fill="#000000" fill-opacity="0.000" stroke-dasharray="none" id="img-08368810-15">
        <path fill="none" d="M52.11,94.77 L 52.59 94.77 53.08 94.77 53.57 94.77 54.06 94.77 54.55 94.77 55.03 94.77 55.52 94.76 56.01 94.76 56.5 94.76 56.99 94.76 57.48 94.76 57.96 94.76 58.45 94.75 58.94 94.75 59.43 94.75 59.92 94.74 60.4 94.73 60.89 94.73 61.38 94.72 61.87 94.71 62.36 94.7 62.85 94.68 63.33 94.67 63.82 94.65 64.31 94.62 64.8 94.6 65.29 94.57 65.78 94.53 66.26 94.49 66.75 94.45 67.24 94.4 67.73 94.34 68.22 94.27 68.7 94.19 69.19 94.11 69.68 94.01 70.17 93.9 70.66 93.78 71.15 93.65 71.63 93.5 72.12 93.33 72.61 93.15 73.1 92.95 73.59 92.73 74.07 92.48 74.56 92.22 75.05 91.93 75.54 91.62 76.03 91.28 76.52 90.92 77 90.53 77.49 90.11 77.98 89.66 78.47 89.17 78.96 88.66 79.44 88.12 79.93 87.54 80.42 86.93 80.91 86.29 81.4 85.62 81.89 84.91 82.37 84.17 82.86 83.4 83.35 82.59 83.84 81.76 84.33 80.9 84.82 80.01 85.3 79.09 85.79 78.15 86.28 77.19 86.77 76.21 87.26 75.21 87.74 74.19 88.23 73.16 88.72 72.13 89.21 71.09 89.7 70.04 90.19 69 90.67 67.97 91.16 66.94 91.65 65.93 92.14 64.93 92.63 63.96 93.11 63.01 93.6 62.09 94.09 61.21 94.58 60.36 95.07 59.55 95.56 58.79 96.04 58.07 96.53 57.4 97.02 56.78 97.51 56.22 98 55.71 98.49 55.26 98.97 54.87 99.46 54.54 99.95 54.26 100.44 54.05 100.93 53.89 101.41 53.78 101.9 53.73 102.39 53.73 102.88 53.79 103.37 53.89 103.86 54.03 104.34 54.22 104.83 54.44 105.32 54.7 105.81 55 106.3 55.32 106.78 55.66 107.27 56.03 107.76 56.42 108.25 56.82 108.74 57.23 109.23 57.66 109.71 58.09 110.2 58.54 110.69 58.98 111.18 59.43 111.67 59.88 112.16 60.33 112.64 60.77 113.13 61.22 113.62 61.67 114.11 62.12 114.6 62.57 115.08 63.01 115.57 63.46 116.06 63.91 116.55 64.36 117.04 64.81 117.53 65.26 118.01 65.72 118.5 66.18 118.99 66.64 119.48 67.11 119.97 67.59 120.45 68.07 120.94 68.55 121.43 69.04 121.92 69.53 122.41 70.03 122.9 70.53 123.38 71.03 123.87 71.53 124.36 72.04 124.85 72.54 125.34 73.04 125.82 73.53 126.31 74.02 126.8 74.51 127.29 74.99 127.78 75.46 128.27 75.91 128.75 76.36 129.24 76.79 129.73 77.21 130.22 77.61 130.71 78 131.2 78.37 131.68 78.72 132.17 79.05 132.66 79.37 133.15 79.66 133.64 79.93 134.12 80.19 134.61 80.42 135.1 80.63 135.59 80.82 136.08 80.99 136.57 81.14 137.05 81.27 137.54 81.37 138.03 81.46 138.52 81.53 139.01 81.58 139.49 81.6 139.98 81.61 140.47 81.61 140.96 81.58 141.45 81.54 141.94 81.48 142.42 81.4 142.91 81.31 143.4 81.2 143.89 81.09 144.38 80.96 144.87 80.81 145.35 80.66 145.84 80.5 146.33 80.34 146.82 80.17 147.31 79.99 147.79 79.81 148.28 79.64 148.77 79.46 149.26 79.29 149.75 79.13 150.24 78.98 150.72 78.83 151.21 78.7 151.7 78.59 152.19 78.49 152.68 78.41 153.16 78.36 153.65 78.32 154.14 78.32 154.63 78.34 155.12 78.38 155.61 78.46 156.09 78.57 156.58 78.7 157.07 78.87 157.56 79.07 158.05 79.3 158.53 79.55 159.02 79.84 159.51 80.15 160 80.49 160.49 80.86 160.98 81.24 161.46 81.65 161.95 82.08 162.44 82.52 162.93 82.98 163.42 83.44 163.91 83.92 164.39 84.4 164.88 84.89 165.37 85.38 165.86 85.87 166.35 86.35 166.83 86.83 167.32 87.3 167.81 87.76 168.3 88.22 168.79 88.65 169.28 89.08 169.76 89.49 170.25 89.88 170.74 90.26 171.23 90.61 171.72 90.95 172.2 91.28 172.69 91.58 173.18 91.87 173.67 92.13 174.16 92.38 174.65 92.61 175.13 92.83 175.62 93.03 176.11 93.21 176.6 93.37 177.09 93.53 177.58 93.67 178.06 93.79 178.55 93.91 179.04 94.01 179.53 94.1 180.02 94.18 180.5 94.26 180.99 94.33 181.48 94.38 181.97 94.44 182.46 94.48 182.95 94.52 183.43 94.56 183.92 94.59 184.41 94.61 184.9 94.64 185.39 94.66 185.87 94.67 186.36 94.69 186.85 94.7 187.34 94.71 187.83 94.72 188.32 94.73 188.8 94.74 189.29 94.74 189.78 94.75 190.27 94.75 190.76 94.75 191.25 94.76 191.73 94.76 192.22 94.76 192.71 94.76 193.2 94.76 193.69 94.77 194.17 94.77 194.66 94.77 195.15 94.77 195.64 94.77 196.13 94.77 196.62 94.77 197.1 94.77 197.59 94.77 198.08 94.77" stroke="#3D9AAE" class="geometry color_"/>
        <path fill="none" d="M54.59,94.77 L 55.06 94.77 55.54 94.77 56.01 94.77 56.49 94.77 56.96 94.77 57.44 94.76 57.91 94.76 58.38 94.76 58.86 94.76 59.33 94.76 59.81 94.75 60.28 94.75 60.76 94.75 61.23 94.74 61.71 94.73 62.18 94.72 62.66 94.71 63.13 94.7 63.61 94.69 64.08 94.67 64.56 94.65 65.03 94.63 65.51 94.6 65.98 94.57 66.45 94.53 66.93 94.48 67.4 94.43 67.88 94.37 68.35 94.3 68.83 94.22 69.3 94.13 69.78 94.03 70.25 93.91 70.73 93.78 71.2 93.63 71.68 93.46 72.15 93.27 72.63 93.06 73.1 92.83 73.58 92.57 74.05 92.29 74.52 91.97 75 91.63 75.47 91.25 75.95 90.84 76.42 90.39 76.9 89.91 77.37 89.39 77.85 88.83 78.32 88.24 78.8 87.6 79.27 86.92 79.75 86.21 80.22 85.45 80.7 84.66 81.17 83.83 81.65 82.96 82.12 82.05 82.6 81.11 83.07 80.14 83.54 79.15 84.02 78.12 84.49 77.07 84.97 76.01 85.44 74.92 85.92 73.83 86.39 72.72 86.87 71.61 87.34 70.5 87.82 69.38 88.29 68.28 88.77 67.18 89.24 66.1 89.72 65.04 90.19 64 90.67 62.98 91.14 61.99 91.61 61.03 92.09 60.1 92.56 59.21 93.04 58.36 93.51 57.54 93.99 56.77 94.46 56.05 94.94 55.36 95.41 54.73 95.89 54.14 96.36 53.6 96.84 53.11 97.31 52.66 97.79 52.27 98.26 51.92 98.74 51.63 99.21 51.38 99.68 51.19 100.16 51.04 100.63 50.94 101.11 50.89 101.58 50.88 102.06 50.92 102.53 51.01 103.01 51.14 103.48 51.31 103.96 51.53 104.43 51.78 104.91 52.08 105.38 52.4 105.86 52.77 106.33 53.17 106.81 53.59 107.28 54.05 107.76 54.54 108.23 55.05 108.7 55.58 109.18 56.13 109.65 56.7 110.13 57.28 110.6 57.88 111.08 58.49 111.55 59.12 112.03 59.74 112.5 60.38 112.98 61.02 113.45 61.66 113.93 62.3 114.4 62.95 114.88 63.59 115.35 64.23 115.83 64.86 116.3 65.5 116.77 66.12 117.25 66.74 117.72 67.36 118.2 67.96 118.67 68.56 119.15 69.15 119.62 69.73 120.1 70.31 120.57 70.87 121.05 71.42 121.52 71.96 122 72.49 122.47 73.01 122.95 73.52 123.42 74.01 123.9 74.49 124.37 74.96 124.84 75.41 125.32 75.85 125.79 76.27 126.27 76.68 126.74 77.08 127.22 77.46 127.69 77.83 128.17 78.18 128.64 78.51 129.12 78.83 129.59 79.14 130.07 79.43 130.54 79.71 131.02 79.97 131.49 80.22 131.97 80.46 132.44 80.68 132.92 80.89 133.39 81.09 133.86 81.27 134.34 81.45 134.81 81.61 135.29 81.76 135.76 81.9 136.24 82.02 136.71 82.14 137.19 82.25 137.66 82.34 138.14 82.43 138.61 82.5 139.09 82.56 139.56 82.62 140.04 82.66 140.51 82.69 140.99 82.71 141.46 82.71 141.93 82.71 142.41 82.69 142.88 82.67 143.36 82.63 143.83 82.58 144.31 82.52 144.78 82.45 145.26 82.37 145.73 82.28 146.21 82.18 146.68 82.08 147.16 81.97 147.63 81.85 148.11 81.73 148.58 81.61 149.06 81.48 149.53 81.36 150.01 81.25 150.48 81.13 150.95 81.03 151.43 80.93 151.9 80.85 152.38 80.77 152.85 80.72 153.33 80.68 153.8 80.66 154.28 80.66 154.75 80.68 155.23 80.73 155.7 80.79 156.18 80.89 156.65 81.01 157.13 81.15 157.6 81.33 158.08 81.52 158.55 81.75 159.02 81.99 159.5 82.26 159.97 82.56 160.45 82.87 160.92 83.2 161.4 83.55 161.87 83.92 162.35 84.3 162.82 84.69 163.3 85.1 163.77 85.51 164.25 85.92 164.72 86.34 165.2 86.76 165.67 87.17 166.15 87.59 166.62 88 167.09 88.4 167.57 88.79 168.04 89.18 168.52 89.55 168.99 89.91 169.47 90.26 169.94 90.6 170.42 90.92 170.89 91.22 171.37 91.51 171.84 91.78 172.32 92.04 172.79 92.29 173.27 92.51 173.74 92.72 174.22 92.92 174.69 93.1 175.17 93.27 175.64 93.43 176.11 93.57 176.59 93.7 177.06 93.82 177.54 93.93 178.01 94.03 178.49 94.12 178.96 94.2 179.44 94.27 179.91 94.33 180.39 94.39 180.86 94.44 181.34 94.48 181.81 94.52 182.29 94.56 182.76 94.59 183.24 94.61 183.71 94.64 184.18 94.66 184.66 94.67 185.13 94.69 185.61 94.7 186.08 94.71 186.56 94.72 187.03 94.73 187.51 94.74 187.98 94.74 188.46 94.75 188.93 94.75 189.41 94.75 189.88 94.76 190.36 94.76 190.83 94.76 191.31 94.76 191.78 94.76 192.25 94.76 192.73 94.77 193.2 94.77 193.68 94.77 194.15 94.77 194.63 94.77 195.1 94.77 195.58 94.77 196.05 94.77 196.53 94.77" stroke="#65B0B9" class="geometry color_"/>
        <path fill="none" d="M50.64,94.77 L 51.13 94.77 51.62 94.77 52.11 94.77 52.6 94.77 53.1 94.77 53.59 94.77 54.08 94.76 54.57 94.76 55.06 94.76 55.55 94.76 56.05 94.76 56.54 94.76 57.03 94.75 57.52 94.75 58.01 94.74 58.51 94.74 59 94.73 59.49 94.72 59.98 94.71 60.47 94.7 60.96 94.69 61.46 94.67 61.95 94.66 62.44 94.63 62.93 94.61 63.42 94.58 63.92 94.55 64.41 94.51 64.9 94.46 65.39 94.41 65.88 94.36 66.37 94.29 66.87 94.22 67.36 94.13 67.85 94.04 68.34 93.93 68.83 93.82 69.33 93.69 69.82 93.54 70.31 93.38 70.8 93.2 71.29 93.01 71.78 92.79 72.28 92.56 72.77 92.31 73.26 92.03 73.75 91.73 74.24 91.41 74.74 91.06 75.23 90.69 75.72 90.29 76.21 89.87 76.7 89.42 77.19 88.94 77.69 88.43 78.18 87.89 78.67 87.32 79.16 86.73 79.65 86.1 80.15 85.45 80.64 84.77 81.13 84.06 81.62 83.33 82.11 82.57 82.6 81.78 83.1 80.97 83.59 80.13 84.08 79.27 84.57 78.39 85.06 77.49 85.56 76.58 86.05 75.65 86.54 74.7 87.03 73.74 87.52 72.78 88.01 71.8 88.51 70.82 89 69.84 89.49 68.87 89.98 67.89 90.47 66.93 90.97 65.97 91.46 65.03 91.95 64.1 92.44 63.19 92.93 62.31 93.42 61.46 93.92 60.63 94.41 59.84 94.9 59.08 95.39 58.36 95.88 57.68 96.38 57.05 96.87 56.47 97.36 55.93 97.85 55.44 98.34 55 98.83 54.62 99.33 54.29 99.82 54.02 100.31 53.79 100.8 53.63 101.29 53.52 101.79 53.46 102.28 53.45 102.77 53.49 103.26 53.58 103.75 53.72 104.24 53.91 104.74 54.13 105.23 54.4 105.72 54.71 106.21 55.05 106.7 55.42 107.2 55.83 107.69 56.26 108.18 56.71 108.67 57.19 109.16 57.68 109.65 58.2 110.15 58.72 110.64 59.26 111.13 59.81 111.62 60.36 112.11 60.93 112.61 61.49 113.1 62.06 113.59 62.63 114.08 63.2 114.57 63.76 115.07 64.33 115.56 64.89 116.05 65.45 116.54 66 117.03 66.55 117.52 67.09 118.02 67.63 118.51 68.15 119 68.68 119.49 69.19 119.98 69.7 120.48 70.19 120.97 70.68 121.46 71.16 121.95 71.63 122.44 72.09 122.93 72.54 123.43 72.98 123.92 73.41 124.41 73.83 124.9 74.24 125.39 74.63 125.89 75.01 126.38 75.38 126.87 75.73 127.36 76.08 127.85 76.4 128.34 76.72 128.84 77.02 129.33 77.3 129.82 77.57 130.31 77.83 130.8 78.07 131.3 78.3 131.79 78.52 132.28 78.72 132.77 78.9 133.26 79.07 133.75 79.23 134.25 79.38 134.74 79.51 135.23 79.64 135.72 79.75 136.21 79.84 136.71 79.93 137.2 80.01 137.69 80.07 138.18 80.13 138.67 80.18 139.16 80.22 139.66 80.25 140.15 80.27 140.64 80.28 141.13 80.28 141.62 80.28 142.12 80.27 142.61 80.25 143.1 80.23 143.59 80.2 144.08 80.17 144.57 80.13 145.07 80.08 145.56 80.04 146.05 79.99 146.54 79.93 147.03 79.88 147.53 79.83 148.02 79.77 148.51 79.72 149 79.68 149.49 79.63 149.98 79.6 150.48 79.57 150.97 79.55 151.46 79.54 151.95 79.54 152.44 79.56 152.94 79.59 153.43 79.64 153.92 79.71 154.41 79.79 154.9 79.9 155.39 80.02 155.89 80.17 156.38 80.34 156.87 80.53 157.36 80.74 157.85 80.97 158.35 81.23 158.84 81.51 159.33 81.8 159.82 82.12 160.31 82.45 160.8 82.81 161.3 83.17 161.79 83.56 162.28 83.95 162.77 84.35 163.26 84.77 163.76 85.19 164.25 85.61 164.74 86.04 165.23 86.46 165.72 86.89 166.21 87.31 166.71 87.73 167.2 88.14 167.69 88.54 168.18 88.94 168.67 89.32 169.17 89.69 169.66 90.05 170.15 90.39 170.64 90.72 171.13 91.04 171.62 91.34 172.12 91.62 172.61 91.89 173.1 92.14 173.59 92.38 174.08 92.6 174.58 92.81 175.07 93 175.56 93.18 176.05 93.34 176.54 93.49 177.03 93.63 177.53 93.76 178.02 93.87 178.51 93.98 179 94.07 179.49 94.16 179.99 94.23 180.48 94.3 180.97 94.36 181.46 94.41 181.95 94.46 182.44 94.5 182.94 94.54 183.43 94.57 183.92 94.6 184.41 94.63 184.9 94.65 185.4 94.67 185.89 94.68 186.38 94.7 186.87 94.71 187.36 94.72 187.85 94.73 188.35 94.73 188.84 94.74 189.33 94.74 189.82 94.75 190.31 94.75 190.81 94.76 191.3 94.76 191.79 94.76 192.28 94.76 192.77 94.76 193.26 94.76 193.76 94.77 194.25 94.77 194.74 94.77 195.23 94.77 195.72 94.77 196.22 94.77 196.71 94.77 197.2 94.77 197.69 94.77" stroke="#88C4C4" class="geometry color_"/>
        <path fill="none" d="M43.41,94.77 L 43.92 94.77 44.43 94.77 44.94 94.77 45.46 94.77 45.97 94.77 46.48 94.77 46.99 94.77 47.5 94.77 48.02 94.77 48.53 94.77 49.04 94.76 49.55 94.76 50.07 94.76 50.58 94.76 51.09 94.76 51.6 94.76 52.11 94.75 52.63 94.75 53.14 94.74 53.65 94.74 54.16 94.73 54.68 94.73 55.19 94.72 55.7 94.71 56.21 94.7 56.72 94.69 57.24 94.68 57.75 94.66 58.26 94.64 58.77 94.62 59.29 94.6 59.8 94.58 60.31 94.55 60.82 94.52 61.33 94.48 61.85 94.44 62.36 94.4 62.87 94.35 63.38 94.3 63.9 94.25 64.41 94.18 64.92 94.12 65.43 94.04 65.94 93.96 66.46 93.88 66.97 93.78 67.48 93.68 67.99 93.58 68.51 93.46 69.02 93.33 69.53 93.19 70.04 93.05 70.55 92.89 71.07 92.72 71.58 92.53 72.09 92.33 72.6 92.12 73.12 91.89 73.63 91.64 74.14 91.37 74.65 91.08 75.16 90.76 75.68 90.43 76.19 90.06 76.7 89.67 77.21 89.24 77.73 88.79 78.24 88.3 78.75 87.78 79.26 87.22 79.77 86.63 80.29 85.99 80.8 85.32 81.31 84.61 81.82 83.86 82.34 83.07 82.85 82.24 83.36 81.37 83.87 80.47 84.38 79.53 84.9 78.56 85.41 77.55 85.92 76.53 86.43 75.47 86.95 74.4 87.46 73.31 87.97 72.21 88.48 71.1 88.99 69.99 89.51 68.88 90.02 67.77 90.53 66.68 91.04 65.61 91.56 64.56 92.07 63.53 92.58 62.54 93.09 61.58 93.6 60.67 94.12 59.79 94.63 58.97 95.14 58.19 95.65 57.47 96.17 56.8 96.68 56.2 97.19 55.65 97.7 55.16 98.21 54.73 98.73 54.36 99.24 54.06 99.75 53.82 100.26 53.64 100.78 53.52 101.29 53.45 101.8 53.45 102.31 53.5 102.82 53.6 103.34 53.76 103.85 53.97 104.36 54.22 104.87 54.51 105.39 54.85 105.9 55.23 106.41 55.64 106.92 56.08 107.43 56.55 107.95 57.05 108.46 57.57 108.97 58.11 109.48 58.67 110 59.24 110.51 59.82 111.02 60.42 111.53 61.01 112.04 61.62 112.56 62.22 113.07 62.83 113.58 63.43 114.09 64.03 114.61 64.63 115.12 65.22 115.63 65.8 116.14 66.38 116.65 66.95 117.17 67.52 117.68 68.07 118.19 68.62 118.7 69.16 119.22 69.7 119.73 70.22 120.24 70.74 120.75 71.25 121.26 71.75 121.78 72.24 122.29 72.72 122.8 73.19 123.31 73.66 123.83 74.11 124.34 74.55 124.85 74.97 125.36 75.39 125.87 75.78 126.39 76.16 126.9 76.52 127.41 76.87 127.92 77.19 128.44 77.5 128.95 77.78 129.46 78.03 129.97 78.27 130.48 78.48 131 78.67 131.51 78.83 132.02 78.97 132.53 79.08 133.05 79.17 133.56 79.24 134.07 79.28 134.58 79.31 135.09 79.31 135.61 79.3 136.12 79.26 136.63 79.22 137.14 79.15 137.66 79.08 138.17 78.99 138.68 78.9 139.19 78.8 139.7 78.69 140.22 78.58 140.73 78.47 141.24 78.36 141.75 78.25 142.27 78.14 142.78 78.03 143.29 77.93 143.8 77.84 144.31 77.75 144.83 77.67 145.34 77.6 145.85 77.54 146.36 77.49 146.88 77.46 147.39 77.44 147.9 77.43 148.41 77.44 148.92 77.46 149.44 77.5 149.95 77.56 150.46 77.63 150.97 77.73 151.49 77.85 152 77.98 152.51 78.14 153.02 78.32 153.53 78.52 154.05 78.74 154.56 78.99 155.07 79.26 155.58 79.55 156.1 79.86 156.61 80.19 157.12 80.54 157.63 80.91 158.14 81.3 158.66 81.7 159.17 82.12 159.68 82.56 160.19 83 160.71 83.46 161.22 83.92 161.73 84.39 162.24 84.86 162.75 85.33 163.27 85.81 163.78 86.28 164.29 86.75 164.8 87.21 165.32 87.66 165.83 88.11 166.34 88.54 166.85 88.96 167.36 89.37 167.88 89.76 168.39 90.14 168.9 90.5 169.41 90.84 169.93 91.17 170.44 91.48 170.95 91.77 171.46 92.04 171.97 92.3 172.49 92.54 173 92.76 173.51 92.96 174.02 93.15 174.54 93.32 175.05 93.48 175.56 93.63 176.07 93.76 176.58 93.88 177.1 93.99 177.61 94.08 178.12 94.17 178.63 94.25 179.15 94.32 179.66 94.38 180.17 94.43 180.68 94.48 181.19 94.52 181.71 94.56 182.22 94.59 182.73 94.62 183.24 94.64 183.76 94.66 184.27 94.68 184.78 94.69 185.29 94.71 185.8 94.72 186.32 94.73 186.83 94.73 187.34 94.74 187.85 94.74 188.37 94.75 188.88 94.75 189.39 94.76 189.9 94.76 190.41 94.76 190.93 94.76 191.44 94.76 191.95 94.77 192.46 94.77 192.98 94.77 193.49 94.77 194 94.77 194.51 94.77 195.02 94.77 195.54 94.77 196.05 94.77 196.56 94.77" stroke="#A3CFC8" class="geometry color_"/>
        <path fill="none" d="M51.83,94.77 L 52.3 94.77 52.78 94.77 53.25 94.77 53.73 94.77 54.2 94.77 54.67 94.77 55.15 94.77 55.62 94.77 56.1 94.77 56.57 94.76 57.05 94.76 57.52 94.76 58 94.76 58.47 94.76 58.95 94.75 59.42 94.75 59.89 94.75 60.37 94.74 60.84 94.73 61.32 94.73 61.79 94.72 62.27 94.71 62.74 94.69 63.22 94.68 63.69 94.66 64.17 94.64 64.64 94.62 65.11 94.59 65.59 94.55 66.06 94.51 66.54 94.47 67.01 94.42 67.49 94.36 67.96 94.29 68.44 94.21 68.91 94.13 69.39 94.03 69.86 93.91 70.33 93.79 70.81 93.64 71.28 93.48 71.76 93.3 72.23 93.1 72.71 92.88 73.18 92.63 73.66 92.36 74.13 92.06 74.61 91.73 75.08 91.37 75.55 90.97 76.03 90.54 76.5 90.08 76.98 89.57 77.45 89.03 77.93 88.44 78.4 87.82 78.88 87.15 79.35 86.44 79.82 85.68 80.3 84.89 80.77 84.04 81.25 83.16 81.72 82.23 82.2 81.27 82.67 80.26 83.15 79.22 83.62 78.14 84.1 77.03 84.57 75.9 85.04 74.74 85.52 73.55 85.99 72.35 86.47 71.14 86.94 69.93 87.42 68.7 87.89 67.49 88.37 66.28 88.84 65.08 89.32 63.9 89.79 62.75 90.26 61.62 90.74 60.53 91.21 59.47 91.69 58.46 92.16 57.5 92.64 56.59 93.11 55.73 93.59 54.93 94.06 54.19 94.54 53.51 95.01 52.89 95.48 52.34 95.96 51.85 96.43 51.43 96.91 51.08 97.38 50.78 97.86 50.55 98.33 50.38 98.81 50.27 99.28 50.22 99.76 50.23 100.23 50.28 100.7 50.39 101.18 50.54 101.65 50.74 102.13 50.98 102.6 51.26 103.08 51.57 103.55 51.92 104.03 52.3 104.5 52.71 104.98 53.15 105.45 53.61 105.92 54.09 106.4 54.59 106.87 55.11 107.35 55.65 107.82 56.2 108.3 56.77 108.77 57.35 109.25 57.94 109.72 58.55 110.2 59.16 110.67 59.78 111.14 60.41 111.62 61.05 112.09 61.69 112.57 62.34 113.04 62.99 113.52 63.64 113.99 64.3 114.47 64.96 114.94 65.61 115.42 66.27 115.89 66.93 116.36 67.58 116.84 68.23 117.31 68.87 117.79 69.51 118.26 70.14 118.74 70.77 119.21 71.38 119.69 71.98 120.16 72.57 120.63 73.14 121.11 73.7 121.58 74.25 122.06 74.78 122.53 75.28 123.01 75.77 123.48 76.24 123.96 76.69 124.43 77.12 124.91 77.52 125.38 77.91 125.85 78.27 126.33 78.6 126.8 78.91 127.28 79.2 127.75 79.47 128.23 79.71 128.7 79.93 129.18 80.12 129.65 80.3 130.13 80.46 130.6 80.59 131.07 80.71 131.55 80.81 132.02 80.9 132.5 80.97 132.97 81.02 133.45 81.07 133.92 81.1 134.4 81.13 134.87 81.14 135.35 81.15 135.82 81.15 136.29 81.15 136.77 81.14 137.24 81.13 137.72 81.12 138.19 81.1 138.67 81.09 139.14 81.07 139.62 81.05 140.09 81.03 140.57 81.01 141.04 80.99 141.51 80.97 141.99 80.94 142.46 80.92 142.94 80.9 143.41 80.87 143.89 80.84 144.36 80.81 144.84 80.78 145.31 80.74 145.79 80.7 146.26 80.66 146.73 80.62 147.21 80.58 147.68 80.54 148.16 80.49 148.63 80.45 149.11 80.41 149.58 80.37 150.06 80.34 150.53 80.31 151.01 80.29 151.48 80.28 151.95 80.28 152.43 80.29 152.9 80.31 153.38 80.35 153.85 80.4 154.33 80.47 154.8 80.57 155.28 80.68 155.75 80.81 156.23 80.96 156.7 81.13 157.17 81.33 157.65 81.55 158.12 81.79 158.6 82.06 159.07 82.34 159.55 82.65 160.02 82.97 160.5 83.32 160.97 83.68 161.44 84.05 161.92 84.44 162.39 84.84 162.87 85.25 163.34 85.67 163.82 86.09 164.29 86.51 164.77 86.94 165.24 87.36 165.72 87.78 166.19 88.2 166.66 88.61 167.14 89.01 167.61 89.4 168.09 89.78 168.56 90.14 169.04 90.49 169.51 90.83 169.99 91.15 170.46 91.46 170.94 91.75 171.41 92.02 171.88 92.27 172.36 92.51 172.83 92.74 173.31 92.94 173.78 93.13 174.26 93.31 174.73 93.47 175.21 93.62 175.68 93.75 176.16 93.87 176.63 93.98 177.1 94.08 177.58 94.17 178.05 94.24 178.53 94.31 179 94.38 179.48 94.43 179.95 94.48 180.43 94.52 180.9 94.56 181.38 94.59 181.85 94.62 182.32 94.64 182.8 94.66 183.27 94.68 183.75 94.69 184.22 94.71 184.7 94.72 185.17 94.73 185.65 94.73 186.12 94.74 186.6 94.75 187.07 94.75 187.54 94.75 188.02 94.76 188.49 94.76 188.97 94.76 189.44 94.76 189.92 94.76 190.39 94.77 190.87 94.77 191.34 94.77 191.82 94.77 192.29 94.77 192.76 94.77 193.24 94.77 193.71 94.77" stroke="#AFCDC3" class="geometry color_"/>
        <path fill="none" d="M55.5,94.77 L 55.96 94.77 56.41 94.77 56.86 94.77 57.32 94.77 57.77 94.77 58.22 94.77 58.67 94.76 59.13 94.76 59.58 94.76 60.03 94.76 60.49 94.76 60.94 94.75 61.39 94.75 61.85 94.75 62.3 94.74 62.75 94.73 63.21 94.72 63.66 94.71 64.11 94.7 64.56 94.69 65.02 94.67 65.47 94.65 65.92 94.62 66.38 94.59 66.83 94.56 67.28 94.52 67.74 94.47 68.19 94.41 68.64 94.35 69.09 94.27 69.55 94.18 70 94.08 70.45 93.96 70.91 93.83 71.36 93.68 71.81 93.51 72.27 93.32 72.72 93.1 73.17 92.85 73.63 92.58 74.08 92.27 74.53 91.93 74.98 91.55 75.44 91.14 75.89 90.68 76.34 90.18 76.8 89.63 77.25 89.03 77.7 88.38 78.16 87.68 78.61 86.92 79.06 86.11 79.52 85.24 79.97 84.31 80.42 83.33 80.87 82.29 81.33 81.19 81.78 80.03 82.23 78.83 82.69 77.57 83.14 76.26 83.59 74.9 84.05 73.51 84.5 72.08 84.95 70.62 85.4 69.13 85.86 67.62 86.31 66.1 86.76 64.58 87.22 63.06 87.67 61.55 88.12 60.05 88.58 58.58 89.03 57.15 89.48 55.76 89.94 54.41 90.39 53.13 90.84 51.9 91.29 50.75 91.75 49.67 92.2 48.67 92.65 47.76 93.11 46.94 93.56 46.21 94.01 45.57 94.47 45.03 94.92 44.59 95.37 44.24 95.83 43.99 96.28 43.83 96.73 43.76 97.18 43.78 97.64 43.89 98.09 44.07 98.54 44.33 99 44.66 99.45 45.05 99.9 45.51 100.36 46.02 100.81 46.57 101.26 47.17 101.71 47.81 102.17 48.48 102.62 49.18 103.07 49.91 103.53 50.65 103.98 51.4 104.43 52.17 104.89 52.94 105.34 53.72 105.79 54.49 106.25 55.27 106.7 56.04 107.15 56.81 107.6 57.57 108.06 58.32 108.51 59.06 108.96 59.79 109.42 60.5 109.87 61.21 110.32 61.91 110.78 62.59 111.23 63.26 111.68 63.91 112.13 64.56 112.59 65.19 113.04 65.81 113.49 66.42 113.95 67.01 114.4 67.59 114.85 68.17 115.31 68.73 115.76 69.28 116.21 69.82 116.67 70.35 117.12 70.87 117.57 71.38 118.02 71.87 118.48 72.36 118.93 72.84 119.38 73.31 119.84 73.77 120.29 74.23 120.74 74.67 121.2 75.1 121.65 75.53 122.1 75.94 122.56 76.34 123.01 76.74 123.46 77.12 123.91 77.5 124.37 77.86 124.82 78.22 125.27 78.56 125.73 78.89 126.18 79.21 126.63 79.52 127.09 79.82 127.54 80.1 127.99 80.37 128.44 80.63 128.9 80.88 129.35 81.11 129.8 81.32 130.26 81.53 130.71 81.72 131.16 81.9 131.62 82.06 132.07 82.21 132.52 82.35 132.98 82.47 133.43 82.59 133.88 82.69 134.33 82.78 134.79 82.86 135.24 82.93 135.69 83 136.15 83.06 136.6 83.11 137.05 83.15 137.51 83.19 137.96 83.22 138.41 83.25 138.87 83.28 139.32 83.3 139.77 83.33 140.22 83.34 140.68 83.36 141.13 83.37 141.58 83.39 142.04 83.4 142.49 83.4 142.94 83.41 143.4 83.41 143.85 83.41 144.3 83.41 144.75 83.4 145.21 83.39 145.66 83.38 146.11 83.36 146.57 83.34 147.02 83.32 147.47 83.29 147.93 83.26 148.38 83.23 148.83 83.2 149.29 83.17 149.74 83.14 150.19 83.11 150.64 83.08 151.1 83.06 151.55 83.04 152 83.03 152.46 83.03 152.91 83.04 153.36 83.06 153.82 83.09 154.27 83.13 154.72 83.19 155.18 83.27 155.63 83.37 156.08 83.48 156.53 83.61 156.99 83.76 157.44 83.92 157.89 84.11 158.35 84.32 158.8 84.54 159.25 84.78 159.71 85.04 160.16 85.31 160.61 85.6 161.06 85.9 161.52 86.22 161.97 86.54 162.42 86.87 162.88 87.21 163.33 87.56 163.78 87.91 164.24 88.26 164.69 88.61 165.14 88.95 165.6 89.3 166.05 89.64 166.5 89.97 166.95 90.3 167.41 90.61 167.86 90.92 168.31 91.21 168.77 91.5 169.22 91.77 169.67 92.02 170.13 92.27 170.58 92.49 171.03 92.71 171.48 92.91 171.94 93.1 172.39 93.27 172.84 93.43 173.3 93.58 173.75 93.71 174.2 93.83 174.66 93.94 175.11 94.05 175.56 94.14 176.02 94.22 176.47 94.29 176.92 94.35 177.37 94.41 177.83 94.46 178.28 94.51 178.73 94.54 179.19 94.58 179.64 94.61 180.09 94.63 180.55 94.65 181 94.67 181.45 94.69 181.91 94.7 182.36 94.71 182.81 94.72 183.26 94.73 183.72 94.74 184.17 94.74 184.62 94.75 185.08 94.75 185.53 94.76 185.98 94.76 186.44 94.76 186.89 94.76 187.34 94.76 187.79 94.77 188.25 94.77 188.7 94.77 189.15 94.77 189.61 94.77 190.06 94.77 190.51 94.77 190.97 94.77" stroke="#B6CBC0" class="geometry color_"/>
        <path fill="none" d="M60.52,94.77 L 60.94 94.77 61.37 94.77 61.8 94.77 62.22 94.77 62.65 94.77 63.07 94.76 63.5 94.76 63.92 94.76 64.35 94.76 64.78 94.75 65.2 94.75 65.63 94.75 66.05 94.74 66.48 94.73 66.9 94.72 67.33 94.71 67.76 94.7 68.18 94.68 68.61 94.66 69.03 94.63 69.46 94.6 69.88 94.57 70.31 94.52 70.74 94.47 71.16 94.41 71.59 94.34 72.01 94.25 72.44 94.16 72.86 94.04 73.29 93.91 73.72 93.76 74.14 93.58 74.57 93.38 74.99 93.15 75.42 92.89 75.84 92.6 76.27 92.26 76.7 91.89 77.12 91.47 77.55 91 77.97 90.49 78.4 89.92 78.82 89.29 79.25 88.59 79.68 87.84 80.1 87.02 80.53 86.13 80.95 85.17 81.38 84.14 81.8 83.04 82.23 81.86 82.66 80.61 83.08 79.29 83.51 77.9 83.93 76.45 84.36 74.93 84.78 73.36 85.21 71.73 85.64 70.05 86.06 68.34 86.49 66.59 86.91 64.81 87.34 63.02 87.76 61.22 88.19 59.43 88.62 57.64 89.04 55.88 89.47 54.15 89.89 52.46 90.32 50.82 90.74 49.25 91.17 47.74 91.6 46.32 92.02 44.98 92.45 43.73 92.87 42.58 93.3 41.54 93.72 40.6 94.15 39.78 94.58 39.08 95 38.49 95.43 38.01 95.85 37.66 96.28 37.42 96.7 37.29 97.13 37.27 97.56 37.35 97.98 37.54 98.41 37.82 98.83 38.2 99.26 38.66 99.68 39.19 100.11 39.8 100.54 40.47 100.96 41.21 101.39 41.99 101.81 42.82 102.24 43.69 102.66 44.6 103.09 45.53 103.52 46.49 103.94 47.47 104.37 48.45 104.79 49.45 105.22 50.46 105.64 51.46 106.07 52.46 106.5 53.46 106.92 54.46 107.35 55.44 107.77 56.41 108.2 57.37 108.62 58.32 109.05 59.25 109.48 60.17 109.9 61.08 110.33 61.96 110.75 62.83 111.18 63.68 111.6 64.52 112.03 65.33 112.46 66.13 112.88 66.91 113.31 67.67 113.73 68.42 114.16 69.14 114.59 69.84 115.01 70.53 115.44 71.19 115.86 71.83 116.29 72.45 116.71 73.05 117.14 73.63 117.57 74.18 117.99 74.71 118.42 75.22 118.84 75.7 119.27 76.16 119.69 76.6 120.12 77.01 120.55 77.39 120.97 77.76 121.4 78.1 121.82 78.41 122.25 78.71 122.67 78.98 123.1 79.23 123.53 79.47 123.95 79.69 124.38 79.89 124.8 80.08 125.23 80.25 125.65 80.41 126.08 80.57 126.51 80.71 126.93 80.84 127.36 80.97 127.78 81.1 128.21 81.22 128.63 81.33 129.06 81.44 129.49 81.55 129.91 81.66 130.34 81.77 130.76 81.87 131.19 81.97 131.61 82.07 132.04 82.17 132.47 82.27 132.89 82.36 133.32 82.46 133.74 82.55 134.17 82.63 134.59 82.72 135.02 82.8 135.45 82.88 135.87 82.95 136.3 83.02 136.72 83.09 137.15 83.16 137.57 83.22 138 83.28 138.43 83.33 138.85 83.38 139.28 83.43 139.7 83.48 140.13 83.52 140.55 83.56 140.98 83.6 141.41 83.63 141.83 83.66 142.26 83.68 142.68 83.7 143.11 83.72 143.53 83.73 143.96 83.73 144.39 83.73 144.81 83.72 145.24 83.71 145.66 83.69 146.09 83.67 146.51 83.64 146.94 83.6 147.37 83.57 147.79 83.52 148.22 83.48 148.64 83.44 149.07 83.39 149.49 83.34 149.92 83.3 150.35 83.26 150.77 83.23 151.2 83.2 151.62 83.17 152.05 83.16 152.47 83.16 152.9 83.17 153.33 83.19 153.75 83.22 154.18 83.27 154.6 83.34 155.03 83.42 155.45 83.52 155.88 83.64 156.31 83.77 156.73 83.93 157.16 84.1 157.58 84.29 158.01 84.5 158.43 84.72 158.86 84.97 159.29 85.22 159.71 85.5 160.14 85.79 160.56 86.09 160.99 86.4 161.41 86.72 161.84 87.05 162.27 87.39 162.69 87.73 163.12 88.08 163.54 88.43 163.97 88.78 164.39 89.12 164.82 89.46 165.25 89.8 165.67 90.13 166.1 90.46 166.52 90.77 166.95 91.07 167.37 91.37 167.8 91.65 168.23 91.91 168.65 92.17 169.08 92.41 169.5 92.63 169.93 92.84 170.35 93.04 170.78 93.22 171.21 93.39 171.63 93.54 172.06 93.69 172.48 93.81 172.91 93.93 173.33 94.04 173.76 94.13 174.19 94.22 174.61 94.29 175.04 94.36 175.46 94.42 175.89 94.47 176.31 94.51 176.74 94.55 177.17 94.59 177.59 94.62 178.02 94.64 178.44 94.66 178.87 94.68 179.29 94.7 179.72 94.71 180.15 94.72 180.57 94.73 181 94.74 181.42 94.74 181.85 94.75 182.27 94.75 182.7 94.76 183.13 94.76 183.55 94.76 183.98 94.76 184.4 94.76 184.83 94.77 185.25 94.77 185.68 94.77 186.11 94.77 186.53 94.77 186.96 94.77 187.38 94.77 187.81 94.77" stroke="#BACBBC" class="geometry color_"/>
        <path fill="none" d="M65.3,94.77 L 65.7 94.77 66.1 94.77 66.5 94.77 66.9 94.76 67.3 94.76 67.7 94.76 68.1 94.76 68.5 94.75 68.9 94.75 69.3 94.74 69.7 94.74 70.1 94.73 70.5 94.72 70.9 94.7 71.3 94.69 71.7 94.67 72.1 94.64 72.5 94.61 72.9 94.57 73.3 94.52 73.7 94.47 74.1 94.4 74.5 94.32 74.9 94.22 75.3 94.11 75.7 93.97 76.1 93.82 76.5 93.63 76.9 93.42 77.3 93.17 77.7 92.88 78.1 92.56 78.5 92.18 78.9 91.76 79.3 91.28 79.7 90.74 80.1 90.13 80.5 89.45 80.9 88.7 81.3 87.87 81.7 86.96 82.1 85.96 82.5 84.86 82.9 83.68 83.3 82.4 83.7 81.02 84.1 79.54 84.5 77.97 84.9 76.3 85.3 74.54 85.7 72.7 86.1 70.77 86.5 68.76 86.9 66.68 87.3 64.55 87.7 62.36 88.1 60.13 88.5 57.88 88.9 55.6 89.3 53.33 89.7 51.07 90.1 48.83 90.5 46.64 90.9 44.5 91.3 42.43 91.7 40.44 92.1 38.56 92.5 36.78 92.9 35.12 93.3 33.6 93.7 32.21 94.1 30.98 94.5 29.91 94.9 29 95.3 28.25 95.7 27.67 96.1 27.26 96.5 27.01 96.9 26.93 97.3 27.01 97.7 27.24 98.1 27.62 98.5 28.14 98.9 28.79 99.3 29.57 99.7 30.46 100.1 31.44 100.5 32.52 100.9 33.68 101.3 34.91 101.7 36.2 102.1 37.54 102.5 38.92 102.89 40.33 103.29 41.75 103.69 43.2 104.09 44.65 104.49 46.09 104.89 47.53 105.29 48.96 105.69 50.37 106.09 51.77 106.49 53.13 106.89 54.47 107.29 55.79 107.69 57.07 108.09 58.32 108.49 59.53 108.89 60.71 109.29 61.86 109.69 62.98 110.09 64.06 110.49 65.11 110.89 66.12 111.29 67.11 111.69 68.05 112.09 68.97 112.49 69.86 112.89 70.71 113.29 71.53 113.69 72.32 114.09 73.07 114.49 73.8 114.89 74.49 115.29 75.15 115.69 75.77 116.09 76.36 116.49 76.92 116.89 77.44 117.29 77.93 117.69 78.38 118.09 78.8 118.49 79.18 118.89 79.52 119.29 79.83 119.69 80.11 120.09 80.35 120.49 80.55 120.89 80.73 121.29 80.87 121.69 80.98 122.09 81.07 122.49 81.13 122.89 81.17 123.29 81.19 123.69 81.19 124.09 81.18 124.49 81.16 124.89 81.13 125.29 81.09 125.69 81.06 126.09 81.02 126.49 80.99 126.89 80.97 127.29 80.95 127.69 80.94 128.09 80.95 128.49 80.97 128.89 81 129.29 81.05 129.69 81.11 130.09 81.19 130.49 81.28 130.89 81.38 131.29 81.5 131.69 81.62 132.09 81.76 132.49 81.9 132.89 82.05 133.29 82.21 133.69 82.36 134.09 82.52 134.49 82.68 134.89 82.84 135.29 83 135.69 83.15 136.09 83.3 136.49 83.45 136.89 83.59 137.29 83.73 137.69 83.86 138.09 83.99 138.49 84.11 138.89 84.23 139.29 84.34 139.69 84.44 140.09 84.54 140.49 84.63 140.89 84.72 141.29 84.8 141.69 84.87 142.09 84.94 142.49 84.99 142.89 85.04 143.29 85.07 143.69 85.1 144.09 85.11 144.49 85.11 144.89 85.1 145.29 85.08 145.69 85.04 146.09 85 146.49 84.94 146.89 84.87 147.29 84.79 147.69 84.71 148.09 84.61 148.49 84.51 148.89 84.41 149.29 84.31 149.69 84.2 150.09 84.1 150.49 84 150.89 83.91 151.29 83.82 151.69 83.75 152.09 83.68 152.49 83.63 152.89 83.59 153.29 83.57 153.69 83.56 154.09 83.57 154.49 83.6 154.89 83.64 155.29 83.71 155.69 83.79 156.09 83.89 156.49 84.02 156.89 84.16 157.29 84.32 157.69 84.5 158.09 84.69 158.49 84.91 158.89 85.14 159.29 85.38 159.69 85.65 160.09 85.92 160.49 86.21 160.89 86.52 161.29 86.83 161.69 87.15 162.09 87.48 162.49 87.82 162.89 88.16 163.29 88.5 163.69 88.85 164.09 89.19 164.49 89.53 164.89 89.87 165.29 90.2 165.69 90.53 166.09 90.84 166.49 91.15 166.89 91.45 167.29 91.73 167.69 92 168.09 92.26 168.49 92.5 168.89 92.72 169.29 92.94 169.69 93.13 170.09 93.31 170.49 93.48 170.89 93.63 171.29 93.77 171.69 93.9 172.09 94.01 172.49 94.11 172.89 94.21 173.29 94.29 173.69 94.36 174.09 94.42 174.49 94.47 174.89 94.52 175.29 94.56 175.69 94.59 176.09 94.62 176.49 94.65 176.89 94.67 177.29 94.69 177.69 94.7 178.09 94.72 178.49 94.73 178.89 94.73 179.29 94.74 179.69 94.75 180.09 94.75 180.49 94.76 180.89 94.76 181.29 94.76 181.69 94.76 182.09 94.76 182.49 94.77 182.89 94.77 183.29 94.77 183.69 94.77 184.09 94.77 184.49 94.77 184.89 94.77" stroke="#BECAB9" class="geometry color_"/>
        <path fill="none" d="M64.99,94.77 L 65.39 94.77 65.79 94.77 66.19 94.77 66.6 94.76 67 94.76 67.4 94.76 67.8 94.76 68.2 94.76 68.61 94.75 69.01 94.75 69.41 94.74 69.81 94.73 70.22 94.72 70.62 94.71 71.02 94.7 71.42 94.68 71.82 94.66 72.23 94.63 72.63 94.59 73.03 94.55 73.43 94.5 73.83 94.44 74.24 94.37 74.64 94.29 75.04 94.19 75.44 94.07 75.84 93.93 76.25 93.77 76.65 93.58 77.05 93.36 77.45 93.11 77.85 92.82 78.26 92.49 78.66 92.11 79.06 91.68 79.46 91.2 79.86 90.65 80.27 90.04 80.67 89.36 81.07 88.6 81.47 87.77 81.87 86.85 82.28 85.84 82.68 84.75 83.08 83.56 83.48 82.28 83.88 80.9 84.29 79.42 84.69 77.85 85.09 76.18 85.49 74.42 85.89 72.57 86.3 70.64 86.7 68.63 87.1 66.55 87.5 64.4 87.9 62.21 88.31 59.98 88.71 57.71 89.11 55.43 89.51 53.14 89.91 50.87 90.32 48.61 90.72 46.4 91.12 44.23 91.52 42.13 91.92 40.12 92.33 38.19 92.73 36.38 93.13 34.68 93.53 33.11 93.93 31.69 94.34 30.41 94.74 29.29 95.14 28.33 95.54 27.54 95.95 26.92 96.35 26.47 96.75 26.2 97.15 26.1 97.55 26.17 97.96 26.41 98.36 26.8 98.76 27.36 99.16 28.06 99.56 28.9 99.97 29.87 100.37 30.96 100.77 32.17 101.17 33.47 101.57 34.87 101.98 36.34 102.38 37.88 102.78 39.48 103.18 41.12 103.58 42.79 103.99 44.48 104.39 46.19 104.79 47.89 105.19 49.59 105.59 51.27 106 52.92 106.4 54.54 106.8 56.12 107.2 57.65 107.6 59.12 108.01 60.54 108.41 61.9 108.81 63.18 109.21 64.41 109.61 65.56 110.02 66.64 110.42 67.65 110.82 68.59 111.22 69.46 111.62 70.26 112.03 71 112.43 71.68 112.83 72.3 113.23 72.86 113.63 73.38 114.04 73.84 114.44 74.27 114.84 74.65 115.24 75 115.64 75.32 116.05 75.61 116.45 75.88 116.85 76.13 117.25 76.36 117.65 76.57 118.06 76.78 118.46 76.97 118.86 77.16 119.26 77.34 119.67 77.51 120.07 77.68 120.47 77.84 120.87 78 121.27 78.16 121.68 78.31 122.08 78.46 122.48 78.6 122.88 78.74 123.28 78.88 123.69 79.01 124.09 79.14 124.49 79.26 124.89 79.38 125.29 79.49 125.7 79.6 126.1 79.7 126.5 79.81 126.9 79.9 127.3 80 127.71 80.09 128.11 80.19 128.51 80.28 128.91 80.37 129.31 80.46 129.72 80.56 130.12 80.65 130.52 80.75 130.92 80.86 131.32 80.96 131.73 81.08 132.13 81.19 132.53 81.31 132.93 81.44 133.33 81.57 133.74 81.71 134.14 81.85 134.54 82 134.94 82.15 135.34 82.31 135.75 82.47 136.15 82.63 136.55 82.8 136.95 82.96 137.35 83.13 137.76 83.3 138.16 83.47 138.56 83.64 138.96 83.8 139.36 83.96 139.77 84.12 140.17 84.27 140.57 84.41 140.97 84.55 141.37 84.67 141.78 84.79 142.18 84.9 142.58 84.99 142.98 85.08 143.39 85.15 143.79 85.2 144.19 85.25 144.59 85.27 144.99 85.29 145.4 85.29 145.8 85.28 146.2 85.25 146.6 85.21 147 85.16 147.41 85.1 147.81 85.03 148.21 84.95 148.61 84.87 149.01 84.78 149.42 84.69 149.82 84.6 150.22 84.51 150.62 84.42 151.02 84.34 151.43 84.27 151.83 84.2 152.23 84.15 152.63 84.1 153.03 84.07 153.44 84.06 153.84 84.06 154.24 84.07 154.64 84.11 155.04 84.16 155.45 84.23 155.85 84.32 156.25 84.43 156.65 84.55 157.05 84.7 157.46 84.86 157.86 85.04 158.26 85.24 158.66 85.46 159.06 85.69 159.47 85.93 159.87 86.19 160.27 86.46 160.67 86.75 161.07 87.04 161.48 87.34 161.88 87.65 162.28 87.97 162.68 88.29 163.08 88.61 163.49 88.93 163.89 89.26 164.29 89.58 164.69 89.9 165.09 90.21 165.5 90.52 165.9 90.82 166.3 91.11 166.7 91.39 167.11 91.66 167.51 91.92 167.91 92.17 168.31 92.4 168.71 92.62 169.12 92.83 169.52 93.03 169.92 93.21 170.32 93.37 170.72 93.53 171.13 93.67 171.53 93.8 171.93 93.92 172.33 94.02 172.73 94.12 173.14 94.21 173.54 94.28 173.94 94.35 174.34 94.41 174.74 94.46 175.15 94.51 175.55 94.55 175.95 94.58 176.35 94.61 176.75 94.64 177.16 94.66 177.56 94.68 177.96 94.7 178.36 94.71 178.76 94.72 179.17 94.73 179.57 94.74 179.97 94.74 180.37 94.75 180.77 94.75 181.18 94.76 181.58 94.76 181.98 94.76 182.38 94.76 182.78 94.76 183.19 94.77 183.59 94.77 183.99 94.77 184.39 94.77 184.79 94.77 185.2 94.77" stroke="#C3C9B7" class="geometry color_"/>
        <path fill="none" d="M58.14,94.77 L 58.56 94.77 58.97 94.77 59.39 94.77 59.81 94.77 60.23 94.77 60.65 94.77 61.06 94.77 61.48 94.76 61.9 94.76 62.32 94.76 62.74 94.76 63.15 94.76 63.57 94.75 63.99 94.75 64.41 94.75 64.83 94.74 65.24 94.73 65.66 94.72 66.08 94.71 66.5 94.7 66.92 94.69 67.33 94.67 67.75 94.65 68.17 94.62 68.59 94.6 69.01 94.56 69.42 94.52 69.84 94.48 70.26 94.43 70.68 94.37 71.1 94.3 71.52 94.22 71.93 94.13 72.35 94.03 72.77 93.91 73.19 93.78 73.61 93.63 74.02 93.47 74.44 93.28 74.86 93.08 75.28 92.84 75.7 92.59 76.11 92.3 76.53 91.99 76.95 91.64 77.37 91.26 77.79 90.83 78.2 90.37 78.62 89.86 79.04 89.3 79.46 88.69 79.88 88.02 80.29 87.3 80.71 86.52 81.13 85.67 81.55 84.75 81.97 83.77 82.38 82.71 82.8 81.58 83.22 80.38 83.64 79.1 84.06 77.74 84.47 76.3 84.89 74.79 85.31 73.21 85.73 71.56 86.15 69.84 86.56 68.06 86.98 66.23 87.4 64.35 87.82 62.42 88.24 60.47 88.65 58.49 89.07 56.5 89.49 54.51 89.91 52.53 90.33 50.57 90.74 48.64 91.16 46.76 91.58 44.94 92 43.19 92.42 41.53 92.83 39.95 93.25 38.49 93.67 37.13 94.09 35.9 94.51 34.8 94.92 33.84 95.34 33.01 95.76 32.34 96.18 31.82 96.6 31.45 97.02 31.23 97.43 31.16 97.85 31.24 98.27 31.46 98.69 31.82 99.11 32.32 99.52 32.94 99.94 33.68 100.36 34.53 100.78 35.48 101.2 36.52 101.61 37.64 102.03 38.84 102.45 40.09 102.87 41.39 103.29 42.73 103.7 44.1 104.12 45.48 104.54 46.88 104.96 48.28 105.38 49.67 105.79 51.05 106.21 52.41 106.63 53.75 107.05 55.05 107.47 56.32 107.88 57.54 108.3 58.73 108.72 59.87 109.14 60.97 109.56 62.02 109.97 63.02 110.39 63.98 110.81 64.89 111.23 65.75 111.65 66.57 112.06 67.34 112.48 68.08 112.9 68.77 113.32 69.42 113.74 70.04 114.15 70.62 114.57 71.17 114.99 71.69 115.41 72.18 115.83 72.64 116.24 73.07 116.66 73.48 117.08 73.86 117.5 74.23 117.92 74.58 118.33 74.91 118.75 75.22 119.17 75.52 119.59 75.81 120.01 76.09 120.42 76.35 120.84 76.61 121.26 76.87 121.68 77.11 122.1 77.36 122.52 77.6 122.93 77.84 123.35 78.08 123.77 78.32 124.19 78.56 124.61 78.8 125.02 79.04 125.44 79.29 125.86 79.53 126.28 79.77 126.7 80.02 127.11 80.26 127.53 80.5 127.95 80.74 128.37 80.98 128.79 81.21 129.2 81.43 129.62 81.64 130.04 81.85 130.46 82.04 130.88 82.22 131.29 82.39 131.71 82.54 132.13 82.68 132.55 82.8 132.97 82.91 133.38 83 133.8 83.08 134.22 83.14 134.64 83.19 135.06 83.23 135.47 83.25 135.89 83.27 136.31 83.28 136.73 83.28 137.15 83.27 137.56 83.27 137.98 83.26 138.4 83.25 138.82 83.24 139.24 83.23 139.65 83.23 140.07 83.23 140.49 83.24 140.91 83.25 141.33 83.27 141.74 83.3 142.16 83.33 142.58 83.37 143 83.41 143.42 83.46 143.83 83.51 144.25 83.56 144.67 83.62 145.09 83.67 145.51 83.73 145.92 83.79 146.34 83.85 146.76 83.9 147.18 83.96 147.6 84.01 148.01 84.06 148.43 84.1 148.85 84.15 149.27 84.19 149.69 84.23 150.11 84.28 150.52 84.32 150.94 84.36 151.36 84.41 151.78 84.47 152.2 84.52 152.61 84.59 153.03 84.66 153.45 84.75 153.87 84.84 154.29 84.95 154.7 85.07 155.12 85.21 155.54 85.36 155.96 85.53 156.38 85.72 156.79 85.92 157.21 86.13 157.63 86.37 158.05 86.62 158.47 86.88 158.88 87.16 159.3 87.45 159.72 87.75 160.14 88.06 160.56 88.38 160.97 88.71 161.39 89.03 161.81 89.36 162.23 89.69 162.65 90.02 163.06 90.34 163.48 90.66 163.9 90.97 164.32 91.27 164.74 91.56 165.15 91.84 165.57 92.1 165.99 92.36 166.41 92.59 166.83 92.81 167.24 93.02 167.66 93.21 168.08 93.39 168.5 93.55 168.92 93.7 169.33 93.84 169.75 93.96 170.17 94.07 170.59 94.16 171.01 94.25 171.42 94.32 171.84 94.39 172.26 94.45 172.68 94.5 173.1 94.54 173.51 94.58 173.93 94.61 174.35 94.64 174.77 94.66 175.19 94.68 175.61 94.7 176.02 94.71 176.44 94.72 176.86 94.73 177.28 94.74 177.7 94.75 178.11 94.75 178.53 94.75 178.95 94.76 179.37 94.76 179.79 94.76 180.2 94.76 180.62 94.77 181.04 94.77 181.46 94.77 181.88 94.77 182.29 94.77 182.71 94.77 183.13 94.77" stroke="#C69C80" class="geometry color_"/>
        <path fill="none" d="M62.85,94.77 L 63.24 94.77 63.64 94.77 64.04 94.77 64.44 94.77 64.83 94.77 65.23 94.76 65.63 94.76 66.03 94.76 66.43 94.76 66.82 94.75 67.22 94.75 67.62 94.75 68.02 94.74 68.41 94.73 68.81 94.72 69.21 94.71 69.61 94.69 70.01 94.67 70.4 94.65 70.8 94.62 71.2 94.59 71.6 94.55 71.99 94.5 72.39 94.44 72.79 94.37 73.19 94.29 73.58 94.19 73.98 94.08 74.38 93.94 74.78 93.79 75.18 93.61 75.57 93.4 75.97 93.17 76.37 92.9 76.77 92.59 77.16 92.24 77.56 91.85 77.96 91.41 78.36 90.92 78.76 90.37 79.15 89.76 79.55 89.09 79.95 88.35 80.35 87.54 80.74 86.66 81.14 85.71 81.54 84.67 81.94 83.56 82.33 82.37 82.73 81.1 83.13 79.76 83.53 78.33 83.93 76.83 84.32 75.26 84.72 73.62 85.12 71.92 85.52 70.16 85.91 68.35 86.31 66.5 86.71 64.61 87.11 62.7 87.51 60.77 87.9 58.83 88.3 56.89 88.7 54.97 89.1 53.06 89.49 51.19 89.89 49.36 90.29 47.58 90.69 45.87 91.08 44.22 91.48 42.65 91.88 41.17 92.28 39.78 92.68 38.49 93.07 37.3 93.47 36.22 93.87 35.25 94.27 34.4 94.66 33.67 95.06 33.06 95.46 32.56 95.86 32.19 96.25 31.94 96.65 31.8 97.05 31.79 97.45 31.89 97.85 32.1 98.24 32.42 98.64 32.85 99.04 33.38 99.44 34.01 99.83 34.73 100.23 35.55 100.63 36.44 101.03 37.42 101.43 38.47 101.82 39.58 102.22 40.76 102.62 41.98 103.02 43.25 103.41 44.56 103.81 45.89 104.21 47.25 104.61 48.62 105 49.99 105.4 51.36 105.8 52.72 106.2 54.05 106.6 55.36 106.99 56.64 107.39 57.87 107.79 59.06 108.19 60.2 108.58 61.28 108.98 62.3 109.38 63.25 109.78 64.15 110.18 64.98 110.57 65.74 110.97 66.44 111.37 67.08 111.77 67.66 112.16 68.18 112.56 68.65 112.96 69.06 113.36 69.44 113.75 69.78 114.15 70.08 114.55 70.35 114.95 70.6 115.35 70.84 115.74 71.06 116.14 71.27 116.54 71.48 116.94 71.69 117.33 71.91 117.73 72.14 118.13 72.37 118.53 72.62 118.93 72.89 119.32 73.17 119.72 73.47 120.12 73.78 120.52 74.11 120.91 74.46 121.31 74.82 121.71 75.19 122.11 75.57 122.5 75.96 122.9 76.35 123.3 76.75 123.7 77.15 124.1 77.54 124.49 77.93 124.89 78.31 125.29 78.69 125.69 79.05 126.08 79.4 126.48 79.73 126.88 80.05 127.28 80.35 127.68 80.63 128.07 80.89 128.47 81.13 128.87 81.35 129.27 81.56 129.66 81.74 130.06 81.91 130.46 82.06 130.86 82.2 131.25 82.32 131.65 82.44 132.05 82.54 132.45 82.64 132.85 82.73 133.24 82.82 133.64 82.9 134.04 82.98 134.44 83.07 134.83 83.16 135.23 83.25 135.63 83.35 136.03 83.45 136.43 83.56 136.82 83.68 137.22 83.8 137.62 83.93 138.02 84.07 138.41 84.21 138.81 84.35 139.21 84.5 139.61 84.65 140 84.8 140.4 84.95 140.8 85.1 141.2 85.24 141.6 85.38 141.99 85.51 142.39 85.64 142.79 85.75 143.19 85.85 143.58 85.93 143.98 86.01 144.38 86.07 144.78 86.11 145.18 86.14 145.57 86.16 145.97 86.16 146.37 86.14 146.77 86.11 147.16 86.07 147.56 86.02 147.96 85.95 148.36 85.88 148.75 85.8 149.15 85.71 149.55 85.62 149.95 85.52 150.35 85.43 150.74 85.33 151.14 85.24 151.54 85.16 151.94 85.08 152.33 85.01 152.73 84.96 153.13 84.91 153.53 84.88 153.92 84.87 154.32 84.87 154.72 84.9 155.12 84.94 155.52 85.01 155.91 85.09 156.31 85.2 156.71 85.34 157.11 85.49 157.5 85.67 157.9 85.87 158.3 86.09 158.7 86.33 159.1 86.6 159.49 86.87 159.89 87.17 160.29 87.48 160.69 87.8 161.08 88.13 161.48 88.47 161.88 88.81 162.28 89.16 162.67 89.51 163.07 89.85 163.47 90.19 163.87 90.53 164.27 90.86 164.66 91.17 165.06 91.48 165.46 91.77 165.86 92.05 166.25 92.31 166.65 92.56 167.05 92.79 167.45 93 167.85 93.2 168.24 93.38 168.64 93.55 169.04 93.7 169.44 93.84 169.83 93.96 170.23 94.07 170.63 94.17 171.03 94.26 171.42 94.33 171.82 94.4 172.22 94.46 172.62 94.51 173.02 94.55 173.41 94.59 173.81 94.62 174.21 94.65 174.61 94.67 175 94.69 175.4 94.7 175.8 94.72 176.2 94.73 176.6 94.73 176.99 94.74 177.39 94.75 177.79 94.75 178.19 94.76 178.58 94.76 178.98 94.76 179.38 94.76 179.78 94.76 180.17 94.77 180.57 94.77 180.97 94.77 181.37 94.77 181.77 94.77" stroke="#C7C8B5" class="geometry color_"/>
        <path fill="none" d="M57.58,94.77 L 58 94.77 58.42 94.77 58.84 94.77 59.25 94.77 59.67 94.77 60.09 94.77 60.51 94.77 60.92 94.77 61.34 94.76 61.76 94.76 62.18 94.76 62.59 94.76 63.01 94.76 63.43 94.75 63.85 94.75 64.26 94.75 64.68 94.74 65.1 94.73 65.52 94.72 65.93 94.71 66.35 94.7 66.77 94.68 67.18 94.66 67.6 94.64 68.02 94.61 68.44 94.58 68.85 94.54 69.27 94.49 69.69 94.43 70.11 94.37 70.52 94.29 70.94 94.2 71.36 94.1 71.78 93.98 72.19 93.84 72.61 93.69 73.03 93.51 73.45 93.3 73.86 93.07 74.28 92.81 74.7 92.52 75.11 92.19 75.53 91.83 75.95 91.42 76.37 90.97 76.78 90.48 77.2 89.93 77.62 89.33 78.04 88.68 78.45 87.98 78.87 87.21 79.29 86.39 79.71 85.51 80.12 84.56 80.54 83.56 80.96 82.49 81.38 81.37 81.79 80.18 82.21 78.94 82.63 77.65 83.05 76.31 83.46 74.92 83.88 73.5 84.3 72.03 84.71 70.53 85.13 69.01 85.55 67.47 85.97 65.92 86.38 64.35 86.8 62.79 87.22 61.24 87.64 59.69 88.05 58.17 88.47 56.67 88.89 55.2 89.31 53.77 89.72 52.38 90.14 51.04 90.56 49.74 90.98 48.51 91.39 47.33 91.81 46.21 92.23 45.16 92.65 44.18 93.06 43.28 93.48 42.44 93.9 41.68 94.31 41 94.73 40.4 95.15 39.88 95.57 39.45 95.98 39.1 96.4 38.83 96.82 38.65 97.24 38.56 97.65 38.56 98.07 38.65 98.49 38.83 98.91 39.1 99.32 39.45 99.74 39.89 100.16 40.41 100.58 41.02 100.99 41.71 101.41 42.47 101.83 43.3 102.24 44.2 102.66 45.16 103.08 46.18 103.5 47.25 103.91 48.36 104.33 49.5 104.75 50.67 105.17 51.87 105.58 53.07 106 54.28 106.42 55.49 106.84 56.68 107.25 57.86 107.67 59.01 108.09 60.13 108.51 61.21 108.92 62.25 109.34 63.24 109.76 64.18 110.18 65.06 110.59 65.89 111.01 66.66 111.43 67.38 111.84 68.03 112.26 68.63 112.68 69.17 113.1 69.66 113.51 70.09 113.93 70.48 114.35 70.83 114.77 71.13 115.18 71.41 115.6 71.65 116.02 71.86 116.44 72.06 116.85 72.24 117.27 72.4 117.69 72.55 118.11 72.71 118.52 72.85 118.94 73 119.36 73.16 119.77 73.31 120.19 73.48 120.61 73.65 121.03 73.84 121.44 74.03 121.86 74.24 122.28 74.45 122.7 74.68 123.11 74.91 123.53 75.15 123.95 75.4 124.37 75.66 124.78 75.92 125.2 76.18 125.62 76.44 126.04 76.7 126.45 76.97 126.87 77.22 127.29 77.48 127.71 77.73 128.12 77.97 128.54 78.21 128.96 78.44 129.37 78.67 129.79 78.88 130.21 79.09 130.63 79.29 131.04 79.48 131.46 79.67 131.88 79.85 132.3 80.02 132.71 80.19 133.13 80.35 133.55 80.51 133.97 80.67 134.38 80.82 134.8 80.97 135.22 81.13 135.64 81.28 136.05 81.43 136.47 81.58 136.89 81.73 137.31 81.89 137.72 82.04 138.14 82.2 138.56 82.36 138.97 82.52 139.39 82.67 139.81 82.83 140.23 82.99 140.64 83.14 141.06 83.29 141.48 83.44 141.9 83.59 142.31 83.73 142.73 83.87 143.15 84 143.57 84.12 143.98 84.24 144.4 84.35 144.82 84.46 145.24 84.55 145.65 84.64 146.07 84.72 146.49 84.79 146.9 84.86 147.32 84.91 147.74 84.96 148.16 85 148.57 85.04 148.99 85.07 149.41 85.1 149.83 85.12 150.24 85.14 150.66 85.16 151.08 85.18 151.5 85.21 151.91 85.24 152.33 85.28 152.75 85.32 153.17 85.37 153.58 85.44 154 85.52 154.42 85.61 154.84 85.72 155.25 85.84 155.67 85.99 156.09 86.15 156.5 86.32 156.92 86.52 157.34 86.74 157.76 86.97 158.17 87.22 158.59 87.48 159.01 87.76 159.43 88.05 159.84 88.35 160.26 88.66 160.68 88.97 161.1 89.29 161.51 89.61 161.93 89.93 162.35 90.25 162.77 90.56 163.18 90.87 163.6 91.17 164.02 91.46 164.43 91.74 164.85 92.01 165.27 92.26 165.69 92.5 166.1 92.73 166.52 92.94 166.94 93.14 167.36 93.32 167.77 93.49 168.19 93.64 168.61 93.78 169.03 93.9 169.44 94.02 169.86 94.12 170.28 94.21 170.7 94.29 171.11 94.36 171.53 94.42 171.95 94.47 172.37 94.52 172.78 94.56 173.2 94.59 173.62 94.62 174.03 94.65 174.45 94.67 174.87 94.69 175.29 94.7 175.7 94.72 176.12 94.73 176.54 94.73 176.96 94.74 177.37 94.75 177.79 94.75 178.21 94.76 178.63 94.76 179.04 94.76 179.46 94.76 179.88 94.76 180.3 94.77 180.71 94.77 181.13 94.77 181.55 94.77 181.97 94.77 182.38 94.77" stroke="#CDC6B0" class="geometry color_"/>
        <path fill="none" d="M58.9,94.77 L 59.31 94.77 59.73 94.77 60.14 94.77 60.55 94.77 60.96 94.77 61.37 94.77 61.78 94.77 62.2 94.77 62.61 94.76 63.02 94.76 63.43 94.76 63.84 94.76 64.25 94.76 64.67 94.75 65.08 94.75 65.49 94.74 65.9 94.74 66.31 94.73 66.72 94.72 67.14 94.71 67.55 94.7 67.96 94.68 68.37 94.66 68.78 94.64 69.19 94.61 69.61 94.58 70.02 94.54 70.43 94.49 70.84 94.43 71.25 94.37 71.66 94.3 72.08 94.21 72.49 94.11 72.9 94 73.31 93.86 73.72 93.71 74.13 93.54 74.55 93.35 74.96 93.13 75.37 92.88 75.78 92.6 76.19 92.28 76.6 91.93 77.02 91.54 77.43 91.11 77.84 90.63 78.25 90.1 78.66 89.52 79.07 88.89 79.49 88.2 79.9 87.44 80.31 86.63 80.72 85.75 81.13 84.8 81.54 83.78 81.96 82.69 82.37 81.52 82.78 80.29 83.19 78.99 83.6 77.61 84.02 76.17 84.43 74.66 84.84 73.09 85.25 71.46 85.66 69.77 86.07 68.04 86.49 66.26 86.9 64.46 87.31 62.62 87.72 60.77 88.13 58.91 88.54 57.05 88.96 55.21 89.37 53.38 89.78 51.59 90.19 49.84 90.6 48.14 91.01 46.51 91.43 44.95 91.84 43.47 92.25 42.08 92.66 40.79 93.07 39.6 93.48 38.52 93.9 37.56 94.31 36.71 94.72 35.99 95.13 35.38 95.54 34.9 95.95 34.55 96.37 34.31 96.78 34.19 97.19 34.19 97.6 34.29 98.01 34.51 98.42 34.83 98.84 35.24 99.25 35.75 99.66 36.34 100.07 37.01 100.48 37.76 100.89 38.57 101.31 39.44 101.72 40.36 102.13 41.34 102.54 42.35 102.95 43.4 103.36 44.48 103.78 45.59 104.19 46.71 104.6 47.84 105.01 48.99 105.42 50.14 105.83 51.28 106.25 52.42 106.66 53.55 107.07 54.67 107.48 55.76 107.89 56.84 108.3 57.89 108.72 58.91 109.13 59.91 109.54 60.87 109.95 61.8 110.36 62.69 110.77 63.55 111.19 64.37 111.6 65.16 112.01 65.9 112.42 66.62 112.83 67.29 113.24 67.93 113.66 68.54 114.07 69.12 114.48 69.66 114.89 70.18 115.3 70.66 115.71 71.13 116.13 71.56 116.54 71.98 116.95 72.37 117.36 72.75 117.77 73.11 118.18 73.45 118.6 73.78 119.01 74.1 119.42 74.41 119.83 74.71 120.24 75.01 120.65 75.29 121.07 75.58 121.48 75.86 121.89 76.13 122.3 76.41 122.71 76.69 123.12 76.96 123.54 77.24 123.95 77.51 124.36 77.79 124.77 78.08 125.18 78.36 125.59 78.64 126.01 78.93 126.42 79.22 126.83 79.51 127.24 79.8 127.65 80.09 128.06 80.38 128.48 80.66 128.89 80.95 129.3 81.23 129.71 81.51 130.12 81.78 130.53 82.05 130.95 82.31 131.36 82.57 131.77 82.81 132.18 83.05 132.59 83.27 133 83.48 133.42 83.68 133.83 83.87 134.24 84.04 134.65 84.2 135.06 84.35 135.47 84.48 135.89 84.6 136.3 84.7 136.71 84.79 137.12 84.86 137.53 84.92 137.94 84.96 138.36 84.99 138.77 85.01 139.18 85.01 139.59 85.01 140 84.99 140.41 84.96 140.83 84.93 141.24 84.88 141.65 84.83 142.06 84.77 142.47 84.71 142.88 84.64 143.3 84.57 143.71 84.5 144.12 84.42 144.53 84.34 144.94 84.27 145.35 84.19 145.77 84.12 146.18 84.04 146.59 83.97 147 83.91 147.41 83.85 147.82 83.79 148.24 83.74 148.65 83.7 149.06 83.66 149.47 83.64 149.88 83.62 150.29 83.62 150.71 83.62 151.12 83.64 151.53 83.68 151.94 83.73 152.35 83.79 152.76 83.87 153.18 83.97 153.59 84.09 154 84.23 154.41 84.38 154.82 84.55 155.23 84.75 155.65 84.96 156.06 85.19 156.47 85.44 156.88 85.7 157.29 85.98 157.7 86.28 158.12 86.59 158.53 86.91 158.94 87.24 159.35 87.58 159.76 87.93 160.17 88.28 160.59 88.64 161 88.99 161.41 89.34 161.82 89.69 162.23 90.04 162.64 90.37 163.06 90.7 163.47 91.02 163.88 91.32 164.29 91.62 164.7 91.9 165.11 92.16 165.53 92.41 165.94 92.65 166.35 92.87 166.76 93.07 167.17 93.26 167.58 93.43 168 93.59 168.41 93.73 168.82 93.87 169.23 93.98 169.64 94.09 170.05 94.18 170.47 94.26 170.88 94.34 171.29 94.4 171.7 94.46 172.11 94.51 172.52 94.55 172.94 94.58 173.35 94.62 173.76 94.64 174.17 94.66 174.58 94.68 174.99 94.7 175.41 94.71 175.82 94.72 176.23 94.73 176.64 94.74 177.05 94.75 177.46 94.75 177.88 94.75 178.29 94.76 178.7 94.76 179.11 94.76 179.52 94.76 179.93 94.77 180.35 94.77 180.76 94.77 181.17 94.77 181.58 94.77 181.99 94.77" stroke="#D2B497" class="geometry color_"/>
        <path fill="none" d="M59.18,94.77 L 59.59 94.77 60 94.77 60.42 94.77 60.83 94.77 61.24 94.77 61.65 94.77 62.07 94.77 62.48 94.77 62.89 94.76 63.31 94.76 63.72 94.76 64.13 94.76 64.54 94.76 64.96 94.75 65.37 94.75 65.78 94.74 66.2 94.73 66.61 94.72 67.02 94.71 67.44 94.7 67.85 94.68 68.26 94.66 68.67 94.64 69.09 94.61 69.5 94.57 69.91 94.53 70.33 94.49 70.74 94.43 71.15 94.36 71.56 94.28 71.98 94.19 72.39 94.08 72.8 93.96 73.22 93.82 73.63 93.66 74.04 93.47 74.46 93.26 74.87 93.02 75.28 92.75 75.69 92.44 76.11 92.1 76.52 91.72 76.93 91.29 77.35 90.82 77.76 90.3 78.17 89.72 78.58 89.1 79 88.41 79.41 87.66 79.82 86.86 80.24 85.98 80.65 85.05 81.06 84.04 81.48 82.97 81.89 81.83 82.3 80.62 82.71 79.35 83.13 78.02 83.54 76.62 83.95 75.16 84.37 73.65 84.78 72.09 85.19 70.49 85.61 68.84 86.02 67.16 86.43 65.46 86.84 63.73 87.26 61.99 87.67 60.25 88.08 58.52 88.5 56.79 88.91 55.09 89.32 53.42 89.73 51.79 90.15 50.2 90.56 48.67 90.97 47.2 91.39 45.81 91.8 44.49 92.21 43.25 92.63 42.11 93.04 41.06 93.45 40.11 93.86 39.26 94.28 38.53 94.69 37.9 95.1 37.38 95.52 36.98 95.93 36.69 96.34 36.51 96.75 36.44 97.17 36.48 97.58 36.63 97.99 36.87 98.41 37.22 98.82 37.66 99.23 38.19 99.65 38.8 100.06 39.48 100.47 40.24 100.88 41.06 101.3 41.94 101.71 42.87 102.12 43.85 102.54 44.86 102.95 45.9 103.36 46.97 103.78 48.05 104.19 49.14 104.6 50.24 105.01 51.34 105.43 52.43 105.84 53.52 106.25 54.59 106.67 55.63 107.08 56.66 107.49 57.66 107.9 58.63 108.32 59.57 108.73 60.47 109.14 61.34 109.56 62.18 109.97 62.97 110.38 63.73 110.8 64.44 111.21 65.12 111.62 65.76 112.03 66.37 112.45 66.93 112.86 67.47 113.27 67.97 113.69 68.44 114.1 68.88 114.51 69.29 114.92 69.68 115.34 70.05 115.75 70.4 116.16 70.74 116.58 71.06 116.99 71.37 117.4 71.67 117.82 71.97 118.23 72.26 118.64 72.55 119.05 72.84 119.47 73.14 119.88 73.43 120.29 73.73 120.71 74.04 121.12 74.35 121.53 74.66 121.94 74.98 122.36 75.3 122.77 75.63 123.18 75.96 123.6 76.29 124.01 76.62 124.42 76.95 124.84 77.27 125.25 77.59 125.66 77.9 126.07 78.21 126.49 78.51 126.9 78.8 127.31 79.07 127.73 79.33 128.14 79.58 128.55 79.82 128.97 80.05 129.38 80.26 129.79 80.46 130.2 80.64 130.62 80.82 131.03 80.98 131.44 81.14 131.86 81.29 132.27 81.43 132.68 81.56 133.09 81.69 133.51 81.82 133.92 81.94 134.33 82.06 134.75 82.18 135.16 82.3 135.57 82.42 135.99 82.54 136.4 82.66 136.81 82.78 137.22 82.9 137.64 83.02 138.05 83.14 138.46 83.25 138.88 83.36 139.29 83.47 139.7 83.57 140.11 83.67 140.53 83.76 140.94 83.85 141.35 83.93 141.77 84 142.18 84.06 142.59 84.12 143.01 84.16 143.42 84.2 143.83 84.24 144.24 84.26 144.66 84.28 145.07 84.29 145.48 84.29 145.9 84.29 146.31 84.28 146.72 84.27 147.14 84.26 147.55 84.24 147.96 84.23 148.37 84.21 148.79 84.19 149.2 84.18 149.61 84.17 150.03 84.16 150.44 84.17 150.85 84.18 151.26 84.19 151.68 84.23 152.09 84.27 152.5 84.32 152.92 84.4 153.33 84.48 153.74 84.59 154.16 84.71 154.57 84.86 154.98 85.02 155.39 85.2 155.81 85.4 156.22 85.62 156.63 85.86 157.05 86.12 157.46 86.39 157.87 86.69 158.28 86.99 158.7 87.31 159.11 87.63 159.52 87.97 159.94 88.31 160.35 88.66 160.76 89.01 161.18 89.36 161.59 89.7 162 90.05 162.41 90.38 162.83 90.71 163.24 91.03 163.65 91.33 164.07 91.63 164.48 91.91 164.89 92.17 165.3 92.42 165.72 92.66 166.13 92.88 166.54 93.08 166.96 93.27 167.37 93.45 167.78 93.6 168.2 93.75 168.61 93.88 169.02 93.99 169.43 94.1 169.85 94.19 170.26 94.27 170.67 94.35 171.09 94.41 171.5 94.46 171.91 94.51 172.33 94.55 172.74 94.59 173.15 94.62 173.56 94.65 173.98 94.67 174.39 94.69 174.8 94.7 175.22 94.71 175.63 94.72 176.04 94.73 176.45 94.74 176.87 94.75 177.28 94.75 177.69 94.76 178.11 94.76 178.52 94.76 178.93 94.76 179.35 94.76 179.76 94.77 180.17 94.77 180.58 94.77 181 94.77 181.41 94.77 181.82 94.77 182.24 94.77 182.65 94.77" stroke="#D5C4A9" class="geometry color_"/>
      </g>
    </g>
  </g>
</g>
  <g class="guide ylabels" font-size="4.76" font-family="'PT Sans Caption','Helvetica Neue','Helvetica',sans-serif" fill="#FFFFFF" id="img-08368810-16">
    <text x="22.7" y="94.77" text-anchor="end" dy="0.35em">0.0</text>
    <text x="22.7" y="72.83" text-anchor="end" dy="0.35em">0.1</text>
    <text x="22.7" y="50.88" text-anchor="end" dy="0.35em">0.2</text>
    <text x="22.7" y="28.94" text-anchor="end" dy="0.35em">0.3</text>
    <text x="22.7" y="7" text-anchor="end" dy="0.35em">0.4</text>
  </g>
  <g font-size="6.35" font-family="'PT Sans','Helvetica Neue','Helvetica',sans-serif" fill="#FFFFFF" stroke="#000000" stroke-opacity="0.000" id="img-08368810-17">
    <text x="10.18" y="48.88" text-anchor="middle" dy="0.35em" transform="rotate(-90, 10.18, 50.88)">Density</text>
  </g>
</g>
<defs>
  <clipPath id="img-08368810-9">
  <path d="M23.7,5 L 213.48 5 213.48 96.77 23.7 96.77" />
</clipPath>
</defs>
</svg>
