<svg xmlns="http://www.w3.org/2000/svg" xmlns:xlink="http://www.w3.org/1999/xlink" version="1.2" width="238.1mm" height="599.924" viewBox="0 0 238.1 158.73" stroke-width=".3" font-size="3.88"><path d="M0 0h238.1v158.73H0z" stroke="#000" stroke-opacity="0" fill="#222831"/><g class="plotroot xscalable yscalable"><g class="guide colorkey"><g fill="#A1A1A1" font-size="3.7" font-family="'PT Sans','Helvetica Neue','Helvetica',sans-serif"><text x="121.12" y="144.33" dy=".35em" class="color_Reform">Reform</text><text x="121.12" y="148.78" dy=".35em" class="color_Green">Green</text></g><g stroke="#000" stroke-opacity="0"><path fill="#9E7EC1" class="color_Reform" d="M117.89 143.22h2.22v2.22h-2.22z"/><path fill="#7CB5FB" class="color_Green" d="M117.89 147.66h2.22v2.22h-2.22z"/></g><g fill="#A1A1A1" font-size="3.7" font-family="'PT Sans','Helvetica Neue','Helvetica',sans-serif"><text x="95.18" y="144.33" dy=".35em" class="color_American_Ind.">American Ind.</text><text x="95.18" y="148.78" dy=".35em" class="color_Independent">Independent</text></g><g stroke="#000" stroke-opacity="0"><path fill="#D4EC9F" class="color_American_Ind." d="M91.95 143.22h2.22v2.22h-2.22z"/><path fill="#7E674B" class="color_Independent" d="M91.95 147.66h2.22v2.22h-2.22z"/></g><g fill="#A1A1A1" font-size="3.7" font-family="'PT Sans','Helvetica Neue','Helvetica',sans-serif"><text x="69.38" y="144.33" dy=".35em" class="color_Progressive">Progressive</text><text x="69.38" y="148.78" dy=".35em" class="color_State's_Rights">State&amp;apos;s Rights</text></g><g stroke="#000" stroke-opacity="0"><path fill="#236EAD" class="color_Progressive" d="M66.16 143.22h2.22v2.22h-2.22z"/><path fill="#60F6FF" class="color_State's_Rights" d="M66.16 147.66h2.22v2.22h-2.22z"/></g><g fill="#A1A1A1" font-size="3.7" font-family="'PT Sans','Helvetica Neue','Helvetica',sans-serif"><text x="51.81" y="144.33" dy=".35em" class="color_Socialist">Socialist</text><text x="51.81" y="148.78" dy=".35em" class="color_-">-</text></g><g stroke="#000" stroke-opacity="0"><path fill="#3F9778" class="color_Socialist" d="M48.59 143.22h2.22v2.22h-2.22z"/><path fill="#EEDBFF" class="color_-" d="M48.59 147.66h2.22v2.22h-2.22z"/></g><g fill="#A1A1A1" font-size="3.7" font-family="'PT Sans','Helvetica Neue','Helvetica',sans-serif"><text x="29.6" y="144.33" dy=".35em" class="color_Republican">Republican</text><text x="29.6" y="148.78" dy=".35em" class="color_Democratic">Democratic</text></g><g stroke="#000" stroke-opacity="0"><path fill="#FE4365" class="color_Republican" d="M26.38 143.22h2.22v2.22h-2.22z"/><path fill="#ECA25C" class="color_Democratic" d="M26.38 147.66h2.22v2.22h-2.22z"/></g><text x="26.38" y="140.84" fill="#FFF" font-size="6.35" font-family="'PT Sans','Helvetica Neue','Helvetica',sans-serif" stroke="#000" stroke-opacity="0">Party</text></g><text x="129.24" y="126.02" text-anchor="middle" dy=".6em" font-size="6.35" font-family="'PT Sans','Helvetica Neue','Helvetica',sans-serif" fill="#A1A1A1" stroke="#000" stroke-opacity="0">Year</text><g class="guide xlabels" font-size="4.76" font-family="'PT Sans Caption','Helvetica Neue','Helvetica',sans-serif" fill="#A1A1A1" text-anchor="middle"><text x="27.38" y="117.51" dy=".6em">1904</text><text x="41.93" y="117.51" dy=".6em">1912</text><text x="56.48" y="117.51" dy=".6em">1920</text><text x="71.03" y="117.51" dy=".6em">1928</text><text x="85.58" y="117.51" dy=".6em">1936</text><text x="100.14" y="117.51" dy=".6em">1944</text><text x="114.69" y="117.51" dy=".6em">1952</text><text x="129.24" y="117.51" dy=".6em">1960</text><text x="143.79" y="117.51" dy=".6em">1968</text><text x="158.34" y="117.51" dy=".6em">1976</text><text x="172.89" y="117.51" dy=".6em">1984</text><text x="187.44" y="117.51" dy=".6em">1992</text><text x="201.99" y="117.51" dy=".6em">2000</text><text x="216.54" y="117.51" dy=".6em">2008</text><text x="231.1" y="117.51" dy=".6em">2016</text></g><g clip-path="url(#a)"><path d="M25.38 12.91H233.1v103.6H25.38z" pointer-events="visible" fill="#222831" stroke="#000" stroke-opacity="0" class="guide background"/><g class="guide ygridlines xfixed" stroke-dasharray="0.5,0.5" stroke-width=".2" stroke="#575757" fill="none"><path d="M25.38 114.51H233.1M25.38 89.61H233.1M25.38 64.71H233.1M25.38 39.81H233.1M25.38 14.91H233.1"/></g><g class="guide xgridlines yfixed" stroke-dasharray="0.5,0.5" stroke-width=".2" stroke="#575757" fill="none"><path d="M27.38 12.91v103.6M41.93 12.91v103.6M56.48 12.91v103.6M71.03 12.91v103.6M85.58 12.91v103.6M100.14 12.91v103.6M114.69 12.91v103.6M129.24 12.91v103.6M143.79 12.91v103.6M158.34 12.91v103.6M172.89 12.91v103.6M187.44 12.91v103.6M201.99 12.91v103.6M216.54 12.91v103.6M231.1 12.91v103.6"/></g><g class="plotpanel"><g class="geometry"><use xlink:href="#b" x="34.66" y="71.36" stroke="#B58486" fill="#FE4365" class="color_Republican"/><use xlink:href="#b" x="34.66" y="66.71" stroke="#AA8B71" fill="#ECA25C" class="color_Democratic"/><use xlink:href="#b" x="34.66" y="106.02" stroke="#6D9A87" fill="#3F9778" class="color_Socialist"/><use xlink:href="#b" x="34.66" y="114.35" stroke="#9B8AAB" fill="#EEDBFF" class="color_-"/><use xlink:href="#b" x="41.93" y="67.75" stroke="#AA8B71" fill="#ECA25C" class="color_Democratic"/><use xlink:href="#b" x="41.93" y="114.51" stroke="#7C92B3" fill="#236EAD" class="color_Progressive"/><use xlink:href="#b" x="41.93" y="78.88" stroke="#B58486" fill="#FE4365" class="color_Republican"/><use xlink:href="#b" x="41.93" y="98.15" stroke="#6D9A87" fill="#3F9778" class="color_Socialist"/><use xlink:href="#b" x="41.93" y="113.65" stroke="#9B8AAB" fill="#EEDBFF" class="color_-"/><use xlink:href="#b" x="49.21" y="64.06" stroke="#AA8B71" fill="#ECA25C" class="color_Democratic"/><use xlink:href="#b" x="49.21" y="81.39" stroke="#B58486" fill="#FE4365" class="color_Republican"/><use xlink:href="#b" x="49.21" y="99.11" stroke="#6D9A87" fill="#3F9778" class="color_Socialist"/><use xlink:href="#b" x="49.21" y="113.87" stroke="#9B8AAB" fill="#EEDBFF" class="color_-"/><use xlink:href="#b" x="56.48" y="64.6" stroke="#B58486" fill="#FE4365" class="color_Republican"/><use xlink:href="#b" x="56.48" y="70.08" stroke="#AA8B71" fill="#ECA25C" class="color_Democratic"/><use xlink:href="#b" x="56.48" y="109.24" stroke="#6D9A87" fill="#3F9778" class="color_Socialist"/><use xlink:href="#b" x="56.48" y="114.51" stroke="#9B8AAB" fill="#EEDBFF" class="color_-"/><use xlink:href="#b" x="63.76" y="71.86" stroke="#B58486" fill="#FE4365" class="color_Republican"/><use xlink:href="#b" x="63.76" y="66.29" stroke="#AA8B71" fill="#ECA25C" class="color_Democratic"/><use xlink:href="#b" x="63.76" y="105.77" stroke="#7C92B3" fill="#236EAD" class="color_Progressive"/><use xlink:href="#b" x="63.76" y="114.51" stroke="#9B8AAB" fill="#EEDBFF" class="color_-"/><use xlink:href="#b" x="71.03" y="51.05" stroke="#B58486" fill="#FE4365" class="color_Republican"/><use xlink:href="#b" x="71.03" y="79.21" stroke="#AA8B71" fill="#ECA25C" class="color_Democratic"/><use xlink:href="#b" x="71.03" y="113.67" stroke="#9B8AAB" fill="#EEDBFF" class="color_-"/><use xlink:href="#b" x="78.31" y="41.51" stroke="#AA8B71" fill="#ECA25C" class="color_Democratic"/><use xlink:href="#b" x="78.31" y="87.91" stroke="#B58486" fill="#FE4365" class="color_Republican"/><use xlink:href="#b" x="78.31" y="114.51" stroke="#6D9A87" fill="#3F9778" class="color_Socialist"/><use xlink:href="#b" x="78.31" y="114.51" stroke="#9B8AAB" fill="#EEDBFF" class="color_-"/><use xlink:href="#b" x="85.58" y="47.94" stroke="#AA8B71" fill="#ECA25C" class="color_Democratic"/><use xlink:href="#b" x="85.58" y="81.94" stroke="#B58486" fill="#FE4365" class="color_Republican"/><use xlink:href="#b" x="85.58" y="114.04" stroke="#9B8AAB" fill="#EEDBFF" class="color_-"/><use xlink:href="#b" x="92.86" y="57.33" stroke="#AA8B71" fill="#ECA25C" class="color_Democratic"/><use xlink:href="#b" x="92.86" y="72.45" stroke="#B58486" fill="#FE4365" class="color_Republican"/><use xlink:href="#b" x="92.86" y="114.14" stroke="#9B8AAB" fill="#EEDBFF" class="color_-"/><use xlink:href="#b" x="100.14" y="59.16" stroke="#AA8B71" fill="#ECA25C" class="color_Democratic"/><use xlink:href="#b" x="100.14" y="70.48" stroke="#B58486" fill="#FE4365" class="color_Republican"/><use xlink:href="#b" x="100.14" y="114.28" stroke="#9B8AAB" fill="#EEDBFF" class="color_-"/><use xlink:href="#b" x="107.41" y="52.01" stroke="#AA8B71" fill="#ECA25C" class="color_Democratic"/><use xlink:href="#b" x="107.41" y="77.4" stroke="#B58486" fill="#FE4365" class="color_Republican"/><use xlink:href="#b" x="107.41" y="114.51" stroke="#5F9A9E" fill="#60F6FF" class="color_State's_Rights"/><use xlink:href="#b" x="107.41" y="114.51" stroke="#7C92B3" fill="#236EAD" class="color_Progressive"/><use xlink:href="#b" x="107.41" y="114.51" stroke="#9B8AAB" fill="#EEDBFF" class="color_-"/><use xlink:href="#b" x="114.69" y="60.14" stroke="#B58486" fill="#FE4365" class="color_Republican"/><use xlink:href="#b" x="114.69" y="69.28" stroke="#AA8B71" fill="#ECA25C" class="color_Democratic"/><use xlink:href="#b" x="114.69" y="114.51" stroke="#9B8AAB" fill="#EEDBFF" class="color_-"/><use xlink:href="#b" x="121.96" y="59.6" stroke="#B58486" fill="#FE4365" class="color_Republican"/><use xlink:href="#b" x="121.96" y="69.82" stroke="#AA8B71" fill="#ECA25C" class="color_Democratic"/><use xlink:href="#b" x="121.96" y="114.51" stroke="#9B8AAB" fill="#EEDBFF" class="color_-"/><use xlink:href="#b" x="129.24" y="73.69" stroke="#AA8B71" fill="#ECA25C" class="color_Democratic"/><use xlink:href="#b" x="129.24" y="55.72" stroke="#B58486" fill="#FE4365" class="color_Republican"/><use xlink:href="#b" x="129.24" y="114.51" stroke="#9B8AAB" fill="#EEDBFF" class="color_-"/><use xlink:href="#b" x="136.51" y="58.98" stroke="#AA8B71" fill="#ECA25C" class="color_Democratic"/><use xlink:href="#b" x="136.51" y="70.43" stroke="#B58486" fill="#FE4365" class="color_Republican"/><use xlink:href="#b" x="136.51" y="114.51" stroke="#9B8AAB" fill="#EEDBFF" class="color_-"/><use xlink:href="#b" x="143.79" y="67.02" stroke="#B58486" fill="#FE4365" class="color_Republican"/><use xlink:href="#b" x="143.79" y="82.65" stroke="#AA8B71" fill="#ECA25C" class="color_Democratic"/><use xlink:href="#b" x="143.79" y="94.26" stroke="#8B9572" fill="#D4EC9F" class="color_American_Ind."/><use xlink:href="#b" x="143.79" y="114.51" stroke="#9B8AAB" fill="#EEDBFF" class="color_-"/><use xlink:href="#b" x="151.06" y="41.1" stroke="#B58486" fill="#FE4365" class="color_Republican"/><use xlink:href="#b" x="151.06" y="90.61" stroke="#AA8B71" fill="#ECA25C" class="color_Democratic"/><use xlink:href="#b" x="151.06" y="112.21" stroke="#9B8AAB" fill="#EEDBFF" class="color_-"/><use xlink:href="#b" x="158.34" y="65.96" stroke="#AA8B71" fill="#ECA25C" class="color_Democratic"/><use xlink:href="#b" x="158.34" y="64.75" stroke="#B58486" fill="#FE4365" class="color_Republican"/><use xlink:href="#b" x="158.34" y="113.22" stroke="#9B8AAB" fill="#EEDBFF" class="color_-"/><use xlink:href="#b" x="165.62" y="54.25" stroke="#B58486" fill="#FE4365" class="color_Republican"/><use xlink:href="#b" x="165.62" y="79.68" stroke="#AA8B71" fill="#ECA25C" class="color_Democratic"/><use xlink:href="#b" x="165.62" y="111.19" stroke="#A68D6F" fill="#7E674B" class="color_Independent"/><use xlink:href="#b" x="165.62" y="113.31" stroke="#9B8AAB" fill="#EEDBFF" class="color_-"/><use xlink:href="#b" x="172.89" y="46.17" stroke="#B58486" fill="#FE4365" class="color_Republican"/><use xlink:href="#b" x="172.89" y="83.96" stroke="#AA8B71" fill="#ECA25C" class="color_Democratic"/><use xlink:href="#b" x="172.89" y="113.79" stroke="#9B8AAB" fill="#EEDBFF" class="color_-"/><use xlink:href="#b" x="180.17" y="56.81" stroke="#B58486" fill="#FE4365" class="color_Republican"/><use xlink:href="#b" x="180.17" y="73.39" stroke="#AA8B71" fill="#ECA25C" class="color_Democratic"/><use xlink:href="#b" x="180.17" y="113.72" stroke="#9B8AAB" fill="#EEDBFF" class="color_-"/><use xlink:href="#b" x="187.44" y="80.62" stroke="#AA8B71" fill="#ECA25C" class="color_Democratic"/><use xlink:href="#b" x="187.44" y="72.03" stroke="#B58486" fill="#FE4365" class="color_Republican"/><use xlink:href="#b" x="187.44" y="91.59" stroke="#A68D6F" fill="#7E674B" class="color_Independent"/><use xlink:href="#b" x="187.44" y="114.19" stroke="#9B8AAB" fill="#EEDBFF" class="color_-"/><use xlink:href="#b" x="194.72" y="74.22" stroke="#AA8B71" fill="#ECA25C" class="color_Democratic"/><use xlink:href="#b" x="194.72" y="66.44" stroke="#B58486" fill="#FE4365" class="color_Republican"/><use xlink:href="#b" x="194.72" y="103.71" stroke="#9B8AAC" fill="#9E7EC1" class="color_Reform"/><use xlink:href="#b" x="194.72" y="114.05" stroke="#9B8AAB" fill="#EEDBFF" class="color_-"/><use xlink:href="#b" x="201.99" y="76.23" stroke="#AA8B71" fill="#ECA25C" class="color_Democratic"/><use xlink:href="#b" x="201.99" y="54.44" stroke="#B58486" fill="#FE4365" class="color_Republican"/><use xlink:href="#b" x="201.99" y="114.51" stroke="#7C92B3" fill="#7CB5FB" class="color_Green"/><use xlink:href="#b" x="201.99" y="113.25" stroke="#9B8AAB" fill="#EEDBFF" class="color_-"/><use xlink:href="#b" x="209.27" y="49.2" stroke="#B58486" fill="#FE4365" class="color_Republican"/><use xlink:href="#b" x="209.27" y="80.22" stroke="#AA8B71" fill="#ECA25C" class="color_Democratic"/><use xlink:href="#b" x="209.27" y="114.51" stroke="#9B8AAB" fill="#EEDBFF" class="color_-"/><use xlink:href="#b" x="216.54" y="80.29" stroke="#AA8B71" fill="#ECA25C" class="color_Democratic"/><use xlink:href="#b" x="216.54" y="49.13" stroke="#B58486" fill="#FE4365" class="color_Republican"/><use xlink:href="#b" x="216.54" y="114.51" stroke="#9B8AAB" fill="#EEDBFF" class="color_-"/><use xlink:href="#b" x="223.82" y="81.41" stroke="#AA8B71" fill="#ECA25C" class="color_Democratic"/><use xlink:href="#b" x="223.82" y="48" stroke="#B58486" fill="#FE4365" class="color_Republican"/><use xlink:href="#b" x="223.82" y="114.51" stroke="#9B8AAB" fill="#EEDBFF" class="color_-"/></g><g fill-opacity="0"><path fill="none" d="M41.93 114.51l21.83-8.74 43.65 8.74" stroke="#236EAD" class="geometry color_Progressive"/><path fill="none" d="M34.66 106.02l7.27-7.87 7.28.96 7.27 10.13 21.83 5.27" stroke="#3F9778" class="geometry color_Socialist"/><path fill="none" d="M165.62 111.19l21.82-19.6" stroke="#7E674B" class="geometry color_Independent"/><path fill="none" d="M34.66 66.71l7.27 1.04 7.28-3.69 7.27 6.02 7.28-3.79 7.27 12.92 7.28-37.7 7.27 6.43 7.28 9.39 7.28 1.83 7.27-7.15 7.28 17.27 7.27.54 7.28 3.87 7.27-14.71 7.28 23.67 7.27 7.96 7.28-24.65 7.28 13.72 7.27 4.28 7.28-10.57 7.27 7.23 7.28-6.4 7.27 2.01 7.28 3.99 7.27.07 7.28 1.12" stroke="#ECA25C" class="geometry color_Democratic"/><path fill="none" d="M34.66 114.35l7.27-.7 7.28.22 7.27.64h7.28l7.27-.84 7.28.84 7.27-.47 7.28.1 7.28.14 7.27.23h36.38l7.27-2.3 7.28 1.01 7.28.09 7.27.48 7.28-.07 7.27.47 7.28-.14 7.27-.8 7.28 1.26h14.55" stroke="#EEDBFF" class="geometry color_-"/><path fill="none" d="M34.66 71.36l7.27 7.52 7.28 2.51 7.27-16.79 7.28 7.26 7.27-20.81 7.28 36.86 7.27-5.97 7.28-9.49 7.28-1.97 7.27 6.92 7.28-17.26 7.27-.54 7.28-3.88 7.27 14.71 7.28-3.41 7.27-25.92 7.28 23.65 7.28-10.5 7.27-8.08 7.28 10.64 7.27 15.22 7.28-5.59 7.27-12 7.28-5.24 7.27-.07 7.28-1.13" stroke="#FE4365" class="geometry color_Republican"/></g></g></g><g class="guide ylabels" font-size="4.76" font-family="'PT Sans Caption','Helvetica Neue','Helvetica',sans-serif" fill="#A1A1A1" text-anchor="end"><text x="24.38" y="114.51" dy=".35em">0</text><text x="24.38" y="89.61" dy=".35em">25</text><text x="24.38" y="64.71" dy=".35em">50</text><text x="24.38" y="39.81" dy=".35em">75</text><text x="24.38" y="14.91" dy=".35em">100</text></g><text x="9.95" y="62.71" text-anchor="middle" dy=".35em" transform="rotate(-90 9.95 64.71)" font-size="6.35" font-family="'PT Sans','Helvetica Neue','Helvetica',sans-serif" fill="#A1A1A1" stroke="#000" stroke-opacity="0">Popular Vote (%)</text><text x="129.24" y="5" text-anchor="middle" dy=".6em" font-size="6.35" font-family="'PT Sans','Helvetica Neue','Helvetica',sans-serif" fill="#A1A1A1" stroke="#000" stroke-opacity="0">Oklahoma</text></g><defs><clipPath id="a"><path d="M25.38 12.91H233.1v103.6H25.38"/></clipPath><circle r=".9" id="b"/></defs></svg>