<svg xmlns="http://www.w3.org/2000/svg" xmlns:xlink="http://www.w3.org/1999/xlink" version="1.2" width="238.1mm" height="599.924" viewBox="0 0 238.1 158.73" stroke-width=".3" font-size="3.88"><path d="M0 0h238.1v158.73H0z" stroke="#000" stroke-opacity="0" fill="#222831"/><g class="plotroot xscalable yscalable"><g class="guide colorkey"><g class="color_Green"><text x="167.07" y="144.33" dy=".35em" fill="#A1A1A1" font-size="3.7" font-family="'PT Sans','Helvetica Neue','Helvetica',sans-serif">Green</text><path d="M163.85 143.22h2.22v2.22h-2.22z" fill="#FFD9C5" stroke="#000" stroke-opacity="0"/></g><g fill="#A1A1A1" font-size="3.7" font-family="'PT Sans','Helvetica Neue','Helvetica',sans-serif"><text x="142.81" y="144.33" dy=".35em" class="color_Independent">Independent</text><text x="142.81" y="148.78" dy=".35em" class="color_Reform">Reform</text></g><g stroke="#000" stroke-opacity="0"><path fill="#009DAD" class="color_Independent" d="M139.59 143.22h2.22v2.22h-2.22z"/><path fill="#AE8178" class="color_Reform" d="M139.59 147.66h2.22v2.22h-2.22z"/></g><g fill="#A1A1A1" font-size="3.7" font-family="'PT Sans','Helvetica Neue','Helvetica',sans-serif"><text x="116.87" y="144.33" dy=".35em" class="color_State's_Rights">State&amp;apos;s Rights</text><text x="116.87" y="148.78" dy=".35em" class="color_American_Ind.">American Ind.</text></g><g stroke="#000" stroke-opacity="0"><path fill="#9E7EC1" class="color_State's_Rights" d="M113.65 143.22h2.22v2.22h-2.22z"/><path fill="#7CB5FB" class="color_American_Ind." d="M113.65 147.66h2.22v2.22h-2.22z"/></g><g fill="#A1A1A1" font-size="3.7" font-family="'PT Sans','Helvetica Neue','Helvetica',sans-serif"><text x="94.43" y="144.33" dy=".35em" class="color_Socialist">Socialist</text><text x="94.43" y="148.78" dy=".35em" class="color_Progressive">Progressive</text></g><g stroke="#000" stroke-opacity="0"><path fill="#D4EC9F" class="color_Socialist" d="M91.21 143.22h2.22v2.22h-2.22z"/><path fill="#7E674B" class="color_Progressive" d="M91.21 147.66h2.22v2.22h-2.22z"/></g><g fill="#A1A1A1" font-size="3.7" font-family="'PT Sans','Helvetica Neue','Helvetica',sans-serif"><text x="72.63" y="144.33" dy=".35em" class="color_Prohibition">Prohibition</text><text x="72.63" y="148.78" dy=".35em" class="color_Populist">Populist</text></g><g stroke="#000" stroke-opacity="0"><path fill="#236EAD" class="color_Prohibition" d="M69.41 143.22h2.22v2.22h-2.22z"/><path fill="#60F6FF" class="color_Populist" d="M69.41 147.66h2.22v2.22h-2.22z"/></g><g fill="#A1A1A1" font-size="3.7" font-family="'PT Sans','Helvetica Neue','Helvetica',sans-serif"><text x="51.81" y="144.33" dy=".35em" class="color_-">-</text><text x="51.81" y="148.78" dy=".35em" class="color_Greenback">Greenback</text></g><g stroke="#000" stroke-opacity="0"><path fill="#3F9778" class="color_-" d="M48.59 143.22h2.22v2.22h-2.22z"/><path fill="#EEDBFF" class="color_Greenback" d="M48.59 147.66h2.22v2.22h-2.22z"/></g><g fill="#A1A1A1" font-size="3.7" font-family="'PT Sans','Helvetica Neue','Helvetica',sans-serif"><text x="29.6" y="144.33" dy=".35em" class="color_Republican">Republican</text><text x="29.6" y="148.78" dy=".35em" class="color_Democratic">Democratic</text></g><g stroke="#000" stroke-opacity="0"><path fill="#FE4365" class="color_Republican" d="M26.38 143.22h2.22v2.22h-2.22z"/><path fill="#ECA25C" class="color_Democratic" d="M26.38 147.66h2.22v2.22h-2.22z"/></g><text x="26.38" y="140.84" fill="#FFF" font-size="6.35" font-family="'PT Sans','Helvetica Neue','Helvetica',sans-serif" stroke="#000" stroke-opacity="0">Party</text></g><text x="129.24" y="126.02" text-anchor="middle" dy=".6em" font-size="6.35" font-family="'PT Sans','Helvetica Neue','Helvetica',sans-serif" fill="#A1A1A1" stroke="#000" stroke-opacity="0">Year</text><g class="guide xlabels" font-size="4.76" font-family="'PT Sans Caption','Helvetica Neue','Helvetica',sans-serif" fill="#A1A1A1" text-anchor="end"><text x="27.38" y="110.72" dy=".35em" transform="rotate(-90 27.38 110.72)">1864</text><text x="38.1" y="110.72" dy=".35em" transform="rotate(-90 38.1 110.72)">1872</text><text x="48.82" y="110.72" dy=".35em" transform="rotate(-90 48.82 110.72)">1880</text><text x="59.55" y="110.72" dy=".35em" transform="rotate(-90 59.55 110.72)">1888</text><text x="70.27" y="110.72" dy=".35em" transform="rotate(-90 70.27 110.72)">1896</text><text x="80.99" y="110.72" dy=".35em" transform="rotate(-90 80.99 110.72)">1904</text><text x="91.71" y="110.72" dy=".35em" transform="rotate(-90 91.71 110.72)">1912</text><text x="102.43" y="110.72" dy=".35em" transform="rotate(-90 102.43 110.72)">1920</text><text x="113.15" y="110.72" dy=".35em" transform="rotate(-90 113.15 110.72)">1928</text><text x="123.88" y="110.72" dy=".35em" transform="rotate(-90 123.88 110.72)">1936</text><text x="134.6" y="110.72" dy=".35em" transform="rotate(-90 134.6 110.72)">1944</text><text x="145.32" y="110.72" dy=".35em" transform="rotate(-90 145.32 110.72)">1952</text><text x="156.04" y="110.72" dy=".35em" transform="rotate(-90 156.04 110.72)">1960</text><text x="166.76" y="110.72" dy=".35em" transform="rotate(-90 166.76 110.72)">1968</text><text x="177.49" y="110.72" dy=".35em" transform="rotate(-90 177.49 110.72)">1976</text><text x="188.21" y="110.72" dy=".35em" transform="rotate(-90 188.21 110.72)">1984</text><text x="198.93" y="110.72" dy=".35em" transform="rotate(-90 198.93 110.72)">1992</text><text x="209.65" y="110.72" dy=".35em" transform="rotate(-90 209.65 110.72)">2000</text><text x="220.37" y="110.72" dy=".35em" transform="rotate(-90 220.37 110.72)">2008</text><text x="231.1" y="110.72" dy=".35em" transform="rotate(-90 231.1 110.72)">2016</text></g><g clip-path="url(#a)"><path d="M25.38 12.91H233.1v96.81H25.38z" pointer-events="visible" fill="#222831" stroke="#000" stroke-opacity="0" class="guide background"/><g class="guide ygridlines xfixed" stroke-dasharray="0.5,0.5" stroke-width=".2" stroke="#575757" fill="none"><path d="M25.38 107.72H233.1M25.38 84.52H233.1M25.38 61.32H233.1M25.38 38.11H233.1M25.38 14.91H233.1"/></g><g class="guide xgridlines yfixed" stroke-dasharray="0.5,0.5" stroke-width=".2" stroke="#575757" fill="none"><path d="M27.38 12.91v96.81M38.1 12.91v96.81M48.82 12.91v96.81M59.55 12.91v96.81M70.27 12.91v96.81M80.99 12.91v96.81M91.71 12.91v96.81M102.43 12.91v96.81M113.15 12.91v96.81M123.88 12.91v96.81M134.6 12.91v96.81M145.32 12.91v96.81M156.04 12.91v96.81M166.76 12.91v96.81M177.49 12.91v96.81M188.21 12.91v96.81M198.93 12.91v96.81M209.65 12.91v96.81M220.37 12.91v96.81M231.1 12.91v96.81"/></g><g class="plotpanel"><g class="geometry"><use xlink:href="#b" x="32.74" y="48.41" stroke="#B58486" fill="#FE4365" class="color_Republican"/><use xlink:href="#b" x="32.74" y="74.22" stroke="#AA8B71" fill="#ECA25C" class="color_Democratic"/><use xlink:href="#b" x="32.74" y="107.72" stroke="#6D9A87" fill="#3F9778" class="color_-"/><use xlink:href="#b" x="38.1" y="42.12" stroke="#B58486" fill="#FE4365" class="color_Republican"/><use xlink:href="#b" x="38.1" y="80.51" stroke="#AA8B71" fill="#ECA25C" class="color_Democratic"/><use xlink:href="#b" x="38.1" y="107.72" stroke="#6D9A87" fill="#3F9778" class="color_-"/><use xlink:href="#b" x="43.46" y="74.96" stroke="#AA8B71" fill="#ECA25C" class="color_Democratic"/><use xlink:href="#b" x="43.46" y="47.67" stroke="#B58486" fill="#FE4365" class="color_Republican"/><use xlink:href="#b" x="43.46" y="107.72" stroke="#6D9A87" fill="#3F9778" class="color_-"/><use xlink:href="#b" x="48.82" y="49.37" stroke="#B58486" fill="#FE4365" class="color_Republican"/><use xlink:href="#b" x="48.82" y="77.45" stroke="#AA8B71" fill="#ECA25C" class="color_Democratic"/><use xlink:href="#b" x="48.82" y="103.53" stroke="#9B8AAB" fill="#EEDBFF" class="color_Greenback"/><use xlink:href="#b" x="48.82" y="107.72" stroke="#6D9A87" fill="#3F9778" class="color_-"/><use xlink:href="#b" x="54.18" y="70.11" stroke="#AA8B71" fill="#ECA25C" class="color_Democratic"/><use xlink:href="#b" x="54.18" y="54.53" stroke="#B58486" fill="#FE4365" class="color_Republican"/><use xlink:href="#b" x="54.18" y="105.72" stroke="#6D9A87" fill="#3F9778" class="color_-"/><use xlink:href="#b" x="59.55" y="70.83" stroke="#AA8B71" fill="#ECA25C" class="color_Democratic"/><use xlink:href="#b" x="59.55" y="58.06" stroke="#B58486" fill="#FE4365" class="color_Republican"/><use xlink:href="#b" x="59.55" y="103.4" stroke="#7C92B3" fill="#236EAD" class="color_Prohibition"/><use xlink:href="#b" x="59.55" y="105.79" stroke="#6D9A87" fill="#3F9778" class="color_-"/><use xlink:href="#b" x="64.91" y="96.16" stroke="#AA8B71" fill="#ECA25C" class="color_Democratic"/><use xlink:href="#b" x="64.91" y="67.29" stroke="#B58486" fill="#FE4365" class="color_Republican"/><use xlink:href="#b" x="64.91" y="69.18" stroke="#5F9A9E" fill="#60F6FF" class="color_Populist"/><use xlink:href="#b" x="64.91" y="105.45" stroke="#7C92B3" fill="#236EAD" class="color_Prohibition"/><use xlink:href="#b" x="64.91" y="107.72" stroke="#6D9A87" fill="#3F9778" class="color_-"/><use xlink:href="#b" x="70.27" y="64.86" stroke="#B58486" fill="#FE4365" class="color_Republican"/><use xlink:href="#b" x="70.27" y="59.9" stroke="#AA8B71" fill="#ECA25C" class="color_Democratic"/><use xlink:href="#b" x="70.27" y="105.6" stroke="#6D9A87" fill="#3F9778" class="color_-"/><use xlink:href="#b" x="75.63" y="60.89" stroke="#B58486" fill="#FE4365" class="color_Republican"/><use xlink:href="#b" x="75.63" y="63.89" stroke="#AA8B71" fill="#ECA25C" class="color_Democratic"/><use xlink:href="#b" x="75.63" y="105.58" stroke="#6D9A87" fill="#3F9778" class="color_-"/><use xlink:href="#b" x="80.99" y="50.75" stroke="#B58486" fill="#FE4365" class="color_Republican"/><use xlink:href="#b" x="80.99" y="85.96" stroke="#AA8B71" fill="#ECA25C" class="color_Democratic"/><use xlink:href="#b" x="80.99" y="104.68" stroke="#8B9572" fill="#D4EC9F" class="color_Socialist"/><use xlink:href="#b" x="80.99" y="96.69" stroke="#6D9A87" fill="#3F9778" class="color_-"/><use xlink:href="#b" x="86.35" y="63.54" stroke="#B58486" fill="#FE4365" class="color_Republican"/><use xlink:href="#b" x="86.35" y="62.12" stroke="#AA8B71" fill="#ECA25C" class="color_Democratic"/><use xlink:href="#b" x="86.35" y="106.5" stroke="#8B9572" fill="#D4EC9F" class="color_Socialist"/><use xlink:href="#b" x="86.35" y="105.92" stroke="#6D9A87" fill="#3F9778" class="color_-"/><use xlink:href="#b" x="91.71" y="67.17" stroke="#AA8B71" fill="#ECA25C" class="color_Democratic"/><use xlink:href="#b" x="91.71" y="80.68" stroke="#A68D6F" fill="#7E674B" class="color_Progressive"/><use xlink:href="#b" x="91.71" y="87.55" stroke="#B58486" fill="#FE4365" class="color_Republican"/><use xlink:href="#b" x="91.71" y="103.93" stroke="#8B9572" fill="#D4EC9F" class="color_Socialist"/><use xlink:href="#b" x="91.71" y="106.47" stroke="#6D9A87" fill="#3F9778" class="color_-"/><use xlink:href="#b" x="97.07" y="56.42" stroke="#AA8B71" fill="#ECA25C" class="color_Democratic"/><use xlink:href="#b" x="97.07" y="69.68" stroke="#B58486" fill="#FE4365" class="color_Republican"/><use xlink:href="#b" x="97.07" y="105.42" stroke="#8B9572" fill="#D4EC9F" class="color_Socialist"/><use xlink:href="#b" x="97.07" y="106.57" stroke="#6D9A87" fill="#3F9778" class="color_-"/><use xlink:href="#b" x="102.43" y="47.71" stroke="#B58486" fill="#FE4365" class="color_Republican"/><use xlink:href="#b" x="102.43" y="78.72" stroke="#AA8B71" fill="#ECA25C" class="color_Democratic"/><use xlink:href="#b" x="102.43" y="105.4" stroke="#8B9572" fill="#D4EC9F" class="color_Socialist"/><use xlink:href="#b" x="102.43" y="106.26" stroke="#6D9A87" fill="#3F9778" class="color_-"/><use xlink:href="#b" x="107.79" y="64.02" stroke="#B58486" fill="#FE4365" class="color_Republican"/><use xlink:href="#b" x="107.79" y="80.27" stroke="#AA8B71" fill="#ECA25C" class="color_Democratic"/><use xlink:href="#b" x="107.79" y="86.39" stroke="#A68D6F" fill="#7E674B" class="color_Progressive"/><use xlink:href="#b" x="107.79" y="107.4" stroke="#6D9A87" fill="#3F9778" class="color_-"/><use xlink:href="#b" x="113.15" y="49.07" stroke="#B58486" fill="#FE4365" class="color_Republican"/><use xlink:href="#b" x="113.15" y="74.14" stroke="#AA8B71" fill="#ECA25C" class="color_Democratic"/><use xlink:href="#b" x="113.15" y="107.14" stroke="#6D9A87" fill="#3F9778" class="color_-"/><use xlink:href="#b" x="118.52" y="49.27" stroke="#AA8B71" fill="#ECA25C" class="color_Democratic"/><use xlink:href="#b" x="118.52" y="74.97" stroke="#B58486" fill="#FE4365" class="color_Republican"/><use xlink:href="#b" x="118.52" y="106.12" stroke="#8B9572" fill="#D4EC9F" class="color_Socialist"/><use xlink:href="#b" x="118.52" y="107.72" stroke="#6D9A87" fill="#3F9778" class="color_-"/><use xlink:href="#b" x="123.88" y="54.69" stroke="#AA8B71" fill="#ECA25C" class="color_Democratic"/><use xlink:href="#b" x="123.88" y="69.91" stroke="#B58486" fill="#FE4365" class="color_Republican"/><use xlink:href="#b" x="123.88" y="105.76" stroke="#6D9A87" fill="#3F9778" class="color_-"/><use xlink:href="#b" x="129.24" y="67.99" stroke="#AA8B71" fill="#ECA25C" class="color_Democratic"/><use xlink:href="#b" x="129.24" y="54.65" stroke="#B58486" fill="#FE4365" class="color_Republican"/><use xlink:href="#b" x="129.24" y="107.72" stroke="#6D9A87" fill="#3F9778" class="color_-"/><use xlink:href="#b" x="134.6" y="69.28" stroke="#AA8B71" fill="#ECA25C" class="color_Democratic"/><use xlink:href="#b" x="134.6" y="53.35" stroke="#B58486" fill="#FE4365" class="color_Republican"/><use xlink:href="#b" x="134.6" y="107.72" stroke="#6D9A87" fill="#3F9778" class="color_-"/><use xlink:href="#b" x="139.96" y="65.17" stroke="#AA8B71" fill="#ECA25C" class="color_Democratic"/><use xlink:href="#b" x="139.96" y="57.46" stroke="#B58486" fill="#FE4365" class="color_Republican"/><use xlink:href="#b" x="139.96" y="107.72" stroke="#9B8AAC" fill="#9E7EC1" class="color_State's_Rights"/><use xlink:href="#b" x="139.96" y="107.72" stroke="#A68D6F" fill="#7E674B" class="color_Progressive"/><use xlink:href="#b" x="139.96" y="107.72" stroke="#6D9A87" fill="#3F9778" class="color_-"/><use xlink:href="#b" x="145.32" y="43.54" stroke="#B58486" fill="#FE4365" class="color_Republican"/><use xlink:href="#b" x="145.32" y="79.09" stroke="#AA8B71" fill="#ECA25C" class="color_Democratic"/><use xlink:href="#b" x="145.32" y="107.72" stroke="#6D9A87" fill="#3F9778" class="color_-"/><use xlink:href="#b" x="150.68" y="46.92" stroke="#B58486" fill="#FE4365" class="color_Republican"/><use xlink:href="#b" x="150.68" y="75.72" stroke="#AA8B71" fill="#ECA25C" class="color_Democratic"/><use xlink:href="#b" x="150.68" y="107.72" stroke="#6D9A87" fill="#3F9778" class="color_-"/><use xlink:href="#b" x="156.04" y="72.52" stroke="#AA8B71" fill="#ECA25C" class="color_Democratic"/><use xlink:href="#b" x="156.04" y="50.11" stroke="#B58486" fill="#FE4365" class="color_Republican"/><use xlink:href="#b" x="156.04" y="107.72" stroke="#6D9A87" fill="#3F9778" class="color_-"/><use xlink:href="#b" x="161.4" y="58.9" stroke="#AA8B71" fill="#ECA25C" class="color_Democratic"/><use xlink:href="#b" x="161.4" y="63.74" stroke="#B58486" fill="#FE4365" class="color_Republican"/><use xlink:href="#b" x="161.4" y="107.72" stroke="#6D9A87" fill="#3F9778" class="color_-"/><use xlink:href="#b" x="166.76" y="52.2" stroke="#B58486" fill="#FE4365" class="color_Republican"/><use xlink:href="#b" x="166.76" y="78.2" stroke="#AA8B71" fill="#ECA25C" class="color_Democratic"/><use xlink:href="#b" x="166.76" y="99.96" stroke="#7C92B3" fill="#7CB5FB" class="color_American_Ind."/><use xlink:href="#b" x="166.76" y="107.72" stroke="#6D9A87" fill="#3F9778" class="color_-"/><use xlink:href="#b" x="172.12" y="42.29" stroke="#B58486" fill="#FE4365" class="color_Republican"/><use xlink:href="#b" x="172.12" y="80.35" stroke="#AA8B71" fill="#ECA25C" class="color_Democratic"/><use xlink:href="#b" x="172.12" y="107.72" stroke="#6D9A87" fill="#3F9778" class="color_-"/><use xlink:href="#b" x="177.49" y="72.03" stroke="#AA8B71" fill="#ECA25C" class="color_Democratic"/><use xlink:href="#b" x="177.49" y="52.78" stroke="#B58486" fill="#FE4365" class="color_Republican"/><use xlink:href="#b" x="177.49" y="105.54" stroke="#6D9A87" fill="#3F9778" class="color_-"/><use xlink:href="#b" x="182.85" y="46.9" stroke="#B58486" fill="#FE4365" class="color_Republican"/><use xlink:href="#b" x="182.85" y="83.56" stroke="#AA8B71" fill="#ECA25C" class="color_Democratic"/><use xlink:href="#b" x="182.85" y="101.21" stroke="#5F9AA3" fill="#009DAD" class="color_Independent"/><use xlink:href="#b" x="182.85" y="106.41" stroke="#6D9A87" fill="#3F9778" class="color_-"/><use xlink:href="#b" x="188.21" y="42.24" stroke="#B58486" fill="#FE4365" class="color_Republican"/><use xlink:href="#b" x="188.21" y="80.98" stroke="#AA8B71" fill="#ECA25C" class="color_Democratic"/><use xlink:href="#b" x="188.21" y="107.13" stroke="#6D9A87" fill="#3F9778" class="color_-"/><use xlink:href="#b" x="193.57" y="51.89" stroke="#B58486" fill="#FE4365" class="color_Republican"/><use xlink:href="#b" x="193.57" y="71.34" stroke="#AA8B71" fill="#ECA25C" class="color_Democratic"/><use xlink:href="#b" x="193.57" y="107.12" stroke="#6D9A87" fill="#3F9778" class="color_-"/><use xlink:href="#b" x="198.93" y="80.44" stroke="#AA8B71" fill="#ECA25C" class="color_Democratic"/><use xlink:href="#b" x="198.93" y="64.49" stroke="#B58486" fill="#FE4365" class="color_Republican"/><use xlink:href="#b" x="198.93" y="85.79" stroke="#5F9AA3" fill="#009DAD" class="color_Independent"/><use xlink:href="#b" x="198.93" y="107.36" stroke="#6D9A87" fill="#3F9778" class="color_-"/><use xlink:href="#b" x="204.29" y="75.28" stroke="#AA8B71" fill="#ECA25C" class="color_Democratic"/><use xlink:href="#b" x="204.29" y="57.92" stroke="#B58486" fill="#FE4365" class="color_Republican"/><use xlink:href="#b" x="204.29" y="97.96" stroke="#B3867D" fill="#AE8178" class="color_Reform"/><use xlink:href="#b" x="204.29" y="106.91" stroke="#6D9A87" fill="#3F9778" class="color_-"/><use xlink:href="#b" x="209.65" y="76.86" stroke="#AA8B71" fill="#ECA25C" class="color_Democratic"/><use xlink:href="#b" x="209.65" y="49.95" stroke="#B58486" fill="#FE4365" class="color_Republican"/><use xlink:href="#b" x="209.65" y="104.46" stroke="#AE8974" fill="#FFD9C5" class="color_Green"/><use xlink:href="#b" x="209.65" y="106.81" stroke="#6D9A87" fill="#3F9778" class="color_-"/><use xlink:href="#b" x="215.01" y="46.56" stroke="#B58486" fill="#FE4365" class="color_Republican"/><use xlink:href="#b" x="215.01" y="77.39" stroke="#AA8B71" fill="#ECA25C" class="color_Democratic"/><use xlink:href="#b" x="215.01" y="106.41" stroke="#6D9A87" fill="#3F9778" class="color_-"/><use xlink:href="#b" x="220.37" y="69.11" stroke="#AA8B71" fill="#ECA25C" class="color_Democratic"/><use xlink:href="#b" x="220.37" y="55.25" stroke="#B58486" fill="#FE4365" class="color_Republican"/><use xlink:href="#b" x="220.37" y="105.99" stroke="#6D9A87" fill="#3F9778" class="color_-"/><use xlink:href="#b" x="225.73" y="72.43" stroke="#AA8B71" fill="#ECA25C" class="color_Democratic"/><use xlink:href="#b" x="225.73" y="52.22" stroke="#B58486" fill="#FE4365" class="color_Republican"/><use xlink:href="#b" x="225.73" y="105.71" stroke="#6D9A87" fill="#3F9778" class="color_-"/></g><g fill-opacity="0"><path fill="none" d="M182.85 101.21l16.08-15.42" stroke="#009DAD" class="geometry color_Independent"/><path fill="none" d="M59.55 103.4l5.36 2.05" stroke="#236EAD" class="geometry color_Prohibition"/><path fill="none" d="M32.74 107.72H48.82l5.36-2 5.37.07 5.36 1.93 5.36-2.12 5.36-.02 5.36-8.89 5.36 9.23 5.36.55 5.36.1 5.36-.31 5.36 1.14 5.36-.26 5.37.58 5.36-1.96 5.36 1.96h42.88l5.37-2.18 5.36.87 5.36.72 5.36-.01 5.36.24 5.36-.45 5.36-.1 5.36-.4 5.36-.42 5.36-.28" stroke="#3F9778" class="geometry color_-"/><path fill="none" d="M91.71 80.68l16.08 5.71 32.17 21.33" stroke="#7E674B" class="geometry color_Progressive"/><path fill="none" d="M80.99 104.68l5.36 1.82 5.36-2.57 5.36 1.49 5.36-.02 16.09.72" stroke="#D4EC9F" class="geometry color_Socialist"/><path fill="none" d="M32.74 74.22l5.36 6.29 5.36-5.55 5.36 2.49 5.36-7.34 5.37.72 5.36 25.33 5.36-36.26 5.36 3.99 5.36 22.07 5.36-23.84 5.36 5.05 5.36-10.75 5.36 22.3 5.36 1.55 5.36-6.13 5.37-24.87 5.36 5.42 5.36 13.3 5.36 1.29 5.36-4.11 5.36 13.92 5.36-3.37 5.36-3.2 5.36-13.62 5.36 19.3 5.36 2.15 5.37-8.32 5.36 11.53 5.36-2.58 5.36-9.64 5.36 9.1 5.36-5.16 5.36 1.58 5.36.53 5.36-8.28 5.36 3.32" stroke="#ECA25C" class="geometry color_Democratic"/><path fill="none" d="M32.74 48.41l5.36-6.29 5.36 5.55 5.36 1.7 5.36 5.16 5.37 3.53 5.36 9.23 5.36-2.43 5.36-3.97 5.36-10.14 5.36 12.79 5.36 24.01 5.36-17.87 5.36-21.97 5.36 16.31 5.36-14.95 5.37 25.9 5.36-5.06 5.36-15.26 5.36-1.3 5.36 4.11 5.36-13.92 5.36 3.38 5.36 3.19 5.36 13.63 5.36-11.54 5.36-9.91 5.37 10.49 5.36-5.88 5.36-4.66 5.36 9.65 5.36 12.6 5.36-6.57 5.36-7.97 5.36-3.39 5.36 8.69 5.36-3.03" stroke="#FE4365" class="geometry color_Republican"/></g></g></g><g class="guide ylabels" font-size="4.76" font-family="'PT Sans Caption','Helvetica Neue','Helvetica',sans-serif" fill="#A1A1A1" text-anchor="end"><text x="24.38" y="107.72" dy=".35em">0</text><text x="24.38" y="84.52" dy=".35em">25</text><text x="24.38" y="61.32" dy=".35em">50</text><text x="24.38" y="38.11" dy=".35em">75</text><text x="24.38" y="14.91" dy=".35em">100</text></g><text x="9.95" y="59.32" text-anchor="middle" dy=".35em" transform="rotate(-90 9.95 61.32)" font-size="6.35" font-family="'PT Sans','Helvetica Neue','Helvetica',sans-serif" fill="#A1A1A1" stroke="#000" stroke-opacity="0">Popular Vote (%)</text><text x="129.24" y="5" text-anchor="middle" dy=".6em" font-size="6.35" font-family="'PT Sans','Helvetica Neue','Helvetica',sans-serif" fill="#A1A1A1" stroke="#000" stroke-opacity="0">Nebraska</text></g><defs><clipPath id="a"><path d="M25.38 12.91H233.1v96.81H25.38"/></clipPath><circle r=".9" id="b"/></defs></svg>