<svg xmlns="http://www.w3.org/2000/svg" xmlns:xlink="http://www.w3.org/1999/xlink" version="1.2" width="238.1mm" height="599.924" viewBox="0 0 238.1 158.73" stroke-width=".3" font-size="3.88"><path d="M0 0h238.1v158.73H0z" stroke="#000" stroke-opacity="0" fill="#222831"/><g class="plotroot xscalable yscalable"><g class="guide colorkey"><g class="color_Green"><text x="181.2" y="135.43" dy=".35em" fill="#A1A1A1" font-size="3.7" font-family="'PT Sans','Helvetica Neue','Helvetica',sans-serif">Green</text><path d="M177.98 134.32h2.22v2.22h-2.22z" fill="#F69A8A" stroke="#000" stroke-opacity="0"/></g><g fill="#A1A1A1" font-size="3.7" font-family="'PT Sans','Helvetica Neue','Helvetica',sans-serif"><text x="155.26" y="135.43" dy=".35em" class="color_State's_Rights">State&amp;apos;s Rights</text><text x="155.26" y="139.88" dy=".35em" class="color_American_Ind.">American Ind.</text><text x="155.26" y="144.33" dy=".35em" class="color_Independent">Independent</text><text x="155.26" y="148.78" dy=".35em" class="color_Reform">Reform</text></g><g stroke="#000" stroke-opacity="0"><path fill="#A55246" class="color_State's_Rights" d="M152.04 134.32h2.22v2.22h-2.22z"/><path fill="#37737B" class="color_American_Ind." d="M152.04 138.77h2.22v2.22h-2.22z"/><path fill="#86906D" class="color_Independent" d="M152.04 143.22h2.22v2.22h-2.22z"/><path fill="#CDE4FF" class="color_Reform" d="M152.04 147.66h2.22v2.22h-2.22z"/></g><g fill="#A1A1A1" font-size="3.7" font-family="'PT Sans','Helvetica Neue','Helvetica',sans-serif"><text x="132.82" y="135.43" dy=".35em" class="color_Prohibition">Prohibition</text><text x="132.82" y="139.88" dy=".35em" class="color_Populist">Populist</text><text x="132.82" y="144.33" dy=".35em" class="color_Socialist">Socialist</text><text x="132.82" y="148.78" dy=".35em" class="color_Progressive">Progressive</text></g><g stroke="#000" stroke-opacity="0"><path fill="#FFD9C5" class="color_Prohibition" d="M129.6 134.32h2.22v2.22h-2.22z"/><path fill="#5C722E" class="color_Populist" d="M129.6 138.77h2.22v2.22h-2.22z"/><path fill="#86BCB1" class="color_Socialist" d="M129.6 143.22h2.22v2.22h-2.22z"/><path fill="#746484" class="color_Progressive" d="M129.6 147.66h2.22v2.22h-2.22z"/></g><g fill="#A1A1A1" font-size="3.7" font-family="'PT Sans','Helvetica Neue','Helvetica',sans-serif"><text x="95.82" y="135.43" dy=".35em" class="color_Whig-American">Whig-American</text><text x="95.82" y="139.88" dy=".35em" class="color_Republican">Republican</text><text x="95.82" y="144.33" dy=".35em" class="color_Constitutional_Union">Constitutional Union</text><text x="95.82" y="148.78" dy=".35em" class="color_Greenback">Greenback</text></g><g stroke="#000" stroke-opacity="0"><path fill="#9E7EC1" class="color_Whig-American" d="M92.6 134.32h2.22v2.22H92.6z"/><path fill="#7CB5FB" class="color_Republican" d="M92.6 138.77h2.22v2.22H92.6z"/><path fill="#009DAD" class="color_Constitutional_Union" d="M92.6 143.22h2.22v2.22H92.6z"/><path fill="#AE8178" class="color_Greenback" d="M92.6 147.66h2.22v2.22H92.6z"/></g><g fill="#A1A1A1" font-size="3.7" font-family="'PT Sans','Helvetica Neue','Helvetica',sans-serif"><text x="70.83" y="135.43" dy=".35em" class="color_Anti-Masonic">Anti-Masonic</text><text x="70.83" y="139.88" dy=".35em" class="color_Whig">Whig</text><text x="70.83" y="144.33" dy=".35em" class="color_Liberty">Liberty</text><text x="70.83" y="148.78" dy=".35em" class="color_Free_Soil">Free Soil</text></g><g stroke="#000" stroke-opacity="0"><path fill="#236EAD" class="color_Anti-Masonic" d="M67.61 134.32h2.22v2.22h-2.22z"/><path fill="#60F6FF" class="color_Whig" d="M67.61 138.77h2.22v2.22h-2.22z"/><path fill="#D4EC9F" class="color_Liberty" d="M67.61 143.22h2.22v2.22h-2.22z"/><path fill="#7E674B" class="color_Free_Soil" d="M67.61 147.66h2.22v2.22h-2.22z"/></g><g fill="#A1A1A1" font-size="3.7" font-family="'PT Sans','Helvetica Neue','Helvetica',sans-serif"><text x="29.6" y="135.43" dy=".35em" class="color_Democratic-Republican">Democratic-Republican</text><text x="29.6" y="139.88" dy=".35em" class="color_-">-</text><text x="29.6" y="144.33" dy=".35em" class="color_Democratic">Democratic</text><text x="29.6" y="148.78" dy=".35em" class="color_Nat'l_Republican">Nat&amp;apos;l Republican</text></g><g stroke="#000" stroke-opacity="0"><path fill="#FE4365" class="color_Democratic-Republican" d="M26.38 134.32h2.22v2.22h-2.22z"/><path fill="#ECA25C" class="color_-" d="M26.38 138.77h2.22v2.22h-2.22z"/><path fill="#3F9778" class="color_Democratic" d="M26.38 143.22h2.22v2.22h-2.22z"/><path fill="#EEDBFF" class="color_Nat'l_Republican" d="M26.38 147.66h2.22v2.22h-2.22z"/></g><text x="26.38" y="131.94" fill="#FFF" font-size="6.35" font-family="'PT Sans','Helvetica Neue','Helvetica',sans-serif" stroke="#000" stroke-opacity="0">Party</text></g><text x="129.24" y="117.12" text-anchor="middle" dy=".6em" font-size="6.35" font-family="'PT Sans','Helvetica Neue','Helvetica',sans-serif" fill="#A1A1A1" stroke="#000" stroke-opacity="0">Year</text><g class="guide xlabels" font-size="4.76" font-family="'PT Sans Caption','Helvetica Neue','Helvetica',sans-serif" fill="#A1A1A1" text-anchor="middle"><text x="27.38" y="108.61" dy=".6em">1820</text><text x="39.85" y="108.61" dy=".6em">1832</text><text x="52.32" y="108.61" dy=".6em">1844</text><text x="64.8" y="108.61" dy=".6em">1856</text><text x="77.27" y="108.61" dy=".6em">1868</text><text x="89.74" y="108.61" dy=".6em">1880</text><text x="102.21" y="108.61" dy=".6em">1892</text><text x="114.69" y="108.61" dy=".6em">1904</text><text x="127.16" y="108.61" dy=".6em">1916</text><text x="139.63" y="108.61" dy=".6em">1928</text><text x="152.1" y="108.61" dy=".6em">1940</text><text x="164.58" y="108.61" dy=".6em">1952</text><text x="177.05" y="108.61" dy=".6em">1964</text><text x="189.52" y="108.61" dy=".6em">1976</text><text x="201.99" y="108.61" dy=".6em">1988</text><text x="214.47" y="108.61" dy=".6em">2000</text><text x="226.94" y="108.61" dy=".6em">2012</text></g><g clip-path="url(#a)"><path d="M25.38 12.91H233.1v94.7H25.38z" pointer-events="visible" fill="#222831" stroke="#000" stroke-opacity="0" class="guide background"/><g class="guide ygridlines xfixed" stroke-dasharray="0.5,0.5" stroke-width=".2" stroke="#575757" fill="none"><path d="M25.38 105.61H233.1M25.38 82.94H233.1M25.38 60.26H233.1M25.38 37.59H233.1M25.38 14.91H233.1"/></g><g class="guide xgridlines yfixed" stroke-dasharray="0.5,0.5" stroke-width=".2" stroke="#575757" fill="none"><path d="M27.38 12.91v94.7M39.85 12.91v94.7M52.32 12.91v94.7M64.8 12.91v94.7M77.27 12.91v94.7M89.74 12.91v94.7M102.21 12.91v94.7M114.69 12.91v94.7M127.16 12.91v94.7M139.63 12.91v94.7M152.1 12.91v94.7M164.58 12.91v94.7M177.05 12.91v94.7M189.52 12.91v94.7M201.99 12.91v94.7M214.47 12.91v94.7M226.94 12.91v94.7"/></g><g class="plotpanel"><g class="geometry"><use xlink:href="#b" x="31.54" y="74.8" stroke="#B58486" fill="#FE4365" class="color_Democratic-Republican"/><use xlink:href="#b" x="31.54" y="101.41" stroke="#B58486" fill="#FE4365" class="color_Democratic-Republican"/><use xlink:href="#b" x="31.54" y="51.65" stroke="#B58486" fill="#FE4365" class="color_Democratic-Republican"/><use xlink:href="#b" x="31.54" y="104.77" stroke="#B58486" fill="#FE4365" class="color_Democratic-Republican"/><use xlink:href="#b" x="31.54" y="104.74" stroke="#AA8B71" fill="#ECA25C" class="color_-"/><use xlink:href="#b" x="35.69" y="41.54" stroke="#6D9A87" fill="#3F9778" class="color_Democratic"/><use xlink:href="#b" x="35.69" y="78.98" stroke="#9B8AAB" fill="#EEDBFF" class="color_Nat'l_Republican"/><use xlink:href="#b" x="35.69" y="105.61" stroke="#AA8B71" fill="#ECA25C" class="color_-"/><use xlink:href="#b" x="39.85" y="14.91" stroke="#6D9A87" fill="#3F9778" class="color_Democratic"/><use xlink:href="#b" x="39.85" y="105.61" stroke="#9B8AAB" fill="#EEDBFF" class="color_Nat'l_Republican"/><use xlink:href="#b" x="39.85" y="105.61" stroke="#7C92B3" fill="#236EAD" class="color_Anti-Masonic"/><use xlink:href="#b" x="39.85" y="105.61" stroke="#AA8B71" fill="#ECA25C" class="color_-"/><use xlink:href="#b" x="44.01" y="51.21" stroke="#6D9A87" fill="#3F9778" class="color_Democratic"/><use xlink:href="#b" x="44.01" y="105.61" stroke="#5F9A9E" fill="#60F6FF" class="color_Whig"/><use xlink:href="#b" x="44.01" y="69.31" stroke="#5F9A9E" fill="#60F6FF" class="color_Whig"/><use xlink:href="#b" x="44.01" y="105.61" stroke="#5F9A9E" fill="#60F6FF" class="color_Whig"/><use xlink:href="#b" x="44.01" y="105.61" stroke="#AA8B71" fill="#ECA25C" class="color_-"/><use xlink:href="#b" x="48.17" y="66.27" stroke="#5F9A9E" fill="#60F6FF" class="color_Whig"/><use xlink:href="#b" x="48.17" y="54.25" stroke="#6D9A87" fill="#3F9778" class="color_Democratic"/><use xlink:href="#b" x="48.17" y="105.61" stroke="#AA8B71" fill="#ECA25C" class="color_-"/><use xlink:href="#b" x="52.32" y="53.93" stroke="#6D9A87" fill="#3F9778" class="color_Democratic"/><use xlink:href="#b" x="52.32" y="66.59" stroke="#5F9A9E" fill="#60F6FF" class="color_Whig"/><use xlink:href="#b" x="52.32" y="105.61" stroke="#8B9572" fill="#D4EC9F" class="color_Liberty"/><use xlink:href="#b" x="52.32" y="105.61" stroke="#AA8B71" fill="#ECA25C" class="color_-"/><use xlink:href="#b" x="56.48" y="64.88" stroke="#5F9A9E" fill="#60F6FF" class="color_Whig"/><use xlink:href="#b" x="56.48" y="55.64" stroke="#6D9A87" fill="#3F9778" class="color_Democratic"/><use xlink:href="#b" x="56.48" y="105.61" stroke="#A68D6F" fill="#7E674B" class="color_Free_Soil"/><use xlink:href="#b" x="56.48" y="105.61" stroke="#AA8B71" fill="#ECA25C" class="color_-"/><use xlink:href="#b" x="60.64" y="54.44" stroke="#6D9A87" fill="#3F9778" class="color_Democratic"/><use xlink:href="#b" x="60.64" y="66.08" stroke="#5F9A9E" fill="#60F6FF" class="color_Whig"/><use xlink:href="#b" x="60.64" y="105.61" stroke="#A68D6F" fill="#7E674B" class="color_Free_Soil"/><use xlink:href="#b" x="60.64" y="105.61" stroke="#AA8B71" fill="#ECA25C" class="color_-"/><use xlink:href="#b" x="64.8" y="56.24" stroke="#6D9A87" fill="#3F9778" class="color_Democratic"/><use xlink:href="#b" x="64.8" y="105.61" stroke="#AA8B71" fill="#ECA25C" class="color_-"/><use xlink:href="#b" x="64.8" y="64.28" stroke="#9B8AAC" fill="#9E7EC1" class="color_Whig-American"/><use xlink:href="#b" x="64.8" y="105.61" stroke="#AA8B71" fill="#ECA25C" class="color_-"/><use xlink:href="#b" x="68.95" y="96.28" stroke="#7C92B3" fill="#7CB5FB" class="color_Republican"/><use xlink:href="#b" x="68.95" y="73.4" stroke="#6D9A87" fill="#3F9778" class="color_Democratic"/><use xlink:href="#b" x="68.95" y="88.43" stroke="#AA8B71" fill="#ECA25C" class="color_-"/><use xlink:href="#b" x="68.95" y="73.63" stroke="#5F9AA3" fill="#009DAD" class="color_Constitutional_Union"/><use xlink:href="#b" x="68.95" y="105.61" stroke="#AA8B71" fill="#ECA25C" class="color_-"/><use xlink:href="#b" x="73.11" y="42.37" stroke="#7C92B3" fill="#7CB5FB" class="color_Republican"/><use xlink:href="#b" x="73.11" y="78.15" stroke="#6D9A87" fill="#3F9778" class="color_Democratic"/><use xlink:href="#b" x="73.11" y="105.61" stroke="#AA8B71" fill="#ECA25C" class="color_-"/><use xlink:href="#b" x="77.27" y="53.95" stroke="#7C92B3" fill="#7CB5FB" class="color_Republican"/><use xlink:href="#b" x="77.27" y="66.58" stroke="#6D9A87" fill="#3F9778" class="color_Democratic"/><use xlink:href="#b" x="77.27" y="105.61" stroke="#AA8B71" fill="#ECA25C" class="color_-"/><use xlink:href="#b" x="81.43" y="66.02" stroke="#7C92B3" fill="#7CB5FB" class="color_Republican"/><use xlink:href="#b" x="81.43" y="55.31" stroke="#6D9A87" fill="#3F9778" class="color_Democratic"/><use xlink:href="#b" x="81.43" y="104.81" stroke="#AA8B71" fill="#ECA25C" class="color_-"/><use xlink:href="#b" x="85.58" y="53.33" stroke="#6D9A87" fill="#3F9778" class="color_Democratic"/><use xlink:href="#b" x="85.58" y="68.09" stroke="#7C92B3" fill="#7CB5FB" class="color_Republican"/><use xlink:href="#b" x="85.58" y="104.71" stroke="#AA8B71" fill="#ECA25C" class="color_-"/><use xlink:href="#b" x="89.74" y="70.53" stroke="#7C92B3" fill="#7CB5FB" class="color_Republican"/><use xlink:href="#b" x="89.74" y="57.99" stroke="#6D9A87" fill="#3F9778" class="color_Democratic"/><use xlink:href="#b" x="89.74" y="97.61" stroke="#B3867D" fill="#AE8178" class="color_Greenback"/><use xlink:href="#b" x="89.74" y="105.61" stroke="#AA8B71" fill="#ECA25C" class="color_-"/><use xlink:href="#b" x="93.9" y="57.1" stroke="#6D9A87" fill="#3F9778" class="color_Democratic"/><use xlink:href="#b" x="93.9" y="63.87" stroke="#7C92B3" fill="#7CB5FB" class="color_Republican"/><use xlink:href="#b" x="93.9" y="105.17" stroke="#AA8B71" fill="#ECA25C" class="color_-"/><use xlink:href="#b" x="98.06" y="60.04" stroke="#6D9A87" fill="#3F9778" class="color_Democratic"/><use xlink:href="#b" x="98.06" y="64.51" stroke="#7C92B3" fill="#7CB5FB" class="color_Republican"/><use xlink:href="#b" x="98.06" y="104.82" stroke="#AE8974" fill="#FFD9C5" class="color_Prohibition"/><use xlink:href="#b" x="98.06" y="102.37" stroke="#AA8B71" fill="#ECA25C" class="color_-"/><use xlink:href="#b" x="102.21" y="60.66" stroke="#6D9A87" fill="#3F9778" class="color_Democratic"/><use xlink:href="#b" x="102.21" y="67.49" stroke="#7C92B3" fill="#7CB5FB" class="color_Republican"/><use xlink:href="#b" x="102.21" y="98.71" stroke="#8B9572" fill="#5C722E" class="color_Populist"/><use xlink:href="#b" x="102.21" y="104.89" stroke="#AE8974" fill="#FFD9C5" class="color_Prohibition"/><use xlink:href="#b" x="102.21" y="105.61" stroke="#AA8B71" fill="#ECA25C" class="color_-"/><use xlink:href="#b" x="106.37" y="64.57" stroke="#7C92B3" fill="#7CB5FB" class="color_Republican"/><use xlink:href="#b" x="106.37" y="56.67" stroke="#6D9A87" fill="#3F9778" class="color_Democratic"/><use xlink:href="#b" x="106.37" y="104.9" stroke="#AA8B71" fill="#ECA25C" class="color_-"/><use xlink:href="#b" x="110.53" y="63.94" stroke="#7C92B3" fill="#7CB5FB" class="color_Republican"/><use xlink:href="#b" x="110.53" y="58.92" stroke="#6D9A87" fill="#3F9778" class="color_Democratic"/><use xlink:href="#b" x="110.53" y="103.27" stroke="#AA8B71" fill="#ECA25C" class="color_-"/><use xlink:href="#b" x="114.69" y="60.33" stroke="#7C92B3" fill="#7CB5FB" class="color_Republican"/><use xlink:href="#b" x="114.69" y="63.87" stroke="#6D9A87" fill="#3F9778" class="color_Democratic"/><use xlink:href="#b" x="114.69" y="103.78" stroke="#669B90" fill="#86BCB1" class="color_Socialist"/><use xlink:href="#b" x="114.69" y="103.77" stroke="#AA8B71" fill="#ECA25C" class="color_-"/><use xlink:href="#b" x="118.84" y="61.62" stroke="#7C92B3" fill="#7CB5FB" class="color_Republican"/><use xlink:href="#b" x="118.84" y="61.7" stroke="#6D9A87" fill="#3F9778" class="color_Democratic"/><use xlink:href="#b" x="118.84" y="103.66" stroke="#669B90" fill="#86BCB1" class="color_Socialist"/><use xlink:href="#b" x="118.84" y="104.76" stroke="#AA8B71" fill="#ECA25C" class="color_-"/><use xlink:href="#b" x="123" y="62.67" stroke="#6D9A87" fill="#3F9778" class="color_Democratic"/><use xlink:href="#b" x="123" y="89.46" stroke="#9B8AAC" fill="#746484" class="color_Progressive"/><use xlink:href="#b" x="123" y="78.63" stroke="#7C92B3" fill="#7CB5FB" class="color_Republican"/><use xlink:href="#b" x="123" y="101.92" stroke="#669B90" fill="#86BCB1" class="color_Socialist"/><use xlink:href="#b" x="123" y="104.68" stroke="#AA8B71" fill="#ECA25C" class="color_-"/><use xlink:href="#b" x="127.16" y="59.73" stroke="#6D9A87" fill="#3F9778" class="color_Democratic"/><use xlink:href="#b" x="127.16" y="63.03" stroke="#7C92B3" fill="#7CB5FB" class="color_Republican"/><use xlink:href="#b" x="127.16" y="103.93" stroke="#669B90" fill="#86BCB1" class="color_Socialist"/><use xlink:href="#b" x="127.16" y="105.06" stroke="#AA8B71" fill="#ECA25C" class="color_-"/><use xlink:href="#b" x="131.32" y="56.13" stroke="#7C92B3" fill="#7CB5FB" class="color_Republican"/><use xlink:href="#b" x="131.32" y="66.49" stroke="#6D9A87" fill="#3F9778" class="color_Democratic"/><use xlink:href="#b" x="131.32" y="104.24" stroke="#669B90" fill="#86BCB1" class="color_Socialist"/><use xlink:href="#b" x="131.32" y="104.89" stroke="#AA8B71" fill="#ECA25C" class="color_-"/><use xlink:href="#b" x="135.47" y="60.64" stroke="#7C92B3" fill="#7CB5FB" class="color_Republican"/><use xlink:href="#b" x="135.47" y="65.89" stroke="#6D9A87" fill="#3F9778" class="color_Democratic"/><use xlink:href="#b" x="135.47" y="99.78" stroke="#9B8AAC" fill="#746484" class="color_Progressive"/><use xlink:href="#b" x="135.47" y="105.44" stroke="#AA8B71" fill="#ECA25C" class="color_-"/><use xlink:href="#b" x="139.63" y="55.2" stroke="#7C92B3" fill="#7CB5FB" class="color_Republican"/><use xlink:href="#b" x="139.63" y="65.57" stroke="#6D9A87" fill="#3F9778" class="color_Democratic"/><use xlink:href="#b" x="139.63" y="105.37" stroke="#AA8B71" fill="#ECA25C" class="color_-"/><use xlink:href="#b" x="143.79" y="47.84" stroke="#6D9A87" fill="#3F9778" class="color_Democratic"/><use xlink:href="#b" x="143.79" y="73.8" stroke="#7C92B3" fill="#7CB5FB" class="color_Republican"/><use xlink:href="#b" x="143.79" y="104.69" stroke="#669B90" fill="#86BCB1" class="color_Socialist"/><use xlink:href="#b" x="143.79" y="105.42" stroke="#AA8B71" fill="#ECA25C" class="color_-"/><use xlink:href="#b" x="147.95" y="50.5" stroke="#6D9A87" fill="#3F9778" class="color_Democratic"/><use xlink:href="#b" x="147.95" y="71" stroke="#7C92B3" fill="#7CB5FB" class="color_Republican"/><use xlink:href="#b" x="147.95" y="104.64" stroke="#AA8B71" fill="#ECA25C" class="color_-"/><use xlink:href="#b" x="152.1" y="58.2" stroke="#6D9A87" fill="#3F9778" class="color_Democratic"/><use xlink:href="#b" x="152.1" y="62.53" stroke="#7C92B3" fill="#7CB5FB" class="color_Republican"/><use xlink:href="#b" x="152.1" y="105.4" stroke="#AA8B71" fill="#ECA25C" class="color_-"/><use xlink:href="#b" x="156.26" y="59.02" stroke="#6D9A87" fill="#3F9778" class="color_Democratic"/><use xlink:href="#b" x="156.26" y="61.69" stroke="#7C92B3" fill="#7CB5FB" class="color_Republican"/><use xlink:href="#b" x="156.26" y="105.43" stroke="#AA8B71" fill="#ECA25C" class="color_-"/><use xlink:href="#b" x="160.42" y="52.91" stroke="#6D9A87" fill="#3F9778" class="color_Democratic"/><use xlink:href="#b" x="160.42" y="67.98" stroke="#7C92B3" fill="#7CB5FB" class="color_Republican"/><use xlink:href="#b" x="160.42" y="105.61" stroke="#B4867D" fill="#A55246" class="color_State's_Rights"/><use xlink:href="#b" x="160.42" y="105.38" stroke="#9B8AAC" fill="#746484" class="color_Progressive"/><use xlink:href="#b" x="160.42" y="105.48" stroke="#AA8B71" fill="#ECA25C" class="color_-"/><use xlink:href="#b" x="164.58" y="59.62" stroke="#7C92B3" fill="#7CB5FB" class="color_Republican"/><use xlink:href="#b" x="164.58" y="61.04" stroke="#6D9A87" fill="#3F9778" class="color_Democratic"/><use xlink:href="#b" x="164.58" y="105.48" stroke="#AA8B71" fill="#ECA25C" class="color_-"/><use xlink:href="#b" x="168.73" y="60.36" stroke="#7C92B3" fill="#7CB5FB" class="color_Republican"/><use xlink:href="#b" x="168.73" y="60.16" stroke="#6D9A87" fill="#3F9778" class="color_Democratic"/><use xlink:href="#b" x="168.73" y="105.61" stroke="#AA8B71" fill="#ECA25C" class="color_-"/><use xlink:href="#b" x="172.89" y="60.03" stroke="#6D9A87" fill="#3F9778" class="color_Democratic"/><use xlink:href="#b" x="172.89" y="60.49" stroke="#7C92B3" fill="#7CB5FB" class="color_Republican"/><use xlink:href="#b" x="172.89" y="105.61" stroke="#AA8B71" fill="#ECA25C" class="color_-"/><use xlink:href="#b" x="177.05" y="47.52" stroke="#6D9A87" fill="#3F9778" class="color_Democratic"/><use xlink:href="#b" x="177.05" y="73" stroke="#7C92B3" fill="#7CB5FB" class="color_Republican"/><use xlink:href="#b" x="177.05" y="105.61" stroke="#AA8B71" fill="#ECA25C" class="color_-"/><use xlink:href="#b" x="181.21" y="64.91" stroke="#7C92B3" fill="#7CB5FB" class="color_Republican"/><use xlink:href="#b" x="181.21" y="65.94" stroke="#6D9A87" fill="#3F9778" class="color_Democratic"/><use xlink:href="#b" x="181.21" y="95.28" stroke="#5F9AA2" fill="#37737B" class="color_American_Ind."/><use xlink:href="#b" x="181.21" y="105.61" stroke="#AA8B71" fill="#ECA25C" class="color_-"/><use xlink:href="#b" x="185.36" y="49.11" stroke="#7C92B3" fill="#7CB5FB" class="color_Republican"/><use xlink:href="#b" x="185.36" y="71.41" stroke="#6D9A87" fill="#3F9778" class="color_Democratic"/><use xlink:href="#b" x="185.36" y="105.61" stroke="#AA8B71" fill="#ECA25C" class="color_-"/><use xlink:href="#b" x="189.52" y="59.26" stroke="#6D9A87" fill="#3F9778" class="color_Democratic"/><use xlink:href="#b" x="189.52" y="62.55" stroke="#7C92B3" fill="#7CB5FB" class="color_Republican"/><use xlink:href="#b" x="189.52" y="104.32" stroke="#AA8B71" fill="#ECA25C" class="color_-"/><use xlink:href="#b" x="193.68" y="59.21" stroke="#7C92B3" fill="#7CB5FB" class="color_Republican"/><use xlink:href="#b" x="193.68" y="65.39" stroke="#6D9A87" fill="#3F9778" class="color_Democratic"/><use xlink:href="#b" x="193.68" y="102.25" stroke="#8B9572" fill="#86906D" class="color_Independent"/><use xlink:href="#b" x="193.68" y="104.9" stroke="#AA8B71" fill="#ECA25C" class="color_-"/><use xlink:href="#b" x="197.84" y="51.17" stroke="#7C92B3" fill="#7CB5FB" class="color_Republican"/><use xlink:href="#b" x="197.84" y="69.35" stroke="#6D9A87" fill="#3F9778" class="color_Democratic"/><use xlink:href="#b" x="197.84" y="105.61" stroke="#AA8B71" fill="#ECA25C" class="color_-"/><use xlink:href="#b" x="201.99" y="58.6" stroke="#7C92B3" fill="#7CB5FB" class="color_Republican"/><use xlink:href="#b" x="201.99" y="62.21" stroke="#6D9A87" fill="#3F9778" class="color_Democratic"/><use xlink:href="#b" x="201.99" y="105.32" stroke="#AA8B71" fill="#ECA25C" class="color_-"/><use xlink:href="#b" x="206.15" y="65.64" stroke="#6D9A87" fill="#3F9778" class="color_Democratic"/><use xlink:href="#b" x="206.15" y="74.85" stroke="#7C92B3" fill="#7CB5FB" class="color_Republican"/><use xlink:href="#b" x="206.15" y="85.94" stroke="#8B9572" fill="#86906D" class="color_Independent"/><use xlink:href="#b" x="206.15" y="105.32" stroke="#AA8B71" fill="#ECA25C" class="color_-"/><use xlink:href="#b" x="210.31" y="62.49" stroke="#6D9A87" fill="#3F9778" class="color_Democratic"/><use xlink:href="#b" x="210.31" y="68.21" stroke="#7C92B3" fill="#7CB5FB" class="color_Republican"/><use xlink:href="#b" x="210.31" y="96.48" stroke="#7694B3" fill="#CDE4FF" class="color_Reform"/><use xlink:href="#b" x="210.31" y="104.57" stroke="#AA8B71" fill="#ECA25C" class="color_-"/><use xlink:href="#b" x="214.47" y="62.91" stroke="#6D9A87" fill="#3F9778" class="color_Democratic"/><use xlink:href="#b" x="214.47" y="59.88" stroke="#7C92B3" fill="#7CB5FB" class="color_Republican"/><use xlink:href="#b" x="214.47" y="104.13" stroke="#B4867D" fill="#F69A8A" class="color_Green"/><use xlink:href="#b" x="214.47" y="104.83" stroke="#AA8B71" fill="#ECA25C" class="color_-"/><use xlink:href="#b" x="218.62" y="57.27" stroke="#7C92B3" fill="#7CB5FB" class="color_Republican"/><use xlink:href="#b" x="218.62" y="63.8" stroke="#6D9A87" fill="#3F9778" class="color_Democratic"/><use xlink:href="#b" x="218.62" y="105.07" stroke="#AA8B71" fill="#ECA25C" class="color_-"/><use xlink:href="#b" x="222.78" y="60.96" stroke="#6D9A87" fill="#3F9778" class="color_Democratic"/><use xlink:href="#b" x="222.78" y="60.84" stroke="#7C92B3" fill="#7CB5FB" class="color_Republican"/><use xlink:href="#b" x="222.78" y="104.33" stroke="#AA8B71" fill="#ECA25C" class="color_-"/><use xlink:href="#b" x="226.94" y="65.45" stroke="#6D9A87" fill="#3F9778" class="color_Democratic"/><use xlink:href="#b" x="226.94" y="56.96" stroke="#7C92B3" fill="#7CB5FB" class="color_Republican"/><use xlink:href="#b" x="226.94" y="103.73" stroke="#AA8B71" fill="#ECA25C" class="color_-"/></g><g fill-opacity="0"><path fill="none" d="M35.69 41.54l4.16-26.63 4.16 36.3 4.16 3.04 4.15-.32 4.16 1.71 4.16-1.2 4.16 1.8 4.15 17.16 4.16 4.75 4.16-11.57 4.16-11.27 4.15-1.98 4.16 4.66 4.16-.89 4.16 2.94 4.15.62 4.16-3.99 4.16 2.25 4.16 4.95 4.15-2.17 4.16.97 4.16-2.94 4.16 6.76 4.15-.6 4.16-.32 4.16-17.73 4.16 2.66 4.15 7.7 4.16.82 4.16-6.11 4.16 8.13 4.15-.88 4.16-.13 4.16-12.51 4.16 18.42 4.15 5.47 4.16-12.15 4.16 6.13 4.16 3.96 4.15-7.14 4.16 3.43 4.16-3.15 4.16.42 4.15.89 4.16-2.84 4.16 4.49" stroke="#3F9778" class="geometry color_Democratic"/><path fill="none" d="M44.01 105.61v-36.3 36.3l4.16-39.34 4.15.32 4.16-1.71 4.16 1.2" stroke="#60F6FF" class="geometry color_Whig"/><path fill="none" d="M123 89.46l12.47 10.32 24.95 5.6" stroke="#746484" class="geometry color_Progressive"/><path fill="none" d="M68.95 96.28l4.16-53.91 4.16 11.58 4.16 12.07 4.15 2.07 4.16 2.44 4.16-6.66 4.16.64 4.15 2.98 4.16-2.92 4.16-.63 4.16-3.61 4.15 1.29L123 78.63l4.16-15.6 4.16-6.9 4.15 4.51 4.16-5.44 4.16 18.6 4.16-2.8 4.15-8.47 4.16-.84 4.16 6.29 4.16-8.36 4.15.74 4.16.13L177.05 73l4.16-8.09 4.15-15.8 4.16 13.44 4.16-3.34 4.16-8.04 4.15 7.43 4.16 16.25 4.16-6.64 4.16-8.33 4.15-2.61 4.16 3.57 4.16-3.88" stroke="#7CB5FB" class="geometry color_Republican"/><path fill="none" d="M56.48 105.61h4.16" stroke="#7E674B" class="geometry color_Free_Soil"/><path fill="none" d="M193.68 102.25l12.47-16.31" stroke="#86906D" class="geometry color_Independent"/><path fill="none" d="M114.69 103.78l4.15-.12 4.16-1.74 4.16 2.01 4.16.31 12.47.45" stroke="#86BCB1" class="geometry color_Socialist"/><path fill="none" d="M31.54 104.74l4.15.87H64.8l4.15-17.18v17.18h8.32l4.16-.8 4.15-.1 4.16.9 4.16-.44 4.16-2.8 4.15 3.24 4.16-.71 4.16-1.63 4.16.5 4.15.99 4.16-.08 4.16.38 4.16-.17 4.15.55 4.16-.07 4.16.05 4.16-.78 4.15.76 4.16.03 4.16.05h4.16l4.15.13H185.36l4.16-1.29 4.16.58 4.16.71 4.15-.29h4.16l4.16-.75 4.16.26 4.15.24 4.16-.74 4.16-.6" stroke="#ECA25C" class="geometry color_-"/><path fill="none" d="M35.69 78.98l4.16 26.63" stroke="#EEDBFF" class="geometry color_Nat'l_Republican"/><path fill="none" d="M31.54 74.8v26.61-49.76 53.12" stroke="#FE4365" class="geometry color_Democratic-Republican"/><path fill="none" d="M98.06 104.82l4.15.07" stroke="#FFD9C5" class="geometry color_Prohibition"/></g></g></g><g class="guide ylabels" font-size="4.76" font-family="'PT Sans Caption','Helvetica Neue','Helvetica',sans-serif" fill="#A1A1A1" text-anchor="end"><text x="24.38" y="105.61" dy=".35em">0</text><text x="24.38" y="82.94" dy=".35em">25</text><text x="24.38" y="60.26" dy=".35em">50</text><text x="24.38" y="37.59" dy=".35em">75</text><text x="24.38" y="14.91" dy=".35em">100</text></g><text x="9.95" y="58.26" text-anchor="middle" dy=".35em" transform="rotate(-90 9.95 60.26)" font-size="6.35" font-family="'PT Sans','Helvetica Neue','Helvetica',sans-serif" fill="#A1A1A1" stroke="#000" stroke-opacity="0">Popular Vote (%)</text><text x="129.24" y="5" text-anchor="middle" dy=".6em" font-size="6.35" font-family="'PT Sans','Helvetica Neue','Helvetica',sans-serif" fill="#A1A1A1" stroke="#000" stroke-opacity="0">Missouri</text></g><defs><clipPath id="a"><path d="M25.38 12.91H233.1v94.7H25.38"/></clipPath><circle r=".9" id="b"/></defs></svg>