<svg xmlns="http://www.w3.org/2000/svg" xmlns:xlink="http://www.w3.org/1999/xlink" version="1.2" width="238.1mm" height="599.924" viewBox="0 0 238.1 158.73" stroke-width=".3" font-size="3.88"><path d="M0 0h238.1v158.73H0z" stroke="#000" stroke-opacity="0" fill="#222831"/><g class="plotroot xscalable yscalable"><g class="guide colorkey"><g fill="#A1A1A1" font-size="3.7" font-family="'PT Sans','Helvetica Neue','Helvetica',sans-serif"><text x="179.92" y="144.33" dy=".35em" class="color_Reform">Reform</text><text x="179.92" y="148.78" dy=".35em" class="color_Green">Green</text></g><g stroke="#000" stroke-opacity="0"><path fill="#FFD9C5" class="color_Reform" d="M176.7 143.22h2.22v2.22h-2.22z"/><path fill="#5C722E" class="color_Green" d="M176.7 147.66h2.22v2.22h-2.22z"/></g><g fill="#A1A1A1" font-size="3.7" font-family="'PT Sans','Helvetica Neue','Helvetica',sans-serif"><text x="153.98" y="144.33" dy=".35em" class="color_American_Ind.">American Ind.</text><text x="153.98" y="148.78" dy=".35em" class="color_Independent">Independent</text></g><g stroke="#000" stroke-opacity="0"><path fill="#009DAD" class="color_American_Ind." d="M150.76 143.22h2.22v2.22h-2.22z"/><path fill="#AE8178" class="color_Independent" d="M150.76 147.66h2.22v2.22h-2.22z"/></g><g fill="#A1A1A1" font-size="3.7" font-family="'PT Sans','Helvetica Neue','Helvetica',sans-serif"><text x="128.19" y="144.33" dy=".35em" class="color_Progressive">Progressive</text><text x="128.19" y="148.78" dy=".35em" class="color_State's_Rights">State&amp;apos;s Rights</text></g><g stroke="#000" stroke-opacity="0"><path fill="#9E7EC1" class="color_Progressive" d="M124.96 143.22h2.22v2.22h-2.22z"/><path fill="#7CB5FB" class="color_State's_Rights" d="M124.96 147.66h2.22v2.22h-2.22z"/></g><g fill="#A1A1A1" font-size="3.7" font-family="'PT Sans','Helvetica Neue','Helvetica',sans-serif"><text x="110.62" y="144.33" dy=".35em" class="color_Populist">Populist</text><text x="110.62" y="148.78" dy=".35em" class="color_Socialist">Socialist</text></g><g stroke="#000" stroke-opacity="0"><path fill="#D4EC9F" class="color_Populist" d="M107.4 143.22h2.22v2.22h-2.22z"/><path fill="#7E674B" class="color_Socialist" d="M107.4 147.66h2.22v2.22h-2.22z"/></g><g fill="#A1A1A1" font-size="3.7" font-family="'PT Sans','Helvetica Neue','Helvetica',sans-serif"><text x="88.82" y="144.33" dy=".35em" class="color_Greenback">Greenback</text><text x="88.82" y="148.78" dy=".35em" class="color_Prohibition">Prohibition</text></g><g stroke="#000" stroke-opacity="0"><path fill="#236EAD" class="color_Greenback" d="M85.6 143.22h2.22v2.22H85.6z"/><path fill="#60F6FF" class="color_Prohibition" d="M85.6 147.66h2.22v2.22H85.6z"/></g><g fill="#A1A1A1" font-size="3.7" font-family="'PT Sans','Helvetica Neue','Helvetica',sans-serif"><text x="51.81" y="144.33" dy=".35em" class="color_-">-</text><text x="51.81" y="148.78" dy=".35em" class="color_Constitutional_Union">Constitutional Union</text></g><g stroke="#000" stroke-opacity="0"><path fill="#3F9778" class="color_-" d="M48.59 143.22h2.22v2.22h-2.22z"/><path fill="#EEDBFF" class="color_Constitutional_Union" d="M48.59 147.66h2.22v2.22h-2.22z"/></g><g fill="#A1A1A1" font-size="3.7" font-family="'PT Sans','Helvetica Neue','Helvetica',sans-serif"><text x="29.6" y="144.33" dy=".35em" class="color_Republican">Republican</text><text x="29.6" y="148.78" dy=".35em" class="color_Democratic">Democratic</text></g><g stroke="#000" stroke-opacity="0"><path fill="#FE4365" class="color_Republican" d="M26.38 143.22h2.22v2.22h-2.22z"/><path fill="#ECA25C" class="color_Democratic" d="M26.38 147.66h2.22v2.22h-2.22z"/></g><text x="26.38" y="140.84" fill="#FFF" font-size="6.35" font-family="'PT Sans','Helvetica Neue','Helvetica',sans-serif" stroke="#000" stroke-opacity="0">Party</text></g><text x="129.24" y="126.02" text-anchor="middle" dy=".6em" font-size="6.35" font-family="'PT Sans','Helvetica Neue','Helvetica',sans-serif" fill="#A1A1A1" stroke="#000" stroke-opacity="0">Year</text><g class="guide xlabels" font-size="4.76" font-family="'PT Sans Caption','Helvetica Neue','Helvetica',sans-serif" fill="#A1A1A1" text-anchor="middle"><text x="27.38" y="117.51" dy=".6em">1856</text><text x="42.66" y="117.51" dy=".6em">1868</text><text x="57.94" y="117.51" dy=".6em">1880</text><text x="73.22" y="117.51" dy=".6em">1892</text><text x="88.49" y="117.51" dy=".6em">1904</text><text x="103.77" y="117.51" dy=".6em">1916</text><text x="119.05" y="117.51" dy=".6em">1928</text><text x="134.33" y="117.51" dy=".6em">1940</text><text x="149.61" y="117.51" dy=".6em">1952</text><text x="164.89" y="117.51" dy=".6em">1964</text><text x="180.17" y="117.51" dy=".6em">1976</text><text x="195.44" y="117.51" dy=".6em">1988</text><text x="210.72" y="117.51" dy=".6em">2000</text><text x="226" y="117.51" dy=".6em">2012</text></g><g clip-path="url(#a)"><path d="M25.38 12.91H233.1v103.6H25.38z" pointer-events="visible" fill="#222831" stroke="#000" stroke-opacity="0" class="guide background"/><g class="guide ygridlines xfixed" stroke-dasharray="0.5,0.5" stroke-width=".2" stroke="#575757" fill="none"><path d="M25.38 114.51H233.1M25.38 89.61H233.1M25.38 64.71H233.1M25.38 39.81H233.1M25.38 14.91H233.1"/></g><g class="guide xgridlines yfixed" stroke-dasharray="0.5,0.5" stroke-width=".2" stroke="#575757" fill="none"><path d="M27.38 12.91v103.6M42.66 12.91v103.6M57.94 12.91v103.6M73.22 12.91v103.6M88.49 12.91v103.6M103.77 12.91v103.6M119.05 12.91v103.6M134.33 12.91v103.6M149.61 12.91v103.6M164.89 12.91v103.6M180.17 12.91v103.6M195.44 12.91v103.6M210.72 12.91v103.6M226 12.91v103.6"/></g><g class="plotpanel"><g class="geometry"><use xlink:href="#b" x="32.47" y="78.45" stroke="#B58486" fill="#FE4365" class="color_Republican"/><use xlink:href="#b" x="32.47" y="86.63" stroke="#AA8B71" fill="#ECA25C" class="color_Democratic"/><use xlink:href="#b" x="32.47" y="80.27" stroke="#6D9A87" fill="#3F9778" class="color_-"/><use xlink:href="#b" x="32.47" y="113.08" stroke="#9B8AAB" fill="#EEDBFF" class="color_Constitutional_Union"/><use xlink:href="#b" x="32.47" y="114.51" stroke="#6D9A87" fill="#3F9778" class="color_-"/><use xlink:href="#b" x="37.57" y="60.82" stroke="#B58486" fill="#FE4365" class="color_Republican"/><use xlink:href="#b" x="37.57" y="68.59" stroke="#AA8B71" fill="#ECA25C" class="color_Democratic"/><use xlink:href="#b" x="37.57" y="114.51" stroke="#6D9A87" fill="#3F9778" class="color_-"/><use xlink:href="#b" x="42.66" y="65.08" stroke="#B58486" fill="#FE4365" class="color_Republican"/><use xlink:href="#b" x="42.66" y="64.34" stroke="#AA8B71" fill="#ECA25C" class="color_Democratic"/><use xlink:href="#b" x="42.66" y="114.51" stroke="#6D9A87" fill="#3F9778" class="color_-"/><use xlink:href="#b" x="47.75" y="56.08" stroke="#B58486" fill="#FE4365" class="color_Republican"/><use xlink:href="#b" x="47.75" y="76.23" stroke="#AA8B71" fill="#ECA25C" class="color_Democratic"/><use xlink:href="#b" x="47.75" y="111.6" stroke="#6D9A87" fill="#3F9778" class="color_-"/><use xlink:href="#b" x="52.84" y="67.32" stroke="#AA8B71" fill="#ECA25C" class="color_Democratic"/><use xlink:href="#b" x="52.84" y="63.8" stroke="#B58486" fill="#FE4365" class="color_Republican"/><use xlink:href="#b" x="52.84" y="112.81" stroke="#6D9A87" fill="#3F9778" class="color_-"/><use xlink:href="#b" x="57.94" y="64.2" stroke="#B58486" fill="#FE4365" class="color_Republican"/><use xlink:href="#b" x="57.94" y="65.82" stroke="#AA8B71" fill="#ECA25C" class="color_Democratic"/><use xlink:href="#b" x="57.94" y="113.9" stroke="#7C92B3" fill="#236EAD" class="color_Greenback"/><use xlink:href="#b" x="57.94" y="114.51" stroke="#6D9A87" fill="#3F9778" class="color_-"/><use xlink:href="#b" x="63.03" y="67.99" stroke="#AA8B71" fill="#ECA25C" class="color_Democratic"/><use xlink:href="#b" x="63.03" y="63.73" stroke="#B58486" fill="#FE4365" class="color_Republican"/><use xlink:href="#b" x="63.03" y="112.2" stroke="#6D9A87" fill="#3F9778" class="color_-"/><use xlink:href="#b" x="68.12" y="71.8" stroke="#AA8B71" fill="#ECA25C" class="color_Democratic"/><use xlink:href="#b" x="68.12" y="60.9" stroke="#B58486" fill="#FE4365" class="color_Republican"/><use xlink:href="#b" x="68.12" y="111.81" stroke="#5F9A9E" fill="#60F6FF" class="color_Prohibition"/><use xlink:href="#b" x="68.12" y="113.92" stroke="#6D9A87" fill="#3F9778" class="color_-"/><use xlink:href="#b" x="73.22" y="96.43" stroke="#AA8B71" fill="#ECA25C" class="color_Democratic"/><use xlink:href="#b" x="73.22" y="70.09" stroke="#B58486" fill="#FE4365" class="color_Republican"/><use xlink:href="#b" x="73.22" y="80.29" stroke="#8B9572" fill="#D4EC9F" class="color_Populist"/><use xlink:href="#b" x="73.22" y="111.61" stroke="#5F9A9E" fill="#60F6FF" class="color_Prohibition"/><use xlink:href="#b" x="73.22" y="114.51" stroke="#6D9A87" fill="#3F9778" class="color_-"/><use xlink:href="#b" x="78.31" y="64.63" stroke="#B58486" fill="#FE4365" class="color_Republican"/><use xlink:href="#b" x="78.31" y="66.72" stroke="#AA8B71" fill="#ECA25C" class="color_Democratic"/><use xlink:href="#b" x="78.31" y="112.57" stroke="#6D9A87" fill="#3F9778" class="color_-"/><use xlink:href="#b" x="83.4" y="59.27" stroke="#B58486" fill="#FE4365" class="color_Republican"/><use xlink:href="#b" x="83.4" y="75.25" stroke="#AA8B71" fill="#ECA25C" class="color_Democratic"/><use xlink:href="#b" x="83.4" y="109.4" stroke="#6D9A87" fill="#3F9778" class="color_-"/><use xlink:href="#b" x="88.49" y="47.72" stroke="#B58486" fill="#FE4365" class="color_Republican"/><use xlink:href="#b" x="88.49" y="95.15" stroke="#AA8B71" fill="#ECA25C" class="color_Democratic"/><use xlink:href="#b" x="88.49" y="106.09" stroke="#A68D6F" fill="#7E674B" class="color_Socialist"/><use xlink:href="#b" x="88.49" y="109.47" stroke="#6D9A87" fill="#3F9778" class="color_-"/><use xlink:href="#b" x="93.59" y="58.34" stroke="#B58486" fill="#FE4365" class="color_Republican"/><use xlink:href="#b" x="93.59" y="80.33" stroke="#AA8B71" fill="#ECA25C" class="color_Democratic"/><use xlink:href="#b" x="93.59" y="107.92" stroke="#A68D6F" fill="#7E674B" class="color_Socialist"/><use xlink:href="#b" x="93.59" y="111.84" stroke="#6D9A87" fill="#3F9778" class="color_-"/><use xlink:href="#b" x="98.68" y="80.3" stroke="#AA8B71" fill="#ECA25C" class="color_Democratic"/><use xlink:href="#b" x="98.68" y="87.18" stroke="#9B8AAC" fill="#9E7EC1" class="color_Progressive"/><use xlink:href="#b" x="98.68" y="89.31" stroke="#B58486" fill="#FE4365" class="color_Republican"/><use xlink:href="#b" x="98.68" y="104.81" stroke="#A68D6F" fill="#7E674B" class="color_Socialist"/><use xlink:href="#b" x="98.68" y="111.34" stroke="#6D9A87" fill="#3F9778" class="color_-"/><use xlink:href="#b" x="103.77" y="68.8" stroke="#AA8B71" fill="#ECA25C" class="color_Democratic"/><use xlink:href="#b" x="103.77" y="66.24" stroke="#B58486" fill="#FE4365" class="color_Republican"/><use xlink:href="#b" x="103.77" y="110.81" stroke="#A68D6F" fill="#7E674B" class="color_Socialist"/><use xlink:href="#b" x="103.77" y="112.59" stroke="#6D9A87" fill="#3F9778" class="color_-"/><use xlink:href="#b" x="108.87" y="54.55" stroke="#B58486" fill="#FE4365" class="color_Republican"/><use xlink:href="#b" x="108.87" y="81.09" stroke="#AA8B71" fill="#ECA25C" class="color_Democratic"/><use xlink:href="#b" x="108.87" y="110.41" stroke="#A68D6F" fill="#7E674B" class="color_Socialist"/><use xlink:href="#b" x="108.87" y="112.37" stroke="#6D9A87" fill="#3F9778" class="color_-"/><use xlink:href="#b" x="113.96" y="63.7" stroke="#B58486" fill="#FE4365" class="color_Republican"/><use xlink:href="#b" x="113.96" y="90.42" stroke="#AA8B71" fill="#ECA25C" class="color_Democratic"/><use xlink:href="#b" x="113.96" y="90.13" stroke="#9B8AAC" fill="#9E7EC1" class="color_Progressive"/><use xlink:href="#b" x="113.96" y="114.18" stroke="#6D9A87" fill="#3F9778" class="color_-"/><use xlink:href="#b" x="119.05" y="50.58" stroke="#B58486" fill="#FE4365" class="color_Republican"/><use xlink:href="#b" x="119.05" y="80.51" stroke="#AA8B71" fill="#ECA25C" class="color_Democratic"/><use xlink:href="#b" x="119.05" y="112.83" stroke="#6D9A87" fill="#3F9778" class="color_-"/><use xlink:href="#b" x="124.14" y="56.75" stroke="#AA8B71" fill="#ECA25C" class="color_Democratic"/><use xlink:href="#b" x="124.14" y="77.77" stroke="#B58486" fill="#FE4365" class="color_Republican"/><use xlink:href="#b" x="124.14" y="110.33" stroke="#A68D6F" fill="#7E674B" class="color_Socialist"/><use xlink:href="#b" x="124.14" y="113.57" stroke="#6D9A87" fill="#3F9778" class="color_-"/><use xlink:href="#b" x="129.24" y="50.34" stroke="#AA8B71" fill="#ECA25C" class="color_Democratic"/><use xlink:href="#b" x="129.24" y="84.99" stroke="#B58486" fill="#FE4365" class="color_Republican"/><use xlink:href="#b" x="129.24" y="108.59" stroke="#6D9A87" fill="#3F9778" class="color_-"/><use xlink:href="#b" x="134.33" y="61.03" stroke="#AA8B71" fill="#ECA25C" class="color_Democratic"/><use xlink:href="#b" x="134.33" y="69.07" stroke="#B58486" fill="#FE4365" class="color_Republican"/><use xlink:href="#b" x="134.33" y="113.83" stroke="#6D9A87" fill="#3F9778" class="color_-"/><use xlink:href="#b" x="139.42" y="62.93" stroke="#AA8B71" fill="#ECA25C" class="color_Democratic"/><use xlink:href="#b" x="139.42" y="67.76" stroke="#B58486" fill="#FE4365" class="color_Republican"/><use xlink:href="#b" x="139.42" y="113.23" stroke="#6D9A87" fill="#3F9778" class="color_-"/><use xlink:href="#b" x="144.52" y="68.3" stroke="#AA8B71" fill="#ECA25C" class="color_Democratic"/><use xlink:href="#b" x="144.52" y="64.92" stroke="#B58486" fill="#FE4365" class="color_Republican"/><use xlink:href="#b" x="144.52" y="114.51" stroke="#7C92B3" fill="#7CB5FB" class="color_State's_Rights"/><use xlink:href="#b" x="144.52" y="111.66" stroke="#9B8AAC" fill="#9E7EC1" class="color_Progressive"/><use xlink:href="#b" x="144.52" y="113.55" stroke="#6D9A87" fill="#3F9778" class="color_-"/><use xlink:href="#b" x="149.61" y="54.21" stroke="#B58486" fill="#FE4365" class="color_Republican"/><use xlink:href="#b" x="149.61" y="75.73" stroke="#AA8B71" fill="#ECA25C" class="color_Democratic"/><use xlink:href="#b" x="149.61" y="113.98" stroke="#6D9A87" fill="#3F9778" class="color_-"/><use xlink:href="#b" x="154.7" y="59.48" stroke="#B58486" fill="#FE4365" class="color_Republican"/><use xlink:href="#b" x="154.7" y="69.93" stroke="#AA8B71" fill="#ECA25C" class="color_Democratic"/><use xlink:href="#b" x="154.7" y="114.51" stroke="#6D9A87" fill="#3F9778" class="color_-"/><use xlink:href="#b" x="159.79" y="67.38" stroke="#AA8B71" fill="#ECA25C" class="color_Democratic"/><use xlink:href="#b" x="159.79" y="62.16" stroke="#B58486" fill="#FE4365" class="color_Republican"/><use xlink:href="#b" x="159.79" y="114.38" stroke="#6D9A87" fill="#3F9778" class="color_-"/><use xlink:href="#b" x="164.89" y="51.05" stroke="#AA8B71" fill="#ECA25C" class="color_Democratic"/><use xlink:href="#b" x="164.89" y="78.69" stroke="#B58486" fill="#FE4365" class="color_Republican"/><use xlink:href="#b" x="164.89" y="114.19" stroke="#6D9A87" fill="#3F9778" class="color_-"/><use xlink:href="#b" x="169.98" y="64.88" stroke="#B58486" fill="#FE4365" class="color_Republican"/><use xlink:href="#b" x="169.98" y="70.9" stroke="#AA8B71" fill="#ECA25C" class="color_Democratic"/><use xlink:href="#b" x="169.98" y="108.47" stroke="#5F9AA3" fill="#009DAD" class="color_American_Ind."/><use xlink:href="#b" x="169.98" y="114.19" stroke="#6D9A87" fill="#3F9778" class="color_-"/><use xlink:href="#b" x="175.07" y="62.27" stroke="#B58486" fill="#FE4365" class="color_Republican"/><use xlink:href="#b" x="175.07" y="72.35" stroke="#AA8B71" fill="#ECA25C" class="color_Democratic"/><use xlink:href="#b" x="175.07" y="109.3" stroke="#6D9A87" fill="#3F9778" class="color_-"/><use xlink:href="#b" x="180.17" y="67.08" stroke="#AA8B71" fill="#ECA25C" class="color_Democratic"/><use xlink:href="#b" x="180.17" y="66.91" stroke="#B58486" fill="#FE4365" class="color_Republican"/><use xlink:href="#b" x="180.17" y="109.93" stroke="#6D9A87" fill="#3F9778" class="color_-"/><use xlink:href="#b" x="185.26" y="66.37" stroke="#B58486" fill="#FE4365" class="color_Republican"/><use xlink:href="#b" x="185.26" y="75.99" stroke="#AA8B71" fill="#ECA25C" class="color_Democratic"/><use xlink:href="#b" x="185.26" y="105.03" stroke="#B3867D" fill="#AE8178" class="color_Independent"/><use xlink:href="#b" x="185.26" y="111.03" stroke="#6D9A87" fill="#3F9778" class="color_-"/><use xlink:href="#b" x="190.35" y="58.83" stroke="#B58486" fill="#FE4365" class="color_Republican"/><use xlink:href="#b" x="190.35" y="70.94" stroke="#AA8B71" fill="#ECA25C" class="color_Democratic"/><use xlink:href="#b" x="190.35" y="114.15" stroke="#6D9A87" fill="#3F9778" class="color_-"/><use xlink:href="#b" x="195.44" y="68.08" stroke="#B58486" fill="#FE4365" class="color_Republican"/><use xlink:href="#b" x="195.44" y="63.44" stroke="#AA8B71" fill="#ECA25C" class="color_Democratic"/><use xlink:href="#b" x="195.44" y="112.4" stroke="#6D9A87" fill="#3F9778" class="color_-"/><use xlink:href="#b" x="200.54" y="72.2" stroke="#AA8B71" fill="#ECA25C" class="color_Democratic"/><use xlink:href="#b" x="200.54" y="82.11" stroke="#B58486" fill="#FE4365" class="color_Republican"/><use xlink:href="#b" x="200.54" y="90.4" stroke="#B3867D" fill="#AE8178" class="color_Independent"/><use xlink:href="#b" x="200.54" y="113.73" stroke="#6D9A87" fill="#3F9778" class="color_-"/><use xlink:href="#b" x="205.63" y="67.54" stroke="#AA8B71" fill="#ECA25C" class="color_Democratic"/><use xlink:href="#b" x="205.63" y="75.6" stroke="#B58486" fill="#FE4365" class="color_Republican"/><use xlink:href="#b" x="205.63" y="105.74" stroke="#AE8974" fill="#FFD9C5" class="color_Reform"/><use xlink:href="#b" x="205.63" y="109.54" stroke="#6D9A87" fill="#3F9778" class="color_-"/><use xlink:href="#b" x="210.72" y="67.74" stroke="#AA8B71" fill="#ECA25C" class="color_Democratic"/><use xlink:href="#b" x="210.72" y="68.18" stroke="#B58486" fill="#FE4365" class="color_Republican"/><use xlink:href="#b" x="210.72" y="109.48" stroke="#8B9572" fill="#5C722E" class="color_Green"/><use xlink:href="#b" x="210.72" y="113.03" stroke="#6D9A87" fill="#3F9778" class="color_-"/><use xlink:href="#b" x="215.82" y="67.5" stroke="#B58486" fill="#FE4365" class="color_Republican"/><use xlink:href="#b" x="215.82" y="63.36" stroke="#AA8B71" fill="#ECA25C" class="color_Democratic"/><use xlink:href="#b" x="215.82" y="113.05" stroke="#6D9A87" fill="#3F9778" class="color_-"/><use xlink:href="#b" x="220.91" y="57.99" stroke="#AA8B71" fill="#ECA25C" class="color_Democratic"/><use xlink:href="#b" x="220.91" y="74.27" stroke="#B58486" fill="#FE4365" class="color_Republican"/><use xlink:href="#b" x="220.91" y="111.67" stroke="#6D9A87" fill="#3F9778" class="color_-"/><use xlink:href="#b" x="226" y="60.49" stroke="#AA8B71" fill="#ECA25C" class="color_Democratic"/><use xlink:href="#b" x="226" y="72.53" stroke="#B58486" fill="#FE4365" class="color_Republican"/><use xlink:href="#b" x="226" y="110.91" stroke="#6D9A87" fill="#3F9778" class="color_-"/></g><g fill-opacity="0"><path fill="none" d="M32.47 80.27v34.24h10.19l5.09-2.91 5.09 1.21 5.1 1.7 5.09-2.31 5.09 1.72 5.1.59 5.09-1.94 5.09-3.17 5.09.07 5.1 2.37 5.09-.5 5.09 1.25 5.1-.22 5.09 1.81 5.09-1.35 5.09.74 5.1-4.98 5.09 5.24 5.09-.6 5.1.32 5.09.43 5.09.53 5.09-.13 5.1-.19h5.09l5.09-4.89 5.1.63 5.09 1.1 5.09 3.12 5.09-1.75 5.1 1.33 5.09-4.19 5.09 3.49 5.1.02 5.09-1.38 5.09-.76" stroke="#3F9778" class="geometry color_-"/><path fill="none" d="M68.12 111.81l5.1-.2" stroke="#60F6FF" class="geometry color_Prohibition"/><path fill="none" d="M88.49 106.09l5.1 1.83 5.09-3.11 5.09 6 5.1-.4 15.27-.08" stroke="#7E674B" class="geometry color_Socialist"/><path fill="none" d="M98.68 87.18l15.28 2.95 30.56 21.53" stroke="#9E7EC1" class="geometry color_Progressive"/><path fill="none" d="M185.26 105.03l15.28-14.63" stroke="#AE8178" class="geometry color_Independent"/><path fill="none" d="M32.47 86.63l5.1-18.04 5.09-4.25 5.09 11.89 5.09-8.91 5.1-1.5 5.09 2.17 5.09 3.81 5.1 24.63 5.09-29.71 5.09 8.53 5.09 19.9 5.1-14.82 5.09-.03 5.09-11.5 5.1 12.29 5.09 9.33 5.09-9.91 5.09-23.76 5.1-6.41 5.09 10.69 5.09 1.9 5.1 5.37 5.09 7.43 5.09-5.8 5.09-2.55 5.1-16.33 5.09 19.85 5.09 1.45 5.1-5.27 5.09 8.91 5.09-5.05 5.09-7.5 5.1 8.76 5.09-4.66 5.09.2 5.1-4.38 5.09-5.37 5.09 2.5" stroke="#ECA25C" class="geometry color_Democratic"/><path fill="none" d="M32.47 78.45l5.1-17.63 5.09 4.26 5.09-9 5.09 7.72 5.1.4 5.09-.47 5.09-2.83 5.1 9.19 5.09-5.46 5.09-5.36 5.09-11.55 5.1 10.62 5.09 30.97 5.09-23.07 5.1-11.69 5.09 9.15 5.09-13.12 5.09 27.19 5.1 7.22 5.09-15.92 5.09-1.31 5.1-2.84 5.09-10.71 5.09 5.27 5.09 2.68 5.1 16.53 5.09-13.81 5.09-2.61 5.1 4.64 5.09-.54 5.09-7.54 5.09 9.25 5.1 14.03 5.09-6.51 5.09-7.42 5.1-.68 5.09 6.77 5.09-1.74" stroke="#FE4365" class="geometry color_Republican"/></g></g></g><g class="guide ylabels" font-size="4.76" font-family="'PT Sans Caption','Helvetica Neue','Helvetica',sans-serif" fill="#A1A1A1" text-anchor="end"><text x="24.38" y="114.51" dy=".35em">0</text><text x="24.38" y="89.61" dy=".35em">25</text><text x="24.38" y="64.71" dy=".35em">50</text><text x="24.38" y="39.81" dy=".35em">75</text><text x="24.38" y="14.91" dy=".35em">100</text></g><text x="9.95" y="62.71" text-anchor="middle" dy=".35em" transform="rotate(-90 9.95 64.71)" font-size="6.35" font-family="'PT Sans','Helvetica Neue','Helvetica',sans-serif" fill="#A1A1A1" stroke="#000" stroke-opacity="0">Popular Vote (%)</text><text x="129.24" y="5" text-anchor="middle" dy=".6em" font-size="6.35" font-family="'PT Sans','Helvetica Neue','Helvetica',sans-serif" fill="#A1A1A1" stroke="#000" stroke-opacity="0">Oregon</text></g><defs><clipPath id="a"><path d="M25.38 12.91H233.1v103.6H25.38"/></clipPath><circle r=".9" id="b"/></defs></svg>