<svg xmlns="http://www.w3.org/2000/svg" xmlns:xlink="http://www.w3.org/1999/xlink" version="1.2" width="238.1mm" height="599.924" viewBox="0 0 238.1 158.73" stroke-width=".3" font-size="3.88"><path d="M0 0h238.1v158.73H0z" stroke="#000" stroke-opacity="0" fill="#222831"/><g class="plotroot xscalable yscalable"><g class="guide colorkey"><g class="color_Green"><text x="181.2" y="135.43" dy=".35em" fill="#A1A1A1" font-size="3.7" font-family="'PT Sans','Helvetica Neue','Helvetica',sans-serif">Green</text><path d="M177.98 134.32h2.22v2.22h-2.22z" fill="#F69A8A" stroke="#000" stroke-opacity="0"/></g><g fill="#A1A1A1" font-size="3.7" font-family="'PT Sans','Helvetica Neue','Helvetica',sans-serif"><text x="155.26" y="135.43" dy=".35em" class="color_State's_Rights">State&amp;apos;s Rights</text><text x="155.26" y="139.88" dy=".35em" class="color_American_Ind.">American Ind.</text><text x="155.26" y="144.33" dy=".35em" class="color_Independent">Independent</text><text x="155.26" y="148.78" dy=".35em" class="color_Reform">Reform</text></g><g stroke="#000" stroke-opacity="0"><path fill="#A55246" class="color_State's_Rights" d="M152.04 134.32h2.22v2.22h-2.22z"/><path fill="#37737B" class="color_American_Ind." d="M152.04 138.77h2.22v2.22h-2.22z"/><path fill="#86906D" class="color_Independent" d="M152.04 143.22h2.22v2.22h-2.22z"/><path fill="#CDE4FF" class="color_Reform" d="M152.04 147.66h2.22v2.22h-2.22z"/></g><g fill="#A1A1A1" font-size="3.7" font-family="'PT Sans','Helvetica Neue','Helvetica',sans-serif"><text x="132.82" y="135.43" dy=".35em" class="color_Prohibition">Prohibition</text><text x="132.82" y="139.88" dy=".35em" class="color_Populist">Populist</text><text x="132.82" y="144.33" dy=".35em" class="color_Socialist">Socialist</text><text x="132.82" y="148.78" dy=".35em" class="color_Progressive">Progressive</text></g><g stroke="#000" stroke-opacity="0"><path fill="#FFD9C5" class="color_Prohibition" d="M129.6 134.32h2.22v2.22h-2.22z"/><path fill="#5C722E" class="color_Populist" d="M129.6 138.77h2.22v2.22h-2.22z"/><path fill="#86BCB1" class="color_Socialist" d="M129.6 143.22h2.22v2.22h-2.22z"/><path fill="#746484" class="color_Progressive" d="M129.6 147.66h2.22v2.22h-2.22z"/></g><g fill="#A1A1A1" font-size="3.7" font-family="'PT Sans','Helvetica Neue','Helvetica',sans-serif"><text x="95.82" y="135.43" dy=".35em" class="color_Whig-American">Whig-American</text><text x="95.82" y="139.88" dy=".35em" class="color_Republican">Republican</text><text x="95.82" y="144.33" dy=".35em" class="color_Constitutional_Union">Constitutional Union</text><text x="95.82" y="148.78" dy=".35em" class="color_Greenback">Greenback</text></g><g stroke="#000" stroke-opacity="0"><path fill="#9E7EC1" class="color_Whig-American" d="M92.6 134.32h2.22v2.22H92.6z"/><path fill="#7CB5FB" class="color_Republican" d="M92.6 138.77h2.22v2.22H92.6z"/><path fill="#009DAD" class="color_Constitutional_Union" d="M92.6 143.22h2.22v2.22H92.6z"/><path fill="#AE8178" class="color_Greenback" d="M92.6 147.66h2.22v2.22H92.6z"/></g><g fill="#A1A1A1" font-size="3.7" font-family="'PT Sans','Helvetica Neue','Helvetica',sans-serif"><text x="70.83" y="135.43" dy=".35em" class="color_Anti-Masonic">Anti-Masonic</text><text x="70.83" y="139.88" dy=".35em" class="color_Whig">Whig</text><text x="70.83" y="144.33" dy=".35em" class="color_Liberty">Liberty</text><text x="70.83" y="148.78" dy=".35em" class="color_Free_Soil">Free Soil</text></g><g stroke="#000" stroke-opacity="0"><path fill="#236EAD" class="color_Anti-Masonic" d="M67.61 134.32h2.22v2.22h-2.22z"/><path fill="#60F6FF" class="color_Whig" d="M67.61 138.77h2.22v2.22h-2.22z"/><path fill="#D4EC9F" class="color_Liberty" d="M67.61 143.22h2.22v2.22h-2.22z"/><path fill="#7E674B" class="color_Free_Soil" d="M67.61 147.66h2.22v2.22h-2.22z"/></g><g fill="#A1A1A1" font-size="3.7" font-family="'PT Sans','Helvetica Neue','Helvetica',sans-serif"><text x="29.6" y="135.43" dy=".35em" class="color_Democratic-Republican">Democratic-Republican</text><text x="29.6" y="139.88" dy=".35em" class="color_-">-</text><text x="29.6" y="144.33" dy=".35em" class="color_Democratic">Democratic</text><text x="29.6" y="148.78" dy=".35em" class="color_Nat'l_Republican">Nat&amp;apos;l Republican</text></g><g stroke="#000" stroke-opacity="0"><path fill="#FE4365" class="color_Democratic-Republican" d="M26.38 134.32h2.22v2.22h-2.22z"/><path fill="#ECA25C" class="color_-" d="M26.38 138.77h2.22v2.22h-2.22z"/><path fill="#3F9778" class="color_Democratic" d="M26.38 143.22h2.22v2.22h-2.22z"/><path fill="#EEDBFF" class="color_Nat'l_Republican" d="M26.38 147.66h2.22v2.22h-2.22z"/></g><text x="26.38" y="131.94" fill="#FFF" font-size="6.35" font-family="'PT Sans','Helvetica Neue','Helvetica',sans-serif" stroke="#000" stroke-opacity="0">Party</text></g><text x="129.24" y="117.12" text-anchor="middle" dy=".6em" font-size="6.35" font-family="'PT Sans','Helvetica Neue','Helvetica',sans-serif" fill="#A1A1A1" stroke="#000" stroke-opacity="0">Year</text><g class="guide xlabels" font-size="4.76" font-family="'PT Sans Caption','Helvetica Neue','Helvetica',sans-serif" fill="#A1A1A1" text-anchor="middle"><text x="27.38" y="108.61" dy=".6em">1820</text><text x="39.85" y="108.61" dy=".6em">1832</text><text x="52.32" y="108.61" dy=".6em">1844</text><text x="64.8" y="108.61" dy=".6em">1856</text><text x="77.27" y="108.61" dy=".6em">1868</text><text x="89.74" y="108.61" dy=".6em">1880</text><text x="102.21" y="108.61" dy=".6em">1892</text><text x="114.69" y="108.61" dy=".6em">1904</text><text x="127.16" y="108.61" dy=".6em">1916</text><text x="139.63" y="108.61" dy=".6em">1928</text><text x="152.1" y="108.61" dy=".6em">1940</text><text x="164.58" y="108.61" dy=".6em">1952</text><text x="177.05" y="108.61" dy=".6em">1964</text><text x="189.52" y="108.61" dy=".6em">1976</text><text x="201.99" y="108.61" dy=".6em">1988</text><text x="214.47" y="108.61" dy=".6em">2000</text><text x="226.94" y="108.61" dy=".6em">2012</text></g><g clip-path="url(#a)"><path d="M25.38 12.91H233.1v94.7H25.38z" pointer-events="visible" fill="#222831" stroke="#000" stroke-opacity="0" class="guide background"/><g class="guide ygridlines xfixed" stroke-dasharray="0.5,0.5" stroke-width=".2" stroke="#575757" fill="none"><path d="M25.38 105.61H233.1M25.38 82.94H233.1M25.38 60.26H233.1M25.38 37.59H233.1M25.38 14.91H233.1"/></g><g class="guide xgridlines yfixed" stroke-dasharray="0.5,0.5" stroke-width=".2" stroke="#575757" fill="none"><path d="M27.38 12.91v94.7M39.85 12.91v94.7M52.32 12.91v94.7M64.8 12.91v94.7M77.27 12.91v94.7M89.74 12.91v94.7M102.21 12.91v94.7M114.69 12.91v94.7M127.16 12.91v94.7M139.63 12.91v94.7M152.1 12.91v94.7M164.58 12.91v94.7M177.05 12.91v94.7M189.52 12.91v94.7M201.99 12.91v94.7M214.47 12.91v94.7M226.94 12.91v94.7"/></g><g class="plotpanel"><g class="geometry"><use xlink:href="#b" x="31.54" y="NaN" stroke="#B58486" fill="#FE4365" class="color_Democratic-Republican"/><use xlink:href="#b" x="31.54" y="NaN" stroke="#B58486" fill="#FE4365" class="color_Democratic-Republican"/><use xlink:href="#b" x="31.54" y="NaN" stroke="#B58486" fill="#FE4365" class="color_Democratic-Republican"/><use xlink:href="#b" x="31.54" y="NaN" stroke="#B58486" fill="#FE4365" class="color_Democratic-Republican"/><use xlink:href="#b" x="31.54" y="NaN" stroke="#AA8B71" fill="#ECA25C" class="color_-"/><use xlink:href="#b" x="35.69" y="NaN" stroke="#6D9A87" fill="#3F9778" class="color_Democratic"/><use xlink:href="#b" x="35.69" y="NaN" stroke="#9B8AAB" fill="#EEDBFF" class="color_Nat'l_Republican"/><use xlink:href="#b" x="35.69" y="NaN" stroke="#AA8B71" fill="#ECA25C" class="color_-"/><use xlink:href="#b" x="39.85" y="61.16" stroke="#6D9A87" fill="#3F9778" class="color_Democratic"/><use xlink:href="#b" x="39.85" y="59.36" stroke="#9B8AAB" fill="#EEDBFF" class="color_Nat'l_Republican"/><use xlink:href="#b" x="39.85" y="105.61" stroke="#7C92B3" fill="#236EAD" class="color_Anti-Masonic"/><use xlink:href="#b" x="39.85" y="105.61" stroke="#AA8B71" fill="#ECA25C" class="color_-"/><use xlink:href="#b" x="44.01" y="63.25" stroke="#6D9A87" fill="#3F9778" class="color_Democratic"/><use xlink:href="#b" x="44.01" y="57.32" stroke="#5F9A9E" fill="#60F6FF" class="color_Whig"/><use xlink:href="#b" x="44.01" y="105.61" stroke="#5F9A9E" fill="#60F6FF" class="color_Whig"/><use xlink:href="#b" x="44.01" y="105.61" stroke="#5F9A9E" fill="#60F6FF" class="color_Whig"/><use xlink:href="#b" x="44.01" y="105.56" stroke="#AA8B71" fill="#ECA25C" class="color_-"/><use xlink:href="#b" x="48.17" y="55.74" stroke="#5F9A9E" fill="#60F6FF" class="color_Whig"/><use xlink:href="#b" x="48.17" y="64.89" stroke="#6D9A87" fill="#3F9778" class="color_Democratic"/><use xlink:href="#b" x="48.17" y="105.5" stroke="#AA8B71" fill="#ECA25C" class="color_-"/><use xlink:href="#b" x="52.32" y="61.4" stroke="#6D9A87" fill="#3F9778" class="color_Democratic"/><use xlink:href="#b" x="52.32" y="59.17" stroke="#5F9A9E" fill="#60F6FF" class="color_Whig"/><use xlink:href="#b" x="52.32" y="105.61" stroke="#8B9572" fill="#D4EC9F" class="color_Liberty"/><use xlink:href="#b" x="52.32" y="105.57" stroke="#AA8B71" fill="#ECA25C" class="color_-"/><use xlink:href="#b" x="56.48" y="58.63" stroke="#5F9A9E" fill="#60F6FF" class="color_Whig"/><use xlink:href="#b" x="56.48" y="62.49" stroke="#6D9A87" fill="#3F9778" class="color_Democratic"/><use xlink:href="#b" x="56.48" y="105.01" stroke="#A68D6F" fill="#7E674B" class="color_Free_Soil"/><use xlink:href="#b" x="56.48" y="105.61" stroke="#AA8B71" fill="#ECA25C" class="color_-"/><use xlink:href="#b" x="60.64" y="60.39" stroke="#6D9A87" fill="#3F9778" class="color_Democratic"/><use xlink:href="#b" x="60.64" y="60.57" stroke="#5F9A9E" fill="#60F6FF" class="color_Whig"/><use xlink:href="#b" x="60.64" y="105.17" stroke="#A68D6F" fill="#7E674B" class="color_Free_Soil"/><use xlink:href="#b" x="60.64" y="105.61" stroke="#AA8B71" fill="#ECA25C" class="color_-"/><use xlink:href="#b" x="64.8" y="55.88" stroke="#6D9A87" fill="#3F9778" class="color_Democratic"/><use xlink:href="#b" x="64.8" y="103.69" stroke="#AA8B71" fill="#ECA25C" class="color_-"/><use xlink:href="#b" x="64.8" y="66.62" stroke="#9B8AAC" fill="#9E7EC1" class="color_Whig-American"/><use xlink:href="#b" x="64.8" y="105.56" stroke="#AA8B71" fill="#ECA25C" class="color_-"/><use xlink:href="#b" x="68.95" y="84.1" stroke="#7C92B3" fill="#7CB5FB" class="color_Republican"/><use xlink:href="#b" x="68.95" y="99.61" stroke="#6D9A87" fill="#3F9778" class="color_Democratic"/><use xlink:href="#b" x="68.95" y="64.31" stroke="#AA8B71" fill="#ECA25C" class="color_-"/><use xlink:href="#b" x="68.95" y="83.73" stroke="#5F9AA3" fill="#009DAD" class="color_Constitutional_Union"/><use xlink:href="#b" x="68.95" y="105.61" stroke="#AA8B71" fill="#ECA25C" class="color_-"/><use xlink:href="#b" x="73.11" y="61.9" stroke="#7C92B3" fill="#7CB5FB" class="color_Republican"/><use xlink:href="#b" x="73.11" y="58.62" stroke="#6D9A87" fill="#3F9778" class="color_Democratic"/><use xlink:href="#b" x="73.11" y="105.61" stroke="#AA8B71" fill="#ECA25C" class="color_-"/><use xlink:href="#b" x="77.27" y="68.42" stroke="#7C92B3" fill="#7CB5FB" class="color_Republican"/><use xlink:href="#b" x="77.27" y="52.1" stroke="#6D9A87" fill="#3F9778" class="color_Democratic"/><use xlink:href="#b" x="77.27" y="105.61" stroke="#AA8B71" fill="#ECA25C" class="color_-"/><use xlink:href="#b" x="81.43" y="59.35" stroke="#7C92B3" fill="#7CB5FB" class="color_Republican"/><use xlink:href="#b" x="81.43" y="63.2" stroke="#6D9A87" fill="#3F9778" class="color_Democratic"/><use xlink:href="#b" x="81.43" y="103.58" stroke="#AA8B71" fill="#ECA25C" class="color_-"/><use xlink:href="#b" x="85.58" y="55.32" stroke="#6D9A87" fill="#3F9778" class="color_Democratic"/><use xlink:href="#b" x="85.58" y="65.2" stroke="#7C92B3" fill="#7CB5FB" class="color_Republican"/><use xlink:href="#b" x="85.58" y="105.61" stroke="#AA8B71" fill="#ECA25C" class="color_-"/><use xlink:href="#b" x="89.74" y="62.05" stroke="#7C92B3" fill="#7CB5FB" class="color_Republican"/><use xlink:href="#b" x="89.74" y="58.87" stroke="#6D9A87" fill="#3F9778" class="color_Democratic"/><use xlink:href="#b" x="89.74" y="105.22" stroke="#B3867D" fill="#AE8178" class="color_Greenback"/><use xlink:href="#b" x="89.74" y="105.61" stroke="#AA8B71" fill="#ECA25C" class="color_-"/><use xlink:href="#b" x="93.9" y="54.32" stroke="#6D9A87" fill="#3F9778" class="color_Democratic"/><use xlink:href="#b" x="93.9" y="66.43" stroke="#7C92B3" fill="#7CB5FB" class="color_Republican"/><use xlink:href="#b" x="93.9" y="105.39" stroke="#AA8B71" fill="#ECA25C" class="color_-"/><use xlink:href="#b" x="98.06" y="55.59" stroke="#6D9A87" fill="#3F9778" class="color_Democratic"/><use xlink:href="#b" x="98.06" y="66.15" stroke="#7C92B3" fill="#7CB5FB" class="color_Republican"/><use xlink:href="#b" x="98.06" y="104.4" stroke="#AE8974" fill="#FFD9C5" class="color_Prohibition"/><use xlink:href="#b" x="98.06" y="105.61" stroke="#AA8B71" fill="#ECA25C" class="color_-"/><use xlink:href="#b" x="102.21" y="60.35" stroke="#6D9A87" fill="#3F9778" class="color_Democratic"/><use xlink:href="#b" x="102.21" y="61.58" stroke="#7C92B3" fill="#7CB5FB" class="color_Republican"/><use xlink:href="#b" x="102.21" y="105.61" stroke="#8B9572" fill="#5C722E" class="color_Populist"/><use xlink:href="#b" x="102.21" y="104.24" stroke="#AE8974" fill="#FFD9C5" class="color_Prohibition"/><use xlink:href="#b" x="102.21" y="105.58" stroke="#AA8B71" fill="#ECA25C" class="color_-"/><use xlink:href="#b" x="106.37" y="57.38" stroke="#7C92B3" fill="#7CB5FB" class="color_Republican"/><use xlink:href="#b" x="106.37" y="66.52" stroke="#6D9A87" fill="#3F9778" class="color_Democratic"/><use xlink:href="#b" x="106.37" y="102.24" stroke="#AA8B71" fill="#ECA25C" class="color_-"/><use xlink:href="#b" x="110.53" y="56.93" stroke="#7C92B3" fill="#7CB5FB" class="color_Republican"/><use xlink:href="#b" x="110.53" y="64.89" stroke="#6D9A87" fill="#3F9778" class="color_Democratic"/><use xlink:href="#b" x="110.53" y="104.31" stroke="#AA8B71" fill="#ECA25C" class="color_-"/><use xlink:href="#b" x="114.69" y="56.59" stroke="#7C92B3" fill="#7CB5FB" class="color_Republican"/><use xlink:href="#b" x="114.69" y="65.6" stroke="#6D9A87" fill="#3F9778" class="color_Democratic"/><use xlink:href="#b" x="114.69" y="105.31" stroke="#669B90" fill="#86BCB1" class="color_Socialist"/><use xlink:href="#b" x="114.69" y="104.25" stroke="#AA8B71" fill="#ECA25C" class="color_-"/><use xlink:href="#b" x="118.84" y="58.35" stroke="#7C92B3" fill="#7CB5FB" class="color_Republican"/><use xlink:href="#b" x="118.84" y="63.94" stroke="#6D9A87" fill="#3F9778" class="color_Democratic"/><use xlink:href="#b" x="118.84" y="105.16" stroke="#669B90" fill="#86BCB1" class="color_Socialist"/><use xlink:href="#b" x="118.84" y="104.29" stroke="#AA8B71" fill="#ECA25C" class="color_-"/><use xlink:href="#b" x="123" y="63.46" stroke="#6D9A87" fill="#3F9778" class="color_Democratic"/><use xlink:href="#b" x="123" y="89.06" stroke="#9B8AAC" fill="#746484" class="color_Progressive"/><use xlink:href="#b" x="123" y="75.81" stroke="#7C92B3" fill="#7CB5FB" class="color_Republican"/><use xlink:href="#b" x="123" y="104.58" stroke="#669B90" fill="#86BCB1" class="color_Socialist"/><use xlink:href="#b" x="123" y="104.45" stroke="#AA8B71" fill="#ECA25C" class="color_-"/><use xlink:href="#b" x="127.16" y="62.28" stroke="#6D9A87" fill="#3F9778" class="color_Democratic"/><use xlink:href="#b" x="127.16" y="60.08" stroke="#7C92B3" fill="#7CB5FB" class="color_Republican"/><use xlink:href="#b" x="127.16" y="104.77" stroke="#669B90" fill="#86BCB1" class="color_Socialist"/><use xlink:href="#b" x="127.16" y="104.62" stroke="#AA8B71" fill="#ECA25C" class="color_-"/><use xlink:href="#b" x="131.32" y="55.08" stroke="#7C92B3" fill="#7CB5FB" class="color_Republican"/><use xlink:href="#b" x="131.32" y="67.46" stroke="#6D9A87" fill="#3F9778" class="color_Democratic"/><use xlink:href="#b" x="131.32" y="104.67" stroke="#669B90" fill="#86BCB1" class="color_Socialist"/><use xlink:href="#b" x="131.32" y="104.54" stroke="#AA8B71" fill="#ECA25C" class="color_-"/><use xlink:href="#b" x="135.47" y="53.28" stroke="#7C92B3" fill="#7CB5FB" class="color_Republican"/><use xlink:href="#b" x="135.47" y="72.23" stroke="#6D9A87" fill="#3F9778" class="color_Democratic"/><use xlink:href="#b" x="135.47" y="100.64" stroke="#9B8AAC" fill="#746484" class="color_Progressive"/><use xlink:href="#b" x="135.47" y="105.59" stroke="#AA8B71" fill="#ECA25C" class="color_-"/><use xlink:href="#b" x="139.63" y="46.63" stroke="#7C92B3" fill="#7CB5FB" class="color_Republican"/><use xlink:href="#b" x="139.63" y="74.23" stroke="#6D9A87" fill="#3F9778" class="color_Democratic"/><use xlink:href="#b" x="139.63" y="105.28" stroke="#AA8B71" fill="#ECA25C" class="color_-"/><use xlink:href="#b" x="143.79" y="61.97" stroke="#6D9A87" fill="#3F9778" class="color_Democratic"/><use xlink:href="#b" x="143.79" y="59.76" stroke="#7C92B3" fill="#7CB5FB" class="color_Republican"/><use xlink:href="#b" x="143.79" y="104.51" stroke="#669B90" fill="#86BCB1" class="color_Socialist"/><use xlink:href="#b" x="143.79" y="105.51" stroke="#AA8B71" fill="#ECA25C" class="color_-"/><use xlink:href="#b" x="147.95" y="56.07" stroke="#6D9A87" fill="#3F9778" class="color_Democratic"/><use xlink:href="#b" x="147.95" y="64.93" stroke="#7C92B3" fill="#7CB5FB" class="color_Republican"/><use xlink:href="#b" x="147.95" y="105.14" stroke="#AA8B71" fill="#ECA25C" class="color_-"/><use xlink:href="#b" x="152.1" y="56" stroke="#6D9A87" fill="#3F9778" class="color_Democratic"/><use xlink:href="#b" x="152.1" y="64.75" stroke="#7C92B3" fill="#7CB5FB" class="color_Republican"/><use xlink:href="#b" x="152.1" y="105.39" stroke="#AA8B71" fill="#ECA25C" class="color_-"/><use xlink:href="#b" x="156.26" y="56.29" stroke="#6D9A87" fill="#3F9778" class="color_Democratic"/><use xlink:href="#b" x="156.26" y="64.55" stroke="#7C92B3" fill="#7CB5FB" class="color_Republican"/><use xlink:href="#b" x="156.26" y="105.29" stroke="#AA8B71" fill="#ECA25C" class="color_-"/><use xlink:href="#b" x="160.42" y="61.39" stroke="#6D9A87" fill="#3F9778" class="color_Democratic"/><use xlink:href="#b" x="160.42" y="60.23" stroke="#7C92B3" fill="#7CB5FB" class="color_Republican"/><use xlink:href="#b" x="160.42" y="105.61" stroke="#B4867D" fill="#A55246" class="color_State's_Rights"/><use xlink:href="#b" x="160.42" y="104.93" stroke="#9B8AAC" fill="#746484" class="color_Progressive"/><use xlink:href="#b" x="160.42" y="105.21" stroke="#AA8B71" fill="#ECA25C" class="color_-"/><use xlink:href="#b" x="164.58" y="58.67" stroke="#7C92B3" fill="#7CB5FB" class="color_Republican"/><use xlink:href="#b" x="164.58" y="62.19" stroke="#6D9A87" fill="#3F9778" class="color_Democratic"/><use xlink:href="#b" x="164.58" y="105.27" stroke="#AA8B71" fill="#ECA25C" class="color_-"/><use xlink:href="#b" x="168.73" y="55.64" stroke="#7C92B3" fill="#7CB5FB" class="color_Republican"/><use xlink:href="#b" x="168.73" y="65.14" stroke="#6D9A87" fill="#3F9778" class="color_Democratic"/><use xlink:href="#b" x="168.73" y="105.35" stroke="#AA8B71" fill="#ECA25C" class="color_-"/><use xlink:href="#b" x="172.89" y="59.69" stroke="#6D9A87" fill="#3F9778" class="color_Democratic"/><use xlink:href="#b" x="172.89" y="61.17" stroke="#7C92B3" fill="#7CB5FB" class="color_Republican"/><use xlink:href="#b" x="172.89" y="105.28" stroke="#AA8B71" fill="#ECA25C" class="color_-"/><use xlink:href="#b" x="177.05" y="50.33" stroke="#6D9A87" fill="#3F9778" class="color_Democratic"/><use xlink:href="#b" x="177.05" y="70.44" stroke="#7C92B3" fill="#7CB5FB" class="color_Republican"/><use xlink:href="#b" x="177.05" y="105.37" stroke="#AA8B71" fill="#ECA25C" class="color_-"/><use xlink:href="#b" x="181.21" y="64.69" stroke="#7C92B3" fill="#7CB5FB" class="color_Republican"/><use xlink:href="#b" x="181.21" y="67.87" stroke="#6D9A87" fill="#3F9778" class="color_Democratic"/><use xlink:href="#b" x="181.21" y="93.57" stroke="#5F9AA2" fill="#37737B" class="color_American_Ind."/><use xlink:href="#b" x="181.21" y="105.61" stroke="#AA8B71" fill="#ECA25C" class="color_-"/><use xlink:href="#b" x="185.36" y="51.56" stroke="#7C92B3" fill="#7CB5FB" class="color_Republican"/><use xlink:href="#b" x="185.36" y="70.07" stroke="#6D9A87" fill="#3F9778" class="color_Democratic"/><use xlink:href="#b" x="185.36" y="104.51" stroke="#AA8B71" fill="#ECA25C" class="color_-"/><use xlink:href="#b" x="189.52" y="58.46" stroke="#6D9A87" fill="#3F9778" class="color_Democratic"/><use xlink:href="#b" x="189.52" y="63.37" stroke="#7C92B3" fill="#7CB5FB" class="color_Republican"/><use xlink:href="#b" x="189.52" y="104.3" stroke="#AA8B71" fill="#ECA25C" class="color_-"/><use xlink:href="#b" x="193.68" y="62.79" stroke="#7C92B3" fill="#7CB5FB" class="color_Republican"/><use xlink:href="#b" x="193.68" y="64.91" stroke="#6D9A87" fill="#3F9778" class="color_Democratic"/><use xlink:href="#b" x="193.68" y="99.34" stroke="#8B9572" fill="#86906D" class="color_Independent"/><use xlink:href="#b" x="193.68" y="104.7" stroke="#AA8B71" fill="#ECA25C" class="color_-"/><use xlink:href="#b" x="197.84" y="51.39" stroke="#7C92B3" fill="#7CB5FB" class="color_Republican"/><use xlink:href="#b" x="197.84" y="69.39" stroke="#6D9A87" fill="#3F9778" class="color_Democratic"/><use xlink:href="#b" x="197.84" y="105.35" stroke="#AA8B71" fill="#ECA25C" class="color_-"/><use xlink:href="#b" x="201.99" y="54.93" stroke="#7C92B3" fill="#7CB5FB" class="color_Republican"/><use xlink:href="#b" x="201.99" y="66.18" stroke="#6D9A87" fill="#3F9778" class="color_Democratic"/><use xlink:href="#b" x="201.99" y="105.03" stroke="#AA8B71" fill="#ECA25C" class="color_-"/><use xlink:href="#b" x="206.15" y="66.15" stroke="#6D9A87" fill="#3F9778" class="color_Democratic"/><use xlink:href="#b" x="206.15" y="73.58" stroke="#7C92B3" fill="#7CB5FB" class="color_Republican"/><use xlink:href="#b" x="206.15" y="87.08" stroke="#8B9572" fill="#86906D" class="color_Independent"/><use xlink:href="#b" x="206.15" y="104.94" stroke="#AA8B71" fill="#ECA25C" class="color_-"/><use xlink:href="#b" x="210.31" y="58.65" stroke="#6D9A87" fill="#3F9778" class="color_Democratic"/><use xlink:href="#b" x="210.31" y="72.47" stroke="#7C92B3" fill="#7CB5FB" class="color_Republican"/><use xlink:href="#b" x="210.31" y="96" stroke="#7694B3" fill="#CDE4FF" class="color_Reform"/><use xlink:href="#b" x="210.31" y="104.63" stroke="#AA8B71" fill="#ECA25C" class="color_-"/><use xlink:href="#b" x="214.47" y="55.76" stroke="#6D9A87" fill="#3F9778" class="color_Democratic"/><use xlink:href="#b" x="214.47" y="67.6" stroke="#7C92B3" fill="#7CB5FB" class="color_Republican"/><use xlink:href="#b" x="214.47" y="103.31" stroke="#B4867D" fill="#F69A8A" class="color_Green"/><use xlink:href="#b" x="214.47" y="105.07" stroke="#AA8B71" fill="#ECA25C" class="color_-"/><use xlink:href="#b" x="218.62" y="64.12" stroke="#7C92B3" fill="#7CB5FB" class="color_Republican"/><use xlink:href="#b" x="218.62" y="57.24" stroke="#6D9A87" fill="#3F9778" class="color_Democratic"/><use xlink:href="#b" x="218.62" y="104.78" stroke="#AA8B71" fill="#ECA25C" class="color_-"/><use xlink:href="#b" x="222.78" y="49.46" stroke="#6D9A87" fill="#3F9778" class="color_Democratic"/><use xlink:href="#b" x="222.78" y="72.12" stroke="#7C92B3" fill="#7CB5FB" class="color_Republican"/><use xlink:href="#b" x="222.78" y="104.56" stroke="#AA8B71" fill="#ECA25C" class="color_-"/><use xlink:href="#b" x="226.94" y="52.45" stroke="#6D9A87" fill="#3F9778" class="color_Democratic"/><use xlink:href="#b" x="226.94" y="69.35" stroke="#7C92B3" fill="#7CB5FB" class="color_Republican"/><use xlink:href="#b" x="226.94" y="104.33" stroke="#AA8B71" fill="#ECA25C" class="color_-"/></g><g fill-opacity="0"><path fill="none" d="M39.85 61.16l4.16 2.09 4.16 1.64 4.15-3.49 4.16 1.09 4.16-2.1 4.16-4.51 4.15 43.73 4.16-40.99 4.16-6.52 4.16 11.1 4.15-7.88 4.16 3.55 4.16-4.55 4.16 1.27 4.15 4.76 4.16 6.17 4.16-1.63 4.16.71 4.15-1.66 4.16-.48 4.16-1.18 4.16 5.18 4.15 4.77 4.16 2 4.16-12.26 4.16-5.9 4.15-.07 4.16.29 4.16 5.1 4.16.8 4.15 2.95 4.16-5.45 4.16-9.36 4.16 17.54 4.15 2.2 4.16-11.61 4.16 6.45 4.16 4.48 4.15-3.21 4.16-.03 4.16-7.5 4.16-2.89 4.15 1.48 4.16-7.78 4.16 2.99" stroke="#3F9778" class="geometry color_Democratic"/><path fill="none" d="M44.01 57.32v48.29l4.16-49.87 4.15 3.43 4.16-.54 4.16 1.94" stroke="#60F6FF" class="geometry color_Whig"/><path fill="none" d="M123 89.06l12.47 11.58 24.95 4.29" stroke="#746484" class="geometry color_Progressive"/><path fill="none" d="M68.95 84.1l4.16-22.2 4.16 6.52 4.16-9.07 4.15 5.85 4.16-3.15 4.16 4.38 4.16-.28 4.15-4.57 4.16-4.2 4.16-.45 4.16-.34 4.15 1.76L123 75.81l4.16-15.73 4.16-5 4.15-1.8 4.16-6.65 4.16 13.13 4.16 5.17 4.15-.18 4.16-.2 4.16-4.32 4.16-1.56 4.15-3.03 4.16 5.53 4.16 9.27 4.16-5.75 4.15-13.13 4.16 11.81 4.16-.58 4.16-11.4 4.15 3.54 4.16 18.65 4.16-1.11 4.16-4.87 4.15-3.48 4.16 8 4.16-2.77" stroke="#7CB5FB" class="geometry color_Republican"/><path fill="none" d="M56.48 105.01l4.16.16" stroke="#7E674B" class="geometry color_Free_Soil"/><path fill="none" d="M193.68 99.34l12.47-12.26" stroke="#86906D" class="geometry color_Independent"/><path fill="none" d="M114.69 105.31l4.15-.15 4.16-.58 4.16.19 4.16-.1 12.47-.16" stroke="#86BCB1" class="geometry color_Socialist"/><path fill="none" d="M39.85 105.61l4.16-.05 4.16-.06 4.15.07 4.16.04h4.16l4.16-1.92v1.87l4.15-41.25v41.3h8.32l4.16-2.03 4.15 2.03h4.16l4.16-.22 4.16.22 4.15-.03 4.16-3.34 4.16 2.07 4.16-.06 4.15.04 4.16.16 4.16.17 4.16-.08 4.15 1.05 4.16-.31 4.16.23 4.16-.37 4.15.25 4.16-.1 4.16-.08 4.16.06 4.15.08 4.16-.07 4.16.09 4.16.24 4.15-1.1 4.16-.21 4.16.4 4.16.65 4.15-.32 4.16-.09 4.16-.31 4.16.44 4.15-.29 4.16-.22 4.16-.23" stroke="#ECA25C" class="geometry color_-"/><path fill="none" d="M98.06 104.4l4.15-.16" stroke="#FFD9C5" class="geometry color_Prohibition"/></g></g></g><g class="guide ylabels" font-size="4.76" font-family="'PT Sans Caption','Helvetica Neue','Helvetica',sans-serif" fill="#A1A1A1" text-anchor="end"><text x="24.38" y="105.61" dy=".35em">0</text><text x="24.38" y="82.94" dy=".35em">25</text><text x="24.38" y="60.26" dy=".35em">50</text><text x="24.38" y="37.59" dy=".35em">75</text><text x="24.38" y="14.91" dy=".35em">100</text></g><text x="9.95" y="58.26" text-anchor="middle" dy=".35em" transform="rotate(-90 9.95 60.26)" font-size="6.35" font-family="'PT Sans','Helvetica Neue','Helvetica',sans-serif" fill="#A1A1A1" stroke="#000" stroke-opacity="0">Popular Vote (%)</text><text x="129.24" y="5" text-anchor="middle" dy=".6em" font-size="6.35" font-family="'PT Sans','Helvetica Neue','Helvetica',sans-serif" fill="#A1A1A1" stroke="#000" stroke-opacity="0">Delaware</text></g><defs><clipPath id="a"><path d="M25.38 12.91H233.1v94.7H25.38"/></clipPath><circle r=".9" id="b"/></defs></svg>