<svg xmlns="http://www.w3.org/2000/svg" xmlns:xlink="http://www.w3.org/1999/xlink" version="1.2" width="238.1mm" height="599.924" viewBox="0 0 238.1 158.73" stroke-width=".3" font-size="3.88"><path d="M0 0h238.1v158.73H0z" stroke="#000" stroke-opacity="0" fill="#222831"/><g class="plotroot xscalable yscalable"><g class="guide colorkey"><g fill="#A1A1A1" font-size="3.7" font-family="'PT Sans','Helvetica Neue','Helvetica',sans-serif"><text x="165.65" y="139.88" dy=".35em" class="color_Reform">Reform</text><text x="165.65" y="144.33" dy=".35em" class="color_Green">Green</text></g><g stroke="#000" stroke-opacity="0"><path fill="#746484" class="color_Reform" d="M162.42 138.77h2.22v2.22h-2.22z"/><path fill="#A55246" class="color_Green" d="M162.42 143.22h2.22v2.22h-2.22z"/></g><g fill="#A1A1A1" font-size="3.7" font-family="'PT Sans','Helvetica Neue','Helvetica',sans-serif"><text x="139.71" y="139.88" dy=".35em" class="color_State's_Rights">State&amp;apos;s Rights</text><text x="139.71" y="144.33" dy=".35em" class="color_American_Ind.">American Ind.</text><text x="139.71" y="148.78" dy=".35em" class="color_Independent">Independent</text></g><g stroke="#000" stroke-opacity="0"><path fill="#FFD9C5" class="color_State's_Rights" d="M136.48 138.77h2.22v2.22h-2.22z"/><path fill="#5C722E" class="color_American_Ind." d="M136.48 143.22h2.22v2.22h-2.22z"/><path fill="#86BCB1" class="color_Independent" d="M136.48 147.66h2.22v2.22h-2.22z"/></g><g fill="#A1A1A1" font-size="3.7" font-family="'PT Sans','Helvetica Neue','Helvetica',sans-serif"><text x="117.27" y="139.88" dy=".35em" class="color_Populist">Populist</text><text x="117.27" y="144.33" dy=".35em" class="color_Socialist">Socialist</text><text x="117.27" y="148.78" dy=".35em" class="color_Progressive">Progressive</text></g><g stroke="#000" stroke-opacity="0"><path fill="#7CB5FB" class="color_Populist" d="M114.05 138.77h2.22v2.22h-2.22z"/><path fill="#009DAD" class="color_Socialist" d="M114.05 143.22h2.22v2.22h-2.22z"/><path fill="#AE8178" class="color_Progressive" d="M114.05 147.66h2.22v2.22h-2.22z"/></g><g fill="#A1A1A1" font-size="3.7" font-family="'PT Sans','Helvetica Neue','Helvetica',sans-serif"><text x="80.26" y="139.88" dy=".35em" class="color_Constitutional_Union">Constitutional Union</text><text x="80.26" y="144.33" dy=".35em" class="color_Greenback">Greenback</text><text x="80.26" y="148.78" dy=".35em" class="color_Prohibition">Prohibition</text></g><g stroke="#000" stroke-opacity="0"><path fill="#D4EC9F" class="color_Constitutional_Union" d="M77.04 138.77h2.22v2.22h-2.22z"/><path fill="#7E674B" class="color_Greenback" d="M77.04 143.22h2.22v2.22h-2.22z"/><path fill="#9E7EC1" class="color_Prohibition" d="M77.04 147.66h2.22v2.22h-2.22z"/></g><g fill="#A1A1A1" font-size="3.7" font-family="'PT Sans','Helvetica Neue','Helvetica',sans-serif"><text x="51.81" y="139.88" dy=".35em" class="color_-">-</text><text x="51.81" y="144.33" dy=".35em" class="color_Whig-American">Whig-American</text><text x="51.81" y="148.78" dy=".35em" class="color_Republican">Republican</text></g><g stroke="#000" stroke-opacity="0"><path fill="#EEDBFF" class="color_-" d="M48.59 138.77h2.22v2.22h-2.22z"/><path fill="#236EAD" class="color_Whig-American" d="M48.59 143.22h2.22v2.22h-2.22z"/><path fill="#60F6FF" class="color_Republican" d="M48.59 147.66h2.22v2.22h-2.22z"/></g><g fill="#A1A1A1" font-size="3.7" font-family="'PT Sans','Helvetica Neue','Helvetica',sans-serif"><text x="29.6" y="139.88" dy=".35em" class="color_Whig">Whig</text><text x="29.6" y="144.33" dy=".35em" class="color_Democratic">Democratic</text><text x="29.6" y="148.78" dy=".35em" class="color_Free_Soil">Free Soil</text></g><g stroke="#000" stroke-opacity="0"><path fill="#FE4365" class="color_Whig" d="M26.38 138.77h2.22v2.22h-2.22z"/><path fill="#ECA25C" class="color_Democratic" d="M26.38 143.22h2.22v2.22h-2.22z"/><path fill="#3F9778" class="color_Free_Soil" d="M26.38 147.66h2.22v2.22h-2.22z"/></g><text x="26.38" y="136.39" fill="#FFF" font-size="6.35" font-family="'PT Sans','Helvetica Neue','Helvetica',sans-serif" stroke="#000" stroke-opacity="0">Party</text></g><text x="129.24" y="121.57" text-anchor="middle" dy=".6em" font-size="6.35" font-family="'PT Sans','Helvetica Neue','Helvetica',sans-serif" fill="#A1A1A1" stroke="#000" stroke-opacity="0">Year</text><g class="guide xlabels" font-size="4.76" font-family="'PT Sans Caption','Helvetica Neue','Helvetica',sans-serif" fill="#A1A1A1" text-anchor="middle"><text x="27.38" y="113.06" dy=".6em">1844</text><text x="41.59" y="113.06" dy=".6em">1856</text><text x="55.8" y="113.06" dy=".6em">1868</text><text x="70.02" y="113.06" dy=".6em">1880</text><text x="84.23" y="113.06" dy=".6em">1892</text><text x="98.44" y="113.06" dy=".6em">1904</text><text x="112.66" y="113.06" dy=".6em">1916</text><text x="126.87" y="113.06" dy=".6em">1928</text><text x="141.08" y="113.06" dy=".6em">1940</text><text x="155.29" y="113.06" dy=".6em">1952</text><text x="169.51" y="113.06" dy=".6em">1964</text><text x="183.72" y="113.06" dy=".6em">1976</text><text x="197.93" y="113.06" dy=".6em">1988</text><text x="212.14" y="113.06" dy=".6em">2000</text><text x="226.36" y="113.06" dy=".6em">2012</text></g><g clip-path="url(#a)"><path d="M25.38 12.91H233.1v99.15H25.38z" pointer-events="visible" fill="#222831" stroke="#000" stroke-opacity="0" class="guide background"/><g class="guide ygridlines xfixed" stroke-dasharray="0.5,0.5" stroke-width=".2" stroke="#575757" fill="none"><path d="M25.38 110.06H233.1M25.38 86.27H233.1M25.38 62.48H233.1M25.38 38.7H233.1M25.38 14.91H233.1"/></g><g class="guide xgridlines yfixed" stroke-dasharray="0.5,0.5" stroke-width=".2" stroke="#575757" fill="none"><path d="M27.38 12.91v99.15M41.59 12.91v99.15M55.8 12.91v99.15M70.02 12.91v99.15M84.23 12.91v99.15M98.44 12.91v99.15M112.66 12.91v99.15M126.87 12.91v99.15M141.08 12.91v99.15M155.29 12.91v99.15M169.51 12.91v99.15M183.72 12.91v99.15M197.93 12.91v99.15M212.14 12.91v99.15M226.36 12.91v99.15"/></g><g class="plotpanel"><g class="geometry"><use xlink:href="#b" x="32.12" y="67.63" stroke="#B58486" fill="#FE4365" class="color_Whig"/><use xlink:href="#b" x="32.12" y="62.05" stroke="#AA8B71" fill="#ECA25C" class="color_Democratic"/><use xlink:href="#b" x="32.12" y="105.35" stroke="#6D9A87" fill="#3F9778" class="color_Free_Soil"/><use xlink:href="#b" x="32.12" y="110.06" stroke="#9B8AAB" fill="#EEDBFF" class="color_-"/><use xlink:href="#b" x="36.85" y="62.27" stroke="#AA8B71" fill="#ECA25C" class="color_Democratic"/><use xlink:href="#b" x="36.85" y="67.4" stroke="#B58486" fill="#FE4365" class="color_Whig"/><use xlink:href="#b" x="36.85" y="105.74" stroke="#6D9A87" fill="#3F9778" class="color_Free_Soil"/><use xlink:href="#b" x="36.85" y="109.69" stroke="#9B8AAB" fill="#EEDBFF" class="color_-"/><use xlink:href="#b" x="41.59" y="71.34" stroke="#AA8B71" fill="#ECA25C" class="color_Democratic"/><use xlink:href="#b" x="41.59" y="63.6" stroke="#9B8AAB" fill="#EEDBFF" class="color_-"/><use xlink:href="#b" x="41.59" y="100.09" stroke="#7C92B3" fill="#236EAD" class="color_Whig-American"/><use xlink:href="#b" x="41.59" y="110.06" stroke="#9B8AAB" fill="#EEDBFF" class="color_-"/><use xlink:href="#b" x="46.33" y="58.1" stroke="#5F9A9E" fill="#60F6FF" class="color_Republican"/><use xlink:href="#b" x="46.33" y="68.94" stroke="#AA8B71" fill="#ECA25C" class="color_Democratic"/><use xlink:href="#b" x="46.33" y="109.29" stroke="#9B8AAB" fill="#EEDBFF" class="color_-"/><use xlink:href="#b" x="46.33" y="108.76" stroke="#8B9572" fill="#D4EC9F" class="color_Constitutional_Union"/><use xlink:href="#b" x="46.33" y="110.06" stroke="#9B8AAB" fill="#EEDBFF" class="color_-"/><use xlink:href="#b" x="51.07" y="49.05" stroke="#5F9A9E" fill="#60F6FF" class="color_Republican"/><use xlink:href="#b" x="51.07" y="75.92" stroke="#AA8B71" fill="#ECA25C" class="color_Democratic"/><use xlink:href="#b" x="51.07" y="110.06" stroke="#9B8AAB" fill="#EEDBFF" class="color_-"/><use xlink:href="#b" x="55.8" y="51.14" stroke="#5F9A9E" fill="#60F6FF" class="color_Republican"/><use xlink:href="#b" x="55.8" y="73.83" stroke="#AA8B71" fill="#ECA25C" class="color_Democratic"/><use xlink:href="#b" x="55.8" y="110.06" stroke="#9B8AAB" fill="#EEDBFF" class="color_-"/><use xlink:href="#b" x="60.54" y="52.2" stroke="#5F9A9E" fill="#60F6FF" class="color_Republican"/><use xlink:href="#b" x="60.54" y="78.75" stroke="#AA8B71" fill="#ECA25C" class="color_Democratic"/><use xlink:href="#b" x="60.54" y="104.07" stroke="#9B8AAB" fill="#EEDBFF" class="color_-"/><use xlink:href="#b" x="65.28" y="73.63" stroke="#AA8B71" fill="#ECA25C" class="color_Democratic"/><use xlink:href="#b" x="65.28" y="54.4" stroke="#5F9A9E" fill="#60F6FF" class="color_Republican"/><use xlink:href="#b" x="65.28" y="107" stroke="#9B8AAB" fill="#EEDBFF" class="color_-"/><use xlink:href="#b" x="70.02" y="55.83" stroke="#5F9A9E" fill="#60F6FF" class="color_Republican"/><use xlink:href="#b" x="70.02" y="78.85" stroke="#AA8B71" fill="#ECA25C" class="color_Democratic"/><use xlink:href="#b" x="70.02" y="100.53" stroke="#A68D6F" fill="#7E674B" class="color_Greenback"/><use xlink:href="#b" x="70.02" y="109.89" stroke="#9B8AAB" fill="#EEDBFF" class="color_-"/><use xlink:href="#b" x="74.76" y="65.33" stroke="#AA8B71" fill="#ECA25C" class="color_Democratic"/><use xlink:href="#b" x="74.76" y="60.34" stroke="#5F9A9E" fill="#60F6FF" class="color_Republican"/><use xlink:href="#b" x="74.76" y="109.35" stroke="#9B8AAB" fill="#EEDBFF" class="color_-"/><use xlink:href="#b" x="79.49" y="67.71" stroke="#AA8B71" fill="#ECA25C" class="color_Democratic"/><use xlink:href="#b" x="79.49" y="60.24" stroke="#5F9A9E" fill="#60F6FF" class="color_Republican"/><use xlink:href="#b" x="79.49" y="109.22" stroke="#9B8AAC" fill="#9E7EC1" class="color_Prohibition"/><use xlink:href="#b" x="79.49" y="107.92" stroke="#9B8AAB" fill="#EEDBFF" class="color_-"/><use xlink:href="#b" x="84.23" y="67.9" stroke="#AA8B71" fill="#ECA25C" class="color_Democratic"/><use xlink:href="#b" x="84.23" y="62.87" stroke="#5F9A9E" fill="#60F6FF" class="color_Republican"/><use xlink:href="#b" x="84.23" y="105.64" stroke="#7C92B3" fill="#7CB5FB" class="color_Populist"/><use xlink:href="#b" x="84.23" y="108.69" stroke="#9B8AAC" fill="#9E7EC1" class="color_Prohibition"/><use xlink:href="#b" x="84.23" y="110.06" stroke="#9B8AAB" fill="#EEDBFF" class="color_-"/><use xlink:href="#b" x="88.97" y="57.28" stroke="#5F9A9E" fill="#60F6FF" class="color_Republican"/><use xlink:href="#b" x="88.97" y="69.24" stroke="#AA8B71" fill="#ECA25C" class="color_Democratic"/><use xlink:href="#b" x="88.97" y="108.51" stroke="#9B8AAB" fill="#EEDBFF" class="color_-"/><use xlink:href="#b" x="93.71" y="54.84" stroke="#5F9A9E" fill="#60F6FF" class="color_Republican"/><use xlink:href="#b" x="93.71" y="72.52" stroke="#AA8B71" fill="#ECA25C" class="color_Democratic"/><use xlink:href="#b" x="93.71" y="107.68" stroke="#9B8AAB" fill="#EEDBFF" class="color_-"/><use xlink:href="#b" x="98.44" y="49.74" stroke="#5F9A9E" fill="#60F6FF" class="color_Republican"/><use xlink:href="#b" x="98.44" y="80.84" stroke="#AA8B71" fill="#ECA25C" class="color_Democratic"/><use xlink:href="#b" x="98.44" y="107.15" stroke="#5F9AA3" fill="#009DAD" class="color_Socialist"/><use xlink:href="#b" x="98.44" y="107.36" stroke="#9B8AAB" fill="#EEDBFF" class="color_-"/><use xlink:href="#b" x="103.18" y="57.13" stroke="#5F9A9E" fill="#60F6FF" class="color_Republican"/><use xlink:href="#b" x="103.18" y="71.45" stroke="#AA8B71" fill="#ECA25C" class="color_Democratic"/><use xlink:href="#b" x="103.18" y="108.47" stroke="#5F9AA3" fill="#009DAD" class="color_Socialist"/><use xlink:href="#b" x="103.18" y="108.04" stroke="#9B8AAB" fill="#EEDBFF" class="color_-"/><use xlink:href="#b" x="107.92" y="74.24" stroke="#AA8B71" fill="#ECA25C" class="color_Democratic"/><use xlink:href="#b" x="107.92" y="78.79" stroke="#B3867D" fill="#AE8178" class="color_Progressive"/><use xlink:href="#b" x="107.92" y="86.91" stroke="#5F9A9E" fill="#60F6FF" class="color_Republican"/><use xlink:href="#b" x="107.92" y="106.78" stroke="#5F9AA3" fill="#009DAD" class="color_Socialist"/><use xlink:href="#b" x="107.92" y="108.43" stroke="#9B8AAB" fill="#EEDBFF" class="color_-"/><use xlink:href="#b" x="112.66" y="69.25" stroke="#AA8B71" fill="#ECA25C" class="color_Democratic"/><use xlink:href="#b" x="112.66" y="58.44" stroke="#5F9A9E" fill="#60F6FF" class="color_Republican"/><use xlink:href="#b" x="112.66" y="108.04" stroke="#5F9AA3" fill="#009DAD" class="color_Socialist"/><use xlink:href="#b" x="112.66" y="109.35" stroke="#9B8AAB" fill="#EEDBFF" class="color_-"/><use xlink:href="#b" x="117.39" y="42.59" stroke="#5F9A9E" fill="#60F6FF" class="color_Republican"/><use xlink:href="#b" x="117.39" y="85.83" stroke="#AA8B71" fill="#ECA25C" class="color_Democratic"/><use xlink:href="#b" x="117.39" y="108.25" stroke="#5F9AA3" fill="#009DAD" class="color_Socialist"/><use xlink:href="#b" x="117.39" y="108.41" stroke="#9B8AAB" fill="#EEDBFF" class="color_-"/><use xlink:href="#b" x="122.13" y="57.7" stroke="#5F9A9E" fill="#60F6FF" class="color_Republican"/><use xlink:href="#b" x="122.13" y="94.44" stroke="#AA8B71" fill="#ECA25C" class="color_Democratic"/><use xlink:href="#b" x="122.13" y="83.32" stroke="#B3867D" fill="#AE8178" class="color_Progressive"/><use xlink:href="#b" x="122.13" y="109.62" stroke="#9B8AAB" fill="#EEDBFF" class="color_-"/><use xlink:href="#b" x="126.87" y="51.28" stroke="#5F9A9E" fill="#60F6FF" class="color_Republican"/><use xlink:href="#b" x="126.87" y="74.31" stroke="#AA8B71" fill="#ECA25C" class="color_Democratic"/><use xlink:href="#b" x="126.87" y="109.44" stroke="#9B8AAB" fill="#EEDBFF" class="color_-"/><use xlink:href="#b" x="131.61" y="55.17" stroke="#AA8B71" fill="#ECA25C" class="color_Democratic"/><use xlink:href="#b" x="131.61" y="72.02" stroke="#5F9A9E" fill="#60F6FF" class="color_Republican"/><use xlink:href="#b" x="131.61" y="108.18" stroke="#5F9AA3" fill="#009DAD" class="color_Socialist"/><use xlink:href="#b" x="131.61" y="109.71" stroke="#9B8AAB" fill="#EEDBFF" class="color_-"/><use xlink:href="#b" x="136.34" y="58.29" stroke="#AA8B71" fill="#ECA25C" class="color_Democratic"/><use xlink:href="#b" x="136.34" y="69.43" stroke="#5F9A9E" fill="#60F6FF" class="color_Republican"/><use xlink:href="#b" x="136.34" y="107.31" stroke="#9B8AAB" fill="#EEDBFF" class="color_-"/><use xlink:href="#b" x="141.08" y="64.75" stroke="#AA8B71" fill="#ECA25C" class="color_Democratic"/><use xlink:href="#b" x="141.08" y="60.55" stroke="#5F9A9E" fill="#60F6FF" class="color_Republican"/><use xlink:href="#b" x="141.08" y="109.73" stroke="#9B8AAB" fill="#EEDBFF" class="color_-"/><use xlink:href="#b" x="145.82" y="64.87" stroke="#AA8B71" fill="#ECA25C" class="color_Democratic"/><use xlink:href="#b" x="145.82" y="60.59" stroke="#5F9A9E" fill="#60F6FF" class="color_Republican"/><use xlink:href="#b" x="145.82" y="109.57" stroke="#9B8AAB" fill="#EEDBFF" class="color_-"/><use xlink:href="#b" x="150.56" y="62.19" stroke="#AA8B71" fill="#ECA25C" class="color_Democratic"/><use xlink:href="#b" x="150.56" y="64.79" stroke="#5F9A9E" fill="#60F6FF" class="color_Republican"/><use xlink:href="#b" x="150.56" y="110.06" stroke="#AE8974" fill="#FFD9C5" class="color_State's_Rights"/><use xlink:href="#b" x="150.56" y="108.95" stroke="#B3867D" fill="#AE8178" class="color_Progressive"/><use xlink:href="#b" x="150.56" y="109.17" stroke="#9B8AAB" fill="#EEDBFF" class="color_-"/><use xlink:href="#b" x="155.29" y="49.4" stroke="#5F9A9E" fill="#60F6FF" class="color_Republican"/><use xlink:href="#b" x="155.29" y="76.2" stroke="#AA8B71" fill="#ECA25C" class="color_Democratic"/><use xlink:href="#b" x="155.29" y="109.43" stroke="#9B8AAB" fill="#EEDBFF" class="color_-"/><use xlink:href="#b" x="160.03" y="53.86" stroke="#5F9A9E" fill="#60F6FF" class="color_Republican"/><use xlink:href="#b" x="160.03" y="71.38" stroke="#AA8B71" fill="#ECA25C" class="color_Democratic"/><use xlink:href="#b" x="160.03" y="109.79" stroke="#9B8AAB" fill="#EEDBFF" class="color_-"/><use xlink:href="#b" x="164.77" y="68.93" stroke="#AA8B71" fill="#ECA25C" class="color_Democratic"/><use xlink:href="#b" x="164.77" y="56.1" stroke="#5F9A9E" fill="#60F6FF" class="color_Republican"/><use xlink:href="#b" x="164.77" y="110" stroke="#9B8AAB" fill="#EEDBFF" class="color_-"/><use xlink:href="#b" x="169.51" y="51.18" stroke="#AA8B71" fill="#ECA25C" class="color_Democratic"/><use xlink:href="#b" x="169.51" y="73.98" stroke="#5F9A9E" fill="#60F6FF" class="color_Republican"/><use xlink:href="#b" x="169.51" y="109.87" stroke="#9B8AAB" fill="#EEDBFF" class="color_-"/><use xlink:href="#b" x="174.24" y="59.62" stroke="#5F9A9E" fill="#60F6FF" class="color_Republican"/><use xlink:href="#b" x="174.24" y="71.22" stroke="#AA8B71" fill="#ECA25C" class="color_Democratic"/><use xlink:href="#b" x="174.24" y="104.65" stroke="#8B9572" fill="#5C722E" class="color_American_Ind."/><use xlink:href="#b" x="174.24" y="109.6" stroke="#9B8AAB" fill="#EEDBFF" class="color_-"/><use xlink:href="#b" x="178.98" y="55.25" stroke="#5F9A9E" fill="#60F6FF" class="color_Republican"/><use xlink:href="#b" x="178.98" y="71.55" stroke="#AA8B71" fill="#ECA25C" class="color_Democratic"/><use xlink:href="#b" x="178.98" y="108.23" stroke="#9B8AAB" fill="#EEDBFF" class="color_-"/><use xlink:href="#b" x="183.72" y="63.95" stroke="#AA8B71" fill="#ECA25C" class="color_Democratic"/><use xlink:href="#b" x="183.72" y="62.99" stroke="#5F9A9E" fill="#60F6FF" class="color_Republican"/><use xlink:href="#b" x="183.72" y="108.09" stroke="#9B8AAB" fill="#EEDBFF" class="color_-"/><use xlink:href="#b" x="188.46" y="61.24" stroke="#5F9A9E" fill="#60F6FF" class="color_Republican"/><use xlink:href="#b" x="188.46" y="73.33" stroke="#AA8B71" fill="#ECA25C" class="color_Democratic"/><use xlink:href="#b" x="188.46" y="101.71" stroke="#669B90" fill="#86BCB1" class="color_Independent"/><use xlink:href="#b" x="188.46" y="108.81" stroke="#9B8AAB" fill="#EEDBFF" class="color_-"/><use xlink:href="#b" x="193.19" y="59.37" stroke="#5F9A9E" fill="#60F6FF" class="color_Republican"/><use xlink:href="#b" x="193.19" y="66.4" stroke="#AA8B71" fill="#ECA25C" class="color_Democratic"/><use xlink:href="#b" x="193.19" y="109.26" stroke="#9B8AAB" fill="#EEDBFF" class="color_-"/><use xlink:href="#b" x="197.93" y="67.72" stroke="#5F9A9E" fill="#60F6FF" class="color_Republican"/><use xlink:href="#b" x="197.93" y="58" stroke="#AA8B71" fill="#ECA25C" class="color_Democratic"/><use xlink:href="#b" x="197.93" y="109.31" stroke="#9B8AAB" fill="#EEDBFF" class="color_-"/><use xlink:href="#b" x="202.67" y="68.87" stroke="#AA8B71" fill="#ECA25C" class="color_Democratic"/><use xlink:href="#b" x="202.67" y="74.6" stroke="#5F9A9E" fill="#60F6FF" class="color_Republican"/><use xlink:href="#b" x="202.67" y="92.26" stroke="#669B90" fill="#86BCB1" class="color_Independent"/><use xlink:href="#b" x="202.67" y="109.36" stroke="#9B8AAB" fill="#EEDBFF" class="color_-"/><use xlink:href="#b" x="207.41" y="62.24" stroke="#AA8B71" fill="#ECA25C" class="color_Democratic"/><use xlink:href="#b" x="207.41" y="72.08" stroke="#5F9A9E" fill="#60F6FF" class="color_Republican"/><use xlink:href="#b" x="207.41" y="101.95" stroke="#9B8AAC" fill="#746484" class="color_Reform"/><use xlink:href="#b" x="207.41" y="108.83" stroke="#9B8AAB" fill="#EEDBFF" class="color_-"/><use xlink:href="#b" x="212.14" y="63.88" stroke="#AA8B71" fill="#ECA25C" class="color_Democratic"/><use xlink:href="#b" x="212.14" y="64.18" stroke="#5F9A9E" fill="#60F6FF" class="color_Republican"/><use xlink:href="#b" x="212.14" y="107.94" stroke="#B4867D" fill="#A55246" class="color_Green"/><use xlink:href="#b" x="212.14" y="109.1" stroke="#9B8AAB" fill="#EEDBFF" class="color_-"/><use xlink:href="#b" x="216.88" y="62.58" stroke="#5F9A9E" fill="#60F6FF" class="color_Republican"/><use xlink:href="#b" x="216.88" y="63.21" stroke="#AA8B71" fill="#ECA25C" class="color_Democratic"/><use xlink:href="#b" x="216.88" y="109.24" stroke="#9B8AAB" fill="#EEDBFF" class="color_-"/><use xlink:href="#b" x="221.62" y="58.75" stroke="#AA8B71" fill="#ECA25C" class="color_Democratic"/><use xlink:href="#b" x="221.62" y="67.82" stroke="#5F9A9E" fill="#60F6FF" class="color_Republican"/><use xlink:href="#b" x="221.62" y="108.46" stroke="#9B8AAB" fill="#EEDBFF" class="color_-"/><use xlink:href="#b" x="226.36" y="60.59" stroke="#AA8B71" fill="#ECA25C" class="color_Democratic"/><use xlink:href="#b" x="226.36" y="66.12" stroke="#5F9A9E" fill="#60F6FF" class="color_Republican"/><use xlink:href="#b" x="226.36" y="108.31" stroke="#9B8AAB" fill="#EEDBFF" class="color_-"/></g><g fill-opacity="0"><path fill="none" d="M98.44 107.15l4.74 1.32 4.74-1.69 4.74 1.26 4.73.21 14.22-.07" stroke="#009DAD" class="geometry color_Socialist"/><path fill="none" d="M32.12 105.35l4.73.39" stroke="#3F9778" class="geometry color_Free_Soil"/><path fill="none" d="M46.33 58.1l4.74-9.05 4.73 2.09 4.74 1.06 4.74 2.2 4.74 1.43 4.74 4.51 4.73-.1 4.74 2.63 4.74-5.59 4.74-2.44 4.73-5.1 4.74 7.39 4.74 29.78 4.74-28.47 4.73-15.85 4.74 15.11 4.74-6.42 4.74 20.74 4.73-2.59 4.74-8.88 4.74.04 4.74 4.2 4.73-15.39 4.74 4.46 4.74 2.24 4.74 17.88 4.73-14.36 4.74-4.37 4.74 7.74 4.74-1.75 4.73-1.87 4.74 8.35 4.74 6.88 4.74-2.52 4.73-7.9 4.74-1.6 4.74 5.24 4.74-1.7" stroke="#60F6FF" class="geometry color_Republican"/><path fill="none" d="M188.46 101.71l14.21-9.45" stroke="#86BCB1" class="geometry color_Independent"/><path fill="none" d="M79.49 109.22l4.74-.53" stroke="#9E7EC1" class="geometry color_Prohibition"/><path fill="none" d="M107.92 78.79l14.21 4.53 28.43 25.63" stroke="#AE8178" class="geometry color_Progressive"/><path fill="none" d="M32.12 62.05l4.73.22 4.74 9.07 4.74-2.4 4.74 6.98 4.73-2.09 4.74 4.92 4.74-5.12 4.74 5.22 4.74-13.52 4.73 2.38 4.74.19 4.74 1.34 4.74 3.28 4.73 8.32 4.74-9.39 4.74 2.79 4.74-4.99 4.73 16.58 4.74 8.61 4.74-20.13 4.74-19.14 4.73 3.12 4.74 6.46 4.74.12 4.74-2.68 4.73 14.01 4.74-4.82 4.74-2.45 4.74-17.75 4.73 20.04 4.74.33 4.74-7.6 4.74 9.38 4.73-6.93 4.74-8.4 4.74 10.87 4.74-6.63 4.73 1.64 4.74-.67 4.74-4.46 4.74 1.84" stroke="#ECA25C" class="geometry color_Democratic"/><path fill="none" d="M32.12 110.06l4.73-.37 4.74-46.09v46.46l4.74-.77v.77h9.47l4.74-5.99 4.74 2.93 4.74 2.89 4.74-.54 4.73-1.43 4.74 2.14 4.74-1.55 4.74-.83 4.73-.32 4.74.68 4.74.39 4.74.92 4.73-.94 4.74 1.21 4.74-.18 4.74.27 4.73-2.4 4.74 2.42 4.74-.16 4.74-.4 4.73.26 4.74.36 4.74.21 4.74-.13 4.73-.27 4.74-1.37 4.74-.14 4.74.72 4.73.45 4.74.05 4.74.05 4.74-.53 4.73.27 4.74.14 4.74-.78 4.74-.15" stroke="#EEDBFF" class="geometry color_-"/><path fill="none" d="M32.12 67.63l4.73-.23" stroke="#FE4365" class="geometry color_Whig"/></g></g></g><g class="guide ylabels" font-size="4.76" font-family="'PT Sans Caption','Helvetica Neue','Helvetica',sans-serif" fill="#A1A1A1" text-anchor="end"><text x="24.38" y="110.06" dy=".35em">0</text><text x="24.38" y="86.27" dy=".35em">25</text><text x="24.38" y="62.48" dy=".35em">50</text><text x="24.38" y="38.7" dy=".35em">75</text><text x="24.38" y="14.91" dy=".35em">100</text></g><text x="9.95" y="60.48" text-anchor="middle" dy=".35em" transform="rotate(-90 9.95 62.48)" font-size="6.35" font-family="'PT Sans','Helvetica Neue','Helvetica',sans-serif" fill="#A1A1A1" stroke="#000" stroke-opacity="0">Popular Vote (%)</text><text x="129.24" y="5" text-anchor="middle" dy=".6em" font-size="6.35" font-family="'PT Sans','Helvetica Neue','Helvetica',sans-serif" fill="#A1A1A1" stroke="#000" stroke-opacity="0">Iowa</text></g><defs><clipPath id="a"><path d="M25.38 12.91H233.1v99.15H25.38"/></clipPath><circle r=".9" id="b"/></defs></svg>