<svg xmlns="http://www.w3.org/2000/svg" xmlns:xlink="http://www.w3.org/1999/xlink" version="1.2" width="238.1mm" height="599.924" viewBox="0 0 238.1 158.73" stroke-width=".3" font-size="3.88"><path d="M0 0h238.1v158.73H0z" stroke="#000" stroke-opacity="0" fill="#222831"/><g class="plotroot xscalable yscalable"><g class="guide colorkey"><g fill="#A1A1A1" font-size="3.7" font-family="'PT Sans','Helvetica Neue','Helvetica',sans-serif"><text x="165.01" y="139.88" dy=".35em" class="color_Independent">Independent</text><text x="165.01" y="144.33" dy=".35em" class="color_Reform">Reform</text><text x="165.01" y="148.78" dy=".35em" class="color_Green">Green</text></g><g stroke="#000" stroke-opacity="0"><path fill="#746484" class="color_Independent" d="M161.78 138.77H164v2.22h-2.22z"/><path fill="#A55246" class="color_Reform" d="M161.78 143.22H164v2.22h-2.22z"/><path fill="#37737B" class="color_Green" d="M161.78 147.66H164v2.22h-2.22z"/></g><g fill="#A1A1A1" font-size="3.7" font-family="'PT Sans','Helvetica Neue','Helvetica',sans-serif"><text x="139.07" y="139.88" dy=".35em" class="color_Progressive">Progressive</text><text x="139.07" y="144.33" dy=".35em" class="color_State's_Rights">State&amp;apos;s Rights</text><text x="139.07" y="148.78" dy=".35em" class="color_American_Ind.">American Ind.</text></g><g stroke="#000" stroke-opacity="0"><path fill="#FFD9C5" class="color_Progressive" d="M135.85 138.77h2.22v2.22h-2.22z"/><path fill="#5C722E" class="color_State's_Rights" d="M135.85 143.22h2.22v2.22h-2.22z"/><path fill="#86BCB1" class="color_American_Ind." d="M135.85 147.66h2.22v2.22h-2.22z"/></g><g fill="#A1A1A1" font-size="3.7" font-family="'PT Sans','Helvetica Neue','Helvetica',sans-serif"><text x="117.27" y="139.88" dy=".35em" class="color_Prohibition">Prohibition</text><text x="117.27" y="144.33" dy=".35em" class="color_Populist">Populist</text><text x="117.27" y="148.78" dy=".35em" class="color_Socialist">Socialist</text></g><g stroke="#000" stroke-opacity="0"><path fill="#7CB5FB" class="color_Prohibition" d="M114.05 138.77h2.22v2.22h-2.22z"/><path fill="#009DAD" class="color_Populist" d="M114.05 143.22h2.22v2.22h-2.22z"/><path fill="#AE8178" class="color_Socialist" d="M114.05 147.66h2.22v2.22h-2.22z"/></g><g fill="#A1A1A1" font-size="3.7" font-family="'PT Sans','Helvetica Neue','Helvetica',sans-serif"><text x="80.26" y="139.88" dy=".35em" class="color_Republican">Republican</text><text x="80.26" y="144.33" dy=".35em" class="color_Constitutional_Union">Constitutional Union</text><text x="80.26" y="148.78" dy=".35em" class="color_Greenback">Greenback</text></g><g stroke="#000" stroke-opacity="0"><path fill="#D4EC9F" class="color_Republican" d="M77.04 138.77h2.22v2.22h-2.22z"/><path fill="#7E674B" class="color_Constitutional_Union" d="M77.04 143.22h2.22v2.22h-2.22z"/><path fill="#9E7EC1" class="color_Greenback" d="M77.04 147.66h2.22v2.22h-2.22z"/></g><g fill="#A1A1A1" font-size="3.7" font-family="'PT Sans','Helvetica Neue','Helvetica',sans-serif"><text x="51.81" y="139.88" dy=".35em" class="color_Liberty">Liberty</text><text x="51.81" y="144.33" dy=".35em" class="color_Free_Soil">Free Soil</text><text x="51.81" y="148.78" dy=".35em" class="color_Whig-American">Whig-American</text></g><g stroke="#000" stroke-opacity="0"><path fill="#EEDBFF" class="color_Liberty" d="M48.59 138.77h2.22v2.22h-2.22z"/><path fill="#236EAD" class="color_Free_Soil" d="M48.59 143.22h2.22v2.22h-2.22z"/><path fill="#60F6FF" class="color_Whig-American" d="M48.59 147.66h2.22v2.22h-2.22z"/></g><g fill="#A1A1A1" font-size="3.7" font-family="'PT Sans','Helvetica Neue','Helvetica',sans-serif"><text x="29.6" y="139.88" dy=".35em" class="color_Democratic">Democratic</text><text x="29.6" y="144.33" dy=".35em" class="color_Whig">Whig</text><text x="29.6" y="148.78" dy=".35em" class="color_-">-</text></g><g stroke="#000" stroke-opacity="0"><path fill="#FE4365" class="color_Democratic" d="M26.38 138.77h2.22v2.22h-2.22z"/><path fill="#ECA25C" class="color_Whig" d="M26.38 143.22h2.22v2.22h-2.22z"/><path fill="#3F9778" class="color_-" d="M26.38 147.66h2.22v2.22h-2.22z"/></g><text x="26.38" y="136.39" fill="#FFF" font-size="6.35" font-family="'PT Sans','Helvetica Neue','Helvetica',sans-serif" stroke="#000" stroke-opacity="0">Party</text></g><text x="129.24" y="121.57" text-anchor="middle" dy=".6em" font-size="6.35" font-family="'PT Sans','Helvetica Neue','Helvetica',sans-serif" fill="#A1A1A1" stroke="#000" stroke-opacity="0">Year</text><g class="guide xlabels" font-size="4.76" font-family="'PT Sans Caption','Helvetica Neue','Helvetica',sans-serif" fill="#A1A1A1" text-anchor="middle"><text x="27.38" y="113.06" dy=".6em">1832</text><text x="40.67" y="113.06" dy=".6em">1844</text><text x="53.95" y="113.06" dy=".6em">1856</text><text x="67.24" y="113.06" dy=".6em">1868</text><text x="80.52" y="113.06" dy=".6em">1880</text><text x="93.81" y="113.06" dy=".6em">1892</text><text x="107.09" y="113.06" dy=".6em">1904</text><text x="120.38" y="113.06" dy=".6em">1916</text><text x="133.67" y="113.06" dy=".6em">1928</text><text x="146.95" y="113.06" dy=".6em">1940</text><text x="160.24" y="113.06" dy=".6em">1952</text><text x="173.52" y="113.06" dy=".6em">1964</text><text x="186.81" y="113.06" dy=".6em">1976</text><text x="200.1" y="113.06" dy=".6em">1988</text><text x="213.38" y="113.06" dy=".6em">2000</text><text x="226.67" y="113.06" dy=".6em">2012</text></g><g clip-path="url(#a)"><path d="M25.38 12.91H233.1v99.15H25.38z" pointer-events="visible" fill="#222831" stroke="#000" stroke-opacity="0" class="guide background"/><g class="guide ygridlines xfixed" stroke-dasharray="0.5,0.5" stroke-width=".2" stroke="#575757" fill="none"><path d="M25.38 110.06H233.1M25.38 86.27H233.1M25.38 62.48H233.1M25.38 38.7H233.1M25.38 14.91H233.1"/></g><g class="guide xgridlines yfixed" stroke-dasharray="0.5,0.5" stroke-width=".2" stroke="#575757" fill="none"><path d="M27.38 12.91v99.15M40.67 12.91v99.15M53.95 12.91v99.15M67.24 12.91v99.15M80.52 12.91v99.15M93.81 12.91v99.15M107.09 12.91v99.15M120.38 12.91v99.15M133.67 12.91v99.15M146.95 12.91v99.15M160.24 12.91v99.15M173.52 12.91v99.15M186.81 12.91v99.15M200.1 12.91v99.15M213.38 12.91v99.15M226.67 12.91v99.15"/></g><g class="plotpanel"><g class="geometry"><use xlink:href="#b" x="31.81" y="56.56" stroke="#B58486" fill="#FE4365" class="color_Democratic"/><use xlink:href="#b" x="31.81" y="68.41" stroke="#AA8B71" fill="#ECA25C" class="color_Whig"/><use xlink:href="#b" x="31.81" y="110.06" stroke="#AA8B71" fill="#ECA25C" class="color_Whig"/><use xlink:href="#b" x="31.81" y="110.06" stroke="#AA8B71" fill="#ECA25C" class="color_Whig"/><use xlink:href="#b" x="31.81" y="110.06" stroke="#6D9A87" fill="#3F9778" class="color_-"/><use xlink:href="#b" x="36.24" y="60.86" stroke="#AA8B71" fill="#ECA25C" class="color_Whig"/><use xlink:href="#b" x="36.24" y="64.8" stroke="#B58486" fill="#FE4365" class="color_Democratic"/><use xlink:href="#b" x="36.24" y="109.37" stroke="#6D9A87" fill="#3F9778" class="color_-"/><use xlink:href="#b" x="40.67" y="62.72" stroke="#B58486" fill="#FE4365" class="color_Democratic"/><use xlink:href="#b" x="40.67" y="68.46" stroke="#AA8B71" fill="#ECA25C" class="color_Whig"/><use xlink:href="#b" x="40.67" y="103.85" stroke="#9B8AAB" fill="#EEDBFF" class="color_Liberty"/><use xlink:href="#b" x="40.67" y="110.06" stroke="#6D9A87" fill="#3F9778" class="color_-"/><use xlink:href="#b" x="45.09" y="75.05" stroke="#AA8B71" fill="#ECA25C" class="color_Whig"/><use xlink:href="#b" x="45.09" y="65.11" stroke="#B58486" fill="#FE4365" class="color_Democratic"/><use xlink:href="#b" x="45.09" y="94.87" stroke="#7C92B3" fill="#236EAD" class="color_Free_Soil"/><use xlink:href="#b" x="45.09" y="110.06" stroke="#6D9A87" fill="#3F9778" class="color_-"/><use xlink:href="#b" x="49.52" y="62.06" stroke="#B58486" fill="#FE4365" class="color_Democratic"/><use xlink:href="#b" x="49.52" y="71.21" stroke="#AA8B71" fill="#ECA25C" class="color_Whig"/><use xlink:href="#b" x="49.52" y="101.76" stroke="#7C92B3" fill="#236EAD" class="color_Free_Soil"/><use xlink:href="#b" x="49.52" y="110.06" stroke="#6D9A87" fill="#3F9778" class="color_-"/><use xlink:href="#b" x="53.95" y="70.55" stroke="#B58486" fill="#FE4365" class="color_Democratic"/><use xlink:href="#b" x="53.95" y="55.68" stroke="#6D9A87" fill="#3F9778" class="color_-"/><use xlink:href="#b" x="53.95" y="108.8" stroke="#5F9A9E" fill="#60F6FF" class="color_Whig-American"/><use xlink:href="#b" x="53.95" y="110.06" stroke="#6D9A87" fill="#3F9778" class="color_-"/><use xlink:href="#b" x="58.38" y="55.6" stroke="#8B9572" fill="#D4EC9F" class="color_Republican"/><use xlink:href="#b" x="58.38" y="70.11" stroke="#B58486" fill="#FE4365" class="color_Democratic"/><use xlink:href="#b" x="58.38" y="109.56" stroke="#6D9A87" fill="#3F9778" class="color_-"/><use xlink:href="#b" x="58.38" y="109.81" stroke="#A68D6F" fill="#7E674B" class="color_Constitutional_Union"/><use xlink:href="#b" x="58.38" y="110.06" stroke="#6D9A87" fill="#3F9778" class="color_-"/><use xlink:href="#b" x="62.81" y="59.06" stroke="#8B9572" fill="#D4EC9F" class="color_Republican"/><use xlink:href="#b" x="62.81" y="65.91" stroke="#B58486" fill="#FE4365" class="color_Democratic"/><use xlink:href="#b" x="62.81" y="110.06" stroke="#6D9A87" fill="#3F9778" class="color_-"/><use xlink:href="#b" x="67.24" y="55.84" stroke="#8B9572" fill="#D4EC9F" class="color_Republican"/><use xlink:href="#b" x="67.24" y="69.13" stroke="#B58486" fill="#FE4365" class="color_Democratic"/><use xlink:href="#b" x="67.24" y="110.06" stroke="#6D9A87" fill="#3F9778" class="color_-"/><use xlink:href="#b" x="71.67" y="50.44" stroke="#8B9572" fill="#D4EC9F" class="color_Republican"/><use xlink:href="#b" x="71.67" y="76.31" stroke="#B58486" fill="#FE4365" class="color_Democratic"/><use xlink:href="#b" x="71.67" y="108.28" stroke="#6D9A87" fill="#3F9778" class="color_-"/><use xlink:href="#b" x="76.09" y="67.73" stroke="#B58486" fill="#FE4365" class="color_Democratic"/><use xlink:href="#b" x="76.09" y="60.19" stroke="#8B9572" fill="#D4EC9F" class="color_Republican"/><use xlink:href="#b" x="76.09" y="107.11" stroke="#6D9A87" fill="#3F9778" class="color_-"/><use xlink:href="#b" x="80.52" y="60.11" stroke="#8B9572" fill="#D4EC9F" class="color_Republican"/><use xlink:href="#b" x="80.52" y="74.6" stroke="#B58486" fill="#FE4365" class="color_Democratic"/><use xlink:href="#b" x="80.52" y="100.66" stroke="#9B8AAC" fill="#9E7EC1" class="color_Greenback"/><use xlink:href="#b" x="80.52" y="109.72" stroke="#6D9A87" fill="#3F9778" class="color_-"/><use xlink:href="#b" x="84.95" y="65.15" stroke="#B58486" fill="#FE4365" class="color_Democratic"/><use xlink:href="#b" x="84.95" y="64.36" stroke="#8B9572" fill="#D4EC9F" class="color_Republican"/><use xlink:href="#b" x="84.95" y="105.52" stroke="#6D9A87" fill="#3F9778" class="color_-"/><use xlink:href="#b" x="89.38" y="67.33" stroke="#B58486" fill="#FE4365" class="color_Democratic"/><use xlink:href="#b" x="89.38" y="62.74" stroke="#8B9572" fill="#D4EC9F" class="color_Republican"/><use xlink:href="#b" x="89.38" y="105.87" stroke="#7C92B3" fill="#7CB5FB" class="color_Prohibition"/><use xlink:href="#b" x="89.38" y="109.15" stroke="#6D9A87" fill="#3F9778" class="color_-"/><use xlink:href="#b" x="93.81" y="68.9" stroke="#B58486" fill="#FE4365" class="color_Democratic"/><use xlink:href="#b" x="93.81" y="64.59" stroke="#8B9572" fill="#D4EC9F" class="color_Republican"/><use xlink:href="#b" x="93.81" y="105.99" stroke="#5F9AA3" fill="#009DAD" class="color_Populist"/><use xlink:href="#b" x="93.81" y="105.8" stroke="#7C92B3" fill="#7CB5FB" class="color_Prohibition"/><use xlink:href="#b" x="93.81" y="109.87" stroke="#6D9A87" fill="#3F9778" class="color_-"/><use xlink:href="#b" x="98.24" y="58.9" stroke="#8B9572" fill="#D4EC9F" class="color_Republican"/><use xlink:href="#b" x="98.24" y="68.7" stroke="#B58486" fill="#FE4365" class="color_Democratic"/><use xlink:href="#b" x="98.24" y="107.43" stroke="#6D9A87" fill="#3F9778" class="color_-"/><use xlink:href="#b" x="102.67" y="54.78" stroke="#8B9572" fill="#D4EC9F" class="color_Republican"/><use xlink:href="#b" x="102.67" y="73.06" stroke="#B58486" fill="#FE4365" class="color_Democratic"/><use xlink:href="#b" x="102.67" y="107.19" stroke="#6D9A87" fill="#3F9778" class="color_-"/><use xlink:href="#b" x="107.09" y="43.92" stroke="#8B9572" fill="#D4EC9F" class="color_Republican"/><use xlink:href="#b" x="107.09" y="85.52" stroke="#B58486" fill="#FE4365" class="color_Democratic"/><use xlink:href="#b" x="107.09" y="108.42" stroke="#B3867D" fill="#AE8178" class="color_Socialist"/><use xlink:href="#b" x="107.09" y="107.23" stroke="#6D9A87" fill="#3F9778" class="color_-"/><use xlink:href="#b" x="111.52" y="51.13" stroke="#8B9572" fill="#D4EC9F" class="color_Republican"/><use xlink:href="#b" x="111.52" y="79.19" stroke="#B58486" fill="#FE4365" class="color_Democratic"/><use xlink:href="#b" x="111.52" y="108.03" stroke="#B3867D" fill="#AE8178" class="color_Socialist"/><use xlink:href="#b" x="111.52" y="106.74" stroke="#6D9A87" fill="#3F9778" class="color_-"/><use xlink:href="#b" x="115.95" y="84.03" stroke="#B58486" fill="#FE4365" class="color_Democratic"/><use xlink:href="#b" x="115.95" y="73" stroke="#AE8974" fill="#FFD9C5" class="color_Progressive"/><use xlink:href="#b" x="115.95" y="83.77" stroke="#8B9572" fill="#D4EC9F" class="color_Republican"/><use xlink:href="#b" x="115.95" y="106.05" stroke="#B3867D" fill="#AE8178" class="color_Socialist"/><use xlink:href="#b" x="115.95" y="108.3" stroke="#6D9A87" fill="#3F9778" class="color_-"/><use xlink:href="#b" x="120.38" y="68.14" stroke="#B58486" fill="#FE4365" class="color_Democratic"/><use xlink:href="#b" x="120.38" y="60.5" stroke="#8B9572" fill="#D4EC9F" class="color_Republican"/><use xlink:href="#b" x="120.38" y="107.7" stroke="#B3867D" fill="#AE8178" class="color_Socialist"/><use xlink:href="#b" x="120.38" y="108.75" stroke="#6D9A87" fill="#3F9778" class="color_-"/><use xlink:href="#b" x="124.81" y="40.82" stroke="#8B9572" fill="#D4EC9F" class="color_Republican"/><use xlink:href="#b" x="124.81" y="88.87" stroke="#B58486" fill="#FE4365" class="color_Democratic"/><use xlink:href="#b" x="124.81" y="107.43" stroke="#B3867D" fill="#AE8178" class="color_Socialist"/><use xlink:href="#b" x="124.81" y="107.96" stroke="#6D9A87" fill="#3F9778" class="color_-"/><use xlink:href="#b" x="129.24" y="38.34" stroke="#8B9572" fill="#D4EC9F" class="color_Republican"/><use xlink:href="#b" x="129.24" y="97.57" stroke="#B58486" fill="#FE4365" class="color_Democratic"/><use xlink:href="#b" x="129.24" y="100.06" stroke="#AE8974" fill="#FFD9C5" class="color_Progressive"/><use xlink:href="#b" x="129.24" y="109.12" stroke="#6D9A87" fill="#3F9778" class="color_-"/><use xlink:href="#b" x="133.67" y="43.11" stroke="#8B9572" fill="#D4EC9F" class="color_Republican"/><use xlink:href="#b" x="133.67" y="82.55" stroke="#B58486" fill="#FE4365" class="color_Democratic"/><use xlink:href="#b" x="133.67" y="109.37" stroke="#6D9A87" fill="#3F9778" class="color_-"/><use xlink:href="#b" x="138.09" y="60.24" stroke="#B58486" fill="#FE4365" class="color_Democratic"/><use xlink:href="#b" x="138.09" y="67.77" stroke="#8B9572" fill="#D4EC9F" class="color_Republican"/><use xlink:href="#b" x="138.09" y="107.82" stroke="#B3867D" fill="#AE8178" class="color_Socialist"/><use xlink:href="#b" x="138.09" y="109.26" stroke="#6D9A87" fill="#3F9778" class="color_-"/><use xlink:href="#b" x="142.52" y="56.46" stroke="#B58486" fill="#FE4365" class="color_Democratic"/><use xlink:href="#b" x="142.52" y="73.18" stroke="#8B9572" fill="#D4EC9F" class="color_Republican"/><use xlink:href="#b" x="142.52" y="105.39" stroke="#6D9A87" fill="#3F9778" class="color_-"/><use xlink:href="#b" x="146.95" y="62.94" stroke="#B58486" fill="#FE4365" class="color_Democratic"/><use xlink:href="#b" x="146.95" y="62.62" stroke="#8B9572" fill="#D4EC9F" class="color_Republican"/><use xlink:href="#b" x="146.95" y="109.47" stroke="#6D9A87" fill="#3F9778" class="color_-"/><use xlink:href="#b" x="151.38" y="62.3" stroke="#B58486" fill="#FE4365" class="color_Democratic"/><use xlink:href="#b" x="151.38" y="63.27" stroke="#8B9572" fill="#D4EC9F" class="color_Republican"/><use xlink:href="#b" x="151.38" y="109.46" stroke="#6D9A87" fill="#3F9778" class="color_-"/><use xlink:href="#b" x="155.81" y="64.8" stroke="#B58486" fill="#FE4365" class="color_Democratic"/><use xlink:href="#b" x="155.81" y="63.22" stroke="#8B9572" fill="#D4EC9F" class="color_Republican"/><use xlink:href="#b" x="155.81" y="110.06" stroke="#8B9572" fill="#5C722E" class="color_State's_Rights"/><use xlink:href="#b" x="155.81" y="107.96" stroke="#AE8974" fill="#FFD9C5" class="color_Progressive"/><use xlink:href="#b" x="155.81" y="109.11" stroke="#6D9A87" fill="#3F9778" class="color_-"/><use xlink:href="#b" x="160.24" y="57.31" stroke="#8B9572" fill="#D4EC9F" class="color_Republican"/><use xlink:href="#b" x="160.24" y="68.22" stroke="#B58486" fill="#FE4365" class="color_Democratic"/><use xlink:href="#b" x="160.24" y="109.5" stroke="#6D9A87" fill="#3F9778" class="color_-"/><use xlink:href="#b" x="164.67" y="57.13" stroke="#8B9572" fill="#D4EC9F" class="color_Republican"/><use xlink:href="#b" x="164.67" y="68.05" stroke="#B58486" fill="#FE4365" class="color_Democratic"/><use xlink:href="#b" x="164.67" y="109.85" stroke="#6D9A87" fill="#3F9778" class="color_-"/><use xlink:href="#b" x="169.09" y="61.68" stroke="#B58486" fill="#FE4365" class="color_Democratic"/><use xlink:href="#b" x="169.09" y="63.59" stroke="#8B9572" fill="#D4EC9F" class="color_Republican"/><use xlink:href="#b" x="169.09" y="109.76" stroke="#6D9A87" fill="#3F9778" class="color_-"/><use xlink:href="#b" x="173.52" y="46.59" stroke="#B58486" fill="#FE4365" class="color_Democratic"/><use xlink:href="#b" x="173.52" y="78.57" stroke="#8B9572" fill="#D4EC9F" class="color_Republican"/><use xlink:href="#b" x="173.52" y="109.87" stroke="#6D9A87" fill="#3F9778" class="color_-"/><use xlink:href="#b" x="177.95" y="70.61" stroke="#8B9572" fill="#D4EC9F" class="color_Republican"/><use xlink:href="#b" x="177.95" y="64.21" stroke="#B58486" fill="#FE4365" class="color_Democratic"/><use xlink:href="#b" x="177.95" y="100.51" stroke="#669B90" fill="#86BCB1" class="color_American_Ind."/><use xlink:href="#b" x="177.95" y="109.76" stroke="#6D9A87" fill="#3F9778" class="color_-"/><use xlink:href="#b" x="182.38" y="56.58" stroke="#8B9572" fill="#D4EC9F" class="color_Republican"/><use xlink:href="#b" x="182.38" y="70.27" stroke="#B58486" fill="#FE4365" class="color_Democratic"/><use xlink:href="#b" x="182.38" y="108.17" stroke="#6D9A87" fill="#3F9778" class="color_-"/><use xlink:href="#b" x="186.81" y="65.87" stroke="#B58486" fill="#FE4365" class="color_Democratic"/><use xlink:href="#b" x="186.81" y="60.74" stroke="#8B9572" fill="#D4EC9F" class="color_Republican"/><use xlink:href="#b" x="186.81" y="108.41" stroke="#6D9A87" fill="#3F9778" class="color_-"/><use xlink:href="#b" x="191.24" y="63.45" stroke="#8B9572" fill="#D4EC9F" class="color_Republican"/><use xlink:href="#b" x="191.24" y="69.62" stroke="#B58486" fill="#FE4365" class="color_Democratic"/><use xlink:href="#b" x="191.24" y="103.36" stroke="#9B8AAC" fill="#746484" class="color_Independent"/><use xlink:href="#b" x="191.24" y="108.65" stroke="#6D9A87" fill="#3F9778" class="color_-"/><use xlink:href="#b" x="195.67" y="53.71" stroke="#8B9572" fill="#D4EC9F" class="color_Republican"/><use xlink:href="#b" x="195.67" y="71.77" stroke="#B58486" fill="#FE4365" class="color_Democratic"/><use xlink:href="#b" x="195.67" y="109.55" stroke="#6D9A87" fill="#3F9778" class="color_-"/><use xlink:href="#b" x="200.1" y="59.09" stroke="#8B9572" fill="#D4EC9F" class="color_Republican"/><use xlink:href="#b" x="200.1" y="66.6" stroke="#B58486" fill="#FE4365" class="color_Democratic"/><use xlink:href="#b" x="200.1" y="109.34" stroke="#6D9A87" fill="#3F9778" class="color_-"/><use xlink:href="#b" x="204.52" y="68.41" stroke="#B58486" fill="#FE4365" class="color_Democratic"/><use xlink:href="#b" x="204.52" y="75.45" stroke="#8B9572" fill="#D4EC9F" class="color_Republican"/><use xlink:href="#b" x="204.52" y="91.7" stroke="#9B8AAC" fill="#746484" class="color_Independent"/><use xlink:href="#b" x="204.52" y="109.53" stroke="#6D9A87" fill="#3F9778" class="color_-"/><use xlink:href="#b" x="208.95" y="60.87" stroke="#B58486" fill="#FE4365" class="color_Democratic"/><use xlink:href="#b" x="208.95" y="73.44" stroke="#8B9572" fill="#D4EC9F" class="color_Republican"/><use xlink:href="#b" x="208.95" y="101.74" stroke="#B4867D" fill="#A55246" class="color_Reform"/><use xlink:href="#b" x="208.95" y="109.04" stroke="#6D9A87" fill="#3F9778" class="color_-"/><use xlink:href="#b" x="213.38" y="61.27" stroke="#B58486" fill="#FE4365" class="color_Democratic"/><use xlink:href="#b" x="213.38" y="66.15" stroke="#8B9572" fill="#D4EC9F" class="color_Republican"/><use xlink:href="#b" x="213.38" y="108.17" stroke="#5F9AA2" fill="#37737B" class="color_Green"/><use xlink:href="#b" x="213.38" y="109.5" stroke="#6D9A87" fill="#3F9778" class="color_-"/><use xlink:href="#b" x="217.81" y="64.57" stroke="#8B9572" fill="#D4EC9F" class="color_Republican"/><use xlink:href="#b" x="217.81" y="61.31" stroke="#B58486" fill="#FE4365" class="color_Democratic"/><use xlink:href="#b" x="217.81" y="109.15" stroke="#6D9A87" fill="#3F9778" class="color_-"/><use xlink:href="#b" x="222.24" y="55.51" stroke="#B58486" fill="#FE4365" class="color_Democratic"/><use xlink:href="#b" x="222.24" y="71.16" stroke="#8B9572" fill="#D4EC9F" class="color_Republican"/><use xlink:href="#b" x="222.24" y="108.36" stroke="#6D9A87" fill="#3F9778" class="color_-"/><use xlink:href="#b" x="226.67" y="58.64" stroke="#B58486" fill="#FE4365" class="color_Democratic"/><use xlink:href="#b" x="226.67" y="67.65" stroke="#8B9572" fill="#D4EC9F" class="color_Republican"/><use xlink:href="#b" x="226.67" y="108.75" stroke="#6D9A87" fill="#3F9778" class="color_-"/></g><g fill-opacity="0"><path fill="none" d="M45.09 94.87l4.43 6.89" stroke="#236EAD" class="geometry color_Free_Soil"/><path fill="none" d="M31.81 110.06l4.43-.69 4.43.69h8.85l4.43-54.38v54.38l4.43-.5v.5h8.86l4.43-1.78 4.42-1.17 4.43 2.61 4.43-4.2 4.43 3.63 4.43.72 4.43-2.44 4.43-.24 4.42.04 4.43-.49 4.43 1.56 4.43.45 4.43-.79 4.43 1.16 4.43.25 4.42-.11 4.43-3.87 4.43 4.08 4.43-.01 4.43-.35 4.43.39 4.43.35 4.42-.09 4.43.11 4.43-.11 4.43-1.59 4.43.24 4.43.24 4.43.9 4.43-.21 4.42.19 4.43-.49 4.43.46 4.43-.35 4.43-.79 4.43.39" stroke="#3F9778" class="geometry color_-"/><path fill="none" d="M191.24 103.36l13.28-11.66" stroke="#746484" class="geometry color_Independent"/><path fill="none" d="M89.38 105.87l4.43-.07" stroke="#7CB5FB" class="geometry color_Prohibition"/><path fill="none" d="M107.09 108.42l4.43-.39 4.43-1.98 4.43 1.65 4.43-.27 13.28.39" stroke="#AE8178" class="geometry color_Socialist"/><path fill="none" d="M58.38 55.6l4.43 3.46 4.43-3.22 4.43-5.4 4.42 9.75 4.43-.08 4.43 4.25 4.43-1.62 4.43 1.85 4.43-5.69 4.43-4.12 4.42-10.86 4.43 7.21 4.43 32.64 4.43-23.27 4.43-19.68 4.43-2.48 4.43 4.77 4.42 24.66 4.43 5.41 4.43-10.56 4.43.65 4.43-.05 4.43-5.91 4.43-.18 4.42 6.46 4.43 14.98 4.43-7.96 4.43-14.03 4.43 4.16 4.43 2.71 4.43-9.74 4.43 5.38 4.42 16.36 4.43-2.01 4.43-7.29 4.43-1.58 4.43 6.59 4.43-3.51" stroke="#D4EC9F" class="geometry color_Republican"/><path fill="none" d="M31.81 68.41v41.65l4.43-49.2 4.43 7.6 4.42 6.59 4.43-3.84" stroke="#ECA25C" class="geometry color_Whig"/><path fill="none" d="M31.81 56.56l4.43 8.24 4.43-2.08 4.42 2.39 4.43-3.05 4.43 8.49 4.43-.44 4.43-4.2 4.43 3.22 4.43 7.18 4.42-8.58 4.43 6.87 4.43-9.45 4.43 2.18 4.43 1.57 4.43-.2 4.43 4.36 4.42 12.46 4.43-6.33 4.43 4.84 4.43-15.89 4.43 20.73 4.43 8.7 4.43-15.02 4.42-22.31 4.43-3.78 4.43 6.48 4.43-.64 4.43 2.5 4.43 3.42 4.43-.17 4.42-6.37 4.43-15.09 4.43 17.62 4.43 6.06 4.43-4.4 4.43 3.75 4.43 2.15 4.43-5.17 4.42 1.81 4.43-7.54 4.43.4 4.43.04 4.43-5.8 4.43 3.13" stroke="#FE4365" class="geometry color_Democratic"/><path fill="none" d="M115.95 73l13.29 27.06 26.57 7.9" stroke="#FFD9C5" class="geometry color_Progressive"/></g></g></g><g class="guide ylabels" font-size="4.76" font-family="'PT Sans Caption','Helvetica Neue','Helvetica',sans-serif" fill="#A1A1A1" text-anchor="end"><text x="24.38" y="110.06" dy=".35em">0</text><text x="24.38" y="86.27" dy=".35em">25</text><text x="24.38" y="62.48" dy=".35em">50</text><text x="24.38" y="38.7" dy=".35em">75</text><text x="24.38" y="14.91" dy=".35em">100</text></g><text x="9.95" y="60.48" text-anchor="middle" dy=".35em" transform="rotate(-90 9.95 62.48)" font-size="6.35" font-family="'PT Sans','Helvetica Neue','Helvetica',sans-serif" fill="#A1A1A1" stroke="#000" stroke-opacity="0">Popular Vote (%)</text><text x="129.24" y="5" text-anchor="middle" dy=".6em" font-size="6.35" font-family="'PT Sans','Helvetica Neue','Helvetica',sans-serif" fill="#A1A1A1" stroke="#000" stroke-opacity="0">Michigan</text></g><defs><clipPath id="a"><path d="M25.38 12.91H233.1v99.15H25.38"/></clipPath><circle r=".9" id="b"/></defs></svg>