<svg xmlns="http://www.w3.org/2000/svg" xmlns:xlink="http://www.w3.org/1999/xlink" version="1.2" width="238.1mm" height="599.924" viewBox="0 0 238.1 158.73" stroke-width=".3" font-size="3.88"><path d="M0 0h238.1v158.73H0z" stroke="#000" stroke-opacity="0" fill="#222831"/><g class="plotroot xscalable yscalable"><g class="guide colorkey"><g class="color_Green"><text x="167.07" y="144.33" dy=".35em" fill="#A1A1A1" font-size="3.7" font-family="'PT Sans','Helvetica Neue','Helvetica',sans-serif">Green</text><path d="M163.85 143.22h2.22v2.22h-2.22z" fill="#FFD9C5" stroke="#000" stroke-opacity="0"/></g><g fill="#A1A1A1" font-size="3.7" font-family="'PT Sans','Helvetica Neue','Helvetica',sans-serif"><text x="142.81" y="144.33" dy=".35em" class="color_Independent">Independent</text><text x="142.81" y="148.78" dy=".35em" class="color_Reform">Reform</text></g><g stroke="#000" stroke-opacity="0"><path fill="#009DAD" class="color_Independent" d="M139.59 143.22h2.22v2.22h-2.22z"/><path fill="#AE8178" class="color_Reform" d="M139.59 147.66h2.22v2.22h-2.22z"/></g><g fill="#A1A1A1" font-size="3.7" font-family="'PT Sans','Helvetica Neue','Helvetica',sans-serif"><text x="116.87" y="144.33" dy=".35em" class="color_State's_Rights">State&amp;apos;s Rights</text><text x="116.87" y="148.78" dy=".35em" class="color_American_Ind.">American Ind.</text></g><g stroke="#000" stroke-opacity="0"><path fill="#9E7EC1" class="color_State's_Rights" d="M113.65 143.22h2.22v2.22h-2.22z"/><path fill="#7CB5FB" class="color_American_Ind." d="M113.65 147.66h2.22v2.22h-2.22z"/></g><g fill="#A1A1A1" font-size="3.7" font-family="'PT Sans','Helvetica Neue','Helvetica',sans-serif"><text x="94.43" y="144.33" dy=".35em" class="color_Socialist">Socialist</text><text x="94.43" y="148.78" dy=".35em" class="color_Progressive">Progressive</text></g><g stroke="#000" stroke-opacity="0"><path fill="#D4EC9F" class="color_Socialist" d="M91.21 143.22h2.22v2.22h-2.22z"/><path fill="#7E674B" class="color_Progressive" d="M91.21 147.66h2.22v2.22h-2.22z"/></g><g fill="#A1A1A1" font-size="3.7" font-family="'PT Sans','Helvetica Neue','Helvetica',sans-serif"><text x="72.63" y="144.33" dy=".35em" class="color_Prohibition">Prohibition</text><text x="72.63" y="148.78" dy=".35em" class="color_Populist">Populist</text></g><g stroke="#000" stroke-opacity="0"><path fill="#236EAD" class="color_Prohibition" d="M69.41 143.22h2.22v2.22h-2.22z"/><path fill="#60F6FF" class="color_Populist" d="M69.41 147.66h2.22v2.22h-2.22z"/></g><g fill="#A1A1A1" font-size="3.7" font-family="'PT Sans','Helvetica Neue','Helvetica',sans-serif"><text x="51.81" y="144.33" dy=".35em" class="color_Greenback">Greenback</text><text x="51.81" y="148.78" dy=".35em" class="color_-">-</text></g><g stroke="#000" stroke-opacity="0"><path fill="#3F9778" class="color_Greenback" d="M48.59 143.22h2.22v2.22h-2.22z"/><path fill="#EEDBFF" class="color_-" d="M48.59 147.66h2.22v2.22h-2.22z"/></g><g fill="#A1A1A1" font-size="3.7" font-family="'PT Sans','Helvetica Neue','Helvetica',sans-serif"><text x="29.6" y="144.33" dy=".35em" class="color_Republican">Republican</text><text x="29.6" y="148.78" dy=".35em" class="color_Democratic">Democratic</text></g><g stroke="#000" stroke-opacity="0"><path fill="#FE4365" class="color_Republican" d="M26.38 143.22h2.22v2.22h-2.22z"/><path fill="#ECA25C" class="color_Democratic" d="M26.38 147.66h2.22v2.22h-2.22z"/></g><text x="26.38" y="140.84" fill="#FFF" font-size="6.35" font-family="'PT Sans','Helvetica Neue','Helvetica',sans-serif" stroke="#000" stroke-opacity="0">Party</text></g><text x="129.24" y="126.02" text-anchor="middle" dy=".6em" font-size="6.35" font-family="'PT Sans','Helvetica Neue','Helvetica',sans-serif" fill="#A1A1A1" stroke="#000" stroke-opacity="0">Year</text><g class="guide xlabels" font-size="4.76" font-family="'PT Sans Caption','Helvetica Neue','Helvetica',sans-serif" fill="#A1A1A1" text-anchor="middle"><text x="27.38" y="117.51" dy=".6em">1876</text><text x="39.02" y="117.51" dy=".6em">1884</text><text x="50.66" y="117.51" dy=".6em">1892</text><text x="62.3" y="117.51" dy=".6em">1900</text><text x="73.94" y="117.51" dy=".6em">1908</text><text x="85.58" y="117.51" dy=".6em">1916</text><text x="97.22" y="117.51" dy=".6em">1924</text><text x="108.87" y="117.51" dy=".6em">1932</text><text x="120.51" y="117.51" dy=".6em">1940</text><text x="132.15" y="117.51" dy=".6em">1948</text><text x="143.79" y="117.51" dy=".6em">1956</text><text x="155.43" y="117.51" dy=".6em">1964</text><text x="167.07" y="117.51" dy=".6em">1972</text><text x="178.71" y="117.51" dy=".6em">1980</text><text x="190.35" y="117.51" dy=".6em">1988</text><text x="201.99" y="117.51" dy=".6em">1996</text><text x="213.63" y="117.51" dy=".6em">2004</text><text x="225.27" y="117.51" dy=".6em">2012</text></g><g clip-path="url(#a)"><path d="M25.38 12.91H233.1v103.6H25.38z" pointer-events="visible" fill="#222831" stroke="#000" stroke-opacity="0" class="guide background"/><g class="guide ygridlines xfixed" stroke-dasharray="0.5,0.5" stroke-width=".2" stroke="#575757" fill="none"><path d="M25.38 114.51H233.1M25.38 89.61H233.1M25.38 64.71H233.1M25.38 39.81H233.1M25.38 14.91H233.1"/></g><g class="guide xgridlines yfixed" stroke-dasharray="0.5,0.5" stroke-width=".2" stroke="#575757" fill="none"><path d="M27.38 12.91v103.6M39.02 12.91v103.6M50.66 12.91v103.6M62.3 12.91v103.6M73.94 12.91v103.6M85.58 12.91v103.6M97.22 12.91v103.6M108.87 12.91v103.6M120.51 12.91v103.6M132.15 12.91v103.6M143.79 12.91v103.6M155.43 12.91v103.6M167.07 12.91v103.6M178.71 12.91v103.6M190.35 12.91v103.6M201.99 12.91v103.6M213.63 12.91v103.6M225.27 12.91v103.6"/></g><g class="plotpanel"><g class="geometry"><use xlink:href="#b" x="33.2" y="63.45" stroke="#B58486" fill="#FE4365" class="color_Republican"/><use xlink:href="#b" x="33.2" y="68.66" stroke="#AA8B71" fill="#ECA25C" class="color_Democratic"/><use xlink:href="#b" x="33.2" y="111.84" stroke="#6D9A87" fill="#3F9778" class="color_Greenback"/><use xlink:href="#b" x="33.2" y="114.48" stroke="#9B8AAB" fill="#EEDBFF" class="color_-"/><use xlink:href="#b" x="39.02" y="73" stroke="#AA8B71" fill="#ECA25C" class="color_Democratic"/><use xlink:href="#b" x="39.02" y="60.48" stroke="#B58486" fill="#FE4365" class="color_Republican"/><use xlink:href="#b" x="39.02" y="110.45" stroke="#9B8AAB" fill="#EEDBFF" class="color_-"/><use xlink:href="#b" x="44.84" y="73.83" stroke="#AA8B71" fill="#ECA25C" class="color_Democratic"/><use xlink:href="#b" x="44.84" y="59.51" stroke="#B58486" fill="#FE4365" class="color_Republican"/><use xlink:href="#b" x="44.84" y="112.14" stroke="#7C92B3" fill="#236EAD" class="color_Prohibition"/><use xlink:href="#b" x="44.84" y="112.94" stroke="#9B8AAB" fill="#EEDBFF" class="color_-"/><use xlink:href="#b" x="50.66" y="114.51" stroke="#AA8B71" fill="#ECA25C" class="color_Democratic"/><use xlink:href="#b" x="50.66" y="73.54" stroke="#B58486" fill="#FE4365" class="color_Republican"/><use xlink:href="#b" x="50.66" y="57.67" stroke="#5F9A9E" fill="#60F6FF" class="color_Populist"/><use xlink:href="#b" x="50.66" y="112.72" stroke="#7C92B3" fill="#236EAD" class="color_Prohibition"/><use xlink:href="#b" x="50.66" y="114.51" stroke="#9B8AAB" fill="#EEDBFF" class="color_-"/><use xlink:href="#b" x="56.48" y="100.7" stroke="#B58486" fill="#FE4365" class="color_Republican"/><use xlink:href="#b" x="56.48" y="29.9" stroke="#AA8B71" fill="#ECA25C" class="color_Democratic"/><use xlink:href="#b" x="56.48" y="113.32" stroke="#9B8AAB" fill="#EEDBFF" class="color_-"/><use xlink:href="#b" x="62.3" y="72.64" stroke="#B58486" fill="#FE4365" class="color_Republican"/><use xlink:href="#b" x="62.3" y="59.3" stroke="#AA8B71" fill="#ECA25C" class="color_Democratic"/><use xlink:href="#b" x="62.3" y="111.99" stroke="#9B8AAB" fill="#EEDBFF" class="color_-"/><use xlink:href="#b" x="68.12" y="59.46" stroke="#B58486" fill="#FE4365" class="color_Republican"/><use xlink:href="#b" x="68.12" y="73.59" stroke="#AA8B71" fill="#ECA25C" class="color_Democratic"/><use xlink:href="#b" x="68.12" y="112.75" stroke="#8B9572" fill="#D4EC9F" class="color_Socialist"/><use xlink:href="#b" x="68.12" y="112.63" stroke="#9B8AAB" fill="#EEDBFF" class="color_-"/><use xlink:href="#b" x="73.94" y="67.82" stroke="#B58486" fill="#FE4365" class="color_Republican"/><use xlink:href="#b" x="73.94" y="66.7" stroke="#AA8B71" fill="#ECA25C" class="color_Democratic"/><use xlink:href="#b" x="73.94" y="111.5" stroke="#8B9572" fill="#D4EC9F" class="color_Socialist"/><use xlink:href="#b" x="73.94" y="112.41" stroke="#9B8AAB" fill="#EEDBFF" class="color_-"/><use xlink:href="#b" x="79.76" y="71.88" stroke="#AA8B71" fill="#ECA25C" class="color_Democratic"/><use xlink:href="#b" x="79.76" y="87.52" stroke="#A68D6F" fill="#7E674B" class="color_Progressive"/><use xlink:href="#b" x="79.76" y="92.72" stroke="#B58486" fill="#FE4365" class="color_Republican"/><use xlink:href="#b" x="79.76" y="108.38" stroke="#8B9572" fill="#D4EC9F" class="color_Socialist"/><use xlink:href="#b" x="79.76" y="112.44" stroke="#9B8AAB" fill="#EEDBFF" class="color_-"/><use xlink:href="#b" x="85.58" y="54.01" stroke="#AA8B71" fill="#ECA25C" class="color_Democratic"/><use xlink:href="#b" x="85.58" y="79.89" stroke="#B58486" fill="#FE4365" class="color_Republican"/><use xlink:href="#b" x="85.58" y="111.11" stroke="#8B9572" fill="#D4EC9F" class="color_Socialist"/><use xlink:href="#b" x="85.58" y="113.42" stroke="#9B8AAB" fill="#EEDBFF" class="color_-"/><use xlink:href="#b" x="91.4" y="55.42" stroke="#B58486" fill="#FE4365" class="color_Republican"/><use xlink:href="#b" x="91.4" y="78.72" stroke="#AA8B71" fill="#ECA25C" class="color_Democratic"/><use xlink:href="#b" x="91.4" y="111.76" stroke="#8B9572" fill="#D4EC9F" class="color_Socialist"/><use xlink:href="#b" x="91.4" y="112.52" stroke="#9B8AAB" fill="#EEDBFF" class="color_-"/><use xlink:href="#b" x="97.22" y="57.71" stroke="#B58486" fill="#FE4365" class="color_Republican"/><use xlink:href="#b" x="97.22" y="92.61" stroke="#AA8B71" fill="#ECA25C" class="color_Democratic"/><use xlink:href="#b" x="97.22" y="94.15" stroke="#A68D6F" fill="#7E674B" class="color_Progressive"/><use xlink:href="#b" x="97.22" y="113.95" stroke="#9B8AAB" fill="#EEDBFF" class="color_-"/><use xlink:href="#b" x="103.05" y="50.04" stroke="#B58486" fill="#FE4365" class="color_Republican"/><use xlink:href="#b" x="103.05" y="80.7" stroke="#AA8B71" fill="#ECA25C" class="color_Democratic"/><use xlink:href="#b" x="103.05" y="113.18" stroke="#9B8AAB" fill="#EEDBFF" class="color_-"/><use xlink:href="#b" x="108.87" y="59.91" stroke="#AA8B71" fill="#ECA25C" class="color_Democratic"/><use xlink:href="#b" x="108.87" y="73.24" stroke="#B58486" fill="#FE4365" class="color_Republican"/><use xlink:href="#b" x="108.87" y="111.55" stroke="#8B9572" fill="#D4EC9F" class="color_Socialist"/><use xlink:href="#b" x="108.87" y="113.72" stroke="#9B8AAB" fill="#EEDBFF" class="color_-"/><use xlink:href="#b" x="114.69" y="54.38" stroke="#AA8B71" fill="#ECA25C" class="color_Democratic"/><use xlink:href="#b" x="114.69" y="77.56" stroke="#B58486" fill="#FE4365" class="color_Republican"/><use xlink:href="#b" x="114.69" y="111.98" stroke="#9B8AAB" fill="#EEDBFF" class="color_-"/><use xlink:href="#b" x="120.51" y="66.33" stroke="#AA8B71" fill="#ECA25C" class="color_Democratic"/><use xlink:href="#b" x="120.51" y="63.79" stroke="#B58486" fill="#FE4365" class="color_Republican"/><use xlink:href="#b" x="120.51" y="113.8" stroke="#9B8AAB" fill="#EEDBFF" class="color_-"/><use xlink:href="#b" x="126.33" y="68.29" stroke="#AA8B71" fill="#ECA25C" class="color_Democratic"/><use xlink:href="#b" x="126.33" y="61.51" stroke="#B58486" fill="#FE4365" class="color_Republican"/><use xlink:href="#b" x="126.33" y="114.12" stroke="#9B8AAB" fill="#EEDBFF" class="color_-"/><use xlink:href="#b" x="132.15" y="62.84" stroke="#AA8B71" fill="#ECA25C" class="color_Democratic"/><use xlink:href="#b" x="132.15" y="68.17" stroke="#B58486" fill="#FE4365" class="color_Republican"/><use xlink:href="#b" x="132.15" y="114.51" stroke="#9B8AAC" fill="#9E7EC1" class="color_State's_Rights"/><use xlink:href="#b" x="132.15" y="113.32" stroke="#A68D6F" fill="#7E674B" class="color_Progressive"/><use xlink:href="#b" x="132.15" y="114.1" stroke="#9B8AAB" fill="#EEDBFF" class="color_-"/><use xlink:href="#b" x="137.97" y="54.48" stroke="#B58486" fill="#FE4365" class="color_Republican"/><use xlink:href="#b" x="137.97" y="75.7" stroke="#AA8B71" fill="#ECA25C" class="color_Democratic"/><use xlink:href="#b" x="137.97" y="113.75" stroke="#9B8AAB" fill="#EEDBFF" class="color_-"/><use xlink:href="#b" x="143.79" y="55.25" stroke="#B58486" fill="#FE4365" class="color_Republican"/><use xlink:href="#b" x="143.79" y="74.85" stroke="#AA8B71" fill="#ECA25C" class="color_Democratic"/><use xlink:href="#b" x="143.79" y="113.82" stroke="#9B8AAB" fill="#EEDBFF" class="color_-"/><use xlink:href="#b" x="149.61" y="69.78" stroke="#AA8B71" fill="#ECA25C" class="color_Democratic"/><use xlink:href="#b" x="149.61" y="60.09" stroke="#B58486" fill="#FE4365" class="color_Republican"/><use xlink:href="#b" x="149.61" y="114.05" stroke="#9B8AAB" fill="#EEDBFF" class="color_-"/><use xlink:href="#b" x="155.43" y="53.49" stroke="#AA8B71" fill="#ECA25C" class="color_Democratic"/><use xlink:href="#b" x="155.43" y="76.47" stroke="#B58486" fill="#FE4365" class="color_Republican"/><use xlink:href="#b" x="155.43" y="113.97" stroke="#9B8AAB" fill="#EEDBFF" class="color_-"/><use xlink:href="#b" x="161.25" y="64.25" stroke="#B58486" fill="#FE4365" class="color_Republican"/><use xlink:href="#b" x="161.25" y="73.35" stroke="#AA8B71" fill="#ECA25C" class="color_Democratic"/><use xlink:href="#b" x="161.25" y="107.04" stroke="#7C92B3" fill="#7CB5FB" class="color_American_Ind."/><use xlink:href="#b" x="161.25" y="113.79" stroke="#9B8AAB" fill="#EEDBFF" class="color_-"/><use xlink:href="#b" x="167.07" y="52.15" stroke="#B58486" fill="#FE4365" class="color_Republican"/><use xlink:href="#b" x="167.07" y="80.05" stroke="#AA8B71" fill="#ECA25C" class="color_Democratic"/><use xlink:href="#b" x="167.07" y="111.72" stroke="#9B8AAB" fill="#EEDBFF" class="color_-"/><use xlink:href="#b" x="172.89" y="72.1" stroke="#AA8B71" fill="#ECA25C" class="color_Democratic"/><use xlink:href="#b" x="172.89" y="60.67" stroke="#B58486" fill="#FE4365" class="color_Republican"/><use xlink:href="#b" x="172.89" y="111.15" stroke="#9B8AAB" fill="#EEDBFF" class="color_-"/><use xlink:href="#b" x="178.71" y="59.66" stroke="#B58486" fill="#FE4365" class="color_Republican"/><use xlink:href="#b" x="178.71" y="83.56" stroke="#AA8B71" fill="#ECA25C" class="color_Democratic"/><use xlink:href="#b" x="178.71" y="103.52" stroke="#5F9AA3" fill="#009DAD" class="color_Independent"/><use xlink:href="#b" x="178.71" y="111.69" stroke="#9B8AAB" fill="#EEDBFF" class="color_-"/><use xlink:href="#b" x="184.53" y="51.32" stroke="#B58486" fill="#FE4365" class="color_Republican"/><use xlink:href="#b" x="184.53" y="79.53" stroke="#AA8B71" fill="#ECA25C" class="color_Democratic"/><use xlink:href="#b" x="184.53" y="113.08" stroke="#9B8AAB" fill="#EEDBFF" class="color_-"/><use xlink:href="#b" x="190.35" y="61.66" stroke="#B58486" fill="#FE4365" class="color_Republican"/><use xlink:href="#b" x="190.35" y="69.41" stroke="#AA8B71" fill="#ECA25C" class="color_Democratic"/><use xlink:href="#b" x="190.35" y="112.85" stroke="#9B8AAB" fill="#EEDBFF" class="color_-"/><use xlink:href="#b" x="196.17" y="74.54" stroke="#AA8B71" fill="#ECA25C" class="color_Democratic"/><use xlink:href="#b" x="196.17" y="78.78" stroke="#B58486" fill="#FE4365" class="color_Republican"/><use xlink:href="#b" x="196.17" y="91.28" stroke="#5F9AA3" fill="#009DAD" class="color_Independent"/><use xlink:href="#b" x="196.17" y="113.83" stroke="#9B8AAB" fill="#EEDBFF" class="color_-"/><use xlink:href="#b" x="201.99" y="70.26" stroke="#AA8B71" fill="#ECA25C" class="color_Democratic"/><use xlink:href="#b" x="201.99" y="68.89" stroke="#B58486" fill="#FE4365" class="color_Republican"/><use xlink:href="#b" x="201.99" y="107.94" stroke="#B3867D" fill="#AE8178" class="color_Reform"/><use xlink:href="#b" x="201.99" y="111.34" stroke="#9B8AAB" fill="#EEDBFF" class="color_-"/><use xlink:href="#b" x="207.81" y="72.28" stroke="#AA8B71" fill="#ECA25C" class="color_Democratic"/><use xlink:href="#b" x="207.81" y="63.96" stroke="#B58486" fill="#FE4365" class="color_Republican"/><use xlink:href="#b" x="207.81" y="109.28" stroke="#AE8974" fill="#FFD9C5" class="color_Green"/><use xlink:href="#b" x="207.81" y="112.91" stroke="#9B8AAB" fill="#EEDBFF" class="color_-"/><use xlink:href="#b" x="213.63" y="63.02" stroke="#B58486" fill="#FE4365" class="color_Republican"/><use xlink:href="#b" x="213.63" y="67.67" stroke="#AA8B71" fill="#ECA25C" class="color_Democratic"/><use xlink:href="#b" x="213.63" y="113.23" stroke="#9B8AAB" fill="#EEDBFF" class="color_-"/><use xlink:href="#b" x="219.45" y="61.06" stroke="#AA8B71" fill="#ECA25C" class="color_Democratic"/><use xlink:href="#b" x="219.45" y="69.98" stroke="#B58486" fill="#FE4365" class="color_Republican"/><use xlink:href="#b" x="219.45" y="112.88" stroke="#9B8AAB" fill="#EEDBFF" class="color_-"/><use xlink:href="#b" x="225.27" y="63.27" stroke="#AA8B71" fill="#ECA25C" class="color_Democratic"/><use xlink:href="#b" x="225.27" y="68.61" stroke="#B58486" fill="#FE4365" class="color_Republican"/><use xlink:href="#b" x="225.27" y="112.05" stroke="#9B8AAB" fill="#EEDBFF" class="color_-"/></g><g fill-opacity="0"><path fill="none" d="M178.71 103.52l17.46-12.24" stroke="#009DAD" class="geometry color_Independent"/><path fill="none" d="M44.84 112.14l5.82.58" stroke="#236EAD" class="geometry color_Prohibition"/><path fill="none" d="M79.76 87.52l17.46 6.63 34.93 19.17" stroke="#7E674B" class="geometry color_Progressive"/><path fill="none" d="M68.12 112.75l5.82-1.25 5.82-3.12 5.82 2.73 5.82.65 17.47-.21" stroke="#D4EC9F" class="geometry color_Socialist"/><path fill="none" d="M33.2 68.66L39.02 73l5.82.83 5.82 40.68 5.82-84.61 5.82 29.4 5.82 14.29 5.82-6.89 5.82 5.18 5.82-17.87 5.82 24.71 5.82 13.89 5.83-11.91 5.82-20.79 5.82-5.53 5.82 11.95 5.82 1.96 5.82-5.45 5.82 12.86 5.82-.85 5.82-5.07 5.82-16.29 5.82 19.86 5.82 6.7 5.82-7.95 5.82 11.46 5.82-4.03 5.82-10.12 5.82 5.13 5.82-4.28 5.82 2.02 5.82-4.61 5.82-6.61 5.82 2.21" stroke="#ECA25C" class="geometry color_Democratic"/><path fill="none" d="M33.2 114.48l5.82-4.03 5.82 2.49 5.82 1.57 5.82-1.19 5.82-1.33 5.82.64 5.82-.22 5.82.03 5.82.98 5.82-.9 5.82 1.43 5.83-.77 5.82.54 5.82-1.74 5.82 1.82 5.82.32 5.82-.02 5.82-.35 5.82.07 5.82.23 5.82-.08 5.82-.18 5.82-2.07 5.82-.57 5.82.54 5.82 1.39 5.82-.23 5.82.98 5.82-2.49 5.82 1.57 5.82.32 5.82-.35 5.82-.83" stroke="#EEDBFF" class="geometry color_-"/><path fill="none" d="M33.2 63.45l5.82-2.97 5.82-.97 5.82 14.03 5.82 27.16 5.82-28.06 5.82-13.18 5.82 8.36 5.82 24.9 5.82-12.83 5.82-24.47 5.82 2.29 5.83-7.67 5.82 23.2 5.82 4.32 5.82-13.77 5.82-2.28 5.82 6.66 5.82-13.69 5.82.77 5.82 4.84 5.82 16.38 5.82-12.22 5.82-12.1 5.82 8.52 5.82-1.01 5.82-8.34 5.82 10.34 5.82 17.12 5.82-9.89 5.82-4.93 5.82-.94 5.82 6.96 5.82-1.37" stroke="#FE4365" class="geometry color_Republican"/></g></g></g><g class="guide ylabels" font-size="4.76" font-family="'PT Sans Caption','Helvetica Neue','Helvetica',sans-serif" fill="#A1A1A1" text-anchor="end"><text x="24.38" y="114.51" dy=".35em">0</text><text x="24.38" y="89.61" dy=".35em">25</text><text x="24.38" y="64.71" dy=".35em">50</text><text x="24.38" y="39.81" dy=".35em">75</text><text x="24.38" y="14.91" dy=".35em">100</text></g><text x="9.95" y="62.71" text-anchor="middle" dy=".35em" transform="rotate(-90 9.95 64.71)" font-size="6.35" font-family="'PT Sans','Helvetica Neue','Helvetica',sans-serif" fill="#A1A1A1" stroke="#000" stroke-opacity="0">Popular Vote (%)</text><text x="129.24" y="5" text-anchor="middle" dy=".6em" font-size="6.35" font-family="'PT Sans','Helvetica Neue','Helvetica',sans-serif" fill="#A1A1A1" stroke="#000" stroke-opacity="0">Colorado</text></g><defs><clipPath id="a"><path d="M25.38 12.91H233.1v103.6H25.38"/></clipPath><circle r=".9" id="b"/></defs></svg>