<svg xmlns="http://www.w3.org/2000/svg" xmlns:xlink="http://www.w3.org/1999/xlink" version="1.2" width="238.1mm" height="599.924" viewBox="0 0 238.1 158.73" stroke-width=".3" font-size="3.88"><path d="M0 0h238.1v158.73H0z" stroke="#000" stroke-opacity="0" fill="#222831"/><g class="plotroot xscalable yscalable"><g class="guide colorkey"><g class="color_Green"><text x="167.07" y="144.33" dy=".35em" fill="#A1A1A1" font-size="3.7" font-family="'PT Sans','Helvetica Neue','Helvetica',sans-serif">Green</text><path d="M163.85 143.22h2.22v2.22h-2.22z" fill="#FFD9C5" stroke="#000" stroke-opacity="0"/></g><g fill="#A1A1A1" font-size="3.7" font-family="'PT Sans','Helvetica Neue','Helvetica',sans-serif"><text x="142.81" y="144.33" dy=".35em" class="color_Independent">Independent</text><text x="142.81" y="148.78" dy=".35em" class="color_Reform">Reform</text></g><g stroke="#000" stroke-opacity="0"><path fill="#009DAD" class="color_Independent" d="M139.59 143.22h2.22v2.22h-2.22z"/><path fill="#AE8178" class="color_Reform" d="M139.59 147.66h2.22v2.22h-2.22z"/></g><g fill="#A1A1A1" font-size="3.7" font-family="'PT Sans','Helvetica Neue','Helvetica',sans-serif"><text x="116.87" y="144.33" dy=".35em" class="color_State's_Rights">State&amp;apos;s Rights</text><text x="116.87" y="148.78" dy=".35em" class="color_American_Ind.">American Ind.</text></g><g stroke="#000" stroke-opacity="0"><path fill="#9E7EC1" class="color_State's_Rights" d="M113.65 143.22h2.22v2.22h-2.22z"/><path fill="#7CB5FB" class="color_American_Ind." d="M113.65 147.66h2.22v2.22h-2.22z"/></g><g fill="#A1A1A1" font-size="3.7" font-family="'PT Sans','Helvetica Neue','Helvetica',sans-serif"><text x="94.43" y="144.33" dy=".35em" class="color_Socialist">Socialist</text><text x="94.43" y="148.78" dy=".35em" class="color_Progressive">Progressive</text></g><g stroke="#000" stroke-opacity="0"><path fill="#D4EC9F" class="color_Socialist" d="M91.21 143.22h2.22v2.22h-2.22z"/><path fill="#7E674B" class="color_Progressive" d="M91.21 147.66h2.22v2.22h-2.22z"/></g><g fill="#A1A1A1" font-size="3.7" font-family="'PT Sans','Helvetica Neue','Helvetica',sans-serif"><text x="72.63" y="144.33" dy=".35em" class="color_Prohibition">Prohibition</text><text x="72.63" y="148.78" dy=".35em" class="color_Populist">Populist</text></g><g stroke="#000" stroke-opacity="0"><path fill="#236EAD" class="color_Prohibition" d="M69.41 143.22h2.22v2.22h-2.22z"/><path fill="#60F6FF" class="color_Populist" d="M69.41 147.66h2.22v2.22h-2.22z"/></g><g fill="#A1A1A1" font-size="3.7" font-family="'PT Sans','Helvetica Neue','Helvetica',sans-serif"><text x="51.81" y="144.33" dy=".35em" class="color_-">-</text><text x="51.81" y="148.78" dy=".35em" class="color_Greenback">Greenback</text></g><g stroke="#000" stroke-opacity="0"><path fill="#3F9778" class="color_-" d="M48.59 143.22h2.22v2.22h-2.22z"/><path fill="#EEDBFF" class="color_Greenback" d="M48.59 147.66h2.22v2.22h-2.22z"/></g><g fill="#A1A1A1" font-size="3.7" font-family="'PT Sans','Helvetica Neue','Helvetica',sans-serif"><text x="29.6" y="144.33" dy=".35em" class="color_Republican">Republican</text><text x="29.6" y="148.78" dy=".35em" class="color_Democratic">Democratic</text></g><g stroke="#000" stroke-opacity="0"><path fill="#FE4365" class="color_Republican" d="M26.38 143.22h2.22v2.22h-2.22z"/><path fill="#ECA25C" class="color_Democratic" d="M26.38 147.66h2.22v2.22h-2.22z"/></g><text x="26.38" y="140.84" fill="#FFF" font-size="6.35" font-family="'PT Sans','Helvetica Neue','Helvetica',sans-serif" stroke="#000" stroke-opacity="0">Party</text></g><text x="129.24" y="126.02" text-anchor="middle" dy=".6em" font-size="6.35" font-family="'PT Sans','Helvetica Neue','Helvetica',sans-serif" fill="#A1A1A1" stroke="#000" stroke-opacity="0">Year</text><g class="guide xlabels" font-size="4.76" font-family="'PT Sans Caption','Helvetica Neue','Helvetica',sans-serif" fill="#A1A1A1" text-anchor="end"><text x="27.38" y="110.72" dy=".35em" transform="rotate(-90 27.38 110.72)">1860</text><text x="37.83" y="110.72" dy=".35em" transform="rotate(-90 37.83 110.72)">1868</text><text x="48.27" y="110.72" dy=".35em" transform="rotate(-90 48.27 110.72)">1876</text><text x="58.72" y="110.72" dy=".35em" transform="rotate(-90 58.72 110.72)">1884</text><text x="69.17" y="110.72" dy=".35em" transform="rotate(-90 69.17 110.72)">1892</text><text x="79.61" y="110.72" dy=".35em" transform="rotate(-90 79.61 110.72)">1900</text><text x="90.06" y="110.72" dy=".35em" transform="rotate(-90 90.06 110.72)">1908</text><text x="100.51" y="110.72" dy=".35em" transform="rotate(-90 100.51 110.72)">1916</text><text x="110.96" y="110.72" dy=".35em" transform="rotate(-90 110.96 110.72)">1924</text><text x="121.4" y="110.72" dy=".35em" transform="rotate(-90 121.4 110.72)">1932</text><text x="131.85" y="110.72" dy=".35em" transform="rotate(-90 131.85 110.72)">1940</text><text x="142.3" y="110.72" dy=".35em" transform="rotate(-90 142.3 110.72)">1948</text><text x="152.74" y="110.72" dy=".35em" transform="rotate(-90 152.74 110.72)">1956</text><text x="163.19" y="110.72" dy=".35em" transform="rotate(-90 163.19 110.72)">1964</text><text x="173.64" y="110.72" dy=".35em" transform="rotate(-90 173.64 110.72)">1972</text><text x="184.08" y="110.72" dy=".35em" transform="rotate(-90 184.08 110.72)">1980</text><text x="194.53" y="110.72" dy=".35em" transform="rotate(-90 194.53 110.72)">1988</text><text x="204.98" y="110.72" dy=".35em" transform="rotate(-90 204.98 110.72)">1996</text><text x="215.42" y="110.72" dy=".35em" transform="rotate(-90 215.42 110.72)">2004</text><text x="225.87" y="110.72" dy=".35em" transform="rotate(-90 225.87 110.72)">2012</text></g><g clip-path="url(#a)"><path d="M25.38 12.91H233.1v96.81H25.38z" pointer-events="visible" fill="#222831" stroke="#000" stroke-opacity="0" class="guide background"/><g class="guide ygridlines xfixed" stroke-dasharray="0.5,0.5" stroke-width=".2" stroke="#575757" fill="none"><path d="M25.38 107.72H233.1M25.38 84.52H233.1M25.38 61.32H233.1M25.38 38.11H233.1M25.38 14.91H233.1"/></g><g class="guide xgridlines yfixed" stroke-dasharray="0.5,0.5" stroke-width=".2" stroke="#575757" fill="none"><path d="M27.38 12.91v96.81M37.83 12.91v96.81M48.27 12.91v96.81M58.72 12.91v96.81M69.17 12.91v96.81M79.61 12.91v96.81M90.06 12.91v96.81M100.51 12.91v96.81M110.96 12.91v96.81M121.4 12.91v96.81M131.85 12.91v96.81M142.3 12.91v96.81M152.74 12.91v96.81M163.19 12.91v96.81M173.64 12.91v96.81M184.08 12.91v96.81M194.53 12.91v96.81M204.98 12.91v96.81M215.42 12.91v96.81M225.87 12.91v96.81"/></g><g class="plotpanel"><g class="geometry"><use xlink:href="#b" x="32.6" y="52.18" stroke="#B58486" fill="#FE4365" class="color_Republican"/><use xlink:href="#b" x="32.6" y="70.45" stroke="#AA8B71" fill="#ECA25C" class="color_Democratic"/><use xlink:href="#b" x="32.6" y="107.72" stroke="#6D9A87" fill="#3F9778" class="color_-"/><use xlink:href="#b" x="37.83" y="56.31" stroke="#B58486" fill="#FE4365" class="color_Republican"/><use xlink:href="#b" x="37.83" y="66.32" stroke="#AA8B71" fill="#ECA25C" class="color_Democratic"/><use xlink:href="#b" x="37.83" y="107.72" stroke="#6D9A87" fill="#3F9778" class="color_-"/><use xlink:href="#b" x="43.05" y="54.42" stroke="#B58486" fill="#FE4365" class="color_Republican"/><use xlink:href="#b" x="43.05" y="68.21" stroke="#AA8B71" fill="#ECA25C" class="color_Democratic"/><use xlink:href="#b" x="43.05" y="107.72" stroke="#6D9A87" fill="#3F9778" class="color_-"/><use xlink:href="#b" x="48.27" y="63.85" stroke="#AA8B71" fill="#ECA25C" class="color_Democratic"/><use xlink:href="#b" x="48.27" y="58.78" stroke="#B58486" fill="#FE4365" class="color_Republican"/><use xlink:href="#b" x="48.27" y="107.72" stroke="#6D9A87" fill="#3F9778" class="color_-"/><use xlink:href="#b" x="53.5" y="63.55" stroke="#B58486" fill="#FE4365" class="color_Republican"/><use xlink:href="#b" x="53.5" y="59.09" stroke="#AA8B71" fill="#ECA25C" class="color_Democratic"/><use xlink:href="#b" x="53.5" y="107.72" stroke="#9B8AAB" fill="#EEDBFF" class="color_Greenback"/><use xlink:href="#b" x="53.5" y="107.72" stroke="#6D9A87" fill="#3F9778" class="color_-"/><use xlink:href="#b" x="58.72" y="67.27" stroke="#AA8B71" fill="#ECA25C" class="color_Democratic"/><use xlink:href="#b" x="58.72" y="55.55" stroke="#B58486" fill="#FE4365" class="color_Republican"/><use xlink:href="#b" x="58.72" y="107.54" stroke="#6D9A87" fill="#3F9778" class="color_-"/><use xlink:href="#b" x="63.94" y="68.8" stroke="#AA8B71" fill="#ECA25C" class="color_Democratic"/><use xlink:href="#b" x="63.94" y="54.14" stroke="#B58486" fill="#FE4365" class="color_Republican"/><use xlink:href="#b" x="63.94" y="107.41" stroke="#7C92B3" fill="#236EAD" class="color_Prohibition"/><use xlink:href="#b" x="63.94" y="107.72" stroke="#6D9A87" fill="#3F9778" class="color_-"/><use xlink:href="#b" x="69.17" y="101.63" stroke="#AA8B71" fill="#ECA25C" class="color_Democratic"/><use xlink:href="#b" x="69.17" y="83.74" stroke="#B58486" fill="#FE4365" class="color_Republican"/><use xlink:href="#b" x="69.17" y="45.75" stroke="#5F9A9E" fill="#60F6FF" class="color_Populist"/><use xlink:href="#b" x="69.17" y="106.96" stroke="#7C92B3" fill="#236EAD" class="color_Prohibition"/><use xlink:href="#b" x="69.17" y="107.72" stroke="#6D9A87" fill="#3F9778" class="color_-"/><use xlink:href="#b" x="74.39" y="90.28" stroke="#B58486" fill="#FE4365" class="color_Republican"/><use xlink:href="#b" x="74.39" y="32.35" stroke="#AA8B71" fill="#ECA25C" class="color_Democratic"/><use xlink:href="#b" x="74.39" y="107.72" stroke="#6D9A87" fill="#3F9778" class="color_-"/><use xlink:href="#b" x="79.61" y="72.69" stroke="#B58486" fill="#FE4365" class="color_Republican"/><use xlink:href="#b" x="79.61" y="49.95" stroke="#AA8B71" fill="#ECA25C" class="color_Democratic"/><use xlink:href="#b" x="79.61" y="107.72" stroke="#6D9A87" fill="#3F9778" class="color_-"/><use xlink:href="#b" x="84.84" y="55.14" stroke="#B58486" fill="#FE4365" class="color_Republican"/><use xlink:href="#b" x="84.84" y="77.22" stroke="#AA8B71" fill="#ECA25C" class="color_Democratic"/><use xlink:href="#b" x="84.84" y="100.64" stroke="#8B9572" fill="#D4EC9F" class="color_Socialist"/><use xlink:href="#b" x="84.84" y="105.09" stroke="#6D9A87" fill="#3F9778" class="color_-"/><use xlink:href="#b" x="90.06" y="66.95" stroke="#B58486" fill="#FE4365" class="color_Republican"/><use xlink:href="#b" x="90.06" y="65.29" stroke="#AA8B71" fill="#ECA25C" class="color_Democratic"/><use xlink:href="#b" x="90.06" y="99.77" stroke="#8B9572" fill="#D4EC9F" class="color_Socialist"/><use xlink:href="#b" x="90.06" y="106.07" stroke="#6D9A87" fill="#3F9778" class="color_-"/><use xlink:href="#b" x="95.28" y="70.87" stroke="#AA8B71" fill="#ECA25C" class="color_Democratic"/><use xlink:href="#b" x="95.28" y="81.79" stroke="#A68D6F" fill="#7E674B" class="color_Progressive"/><use xlink:href="#b" x="95.28" y="92.98" stroke="#B58486" fill="#FE4365" class="color_Republican"/><use xlink:href="#b" x="95.28" y="92.44" stroke="#8B9572" fill="#D4EC9F" class="color_Socialist"/><use xlink:href="#b" x="95.28" y="107.72" stroke="#6D9A87" fill="#3F9778" class="color_-"/><use xlink:href="#b" x="100.51" y="58.2" stroke="#AA8B71" fill="#ECA25C" class="color_Democratic"/><use xlink:href="#b" x="100.51" y="73.94" stroke="#B58486" fill="#FE4365" class="color_Republican"/><use xlink:href="#b" x="100.51" y="99.19" stroke="#8B9572" fill="#D4EC9F" class="color_Socialist"/><use xlink:href="#b" x="100.51" y="106.75" stroke="#6D9A87" fill="#3F9778" class="color_-"/><use xlink:href="#b" x="105.73" y="54.89" stroke="#B58486" fill="#FE4365" class="color_Republican"/><use xlink:href="#b" x="105.73" y="74.1" stroke="#AA8B71" fill="#ECA25C" class="color_Democratic"/><use xlink:href="#b" x="105.73" y="101.36" stroke="#8B9572" fill="#D4EC9F" class="color_Socialist"/><use xlink:href="#b" x="105.73" y="107.72" stroke="#6D9A87" fill="#3F9778" class="color_-"/><use xlink:href="#b" x="110.96" y="68.96" stroke="#B58486" fill="#FE4365" class="color_Republican"/><use xlink:href="#b" x="110.96" y="87.35" stroke="#AA8B71" fill="#ECA25C" class="color_Democratic"/><use xlink:href="#b" x="110.96" y="74.04" stroke="#A68D6F" fill="#7E674B" class="color_Progressive"/><use xlink:href="#b" x="110.96" y="107.72" stroke="#6D9A87" fill="#3F9778" class="color_-"/><use xlink:href="#b" x="116.18" y="55.25" stroke="#B58486" fill="#FE4365" class="color_Republican"/><use xlink:href="#b" x="116.18" y="67.38" stroke="#AA8B71" fill="#ECA25C" class="color_Democratic"/><use xlink:href="#b" x="116.18" y="107.72" stroke="#6D9A87" fill="#3F9778" class="color_-"/><use xlink:href="#b" x="121.4" y="43.3" stroke="#AA8B71" fill="#ECA25C" class="color_Democratic"/><use xlink:href="#b" x="121.4" y="79.33" stroke="#B58486" fill="#FE4365" class="color_Republican"/><use xlink:href="#b" x="121.4" y="107.72" stroke="#8B9572" fill="#D4EC9F" class="color_Socialist"/><use xlink:href="#b" x="121.4" y="107.72" stroke="#6D9A87" fill="#3F9778" class="color_-"/><use xlink:href="#b" x="126.63" y="40.15" stroke="#AA8B71" fill="#ECA25C" class="color_Democratic"/><use xlink:href="#b" x="126.63" y="82.49" stroke="#B58486" fill="#FE4365" class="color_Republican"/><use xlink:href="#b" x="126.63" y="107.72" stroke="#6D9A87" fill="#3F9778" class="color_-"/><use xlink:href="#b" x="131.85" y="51.96" stroke="#AA8B71" fill="#ECA25C" class="color_Democratic"/><use xlink:href="#b" x="131.85" y="70.67" stroke="#B58486" fill="#FE4365" class="color_Republican"/><use xlink:href="#b" x="131.85" y="107.72" stroke="#6D9A87" fill="#3F9778" class="color_-"/><use xlink:href="#b" x="137.07" y="57.03" stroke="#AA8B71" fill="#ECA25C" class="color_Democratic"/><use xlink:href="#b" x="137.07" y="65.61" stroke="#B58486" fill="#FE4365" class="color_Republican"/><use xlink:href="#b" x="137.07" y="107.72" stroke="#6D9A87" fill="#3F9778" class="color_-"/><use xlink:href="#b" x="142.3" y="60.97" stroke="#AA8B71" fill="#ECA25C" class="color_Democratic"/><use xlink:href="#b" x="142.3" y="63.86" stroke="#B58486" fill="#FE4365" class="color_Republican"/><use xlink:href="#b" x="142.3" y="107.72" stroke="#9B8AAC" fill="#9E7EC1" class="color_State's_Rights"/><use xlink:href="#b" x="142.3" y="105.53" stroke="#A68D6F" fill="#7E674B" class="color_Progressive"/><use xlink:href="#b" x="142.3" y="107.72" stroke="#6D9A87" fill="#3F9778" class="color_-"/><use xlink:href="#b" x="147.52" y="50.69" stroke="#B58486" fill="#FE4365" class="color_Republican"/><use xlink:href="#b" x="147.52" y="71.94" stroke="#AA8B71" fill="#ECA25C" class="color_Democratic"/><use xlink:href="#b" x="147.52" y="107.72" stroke="#6D9A87" fill="#3F9778" class="color_-"/><use xlink:href="#b" x="152.74" y="53.92" stroke="#B58486" fill="#FE4365" class="color_Republican"/><use xlink:href="#b" x="152.74" y="68.71" stroke="#AA8B71" fill="#ECA25C" class="color_Democratic"/><use xlink:href="#b" x="152.74" y="107.72" stroke="#6D9A87" fill="#3F9778" class="color_-"/><use xlink:href="#b" x="157.97" y="60.24" stroke="#AA8B71" fill="#ECA25C" class="color_Democratic"/><use xlink:href="#b" x="157.97" y="62.4" stroke="#B58486" fill="#FE4365" class="color_Republican"/><use xlink:href="#b" x="157.97" y="107.72" stroke="#6D9A87" fill="#3F9778" class="color_-"/><use xlink:href="#b" x="163.19" y="53.35" stroke="#AA8B71" fill="#ECA25C" class="color_Democratic"/><use xlink:href="#b" x="163.19" y="69.28" stroke="#B58486" fill="#FE4365" class="color_Republican"/><use xlink:href="#b" x="163.19" y="107.72" stroke="#6D9A87" fill="#3F9778" class="color_-"/><use xlink:href="#b" x="168.41" y="63.68" stroke="#B58486" fill="#FE4365" class="color_Republican"/><use xlink:href="#b" x="168.41" y="71.25" stroke="#AA8B71" fill="#ECA25C" class="color_Democratic"/><use xlink:href="#b" x="168.41" y="95.43" stroke="#7C92B3" fill="#7CB5FB" class="color_American_Ind."/><use xlink:href="#b" x="168.41" y="107.72" stroke="#6D9A87" fill="#3F9778" class="color_-"/><use xlink:href="#b" x="173.64" y="48.62" stroke="#B58486" fill="#FE4365" class="color_Republican"/><use xlink:href="#b" x="173.64" y="74.01" stroke="#AA8B71" fill="#ECA25C" class="color_Democratic"/><use xlink:href="#b" x="173.64" y="107.72" stroke="#6D9A87" fill="#3F9778" class="color_-"/><use xlink:href="#b" x="178.86" y="65.21" stroke="#AA8B71" fill="#ECA25C" class="color_Democratic"/><use xlink:href="#b" x="178.86" y="61.16" stroke="#B58486" fill="#FE4365" class="color_Republican"/><use xlink:href="#b" x="178.86" y="103.99" stroke="#6D9A87" fill="#3F9778" class="color_-"/><use xlink:href="#b" x="184.08" y="49.68" stroke="#B58486" fill="#FE4365" class="color_Republican"/><use xlink:href="#b" x="184.08" y="82.76" stroke="#AA8B71" fill="#ECA25C" class="color_Democratic"/><use xlink:href="#b" x="184.08" y="101.11" stroke="#5F9AA3" fill="#009DAD" class="color_Independent"/><use xlink:href="#b" x="184.08" y="104.52" stroke="#6D9A87" fill="#3F9778" class="color_-"/><use xlink:href="#b" x="189.31" y="46.61" stroke="#B58486" fill="#FE4365" class="color_Republican"/><use xlink:href="#b" x="189.31" y="78.05" stroke="#AA8B71" fill="#ECA25C" class="color_Democratic"/><use xlink:href="#b" x="189.31" y="105.7" stroke="#6D9A87" fill="#3F9778" class="color_-"/><use xlink:href="#b" x="194.53" y="53.1" stroke="#B58486" fill="#FE4365" class="color_Republican"/><use xlink:href="#b" x="194.53" y="72.53" stroke="#AA8B71" fill="#ECA25C" class="color_Democratic"/><use xlink:href="#b" x="194.53" y="104.73" stroke="#6D9A87" fill="#3F9778" class="color_-"/><use xlink:href="#b" x="199.75" y="73.05" stroke="#AA8B71" fill="#ECA25C" class="color_Democratic"/><use xlink:href="#b" x="199.75" y="75.49" stroke="#B58486" fill="#FE4365" class="color_Republican"/><use xlink:href="#b" x="199.75" y="83.42" stroke="#5F9AA3" fill="#009DAD" class="color_Independent"/><use xlink:href="#b" x="199.75" y="106.12" stroke="#6D9A87" fill="#3F9778" class="color_-"/><use xlink:href="#b" x="204.98" y="66.95" stroke="#AA8B71" fill="#ECA25C" class="color_Democratic"/><use xlink:href="#b" x="204.98" y="67.89" stroke="#B58486" fill="#FE4365" class="color_Republican"/><use xlink:href="#b" x="204.98" y="98.93" stroke="#B3867D" fill="#AE8178" class="color_Reform"/><use xlink:href="#b" x="204.98" y="104.31" stroke="#6D9A87" fill="#3F9778" class="color_-"/><use xlink:href="#b" x="210.2" y="65.05" stroke="#AA8B71" fill="#ECA25C" class="color_Democratic"/><use xlink:href="#b" x="210.2" y="61.76" stroke="#B58486" fill="#FE4365" class="color_Republican"/><use xlink:href="#b" x="210.2" y="105.44" stroke="#AE8974" fill="#FFD9C5" class="color_Green"/><use xlink:href="#b" x="210.2" y="105.83" stroke="#6D9A87" fill="#3F9778" class="color_-"/><use xlink:href="#b" x="215.42" y="60.88" stroke="#B58486" fill="#FE4365" class="color_Republican"/><use xlink:href="#b" x="215.42" y="63.29" stroke="#AA8B71" fill="#ECA25C" class="color_Democratic"/><use xlink:href="#b" x="215.42" y="106.19" stroke="#6D9A87" fill="#3F9778" class="color_-"/><use xlink:href="#b" x="220.65" y="56.54" stroke="#AA8B71" fill="#ECA25C" class="color_Democratic"/><use xlink:href="#b" x="220.65" y="68.13" stroke="#B58486" fill="#FE4365" class="color_Republican"/><use xlink:href="#b" x="220.65" y="105.68" stroke="#6D9A87" fill="#3F9778" class="color_-"/><use xlink:href="#b" x="225.87" y="59.13" stroke="#AA8B71" fill="#ECA25C" class="color_Democratic"/><use xlink:href="#b" x="225.87" y="65.33" stroke="#B58486" fill="#FE4365" class="color_Republican"/><use xlink:href="#b" x="225.87" y="105.9" stroke="#6D9A87" fill="#3F9778" class="color_-"/></g><g fill-opacity="0"><path fill="none" d="M184.08 101.11l15.67-17.69" stroke="#009DAD" class="geometry color_Independent"/><path fill="none" d="M63.94 107.41l5.23-.45" stroke="#236EAD" class="geometry color_Prohibition"/><path fill="none" d="M32.6 107.72h20.9l5.22-.18 5.22.18H79.61l5.23-2.63 5.22.98 5.22 1.65 5.23-.97 5.22.97h67.91l5.22-3.73 5.22.53 5.23 1.18 5.22-.97 5.22 1.39 5.23-1.81 5.22 1.52 5.22.36 5.23-.51 5.22.22" stroke="#3F9778" class="geometry color_-"/><path fill="none" d="M95.28 81.79l15.68-7.75 31.34 31.49" stroke="#7E674B" class="geometry color_Progressive"/><path fill="none" d="M84.84 100.64l5.22-.87 5.22-7.33 5.23 6.75 5.22 2.17 15.67 6.36" stroke="#D4EC9F" class="geometry color_Socialist"/><path fill="none" d="M32.6 70.45l5.23-4.13 5.22 1.89 5.22-4.36 5.23-4.76 5.22 8.18 5.22 1.53 5.23 32.83 5.22-69.28 5.22 17.6 5.23 27.27 5.22-11.93 5.22 5.58 5.23-12.67 5.22 15.9 5.23 13.25 5.22-19.97 5.22-24.08 5.23-3.15 5.22 11.81 5.22 5.07 5.23 3.94 5.22 10.97 5.22-3.23 5.23-8.47 5.22-6.89 5.22 17.9 5.23 2.76 5.22-8.8 5.22 17.55 5.23-4.71 5.22-5.52 5.22.52 5.23-6.1 5.22-1.9 5.22-1.76 5.23-6.75 5.22 2.59" stroke="#ECA25C" class="geometry color_Democratic"/><path fill="none" d="M32.6 52.18l5.23 4.13 5.22-1.89 5.22 4.36 5.23 4.77 5.22-8 5.22-1.41 5.23 29.6 5.22 6.54 5.22-17.59 5.23-17.55 5.22 11.81 5.22 26.03 5.23-19.04 5.22-19.05 5.23 14.07 5.22-13.71 5.22 24.08 5.23 3.16 5.22-11.82 5.22-5.06 5.23-1.75 5.22-13.17 5.22 3.23 5.23 8.48 5.22 6.88 5.22-5.6 5.23-15.06 5.22 12.54 5.22-11.48 5.23-3.07 5.22 6.49 5.22 22.39 5.23-7.6 5.22-6.13 5.22-.88 5.23 7.25 5.22-2.8" stroke="#FE4365" class="geometry color_Republican"/></g></g></g><g class="guide ylabels" font-size="4.76" font-family="'PT Sans Caption','Helvetica Neue','Helvetica',sans-serif" fill="#A1A1A1" text-anchor="end"><text x="24.38" y="107.72" dy=".35em">0</text><text x="24.38" y="84.52" dy=".35em">25</text><text x="24.38" y="61.32" dy=".35em">50</text><text x="24.38" y="38.11" dy=".35em">75</text><text x="24.38" y="14.91" dy=".35em">100</text></g><text x="9.95" y="59.32" text-anchor="middle" dy=".35em" transform="rotate(-90 9.95 61.32)" font-size="6.35" font-family="'PT Sans','Helvetica Neue','Helvetica',sans-serif" fill="#A1A1A1" stroke="#000" stroke-opacity="0">Popular Vote (%)</text><text x="129.24" y="5" text-anchor="middle" dy=".6em" font-size="6.35" font-family="'PT Sans','Helvetica Neue','Helvetica',sans-serif" fill="#A1A1A1" stroke="#000" stroke-opacity="0">Nevada</text></g><defs><clipPath id="a"><path d="M25.38 12.91H233.1v96.81H25.38"/></clipPath><circle r=".9" id="b"/></defs></svg>