<svg xmlns="http://www.w3.org/2000/svg" xmlns:xlink="http://www.w3.org/1999/xlink" version="1.2" width="238.1mm" height="599.924" viewBox="0 0 238.1 158.73" stroke-width=".3" font-size="3.88"><path d="M0 0h238.1v158.73H0z" stroke="#000" stroke-opacity="0" fill="#222831"/><g class="plotroot xscalable yscalable"><g class="guide colorkey"><g fill="#A1A1A1" font-size="3.7" font-family="'PT Sans','Helvetica Neue','Helvetica',sans-serif"><text x="121.12" y="144.33" dy=".35em" class="color_Reform">Reform</text><text x="121.12" y="148.78" dy=".35em" class="color_Green">Green</text></g><g stroke="#000" stroke-opacity="0"><path fill="#9E7EC1" class="color_Reform" d="M117.89 143.22h2.22v2.22h-2.22z"/><path fill="#7CB5FB" class="color_Green" d="M117.89 147.66h2.22v2.22h-2.22z"/></g><g fill="#A1A1A1" font-size="3.7" font-family="'PT Sans','Helvetica Neue','Helvetica',sans-serif"><text x="95.18" y="144.33" dy=".35em" class="color_American_Ind.">American Ind.</text><text x="95.18" y="148.78" dy=".35em" class="color_Independent">Independent</text></g><g stroke="#000" stroke-opacity="0"><path fill="#D4EC9F" class="color_American_Ind." d="M91.95 143.22h2.22v2.22h-2.22z"/><path fill="#7E674B" class="color_Independent" d="M91.95 147.66h2.22v2.22h-2.22z"/></g><g fill="#A1A1A1" font-size="3.7" font-family="'PT Sans','Helvetica Neue','Helvetica',sans-serif"><text x="69.38" y="144.33" dy=".35em" class="color_Progressive">Progressive</text><text x="69.38" y="148.78" dy=".35em" class="color_State's_Rights">State&amp;apos;s Rights</text></g><g stroke="#000" stroke-opacity="0"><path fill="#236EAD" class="color_Progressive" d="M66.16 143.22h2.22v2.22h-2.22z"/><path fill="#60F6FF" class="color_State's_Rights" d="M66.16 147.66h2.22v2.22h-2.22z"/></g><g fill="#A1A1A1" font-size="3.7" font-family="'PT Sans','Helvetica Neue','Helvetica',sans-serif"><text x="51.81" y="144.33" dy=".35em" class="color_-">-</text><text x="51.81" y="148.78" dy=".35em" class="color_Socialist">Socialist</text></g><g stroke="#000" stroke-opacity="0"><path fill="#3F9778" class="color_-" d="M48.59 143.22h2.22v2.22h-2.22z"/><path fill="#EEDBFF" class="color_Socialist" d="M48.59 147.66h2.22v2.22h-2.22z"/></g><g fill="#A1A1A1" font-size="3.7" font-family="'PT Sans','Helvetica Neue','Helvetica',sans-serif"><text x="29.6" y="144.33" dy=".35em" class="color_Republican">Republican</text><text x="29.6" y="148.78" dy=".35em" class="color_Democratic">Democratic</text></g><g stroke="#000" stroke-opacity="0"><path fill="#FE4365" class="color_Republican" d="M26.38 143.22h2.22v2.22h-2.22z"/><path fill="#ECA25C" class="color_Democratic" d="M26.38 147.66h2.22v2.22h-2.22z"/></g><text x="26.38" y="140.84" fill="#FFF" font-size="6.35" font-family="'PT Sans','Helvetica Neue','Helvetica',sans-serif" stroke="#000" stroke-opacity="0">Party</text></g><text x="129.24" y="126.02" text-anchor="middle" dy=".6em" font-size="6.35" font-family="'PT Sans','Helvetica Neue','Helvetica',sans-serif" fill="#A1A1A1" stroke="#000" stroke-opacity="0">Year</text><g class="guide xlabels" font-size="4.76" font-family="'PT Sans Caption','Helvetica Neue','Helvetica',sans-serif" fill="#A1A1A1" text-anchor="middle"><text x="27.38" y="117.51" dy=".6em">1892</text><text x="40.52" y="117.51" dy=".6em">1900</text><text x="53.67" y="117.51" dy=".6em">1908</text><text x="66.81" y="117.51" dy=".6em">1916</text><text x="79.95" y="117.51" dy=".6em">1924</text><text x="93.09" y="117.51" dy=".6em">1932</text><text x="106.24" y="117.51" dy=".6em">1940</text><text x="119.38" y="117.51" dy=".6em">1948</text><text x="132.52" y="117.51" dy=".6em">1956</text><text x="145.67" y="117.51" dy=".6em">1964</text><text x="158.81" y="117.51" dy=".6em">1972</text><text x="171.95" y="117.51" dy=".6em">1980</text><text x="185.09" y="117.51" dy=".6em">1988</text><text x="198.24" y="117.51" dy=".6em">1996</text><text x="211.38" y="117.51" dy=".6em">2004</text><text x="224.52" y="117.51" dy=".6em">2012</text></g><g clip-path="url(#a)"><path d="M25.38 12.91H233.1v103.6H25.38z" pointer-events="visible" fill="#222831" stroke="#000" stroke-opacity="0" class="guide background"/><g class="guide ygridlines xfixed" stroke-dasharray="0.5,0.5" stroke-width=".2" stroke="#575757" fill="none"><path d="M25.38 114.51H233.1M25.38 89.61H233.1M25.38 64.71H233.1M25.38 39.81H233.1M25.38 14.91H233.1"/></g><g class="guide xgridlines yfixed" stroke-dasharray="0.5,0.5" stroke-width=".2" stroke="#575757" fill="none"><path d="M27.38 12.91v103.6M40.52 12.91v103.6M53.67 12.91v103.6M66.81 12.91v103.6M79.95 12.91v103.6M93.09 12.91v103.6M106.24 12.91v103.6M119.38 12.91v103.6M132.52 12.91v103.6M145.67 12.91v103.6M158.81 12.91v103.6M171.95 12.91v103.6M185.09 12.91v103.6M198.24 12.91v103.6M211.38 12.91v103.6M224.52 12.91v103.6"/></g><g class="plotpanel"><g class="geometry"><use xlink:href="#b" x="33.95" y="97.31" stroke="#B58486" fill="#FE4365" class="color_Republican"/><use xlink:href="#b" x="33.95" y="32.14" stroke="#AA8B71" fill="#ECA25C" class="color_Democratic"/><use xlink:href="#b" x="33.95" y="114.48" stroke="#6D9A87" fill="#3F9778" class="color_-"/><use xlink:href="#b" x="40.52" y="64.13" stroke="#B58486" fill="#FE4365" class="color_Republican"/><use xlink:href="#b" x="40.52" y="66.41" stroke="#AA8B71" fill="#ECA25C" class="color_Democratic"/><use xlink:href="#b" x="40.52" y="113.39" stroke="#6D9A87" fill="#3F9778" class="color_-"/><use xlink:href="#b" x="47.09" y="53.33" stroke="#B58486" fill="#FE4365" class="color_Republican"/><use xlink:href="#b" x="47.09" y="81.78" stroke="#AA8B71" fill="#ECA25C" class="color_Democratic"/><use xlink:href="#b" x="47.09" y="108.86" stroke="#9B8AAB" fill="#EEDBFF" class="color_Socialist"/><use xlink:href="#b" x="47.09" y="114.46" stroke="#6D9A87" fill="#3F9778" class="color_-"/><use xlink:href="#b" x="53.67" y="58.54" stroke="#B58486" fill="#FE4365" class="color_Republican"/><use xlink:href="#b" x="53.67" y="75.44" stroke="#AA8B71" fill="#ECA25C" class="color_Democratic"/><use xlink:href="#b" x="53.67" y="110.02" stroke="#9B8AAB" fill="#EEDBFF" class="color_Socialist"/><use xlink:href="#b" x="53.67" y="114.43" stroke="#6D9A87" fill="#3F9778" class="color_-"/><use xlink:href="#b" x="60.24" y="82.09" stroke="#AA8B71" fill="#ECA25C" class="color_Democratic"/><use xlink:href="#b" x="60.24" y="93.08" stroke="#7C92B3" fill="#236EAD" class="color_Progressive"/><use xlink:href="#b" x="60.24" y="77.2" stroke="#B58486" fill="#FE4365" class="color_Republican"/><use xlink:href="#b" x="60.24" y="106.51" stroke="#9B8AAB" fill="#EEDBFF" class="color_Socialist"/><use xlink:href="#b" x="60.24" y="114.05" stroke="#6D9A87" fill="#3F9778" class="color_-"/><use xlink:href="#b" x="66.81" y="55.96" stroke="#AA8B71" fill="#ECA25C" class="color_Democratic"/><use xlink:href="#b" x="66.81" y="76.84" stroke="#B58486" fill="#FE4365" class="color_Republican"/><use xlink:href="#b" x="66.81" y="111.4" stroke="#9B8AAB" fill="#EEDBFF" class="color_Socialist"/><use xlink:href="#b" x="66.81" y="114.23" stroke="#6D9A87" fill="#3F9778" class="color_-"/><use xlink:href="#b" x="73.38" y="58.81" stroke="#B58486" fill="#FE4365" class="color_Republican"/><use xlink:href="#b" x="73.38" y="75.82" stroke="#AA8B71" fill="#ECA25C" class="color_Democratic"/><use xlink:href="#b" x="73.38" y="112.35" stroke="#9B8AAB" fill="#EEDBFF" class="color_Socialist"/><use xlink:href="#b" x="73.38" y="111.45" stroke="#6D9A87" fill="#3F9778" class="color_-"/><use xlink:href="#b" x="79.95" y="65.45" stroke="#B58486" fill="#FE4365" class="color_Republican"/><use xlink:href="#b" x="79.95" y="84.69" stroke="#AA8B71" fill="#ECA25C" class="color_Democratic"/><use xlink:href="#b" x="79.95" y="93.79" stroke="#7C92B3" fill="#236EAD" class="color_Progressive"/><use xlink:href="#b" x="79.95" y="114.51" stroke="#6D9A87" fill="#3F9778" class="color_-"/><use xlink:href="#b" x="86.52" y="61.15" stroke="#B58486" fill="#FE4365" class="color_Republican"/><use xlink:href="#b" x="86.52" y="68.83" stroke="#AA8B71" fill="#ECA25C" class="color_Democratic"/><use xlink:href="#b" x="86.52" y="113.94" stroke="#6D9A87" fill="#3F9778" class="color_-"/><use xlink:href="#b" x="93.09" y="58.22" stroke="#AA8B71" fill="#ECA25C" class="color_Democratic"/><use xlink:href="#b" x="93.09" y="73.62" stroke="#B58486" fill="#FE4365" class="color_Republican"/><use xlink:href="#b" x="93.09" y="112.54" stroke="#9B8AAB" fill="#EEDBFF" class="color_Socialist"/><use xlink:href="#b" x="93.09" y="114.05" stroke="#6D9A87" fill="#3F9778" class="color_-"/><use xlink:href="#b" x="99.67" y="45.44" stroke="#AA8B71" fill="#ECA25C" class="color_Democratic"/><use xlink:href="#b" x="99.67" y="84.83" stroke="#B58486" fill="#FE4365" class="color_Republican"/><use xlink:href="#b" x="99.67" y="113.64" stroke="#6D9A87" fill="#3F9778" class="color_-"/><use xlink:href="#b" x="106.24" y="52.5" stroke="#AA8B71" fill="#ECA25C" class="color_Democratic"/><use xlink:href="#b" x="106.24" y="77.07" stroke="#B58486" fill="#FE4365" class="color_Republican"/><use xlink:href="#b" x="106.24" y="114.35" stroke="#6D9A87" fill="#3F9778" class="color_-"/><use xlink:href="#b" x="112.81" y="54.31" stroke="#AA8B71" fill="#ECA25C" class="color_Democratic"/><use xlink:href="#b" x="112.81" y="75.24" stroke="#B58486" fill="#FE4365" class="color_Republican"/><use xlink:href="#b" x="112.81" y="114.37" stroke="#6D9A87" fill="#3F9778" class="color_-"/><use xlink:href="#b" x="119.38" y="60.74" stroke="#AA8B71" fill="#ECA25C" class="color_Democratic"/><use xlink:href="#b" x="119.38" y="69.66" stroke="#B58486" fill="#FE4365" class="color_Republican"/><use xlink:href="#b" x="119.38" y="114.51" stroke="#5F9A9E" fill="#60F6FF" class="color_State's_Rights"/><use xlink:href="#b" x="119.38" y="113.54" stroke="#7C92B3" fill="#236EAD" class="color_Progressive"/><use xlink:href="#b" x="119.38" y="114.48" stroke="#6D9A87" fill="#3F9778" class="color_-"/><use xlink:href="#b" x="125.95" y="55.82" stroke="#B58486" fill="#FE4365" class="color_Republican"/><use xlink:href="#b" x="125.95" y="73.6" stroke="#AA8B71" fill="#ECA25C" class="color_Democratic"/><use xlink:href="#b" x="125.95" y="114.51" stroke="#6D9A87" fill="#3F9778" class="color_-"/><use xlink:href="#b" x="132.52" y="50.21" stroke="#B58486" fill="#FE4365" class="color_Republican"/><use xlink:href="#b" x="132.52" y="79.21" stroke="#AA8B71" fill="#ECA25C" class="color_Democratic"/><use xlink:href="#b" x="132.52" y="114.51" stroke="#6D9A87" fill="#3F9778" class="color_-"/><use xlink:href="#b" x="139.09" y="69.52" stroke="#AA8B71" fill="#ECA25C" class="color_Democratic"/><use xlink:href="#b" x="139.09" y="59.92" stroke="#B58486" fill="#FE4365" class="color_Republican"/><use xlink:href="#b" x="139.09" y="114.48" stroke="#6D9A87" fill="#3F9778" class="color_-"/><use xlink:href="#b" x="145.67" y="59.86" stroke="#AA8B71" fill="#ECA25C" class="color_Democratic"/><use xlink:href="#b" x="145.67" y="69.55" stroke="#B58486" fill="#FE4365" class="color_Republican"/><use xlink:href="#b" x="145.67" y="114.51" stroke="#6D9A87" fill="#3F9778" class="color_-"/><use xlink:href="#b" x="152.24" y="58.24" stroke="#B58486" fill="#FE4365" class="color_Republican"/><use xlink:href="#b" x="152.24" y="77.58" stroke="#AA8B71" fill="#ECA25C" class="color_Democratic"/><use xlink:href="#b" x="152.24" y="108.17" stroke="#8B9572" fill="#D4EC9F" class="color_American_Ind."/><use xlink:href="#b" x="152.24" y="114.44" stroke="#6D9A87" fill="#3F9778" class="color_-"/><use xlink:href="#b" x="158.81" y="47.14" stroke="#B58486" fill="#FE4365" class="color_Republican"/><use xlink:href="#b" x="158.81" y="88.22" stroke="#AA8B71" fill="#ECA25C" class="color_Democratic"/><use xlink:href="#b" x="158.81" y="108.56" stroke="#6D9A87" fill="#3F9778" class="color_-"/><use xlink:href="#b" x="165.38" y="80.99" stroke="#AA8B71" fill="#ECA25C" class="color_Democratic"/><use xlink:href="#b" x="165.38" y="52.32" stroke="#B58486" fill="#FE4365" class="color_Republican"/><use xlink:href="#b" x="165.38" y="110.61" stroke="#6D9A87" fill="#3F9778" class="color_-"/><use xlink:href="#b" x="171.95" y="42.03" stroke="#B58486" fill="#FE4365" class="color_Republican"/><use xlink:href="#b" x="171.95" y="94.02" stroke="#AA8B71" fill="#ECA25C" class="color_Democratic"/><use xlink:href="#b" x="171.95" y="109.51" stroke="#A68D6F" fill="#7E674B" class="color_Independent"/><use xlink:href="#b" x="171.95" y="112.86" stroke="#6D9A87" fill="#3F9778" class="color_-"/><use xlink:href="#b" x="178.52" y="40.3" stroke="#B58486" fill="#FE4365" class="color_Republican"/><use xlink:href="#b" x="178.52" y="89.93" stroke="#AA8B71" fill="#ECA25C" class="color_Democratic"/><use xlink:href="#b" x="178.52" y="113.69" stroke="#6D9A87" fill="#3F9778" class="color_-"/><use xlink:href="#b" x="185.09" y="48.55" stroke="#B58486" fill="#FE4365" class="color_Republican"/><use xlink:href="#b" x="185.09" y="82.59" stroke="#AA8B71" fill="#ECA25C" class="color_Democratic"/><use xlink:href="#b" x="185.09" y="112.78" stroke="#6D9A87" fill="#3F9778" class="color_-"/><use xlink:href="#b" x="191.67" y="89.95" stroke="#AA8B71" fill="#ECA25C" class="color_Democratic"/><use xlink:href="#b" x="191.67" y="71.32" stroke="#B58486" fill="#FE4365" class="color_Republican"/><use xlink:href="#b" x="191.67" y="87.28" stroke="#A68D6F" fill="#7E674B" class="color_Independent"/><use xlink:href="#b" x="191.67" y="109.87" stroke="#6D9A87" fill="#3F9778" class="color_-"/><use xlink:href="#b" x="198.24" y="81.34" stroke="#AA8B71" fill="#ECA25C" class="color_Democratic"/><use xlink:href="#b" x="198.24" y="60.35" stroke="#B58486" fill="#FE4365" class="color_Republican"/><use xlink:href="#b" x="198.24" y="104.56" stroke="#9B8AAC" fill="#9E7EC1" class="color_Reform"/><use xlink:href="#b" x="198.24" y="112.17" stroke="#6D9A87" fill="#3F9778" class="color_-"/><use xlink:href="#b" x="204.81" y="88.27" stroke="#AA8B71" fill="#ECA25C" class="color_Democratic"/><use xlink:href="#b" x="204.81" y="47.95" stroke="#B58486" fill="#FE4365" class="color_Republican"/><use xlink:href="#b" x="204.81" y="109.87" stroke="#7C92B3" fill="#7CB5FB" class="color_Green"/><use xlink:href="#b" x="204.81" y="112.34" stroke="#6D9A87" fill="#3F9778" class="color_-"/><use xlink:href="#b" x="211.38" y="43.26" stroke="#B58486" fill="#FE4365" class="color_Republican"/><use xlink:href="#b" x="211.38" y="88.62" stroke="#AA8B71" fill="#ECA25C" class="color_Democratic"/><use xlink:href="#b" x="211.38" y="112.05" stroke="#6D9A87" fill="#3F9778" class="color_-"/><use xlink:href="#b" x="217.95" y="80.48" stroke="#AA8B71" fill="#ECA25C" class="color_Democratic"/><use xlink:href="#b" x="217.95" y="52.61" stroke="#B58486" fill="#FE4365" class="color_Republican"/><use xlink:href="#b" x="217.95" y="110.84" stroke="#6D9A87" fill="#3F9778" class="color_-"/><use xlink:href="#b" x="224.52" y="89.94" stroke="#AA8B71" fill="#ECA25C" class="color_Democratic"/><use xlink:href="#b" x="224.52" y="42.25" stroke="#B58486" fill="#FE4365" class="color_Republican"/><use xlink:href="#b" x="224.52" y="111.73" stroke="#6D9A87" fill="#3F9778" class="color_-"/></g><g fill-opacity="0"><path fill="none" d="M60.24 93.08l19.71.71 39.43 19.75" stroke="#236EAD" class="geometry color_Progressive"/><path fill="none" d="M33.95 114.48l6.57-1.09 6.57 1.07 6.58-.03 6.57-.38 6.57.18 6.57-2.78 6.57 3.06 6.57-.57 6.57.11 6.58-.41 6.57.71 6.57.02 6.57.11 6.57.03h6.57l6.57-.03 6.58.03 6.57-.07 6.57-5.88 6.57 2.05 6.57 2.25 6.57.83 6.57-.91 6.58-2.91 6.57 2.3 6.57.17 6.57-.29 6.57-1.21 6.57.89" stroke="#3F9778" class="geometry color_-"/><path fill="none" d="M171.95 109.51l19.72-22.23" stroke="#7E674B" class="geometry color_Independent"/><path fill="none" d="M33.95 32.14l6.57 34.27 6.57 15.37 6.58-6.34 6.57 6.65 6.57-26.13 6.57 19.86 6.57 8.87 6.57-15.86 6.57-10.61 6.58-12.78 6.57 7.06 6.57 1.81 6.57 6.43 6.57 12.86 6.57 5.61 6.57-9.69 6.58-9.66 6.57 17.72 6.57 10.64 6.57-7.23 6.57 13.03 6.57-4.09 6.57-7.34 6.58 7.36 6.57-8.61 6.57 6.93 6.57.35 6.57-8.14 6.57 9.46" stroke="#ECA25C" class="geometry color_Democratic"/><path fill="none" d="M47.09 108.86l6.58 1.16 6.57-3.51 6.57 4.89 6.57.95 19.71.19" stroke="#EEDBFF" class="geometry color_Socialist"/><path fill="none" d="M33.95 97.31l6.57-33.18 6.57-10.8 6.58 5.21 6.57 18.66 6.57-.36 6.57-18.03 6.57 6.64 6.57-4.3 6.57 12.47 6.58 11.21 6.57-7.76 6.57-1.83 6.57-5.58 6.57-13.84 6.57-5.61 6.57 9.71 6.58 9.63 6.57-11.31 6.57-11.1 6.57 5.18 6.57-10.29 6.57-1.73 6.57 8.25 6.58 22.77 6.57-10.97 6.57-12.4 6.57-4.69 6.57 9.35 6.57-10.36" stroke="#FE4365" class="geometry color_Republican"/></g></g></g><g class="guide ylabels" font-size="4.76" font-family="'PT Sans Caption','Helvetica Neue','Helvetica',sans-serif" fill="#A1A1A1" text-anchor="end"><text x="24.38" y="114.51" dy=".35em">0</text><text x="24.38" y="89.61" dy=".35em">25</text><text x="24.38" y="64.71" dy=".35em">50</text><text x="24.38" y="39.81" dy=".35em">75</text><text x="24.38" y="14.91" dy=".35em">100</text></g><text x="9.95" y="62.71" text-anchor="middle" dy=".35em" transform="rotate(-90 9.95 64.71)" font-size="6.35" font-family="'PT Sans','Helvetica Neue','Helvetica',sans-serif" fill="#A1A1A1" stroke="#000" stroke-opacity="0">Popular Vote (%)</text><text x="129.24" y="5" text-anchor="middle" dy=".6em" font-size="6.35" font-family="'PT Sans','Helvetica Neue','Helvetica',sans-serif" fill="#A1A1A1" stroke="#000" stroke-opacity="0">Utah</text></g><defs><clipPath id="a"><path d="M25.38 12.91H233.1v103.6H25.38"/></clipPath><circle r=".9" id="b"/></defs></svg>