<svg xmlns="http://www.w3.org/2000/svg" xmlns:xlink="http://www.w3.org/1999/xlink" version="1.2" width="238.1mm" height="599.924" viewBox="0 0 238.1 158.73" stroke-width=".3" font-size="3.88"><path d="M0 0h238.1v158.73H0z" stroke="#000" stroke-opacity="0" fill="#222831"/><g class="plotroot xscalable yscalable"><g class="guide colorkey"><g fill="#A1A1A1" font-size="3.7" font-family="'PT Sans','Helvetica Neue','Helvetica',sans-serif"><text x="142.92" y="144.33" dy=".35em" class="color_Reform">Reform</text><text x="142.92" y="148.78" dy=".35em" class="color_Green">Green</text></g><g stroke="#000" stroke-opacity="0"><path fill="#009DAD" class="color_Reform" d="M139.69 143.22h2.22v2.22h-2.22z"/><path fill="#AE8178" class="color_Green" d="M139.69 147.66h2.22v2.22h-2.22z"/></g><g fill="#A1A1A1" font-size="3.7" font-family="'PT Sans','Helvetica Neue','Helvetica',sans-serif"><text x="116.98" y="144.33" dy=".35em" class="color_American_Ind.">American Ind.</text><text x="116.98" y="148.78" dy=".35em" class="color_Independent">Independent</text></g><g stroke="#000" stroke-opacity="0"><path fill="#9E7EC1" class="color_American_Ind." d="M113.75 143.22h2.22v2.22h-2.22z"/><path fill="#7CB5FB" class="color_Independent" d="M113.75 147.66h2.22v2.22h-2.22z"/></g><g fill="#A1A1A1" font-size="3.7" font-family="'PT Sans','Helvetica Neue','Helvetica',sans-serif"><text x="91.18" y="144.33" dy=".35em" class="color_Progressive">Progressive</text><text x="91.18" y="148.78" dy=".35em" class="color_State's_Rights">State&amp;apos;s Rights</text></g><g stroke="#000" stroke-opacity="0"><path fill="#D4EC9F" class="color_Progressive" d="M87.96 143.22h2.22v2.22h-2.22z"/><path fill="#7E674B" class="color_State's_Rights" d="M87.96 147.66h2.22v2.22h-2.22z"/></g><g fill="#A1A1A1" font-size="3.7" font-family="'PT Sans','Helvetica Neue','Helvetica',sans-serif"><text x="73.61" y="144.33" dy=".35em" class="color_-">-</text><text x="73.61" y="148.78" dy=".35em" class="color_Socialist">Socialist</text></g><g stroke="#000" stroke-opacity="0"><path fill="#236EAD" class="color_-" d="M70.39 143.22h2.22v2.22h-2.22z"/><path fill="#60F6FF" class="color_Socialist" d="M70.39 147.66h2.22v2.22h-2.22z"/></g><g fill="#A1A1A1" font-size="3.7" font-family="'PT Sans','Helvetica Neue','Helvetica',sans-serif"><text x="51.81" y="144.33" dy=".35em" class="color_Populist">Populist</text><text x="51.81" y="148.78" dy=".35em" class="color_Prohibition">Prohibition</text></g><g stroke="#000" stroke-opacity="0"><path fill="#3F9778" class="color_Populist" d="M48.59 143.22h2.22v2.22h-2.22z"/><path fill="#EEDBFF" class="color_Prohibition" d="M48.59 147.66h2.22v2.22h-2.22z"/></g><g fill="#A1A1A1" font-size="3.7" font-family="'PT Sans','Helvetica Neue','Helvetica',sans-serif"><text x="29.6" y="144.33" dy=".35em" class="color_Democratic">Democratic</text><text x="29.6" y="148.78" dy=".35em" class="color_Republican">Republican</text></g><g stroke="#000" stroke-opacity="0"><path fill="#FE4365" class="color_Democratic" d="M26.38 143.22h2.22v2.22h-2.22z"/><path fill="#ECA25C" class="color_Republican" d="M26.38 147.66h2.22v2.22h-2.22z"/></g><text x="26.38" y="140.84" fill="#FFF" font-size="6.35" font-family="'PT Sans','Helvetica Neue','Helvetica',sans-serif" stroke="#000" stroke-opacity="0">Party</text></g><text x="129.24" y="126.02" text-anchor="middle" dy=".6em" font-size="6.35" font-family="'PT Sans','Helvetica Neue','Helvetica',sans-serif" fill="#A1A1A1" stroke="#000" stroke-opacity="0">Year</text><g class="guide xlabels" font-size="4.76" font-family="'PT Sans Caption','Helvetica Neue','Helvetica',sans-serif" fill="#A1A1A1" text-anchor="middle"><text x="27.38" y="117.51" dy=".6em">1888</text><text x="40.11" y="117.51" dy=".6em">1896</text><text x="52.84" y="117.51" dy=".6em">1904</text><text x="65.58" y="117.51" dy=".6em">1912</text><text x="78.31" y="117.51" dy=".6em">1920</text><text x="91.04" y="117.51" dy=".6em">1928</text><text x="103.77" y="117.51" dy=".6em">1936</text><text x="116.51" y="117.51" dy=".6em">1944</text><text x="129.24" y="117.51" dy=".6em">1952</text><text x="141.97" y="117.51" dy=".6em">1960</text><text x="154.7" y="117.51" dy=".6em">1968</text><text x="167.43" y="117.51" dy=".6em">1976</text><text x="180.17" y="117.51" dy=".6em">1984</text><text x="192.9" y="117.51" dy=".6em">1992</text><text x="205.63" y="117.51" dy=".6em">2000</text><text x="218.36" y="117.51" dy=".6em">2008</text><text x="231.1" y="117.51" dy=".6em">2016</text></g><g clip-path="url(#a)"><path d="M25.38 12.91H233.1v103.6H25.38z" pointer-events="visible" fill="#222831" stroke="#000" stroke-opacity="0" class="guide background"/><g class="guide ygridlines xfixed" stroke-dasharray="0.5,0.5" stroke-width=".2" stroke="#575757" fill="none"><path d="M25.38 114.51H233.1M25.38 89.61H233.1M25.38 64.71H233.1M25.38 39.81H233.1M25.38 14.91H233.1"/></g><g class="guide xgridlines yfixed" stroke-dasharray="0.5,0.5" stroke-width=".2" stroke="#575757" fill="none"><path d="M27.38 12.91v103.6M40.11 12.91v103.6M52.84 12.91v103.6M65.58 12.91v103.6M78.31 12.91v103.6M91.04 12.91v103.6M103.77 12.91v103.6M116.51 12.91v103.6M129.24 12.91v103.6M141.97 12.91v103.6M154.7 12.91v103.6M167.43 12.91v103.6M180.17 12.91v103.6M192.9 12.91v103.6M205.63 12.91v103.6M218.36 12.91v103.6M231.1 12.91v103.6"/></g><g class="plotpanel"><g class="geometry"><use xlink:href="#b" x="33.75" y="114.51" stroke="#B58486" fill="#FE4365" class="color_Democratic"/><use xlink:href="#b" x="33.75" y="64.19" stroke="#AA8B71" fill="#ECA25C" class="color_Republican"/><use xlink:href="#b" x="33.75" y="68.55" stroke="#6D9A87" fill="#3F9778" class="color_Populist"/><use xlink:href="#b" x="33.75" y="111.35" stroke="#9B8AAB" fill="#EEDBFF" class="color_Prohibition"/><use xlink:href="#b" x="33.75" y="114.33" stroke="#7C92B3" fill="#236EAD" class="color_-"/><use xlink:href="#b" x="40.11" y="66.95" stroke="#AA8B71" fill="#ECA25C" class="color_Republican"/><use xlink:href="#b" x="40.11" y="63.22" stroke="#B58486" fill="#FE4365" class="color_Democratic"/><use xlink:href="#b" x="40.11" y="113.76" stroke="#7C92B3" fill="#236EAD" class="color_-"/><use xlink:href="#b" x="46.48" y="56.08" stroke="#AA8B71" fill="#ECA25C" class="color_Republican"/><use xlink:href="#b" x="46.48" y="73.5" stroke="#B58486" fill="#FE4365" class="color_Democratic"/><use xlink:href="#b" x="46.48" y="114.34" stroke="#7C92B3" fill="#236EAD" class="color_-"/><use xlink:href="#b" x="52.84" y="48.05" stroke="#AA8B71" fill="#ECA25C" class="color_Republican"/><use xlink:href="#b" x="52.84" y="85.54" stroke="#B58486" fill="#FE4365" class="color_Democratic"/><use xlink:href="#b" x="52.84" y="111.03" stroke="#5F9A9E" fill="#60F6FF" class="color_Socialist"/><use xlink:href="#b" x="52.84" y="113.8" stroke="#7C92B3" fill="#236EAD" class="color_-"/><use xlink:href="#b" x="59.21" y="59.3" stroke="#AA8B71" fill="#ECA25C" class="color_Republican"/><use xlink:href="#b" x="59.21" y="75" stroke="#B58486" fill="#FE4365" class="color_Democratic"/><use xlink:href="#b" x="59.21" y="109.97" stroke="#5F9A9E" fill="#60F6FF" class="color_Socialist"/><use xlink:href="#b" x="59.21" y="114.16" stroke="#7C92B3" fill="#236EAD" class="color_-"/><use xlink:href="#b" x="65.58" y="78.46" stroke="#B58486" fill="#FE4365" class="color_Democratic"/><use xlink:href="#b" x="65.58" y="92.77" stroke="#8B9572" fill="#D4EC9F" class="color_Progressive"/><use xlink:href="#b" x="65.58" y="80.22" stroke="#AA8B71" fill="#ECA25C" class="color_Republican"/><use xlink:href="#b" x="65.58" y="108.01" stroke="#5F9A9E" fill="#60F6FF" class="color_Socialist"/><use xlink:href="#b" x="65.58" y="113.48" stroke="#7C92B3" fill="#236EAD" class="color_-"/><use xlink:href="#b" x="71.94" y="60.1" stroke="#B58486" fill="#FE4365" class="color_Democratic"/><use xlink:href="#b" x="71.94" y="72.82" stroke="#AA8B71" fill="#ECA25C" class="color_Republican"/><use xlink:href="#b" x="71.94" y="111.72" stroke="#5F9A9E" fill="#60F6FF" class="color_Socialist"/><use xlink:href="#b" x="71.94" y="113.79" stroke="#7C92B3" fill="#236EAD" class="color_-"/><use xlink:href="#b" x="78.31" y="50.61" stroke="#AA8B71" fill="#ECA25C" class="color_Republican"/><use xlink:href="#b" x="78.31" y="82.77" stroke="#B58486" fill="#FE4365" class="color_Democratic"/><use xlink:href="#b" x="78.31" y="114.51" stroke="#5F9A9E" fill="#60F6FF" class="color_Socialist"/><use xlink:href="#b" x="78.31" y="110.54" stroke="#7C92B3" fill="#236EAD" class="color_-"/><use xlink:href="#b" x="84.67" y="62.33" stroke="#AA8B71" fill="#ECA25C" class="color_Republican"/><use xlink:href="#b" x="84.67" y="98.47" stroke="#B58486" fill="#FE4365" class="color_Democratic"/><use xlink:href="#b" x="84.67" y="83.13" stroke="#8B9572" fill="#D4EC9F" class="color_Progressive"/><use xlink:href="#b" x="84.67" y="114.51" stroke="#7C92B3" fill="#236EAD" class="color_-"/><use xlink:href="#b" x="91.04" y="51.08" stroke="#AA8B71" fill="#ECA25C" class="color_Republican"/><use xlink:href="#b" x="91.04" y="79.28" stroke="#B58486" fill="#FE4365" class="color_Democratic"/><use xlink:href="#b" x="91.04" y="113.56" stroke="#7C92B3" fill="#236EAD" class="color_-"/><use xlink:href="#b" x="97.41" y="58.66" stroke="#B58486" fill="#FE4365" class="color_Democratic"/><use xlink:href="#b" x="97.41" y="73.85" stroke="#AA8B71" fill="#ECA25C" class="color_Republican"/><use xlink:href="#b" x="97.41" y="111.6" stroke="#5F9A9E" fill="#60F6FF" class="color_Socialist"/><use xlink:href="#b" x="97.41" y="114.32" stroke="#7C92B3" fill="#236EAD" class="color_-"/><use xlink:href="#b" x="103.77" y="54.18" stroke="#B58486" fill="#FE4365" class="color_Democratic"/><use xlink:href="#b" x="103.77" y="77.19" stroke="#AA8B71" fill="#ECA25C" class="color_Republican"/><use xlink:href="#b" x="103.77" y="112.56" stroke="#7C92B3" fill="#236EAD" class="color_-"/><use xlink:href="#b" x="110.14" y="61.9" stroke="#B58486" fill="#FE4365" class="color_Democratic"/><use xlink:href="#b" x="110.14" y="67.8" stroke="#AA8B71" fill="#ECA25C" class="color_Republican"/><use xlink:href="#b" x="110.14" y="114.22" stroke="#7C92B3" fill="#236EAD" class="color_-"/><use xlink:href="#b" x="116.51" y="65.94" stroke="#B58486" fill="#FE4365" class="color_Democratic"/><use xlink:href="#b" x="116.51" y="63.48" stroke="#AA8B71" fill="#ECA25C" class="color_Republican"/><use xlink:href="#b" x="116.51" y="114.51" stroke="#7C92B3" fill="#236EAD" class="color_-"/><use xlink:href="#b" x="122.87" y="63.1" stroke="#B58486" fill="#FE4365" class="color_Democratic"/><use xlink:href="#b" x="122.87" y="67.42" stroke="#AA8B71" fill="#ECA25C" class="color_Republican"/><use xlink:href="#b" x="122.87" y="114.51" stroke="#A68D6F" fill="#7E674B" class="color_State's_Rights"/><use xlink:href="#b" x="122.87" y="113.59" stroke="#8B9572" fill="#D4EC9F" class="color_Progressive"/><use xlink:href="#b" x="122.87" y="114.32" stroke="#7C92B3" fill="#236EAD" class="color_-"/><use xlink:href="#b" x="129.24" y="52.05" stroke="#AA8B71" fill="#ECA25C" class="color_Republican"/><use xlink:href="#b" x="129.24" y="77.57" stroke="#B58486" fill="#FE4365" class="color_Democratic"/><use xlink:href="#b" x="129.24" y="114.3" stroke="#7C92B3" fill="#236EAD" class="color_-"/><use xlink:href="#b" x="135.6" y="54.67" stroke="#AA8B71" fill="#ECA25C" class="color_Republican"/><use xlink:href="#b" x="135.6" y="74.75" stroke="#B58486" fill="#FE4365" class="color_Democratic"/><use xlink:href="#b" x="135.6" y="114.51" stroke="#7C92B3" fill="#236EAD" class="color_-"/><use xlink:href="#b" x="141.97" y="69.7" stroke="#B58486" fill="#FE4365" class="color_Democratic"/><use xlink:href="#b" x="141.97" y="59.71" stroke="#AA8B71" fill="#ECA25C" class="color_Republican"/><use xlink:href="#b" x="141.97" y="114.51" stroke="#7C92B3" fill="#236EAD" class="color_-"/><use xlink:href="#b" x="148.34" y="58.18" stroke="#B58486" fill="#FE4365" class="color_Democratic"/><use xlink:href="#b" x="148.34" y="71.24" stroke="#AA8B71" fill="#ECA25C" class="color_Republican"/><use xlink:href="#b" x="148.34" y="114.51" stroke="#7C92B3" fill="#236EAD" class="color_-"/><use xlink:href="#b" x="154.7" y="58.97" stroke="#AA8B71" fill="#ECA25C" class="color_Republican"/><use xlink:href="#b" x="154.7" y="79.14" stroke="#B58486" fill="#FE4365" class="color_Democratic"/><use xlink:href="#b" x="154.7" y="105.81" stroke="#9B8AAC" fill="#9E7EC1" class="color_American_Ind."/><use xlink:href="#b" x="154.7" y="114.51" stroke="#7C92B3" fill="#236EAD" class="color_-"/><use xlink:href="#b" x="161.07" y="45.77" stroke="#AA8B71" fill="#ECA25C" class="color_Republican"/><use xlink:href="#b" x="161.07" y="84.16" stroke="#B58486" fill="#FE4365" class="color_Democratic"/><use xlink:href="#b" x="161.07" y="114" stroke="#7C92B3" fill="#236EAD" class="color_-"/><use xlink:href="#b" x="167.43" y="74.86" stroke="#B58486" fill="#FE4365" class="color_Democratic"/><use xlink:href="#b" x="167.43" y="55.44" stroke="#AA8B71" fill="#ECA25C" class="color_Republican"/><use xlink:href="#b" x="167.43" y="113.62" stroke="#7C92B3" fill="#236EAD" class="color_-"/><use xlink:href="#b" x="173.8" y="52.11" stroke="#AA8B71" fill="#ECA25C" class="color_Republican"/><use xlink:href="#b" x="173.8" y="86.65" stroke="#B58486" fill="#FE4365" class="color_Democratic"/><use xlink:href="#b" x="173.8" y="107.7" stroke="#7C92B3" fill="#7CB5FB" class="color_Independent"/><use xlink:href="#b" x="173.8" y="111.96" stroke="#7C92B3" fill="#236EAD" class="color_-"/><use xlink:href="#b" x="180.17" y="44.28" stroke="#AA8B71" fill="#ECA25C" class="color_Republican"/><use xlink:href="#b" x="180.17" y="86.38" stroke="#B58486" fill="#FE4365" class="color_Democratic"/><use xlink:href="#b" x="180.17" y="113.26" stroke="#7C92B3" fill="#236EAD" class="color_-"/><use xlink:href="#b" x="186.53" y="54.22" stroke="#AA8B71" fill="#ECA25C" class="color_Republican"/><use xlink:href="#b" x="186.53" y="76.65" stroke="#B58486" fill="#FE4365" class="color_Democratic"/><use xlink:href="#b" x="186.53" y="113.06" stroke="#7C92B3" fill="#236EAD" class="color_-"/><use xlink:href="#b" x="192.9" y="80.67" stroke="#B58486" fill="#FE4365" class="color_Democratic"/><use xlink:href="#b" x="192.9" y="75.12" stroke="#AA8B71" fill="#ECA25C" class="color_Republican"/><use xlink:href="#b" x="192.9" y="89.06" stroke="#7C92B3" fill="#7CB5FB" class="color_Independent"/><use xlink:href="#b" x="192.9" y="113.59" stroke="#7C92B3" fill="#236EAD" class="color_-"/><use xlink:href="#b" x="199.26" y="77.82" stroke="#B58486" fill="#FE4365" class="color_Democratic"/><use xlink:href="#b" x="199.26" y="64.9" stroke="#AA8B71" fill="#ECA25C" class="color_Republican"/><use xlink:href="#b" x="199.26" y="102.3" stroke="#5F9AA3" fill="#009DAD" class="color_Reform"/><use xlink:href="#b" x="199.26" y="113.41" stroke="#7C92B3" fill="#236EAD" class="color_-"/><use xlink:href="#b" x="205.63" y="86.92" stroke="#B58486" fill="#FE4365" class="color_Democratic"/><use xlink:href="#b" x="205.63" y="47.02" stroke="#AA8B71" fill="#ECA25C" class="color_Republican"/><use xlink:href="#b" x="205.63" y="112.4" stroke="#B3867D" fill="#AE8178" class="color_Green"/><use xlink:href="#b" x="205.63" y="112.09" stroke="#7C92B3" fill="#236EAD" class="color_-"/><use xlink:href="#b" x="212" y="45.92" stroke="#AA8B71" fill="#ECA25C" class="color_Republican"/><use xlink:href="#b" x="212" y="85.55" stroke="#B58486" fill="#FE4365" class="color_Democratic"/><use xlink:href="#b" x="212" y="112.45" stroke="#7C92B3" fill="#236EAD" class="color_-"/><use xlink:href="#b" x="218.36" y="82.1" stroke="#B58486" fill="#FE4365" class="color_Democratic"/><use xlink:href="#b" x="218.36" y="49.99" stroke="#AA8B71" fill="#ECA25C" class="color_Republican"/><use xlink:href="#b" x="218.36" y="111.83" stroke="#7C92B3" fill="#236EAD" class="color_-"/><use xlink:href="#b" x="224.73" y="86.8" stroke="#B58486" fill="#FE4365" class="color_Democratic"/><use xlink:href="#b" x="224.73" y="46.14" stroke="#AA8B71" fill="#ECA25C" class="color_Republican"/><use xlink:href="#b" x="224.73" y="110.98" stroke="#7C92B3" fill="#236EAD" class="color_-"/></g><g fill-opacity="0"><path fill="none" d="M33.75 114.33l6.36-.57 6.37.58 6.36-.54 6.37.36 6.37-.68 6.36.31 6.37-3.25 6.36 3.97 6.37-.95 6.37.76 6.36-1.76 6.37 1.66 6.37.29 6.36-.19 6.37-.02 6.36.21h19.1l6.37-.51 6.36-.38 6.37-1.66 6.37 1.3 6.36-.2 6.37.53 6.36-.18 6.37-1.32 6.37.36 6.36-.62 6.37-.85" stroke="#236EAD" class="geometry color_-"/><path fill="none" d="M52.84 111.03l6.37-1.06 6.37-1.96 6.36 3.71 6.37 2.79 19.1-2.91" stroke="#60F6FF" class="geometry color_Socialist"/><path fill="none" d="M173.8 107.7l19.1-18.64" stroke="#7CB5FB" class="geometry color_Independent"/><path fill="none" d="M65.58 92.77l19.09-9.64 38.2 30.46" stroke="#D4EC9F" class="geometry color_Progressive"/><path fill="none" d="M33.75 64.19l6.36 2.76 6.37-10.87 6.36-8.03 6.37 11.25 6.37 20.92 6.36-7.4 6.37-22.21 6.36 11.72 6.37-11.25 6.37 22.77 6.36 3.34 6.37-9.39 6.37-4.32 6.36 3.94 6.37-15.37 6.36 2.62 6.37 5.04 6.37 11.53 6.36-12.27 6.37-13.2 6.36 9.67 6.37-3.33 6.37-7.83 6.36 9.94 6.37 20.9 6.36-10.22 6.37-17.88 6.37-1.1 6.36 4.07 6.37-3.85" stroke="#ECA25C" class="geometry color_Republican"/><path fill="none" d="M33.75 114.51l6.36-51.29 6.37 10.28 6.36 12.04L59.21 75l6.37 3.46 6.36-18.36 6.37 22.67 6.36 15.7 6.37-19.19 6.37-20.62 6.36-4.48 6.37 7.72 6.37 4.04 6.36-2.84 6.37 14.47 6.36-2.82 6.37-5.05 6.37-11.52 6.36 20.96 6.37 5.02 6.36-9.3 6.37 11.79 6.37-.27 6.36-9.73 6.37 4.02 6.36-2.85 6.37 9.1 6.37-1.37 6.36-3.45 6.37 4.7" stroke="#FE4365" class="geometry color_Democratic"/></g></g></g><g class="guide ylabels" font-size="4.76" font-family="'PT Sans Caption','Helvetica Neue','Helvetica',sans-serif" fill="#A1A1A1" text-anchor="end"><text x="24.38" y="114.51" dy=".35em">0</text><text x="24.38" y="89.61" dy=".35em">25</text><text x="24.38" y="64.71" dy=".35em">50</text><text x="24.38" y="39.81" dy=".35em">75</text><text x="24.38" y="14.91" dy=".35em">100</text></g><text x="9.95" y="62.71" text-anchor="middle" dy=".35em" transform="rotate(-90 9.95 64.71)" font-size="6.35" font-family="'PT Sans','Helvetica Neue','Helvetica',sans-serif" fill="#A1A1A1" stroke="#000" stroke-opacity="0">Popular Vote (%)</text><text x="129.24" y="5" text-anchor="middle" dy=".6em" font-size="6.35" font-family="'PT Sans','Helvetica Neue','Helvetica',sans-serif" fill="#A1A1A1" stroke="#000" stroke-opacity="0">Wyoming</text></g><defs><clipPath id="a"><path d="M25.38 12.91H233.1v103.6H25.38"/></clipPath><circle r=".9" id="b"/></defs></svg>