<svg xmlns="http://www.w3.org/2000/svg" xmlns:xlink="http://www.w3.org/1999/xlink" version="1.2" width="238.1mm" height="599.924" viewBox="0 0 238.1 158.73" stroke-width=".3" font-size="3.88"><path d="M0 0h238.1v158.73H0z" stroke="#000" stroke-opacity="0" fill="#222831"/><g class="plotroot xscalable yscalable"><g class="guide colorkey"><g class="color_Green"><text x="167.07" y="144.33" dy=".35em" fill="#A1A1A1" font-size="3.7" font-family="'PT Sans','Helvetica Neue','Helvetica',sans-serif">Green</text><path d="M163.85 143.22h2.22v2.22h-2.22z" fill="#FFD9C5" stroke="#000" stroke-opacity="0"/></g><g fill="#A1A1A1" font-size="3.7" font-family="'PT Sans','Helvetica Neue','Helvetica',sans-serif"><text x="142.81" y="144.33" dy=".35em" class="color_Independent">Independent</text><text x="142.81" y="148.78" dy=".35em" class="color_Reform">Reform</text></g><g stroke="#000" stroke-opacity="0"><path fill="#009DAD" class="color_Independent" d="M139.59 143.22h2.22v2.22h-2.22z"/><path fill="#AE8178" class="color_Reform" d="M139.59 147.66h2.22v2.22h-2.22z"/></g><g fill="#A1A1A1" font-size="3.7" font-family="'PT Sans','Helvetica Neue','Helvetica',sans-serif"><text x="116.87" y="144.33" dy=".35em" class="color_State's_Rights">State&amp;apos;s Rights</text><text x="116.87" y="148.78" dy=".35em" class="color_American_Ind.">American Ind.</text></g><g stroke="#000" stroke-opacity="0"><path fill="#9E7EC1" class="color_State's_Rights" d="M113.65 143.22h2.22v2.22h-2.22z"/><path fill="#7CB5FB" class="color_American_Ind." d="M113.65 147.66h2.22v2.22h-2.22z"/></g><g fill="#A1A1A1" font-size="3.7" font-family="'PT Sans','Helvetica Neue','Helvetica',sans-serif"><text x="94.43" y="144.33" dy=".35em" class="color_Socialist">Socialist</text><text x="94.43" y="148.78" dy=".35em" class="color_Progressive">Progressive</text></g><g stroke="#000" stroke-opacity="0"><path fill="#D4EC9F" class="color_Socialist" d="M91.21 143.22h2.22v2.22h-2.22z"/><path fill="#7E674B" class="color_Progressive" d="M91.21 147.66h2.22v2.22h-2.22z"/></g><g fill="#A1A1A1" font-size="3.7" font-family="'PT Sans','Helvetica Neue','Helvetica',sans-serif"><text x="72.63" y="144.33" dy=".35em" class="color_Prohibition">Prohibition</text><text x="72.63" y="148.78" dy=".35em" class="color_Populist">Populist</text></g><g stroke="#000" stroke-opacity="0"><path fill="#236EAD" class="color_Prohibition" d="M69.41 143.22h2.22v2.22h-2.22z"/><path fill="#60F6FF" class="color_Populist" d="M69.41 147.66h2.22v2.22h-2.22z"/></g><g fill="#A1A1A1" font-size="3.7" font-family="'PT Sans','Helvetica Neue','Helvetica',sans-serif"><text x="51.81" y="144.33" dy=".35em" class="color_-">-</text><text x="51.81" y="148.78" dy=".35em" class="color_Greenback">Greenback</text></g><g stroke="#000" stroke-opacity="0"><path fill="#3F9778" class="color_-" d="M48.59 143.22h2.22v2.22h-2.22z"/><path fill="#EEDBFF" class="color_Greenback" d="M48.59 147.66h2.22v2.22h-2.22z"/></g><g fill="#A1A1A1" font-size="3.7" font-family="'PT Sans','Helvetica Neue','Helvetica',sans-serif"><text x="29.6" y="144.33" dy=".35em" class="color_Republican">Republican</text><text x="29.6" y="148.78" dy=".35em" class="color_Democratic">Democratic</text></g><g stroke="#000" stroke-opacity="0"><path fill="#FE4365" class="color_Republican" d="M26.38 143.22h2.22v2.22h-2.22z"/><path fill="#ECA25C" class="color_Democratic" d="M26.38 147.66h2.22v2.22h-2.22z"/></g><text x="26.38" y="140.84" fill="#FFF" font-size="6.35" font-family="'PT Sans','Helvetica Neue','Helvetica',sans-serif" stroke="#000" stroke-opacity="0">Party</text></g><text x="129.24" y="126.02" text-anchor="middle" dy=".6em" font-size="6.35" font-family="'PT Sans','Helvetica Neue','Helvetica',sans-serif" fill="#A1A1A1" stroke="#000" stroke-opacity="0">Year</text><g class="guide xlabels" font-size="4.76" font-family="'PT Sans Caption','Helvetica Neue','Helvetica',sans-serif" fill="#A1A1A1" text-anchor="end"><text x="27.38" y="110.72" dy=".35em" transform="rotate(-90 27.38 110.72)">1860</text><text x="37.83" y="110.72" dy=".35em" transform="rotate(-90 37.83 110.72)">1868</text><text x="48.27" y="110.72" dy=".35em" transform="rotate(-90 48.27 110.72)">1876</text><text x="58.72" y="110.72" dy=".35em" transform="rotate(-90 58.72 110.72)">1884</text><text x="69.17" y="110.72" dy=".35em" transform="rotate(-90 69.17 110.72)">1892</text><text x="79.61" y="110.72" dy=".35em" transform="rotate(-90 79.61 110.72)">1900</text><text x="90.06" y="110.72" dy=".35em" transform="rotate(-90 90.06 110.72)">1908</text><text x="100.51" y="110.72" dy=".35em" transform="rotate(-90 100.51 110.72)">1916</text><text x="110.96" y="110.72" dy=".35em" transform="rotate(-90 110.96 110.72)">1924</text><text x="121.4" y="110.72" dy=".35em" transform="rotate(-90 121.4 110.72)">1932</text><text x="131.85" y="110.72" dy=".35em" transform="rotate(-90 131.85 110.72)">1940</text><text x="142.3" y="110.72" dy=".35em" transform="rotate(-90 142.3 110.72)">1948</text><text x="152.74" y="110.72" dy=".35em" transform="rotate(-90 152.74 110.72)">1956</text><text x="163.19" y="110.72" dy=".35em" transform="rotate(-90 163.19 110.72)">1964</text><text x="173.64" y="110.72" dy=".35em" transform="rotate(-90 173.64 110.72)">1972</text><text x="184.08" y="110.72" dy=".35em" transform="rotate(-90 184.08 110.72)">1980</text><text x="194.53" y="110.72" dy=".35em" transform="rotate(-90 194.53 110.72)">1988</text><text x="204.98" y="110.72" dy=".35em" transform="rotate(-90 204.98 110.72)">1996</text><text x="215.42" y="110.72" dy=".35em" transform="rotate(-90 215.42 110.72)">2004</text><text x="225.87" y="110.72" dy=".35em" transform="rotate(-90 225.87 110.72)">2012</text></g><g clip-path="url(#a)"><path d="M25.38 12.91H233.1v96.81H25.38z" pointer-events="visible" fill="#222831" stroke="#000" stroke-opacity="0" class="guide background"/><g class="guide ygridlines xfixed" stroke-dasharray="0.5,0.5" stroke-width=".2" stroke="#575757" fill="none"><path d="M25.38 107.72H233.1M25.38 84.52H233.1M25.38 61.32H233.1M25.38 38.11H233.1M25.38 14.91H233.1"/></g><g class="guide xgridlines yfixed" stroke-dasharray="0.5,0.5" stroke-width=".2" stroke="#575757" fill="none"><path d="M27.38 12.91v96.81M37.83 12.91v96.81M48.27 12.91v96.81M58.72 12.91v96.81M69.17 12.91v96.81M79.61 12.91v96.81M90.06 12.91v96.81M100.51 12.91v96.81M110.96 12.91v96.81M121.4 12.91v96.81M131.85 12.91v96.81M142.3 12.91v96.81M152.74 12.91v96.81M163.19 12.91v96.81M173.64 12.91v96.81M184.08 12.91v96.81M194.53 12.91v96.81M204.98 12.91v96.81M215.42 12.91v96.81M225.87 12.91v96.81"/></g><g class="plotpanel"><g class="geometry"><use xlink:href="#b" x="32.6" y="34.22" stroke="#B58486" fill="#FE4365" class="color_Republican"/><use xlink:href="#b" x="32.6" y="91.23" stroke="#AA8B71" fill="#ECA25C" class="color_Democratic"/><use xlink:href="#b" x="32.6" y="104.91" stroke="#6D9A87" fill="#3F9778" class="color_-"/><use xlink:href="#b" x="37.83" y="43.85" stroke="#B58486" fill="#FE4365" class="color_Republican"/><use xlink:href="#b" x="37.83" y="78.79" stroke="#AA8B71" fill="#ECA25C" class="color_Democratic"/><use xlink:href="#b" x="37.83" y="107.72" stroke="#6D9A87" fill="#3F9778" class="color_-"/><use xlink:href="#b" x="43.05" y="46.03" stroke="#B58486" fill="#FE4365" class="color_Republican"/><use xlink:href="#b" x="43.05" y="77.28" stroke="#AA8B71" fill="#ECA25C" class="color_Democratic"/><use xlink:href="#b" x="43.05" y="107.04" stroke="#6D9A87" fill="#3F9778" class="color_-"/><use xlink:href="#b" x="48.27" y="79.38" stroke="#AA8B71" fill="#ECA25C" class="color_Democratic"/><use xlink:href="#b" x="48.27" y="49.16" stroke="#B58486" fill="#FE4365" class="color_Republican"/><use xlink:href="#b" x="48.27" y="101.81" stroke="#6D9A87" fill="#3F9778" class="color_-"/><use xlink:href="#b" x="53.5" y="51.66" stroke="#B58486" fill="#FE4365" class="color_Republican"/><use xlink:href="#b" x="53.5" y="80.14" stroke="#AA8B71" fill="#ECA25C" class="color_Democratic"/><use xlink:href="#b" x="53.5" y="98.57" stroke="#9B8AAB" fill="#EEDBFF" class="color_Greenback"/><use xlink:href="#b" x="53.5" y="107.71" stroke="#6D9A87" fill="#3F9778" class="color_-"/><use xlink:href="#b" x="58.72" y="76.26" stroke="#AA8B71" fill="#ECA25C" class="color_Democratic"/><use xlink:href="#b" x="58.72" y="53.82" stroke="#B58486" fill="#FE4365" class="color_Republican"/><use xlink:href="#b" x="58.72" y="100.28" stroke="#6D9A87" fill="#3F9778" class="color_-"/><use xlink:href="#b" x="63.94" y="78.93" stroke="#AA8B71" fill="#ECA25C" class="color_Democratic"/><use xlink:href="#b" x="63.94" y="56.46" stroke="#B58486" fill="#FE4365" class="color_Republican"/><use xlink:href="#b" x="63.94" y="105.82" stroke="#7C92B3" fill="#236EAD" class="color_Prohibition"/><use xlink:href="#b" x="63.94" y="96.87" stroke="#6D9A87" fill="#3F9778" class="color_-"/><use xlink:href="#b" x="69.17" y="107.72" stroke="#AA8B71" fill="#ECA25C" class="color_Democratic"/><use xlink:href="#b" x="69.17" y="62.81" stroke="#B58486" fill="#FE4365" class="color_Republican"/><use xlink:href="#b" x="69.17" y="61.13" stroke="#5F9A9E" fill="#60F6FF" class="color_Populist"/><use xlink:href="#b" x="69.17" y="106.42" stroke="#7C92B3" fill="#236EAD" class="color_Prohibition"/><use xlink:href="#b" x="69.17" y="107.72" stroke="#6D9A87" fill="#3F9778" class="color_-"/><use xlink:href="#b" x="74.39" y="63.52" stroke="#B58486" fill="#FE4365" class="color_Republican"/><use xlink:href="#b" x="74.39" y="60.1" stroke="#AA8B71" fill="#ECA25C" class="color_Democratic"/><use xlink:href="#b" x="74.39" y="106.75" stroke="#6D9A87" fill="#3F9778" class="color_-"/><use xlink:href="#b" x="79.61" y="58.94" stroke="#B58486" fill="#FE4365" class="color_Republican"/><use xlink:href="#b" x="79.61" y="65.06" stroke="#AA8B71" fill="#ECA25C" class="color_Democratic"/><use xlink:href="#b" x="79.61" y="106.36" stroke="#6D9A87" fill="#3F9778" class="color_-"/><use xlink:href="#b" x="84.84" y="47.57" stroke="#B58486" fill="#FE4365" class="color_Republican"/><use xlink:href="#b" x="84.84" y="83.38" stroke="#AA8B71" fill="#ECA25C" class="color_Democratic"/><use xlink:href="#b" x="84.84" y="103.24" stroke="#8B9572" fill="#D4EC9F" class="color_Socialist"/><use xlink:href="#b" x="84.84" y="103.89" stroke="#6D9A87" fill="#3F9778" class="color_-"/><use xlink:href="#b" x="90.06" y="59.03" stroke="#B58486" fill="#FE4365" class="color_Republican"/><use xlink:href="#b" x="90.06" y="67.92" stroke="#AA8B71" fill="#ECA25C" class="color_Democratic"/><use xlink:href="#b" x="90.06" y="104.66" stroke="#8B9572" fill="#D4EC9F" class="color_Socialist"/><use xlink:href="#b" x="90.06" y="106.46" stroke="#6D9A87" fill="#3F9778" class="color_-"/><use xlink:href="#b" x="95.28" y="71.25" stroke="#AA8B71" fill="#ECA25C" class="color_Democratic"/><use xlink:href="#b" x="95.28" y="77.2" stroke="#A68D6F" fill="#7E674B" class="color_Progressive"/><use xlink:href="#b" x="95.28" y="88.72" stroke="#B58486" fill="#FE4365" class="color_Republican"/><use xlink:href="#b" x="95.28" y="100.92" stroke="#8B9572" fill="#D4EC9F" class="color_Socialist"/><use xlink:href="#b" x="95.28" y="107.71" stroke="#6D9A87" fill="#3F9778" class="color_-"/><use xlink:href="#b" x="100.51" y="61.36" stroke="#AA8B71" fill="#ECA25C" class="color_Democratic"/><use xlink:href="#b" x="100.51" y="66.81" stroke="#B58486" fill="#FE4365" class="color_Republican"/><use xlink:href="#b" x="100.51" y="104.09" stroke="#8B9572" fill="#D4EC9F" class="color_Socialist"/><use xlink:href="#b" x="100.51" y="105.83" stroke="#6D9A87" fill="#3F9778" class="color_-"/><use xlink:href="#b" x="105.73" y="47.63" stroke="#B58486" fill="#FE4365" class="color_Republican"/><use xlink:href="#b" x="105.73" y="77.54" stroke="#AA8B71" fill="#ECA25C" class="color_Democratic"/><use xlink:href="#b" x="105.73" y="105.2" stroke="#8B9572" fill="#D4EC9F" class="color_Socialist"/><use xlink:href="#b" x="105.73" y="107.71" stroke="#6D9A87" fill="#3F9778" class="color_-"/><use xlink:href="#b" x="110.96" y="50.61" stroke="#B58486" fill="#FE4365" class="color_Republican"/><use xlink:href="#b" x="110.96" y="85.82" stroke="#AA8B71" fill="#ECA25C" class="color_Democratic"/><use xlink:href="#b" x="110.96" y="93.93" stroke="#A68D6F" fill="#7E674B" class="color_Progressive"/><use xlink:href="#b" x="110.96" y="107.72" stroke="#6D9A87" fill="#3F9778" class="color_-"/><use xlink:href="#b" x="116.18" y="40.88" stroke="#B58486" fill="#FE4365" class="color_Republican"/><use xlink:href="#b" x="116.18" y="82.61" stroke="#AA8B71" fill="#ECA25C" class="color_Democratic"/><use xlink:href="#b" x="116.18" y="106.87" stroke="#6D9A87" fill="#3F9778" class="color_-"/><use xlink:href="#b" x="121.4" y="58.01" stroke="#AA8B71" fill="#ECA25C" class="color_Democratic"/><use xlink:href="#b" x="121.4" y="66.77" stroke="#B58486" fill="#FE4365" class="color_Republican"/><use xlink:href="#b" x="121.4" y="105.58" stroke="#8B9572" fill="#D4EC9F" class="color_Socialist"/><use xlink:href="#b" x="121.4" y="107.72" stroke="#6D9A87" fill="#3F9778" class="color_-"/><use xlink:href="#b" x="126.63" y="57.91" stroke="#AA8B71" fill="#ECA25C" class="color_Democratic"/><use xlink:href="#b" x="126.63" y="65.07" stroke="#B58486" fill="#FE4365" class="color_Republican"/><use xlink:href="#b" x="126.63" y="107.37" stroke="#6D9A87" fill="#3F9778" class="color_-"/><use xlink:href="#b" x="131.85" y="68.37" stroke="#AA8B71" fill="#ECA25C" class="color_Democratic"/><use xlink:href="#b" x="131.85" y="54.95" stroke="#B58486" fill="#FE4365" class="color_Republican"/><use xlink:href="#b" x="131.85" y="107.03" stroke="#6D9A87" fill="#3F9778" class="color_-"/><use xlink:href="#b" x="137.07" y="71.36" stroke="#AA8B71" fill="#ECA25C" class="color_Democratic"/><use xlink:href="#b" x="137.07" y="51.8" stroke="#B58486" fill="#FE4365" class="color_Republican"/><use xlink:href="#b" x="137.07" y="107.19" stroke="#6D9A87" fill="#3F9778" class="color_-"/><use xlink:href="#b" x="142.3" y="66.32" stroke="#AA8B71" fill="#ECA25C" class="color_Democratic"/><use xlink:href="#b" x="142.3" y="57.95" stroke="#B58486" fill="#FE4365" class="color_Republican"/><use xlink:href="#b" x="142.3" y="107.72" stroke="#9B8AAC" fill="#9E7EC1" class="color_State's_Rights"/><use xlink:href="#b" x="142.3" y="107.18" stroke="#A68D6F" fill="#7E674B" class="color_Progressive"/><use xlink:href="#b" x="142.3" y="106.63" stroke="#6D9A87" fill="#3F9778" class="color_-"/><use xlink:href="#b" x="147.52" y="43.89" stroke="#B58486" fill="#FE4365" class="color_Republican"/><use xlink:href="#b" x="147.52" y="79.42" stroke="#AA8B71" fill="#ECA25C" class="color_Democratic"/><use xlink:href="#b" x="147.52" y="107.04" stroke="#6D9A87" fill="#3F9778" class="color_-"/><use xlink:href="#b" x="152.74" y="46.99" stroke="#B58486" fill="#FE4365" class="color_Republican"/><use xlink:href="#b" x="152.74" y="75.97" stroke="#AA8B71" fill="#ECA25C" class="color_Democratic"/><use xlink:href="#b" x="152.74" y="107.4" stroke="#6D9A87" fill="#3F9778" class="color_-"/><use xlink:href="#b" x="157.97" y="71.43" stroke="#AA8B71" fill="#ECA25C" class="color_Democratic"/><use xlink:href="#b" x="157.97" y="51.62" stroke="#B58486" fill="#FE4365" class="color_Republican"/><use xlink:href="#b" x="157.97" y="107.31" stroke="#6D9A87" fill="#3F9778" class="color_-"/><use xlink:href="#b" x="163.19" y="57.52" stroke="#AA8B71" fill="#ECA25C" class="color_Democratic"/><use xlink:href="#b" x="163.19" y="65.9" stroke="#B58486" fill="#FE4365" class="color_Republican"/><use xlink:href="#b" x="163.19" y="106.93" stroke="#6D9A87" fill="#3F9778" class="color_-"/><use xlink:href="#b" x="168.41" y="56.82" stroke="#B58486" fill="#FE4365" class="color_Republican"/><use xlink:href="#b" x="168.41" y="75.5" stroke="#AA8B71" fill="#ECA25C" class="color_Democratic"/><use xlink:href="#b" x="168.41" y="98.27" stroke="#7C92B3" fill="#7CB5FB" class="color_American_Ind."/><use xlink:href="#b" x="168.41" y="107.49" stroke="#6D9A87" fill="#3F9778" class="color_-"/><use xlink:href="#b" x="173.64" y="44.93" stroke="#B58486" fill="#FE4365" class="color_Republican"/><use xlink:href="#b" x="173.64" y="80.34" stroke="#AA8B71" fill="#ECA25C" class="color_Democratic"/><use xlink:href="#b" x="173.64" y="105.09" stroke="#6D9A87" fill="#3F9778" class="color_-"/><use xlink:href="#b" x="178.86" y="66.02" stroke="#AA8B71" fill="#ECA25C" class="color_Democratic"/><use xlink:href="#b" x="178.86" y="59.01" stroke="#B58486" fill="#FE4365" class="color_Republican"/><use xlink:href="#b" x="178.86" y="105.33" stroke="#6D9A87" fill="#3F9778" class="color_-"/><use xlink:href="#b" x="184.08" y="54.03" stroke="#B58486" fill="#FE4365" class="color_Republican"/><use xlink:href="#b" x="184.08" y="76.83" stroke="#AA8B71" fill="#ECA25C" class="color_Democratic"/><use xlink:href="#b" x="184.08" y="101.26" stroke="#5F9AA3" fill="#009DAD" class="color_Independent"/><use xlink:href="#b" x="184.08" y="105.96" stroke="#6D9A87" fill="#3F9778" class="color_-"/><use xlink:href="#b" x="189.31" y="46.21" stroke="#B58486" fill="#FE4365" class="color_Republican"/><use xlink:href="#b" x="189.31" y="77.47" stroke="#AA8B71" fill="#ECA25C" class="color_Democratic"/><use xlink:href="#b" x="189.31" y="106.68" stroke="#6D9A87" fill="#3F9778" class="color_-"/><use xlink:href="#b" x="194.53" y="55.94" stroke="#B58486" fill="#FE4365" class="color_Republican"/><use xlink:href="#b" x="194.53" y="68.22" stroke="#AA8B71" fill="#ECA25C" class="color_Democratic"/><use xlink:href="#b" x="194.53" y="106.19" stroke="#6D9A87" fill="#3F9778" class="color_-"/><use xlink:href="#b" x="199.75" y="76.41" stroke="#AA8B71" fill="#ECA25C" class="color_Democratic"/><use xlink:href="#b" x="199.75" y="71.64" stroke="#B58486" fill="#FE4365" class="color_Republican"/><use xlink:href="#b" x="199.75" y="82.67" stroke="#5F9AA3" fill="#009DAD" class="color_Independent"/><use xlink:href="#b" x="199.75" y="107.36" stroke="#6D9A87" fill="#3F9778" class="color_-"/><use xlink:href="#b" x="204.98" y="74.23" stroke="#AA8B71" fill="#ECA25C" class="color_Democratic"/><use xlink:href="#b" x="204.98" y="57.33" stroke="#B58486" fill="#FE4365" class="color_Republican"/><use xlink:href="#b" x="204.98" y="99.72" stroke="#B3867D" fill="#AE8178" class="color_Reform"/><use xlink:href="#b" x="204.98" y="106.79" stroke="#6D9A87" fill="#3F9778" class="color_-"/><use xlink:href="#b" x="210.2" y="73.16" stroke="#AA8B71" fill="#ECA25C" class="color_Democratic"/><use xlink:href="#b" x="210.2" y="53.85" stroke="#B58486" fill="#FE4365" class="color_Republican"/><use xlink:href="#b" x="210.2" y="104.6" stroke="#AE8974" fill="#FFD9C5" class="color_Green"/><use xlink:href="#b" x="210.2" y="106.47" stroke="#6D9A87" fill="#3F9778" class="color_-"/><use xlink:href="#b" x="215.42" y="50.18" stroke="#B58486" fill="#FE4365" class="color_Republican"/><use xlink:href="#b" x="215.42" y="73.73" stroke="#AA8B71" fill="#ECA25C" class="color_Democratic"/><use xlink:href="#b" x="215.42" y="106.45" stroke="#6D9A87" fill="#3F9778" class="color_-"/><use xlink:href="#b" x="220.65" y="69.16" stroke="#AA8B71" fill="#ECA25C" class="color_Democratic"/><use xlink:href="#b" x="220.65" y="55.31" stroke="#B58486" fill="#FE4365" class="color_Republican"/><use xlink:href="#b" x="220.65" y="105.89" stroke="#6D9A87" fill="#3F9778" class="color_-"/><use xlink:href="#b" x="225.87" y="72.45" stroke="#AA8B71" fill="#ECA25C" class="color_Democratic"/><use xlink:href="#b" x="225.87" y="52.41" stroke="#B58486" fill="#FE4365" class="color_Republican"/><use xlink:href="#b" x="225.87" y="105.49" stroke="#6D9A87" fill="#3F9778" class="color_-"/></g><g fill-opacity="0"><path fill="none" d="M184.08 101.26l15.67-18.59" stroke="#009DAD" class="geometry color_Independent"/><path fill="none" d="M63.94 105.82l5.23.6" stroke="#236EAD" class="geometry color_Prohibition"/><path fill="none" d="M32.6 104.91l5.23 2.81 5.22-.68 5.22-5.23 5.23 5.9 5.22-7.43 5.22-3.41 5.23 10.85 5.22-.97 5.22-.39 5.23-2.47 5.22 2.57 5.22 1.25 5.23-1.88 5.22 1.88 5.23.01 5.22-.85 5.22.85 5.23-.35 5.22-.34 5.22.16 5.23-.56 5.22.41 5.22.36 5.23-.09 5.22-.38 5.22.56 5.23-2.4 5.22.24 5.22.63 5.23.72 5.22-.49 5.22 1.17 5.23-.57 5.22-.32 5.22-.02 5.23-.56 5.22-.4" stroke="#3F9778" class="geometry color_-"/><path fill="none" d="M95.28 77.2l15.68 16.73 31.34 13.25" stroke="#7E674B" class="geometry color_Progressive"/><path fill="none" d="M84.84 103.24l5.22 1.42 5.22-3.74 5.23 3.17 5.22 1.11 15.67.38" stroke="#D4EC9F" class="geometry color_Socialist"/><path fill="none" d="M32.6 91.23l5.23-12.44 5.22-1.51 5.22 2.1 5.23.76 5.22-3.88 5.22 2.67 5.23 28.79 5.22-47.62 5.22 4.96 5.23 18.32 5.22-15.46 5.22 3.33 5.23-9.89 5.22 16.18 5.23 8.28 5.22-3.21 5.22-24.6 5.23-.1 5.22 10.46 5.22 2.99 5.23-5.04 5.22 13.1 5.22-3.45 5.23-4.54 5.22-13.91 5.22 17.98 5.23 4.84 5.22-14.32 5.22 10.81 5.23.64 5.22-9.25 5.22 8.19 5.23-2.18 5.22-1.07 5.22.57 5.23-4.57 5.22 3.29" stroke="#ECA25C" class="geometry color_Democratic"/><path fill="none" d="M32.6 34.22l5.23 9.63 5.22 2.18 5.22 3.13 5.23 2.5 5.22 2.16 5.22 2.64 5.23 6.35 5.22.71 5.22-4.58 5.23-11.37 5.22 11.46 5.22 29.69 5.23-21.91 5.22-19.18 5.23 2.98 5.22-9.73 5.22 25.89 5.23-1.7 5.22-10.12 5.22-3.15 5.23 6.15 5.22-14.06 5.22 3.1 5.23 4.63 5.22 14.28 5.22-9.08 5.23-11.89 5.22 14.08 5.22-4.98 5.23-7.82 5.22 9.73 5.22 15.7 5.23-14.31 5.22-3.48 5.22-3.67 5.23 5.13 5.22-2.9" stroke="#FE4365" class="geometry color_Republican"/></g></g></g><g class="guide ylabels" font-size="4.76" font-family="'PT Sans Caption','Helvetica Neue','Helvetica',sans-serif" fill="#A1A1A1" text-anchor="end"><text x="24.38" y="107.72" dy=".35em">0</text><text x="24.38" y="84.52" dy=".35em">25</text><text x="24.38" y="61.32" dy=".35em">50</text><text x="24.38" y="38.11" dy=".35em">75</text><text x="24.38" y="14.91" dy=".35em">100</text></g><text x="9.95" y="59.32" text-anchor="middle" dy=".35em" transform="rotate(-90 9.95 61.32)" font-size="6.35" font-family="'PT Sans','Helvetica Neue','Helvetica',sans-serif" fill="#A1A1A1" stroke="#000" stroke-opacity="0">Popular Vote (%)</text><text x="129.24" y="5" text-anchor="middle" dy=".6em" font-size="6.35" font-family="'PT Sans','Helvetica Neue','Helvetica',sans-serif" fill="#A1A1A1" stroke="#000" stroke-opacity="0">Kansas</text></g><defs><clipPath id="a"><path d="M25.38 12.91H233.1v96.81H25.38"/></clipPath><circle r=".9" id="b"/></defs></svg>