<svg xmlns="http://www.w3.org/2000/svg" xmlns:xlink="http://www.w3.org/1999/xlink" version="1.2" width="238.1mm" height="599.924" viewBox="0 0 238.1 158.73" stroke-width=".3" font-size="3.88"><path d="M0 0h238.1v158.73H0z" stroke="#000" stroke-opacity="0" fill="#222831"/><g class="plotroot xscalable yscalable"><g class="guide colorkey"><g class="color_Green"><text x="217.57" y="144.33" dy=".35em" fill="#A1A1A1" font-size="3.7" font-family="'PT Sans','Helvetica Neue','Helvetica',sans-serif">Green</text><path d="M214.34 143.22h2.22v2.22h-2.22z" fill="#86BCB1" stroke="#000" stroke-opacity="0"/></g><g fill="#A1A1A1" font-size="3.7" font-family="'PT Sans','Helvetica Neue','Helvetica',sans-serif"><text x="193.31" y="144.33" dy=".35em" class="color_Independent">Independent</text><text x="193.31" y="148.78" dy=".35em" class="color_Reform">Reform</text></g><g stroke="#000" stroke-opacity="0"><path fill="#FFD9C5" class="color_Independent" d="M190.08 143.22h2.22v2.22h-2.22z"/><path fill="#5C722E" class="color_Reform" d="M190.08 147.66h2.22v2.22h-2.22z"/></g><g fill="#A1A1A1" font-size="3.7" font-family="'PT Sans','Helvetica Neue','Helvetica',sans-serif"><text x="167.37" y="144.33" dy=".35em" class="color_State's_Rights">State&amp;apos;s Rights</text><text x="167.37" y="148.78" dy=".35em" class="color_American_Ind.">American Ind.</text></g><g stroke="#000" stroke-opacity="0"><path fill="#009DAD" class="color_State's_Rights" d="M164.15 143.22h2.22v2.22h-2.22z"/><path fill="#AE8178" class="color_American_Ind." d="M164.15 147.66h2.22v2.22h-2.22z"/></g><g fill="#A1A1A1" font-size="3.7" font-family="'PT Sans','Helvetica Neue','Helvetica',sans-serif"><text x="144.93" y="144.33" dy=".35em" class="color_Socialist">Socialist</text><text x="144.93" y="148.78" dy=".35em" class="color_Progressive">Progressive</text></g><g stroke="#000" stroke-opacity="0"><path fill="#9E7EC1" class="color_Socialist" d="M141.71 143.22h2.22v2.22h-2.22z"/><path fill="#7CB5FB" class="color_Progressive" d="M141.71 147.66h2.22v2.22h-2.22z"/></g><g fill="#A1A1A1" font-size="3.7" font-family="'PT Sans','Helvetica Neue','Helvetica',sans-serif"><text x="123.13" y="144.33" dy=".35em" class="color_Prohibition">Prohibition</text><text x="123.13" y="148.78" dy=".35em" class="color_Populist">Populist</text></g><g stroke="#000" stroke-opacity="0"><path fill="#D4EC9F" class="color_Prohibition" d="M119.91 143.22h2.22v2.22h-2.22z"/><path fill="#7E674B" class="color_Populist" d="M119.91 147.66h2.22v2.22h-2.22z"/></g><g fill="#A1A1A1" font-size="3.7" font-family="'PT Sans','Helvetica Neue','Helvetica',sans-serif"><text x="101.22" y="144.33" dy=".35em" class="color_Republican">Republican</text><text x="101.22" y="148.78" dy=".35em" class="color_Greenback">Greenback</text></g><g stroke="#000" stroke-opacity="0"><path fill="#236EAD" class="color_Republican" d="M97.99 143.22h2.22v2.22h-2.22z"/><path fill="#60F6FF" class="color_Greenback" d="M97.99 147.66h2.22v2.22h-2.22z"/></g><g fill="#A1A1A1" font-size="3.7" font-family="'PT Sans','Helvetica Neue','Helvetica',sans-serif"><text x="70.83" y="144.33" dy=".35em" class="color_Democratic">Democratic</text><text x="70.83" y="148.78" dy=".35em" class="color_Nat'l_Republican">Nat&amp;apos;l Republican</text></g><g stroke="#000" stroke-opacity="0"><path fill="#3F9778" class="color_Democratic" d="M67.61 143.22h2.22v2.22h-2.22z"/><path fill="#EEDBFF" class="color_Nat'l_Republican" d="M67.61 147.66h2.22v2.22h-2.22z"/></g><g fill="#A1A1A1" font-size="3.7" font-family="'PT Sans','Helvetica Neue','Helvetica',sans-serif"><text x="29.6" y="144.33" dy=".35em" class="color_Democratic-Republican">Democratic-Republican</text><text x="29.6" y="148.78" dy=".35em" class="color_-">-</text></g><g stroke="#000" stroke-opacity="0"><path fill="#FE4365" class="color_Democratic-Republican" d="M26.38 143.22h2.22v2.22h-2.22z"/><path fill="#ECA25C" class="color_-" d="M26.38 147.66h2.22v2.22h-2.22z"/></g><text x="26.38" y="140.84" fill="#FFF" font-size="6.35" font-family="'PT Sans','Helvetica Neue','Helvetica',sans-serif" stroke="#000" stroke-opacity="0">Party</text></g><text x="129.24" y="126.02" text-anchor="middle" dy=".6em" font-size="6.35" font-family="'PT Sans','Helvetica Neue','Helvetica',sans-serif" fill="#A1A1A1" stroke="#000" stroke-opacity="0">Year</text><g class="guide xlabels" font-size="4.76" font-family="'PT Sans Caption','Helvetica Neue','Helvetica',sans-serif" fill="#A1A1A1" text-anchor="middle"><text x="27.38" y="117.51" dy=".6em">1820</text><text x="39.85" y="117.51" dy=".6em">1832</text><text x="52.32" y="117.51" dy=".6em">1844</text><text x="64.8" y="117.51" dy=".6em">1856</text><text x="77.27" y="117.51" dy=".6em">1868</text><text x="89.74" y="117.51" dy=".6em">1880</text><text x="102.21" y="117.51" dy=".6em">1892</text><text x="114.69" y="117.51" dy=".6em">1904</text><text x="127.16" y="117.51" dy=".6em">1916</text><text x="139.63" y="117.51" dy=".6em">1928</text><text x="152.1" y="117.51" dy=".6em">1940</text><text x="164.58" y="117.51" dy=".6em">1952</text><text x="177.05" y="117.51" dy=".6em">1964</text><text x="189.52" y="117.51" dy=".6em">1976</text><text x="201.99" y="117.51" dy=".6em">1988</text><text x="214.47" y="117.51" dy=".6em">2000</text><text x="226.94" y="117.51" dy=".6em">2012</text></g><g clip-path="url(#a)"><path d="M25.38 12.91H233.1v103.6H25.38z" pointer-events="visible" fill="#222831" stroke="#000" stroke-opacity="0" class="guide background"/><g class="guide ygridlines xfixed" stroke-dasharray="0.5,0.5" stroke-width=".2" stroke="#575757" fill="none"><path d="M25.38 114.51H233.1M25.38 89.61H233.1M25.38 64.71H233.1M25.38 39.81H233.1M25.38 14.91H233.1"/></g><g class="guide xgridlines yfixed" stroke-dasharray="0.5,0.5" stroke-width=".2" stroke="#575757" fill="none"><path d="M27.38 12.91v103.6M39.85 12.91v103.6M52.32 12.91v103.6M64.8 12.91v103.6M77.27 12.91v103.6M89.74 12.91v103.6M102.21 12.91v103.6M114.69 12.91v103.6M127.16 12.91v103.6M139.63 12.91v103.6M152.1 12.91v103.6M164.58 12.91v103.6M177.05 12.91v103.6M189.52 12.91v103.6M201.99 12.91v103.6M214.47 12.91v103.6M226.94 12.91v103.6"/></g><g class="plotpanel"><g class="geometry"><use xlink:href="#b" x="31.54" y="NaN" stroke="#B58486" fill="#FE4365" class="color_Democratic-Republican"/><use xlink:href="#b" x="31.54" y="NaN" stroke="#B58486" fill="#FE4365" class="color_Democratic-Republican"/><use xlink:href="#b" x="31.54" y="NaN" stroke="#B58486" fill="#FE4365" class="color_Democratic-Republican"/><use xlink:href="#b" x="31.54" y="NaN" stroke="#B58486" fill="#FE4365" class="color_Democratic-Republican"/><use xlink:href="#b" x="31.54" y="NaN" stroke="#AA8B71" fill="#ECA25C" class="color_-"/><use xlink:href="#b" x="35.69" y="NaN" stroke="#6D9A87" fill="#3F9778" class="color_Democratic"/><use xlink:href="#b" x="35.69" y="NaN" stroke="#9B8AAB" fill="#EEDBFF" class="color_Nat'l_Republican"/><use xlink:href="#b" x="35.69" y="NaN" stroke="#AA8B71" fill="#ECA25C" class="color_-"/><use xlink:href="#b" x="77.27" y="56.81" stroke="#7C92B3" fill="#236EAD" class="color_Republican"/><use xlink:href="#b" x="77.27" y="72.61" stroke="#6D9A87" fill="#3F9778" class="color_Democratic"/><use xlink:href="#b" x="77.27" y="114.51" stroke="#AA8B71" fill="#ECA25C" class="color_-"/><use xlink:href="#b" x="81.43" y="39.08" stroke="#7C92B3" fill="#236EAD" class="color_Republican"/><use xlink:href="#b" x="81.43" y="90.82" stroke="#6D9A87" fill="#3F9778" class="color_Democratic"/><use xlink:href="#b" x="81.43" y="114.02" stroke="#AA8B71" fill="#ECA25C" class="color_-"/><use xlink:href="#b" x="85.58" y="64.95" stroke="#6D9A87" fill="#3F9778" class="color_Democratic"/><use xlink:href="#b" x="85.58" y="64.47" stroke="#7C92B3" fill="#236EAD" class="color_Republican"/><use xlink:href="#b" x="85.58" y="114.51" stroke="#AA8B71" fill="#ECA25C" class="color_-"/><use xlink:href="#b" x="89.74" y="80.51" stroke="#7C92B3" fill="#236EAD" class="color_Republican"/><use xlink:href="#b" x="89.74" y="49.26" stroke="#6D9A87" fill="#3F9778" class="color_Democratic"/><use xlink:href="#b" x="89.74" y="114.17" stroke="#5F9A9E" fill="#60F6FF" class="color_Greenback"/><use xlink:href="#b" x="89.74" y="114.49" stroke="#AA8B71" fill="#ECA25C" class="color_-"/><use xlink:href="#b" x="93.9" y="39.56" stroke="#6D9A87" fill="#3F9778" class="color_Democratic"/><use xlink:href="#b" x="93.9" y="91.19" stroke="#7C92B3" fill="#236EAD" class="color_Republican"/><use xlink:href="#b" x="93.9" y="113.18" stroke="#AA8B71" fill="#ECA25C" class="color_-"/><use xlink:href="#b" x="98.06" y="32.55" stroke="#6D9A87" fill="#3F9778" class="color_Democratic"/><use xlink:href="#b" x="98.06" y="97.41" stroke="#7C92B3" fill="#236EAD" class="color_Republican"/><use xlink:href="#b" x="98.06" y="114.51" stroke="#8B9572" fill="#D4EC9F" class="color_Prohibition"/><use xlink:href="#b" x="98.06" y="113.96" stroke="#AA8B71" fill="#ECA25C" class="color_-"/><use xlink:href="#b" x="102.21" y="37.26" stroke="#6D9A87" fill="#3F9778" class="color_Democratic"/><use xlink:href="#b" x="102.21" y="95.65" stroke="#7C92B3" fill="#236EAD" class="color_Republican"/><use xlink:href="#b" x="102.21" y="111.11" stroke="#A68D6F" fill="#7E674B" class="color_Populist"/><use xlink:href="#b" x="102.21" y="114.51" stroke="#8B9572" fill="#D4EC9F" class="color_Prohibition"/><use xlink:href="#b" x="102.21" y="114.41" stroke="#AA8B71" fill="#ECA25C" class="color_-"/><use xlink:href="#b" x="106.37" y="101.05" stroke="#7C92B3" fill="#236EAD" class="color_Republican"/><use xlink:href="#b" x="106.37" y="29.55" stroke="#6D9A87" fill="#3F9778" class="color_Democratic"/><use xlink:href="#b" x="106.37" y="113.32" stroke="#AA8B71" fill="#ECA25C" class="color_-"/><use xlink:href="#b" x="110.53" y="107.49" stroke="#7C92B3" fill="#236EAD" class="color_Republican"/><use xlink:href="#b" x="110.53" y="21.92" stroke="#6D9A87" fill="#3F9778" class="color_Democratic"/><use xlink:href="#b" x="110.53" y="114.51" stroke="#AA8B71" fill="#ECA25C" class="color_-"/><use xlink:href="#b" x="114.69" y="109.89" stroke="#7C92B3" fill="#236EAD" class="color_Republican"/><use xlink:href="#b" x="114.69" y="19.53" stroke="#6D9A87" fill="#3F9778" class="color_Democratic"/><use xlink:href="#b" x="114.69" y="114.51" stroke="#9B8AAC" fill="#9E7EC1" class="color_Socialist"/><use xlink:href="#b" x="114.69" y="114.51" stroke="#AA8B71" fill="#ECA25C" class="color_-"/><use xlink:href="#b" x="118.84" y="108.59" stroke="#7C92B3" fill="#236EAD" class="color_Republican"/><use xlink:href="#b" x="118.84" y="21.05" stroke="#6D9A87" fill="#3F9778" class="color_Democratic"/><use xlink:href="#b" x="118.84" y="114.36" stroke="#9B8AAC" fill="#9E7EC1" class="color_Socialist"/><use xlink:href="#b" x="118.84" y="114.44" stroke="#AA8B71" fill="#ECA25C" class="color_-"/><use xlink:href="#b" x="123" y="18.96" stroke="#6D9A87" fill="#3F9778" class="color_Democratic"/><use xlink:href="#b" x="123" y="111.95" stroke="#7C92B3" fill="#7CB5FB" class="color_Progressive"/><use xlink:href="#b" x="123" y="113.45" stroke="#7C92B3" fill="#236EAD" class="color_Republican"/><use xlink:href="#b" x="123" y="114.18" stroke="#9B8AAC" fill="#9E7EC1" class="color_Socialist"/><use xlink:href="#b" x="123" y="114.4" stroke="#AA8B71" fill="#ECA25C" class="color_-"/><use xlink:href="#b" x="127.16" y="18.19" stroke="#6D9A87" fill="#3F9778" class="color_Democratic"/><use xlink:href="#b" x="127.16" y="112.09" stroke="#7C92B3" fill="#236EAD" class="color_Republican"/><use xlink:href="#b" x="127.16" y="114.3" stroke="#9B8AAC" fill="#9E7EC1" class="color_Socialist"/><use xlink:href="#b" x="127.16" y="113.85" stroke="#AA8B71" fill="#ECA25C" class="color_-"/><use xlink:href="#b" x="131.32" y="110.62" stroke="#7C92B3" fill="#236EAD" class="color_Republican"/><use xlink:href="#b" x="131.32" y="18.84" stroke="#6D9A87" fill="#3F9778" class="color_Democratic"/><use xlink:href="#b" x="131.32" y="114.47" stroke="#9B8AAC" fill="#9E7EC1" class="color_Socialist"/><use xlink:href="#b" x="131.32" y="114.51" stroke="#AA8B71" fill="#ECA25C" class="color_-"/><use xlink:href="#b" x="135.47" y="112.3" stroke="#7C92B3" fill="#236EAD" class="color_Republican"/><use xlink:href="#b" x="135.47" y="18.33" stroke="#6D9A87" fill="#3F9778" class="color_Democratic"/><use xlink:href="#b" x="135.47" y="113.29" stroke="#7C92B3" fill="#7CB5FB" class="color_Progressive"/><use xlink:href="#b" x="135.47" y="114.5" stroke="#AA8B71" fill="#ECA25C" class="color_-"/><use xlink:href="#b" x="139.63" y="106" stroke="#7C92B3" fill="#236EAD" class="color_Republican"/><use xlink:href="#b" x="139.63" y="23.48" stroke="#6D9A87" fill="#3F9778" class="color_Democratic"/><use xlink:href="#b" x="139.63" y="114.44" stroke="#AA8B71" fill="#ECA25C" class="color_-"/><use xlink:href="#b" x="143.79" y="16.87" stroke="#6D9A87" fill="#3F9778" class="color_Democratic"/><use xlink:href="#b" x="143.79" y="112.62" stroke="#7C92B3" fill="#236EAD" class="color_Republican"/><use xlink:href="#b" x="143.79" y="114.43" stroke="#9B8AAC" fill="#9E7EC1" class="color_Socialist"/><use xlink:href="#b" x="143.79" y="114.51" stroke="#AA8B71" fill="#ECA25C" class="color_-"/><use xlink:href="#b" x="147.95" y="16.33" stroke="#6D9A87" fill="#3F9778" class="color_Democratic"/><use xlink:href="#b" x="147.95" y="113.09" stroke="#7C92B3" fill="#236EAD" class="color_Republican"/><use xlink:href="#b" x="147.95" y="114.51" stroke="#AA8B71" fill="#ECA25C" class="color_-"/><use xlink:href="#b" x="152.1" y="19.26" stroke="#6D9A87" fill="#3F9778" class="color_Democratic"/><use xlink:href="#b" x="152.1" y="110.16" stroke="#7C92B3" fill="#236EAD" class="color_Republican"/><use xlink:href="#b" x="152.1" y="114.5" stroke="#AA8B71" fill="#ECA25C" class="color_-"/><use xlink:href="#b" x="156.26" y="27.22" stroke="#6D9A87" fill="#3F9778" class="color_Democratic"/><use xlink:href="#b" x="156.26" y="110.07" stroke="#7C92B3" fill="#236EAD" class="color_Republican"/><use xlink:href="#b" x="156.26" y="106.64" stroke="#AA8B71" fill="#ECA25C" class="color_-"/><use xlink:href="#b" x="160.42" y="90.46" stroke="#6D9A87" fill="#3F9778" class="color_Democratic"/><use xlink:href="#b" x="160.42" y="110.74" stroke="#7C92B3" fill="#236EAD" class="color_Republican"/><use xlink:href="#b" x="160.42" y="42.83" stroke="#5F9AA3" fill="#009DAD" class="color_State's_Rights"/><use xlink:href="#b" x="160.42" y="114.4" stroke="#7C92B3" fill="#7CB5FB" class="color_Progressive"/><use xlink:href="#b" x="160.42" y="114.51" stroke="#AA8B71" fill="#ECA25C" class="color_-"/><use xlink:href="#b" x="164.58" y="65.43" stroke="#7C92B3" fill="#236EAD" class="color_Republican"/><use xlink:href="#b" x="164.58" y="63.99" stroke="#6D9A87" fill="#3F9778" class="color_Democratic"/><use xlink:href="#b" x="164.58" y="114.51" stroke="#AA8B71" fill="#ECA25C" class="color_-"/><use xlink:href="#b" x="168.73" y="89.42" stroke="#7C92B3" fill="#236EAD" class="color_Republican"/><use xlink:href="#b" x="168.73" y="69.32" stroke="#6D9A87" fill="#3F9778" class="color_Democratic"/><use xlink:href="#b" x="168.73" y="85.18" stroke="#AA8B71" fill="#ECA25C" class="color_-"/><use xlink:href="#b" x="172.89" y="63.48" stroke="#6D9A87" fill="#3F9778" class="color_Democratic"/><use xlink:href="#b" x="172.89" y="65.94" stroke="#7C92B3" fill="#236EAD" class="color_Republican"/><use xlink:href="#b" x="172.89" y="114.51" stroke="#AA8B71" fill="#ECA25C" class="color_-"/><use xlink:href="#b" x="177.05" y="73.57" stroke="#6D9A87" fill="#3F9778" class="color_Democratic"/><use xlink:href="#b" x="177.05" y="55.85" stroke="#7C92B3" fill="#236EAD" class="color_Republican"/><use xlink:href="#b" x="177.05" y="114.51" stroke="#AA8B71" fill="#ECA25C" class="color_-"/><use xlink:href="#b" x="181.21" y="76.57" stroke="#7C92B3" fill="#236EAD" class="color_Republican"/><use xlink:href="#b" x="181.21" y="85.02" stroke="#6D9A87" fill="#3F9778" class="color_Democratic"/><use xlink:href="#b" x="181.21" y="82.34" stroke="#B3867D" fill="#AE8178" class="color_American_Ind."/><use xlink:href="#b" x="181.21" y="114.51" stroke="#AA8B71" fill="#ECA25C" class="color_-"/><use xlink:href="#b" x="185.36" y="44.21" stroke="#7C92B3" fill="#236EAD" class="color_Republican"/><use xlink:href="#b" x="185.36" y="86.7" stroke="#6D9A87" fill="#3F9778" class="color_Democratic"/><use xlink:href="#b" x="185.36" y="113.01" stroke="#AA8B71" fill="#ECA25C" class="color_-"/><use xlink:href="#b" x="189.52" y="58.56" stroke="#6D9A87" fill="#3F9778" class="color_Democratic"/><use xlink:href="#b" x="189.52" y="71.55" stroke="#7C92B3" fill="#236EAD" class="color_Republican"/><use xlink:href="#b" x="189.52" y="113.81" stroke="#AA8B71" fill="#ECA25C" class="color_-"/><use xlink:href="#b" x="193.68" y="65.14" stroke="#7C92B3" fill="#236EAD" class="color_Republican"/><use xlink:href="#b" x="193.68" y="66.66" stroke="#6D9A87" fill="#3F9778" class="color_Democratic"/><use xlink:href="#b" x="193.68" y="112.92" stroke="#AE8974" fill="#FFD9C5" class="color_Independent"/><use xlink:href="#b" x="193.68" y="113.7" stroke="#AA8B71" fill="#ECA25C" class="color_-"/><use xlink:href="#b" x="197.84" y="51.21" stroke="#7C92B3" fill="#236EAD" class="color_Republican"/><use xlink:href="#b" x="197.84" y="79.08" stroke="#6D9A87" fill="#3F9778" class="color_Democratic"/><use xlink:href="#b" x="197.84" y="113.63" stroke="#AA8B71" fill="#ECA25C" class="color_-"/><use xlink:href="#b" x="201.99" y="53.25" stroke="#7C92B3" fill="#236EAD" class="color_Republican"/><use xlink:href="#b" x="201.99" y="77.08" stroke="#6D9A87" fill="#3F9778" class="color_Democratic"/><use xlink:href="#b" x="201.99" y="113.6" stroke="#AA8B71" fill="#ECA25C" class="color_-"/><use xlink:href="#b" x="206.15" y="74.79" stroke="#6D9A87" fill="#3F9778" class="color_Democratic"/><use xlink:href="#b" x="206.15" y="66.68" stroke="#7C92B3" fill="#236EAD" class="color_Republican"/><use xlink:href="#b" x="206.15" y="103" stroke="#AE8974" fill="#FFD9C5" class="color_Independent"/><use xlink:href="#b" x="206.15" y="113.96" stroke="#AA8B71" fill="#ECA25C" class="color_-"/><use xlink:href="#b" x="210.31" y="70.83" stroke="#6D9A87" fill="#3F9778" class="color_Democratic"/><use xlink:href="#b" x="210.31" y="64.82" stroke="#7C92B3" fill="#236EAD" class="color_Republican"/><use xlink:href="#b" x="210.31" y="108.93" stroke="#8B9572" fill="#5C722E" class="color_Reform"/><use xlink:href="#b" x="210.31" y="113.85" stroke="#AA8B71" fill="#ECA25C" class="color_-"/><use xlink:href="#b" x="214.47" y="73.77" stroke="#6D9A87" fill="#3F9778" class="color_Democratic"/><use xlink:href="#b" x="214.47" y="57.9" stroke="#7C92B3" fill="#236EAD" class="color_Republican"/><use xlink:href="#b" x="214.47" y="113.05" stroke="#669B90" fill="#86BCB1" class="color_Green"/><use xlink:href="#b" x="214.47" y="113.71" stroke="#AA8B71" fill="#ECA25C" class="color_-"/><use xlink:href="#b" x="218.62" y="56.76" stroke="#7C92B3" fill="#236EAD" class="color_Republican"/><use xlink:href="#b" x="218.62" y="73.77" stroke="#6D9A87" fill="#3F9778" class="color_Democratic"/><use xlink:href="#b" x="218.62" y="113.4" stroke="#AA8B71" fill="#ECA25C" class="color_-"/><use xlink:href="#b" x="222.78" y="69.79" stroke="#6D9A87" fill="#3F9778" class="color_Democratic"/><use xlink:href="#b" x="222.78" y="60.85" stroke="#7C92B3" fill="#236EAD" class="color_Republican"/><use xlink:href="#b" x="222.78" y="113.28" stroke="#AA8B71" fill="#ECA25C" class="color_-"/><use xlink:href="#b" x="226.94" y="70.6" stroke="#6D9A87" fill="#3F9778" class="color_Democratic"/><use xlink:href="#b" x="226.94" y="60.17" stroke="#7C92B3" fill="#236EAD" class="color_Republican"/><use xlink:href="#b" x="226.94" y="113.16" stroke="#AA8B71" fill="#ECA25C" class="color_-"/></g><g fill-opacity="0"><path fill="none" d="M77.27 56.81l4.16-17.73 4.15 25.39 4.16 16.04 4.16 10.68 4.16 6.22 4.15-1.76 4.16 5.4 4.16 6.44 4.16 2.4 4.15-1.3 4.16 4.86 4.16-1.36 4.16-1.47 4.15 1.68 4.16-6.3 4.16 6.62 4.16.47 4.15-2.93 4.16-.09 4.16.67 4.16-45.31 4.15 23.99 4.16-23.48 4.16-10.09 4.16 20.72 4.15-32.36 4.16 27.34 4.16-6.41 4.16-13.93 4.15 2.04 4.16 13.43 4.16-1.86 4.16-6.92 4.15-1.14 4.16 4.09 4.16-.68" stroke="#236EAD" class="geometry color_Republican"/><path fill="none" d="M77.27 72.61l4.16 18.21 4.15-25.87 4.16-15.69 4.16-9.7 4.16-7.01 4.15 4.71 4.16-7.71 4.16-7.63 4.16-2.39 4.15 1.52 4.16-2.09 4.16-.77 4.16.65 4.15-.51 4.16 5.15 4.16-6.61 4.16-.54 4.15 2.93 4.16 7.96 4.16 63.24 4.16-26.47 4.15 5.33 4.16-5.84 4.16 10.09 4.16 11.45 4.15 1.68 4.16-28.14 4.16 8.1 4.16 12.42 4.15-2 4.16-2.29 4.16-3.96 4.16 2.94h4.15l4.16-3.98 4.16.81" stroke="#3F9778" class="geometry color_Democratic"/><path fill="none" d="M123 111.95l12.47 1.34 24.95 1.11" stroke="#7CB5FB" class="geometry color_Progressive"/><path fill="none" d="M114.69 114.51l4.15-.15 4.16-.18 4.16.12 4.16.17 12.47-.04" stroke="#9E7EC1" class="geometry color_Socialist"/><path fill="none" d="M98.06 114.51h4.15" stroke="#D4EC9F" class="geometry color_Prohibition"/><path fill="none" d="M77.27 114.51l4.16-.49 4.15.49 4.16-.02 4.16-1.31 4.16.78 4.15.45 4.16-1.09 4.16 1.19h4.16l4.15-.07 4.16-.04 4.16-.55 4.16.66 4.15-.01 4.16-.06 4.16.07h4.16l4.15-.01 4.16-7.86 4.16 7.87h4.16l4.15-29.33 4.16 29.33h8.32l4.15-1.5 4.16.8 4.16-.11 4.16-.07 4.15-.03 4.16.36 4.16-.11 4.16-.14 4.15-.31 4.16-.12 4.16-.12" stroke="#ECA25C" class="geometry color_-"/><path fill="none" d="M193.68 112.92l12.47-9.92" stroke="#FFD9C5" class="geometry color_Independent"/></g></g></g><g class="guide ylabels" font-size="4.76" font-family="'PT Sans Caption','Helvetica Neue','Helvetica',sans-serif" fill="#A1A1A1" text-anchor="end"><text x="24.38" y="114.51" dy=".35em">0</text><text x="24.38" y="89.61" dy=".35em">25</text><text x="24.38" y="64.71" dy=".35em">50</text><text x="24.38" y="39.81" dy=".35em">75</text><text x="24.38" y="14.91" dy=".35em">100</text></g><text x="9.95" y="62.71" text-anchor="middle" dy=".35em" transform="rotate(-90 9.95 64.71)" font-size="6.35" font-family="'PT Sans','Helvetica Neue','Helvetica',sans-serif" fill="#A1A1A1" stroke="#000" stroke-opacity="0">Popular Vote (%)</text><text x="129.24" y="5" text-anchor="middle" dy=".6em" font-size="6.35" font-family="'PT Sans','Helvetica Neue','Helvetica',sans-serif" fill="#A1A1A1" stroke="#000" stroke-opacity="0">South Carolina</text></g><defs><clipPath id="a"><path d="M25.38 12.91H233.1v103.6H25.38"/></clipPath><circle r=".9" id="b"/></defs></svg>