<svg xmlns="http://www.w3.org/2000/svg" xmlns:xlink="http://www.w3.org/1999/xlink" version="1.2" width="238.1mm" height="599.924" viewBox="0 0 238.1 158.73" stroke-width=".3" font-size="3.88"><path d="M0 0h238.1v158.73H0z" stroke="#000" stroke-opacity="0" fill="#222831"/><g class="plotroot xscalable yscalable"><g class="guide colorkey"><g class="color_Green"><text x="181.2" y="135.43" dy=".35em" fill="#A1A1A1" font-size="3.7" font-family="'PT Sans','Helvetica Neue','Helvetica',sans-serif">Green</text><path d="M177.98 134.32h2.22v2.22h-2.22z" fill="#F69A8A" stroke="#000" stroke-opacity="0"/></g><g fill="#A1A1A1" font-size="3.7" font-family="'PT Sans','Helvetica Neue','Helvetica',sans-serif"><text x="155.26" y="135.43" dy=".35em" class="color_State's_Rights">State&amp;apos;s Rights</text><text x="155.26" y="139.88" dy=".35em" class="color_American_Ind.">American Ind.</text><text x="155.26" y="144.33" dy=".35em" class="color_Independent">Independent</text><text x="155.26" y="148.78" dy=".35em" class="color_Reform">Reform</text></g><g stroke="#000" stroke-opacity="0"><path fill="#A55246" class="color_State's_Rights" d="M152.04 134.32h2.22v2.22h-2.22z"/><path fill="#37737B" class="color_American_Ind." d="M152.04 138.77h2.22v2.22h-2.22z"/><path fill="#86906D" class="color_Independent" d="M152.04 143.22h2.22v2.22h-2.22z"/><path fill="#CDE4FF" class="color_Reform" d="M152.04 147.66h2.22v2.22h-2.22z"/></g><g fill="#A1A1A1" font-size="3.7" font-family="'PT Sans','Helvetica Neue','Helvetica',sans-serif"><text x="132.82" y="135.43" dy=".35em" class="color_Prohibition">Prohibition</text><text x="132.82" y="139.88" dy=".35em" class="color_Populist">Populist</text><text x="132.82" y="144.33" dy=".35em" class="color_Socialist">Socialist</text><text x="132.82" y="148.78" dy=".35em" class="color_Progressive">Progressive</text></g><g stroke="#000" stroke-opacity="0"><path fill="#FFD9C5" class="color_Prohibition" d="M129.6 134.32h2.22v2.22h-2.22z"/><path fill="#5C722E" class="color_Populist" d="M129.6 138.77h2.22v2.22h-2.22z"/><path fill="#86BCB1" class="color_Socialist" d="M129.6 143.22h2.22v2.22h-2.22z"/><path fill="#746484" class="color_Progressive" d="M129.6 147.66h2.22v2.22h-2.22z"/></g><g fill="#A1A1A1" font-size="3.7" font-family="'PT Sans','Helvetica Neue','Helvetica',sans-serif"><text x="95.82" y="135.43" dy=".35em" class="color_Whig-American">Whig-American</text><text x="95.82" y="139.88" dy=".35em" class="color_Republican">Republican</text><text x="95.82" y="144.33" dy=".35em" class="color_Constitutional_Union">Constitutional Union</text><text x="95.82" y="148.78" dy=".35em" class="color_Greenback">Greenback</text></g><g stroke="#000" stroke-opacity="0"><path fill="#9E7EC1" class="color_Whig-American" d="M92.6 134.32h2.22v2.22H92.6z"/><path fill="#7CB5FB" class="color_Republican" d="M92.6 138.77h2.22v2.22H92.6z"/><path fill="#009DAD" class="color_Constitutional_Union" d="M92.6 143.22h2.22v2.22H92.6z"/><path fill="#AE8178" class="color_Greenback" d="M92.6 147.66h2.22v2.22H92.6z"/></g><g fill="#A1A1A1" font-size="3.7" font-family="'PT Sans','Helvetica Neue','Helvetica',sans-serif"><text x="70.83" y="135.43" dy=".35em" class="color_Anti-Masonic">Anti-Masonic</text><text x="70.83" y="139.88" dy=".35em" class="color_Whig">Whig</text><text x="70.83" y="144.33" dy=".35em" class="color_Liberty">Liberty</text><text x="70.83" y="148.78" dy=".35em" class="color_Free_Soil">Free Soil</text></g><g stroke="#000" stroke-opacity="0"><path fill="#236EAD" class="color_Anti-Masonic" d="M67.61 134.32h2.22v2.22h-2.22z"/><path fill="#60F6FF" class="color_Whig" d="M67.61 138.77h2.22v2.22h-2.22z"/><path fill="#D4EC9F" class="color_Liberty" d="M67.61 143.22h2.22v2.22h-2.22z"/><path fill="#7E674B" class="color_Free_Soil" d="M67.61 147.66h2.22v2.22h-2.22z"/></g><g fill="#A1A1A1" font-size="3.7" font-family="'PT Sans','Helvetica Neue','Helvetica',sans-serif"><text x="29.6" y="135.43" dy=".35em" class="color_Democratic-Republican">Democratic-Republican</text><text x="29.6" y="139.88" dy=".35em" class="color_-">-</text><text x="29.6" y="144.33" dy=".35em" class="color_Democratic">Democratic</text><text x="29.6" y="148.78" dy=".35em" class="color_Nat'l_Republican">Nat&amp;apos;l Republican</text></g><g stroke="#000" stroke-opacity="0"><path fill="#FE4365" class="color_Democratic-Republican" d="M26.38 134.32h2.22v2.22h-2.22z"/><path fill="#ECA25C" class="color_-" d="M26.38 138.77h2.22v2.22h-2.22z"/><path fill="#3F9778" class="color_Democratic" d="M26.38 143.22h2.22v2.22h-2.22z"/><path fill="#EEDBFF" class="color_Nat'l_Republican" d="M26.38 147.66h2.22v2.22h-2.22z"/></g><text x="26.38" y="131.94" fill="#FFF" font-size="6.35" font-family="'PT Sans','Helvetica Neue','Helvetica',sans-serif" stroke="#000" stroke-opacity="0">Party</text></g><text x="129.24" y="117.12" text-anchor="middle" dy=".6em" font-size="6.35" font-family="'PT Sans','Helvetica Neue','Helvetica',sans-serif" fill="#A1A1A1" stroke="#000" stroke-opacity="0">Year</text><g class="guide xlabels" font-size="4.76" font-family="'PT Sans Caption','Helvetica Neue','Helvetica',sans-serif" fill="#A1A1A1" text-anchor="middle"><text x="27.38" y="108.61" dy=".6em">1820</text><text x="39.85" y="108.61" dy=".6em">1832</text><text x="52.32" y="108.61" dy=".6em">1844</text><text x="64.8" y="108.61" dy=".6em">1856</text><text x="77.27" y="108.61" dy=".6em">1868</text><text x="89.74" y="108.61" dy=".6em">1880</text><text x="102.21" y="108.61" dy=".6em">1892</text><text x="114.69" y="108.61" dy=".6em">1904</text><text x="127.16" y="108.61" dy=".6em">1916</text><text x="139.63" y="108.61" dy=".6em">1928</text><text x="152.1" y="108.61" dy=".6em">1940</text><text x="164.58" y="108.61" dy=".6em">1952</text><text x="177.05" y="108.61" dy=".6em">1964</text><text x="189.52" y="108.61" dy=".6em">1976</text><text x="201.99" y="108.61" dy=".6em">1988</text><text x="214.47" y="108.61" dy=".6em">2000</text><text x="226.94" y="108.61" dy=".6em">2012</text></g><g clip-path="url(#a)"><path d="M25.38 12.91H233.1v94.7H25.38z" pointer-events="visible" fill="#222831" stroke="#000" stroke-opacity="0" class="guide background"/><g class="guide ygridlines xfixed" stroke-dasharray="0.5,0.5" stroke-width=".2" stroke="#575757" fill="none"><path d="M25.38 105.61H233.1M25.38 82.94H233.1M25.38 60.26H233.1M25.38 37.59H233.1M25.38 14.91H233.1"/></g><g class="guide xgridlines yfixed" stroke-dasharray="0.5,0.5" stroke-width=".2" stroke="#575757" fill="none"><path d="M27.38 12.91v94.7M39.85 12.91v94.7M52.32 12.91v94.7M64.8 12.91v94.7M77.27 12.91v94.7M89.74 12.91v94.7M102.21 12.91v94.7M114.69 12.91v94.7M127.16 12.91v94.7M139.63 12.91v94.7M152.1 12.91v94.7M164.58 12.91v94.7M177.05 12.91v94.7M189.52 12.91v94.7M201.99 12.91v94.7M214.47 12.91v94.7M226.94 12.91v94.7"/></g><g class="plotpanel"><g class="geometry"><use xlink:href="#b" x="31.54" y="17.22" stroke="#B58486" fill="#FE4365" class="color_Democratic-Republican"/><use xlink:href="#b" x="31.54" y="104.67" stroke="#B58486" fill="#FE4365" class="color_Democratic-Republican"/><use xlink:href="#b" x="31.54" y="105.61" stroke="#B58486" fill="#FE4365" class="color_Democratic-Republican"/><use xlink:href="#b" x="31.54" y="104.25" stroke="#B58486" fill="#FE4365" class="color_Democratic-Republican"/><use xlink:href="#b" x="31.54" y="105.61" stroke="#AA8B71" fill="#ECA25C" class="color_-"/><use xlink:href="#b" x="35.69" y="19.28" stroke="#6D9A87" fill="#3F9778" class="color_Democratic"/><use xlink:href="#b" x="35.69" y="101.25" stroke="#9B8AAB" fill="#EEDBFF" class="color_Nat'l_Republican"/><use xlink:href="#b" x="35.69" y="105.61" stroke="#AA8B71" fill="#ECA25C" class="color_-"/><use xlink:href="#b" x="39.85" y="19.06" stroke="#6D9A87" fill="#3F9778" class="color_Democratic"/><use xlink:href="#b" x="39.85" y="101.46" stroke="#9B8AAB" fill="#EEDBFF" class="color_Nat'l_Republican"/><use xlink:href="#b" x="39.85" y="105.61" stroke="#7C92B3" fill="#236EAD" class="color_Anti-Masonic"/><use xlink:href="#b" x="39.85" y="105.61" stroke="#AA8B71" fill="#ECA25C" class="color_-"/><use xlink:href="#b" x="44.01" y="67.45" stroke="#6D9A87" fill="#3F9778" class="color_Democratic"/><use xlink:href="#b" x="44.01" y="105.61" stroke="#5F9A9E" fill="#60F6FF" class="color_Whig"/><use xlink:href="#b" x="44.01" y="53.07" stroke="#5F9A9E" fill="#60F6FF" class="color_Whig"/><use xlink:href="#b" x="44.01" y="105.61" stroke="#5F9A9E" fill="#60F6FF" class="color_Whig"/><use xlink:href="#b" x="44.01" y="105.61" stroke="#AA8B71" fill="#ECA25C" class="color_-"/><use xlink:href="#b" x="48.17" y="55.13" stroke="#5F9A9E" fill="#60F6FF" class="color_Whig"/><use xlink:href="#b" x="48.17" y="65.4" stroke="#6D9A87" fill="#3F9778" class="color_Democratic"/><use xlink:href="#b" x="48.17" y="105.61" stroke="#AA8B71" fill="#ECA25C" class="color_-"/><use xlink:href="#b" x="52.32" y="60.31" stroke="#6D9A87" fill="#3F9778" class="color_Democratic"/><use xlink:href="#b" x="52.32" y="60.21" stroke="#5F9A9E" fill="#60F6FF" class="color_Whig"/><use xlink:href="#b" x="52.32" y="105.61" stroke="#8B9572" fill="#D4EC9F" class="color_Liberty"/><use xlink:href="#b" x="52.32" y="105.61" stroke="#AA8B71" fill="#ECA25C" class="color_-"/><use xlink:href="#b" x="56.48" y="57.97" stroke="#5F9A9E" fill="#60F6FF" class="color_Whig"/><use xlink:href="#b" x="56.48" y="62.55" stroke="#6D9A87" fill="#3F9778" class="color_Democratic"/><use xlink:href="#b" x="56.48" y="105.61" stroke="#A68D6F" fill="#7E674B" class="color_Free_Soil"/><use xlink:href="#b" x="56.48" y="105.61" stroke="#AA8B71" fill="#ECA25C" class="color_-"/><use xlink:href="#b" x="60.64" y="60.92" stroke="#6D9A87" fill="#3F9778" class="color_Democratic"/><use xlink:href="#b" x="60.64" y="59.6" stroke="#5F9A9E" fill="#60F6FF" class="color_Whig"/><use xlink:href="#b" x="60.64" y="105.61" stroke="#A68D6F" fill="#7E674B" class="color_Free_Soil"/><use xlink:href="#b" x="60.64" y="105.61" stroke="#AA8B71" fill="#ECA25C" class="color_-"/><use xlink:href="#b" x="64.8" y="58.28" stroke="#6D9A87" fill="#3F9778" class="color_Democratic"/><use xlink:href="#b" x="64.8" y="105.61" stroke="#AA8B71" fill="#ECA25C" class="color_-"/><use xlink:href="#b" x="64.8" y="62.24" stroke="#9B8AAC" fill="#9E7EC1" class="color_Whig-American"/><use xlink:href="#b" x="64.8" y="105.61" stroke="#AA8B71" fill="#ECA25C" class="color_-"/><use xlink:href="#b" x="68.95" y="105.61" stroke="#7C92B3" fill="#7CB5FB" class="color_Republican"/><use xlink:href="#b" x="68.95" y="98.61" stroke="#6D9A87" fill="#3F9778" class="color_Democratic"/><use xlink:href="#b" x="68.95" y="65.2" stroke="#AA8B71" fill="#ECA25C" class="color_-"/><use xlink:href="#b" x="68.95" y="62.33" stroke="#5F9AA3" fill="#009DAD" class="color_Constitutional_Union"/><use xlink:href="#b" x="68.95" y="105.61" stroke="#AA8B71" fill="#ECA25C" class="color_-"/><use xlink:href="#b" x="77.27" y="43.55" stroke="#7C92B3" fill="#7CB5FB" class="color_Republican"/><use xlink:href="#b" x="77.27" y="76.97" stroke="#6D9A87" fill="#3F9778" class="color_Democratic"/><use xlink:href="#b" x="77.27" y="105.61" stroke="#AA8B71" fill="#ECA25C" class="color_-"/><use xlink:href="#b" x="81.43" y="62.22" stroke="#7C92B3" fill="#7CB5FB" class="color_Republican"/><use xlink:href="#b" x="81.43" y="58.3" stroke="#6D9A87" fill="#3F9778" class="color_Democratic"/><use xlink:href="#b" x="81.43" y="105.61" stroke="#AA8B71" fill="#ECA25C" class="color_-"/><use xlink:href="#b" x="85.58" y="51.38" stroke="#6D9A87" fill="#3F9778" class="color_Democratic"/><use xlink:href="#b" x="85.58" y="69.14" stroke="#7C92B3" fill="#7CB5FB" class="color_Republican"/><use xlink:href="#b" x="85.58" y="105.61" stroke="#AA8B71" fill="#ECA25C" class="color_-"/><use xlink:href="#b" x="89.74" y="65.46" stroke="#7C92B3" fill="#7CB5FB" class="color_Republican"/><use xlink:href="#b" x="89.74" y="57.3" stroke="#6D9A87" fill="#3F9778" class="color_Democratic"/><use xlink:href="#b" x="89.74" y="103.37" stroke="#B3867D" fill="#AE8178" class="color_Greenback"/><use xlink:href="#b" x="89.74" y="105.61" stroke="#AA8B71" fill="#ECA25C" class="color_-"/><use xlink:href="#b" x="93.9" y="58.94" stroke="#6D9A87" fill="#3F9778" class="color_Democratic"/><use xlink:href="#b" x="93.9" y="62.32" stroke="#7C92B3" fill="#7CB5FB" class="color_Republican"/><use xlink:href="#b" x="93.9" y="104.88" stroke="#AA8B71" fill="#ECA25C" class="color_-"/><use xlink:href="#b" x="98.06" y="58.21" stroke="#6D9A87" fill="#3F9778" class="color_Democratic"/><use xlink:href="#b" x="98.06" y="64.1" stroke="#7C92B3" fill="#7CB5FB" class="color_Republican"/><use xlink:href="#b" x="98.06" y="103.83" stroke="#AE8974" fill="#FFD9C5" class="color_Prohibition"/><use xlink:href="#b" x="98.06" y="105.6" stroke="#AA8B71" fill="#ECA25C" class="color_-"/><use xlink:href="#b" x="102.21" y="59.03" stroke="#6D9A87" fill="#3F9778" class="color_Democratic"/><use xlink:href="#b" x="102.21" y="71.3" stroke="#7C92B3" fill="#7CB5FB" class="color_Republican"/><use xlink:href="#b" x="102.21" y="97.45" stroke="#8B9572" fill="#5C722E" class="color_Populist"/><use xlink:href="#b" x="102.21" y="103.97" stroke="#AE8974" fill="#FFD9C5" class="color_Prohibition"/><use xlink:href="#b" x="102.21" y="105.61" stroke="#AA8B71" fill="#ECA25C" class="color_-"/><use xlink:href="#b" x="106.37" y="63.59" stroke="#7C92B3" fill="#7CB5FB" class="color_Republican"/><use xlink:href="#b" x="106.37" y="58.36" stroke="#6D9A87" fill="#3F9778" class="color_Democratic"/><use xlink:href="#b" x="106.37" y="104.18" stroke="#AA8B71" fill="#ECA25C" class="color_-"/><use xlink:href="#b" x="110.53" y="64.84" stroke="#7C92B3" fill="#7CB5FB" class="color_Republican"/><use xlink:href="#b" x="110.53" y="57.51" stroke="#6D9A87" fill="#3F9778" class="color_Democratic"/><use xlink:href="#b" x="110.53" y="103.79" stroke="#AA8B71" fill="#ECA25C" class="color_-"/><use xlink:href="#b" x="114.69" y="66.24" stroke="#7C92B3" fill="#7CB5FB" class="color_Republican"/><use xlink:href="#b" x="114.69" y="56.42" stroke="#6D9A87" fill="#3F9778" class="color_Democratic"/><use xlink:href="#b" x="114.69" y="105.11" stroke="#669B90" fill="#86BCB1" class="color_Socialist"/><use xlink:href="#b" x="114.69" y="103.98" stroke="#AA8B71" fill="#ECA25C" class="color_-"/><use xlink:href="#b" x="118.84" y="64" stroke="#7C92B3" fill="#7CB5FB" class="color_Republican"/><use xlink:href="#b" x="118.84" y="57.79" stroke="#6D9A87" fill="#3F9778" class="color_Democratic"/><use xlink:href="#b" x="118.84" y="104.95" stroke="#669B90" fill="#86BCB1" class="color_Socialist"/><use xlink:href="#b" x="118.84" y="105" stroke="#AA8B71" fill="#ECA25C" class="color_-"/><use xlink:href="#b" x="123" y="57.72" stroke="#6D9A87" fill="#3F9778" class="color_Democratic"/><use xlink:href="#b" x="123" y="86.16" stroke="#9B8AAC" fill="#746484" class="color_Progressive"/><use xlink:href="#b" x="123" y="83.84" stroke="#7C92B3" fill="#7CB5FB" class="color_Republican"/><use xlink:href="#b" x="123" y="104.33" stroke="#669B90" fill="#86BCB1" class="color_Socialist"/><use xlink:href="#b" x="123" y="105.31" stroke="#AA8B71" fill="#ECA25C" class="color_-"/><use xlink:href="#b" x="127.16" y="54.53" stroke="#6D9A87" fill="#3F9778" class="color_Democratic"/><use xlink:href="#b" x="127.16" y="66.88" stroke="#7C92B3" fill="#7CB5FB" class="color_Republican"/><use xlink:href="#b" x="127.16" y="104.77" stroke="#669B90" fill="#86BCB1" class="color_Socialist"/><use xlink:href="#b" x="127.16" y="105.56" stroke="#AA8B71" fill="#ECA25C" class="color_-"/><use xlink:href="#b" x="131.32" y="59.09" stroke="#7C92B3" fill="#7CB5FB" class="color_Republican"/><use xlink:href="#b" x="131.32" y="61.9" stroke="#6D9A87" fill="#3F9778" class="color_Democratic"/><use xlink:href="#b" x="131.32" y="105.14" stroke="#669B90" fill="#86BCB1" class="color_Socialist"/><use xlink:href="#b" x="131.32" y="105.61" stroke="#AA8B71" fill="#ECA25C" class="color_-"/><use xlink:href="#b" x="135.47" y="66.12" stroke="#7C92B3" fill="#7CB5FB" class="color_Republican"/><use xlink:href="#b" x="135.47" y="57.67" stroke="#6D9A87" fill="#3F9778" class="color_Democratic"/><use xlink:href="#b" x="135.47" y="102.41" stroke="#9B8AAC" fill="#746484" class="color_Progressive"/><use xlink:href="#b" x="135.47" y="105.55" stroke="#AA8B71" fill="#ECA25C" class="color_-"/><use xlink:href="#b" x="139.63" y="56.85" stroke="#7C92B3" fill="#7CB5FB" class="color_Republican"/><use xlink:href="#b" x="139.63" y="63.85" stroke="#6D9A87" fill="#3F9778" class="color_Democratic"/><use xlink:href="#b" x="139.63" y="105.43" stroke="#AA8B71" fill="#ECA25C" class="color_-"/><use xlink:href="#b" x="143.79" y="45.31" stroke="#6D9A87" fill="#3F9778" class="color_Democratic"/><use xlink:href="#b" x="143.79" y="76.15" stroke="#7C92B3" fill="#7CB5FB" class="color_Republican"/><use xlink:href="#b" x="143.79" y="105.2" stroke="#669B90" fill="#86BCB1" class="color_Socialist"/><use xlink:href="#b" x="143.79" y="105.09" stroke="#AA8B71" fill="#ECA25C" class="color_-"/><use xlink:href="#b" x="147.95" y="43.23" stroke="#6D9A87" fill="#3F9778" class="color_Democratic"/><use xlink:href="#b" x="147.95" y="77.67" stroke="#7C92B3" fill="#7CB5FB" class="color_Republican"/><use xlink:href="#b" x="147.95" y="105.24" stroke="#AA8B71" fill="#ECA25C" class="color_-"/><use xlink:href="#b" x="152.1" y="44.61" stroke="#6D9A87" fill="#3F9778" class="color_Democratic"/><use xlink:href="#b" x="152.1" y="76.27" stroke="#7C92B3" fill="#7CB5FB" class="color_Republican"/><use xlink:href="#b" x="152.1" y="105.25" stroke="#AA8B71" fill="#ECA25C" class="color_-"/><use xlink:href="#b" x="156.26" y="50.78" stroke="#6D9A87" fill="#3F9778" class="color_Democratic"/><use xlink:href="#b" x="156.26" y="70.04" stroke="#7C92B3" fill="#7CB5FB" class="color_Republican"/><use xlink:href="#b" x="156.26" y="105.32" stroke="#AA8B71" fill="#ECA25C" class="color_-"/><use xlink:href="#b" x="160.42" y="61.04" stroke="#6D9A87" fill="#3F9778" class="color_Democratic"/><use xlink:href="#b" x="160.42" y="72.17" stroke="#7C92B3" fill="#7CB5FB" class="color_Republican"/><use xlink:href="#b" x="160.42" y="93.45" stroke="#B4867D" fill="#A55246" class="color_State's_Rights"/><use xlink:href="#b" x="160.42" y="105.31" stroke="#9B8AAC" fill="#746484" class="color_Progressive"/><use xlink:href="#b" x="160.42" y="105.4" stroke="#AA8B71" fill="#ECA25C" class="color_-"/><use xlink:href="#b" x="164.58" y="60.27" stroke="#7C92B3" fill="#7CB5FB" class="color_Republican"/><use xlink:href="#b" x="164.58" y="60.52" stroke="#6D9A87" fill="#3F9778" class="color_Democratic"/><use xlink:href="#b" x="164.58" y="105.34" stroke="#AA8B71" fill="#ECA25C" class="color_-"/><use xlink:href="#b" x="168.73" y="60.98" stroke="#7C92B3" fill="#7CB5FB" class="color_Republican"/><use xlink:href="#b" x="168.73" y="61.54" stroke="#6D9A87" fill="#3F9778" class="color_Democratic"/><use xlink:href="#b" x="168.73" y="103.62" stroke="#AA8B71" fill="#ECA25C" class="color_-"/><use xlink:href="#b" x="172.89" y="64.09" stroke="#6D9A87" fill="#3F9778" class="color_Democratic"/><use xlink:href="#b" x="172.89" y="57.62" stroke="#7C92B3" fill="#7CB5FB" class="color_Republican"/><use xlink:href="#b" x="172.89" y="104.43" stroke="#AA8B71" fill="#ECA25C" class="color_-"/><use xlink:href="#b" x="177.05" y="55.27" stroke="#6D9A87" fill="#3F9778" class="color_Democratic"/><use xlink:href="#b" x="177.05" y="65.26" stroke="#7C92B3" fill="#7CB5FB" class="color_Republican"/><use xlink:href="#b" x="177.05" y="105.61" stroke="#AA8B71" fill="#ECA25C" class="color_-"/><use xlink:href="#b" x="181.21" y="71.28" stroke="#7C92B3" fill="#7CB5FB" class="color_Republican"/><use xlink:href="#b" x="181.21" y="80.1" stroke="#6D9A87" fill="#3F9778" class="color_Democratic"/><use xlink:href="#b" x="181.21" y="74.75" stroke="#5F9AA2" fill="#37737B" class="color_American_Ind."/><use xlink:href="#b" x="181.21" y="105.61" stroke="#AA8B71" fill="#ECA25C" class="color_-"/><use xlink:href="#b" x="185.36" y="44.21" stroke="#7C92B3" fill="#7CB5FB" class="color_Republican"/><use xlink:href="#b" x="185.36" y="78.63" stroke="#6D9A87" fill="#3F9778" class="color_Democratic"/><use xlink:href="#b" x="185.36" y="103.29" stroke="#AA8B71" fill="#ECA25C" class="color_-"/><use xlink:href="#b" x="189.52" y="54.87" stroke="#6D9A87" fill="#3F9778" class="color_Democratic"/><use xlink:href="#b" x="189.52" y="66.66" stroke="#7C92B3" fill="#7CB5FB" class="color_Republican"/><use xlink:href="#b" x="189.52" y="104.6" stroke="#AA8B71" fill="#ECA25C" class="color_-"/><use xlink:href="#b" x="193.68" y="61.44" stroke="#7C92B3" fill="#7CB5FB" class="color_Republican"/><use xlink:href="#b" x="193.68" y="61.71" stroke="#6D9A87" fill="#3F9778" class="color_Democratic"/><use xlink:href="#b" x="193.68" y="103.59" stroke="#8B9572" fill="#86906D" class="color_Independent"/><use xlink:href="#b" x="193.68" y="105.01" stroke="#AA8B71" fill="#ECA25C" class="color_-"/><use xlink:href="#b" x="197.84" y="53.15" stroke="#7C92B3" fill="#7CB5FB" class="color_Republican"/><use xlink:href="#b" x="197.84" y="67.91" stroke="#6D9A87" fill="#3F9778" class="color_Democratic"/><use xlink:href="#b" x="197.84" y="105.08" stroke="#AA8B71" fill="#ECA25C" class="color_-"/><use xlink:href="#b" x="201.99" y="53.1" stroke="#7C92B3" fill="#7CB5FB" class="color_Republican"/><use xlink:href="#b" x="201.99" y="67.93" stroke="#6D9A87" fill="#3F9778" class="color_Democratic"/><use xlink:href="#b" x="201.99" y="105.1" stroke="#AA8B71" fill="#ECA25C" class="color_-"/><use xlink:href="#b" x="206.15" y="62.91" stroke="#6D9A87" fill="#3F9778" class="color_Democratic"/><use xlink:href="#b" x="206.15" y="67.12" stroke="#7C92B3" fill="#7CB5FB" class="color_Republican"/><use xlink:href="#b" x="206.15" y="96.46" stroke="#8B9572" fill="#86906D" class="color_Independent"/><use xlink:href="#b" x="206.15" y="105.25" stroke="#AA8B71" fill="#ECA25C" class="color_-"/><use xlink:href="#b" x="210.31" y="62.08" stroke="#6D9A87" fill="#3F9778" class="color_Democratic"/><use xlink:href="#b" x="210.31" y="64.26" stroke="#7C92B3" fill="#7CB5FB" class="color_Republican"/><use xlink:href="#b" x="210.31" y="100.54" stroke="#7694B3" fill="#CDE4FF" class="color_Reform"/><use xlink:href="#b" x="210.31" y="104.87" stroke="#AA8B71" fill="#ECA25C" class="color_-"/><use xlink:href="#b" x="214.47" y="62.72" stroke="#6D9A87" fill="#3F9778" class="color_Democratic"/><use xlink:href="#b" x="214.47" y="59.22" stroke="#7C92B3" fill="#7CB5FB" class="color_Republican"/><use xlink:href="#b" x="214.47" y="104.75" stroke="#B4867D" fill="#F69A8A" class="color_Green"/><use xlink:href="#b" x="214.47" y="105.06" stroke="#AA8B71" fill="#ECA25C" class="color_-"/><use xlink:href="#b" x="218.62" y="54.08" stroke="#7C92B3" fill="#7CB5FB" class="color_Republican"/><use xlink:href="#b" x="218.62" y="67.05" stroke="#6D9A87" fill="#3F9778" class="color_Democratic"/><use xlink:href="#b" x="218.62" y="105" stroke="#AA8B71" fill="#ECA25C" class="color_-"/><use xlink:href="#b" x="222.78" y="67.71" stroke="#6D9A87" fill="#3F9778" class="color_Democratic"/><use xlink:href="#b" x="222.78" y="54.05" stroke="#7C92B3" fill="#7CB5FB" class="color_Republican"/><use xlink:href="#b" x="222.78" y="104.38" stroke="#AA8B71" fill="#ECA25C" class="color_-"/><use xlink:href="#b" x="226.94" y="70.2" stroke="#6D9A87" fill="#3F9778" class="color_Democratic"/><use xlink:href="#b" x="226.94" y="51.71" stroke="#7C92B3" fill="#7CB5FB" class="color_Republican"/><use xlink:href="#b" x="226.94" y="104.22" stroke="#AA8B71" fill="#ECA25C" class="color_-"/></g><g fill-opacity="0"><path fill="none" d="M35.69 19.28l4.16-.22 4.16 48.39 4.16-2.05 4.15-5.09 4.16 2.24 4.16-1.63 4.16-2.64 4.15 40.33 8.32-21.64 4.16-18.67 4.15-6.92 4.16 5.92 4.16 1.64 4.16-.73 4.15.82 4.16-.67 4.16-.85 4.16-1.09 4.15 1.37 4.16-.07 4.16-3.19 4.16 7.37 4.15-4.23 4.16 6.18 4.16-18.54 4.16-2.08 4.15 1.38 4.16 6.17 4.16 10.26 4.16-.52 4.15 1.02 4.16 2.55 4.16-8.82 4.16 24.83 4.15-1.47 4.16-23.76 4.16 6.84 4.16 6.2 4.15.02 4.16-5.02 4.16-.83 4.16.64 4.15 4.33 4.16.66 4.16 2.49" stroke="#3F9778" class="geometry color_Democratic"/><path fill="none" d="M44.01 105.61V53.07v52.54l4.16-50.48 4.15 5.08 4.16-2.24 4.16 1.63" stroke="#60F6FF" class="geometry color_Whig"/><path fill="none" d="M123 86.16l12.47 16.25 24.95 2.9" stroke="#746484" class="geometry color_Progressive"/><path fill="none" d="M68.95 105.61l8.32-62.06 4.16 18.67 4.15 6.92 4.16-3.68 4.16-3.14 4.16 1.78 4.15 7.2 4.16-7.71 4.16 1.25 4.16 1.4 4.15-2.24L123 83.84l4.16-16.96 4.16-7.79 4.15 7.03 4.16-9.27 4.16 19.3 4.16 1.52 4.15-1.4 4.16-6.23 4.16 2.13 4.16-11.9 4.15.71 4.16-3.36 4.16 7.64 4.16 6.02 4.15-27.07 4.16 22.45 4.16-5.22 4.16-8.29 4.15-.05 4.16 14.02 4.16-2.86 4.16-5.04 4.15-5.14 4.16-.03 4.16-2.34" stroke="#7CB5FB" class="geometry color_Republican"/><path fill="none" d="M56.48 105.61h4.16" stroke="#7E674B" class="geometry color_Free_Soil"/><path fill="none" d="M193.68 103.59l12.47-7.13" stroke="#86906D" class="geometry color_Independent"/><path fill="none" d="M114.69 105.11l4.15-.16 4.16-.62 4.16.44 4.16.37 12.47.06" stroke="#86BCB1" class="geometry color_Socialist"/><path fill="none" d="M31.54 105.61H64.8l4.15-40.41v40.41H89.74l4.16-.73 4.16.72 4.15.01 4.16-1.43 4.16-.39 4.16.19 4.15 1.02 4.16.31 4.16.25 4.16.05 4.15-.06 4.16-.12 4.16-.34 4.16.15 4.15.01 4.16.07 4.16.08 4.16-.06 4.15-1.72 4.16.81 4.16 1.18h4.16l4.15-2.32 4.16 1.31 4.16.41 4.16.07 4.15.02 4.16.15 4.16-.38 4.16.19 4.15-.06 4.16-.62 4.16-.16" stroke="#ECA25C" class="geometry color_-"/><path fill="none" d="M35.69 101.25l4.16.21" stroke="#EEDBFF" class="geometry color_Nat'l_Republican"/><path fill="none" d="M31.54 17.22v88.39-1.36" stroke="#FE4365" class="geometry color_Democratic-Republican"/><path fill="none" d="M98.06 103.83l4.15.14" stroke="#FFD9C5" class="geometry color_Prohibition"/></g></g></g><g class="guide ylabels" font-size="4.76" font-family="'PT Sans Caption','Helvetica Neue','Helvetica',sans-serif" fill="#A1A1A1" text-anchor="end"><text x="24.38" y="105.61" dy=".35em">0</text><text x="24.38" y="82.94" dy=".35em">25</text><text x="24.38" y="60.26" dy=".35em">50</text><text x="24.38" y="37.59" dy=".35em">75</text><text x="24.38" y="14.91" dy=".35em">100</text></g><text x="9.95" y="58.26" text-anchor="middle" dy=".35em" transform="rotate(-90 9.95 60.26)" font-size="6.35" font-family="'PT Sans','Helvetica Neue','Helvetica',sans-serif" fill="#A1A1A1" stroke="#000" stroke-opacity="0">Popular Vote (%)</text><text x="129.24" y="5" text-anchor="middle" dy=".6em" font-size="6.35" font-family="'PT Sans','Helvetica Neue','Helvetica',sans-serif" fill="#A1A1A1" stroke="#000" stroke-opacity="0">Tennessee</text></g><defs><clipPath id="a"><path d="M25.38 12.91H233.1v94.7H25.38"/></clipPath><circle r=".9" id="b"/></defs></svg>