<svg xmlns="http://www.w3.org/2000/svg" xmlns:xlink="http://www.w3.org/1999/xlink" version="1.2" width="238.1mm" height="599.924" viewBox="0 0 238.1 158.73" stroke-width=".3" font-size="3.88"><path d="M0 0h238.1v158.73H0z" stroke="#000" stroke-opacity="0" fill="#222831"/><g class="plotroot xscalable yscalable"><g class="guide colorkey"><g fill="#A1A1A1" font-size="3.7" font-family="'PT Sans','Helvetica Neue','Helvetica',sans-serif"><text x="165.65" y="139.88" dy=".35em" class="color_Reform">Reform</text><text x="165.65" y="144.33" dy=".35em" class="color_Green">Green</text></g><g stroke="#000" stroke-opacity="0"><path fill="#746484" class="color_Reform" d="M162.42 138.77h2.22v2.22h-2.22z"/><path fill="#A55246" class="color_Green" d="M162.42 143.22h2.22v2.22h-2.22z"/></g><g fill="#A1A1A1" font-size="3.7" font-family="'PT Sans','Helvetica Neue','Helvetica',sans-serif"><text x="139.71" y="139.88" dy=".35em" class="color_State's_Rights">State&amp;apos;s Rights</text><text x="139.71" y="144.33" dy=".35em" class="color_American_Ind.">American Ind.</text><text x="139.71" y="148.78" dy=".35em" class="color_Independent">Independent</text></g><g stroke="#000" stroke-opacity="0"><path fill="#FFD9C5" class="color_State's_Rights" d="M136.48 138.77h2.22v2.22h-2.22z"/><path fill="#5C722E" class="color_American_Ind." d="M136.48 143.22h2.22v2.22h-2.22z"/><path fill="#86BCB1" class="color_Independent" d="M136.48 147.66h2.22v2.22h-2.22z"/></g><g fill="#A1A1A1" font-size="3.7" font-family="'PT Sans','Helvetica Neue','Helvetica',sans-serif"><text x="117.27" y="139.88" dy=".35em" class="color_Populist">Populist</text><text x="117.27" y="144.33" dy=".35em" class="color_Socialist">Socialist</text><text x="117.27" y="148.78" dy=".35em" class="color_Progressive">Progressive</text></g><g stroke="#000" stroke-opacity="0"><path fill="#7CB5FB" class="color_Populist" d="M114.05 138.77h2.22v2.22h-2.22z"/><path fill="#009DAD" class="color_Socialist" d="M114.05 143.22h2.22v2.22h-2.22z"/><path fill="#AE8178" class="color_Progressive" d="M114.05 147.66h2.22v2.22h-2.22z"/></g><g fill="#A1A1A1" font-size="3.7" font-family="'PT Sans','Helvetica Neue','Helvetica',sans-serif"><text x="80.26" y="139.88" dy=".35em" class="color_Constitutional_Union">Constitutional Union</text><text x="80.26" y="144.33" dy=".35em" class="color_Greenback">Greenback</text><text x="80.26" y="148.78" dy=".35em" class="color_Prohibition">Prohibition</text></g><g stroke="#000" stroke-opacity="0"><path fill="#D4EC9F" class="color_Constitutional_Union" d="M77.04 138.77h2.22v2.22h-2.22z"/><path fill="#7E674B" class="color_Greenback" d="M77.04 143.22h2.22v2.22h-2.22z"/><path fill="#9E7EC1" class="color_Prohibition" d="M77.04 147.66h2.22v2.22h-2.22z"/></g><g fill="#A1A1A1" font-size="3.7" font-family="'PT Sans','Helvetica Neue','Helvetica',sans-serif"><text x="51.81" y="139.88" dy=".35em" class="color_-">-</text><text x="51.81" y="144.33" dy=".35em" class="color_Whig-American">Whig-American</text><text x="51.81" y="148.78" dy=".35em" class="color_Republican">Republican</text></g><g stroke="#000" stroke-opacity="0"><path fill="#EEDBFF" class="color_-" d="M48.59 138.77h2.22v2.22h-2.22z"/><path fill="#236EAD" class="color_Whig-American" d="M48.59 143.22h2.22v2.22h-2.22z"/><path fill="#60F6FF" class="color_Republican" d="M48.59 147.66h2.22v2.22h-2.22z"/></g><g fill="#A1A1A1" font-size="3.7" font-family="'PT Sans','Helvetica Neue','Helvetica',sans-serif"><text x="29.6" y="139.88" dy=".35em" class="color_Whig">Whig</text><text x="29.6" y="144.33" dy=".35em" class="color_Democratic">Democratic</text><text x="29.6" y="148.78" dy=".35em" class="color_Free_Soil">Free Soil</text></g><g stroke="#000" stroke-opacity="0"><path fill="#FE4365" class="color_Whig" d="M26.38 138.77h2.22v2.22h-2.22z"/><path fill="#ECA25C" class="color_Democratic" d="M26.38 143.22h2.22v2.22h-2.22z"/><path fill="#3F9778" class="color_Free_Soil" d="M26.38 147.66h2.22v2.22h-2.22z"/></g><text x="26.38" y="136.39" fill="#FFF" font-size="6.35" font-family="'PT Sans','Helvetica Neue','Helvetica',sans-serif" stroke="#000" stroke-opacity="0">Party</text></g><text x="129.24" y="121.57" text-anchor="middle" dy=".6em" font-size="6.35" font-family="'PT Sans','Helvetica Neue','Helvetica',sans-serif" fill="#A1A1A1" stroke="#000" stroke-opacity="0">Year</text><g class="guide xlabels" font-size="4.76" font-family="'PT Sans Caption','Helvetica Neue','Helvetica',sans-serif" fill="#A1A1A1" text-anchor="middle"><text x="27.38" y="113.06" dy=".6em">1844</text><text x="41.59" y="113.06" dy=".6em">1856</text><text x="55.8" y="113.06" dy=".6em">1868</text><text x="70.02" y="113.06" dy=".6em">1880</text><text x="84.23" y="113.06" dy=".6em">1892</text><text x="98.44" y="113.06" dy=".6em">1904</text><text x="112.66" y="113.06" dy=".6em">1916</text><text x="126.87" y="113.06" dy=".6em">1928</text><text x="141.08" y="113.06" dy=".6em">1940</text><text x="155.29" y="113.06" dy=".6em">1952</text><text x="169.51" y="113.06" dy=".6em">1964</text><text x="183.72" y="113.06" dy=".6em">1976</text><text x="197.93" y="113.06" dy=".6em">1988</text><text x="212.14" y="113.06" dy=".6em">2000</text><text x="226.36" y="113.06" dy=".6em">2012</text></g><g clip-path="url(#a)"><path d="M25.38 12.91H233.1v99.15H25.38z" pointer-events="visible" fill="#222831" stroke="#000" stroke-opacity="0" class="guide background"/><g class="guide ygridlines xfixed" stroke-dasharray="0.5,0.5" stroke-width=".2" stroke="#575757" fill="none"><path d="M25.38 110.06H233.1M25.38 86.27H233.1M25.38 62.48H233.1M25.38 38.7H233.1M25.38 14.91H233.1"/></g><g class="guide xgridlines yfixed" stroke-dasharray="0.5,0.5" stroke-width=".2" stroke="#575757" fill="none"><path d="M27.38 12.91v99.15M41.59 12.91v99.15M55.8 12.91v99.15M70.02 12.91v99.15M84.23 12.91v99.15M98.44 12.91v99.15M112.66 12.91v99.15M126.87 12.91v99.15M141.08 12.91v99.15M155.29 12.91v99.15M169.51 12.91v99.15M183.72 12.91v99.15M197.93 12.91v99.15M212.14 12.91v99.15M226.36 12.91v99.15"/></g><g class="plotpanel"><g class="geometry"><use xlink:href="#b" x="32.12" y="76.66" stroke="#B58486" fill="#FE4365" class="color_Whig"/><use xlink:href="#b" x="32.12" y="73.62" stroke="#AA8B71" fill="#ECA25C" class="color_Democratic"/><use xlink:href="#b" x="32.12" y="84.75" stroke="#6D9A87" fill="#3F9778" class="color_Free_Soil"/><use xlink:href="#b" x="32.12" y="110.06" stroke="#9B8AAB" fill="#EEDBFF" class="color_-"/><use xlink:href="#b" x="36.85" y="60.55" stroke="#AA8B71" fill="#ECA25C" class="color_Democratic"/><use xlink:href="#b" x="36.85" y="77.39" stroke="#B58486" fill="#FE4365" class="color_Whig"/><use xlink:href="#b" x="36.85" y="97.09" stroke="#6D9A87" fill="#3F9778" class="color_Free_Soil"/><use xlink:href="#b" x="36.85" y="110.06" stroke="#9B8AAB" fill="#EEDBFF" class="color_-"/><use xlink:href="#b" x="41.59" y="67.99" stroke="#AA8B71" fill="#ECA25C" class="color_Democratic"/><use xlink:href="#b" x="41.59" y="57.44" stroke="#9B8AAB" fill="#EEDBFF" class="color_-"/><use xlink:href="#b" x="41.59" y="109.6" stroke="#7C92B3" fill="#236EAD" class="color_Whig-American"/><use xlink:href="#b" x="41.59" y="110.06" stroke="#9B8AAB" fill="#EEDBFF" class="color_-"/><use xlink:href="#b" x="46.33" y="56.22" stroke="#5F9A9E" fill="#60F6FF" class="color_Republican"/><use xlink:href="#b" x="46.33" y="69.41" stroke="#AA8B71" fill="#ECA25C" class="color_Democratic"/><use xlink:href="#b" x="46.33" y="109.5" stroke="#9B8AAB" fill="#EEDBFF" class="color_-"/><use xlink:href="#b" x="46.33" y="109.96" stroke="#8B9572" fill="#D4EC9F" class="color_Constitutional_Union"/><use xlink:href="#b" x="46.33" y="110.06" stroke="#9B8AAB" fill="#EEDBFF" class="color_-"/><use xlink:href="#b" x="51.07" y="56.89" stroke="#5F9A9E" fill="#60F6FF" class="color_Republican"/><use xlink:href="#b" x="51.07" y="68.08" stroke="#AA8B71" fill="#ECA25C" class="color_Democratic"/><use xlink:href="#b" x="51.07" y="110.06" stroke="#9B8AAB" fill="#EEDBFF" class="color_-"/><use xlink:href="#b" x="55.8" y="56.54" stroke="#5F9A9E" fill="#60F6FF" class="color_Republican"/><use xlink:href="#b" x="55.8" y="68.43" stroke="#AA8B71" fill="#ECA25C" class="color_Democratic"/><use xlink:href="#b" x="55.8" y="110.06" stroke="#9B8AAB" fill="#EEDBFF" class="color_-"/><use xlink:href="#b" x="60.54" y="58.11" stroke="#5F9A9E" fill="#60F6FF" class="color_Republican"/><use xlink:href="#b" x="60.54" y="67.27" stroke="#AA8B71" fill="#ECA25C" class="color_Democratic"/><use xlink:href="#b" x="60.54" y="109.65" stroke="#9B8AAB" fill="#EEDBFF" class="color_-"/><use xlink:href="#b" x="65.28" y="64.21" stroke="#AA8B71" fill="#ECA25C" class="color_Democratic"/><use xlink:href="#b" x="65.28" y="61.94" stroke="#5F9A9E" fill="#60F6FF" class="color_Republican"/><use xlink:href="#b" x="65.28" y="108.88" stroke="#9B8AAB" fill="#EEDBFF" class="color_-"/><use xlink:href="#b" x="70.02" y="58.64" stroke="#5F9A9E" fill="#60F6FF" class="color_Republican"/><use xlink:href="#b" x="70.02" y="69.23" stroke="#AA8B71" fill="#ECA25C" class="color_Democratic"/><use xlink:href="#b" x="70.02" y="107.22" stroke="#A68D6F" fill="#7E674B" class="color_Greenback"/><use xlink:href="#b" x="70.02" y="110" stroke="#9B8AAB" fill="#EEDBFF" class="color_-"/><use xlink:href="#b" x="74.76" y="66.49" stroke="#AA8B71" fill="#ECA25C" class="color_Democratic"/><use xlink:href="#b" x="74.76" y="62.12" stroke="#5F9A9E" fill="#60F6FF" class="color_Republican"/><use xlink:href="#b" x="74.76" y="106.42" stroke="#9B8AAB" fill="#EEDBFF" class="color_-"/><use xlink:href="#b" x="79.49" y="68.41" stroke="#AA8B71" fill="#ECA25C" class="color_Democratic"/><use xlink:href="#b" x="79.49" y="62.69" stroke="#5F9A9E" fill="#60F6FF" class="color_Republican"/><use xlink:href="#b" x="79.49" y="106.23" stroke="#9B8AAC" fill="#9E7EC1" class="color_Prohibition"/><use xlink:href="#b" x="79.49" y="107.77" stroke="#9B8AAB" fill="#EEDBFF" class="color_-"/><use xlink:href="#b" x="84.23" y="64.65" stroke="#AA8B71" fill="#ECA25C" class="color_Democratic"/><use xlink:href="#b" x="84.23" y="66.25" stroke="#5F9A9E" fill="#60F6FF" class="color_Republican"/><use xlink:href="#b" x="84.23" y="107.49" stroke="#7C92B3" fill="#7CB5FB" class="color_Populist"/><use xlink:href="#b" x="84.23" y="106.7" stroke="#9B8AAC" fill="#9E7EC1" class="color_Prohibition"/><use xlink:href="#b" x="84.23" y="110.06" stroke="#9B8AAB" fill="#EEDBFF" class="color_-"/><use xlink:href="#b" x="88.97" y="53.04" stroke="#5F9A9E" fill="#60F6FF" class="color_Republican"/><use xlink:href="#b" x="88.97" y="74.86" stroke="#AA8B71" fill="#ECA25C" class="color_Democratic"/><use xlink:href="#b" x="88.97" y="107.14" stroke="#9B8AAB" fill="#EEDBFF" class="color_-"/><use xlink:href="#b" x="93.71" y="52.91" stroke="#5F9A9E" fill="#60F6FF" class="color_Republican"/><use xlink:href="#b" x="93.71" y="75.84" stroke="#AA8B71" fill="#ECA25C" class="color_Democratic"/><use xlink:href="#b" x="93.71" y="106.28" stroke="#9B8AAB" fill="#EEDBFF" class="color_-"/><use xlink:href="#b" x="98.44" y="49.91" stroke="#5F9A9E" fill="#60F6FF" class="color_Republican"/><use xlink:href="#b" x="98.44" y="83.41" stroke="#AA8B71" fill="#ECA25C" class="color_Democratic"/><use xlink:href="#b" x="98.44" y="104" stroke="#5F9AA3" fill="#009DAD" class="color_Socialist"/><use xlink:href="#b" x="98.44" y="107.77" stroke="#9B8AAB" fill="#EEDBFF" class="color_-"/><use xlink:href="#b" x="103.18" y="58.19" stroke="#5F9A9E" fill="#60F6FF" class="color_Republican"/><use xlink:href="#b" x="103.18" y="75.16" stroke="#AA8B71" fill="#ECA25C" class="color_Democratic"/><use xlink:href="#b" x="103.18" y="104.17" stroke="#5F9AA3" fill="#009DAD" class="color_Socialist"/><use xlink:href="#b" x="103.18" y="107.57" stroke="#9B8AAB" fill="#EEDBFF" class="color_-"/><use xlink:href="#b" x="107.92" y="70.99" stroke="#AA8B71" fill="#ECA25C" class="color_Democratic"/><use xlink:href="#b" x="107.92" y="95.2" stroke="#B3867D" fill="#AE8178" class="color_Progressive"/><use xlink:href="#b" x="107.92" y="78.99" stroke="#5F9A9E" fill="#60F6FF" class="color_Republican"/><use xlink:href="#b" x="107.92" y="102.1" stroke="#5F9AA3" fill="#009DAD" class="color_Socialist"/><use xlink:href="#b" x="107.92" y="107.87" stroke="#9B8AAB" fill="#EEDBFF" class="color_-"/><use xlink:href="#b" x="112.66" y="69.34" stroke="#AA8B71" fill="#ECA25C" class="color_Democratic"/><use xlink:href="#b" x="112.66" y="63.07" stroke="#5F9A9E" fill="#60F6FF" class="color_Republican"/><use xlink:href="#b" x="112.66" y="104.18" stroke="#5F9AA3" fill="#009DAD" class="color_Socialist"/><use xlink:href="#b" x="112.66" y="108.5" stroke="#9B8AAB" fill="#EEDBFF" class="color_-"/><use xlink:href="#b" x="117.39" y="42.41" stroke="#5F9A9E" fill="#60F6FF" class="color_Republican"/><use xlink:href="#b" x="117.39" y="94.67" stroke="#AA8B71" fill="#ECA25C" class="color_Democratic"/><use xlink:href="#b" x="117.39" y="99.12" stroke="#5F9AA3" fill="#009DAD" class="color_Socialist"/><use xlink:href="#b" x="117.39" y="108.89" stroke="#9B8AAB" fill="#EEDBFF" class="color_-"/><use xlink:href="#b" x="122.13" y="74.8" stroke="#5F9A9E" fill="#60F6FF" class="color_Republican"/><use xlink:href="#b" x="122.13" y="102.35" stroke="#AA8B71" fill="#ECA25C" class="color_Democratic"/><use xlink:href="#b" x="122.13" y="58.72" stroke="#B3867D" fill="#AE8178" class="color_Progressive"/><use xlink:href="#b" x="122.13" y="109.22" stroke="#9B8AAB" fill="#EEDBFF" class="color_-"/><use xlink:href="#b" x="126.87" y="59.14" stroke="#5F9A9E" fill="#60F6FF" class="color_Republican"/><use xlink:href="#b" x="126.87" y="67.93" stroke="#AA8B71" fill="#ECA25C" class="color_Democratic"/><use xlink:href="#b" x="126.87" y="107.97" stroke="#9B8AAB" fill="#EEDBFF" class="color_-"/><use xlink:href="#b" x="131.61" y="49.68" stroke="#AA8B71" fill="#ECA25C" class="color_Democratic"/><use xlink:href="#b" x="131.61" y="80.38" stroke="#5F9A9E" fill="#60F6FF" class="color_Republican"/><use xlink:href="#b" x="131.61" y="105.5" stroke="#5F9AA3" fill="#009DAD" class="color_Socialist"/><use xlink:href="#b" x="131.61" y="109.52" stroke="#9B8AAB" fill="#EEDBFF" class="color_-"/><use xlink:href="#b" x="136.34" y="49.35" stroke="#AA8B71" fill="#ECA25C" class="color_Democratic"/><use xlink:href="#b" x="136.34" y="81.27" stroke="#5F9A9E" fill="#60F6FF" class="color_Republican"/><use xlink:href="#b" x="136.34" y="104.41" stroke="#9B8AAB" fill="#EEDBFF" class="color_-"/><use xlink:href="#b" x="141.08" y="62.35" stroke="#AA8B71" fill="#ECA25C" class="color_Democratic"/><use xlink:href="#b" x="141.08" y="64.08" stroke="#5F9A9E" fill="#60F6FF" class="color_Republican"/><use xlink:href="#b" x="141.08" y="108.6" stroke="#9B8AAB" fill="#EEDBFF" class="color_-"/><use xlink:href="#b" x="145.82" y="63.85" stroke="#AA8B71" fill="#ECA25C" class="color_Democratic"/><use xlink:href="#b" x="145.82" y="62.13" stroke="#5F9A9E" fill="#60F6FF" class="color_Republican"/><use xlink:href="#b" x="145.82" y="109.05" stroke="#9B8AAB" fill="#EEDBFF" class="color_-"/><use xlink:href="#b" x="150.56" y="61.82" stroke="#AA8B71" fill="#ECA25C" class="color_Democratic"/><use xlink:href="#b" x="150.56" y="66.02" stroke="#5F9A9E" fill="#60F6FF" class="color_Republican"/><use xlink:href="#b" x="150.56" y="110.06" stroke="#AE8974" fill="#FFD9C5" class="color_State's_Rights"/><use xlink:href="#b" x="150.56" y="108.18" stroke="#B3867D" fill="#AE8178" class="color_Progressive"/><use xlink:href="#b" x="150.56" y="109.07" stroke="#9B8AAB" fill="#EEDBFF" class="color_-"/><use xlink:href="#b" x="155.29" y="52.06" stroke="#5F9A9E" fill="#60F6FF" class="color_Republican"/><use xlink:href="#b" x="155.29" y="73.23" stroke="#AA8B71" fill="#ECA25C" class="color_Democratic"/><use xlink:href="#b" x="155.29" y="109.74" stroke="#9B8AAB" fill="#EEDBFF" class="color_-"/><use xlink:href="#b" x="160.03" y="51.47" stroke="#5F9A9E" fill="#60F6FF" class="color_Republican"/><use xlink:href="#b" x="160.03" y="74.05" stroke="#AA8B71" fill="#ECA25C" class="color_Democratic"/><use xlink:href="#b" x="160.03" y="109.51" stroke="#9B8AAB" fill="#EEDBFF" class="color_-"/><use xlink:href="#b" x="164.77" y="64.34" stroke="#AA8B71" fill="#ECA25C" class="color_Democratic"/><use xlink:href="#b" x="164.77" y="60.8" stroke="#5F9A9E" fill="#60F6FF" class="color_Republican"/><use xlink:href="#b" x="164.77" y="109.89" stroke="#9B8AAB" fill="#EEDBFF" class="color_-"/><use xlink:href="#b" x="169.51" y="50.98" stroke="#AA8B71" fill="#ECA25C" class="color_Democratic"/><use xlink:href="#b" x="169.51" y="74.15" stroke="#5F9A9E" fill="#60F6FF" class="color_Republican"/><use xlink:href="#b" x="169.51" y="109.9" stroke="#9B8AAB" fill="#EEDBFF" class="color_-"/><use xlink:href="#b" x="174.24" y="64.5" stroke="#5F9A9E" fill="#60F6FF" class="color_Republican"/><use xlink:href="#b" x="174.24" y="67.94" stroke="#AA8B71" fill="#ECA25C" class="color_Democratic"/><use xlink:href="#b" x="174.24" y="102.87" stroke="#8B9572" fill="#5C722E" class="color_American_Ind."/><use xlink:href="#b" x="174.24" y="109.78" stroke="#9B8AAB" fill="#EEDBFF" class="color_-"/><use xlink:href="#b" x="178.98" y="59.25" stroke="#5F9A9E" fill="#60F6FF" class="color_Republican"/><use xlink:href="#b" x="178.98" y="68.46" stroke="#AA8B71" fill="#ECA25C" class="color_Democratic"/><use xlink:href="#b" x="178.98" y="107.32" stroke="#9B8AAB" fill="#EEDBFF" class="color_-"/><use xlink:href="#b" x="183.72" y="62.96" stroke="#AA8B71" fill="#ECA25C" class="color_Democratic"/><use xlink:href="#b" x="183.72" y="64.55" stroke="#5F9A9E" fill="#60F6FF" class="color_Republican"/><use xlink:href="#b" x="183.72" y="107.52" stroke="#9B8AAB" fill="#EEDBFF" class="color_-"/><use xlink:href="#b" x="188.46" y="64.48" stroke="#5F9A9E" fill="#60F6FF" class="color_Republican"/><use xlink:href="#b" x="188.46" y="68.97" stroke="#AA8B71" fill="#ECA25C" class="color_Democratic"/><use xlink:href="#b" x="188.46" y="103.34" stroke="#669B90" fill="#86BCB1" class="color_Independent"/><use xlink:href="#b" x="188.46" y="108.3" stroke="#9B8AAB" fill="#EEDBFF" class="color_-"/><use xlink:href="#b" x="193.19" y="58.49" stroke="#5F9A9E" fill="#60F6FF" class="color_Republican"/><use xlink:href="#b" x="193.19" y="67.22" stroke="#AA8B71" fill="#ECA25C" class="color_Democratic"/><use xlink:href="#b" x="193.19" y="109.31" stroke="#9B8AAB" fill="#EEDBFF" class="color_-"/><use xlink:href="#b" x="197.93" y="64.58" stroke="#5F9A9E" fill="#60F6FF" class="color_Republican"/><use xlink:href="#b" x="197.93" y="61.14" stroke="#AA8B71" fill="#ECA25C" class="color_Democratic"/><use xlink:href="#b" x="197.93" y="109.31" stroke="#9B8AAB" fill="#EEDBFF" class="color_-"/><use xlink:href="#b" x="202.67" y="70.92" stroke="#AA8B71" fill="#ECA25C" class="color_Democratic"/><use xlink:href="#b" x="202.67" y="75.07" stroke="#5F9A9E" fill="#60F6FF" class="color_Republican"/><use xlink:href="#b" x="202.67" y="89.59" stroke="#669B90" fill="#86BCB1" class="color_Independent"/><use xlink:href="#b" x="202.67" y="109.51" stroke="#9B8AAB" fill="#EEDBFF" class="color_-"/><use xlink:href="#b" x="207.41" y="63.62" stroke="#AA8B71" fill="#ECA25C" class="color_Democratic"/><use xlink:href="#b" x="207.41" y="73.45" stroke="#5F9A9E" fill="#60F6FF" class="color_Republican"/><use xlink:href="#b" x="207.41" y="100.21" stroke="#9B8AAC" fill="#746484" class="color_Reform"/><use xlink:href="#b" x="207.41" y="107.81" stroke="#9B8AAB" fill="#EEDBFF" class="color_-"/><use xlink:href="#b" x="212.14" y="64.55" stroke="#AA8B71" fill="#ECA25C" class="color_Democratic"/><use xlink:href="#b" x="212.14" y="64.76" stroke="#5F9A9E" fill="#60F6FF" class="color_Republican"/><use xlink:href="#b" x="212.14" y="106.62" stroke="#B4867D" fill="#A55246" class="color_Green"/><use xlink:href="#b" x="212.14" y="109.17" stroke="#9B8AAB" fill="#EEDBFF" class="color_-"/><use xlink:href="#b" x="216.88" y="63.13" stroke="#5F9A9E" fill="#60F6FF" class="color_Republican"/><use xlink:href="#b" x="216.88" y="62.77" stroke="#AA8B71" fill="#ECA25C" class="color_Democratic"/><use xlink:href="#b" x="216.88" y="109.13" stroke="#9B8AAB" fill="#EEDBFF" class="color_-"/><use xlink:href="#b" x="221.62" y="56.57" stroke="#AA8B71" fill="#ECA25C" class="color_Democratic"/><use xlink:href="#b" x="221.62" y="69.8" stroke="#5F9A9E" fill="#60F6FF" class="color_Republican"/><use xlink:href="#b" x="221.62" y="108.66" stroke="#9B8AAB" fill="#EEDBFF" class="color_-"/><use xlink:href="#b" x="226.36" y="59.79" stroke="#AA8B71" fill="#ECA25C" class="color_Democratic"/><use xlink:href="#b" x="226.36" y="66.4" stroke="#5F9A9E" fill="#60F6FF" class="color_Republican"/><use xlink:href="#b" x="226.36" y="108.84" stroke="#9B8AAB" fill="#EEDBFF" class="color_-"/></g><g fill-opacity="0"><path fill="none" d="M98.44 104l4.74.17 4.74-2.07 4.74 2.08 4.73-5.06 14.22 6.38" stroke="#009DAD" class="geometry color_Socialist"/><path fill="none" d="M32.12 84.75l4.73 12.34" stroke="#3F9778" class="geometry color_Free_Soil"/><path fill="none" d="M46.33 56.22l4.74.67 4.73-.35 4.74 1.57 4.74 3.83 4.74-3.3 4.74 3.48 4.73.57 4.74 3.56 4.74-13.21 4.74-.13 4.73-3 4.74 8.28 4.74 20.8 4.74-15.92 4.73-20.66 4.74 32.39 4.74-15.66 4.74 21.24 4.73.89 4.74-17.19 4.74-1.95 4.74 3.89 4.73-13.96 4.74-.59 4.74 9.33 4.74 13.35 4.73-9.65 4.74-5.25 4.74 5.3 4.74-.07 4.73-5.99 4.74 6.09 4.74 10.49 4.74-1.62 4.73-8.69 4.74-1.63 4.74 6.67 4.74-3.4" stroke="#60F6FF" class="geometry color_Republican"/><path fill="none" d="M188.46 103.34l14.21-13.75" stroke="#86BCB1" class="geometry color_Independent"/><path fill="none" d="M79.49 106.23l4.74.47" stroke="#9E7EC1" class="geometry color_Prohibition"/><path fill="none" d="M107.92 95.2l14.21-36.48 28.43 49.46" stroke="#AE8178" class="geometry color_Progressive"/><path fill="none" d="M32.12 73.62l4.73-13.07 4.74 7.44 4.74 1.42 4.74-1.33 4.73.35 4.74-1.16 4.74-3.06 4.74 5.02 4.74-2.74 4.73 1.92 4.74-3.76 4.74 10.21 4.74.98 4.73 7.57 4.74-8.25 4.74-4.17 4.74-1.65 4.73 25.33 4.74 7.68 4.74-34.42 4.74-18.25 4.73-.33 4.74 13 4.74 1.5 4.74-2.03 4.73 11.41 4.74.82 4.74-9.71 4.74-13.36 4.73 16.96 4.74.52 4.74-5.5 4.74 6.01 4.73-1.75 4.74-6.08 4.74 9.78 4.74-7.3 4.73.93 4.74-1.78 4.74-6.2 4.74 3.22" stroke="#ECA25C" class="geometry color_Democratic"/><path fill="none" d="M32.12 110.06h4.73l4.74-52.62v52.62l4.74-.56v.56h9.47l4.74-.41 4.74-.77 4.74 1.12 4.74-3.58 4.73 1.35 4.74 2.29 4.74-2.92 4.74-.86 4.73 1.49 4.74-.2 4.74.3 4.74.63 4.73.39 4.74.33 4.74-1.25 4.74 1.55 4.73-5.11 4.74 4.19 4.74.45 4.74.02 4.73.67 4.74-.23 4.74.38 4.74.01 4.73-.12 4.74-2.46 4.74.2 4.74.78 4.73 1.01h4.74l4.74.2 4.74-1.7 4.73 1.36 4.74-.04 4.74-.47 4.74.18" stroke="#EEDBFF" class="geometry color_-"/><path fill="none" d="M32.12 76.66l4.73.73" stroke="#FE4365" class="geometry color_Whig"/></g></g></g><g class="guide ylabels" font-size="4.76" font-family="'PT Sans Caption','Helvetica Neue','Helvetica',sans-serif" fill="#A1A1A1" text-anchor="end"><text x="24.38" y="110.06" dy=".35em">0</text><text x="24.38" y="86.27" dy=".35em">25</text><text x="24.38" y="62.48" dy=".35em">50</text><text x="24.38" y="38.7" dy=".35em">75</text><text x="24.38" y="14.91" dy=".35em">100</text></g><text x="9.95" y="60.48" text-anchor="middle" dy=".35em" transform="rotate(-90 9.95 62.48)" font-size="6.35" font-family="'PT Sans','Helvetica Neue','Helvetica',sans-serif" fill="#A1A1A1" stroke="#000" stroke-opacity="0">Popular Vote (%)</text><text x="129.24" y="5" text-anchor="middle" dy=".6em" font-size="6.35" font-family="'PT Sans','Helvetica Neue','Helvetica',sans-serif" fill="#A1A1A1" stroke="#000" stroke-opacity="0">Wisconsin</text></g><defs><clipPath id="a"><path d="M25.38 12.91H233.1v99.15H25.38"/></clipPath><circle r=".9" id="b"/></defs></svg>