<svg xmlns="http://www.w3.org/2000/svg" xmlns:xlink="http://www.w3.org/1999/xlink" version="1.2" width="238.1mm" height="599.924" viewBox="0 0 238.1 158.73" stroke-width=".3" font-size="3.88"><path d="M0 0h238.1v158.73H0z" stroke="#000" stroke-opacity="0" fill="#222831"/><g class="plotroot xscalable yscalable"><g class="guide colorkey"><g class="color_Green"><text x="167.07" y="144.33" dy=".35em" fill="#A1A1A1" font-size="3.7" font-family="'PT Sans','Helvetica Neue','Helvetica',sans-serif">Green</text><path d="M163.85 143.22h2.22v2.22h-2.22z" fill="#FFD9C5" stroke="#000" stroke-opacity="0"/></g><g fill="#A1A1A1" font-size="3.7" font-family="'PT Sans','Helvetica Neue','Helvetica',sans-serif"><text x="142.81" y="144.33" dy=".35em" class="color_Independent">Independent</text><text x="142.81" y="148.78" dy=".35em" class="color_Reform">Reform</text></g><g stroke="#000" stroke-opacity="0"><path fill="#009DAD" class="color_Independent" d="M139.59 143.22h2.22v2.22h-2.22z"/><path fill="#AE8178" class="color_Reform" d="M139.59 147.66h2.22v2.22h-2.22z"/></g><g fill="#A1A1A1" font-size="3.7" font-family="'PT Sans','Helvetica Neue','Helvetica',sans-serif"><text x="116.87" y="144.33" dy=".35em" class="color_State's_Rights">State&amp;apos;s Rights</text><text x="116.87" y="148.78" dy=".35em" class="color_American_Ind.">American Ind.</text></g><g stroke="#000" stroke-opacity="0"><path fill="#9E7EC1" class="color_State's_Rights" d="M113.65 143.22h2.22v2.22h-2.22z"/><path fill="#7CB5FB" class="color_American_Ind." d="M113.65 147.66h2.22v2.22h-2.22z"/></g><g fill="#A1A1A1" font-size="3.7" font-family="'PT Sans','Helvetica Neue','Helvetica',sans-serif"><text x="94.43" y="144.33" dy=".35em" class="color_Socialist">Socialist</text><text x="94.43" y="148.78" dy=".35em" class="color_Progressive">Progressive</text></g><g stroke="#000" stroke-opacity="0"><path fill="#D4EC9F" class="color_Socialist" d="M91.21 143.22h2.22v2.22h-2.22z"/><path fill="#7E674B" class="color_Progressive" d="M91.21 147.66h2.22v2.22h-2.22z"/></g><g fill="#A1A1A1" font-size="3.7" font-family="'PT Sans','Helvetica Neue','Helvetica',sans-serif"><text x="72.63" y="144.33" dy=".35em" class="color_Prohibition">Prohibition</text><text x="72.63" y="148.78" dy=".35em" class="color_Populist">Populist</text></g><g stroke="#000" stroke-opacity="0"><path fill="#236EAD" class="color_Prohibition" d="M69.41 143.22h2.22v2.22h-2.22z"/><path fill="#60F6FF" class="color_Populist" d="M69.41 147.66h2.22v2.22h-2.22z"/></g><g fill="#A1A1A1" font-size="3.7" font-family="'PT Sans','Helvetica Neue','Helvetica',sans-serif"><text x="51.81" y="144.33" dy=".35em" class="color_-">-</text><text x="51.81" y="148.78" dy=".35em" class="color_Greenback">Greenback</text></g><g stroke="#000" stroke-opacity="0"><path fill="#3F9778" class="color_-" d="M48.59 143.22h2.22v2.22h-2.22z"/><path fill="#EEDBFF" class="color_Greenback" d="M48.59 147.66h2.22v2.22h-2.22z"/></g><g fill="#A1A1A1" font-size="3.7" font-family="'PT Sans','Helvetica Neue','Helvetica',sans-serif"><text x="29.6" y="144.33" dy=".35em" class="color_Republican">Republican</text><text x="29.6" y="148.78" dy=".35em" class="color_Democratic">Democratic</text></g><g stroke="#000" stroke-opacity="0"><path fill="#FE4365" class="color_Republican" d="M26.38 143.22h2.22v2.22h-2.22z"/><path fill="#ECA25C" class="color_Democratic" d="M26.38 147.66h2.22v2.22h-2.22z"/></g><text x="26.38" y="140.84" fill="#FFF" font-size="6.35" font-family="'PT Sans','Helvetica Neue','Helvetica',sans-serif" stroke="#000" stroke-opacity="0">Party</text></g><text x="129.24" y="126.02" text-anchor="middle" dy=".6em" font-size="6.35" font-family="'PT Sans','Helvetica Neue','Helvetica',sans-serif" fill="#A1A1A1" stroke="#000" stroke-opacity="0">Year</text><g class="guide xlabels" font-size="4.76" font-family="'PT Sans Caption','Helvetica Neue','Helvetica',sans-serif" fill="#A1A1A1" text-anchor="end"><text x="27.38" y="110.72" dy=".35em" transform="rotate(-90 27.38 110.72)">1860</text><text x="37.83" y="110.72" dy=".35em" transform="rotate(-90 37.83 110.72)">1868</text><text x="48.27" y="110.72" dy=".35em" transform="rotate(-90 48.27 110.72)">1876</text><text x="58.72" y="110.72" dy=".35em" transform="rotate(-90 58.72 110.72)">1884</text><text x="69.17" y="110.72" dy=".35em" transform="rotate(-90 69.17 110.72)">1892</text><text x="79.61" y="110.72" dy=".35em" transform="rotate(-90 79.61 110.72)">1900</text><text x="90.06" y="110.72" dy=".35em" transform="rotate(-90 90.06 110.72)">1908</text><text x="100.51" y="110.72" dy=".35em" transform="rotate(-90 100.51 110.72)">1916</text><text x="110.96" y="110.72" dy=".35em" transform="rotate(-90 110.96 110.72)">1924</text><text x="121.4" y="110.72" dy=".35em" transform="rotate(-90 121.4 110.72)">1932</text><text x="131.85" y="110.72" dy=".35em" transform="rotate(-90 131.85 110.72)">1940</text><text x="142.3" y="110.72" dy=".35em" transform="rotate(-90 142.3 110.72)">1948</text><text x="152.74" y="110.72" dy=".35em" transform="rotate(-90 152.74 110.72)">1956</text><text x="163.19" y="110.72" dy=".35em" transform="rotate(-90 163.19 110.72)">1964</text><text x="173.64" y="110.72" dy=".35em" transform="rotate(-90 173.64 110.72)">1972</text><text x="184.08" y="110.72" dy=".35em" transform="rotate(-90 184.08 110.72)">1980</text><text x="194.53" y="110.72" dy=".35em" transform="rotate(-90 194.53 110.72)">1988</text><text x="204.98" y="110.72" dy=".35em" transform="rotate(-90 204.98 110.72)">1996</text><text x="215.42" y="110.72" dy=".35em" transform="rotate(-90 215.42 110.72)">2004</text><text x="225.87" y="110.72" dy=".35em" transform="rotate(-90 225.87 110.72)">2012</text></g><g clip-path="url(#a)"><path d="M25.38 12.91H233.1v96.81H25.38z" pointer-events="visible" fill="#222831" stroke="#000" stroke-opacity="0" class="guide background"/><g class="guide ygridlines xfixed" stroke-dasharray="0.5,0.5" stroke-width=".2" stroke="#575757" fill="none"><path d="M25.38 107.72H233.1M25.38 84.52H233.1M25.38 61.32H233.1M25.38 38.11H233.1M25.38 14.91H233.1"/></g><g class="guide xgridlines yfixed" stroke-dasharray="0.5,0.5" stroke-width=".2" stroke="#575757" fill="none"><path d="M27.38 12.91v96.81M37.83 12.91v96.81M48.27 12.91v96.81M58.72 12.91v96.81M69.17 12.91v96.81M79.61 12.91v96.81M90.06 12.91v96.81M100.51 12.91v96.81M110.96 12.91v96.81M121.4 12.91v96.81M131.85 12.91v96.81M142.3 12.91v96.81M152.74 12.91v96.81M163.19 12.91v96.81M173.64 12.91v96.81M184.08 12.91v96.81M194.53 12.91v96.81M204.98 12.91v96.81M215.42 12.91v96.81M225.87 12.91v96.81"/></g><g class="plotpanel"><g class="geometry"><use xlink:href="#b" x="32.6" y="44.39" stroke="#B58486" fill="#FE4365" class="color_Republican"/><use xlink:href="#b" x="32.6" y="78.24" stroke="#AA8B71" fill="#ECA25C" class="color_Democratic"/><use xlink:href="#b" x="32.6" y="107.72" stroke="#6D9A87" fill="#3F9778" class="color_-"/><use xlink:href="#b" x="37.83" y="53.12" stroke="#B58486" fill="#FE4365" class="color_Republican"/><use xlink:href="#b" x="37.83" y="69.51" stroke="#AA8B71" fill="#ECA25C" class="color_Democratic"/><use xlink:href="#b" x="37.83" y="107.72" stroke="#6D9A87" fill="#3F9778" class="color_-"/><use xlink:href="#b" x="43.05" y="59.7" stroke="#B58486" fill="#FE4365" class="color_Republican"/><use xlink:href="#b" x="43.05" y="63.84" stroke="#AA8B71" fill="#ECA25C" class="color_Democratic"/><use xlink:href="#b" x="43.05" y="106.81" stroke="#6D9A87" fill="#3F9778" class="color_-"/><use xlink:href="#b" x="48.27" y="55.06" stroke="#AA8B71" fill="#ECA25C" class="color_Democratic"/><use xlink:href="#b" x="48.27" y="68.61" stroke="#B58486" fill="#FE4365" class="color_Republican"/><use xlink:href="#b" x="48.27" y="106.7" stroke="#6D9A87" fill="#3F9778" class="color_-"/><use xlink:href="#b" x="53.5" y="69.62" stroke="#B58486" fill="#FE4365" class="color_Republican"/><use xlink:href="#b" x="53.5" y="60.44" stroke="#AA8B71" fill="#ECA25C" class="color_Democratic"/><use xlink:href="#b" x="53.5" y="100.3" stroke="#9B8AAB" fill="#EEDBFF" class="color_Greenback"/><use xlink:href="#b" x="53.5" y="107.72" stroke="#6D9A87" fill="#3F9778" class="color_-"/><use xlink:href="#b" x="58.72" y="60.45" stroke="#AA8B71" fill="#ECA25C" class="color_Democratic"/><use xlink:href="#b" x="58.72" y="63.41" stroke="#B58486" fill="#FE4365" class="color_Republican"/><use xlink:href="#b" x="58.72" y="106.5" stroke="#6D9A87" fill="#3F9778" class="color_-"/><use xlink:href="#b" x="63.94" y="61.92" stroke="#AA8B71" fill="#ECA25C" class="color_Democratic"/><use xlink:href="#b" x="63.94" y="62.22" stroke="#B58486" fill="#FE4365" class="color_Republican"/><use xlink:href="#b" x="63.94" y="107.09" stroke="#7C92B3" fill="#236EAD" class="color_Prohibition"/><use xlink:href="#b" x="63.94" y="106.85" stroke="#6D9A87" fill="#3F9778" class="color_-"/><use xlink:href="#b" x="69.17" y="61.9" stroke="#AA8B71" fill="#ECA25C" class="color_Democratic"/><use xlink:href="#b" x="69.17" y="64.16" stroke="#B58486" fill="#FE4365" class="color_Republican"/><use xlink:href="#b" x="69.17" y="105.46" stroke="#5F9A9E" fill="#60F6FF" class="color_Populist"/><use xlink:href="#b" x="69.17" y="106.56" stroke="#7C92B3" fill="#236EAD" class="color_Prohibition"/><use xlink:href="#b" x="69.17" y="107.72" stroke="#6D9A87" fill="#3F9778" class="color_-"/><use xlink:href="#b" x="74.39" y="59.25" stroke="#B58486" fill="#FE4365" class="color_Republican"/><use xlink:href="#b" x="74.39" y="64.26" stroke="#AA8B71" fill="#ECA25C" class="color_Democratic"/><use xlink:href="#b" x="74.39" y="106.85" stroke="#6D9A87" fill="#3F9778" class="color_-"/><use xlink:href="#b" x="79.61" y="57.35" stroke="#B58486" fill="#FE4365" class="color_Republican"/><use xlink:href="#b" x="79.61" y="66.19" stroke="#AA8B71" fill="#ECA25C" class="color_Democratic"/><use xlink:href="#b" x="79.61" y="106.82" stroke="#6D9A87" fill="#3F9778" class="color_-"/><use xlink:href="#b" x="84.84" y="56.43" stroke="#B58486" fill="#FE4365" class="color_Republican"/><use xlink:href="#b" x="84.84" y="68.72" stroke="#AA8B71" fill="#ECA25C" class="color_Democratic"/><use xlink:href="#b" x="84.84" y="107.12" stroke="#8B9572" fill="#D4EC9F" class="color_Socialist"/><use xlink:href="#b" x="84.84" y="105.81" stroke="#6D9A87" fill="#3F9778" class="color_-"/><use xlink:href="#b" x="90.06" y="58.15" stroke="#B58486" fill="#FE4365" class="color_Republican"/><use xlink:href="#b" x="90.06" y="67.66" stroke="#AA8B71" fill="#ECA25C" class="color_Democratic"/><use xlink:href="#b" x="90.06" y="106.4" stroke="#8B9572" fill="#D4EC9F" class="color_Socialist"/><use xlink:href="#b" x="90.06" y="105.88" stroke="#6D9A87" fill="#3F9778" class="color_-"/><use xlink:href="#b" x="95.28" y="68.64" stroke="#AA8B71" fill="#ECA25C" class="color_Democratic"/><use xlink:href="#b" x="95.28" y="80.41" stroke="#A68D6F" fill="#7E674B" class="color_Progressive"/><use xlink:href="#b" x="95.28" y="88.13" stroke="#B58486" fill="#FE4365" class="color_Republican"/><use xlink:href="#b" x="95.28" y="102.46" stroke="#8B9572" fill="#D4EC9F" class="color_Socialist"/><use xlink:href="#b" x="95.28" y="106.16" stroke="#6D9A87" fill="#3F9778" class="color_-"/><use xlink:href="#b" x="100.51" y="62.76" stroke="#AA8B71" fill="#ECA25C" class="color_Democratic"/><use xlink:href="#b" x="100.51" y="61.89" stroke="#B58486" fill="#FE4365" class="color_Republican"/><use xlink:href="#b" x="100.51" y="105.75" stroke="#8B9572" fill="#D4EC9F" class="color_Socialist"/><use xlink:href="#b" x="100.51" y="107.67" stroke="#6D9A87" fill="#3F9778" class="color_-"/><use xlink:href="#b" x="105.73" y="56.4" stroke="#B58486" fill="#FE4365" class="color_Republican"/><use xlink:href="#b" x="105.73" y="67.54" stroke="#AA8B71" fill="#ECA25C" class="color_Democratic"/><use xlink:href="#b" x="105.73" y="106.7" stroke="#8B9572" fill="#D4EC9F" class="color_Socialist"/><use xlink:href="#b" x="105.73" y="107.45" stroke="#6D9A87" fill="#3F9778" class="color_-"/><use xlink:href="#b" x="110.96" y="61.82" stroke="#B58486" fill="#FE4365" class="color_Republican"/><use xlink:href="#b" x="110.96" y="66.82" stroke="#AA8B71" fill="#ECA25C" class="color_Democratic"/><use xlink:href="#b" x="110.96" y="101.88" stroke="#A68D6F" fill="#7E674B" class="color_Progressive"/><use xlink:href="#b" x="110.96" y="107.55" stroke="#6D9A87" fill="#3F9778" class="color_-"/><use xlink:href="#b" x="116.18" y="53.49" stroke="#B58486" fill="#FE4365" class="color_Republican"/><use xlink:href="#b" x="116.18" y="69.63" stroke="#AA8B71" fill="#ECA25C" class="color_Democratic"/><use xlink:href="#b" x="116.18" y="107.23" stroke="#6D9A87" fill="#3F9778" class="color_-"/><use xlink:href="#b" x="121.4" y="57.17" stroke="#AA8B71" fill="#ECA25C" class="color_Democratic"/><use xlink:href="#b" x="121.4" y="66.45" stroke="#B58486" fill="#FE4365" class="color_Republican"/><use xlink:href="#b" x="121.4" y="107.08" stroke="#8B9572" fill="#D4EC9F" class="color_Socialist"/><use xlink:href="#b" x="121.4" y="107.38" stroke="#6D9A87" fill="#3F9778" class="color_-"/><use xlink:href="#b" x="126.63" y="51.52" stroke="#AA8B71" fill="#ECA25C" class="color_Democratic"/><use xlink:href="#b" x="126.63" y="71.34" stroke="#B58486" fill="#FE4365" class="color_Republican"/><use xlink:href="#b" x="126.63" y="107.5" stroke="#6D9A87" fill="#3F9778" class="color_-"/><use xlink:href="#b" x="131.85" y="54.73" stroke="#AA8B71" fill="#ECA25C" class="color_Democratic"/><use xlink:href="#b" x="131.85" y="67.91" stroke="#B58486" fill="#FE4365" class="color_Republican"/><use xlink:href="#b" x="131.85" y="107.72" stroke="#6D9A87" fill="#3F9778" class="color_-"/><use xlink:href="#b" x="137.07" y="56.78" stroke="#AA8B71" fill="#ECA25C" class="color_Democratic"/><use xlink:href="#b" x="137.07" y="65.85" stroke="#B58486" fill="#FE4365" class="color_Republican"/><use xlink:href="#b" x="137.07" y="107.72" stroke="#6D9A87" fill="#3F9778" class="color_-"/><use xlink:href="#b" x="142.3" y="54.52" stroke="#AA8B71" fill="#ECA25C" class="color_Democratic"/><use xlink:href="#b" x="142.3" y="68.52" stroke="#B58486" fill="#FE4365" class="color_Republican"/><use xlink:href="#b" x="142.3" y="107.72" stroke="#9B8AAC" fill="#9E7EC1" class="color_State's_Rights"/><use xlink:href="#b" x="142.3" y="107.31" stroke="#A68D6F" fill="#7E674B" class="color_Progressive"/><use xlink:href="#b" x="142.3" y="107.72" stroke="#6D9A87" fill="#3F9778" class="color_-"/><use xlink:href="#b" x="147.52" y="63.1" stroke="#B58486" fill="#FE4365" class="color_Republican"/><use xlink:href="#b" x="147.52" y="59.53" stroke="#AA8B71" fill="#ECA25C" class="color_Democratic"/><use xlink:href="#b" x="147.52" y="107.72" stroke="#6D9A87" fill="#3F9778" class="color_-"/><use xlink:href="#b" x="152.74" y="57.53" stroke="#B58486" fill="#FE4365" class="color_Republican"/><use xlink:href="#b" x="152.74" y="65.1" stroke="#AA8B71" fill="#ECA25C" class="color_Democratic"/><use xlink:href="#b" x="152.74" y="107.72" stroke="#6D9A87" fill="#3F9778" class="color_-"/><use xlink:href="#b" x="157.97" y="58.78" stroke="#AA8B71" fill="#ECA25C" class="color_Democratic"/><use xlink:href="#b" x="157.97" y="63.85" stroke="#B58486" fill="#FE4365" class="color_Republican"/><use xlink:href="#b" x="157.97" y="107.72" stroke="#6D9A87" fill="#3F9778" class="color_-"/><use xlink:href="#b" x="163.19" y="44.67" stroke="#AA8B71" fill="#ECA25C" class="color_Democratic"/><use xlink:href="#b" x="163.19" y="77.96" stroke="#B58486" fill="#FE4365" class="color_Republican"/><use xlink:href="#b" x="163.19" y="107.72" stroke="#6D9A87" fill="#3F9778" class="color_-"/><use xlink:href="#b" x="168.41" y="69.88" stroke="#B58486" fill="#FE4365" class="color_Republican"/><use xlink:href="#b" x="168.41" y="61.69" stroke="#AA8B71" fill="#ECA25C" class="color_Democratic"/><use xlink:href="#b" x="168.41" y="98.79" stroke="#7C92B3" fill="#7CB5FB" class="color_American_Ind."/><use xlink:href="#b" x="168.41" y="107.72" stroke="#6D9A87" fill="#3F9778" class="color_-"/><use xlink:href="#b" x="173.64" y="48.68" stroke="#B58486" fill="#FE4365" class="color_Republican"/><use xlink:href="#b" x="173.64" y="73.95" stroke="#AA8B71" fill="#ECA25C" class="color_Democratic"/><use xlink:href="#b" x="173.64" y="107.72" stroke="#6D9A87" fill="#3F9778" class="color_-"/><use xlink:href="#b" x="178.86" y="53.83" stroke="#AA8B71" fill="#ECA25C" class="color_Democratic"/><use xlink:href="#b" x="178.86" y="68.81" stroke="#B58486" fill="#FE4365" class="color_Republican"/><use xlink:href="#b" x="178.86" y="107.72" stroke="#6D9A87" fill="#3F9778" class="color_-"/><use xlink:href="#b" x="184.08" y="65.68" stroke="#B58486" fill="#FE4365" class="color_Republican"/><use xlink:href="#b" x="184.08" y="61.49" stroke="#AA8B71" fill="#ECA25C" class="color_Democratic"/><use xlink:href="#b" x="184.08" y="103.74" stroke="#5F9AA3" fill="#009DAD" class="color_Independent"/><use xlink:href="#b" x="184.08" y="107.18" stroke="#6D9A87" fill="#3F9778" class="color_-"/><use xlink:href="#b" x="189.31" y="56.57" stroke="#B58486" fill="#FE4365" class="color_Republican"/><use xlink:href="#b" x="189.31" y="66.33" stroke="#AA8B71" fill="#ECA25C" class="color_Democratic"/><use xlink:href="#b" x="189.31" y="107.45" stroke="#6D9A87" fill="#3F9778" class="color_-"/><use xlink:href="#b" x="194.53" y="63.67" stroke="#B58486" fill="#FE4365" class="color_Republican"/><use xlink:href="#b" x="194.53" y="59.28" stroke="#AA8B71" fill="#ECA25C" class="color_Democratic"/><use xlink:href="#b" x="194.53" y="107.41" stroke="#6D9A87" fill="#3F9778" class="color_-"/><use xlink:href="#b" x="199.75" y="62.79" stroke="#AA8B71" fill="#ECA25C" class="color_Democratic"/><use xlink:href="#b" x="199.75" y="74.88" stroke="#B58486" fill="#FE4365" class="color_Republican"/><use xlink:href="#b" x="199.75" y="92.95" stroke="#5F9AA3" fill="#009DAD" class="color_Independent"/><use xlink:href="#b" x="199.75" y="107.47" stroke="#6D9A87" fill="#3F9778" class="color_-"/><use xlink:href="#b" x="204.98" y="59.92" stroke="#AA8B71" fill="#ECA25C" class="color_Democratic"/><use xlink:href="#b" x="204.98" y="73.61" stroke="#B58486" fill="#FE4365" class="color_Republican"/><use xlink:href="#b" x="204.98" y="97.28" stroke="#B3867D" fill="#AE8178" class="color_Reform"/><use xlink:href="#b" x="204.98" y="107.28" stroke="#6D9A87" fill="#3F9778" class="color_-"/><use xlink:href="#b" x="210.2" y="65.41" stroke="#AA8B71" fill="#ECA25C" class="color_Democratic"/><use xlink:href="#b" x="210.2" y="59.54" stroke="#B58486" fill="#FE4365" class="color_Republican"/><use xlink:href="#b" x="210.2" y="106.19" stroke="#AE8974" fill="#FFD9C5" class="color_Green"/><use xlink:href="#b" x="210.2" y="106.94" stroke="#6D9A87" fill="#3F9778" class="color_-"/><use xlink:href="#b" x="215.42" y="55.69" stroke="#B58486" fill="#FE4365" class="color_Republican"/><use xlink:href="#b" x="215.42" y="67.63" stroke="#AA8B71" fill="#ECA25C" class="color_Democratic"/><use xlink:href="#b" x="215.42" y="107.04" stroke="#6D9A87" fill="#3F9778" class="color_-"/><use xlink:href="#b" x="220.65" y="68.29" stroke="#AA8B71" fill="#ECA25C" class="color_Democratic"/><use xlink:href="#b" x="220.65" y="56.14" stroke="#B58486" fill="#FE4365" class="color_Republican"/><use xlink:href="#b" x="220.65" y="105.93" stroke="#6D9A87" fill="#3F9778" class="color_-"/><use xlink:href="#b" x="225.87" y="74.82" stroke="#AA8B71" fill="#ECA25C" class="color_Democratic"/><use xlink:href="#b" x="225.87" y="50.05" stroke="#B58486" fill="#FE4365" class="color_Republican"/><use xlink:href="#b" x="225.87" y="105.49" stroke="#6D9A87" fill="#3F9778" class="color_-"/></g><g fill-opacity="0"><path fill="none" d="M184.08 103.74l15.67-10.79" stroke="#009DAD" class="geometry color_Independent"/><path fill="none" d="M63.94 107.09l5.23-.53" stroke="#236EAD" class="geometry color_Prohibition"/><path fill="none" d="M32.6 107.72h5.23l5.22-.91 5.22-.11 5.23 1.02 5.22-1.22 5.22.35 5.23.87 5.22-.87 5.22-.03 5.23-1.01 5.22.07 5.22.28 5.23 1.51 5.22-.22 5.23.1 5.22-.32 5.22.15 5.23.12 5.22.22H178.86l5.22-.54 5.23.27 5.22-.04 5.22.06 5.23-.19 5.22-.34 5.22.1 5.23-1.11 5.22-.44" stroke="#3F9778" class="geometry color_-"/><path fill="none" d="M95.28 80.41l15.68 21.47 31.34 5.43" stroke="#7E674B" class="geometry color_Progressive"/><path fill="none" d="M84.84 107.12l5.22-.72 5.22-3.94 5.23 3.29 5.22.95 15.67.38" stroke="#D4EC9F" class="geometry color_Socialist"/><path fill="none" d="M32.6 78.24l5.23-8.73 5.22-5.67 5.22-8.78 5.23 5.38 5.22.01 5.22 1.47 5.23-.02 5.22 2.36 5.22 1.93 5.23 2.53 5.22-1.06 5.22.98 5.23-5.88 5.22 4.78 5.23-.72 5.22 2.81 5.22-12.46 5.23-5.65 5.22 3.21 5.22 2.05 5.23-2.26 5.22 5.01 5.22 5.57 5.23-6.32 5.22-14.11 5.22 17.02 5.23 12.26 5.22-20.12 5.22 7.66 5.23 4.84 5.22-7.05 5.22 3.51 5.23-2.87 5.22 5.49 5.22 2.22 5.23.66 5.22 6.53" stroke="#ECA25C" class="geometry color_Democratic"/><path fill="none" d="M32.6 44.39l5.23 8.73 5.22 6.58 5.22 8.91 5.23 1.01 5.22-6.21 5.22-1.19 5.23 1.94 5.22-4.91 5.22-1.9 5.23-.92 5.22 1.72 5.22 29.98 5.23-26.24 5.22-5.49 5.23 5.42 5.22-8.33 5.22 12.96 5.23 4.89 5.22-3.43 5.22-2.06 5.23 2.67 5.22-5.42 5.22-5.57 5.23 6.32 5.22 14.11 5.22-8.08 5.23-21.2 5.22 20.13 5.22-3.13 5.23-9.11 5.22 7.1 5.22 11.21 5.23-1.27 5.22-14.07 5.22-3.85 5.23.45 5.22-6.09" stroke="#FE4365" class="geometry color_Republican"/></g></g></g><g class="guide ylabels" font-size="4.76" font-family="'PT Sans Caption','Helvetica Neue','Helvetica',sans-serif" fill="#A1A1A1" text-anchor="end"><text x="24.38" y="107.72" dy=".35em">0</text><text x="24.38" y="84.52" dy=".35em">25</text><text x="24.38" y="61.32" dy=".35em">50</text><text x="24.38" y="38.11" dy=".35em">75</text><text x="24.38" y="14.91" dy=".35em">100</text></g><text x="9.95" y="59.32" text-anchor="middle" dy=".35em" transform="rotate(-90 9.95 61.32)" font-size="6.35" font-family="'PT Sans','Helvetica Neue','Helvetica',sans-serif" fill="#A1A1A1" stroke="#000" stroke-opacity="0">Popular Vote (%)</text><text x="129.24" y="5" text-anchor="middle" dy=".6em" font-size="6.35" font-family="'PT Sans','Helvetica Neue','Helvetica',sans-serif" fill="#A1A1A1" stroke="#000" stroke-opacity="0">West Virginia</text></g><defs><clipPath id="a"><path d="M25.38 12.91H233.1v96.81H25.38"/></clipPath><circle r=".9" id="b"/></defs></svg>