<?xml version="1.0" encoding="UTF-8"?>
<svg xmlns="http://www.w3.org/2000/svg"
     xmlns:xlink="http://www.w3.org/1999/xlink"
     xmlns:gadfly="http://www.gadflyjl.org/ns"
     version="1.2"
     width="238.1mm" height="158.73mm" viewBox="0 0 238.1 158.73"
     stroke="none"
     fill="#000000"
     stroke-width="0.3"
     font-size="3.88"
>
<g stroke="#000000" stroke-opacity="0.000" fill="#222831" id="img-cfdc8e9a-1">
  <rect x="0" y="0" width="238.1" height="158.73"/>
</g>
<g class="plotroot xscalable yscalable" id="img-cfdc8e9a-2">
  <g class="guide colorkey" id="img-cfdc8e9a-3">
    <g class="color_Democratic" id="img-cfdc8e9a-4">
      <g fill="#A1A1A1" font-size="3.7" font-family="'PT Sans','Helvetica Neue','Helvetica',sans-serif" id="img-cfdc8e9a-5">
        <text x="51.52" y="148.78" dy="0.35em">Democratic</text>
      </g>
      <g fill="#0000FF" stroke="#000000" stroke-opacity="0.000" id="img-cfdc8e9a-6">
        <rect x="48.29" y="147.66" width="2.22" height="2.22"/>
      </g>
    </g>
    <g class="color_Republican" id="img-cfdc8e9a-7">
      <g fill="#A1A1A1" font-size="3.7" font-family="'PT Sans','Helvetica Neue','Helvetica',sans-serif" id="img-cfdc8e9a-8">
        <text x="29.6" y="148.78" dy="0.35em">Republican</text>
      </g>
      <g fill="#FF0000" stroke="#000000" stroke-opacity="0.000" id="img-cfdc8e9a-9">
        <rect x="26.38" y="147.66" width="2.22" height="2.22"/>
      </g>
    </g>
    <g fill="#A1A1A1" font-size="6.35" font-family="'PT Sans','Helvetica Neue','Helvetica',sans-serif" stroke="#000000" stroke-opacity="0.000" id="img-cfdc8e9a-10">
      <text x="26.38" y="145.28">Party</text>
    </g>
  </g>
  <g font-size="6.35" font-family="'PT Sans','Helvetica Neue','Helvetica',sans-serif" fill="#A1A1A1" stroke="#000000" stroke-opacity="0.000" id="img-cfdc8e9a-11">
    <text x="129.24" y="130.46" text-anchor="middle" dy="0.6em">Year</text>
  </g>
  <g class="guide xlabels" font-size="4.76" font-family="'PT Sans Caption','Helvetica Neue','Helvetica',sans-serif" fill="#A1A1A1" id="img-cfdc8e9a-12">
    <text x="27.38" y="121.95" text-anchor="middle" dy="0.6em">1832</text>
    <text x="40.67" y="121.95" text-anchor="middle" dy="0.6em">1844</text>
    <text x="53.95" y="121.95" text-anchor="middle" dy="0.6em">1856</text>
    <text x="67.24" y="121.95" text-anchor="middle" dy="0.6em">1868</text>
    <text x="80.52" y="121.95" text-anchor="middle" dy="0.6em">1880</text>
    <text x="93.81" y="121.95" text-anchor="middle" dy="0.6em">1892</text>
    <text x="107.09" y="121.95" text-anchor="middle" dy="0.6em">1904</text>
    <text x="120.38" y="121.95" text-anchor="middle" dy="0.6em">1916</text>
    <text x="133.67" y="121.95" text-anchor="middle" dy="0.6em">1928</text>
    <text x="146.95" y="121.95" text-anchor="middle" dy="0.6em">1940</text>
    <text x="160.24" y="121.95" text-anchor="middle" dy="0.6em">1952</text>
    <text x="173.52" y="121.95" text-anchor="middle" dy="0.6em">1964</text>
    <text x="186.81" y="121.95" text-anchor="middle" dy="0.6em">1976</text>
    <text x="200.1" y="121.95" text-anchor="middle" dy="0.6em">1988</text>
    <text x="213.38" y="121.95" text-anchor="middle" dy="0.6em">2000</text>
    <text x="226.67" y="121.95" text-anchor="middle" dy="0.6em">2012</text>
  </g>
<g clip-path="url(#img-cfdc8e9a-13)">
  <g id="img-cfdc8e9a-14">
    <g pointer-events="visible" opacity="1" fill="#222831" stroke="#000000" stroke-opacity="0.000" class="guide background" id="img-cfdc8e9a-15">
      <rect x="25.38" y="12.91" width="207.72" height="108.04"/>
    </g>
    <g class="guide ygridlines xfixed" stroke-dasharray="0.5,0.5" stroke-width="0.2" stroke="#575757" id="img-cfdc8e9a-16">
      <path fill="none" d="M25.38,118.95 L 233.1 118.95"/>
      <path fill="none" d="M25.38,92.94 L 233.1 92.94"/>
      <path fill="none" d="M25.38,66.93 L 233.1 66.93"/>
      <path fill="none" d="M25.38,40.92 L 233.1 40.92"/>
      <path fill="none" d="M25.38,14.91 L 233.1 14.91"/>
    </g>
    <g class="guide xgridlines yfixed" stroke-dasharray="0.5,0.5" stroke-width="0.2" stroke="#575757" id="img-cfdc8e9a-17">
      <path fill="none" d="M27.38,12.91 L 27.38 120.95"/>
      <path fill="none" d="M40.67,12.91 L 40.67 120.95"/>
      <path fill="none" d="M53.95,12.91 L 53.95 120.95"/>
      <path fill="none" d="M67.24,12.91 L 67.24 120.95"/>
      <path fill="none" d="M80.52,12.91 L 80.52 120.95"/>
      <path fill="none" d="M93.81,12.91 L 93.81 120.95"/>
      <path fill="none" d="M107.09,12.91 L 107.09 120.95"/>
      <path fill="none" d="M120.38,12.91 L 120.38 120.95"/>
      <path fill="none" d="M133.67,12.91 L 133.67 120.95"/>
      <path fill="none" d="M146.95,12.91 L 146.95 120.95"/>
      <path fill="none" d="M160.24,12.91 L 160.24 120.95"/>
      <path fill="none" d="M173.52,12.91 L 173.52 120.95"/>
      <path fill="none" d="M186.81,12.91 L 186.81 120.95"/>
      <path fill="none" d="M200.1,12.91 L 200.1 120.95"/>
      <path fill="none" d="M213.38,12.91 L 213.38 120.95"/>
      <path fill="none" d="M226.67,12.91 L 226.67 120.95"/>
    </g>
    <g class="plotpanel" id="img-cfdc8e9a-18">
      <g class="geometry" id="img-cfdc8e9a-19">
        <g stroke-width="0.3" id="img-cfdc8e9a-20">
          <use xlink:href="#img-cfdc8e9a-21" x="58.38" y="118.95" stroke="#B3867B" fill="#FF0000" class="color_Republican"/>
          <use xlink:href="#img-cfdc8e9a-21" x="67.24" y="63.1" stroke="#B3867B" fill="#FF0000" class="color_Republican"/>
          <use xlink:href="#img-cfdc8e9a-21" x="71.67" y="64.67" stroke="#B3867B" fill="#FF0000" class="color_Republican"/>
          <use xlink:href="#img-cfdc8e9a-21" x="76.09" y="77.47" stroke="#B3867B" fill="#FF0000" class="color_Republican"/>
          <use xlink:href="#img-cfdc8e9a-21" x="80.52" y="78.73" stroke="#B3867B" fill="#FF0000" class="color_Republican"/>
          <use xlink:href="#img-cfdc8e9a-21" x="84.95" y="76.6" stroke="#B3867B" fill="#FF0000" class="color_Republican"/>
          <use xlink:href="#img-cfdc8e9a-21" x="89.38" y="79.37" stroke="#B3867B" fill="#FF0000" class="color_Republican"/>
          <use xlink:href="#img-cfdc8e9a-21" x="93.81" y="85.89" stroke="#B3867B" fill="#FF0000" class="color_Republican"/>
          <use xlink:href="#img-cfdc8e9a-21" x="98.24" y="92.82" stroke="#B3867B" fill="#FF0000" class="color_Republican"/>
          <use xlink:href="#img-cfdc8e9a-21" x="102.67" y="82.5" stroke="#B3867B" fill="#FF0000" class="color_Republican"/>
          <use xlink:href="#img-cfdc8e9a-21" x="107.09" y="77.08" stroke="#B3867B" fill="#FF0000" class="color_Republican"/>
          <use xlink:href="#img-cfdc8e9a-21" x="111.52" y="80.15" stroke="#B3867B" fill="#FF0000" class="color_Republican"/>
          <use xlink:href="#img-cfdc8e9a-21" x="115.95" y="97.68" stroke="#B3867B" fill="#FF0000" class="color_Republican"/>
          <use xlink:href="#img-cfdc8e9a-21" x="120.38" y="89.06" stroke="#B3867B" fill="#FF0000" class="color_Republican"/>
          <use xlink:href="#img-cfdc8e9a-21" x="124.81" y="78.66" stroke="#B3867B" fill="#FF0000" class="color_Republican"/>
          <use xlink:href="#img-cfdc8e9a-21" x="129.24" y="88.49" stroke="#B3867B" fill="#FF0000" class="color_Republican"/>
          <use xlink:href="#img-cfdc8e9a-21" x="133.67" y="78.03" stroke="#B3867B" fill="#FF0000" class="color_Republican"/>
          <use xlink:href="#img-cfdc8e9a-21" x="138.09" y="105.53" stroke="#B3867B" fill="#FF0000" class="color_Republican"/>
          <use xlink:href="#img-cfdc8e9a-21" x="142.52" y="100.37" stroke="#B3867B" fill="#FF0000" class="color_Republican"/>
          <use xlink:href="#img-cfdc8e9a-21" x="146.95" y="97.12" stroke="#B3867B" fill="#FF0000" class="color_Republican"/>
          <use xlink:href="#img-cfdc8e9a-21" x="151.38" y="87.9" stroke="#B3867B" fill="#FF0000" class="color_Republican"/>
          <use xlink:href="#img-cfdc8e9a-21" x="155.81" y="97.09" stroke="#B3867B" fill="#FF0000" class="color_Republican"/>
          <use xlink:href="#img-cfdc8e9a-21" x="160.24" y="73.42" stroke="#B3867B" fill="#FF0000" class="color_Republican"/>
          <use xlink:href="#img-cfdc8e9a-21" x="164.67" y="71.28" stroke="#B3867B" fill="#FF0000" class="color_Republican"/>
          <use xlink:href="#img-cfdc8e9a-21" x="169.09" y="74.15" stroke="#B3867B" fill="#FF0000" class="color_Republican"/>
          <use xlink:href="#img-cfdc8e9a-21" x="173.52" y="73.79" stroke="#B3867B" fill="#FF0000" class="color_Republican"/>
          <use xlink:href="#img-cfdc8e9a-21" x="177.95" y="86.68" stroke="#B3867B" fill="#FF0000" class="color_Republican"/>
          <use xlink:href="#img-cfdc8e9a-21" x="182.38" y="47.35" stroke="#B3867B" fill="#FF0000" class="color_Republican"/>
          <use xlink:href="#img-cfdc8e9a-21" x="186.81" y="82.61" stroke="#B3867B" fill="#FF0000" class="color_Republican"/>
          <use xlink:href="#img-cfdc8e9a-21" x="191.24" y="68.87" stroke="#B3867B" fill="#FF0000" class="color_Republican"/>
          <use xlink:href="#img-cfdc8e9a-21" x="195.67" y="56.04" stroke="#B3867B" fill="#FF0000" class="color_Republican"/>
          <use xlink:href="#img-cfdc8e9a-21" x="200.1" y="60.31" stroke="#B3867B" fill="#FF0000" class="color_Republican"/>
          <use xlink:href="#img-cfdc8e9a-21" x="204.52" y="82.04" stroke="#B3867B" fill="#FF0000" class="color_Republican"/>
          <use xlink:href="#img-cfdc8e9a-21" x="208.95" y="80.66" stroke="#B3867B" fill="#FF0000" class="color_Republican"/>
          <use xlink:href="#img-cfdc8e9a-21" x="213.38" y="65.57" stroke="#B3867B" fill="#FF0000" class="color_Republican"/>
          <use xlink:href="#img-cfdc8e9a-21" x="217.81" y="62.45" stroke="#B3867B" fill="#FF0000" class="color_Republican"/>
          <use xlink:href="#img-cfdc8e9a-21" x="222.24" y="57.86" stroke="#B3867B" fill="#FF0000" class="color_Republican"/>
          <use xlink:href="#img-cfdc8e9a-21" x="226.67" y="55.94" stroke="#B3867B" fill="#FF0000" class="color_Republican"/>
          <use xlink:href="#img-cfdc8e9a-21" x="31.81" y="52.28" stroke="#988BAD" fill="#0000FF" class="color_Democratic"/>
          <use xlink:href="#img-cfdc8e9a-21" x="36.24" y="60.26" stroke="#988BAD" fill="#0000FF" class="color_Democratic"/>
          <use xlink:href="#img-cfdc8e9a-21" x="40.67" y="53.4" stroke="#988BAD" fill="#0000FF" class="color_Democratic"/>
          <use xlink:href="#img-cfdc8e9a-21" x="45.09" y="61.65" stroke="#988BAD" fill="#0000FF" class="color_Democratic"/>
          <use xlink:href="#img-cfdc8e9a-21" x="49.52" y="54.26" stroke="#988BAD" fill="#0000FF" class="color_Democratic"/>
          <use xlink:href="#img-cfdc8e9a-21" x="53.95" y="49.12" stroke="#988BAD" fill="#0000FF" class="color_Democratic"/>
          <use xlink:href="#img-cfdc8e9a-21" x="58.38" y="108.66" stroke="#988BAD" fill="#0000FF" class="color_Democratic"/>
          <use xlink:href="#img-cfdc8e9a-21" x="67.24" y="70.76" stroke="#988BAD" fill="#0000FF" class="color_Democratic"/>
          <use xlink:href="#img-cfdc8e9a-21" x="71.67" y="69.19" stroke="#988BAD" fill="#0000FF" class="color_Democratic"/>
          <use xlink:href="#img-cfdc8e9a-21" x="76.09" y="56.61" stroke="#988BAD" fill="#0000FF" class="color_Democratic"/>
          <use xlink:href="#img-cfdc8e9a-21" x="80.52" y="60.56" stroke="#988BAD" fill="#0000FF" class="color_Democratic"/>
          <use xlink:href="#img-cfdc8e9a-21" x="84.95" y="58.79" stroke="#988BAD" fill="#0000FF" class="color_Democratic"/>
          <use xlink:href="#img-cfdc8e9a-21" x="89.38" y="61.94" stroke="#988BAD" fill="#0000FF" class="color_Democratic"/>
          <use xlink:href="#img-cfdc8e9a-21" x="93.81" y="57.25" stroke="#988BAD" fill="#0000FF" class="color_Democratic"/>
          <use xlink:href="#img-cfdc8e9a-21" x="98.24" y="42.25" stroke="#988BAD" fill="#0000FF" class="color_Democratic"/>
          <use xlink:href="#img-cfdc8e9a-21" x="102.67" y="52.93" stroke="#988BAD" fill="#0000FF" class="color_Democratic"/>
          <use xlink:href="#img-cfdc8e9a-21" x="107.09" y="61.37" stroke="#988BAD" fill="#0000FF" class="color_Democratic"/>
          <use xlink:href="#img-cfdc8e9a-21" x="111.52" y="59.32" stroke="#988BAD" fill="#0000FF" class="color_Democratic"/>
          <use xlink:href="#img-cfdc8e9a-21" x="115.95" y="61.72" stroke="#988BAD" fill="#0000FF" class="color_Democratic"/>
          <use xlink:href="#img-cfdc8e9a-21" x="120.38" y="50.32" stroke="#988BAD" fill="#0000FF" class="color_Democratic"/>
          <use xlink:href="#img-cfdc8e9a-21" x="124.81" y="58.1" stroke="#988BAD" fill="#0000FF" class="color_Democratic"/>
          <use xlink:href="#img-cfdc8e9a-21" x="129.24" y="55.27" stroke="#988BAD" fill="#0000FF" class="color_Democratic"/>
          <use xlink:href="#img-cfdc8e9a-21" x="133.67" y="56.22" stroke="#988BAD" fill="#0000FF" class="color_Democratic"/>
          <use xlink:href="#img-cfdc8e9a-21" x="138.09" y="29.51" stroke="#988BAD" fill="#0000FF" class="color_Democratic"/>
          <use xlink:href="#img-cfdc8e9a-21" x="142.52" y="33.85" stroke="#988BAD" fill="#0000FF" class="color_Democratic"/>
          <use xlink:href="#img-cfdc8e9a-21" x="146.95" y="36.74" stroke="#988BAD" fill="#0000FF" class="color_Democratic"/>
          <use xlink:href="#img-cfdc8e9a-21" x="151.38" y="46.17" stroke="#988BAD" fill="#0000FF" class="color_Democratic"/>
          <use xlink:href="#img-cfdc8e9a-21" x="155.81" y="54.74" stroke="#988BAD" fill="#0000FF" class="color_Democratic"/>
          <use xlink:href="#img-cfdc8e9a-21" x="160.24" y="60.79" stroke="#988BAD" fill="#0000FF" class="color_Democratic"/>
          <use xlink:href="#img-cfdc8e9a-21" x="164.67" y="64.37" stroke="#988BAD" fill="#0000FF" class="color_Democratic"/>
          <use xlink:href="#img-cfdc8e9a-21" x="169.09" y="66.74" stroke="#988BAD" fill="#0000FF" class="color_Democratic"/>
          <use xlink:href="#img-cfdc8e9a-21" x="173.52" y="60.62" stroke="#988BAD" fill="#0000FF" class="color_Democratic"/>
          <use xlink:href="#img-cfdc8e9a-21" x="177.95" y="87.4" stroke="#988BAD" fill="#0000FF" class="color_Democratic"/>
          <use xlink:href="#img-cfdc8e9a-21" x="182.38" y="87" stroke="#988BAD" fill="#0000FF" class="color_Democratic"/>
          <use xlink:href="#img-cfdc8e9a-21" x="186.81" y="51.39" stroke="#988BAD" fill="#0000FF" class="color_Democratic"/>
          <use xlink:href="#img-cfdc8e9a-21" x="191.24" y="69.51" stroke="#988BAD" fill="#0000FF" class="color_Democratic"/>
          <use xlink:href="#img-cfdc8e9a-21" x="195.67" y="79.11" stroke="#988BAD" fill="#0000FF" class="color_Democratic"/>
          <use xlink:href="#img-cfdc8e9a-21" x="200.1" y="75.06" stroke="#988BAD" fill="#0000FF" class="color_Democratic"/>
          <use xlink:href="#img-cfdc8e9a-21" x="204.52" y="63.59" stroke="#988BAD" fill="#0000FF" class="color_Democratic"/>
          <use xlink:href="#img-cfdc8e9a-21" x="208.95" y="63.04" stroke="#988BAD" fill="#0000FF" class="color_Democratic"/>
          <use xlink:href="#img-cfdc8e9a-21" x="213.38" y="71.23" stroke="#988BAD" fill="#0000FF" class="color_Democratic"/>
          <use xlink:href="#img-cfdc8e9a-21" x="217.81" y="72.6" stroke="#988BAD" fill="#0000FF" class="color_Democratic"/>
          <use xlink:href="#img-cfdc8e9a-21" x="222.24" y="78.52" stroke="#988BAD" fill="#0000FF" class="color_Democratic"/>
          <use xlink:href="#img-cfdc8e9a-21" x="226.67" y="80.58" stroke="#988BAD" fill="#0000FF" class="color_Democratic"/>
        </g>
      </g>
      <g stroke-width="0.3" fill="#000000" fill-opacity="0.000" stroke-dasharray="none" id="img-cfdc8e9a-22">
        <path fill="none" d="M31.81,52.28 L 36.24 60.26 40.67 53.4 45.09 61.65 49.52 54.26 53.95 49.12 58.38 108.66 67.24 70.76 71.67 69.19 76.09 56.61 80.52 60.56 84.95 58.79 89.38 61.94 93.81 57.25 98.24 42.25 102.67 52.93 107.09 61.37 111.52 59.32 115.95 61.72 120.38 50.32 124.81 58.1 129.24 55.27 133.67 56.22 138.09 29.51 142.52 33.85 146.95 36.74 151.38 46.17 155.81 54.74 160.24 60.79 164.67 64.37 169.09 66.74 173.52 60.62 177.95 87.4 182.38 87 186.81 51.39 191.24 69.51 195.67 79.11 200.1 75.06 204.52 63.59 208.95 63.04 213.38 71.23 217.81 72.6 222.24 78.52 226.67 80.58" stroke="#0000FF" class="geometry color_Democratic"/>
        <path fill="none" d="M58.38,118.95 L 67.24 63.1 71.67 64.67 76.09 77.47 80.52 78.73 84.95 76.6 89.38 79.37 93.81 85.89 98.24 92.82 102.67 82.5 107.09 77.08 111.52 80.15 115.95 97.68 120.38 89.06 124.81 78.66 129.24 88.49 133.67 78.03 138.09 105.53 142.52 100.37 146.95 97.12 151.38 87.9 155.81 97.09 160.24 73.42 164.67 71.28 169.09 74.15 173.52 73.79 177.95 86.68 182.38 47.35 186.81 82.61 191.24 68.87 195.67 56.04 200.1 60.31 204.52 82.04 208.95 80.66 213.38 65.57 217.81 62.45 222.24 57.86 226.67 55.94" stroke="#FF0000" class="geometry color_Republican"/>
      </g>
    </g>
  </g>
</g>
  <g class="guide ylabels" font-size="4.76" font-family="'PT Sans Caption','Helvetica Neue','Helvetica',sans-serif" fill="#A1A1A1" id="img-cfdc8e9a-23">
    <text x="24.38" y="118.95" text-anchor="end" dy="0.35em">0</text>
    <text x="24.38" y="92.94" text-anchor="end" dy="0.35em">25</text>
    <text x="24.38" y="66.93" text-anchor="end" dy="0.35em">50</text>
    <text x="24.38" y="40.92" text-anchor="end" dy="0.35em">75</text>
    <text x="24.38" y="14.91" text-anchor="end" dy="0.35em">100</text>
  </g>
  <g font-size="6.35" font-family="'PT Sans','Helvetica Neue','Helvetica',sans-serif" fill="#A1A1A1" stroke="#000000" stroke-opacity="0.000" id="img-cfdc8e9a-24">
    <text x="9.95" y="64.93" text-anchor="middle" dy="0.35em" transform="rotate(-90, 9.95, 66.93)">Popular Vote (%)</text>
  </g>
  <g font-size="6.35" font-family="'PT Sans','Helvetica Neue','Helvetica',sans-serif" fill="#A1A1A1" stroke="#000000" stroke-opacity="0.000" id="img-cfdc8e9a-25">
    <text x="129.24" y="5" text-anchor="middle" dy="0.6em">Arkansas</text>
  </g>
</g>
<defs>
  <clipPath id="img-cfdc8e9a-13">
  <path d="M25.38,12.91 L 233.1 12.91 233.1 120.95 25.38 120.95" />
</clipPath>
  <g id="img-cfdc8e9a-21">
    <circle cx="0" cy="0" r="0.9"/>
  </g>
</defs>
</svg>
