<svg xmlns="http://www.w3.org/2000/svg" xmlns:xlink="http://www.w3.org/1999/xlink" version="1.2" width="238.1mm" height="599.924" viewBox="0 0 238.1 158.73" stroke-width=".3" font-size="3.88"><path d="M0 0h238.1v158.73H0z" stroke="#000" stroke-opacity="0" fill="#222831"/><g class="plotroot xscalable yscalable"><g class="guide colorkey"><g class="color_Democratic"><text x="51.52" y="148.78" dy=".35em" fill="#A1A1A1" font-size="3.7" font-family="'PT Sans','Helvetica Neue','Helvetica',sans-serif">Democratic</text><path d="M48.29 147.66h2.22v2.22h-2.22z" fill="#00F" stroke="#000" stroke-opacity="0"/></g><g class="color_Republican"><text x="29.6" y="148.78" dy=".35em" fill="#A1A1A1" font-size="3.7" font-family="'PT Sans','Helvetica Neue','Helvetica',sans-serif">Republican</text><path d="M26.38 147.66h2.22v2.22h-2.22z" fill="#F00" stroke="#000" stroke-opacity="0"/></g><text x="26.38" y="145.28" fill="#A1A1A1" font-size="6.35" font-family="'PT Sans','Helvetica Neue','Helvetica',sans-serif" stroke="#000" stroke-opacity="0">Party</text></g><text x="129.24" y="130.46" text-anchor="middle" dy=".6em" font-size="6.35" font-family="'PT Sans','Helvetica Neue','Helvetica',sans-serif" fill="#A1A1A1" stroke="#000" stroke-opacity="0">Year</text><g class="guide xlabels" font-size="4.76" font-family="'PT Sans Caption','Helvetica Neue','Helvetica',sans-serif" fill="#A1A1A1" text-anchor="middle"><text x="27.38" y="121.95" dy=".6em">1832</text><text x="40.67" y="121.95" dy=".6em">1844</text><text x="53.95" y="121.95" dy=".6em">1856</text><text x="67.24" y="121.95" dy=".6em">1868</text><text x="80.52" y="121.95" dy=".6em">1880</text><text x="93.81" y="121.95" dy=".6em">1892</text><text x="107.09" y="121.95" dy=".6em">1904</text><text x="120.38" y="121.95" dy=".6em">1916</text><text x="133.67" y="121.95" dy=".6em">1928</text><text x="146.95" y="121.95" dy=".6em">1940</text><text x="160.24" y="121.95" dy=".6em">1952</text><text x="173.52" y="121.95" dy=".6em">1964</text><text x="186.81" y="121.95" dy=".6em">1976</text><text x="200.1" y="121.95" dy=".6em">1988</text><text x="213.38" y="121.95" dy=".6em">2000</text><text x="226.67" y="121.95" dy=".6em">2012</text></g><g clip-path="url(#a)"><path d="M25.38 12.91H233.1v108.04H25.38z" pointer-events="visible" fill="#222831" stroke="#000" stroke-opacity="0" class="guide background"/><g class="guide ygridlines xfixed" stroke-dasharray="0.5,0.5" stroke-width=".2" stroke="#575757" fill="none"><path d="M25.38 118.95H233.1M25.38 92.94H233.1M25.38 66.93H233.1M25.38 40.92H233.1M25.38 14.91H233.1"/></g><g class="guide xgridlines yfixed" stroke-dasharray="0.5,0.5" stroke-width=".2" stroke="#575757" fill="none"><path d="M27.38 12.91v108.04M40.67 12.91v108.04M53.95 12.91v108.04M67.24 12.91v108.04M80.52 12.91v108.04M93.81 12.91v108.04M107.09 12.91v108.04M120.38 12.91v108.04M133.67 12.91v108.04M146.95 12.91v108.04M160.24 12.91v108.04M173.52 12.91v108.04M186.81 12.91v108.04M200.1 12.91v108.04M213.38 12.91v108.04M226.67 12.91v108.04"/></g><g class="plotpanel"><g class="geometry"><use xlink:href="#b" x="58.38" y="118.95" stroke="#B3867B" fill="#F00" class="color_Republican"/><use xlink:href="#b" x="67.24" y="63.1" stroke="#B3867B" fill="#F00" class="color_Republican"/><use xlink:href="#b" x="71.67" y="64.67" stroke="#B3867B" fill="#F00" class="color_Republican"/><use xlink:href="#b" x="76.09" y="77.47" stroke="#B3867B" fill="#F00" class="color_Republican"/><use xlink:href="#b" x="80.52" y="78.73" stroke="#B3867B" fill="#F00" class="color_Republican"/><use xlink:href="#b" x="84.95" y="76.6" stroke="#B3867B" fill="#F00" class="color_Republican"/><use xlink:href="#b" x="89.38" y="79.37" stroke="#B3867B" fill="#F00" class="color_Republican"/><use xlink:href="#b" x="93.81" y="85.89" stroke="#B3867B" fill="#F00" class="color_Republican"/><use xlink:href="#b" x="98.24" y="92.82" stroke="#B3867B" fill="#F00" class="color_Republican"/><use xlink:href="#b" x="102.67" y="82.5" stroke="#B3867B" fill="#F00" class="color_Republican"/><use xlink:href="#b" x="107.09" y="77.08" stroke="#B3867B" fill="#F00" class="color_Republican"/><use xlink:href="#b" x="111.52" y="80.15" stroke="#B3867B" fill="#F00" class="color_Republican"/><use xlink:href="#b" x="115.95" y="97.68" stroke="#B3867B" fill="#F00" class="color_Republican"/><use xlink:href="#b" x="120.38" y="89.06" stroke="#B3867B" fill="#F00" class="color_Republican"/><use xlink:href="#b" x="124.81" y="78.66" stroke="#B3867B" fill="#F00" class="color_Republican"/><use xlink:href="#b" x="129.24" y="88.49" stroke="#B3867B" fill="#F00" class="color_Republican"/><use xlink:href="#b" x="133.67" y="78.03" stroke="#B3867B" fill="#F00" class="color_Republican"/><use xlink:href="#b" x="138.09" y="105.53" stroke="#B3867B" fill="#F00" class="color_Republican"/><use xlink:href="#b" x="142.52" y="100.37" stroke="#B3867B" fill="#F00" class="color_Republican"/><use xlink:href="#b" x="146.95" y="97.12" stroke="#B3867B" fill="#F00" class="color_Republican"/><use xlink:href="#b" x="151.38" y="87.9" stroke="#B3867B" fill="#F00" class="color_Republican"/><use xlink:href="#b" x="155.81" y="97.09" stroke="#B3867B" fill="#F00" class="color_Republican"/><use xlink:href="#b" x="160.24" y="73.42" stroke="#B3867B" fill="#F00" class="color_Republican"/><use xlink:href="#b" x="164.67" y="71.28" stroke="#B3867B" fill="#F00" class="color_Republican"/><use xlink:href="#b" x="169.09" y="74.15" stroke="#B3867B" fill="#F00" class="color_Republican"/><use xlink:href="#b" x="173.52" y="73.79" stroke="#B3867B" fill="#F00" class="color_Republican"/><use xlink:href="#b" x="177.95" y="86.68" stroke="#B3867B" fill="#F00" class="color_Republican"/><use xlink:href="#b" x="182.38" y="47.35" stroke="#B3867B" fill="#F00" class="color_Republican"/><use xlink:href="#b" x="186.81" y="82.61" stroke="#B3867B" fill="#F00" class="color_Republican"/><use xlink:href="#b" x="191.24" y="68.87" stroke="#B3867B" fill="#F00" class="color_Republican"/><use xlink:href="#b" x="195.67" y="56.04" stroke="#B3867B" fill="#F00" class="color_Republican"/><use xlink:href="#b" x="200.1" y="60.31" stroke="#B3867B" fill="#F00" class="color_Republican"/><use xlink:href="#b" x="204.52" y="82.04" stroke="#B3867B" fill="#F00" class="color_Republican"/><use xlink:href="#b" x="208.95" y="80.66" stroke="#B3867B" fill="#F00" class="color_Republican"/><use xlink:href="#b" x="213.38" y="65.57" stroke="#B3867B" fill="#F00" class="color_Republican"/><use xlink:href="#b" x="217.81" y="62.45" stroke="#B3867B" fill="#F00" class="color_Republican"/><use xlink:href="#b" x="222.24" y="57.86" stroke="#B3867B" fill="#F00" class="color_Republican"/><use xlink:href="#b" x="226.67" y="55.94" stroke="#B3867B" fill="#F00" class="color_Republican"/><use xlink:href="#b" x="31.81" y="52.28" stroke="#988BAD" fill="#00F" class="color_Democratic"/><use xlink:href="#b" x="36.24" y="60.26" stroke="#988BAD" fill="#00F" class="color_Democratic"/><use xlink:href="#b" x="40.67" y="53.4" stroke="#988BAD" fill="#00F" class="color_Democratic"/><use xlink:href="#b" x="45.09" y="61.65" stroke="#988BAD" fill="#00F" class="color_Democratic"/><use xlink:href="#b" x="49.52" y="54.26" stroke="#988BAD" fill="#00F" class="color_Democratic"/><use xlink:href="#b" x="53.95" y="49.12" stroke="#988BAD" fill="#00F" class="color_Democratic"/><use xlink:href="#b" x="58.38" y="108.66" stroke="#988BAD" fill="#00F" class="color_Democratic"/><use xlink:href="#b" x="67.24" y="70.76" stroke="#988BAD" fill="#00F" class="color_Democratic"/><use xlink:href="#b" x="71.67" y="69.19" stroke="#988BAD" fill="#00F" class="color_Democratic"/><use xlink:href="#b" x="76.09" y="56.61" stroke="#988BAD" fill="#00F" class="color_Democratic"/><use xlink:href="#b" x="80.52" y="60.56" stroke="#988BAD" fill="#00F" class="color_Democratic"/><use xlink:href="#b" x="84.95" y="58.79" stroke="#988BAD" fill="#00F" class="color_Democratic"/><use xlink:href="#b" x="89.38" y="61.94" stroke="#988BAD" fill="#00F" class="color_Democratic"/><use xlink:href="#b" x="93.81" y="57.25" stroke="#988BAD" fill="#00F" class="color_Democratic"/><use xlink:href="#b" x="98.24" y="42.25" stroke="#988BAD" fill="#00F" class="color_Democratic"/><use xlink:href="#b" x="102.67" y="52.93" stroke="#988BAD" fill="#00F" class="color_Democratic"/><use xlink:href="#b" x="107.09" y="61.37" stroke="#988BAD" fill="#00F" class="color_Democratic"/><use xlink:href="#b" x="111.52" y="59.32" stroke="#988BAD" fill="#00F" class="color_Democratic"/><use xlink:href="#b" x="115.95" y="61.72" stroke="#988BAD" fill="#00F" class="color_Democratic"/><use xlink:href="#b" x="120.38" y="50.32" stroke="#988BAD" fill="#00F" class="color_Democratic"/><use xlink:href="#b" x="124.81" y="58.1" stroke="#988BAD" fill="#00F" class="color_Democratic"/><use xlink:href="#b" x="129.24" y="55.27" stroke="#988BAD" fill="#00F" class="color_Democratic"/><use xlink:href="#b" x="133.67" y="56.22" stroke="#988BAD" fill="#00F" class="color_Democratic"/><use xlink:href="#b" x="138.09" y="29.51" stroke="#988BAD" fill="#00F" class="color_Democratic"/><use xlink:href="#b" x="142.52" y="33.85" stroke="#988BAD" fill="#00F" class="color_Democratic"/><use xlink:href="#b" x="146.95" y="36.74" stroke="#988BAD" fill="#00F" class="color_Democratic"/><use xlink:href="#b" x="151.38" y="46.17" stroke="#988BAD" fill="#00F" class="color_Democratic"/><use xlink:href="#b" x="155.81" y="54.74" stroke="#988BAD" fill="#00F" class="color_Democratic"/><use xlink:href="#b" x="160.24" y="60.79" stroke="#988BAD" fill="#00F" class="color_Democratic"/><use xlink:href="#b" x="164.67" y="64.37" stroke="#988BAD" fill="#00F" class="color_Democratic"/><use xlink:href="#b" x="169.09" y="66.74" stroke="#988BAD" fill="#00F" class="color_Democratic"/><use xlink:href="#b" x="173.52" y="60.62" stroke="#988BAD" fill="#00F" class="color_Democratic"/><use xlink:href="#b" x="177.95" y="87.4" stroke="#988BAD" fill="#00F" class="color_Democratic"/><use xlink:href="#b" x="182.38" y="87" stroke="#988BAD" fill="#00F" class="color_Democratic"/><use xlink:href="#b" x="186.81" y="51.39" stroke="#988BAD" fill="#00F" class="color_Democratic"/><use xlink:href="#b" x="191.24" y="69.51" stroke="#988BAD" fill="#00F" class="color_Democratic"/><use xlink:href="#b" x="195.67" y="79.11" stroke="#988BAD" fill="#00F" class="color_Democratic"/><use xlink:href="#b" x="200.1" y="75.06" stroke="#988BAD" fill="#00F" class="color_Democratic"/><use xlink:href="#b" x="204.52" y="63.59" stroke="#988BAD" fill="#00F" class="color_Democratic"/><use xlink:href="#b" x="208.95" y="63.04" stroke="#988BAD" fill="#00F" class="color_Democratic"/><use xlink:href="#b" x="213.38" y="71.23" stroke="#988BAD" fill="#00F" class="color_Democratic"/><use xlink:href="#b" x="217.81" y="72.6" stroke="#988BAD" fill="#00F" class="color_Democratic"/><use xlink:href="#b" x="222.24" y="78.52" stroke="#988BAD" fill="#00F" class="color_Democratic"/><use xlink:href="#b" x="226.67" y="80.58" stroke="#988BAD" fill="#00F" class="color_Democratic"/></g><g fill-opacity="0"><path fill="none" d="M31.81 52.28l4.43 7.98 4.43-6.86 4.42 8.25 4.43-7.39 4.43-5.14 4.43 59.54 8.86-37.9 4.43-1.57 4.42-12.58 4.43 3.95 4.43-1.77 4.43 3.15 4.43-4.69 4.43-15 4.43 10.68 4.42 8.44 4.43-2.05 4.43 2.4 4.43-11.4 4.43 7.78 4.43-2.83 4.43.95 4.42-26.71 4.43 4.34 4.43 2.89 4.43 9.43 4.43 8.57 4.43 6.05 4.43 3.58 4.42 2.37 4.43-6.12 4.43 26.78 4.43-.4 4.43-35.61 4.43 18.12 4.43 9.6 4.43-4.05 4.42-11.47 4.43-.55 4.43 8.19 4.43 1.37 4.43 5.92 4.43 2.06" stroke="#00F" class="geometry color_Democratic"/><path fill="none" d="M58.38 118.95l8.86-55.85 4.43 1.57 4.42 12.8 4.43 1.26 4.43-2.13 4.43 2.77 4.43 6.52 4.43 6.93 4.43-10.32 4.42-5.42 4.43 3.07 4.43 17.53 4.43-8.62 4.43-10.4 4.43 9.83 4.43-10.46 4.42 27.5 4.43-5.16 4.43-3.25 4.43-9.22 4.43 9.19 4.43-23.67 4.43-2.14 4.42 2.87 4.43-.36 4.43 12.89 4.43-39.33 4.43 35.26 4.43-13.74 4.43-12.83 4.43 4.27 4.42 21.73 4.43-1.38 4.43-15.09 4.43-3.12 4.43-4.59 4.43-1.92" stroke="#F00" class="geometry color_Republican"/></g></g></g><g class="guide ylabels" font-size="4.76" font-family="'PT Sans Caption','Helvetica Neue','Helvetica',sans-serif" fill="#A1A1A1" text-anchor="end"><text x="24.38" y="118.95" dy=".35em">0</text><text x="24.38" y="92.94" dy=".35em">25</text><text x="24.38" y="66.93" dy=".35em">50</text><text x="24.38" y="40.92" dy=".35em">75</text><text x="24.38" y="14.91" dy=".35em">100</text></g><text x="9.95" y="64.93" text-anchor="middle" dy=".35em" transform="rotate(-90 9.95 66.93)" font-size="6.35" font-family="'PT Sans','Helvetica Neue','Helvetica',sans-serif" fill="#A1A1A1" stroke="#000" stroke-opacity="0">Popular Vote (%)</text><text x="129.24" y="5" text-anchor="middle" dy=".6em" font-size="6.35" font-family="'PT Sans','Helvetica Neue','Helvetica',sans-serif" fill="#A1A1A1" stroke="#000" stroke-opacity="0">Arkansas</text></g><defs><clipPath id="a"><path d="M25.38 12.91H233.1v108.04H25.38"/></clipPath><circle r=".9" id="b"/></defs></svg>