<svg xmlns="http://www.w3.org/2000/svg" xmlns:xlink="http://www.w3.org/1999/xlink" version="1.2" width="238.1mm" height="599.924" viewBox="0 0 238.1 158.73" stroke-width=".3" font-size="3.88"><path d="M0 0h238.1v158.73H0z" stroke="#000" stroke-opacity="0" fill="#222831"/><g class="plotroot xscalable yscalable"><g class="guide colorkey"><g class="color_Democratic"><text x="51.52" y="148.78" dy=".35em" fill="#A1A1A1" font-size="3.7" font-family="'PT Sans','Helvetica Neue','Helvetica',sans-serif">Democratic</text><path d="M48.29 147.66h2.22v2.22h-2.22z" fill="#00F" stroke="#000" stroke-opacity="0"/></g><g class="color_Republican"><text x="29.6" y="148.78" dy=".35em" fill="#A1A1A1" font-size="3.7" font-family="'PT Sans','Helvetica Neue','Helvetica',sans-serif">Republican</text><path d="M26.38 147.66h2.22v2.22h-2.22z" fill="#F00" stroke="#000" stroke-opacity="0"/></g><text x="26.38" y="145.28" fill="#A1A1A1" font-size="6.35" font-family="'PT Sans','Helvetica Neue','Helvetica',sans-serif" stroke="#000" stroke-opacity="0">Party</text></g><text x="129.24" y="130.46" text-anchor="middle" dy=".6em" font-size="6.35" font-family="'PT Sans','Helvetica Neue','Helvetica',sans-serif" fill="#A1A1A1" stroke="#000" stroke-opacity="0">Year</text><g class="guide xlabels" font-size="4.76" font-family="'PT Sans Caption','Helvetica Neue','Helvetica',sans-serif" fill="#A1A1A1" text-anchor="middle"><text x="27.38" y="121.95" dy=".6em">1908</text><text x="42.47" y="121.95" dy=".6em">1916</text><text x="57.56" y="121.95" dy=".6em">1924</text><text x="72.65" y="121.95" dy=".6em">1932</text><text x="87.74" y="121.95" dy=".6em">1940</text><text x="102.83" y="121.95" dy=".6em">1948</text><text x="117.92" y="121.95" dy=".6em">1956</text><text x="133.01" y="121.95" dy=".6em">1964</text><text x="148.1" y="121.95" dy=".6em">1972</text><text x="163.19" y="121.95" dy=".6em">1980</text><text x="178.28" y="121.95" dy=".6em">1988</text><text x="193.37" y="121.95" dy=".6em">1996</text><text x="208.46" y="121.95" dy=".6em">2004</text><text x="223.55" y="121.95" dy=".6em">2012</text></g><g clip-path="url(#a)"><path d="M25.38 12.91H233.1v108.04H25.38z" pointer-events="visible" fill="#222831" stroke="#000" stroke-opacity="0" class="guide background"/><g class="guide ygridlines xfixed" stroke-dasharray="0.5,0.5" stroke-width=".2" stroke="#575757" fill="none"><path d="M25.38 118.95H233.1M25.38 92.94H233.1M25.38 66.93H233.1M25.38 40.92H233.1M25.38 14.91H233.1"/></g><g class="guide xgridlines yfixed" stroke-dasharray="0.5,0.5" stroke-width=".2" stroke="#575757" fill="none"><path d="M27.38 12.91v108.04M42.47 12.91v108.04M57.56 12.91v108.04M72.65 12.91v108.04M87.74 12.91v108.04M102.83 12.91v108.04M117.92 12.91v108.04M133.01 12.91v108.04M148.1 12.91v108.04M163.19 12.91v108.04M178.28 12.91v108.04M193.37 12.91v108.04M208.46 12.91v108.04M223.55 12.91v108.04"/></g><g class="plotpanel"><g class="geometry"><use xlink:href="#b" x="34.92" y="105.7" stroke="#B3867B" fill="#F00" class="color_Republican"/><use xlink:href="#b" x="42.47" y="82.15" stroke="#B3867B" fill="#F00" class="color_Republican"/><use xlink:href="#b" x="50.01" y="61.09" stroke="#B3867B" fill="#F00" class="color_Republican"/><use xlink:href="#b" x="57.56" y="76.03" stroke="#B3867B" fill="#F00" class="color_Republican"/><use xlink:href="#b" x="65.1" y="59.06" stroke="#B3867B" fill="#F00" class="color_Republican"/><use xlink:href="#b" x="72.65" y="87.19" stroke="#B3867B" fill="#F00" class="color_Republican"/><use xlink:href="#b" x="80.19" y="90.94" stroke="#B3867B" fill="#F00" class="color_Republican"/><use xlink:href="#b" x="87.74" y="81.49" stroke="#B3867B" fill="#F00" class="color_Republican"/><use xlink:href="#b" x="95.28" y="76.4" stroke="#B3867B" fill="#F00" class="color_Republican"/><use xlink:href="#b" x="102.83" y="73.36" stroke="#B3867B" fill="#F00" class="color_Republican"/><use xlink:href="#b" x="110.37" y="58.24" stroke="#B3867B" fill="#F00" class="color_Republican"/><use xlink:href="#b" x="117.92" y="55.49" stroke="#B3867B" fill="#F00" class="color_Republican"/><use xlink:href="#b" x="125.46" y="61.19" stroke="#B3867B" fill="#F00" class="color_Republican"/><use xlink:href="#b" x="133.01" y="66.47" stroke="#B3867B" fill="#F00" class="color_Republican"/><use xlink:href="#b" x="140.55" y="61.96" stroke="#B3867B" fill="#F00" class="color_Republican"/><use xlink:href="#b" x="148.1" y="54.82" stroke="#B3867B" fill="#F00" class="color_Republican"/><use xlink:href="#b" x="155.64" y="60.31" stroke="#B3867B" fill="#F00" class="color_Republican"/><use xlink:href="#b" x="163.19" y="55.89" stroke="#B3867B" fill="#F00" class="color_Republican"/><use xlink:href="#b" x="170.74" y="49.85" stroke="#B3867B" fill="#F00" class="color_Republican"/><use xlink:href="#b" x="178.28" y="56.58" stroke="#B3867B" fill="#F00" class="color_Republican"/><use xlink:href="#b" x="185.83" y="78.93" stroke="#B3867B" fill="#F00" class="color_Republican"/><use xlink:href="#b" x="193.37" y="72.87" stroke="#B3867B" fill="#F00" class="color_Republican"/><use xlink:href="#b" x="200.92" y="65.94" stroke="#B3867B" fill="#F00" class="color_Republican"/><use xlink:href="#b" x="208.46" y="61.96" stroke="#B3867B" fill="#F00" class="color_Republican"/><use xlink:href="#b" x="216.01" y="63.4" stroke="#B3867B" fill="#F00" class="color_Republican"/><use xlink:href="#b" x="223.55" y="63.31" stroke="#B3867B" fill="#F00" class="color_Republican"/><use xlink:href="#b" x="34.92" y="73.67" stroke="#988BAD" fill="#00F" class="color_Democratic"/><use xlink:href="#b" x="42.47" y="59.47" stroke="#988BAD" fill="#00F" class="color_Democratic"/><use xlink:href="#b" x="50.01" y="72.77" stroke="#988BAD" fill="#00F" class="color_Democratic"/><use xlink:href="#b" x="57.56" y="82.05" stroke="#988BAD" fill="#00F" class="color_Democratic"/><use xlink:href="#b" x="65.1" y="75.02" stroke="#988BAD" fill="#00F" class="color_Democratic"/><use xlink:href="#b" x="72.65" y="49.21" stroke="#988BAD" fill="#00F" class="color_Democratic"/><use xlink:href="#b" x="80.19" y="46.28" stroke="#988BAD" fill="#00F" class="color_Democratic"/><use xlink:href="#b" x="87.74" y="52.89" stroke="#988BAD" fill="#00F" class="color_Democratic"/><use xlink:href="#b" x="95.28" y="57.78" stroke="#988BAD" fill="#00F" class="color_Democratic"/><use xlink:href="#b" x="102.83" y="62.98" stroke="#988BAD" fill="#00F" class="color_Democratic"/><use xlink:href="#b" x="110.37" y="75.62" stroke="#988BAD" fill="#00F" class="color_Democratic"/><use xlink:href="#b" x="117.92" y="78.48" stroke="#988BAD" fill="#00F" class="color_Democratic"/><use xlink:href="#b" x="125.46" y="72.8" stroke="#988BAD" fill="#00F" class="color_Democratic"/><use xlink:href="#b" x="133.01" y="67.5" stroke="#988BAD" fill="#00F" class="color_Democratic"/><use xlink:href="#b" x="140.55" y="82.52" stroke="#988BAD" fill="#00F" class="color_Democratic"/><use xlink:href="#b" x="148.1" y="87.34" stroke="#988BAD" fill="#00F" class="color_Democratic"/><use xlink:href="#b" x="155.64" y="77.54" stroke="#988BAD" fill="#00F" class="color_Democratic"/><use xlink:href="#b" x="163.19" y="89.57" stroke="#988BAD" fill="#00F" class="color_Democratic"/><use xlink:href="#b" x="170.74" y="85.1" stroke="#988BAD" fill="#00F" class="color_Democratic"/><use xlink:href="#b" x="178.28" y="78.64" stroke="#988BAD" fill="#00F" class="color_Democratic"/><use xlink:href="#b" x="185.83" y="80.96" stroke="#988BAD" fill="#00F" class="color_Democratic"/><use xlink:href="#b" x="193.37" y="70.56" stroke="#988BAD" fill="#00F" class="color_Democratic"/><use xlink:href="#b" x="200.92" y="72.47" stroke="#988BAD" fill="#00F" class="color_Democratic"/><use xlink:href="#b" x="208.46" y="72.84" stroke="#988BAD" fill="#00F" class="color_Democratic"/><use xlink:href="#b" x="216.01" y="72.23" stroke="#988BAD" fill="#00F" class="color_Democratic"/><use xlink:href="#b" x="223.55" y="72.71" stroke="#988BAD" fill="#00F" class="color_Democratic"/></g><g fill-opacity="0"><path fill="none" d="M34.92 73.67l7.55-14.2 7.54 13.3 7.55 9.28 7.54-7.03 7.55-25.81 7.54-2.93 7.55 6.61 7.54 4.89 7.55 5.2 7.54 12.64 7.55 2.86 7.54-5.68 7.55-5.3 7.54 15.02 7.55 4.82 7.54-9.8 7.55 12.03 7.55-4.47 7.54-6.46 7.55 2.32 7.54-10.4 7.55 1.91 7.54.37 7.55-.61 7.54.48" stroke="#00F" class="geometry color_Democratic"/><path fill="none" d="M34.92 105.7l7.55-23.55 7.54-21.06 7.55 14.94 7.54-16.97 7.55 28.13 7.54 3.75 7.55-9.45 7.54-5.09 7.55-3.04 7.54-15.12 7.55-2.75 7.54 5.7 7.55 5.28 7.54-4.51 7.55-7.14 7.54 5.49 7.55-4.42 7.55-6.04 7.54 6.73 7.55 22.35 7.54-6.06 7.55-6.93 7.54-3.98 7.55 1.44 7.54-.09" stroke="#F00" class="geometry color_Republican"/></g></g></g><g class="guide ylabels" font-size="4.76" font-family="'PT Sans Caption','Helvetica Neue','Helvetica',sans-serif" fill="#A1A1A1" text-anchor="end"><text x="24.38" y="118.95" dy=".35em">0</text><text x="24.38" y="92.94" dy=".35em">25</text><text x="24.38" y="66.93" dy=".35em">50</text><text x="24.38" y="40.92" dy=".35em">75</text><text x="24.38" y="14.91" dy=".35em">100</text></g><text x="9.95" y="64.93" text-anchor="middle" dy=".35em" transform="rotate(-90 9.95 66.93)" font-size="6.35" font-family="'PT Sans','Helvetica Neue','Helvetica',sans-serif" fill="#A1A1A1" stroke="#000" stroke-opacity="0">Popular Vote (%)</text><text x="129.24" y="5" text-anchor="middle" dy=".6em" font-size="6.35" font-family="'PT Sans','Helvetica Neue','Helvetica',sans-serif" fill="#A1A1A1" stroke="#000" stroke-opacity="0">Arizona</text></g><defs><clipPath id="a"><path d="M25.38 12.91H233.1v108.04H25.38"/></clipPath><circle r=".9" id="b"/></defs></svg>