<?xml version="1.0" encoding="UTF-8"?>
<svg xmlns="http://www.w3.org/2000/svg"
     xmlns:xlink="http://www.w3.org/1999/xlink"
     xmlns:gadfly="http://www.gadflyjl.org/ns"
     version="1.2"
     width="320mm" height="160mm" viewBox="0 0 320 160"
     stroke="none"
     fill="#000000"
     stroke-width="0.3"
     font-size="3.88"
>
<g class="plotroot xscalable yscalable" id="img-825cb65a-1">
  <g class="guide colorkey" id="img-825cb65a-2">
    <g class="color_Democratic" id="img-825cb65a-3">
      <g fill="#FFFFFF" font-size="4.76" font-family="'PT Sans','Helvetica Neue','Helvetica',sans-serif" id="img-825cb65a-4">
        <text x="58.33" y="149.82" dy="0.35em">Democratic</text>
      </g>
      <g fill="#0000FF" stroke="#000000" stroke-opacity="0.000" id="img-825cb65a-5">
        <rect x="54.36" y="148.34" width="2.97" height="2.97"/>
      </g>
    </g>
    <g class="color_Republican" id="img-825cb65a-6">
      <g fill="#FFFFFF" font-size="4.76" font-family="'PT Sans','Helvetica Neue','Helvetica',sans-serif" id="img-825cb65a-7">
        <text x="29.73" y="149.82" dy="0.35em">Republican</text>
      </g>
      <g fill="#FF0000" stroke="#000000" stroke-opacity="0.000" id="img-825cb65a-8">
        <rect x="25.76" y="148.34" width="2.97" height="2.97"/>
      </g>
    </g>
    <g fill="#FFFFFF" font-size="6.35" font-family="'PT Sans','Helvetica Neue','Helvetica',sans-serif" stroke="#000000" stroke-opacity="0.000" id="img-825cb65a-9">
      <text x="25.76" y="145.06">Party</text>
    </g>
  </g>
  <g font-size="6.35" font-family="'PT Sans','Helvetica Neue','Helvetica',sans-serif" fill="#FFFFFF" stroke="#000000" stroke-opacity="0.000" id="img-825cb65a-10">
    <text x="169.88" y="130.77" text-anchor="middle" dy="0.6em">Year</text>
  </g>
  <g class="guide xlabels" font-size="4.76" font-family="'PT Sans Caption','Helvetica Neue','Helvetica',sans-serif" fill="#FFFFFF" id="img-825cb65a-11">
    <text x="26.76" y="122.89" text-anchor="middle" dy="0.6em">1832</text>
    <text x="45.43" y="122.89" text-anchor="middle" dy="0.6em">1844</text>
    <text x="64.09" y="122.89" text-anchor="middle" dy="0.6em">1856</text>
    <text x="82.76" y="122.89" text-anchor="middle" dy="0.6em">1868</text>
    <text x="101.43" y="122.89" text-anchor="middle" dy="0.6em">1880</text>
    <text x="120.1" y="122.89" text-anchor="middle" dy="0.6em">1892</text>
    <text x="138.77" y="122.89" text-anchor="middle" dy="0.6em">1904</text>
    <text x="157.43" y="122.89" text-anchor="middle" dy="0.6em">1916</text>
    <text x="176.1" y="122.89" text-anchor="middle" dy="0.6em">1928</text>
    <text x="194.77" y="122.89" text-anchor="middle" dy="0.6em">1940</text>
    <text x="213.44" y="122.89" text-anchor="middle" dy="0.6em">1952</text>
    <text x="232.11" y="122.89" text-anchor="middle" dy="0.6em">1964</text>
    <text x="250.77" y="122.89" text-anchor="middle" dy="0.6em">1976</text>
    <text x="269.44" y="122.89" text-anchor="middle" dy="0.6em">1988</text>
    <text x="288.11" y="122.89" text-anchor="middle" dy="0.6em">2000</text>
    <text x="306.78" y="122.89" text-anchor="middle" dy="0.6em">2012</text>
  </g>
<g clip-path="url(#img-825cb65a-12)">
  <g id="img-825cb65a-13">
    <g pointer-events="visible" opacity="1" fill="#000000" fill-opacity="0.000" stroke="#000000" stroke-opacity="0.000" class="guide background" id="img-825cb65a-14">
      <rect x="24.76" y="13.94" width="290.24" height="107.95"/>
    </g>
    <g class="guide ygridlines xfixed" stroke-dasharray="0.5,0.5" stroke-width="0.26" stroke="#FFFFFF" id="img-825cb65a-15">
      <path fill="none" d="M24.76,119.89 L 315 119.89"/>
      <path fill="none" d="M24.76,93.9 L 315 93.9"/>
      <path fill="none" d="M24.76,67.92 L 315 67.92"/>
      <path fill="none" d="M24.76,41.93 L 315 41.93"/>
      <path fill="none" d="M24.76,15.94 L 315 15.94"/>
    </g>
    <g class="guide xgridlines yfixed" stroke-dasharray="0.5,0.5" stroke-width="0.26" stroke="#FFFFFF" id="img-825cb65a-16">
      <path fill="none" d="M26.76,13.94 L 26.76 121.89"/>
      <path fill="none" d="M45.43,13.94 L 45.43 121.89"/>
      <path fill="none" d="M64.09,13.94 L 64.09 121.89"/>
      <path fill="none" d="M82.76,13.94 L 82.76 121.89"/>
      <path fill="none" d="M101.43,13.94 L 101.43 121.89"/>
      <path fill="none" d="M120.1,13.94 L 120.1 121.89"/>
      <path fill="none" d="M138.77,13.94 L 138.77 121.89"/>
      <path fill="none" d="M157.43,13.94 L 157.43 121.89"/>
      <path fill="none" d="M176.1,13.94 L 176.1 121.89"/>
      <path fill="none" d="M194.77,13.94 L 194.77 121.89"/>
      <path fill="none" d="M213.44,13.94 L 213.44 121.89"/>
      <path fill="none" d="M232.11,13.94 L 232.11 121.89"/>
      <path fill="none" d="M250.77,13.94 L 250.77 121.89"/>
      <path fill="none" d="M269.44,13.94 L 269.44 121.89"/>
      <path fill="none" d="M288.11,13.94 L 288.11 121.89"/>
      <path fill="none" d="M306.78,13.94 L 306.78 121.89"/>
    </g>
    <g class="plotpanel" id="img-825cb65a-17">
      <g class="geometry" id="img-825cb65a-18">
        <g stroke-width="0.3" id="img-825cb65a-19">
          <use xlink:href="#img-825cb65a-20" x="70.32" y="119.89" stroke="#FFFFFF" fill="#FF0000" class="color_Republican"/>
          <use xlink:href="#img-825cb65a-20" x="82.76" y="64.09" stroke="#FFFFFF" fill="#FF0000" class="color_Republican"/>
          <use xlink:href="#img-825cb65a-20" x="88.98" y="65.66" stroke="#FFFFFF" fill="#FF0000" class="color_Republican"/>
          <use xlink:href="#img-825cb65a-20" x="95.21" y="78.45" stroke="#FFFFFF" fill="#FF0000" class="color_Republican"/>
          <use xlink:href="#img-825cb65a-20" x="101.43" y="79.71" stroke="#FFFFFF" fill="#FF0000" class="color_Republican"/>
          <use xlink:href="#img-825cb65a-20" x="107.65" y="77.58" stroke="#FFFFFF" fill="#FF0000" class="color_Republican"/>
          <use xlink:href="#img-825cb65a-20" x="113.88" y="80.34" stroke="#FFFFFF" fill="#FF0000" class="color_Republican"/>
          <use xlink:href="#img-825cb65a-20" x="120.1" y="86.86" stroke="#FFFFFF" fill="#FF0000" class="color_Republican"/>
          <use xlink:href="#img-825cb65a-20" x="126.32" y="93.78" stroke="#FFFFFF" fill="#FF0000" class="color_Republican"/>
          <use xlink:href="#img-825cb65a-20" x="132.54" y="83.47" stroke="#FFFFFF" fill="#FF0000" class="color_Republican"/>
          <use xlink:href="#img-825cb65a-20" x="138.77" y="78.05" stroke="#FFFFFF" fill="#FF0000" class="color_Republican"/>
          <use xlink:href="#img-825cb65a-20" x="144.99" y="81.12" stroke="#FFFFFF" fill="#FF0000" class="color_Republican"/>
          <use xlink:href="#img-825cb65a-20" x="151.21" y="98.63" stroke="#FFFFFF" fill="#FF0000" class="color_Republican"/>
          <use xlink:href="#img-825cb65a-20" x="157.43" y="90.02" stroke="#FFFFFF" fill="#FF0000" class="color_Republican"/>
          <use xlink:href="#img-825cb65a-20" x="163.66" y="79.63" stroke="#FFFFFF" fill="#FF0000" class="color_Republican"/>
          <use xlink:href="#img-825cb65a-20" x="169.88" y="89.45" stroke="#FFFFFF" fill="#FF0000" class="color_Republican"/>
          <use xlink:href="#img-825cb65a-20" x="176.1" y="79.01" stroke="#FFFFFF" fill="#FF0000" class="color_Republican"/>
          <use xlink:href="#img-825cb65a-20" x="182.32" y="106.47" stroke="#FFFFFF" fill="#FF0000" class="color_Republican"/>
          <use xlink:href="#img-825cb65a-20" x="188.55" y="101.33" stroke="#FFFFFF" fill="#FF0000" class="color_Republican"/>
          <use xlink:href="#img-825cb65a-20" x="194.77" y="98.08" stroke="#FFFFFF" fill="#FF0000" class="color_Republican"/>
          <use xlink:href="#img-825cb65a-20" x="200.99" y="88.87" stroke="#FFFFFF" fill="#FF0000" class="color_Republican"/>
          <use xlink:href="#img-825cb65a-20" x="207.22" y="98.04" stroke="#FFFFFF" fill="#FF0000" class="color_Republican"/>
          <use xlink:href="#img-825cb65a-20" x="213.44" y="74.4" stroke="#FFFFFF" fill="#FF0000" class="color_Republican"/>
          <use xlink:href="#img-825cb65a-20" x="219.66" y="72.26" stroke="#FFFFFF" fill="#FF0000" class="color_Republican"/>
          <use xlink:href="#img-825cb65a-20" x="225.88" y="75.13" stroke="#FFFFFF" fill="#FF0000" class="color_Republican"/>
          <use xlink:href="#img-825cb65a-20" x="232.11" y="74.77" stroke="#FFFFFF" fill="#FF0000" class="color_Republican"/>
          <use xlink:href="#img-825cb65a-20" x="238.33" y="87.65" stroke="#FFFFFF" fill="#FF0000" class="color_Republican"/>
          <use xlink:href="#img-825cb65a-20" x="244.55" y="48.35" stroke="#FFFFFF" fill="#FF0000" class="color_Republican"/>
          <use xlink:href="#img-825cb65a-20" x="250.77" y="83.58" stroke="#FFFFFF" fill="#FF0000" class="color_Republican"/>
          <use xlink:href="#img-825cb65a-20" x="257" y="69.85" stroke="#FFFFFF" fill="#FF0000" class="color_Republican"/>
          <use xlink:href="#img-825cb65a-20" x="263.22" y="57.03" stroke="#FFFFFF" fill="#FF0000" class="color_Republican"/>
          <use xlink:href="#img-825cb65a-20" x="269.44" y="61.3" stroke="#FFFFFF" fill="#FF0000" class="color_Republican"/>
          <use xlink:href="#img-825cb65a-20" x="275.66" y="83.01" stroke="#FFFFFF" fill="#FF0000" class="color_Republican"/>
          <use xlink:href="#img-825cb65a-20" x="281.89" y="81.64" stroke="#FFFFFF" fill="#FF0000" class="color_Republican"/>
          <use xlink:href="#img-825cb65a-20" x="288.11" y="66.56" stroke="#FFFFFF" fill="#FF0000" class="color_Republican"/>
          <use xlink:href="#img-825cb65a-20" x="294.33" y="63.44" stroke="#FFFFFF" fill="#FF0000" class="color_Republican"/>
          <use xlink:href="#img-825cb65a-20" x="300.55" y="58.85" stroke="#FFFFFF" fill="#FF0000" class="color_Republican"/>
          <use xlink:href="#img-825cb65a-20" x="306.78" y="56.93" stroke="#FFFFFF" fill="#FF0000" class="color_Republican"/>
          <use xlink:href="#img-825cb65a-20" x="32.98" y="53.28" stroke="#FFFFFF" fill="#0000FF" class="color_Democratic"/>
          <use xlink:href="#img-825cb65a-20" x="39.2" y="61.25" stroke="#FFFFFF" fill="#0000FF" class="color_Democratic"/>
          <use xlink:href="#img-825cb65a-20" x="45.43" y="54.39" stroke="#FFFFFF" fill="#0000FF" class="color_Democratic"/>
          <use xlink:href="#img-825cb65a-20" x="51.65" y="62.64" stroke="#FFFFFF" fill="#0000FF" class="color_Democratic"/>
          <use xlink:href="#img-825cb65a-20" x="57.87" y="55.25" stroke="#FFFFFF" fill="#0000FF" class="color_Democratic"/>
          <use xlink:href="#img-825cb65a-20" x="64.09" y="50.12" stroke="#FFFFFF" fill="#0000FF" class="color_Democratic"/>
          <use xlink:href="#img-825cb65a-20" x="70.32" y="109.61" stroke="#FFFFFF" fill="#0000FF" class="color_Democratic"/>
          <use xlink:href="#img-825cb65a-20" x="82.76" y="71.74" stroke="#FFFFFF" fill="#0000FF" class="color_Democratic"/>
          <use xlink:href="#img-825cb65a-20" x="88.98" y="70.17" stroke="#FFFFFF" fill="#0000FF" class="color_Democratic"/>
          <use xlink:href="#img-825cb65a-20" x="95.21" y="57.61" stroke="#FFFFFF" fill="#0000FF" class="color_Democratic"/>
          <use xlink:href="#img-825cb65a-20" x="101.43" y="61.55" stroke="#FFFFFF" fill="#0000FF" class="color_Democratic"/>
          <use xlink:href="#img-825cb65a-20" x="107.65" y="59.78" stroke="#FFFFFF" fill="#0000FF" class="color_Democratic"/>
          <use xlink:href="#img-825cb65a-20" x="113.88" y="62.93" stroke="#FFFFFF" fill="#0000FF" class="color_Democratic"/>
          <use xlink:href="#img-825cb65a-20" x="120.1" y="58.25" stroke="#FFFFFF" fill="#0000FF" class="color_Democratic"/>
          <use xlink:href="#img-825cb65a-20" x="126.32" y="43.25" stroke="#FFFFFF" fill="#0000FF" class="color_Democratic"/>
          <use xlink:href="#img-825cb65a-20" x="132.54" y="53.92" stroke="#FFFFFF" fill="#0000FF" class="color_Democratic"/>
          <use xlink:href="#img-825cb65a-20" x="138.77" y="62.36" stroke="#FFFFFF" fill="#0000FF" class="color_Democratic"/>
          <use xlink:href="#img-825cb65a-20" x="144.99" y="60.31" stroke="#FFFFFF" fill="#0000FF" class="color_Democratic"/>
          <use xlink:href="#img-825cb65a-20" x="151.21" y="62.71" stroke="#FFFFFF" fill="#0000FF" class="color_Democratic"/>
          <use xlink:href="#img-825cb65a-20" x="157.43" y="51.32" stroke="#FFFFFF" fill="#0000FF" class="color_Democratic"/>
          <use xlink:href="#img-825cb65a-20" x="163.66" y="59.09" stroke="#FFFFFF" fill="#0000FF" class="color_Democratic"/>
          <use xlink:href="#img-825cb65a-20" x="169.88" y="56.26" stroke="#FFFFFF" fill="#0000FF" class="color_Democratic"/>
          <use xlink:href="#img-825cb65a-20" x="176.1" y="57.21" stroke="#FFFFFF" fill="#0000FF" class="color_Democratic"/>
          <use xlink:href="#img-825cb65a-20" x="182.32" y="30.53" stroke="#FFFFFF" fill="#0000FF" class="color_Democratic"/>
          <use xlink:href="#img-825cb65a-20" x="188.55" y="34.86" stroke="#FFFFFF" fill="#0000FF" class="color_Democratic"/>
          <use xlink:href="#img-825cb65a-20" x="194.77" y="37.75" stroke="#FFFFFF" fill="#0000FF" class="color_Democratic"/>
          <use xlink:href="#img-825cb65a-20" x="200.99" y="47.17" stroke="#FFFFFF" fill="#0000FF" class="color_Democratic"/>
          <use xlink:href="#img-825cb65a-20" x="207.22" y="55.73" stroke="#FFFFFF" fill="#0000FF" class="color_Democratic"/>
          <use xlink:href="#img-825cb65a-20" x="213.44" y="61.78" stroke="#FFFFFF" fill="#0000FF" class="color_Democratic"/>
          <use xlink:href="#img-825cb65a-20" x="219.66" y="65.36" stroke="#FFFFFF" fill="#0000FF" class="color_Democratic"/>
          <use xlink:href="#img-825cb65a-20" x="225.88" y="67.72" stroke="#FFFFFF" fill="#0000FF" class="color_Democratic"/>
          <use xlink:href="#img-825cb65a-20" x="232.11" y="61.61" stroke="#FFFFFF" fill="#0000FF" class="color_Democratic"/>
          <use xlink:href="#img-825cb65a-20" x="238.33" y="88.36" stroke="#FFFFFF" fill="#0000FF" class="color_Democratic"/>
          <use xlink:href="#img-825cb65a-20" x="244.55" y="87.97" stroke="#FFFFFF" fill="#0000FF" class="color_Democratic"/>
          <use xlink:href="#img-825cb65a-20" x="250.77" y="52.39" stroke="#FFFFFF" fill="#0000FF" class="color_Democratic"/>
          <use xlink:href="#img-825cb65a-20" x="257" y="70.49" stroke="#FFFFFF" fill="#0000FF" class="color_Democratic"/>
          <use xlink:href="#img-825cb65a-20" x="263.22" y="80.09" stroke="#FFFFFF" fill="#0000FF" class="color_Democratic"/>
          <use xlink:href="#img-825cb65a-20" x="269.44" y="76.03" stroke="#FFFFFF" fill="#0000FF" class="color_Democratic"/>
          <use xlink:href="#img-825cb65a-20" x="275.66" y="64.58" stroke="#FFFFFF" fill="#0000FF" class="color_Democratic"/>
          <use xlink:href="#img-825cb65a-20" x="281.89" y="64.03" stroke="#FFFFFF" fill="#0000FF" class="color_Democratic"/>
          <use xlink:href="#img-825cb65a-20" x="288.11" y="72.21" stroke="#FFFFFF" fill="#0000FF" class="color_Democratic"/>
          <use xlink:href="#img-825cb65a-20" x="294.33" y="73.58" stroke="#FFFFFF" fill="#0000FF" class="color_Democratic"/>
          <use xlink:href="#img-825cb65a-20" x="300.55" y="79.49" stroke="#FFFFFF" fill="#0000FF" class="color_Democratic"/>
          <use xlink:href="#img-825cb65a-20" x="306.78" y="81.55" stroke="#FFFFFF" fill="#0000FF" class="color_Democratic"/>
        </g>
      </g>
      <g stroke-width="0.53" fill="#000000" fill-opacity="0.000" stroke-dasharray="none" id="img-825cb65a-21">
        <path fill="none" d="M32.98,53.28 L 39.2 61.25 45.43 54.39 51.65 62.64 57.87 55.25 64.09 50.12 70.32 109.61 82.76 71.74 88.98 70.17 95.21 57.61 101.43 61.55 107.65 59.78 113.88 62.93 120.1 58.25 126.32 43.25 132.54 53.92 138.77 62.36 144.99 60.31 151.21 62.71 157.43 51.32 163.66 59.09 169.88 56.26 176.1 57.21 182.32 30.53 188.55 34.86 194.77 37.75 200.99 47.17 207.22 55.73 213.44 61.78 219.66 65.36 225.88 67.72 232.11 61.61 238.33 88.36 244.55 87.97 250.77 52.39 257 70.49 263.22 80.09 269.44 76.03 275.66 64.58 281.89 64.03 288.11 72.21 294.33 73.58 300.55 79.49 306.78 81.55" stroke="#0000FF" class="geometry color_Democratic"/>
        <path fill="none" d="M70.32,119.89 L 82.76 64.09 88.98 65.66 95.21 78.45 101.43 79.71 107.65 77.58 113.88 80.34 120.1 86.86 126.32 93.78 132.54 83.47 138.77 78.05 144.99 81.12 151.21 98.63 157.43 90.02 163.66 79.63 169.88 89.45 176.1 79.01 182.32 106.47 188.55 101.33 194.77 98.08 200.99 88.87 207.22 98.04 213.44 74.4 219.66 72.26 225.88 75.13 232.11 74.77 238.33 87.65 244.55 48.35 250.77 83.58 257 69.85 263.22 57.03 269.44 61.3 275.66 83.01 281.89 81.64 288.11 66.56 294.33 63.44 300.55 58.85 306.78 56.93" stroke="#FF0000" class="geometry color_Republican"/>
      </g>
    </g>
  </g>
</g>
  <g class="guide ylabels" font-size="4.76" font-family="'PT Sans Caption','Helvetica Neue','Helvetica',sans-serif" fill="#FFFFFF" id="img-825cb65a-22">
    <text x="23.76" y="119.89" text-anchor="end" dy="0.35em">0</text>
    <text x="23.76" y="93.9" text-anchor="end" dy="0.35em">25</text>
    <text x="23.76" y="67.92" text-anchor="end" dy="0.35em">50</text>
    <text x="23.76" y="41.93" text-anchor="end" dy="0.35em">75</text>
    <text x="23.76" y="15.94" text-anchor="end" dy="0.35em">100</text>
  </g>
  <g font-size="6.35" font-family="'PT Sans','Helvetica Neue','Helvetica',sans-serif" fill="#FFFFFF" stroke="#000000" stroke-opacity="0.000" id="img-825cb65a-23">
    <text x="10.18" y="65.92" text-anchor="middle" dy="0.35em" transform="rotate(-90, 10.18, 67.92)">Popular Vote (%)</text>
  </g>
  <g font-size="6.35" font-family="'PT Sans','Helvetica Neue','Helvetica',sans-serif" fill="#FFFFFF" stroke="#000000" stroke-opacity="0.000" id="img-825cb65a-24">
    <text x="169.88" y="11.94" text-anchor="middle">Arkansas</text>
  </g>
</g>
<defs>
  <clipPath id="img-825cb65a-12">
  <path d="M24.76,13.94 L 315 13.94 315 121.89 24.76 121.89" />
</clipPath>
  <g id="img-825cb65a-20">
    <circle cx="0" cy="0" r="0.9"/>
  </g>
</defs>
</svg>
