<?xml version="1.0" encoding="UTF-8"?>
<svg xmlns="http://www.w3.org/2000/svg"
     xmlns:xlink="http://www.w3.org/1999/xlink"
     xmlns:gadfly="http://www.gadflyjl.org/ns"
     version="1.2"
     width="320mm" height="160mm" viewBox="0 0 320 160"
     stroke="none"
     fill="#000000"
     stroke-width="0.3"
     font-size="3.88"
>
<g class="plotroot xscalable yscalable" id="img-cacba8fb-1">
  <g class="guide colorkey" id="img-cacba8fb-2">
    <g class="color_Democratic" id="img-cacba8fb-3">
      <g fill="#4C404B" font-size="4.76" font-family="'PT Sans','Helvetica Neue','Helvetica',sans-serif" id="img-cacba8fb-4">
        <text x="57.56" y="150.05" dy="0.35em">Democratic</text>
      </g>
      <g fill="#0000FF" stroke="#000000" stroke-opacity="0.000" id="img-cacba8fb-5">
        <rect x="53.84" y="148.69" width="2.72" height="2.72"/>
      </g>
    </g>
    <g class="color_Republican" id="img-cacba8fb-6">
      <g fill="#4C404B" font-size="4.76" font-family="'PT Sans','Helvetica Neue','Helvetica',sans-serif" id="img-cacba8fb-7">
        <text x="30.1" y="150.05" dy="0.35em">Republican</text>
      </g>
      <g fill="#FF0000" stroke="#000000" stroke-opacity="0.000" id="img-cacba8fb-8">
        <rect x="26.38" y="148.69" width="2.72" height="2.72"/>
      </g>
    </g>
    <g fill="#362A35" font-size="6.35" font-family="'PT Sans','Helvetica Neue','Helvetica',sans-serif" stroke="#000000" stroke-opacity="0.000" id="img-cacba8fb-9">
      <text x="26.38" y="145.57">Party</text>
    </g>
  </g>
  <g font-size="6.35" font-family="'PT Sans','Helvetica Neue','Helvetica',sans-serif" fill="#564A55" stroke="#000000" stroke-opacity="0.000" id="img-cacba8fb-10">
    <text x="170.19" y="130.75" text-anchor="middle" dy="0.6em">Year</text>
  </g>
  <g class="guide xlabels" font-size="4.76" font-family="'PT Sans Caption','Helvetica Neue','Helvetica',sans-serif" fill="#6C606B" id="img-cacba8fb-11">
    <text x="27.38" y="122.24" text-anchor="middle" dy="0.6em">1908</text>
    <text x="48.54" y="122.24" text-anchor="middle" dy="0.6em">1916</text>
    <text x="69.69" y="122.24" text-anchor="middle" dy="0.6em">1924</text>
    <text x="90.85" y="122.24" text-anchor="middle" dy="0.6em">1932</text>
    <text x="112.01" y="122.24" text-anchor="middle" dy="0.6em">1940</text>
    <text x="133.16" y="122.24" text-anchor="middle" dy="0.6em">1948</text>
    <text x="154.32" y="122.24" text-anchor="middle" dy="0.6em">1956</text>
    <text x="175.48" y="122.24" text-anchor="middle" dy="0.6em">1964</text>
    <text x="196.64" y="122.24" text-anchor="middle" dy="0.6em">1972</text>
    <text x="217.79" y="122.24" text-anchor="middle" dy="0.6em">1980</text>
    <text x="238.95" y="122.24" text-anchor="middle" dy="0.6em">1988</text>
    <text x="260.11" y="122.24" text-anchor="middle" dy="0.6em">1996</text>
    <text x="281.26" y="122.24" text-anchor="middle" dy="0.6em">2004</text>
    <text x="302.42" y="122.24" text-anchor="middle" dy="0.6em">2012</text>
  </g>
<g clip-path="url(#img-cacba8fb-12)">
  <g id="img-cacba8fb-13">
    <g pointer-events="visible" opacity="1" fill="#000000" fill-opacity="0.000" stroke="#000000" stroke-opacity="0.000" class="guide background" id="img-cacba8fb-14">
      <rect x="25.38" y="14.91" width="289.62" height="106.33"/>
    </g>
    <g class="guide ygridlines xfixed" stroke-dasharray="0.5,0.5" stroke-width="0.26" stroke="#000000" id="img-cacba8fb-15">
      <path fill="none" d="M25.38,119.24 L 315 119.24"/>
      <path fill="none" d="M25.38,93.66 L 315 93.66"/>
      <path fill="none" d="M25.38,68.07 L 315 68.07"/>
      <path fill="none" d="M25.38,42.49 L 315 42.49"/>
      <path fill="none" d="M25.38,16.91 L 315 16.91"/>
    </g>
    <g class="guide xgridlines yfixed" stroke-dasharray="0.5,0.5" stroke-width="0.26" stroke="#000000" id="img-cacba8fb-16">
      <path fill="none" d="M27.38,14.91 L 27.38 121.24"/>
      <path fill="none" d="M48.54,14.91 L 48.54 121.24"/>
      <path fill="none" d="M69.69,14.91 L 69.69 121.24"/>
      <path fill="none" d="M90.85,14.91 L 90.85 121.24"/>
      <path fill="none" d="M112.01,14.91 L 112.01 121.24"/>
      <path fill="none" d="M133.16,14.91 L 133.16 121.24"/>
      <path fill="none" d="M154.32,14.91 L 154.32 121.24"/>
      <path fill="none" d="M175.48,14.91 L 175.48 121.24"/>
      <path fill="none" d="M196.64,14.91 L 196.64 121.24"/>
      <path fill="none" d="M217.79,14.91 L 217.79 121.24"/>
      <path fill="none" d="M238.95,14.91 L 238.95 121.24"/>
      <path fill="none" d="M260.11,14.91 L 260.11 121.24"/>
      <path fill="none" d="M281.26,14.91 L 281.26 121.24"/>
      <path fill="none" d="M302.42,14.91 L 302.42 121.24"/>
    </g>
    <g class="plotpanel" id="img-cacba8fb-17">
      <g class="geometry" id="img-cacba8fb-18">
        <g stroke-width="0.3" id="img-cacba8fb-19">
          <use xlink:href="#img-cacba8fb-20" x="37.96" y="106.21" class="color_Republican" fill="#FF0000" stroke="#FFFFFF"/>
          <use xlink:href="#img-cacba8fb-20" x="48.54" y="83.04" class="color_Republican" fill="#FF0000" stroke="#FFFFFF"/>
          <use xlink:href="#img-cacba8fb-20" x="59.12" y="62.33" class="color_Republican" fill="#FF0000" stroke="#FFFFFF"/>
          <use xlink:href="#img-cacba8fb-20" x="69.69" y="77.02" class="color_Republican" fill="#FF0000" stroke="#FFFFFF"/>
          <use xlink:href="#img-cacba8fb-20" x="80.27" y="60.33" class="color_Republican" fill="#FF0000" stroke="#FFFFFF"/>
          <use xlink:href="#img-cacba8fb-20" x="90.85" y="88" class="color_Republican" fill="#FF0000" stroke="#FFFFFF"/>
          <use xlink:href="#img-cacba8fb-20" x="101.43" y="91.68" class="color_Republican" fill="#FF0000" stroke="#FFFFFF"/>
          <use xlink:href="#img-cacba8fb-20" x="112.01" y="82.39" class="color_Republican" fill="#FF0000" stroke="#FFFFFF"/>
          <use xlink:href="#img-cacba8fb-20" x="122.59" y="77.39" class="color_Republican" fill="#FF0000" stroke="#FFFFFF"/>
          <use xlink:href="#img-cacba8fb-20" x="133.16" y="74.39" class="color_Republican" fill="#FF0000" stroke="#FFFFFF"/>
          <use xlink:href="#img-cacba8fb-20" x="143.74" y="59.53" class="color_Republican" fill="#FF0000" stroke="#FFFFFF"/>
          <use xlink:href="#img-cacba8fb-20" x="154.32" y="56.82" class="color_Republican" fill="#FF0000" stroke="#FFFFFF"/>
          <use xlink:href="#img-cacba8fb-20" x="164.9" y="62.43" class="color_Republican" fill="#FF0000" stroke="#FFFFFF"/>
          <use xlink:href="#img-cacba8fb-20" x="175.48" y="67.62" class="color_Republican" fill="#FF0000" stroke="#FFFFFF"/>
          <use xlink:href="#img-cacba8fb-20" x="186.06" y="63.19" class="color_Republican" fill="#FF0000" stroke="#FFFFFF"/>
          <use xlink:href="#img-cacba8fb-20" x="196.64" y="56.16" class="color_Republican" fill="#FF0000" stroke="#FFFFFF"/>
          <use xlink:href="#img-cacba8fb-20" x="207.21" y="61.56" class="color_Republican" fill="#FF0000" stroke="#FFFFFF"/>
          <use xlink:href="#img-cacba8fb-20" x="217.79" y="57.22" class="color_Republican" fill="#FF0000" stroke="#FFFFFF"/>
          <use xlink:href="#img-cacba8fb-20" x="228.37" y="51.27" class="color_Republican" fill="#FF0000" stroke="#FFFFFF"/>
          <use xlink:href="#img-cacba8fb-20" x="238.95" y="57.89" class="color_Republican" fill="#FF0000" stroke="#FFFFFF"/>
          <use xlink:href="#img-cacba8fb-20" x="249.53" y="79.87" class="color_Republican" fill="#FF0000" stroke="#FFFFFF"/>
          <use xlink:href="#img-cacba8fb-20" x="260.11" y="73.91" class="color_Republican" fill="#FF0000" stroke="#FFFFFF"/>
          <use xlink:href="#img-cacba8fb-20" x="270.69" y="67.1" class="color_Republican" fill="#FF0000" stroke="#FFFFFF"/>
          <use xlink:href="#img-cacba8fb-20" x="281.26" y="63.19" class="color_Republican" fill="#FF0000" stroke="#FFFFFF"/>
          <use xlink:href="#img-cacba8fb-20" x="291.84" y="64.6" class="color_Republican" fill="#FF0000" stroke="#FFFFFF"/>
          <use xlink:href="#img-cacba8fb-20" x="302.42" y="64.51" class="color_Republican" fill="#FF0000" stroke="#FFFFFF"/>
          <use xlink:href="#img-cacba8fb-20" x="37.96" y="74.7" class="color_Democratic" fill="#0000FF" stroke="#FFFFFF"/>
          <use xlink:href="#img-cacba8fb-20" x="48.54" y="60.74" class="color_Democratic" fill="#0000FF" stroke="#FFFFFF"/>
          <use xlink:href="#img-cacba8fb-20" x="59.12" y="73.82" class="color_Democratic" fill="#0000FF" stroke="#FFFFFF"/>
          <use xlink:href="#img-cacba8fb-20" x="69.69" y="82.94" class="color_Democratic" fill="#0000FF" stroke="#FFFFFF"/>
          <use xlink:href="#img-cacba8fb-20" x="80.27" y="76.02" class="color_Democratic" fill="#0000FF" stroke="#FFFFFF"/>
          <use xlink:href="#img-cacba8fb-20" x="90.85" y="50.65" class="color_Democratic" fill="#0000FF" stroke="#FFFFFF"/>
          <use xlink:href="#img-cacba8fb-20" x="101.43" y="47.77" class="color_Democratic" fill="#0000FF" stroke="#FFFFFF"/>
          <use xlink:href="#img-cacba8fb-20" x="112.01" y="54.26" class="color_Democratic" fill="#0000FF" stroke="#FFFFFF"/>
          <use xlink:href="#img-cacba8fb-20" x="122.59" y="59.07" class="color_Democratic" fill="#0000FF" stroke="#FFFFFF"/>
          <use xlink:href="#img-cacba8fb-20" x="133.16" y="64.19" class="color_Democratic" fill="#0000FF" stroke="#FFFFFF"/>
          <use xlink:href="#img-cacba8fb-20" x="143.74" y="76.62" class="color_Democratic" fill="#0000FF" stroke="#FFFFFF"/>
          <use xlink:href="#img-cacba8fb-20" x="154.32" y="79.43" class="color_Democratic" fill="#0000FF" stroke="#FFFFFF"/>
          <use xlink:href="#img-cacba8fb-20" x="164.9" y="73.84" class="color_Democratic" fill="#0000FF" stroke="#FFFFFF"/>
          <use xlink:href="#img-cacba8fb-20" x="175.48" y="68.63" class="color_Democratic" fill="#0000FF" stroke="#FFFFFF"/>
          <use xlink:href="#img-cacba8fb-20" x="186.06" y="83.41" class="color_Democratic" fill="#0000FF" stroke="#FFFFFF"/>
          <use xlink:href="#img-cacba8fb-20" x="196.64" y="88.15" class="color_Democratic" fill="#0000FF" stroke="#FFFFFF"/>
          <use xlink:href="#img-cacba8fb-20" x="207.21" y="78.51" class="color_Democratic" fill="#0000FF" stroke="#FFFFFF"/>
          <use xlink:href="#img-cacba8fb-20" x="217.79" y="90.34" class="color_Democratic" fill="#0000FF" stroke="#FFFFFF"/>
          <use xlink:href="#img-cacba8fb-20" x="228.37" y="85.94" class="color_Democratic" fill="#0000FF" stroke="#FFFFFF"/>
          <use xlink:href="#img-cacba8fb-20" x="238.95" y="79.59" class="color_Democratic" fill="#0000FF" stroke="#FFFFFF"/>
          <use xlink:href="#img-cacba8fb-20" x="249.53" y="81.87" class="color_Democratic" fill="#0000FF" stroke="#FFFFFF"/>
          <use xlink:href="#img-cacba8fb-20" x="260.11" y="71.64" class="color_Democratic" fill="#0000FF" stroke="#FFFFFF"/>
          <use xlink:href="#img-cacba8fb-20" x="270.69" y="73.52" class="color_Democratic" fill="#0000FF" stroke="#FFFFFF"/>
          <use xlink:href="#img-cacba8fb-20" x="281.26" y="73.89" class="color_Democratic" fill="#0000FF" stroke="#FFFFFF"/>
          <use xlink:href="#img-cacba8fb-20" x="291.84" y="73.28" class="color_Democratic" fill="#0000FF" stroke="#FFFFFF"/>
          <use xlink:href="#img-cacba8fb-20" x="302.42" y="73.75" class="color_Democratic" fill="#0000FF" stroke="#FFFFFF"/>
        </g>
      </g>
      <g stroke-width="0.53" fill="#000000" fill-opacity="0.000" stroke-dasharray="none" id="img-cacba8fb-21">
        <path fill="none" d="M37.96,74.7 L 48.54 60.74 59.12 73.82 69.69 82.94 80.27 76.02 90.85 50.65 101.43 47.77 112.01 54.26 122.59 59.07 133.16 64.19 143.74 76.62 154.32 79.43 164.9 73.84 175.48 68.63 186.06 83.41 196.64 88.15 207.21 78.51 217.79 90.34 228.37 85.94 238.95 79.59 249.53 81.87 260.11 71.64 270.69 73.52 281.26 73.89 291.84 73.28 302.42 73.75" class="geometry color_Democratic" stroke="#0000FF"/>
        <path fill="none" d="M37.96,106.21 L 48.54 83.04 59.12 62.33 69.69 77.02 80.27 60.33 90.85 88 101.43 91.68 112.01 82.39 122.59 77.39 133.16 74.39 143.74 59.53 154.32 56.82 164.9 62.43 175.48 67.62 186.06 63.19 196.64 56.16 207.21 61.56 217.79 57.22 228.37 51.27 238.95 57.89 249.53 79.87 260.11 73.91 270.69 67.1 281.26 63.19 291.84 64.6 302.42 64.51" class="geometry color_Republican" stroke="#FF0000"/>
      </g>
    </g>
  </g>
</g>
  <g class="guide ylabels" font-size="4.76" font-family="'PT Sans Caption','Helvetica Neue','Helvetica',sans-serif" fill="#6C606B" id="img-cacba8fb-22">
    <text x="24.38" y="119.24" text-anchor="end" dy="0.35em">0</text>
    <text x="24.38" y="93.66" text-anchor="end" dy="0.35em">25</text>
    <text x="24.38" y="68.07" text-anchor="end" dy="0.35em">50</text>
    <text x="24.38" y="42.49" text-anchor="end" dy="0.35em">75</text>
    <text x="24.38" y="16.91" text-anchor="end" dy="0.35em">100</text>
  </g>
  <g font-size="6.35" font-family="'PT Sans','Helvetica Neue','Helvetica',sans-serif" fill="#564A55" stroke="#000000" stroke-opacity="0.000" id="img-cacba8fb-23">
    <text x="9.95" y="66.07" text-anchor="middle" dy="0.35em" transform="rotate(-90, 9.95, 68.07)">Popular Vote (%)</text>
  </g>
  <g font-size="6.35" font-family="'PT Sans','Helvetica Neue','Helvetica',sans-serif" fill="#564A55" stroke="#000000" stroke-opacity="0.000" id="img-cacba8fb-24">
    <text x="170.19" y="12.91" text-anchor="middle">Arizona</text>
  </g>
</g>
<defs>
  <clipPath id="img-cacba8fb-12">
  <path d="M25.38,14.91 L 315 14.91 315 121.24 25.38 121.24" />
</clipPath>
  <g id="img-cacba8fb-20">
    <circle cx="0" cy="0" r="0.9"/>
  </g>
</defs>
</svg>
