<?xml version="1.0" encoding="UTF-8"?>
<svg xmlns="http://www.w3.org/2000/svg"
     xmlns:xlink="http://www.w3.org/1999/xlink"
     xmlns:gadfly="http://www.gadflyjl.org/ns"
     version="1.2"
     width="238.1mm" height="158.73mm" viewBox="0 0 238.1 158.73"
     stroke="none"
     fill="#000000"
     stroke-width="0.3"
     font-size="3.88"
>
<g stroke="#000000" stroke-opacity="0.000" fill="#222831" id="img-b9b4b0c8-1">
  <rect x="0" y="0" width="238.1" height="158.73"/>
</g>
<g class="plotroot xscalable yscalable" id="img-b9b4b0c8-2">
  <g class="guide colorkey" id="img-b9b4b0c8-3">
    <g class="color_Democratic" id="img-b9b4b0c8-4">
      <g fill="#A1A1A1" font-size="3.7" font-family="'PT Sans','Helvetica Neue','Helvetica',sans-serif" id="img-b9b4b0c8-5">
        <text x="51.52" y="148.78" dy="0.35em">Democratic</text>
      </g>
      <g fill="#0000FF" stroke="#000000" stroke-opacity="0.000" id="img-b9b4b0c8-6">
        <rect x="48.29" y="147.66" width="2.22" height="2.22"/>
      </g>
    </g>
    <g class="color_Republican" id="img-b9b4b0c8-7">
      <g fill="#A1A1A1" font-size="3.7" font-family="'PT Sans','Helvetica Neue','Helvetica',sans-serif" id="img-b9b4b0c8-8">
        <text x="29.6" y="148.78" dy="0.35em">Republican</text>
      </g>
      <g fill="#FF0000" stroke="#000000" stroke-opacity="0.000" id="img-b9b4b0c8-9">
        <rect x="26.38" y="147.66" width="2.22" height="2.22"/>
      </g>
    </g>
    <g fill="#A1A1A1" font-size="6.35" font-family="'PT Sans','Helvetica Neue','Helvetica',sans-serif" stroke="#000000" stroke-opacity="0.000" id="img-b9b4b0c8-10">
      <text x="26.38" y="145.28">Party</text>
    </g>
  </g>
  <g font-size="6.35" font-family="'PT Sans','Helvetica Neue','Helvetica',sans-serif" fill="#A1A1A1" stroke="#000000" stroke-opacity="0.000" id="img-b9b4b0c8-11">
    <text x="129.24" y="130.46" text-anchor="middle" dy="0.6em">Year</text>
  </g>
  <g class="guide xlabels" font-size="4.76" font-family="'PT Sans Caption','Helvetica Neue','Helvetica',sans-serif" fill="#A1A1A1" id="img-b9b4b0c8-12">
    <text x="27.38" y="121.95" text-anchor="middle" dy="0.6em">1908</text>
    <text x="42.47" y="121.95" text-anchor="middle" dy="0.6em">1916</text>
    <text x="57.56" y="121.95" text-anchor="middle" dy="0.6em">1924</text>
    <text x="72.65" y="121.95" text-anchor="middle" dy="0.6em">1932</text>
    <text x="87.74" y="121.95" text-anchor="middle" dy="0.6em">1940</text>
    <text x="102.83" y="121.95" text-anchor="middle" dy="0.6em">1948</text>
    <text x="117.92" y="121.95" text-anchor="middle" dy="0.6em">1956</text>
    <text x="133.01" y="121.95" text-anchor="middle" dy="0.6em">1964</text>
    <text x="148.1" y="121.95" text-anchor="middle" dy="0.6em">1972</text>
    <text x="163.19" y="121.95" text-anchor="middle" dy="0.6em">1980</text>
    <text x="178.28" y="121.95" text-anchor="middle" dy="0.6em">1988</text>
    <text x="193.37" y="121.95" text-anchor="middle" dy="0.6em">1996</text>
    <text x="208.46" y="121.95" text-anchor="middle" dy="0.6em">2004</text>
    <text x="223.55" y="121.95" text-anchor="middle" dy="0.6em">2012</text>
  </g>
<g clip-path="url(#img-b9b4b0c8-13)">
  <g id="img-b9b4b0c8-14">
    <g pointer-events="visible" opacity="1" fill="#222831" stroke="#000000" stroke-opacity="0.000" class="guide background" id="img-b9b4b0c8-15">
      <rect x="25.38" y="12.91" width="207.72" height="108.04"/>
    </g>
    <g class="guide ygridlines xfixed" stroke-dasharray="0.5,0.5" stroke-width="0.2" stroke="#575757" id="img-b9b4b0c8-16">
      <path fill="none" d="M25.38,118.95 L 233.1 118.95"/>
      <path fill="none" d="M25.38,92.94 L 233.1 92.94"/>
      <path fill="none" d="M25.38,66.93 L 233.1 66.93"/>
      <path fill="none" d="M25.38,40.92 L 233.1 40.92"/>
      <path fill="none" d="M25.38,14.91 L 233.1 14.91"/>
    </g>
    <g class="guide xgridlines yfixed" stroke-dasharray="0.5,0.5" stroke-width="0.2" stroke="#575757" id="img-b9b4b0c8-17">
      <path fill="none" d="M27.38,12.91 L 27.38 120.95"/>
      <path fill="none" d="M42.47,12.91 L 42.47 120.95"/>
      <path fill="none" d="M57.56,12.91 L 57.56 120.95"/>
      <path fill="none" d="M72.65,12.91 L 72.65 120.95"/>
      <path fill="none" d="M87.74,12.91 L 87.74 120.95"/>
      <path fill="none" d="M102.83,12.91 L 102.83 120.95"/>
      <path fill="none" d="M117.92,12.91 L 117.92 120.95"/>
      <path fill="none" d="M133.01,12.91 L 133.01 120.95"/>
      <path fill="none" d="M148.1,12.91 L 148.1 120.95"/>
      <path fill="none" d="M163.19,12.91 L 163.19 120.95"/>
      <path fill="none" d="M178.28,12.91 L 178.28 120.95"/>
      <path fill="none" d="M193.37,12.91 L 193.37 120.95"/>
      <path fill="none" d="M208.46,12.91 L 208.46 120.95"/>
      <path fill="none" d="M223.55,12.91 L 223.55 120.95"/>
    </g>
    <g class="plotpanel" id="img-b9b4b0c8-18">
      <g class="geometry" id="img-b9b4b0c8-19">
        <g stroke-width="0.3" id="img-b9b4b0c8-20">
          <use xlink:href="#img-b9b4b0c8-21" x="34.92" y="105.7" stroke="#B3867B" fill="#FF0000" class="color_Republican"/>
          <use xlink:href="#img-b9b4b0c8-21" x="42.47" y="82.15" stroke="#B3867B" fill="#FF0000" class="color_Republican"/>
          <use xlink:href="#img-b9b4b0c8-21" x="50.01" y="61.09" stroke="#B3867B" fill="#FF0000" class="color_Republican"/>
          <use xlink:href="#img-b9b4b0c8-21" x="57.56" y="76.03" stroke="#B3867B" fill="#FF0000" class="color_Republican"/>
          <use xlink:href="#img-b9b4b0c8-21" x="65.1" y="59.06" stroke="#B3867B" fill="#FF0000" class="color_Republican"/>
          <use xlink:href="#img-b9b4b0c8-21" x="72.65" y="87.19" stroke="#B3867B" fill="#FF0000" class="color_Republican"/>
          <use xlink:href="#img-b9b4b0c8-21" x="80.19" y="90.94" stroke="#B3867B" fill="#FF0000" class="color_Republican"/>
          <use xlink:href="#img-b9b4b0c8-21" x="87.74" y="81.49" stroke="#B3867B" fill="#FF0000" class="color_Republican"/>
          <use xlink:href="#img-b9b4b0c8-21" x="95.28" y="76.4" stroke="#B3867B" fill="#FF0000" class="color_Republican"/>
          <use xlink:href="#img-b9b4b0c8-21" x="102.83" y="73.36" stroke="#B3867B" fill="#FF0000" class="color_Republican"/>
          <use xlink:href="#img-b9b4b0c8-21" x="110.37" y="58.24" stroke="#B3867B" fill="#FF0000" class="color_Republican"/>
          <use xlink:href="#img-b9b4b0c8-21" x="117.92" y="55.49" stroke="#B3867B" fill="#FF0000" class="color_Republican"/>
          <use xlink:href="#img-b9b4b0c8-21" x="125.46" y="61.19" stroke="#B3867B" fill="#FF0000" class="color_Republican"/>
          <use xlink:href="#img-b9b4b0c8-21" x="133.01" y="66.47" stroke="#B3867B" fill="#FF0000" class="color_Republican"/>
          <use xlink:href="#img-b9b4b0c8-21" x="140.55" y="61.96" stroke="#B3867B" fill="#FF0000" class="color_Republican"/>
          <use xlink:href="#img-b9b4b0c8-21" x="148.1" y="54.82" stroke="#B3867B" fill="#FF0000" class="color_Republican"/>
          <use xlink:href="#img-b9b4b0c8-21" x="155.64" y="60.31" stroke="#B3867B" fill="#FF0000" class="color_Republican"/>
          <use xlink:href="#img-b9b4b0c8-21" x="163.19" y="55.89" stroke="#B3867B" fill="#FF0000" class="color_Republican"/>
          <use xlink:href="#img-b9b4b0c8-21" x="170.74" y="49.85" stroke="#B3867B" fill="#FF0000" class="color_Republican"/>
          <use xlink:href="#img-b9b4b0c8-21" x="178.28" y="56.58" stroke="#B3867B" fill="#FF0000" class="color_Republican"/>
          <use xlink:href="#img-b9b4b0c8-21" x="185.83" y="78.93" stroke="#B3867B" fill="#FF0000" class="color_Republican"/>
          <use xlink:href="#img-b9b4b0c8-21" x="193.37" y="72.87" stroke="#B3867B" fill="#FF0000" class="color_Republican"/>
          <use xlink:href="#img-b9b4b0c8-21" x="200.92" y="65.94" stroke="#B3867B" fill="#FF0000" class="color_Republican"/>
          <use xlink:href="#img-b9b4b0c8-21" x="208.46" y="61.96" stroke="#B3867B" fill="#FF0000" class="color_Republican"/>
          <use xlink:href="#img-b9b4b0c8-21" x="216.01" y="63.4" stroke="#B3867B" fill="#FF0000" class="color_Republican"/>
          <use xlink:href="#img-b9b4b0c8-21" x="223.55" y="63.31" stroke="#B3867B" fill="#FF0000" class="color_Republican"/>
          <use xlink:href="#img-b9b4b0c8-21" x="34.92" y="73.67" stroke="#988BAD" fill="#0000FF" class="color_Democratic"/>
          <use xlink:href="#img-b9b4b0c8-21" x="42.47" y="59.47" stroke="#988BAD" fill="#0000FF" class="color_Democratic"/>
          <use xlink:href="#img-b9b4b0c8-21" x="50.01" y="72.77" stroke="#988BAD" fill="#0000FF" class="color_Democratic"/>
          <use xlink:href="#img-b9b4b0c8-21" x="57.56" y="82.05" stroke="#988BAD" fill="#0000FF" class="color_Democratic"/>
          <use xlink:href="#img-b9b4b0c8-21" x="65.1" y="75.02" stroke="#988BAD" fill="#0000FF" class="color_Democratic"/>
          <use xlink:href="#img-b9b4b0c8-21" x="72.65" y="49.21" stroke="#988BAD" fill="#0000FF" class="color_Democratic"/>
          <use xlink:href="#img-b9b4b0c8-21" x="80.19" y="46.28" stroke="#988BAD" fill="#0000FF" class="color_Democratic"/>
          <use xlink:href="#img-b9b4b0c8-21" x="87.74" y="52.89" stroke="#988BAD" fill="#0000FF" class="color_Democratic"/>
          <use xlink:href="#img-b9b4b0c8-21" x="95.28" y="57.78" stroke="#988BAD" fill="#0000FF" class="color_Democratic"/>
          <use xlink:href="#img-b9b4b0c8-21" x="102.83" y="62.98" stroke="#988BAD" fill="#0000FF" class="color_Democratic"/>
          <use xlink:href="#img-b9b4b0c8-21" x="110.37" y="75.62" stroke="#988BAD" fill="#0000FF" class="color_Democratic"/>
          <use xlink:href="#img-b9b4b0c8-21" x="117.92" y="78.48" stroke="#988BAD" fill="#0000FF" class="color_Democratic"/>
          <use xlink:href="#img-b9b4b0c8-21" x="125.46" y="72.8" stroke="#988BAD" fill="#0000FF" class="color_Democratic"/>
          <use xlink:href="#img-b9b4b0c8-21" x="133.01" y="67.5" stroke="#988BAD" fill="#0000FF" class="color_Democratic"/>
          <use xlink:href="#img-b9b4b0c8-21" x="140.55" y="82.52" stroke="#988BAD" fill="#0000FF" class="color_Democratic"/>
          <use xlink:href="#img-b9b4b0c8-21" x="148.1" y="87.34" stroke="#988BAD" fill="#0000FF" class="color_Democratic"/>
          <use xlink:href="#img-b9b4b0c8-21" x="155.64" y="77.54" stroke="#988BAD" fill="#0000FF" class="color_Democratic"/>
          <use xlink:href="#img-b9b4b0c8-21" x="163.19" y="89.57" stroke="#988BAD" fill="#0000FF" class="color_Democratic"/>
          <use xlink:href="#img-b9b4b0c8-21" x="170.74" y="85.1" stroke="#988BAD" fill="#0000FF" class="color_Democratic"/>
          <use xlink:href="#img-b9b4b0c8-21" x="178.28" y="78.64" stroke="#988BAD" fill="#0000FF" class="color_Democratic"/>
          <use xlink:href="#img-b9b4b0c8-21" x="185.83" y="80.96" stroke="#988BAD" fill="#0000FF" class="color_Democratic"/>
          <use xlink:href="#img-b9b4b0c8-21" x="193.37" y="70.56" stroke="#988BAD" fill="#0000FF" class="color_Democratic"/>
          <use xlink:href="#img-b9b4b0c8-21" x="200.92" y="72.47" stroke="#988BAD" fill="#0000FF" class="color_Democratic"/>
          <use xlink:href="#img-b9b4b0c8-21" x="208.46" y="72.84" stroke="#988BAD" fill="#0000FF" class="color_Democratic"/>
          <use xlink:href="#img-b9b4b0c8-21" x="216.01" y="72.23" stroke="#988BAD" fill="#0000FF" class="color_Democratic"/>
          <use xlink:href="#img-b9b4b0c8-21" x="223.55" y="72.71" stroke="#988BAD" fill="#0000FF" class="color_Democratic"/>
        </g>
      </g>
      <g stroke-width="0.3" fill="#000000" fill-opacity="0.000" stroke-dasharray="none" id="img-b9b4b0c8-22">
        <path fill="none" d="M34.92,73.67 L 42.47 59.47 50.01 72.77 57.56 82.05 65.1 75.02 72.65 49.21 80.19 46.28 87.74 52.89 95.28 57.78 102.83 62.98 110.37 75.62 117.92 78.48 125.46 72.8 133.01 67.5 140.55 82.52 148.1 87.34 155.64 77.54 163.19 89.57 170.74 85.1 178.28 78.64 185.83 80.96 193.37 70.56 200.92 72.47 208.46 72.84 216.01 72.23 223.55 72.71" stroke="#0000FF" class="geometry color_Democratic"/>
        <path fill="none" d="M34.92,105.7 L 42.47 82.15 50.01 61.09 57.56 76.03 65.1 59.06 72.65 87.19 80.19 90.94 87.74 81.49 95.28 76.4 102.83 73.36 110.37 58.24 117.92 55.49 125.46 61.19 133.01 66.47 140.55 61.96 148.1 54.82 155.64 60.31 163.19 55.89 170.74 49.85 178.28 56.58 185.83 78.93 193.37 72.87 200.92 65.94 208.46 61.96 216.01 63.4 223.55 63.31" stroke="#FF0000" class="geometry color_Republican"/>
      </g>
    </g>
  </g>
</g>
  <g class="guide ylabels" font-size="4.76" font-family="'PT Sans Caption','Helvetica Neue','Helvetica',sans-serif" fill="#A1A1A1" id="img-b9b4b0c8-23">
    <text x="24.38" y="118.95" text-anchor="end" dy="0.35em">0</text>
    <text x="24.38" y="92.94" text-anchor="end" dy="0.35em">25</text>
    <text x="24.38" y="66.93" text-anchor="end" dy="0.35em">50</text>
    <text x="24.38" y="40.92" text-anchor="end" dy="0.35em">75</text>
    <text x="24.38" y="14.91" text-anchor="end" dy="0.35em">100</text>
  </g>
  <g font-size="6.35" font-family="'PT Sans','Helvetica Neue','Helvetica',sans-serif" fill="#A1A1A1" stroke="#000000" stroke-opacity="0.000" id="img-b9b4b0c8-24">
    <text x="9.95" y="64.93" text-anchor="middle" dy="0.35em" transform="rotate(-90, 9.95, 66.93)">Popular Vote (%)</text>
  </g>
  <g font-size="6.35" font-family="'PT Sans','Helvetica Neue','Helvetica',sans-serif" fill="#A1A1A1" stroke="#000000" stroke-opacity="0.000" id="img-b9b4b0c8-25">
    <text x="129.24" y="5" text-anchor="middle" dy="0.6em">Arizona</text>
  </g>
</g>
<defs>
  <clipPath id="img-b9b4b0c8-13">
  <path d="M25.38,12.91 L 233.1 12.91 233.1 120.95 25.38 120.95" />
</clipPath>
  <g id="img-b9b4b0c8-21">
    <circle cx="0" cy="0" r="0.9"/>
  </g>
</defs>
</svg>
