<?xml version="1.0" encoding="UTF-8"?>
<svg xmlns="http://www.w3.org/2000/svg"
     xmlns:xlink="http://www.w3.org/1999/xlink"
     xmlns:gadfly="http://www.gadflyjl.org/ns"
     version="1.2"
     width="320mm" height="160mm" viewBox="0 0 320 160"
     stroke="none"
     fill="#000000"
     stroke-width="0.3"
     font-size="3.88"
>
<g class="plotroot xscalable yscalable" id="img-3ab83285-1">
  <g class="guide colorkey" id="img-3ab83285-2">
    <g class="color_Democratic" id="img-3ab83285-3">
      <g fill="#4C404B" font-size="4.76" font-family="'PT Sans','Helvetica Neue','Helvetica',sans-serif" id="img-3ab83285-4">
        <text x="61.86" y="150" dy="0.35em">Democratic</text>
      </g>
      <g fill="#0000FF" stroke="#000000" stroke-opacity="0.000" id="img-3ab83285-5">
        <rect x="57.89" y="148.52" width="2.97" height="2.97"/>
      </g>
    </g>
    <g class="color_Republican" id="img-3ab83285-6">
      <g fill="#4C404B" font-size="4.76" font-family="'PT Sans','Helvetica Neue','Helvetica',sans-serif" id="img-3ab83285-7">
        <text x="30.79" y="150" dy="0.35em">Republican</text>
      </g>
      <g fill="#FF0000" stroke="#000000" stroke-opacity="0.000" id="img-3ab83285-8">
        <rect x="26.82" y="148.52" width="2.97" height="2.97"/>
      </g>
    </g>
    <g fill="#362A35" font-size="6.35" font-family="'PT Sans','Helvetica Neue','Helvetica',sans-serif" stroke="#000000" stroke-opacity="0.000" id="img-3ab83285-9">
      <text x="26.82" y="145.06">Party</text>
    </g>
  </g>
  <g font-size="6.35" font-family="'PT Sans','Helvetica Neue','Helvetica',sans-serif" fill="#564A55" stroke="#000000" stroke-opacity="0.000" id="img-3ab83285-10">
    <text x="170.41" y="131.48" text-anchor="middle" dy="0.6em">Year</text>
  </g>
  <g class="guide xlabels" font-size="4.76" font-family="'PT Sans Caption','Helvetica Neue','Helvetica',sans-serif" fill="#6C606B" id="img-3ab83285-11">
    <text x="27.82" y="123.95" text-anchor="middle" dy="0.6em">1824</text>
    <text x="45.64" y="123.95" text-anchor="middle" dy="0.6em">1836</text>
    <text x="63.46" y="123.95" text-anchor="middle" dy="0.6em">1848</text>
    <text x="81.29" y="123.95" text-anchor="middle" dy="0.6em">1860</text>
    <text x="99.11" y="123.95" text-anchor="middle" dy="0.6em">1872</text>
    <text x="116.94" y="123.95" text-anchor="middle" dy="0.6em">1884</text>
    <text x="134.76" y="123.95" text-anchor="middle" dy="0.6em">1896</text>
    <text x="152.58" y="123.95" text-anchor="middle" dy="0.6em">1908</text>
    <text x="170.41" y="123.95" text-anchor="middle" dy="0.6em">1920</text>
    <text x="188.23" y="123.95" text-anchor="middle" dy="0.6em">1932</text>
    <text x="206.06" y="123.95" text-anchor="middle" dy="0.6em">1944</text>
    <text x="223.88" y="123.95" text-anchor="middle" dy="0.6em">1956</text>
    <text x="241.7" y="123.95" text-anchor="middle" dy="0.6em">1968</text>
    <text x="259.53" y="123.95" text-anchor="middle" dy="0.6em">1980</text>
    <text x="277.35" y="123.95" text-anchor="middle" dy="0.6em">1992</text>
    <text x="295.18" y="123.95" text-anchor="middle" dy="0.6em">2004</text>
    <text x="313" y="123.95" text-anchor="middle" dy="0.6em">2016</text>
  </g>
<g clip-path="url(#img-3ab83285-12)">
  <g id="img-3ab83285-13">
    <g pointer-events="visible" opacity="1" fill="#000000" fill-opacity="0.000" stroke="#000000" stroke-opacity="0.000" class="guide background" id="img-3ab83285-14">
      <rect x="25.82" y="13.94" width="289.18" height="109.01"/>
    </g>
    <g class="guide ygridlines xfixed" stroke-dasharray="0.5,0.5" stroke-width="0.26" stroke="#000000" id="img-3ab83285-15">
      <path fill="none" d="M25.82,120.95 L 315 120.95"/>
      <path fill="none" d="M25.82,94.7 L 315 94.7"/>
      <path fill="none" d="M25.82,68.44 L 315 68.44"/>
      <path fill="none" d="M25.82,42.19 L 315 42.19"/>
      <path fill="none" d="M25.82,15.94 L 315 15.94"/>
    </g>
    <g class="guide xgridlines yfixed" stroke-dasharray="0.5,0.5" stroke-width="0.26" stroke="#000000" id="img-3ab83285-16">
      <path fill="none" d="M27.82,13.94 L 27.82 122.95"/>
      <path fill="none" d="M45.64,13.94 L 45.64 122.95"/>
      <path fill="none" d="M63.46,13.94 L 63.46 122.95"/>
      <path fill="none" d="M81.29,13.94 L 81.29 122.95"/>
      <path fill="none" d="M99.11,13.94 L 99.11 122.95"/>
      <path fill="none" d="M116.94,13.94 L 116.94 122.95"/>
      <path fill="none" d="M134.76,13.94 L 134.76 122.95"/>
      <path fill="none" d="M152.58,13.94 L 152.58 122.95"/>
      <path fill="none" d="M170.41,13.94 L 170.41 122.95"/>
      <path fill="none" d="M188.23,13.94 L 188.23 122.95"/>
      <path fill="none" d="M206.06,13.94 L 206.06 122.95"/>
      <path fill="none" d="M223.88,13.94 L 223.88 122.95"/>
      <path fill="none" d="M241.7,13.94 L 241.7 122.95"/>
      <path fill="none" d="M259.53,13.94 L 259.53 122.95"/>
      <path fill="none" d="M277.35,13.94 L 277.35 122.95"/>
      <path fill="none" d="M295.18,13.94 L 295.18 122.95"/>
      <path fill="none" d="M313,13.94 L 313 122.95"/>
    </g>
    <g class="plotpanel" id="img-3ab83285-17">
      <g class="geometry" id="img-3ab83285-18">
        <g stroke-width="0.3" id="img-3ab83285-19">
          <use xlink:href="#img-3ab83285-20" x="81.29" y="120.95" fill="#FF0000" class="color_Republican" stroke="#FFFFFF"/>
          <use xlink:href="#img-3ab83285-20" x="93.17" y="67.13" fill="#FF0000" class="color_Republican" stroke="#FFFFFF"/>
          <use xlink:href="#img-3ab83285-20" x="99.11" y="65.09" fill="#FF0000" class="color_Republican" stroke="#FFFFFF"/>
          <use xlink:href="#img-3ab83285-20" x="105.05" y="78.93" fill="#FF0000" class="color_Republican" stroke="#FFFFFF"/>
          <use xlink:href="#img-3ab83285-20" x="111" y="81.99" fill="#FF0000" class="color_Republican" stroke="#FFFFFF"/>
          <use xlink:href="#img-3ab83285-20" x="116.94" y="80.32" fill="#FF0000" class="color_Republican" stroke="#FFFFFF"/>
          <use xlink:href="#img-3ab83285-20" x="122.88" y="86.66" fill="#FF0000" class="color_Republican" stroke="#FFFFFF"/>
          <use xlink:href="#img-3ab83285-20" x="128.82" y="116.8" fill="#FF0000" class="color_Republican" stroke="#FFFFFF"/>
          <use xlink:href="#img-3ab83285-20" x="134.76" y="90.9" fill="#FF0000" class="color_Republican" stroke="#FFFFFF"/>
          <use xlink:href="#img-3ab83285-20" x="140.7" y="84.38" fill="#FF0000" class="color_Republican" stroke="#FFFFFF"/>
          <use xlink:href="#img-3ab83285-20" x="146.64" y="99.27" fill="#FF0000" class="color_Republican" stroke="#FFFFFF"/>
          <use xlink:href="#img-3ab83285-20" x="152.58" y="95.56" fill="#FF0000" class="color_Republican" stroke="#FFFFFF"/>
          <use xlink:href="#img-3ab83285-20" x="158.53" y="112.29" fill="#FF0000" class="color_Republican" stroke="#FFFFFF"/>
          <use xlink:href="#img-3ab83285-20" x="164.47" y="97.93" fill="#FF0000" class="color_Republican" stroke="#FFFFFF"/>
          <use xlink:href="#img-3ab83285-20" x="170.41" y="81.98" fill="#FF0000" class="color_Republican" stroke="#FFFFFF"/>
          <use xlink:href="#img-3ab83285-20" x="176.35" y="94.68" fill="#FF0000" class="color_Republican" stroke="#FFFFFF"/>
          <use xlink:href="#img-3ab83285-20" x="182.29" y="70.03" fill="#FF0000" class="color_Republican" stroke="#FFFFFF"/>
          <use xlink:href="#img-3ab83285-20" x="188.23" y="106.11" fill="#FF0000" class="color_Republican" stroke="#FFFFFF"/>
          <use xlink:href="#img-3ab83285-20" x="194.17" y="107.48" fill="#FF0000" class="color_Republican" stroke="#FFFFFF"/>
          <use xlink:href="#img-3ab83285-20" x="200.11" y="105.89" fill="#FF0000" class="color_Republican" stroke="#FFFFFF"/>
          <use xlink:href="#img-3ab83285-20" x="206.06" y="101.84" fill="#FF0000" class="color_Republican" stroke="#FFFFFF"/>
          <use xlink:href="#img-3ab83285-20" x="212" y="100.96" fill="#FF0000" class="color_Republican" stroke="#FFFFFF"/>
          <use xlink:href="#img-3ab83285-20" x="217.94" y="84.17" fill="#FF0000" class="color_Republican" stroke="#FFFFFF"/>
          <use xlink:href="#img-3ab83285-20" x="223.88" y="79.59" fill="#FF0000" class="color_Republican" stroke="#FFFFFF"/>
          <use xlink:href="#img-3ab83285-20" x="229.82" y="76.68" fill="#FF0000" class="color_Republican" stroke="#FFFFFF"/>
          <use xlink:href="#img-3ab83285-20" x="235.76" y="48.02" fill="#FF0000" class="color_Republican" stroke="#FFFFFF"/>
          <use xlink:href="#img-3ab83285-20" x="241.7" y="106.25" fill="#FF0000" class="color_Republican" stroke="#FFFFFF"/>
          <use xlink:href="#img-3ab83285-20" x="247.65" y="44.89" fill="#FF0000" class="color_Republican" stroke="#FFFFFF"/>
          <use xlink:href="#img-3ab83285-20" x="253.59" y="76.2" fill="#FF0000" class="color_Republican" stroke="#FFFFFF"/>
          <use xlink:href="#img-3ab83285-20" x="259.53" y="69.76" fill="#FF0000" class="color_Republican" stroke="#FFFFFF"/>
          <use xlink:href="#img-3ab83285-20" x="265.47" y="57.37" fill="#FF0000" class="color_Republican" stroke="#FFFFFF"/>
          <use xlink:href="#img-3ab83285-20" x="271.41" y="58.82" fill="#FF0000" class="color_Republican" stroke="#FFFFFF"/>
          <use xlink:href="#img-3ab83285-20" x="277.35" y="70.92" fill="#FF0000" class="color_Republican" stroke="#FFFFFF"/>
          <use xlink:href="#img-3ab83285-20" x="283.29" y="68.32" fill="#FF0000" class="color_Republican" stroke="#FFFFFF"/>
          <use xlink:href="#img-3ab83285-20" x="289.23" y="61.66" fill="#FF0000" class="color_Republican" stroke="#FFFFFF"/>
          <use xlink:href="#img-3ab83285-20" x="295.18" y="55.36" fill="#FF0000" class="color_Republican" stroke="#FFFFFF"/>
          <use xlink:href="#img-3ab83285-20" x="301.12" y="57.61" fill="#FF0000" class="color_Republican" stroke="#FFFFFF"/>
          <use xlink:href="#img-3ab83285-20" x="307.06" y="57.37" fill="#FF0000" class="color_Republican" stroke="#FFFFFF"/>
          <use xlink:href="#img-3ab83285-20" x="33.76" y="26.55" fill="#0000FF" class="color_Democratic" stroke="#FFFFFF"/>
          <use xlink:href="#img-3ab83285-20" x="39.7" y="15.98" fill="#0000FF" class="color_Democratic" stroke="#FFFFFF"/>
          <use xlink:href="#img-3ab83285-20" x="45.64" y="62.84" fill="#0000FF" class="color_Democratic" stroke="#FFFFFF"/>
          <use xlink:href="#img-3ab83285-20" x="51.58" y="63.84" fill="#0000FF" class="color_Democratic" stroke="#FFFFFF"/>
          <use xlink:href="#img-3ab83285-20" x="57.52" y="59" fill="#0000FF" class="color_Democratic" stroke="#FFFFFF"/>
          <use xlink:href="#img-3ab83285-20" x="63.46" y="67.86" fill="#0000FF" class="color_Democratic" stroke="#FFFFFF"/>
          <use xlink:href="#img-3ab83285-20" x="69.41" y="57.01" fill="#0000FF" class="color_Democratic" stroke="#FFFFFF"/>
          <use xlink:href="#img-3ab83285-20" x="75.35" y="55.76" fill="#0000FF" class="color_Democratic" stroke="#FFFFFF"/>
          <use xlink:href="#img-3ab83285-20" x="81.29" y="105.08" fill="#0000FF" class="color_Democratic" stroke="#FFFFFF"/>
          <use xlink:href="#img-3ab83285-20" x="93.17" y="69.76" fill="#0000FF" class="color_Democratic" stroke="#FFFFFF"/>
          <use xlink:href="#img-3ab83285-20" x="99.11" y="71.79" fill="#0000FF" class="color_Democratic" stroke="#FFFFFF"/>
          <use xlink:href="#img-3ab83285-20" x="105.05" y="57.96" fill="#0000FF" class="color_Democratic" stroke="#FFFFFF"/>
          <use xlink:href="#img-3ab83285-20" x="111" y="57.95" fill="#0000FF" class="color_Democratic" stroke="#FFFFFF"/>
          <use xlink:href="#img-3ab83285-20" x="116.94" y="57.56" fill="#0000FF" class="color_Democratic" stroke="#FFFFFF"/>
          <use xlink:href="#img-3ab83285-20" x="122.88" y="50.59" fill="#0000FF" class="color_Democratic" stroke="#FFFFFF"/>
          <use xlink:href="#img-3ab83285-20" x="128.82" y="58.57" fill="#0000FF" class="color_Democratic" stroke="#FFFFFF"/>
          <use xlink:href="#img-3ab83285-20" x="134.76" y="50.63" fill="#0000FF" class="color_Democratic" stroke="#FFFFFF"/>
          <use xlink:href="#img-3ab83285-20" x="140.7" y="57.08" fill="#0000FF" class="color_Democratic" stroke="#FFFFFF"/>
          <use xlink:href="#img-3ab83285-20" x="146.64" y="43.91" fill="#0000FF" class="color_Democratic" stroke="#FFFFFF"/>
          <use xlink:href="#img-3ab83285-20" x="152.58" y="46.52" fill="#0000FF" class="color_Democratic" stroke="#FFFFFF"/>
          <use xlink:href="#img-3ab83285-20" x="158.53" y="47.5" fill="#0000FF" class="color_Democratic" stroke="#FFFFFF"/>
          <use xlink:href="#img-3ab83285-20" x="164.47" y="41.1" fill="#0000FF" class="color_Democratic" stroke="#FFFFFF"/>
          <use xlink:href="#img-3ab83285-20" x="170.41" y="56.18" fill="#0000FF" class="color_Democratic" stroke="#FFFFFF"/>
          <use xlink:href="#img-3ab83285-20" x="176.35" y="47.77" fill="#0000FF" class="color_Democratic" stroke="#FFFFFF"/>
          <use xlink:href="#img-3ab83285-20" x="182.29" y="67.05" fill="#0000FF" class="color_Democratic" stroke="#FFFFFF"/>
          <use xlink:href="#img-3ab83285-20" x="188.23" y="31.96" fill="#0000FF" class="color_Democratic" stroke="#FFFFFF"/>
          <use xlink:href="#img-3ab83285-20" x="194.17" y="30.24" fill="#0000FF" class="color_Democratic" stroke="#FFFFFF"/>
          <use xlink:href="#img-3ab83285-20" x="200.11" y="31.46" fill="#0000FF" class="color_Democratic" stroke="#FFFFFF"/>
          <use xlink:href="#img-3ab83285-20" x="206.06" y="35.6" fill="#0000FF" class="color_Democratic" stroke="#FFFFFF"/>
          <use xlink:href="#img-3ab83285-20" x="212" y="120.95" fill="#0000FF" class="color_Democratic" stroke="#FFFFFF"/>
          <use xlink:href="#img-3ab83285-20" x="217.94" y="53.16" fill="#0000FF" class="color_Democratic" stroke="#FFFFFF"/>
          <use xlink:href="#img-3ab83285-20" x="223.88" y="61.6" fill="#0000FF" class="color_Democratic" stroke="#FFFFFF"/>
          <use xlink:href="#img-3ab83285-20" x="229.82" y="61.73" fill="#0000FF" class="color_Democratic" stroke="#FFFFFF"/>
          <use xlink:href="#img-3ab83285-20" x="235.76" y="120.95" fill="#0000FF" class="color_Democratic" stroke="#FFFFFF"/>
          <use xlink:href="#img-3ab83285-20" x="241.7" y="101.29" fill="#0000FF" class="color_Democratic" stroke="#FFFFFF"/>
          <use xlink:href="#img-3ab83285-20" x="247.65" y="94.13" fill="#0000FF" class="color_Democratic" stroke="#FFFFFF"/>
          <use xlink:href="#img-3ab83285-20" x="253.59" y="62.43" fill="#0000FF" class="color_Democratic" stroke="#FFFFFF"/>
          <use xlink:href="#img-3ab83285-20" x="259.53" y="71.12" fill="#0000FF" class="color_Democratic" stroke="#FFFFFF"/>
          <use xlink:href="#img-3ab83285-20" x="265.47" y="80.75" fill="#0000FF" class="color_Democratic" stroke="#FFFFFF"/>
          <use xlink:href="#img-3ab83285-20" x="271.41" y="79.09" fill="#0000FF" class="color_Democratic" stroke="#FFFFFF"/>
          <use xlink:href="#img-3ab83285-20" x="277.35" y="78.02" fill="#0000FF" class="color_Democratic" stroke="#FFFFFF"/>
          <use xlink:href="#img-3ab83285-20" x="283.29" y="75.63" fill="#0000FF" class="color_Democratic" stroke="#FFFFFF"/>
          <use xlink:href="#img-3ab83285-20" x="289.23" y="77.28" fill="#0000FF" class="color_Democratic" stroke="#FFFFFF"/>
          <use xlink:href="#img-3ab83285-20" x="295.18" y="82.26" fill="#0000FF" class="color_Democratic" stroke="#FFFFFF"/>
          <use xlink:href="#img-3ab83285-20" x="301.12" y="80.27" fill="#0000FF" class="color_Democratic" stroke="#FFFFFF"/>
          <use xlink:href="#img-3ab83285-20" x="307.06" y="80.67" fill="#0000FF" class="color_Democratic" stroke="#FFFFFF"/>
        </g>
      </g>
      <g stroke-width="0.53" fill="#000000" fill-opacity="0.000" stroke-dasharray="none" id="img-3ab83285-21">
        <path fill="none" d="M33.76,26.55 L 39.7 15.98 45.64 62.84 51.58 63.84 57.52 59 63.46 67.86 69.41 57.01 75.35 55.76 81.29 105.08 93.17 69.76 99.11 71.79 105.05 57.96 111 57.95 116.94 57.56 122.88 50.59 128.82 58.57 134.76 50.63 140.7 57.08 146.64 43.91 152.58 46.52 158.53 47.5 164.47 41.1 170.41 56.18 176.35 47.77 182.29 67.05 188.23 31.96 194.17 30.24 200.11 31.46 206.06 35.6 212 120.95 217.94 53.16 223.88 61.6 229.82 61.73 235.76 120.95 241.7 101.29 247.65 94.13 253.59 62.43 259.53 71.12 265.47 80.75 271.41 79.09 277.35 78.02 283.29 75.63 289.23 77.28 295.18 82.26 301.12 80.27 307.06 80.67" class="geometry color_Democratic" stroke="#0000FF"/>
        <path fill="none" d="M81.29,120.95 L 93.17 67.13 99.11 65.09 105.05 78.93 111 81.99 116.94 80.32 122.88 86.66 128.82 116.8 134.76 90.9 140.7 84.38 146.64 99.27 152.58 95.56 158.53 112.29 164.47 97.93 170.41 81.98 176.35 94.68 182.29 70.03 188.23 106.11 194.17 107.48 200.11 105.89 206.06 101.84 212 100.96 217.94 84.17 223.88 79.59 229.82 76.68 235.76 48.02 241.7 106.25 247.65 44.89 253.59 76.2 259.53 69.76 265.47 57.37 271.41 58.82 277.35 70.92 283.29 68.32 289.23 61.66 295.18 55.36 301.12 57.61 307.06 57.37" class="geometry color_Republican" stroke="#FF0000"/>
      </g>
    </g>
  </g>
</g>
  <g class="guide ylabels" font-size="4.76" font-family="'PT Sans Caption','Helvetica Neue','Helvetica',sans-serif" fill="#6C606B" id="img-3ab83285-22">
    <text x="24.82" y="120.95" text-anchor="end" dy="0.35em">0</text>
    <text x="24.82" y="94.7" text-anchor="end" dy="0.35em">25</text>
    <text x="24.82" y="68.44" text-anchor="end" dy="0.35em">50</text>
    <text x="24.82" y="42.19" text-anchor="end" dy="0.35em">75</text>
    <text x="24.82" y="15.94" text-anchor="end" dy="0.35em">100</text>
  </g>
  <g font-size="6.35" font-family="'PT Sans','Helvetica Neue','Helvetica',sans-serif" fill="#564A55" stroke="#000000" stroke-opacity="0.000" id="img-3ab83285-23">
    <text x="10.18" y="66.44" text-anchor="middle" dy="0.35em" transform="rotate(-90, 10.18, 68.44)">Popular Vote (%)</text>
  </g>
  <g font-size="6.35" font-family="'PT Sans','Helvetica Neue','Helvetica',sans-serif" fill="#564A55" stroke="#000000" stroke-opacity="0.000" id="img-3ab83285-24">
    <text x="170.41" y="11.94" text-anchor="middle">Alabama</text>
  </g>
</g>
<defs>
  <clipPath id="img-3ab83285-12">
  <path d="M25.82,13.94 L 315 13.94 315 122.95 25.82 122.95" />
</clipPath>
  <g id="img-3ab83285-20">
    <circle cx="0" cy="0" r="0.9"/>
  </g>
</defs>
</svg>
