<?xml version="1.0" encoding="UTF-8"?>
<svg xmlns="http://www.w3.org/2000/svg"
     xmlns:xlink="http://www.w3.org/1999/xlink"
     xmlns:gadfly="http://www.gadflyjl.org/ns"
     version="1.2"
     width="320mm" height="160mm" viewBox="0 0 320 160"
     stroke="none"
     fill="#000000"
     stroke-width="0.3"
     font-size="3.88"
>
<g class="plotroot xscalable yscalable" id="img-3c71259e-1">
  <g class="guide colorkey" id="img-3c71259e-2">
    <g class="color_Democratic" id="img-3c71259e-3">
      <g fill="#FFFFFF" font-size="4.76" font-family="'PT Sans','Helvetica Neue','Helvetica',sans-serif" id="img-3c71259e-4">
        <text x="58.33" y="149.82" dy="0.35em">Democratic</text>
      </g>
      <g fill="#0000FF" stroke="#000000" stroke-opacity="0.000" id="img-3c71259e-5">
        <rect x="54.36" y="148.34" width="2.97" height="2.97"/>
      </g>
    </g>
    <g class="color_Republican" id="img-3c71259e-6">
      <g fill="#FFFFFF" font-size="4.76" font-family="'PT Sans','Helvetica Neue','Helvetica',sans-serif" id="img-3c71259e-7">
        <text x="29.73" y="149.82" dy="0.35em">Republican</text>
      </g>
      <g fill="#FF0000" stroke="#000000" stroke-opacity="0.000" id="img-3c71259e-8">
        <rect x="25.76" y="148.34" width="2.97" height="2.97"/>
      </g>
    </g>
    <g fill="#FFFFFF" font-size="6.35" font-family="'PT Sans','Helvetica Neue','Helvetica',sans-serif" stroke="#000000" stroke-opacity="0.000" id="img-3c71259e-9">
      <text x="25.76" y="145.06">Party</text>
    </g>
  </g>
  <g font-size="6.35" font-family="'PT Sans','Helvetica Neue','Helvetica',sans-serif" fill="#FFFFFF" stroke="#000000" stroke-opacity="0.000" id="img-3c71259e-10">
    <text x="169.88" y="130.77" text-anchor="middle" dy="0.6em">Year</text>
  </g>
  <g class="guide xlabels" font-size="4.76" font-family="'PT Sans Caption','Helvetica Neue','Helvetica',sans-serif" fill="#FFFFFF" id="img-3c71259e-11">
    <text x="26.76" y="122.89" text-anchor="middle" dy="0.6em">1908</text>
    <text x="47.96" y="122.89" text-anchor="middle" dy="0.6em">1916</text>
    <text x="69.16" y="122.89" text-anchor="middle" dy="0.6em">1924</text>
    <text x="90.37" y="122.89" text-anchor="middle" dy="0.6em">1932</text>
    <text x="111.57" y="122.89" text-anchor="middle" dy="0.6em">1940</text>
    <text x="132.77" y="122.89" text-anchor="middle" dy="0.6em">1948</text>
    <text x="153.98" y="122.89" text-anchor="middle" dy="0.6em">1956</text>
    <text x="175.18" y="122.89" text-anchor="middle" dy="0.6em">1964</text>
    <text x="196.38" y="122.89" text-anchor="middle" dy="0.6em">1972</text>
    <text x="217.59" y="122.89" text-anchor="middle" dy="0.6em">1980</text>
    <text x="238.79" y="122.89" text-anchor="middle" dy="0.6em">1988</text>
    <text x="259.99" y="122.89" text-anchor="middle" dy="0.6em">1996</text>
    <text x="281.2" y="122.89" text-anchor="middle" dy="0.6em">2004</text>
    <text x="302.4" y="122.89" text-anchor="middle" dy="0.6em">2012</text>
  </g>
<g clip-path="url(#img-3c71259e-12)">
  <g id="img-3c71259e-13">
    <g pointer-events="visible" opacity="1" fill="#000000" fill-opacity="0.000" stroke="#000000" stroke-opacity="0.000" class="guide background" id="img-3c71259e-14">
      <rect x="24.76" y="13.94" width="290.24" height="107.95"/>
    </g>
    <g class="guide ygridlines xfixed" stroke-dasharray="0.5,0.5" stroke-width="0.26" stroke="#FFFFFF" id="img-3c71259e-15">
      <path fill="none" d="M24.76,119.89 L 315 119.89"/>
      <path fill="none" d="M24.76,93.9 L 315 93.9"/>
      <path fill="none" d="M24.76,67.92 L 315 67.92"/>
      <path fill="none" d="M24.76,41.93 L 315 41.93"/>
      <path fill="none" d="M24.76,15.94 L 315 15.94"/>
    </g>
    <g class="guide xgridlines yfixed" stroke-dasharray="0.5,0.5" stroke-width="0.26" stroke="#FFFFFF" id="img-3c71259e-16">
      <path fill="none" d="M26.76,13.94 L 26.76 121.89"/>
      <path fill="none" d="M47.96,13.94 L 47.96 121.89"/>
      <path fill="none" d="M69.16,13.94 L 69.16 121.89"/>
      <path fill="none" d="M90.37,13.94 L 90.37 121.89"/>
      <path fill="none" d="M111.57,13.94 L 111.57 121.89"/>
      <path fill="none" d="M132.77,13.94 L 132.77 121.89"/>
      <path fill="none" d="M153.98,13.94 L 153.98 121.89"/>
      <path fill="none" d="M175.18,13.94 L 175.18 121.89"/>
      <path fill="none" d="M196.38,13.94 L 196.38 121.89"/>
      <path fill="none" d="M217.59,13.94 L 217.59 121.89"/>
      <path fill="none" d="M238.79,13.94 L 238.79 121.89"/>
      <path fill="none" d="M259.99,13.94 L 259.99 121.89"/>
      <path fill="none" d="M281.2,13.94 L 281.2 121.89"/>
      <path fill="none" d="M302.4,13.94 L 302.4 121.89"/>
    </g>
    <g class="plotpanel" id="img-3c71259e-17">
      <g class="geometry" id="img-3c71259e-18">
        <g stroke-width="0.3" id="img-3c71259e-19">
          <use xlink:href="#img-3c71259e-20" x="37.36" y="106.65" stroke="#FFFFFF" fill="#FF0000" class="color_Republican"/>
          <use xlink:href="#img-3c71259e-20" x="47.96" y="83.12" stroke="#FFFFFF" fill="#FF0000" class="color_Republican"/>
          <use xlink:href="#img-3c71259e-20" x="58.56" y="62.08" stroke="#FFFFFF" fill="#FF0000" class="color_Republican"/>
          <use xlink:href="#img-3c71259e-20" x="69.16" y="77" stroke="#FFFFFF" fill="#FF0000" class="color_Republican"/>
          <use xlink:href="#img-3c71259e-20" x="79.77" y="60.05" stroke="#FFFFFF" fill="#FF0000" class="color_Republican"/>
          <use xlink:href="#img-3c71259e-20" x="90.37" y="88.15" stroke="#FFFFFF" fill="#FF0000" class="color_Republican"/>
          <use xlink:href="#img-3c71259e-20" x="100.97" y="91.9" stroke="#FFFFFF" fill="#FF0000" class="color_Republican"/>
          <use xlink:href="#img-3c71259e-20" x="111.57" y="82.46" stroke="#FFFFFF" fill="#FF0000" class="color_Republican"/>
          <use xlink:href="#img-3c71259e-20" x="122.17" y="77.38" stroke="#FFFFFF" fill="#FF0000" class="color_Republican"/>
          <use xlink:href="#img-3c71259e-20" x="132.77" y="74.34" stroke="#FFFFFF" fill="#FF0000" class="color_Republican"/>
          <use xlink:href="#img-3c71259e-20" x="143.38" y="59.24" stroke="#FFFFFF" fill="#FF0000" class="color_Republican"/>
          <use xlink:href="#img-3c71259e-20" x="153.98" y="56.49" stroke="#FFFFFF" fill="#FF0000" class="color_Republican"/>
          <use xlink:href="#img-3c71259e-20" x="164.58" y="62.18" stroke="#FFFFFF" fill="#FF0000" class="color_Republican"/>
          <use xlink:href="#img-3c71259e-20" x="175.18" y="67.45" stroke="#FFFFFF" fill="#FF0000" class="color_Republican"/>
          <use xlink:href="#img-3c71259e-20" x="185.78" y="62.95" stroke="#FFFFFF" fill="#FF0000" class="color_Republican"/>
          <use xlink:href="#img-3c71259e-20" x="196.38" y="55.82" stroke="#FFFFFF" fill="#FF0000" class="color_Republican"/>
          <use xlink:href="#img-3c71259e-20" x="206.98" y="61.3" stroke="#FFFFFF" fill="#FF0000" class="color_Republican"/>
          <use xlink:href="#img-3c71259e-20" x="217.59" y="56.89" stroke="#FFFFFF" fill="#FF0000" class="color_Republican"/>
          <use xlink:href="#img-3c71259e-20" x="228.19" y="50.84" stroke="#FFFFFF" fill="#FF0000" class="color_Republican"/>
          <use xlink:href="#img-3c71259e-20" x="238.79" y="57.57" stroke="#FFFFFF" fill="#FF0000" class="color_Republican"/>
          <use xlink:href="#img-3c71259e-20" x="249.39" y="79.9" stroke="#FFFFFF" fill="#FF0000" class="color_Republican"/>
          <use xlink:href="#img-3c71259e-20" x="259.99" y="73.85" stroke="#FFFFFF" fill="#FF0000" class="color_Republican"/>
          <use xlink:href="#img-3c71259e-20" x="270.59" y="66.93" stroke="#FFFFFF" fill="#FF0000" class="color_Republican"/>
          <use xlink:href="#img-3c71259e-20" x="281.2" y="62.95" stroke="#FFFFFF" fill="#FF0000" class="color_Republican"/>
          <use xlink:href="#img-3c71259e-20" x="291.8" y="64.39" stroke="#FFFFFF" fill="#FF0000" class="color_Republican"/>
          <use xlink:href="#img-3c71259e-20" x="302.4" y="64.29" stroke="#FFFFFF" fill="#FF0000" class="color_Republican"/>
          <use xlink:href="#img-3c71259e-20" x="37.36" y="74.65" stroke="#FFFFFF" fill="#0000FF" class="color_Democratic"/>
          <use xlink:href="#img-3c71259e-20" x="47.96" y="60.46" stroke="#FFFFFF" fill="#0000FF" class="color_Democratic"/>
          <use xlink:href="#img-3c71259e-20" x="58.56" y="73.75" stroke="#FFFFFF" fill="#0000FF" class="color_Democratic"/>
          <use xlink:href="#img-3c71259e-20" x="69.16" y="83.02" stroke="#FFFFFF" fill="#0000FF" class="color_Democratic"/>
          <use xlink:href="#img-3c71259e-20" x="79.77" y="75.99" stroke="#FFFFFF" fill="#0000FF" class="color_Democratic"/>
          <use xlink:href="#img-3c71259e-20" x="90.37" y="50.21" stroke="#FFFFFF" fill="#0000FF" class="color_Democratic"/>
          <use xlink:href="#img-3c71259e-20" x="100.97" y="47.29" stroke="#FFFFFF" fill="#0000FF" class="color_Democratic"/>
          <use xlink:href="#img-3c71259e-20" x="111.57" y="53.89" stroke="#FFFFFF" fill="#0000FF" class="color_Democratic"/>
          <use xlink:href="#img-3c71259e-20" x="122.17" y="58.77" stroke="#FFFFFF" fill="#0000FF" class="color_Democratic"/>
          <use xlink:href="#img-3c71259e-20" x="132.77" y="63.97" stroke="#FFFFFF" fill="#0000FF" class="color_Democratic"/>
          <use xlink:href="#img-3c71259e-20" x="143.38" y="76.6" stroke="#FFFFFF" fill="#0000FF" class="color_Democratic"/>
          <use xlink:href="#img-3c71259e-20" x="153.98" y="79.45" stroke="#FFFFFF" fill="#0000FF" class="color_Democratic"/>
          <use xlink:href="#img-3c71259e-20" x="164.58" y="73.78" stroke="#FFFFFF" fill="#0000FF" class="color_Democratic"/>
          <use xlink:href="#img-3c71259e-20" x="175.18" y="68.48" stroke="#FFFFFF" fill="#0000FF" class="color_Democratic"/>
          <use xlink:href="#img-3c71259e-20" x="185.78" y="83.49" stroke="#FFFFFF" fill="#0000FF" class="color_Democratic"/>
          <use xlink:href="#img-3c71259e-20" x="196.38" y="88.31" stroke="#FFFFFF" fill="#0000FF" class="color_Democratic"/>
          <use xlink:href="#img-3c71259e-20" x="206.98" y="78.52" stroke="#FFFFFF" fill="#0000FF" class="color_Democratic"/>
          <use xlink:href="#img-3c71259e-20" x="217.59" y="90.53" stroke="#FFFFFF" fill="#0000FF" class="color_Democratic"/>
          <use xlink:href="#img-3c71259e-20" x="228.19" y="86.06" stroke="#FFFFFF" fill="#0000FF" class="color_Democratic"/>
          <use xlink:href="#img-3c71259e-20" x="238.79" y="79.62" stroke="#FFFFFF" fill="#0000FF" class="color_Democratic"/>
          <use xlink:href="#img-3c71259e-20" x="249.39" y="81.93" stroke="#FFFFFF" fill="#0000FF" class="color_Democratic"/>
          <use xlink:href="#img-3c71259e-20" x="259.99" y="71.54" stroke="#FFFFFF" fill="#0000FF" class="color_Democratic"/>
          <use xlink:href="#img-3c71259e-20" x="270.59" y="73.45" stroke="#FFFFFF" fill="#0000FF" class="color_Democratic"/>
          <use xlink:href="#img-3c71259e-20" x="281.2" y="73.82" stroke="#FFFFFF" fill="#0000FF" class="color_Democratic"/>
          <use xlink:href="#img-3c71259e-20" x="291.8" y="73.2" stroke="#FFFFFF" fill="#0000FF" class="color_Democratic"/>
          <use xlink:href="#img-3c71259e-20" x="302.4" y="73.69" stroke="#FFFFFF" fill="#0000FF" class="color_Democratic"/>
        </g>
      </g>
      <g stroke-width="0.53" fill="#000000" fill-opacity="0.000" stroke-dasharray="none" id="img-3c71259e-21">
        <path fill="none" d="M37.36,74.65 L 47.96 60.46 58.56 73.75 69.16 83.02 79.77 75.99 90.37 50.21 100.97 47.29 111.57 53.89 122.17 58.77 132.77 63.97 143.38 76.6 153.98 79.45 164.58 73.78 175.18 68.48 185.78 83.49 196.38 88.31 206.98 78.52 217.59 90.53 228.19 86.06 238.79 79.62 249.39 81.93 259.99 71.54 270.59 73.45 281.2 73.82 291.8 73.2 302.4 73.69" stroke="#0000FF" class="geometry color_Democratic"/>
        <path fill="none" d="M37.36,106.65 L 47.96 83.12 58.56 62.08 69.16 77 79.77 60.05 90.37 88.15 100.97 91.9 111.57 82.46 122.17 77.38 132.77 74.34 143.38 59.24 153.98 56.49 164.58 62.18 175.18 67.45 185.78 62.95 196.38 55.82 206.98 61.3 217.59 56.89 228.19 50.84 238.79 57.57 249.39 79.9 259.99 73.85 270.59 66.93 281.2 62.95 291.8 64.39 302.4 64.29" stroke="#FF0000" class="geometry color_Republican"/>
      </g>
    </g>
  </g>
</g>
  <g class="guide ylabels" font-size="4.76" font-family="'PT Sans Caption','Helvetica Neue','Helvetica',sans-serif" fill="#FFFFFF" id="img-3c71259e-22">
    <text x="23.76" y="119.89" text-anchor="end" dy="0.35em">0</text>
    <text x="23.76" y="93.9" text-anchor="end" dy="0.35em">25</text>
    <text x="23.76" y="67.92" text-anchor="end" dy="0.35em">50</text>
    <text x="23.76" y="41.93" text-anchor="end" dy="0.35em">75</text>
    <text x="23.76" y="15.94" text-anchor="end" dy="0.35em">100</text>
  </g>
  <g font-size="6.35" font-family="'PT Sans','Helvetica Neue','Helvetica',sans-serif" fill="#FFFFFF" stroke="#000000" stroke-opacity="0.000" id="img-3c71259e-23">
    <text x="10.18" y="65.92" text-anchor="middle" dy="0.35em" transform="rotate(-90, 10.18, 67.92)">Popular Vote (%)</text>
  </g>
  <g font-size="6.35" font-family="'PT Sans','Helvetica Neue','Helvetica',sans-serif" fill="#FFFFFF" stroke="#000000" stroke-opacity="0.000" id="img-3c71259e-24">
    <text x="169.88" y="11.94" text-anchor="middle">Arizona</text>
  </g>
</g>
<defs>
  <clipPath id="img-3c71259e-12">
  <path d="M24.76,13.94 L 315 13.94 315 121.89 24.76 121.89" />
</clipPath>
  <g id="img-3c71259e-20">
    <circle cx="0" cy="0" r="0.9"/>
  </g>
</defs>
</svg>
