<svg xmlns="http://www.w3.org/2000/svg" xmlns:xlink="http://www.w3.org/1999/xlink" version="1.2" width="238.1mm" height="599.924" viewBox="0 0 238.1 158.73" stroke-width=".3" font-size="3.88"><path d="M0 0h238.1v158.73H0z" stroke="#000" stroke-opacity="0" fill="#222831"/><g class="plotroot xscalable yscalable"><g class="guide colorkey"><g class="color_Democratic"><text x="51.52" y="148.78" dy=".35em" fill="#A1A1A1" font-size="3.7" font-family="'PT Sans','Helvetica Neue','Helvetica',sans-serif">Democratic</text><path d="M48.29 147.66h2.22v2.22h-2.22z" fill="#00F" stroke="#000" stroke-opacity="0"/></g><g class="color_Republican"><text x="29.6" y="148.78" dy=".35em" fill="#A1A1A1" font-size="3.7" font-family="'PT Sans','Helvetica Neue','Helvetica',sans-serif">Republican</text><path d="M26.38 147.66h2.22v2.22h-2.22z" fill="#F00" stroke="#000" stroke-opacity="0"/></g><text x="26.38" y="145.28" fill="#A1A1A1" font-size="6.35" font-family="'PT Sans','Helvetica Neue','Helvetica',sans-serif" stroke="#000" stroke-opacity="0">Party</text></g><text x="129.24" y="130.46" text-anchor="middle" dy=".6em" font-size="6.35" font-family="'PT Sans','Helvetica Neue','Helvetica',sans-serif" fill="#A1A1A1" stroke="#000" stroke-opacity="0">Year</text><g class="guide xlabels" font-size="4.76" font-family="'PT Sans Caption','Helvetica Neue','Helvetica',sans-serif" fill="#A1A1A1" text-anchor="middle"><text x="27.38" y="121.95" dy=".6em">1824</text><text x="40.11" y="121.95" dy=".6em">1836</text><text x="52.84" y="121.95" dy=".6em">1848</text><text x="65.58" y="121.95" dy=".6em">1860</text><text x="78.31" y="121.95" dy=".6em">1872</text><text x="91.04" y="121.95" dy=".6em">1884</text><text x="103.77" y="121.95" dy=".6em">1896</text><text x="116.51" y="121.95" dy=".6em">1908</text><text x="129.24" y="121.95" dy=".6em">1920</text><text x="141.97" y="121.95" dy=".6em">1932</text><text x="154.7" y="121.95" dy=".6em">1944</text><text x="167.43" y="121.95" dy=".6em">1956</text><text x="180.17" y="121.95" dy=".6em">1968</text><text x="192.9" y="121.95" dy=".6em">1980</text><text x="205.63" y="121.95" dy=".6em">1992</text><text x="218.36" y="121.95" dy=".6em">2004</text><text x="231.1" y="121.95" dy=".6em">2016</text></g><g clip-path="url(#a)"><path d="M25.38 12.91H233.1v108.04H25.38z" pointer-events="visible" fill="#222831" stroke="#000" stroke-opacity="0" class="guide background"/><g class="guide ygridlines xfixed" stroke-dasharray="0.5,0.5" stroke-width=".2" stroke="#575757" fill="none"><path d="M25.38 118.95H233.1M25.38 92.94H233.1M25.38 66.93H233.1M25.38 40.92H233.1M25.38 14.91H233.1"/></g><g class="guide xgridlines yfixed" stroke-dasharray="0.5,0.5" stroke-width=".2" stroke="#575757" fill="none"><path d="M27.38 12.91v108.04M40.11 12.91v108.04M52.84 12.91v108.04M65.58 12.91v108.04M78.31 12.91v108.04M91.04 12.91v108.04M103.77 12.91v108.04M116.51 12.91v108.04M129.24 12.91v108.04M141.97 12.91v108.04M154.7 12.91v108.04M167.43 12.91v108.04M180.17 12.91v108.04M192.9 12.91v108.04M205.63 12.91v108.04M218.36 12.91v108.04M231.1 12.91v108.04"/></g><g class="plotpanel"><g class="geometry"><use xlink:href="#b" x="65.58" y="62.92" stroke="#B3867B" fill="#F00" class="color_Republican"/><use xlink:href="#b" x="69.82" y="65.49" stroke="#B3867B" fill="#F00" class="color_Republican"/><use xlink:href="#b" x="74.06" y="65.38" stroke="#B3867B" fill="#F00" class="color_Republican"/><use xlink:href="#b" x="78.31" y="64.43" stroke="#B3867B" fill="#F00" class="color_Republican"/><use xlink:href="#b" x="82.55" y="68.66" stroke="#B3867B" fill="#F00" class="color_Republican"/><use xlink:href="#b" x="86.8" y="66.41" stroke="#B3867B" fill="#F00" class="color_Republican"/><use xlink:href="#b" x="91.04" y="69" stroke="#B3867B" fill="#F00" class="color_Republican"/><use xlink:href="#b" x="95.28" y="68.56" stroke="#B3867B" fill="#F00" class="color_Republican"/><use xlink:href="#b" x="99.53" y="70.26" stroke="#B3867B" fill="#F00" class="color_Republican"/><use xlink:href="#b" x="103.77" y="53.16" stroke="#B3867B" fill="#F00" class="color_Republican"/><use xlink:href="#b" x="108.02" y="59.73" stroke="#B3867B" fill="#F00" class="color_Republican"/><use xlink:href="#b" x="112.26" y="58.48" stroke="#B3867B" fill="#F00" class="color_Republican"/><use xlink:href="#b" x="116.51" y="57.12" stroke="#B3867B" fill="#F00" class="color_Republican"/><use xlink:href="#b" x="120.75" y="81.62" stroke="#B3867B" fill="#F00" class="color_Republican"/><use xlink:href="#b" x="124.99" y="67.14" stroke="#B3867B" fill="#F00" class="color_Republican"/><use xlink:href="#b" x="129.24" y="53.7" stroke="#B3867B" fill="#F00" class="color_Republican"/><use xlink:href="#b" x="133.48" y="54.93" stroke="#B3867B" fill="#F00" class="color_Republican"/><use xlink:href="#b" x="137.73" y="63.15" stroke="#B3867B" fill="#F00" class="color_Republican"/><use xlink:href="#b" x="141.97" y="68.45" stroke="#B3867B" fill="#F00" class="color_Republican"/><use xlink:href="#b" x="146.21" y="76.98" stroke="#B3867B" fill="#F00" class="color_Republican"/><use xlink:href="#b" x="150.46" y="70.78" stroke="#B3867B" fill="#F00" class="color_Republican"/><use xlink:href="#b" x="154.7" y="70.12" stroke="#B3867B" fill="#F00" class="color_Republican"/><use xlink:href="#b" x="158.95" y="67.4" stroke="#B3867B" fill="#F00" class="color_Republican"/><use xlink:href="#b" x="163.19" y="61" stroke="#B3867B" fill="#F00" class="color_Republican"/><use xlink:href="#b" x="167.43" y="52.66" stroke="#B3867B" fill="#F00" class="color_Republican"/><use xlink:href="#b" x="171.68" y="70.81" stroke="#B3867B" fill="#F00" class="color_Republican"/><use xlink:href="#b" x="175.92" y="85.57" stroke="#B3867B" fill="#F00" class="color_Republican"/><use xlink:href="#b" x="180.17" y="72.84" stroke="#B3867B" fill="#F00" class="color_Republican"/><use xlink:href="#b" x="184.41" y="58.02" stroke="#B3867B" fill="#F00" class="color_Republican"/><use xlink:href="#b" x="188.65" y="64.79" stroke="#B3867B" fill="#F00" class="color_Republican"/><use xlink:href="#b" x="192.9" y="68.85" stroke="#B3867B" fill="#F00" class="color_Republican"/><use xlink:href="#b" x="197.14" y="55.77" stroke="#B3867B" fill="#F00" class="color_Republican"/><use xlink:href="#b" x="201.39" y="64.87" stroke="#B3867B" fill="#F00" class="color_Republican"/><use xlink:href="#b" x="205.63" y="81.73" stroke="#B3867B" fill="#F00" class="color_Republican"/><use xlink:href="#b" x="209.87" y="82.86" stroke="#B3867B" fill="#F00" class="color_Republican"/><use xlink:href="#b" x="214.12" y="78.96" stroke="#B3867B" fill="#F00" class="color_Republican"/><use xlink:href="#b" x="218.36" y="73.23" stroke="#B3867B" fill="#F00" class="color_Republican"/><use xlink:href="#b" x="222.61" y="79.19" stroke="#B3867B" fill="#F00" class="color_Republican"/><use xlink:href="#b" x="226.85" y="76.58" stroke="#B3867B" fill="#F00" class="color_Republican"/><use xlink:href="#b" x="31.62" y="95.07" stroke="#988BAD" fill="#00F" class="color_Democratic"/><use xlink:href="#b" x="35.87" y="83.24" stroke="#988BAD" fill="#00F" class="color_Democratic"/><use xlink:href="#b" x="40.11" y="66.26" stroke="#988BAD" fill="#00F" class="color_Democratic"/><use xlink:href="#b" x="44.36" y="72.71" stroke="#988BAD" fill="#00F" class="color_Democratic"/><use xlink:href="#b" x="48.6" y="70.9" stroke="#988BAD" fill="#00F" class="color_Democratic"/><use xlink:href="#b" x="52.84" y="73.85" stroke="#988BAD" fill="#00F" class="color_Democratic"/><use xlink:href="#b" x="57.09" y="67.15" stroke="#988BAD" fill="#00F" class="color_Democratic"/><use xlink:href="#b" x="61.33" y="73.62" stroke="#988BAD" fill="#00F" class="color_Democratic"/><use xlink:href="#b" x="65.58" y="96.58" stroke="#988BAD" fill="#00F" class="color_Democratic"/><use xlink:href="#b" x="69.82" y="68.37" stroke="#988BAD" fill="#00F" class="color_Democratic"/><use xlink:href="#b" x="74.06" y="68.48" stroke="#988BAD" fill="#00F" class="color_Democratic"/><use xlink:href="#b" x="78.31" y="69.43" stroke="#988BAD" fill="#00F" class="color_Democratic"/><use xlink:href="#b" x="82.55" y="66.2" stroke="#988BAD" fill="#00F" class="color_Democratic"/><use xlink:href="#b" x="86.8" y="68.49" stroke="#988BAD" fill="#00F" class="color_Democratic"/><use xlink:href="#b" x="91.04" y="68.03" stroke="#988BAD" fill="#00F" class="color_Democratic"/><use xlink:href="#b" x="95.28" y="68.33" stroke="#988BAD" fill="#00F" class="color_Democratic"/><use xlink:href="#b" x="99.53" y="66.87" stroke="#988BAD" fill="#00F" class="color_Democratic"/><use xlink:href="#b" x="103.77" y="85.1" stroke="#988BAD" fill="#00F" class="color_Democratic"/><use xlink:href="#b" x="108.02" y="76.22" stroke="#988BAD" fill="#00F" class="color_Democratic"/><use xlink:href="#b" x="112.26" y="79.26" stroke="#988BAD" fill="#00F" class="color_Democratic"/><use xlink:href="#b" x="116.51" y="81.58" stroke="#988BAD" fill="#00F" class="color_Democratic"/><use xlink:href="#b" x="120.75" y="78.21" stroke="#988BAD" fill="#00F" class="color_Democratic"/><use xlink:href="#b" x="124.99" y="70.41" stroke="#988BAD" fill="#00F" class="color_Democratic"/><use xlink:href="#b" x="129.24" y="84.59" stroke="#988BAD" fill="#00F" class="color_Democratic"/><use xlink:href="#b" x="133.48" y="90.31" stroke="#988BAD" fill="#00F" class="color_Democratic"/><use xlink:href="#b" x="137.73" y="71.54" stroke="#988BAD" fill="#00F" class="color_Democratic"/><use xlink:href="#b" x="141.97" y="69.64" stroke="#988BAD" fill="#00F" class="color_Democratic"/><use xlink:href="#b" x="146.21" y="61.39" stroke="#988BAD" fill="#00F" class="color_Democratic"/><use xlink:href="#b" x="150.46" y="63.35" stroke="#988BAD" fill="#00F" class="color_Democratic"/><use xlink:href="#b" x="154.7" y="64.54" stroke="#988BAD" fill="#00F" class="color_Democratic"/><use xlink:href="#b" x="158.95" y="69.11" stroke="#988BAD" fill="#00F" class="color_Democratic"/><use xlink:href="#b" x="163.19" y="73.27" stroke="#988BAD" fill="#00F" class="color_Democratic"/><use xlink:href="#b" x="167.43" y="81.23" stroke="#988BAD" fill="#00F" class="color_Democratic"/><use xlink:href="#b" x="171.68" y="63.05" stroke="#988BAD" fill="#00F" class="color_Democratic"/><use xlink:href="#b" x="175.92" y="48.41" stroke="#988BAD" fill="#00F" class="color_Democratic"/><use xlink:href="#b" x="180.17" y="67.47" stroke="#988BAD" fill="#00F" class="color_Democratic"/><use xlink:href="#b" x="184.41" y="77.2" stroke="#988BAD" fill="#00F" class="color_Democratic"/><use xlink:href="#b" x="188.65" y="70.16" stroke="#988BAD" fill="#00F" class="color_Democratic"/><use xlink:href="#b" x="192.9" y="78.87" stroke="#988BAD" fill="#00F" class="color_Democratic"/><use xlink:href="#b" x="197.14" y="78.55" stroke="#988BAD" fill="#00F" class="color_Democratic"/><use xlink:href="#b" x="201.39" y="70.18" stroke="#988BAD" fill="#00F" class="color_Democratic"/><use xlink:href="#b" x="205.63" y="75.03" stroke="#988BAD" fill="#00F" class="color_Democratic"/><use xlink:href="#b" x="209.87" y="63.99" stroke="#988BAD" fill="#00F" class="color_Democratic"/><use xlink:href="#b" x="214.12" y="60.78" stroke="#988BAD" fill="#00F" class="color_Democratic"/><use xlink:href="#b" x="218.36" y="62.44" stroke="#988BAD" fill="#00F" class="color_Democratic"/><use xlink:href="#b" x="222.61" y="55.91" stroke="#988BAD" fill="#00F" class="color_Democratic"/><use xlink:href="#b" x="226.85" y="58.55" stroke="#988BAD" fill="#00F" class="color_Democratic"/></g><g fill-opacity="0"><path fill="none" d="M31.62 95.07l4.25-11.83 4.24-16.98 4.25 6.45 4.24-1.81 4.24 2.95 4.25-6.7 4.24 6.47 4.25 22.96 4.24-28.21 4.24.11 4.25.95 4.24-3.23 4.25 2.29 4.24-.46 4.24.3 4.25-1.46 4.24 18.23 4.25-8.88 4.24 3.04 4.25 2.32 4.24-3.37 4.24-7.8 4.25 14.18 4.24 5.72 4.25-18.77 4.24-1.9 4.24-8.25 4.25 1.96 4.24 1.19 4.25 4.57 4.24 4.16 4.24 7.96 4.25-18.18 4.24-14.64 4.25 19.06 4.24 9.73 4.24-7.04 4.25 8.71 4.24-.32 4.25-8.37 4.24 4.85 4.24-11.04 4.25-3.21 4.24 1.66 4.25-6.53 4.24 2.64" stroke="#00F" class="geometry color_Democratic"/><path fill="none" d="M65.58 62.92l4.24 2.57 4.24-.11 4.25-.95 4.24 4.23 4.25-2.25L91.04 69l4.24-.44 4.25 1.7 4.24-17.1 4.25 6.57 4.24-1.25 4.25-1.36 4.24 24.5 4.24-14.48 4.25-13.44 4.24 1.23 4.25 8.22 4.24 5.3 4.24 8.53 4.25-6.2 4.24-.66 4.25-2.72 4.24-6.4 4.24-8.34 4.25 18.15 4.24 14.76 4.25-12.73 4.24-14.82 4.24 6.77 4.25 4.06 4.24-13.08 4.25 9.1 4.24 16.86 4.24 1.13 4.25-3.9 4.24-5.73 4.25 5.96 4.24-2.61" stroke="#F00" class="geometry color_Republican"/></g></g></g><g class="guide ylabels" font-size="4.76" font-family="'PT Sans Caption','Helvetica Neue','Helvetica',sans-serif" fill="#A1A1A1" text-anchor="end"><text x="24.38" y="118.95" dy=".35em">0</text><text x="24.38" y="92.94" dy=".35em">25</text><text x="24.38" y="66.93" dy=".35em">50</text><text x="24.38" y="40.92" dy=".35em">75</text><text x="24.38" y="14.91" dy=".35em">100</text></g><text x="9.95" y="64.93" text-anchor="middle" dy=".35em" transform="rotate(-90 9.95 66.93)" font-size="6.35" font-family="'PT Sans','Helvetica Neue','Helvetica',sans-serif" fill="#A1A1A1" stroke="#000" stroke-opacity="0">Popular Vote (%)</text><text x="129.24" y="5" text-anchor="middle" dy=".6em" font-size="6.35" font-family="'PT Sans','Helvetica Neue','Helvetica',sans-serif" fill="#A1A1A1" stroke="#000" stroke-opacity="0">Connecticut</text></g><defs><clipPath id="a"><path d="M25.38 12.91H233.1v108.04H25.38"/></clipPath><circle r=".9" id="b"/></defs></svg>