<svg xmlns="http://www.w3.org/2000/svg" xmlns:xlink="http://www.w3.org/1999/xlink" version="1.2" width="238.1mm" height="599.924" viewBox="0 0 238.1 158.73" stroke-width=".3" font-size="3.88"><path d="M0 0h238.1v158.73H0z" stroke="#000" stroke-opacity="0" fill="#222831"/><g class="plotroot xscalable yscalable"><g class="guide colorkey"><g class="color_Democratic"><text x="51.52" y="148.78" dy=".35em" fill="#A1A1A1" font-size="3.7" font-family="'PT Sans','Helvetica Neue','Helvetica',sans-serif">Democratic</text><path d="M48.29 147.66h2.22v2.22h-2.22z" fill="#00F" stroke="#000" stroke-opacity="0"/></g><g class="color_Republican"><text x="29.6" y="148.78" dy=".35em" fill="#A1A1A1" font-size="3.7" font-family="'PT Sans','Helvetica Neue','Helvetica',sans-serif">Republican</text><path d="M26.38 147.66h2.22v2.22h-2.22z" fill="#F00" stroke="#000" stroke-opacity="0"/></g><text x="26.38" y="145.28" fill="#A1A1A1" font-size="6.35" font-family="'PT Sans','Helvetica Neue','Helvetica',sans-serif" stroke="#000" stroke-opacity="0">Party</text></g><text x="129.24" y="130.46" text-anchor="middle" dy=".6em" font-size="6.35" font-family="'PT Sans','Helvetica Neue','Helvetica',sans-serif" fill="#A1A1A1" stroke="#000" stroke-opacity="0">Year</text><g class="guide xlabels" font-size="4.76" font-family="'PT Sans Caption','Helvetica Neue','Helvetica',sans-serif" fill="#A1A1A1" text-anchor="middle"><text x="27.38" y="121.95" dy=".6em">1876</text><text x="39.02" y="121.95" dy=".6em">1884</text><text x="50.66" y="121.95" dy=".6em">1892</text><text x="62.3" y="121.95" dy=".6em">1900</text><text x="73.94" y="121.95" dy=".6em">1908</text><text x="85.58" y="121.95" dy=".6em">1916</text><text x="97.22" y="121.95" dy=".6em">1924</text><text x="108.87" y="121.95" dy=".6em">1932</text><text x="120.51" y="121.95" dy=".6em">1940</text><text x="132.15" y="121.95" dy=".6em">1948</text><text x="143.79" y="121.95" dy=".6em">1956</text><text x="155.43" y="121.95" dy=".6em">1964</text><text x="167.07" y="121.95" dy=".6em">1972</text><text x="178.71" y="121.95" dy=".6em">1980</text><text x="190.35" y="121.95" dy=".6em">1988</text><text x="201.99" y="121.95" dy=".6em">1996</text><text x="213.63" y="121.95" dy=".6em">2004</text><text x="225.27" y="121.95" dy=".6em">2012</text></g><g clip-path="url(#a)"><path d="M25.38 12.91H233.1v108.04H25.38z" pointer-events="visible" fill="#222831" stroke="#000" stroke-opacity="0" class="guide background"/><g class="guide ygridlines xfixed" stroke-dasharray="0.5,0.5" stroke-width=".2" stroke="#575757" fill="none"><path d="M25.38 118.95H233.1M25.38 92.94H233.1M25.38 66.93H233.1M25.38 40.92H233.1M25.38 14.91H233.1"/></g><g class="guide xgridlines yfixed" stroke-dasharray="0.5,0.5" stroke-width=".2" stroke="#575757" fill="none"><path d="M27.38 12.91v108.04M39.02 12.91v108.04M50.66 12.91v108.04M62.3 12.91v108.04M73.94 12.91v108.04M85.58 12.91v108.04M97.22 12.91v108.04M108.87 12.91v108.04M120.51 12.91v108.04M132.15 12.91v108.04M143.79 12.91v108.04M155.43 12.91v108.04M167.07 12.91v108.04M178.71 12.91v108.04M190.35 12.91v108.04M201.99 12.91v108.04M213.63 12.91v108.04M225.27 12.91v108.04"/></g><g class="plotpanel"><g class="geometry"><use xlink:href="#b" x="33.2" y="65.62" stroke="#B3867B" fill="#F00" class="color_Republican"/><use xlink:href="#b" x="39.02" y="62.51" stroke="#B3867B" fill="#F00" class="color_Republican"/><use xlink:href="#b" x="44.84" y="61.5" stroke="#B3867B" fill="#F00" class="color_Republican"/><use xlink:href="#b" x="50.66" y="76.16" stroke="#B3867B" fill="#F00" class="color_Republican"/><use xlink:href="#b" x="56.48" y="104.53" stroke="#B3867B" fill="#F00" class="color_Republican"/><use xlink:href="#b" x="62.3" y="75.22" stroke="#B3867B" fill="#F00" class="color_Republican"/><use xlink:href="#b" x="68.12" y="61.45" stroke="#B3867B" fill="#F00" class="color_Republican"/><use xlink:href="#b" x="73.94" y="70.18" stroke="#B3867B" fill="#F00" class="color_Republican"/><use xlink:href="#b" x="79.76" y="96.19" stroke="#B3867B" fill="#F00" class="color_Republican"/><use xlink:href="#b" x="85.58" y="82.79" stroke="#B3867B" fill="#F00" class="color_Republican"/><use xlink:href="#b" x="91.4" y="57.23" stroke="#B3867B" fill="#F00" class="color_Republican"/><use xlink:href="#b" x="97.22" y="59.62" stroke="#B3867B" fill="#F00" class="color_Republican"/><use xlink:href="#b" x="103.05" y="51.61" stroke="#B3867B" fill="#F00" class="color_Republican"/><use xlink:href="#b" x="108.87" y="75.85" stroke="#B3867B" fill="#F00" class="color_Republican"/><use xlink:href="#b" x="114.69" y="80.36" stroke="#B3867B" fill="#F00" class="color_Republican"/><use xlink:href="#b" x="120.51" y="65.97" stroke="#B3867B" fill="#F00" class="color_Republican"/><use xlink:href="#b" x="126.33" y="63.59" stroke="#B3867B" fill="#F00" class="color_Republican"/><use xlink:href="#b" x="132.15" y="70.55" stroke="#B3867B" fill="#F00" class="color_Republican"/><use xlink:href="#b" x="137.97" y="56.24" stroke="#B3867B" fill="#F00" class="color_Republican"/><use xlink:href="#b" x="143.79" y="57.06" stroke="#B3867B" fill="#F00" class="color_Republican"/><use xlink:href="#b" x="149.61" y="62.11" stroke="#B3867B" fill="#F00" class="color_Republican"/><use xlink:href="#b" x="155.43" y="79.21" stroke="#B3867B" fill="#F00" class="color_Republican"/><use xlink:href="#b" x="161.25" y="66.45" stroke="#B3867B" fill="#F00" class="color_Republican"/><use xlink:href="#b" x="167.07" y="53.82" stroke="#B3867B" fill="#F00" class="color_Republican"/><use xlink:href="#b" x="172.89" y="62.72" stroke="#B3867B" fill="#F00" class="color_Republican"/><use xlink:href="#b" x="178.71" y="61.66" stroke="#B3867B" fill="#F00" class="color_Republican"/><use xlink:href="#b" x="184.53" y="52.95" stroke="#B3867B" fill="#F00" class="color_Republican"/><use xlink:href="#b" x="190.35" y="63.75" stroke="#B3867B" fill="#F00" class="color_Republican"/><use xlink:href="#b" x="196.17" y="81.63" stroke="#B3867B" fill="#F00" class="color_Republican"/><use xlink:href="#b" x="201.99" y="71.31" stroke="#B3867B" fill="#F00" class="color_Republican"/><use xlink:href="#b" x="207.81" y="66.15" stroke="#B3867B" fill="#F00" class="color_Republican"/><use xlink:href="#b" x="213.63" y="65.17" stroke="#B3867B" fill="#F00" class="color_Republican"/><use xlink:href="#b" x="219.45" y="72.44" stroke="#B3867B" fill="#F00" class="color_Republican"/><use xlink:href="#b" x="225.27" y="71" stroke="#B3867B" fill="#F00" class="color_Republican"/><use xlink:href="#b" x="33.2" y="71.06" stroke="#988BAD" fill="#00F" class="color_Democratic"/><use xlink:href="#b" x="39.02" y="75.59" stroke="#988BAD" fill="#00F" class="color_Democratic"/><use xlink:href="#b" x="44.84" y="76.46" stroke="#988BAD" fill="#00F" class="color_Democratic"/><use xlink:href="#b" x="50.66" y="118.95" stroke="#988BAD" fill="#00F" class="color_Democratic"/><use xlink:href="#b" x="56.48" y="30.57" stroke="#988BAD" fill="#00F" class="color_Democratic"/><use xlink:href="#b" x="62.3" y="61.28" stroke="#988BAD" fill="#00F" class="color_Democratic"/><use xlink:href="#b" x="68.12" y="76.21" stroke="#988BAD" fill="#00F" class="color_Democratic"/><use xlink:href="#b" x="73.94" y="69.02" stroke="#988BAD" fill="#00F" class="color_Democratic"/><use xlink:href="#b" x="79.76" y="74.42" stroke="#988BAD" fill="#00F" class="color_Democratic"/><use xlink:href="#b" x="85.58" y="55.75" stroke="#988BAD" fill="#00F" class="color_Democratic"/><use xlink:href="#b" x="91.4" y="81.57" stroke="#988BAD" fill="#00F" class="color_Democratic"/><use xlink:href="#b" x="97.22" y="96.08" stroke="#988BAD" fill="#00F" class="color_Democratic"/><use xlink:href="#b" x="103.05" y="83.64" stroke="#988BAD" fill="#00F" class="color_Democratic"/><use xlink:href="#b" x="108.87" y="61.92" stroke="#988BAD" fill="#00F" class="color_Democratic"/><use xlink:href="#b" x="114.69" y="56.14" stroke="#988BAD" fill="#00F" class="color_Democratic"/><use xlink:href="#b" x="120.51" y="68.63" stroke="#988BAD" fill="#00F" class="color_Democratic"/><use xlink:href="#b" x="126.33" y="70.68" stroke="#988BAD" fill="#00F" class="color_Democratic"/><use xlink:href="#b" x="132.15" y="64.98" stroke="#988BAD" fill="#00F" class="color_Democratic"/><use xlink:href="#b" x="137.97" y="78.42" stroke="#988BAD" fill="#00F" class="color_Democratic"/><use xlink:href="#b" x="143.79" y="77.53" stroke="#988BAD" fill="#00F" class="color_Democratic"/><use xlink:href="#b" x="149.61" y="72.23" stroke="#988BAD" fill="#00F" class="color_Democratic"/><use xlink:href="#b" x="155.43" y="55.21" stroke="#988BAD" fill="#00F" class="color_Democratic"/><use xlink:href="#b" x="161.25" y="75.96" stroke="#988BAD" fill="#00F" class="color_Democratic"/><use xlink:href="#b" x="167.07" y="82.96" stroke="#988BAD" fill="#00F" class="color_Democratic"/><use xlink:href="#b" x="172.89" y="74.65" stroke="#988BAD" fill="#00F" class="color_Democratic"/><use xlink:href="#b" x="178.71" y="86.63" stroke="#988BAD" fill="#00F" class="color_Democratic"/><use xlink:href="#b" x="184.53" y="82.41" stroke="#988BAD" fill="#00F" class="color_Democratic"/><use xlink:href="#b" x="190.35" y="71.84" stroke="#988BAD" fill="#00F" class="color_Democratic"/><use xlink:href="#b" x="196.17" y="77.2" stroke="#988BAD" fill="#00F" class="color_Democratic"/><use xlink:href="#b" x="201.99" y="72.73" stroke="#988BAD" fill="#00F" class="color_Democratic"/><use xlink:href="#b" x="207.81" y="74.85" stroke="#988BAD" fill="#00F" class="color_Democratic"/><use xlink:href="#b" x="213.63" y="70.03" stroke="#988BAD" fill="#00F" class="color_Democratic"/><use xlink:href="#b" x="219.45" y="63.12" stroke="#988BAD" fill="#00F" class="color_Democratic"/><use xlink:href="#b" x="225.27" y="65.43" stroke="#988BAD" fill="#00F" class="color_Democratic"/></g><g fill-opacity="0"><path fill="none" d="M33.2 71.06l5.82 4.53 5.82.87 5.82 42.49 5.82-88.38 5.82 30.71 5.82 14.93 5.82-7.19 5.82 5.4 5.82-18.67 5.82 25.82 5.82 14.51 5.83-12.44 5.82-21.72 5.82-5.78 5.82 12.49 5.82 2.05 5.82-5.7 5.82 13.44 5.82-.89 5.82-5.3 5.82-17.02 5.82 20.75 5.82 7 5.82-8.31 5.82 11.98 5.82-4.22 5.82-10.57 5.82 5.36 5.82-4.47 5.82 2.12 5.82-4.82 5.82-6.91 5.82 2.31" stroke="#00F" class="geometry color_Democratic"/><path fill="none" d="M33.2 65.62l5.82-3.11 5.82-1.01 5.82 14.66 5.82 28.37 5.82-29.31 5.82-13.77 5.82 8.73 5.82 26.01 5.82-13.4 5.82-25.56 5.82 2.39 5.83-8.01 5.82 24.24 5.82 4.51 5.82-14.39 5.82-2.38 5.82 6.96 5.82-14.31 5.82.82 5.82 5.05 5.82 17.1 5.82-12.76 5.82-12.63 5.82 8.9 5.82-1.06 5.82-8.71 5.82 10.8 5.82 17.88 5.82-10.32 5.82-5.16 5.82-.98 5.82 7.27 5.82-1.44" stroke="#F00" class="geometry color_Republican"/></g></g></g><g class="guide ylabels" font-size="4.76" font-family="'PT Sans Caption','Helvetica Neue','Helvetica',sans-serif" fill="#A1A1A1" text-anchor="end"><text x="24.38" y="118.95" dy=".35em">0</text><text x="24.38" y="92.94" dy=".35em">25</text><text x="24.38" y="66.93" dy=".35em">50</text><text x="24.38" y="40.92" dy=".35em">75</text><text x="24.38" y="14.91" dy=".35em">100</text></g><text x="9.95" y="64.93" text-anchor="middle" dy=".35em" transform="rotate(-90 9.95 66.93)" font-size="6.35" font-family="'PT Sans','Helvetica Neue','Helvetica',sans-serif" fill="#A1A1A1" stroke="#000" stroke-opacity="0">Popular Vote (%)</text><text x="129.24" y="5" text-anchor="middle" dy=".6em" font-size="6.35" font-family="'PT Sans','Helvetica Neue','Helvetica',sans-serif" fill="#A1A1A1" stroke="#000" stroke-opacity="0">Colorado</text></g><defs><clipPath id="a"><path d="M25.38 12.91H233.1v108.04H25.38"/></clipPath><circle r=".9" id="b"/></defs></svg>