<?xml version="1.0" encoding="UTF-8"?>
<svg xmlns="http://www.w3.org/2000/svg"
     xmlns:xlink="http://www.w3.org/1999/xlink"
     xmlns:gadfly="http://www.gadflyjl.org/ns"
     version="1.2"
     width="320mm" height="160mm" viewBox="0 0 320 160"
     stroke="none"
     fill="#000000"
     stroke-width="0.3"
     font-size="3.88"
>
<g class="plotroot xscalable yscalable" id="img-22ec5a37-1">
  <g class="guide colorkey" id="img-22ec5a37-2">
    <g class="color_Democratic" id="img-22ec5a37-3">
      <g fill="#4C404B" font-size="4.76" font-family="'PT Sans','Helvetica Neue','Helvetica',sans-serif" id="img-22ec5a37-4">
        <text x="57.56" y="150.05" dy="0.35em">Democratic</text>
      </g>
      <g fill="#0000FF" stroke="#000000" stroke-opacity="0.000" id="img-22ec5a37-5">
        <rect x="53.84" y="148.69" width="2.72" height="2.72"/>
      </g>
    </g>
    <g class="color_Republican" id="img-22ec5a37-6">
      <g fill="#4C404B" font-size="4.76" font-family="'PT Sans','Helvetica Neue','Helvetica',sans-serif" id="img-22ec5a37-7">
        <text x="30.1" y="150.05" dy="0.35em">Republican</text>
      </g>
      <g fill="#FF0000" stroke="#000000" stroke-opacity="0.000" id="img-22ec5a37-8">
        <rect x="26.38" y="148.69" width="2.72" height="2.72"/>
      </g>
    </g>
    <g fill="#362A35" font-size="6.35" font-family="'PT Sans','Helvetica Neue','Helvetica',sans-serif" stroke="#000000" stroke-opacity="0.000" id="img-22ec5a37-9">
      <text x="26.38" y="145.57">Party</text>
    </g>
  </g>
  <g font-size="6.35" font-family="'PT Sans','Helvetica Neue','Helvetica',sans-serif" fill="#564A55" stroke="#000000" stroke-opacity="0.000" id="img-22ec5a37-10">
    <text x="170.19" y="130.75" text-anchor="middle" dy="0.6em">Year</text>
  </g>
  <g class="guide xlabels" font-size="4.76" font-family="'PT Sans Caption','Helvetica Neue','Helvetica',sans-serif" fill="#6C606B" id="img-22ec5a37-11">
    <text x="27.38" y="122.24" text-anchor="middle" dy="0.6em">1876</text>
    <text x="43.7" y="122.24" text-anchor="middle" dy="0.6em">1884</text>
    <text x="60.02" y="122.24" text-anchor="middle" dy="0.6em">1892</text>
    <text x="76.34" y="122.24" text-anchor="middle" dy="0.6em">1900</text>
    <text x="92.66" y="122.24" text-anchor="middle" dy="0.6em">1908</text>
    <text x="108.99" y="122.24" text-anchor="middle" dy="0.6em">1916</text>
    <text x="125.31" y="122.24" text-anchor="middle" dy="0.6em">1924</text>
    <text x="141.63" y="122.24" text-anchor="middle" dy="0.6em">1932</text>
    <text x="157.95" y="122.24" text-anchor="middle" dy="0.6em">1940</text>
    <text x="174.27" y="122.24" text-anchor="middle" dy="0.6em">1948</text>
    <text x="190.59" y="122.24" text-anchor="middle" dy="0.6em">1956</text>
    <text x="206.91" y="122.24" text-anchor="middle" dy="0.6em">1964</text>
    <text x="223.23" y="122.24" text-anchor="middle" dy="0.6em">1972</text>
    <text x="239.55" y="122.24" text-anchor="middle" dy="0.6em">1980</text>
    <text x="255.88" y="122.24" text-anchor="middle" dy="0.6em">1988</text>
    <text x="272.2" y="122.24" text-anchor="middle" dy="0.6em">1996</text>
    <text x="288.52" y="122.24" text-anchor="middle" dy="0.6em">2004</text>
    <text x="304.84" y="122.24" text-anchor="middle" dy="0.6em">2012</text>
  </g>
<g clip-path="url(#img-22ec5a37-12)">
  <g id="img-22ec5a37-13">
    <g pointer-events="visible" opacity="1" fill="#000000" fill-opacity="0.000" stroke="#000000" stroke-opacity="0.000" class="guide background" id="img-22ec5a37-14">
      <rect x="25.38" y="14.91" width="289.62" height="106.33"/>
    </g>
    <g class="guide ygridlines xfixed" stroke-dasharray="0.5,0.5" stroke-width="0.26" stroke="#000000" id="img-22ec5a37-15">
      <path fill="none" d="M25.38,119.24 L 315 119.24"/>
      <path fill="none" d="M25.38,93.66 L 315 93.66"/>
      <path fill="none" d="M25.38,68.07 L 315 68.07"/>
      <path fill="none" d="M25.38,42.49 L 315 42.49"/>
      <path fill="none" d="M25.38,16.91 L 315 16.91"/>
    </g>
    <g class="guide xgridlines yfixed" stroke-dasharray="0.5,0.5" stroke-width="0.26" stroke="#000000" id="img-22ec5a37-16">
      <path fill="none" d="M27.38,14.91 L 27.38 121.24"/>
      <path fill="none" d="M43.7,14.91 L 43.7 121.24"/>
      <path fill="none" d="M60.02,14.91 L 60.02 121.24"/>
      <path fill="none" d="M76.34,14.91 L 76.34 121.24"/>
      <path fill="none" d="M92.66,14.91 L 92.66 121.24"/>
      <path fill="none" d="M108.99,14.91 L 108.99 121.24"/>
      <path fill="none" d="M125.31,14.91 L 125.31 121.24"/>
      <path fill="none" d="M141.63,14.91 L 141.63 121.24"/>
      <path fill="none" d="M157.95,14.91 L 157.95 121.24"/>
      <path fill="none" d="M174.27,14.91 L 174.27 121.24"/>
      <path fill="none" d="M190.59,14.91 L 190.59 121.24"/>
      <path fill="none" d="M206.91,14.91 L 206.91 121.24"/>
      <path fill="none" d="M223.23,14.91 L 223.23 121.24"/>
      <path fill="none" d="M239.55,14.91 L 239.55 121.24"/>
      <path fill="none" d="M255.88,14.91 L 255.88 121.24"/>
      <path fill="none" d="M272.2,14.91 L 272.2 121.24"/>
      <path fill="none" d="M288.52,14.91 L 288.52 121.24"/>
      <path fill="none" d="M304.84,14.91 L 304.84 121.24"/>
    </g>
    <g class="plotpanel" id="img-22ec5a37-17">
      <g class="geometry" id="img-22ec5a37-18">
        <g stroke-width="0.3" id="img-22ec5a37-19">
          <use xlink:href="#img-22ec5a37-20" x="35.54" y="66.78" class="color_Republican" fill="#FF0000" stroke="#FFFFFF"/>
          <use xlink:href="#img-22ec5a37-20" x="43.7" y="63.73" class="color_Republican" fill="#FF0000" stroke="#FFFFFF"/>
          <use xlink:href="#img-22ec5a37-20" x="51.86" y="62.73" class="color_Republican" fill="#FF0000" stroke="#FFFFFF"/>
          <use xlink:href="#img-22ec5a37-20" x="60.02" y="77.15" class="color_Republican" fill="#FF0000" stroke="#FFFFFF"/>
          <use xlink:href="#img-22ec5a37-20" x="68.18" y="105.06" class="color_Republican" fill="#FF0000" stroke="#FFFFFF"/>
          <use xlink:href="#img-22ec5a37-20" x="76.34" y="76.22" class="color_Republican" fill="#FF0000" stroke="#FFFFFF"/>
          <use xlink:href="#img-22ec5a37-20" x="84.5" y="62.69" class="color_Republican" fill="#FF0000" stroke="#FFFFFF"/>
          <use xlink:href="#img-22ec5a37-20" x="92.66" y="71.27" class="color_Republican" fill="#FF0000" stroke="#FFFFFF"/>
          <use xlink:href="#img-22ec5a37-20" x="100.82" y="96.85" class="color_Republican" fill="#FF0000" stroke="#FFFFFF"/>
          <use xlink:href="#img-22ec5a37-20" x="108.99" y="83.67" class="color_Republican" fill="#FF0000" stroke="#FFFFFF"/>
          <use xlink:href="#img-22ec5a37-20" x="117.15" y="58.54" class="color_Republican" fill="#FF0000" stroke="#FFFFFF"/>
          <use xlink:href="#img-22ec5a37-20" x="125.31" y="60.89" class="color_Republican" fill="#FF0000" stroke="#FFFFFF"/>
          <use xlink:href="#img-22ec5a37-20" x="133.47" y="53.01" class="color_Republican" fill="#FF0000" stroke="#FFFFFF"/>
          <use xlink:href="#img-22ec5a37-20" x="141.63" y="76.85" class="color_Republican" fill="#FF0000" stroke="#FFFFFF"/>
          <use xlink:href="#img-22ec5a37-20" x="149.79" y="81.28" class="color_Republican" fill="#FF0000" stroke="#FFFFFF"/>
          <use xlink:href="#img-22ec5a37-20" x="157.95" y="67.13" class="color_Republican" fill="#FF0000" stroke="#FFFFFF"/>
          <use xlink:href="#img-22ec5a37-20" x="166.11" y="64.79" class="color_Republican" fill="#FF0000" stroke="#FFFFFF"/>
          <use xlink:href="#img-22ec5a37-20" x="174.27" y="71.63" class="color_Republican" fill="#FF0000" stroke="#FFFFFF"/>
          <use xlink:href="#img-22ec5a37-20" x="182.43" y="57.56" class="color_Republican" fill="#FF0000" stroke="#FFFFFF"/>
          <use xlink:href="#img-22ec5a37-20" x="190.59" y="58.36" class="color_Republican" fill="#FF0000" stroke="#FFFFFF"/>
          <use xlink:href="#img-22ec5a37-20" x="198.75" y="63.33" class="color_Republican" fill="#FF0000" stroke="#FFFFFF"/>
          <use xlink:href="#img-22ec5a37-20" x="206.91" y="80.15" class="color_Republican" fill="#FF0000" stroke="#FFFFFF"/>
          <use xlink:href="#img-22ec5a37-20" x="215.07" y="67.6" class="color_Republican" fill="#FF0000" stroke="#FFFFFF"/>
          <use xlink:href="#img-22ec5a37-20" x="223.23" y="55.17" class="color_Republican" fill="#FF0000" stroke="#FFFFFF"/>
          <use xlink:href="#img-22ec5a37-20" x="231.39" y="63.93" class="color_Republican" fill="#FF0000" stroke="#FFFFFF"/>
          <use xlink:href="#img-22ec5a37-20" x="239.55" y="62.89" class="color_Republican" fill="#FF0000" stroke="#FFFFFF"/>
          <use xlink:href="#img-22ec5a37-20" x="247.72" y="54.32" class="color_Republican" fill="#FF0000" stroke="#FFFFFF"/>
          <use xlink:href="#img-22ec5a37-20" x="255.88" y="64.94" class="color_Republican" fill="#FF0000" stroke="#FFFFFF"/>
          <use xlink:href="#img-22ec5a37-20" x="264.04" y="82.53" class="color_Republican" fill="#FF0000" stroke="#FFFFFF"/>
          <use xlink:href="#img-22ec5a37-20" x="272.2" y="72.38" class="color_Republican" fill="#FF0000" stroke="#FFFFFF"/>
          <use xlink:href="#img-22ec5a37-20" x="280.36" y="67.31" class="color_Republican" fill="#FF0000" stroke="#FFFFFF"/>
          <use xlink:href="#img-22ec5a37-20" x="288.52" y="66.34" class="color_Republican" fill="#FF0000" stroke="#FFFFFF"/>
          <use xlink:href="#img-22ec5a37-20" x="296.68" y="73.49" class="color_Republican" fill="#FF0000" stroke="#FFFFFF"/>
          <use xlink:href="#img-22ec5a37-20" x="304.84" y="72.08" class="color_Republican" fill="#FF0000" stroke="#FFFFFF"/>
          <use xlink:href="#img-22ec5a37-20" x="35.54" y="72.14" class="color_Democratic" fill="#0000FF" stroke="#FFFFFF"/>
          <use xlink:href="#img-22ec5a37-20" x="43.7" y="76.59" class="color_Democratic" fill="#0000FF" stroke="#FFFFFF"/>
          <use xlink:href="#img-22ec5a37-20" x="51.86" y="77.45" class="color_Democratic" fill="#0000FF" stroke="#FFFFFF"/>
          <use xlink:href="#img-22ec5a37-20" x="60.02" y="119.24" class="color_Democratic" fill="#0000FF" stroke="#FFFFFF"/>
          <use xlink:href="#img-22ec5a37-20" x="68.18" y="32.31" class="color_Democratic" fill="#0000FF" stroke="#FFFFFF"/>
          <use xlink:href="#img-22ec5a37-20" x="76.34" y="62.51" class="color_Democratic" fill="#0000FF" stroke="#FFFFFF"/>
          <use xlink:href="#img-22ec5a37-20" x="84.5" y="77.2" class="color_Democratic" fill="#0000FF" stroke="#FFFFFF"/>
          <use xlink:href="#img-22ec5a37-20" x="92.66" y="70.12" class="color_Democratic" fill="#0000FF" stroke="#FFFFFF"/>
          <use xlink:href="#img-22ec5a37-20" x="100.82" y="75.44" class="color_Democratic" fill="#0000FF" stroke="#FFFFFF"/>
          <use xlink:href="#img-22ec5a37-20" x="108.99" y="57.08" class="color_Democratic" fill="#0000FF" stroke="#FFFFFF"/>
          <use xlink:href="#img-22ec5a37-20" x="117.15" y="82.47" class="color_Democratic" fill="#0000FF" stroke="#FFFFFF"/>
          <use xlink:href="#img-22ec5a37-20" x="125.31" y="96.74" class="color_Democratic" fill="#0000FF" stroke="#FFFFFF"/>
          <use xlink:href="#img-22ec5a37-20" x="133.47" y="84.51" class="color_Democratic" fill="#0000FF" stroke="#FFFFFF"/>
          <use xlink:href="#img-22ec5a37-20" x="141.63" y="63.15" class="color_Democratic" fill="#0000FF" stroke="#FFFFFF"/>
          <use xlink:href="#img-22ec5a37-20" x="149.79" y="57.46" class="color_Democratic" fill="#0000FF" stroke="#FFFFFF"/>
          <use xlink:href="#img-22ec5a37-20" x="157.95" y="69.74" class="color_Democratic" fill="#0000FF" stroke="#FFFFFF"/>
          <use xlink:href="#img-22ec5a37-20" x="166.11" y="71.76" class="color_Democratic" fill="#0000FF" stroke="#FFFFFF"/>
          <use xlink:href="#img-22ec5a37-20" x="174.27" y="66.15" class="color_Democratic" fill="#0000FF" stroke="#FFFFFF"/>
          <use xlink:href="#img-22ec5a37-20" x="182.43" y="79.37" class="color_Democratic" fill="#0000FF" stroke="#FFFFFF"/>
          <use xlink:href="#img-22ec5a37-20" x="190.59" y="78.5" class="color_Democratic" fill="#0000FF" stroke="#FFFFFF"/>
          <use xlink:href="#img-22ec5a37-20" x="198.75" y="73.29" class="color_Democratic" fill="#0000FF" stroke="#FFFFFF"/>
          <use xlink:href="#img-22ec5a37-20" x="206.91" y="56.55" class="color_Democratic" fill="#0000FF" stroke="#FFFFFF"/>
          <use xlink:href="#img-22ec5a37-20" x="215.07" y="76.96" class="color_Democratic" fill="#0000FF" stroke="#FFFFFF"/>
          <use xlink:href="#img-22ec5a37-20" x="223.23" y="83.84" class="color_Democratic" fill="#0000FF" stroke="#FFFFFF"/>
          <use xlink:href="#img-22ec5a37-20" x="231.39" y="75.67" class="color_Democratic" fill="#0000FF" stroke="#FFFFFF"/>
          <use xlink:href="#img-22ec5a37-20" x="239.55" y="87.45" class="color_Democratic" fill="#0000FF" stroke="#FFFFFF"/>
          <use xlink:href="#img-22ec5a37-20" x="247.72" y="83.3" class="color_Democratic" fill="#0000FF" stroke="#FFFFFF"/>
          <use xlink:href="#img-22ec5a37-20" x="255.88" y="72.9" class="color_Democratic" fill="#0000FF" stroke="#FFFFFF"/>
          <use xlink:href="#img-22ec5a37-20" x="264.04" y="78.18" class="color_Democratic" fill="#0000FF" stroke="#FFFFFF"/>
          <use xlink:href="#img-22ec5a37-20" x="272.2" y="73.78" class="color_Democratic" fill="#0000FF" stroke="#FFFFFF"/>
          <use xlink:href="#img-22ec5a37-20" x="280.36" y="75.86" class="color_Democratic" fill="#0000FF" stroke="#FFFFFF"/>
          <use xlink:href="#img-22ec5a37-20" x="288.52" y="71.12" class="color_Democratic" fill="#0000FF" stroke="#FFFFFF"/>
          <use xlink:href="#img-22ec5a37-20" x="296.68" y="64.33" class="color_Democratic" fill="#0000FF" stroke="#FFFFFF"/>
          <use xlink:href="#img-22ec5a37-20" x="304.84" y="66.59" class="color_Democratic" fill="#0000FF" stroke="#FFFFFF"/>
        </g>
      </g>
      <g stroke-width="0.53" fill="#000000" fill-opacity="0.000" stroke-dasharray="none" id="img-22ec5a37-21">
        <path fill="none" d="M35.54,72.14 L 43.7 76.59 51.86 77.45 60.02 119.24 68.18 32.31 76.34 62.51 84.5 77.2 92.66 70.12 100.82 75.44 108.99 57.08 117.15 82.47 125.31 96.74 133.47 84.51 141.63 63.15 149.79 57.46 157.95 69.74 166.11 71.76 174.27 66.15 182.43 79.37 190.59 78.5 198.75 73.29 206.91 56.55 215.07 76.96 223.23 83.84 231.39 75.67 239.55 87.45 247.72 83.3 255.88 72.9 264.04 78.18 272.2 73.78 280.36 75.86 288.52 71.12 296.68 64.33 304.84 66.59" class="geometry color_Democratic" stroke="#0000FF"/>
        <path fill="none" d="M35.54,66.78 L 43.7 63.73 51.86 62.73 60.02 77.15 68.18 105.06 76.34 76.22 84.5 62.69 92.66 71.27 100.82 96.85 108.99 83.67 117.15 58.54 125.31 60.89 133.47 53.01 141.63 76.85 149.79 81.28 157.95 67.13 166.11 64.79 174.27 71.63 182.43 57.56 190.59 58.36 198.75 63.33 206.91 80.15 215.07 67.6 223.23 55.17 231.39 63.93 239.55 62.89 247.72 54.32 255.88 64.94 264.04 82.53 272.2 72.38 280.36 67.31 288.52 66.34 296.68 73.49 304.84 72.08" class="geometry color_Republican" stroke="#FF0000"/>
      </g>
    </g>
  </g>
</g>
  <g class="guide ylabels" font-size="4.76" font-family="'PT Sans Caption','Helvetica Neue','Helvetica',sans-serif" fill="#6C606B" id="img-22ec5a37-22">
    <text x="24.38" y="119.24" text-anchor="end" dy="0.35em">0</text>
    <text x="24.38" y="93.66" text-anchor="end" dy="0.35em">25</text>
    <text x="24.38" y="68.07" text-anchor="end" dy="0.35em">50</text>
    <text x="24.38" y="42.49" text-anchor="end" dy="0.35em">75</text>
    <text x="24.38" y="16.91" text-anchor="end" dy="0.35em">100</text>
  </g>
  <g font-size="6.35" font-family="'PT Sans','Helvetica Neue','Helvetica',sans-serif" fill="#564A55" stroke="#000000" stroke-opacity="0.000" id="img-22ec5a37-23">
    <text x="9.95" y="66.07" text-anchor="middle" dy="0.35em" transform="rotate(-90, 9.95, 68.07)">Popular Vote (%)</text>
  </g>
  <g font-size="6.35" font-family="'PT Sans','Helvetica Neue','Helvetica',sans-serif" fill="#564A55" stroke="#000000" stroke-opacity="0.000" id="img-22ec5a37-24">
    <text x="170.19" y="12.91" text-anchor="middle">Colorado</text>
  </g>
</g>
<defs>
  <clipPath id="img-22ec5a37-12">
  <path d="M25.38,14.91 L 315 14.91 315 121.24 25.38 121.24" />
</clipPath>
  <g id="img-22ec5a37-20">
    <circle cx="0" cy="0" r="0.9"/>
  </g>
</defs>
</svg>
