<?xml version="1.0" encoding="UTF-8"?>
<svg xmlns="http://www.w3.org/2000/svg"
     xmlns:xlink="http://www.w3.org/1999/xlink"
     xmlns:gadfly="http://www.gadflyjl.org/ns"
     version="1.2"
     width="320mm" height="160mm" viewBox="0 0 320 160"
     stroke="none"
     fill="#000000"
     stroke-width="0.3"
     font-size="3.88"
>
<g class="plotroot xscalable yscalable" id="img-ba22d8e7-1">
  <g class="guide colorkey" id="img-ba22d8e7-2">
    <g class="color_Democratic" id="img-ba22d8e7-3">
      <g fill="#4C404B" font-size="4.76" font-family="'PT Sans','Helvetica Neue','Helvetica',sans-serif" id="img-ba22d8e7-4">
        <text x="61.86" y="150" dy="0.35em">Democratic</text>
      </g>
      <g fill="#0000FF" stroke="#000000" stroke-opacity="0.000" id="img-ba22d8e7-5">
        <rect x="57.89" y="148.52" width="2.97" height="2.97"/>
      </g>
    </g>
    <g class="color_Republican" id="img-ba22d8e7-6">
      <g fill="#4C404B" font-size="4.76" font-family="'PT Sans','Helvetica Neue','Helvetica',sans-serif" id="img-ba22d8e7-7">
        <text x="30.79" y="150" dy="0.35em">Republican</text>
      </g>
      <g fill="#FF0000" stroke="#000000" stroke-opacity="0.000" id="img-ba22d8e7-8">
        <rect x="26.82" y="148.52" width="2.97" height="2.97"/>
      </g>
    </g>
    <g fill="#362A35" font-size="6.35" font-family="'PT Sans','Helvetica Neue','Helvetica',sans-serif" stroke="#000000" stroke-opacity="0.000" id="img-ba22d8e7-9">
      <text x="26.82" y="145.06">Party</text>
    </g>
  </g>
  <g font-size="6.35" font-family="'PT Sans','Helvetica Neue','Helvetica',sans-serif" fill="#564A55" stroke="#000000" stroke-opacity="0.000" id="img-ba22d8e7-10">
    <text x="170.41" y="131.48" text-anchor="middle" dy="0.6em">Year</text>
  </g>
  <g class="guide xlabels" font-size="4.76" font-family="'PT Sans Caption','Helvetica Neue','Helvetica',sans-serif" fill="#6C606B" id="img-ba22d8e7-11">
    <text x="27.82" y="123.95" text-anchor="middle" dy="0.6em">1824</text>
    <text x="45.64" y="123.95" text-anchor="middle" dy="0.6em">1836</text>
    <text x="63.46" y="123.95" text-anchor="middle" dy="0.6em">1848</text>
    <text x="81.29" y="123.95" text-anchor="middle" dy="0.6em">1860</text>
    <text x="99.11" y="123.95" text-anchor="middle" dy="0.6em">1872</text>
    <text x="116.94" y="123.95" text-anchor="middle" dy="0.6em">1884</text>
    <text x="134.76" y="123.95" text-anchor="middle" dy="0.6em">1896</text>
    <text x="152.58" y="123.95" text-anchor="middle" dy="0.6em">1908</text>
    <text x="170.41" y="123.95" text-anchor="middle" dy="0.6em">1920</text>
    <text x="188.23" y="123.95" text-anchor="middle" dy="0.6em">1932</text>
    <text x="206.06" y="123.95" text-anchor="middle" dy="0.6em">1944</text>
    <text x="223.88" y="123.95" text-anchor="middle" dy="0.6em">1956</text>
    <text x="241.7" y="123.95" text-anchor="middle" dy="0.6em">1968</text>
    <text x="259.53" y="123.95" text-anchor="middle" dy="0.6em">1980</text>
    <text x="277.35" y="123.95" text-anchor="middle" dy="0.6em">1992</text>
    <text x="295.18" y="123.95" text-anchor="middle" dy="0.6em">2004</text>
    <text x="313" y="123.95" text-anchor="middle" dy="0.6em">2016</text>
  </g>
<g clip-path="url(#img-ba22d8e7-12)">
  <g id="img-ba22d8e7-13">
    <g pointer-events="visible" opacity="1" fill="#000000" fill-opacity="0.000" stroke="#000000" stroke-opacity="0.000" class="guide background" id="img-ba22d8e7-14">
      <rect x="25.82" y="13.94" width="289.18" height="109.01"/>
    </g>
    <g class="guide ygridlines xfixed" stroke-dasharray="0.5,0.5" stroke-width="0.26" stroke="#000000" id="img-ba22d8e7-15">
      <path fill="none" d="M25.82,120.95 L 315 120.95"/>
      <path fill="none" d="M25.82,94.7 L 315 94.7"/>
      <path fill="none" d="M25.82,68.44 L 315 68.44"/>
      <path fill="none" d="M25.82,42.19 L 315 42.19"/>
      <path fill="none" d="M25.82,15.94 L 315 15.94"/>
    </g>
    <g class="guide xgridlines yfixed" stroke-dasharray="0.5,0.5" stroke-width="0.26" stroke="#000000" id="img-ba22d8e7-16">
      <path fill="none" d="M27.82,13.94 L 27.82 122.95"/>
      <path fill="none" d="M45.64,13.94 L 45.64 122.95"/>
      <path fill="none" d="M63.46,13.94 L 63.46 122.95"/>
      <path fill="none" d="M81.29,13.94 L 81.29 122.95"/>
      <path fill="none" d="M99.11,13.94 L 99.11 122.95"/>
      <path fill="none" d="M116.94,13.94 L 116.94 122.95"/>
      <path fill="none" d="M134.76,13.94 L 134.76 122.95"/>
      <path fill="none" d="M152.58,13.94 L 152.58 122.95"/>
      <path fill="none" d="M170.41,13.94 L 170.41 122.95"/>
      <path fill="none" d="M188.23,13.94 L 188.23 122.95"/>
      <path fill="none" d="M206.06,13.94 L 206.06 122.95"/>
      <path fill="none" d="M223.88,13.94 L 223.88 122.95"/>
      <path fill="none" d="M241.7,13.94 L 241.7 122.95"/>
      <path fill="none" d="M259.53,13.94 L 259.53 122.95"/>
      <path fill="none" d="M277.35,13.94 L 277.35 122.95"/>
      <path fill="none" d="M295.18,13.94 L 295.18 122.95"/>
      <path fill="none" d="M313,13.94 L 313 122.95"/>
    </g>
    <g class="plotpanel" id="img-ba22d8e7-17">
      <g class="geometry" id="img-ba22d8e7-18">
        <g stroke-width="0.3" id="img-ba22d8e7-19">
          <use xlink:href="#img-ba22d8e7-20" x="81.29" y="64.4" fill="#FF0000" class="color_Republican" stroke="#FFFFFF"/>
          <use xlink:href="#img-ba22d8e7-20" x="87.23" y="66.99" fill="#FF0000" class="color_Republican" stroke="#FFFFFF"/>
          <use xlink:href="#img-ba22d8e7-20" x="93.17" y="66.88" fill="#FF0000" class="color_Republican" stroke="#FFFFFF"/>
          <use xlink:href="#img-ba22d8e7-20" x="99.11" y="65.92" fill="#FF0000" class="color_Republican" stroke="#FFFFFF"/>
          <use xlink:href="#img-ba22d8e7-20" x="105.05" y="70.19" fill="#FF0000" class="color_Republican" stroke="#FFFFFF"/>
          <use xlink:href="#img-ba22d8e7-20" x="111" y="67.91" fill="#FF0000" class="color_Republican" stroke="#FFFFFF"/>
          <use xlink:href="#img-ba22d8e7-20" x="116.94" y="70.53" fill="#FF0000" class="color_Republican" stroke="#FFFFFF"/>
          <use xlink:href="#img-ba22d8e7-20" x="122.88" y="70.08" fill="#FF0000" class="color_Republican" stroke="#FFFFFF"/>
          <use xlink:href="#img-ba22d8e7-20" x="128.82" y="71.8" fill="#FF0000" class="color_Republican" stroke="#FFFFFF"/>
          <use xlink:href="#img-ba22d8e7-20" x="134.76" y="54.54" fill="#FF0000" class="color_Republican" stroke="#FFFFFF"/>
          <use xlink:href="#img-ba22d8e7-20" x="140.7" y="61.17" fill="#FF0000" class="color_Republican" stroke="#FFFFFF"/>
          <use xlink:href="#img-ba22d8e7-20" x="146.64" y="59.91" fill="#FF0000" class="color_Republican" stroke="#FFFFFF"/>
          <use xlink:href="#img-ba22d8e7-20" x="152.58" y="58.54" fill="#FF0000" class="color_Republican" stroke="#FFFFFF"/>
          <use xlink:href="#img-ba22d8e7-20" x="158.53" y="83.27" fill="#FF0000" class="color_Republican" stroke="#FFFFFF"/>
          <use xlink:href="#img-ba22d8e7-20" x="164.47" y="68.65" fill="#FF0000" class="color_Republican" stroke="#FFFFFF"/>
          <use xlink:href="#img-ba22d8e7-20" x="170.41" y="55.09" fill="#FF0000" class="color_Republican" stroke="#FFFFFF"/>
          <use xlink:href="#img-ba22d8e7-20" x="176.35" y="56.33" fill="#FF0000" class="color_Republican" stroke="#FFFFFF"/>
          <use xlink:href="#img-ba22d8e7-20" x="182.29" y="64.63" fill="#FF0000" class="color_Republican" stroke="#FFFFFF"/>
          <use xlink:href="#img-ba22d8e7-20" x="188.23" y="69.98" fill="#FF0000" class="color_Republican" stroke="#FFFFFF"/>
          <use xlink:href="#img-ba22d8e7-20" x="194.17" y="78.58" fill="#FF0000" class="color_Republican" stroke="#FFFFFF"/>
          <use xlink:href="#img-ba22d8e7-20" x="200.11" y="72.33" fill="#FF0000" class="color_Republican" stroke="#FFFFFF"/>
          <use xlink:href="#img-ba22d8e7-20" x="206.06" y="71.66" fill="#FF0000" class="color_Republican" stroke="#FFFFFF"/>
          <use xlink:href="#img-ba22d8e7-20" x="212" y="68.92" fill="#FF0000" class="color_Republican" stroke="#FFFFFF"/>
          <use xlink:href="#img-ba22d8e7-20" x="217.94" y="62.46" fill="#FF0000" class="color_Republican" stroke="#FFFFFF"/>
          <use xlink:href="#img-ba22d8e7-20" x="223.88" y="54.04" fill="#FF0000" class="color_Republican" stroke="#FFFFFF"/>
          <use xlink:href="#img-ba22d8e7-20" x="229.82" y="72.36" fill="#FF0000" class="color_Republican" stroke="#FFFFFF"/>
          <use xlink:href="#img-ba22d8e7-20" x="235.76" y="87.26" fill="#FF0000" class="color_Republican" stroke="#FFFFFF"/>
          <use xlink:href="#img-ba22d8e7-20" x="241.7" y="74.41" fill="#FF0000" class="color_Republican" stroke="#FFFFFF"/>
          <use xlink:href="#img-ba22d8e7-20" x="247.65" y="59.45" fill="#FF0000" class="color_Republican" stroke="#FFFFFF"/>
          <use xlink:href="#img-ba22d8e7-20" x="253.59" y="66.28" fill="#FF0000" class="color_Republican" stroke="#FFFFFF"/>
          <use xlink:href="#img-ba22d8e7-20" x="259.53" y="70.38" fill="#FF0000" class="color_Republican" stroke="#FFFFFF"/>
          <use xlink:href="#img-ba22d8e7-20" x="265.47" y="57.17" fill="#FF0000" class="color_Republican" stroke="#FFFFFF"/>
          <use xlink:href="#img-ba22d8e7-20" x="271.41" y="66.37" fill="#FF0000" class="color_Republican" stroke="#FFFFFF"/>
          <use xlink:href="#img-ba22d8e7-20" x="277.35" y="83.38" fill="#FF0000" class="color_Republican" stroke="#FFFFFF"/>
          <use xlink:href="#img-ba22d8e7-20" x="283.29" y="84.52" fill="#FF0000" class="color_Republican" stroke="#FFFFFF"/>
          <use xlink:href="#img-ba22d8e7-20" x="289.23" y="80.58" fill="#FF0000" class="color_Republican" stroke="#FFFFFF"/>
          <use xlink:href="#img-ba22d8e7-20" x="295.18" y="74.8" fill="#FF0000" class="color_Republican" stroke="#FFFFFF"/>
          <use xlink:href="#img-ba22d8e7-20" x="301.12" y="80.81" fill="#FF0000" class="color_Republican" stroke="#FFFFFF"/>
          <use xlink:href="#img-ba22d8e7-20" x="307.06" y="78.18" fill="#FF0000" class="color_Republican" stroke="#FFFFFF"/>
          <use xlink:href="#img-ba22d8e7-20" x="33.76" y="96.85" fill="#0000FF" class="color_Democratic" stroke="#FFFFFF"/>
          <use xlink:href="#img-ba22d8e7-20" x="39.7" y="84.91" fill="#0000FF" class="color_Democratic" stroke="#FFFFFF"/>
          <use xlink:href="#img-ba22d8e7-20" x="45.64" y="67.76" fill="#0000FF" class="color_Democratic" stroke="#FFFFFF"/>
          <use xlink:href="#img-ba22d8e7-20" x="51.58" y="74.28" fill="#0000FF" class="color_Democratic" stroke="#FFFFFF"/>
          <use xlink:href="#img-ba22d8e7-20" x="57.52" y="72.45" fill="#0000FF" class="color_Democratic" stroke="#FFFFFF"/>
          <use xlink:href="#img-ba22d8e7-20" x="63.46" y="75.43" fill="#0000FF" class="color_Democratic" stroke="#FFFFFF"/>
          <use xlink:href="#img-ba22d8e7-20" x="69.41" y="68.67" fill="#0000FF" class="color_Democratic" stroke="#FFFFFF"/>
          <use xlink:href="#img-ba22d8e7-20" x="75.35" y="75.2" fill="#0000FF" class="color_Democratic" stroke="#FFFFFF"/>
          <use xlink:href="#img-ba22d8e7-20" x="81.29" y="98.37" fill="#0000FF" class="color_Democratic" stroke="#FFFFFF"/>
          <use xlink:href="#img-ba22d8e7-20" x="87.23" y="69.9" fill="#0000FF" class="color_Democratic" stroke="#FFFFFF"/>
          <use xlink:href="#img-ba22d8e7-20" x="93.17" y="70.01" fill="#0000FF" class="color_Democratic" stroke="#FFFFFF"/>
          <use xlink:href="#img-ba22d8e7-20" x="99.11" y="70.97" fill="#0000FF" class="color_Democratic" stroke="#FFFFFF"/>
          <use xlink:href="#img-ba22d8e7-20" x="105.05" y="67.71" fill="#0000FF" class="color_Democratic" stroke="#FFFFFF"/>
          <use xlink:href="#img-ba22d8e7-20" x="111" y="70.02" fill="#0000FF" class="color_Democratic" stroke="#FFFFFF"/>
          <use xlink:href="#img-ba22d8e7-20" x="116.94" y="69.55" fill="#0000FF" class="color_Democratic" stroke="#FFFFFF"/>
          <use xlink:href="#img-ba22d8e7-20" x="122.88" y="69.86" fill="#0000FF" class="color_Democratic" stroke="#FFFFFF"/>
          <use xlink:href="#img-ba22d8e7-20" x="128.82" y="68.38" fill="#0000FF" class="color_Democratic" stroke="#FFFFFF"/>
          <use xlink:href="#img-ba22d8e7-20" x="134.76" y="86.78" fill="#0000FF" class="color_Democratic" stroke="#FFFFFF"/>
          <use xlink:href="#img-ba22d8e7-20" x="140.7" y="77.82" fill="#0000FF" class="color_Democratic" stroke="#FFFFFF"/>
          <use xlink:href="#img-ba22d8e7-20" x="146.64" y="80.89" fill="#0000FF" class="color_Democratic" stroke="#FFFFFF"/>
          <use xlink:href="#img-ba22d8e7-20" x="152.58" y="83.23" fill="#0000FF" class="color_Democratic" stroke="#FFFFFF"/>
          <use xlink:href="#img-ba22d8e7-20" x="158.53" y="79.83" fill="#0000FF" class="color_Democratic" stroke="#FFFFFF"/>
          <use xlink:href="#img-ba22d8e7-20" x="164.47" y="71.96" fill="#0000FF" class="color_Democratic" stroke="#FFFFFF"/>
          <use xlink:href="#img-ba22d8e7-20" x="170.41" y="86.27" fill="#0000FF" class="color_Democratic" stroke="#FFFFFF"/>
          <use xlink:href="#img-ba22d8e7-20" x="176.35" y="92.04" fill="#0000FF" class="color_Democratic" stroke="#FFFFFF"/>
          <use xlink:href="#img-ba22d8e7-20" x="182.29" y="73.09" fill="#0000FF" class="color_Democratic" stroke="#FFFFFF"/>
          <use xlink:href="#img-ba22d8e7-20" x="188.23" y="71.18" fill="#0000FF" class="color_Democratic" stroke="#FFFFFF"/>
          <use xlink:href="#img-ba22d8e7-20" x="194.17" y="62.85" fill="#0000FF" class="color_Democratic" stroke="#FFFFFF"/>
          <use xlink:href="#img-ba22d8e7-20" x="200.11" y="64.83" fill="#0000FF" class="color_Democratic" stroke="#FFFFFF"/>
          <use xlink:href="#img-ba22d8e7-20" x="206.06" y="66.03" fill="#0000FF" class="color_Democratic" stroke="#FFFFFF"/>
          <use xlink:href="#img-ba22d8e7-20" x="212" y="70.64" fill="#0000FF" class="color_Democratic" stroke="#FFFFFF"/>
          <use xlink:href="#img-ba22d8e7-20" x="217.94" y="74.84" fill="#0000FF" class="color_Democratic" stroke="#FFFFFF"/>
          <use xlink:href="#img-ba22d8e7-20" x="223.88" y="82.87" fill="#0000FF" class="color_Democratic" stroke="#FFFFFF"/>
          <use xlink:href="#img-ba22d8e7-20" x="229.82" y="64.53" fill="#0000FF" class="color_Democratic" stroke="#FFFFFF"/>
          <use xlink:href="#img-ba22d8e7-20" x="235.76" y="49.75" fill="#0000FF" class="color_Democratic" stroke="#FFFFFF"/>
          <use xlink:href="#img-ba22d8e7-20" x="241.7" y="68.99" fill="#0000FF" class="color_Democratic" stroke="#FFFFFF"/>
          <use xlink:href="#img-ba22d8e7-20" x="247.65" y="78.81" fill="#0000FF" class="color_Democratic" stroke="#FFFFFF"/>
          <use xlink:href="#img-ba22d8e7-20" x="253.59" y="71.7" fill="#0000FF" class="color_Democratic" stroke="#FFFFFF"/>
          <use xlink:href="#img-ba22d8e7-20" x="259.53" y="80.5" fill="#0000FF" class="color_Democratic" stroke="#FFFFFF"/>
          <use xlink:href="#img-ba22d8e7-20" x="265.47" y="80.17" fill="#0000FF" class="color_Democratic" stroke="#FFFFFF"/>
          <use xlink:href="#img-ba22d8e7-20" x="271.41" y="71.73" fill="#0000FF" class="color_Democratic" stroke="#FFFFFF"/>
          <use xlink:href="#img-ba22d8e7-20" x="277.35" y="76.62" fill="#0000FF" class="color_Democratic" stroke="#FFFFFF"/>
          <use xlink:href="#img-ba22d8e7-20" x="283.29" y="65.47" fill="#0000FF" class="color_Democratic" stroke="#FFFFFF"/>
          <use xlink:href="#img-ba22d8e7-20" x="289.23" y="62.24" fill="#0000FF" class="color_Democratic" stroke="#FFFFFF"/>
          <use xlink:href="#img-ba22d8e7-20" x="295.18" y="63.91" fill="#0000FF" class="color_Democratic" stroke="#FFFFFF"/>
          <use xlink:href="#img-ba22d8e7-20" x="301.12" y="57.32" fill="#0000FF" class="color_Democratic" stroke="#FFFFFF"/>
          <use xlink:href="#img-ba22d8e7-20" x="307.06" y="59.98" fill="#0000FF" class="color_Democratic" stroke="#FFFFFF"/>
        </g>
      </g>
      <g stroke-width="0.53" fill="#000000" fill-opacity="0.000" stroke-dasharray="none" id="img-ba22d8e7-21">
        <path fill="none" d="M33.76,96.85 L 39.7 84.91 45.64 67.76 51.58 74.28 57.52 72.45 63.46 75.43 69.41 68.67 75.35 75.2 81.29 98.37 87.23 69.9 93.17 70.01 99.11 70.97 105.05 67.71 111 70.02 116.94 69.55 122.88 69.86 128.82 68.38 134.76 86.78 140.7 77.82 146.64 80.89 152.58 83.23 158.53 79.83 164.47 71.96 170.41 86.27 176.35 92.04 182.29 73.09 188.23 71.18 194.17 62.85 200.11 64.83 206.06 66.03 212 70.64 217.94 74.84 223.88 82.87 229.82 64.53 235.76 49.75 241.7 68.99 247.65 78.81 253.59 71.7 259.53 80.5 265.47 80.17 271.41 71.73 277.35 76.62 283.29 65.47 289.23 62.24 295.18 63.91 301.12 57.32 307.06 59.98" class="geometry color_Democratic" stroke="#0000FF"/>
        <path fill="none" d="M81.29,64.4 L 87.23 66.99 93.17 66.88 99.11 65.92 105.05 70.19 111 67.91 116.94 70.53 122.88 70.08 128.82 71.8 134.76 54.54 140.7 61.17 146.64 59.91 152.58 58.54 158.53 83.27 164.47 68.65 170.41 55.09 176.35 56.33 182.29 64.63 188.23 69.98 194.17 78.58 200.11 72.33 206.06 71.66 212 68.92 217.94 62.46 223.88 54.04 229.82 72.36 235.76 87.26 241.7 74.41 247.65 59.45 253.59 66.28 259.53 70.38 265.47 57.17 271.41 66.37 277.35 83.38 283.29 84.52 289.23 80.58 295.18 74.8 301.12 80.81 307.06 78.18" class="geometry color_Republican" stroke="#FF0000"/>
      </g>
    </g>
  </g>
</g>
  <g class="guide ylabels" font-size="4.76" font-family="'PT Sans Caption','Helvetica Neue','Helvetica',sans-serif" fill="#6C606B" id="img-ba22d8e7-22">
    <text x="24.82" y="120.95" text-anchor="end" dy="0.35em">0</text>
    <text x="24.82" y="94.7" text-anchor="end" dy="0.35em">25</text>
    <text x="24.82" y="68.44" text-anchor="end" dy="0.35em">50</text>
    <text x="24.82" y="42.19" text-anchor="end" dy="0.35em">75</text>
    <text x="24.82" y="15.94" text-anchor="end" dy="0.35em">100</text>
  </g>
  <g font-size="6.35" font-family="'PT Sans','Helvetica Neue','Helvetica',sans-serif" fill="#564A55" stroke="#000000" stroke-opacity="0.000" id="img-ba22d8e7-23">
    <text x="10.18" y="66.44" text-anchor="middle" dy="0.35em" transform="rotate(-90, 10.18, 68.44)">Popular Vote (%)</text>
  </g>
  <g font-size="6.35" font-family="'PT Sans','Helvetica Neue','Helvetica',sans-serif" fill="#564A55" stroke="#000000" stroke-opacity="0.000" id="img-ba22d8e7-24">
    <text x="170.41" y="11.94" text-anchor="middle">Connecticut</text>
  </g>
</g>
<defs>
  <clipPath id="img-ba22d8e7-12">
  <path d="M25.82,13.94 L 315 13.94 315 122.95 25.82 122.95" />
</clipPath>
  <g id="img-ba22d8e7-20">
    <circle cx="0" cy="0" r="0.9"/>
  </g>
</defs>
</svg>
