<?xml version="1.0" encoding="UTF-8"?>
<svg xmlns="http://www.w3.org/2000/svg"
     xmlns:xlink="http://www.w3.org/1999/xlink"
     xmlns:gadfly="http://www.gadflyjl.org/ns"
     version="1.2"
     width="238.1mm" height="158.73mm" viewBox="0 0 238.1 158.73"
     stroke="none"
     fill="#000000"
     stroke-width="0.3"
     font-size="3.88"
>
<g stroke="#000000" stroke-opacity="0.000" fill="#222831" id="img-003cb3c0-1">
  <rect x="0" y="0" width="238.1" height="158.73"/>
</g>
<g class="plotroot xscalable yscalable" id="img-003cb3c0-2">
  <g class="guide colorkey" id="img-003cb3c0-3">
    <g class="color_Democratic" id="img-003cb3c0-4">
      <g fill="#A1A1A1" font-size="3.7" font-family="'PT Sans','Helvetica Neue','Helvetica',sans-serif" id="img-003cb3c0-5">
        <text x="51.52" y="148.78" dy="0.35em">Democratic</text>
      </g>
      <g fill="#0000FF" stroke="#000000" stroke-opacity="0.000" id="img-003cb3c0-6">
        <rect x="48.29" y="147.66" width="2.22" height="2.22"/>
      </g>
    </g>
    <g class="color_Republican" id="img-003cb3c0-7">
      <g fill="#A1A1A1" font-size="3.7" font-family="'PT Sans','Helvetica Neue','Helvetica',sans-serif" id="img-003cb3c0-8">
        <text x="29.6" y="148.78" dy="0.35em">Republican</text>
      </g>
      <g fill="#FF0000" stroke="#000000" stroke-opacity="0.000" id="img-003cb3c0-9">
        <rect x="26.38" y="147.66" width="2.22" height="2.22"/>
      </g>
    </g>
    <g fill="#A1A1A1" font-size="6.35" font-family="'PT Sans','Helvetica Neue','Helvetica',sans-serif" stroke="#000000" stroke-opacity="0.000" id="img-003cb3c0-10">
      <text x="26.38" y="145.28">Party</text>
    </g>
  </g>
  <g font-size="6.35" font-family="'PT Sans','Helvetica Neue','Helvetica',sans-serif" fill="#A1A1A1" stroke="#000000" stroke-opacity="0.000" id="img-003cb3c0-11">
    <text x="129.24" y="130.46" text-anchor="middle" dy="0.6em">Year</text>
  </g>
  <g class="guide xlabels" font-size="4.76" font-family="'PT Sans Caption','Helvetica Neue','Helvetica',sans-serif" fill="#A1A1A1" id="img-003cb3c0-12">
    <text x="27.38" y="121.95" text-anchor="middle" dy="0.6em">1876</text>
    <text x="39.02" y="121.95" text-anchor="middle" dy="0.6em">1884</text>
    <text x="50.66" y="121.95" text-anchor="middle" dy="0.6em">1892</text>
    <text x="62.3" y="121.95" text-anchor="middle" dy="0.6em">1900</text>
    <text x="73.94" y="121.95" text-anchor="middle" dy="0.6em">1908</text>
    <text x="85.58" y="121.95" text-anchor="middle" dy="0.6em">1916</text>
    <text x="97.22" y="121.95" text-anchor="middle" dy="0.6em">1924</text>
    <text x="108.87" y="121.95" text-anchor="middle" dy="0.6em">1932</text>
    <text x="120.51" y="121.95" text-anchor="middle" dy="0.6em">1940</text>
    <text x="132.15" y="121.95" text-anchor="middle" dy="0.6em">1948</text>
    <text x="143.79" y="121.95" text-anchor="middle" dy="0.6em">1956</text>
    <text x="155.43" y="121.95" text-anchor="middle" dy="0.6em">1964</text>
    <text x="167.07" y="121.95" text-anchor="middle" dy="0.6em">1972</text>
    <text x="178.71" y="121.95" text-anchor="middle" dy="0.6em">1980</text>
    <text x="190.35" y="121.95" text-anchor="middle" dy="0.6em">1988</text>
    <text x="201.99" y="121.95" text-anchor="middle" dy="0.6em">1996</text>
    <text x="213.63" y="121.95" text-anchor="middle" dy="0.6em">2004</text>
    <text x="225.27" y="121.95" text-anchor="middle" dy="0.6em">2012</text>
  </g>
<g clip-path="url(#img-003cb3c0-13)">
  <g id="img-003cb3c0-14">
    <g pointer-events="visible" opacity="1" fill="#222831" stroke="#000000" stroke-opacity="0.000" class="guide background" id="img-003cb3c0-15">
      <rect x="25.38" y="12.91" width="207.72" height="108.04"/>
    </g>
    <g class="guide ygridlines xfixed" stroke-dasharray="0.5,0.5" stroke-width="0.2" stroke="#575757" id="img-003cb3c0-16">
      <path fill="none" d="M25.38,118.95 L 233.1 118.95"/>
      <path fill="none" d="M25.38,92.94 L 233.1 92.94"/>
      <path fill="none" d="M25.38,66.93 L 233.1 66.93"/>
      <path fill="none" d="M25.38,40.92 L 233.1 40.92"/>
      <path fill="none" d="M25.38,14.91 L 233.1 14.91"/>
    </g>
    <g class="guide xgridlines yfixed" stroke-dasharray="0.5,0.5" stroke-width="0.2" stroke="#575757" id="img-003cb3c0-17">
      <path fill="none" d="M27.38,12.91 L 27.38 120.95"/>
      <path fill="none" d="M39.02,12.91 L 39.02 120.95"/>
      <path fill="none" d="M50.66,12.91 L 50.66 120.95"/>
      <path fill="none" d="M62.3,12.91 L 62.3 120.95"/>
      <path fill="none" d="M73.94,12.91 L 73.94 120.95"/>
      <path fill="none" d="M85.58,12.91 L 85.58 120.95"/>
      <path fill="none" d="M97.22,12.91 L 97.22 120.95"/>
      <path fill="none" d="M108.87,12.91 L 108.87 120.95"/>
      <path fill="none" d="M120.51,12.91 L 120.51 120.95"/>
      <path fill="none" d="M132.15,12.91 L 132.15 120.95"/>
      <path fill="none" d="M143.79,12.91 L 143.79 120.95"/>
      <path fill="none" d="M155.43,12.91 L 155.43 120.95"/>
      <path fill="none" d="M167.07,12.91 L 167.07 120.95"/>
      <path fill="none" d="M178.71,12.91 L 178.71 120.95"/>
      <path fill="none" d="M190.35,12.91 L 190.35 120.95"/>
      <path fill="none" d="M201.99,12.91 L 201.99 120.95"/>
      <path fill="none" d="M213.63,12.91 L 213.63 120.95"/>
      <path fill="none" d="M225.27,12.91 L 225.27 120.95"/>
    </g>
    <g class="plotpanel" id="img-003cb3c0-18">
      <g class="geometry" id="img-003cb3c0-19">
        <g stroke-width="0.3" id="img-003cb3c0-20">
          <use xlink:href="#img-003cb3c0-21" x="33.2" y="65.62" stroke="#B3867B" fill="#FF0000" class="color_Republican"/>
          <use xlink:href="#img-003cb3c0-21" x="39.02" y="62.51" stroke="#B3867B" fill="#FF0000" class="color_Republican"/>
          <use xlink:href="#img-003cb3c0-21" x="44.84" y="61.5" stroke="#B3867B" fill="#FF0000" class="color_Republican"/>
          <use xlink:href="#img-003cb3c0-21" x="50.66" y="76.16" stroke="#B3867B" fill="#FF0000" class="color_Republican"/>
          <use xlink:href="#img-003cb3c0-21" x="56.48" y="104.53" stroke="#B3867B" fill="#FF0000" class="color_Republican"/>
          <use xlink:href="#img-003cb3c0-21" x="62.3" y="75.22" stroke="#B3867B" fill="#FF0000" class="color_Republican"/>
          <use xlink:href="#img-003cb3c0-21" x="68.12" y="61.45" stroke="#B3867B" fill="#FF0000" class="color_Republican"/>
          <use xlink:href="#img-003cb3c0-21" x="73.94" y="70.18" stroke="#B3867B" fill="#FF0000" class="color_Republican"/>
          <use xlink:href="#img-003cb3c0-21" x="79.76" y="96.19" stroke="#B3867B" fill="#FF0000" class="color_Republican"/>
          <use xlink:href="#img-003cb3c0-21" x="85.58" y="82.79" stroke="#B3867B" fill="#FF0000" class="color_Republican"/>
          <use xlink:href="#img-003cb3c0-21" x="91.4" y="57.23" stroke="#B3867B" fill="#FF0000" class="color_Republican"/>
          <use xlink:href="#img-003cb3c0-21" x="97.22" y="59.62" stroke="#B3867B" fill="#FF0000" class="color_Republican"/>
          <use xlink:href="#img-003cb3c0-21" x="103.05" y="51.61" stroke="#B3867B" fill="#FF0000" class="color_Republican"/>
          <use xlink:href="#img-003cb3c0-21" x="108.87" y="75.85" stroke="#B3867B" fill="#FF0000" class="color_Republican"/>
          <use xlink:href="#img-003cb3c0-21" x="114.69" y="80.36" stroke="#B3867B" fill="#FF0000" class="color_Republican"/>
          <use xlink:href="#img-003cb3c0-21" x="120.51" y="65.97" stroke="#B3867B" fill="#FF0000" class="color_Republican"/>
          <use xlink:href="#img-003cb3c0-21" x="126.33" y="63.59" stroke="#B3867B" fill="#FF0000" class="color_Republican"/>
          <use xlink:href="#img-003cb3c0-21" x="132.15" y="70.55" stroke="#B3867B" fill="#FF0000" class="color_Republican"/>
          <use xlink:href="#img-003cb3c0-21" x="137.97" y="56.24" stroke="#B3867B" fill="#FF0000" class="color_Republican"/>
          <use xlink:href="#img-003cb3c0-21" x="143.79" y="57.06" stroke="#B3867B" fill="#FF0000" class="color_Republican"/>
          <use xlink:href="#img-003cb3c0-21" x="149.61" y="62.11" stroke="#B3867B" fill="#FF0000" class="color_Republican"/>
          <use xlink:href="#img-003cb3c0-21" x="155.43" y="79.21" stroke="#B3867B" fill="#FF0000" class="color_Republican"/>
          <use xlink:href="#img-003cb3c0-21" x="161.25" y="66.45" stroke="#B3867B" fill="#FF0000" class="color_Republican"/>
          <use xlink:href="#img-003cb3c0-21" x="167.07" y="53.82" stroke="#B3867B" fill="#FF0000" class="color_Republican"/>
          <use xlink:href="#img-003cb3c0-21" x="172.89" y="62.72" stroke="#B3867B" fill="#FF0000" class="color_Republican"/>
          <use xlink:href="#img-003cb3c0-21" x="178.71" y="61.66" stroke="#B3867B" fill="#FF0000" class="color_Republican"/>
          <use xlink:href="#img-003cb3c0-21" x="184.53" y="52.95" stroke="#B3867B" fill="#FF0000" class="color_Republican"/>
          <use xlink:href="#img-003cb3c0-21" x="190.35" y="63.75" stroke="#B3867B" fill="#FF0000" class="color_Republican"/>
          <use xlink:href="#img-003cb3c0-21" x="196.17" y="81.63" stroke="#B3867B" fill="#FF0000" class="color_Republican"/>
          <use xlink:href="#img-003cb3c0-21" x="201.99" y="71.31" stroke="#B3867B" fill="#FF0000" class="color_Republican"/>
          <use xlink:href="#img-003cb3c0-21" x="207.81" y="66.15" stroke="#B3867B" fill="#FF0000" class="color_Republican"/>
          <use xlink:href="#img-003cb3c0-21" x="213.63" y="65.17" stroke="#B3867B" fill="#FF0000" class="color_Republican"/>
          <use xlink:href="#img-003cb3c0-21" x="219.45" y="72.44" stroke="#B3867B" fill="#FF0000" class="color_Republican"/>
          <use xlink:href="#img-003cb3c0-21" x="225.27" y="71" stroke="#B3867B" fill="#FF0000" class="color_Republican"/>
          <use xlink:href="#img-003cb3c0-21" x="33.2" y="71.06" stroke="#988BAD" fill="#0000FF" class="color_Democratic"/>
          <use xlink:href="#img-003cb3c0-21" x="39.02" y="75.59" stroke="#988BAD" fill="#0000FF" class="color_Democratic"/>
          <use xlink:href="#img-003cb3c0-21" x="44.84" y="76.46" stroke="#988BAD" fill="#0000FF" class="color_Democratic"/>
          <use xlink:href="#img-003cb3c0-21" x="50.66" y="118.95" stroke="#988BAD" fill="#0000FF" class="color_Democratic"/>
          <use xlink:href="#img-003cb3c0-21" x="56.48" y="30.57" stroke="#988BAD" fill="#0000FF" class="color_Democratic"/>
          <use xlink:href="#img-003cb3c0-21" x="62.3" y="61.28" stroke="#988BAD" fill="#0000FF" class="color_Democratic"/>
          <use xlink:href="#img-003cb3c0-21" x="68.12" y="76.21" stroke="#988BAD" fill="#0000FF" class="color_Democratic"/>
          <use xlink:href="#img-003cb3c0-21" x="73.94" y="69.02" stroke="#988BAD" fill="#0000FF" class="color_Democratic"/>
          <use xlink:href="#img-003cb3c0-21" x="79.76" y="74.42" stroke="#988BAD" fill="#0000FF" class="color_Democratic"/>
          <use xlink:href="#img-003cb3c0-21" x="85.58" y="55.75" stroke="#988BAD" fill="#0000FF" class="color_Democratic"/>
          <use xlink:href="#img-003cb3c0-21" x="91.4" y="81.57" stroke="#988BAD" fill="#0000FF" class="color_Democratic"/>
          <use xlink:href="#img-003cb3c0-21" x="97.22" y="96.08" stroke="#988BAD" fill="#0000FF" class="color_Democratic"/>
          <use xlink:href="#img-003cb3c0-21" x="103.05" y="83.64" stroke="#988BAD" fill="#0000FF" class="color_Democratic"/>
          <use xlink:href="#img-003cb3c0-21" x="108.87" y="61.92" stroke="#988BAD" fill="#0000FF" class="color_Democratic"/>
          <use xlink:href="#img-003cb3c0-21" x="114.69" y="56.14" stroke="#988BAD" fill="#0000FF" class="color_Democratic"/>
          <use xlink:href="#img-003cb3c0-21" x="120.51" y="68.63" stroke="#988BAD" fill="#0000FF" class="color_Democratic"/>
          <use xlink:href="#img-003cb3c0-21" x="126.33" y="70.68" stroke="#988BAD" fill="#0000FF" class="color_Democratic"/>
          <use xlink:href="#img-003cb3c0-21" x="132.15" y="64.98" stroke="#988BAD" fill="#0000FF" class="color_Democratic"/>
          <use xlink:href="#img-003cb3c0-21" x="137.97" y="78.42" stroke="#988BAD" fill="#0000FF" class="color_Democratic"/>
          <use xlink:href="#img-003cb3c0-21" x="143.79" y="77.53" stroke="#988BAD" fill="#0000FF" class="color_Democratic"/>
          <use xlink:href="#img-003cb3c0-21" x="149.61" y="72.23" stroke="#988BAD" fill="#0000FF" class="color_Democratic"/>
          <use xlink:href="#img-003cb3c0-21" x="155.43" y="55.21" stroke="#988BAD" fill="#0000FF" class="color_Democratic"/>
          <use xlink:href="#img-003cb3c0-21" x="161.25" y="75.96" stroke="#988BAD" fill="#0000FF" class="color_Democratic"/>
          <use xlink:href="#img-003cb3c0-21" x="167.07" y="82.96" stroke="#988BAD" fill="#0000FF" class="color_Democratic"/>
          <use xlink:href="#img-003cb3c0-21" x="172.89" y="74.65" stroke="#988BAD" fill="#0000FF" class="color_Democratic"/>
          <use xlink:href="#img-003cb3c0-21" x="178.71" y="86.63" stroke="#988BAD" fill="#0000FF" class="color_Democratic"/>
          <use xlink:href="#img-003cb3c0-21" x="184.53" y="82.41" stroke="#988BAD" fill="#0000FF" class="color_Democratic"/>
          <use xlink:href="#img-003cb3c0-21" x="190.35" y="71.84" stroke="#988BAD" fill="#0000FF" class="color_Democratic"/>
          <use xlink:href="#img-003cb3c0-21" x="196.17" y="77.2" stroke="#988BAD" fill="#0000FF" class="color_Democratic"/>
          <use xlink:href="#img-003cb3c0-21" x="201.99" y="72.73" stroke="#988BAD" fill="#0000FF" class="color_Democratic"/>
          <use xlink:href="#img-003cb3c0-21" x="207.81" y="74.85" stroke="#988BAD" fill="#0000FF" class="color_Democratic"/>
          <use xlink:href="#img-003cb3c0-21" x="213.63" y="70.03" stroke="#988BAD" fill="#0000FF" class="color_Democratic"/>
          <use xlink:href="#img-003cb3c0-21" x="219.45" y="63.12" stroke="#988BAD" fill="#0000FF" class="color_Democratic"/>
          <use xlink:href="#img-003cb3c0-21" x="225.27" y="65.43" stroke="#988BAD" fill="#0000FF" class="color_Democratic"/>
        </g>
      </g>
      <g stroke-width="0.3" fill="#000000" fill-opacity="0.000" stroke-dasharray="none" id="img-003cb3c0-22">
        <path fill="none" d="M33.2,71.06 L 39.02 75.59 44.84 76.46 50.66 118.95 56.48 30.57 62.3 61.28 68.12 76.21 73.94 69.02 79.76 74.42 85.58 55.75 91.4 81.57 97.22 96.08 103.05 83.64 108.87 61.92 114.69 56.14 120.51 68.63 126.33 70.68 132.15 64.98 137.97 78.42 143.79 77.53 149.61 72.23 155.43 55.21 161.25 75.96 167.07 82.96 172.89 74.65 178.71 86.63 184.53 82.41 190.35 71.84 196.17 77.2 201.99 72.73 207.81 74.85 213.63 70.03 219.45 63.12 225.27 65.43" stroke="#0000FF" class="geometry color_Democratic"/>
        <path fill="none" d="M33.2,65.62 L 39.02 62.51 44.84 61.5 50.66 76.16 56.48 104.53 62.3 75.22 68.12 61.45 73.94 70.18 79.76 96.19 85.58 82.79 91.4 57.23 97.22 59.62 103.05 51.61 108.87 75.85 114.69 80.36 120.51 65.97 126.33 63.59 132.15 70.55 137.97 56.24 143.79 57.06 149.61 62.11 155.43 79.21 161.25 66.45 167.07 53.82 172.89 62.72 178.71 61.66 184.53 52.95 190.35 63.75 196.17 81.63 201.99 71.31 207.81 66.15 213.63 65.17 219.45 72.44 225.27 71" stroke="#FF0000" class="geometry color_Republican"/>
      </g>
    </g>
  </g>
</g>
  <g class="guide ylabels" font-size="4.76" font-family="'PT Sans Caption','Helvetica Neue','Helvetica',sans-serif" fill="#A1A1A1" id="img-003cb3c0-23">
    <text x="24.38" y="118.95" text-anchor="end" dy="0.35em">0</text>
    <text x="24.38" y="92.94" text-anchor="end" dy="0.35em">25</text>
    <text x="24.38" y="66.93" text-anchor="end" dy="0.35em">50</text>
    <text x="24.38" y="40.92" text-anchor="end" dy="0.35em">75</text>
    <text x="24.38" y="14.91" text-anchor="end" dy="0.35em">100</text>
  </g>
  <g font-size="6.35" font-family="'PT Sans','Helvetica Neue','Helvetica',sans-serif" fill="#A1A1A1" stroke="#000000" stroke-opacity="0.000" id="img-003cb3c0-24">
    <text x="9.95" y="64.93" text-anchor="middle" dy="0.35em" transform="rotate(-90, 9.95, 66.93)">Popular Vote (%)</text>
  </g>
  <g font-size="6.35" font-family="'PT Sans','Helvetica Neue','Helvetica',sans-serif" fill="#A1A1A1" stroke="#000000" stroke-opacity="0.000" id="img-003cb3c0-25">
    <text x="129.24" y="5" text-anchor="middle" dy="0.6em">Colorado</text>
  </g>
</g>
<defs>
  <clipPath id="img-003cb3c0-13">
  <path d="M25.38,12.91 L 233.1 12.91 233.1 120.95 25.38 120.95" />
</clipPath>
  <g id="img-003cb3c0-21">
    <circle cx="0" cy="0" r="0.9"/>
  </g>
</defs>
</svg>
