<?xml version="1.0" encoding="UTF-8"?>
<svg xmlns="http://www.w3.org/2000/svg"
     xmlns:xlink="http://www.w3.org/1999/xlink"
     xmlns:gadfly="http://www.gadflyjl.org/ns"
     version="1.2"
     width="320mm" height="160mm" viewBox="0 0 320 160"
     stroke="none"
     fill="#000000"
     stroke-width="0.3"
     font-size="3.88"
>
<g class="plotroot xscalable yscalable" id="img-4df40938-1">
  <g class="guide colorkey" id="img-4df40938-2">
    <g class="color_Democratic" id="img-4df40938-3">
      <g fill="#FFFFFF" font-size="4.76" font-family="'PT Sans','Helvetica Neue','Helvetica',sans-serif" id="img-4df40938-4">
        <text x="58.33" y="149.82" dy="0.35em">Democratic</text>
      </g>
      <g fill="#0000FF" stroke="#000000" stroke-opacity="0.000" id="img-4df40938-5">
        <rect x="54.36" y="148.34" width="2.97" height="2.97"/>
      </g>
    </g>
    <g class="color_Republican" id="img-4df40938-6">
      <g fill="#FFFFFF" font-size="4.76" font-family="'PT Sans','Helvetica Neue','Helvetica',sans-serif" id="img-4df40938-7">
        <text x="29.73" y="149.82" dy="0.35em">Republican</text>
      </g>
      <g fill="#FF0000" stroke="#000000" stroke-opacity="0.000" id="img-4df40938-8">
        <rect x="25.76" y="148.34" width="2.97" height="2.97"/>
      </g>
    </g>
    <g fill="#FFFFFF" font-size="6.35" font-family="'PT Sans','Helvetica Neue','Helvetica',sans-serif" stroke="#000000" stroke-opacity="0.000" id="img-4df40938-9">
      <text x="25.76" y="145.06">Party</text>
    </g>
  </g>
  <g font-size="6.35" font-family="'PT Sans','Helvetica Neue','Helvetica',sans-serif" fill="#FFFFFF" stroke="#000000" stroke-opacity="0.000" id="img-4df40938-10">
    <text x="169.88" y="130.77" text-anchor="middle" dy="0.6em">Year</text>
  </g>
  <g class="guide xlabels" font-size="4.76" font-family="'PT Sans Caption','Helvetica Neue','Helvetica',sans-serif" fill="#FFFFFF" id="img-4df40938-11">
    <text x="26.76" y="122.89" text-anchor="middle" dy="0.6em">1876</text>
    <text x="43.12" y="122.89" text-anchor="middle" dy="0.6em">1884</text>
    <text x="59.47" y="122.89" text-anchor="middle" dy="0.6em">1892</text>
    <text x="75.83" y="122.89" text-anchor="middle" dy="0.6em">1900</text>
    <text x="92.19" y="122.89" text-anchor="middle" dy="0.6em">1908</text>
    <text x="108.54" y="122.89" text-anchor="middle" dy="0.6em">1916</text>
    <text x="124.9" y="122.89" text-anchor="middle" dy="0.6em">1924</text>
    <text x="141.26" y="122.89" text-anchor="middle" dy="0.6em">1932</text>
    <text x="157.61" y="122.89" text-anchor="middle" dy="0.6em">1940</text>
    <text x="173.97" y="122.89" text-anchor="middle" dy="0.6em">1948</text>
    <text x="190.33" y="122.89" text-anchor="middle" dy="0.6em">1956</text>
    <text x="206.68" y="122.89" text-anchor="middle" dy="0.6em">1964</text>
    <text x="223.04" y="122.89" text-anchor="middle" dy="0.6em">1972</text>
    <text x="239.4" y="122.89" text-anchor="middle" dy="0.6em">1980</text>
    <text x="255.75" y="122.89" text-anchor="middle" dy="0.6em">1988</text>
    <text x="272.11" y="122.89" text-anchor="middle" dy="0.6em">1996</text>
    <text x="288.47" y="122.89" text-anchor="middle" dy="0.6em">2004</text>
    <text x="304.82" y="122.89" text-anchor="middle" dy="0.6em">2012</text>
  </g>
<g clip-path="url(#img-4df40938-12)">
  <g id="img-4df40938-13">
    <g pointer-events="visible" opacity="1" fill="#000000" fill-opacity="0.000" stroke="#000000" stroke-opacity="0.000" class="guide background" id="img-4df40938-14">
      <rect x="24.76" y="13.94" width="290.24" height="107.95"/>
    </g>
    <g class="guide ygridlines xfixed" stroke-dasharray="0.5,0.5" stroke-width="0.26" stroke="#FFFFFF" id="img-4df40938-15">
      <path fill="none" d="M24.76,119.89 L 315 119.89"/>
      <path fill="none" d="M24.76,93.9 L 315 93.9"/>
      <path fill="none" d="M24.76,67.92 L 315 67.92"/>
      <path fill="none" d="M24.76,41.93 L 315 41.93"/>
      <path fill="none" d="M24.76,15.94 L 315 15.94"/>
    </g>
    <g class="guide xgridlines yfixed" stroke-dasharray="0.5,0.5" stroke-width="0.26" stroke="#FFFFFF" id="img-4df40938-16">
      <path fill="none" d="M26.76,13.94 L 26.76 121.89"/>
      <path fill="none" d="M43.12,13.94 L 43.12 121.89"/>
      <path fill="none" d="M59.47,13.94 L 59.47 121.89"/>
      <path fill="none" d="M75.83,13.94 L 75.83 121.89"/>
      <path fill="none" d="M92.19,13.94 L 92.19 121.89"/>
      <path fill="none" d="M108.54,13.94 L 108.54 121.89"/>
      <path fill="none" d="M124.9,13.94 L 124.9 121.89"/>
      <path fill="none" d="M141.26,13.94 L 141.26 121.89"/>
      <path fill="none" d="M157.61,13.94 L 157.61 121.89"/>
      <path fill="none" d="M173.97,13.94 L 173.97 121.89"/>
      <path fill="none" d="M190.33,13.94 L 190.33 121.89"/>
      <path fill="none" d="M206.68,13.94 L 206.68 121.89"/>
      <path fill="none" d="M223.04,13.94 L 223.04 121.89"/>
      <path fill="none" d="M239.4,13.94 L 239.4 121.89"/>
      <path fill="none" d="M255.75,13.94 L 255.75 121.89"/>
      <path fill="none" d="M272.11,13.94 L 272.11 121.89"/>
      <path fill="none" d="M288.47,13.94 L 288.47 121.89"/>
      <path fill="none" d="M304.82,13.94 L 304.82 121.89"/>
    </g>
    <g class="plotpanel" id="img-4df40938-17">
      <g class="geometry" id="img-4df40938-18">
        <g stroke-width="0.3" id="img-4df40938-19">
          <use xlink:href="#img-4df40938-20" x="34.94" y="66.6" stroke="#FFFFFF" fill="#FF0000" class="color_Republican"/>
          <use xlink:href="#img-4df40938-20" x="43.12" y="63.5" stroke="#FFFFFF" fill="#FF0000" class="color_Republican"/>
          <use xlink:href="#img-4df40938-20" x="51.29" y="62.49" stroke="#FFFFFF" fill="#FF0000" class="color_Republican"/>
          <use xlink:href="#img-4df40938-20" x="59.47" y="77.13" stroke="#FFFFFF" fill="#FF0000" class="color_Republican"/>
          <use xlink:href="#img-4df40938-20" x="67.65" y="105.48" stroke="#FFFFFF" fill="#FF0000" class="color_Republican"/>
          <use xlink:href="#img-4df40938-20" x="75.83" y="76.19" stroke="#FFFFFF" fill="#FF0000" class="color_Republican"/>
          <use xlink:href="#img-4df40938-20" x="84.01" y="62.44" stroke="#FFFFFF" fill="#FF0000" class="color_Republican"/>
          <use xlink:href="#img-4df40938-20" x="92.19" y="71.16" stroke="#FFFFFF" fill="#FF0000" class="color_Republican"/>
          <use xlink:href="#img-4df40938-20" x="100.36" y="97.15" stroke="#FFFFFF" fill="#FF0000" class="color_Republican"/>
          <use xlink:href="#img-4df40938-20" x="108.54" y="83.76" stroke="#FFFFFF" fill="#FF0000" class="color_Republican"/>
          <use xlink:href="#img-4df40938-20" x="116.72" y="58.23" stroke="#FFFFFF" fill="#FF0000" class="color_Republican"/>
          <use xlink:href="#img-4df40938-20" x="124.9" y="60.61" stroke="#FFFFFF" fill="#FF0000" class="color_Republican"/>
          <use xlink:href="#img-4df40938-20" x="133.08" y="52.61" stroke="#FFFFFF" fill="#FF0000" class="color_Republican"/>
          <use xlink:href="#img-4df40938-20" x="141.26" y="76.83" stroke="#FFFFFF" fill="#FF0000" class="color_Republican"/>
          <use xlink:href="#img-4df40938-20" x="149.43" y="81.33" stroke="#FFFFFF" fill="#FF0000" class="color_Republican"/>
          <use xlink:href="#img-4df40938-20" x="157.61" y="66.95" stroke="#FFFFFF" fill="#FF0000" class="color_Republican"/>
          <use xlink:href="#img-4df40938-20" x="165.79" y="64.58" stroke="#FFFFFF" fill="#FF0000" class="color_Republican"/>
          <use xlink:href="#img-4df40938-20" x="173.97" y="71.53" stroke="#FFFFFF" fill="#FF0000" class="color_Republican"/>
          <use xlink:href="#img-4df40938-20" x="182.15" y="57.24" stroke="#FFFFFF" fill="#FF0000" class="color_Republican"/>
          <use xlink:href="#img-4df40938-20" x="190.33" y="58.05" stroke="#FFFFFF" fill="#FF0000" class="color_Republican"/>
          <use xlink:href="#img-4df40938-20" x="198.5" y="63.1" stroke="#FFFFFF" fill="#FF0000" class="color_Republican"/>
          <use xlink:href="#img-4df40938-20" x="206.68" y="80.19" stroke="#FFFFFF" fill="#FF0000" class="color_Republican"/>
          <use xlink:href="#img-4df40938-20" x="214.86" y="67.44" stroke="#FFFFFF" fill="#FF0000" class="color_Republican"/>
          <use xlink:href="#img-4df40938-20" x="223.04" y="54.81" stroke="#FFFFFF" fill="#FF0000" class="color_Republican"/>
          <use xlink:href="#img-4df40938-20" x="231.22" y="63.7" stroke="#FFFFFF" fill="#FF0000" class="color_Republican"/>
          <use xlink:href="#img-4df40938-20" x="239.4" y="62.64" stroke="#FFFFFF" fill="#FF0000" class="color_Republican"/>
          <use xlink:href="#img-4df40938-20" x="247.57" y="53.94" stroke="#FFFFFF" fill="#FF0000" class="color_Republican"/>
          <use xlink:href="#img-4df40938-20" x="255.75" y="64.74" stroke="#FFFFFF" fill="#FF0000" class="color_Republican"/>
          <use xlink:href="#img-4df40938-20" x="263.93" y="82.6" stroke="#FFFFFF" fill="#FF0000" class="color_Republican"/>
          <use xlink:href="#img-4df40938-20" x="272.11" y="72.29" stroke="#FFFFFF" fill="#FF0000" class="color_Republican"/>
          <use xlink:href="#img-4df40938-20" x="280.29" y="67.14" stroke="#FFFFFF" fill="#FF0000" class="color_Republican"/>
          <use xlink:href="#img-4df40938-20" x="288.47" y="66.15" stroke="#FFFFFF" fill="#FF0000" class="color_Republican"/>
          <use xlink:href="#img-4df40938-20" x="296.64" y="73.42" stroke="#FFFFFF" fill="#FF0000" class="color_Republican"/>
          <use xlink:href="#img-4df40938-20" x="304.82" y="71.98" stroke="#FFFFFF" fill="#FF0000" class="color_Republican"/>
          <use xlink:href="#img-4df40938-20" x="34.94" y="72.04" stroke="#FFFFFF" fill="#0000FF" class="color_Democratic"/>
          <use xlink:href="#img-4df40938-20" x="43.12" y="76.57" stroke="#FFFFFF" fill="#0000FF" class="color_Democratic"/>
          <use xlink:href="#img-4df40938-20" x="51.29" y="77.44" stroke="#FFFFFF" fill="#0000FF" class="color_Democratic"/>
          <use xlink:href="#img-4df40938-20" x="59.47" y="119.89" stroke="#FFFFFF" fill="#0000FF" class="color_Democratic"/>
          <use xlink:href="#img-4df40938-20" x="67.65" y="31.59" stroke="#FFFFFF" fill="#0000FF" class="color_Democratic"/>
          <use xlink:href="#img-4df40938-20" x="75.83" y="62.27" stroke="#FFFFFF" fill="#0000FF" class="color_Democratic"/>
          <use xlink:href="#img-4df40938-20" x="84.01" y="77.19" stroke="#FFFFFF" fill="#0000FF" class="color_Democratic"/>
          <use xlink:href="#img-4df40938-20" x="92.19" y="70" stroke="#FFFFFF" fill="#0000FF" class="color_Democratic"/>
          <use xlink:href="#img-4df40938-20" x="100.36" y="75.4" stroke="#FFFFFF" fill="#0000FF" class="color_Democratic"/>
          <use xlink:href="#img-4df40938-20" x="108.54" y="56.75" stroke="#FFFFFF" fill="#0000FF" class="color_Democratic"/>
          <use xlink:href="#img-4df40938-20" x="116.72" y="82.54" stroke="#FFFFFF" fill="#0000FF" class="color_Democratic"/>
          <use xlink:href="#img-4df40938-20" x="124.9" y="97.04" stroke="#FFFFFF" fill="#0000FF" class="color_Democratic"/>
          <use xlink:href="#img-4df40938-20" x="133.08" y="84.61" stroke="#FFFFFF" fill="#0000FF" class="color_Democratic"/>
          <use xlink:href="#img-4df40938-20" x="141.26" y="62.91" stroke="#FFFFFF" fill="#0000FF" class="color_Democratic"/>
          <use xlink:href="#img-4df40938-20" x="149.43" y="57.13" stroke="#FFFFFF" fill="#0000FF" class="color_Democratic"/>
          <use xlink:href="#img-4df40938-20" x="157.61" y="69.61" stroke="#FFFFFF" fill="#0000FF" class="color_Democratic"/>
          <use xlink:href="#img-4df40938-20" x="165.79" y="71.66" stroke="#FFFFFF" fill="#0000FF" class="color_Democratic"/>
          <use xlink:href="#img-4df40938-20" x="173.97" y="65.96" stroke="#FFFFFF" fill="#0000FF" class="color_Democratic"/>
          <use xlink:href="#img-4df40938-20" x="182.15" y="79.39" stroke="#FFFFFF" fill="#0000FF" class="color_Democratic"/>
          <use xlink:href="#img-4df40938-20" x="190.33" y="78.5" stroke="#FFFFFF" fill="#0000FF" class="color_Democratic"/>
          <use xlink:href="#img-4df40938-20" x="198.5" y="73.21" stroke="#FFFFFF" fill="#0000FF" class="color_Democratic"/>
          <use xlink:href="#img-4df40938-20" x="206.68" y="56.2" stroke="#FFFFFF" fill="#0000FF" class="color_Democratic"/>
          <use xlink:href="#img-4df40938-20" x="214.86" y="76.94" stroke="#FFFFFF" fill="#0000FF" class="color_Democratic"/>
          <use xlink:href="#img-4df40938-20" x="223.04" y="83.93" stroke="#FFFFFF" fill="#0000FF" class="color_Democratic"/>
          <use xlink:href="#img-4df40938-20" x="231.22" y="75.63" stroke="#FFFFFF" fill="#0000FF" class="color_Democratic"/>
          <use xlink:href="#img-4df40938-20" x="239.4" y="87.6" stroke="#FFFFFF" fill="#0000FF" class="color_Democratic"/>
          <use xlink:href="#img-4df40938-20" x="247.57" y="83.38" stroke="#FFFFFF" fill="#0000FF" class="color_Democratic"/>
          <use xlink:href="#img-4df40938-20" x="255.75" y="72.82" stroke="#FFFFFF" fill="#0000FF" class="color_Democratic"/>
          <use xlink:href="#img-4df40938-20" x="263.93" y="78.18" stroke="#FFFFFF" fill="#0000FF" class="color_Democratic"/>
          <use xlink:href="#img-4df40938-20" x="272.11" y="73.71" stroke="#FFFFFF" fill="#0000FF" class="color_Democratic"/>
          <use xlink:href="#img-4df40938-20" x="280.29" y="75.82" stroke="#FFFFFF" fill="#0000FF" class="color_Democratic"/>
          <use xlink:href="#img-4df40938-20" x="288.47" y="71.01" stroke="#FFFFFF" fill="#0000FF" class="color_Democratic"/>
          <use xlink:href="#img-4df40938-20" x="296.64" y="64.11" stroke="#FFFFFF" fill="#0000FF" class="color_Democratic"/>
          <use xlink:href="#img-4df40938-20" x="304.82" y="66.41" stroke="#FFFFFF" fill="#0000FF" class="color_Democratic"/>
        </g>
      </g>
      <g stroke-width="0.53" fill="#000000" fill-opacity="0.000" stroke-dasharray="none" id="img-4df40938-21">
        <path fill="none" d="M34.94,72.04 L 43.12 76.57 51.29 77.44 59.47 119.89 67.65 31.59 75.83 62.27 84.01 77.19 92.19 70 100.36 75.4 108.54 56.75 116.72 82.54 124.9 97.04 133.08 84.61 141.26 62.91 149.43 57.13 157.61 69.61 165.79 71.66 173.97 65.96 182.15 79.39 190.33 78.5 198.5 73.21 206.68 56.2 214.86 76.94 223.04 83.93 231.22 75.63 239.4 87.6 247.57 83.38 255.75 72.82 263.93 78.18 272.11 73.71 280.29 75.82 288.47 71.01 296.64 64.11 304.82 66.41" stroke="#0000FF" class="geometry color_Democratic"/>
        <path fill="none" d="M34.94,66.6 L 43.12 63.5 51.29 62.49 59.47 77.13 67.65 105.48 75.83 76.19 84.01 62.44 92.19 71.16 100.36 97.15 108.54 83.76 116.72 58.23 124.9 60.61 133.08 52.61 141.26 76.83 149.43 81.33 157.61 66.95 165.79 64.58 173.97 71.53 182.15 57.24 190.33 58.05 198.5 63.1 206.68 80.19 214.86 67.44 223.04 54.81 231.22 63.7 239.4 62.64 247.57 53.94 255.75 64.74 263.93 82.6 272.11 72.29 280.29 67.14 288.47 66.15 296.64 73.42 304.82 71.98" stroke="#FF0000" class="geometry color_Republican"/>
      </g>
    </g>
  </g>
</g>
  <g class="guide ylabels" font-size="4.76" font-family="'PT Sans Caption','Helvetica Neue','Helvetica',sans-serif" fill="#FFFFFF" id="img-4df40938-22">
    <text x="23.76" y="119.89" text-anchor="end" dy="0.35em">0</text>
    <text x="23.76" y="93.9" text-anchor="end" dy="0.35em">25</text>
    <text x="23.76" y="67.92" text-anchor="end" dy="0.35em">50</text>
    <text x="23.76" y="41.93" text-anchor="end" dy="0.35em">75</text>
    <text x="23.76" y="15.94" text-anchor="end" dy="0.35em">100</text>
  </g>
  <g font-size="6.35" font-family="'PT Sans','Helvetica Neue','Helvetica',sans-serif" fill="#FFFFFF" stroke="#000000" stroke-opacity="0.000" id="img-4df40938-23">
    <text x="10.18" y="65.92" text-anchor="middle" dy="0.35em" transform="rotate(-90, 10.18, 67.92)">Popular Vote (%)</text>
  </g>
  <g font-size="6.35" font-family="'PT Sans','Helvetica Neue','Helvetica',sans-serif" fill="#FFFFFF" stroke="#000000" stroke-opacity="0.000" id="img-4df40938-24">
    <text x="169.88" y="11.94" text-anchor="middle">Colorado</text>
  </g>
</g>
<defs>
  <clipPath id="img-4df40938-12">
  <path d="M24.76,13.94 L 315 13.94 315 121.89 24.76 121.89" />
</clipPath>
  <g id="img-4df40938-20">
    <circle cx="0" cy="0" r="0.9"/>
  </g>
</defs>
</svg>
