<svg xmlns="http://www.w3.org/2000/svg" xmlns:xlink="http://www.w3.org/1999/xlink" version="1.2" width="238.1mm" height="599.924" viewBox="0 0 238.1 158.73" stroke-width=".3" font-size="3.88"><path d="M0 0h238.1v158.73H0z" stroke="#000" stroke-opacity="0" fill="#222831"/><g class="plotroot xscalable yscalable"><g class="guide colorkey"><g class="color_Democratic"><text x="51.52" y="148.78" dy=".35em" fill="#A1A1A1" font-size="3.7" font-family="'PT Sans','Helvetica Neue','Helvetica',sans-serif">Democratic</text><path d="M48.29 147.66h2.22v2.22h-2.22z" fill="#00F" stroke="#000" stroke-opacity="0"/></g><g class="color_Republican"><text x="29.6" y="148.78" dy=".35em" fill="#A1A1A1" font-size="3.7" font-family="'PT Sans','Helvetica Neue','Helvetica',sans-serif">Republican</text><path d="M26.38 147.66h2.22v2.22h-2.22z" fill="#F00" stroke="#000" stroke-opacity="0"/></g><text x="26.38" y="145.28" fill="#A1A1A1" font-size="6.35" font-family="'PT Sans','Helvetica Neue','Helvetica',sans-serif" stroke="#000" stroke-opacity="0">Party</text></g><text x="129.24" y="130.46" text-anchor="middle" dy=".6em" font-size="6.35" font-family="'PT Sans','Helvetica Neue','Helvetica',sans-serif" fill="#A1A1A1" stroke="#000" stroke-opacity="0">Year</text><g class="guide xlabels" font-size="4.76" font-family="'PT Sans Caption','Helvetica Neue','Helvetica',sans-serif" fill="#A1A1A1" text-anchor="middle"><text x="27.38" y="121.95" dy=".6em">1848</text><text x="41.93" y="121.95" dy=".6em">1860</text><text x="56.48" y="121.95" dy=".6em">1872</text><text x="71.03" y="121.95" dy=".6em">1884</text><text x="85.58" y="121.95" dy=".6em">1896</text><text x="100.14" y="121.95" dy=".6em">1908</text><text x="114.69" y="121.95" dy=".6em">1920</text><text x="129.24" y="121.95" dy=".6em">1932</text><text x="143.79" y="121.95" dy=".6em">1944</text><text x="158.34" y="121.95" dy=".6em">1956</text><text x="172.89" y="121.95" dy=".6em">1968</text><text x="187.44" y="121.95" dy=".6em">1980</text><text x="201.99" y="121.95" dy=".6em">1992</text><text x="216.54" y="121.95" dy=".6em">2004</text><text x="231.1" y="121.95" dy=".6em">2016</text></g><g clip-path="url(#a)"><path d="M25.38 12.91H233.1v108.04H25.38z" pointer-events="visible" fill="#222831" stroke="#000" stroke-opacity="0" class="guide background"/><g class="guide ygridlines xfixed" stroke-dasharray="0.5,0.5" stroke-width=".2" stroke="#575757" fill="none"><path d="M25.38 118.95H233.1M25.38 92.94H233.1M25.38 66.93H233.1M25.38 40.92H233.1M25.38 14.91H233.1"/></g><g class="guide xgridlines yfixed" stroke-dasharray="0.5,0.5" stroke-width=".2" stroke="#575757" fill="none"><path d="M27.38 12.91v108.04M41.93 12.91v108.04M56.48 12.91v108.04M71.03 12.91v108.04M85.58 12.91v108.04M100.14 12.91v108.04M114.69 12.91v108.04M129.24 12.91v108.04M143.79 12.91v108.04M158.34 12.91v108.04M172.89 12.91v108.04M187.44 12.91v108.04M201.99 12.91v108.04M216.54 12.91v108.04M231.1 12.91v108.04"/></g><g class="plotpanel"><g class="geometry"><use xlink:href="#b" x="41.93" y="85.32" stroke="#B3867B" fill="#F00" class="color_Republican"/><use xlink:href="#b" x="46.78" y="57.98" stroke="#B3867B" fill="#F00" class="color_Republican"/><use xlink:href="#b" x="51.63" y="66.68" stroke="#B3867B" fill="#F00" class="color_Republican"/><use xlink:href="#b" x="56.48" y="60.29" stroke="#B3867B" fill="#F00" class="color_Republican"/><use xlink:href="#b" x="61.33" y="66.02" stroke="#B3867B" fill="#F00" class="color_Republican"/><use xlink:href="#b" x="66.18" y="68.09" stroke="#B3867B" fill="#F00" class="color_Republican"/><use xlink:href="#b" x="71.03" y="64.88" stroke="#B3867B" fill="#F00" class="color_Republican"/><use xlink:href="#b" x="75.88" y="67.28" stroke="#B3867B" fill="#F00" class="color_Republican"/><use xlink:href="#b" x="80.73" y="73.41" stroke="#B3867B" fill="#F00" class="color_Republican"/><use xlink:href="#b" x="85.58" y="67.81" stroke="#B3867B" fill="#F00" class="color_Republican"/><use xlink:href="#b" x="90.43" y="62.38" stroke="#B3867B" fill="#F00" class="color_Republican"/><use xlink:href="#b" x="95.28" y="54.61" stroke="#B3867B" fill="#F00" class="color_Republican"/><use xlink:href="#b" x="100.14" y="61.25" stroke="#B3867B" fill="#F00" class="color_Republican"/><use xlink:href="#b" x="104.99" y="118.35" stroke="#B3867B" fill="#F00" class="color_Republican"/><use xlink:href="#b" x="109.84" y="70.81" stroke="#B3867B" fill="#F00" class="color_Republican"/><use xlink:href="#b" x="114.69" y="50.07" stroke="#B3867B" fill="#F00" class="color_Republican"/><use xlink:href="#b" x="119.54" y="59.44" stroke="#B3867B" fill="#F00" class="color_Republican"/><use xlink:href="#b" x="124.39" y="51.64" stroke="#B3867B" fill="#F00" class="color_Republican"/><use xlink:href="#b" x="129.24" y="80.06" stroke="#B3867B" fill="#F00" class="color_Republican"/><use xlink:href="#b" x="134.09" y="85.98" stroke="#B3867B" fill="#F00" class="color_Republican"/><use xlink:href="#b" x="138.94" y="75.94" stroke="#B3867B" fill="#F00" class="color_Republican"/><use xlink:href="#b" x="143.79" y="74.24" stroke="#B3867B" fill="#F00" class="color_Republican"/><use xlink:href="#b" x="148.64" y="69.92" stroke="#B3867B" fill="#F00" class="color_Republican"/><use xlink:href="#b" x="153.49" y="59.83" stroke="#B3867B" fill="#F00" class="color_Republican"/><use xlink:href="#b" x="158.34" y="61.33" stroke="#B3867B" fill="#F00" class="color_Republican"/><use xlink:href="#b" x="163.19" y="66.83" stroke="#B3867B" fill="#F00" class="color_Republican"/><use xlink:href="#b" x="168.04" y="76.51" stroke="#B3867B" fill="#F00" class="color_Republican"/><use xlink:href="#b" x="172.89" y="69.2" stroke="#B3867B" fill="#F00" class="color_Republican"/><use xlink:href="#b" x="177.74" y="61.73" stroke="#B3867B" fill="#F00" class="color_Republican"/><use xlink:href="#b" x="182.59" y="67.61" stroke="#B3867B" fill="#F00" class="color_Republican"/><use xlink:href="#b" x="187.44" y="64.13" stroke="#B3867B" fill="#F00" class="color_Republican"/><use xlink:href="#b" x="192.29" y="59.11" stroke="#B3867B" fill="#F00" class="color_Republican"/><use xlink:href="#b" x="197.14" y="65.76" stroke="#B3867B" fill="#F00" class="color_Republican"/><use xlink:href="#b" x="201.99" y="85.02" stroke="#B3867B" fill="#F00" class="color_Republican"/><use xlink:href="#b" x="206.84" y="79.2" stroke="#B3867B" fill="#F00" class="color_Republican"/><use xlink:href="#b" x="211.69" y="75.62" stroke="#B3867B" fill="#F00" class="color_Republican"/><use xlink:href="#b" x="216.54" y="72.8" stroke="#B3867B" fill="#F00" class="color_Republican"/><use xlink:href="#b" x="221.39" y="80.56" stroke="#B3867B" fill="#F00" class="color_Republican"/><use xlink:href="#b" x="226.24" y="80.38" stroke="#B3867B" fill="#F00" class="color_Republican"/><use xlink:href="#b" x="32.23" y="63.79" stroke="#988BAD" fill="#00F" class="color_Democratic"/><use xlink:href="#b" x="37.08" y="68.62" stroke="#988BAD" fill="#00F" class="color_Democratic"/><use xlink:href="#b" x="41.93" y="85.96" stroke="#988BAD" fill="#00F" class="color_Democratic"/><use xlink:href="#b" x="46.78" y="75.88" stroke="#988BAD" fill="#00F" class="color_Democratic"/><use xlink:href="#b" x="51.63" y="67.18" stroke="#988BAD" fill="#00F" class="color_Democratic"/><use xlink:href="#b" x="56.48" y="74.73" stroke="#988BAD" fill="#00F" class="color_Democratic"/><use xlink:href="#b" x="61.33" y="67.89" stroke="#988BAD" fill="#00F" class="color_Democratic"/><use xlink:href="#b" x="66.18" y="68" stroke="#988BAD" fill="#00F" class="color_Democratic"/><use xlink:href="#b" x="71.03" y="71.79" stroke="#988BAD" fill="#00F" class="color_Democratic"/><use xlink:href="#b" x="75.88" y="70.22" stroke="#988BAD" fill="#00F" class="color_Democratic"/><use xlink:href="#b" x="80.73" y="73.35" stroke="#988BAD" fill="#00F" class="color_Democratic"/><use xlink:href="#b" x="85.58" y="68.48" stroke="#988BAD" fill="#00F" class="color_Democratic"/><use xlink:href="#b" x="90.43" y="76.04" stroke="#988BAD" fill="#00F" class="color_Democratic"/><use xlink:href="#b" x="95.28" y="90.93" stroke="#988BAD" fill="#00F" class="color_Democratic"/><use xlink:href="#b" x="100.14" y="84.64" stroke="#988BAD" fill="#00F" class="color_Democratic"/><use xlink:href="#b" x="104.99" y="75.45" stroke="#988BAD" fill="#00F" class="color_Democratic"/><use xlink:href="#b" x="109.84" y="70.42" stroke="#988BAD" fill="#00F" class="color_Democratic"/><use xlink:href="#b" x="114.69" y="93.69" stroke="#988BAD" fill="#00F" class="color_Democratic"/><use xlink:href="#b" x="119.54" y="110.39" stroke="#988BAD" fill="#00F" class="color_Democratic"/><use xlink:href="#b" x="124.39" y="83.38" stroke="#988BAD" fill="#00F" class="color_Democratic"/><use xlink:href="#b" x="129.24" y="58.21" stroke="#988BAD" fill="#00F" class="color_Democratic"/><use xlink:href="#b" x="134.09" y="49.29" stroke="#988BAD" fill="#00F" class="color_Democratic"/><use xlink:href="#b" x="138.94" y="59.19" stroke="#988BAD" fill="#00F" class="color_Democratic"/><use xlink:href="#b" x="143.79" y="60.19" stroke="#988BAD" fill="#00F" class="color_Democratic"/><use xlink:href="#b" x="148.64" y="69.46" stroke="#988BAD" fill="#00F" class="color_Democratic"/><use xlink:href="#b" x="153.49" y="74.98" stroke="#988BAD" fill="#00F" class="color_Democratic"/><use xlink:href="#b" x="158.34" y="72.89" stroke="#988BAD" fill="#00F" class="color_Democratic"/><use xlink:href="#b" x="163.19" y="67.4" stroke="#988BAD" fill="#00F" class="color_Democratic"/><use xlink:href="#b" x="168.04" y="57.45" stroke="#988BAD" fill="#00F" class="color_Democratic"/><use xlink:href="#b" x="172.89" y="72.4" stroke="#988BAD" fill="#00F" class="color_Democratic"/><use xlink:href="#b" x="177.74" y="75.74" stroke="#988BAD" fill="#00F" class="color_Democratic"/><use xlink:href="#b" x="182.59" y="69.46" stroke="#988BAD" fill="#00F" class="color_Democratic"/><use xlink:href="#b" x="187.44" y="81.59" stroke="#988BAD" fill="#00F" class="color_Democratic"/><use xlink:href="#b" x="192.29" y="76.02" stroke="#988BAD" fill="#00F" class="color_Democratic"/><use xlink:href="#b" x="197.14" y="69.47" stroke="#988BAD" fill="#00F" class="color_Democratic"/><use xlink:href="#b" x="201.99" y="71.09" stroke="#988BAD" fill="#00F" class="color_Democratic"/><use xlink:href="#b" x="206.84" y="65.79" stroke="#988BAD" fill="#00F" class="color_Democratic"/><use xlink:href="#b" x="211.69" y="63.34" stroke="#988BAD" fill="#00F" class="color_Democratic"/><use xlink:href="#b" x="216.54" y="62.45" stroke="#988BAD" fill="#00F" class="color_Democratic"/><use xlink:href="#b" x="221.39" y="55.57" stroke="#988BAD" fill="#00F" class="color_Democratic"/><use xlink:href="#b" x="226.24" y="56.36" stroke="#988BAD" fill="#00F" class="color_Democratic"/></g><g fill-opacity="0"><path fill="none" d="M32.23 63.79l4.85 4.83 4.85 17.34 4.85-10.08 4.85-8.7 4.85 7.55 4.85-6.84 4.85.11 4.85 3.79 4.85-1.57 4.85 3.13 4.85-4.87 4.85 7.56 4.85 14.89 4.86-6.29 4.85-9.19 4.85-5.03 4.85 23.27 4.85 16.7 4.85-27.01 4.85-25.17 4.85-8.92 4.85 9.9 4.85 1 4.85 9.27 4.85 5.52 4.85-2.09 4.85-5.49 4.85-9.95 4.85 14.95 4.85 3.34 4.85-6.28 4.85 12.13 4.85-5.57 4.85-6.55 4.85 1.62 4.85-5.3 4.85-2.45 4.85-.89 4.85-6.88 4.85.79" stroke="#00F" class="geometry color_Democratic"/><path fill="none" d="M41.93 85.32l4.85-27.34 4.85 8.7 4.85-6.39 4.85 5.73 4.85 2.07 4.85-3.21 4.85 2.4 4.85 6.13 4.85-5.6 4.85-5.43 4.85-7.77 4.86 6.64 4.85 57.1 4.85-47.54 4.85-20.74 4.85 9.37 4.85-7.8 4.85 28.42 4.85 5.92 4.85-10.04 4.85-1.7 4.85-4.32 4.85-10.09 4.85 1.5 4.85 5.5 4.85 9.68 4.85-7.31 4.85-7.47 4.85 5.88 4.85-3.48 4.85-5.02 4.85 6.65 4.85 19.26 4.85-5.82 4.85-3.58 4.85-2.82 4.85 7.76 4.85-.18" stroke="#F00" class="geometry color_Republican"/></g></g></g><g class="guide ylabels" font-size="4.76" font-family="'PT Sans Caption','Helvetica Neue','Helvetica',sans-serif" fill="#A1A1A1" text-anchor="end"><text x="24.38" y="118.95" dy=".35em">0</text><text x="24.38" y="92.94" dy=".35em">25</text><text x="24.38" y="66.93" dy=".35em">50</text><text x="24.38" y="40.92" dy=".35em">75</text><text x="24.38" y="14.91" dy=".35em">100</text></g><text x="9.95" y="64.93" text-anchor="middle" dy=".35em" transform="rotate(-90 9.95 66.93)" font-size="6.35" font-family="'PT Sans','Helvetica Neue','Helvetica',sans-serif" fill="#A1A1A1" stroke="#000" stroke-opacity="0">Popular Vote (%)</text><text x="129.24" y="5" text-anchor="middle" dy=".6em" font-size="6.35" font-family="'PT Sans','Helvetica Neue','Helvetica',sans-serif" fill="#A1A1A1" stroke="#000" stroke-opacity="0">California</text></g><defs><clipPath id="a"><path d="M25.38 12.91H233.1v108.04H25.38"/></clipPath><circle r=".9" id="b"/></defs></svg>