<?xml version="1.0" encoding="UTF-8"?>
<svg xmlns="http://www.w3.org/2000/svg"
     xmlns:xlink="http://www.w3.org/1999/xlink"
     xmlns:gadfly="http://www.gadflyjl.org/ns"
     version="1.2"
     width="238.1mm" height="158.73mm" viewBox="0 0 238.1 158.73"
     stroke="none"
     fill="#000000"
     stroke-width="0.3"
     font-size="3.88"
>
<g stroke="#000000" stroke-opacity="0.000" fill="#222831" id="img-cdcfe27b-1">
  <rect x="0" y="0" width="238.1" height="158.73"/>
</g>
<g class="plotroot xscalable yscalable" id="img-cdcfe27b-2">
  <g class="guide colorkey" id="img-cdcfe27b-3">
    <g class="color_Democratic" id="img-cdcfe27b-4">
      <g fill="#A1A1A1" font-size="3.7" font-family="'PT Sans','Helvetica Neue','Helvetica',sans-serif" id="img-cdcfe27b-5">
        <text x="51.52" y="148.78" dy="0.35em">Democratic</text>
      </g>
      <g fill="#0000FF" stroke="#000000" stroke-opacity="0.000" id="img-cdcfe27b-6">
        <rect x="48.29" y="147.66" width="2.22" height="2.22"/>
      </g>
    </g>
    <g class="color_Republican" id="img-cdcfe27b-7">
      <g fill="#A1A1A1" font-size="3.7" font-family="'PT Sans','Helvetica Neue','Helvetica',sans-serif" id="img-cdcfe27b-8">
        <text x="29.6" y="148.78" dy="0.35em">Republican</text>
      </g>
      <g fill="#FF0000" stroke="#000000" stroke-opacity="0.000" id="img-cdcfe27b-9">
        <rect x="26.38" y="147.66" width="2.22" height="2.22"/>
      </g>
    </g>
    <g fill="#A1A1A1" font-size="6.35" font-family="'PT Sans','Helvetica Neue','Helvetica',sans-serif" stroke="#000000" stroke-opacity="0.000" id="img-cdcfe27b-10">
      <text x="26.38" y="145.28">Party</text>
    </g>
  </g>
  <g font-size="6.35" font-family="'PT Sans','Helvetica Neue','Helvetica',sans-serif" fill="#A1A1A1" stroke="#000000" stroke-opacity="0.000" id="img-cdcfe27b-11">
    <text x="129.24" y="130.46" text-anchor="middle" dy="0.6em">Year</text>
  </g>
  <g class="guide xlabels" font-size="4.76" font-family="'PT Sans Caption','Helvetica Neue','Helvetica',sans-serif" fill="#A1A1A1" id="img-cdcfe27b-12">
    <text x="27.38" y="121.95" text-anchor="middle" dy="0.6em">1848</text>
    <text x="41.93" y="121.95" text-anchor="middle" dy="0.6em">1860</text>
    <text x="56.48" y="121.95" text-anchor="middle" dy="0.6em">1872</text>
    <text x="71.03" y="121.95" text-anchor="middle" dy="0.6em">1884</text>
    <text x="85.58" y="121.95" text-anchor="middle" dy="0.6em">1896</text>
    <text x="100.14" y="121.95" text-anchor="middle" dy="0.6em">1908</text>
    <text x="114.69" y="121.95" text-anchor="middle" dy="0.6em">1920</text>
    <text x="129.24" y="121.95" text-anchor="middle" dy="0.6em">1932</text>
    <text x="143.79" y="121.95" text-anchor="middle" dy="0.6em">1944</text>
    <text x="158.34" y="121.95" text-anchor="middle" dy="0.6em">1956</text>
    <text x="172.89" y="121.95" text-anchor="middle" dy="0.6em">1968</text>
    <text x="187.44" y="121.95" text-anchor="middle" dy="0.6em">1980</text>
    <text x="201.99" y="121.95" text-anchor="middle" dy="0.6em">1992</text>
    <text x="216.54" y="121.95" text-anchor="middle" dy="0.6em">2004</text>
    <text x="231.1" y="121.95" text-anchor="middle" dy="0.6em">2016</text>
  </g>
<g clip-path="url(#img-cdcfe27b-13)">
  <g id="img-cdcfe27b-14">
    <g pointer-events="visible" opacity="1" fill="#222831" stroke="#000000" stroke-opacity="0.000" class="guide background" id="img-cdcfe27b-15">
      <rect x="25.38" y="12.91" width="207.72" height="108.04"/>
    </g>
    <g class="guide ygridlines xfixed" stroke-dasharray="0.5,0.5" stroke-width="0.2" stroke="#575757" id="img-cdcfe27b-16">
      <path fill="none" d="M25.38,118.95 L 233.1 118.95"/>
      <path fill="none" d="M25.38,92.94 L 233.1 92.94"/>
      <path fill="none" d="M25.38,66.93 L 233.1 66.93"/>
      <path fill="none" d="M25.38,40.92 L 233.1 40.92"/>
      <path fill="none" d="M25.38,14.91 L 233.1 14.91"/>
    </g>
    <g class="guide xgridlines yfixed" stroke-dasharray="0.5,0.5" stroke-width="0.2" stroke="#575757" id="img-cdcfe27b-17">
      <path fill="none" d="M27.38,12.91 L 27.38 120.95"/>
      <path fill="none" d="M41.93,12.91 L 41.93 120.95"/>
      <path fill="none" d="M56.48,12.91 L 56.48 120.95"/>
      <path fill="none" d="M71.03,12.91 L 71.03 120.95"/>
      <path fill="none" d="M85.58,12.91 L 85.58 120.95"/>
      <path fill="none" d="M100.14,12.91 L 100.14 120.95"/>
      <path fill="none" d="M114.69,12.91 L 114.69 120.95"/>
      <path fill="none" d="M129.24,12.91 L 129.24 120.95"/>
      <path fill="none" d="M143.79,12.91 L 143.79 120.95"/>
      <path fill="none" d="M158.34,12.91 L 158.34 120.95"/>
      <path fill="none" d="M172.89,12.91 L 172.89 120.95"/>
      <path fill="none" d="M187.44,12.91 L 187.44 120.95"/>
      <path fill="none" d="M201.99,12.91 L 201.99 120.95"/>
      <path fill="none" d="M216.54,12.91 L 216.54 120.95"/>
      <path fill="none" d="M231.1,12.91 L 231.1 120.95"/>
    </g>
    <g class="plotpanel" id="img-cdcfe27b-18">
      <g class="geometry" id="img-cdcfe27b-19">
        <g stroke-width="0.3" id="img-cdcfe27b-20">
          <use xlink:href="#img-cdcfe27b-21" x="41.93" y="85.32" stroke="#B3867B" fill="#FF0000" class="color_Republican"/>
          <use xlink:href="#img-cdcfe27b-21" x="46.78" y="57.98" stroke="#B3867B" fill="#FF0000" class="color_Republican"/>
          <use xlink:href="#img-cdcfe27b-21" x="51.63" y="66.68" stroke="#B3867B" fill="#FF0000" class="color_Republican"/>
          <use xlink:href="#img-cdcfe27b-21" x="56.48" y="60.29" stroke="#B3867B" fill="#FF0000" class="color_Republican"/>
          <use xlink:href="#img-cdcfe27b-21" x="61.33" y="66.02" stroke="#B3867B" fill="#FF0000" class="color_Republican"/>
          <use xlink:href="#img-cdcfe27b-21" x="66.18" y="68.09" stroke="#B3867B" fill="#FF0000" class="color_Republican"/>
          <use xlink:href="#img-cdcfe27b-21" x="71.03" y="64.88" stroke="#B3867B" fill="#FF0000" class="color_Republican"/>
          <use xlink:href="#img-cdcfe27b-21" x="75.88" y="67.28" stroke="#B3867B" fill="#FF0000" class="color_Republican"/>
          <use xlink:href="#img-cdcfe27b-21" x="80.73" y="73.41" stroke="#B3867B" fill="#FF0000" class="color_Republican"/>
          <use xlink:href="#img-cdcfe27b-21" x="85.58" y="67.81" stroke="#B3867B" fill="#FF0000" class="color_Republican"/>
          <use xlink:href="#img-cdcfe27b-21" x="90.43" y="62.38" stroke="#B3867B" fill="#FF0000" class="color_Republican"/>
          <use xlink:href="#img-cdcfe27b-21" x="95.28" y="54.61" stroke="#B3867B" fill="#FF0000" class="color_Republican"/>
          <use xlink:href="#img-cdcfe27b-21" x="100.14" y="61.25" stroke="#B3867B" fill="#FF0000" class="color_Republican"/>
          <use xlink:href="#img-cdcfe27b-21" x="104.99" y="118.35" stroke="#B3867B" fill="#FF0000" class="color_Republican"/>
          <use xlink:href="#img-cdcfe27b-21" x="109.84" y="70.81" stroke="#B3867B" fill="#FF0000" class="color_Republican"/>
          <use xlink:href="#img-cdcfe27b-21" x="114.69" y="50.07" stroke="#B3867B" fill="#FF0000" class="color_Republican"/>
          <use xlink:href="#img-cdcfe27b-21" x="119.54" y="59.44" stroke="#B3867B" fill="#FF0000" class="color_Republican"/>
          <use xlink:href="#img-cdcfe27b-21" x="124.39" y="51.64" stroke="#B3867B" fill="#FF0000" class="color_Republican"/>
          <use xlink:href="#img-cdcfe27b-21" x="129.24" y="80.06" stroke="#B3867B" fill="#FF0000" class="color_Republican"/>
          <use xlink:href="#img-cdcfe27b-21" x="134.09" y="85.98" stroke="#B3867B" fill="#FF0000" class="color_Republican"/>
          <use xlink:href="#img-cdcfe27b-21" x="138.94" y="75.94" stroke="#B3867B" fill="#FF0000" class="color_Republican"/>
          <use xlink:href="#img-cdcfe27b-21" x="143.79" y="74.24" stroke="#B3867B" fill="#FF0000" class="color_Republican"/>
          <use xlink:href="#img-cdcfe27b-21" x="148.64" y="69.92" stroke="#B3867B" fill="#FF0000" class="color_Republican"/>
          <use xlink:href="#img-cdcfe27b-21" x="153.49" y="59.83" stroke="#B3867B" fill="#FF0000" class="color_Republican"/>
          <use xlink:href="#img-cdcfe27b-21" x="158.34" y="61.33" stroke="#B3867B" fill="#FF0000" class="color_Republican"/>
          <use xlink:href="#img-cdcfe27b-21" x="163.19" y="66.83" stroke="#B3867B" fill="#FF0000" class="color_Republican"/>
          <use xlink:href="#img-cdcfe27b-21" x="168.04" y="76.51" stroke="#B3867B" fill="#FF0000" class="color_Republican"/>
          <use xlink:href="#img-cdcfe27b-21" x="172.89" y="69.2" stroke="#B3867B" fill="#FF0000" class="color_Republican"/>
          <use xlink:href="#img-cdcfe27b-21" x="177.74" y="61.73" stroke="#B3867B" fill="#FF0000" class="color_Republican"/>
          <use xlink:href="#img-cdcfe27b-21" x="182.59" y="67.61" stroke="#B3867B" fill="#FF0000" class="color_Republican"/>
          <use xlink:href="#img-cdcfe27b-21" x="187.44" y="64.13" stroke="#B3867B" fill="#FF0000" class="color_Republican"/>
          <use xlink:href="#img-cdcfe27b-21" x="192.29" y="59.11" stroke="#B3867B" fill="#FF0000" class="color_Republican"/>
          <use xlink:href="#img-cdcfe27b-21" x="197.14" y="65.76" stroke="#B3867B" fill="#FF0000" class="color_Republican"/>
          <use xlink:href="#img-cdcfe27b-21" x="201.99" y="85.02" stroke="#B3867B" fill="#FF0000" class="color_Republican"/>
          <use xlink:href="#img-cdcfe27b-21" x="206.84" y="79.2" stroke="#B3867B" fill="#FF0000" class="color_Republican"/>
          <use xlink:href="#img-cdcfe27b-21" x="211.69" y="75.62" stroke="#B3867B" fill="#FF0000" class="color_Republican"/>
          <use xlink:href="#img-cdcfe27b-21" x="216.54" y="72.8" stroke="#B3867B" fill="#FF0000" class="color_Republican"/>
          <use xlink:href="#img-cdcfe27b-21" x="221.39" y="80.56" stroke="#B3867B" fill="#FF0000" class="color_Republican"/>
          <use xlink:href="#img-cdcfe27b-21" x="226.24" y="80.38" stroke="#B3867B" fill="#FF0000" class="color_Republican"/>
          <use xlink:href="#img-cdcfe27b-21" x="32.23" y="63.79" stroke="#988BAD" fill="#0000FF" class="color_Democratic"/>
          <use xlink:href="#img-cdcfe27b-21" x="37.08" y="68.62" stroke="#988BAD" fill="#0000FF" class="color_Democratic"/>
          <use xlink:href="#img-cdcfe27b-21" x="41.93" y="85.96" stroke="#988BAD" fill="#0000FF" class="color_Democratic"/>
          <use xlink:href="#img-cdcfe27b-21" x="46.78" y="75.88" stroke="#988BAD" fill="#0000FF" class="color_Democratic"/>
          <use xlink:href="#img-cdcfe27b-21" x="51.63" y="67.18" stroke="#988BAD" fill="#0000FF" class="color_Democratic"/>
          <use xlink:href="#img-cdcfe27b-21" x="56.48" y="74.73" stroke="#988BAD" fill="#0000FF" class="color_Democratic"/>
          <use xlink:href="#img-cdcfe27b-21" x="61.33" y="67.89" stroke="#988BAD" fill="#0000FF" class="color_Democratic"/>
          <use xlink:href="#img-cdcfe27b-21" x="66.18" y="68" stroke="#988BAD" fill="#0000FF" class="color_Democratic"/>
          <use xlink:href="#img-cdcfe27b-21" x="71.03" y="71.79" stroke="#988BAD" fill="#0000FF" class="color_Democratic"/>
          <use xlink:href="#img-cdcfe27b-21" x="75.88" y="70.22" stroke="#988BAD" fill="#0000FF" class="color_Democratic"/>
          <use xlink:href="#img-cdcfe27b-21" x="80.73" y="73.35" stroke="#988BAD" fill="#0000FF" class="color_Democratic"/>
          <use xlink:href="#img-cdcfe27b-21" x="85.58" y="68.48" stroke="#988BAD" fill="#0000FF" class="color_Democratic"/>
          <use xlink:href="#img-cdcfe27b-21" x="90.43" y="76.04" stroke="#988BAD" fill="#0000FF" class="color_Democratic"/>
          <use xlink:href="#img-cdcfe27b-21" x="95.28" y="90.93" stroke="#988BAD" fill="#0000FF" class="color_Democratic"/>
          <use xlink:href="#img-cdcfe27b-21" x="100.14" y="84.64" stroke="#988BAD" fill="#0000FF" class="color_Democratic"/>
          <use xlink:href="#img-cdcfe27b-21" x="104.99" y="75.45" stroke="#988BAD" fill="#0000FF" class="color_Democratic"/>
          <use xlink:href="#img-cdcfe27b-21" x="109.84" y="70.42" stroke="#988BAD" fill="#0000FF" class="color_Democratic"/>
          <use xlink:href="#img-cdcfe27b-21" x="114.69" y="93.69" stroke="#988BAD" fill="#0000FF" class="color_Democratic"/>
          <use xlink:href="#img-cdcfe27b-21" x="119.54" y="110.39" stroke="#988BAD" fill="#0000FF" class="color_Democratic"/>
          <use xlink:href="#img-cdcfe27b-21" x="124.39" y="83.38" stroke="#988BAD" fill="#0000FF" class="color_Democratic"/>
          <use xlink:href="#img-cdcfe27b-21" x="129.24" y="58.21" stroke="#988BAD" fill="#0000FF" class="color_Democratic"/>
          <use xlink:href="#img-cdcfe27b-21" x="134.09" y="49.29" stroke="#988BAD" fill="#0000FF" class="color_Democratic"/>
          <use xlink:href="#img-cdcfe27b-21" x="138.94" y="59.19" stroke="#988BAD" fill="#0000FF" class="color_Democratic"/>
          <use xlink:href="#img-cdcfe27b-21" x="143.79" y="60.19" stroke="#988BAD" fill="#0000FF" class="color_Democratic"/>
          <use xlink:href="#img-cdcfe27b-21" x="148.64" y="69.46" stroke="#988BAD" fill="#0000FF" class="color_Democratic"/>
          <use xlink:href="#img-cdcfe27b-21" x="153.49" y="74.98" stroke="#988BAD" fill="#0000FF" class="color_Democratic"/>
          <use xlink:href="#img-cdcfe27b-21" x="158.34" y="72.89" stroke="#988BAD" fill="#0000FF" class="color_Democratic"/>
          <use xlink:href="#img-cdcfe27b-21" x="163.19" y="67.4" stroke="#988BAD" fill="#0000FF" class="color_Democratic"/>
          <use xlink:href="#img-cdcfe27b-21" x="168.04" y="57.45" stroke="#988BAD" fill="#0000FF" class="color_Democratic"/>
          <use xlink:href="#img-cdcfe27b-21" x="172.89" y="72.4" stroke="#988BAD" fill="#0000FF" class="color_Democratic"/>
          <use xlink:href="#img-cdcfe27b-21" x="177.74" y="75.74" stroke="#988BAD" fill="#0000FF" class="color_Democratic"/>
          <use xlink:href="#img-cdcfe27b-21" x="182.59" y="69.46" stroke="#988BAD" fill="#0000FF" class="color_Democratic"/>
          <use xlink:href="#img-cdcfe27b-21" x="187.44" y="81.59" stroke="#988BAD" fill="#0000FF" class="color_Democratic"/>
          <use xlink:href="#img-cdcfe27b-21" x="192.29" y="76.02" stroke="#988BAD" fill="#0000FF" class="color_Democratic"/>
          <use xlink:href="#img-cdcfe27b-21" x="197.14" y="69.47" stroke="#988BAD" fill="#0000FF" class="color_Democratic"/>
          <use xlink:href="#img-cdcfe27b-21" x="201.99" y="71.09" stroke="#988BAD" fill="#0000FF" class="color_Democratic"/>
          <use xlink:href="#img-cdcfe27b-21" x="206.84" y="65.79" stroke="#988BAD" fill="#0000FF" class="color_Democratic"/>
          <use xlink:href="#img-cdcfe27b-21" x="211.69" y="63.34" stroke="#988BAD" fill="#0000FF" class="color_Democratic"/>
          <use xlink:href="#img-cdcfe27b-21" x="216.54" y="62.45" stroke="#988BAD" fill="#0000FF" class="color_Democratic"/>
          <use xlink:href="#img-cdcfe27b-21" x="221.39" y="55.57" stroke="#988BAD" fill="#0000FF" class="color_Democratic"/>
          <use xlink:href="#img-cdcfe27b-21" x="226.24" y="56.36" stroke="#988BAD" fill="#0000FF" class="color_Democratic"/>
        </g>
      </g>
      <g stroke-width="0.3" fill="#000000" fill-opacity="0.000" stroke-dasharray="none" id="img-cdcfe27b-22">
        <path fill="none" d="M32.23,63.79 L 37.08 68.62 41.93 85.96 46.78 75.88 51.63 67.18 56.48 74.73 61.33 67.89 66.18 68 71.03 71.79 75.88 70.22 80.73 73.35 85.58 68.48 90.43 76.04 95.28 90.93 100.14 84.64 104.99 75.45 109.84 70.42 114.69 93.69 119.54 110.39 124.39 83.38 129.24 58.21 134.09 49.29 138.94 59.19 143.79 60.19 148.64 69.46 153.49 74.98 158.34 72.89 163.19 67.4 168.04 57.45 172.89 72.4 177.74 75.74 182.59 69.46 187.44 81.59 192.29 76.02 197.14 69.47 201.99 71.09 206.84 65.79 211.69 63.34 216.54 62.45 221.39 55.57 226.24 56.36" stroke="#0000FF" class="geometry color_Democratic"/>
        <path fill="none" d="M41.93,85.32 L 46.78 57.98 51.63 66.68 56.48 60.29 61.33 66.02 66.18 68.09 71.03 64.88 75.88 67.28 80.73 73.41 85.58 67.81 90.43 62.38 95.28 54.61 100.14 61.25 104.99 118.35 109.84 70.81 114.69 50.07 119.54 59.44 124.39 51.64 129.24 80.06 134.09 85.98 138.94 75.94 143.79 74.24 148.64 69.92 153.49 59.83 158.34 61.33 163.19 66.83 168.04 76.51 172.89 69.2 177.74 61.73 182.59 67.61 187.44 64.13 192.29 59.11 197.14 65.76 201.99 85.02 206.84 79.2 211.69 75.62 216.54 72.8 221.39 80.56 226.24 80.38" stroke="#FF0000" class="geometry color_Republican"/>
      </g>
    </g>
  </g>
</g>
  <g class="guide ylabels" font-size="4.76" font-family="'PT Sans Caption','Helvetica Neue','Helvetica',sans-serif" fill="#A1A1A1" id="img-cdcfe27b-23">
    <text x="24.38" y="118.95" text-anchor="end" dy="0.35em">0</text>
    <text x="24.38" y="92.94" text-anchor="end" dy="0.35em">25</text>
    <text x="24.38" y="66.93" text-anchor="end" dy="0.35em">50</text>
    <text x="24.38" y="40.92" text-anchor="end" dy="0.35em">75</text>
    <text x="24.38" y="14.91" text-anchor="end" dy="0.35em">100</text>
  </g>
  <g font-size="6.35" font-family="'PT Sans','Helvetica Neue','Helvetica',sans-serif" fill="#A1A1A1" stroke="#000000" stroke-opacity="0.000" id="img-cdcfe27b-24">
    <text x="9.95" y="64.93" text-anchor="middle" dy="0.35em" transform="rotate(-90, 9.95, 66.93)">Popular Vote (%)</text>
  </g>
  <g font-size="6.35" font-family="'PT Sans','Helvetica Neue','Helvetica',sans-serif" fill="#A1A1A1" stroke="#000000" stroke-opacity="0.000" id="img-cdcfe27b-25">
    <text x="129.24" y="5" text-anchor="middle" dy="0.6em">California</text>
  </g>
</g>
<defs>
  <clipPath id="img-cdcfe27b-13">
  <path d="M25.38,12.91 L 233.1 12.91 233.1 120.95 25.38 120.95" />
</clipPath>
  <g id="img-cdcfe27b-21">
    <circle cx="0" cy="0" r="0.9"/>
  </g>
</defs>
</svg>
