<?xml version="1.0" encoding="UTF-8"?>
<svg xmlns="http://www.w3.org/2000/svg"
     xmlns:xlink="http://www.w3.org/1999/xlink"
     xmlns:gadfly="http://www.gadflyjl.org/ns"
     version="1.2"
     width="320mm" height="160mm" viewBox="0 0 320 160"
     stroke="none"
     fill="#000000"
     stroke-width="0.3"
     font-size="3.88"
>
<g class="plotroot xscalable yscalable" id="img-2afde70f-1">
  <g class="guide colorkey" id="img-2afde70f-2">
    <g class="color_Democratic" id="img-2afde70f-3">
      <g fill="#4C404B" font-size="4.76" font-family="'PT Sans','Helvetica Neue','Helvetica',sans-serif" id="img-2afde70f-4">
        <text x="61.86" y="150" dy="0.35em">Democratic</text>
      </g>
      <g fill="#0000FF" stroke="#000000" stroke-opacity="0.000" id="img-2afde70f-5">
        <rect x="57.89" y="148.52" width="2.97" height="2.97"/>
      </g>
    </g>
    <g class="color_Republican" id="img-2afde70f-6">
      <g fill="#4C404B" font-size="4.76" font-family="'PT Sans','Helvetica Neue','Helvetica',sans-serif" id="img-2afde70f-7">
        <text x="30.79" y="150" dy="0.35em">Republican</text>
      </g>
      <g fill="#FF0000" stroke="#000000" stroke-opacity="0.000" id="img-2afde70f-8">
        <rect x="26.82" y="148.52" width="2.97" height="2.97"/>
      </g>
    </g>
    <g fill="#362A35" font-size="6.35" font-family="'PT Sans','Helvetica Neue','Helvetica',sans-serif" stroke="#000000" stroke-opacity="0.000" id="img-2afde70f-9">
      <text x="26.82" y="145.06">Party</text>
    </g>
  </g>
  <g font-size="6.35" font-family="'PT Sans','Helvetica Neue','Helvetica',sans-serif" fill="#564A55" stroke="#000000" stroke-opacity="0.000" id="img-2afde70f-10">
    <text x="170.41" y="131.48" text-anchor="middle" dy="0.6em">Year</text>
  </g>
  <g class="guide xlabels" font-size="4.76" font-family="'PT Sans Caption','Helvetica Neue','Helvetica',sans-serif" fill="#6C606B" id="img-2afde70f-11">
    <text x="27.82" y="123.95" text-anchor="middle" dy="0.6em">1876</text>
    <text x="44.11" y="123.95" text-anchor="middle" dy="0.6em">1884</text>
    <text x="60.41" y="123.95" text-anchor="middle" dy="0.6em">1892</text>
    <text x="76.71" y="123.95" text-anchor="middle" dy="0.6em">1900</text>
    <text x="93" y="123.95" text-anchor="middle" dy="0.6em">1908</text>
    <text x="109.3" y="123.95" text-anchor="middle" dy="0.6em">1916</text>
    <text x="125.59" y="123.95" text-anchor="middle" dy="0.6em">1924</text>
    <text x="141.89" y="123.95" text-anchor="middle" dy="0.6em">1932</text>
    <text x="158.19" y="123.95" text-anchor="middle" dy="0.6em">1940</text>
    <text x="174.48" y="123.95" text-anchor="middle" dy="0.6em">1948</text>
    <text x="190.78" y="123.95" text-anchor="middle" dy="0.6em">1956</text>
    <text x="207.07" y="123.95" text-anchor="middle" dy="0.6em">1964</text>
    <text x="223.37" y="123.95" text-anchor="middle" dy="0.6em">1972</text>
    <text x="239.67" y="123.95" text-anchor="middle" dy="0.6em">1980</text>
    <text x="255.96" y="123.95" text-anchor="middle" dy="0.6em">1988</text>
    <text x="272.26" y="123.95" text-anchor="middle" dy="0.6em">1996</text>
    <text x="288.56" y="123.95" text-anchor="middle" dy="0.6em">2004</text>
    <text x="304.85" y="123.95" text-anchor="middle" dy="0.6em">2012</text>
  </g>
<g clip-path="url(#img-2afde70f-12)">
  <g id="img-2afde70f-13">
    <g pointer-events="visible" opacity="1" fill="#000000" fill-opacity="0.000" stroke="#000000" stroke-opacity="0.000" class="guide background" id="img-2afde70f-14">
      <rect x="25.82" y="13.94" width="289.18" height="109.01"/>
    </g>
    <g class="guide ygridlines xfixed" stroke-dasharray="0.5,0.5" stroke-width="0.26" stroke="#000000" id="img-2afde70f-15">
      <path fill="none" d="M25.82,120.95 L 315 120.95"/>
      <path fill="none" d="M25.82,94.7 L 315 94.7"/>
      <path fill="none" d="M25.82,68.44 L 315 68.44"/>
      <path fill="none" d="M25.82,42.19 L 315 42.19"/>
      <path fill="none" d="M25.82,15.94 L 315 15.94"/>
    </g>
    <g class="guide xgridlines yfixed" stroke-dasharray="0.5,0.5" stroke-width="0.26" stroke="#000000" id="img-2afde70f-16">
      <path fill="none" d="M27.82,13.94 L 27.82 122.95"/>
      <path fill="none" d="M44.11,13.94 L 44.11 122.95"/>
      <path fill="none" d="M60.41,13.94 L 60.41 122.95"/>
      <path fill="none" d="M76.71,13.94 L 76.71 122.95"/>
      <path fill="none" d="M93,13.94 L 93 122.95"/>
      <path fill="none" d="M109.3,13.94 L 109.3 122.95"/>
      <path fill="none" d="M125.59,13.94 L 125.59 122.95"/>
      <path fill="none" d="M141.89,13.94 L 141.89 122.95"/>
      <path fill="none" d="M158.19,13.94 L 158.19 122.95"/>
      <path fill="none" d="M174.48,13.94 L 174.48 122.95"/>
      <path fill="none" d="M190.78,13.94 L 190.78 122.95"/>
      <path fill="none" d="M207.07,13.94 L 207.07 122.95"/>
      <path fill="none" d="M223.37,13.94 L 223.37 122.95"/>
      <path fill="none" d="M239.67,13.94 L 239.67 122.95"/>
      <path fill="none" d="M255.96,13.94 L 255.96 122.95"/>
      <path fill="none" d="M272.26,13.94 L 272.26 122.95"/>
      <path fill="none" d="M288.56,13.94 L 288.56 122.95"/>
      <path fill="none" d="M304.85,13.94 L 304.85 122.95"/>
    </g>
    <g class="plotpanel" id="img-2afde70f-17">
      <g class="geometry" id="img-2afde70f-18">
        <g stroke-width="0.3" id="img-2afde70f-19">
          <use xlink:href="#img-2afde70f-20" x="35.96" y="67.12" fill="#FF0000" class="color_Republican" stroke="#FFFFFF"/>
          <use xlink:href="#img-2afde70f-20" x="44.11" y="63.99" fill="#FF0000" class="color_Republican" stroke="#FFFFFF"/>
          <use xlink:href="#img-2afde70f-20" x="52.26" y="62.96" fill="#FF0000" class="color_Republican" stroke="#FFFFFF"/>
          <use xlink:href="#img-2afde70f-20" x="60.41" y="77.76" fill="#FF0000" class="color_Republican" stroke="#FFFFFF"/>
          <use xlink:href="#img-2afde70f-20" x="68.56" y="106.39" fill="#FF0000" class="color_Republican" stroke="#FFFFFF"/>
          <use xlink:href="#img-2afde70f-20" x="76.71" y="76.81" fill="#FF0000" class="color_Republican" stroke="#FFFFFF"/>
          <use xlink:href="#img-2afde70f-20" x="84.85" y="62.92" fill="#FF0000" class="color_Republican" stroke="#FFFFFF"/>
          <use xlink:href="#img-2afde70f-20" x="93" y="71.72" fill="#FF0000" class="color_Republican" stroke="#FFFFFF"/>
          <use xlink:href="#img-2afde70f-20" x="101.15" y="97.98" fill="#FF0000" class="color_Republican" stroke="#FFFFFF"/>
          <use xlink:href="#img-2afde70f-20" x="109.3" y="84.45" fill="#FF0000" class="color_Republican" stroke="#FFFFFF"/>
          <use xlink:href="#img-2afde70f-20" x="117.45" y="58.66" fill="#FF0000" class="color_Republican" stroke="#FFFFFF"/>
          <use xlink:href="#img-2afde70f-20" x="125.59" y="61.07" fill="#FF0000" class="color_Republican" stroke="#FFFFFF"/>
          <use xlink:href="#img-2afde70f-20" x="133.74" y="52.98" fill="#FF0000" class="color_Republican" stroke="#FFFFFF"/>
          <use xlink:href="#img-2afde70f-20" x="141.89" y="77.45" fill="#FF0000" class="color_Republican" stroke="#FFFFFF"/>
          <use xlink:href="#img-2afde70f-20" x="150.04" y="82" fill="#FF0000" class="color_Republican" stroke="#FFFFFF"/>
          <use xlink:href="#img-2afde70f-20" x="158.19" y="67.47" fill="#FF0000" class="color_Republican" stroke="#FFFFFF"/>
          <use xlink:href="#img-2afde70f-20" x="166.33" y="65.07" fill="#FF0000" class="color_Republican" stroke="#FFFFFF"/>
          <use xlink:href="#img-2afde70f-20" x="174.48" y="72.09" fill="#FF0000" class="color_Republican" stroke="#FFFFFF"/>
          <use xlink:href="#img-2afde70f-20" x="182.63" y="57.66" fill="#FF0000" class="color_Republican" stroke="#FFFFFF"/>
          <use xlink:href="#img-2afde70f-20" x="190.78" y="58.48" fill="#FF0000" class="color_Republican" stroke="#FFFFFF"/>
          <use xlink:href="#img-2afde70f-20" x="198.93" y="63.58" fill="#FF0000" class="color_Republican" stroke="#FFFFFF"/>
          <use xlink:href="#img-2afde70f-20" x="207.07" y="80.84" fill="#FF0000" class="color_Republican" stroke="#FFFFFF"/>
          <use xlink:href="#img-2afde70f-20" x="215.22" y="67.96" fill="#FF0000" class="color_Republican" stroke="#FFFFFF"/>
          <use xlink:href="#img-2afde70f-20" x="223.37" y="55.21" fill="#FF0000" class="color_Republican" stroke="#FFFFFF"/>
          <use xlink:href="#img-2afde70f-20" x="231.52" y="64.19" fill="#FF0000" class="color_Republican" stroke="#FFFFFF"/>
          <use xlink:href="#img-2afde70f-20" x="239.67" y="63.12" fill="#FF0000" class="color_Republican" stroke="#FFFFFF"/>
          <use xlink:href="#img-2afde70f-20" x="247.82" y="54.33" fill="#FF0000" class="color_Republican" stroke="#FFFFFF"/>
          <use xlink:href="#img-2afde70f-20" x="255.96" y="65.23" fill="#FF0000" class="color_Republican" stroke="#FFFFFF"/>
          <use xlink:href="#img-2afde70f-20" x="264.11" y="83.28" fill="#FF0000" class="color_Republican" stroke="#FFFFFF"/>
          <use xlink:href="#img-2afde70f-20" x="272.26" y="72.86" fill="#FF0000" class="color_Republican" stroke="#FFFFFF"/>
          <use xlink:href="#img-2afde70f-20" x="280.41" y="67.66" fill="#FF0000" class="color_Republican" stroke="#FFFFFF"/>
          <use xlink:href="#img-2afde70f-20" x="288.56" y="66.67" fill="#FF0000" class="color_Republican" stroke="#FFFFFF"/>
          <use xlink:href="#img-2afde70f-20" x="296.7" y="74" fill="#FF0000" class="color_Republican" stroke="#FFFFFF"/>
          <use xlink:href="#img-2afde70f-20" x="304.85" y="72.56" fill="#FF0000" class="color_Republican" stroke="#FFFFFF"/>
          <use xlink:href="#img-2afde70f-20" x="35.96" y="72.61" fill="#0000FF" class="color_Democratic" stroke="#FFFFFF"/>
          <use xlink:href="#img-2afde70f-20" x="44.11" y="77.18" fill="#0000FF" class="color_Democratic" stroke="#FFFFFF"/>
          <use xlink:href="#img-2afde70f-20" x="52.26" y="78.07" fill="#0000FF" class="color_Democratic" stroke="#FFFFFF"/>
          <use xlink:href="#img-2afde70f-20" x="60.41" y="120.95" fill="#0000FF" class="color_Democratic" stroke="#FFFFFF"/>
          <use xlink:href="#img-2afde70f-20" x="68.56" y="31.75" fill="#0000FF" class="color_Democratic" stroke="#FFFFFF"/>
          <use xlink:href="#img-2afde70f-20" x="76.71" y="62.74" fill="#0000FF" class="color_Democratic" stroke="#FFFFFF"/>
          <use xlink:href="#img-2afde70f-20" x="84.85" y="77.81" fill="#0000FF" class="color_Democratic" stroke="#FFFFFF"/>
          <use xlink:href="#img-2afde70f-20" x="93" y="70.55" fill="#0000FF" class="color_Democratic" stroke="#FFFFFF"/>
          <use xlink:href="#img-2afde70f-20" x="101.15" y="76" fill="#0000FF" class="color_Democratic" stroke="#FFFFFF"/>
          <use xlink:href="#img-2afde70f-20" x="109.3" y="57.16" fill="#0000FF" class="color_Democratic" stroke="#FFFFFF"/>
          <use xlink:href="#img-2afde70f-20" x="117.45" y="83.22" fill="#0000FF" class="color_Democratic" stroke="#FFFFFF"/>
          <use xlink:href="#img-2afde70f-20" x="125.59" y="97.87" fill="#0000FF" class="color_Democratic" stroke="#FFFFFF"/>
          <use xlink:href="#img-2afde70f-20" x="133.74" y="85.31" fill="#0000FF" class="color_Democratic" stroke="#FFFFFF"/>
          <use xlink:href="#img-2afde70f-20" x="141.89" y="63.39" fill="#0000FF" class="color_Democratic" stroke="#FFFFFF"/>
          <use xlink:href="#img-2afde70f-20" x="150.04" y="57.55" fill="#0000FF" class="color_Democratic" stroke="#FFFFFF"/>
          <use xlink:href="#img-2afde70f-20" x="158.19" y="70.16" fill="#0000FF" class="color_Democratic" stroke="#FFFFFF"/>
          <use xlink:href="#img-2afde70f-20" x="166.33" y="72.23" fill="#0000FF" class="color_Democratic" stroke="#FFFFFF"/>
          <use xlink:href="#img-2afde70f-20" x="174.48" y="66.47" fill="#0000FF" class="color_Democratic" stroke="#FFFFFF"/>
          <use xlink:href="#img-2afde70f-20" x="182.63" y="80.04" fill="#0000FF" class="color_Democratic" stroke="#FFFFFF"/>
          <use xlink:href="#img-2afde70f-20" x="190.78" y="79.14" fill="#0000FF" class="color_Democratic" stroke="#FFFFFF"/>
          <use xlink:href="#img-2afde70f-20" x="198.93" y="73.79" fill="#0000FF" class="color_Democratic" stroke="#FFFFFF"/>
          <use xlink:href="#img-2afde70f-20" x="207.07" y="56.61" fill="#0000FF" class="color_Democratic" stroke="#FFFFFF"/>
          <use xlink:href="#img-2afde70f-20" x="215.22" y="77.56" fill="#0000FF" class="color_Democratic" stroke="#FFFFFF"/>
          <use xlink:href="#img-2afde70f-20" x="223.37" y="84.62" fill="#0000FF" class="color_Democratic" stroke="#FFFFFF"/>
          <use xlink:href="#img-2afde70f-20" x="231.52" y="76.24" fill="#0000FF" class="color_Democratic" stroke="#FFFFFF"/>
          <use xlink:href="#img-2afde70f-20" x="239.67" y="88.33" fill="#0000FF" class="color_Democratic" stroke="#FFFFFF"/>
          <use xlink:href="#img-2afde70f-20" x="247.82" y="84.07" fill="#0000FF" class="color_Democratic" stroke="#FFFFFF"/>
          <use xlink:href="#img-2afde70f-20" x="255.96" y="73.4" fill="#0000FF" class="color_Democratic" stroke="#FFFFFF"/>
          <use xlink:href="#img-2afde70f-20" x="264.11" y="78.81" fill="#0000FF" class="color_Democratic" stroke="#FFFFFF"/>
          <use xlink:href="#img-2afde70f-20" x="272.26" y="74.3" fill="#0000FF" class="color_Democratic" stroke="#FFFFFF"/>
          <use xlink:href="#img-2afde70f-20" x="280.41" y="76.43" fill="#0000FF" class="color_Democratic" stroke="#FFFFFF"/>
          <use xlink:href="#img-2afde70f-20" x="288.56" y="71.57" fill="#0000FF" class="color_Democratic" stroke="#FFFFFF"/>
          <use xlink:href="#img-2afde70f-20" x="296.7" y="64.6" fill="#0000FF" class="color_Democratic" stroke="#FFFFFF"/>
          <use xlink:href="#img-2afde70f-20" x="304.85" y="66.93" fill="#0000FF" class="color_Democratic" stroke="#FFFFFF"/>
        </g>
      </g>
      <g stroke-width="0.53" fill="#000000" fill-opacity="0.000" stroke-dasharray="none" id="img-2afde70f-21">
        <path fill="none" d="M35.96,72.61 L 44.11 77.18 52.26 78.07 60.41 120.95 68.56 31.75 76.71 62.74 84.85 77.81 93 70.55 101.15 76 109.3 57.16 117.45 83.22 125.59 97.87 133.74 85.31 141.89 63.39 150.04 57.55 158.19 70.16 166.33 72.23 174.48 66.47 182.63 80.04 190.78 79.14 198.93 73.79 207.07 56.61 215.22 77.56 223.37 84.62 231.52 76.24 239.67 88.33 247.82 84.07 255.96 73.4 264.11 78.81 272.26 74.3 280.41 76.43 288.56 71.57 296.7 64.6 304.85 66.93" class="geometry color_Democratic" stroke="#0000FF"/>
        <path fill="none" d="M35.96,67.12 L 44.11 63.99 52.26 62.96 60.41 77.76 68.56 106.39 76.71 76.81 84.85 62.92 93 71.72 101.15 97.98 109.3 84.45 117.45 58.66 125.59 61.07 133.74 52.98 141.89 77.45 150.04 82 158.19 67.47 166.33 65.07 174.48 72.09 182.63 57.66 190.78 58.48 198.93 63.58 207.07 80.84 215.22 67.96 223.37 55.21 231.52 64.19 239.67 63.12 247.82 54.33 255.96 65.23 264.11 83.28 272.26 72.86 280.41 67.66 288.56 66.67 296.7 74 304.85 72.56" class="geometry color_Republican" stroke="#FF0000"/>
      </g>
    </g>
  </g>
</g>
  <g class="guide ylabels" font-size="4.76" font-family="'PT Sans Caption','Helvetica Neue','Helvetica',sans-serif" fill="#6C606B" id="img-2afde70f-22">
    <text x="24.82" y="120.95" text-anchor="end" dy="0.35em">0</text>
    <text x="24.82" y="94.7" text-anchor="end" dy="0.35em">25</text>
    <text x="24.82" y="68.44" text-anchor="end" dy="0.35em">50</text>
    <text x="24.82" y="42.19" text-anchor="end" dy="0.35em">75</text>
    <text x="24.82" y="15.94" text-anchor="end" dy="0.35em">100</text>
  </g>
  <g font-size="6.35" font-family="'PT Sans','Helvetica Neue','Helvetica',sans-serif" fill="#564A55" stroke="#000000" stroke-opacity="0.000" id="img-2afde70f-23">
    <text x="10.18" y="66.44" text-anchor="middle" dy="0.35em" transform="rotate(-90, 10.18, 68.44)">Popular Vote (%)</text>
  </g>
  <g font-size="6.35" font-family="'PT Sans','Helvetica Neue','Helvetica',sans-serif" fill="#564A55" stroke="#000000" stroke-opacity="0.000" id="img-2afde70f-24">
    <text x="170.41" y="11.94" text-anchor="middle">Colorado</text>
  </g>
</g>
<defs>
  <clipPath id="img-2afde70f-12">
  <path d="M25.82,13.94 L 315 13.94 315 122.95 25.82 122.95" />
</clipPath>
  <g id="img-2afde70f-20">
    <circle cx="0" cy="0" r="0.9"/>
  </g>
</defs>
</svg>
