<svg xmlns="http://www.w3.org/2000/svg" xmlns:xlink="http://www.w3.org/1999/xlink" version="1.2" width="238.1mm" height="599.924" viewBox="0 0 238.1 158.73" stroke-width=".3" font-size="3.88"><path d="M0 0h238.1v158.73H0z" stroke="#000" stroke-opacity="0" fill="#222831"/><g class="plotroot xscalable yscalable"><g class="guide colorkey"><g class="color_West"><text x="79.45" y="148.78" dy=".35em" fill="#A1A1A1" font-size="3.7" font-family="'PT Sans','Helvetica Neue','Helvetica',sans-serif">West</text><path d="M76.22 147.66h2.22v2.22h-2.22z" fill="#EEDBFF" stroke="#000" stroke-opacity="0"/></g><g class="color_South"><text x="65.99" y="148.78" dy=".35em" fill="#A1A1A1" font-size="3.7" font-family="'PT Sans','Helvetica Neue','Helvetica',sans-serif">South</text><path d="M62.77 147.66h2.22v2.22h-2.22z" fill="#3F9778" stroke="#000" stroke-opacity="0"/></g><g class="color_Northeast"><text x="46.21" y="148.78" dy=".35em" fill="#A1A1A1" font-size="3.7" font-family="'PT Sans','Helvetica Neue','Helvetica',sans-serif">Northeast</text><path d="M42.99 147.66h2.22v2.22h-2.22z" fill="#ECA25C" stroke="#000" stroke-opacity="0"/></g><g class="color_Midwest"><text x="28.66" y="148.78" dy=".35em" fill="#A1A1A1" font-size="3.7" font-family="'PT Sans','Helvetica Neue','Helvetica',sans-serif">Midwest</text><path d="M25.43 147.66h2.22v2.22h-2.22z" fill="#FE4365" stroke="#000" stroke-opacity="0"/></g><text x="25.43" y="145.28" fill="#A1A1A1" font-size="6.35" font-family="'PT Sans','Helvetica Neue','Helvetica',sans-serif" stroke="#000" stroke-opacity="0">Region</text></g><text x="128.76" y="130.46" text-anchor="middle" dy=".6em" font-size="6.35" font-family="'PT Sans','Helvetica Neue','Helvetica',sans-serif" fill="#A1A1A1" stroke="#000" stroke-opacity="0">Year</text><g class="guide xlabels" font-size="4.76" font-family="'PT Sans Caption','Helvetica Neue','Helvetica',sans-serif" fill="#A1A1A1" text-anchor="middle"><text x="26.43" y="121.95" dy=".6em">1856</text><text x="41.78" y="121.95" dy=".6em">1868</text><text x="57.13" y="121.95" dy=".6em">1880</text><text x="72.48" y="121.95" dy=".6em">1892</text><text x="87.83" y="121.95" dy=".6em">1904</text><text x="103.18" y="121.95" dy=".6em">1916</text><text x="118.53" y="121.95" dy=".6em">1928</text><text x="133.88" y="121.95" dy=".6em">1940</text><text x="149.23" y="121.95" dy=".6em">1952</text><text x="164.58" y="121.95" dy=".6em">1964</text><text x="179.93" y="121.95" dy=".6em">1976</text><text x="195.28" y="121.95" dy=".6em">1988</text><text x="210.63" y="121.95" dy=".6em">2000</text><text x="225.98" y="121.95" dy=".6em">2012</text></g><g clip-path="url(#a)"><path d="M24.43 12.91h208.66v108.04H24.43z" pointer-events="visible" fill="#222831" stroke="#000" stroke-opacity="0" class="guide background"/><g class="guide ygridlines xfixed" stroke-dasharray="0.5,0.5" stroke-width=".2" stroke="#575757" fill="none"><path d="M24.43 118.95H233.1M24.43 92.94H233.1M24.43 66.93H233.1M24.43 40.92H233.1M24.43 14.91H233.1"/></g><g class="guide xgridlines yfixed" stroke-dasharray="0.5,0.5" stroke-width=".2" stroke="#575757" fill="none"><path d="M26.43 12.91v108.04M41.78 12.91v108.04M57.13 12.91v108.04M72.48 12.91v108.04M87.83 12.91v108.04M103.18 12.91v108.04M118.53 12.91v108.04M133.88 12.91v108.04M149.23 12.91v108.04M164.58 12.91v108.04M179.93 12.91v108.04M195.28 12.91v108.04M210.63 12.91v108.04M225.98 12.91v108.04"/></g><g class="plotpanel"><g stroke="#000" stroke-opacity="0" class="geometry" fill-opacity=".53"><path d="M225.98 72l-5.12.94-5.11-6.62-5.12 2.47-5.12 5.23-5.11-1.05-5.12-9.89-5.12-4.31-5.11 11.39-5.12 9.38-5.12-29.4-5.11 20.95-5.12 18.13-5.12-14.11-5.11-1.83-5.12 2.99-5.12 13.38-5.11 12.77-5.12 5.26-5.12 3.61-5.11 1.95-5.12-36.4-5.11 19.3-5.12-8.81-5.12 16.3-5.11 2.86-5.12-11.59-5.12 3.28-5.11-7.16-5.12 2.81-5.12 2.6-5.11-4.92-5.12-4.4-5.12.24-5.11.77-5.12-14.59-5.12 18.2-5.11-.67-5.12-14.74v-7.63L36.67 53l5.11 3.66 5.12-2.94 5.12 16.69 5.11 1.8 5.12-4.04 5.12-1.12 5.11 4.7 5.12-8.36 5.12.17 5.11-.56 5.12-.91 5.12 16.12 5.11-10.14 5.12-8.49 5.12 2.86 5.11-14.03 5.12 30.55 5.11 2.16 5.12-3.95 5.12-4.49 5.11-2.28 5.12-11.23 5.12-4.37 5.11 7.01 5.12-6.81 5.12 3.9 5.11-24.32 5.12 31.67 5.12-10.44 5.11-10.94 5.12 6.23 5.12 10.2 5.11.6 5.12-8.52 5.12-2.61 5.11 3.79 5.12-2.01z" fill="#009C71"/><path d="M225.98 84.96l-5.12-.29-5.11-4.49-5.12 4.02-5.12 2.64-5.11-8.86-5.12-6.65-5.12-6.77-5.11 2.39-5.12 6.16-5.12-10.12-5.11 15.11-5.12 17.74-5.12-20.29-5.11-18.35-5.12 6.15-5.12 7.2-5.11 1.01-5.12.34-5.12 9.61-5.11-6.69-5.12-7.7-5.11-17.26-5.12-5.01-5.12 19.23-5.11 13.5-5.12-18.84-5.12 1.44-5.11.76-5.12-5.01-5.12 14.35-5.11-2.03-5.12-.06-5.12.22-5.11 2.66-5.12-6.73-5.12 7.1-5.11-.09-5.12-8.11V35.81l5.12 16.15 5.11.5 5.12-5.58 5.12 13.01 5.11-1.45 5.12.62 5.12-.13 5.11 2.21 5.12-17.45 5.12 6.92 5.11-7.5 5.12 6.97 5.12 20.1 5.11-12.07 5.12-18.22 5.12-1.49 5.11 11.04 5.12 14.86 5.11 8.77 5.12-4.63 5.12-.91 5.11-5.01 5.12-6.27 5.12-7.75 5.11 17.11 5.12 20.27 5.12-20.8 5.11-15.1 5.12 15.15 5.12-5.86 5.11-4.51 5.12 5.99 5.12 9.8 5.11 4.7 5.12-3.4 5.12-2.28 5.11 5.56 5.12-2.12z" fill="#EBA25E"/><path d="M225.98 85.96l-5.12.29-5.11-9.29-5.12.87-5.12.23-5.11-.36-5.12-8.8-5.12-8.92-5.11.57-5.12 7.61-5.12-7.76-5.11 7.94-5.12 16.13-5.12-16.96-5.11-5.91-5.12-2.13-5.12 12.35-5.11 6.46-5.12 2.17-5.12 11.94-5.11-8.98-5.12-30.7-5.11-1.85-5.12 1.54-5.12 25.82-5.11 13.4-5.12-28.19-5.12-9.41-5.11 19.5-5.12 33.29-5.12-37.7-5.11-3.31-5.12-2-5.12 4.21-5.11-1.88-5.12-7.45-5.12 9.41-5.11-9.54-5.12 8.99v-3.09l5.12-10.29 5.11 10.13 5.12-8.57 5.12 8.89 5.11.1 5.12-4.65 5.12-1.03 5.11-12.32L77.6 64.7l5.12-7.85 5.11-19 5.12 12.38 5.12 19.24 5.11-4.03 5.12-25.57 5.12-5.6 5.11 9.79 5.12 33.75 5.11 8.23 5.12-14.06 5.12-2.2 5.11-3.77 5.12-12.29 5.12 1.64 5.11 7.59 5.12 11.31 5.12-15.23 5.11-9.06 5.12 8.85 5.12-10.96 5.11-.41 5.12 9.63 5.12 10.04 5.11-1.41 5.12-6.99 5.12-.32 5.11 7.52 5.12-3.75z" fill="#FDCFFF"/><path d="M225.98 76.02l-5.12 3.95-5.11-7.46-5.12.34-5.12 5.46-5.11-3.09-5.12-6.44-5.12-7.12-5.11 4.28-5.12 4.07-5.12-10.37-5.11 10.88-5.12 16.04-5.12-18.11-5.11-7.8-5.12 2.47-5.12 9.89-5.11-2.72-5.12.36-5.12 13.21-5.11-.27-5.12-24.36-5.11-4.13-5.12.15-5.12 15.26-5.11 10.03-5.12-15.06-5.12-8.51-5.11 9.3-5.12 1.92-5.12 5.1-5.11-5.08-5.12 1.05-5.12-.22-5.11 2.51-5.12-4.37-5.12-3.46-5.11.63-5.12 6.11V55.85l5.12-4.69 5.11 3.56 5.12-3.49 5.12 5.57 5.11-3.44 5.12 5.39 5.12.21 5.11-4.88 5.12 2.68 5.12-1.99 5.11-15.18 5.12 13.61 5.12 18.58 5.11-10.97 5.12-25.79 5.12 1.18 5.11 9.22 5.12 25.31 5.11 4.81 5.12-12.09 5.12-1.43 5.11 1.84 5.12-13.42 5.12.13 5.11 8.89 5.12 17.56 5.12-17.72 5.11-10.78 5.12 13.58 5.12-7.27 5.11-4.36 5.12 7.45 5.12 7.56 5.11.1 5.12-6.05 5.12-1.31 5.11 7.79 5.12-4.2z" fill="#DC6671"/></g><g fill-opacity="0"><path fill="none" d="M31.55 72.5l5.12-.47 5.11 2.17 5.12-10.58 5.12 15.65 5.11.51 5.12-2.14 5.12 1.64 5.11 4.81 5.12-5.48 5.12-1.32 5.11 3.3 5.12-2.1 5.12 13.86 5.11-6.5 5.12-12.39 5.12 5.83 5.11-16.66 5.12 33.47 5.11.1 5.12-3.78 5.12-4.87 5.11-7.52 5.12-12.31 5.12-3.68 5.11 4.42 5.12 3.65 5.12-7.12 5.11-22.63 5.12 30.53 5.12-9.91 5.11-11.16 5.12 5.27 5.12 10.04 5.11.83 5.12-6.87 5.12-2.54 5.11 5.2 5.12-1.47" stroke="#3F9778" class="geometry color_South"/><path fill="none" d="M31.55 49.52l5.12 12.13 5.11.3 5.12-6.34 5.12 9.87 5.11-2.05 5.12.2 5.12-.04 5.11 2.12 5.12-15.9 5.12 5.97 5.11-4.14 5.12 2.77 5.12 19.47 5.11-12.79 5.12-18.72 5.12 1.76 5.11 14.15 5.12 11.28 5.11 7.73 5.12-7.12 5.12-.62 5.11-3.02 5.12-6.73 5.12-6.95 5.11 17.73 5.12 20.28 5.12-19.27 5.11-15.11 5.12 12.64 5.12-6.01 5.11-3.45 5.12 6.38 5.12 8.22 5.11 6.79 5.12-3.03 5.12-3.14 5.11 5.02 5.12-.92" stroke="#ECA25C" class="geometry color_Northeast"/><path fill="none" d="M31.55 65.99l5.12-9.64 5.11 9.84 5.12-8.99 5.12 8.17 5.11.99 5.12-4.43 5.12.48 5.11-4.5 5.12 27.84 5.12-20.57 5.11-19.24 5.12 10.89 5.12 23.71 5.11-8.71 5.12-25.7 5.12-3.57 5.11 5.83 5.12 32.22 5.11 8.61 5.12-13.01 5.12-2.18 5.11-5.12 5.12-12.31 5.12 1.88 5.11 6.75 5.12 14.14 5.12-15.69 5.11-8.5 5.12 8.31 5.12-9.28 5.11-.5 5.12 9.28 5.12 9.42 5.11-.53 5.12-3.61 5.12-.59 5.11 8.4 5.12-2.02" stroke="#EEDBFF" class="geometry color_West"/><path fill="none" d="M31.55 63.16l5.12-5.4 5.11 1.46 5.12-.02 5.12 4.97 5.11-2.97 5.12 2.81 5.12-.42 5.11.1 5.12-1.22 5.12-1.95 5.11-12.24 5.12 11.06 5.12 16.82 5.11-10.5 5.12-20.52 5.12.51 5.11 6.67 5.12 24.84 5.11 2.54 5.12-12.65 5.12-.9 5.11 2.29 5.12-11.66 5.12-1.17 5.11 8.35 5.12 17.83 5.12-16.88 5.11-10.83 5.12 11.98 5.12-5.68 5.11-4.31 5.12 7.28 5.12 7 5.11 1.6 5.12-5.76 5.12-.82 5.11 7.62 5.12-4.08" stroke="#FE4365" class="geometry color_Midwest"/></g><g class="geometry"><use xlink:href="#b" x="31.55" y="63.16" stroke="#B58486" fill="#FE4365" class="color_Midwest"/><use xlink:href="#b" x="31.55" y="49.52" stroke="#AA8B71" fill="#ECA25C" class="color_Northeast"/><use xlink:href="#b" x="31.55" y="72.5" stroke="#6D9A87" fill="#3F9778" class="color_South"/><use xlink:href="#b" x="31.55" y="65.99" stroke="#9B8AAB" fill="#EEDBFF" class="color_West"/><use xlink:href="#b" x="36.67" y="57.76" stroke="#B58486" fill="#FE4365" class="color_Midwest"/><use xlink:href="#b" x="36.67" y="61.65" stroke="#AA8B71" fill="#ECA25C" class="color_Northeast"/><use xlink:href="#b" x="36.67" y="72.03" stroke="#6D9A87" fill="#3F9778" class="color_South"/><use xlink:href="#b" x="36.67" y="56.35" stroke="#9B8AAB" fill="#EEDBFF" class="color_West"/><use xlink:href="#b" x="41.78" y="59.22" stroke="#B58486" fill="#FE4365" class="color_Midwest"/><use xlink:href="#b" x="41.78" y="61.95" stroke="#AA8B71" fill="#ECA25C" class="color_Northeast"/><use xlink:href="#b" x="41.78" y="74.2" stroke="#6D9A87" fill="#3F9778" class="color_South"/><use xlink:href="#b" x="41.78" y="66.19" stroke="#9B8AAB" fill="#EEDBFF" class="color_West"/><use xlink:href="#b" x="46.9" y="59.2" stroke="#B58486" fill="#FE4365" class="color_Midwest"/><use xlink:href="#b" x="46.9" y="55.61" stroke="#AA8B71" fill="#ECA25C" class="color_Northeast"/><use xlink:href="#b" x="46.9" y="63.62" stroke="#6D9A87" fill="#3F9778" class="color_South"/><use xlink:href="#b" x="46.9" y="57.2" stroke="#9B8AAB" fill="#EEDBFF" class="color_West"/><use xlink:href="#b" x="52.02" y="64.17" stroke="#B58486" fill="#FE4365" class="color_Midwest"/><use xlink:href="#b" x="52.02" y="65.48" stroke="#AA8B71" fill="#ECA25C" class="color_Northeast"/><use xlink:href="#b" x="52.02" y="79.27" stroke="#6D9A87" fill="#3F9778" class="color_South"/><use xlink:href="#b" x="52.02" y="65.37" stroke="#9B8AAB" fill="#EEDBFF" class="color_West"/><use xlink:href="#b" x="57.13" y="61.2" stroke="#B58486" fill="#FE4365" class="color_Midwest"/><use xlink:href="#b" x="57.13" y="63.43" stroke="#AA8B71" fill="#ECA25C" class="color_Northeast"/><use xlink:href="#b" x="57.13" y="79.78" stroke="#6D9A87" fill="#3F9778" class="color_South"/><use xlink:href="#b" x="57.13" y="66.36" stroke="#9B8AAB" fill="#EEDBFF" class="color_West"/><use xlink:href="#b" x="62.25" y="64.01" stroke="#B58486" fill="#FE4365" class="color_Midwest"/><use xlink:href="#b" x="62.25" y="63.63" stroke="#AA8B71" fill="#ECA25C" class="color_Northeast"/><use xlink:href="#b" x="62.25" y="77.64" stroke="#6D9A87" fill="#3F9778" class="color_South"/><use xlink:href="#b" x="62.25" y="61.93" stroke="#9B8AAB" fill="#EEDBFF" class="color_West"/><use xlink:href="#b" x="67.37" y="63.59" stroke="#B58486" fill="#FE4365" class="color_Midwest"/><use xlink:href="#b" x="67.37" y="63.59" stroke="#AA8B71" fill="#ECA25C" class="color_Northeast"/><use xlink:href="#b" x="67.37" y="79.28" stroke="#6D9A87" fill="#3F9778" class="color_South"/><use xlink:href="#b" x="67.37" y="62.41" stroke="#9B8AAB" fill="#EEDBFF" class="color_West"/><use xlink:href="#b" x="72.48" y="63.69" stroke="#B58486" fill="#FE4365" class="color_Midwest"/><use xlink:href="#b" x="72.48" y="65.71" stroke="#AA8B71" fill="#ECA25C" class="color_Northeast"/><use xlink:href="#b" x="72.48" y="84.09" stroke="#6D9A87" fill="#3F9778" class="color_South"/><use xlink:href="#b" x="72.48" y="57.91" stroke="#9B8AAB" fill="#EEDBFF" class="color_West"/><use xlink:href="#b" x="77.6" y="62.47" stroke="#B58486" fill="#FE4365" class="color_Midwest"/><use xlink:href="#b" x="77.6" y="49.81" stroke="#AA8B71" fill="#ECA25C" class="color_Northeast"/><use xlink:href="#b" x="77.6" y="78.61" stroke="#6D9A87" fill="#3F9778" class="color_South"/><use xlink:href="#b" x="77.6" y="85.75" stroke="#9B8AAB" fill="#EEDBFF" class="color_West"/><use xlink:href="#b" x="82.72" y="60.52" stroke="#B58486" fill="#FE4365" class="color_Midwest"/><use xlink:href="#b" x="82.72" y="55.78" stroke="#AA8B71" fill="#ECA25C" class="color_Northeast"/><use xlink:href="#b" x="82.72" y="77.29" stroke="#6D9A87" fill="#3F9778" class="color_South"/><use xlink:href="#b" x="82.72" y="65.18" stroke="#9B8AAB" fill="#EEDBFF" class="color_West"/><use xlink:href="#b" x="87.83" y="48.28" stroke="#B58486" fill="#FE4365" class="color_Midwest"/><use xlink:href="#b" x="87.83" y="51.64" stroke="#AA8B71" fill="#ECA25C" class="color_Northeast"/><use xlink:href="#b" x="87.83" y="80.59" stroke="#6D9A87" fill="#3F9778" class="color_South"/><use xlink:href="#b" x="87.83" y="45.94" stroke="#9B8AAB" fill="#EEDBFF" class="color_West"/><use xlink:href="#b" x="92.95" y="59.34" stroke="#B58486" fill="#FE4365" class="color_Midwest"/><use xlink:href="#b" x="92.95" y="54.41" stroke="#AA8B71" fill="#ECA25C" class="color_Northeast"/><use xlink:href="#b" x="92.95" y="78.49" stroke="#6D9A87" fill="#3F9778" class="color_South"/><use xlink:href="#b" x="92.95" y="56.83" stroke="#9B8AAB" fill="#EEDBFF" class="color_West"/><use xlink:href="#b" x="98.07" y="76.16" stroke="#B58486" fill="#FE4365" class="color_Midwest"/><use xlink:href="#b" x="98.07" y="73.88" stroke="#AA8B71" fill="#ECA25C" class="color_Northeast"/><use xlink:href="#b" x="98.07" y="92.35" stroke="#6D9A87" fill="#3F9778" class="color_South"/><use xlink:href="#b" x="98.07" y="80.54" stroke="#9B8AAB" fill="#EEDBFF" class="color_West"/><use xlink:href="#b" x="103.18" y="65.66" stroke="#B58486" fill="#FE4365" class="color_Midwest"/><use xlink:href="#b" x="103.18" y="61.09" stroke="#AA8B71" fill="#ECA25C" class="color_Northeast"/><use xlink:href="#b" x="103.18" y="85.85" stroke="#6D9A87" fill="#3F9778" class="color_South"/><use xlink:href="#b" x="103.18" y="71.83" stroke="#9B8AAB" fill="#EEDBFF" class="color_West"/><use xlink:href="#b" x="108.3" y="45.14" stroke="#B58486" fill="#FE4365" class="color_Midwest"/><use xlink:href="#b" x="108.3" y="42.37" stroke="#AA8B71" fill="#ECA25C" class="color_Northeast"/><use xlink:href="#b" x="108.3" y="73.46" stroke="#6D9A87" fill="#3F9778" class="color_South"/><use xlink:href="#b" x="108.3" y="46.13" stroke="#9B8AAB" fill="#EEDBFF" class="color_West"/><use xlink:href="#b" x="113.42" y="45.65" stroke="#B58486" fill="#FE4365" class="color_Midwest"/><use xlink:href="#b" x="113.42" y="44.13" stroke="#AA8B71" fill="#ECA25C" class="color_Northeast"/><use xlink:href="#b" x="113.42" y="79.29" stroke="#6D9A87" fill="#3F9778" class="color_South"/><use xlink:href="#b" x="113.42" y="42.56" stroke="#9B8AAB" fill="#EEDBFF" class="color_West"/><use xlink:href="#b" x="118.53" y="52.32" stroke="#B58486" fill="#FE4365" class="color_Midwest"/><use xlink:href="#b" x="118.53" y="58.28" stroke="#AA8B71" fill="#ECA25C" class="color_Northeast"/><use xlink:href="#b" x="118.53" y="62.63" stroke="#6D9A87" fill="#3F9778" class="color_South"/><use xlink:href="#b" x="118.53" y="48.39" stroke="#9B8AAB" fill="#EEDBFF" class="color_West"/><use xlink:href="#b" x="123.65" y="77.16" stroke="#B58486" fill="#FE4365" class="color_Midwest"/><use xlink:href="#b" x="123.65" y="69.56" stroke="#AA8B71" fill="#ECA25C" class="color_Northeast"/><use xlink:href="#b" x="123.65" y="96.1" stroke="#6D9A87" fill="#3F9778" class="color_South"/><use xlink:href="#b" x="123.65" y="80.61" stroke="#9B8AAB" fill="#EEDBFF" class="color_West"/><use xlink:href="#b" x="128.76" y="79.7" stroke="#B58486" fill="#FE4365" class="color_Midwest"/><use xlink:href="#b" x="128.76" y="77.29" stroke="#AA8B71" fill="#ECA25C" class="color_Northeast"/><use xlink:href="#b" x="128.76" y="96.2" stroke="#6D9A87" fill="#3F9778" class="color_South"/><use xlink:href="#b" x="128.76" y="89.22" stroke="#9B8AAB" fill="#EEDBFF" class="color_West"/><use xlink:href="#b" x="133.88" y="67.05" stroke="#B58486" fill="#FE4365" class="color_Midwest"/><use xlink:href="#b" x="133.88" y="70.17" stroke="#AA8B71" fill="#ECA25C" class="color_Northeast"/><use xlink:href="#b" x="133.88" y="92.42" stroke="#6D9A87" fill="#3F9778" class="color_South"/><use xlink:href="#b" x="133.88" y="76.21" stroke="#9B8AAB" fill="#EEDBFF" class="color_West"/><use xlink:href="#b" x="139" y="66.15" stroke="#B58486" fill="#FE4365" class="color_Midwest"/><use xlink:href="#b" x="139" y="69.55" stroke="#AA8B71" fill="#ECA25C" class="color_Northeast"/><use xlink:href="#b" x="139" y="87.55" stroke="#6D9A87" fill="#3F9778" class="color_South"/><use xlink:href="#b" x="139" y="74.03" stroke="#9B8AAB" fill="#EEDBFF" class="color_West"/><use xlink:href="#b" x="144.11" y="68.44" stroke="#B58486" fill="#FE4365" class="color_Midwest"/><use xlink:href="#b" x="144.11" y="66.53" stroke="#AA8B71" fill="#ECA25C" class="color_Northeast"/><use xlink:href="#b" x="144.11" y="80.03" stroke="#6D9A87" fill="#3F9778" class="color_South"/><use xlink:href="#b" x="144.11" y="68.91" stroke="#9B8AAB" fill="#EEDBFF" class="color_West"/><use xlink:href="#b" x="149.23" y="56.78" stroke="#B58486" fill="#FE4365" class="color_Midwest"/><use xlink:href="#b" x="149.23" y="59.8" stroke="#AA8B71" fill="#ECA25C" class="color_Northeast"/><use xlink:href="#b" x="149.23" y="67.72" stroke="#6D9A87" fill="#3F9778" class="color_South"/><use xlink:href="#b" x="149.23" y="56.6" stroke="#9B8AAB" fill="#EEDBFF" class="color_West"/><use xlink:href="#b" x="154.35" y="55.61" stroke="#B58486" fill="#FE4365" class="color_Midwest"/><use xlink:href="#b" x="154.35" y="52.85" stroke="#AA8B71" fill="#ECA25C" class="color_Northeast"/><use xlink:href="#b" x="154.35" y="64.04" stroke="#6D9A87" fill="#3F9778" class="color_South"/><use xlink:href="#b" x="154.35" y="58.48" stroke="#9B8AAB" fill="#EEDBFF" class="color_West"/><use xlink:href="#b" x="159.46" y="63.96" stroke="#B58486" fill="#FE4365" class="color_Midwest"/><use xlink:href="#b" x="159.46" y="70.58" stroke="#AA8B71" fill="#ECA25C" class="color_Northeast"/><use xlink:href="#b" x="159.46" y="68.46" stroke="#6D9A87" fill="#3F9778" class="color_South"/><use xlink:href="#b" x="159.46" y="65.23" stroke="#9B8AAB" fill="#EEDBFF" class="color_West"/><use xlink:href="#b" x="164.58" y="81.79" stroke="#B58486" fill="#FE4365" class="color_Midwest"/><use xlink:href="#b" x="164.58" y="90.86" stroke="#AA8B71" fill="#ECA25C" class="color_Northeast"/><use xlink:href="#b" x="164.58" y="72.11" stroke="#6D9A87" fill="#3F9778" class="color_South"/><use xlink:href="#b" x="164.58" y="79.37" stroke="#9B8AAB" fill="#EEDBFF" class="color_West"/><use xlink:href="#b" x="169.7" y="64.91" stroke="#B58486" fill="#FE4365" class="color_Midwest"/><use xlink:href="#b" x="169.7" y="71.59" stroke="#AA8B71" fill="#ECA25C" class="color_Northeast"/><use xlink:href="#b" x="169.7" y="64.99" stroke="#6D9A87" fill="#3F9778" class="color_South"/><use xlink:href="#b" x="169.7" y="63.68" stroke="#9B8AAB" fill="#EEDBFF" class="color_West"/><use xlink:href="#b" x="174.81" y="54.08" stroke="#B58486" fill="#FE4365" class="color_Midwest"/><use xlink:href="#b" x="174.81" y="56.48" stroke="#AA8B71" fill="#ECA25C" class="color_Northeast"/><use xlink:href="#b" x="174.81" y="42.36" stroke="#6D9A87" fill="#3F9778" class="color_South"/><use xlink:href="#b" x="174.81" y="55.18" stroke="#9B8AAB" fill="#EEDBFF" class="color_West"/><use xlink:href="#b" x="179.93" y="66.06" stroke="#B58486" fill="#FE4365" class="color_Midwest"/><use xlink:href="#b" x="179.93" y="69.12" stroke="#AA8B71" fill="#ECA25C" class="color_Northeast"/><use xlink:href="#b" x="179.93" y="72.89" stroke="#6D9A87" fill="#3F9778" class="color_South"/><use xlink:href="#b" x="179.93" y="63.49" stroke="#9B8AAB" fill="#EEDBFF" class="color_West"/><use xlink:href="#b" x="185.05" y="60.38" stroke="#B58486" fill="#FE4365" class="color_Midwest"/><use xlink:href="#b" x="185.05" y="63.11" stroke="#AA8B71" fill="#ECA25C" class="color_Northeast"/><use xlink:href="#b" x="185.05" y="62.98" stroke="#6D9A87" fill="#3F9778" class="color_South"/><use xlink:href="#b" x="185.05" y="54.21" stroke="#9B8AAB" fill="#EEDBFF" class="color_West"/><use xlink:href="#b" x="190.16" y="56.07" stroke="#B58486" fill="#FE4365" class="color_Midwest"/><use xlink:href="#b" x="190.16" y="59.66" stroke="#AA8B71" fill="#ECA25C" class="color_Northeast"/><use xlink:href="#b" x="190.16" y="51.82" stroke="#6D9A87" fill="#3F9778" class="color_South"/><use xlink:href="#b" x="190.16" y="53.71" stroke="#9B8AAB" fill="#EEDBFF" class="color_West"/><use xlink:href="#b" x="195.28" y="63.35" stroke="#B58486" fill="#FE4365" class="color_Midwest"/><use xlink:href="#b" x="195.28" y="66.04" stroke="#AA8B71" fill="#ECA25C" class="color_Northeast"/><use xlink:href="#b" x="195.28" y="57.09" stroke="#6D9A87" fill="#3F9778" class="color_South"/><use xlink:href="#b" x="195.28" y="62.99" stroke="#9B8AAB" fill="#EEDBFF" class="color_West"/><use xlink:href="#b" x="200.4" y="70.35" stroke="#B58486" fill="#FE4365" class="color_Midwest"/><use xlink:href="#b" x="200.4" y="74.26" stroke="#AA8B71" fill="#ECA25C" class="color_Northeast"/><use xlink:href="#b" x="200.4" y="67.13" stroke="#6D9A87" fill="#3F9778" class="color_South"/><use xlink:href="#b" x="200.4" y="72.41" stroke="#9B8AAB" fill="#EEDBFF" class="color_West"/><use xlink:href="#b" x="205.51" y="71.95" stroke="#B58486" fill="#FE4365" class="color_Midwest"/><use xlink:href="#b" x="205.51" y="81.05" stroke="#AA8B71" fill="#ECA25C" class="color_Northeast"/><use xlink:href="#b" x="205.51" y="67.96" stroke="#6D9A87" fill="#3F9778" class="color_South"/><use xlink:href="#b" x="205.51" y="71.88" stroke="#9B8AAB" fill="#EEDBFF" class="color_West"/><use xlink:href="#b" x="210.63" y="66.19" stroke="#B58486" fill="#FE4365" class="color_Midwest"/><use xlink:href="#b" x="210.63" y="78.02" stroke="#AA8B71" fill="#ECA25C" class="color_Northeast"/><use xlink:href="#b" x="210.63" y="61.09" stroke="#6D9A87" fill="#3F9778" class="color_South"/><use xlink:href="#b" x="210.63" y="68.27" stroke="#9B8AAB" fill="#EEDBFF" class="color_West"/><use xlink:href="#b" x="215.75" y="65.37" stroke="#B58486" fill="#FE4365" class="color_Midwest"/><use xlink:href="#b" x="215.75" y="74.88" stroke="#AA8B71" fill="#ECA25C" class="color_Northeast"/><use xlink:href="#b" x="215.75" y="58.55" stroke="#6D9A87" fill="#3F9778" class="color_South"/><use xlink:href="#b" x="215.75" y="67.68" stroke="#9B8AAB" fill="#EEDBFF" class="color_West"/><use xlink:href="#b" x="220.86" y="72.99" stroke="#B58486" fill="#FE4365" class="color_Midwest"/><use xlink:href="#b" x="220.86" y="79.9" stroke="#AA8B71" fill="#ECA25C" class="color_Northeast"/><use xlink:href="#b" x="220.86" y="63.75" stroke="#6D9A87" fill="#3F9778" class="color_South"/><use xlink:href="#b" x="220.86" y="76.08" stroke="#9B8AAB" fill="#EEDBFF" class="color_West"/><use xlink:href="#b" x="225.98" y="68.91" stroke="#B58486" fill="#FE4365" class="color_Midwest"/><use xlink:href="#b" x="225.98" y="78.98" stroke="#AA8B71" fill="#ECA25C" class="color_Northeast"/><use xlink:href="#b" x="225.98" y="62.28" stroke="#6D9A87" fill="#3F9778" class="color_South"/><use xlink:href="#b" x="225.98" y="74.06" stroke="#9B8AAB" fill="#EEDBFF" class="color_West"/></g></g></g><g class="guide ylabels" font-size="4.76" font-family="'PT Sans Caption','Helvetica Neue','Helvetica',sans-serif" fill="#A1A1A1" text-anchor="end"><text x="23.43" y="118.95" dy=".35em">-40</text><text x="23.43" y="92.94" dy=".35em">-20</text><text x="23.43" y="66.93" dy=".35em">0</text><text x="23.43" y="40.92" dy=".35em">20</text><text x="23.43" y="14.91" dy=".35em">40</text></g><text x="9.95" y="64.93" text-anchor="middle" dy=".35em" transform="rotate(-90 9.95 66.93)" font-size="6.35" font-family="'PT Sans','Helvetica Neue','Helvetica',sans-serif" fill="#A1A1A1" stroke="#000" stroke-opacity="0">Difference (%)</text><text x="128.76" y="5" text-anchor="middle" dy=".6em" font-size="6.35" font-family="'PT Sans','Helvetica Neue','Helvetica',sans-serif" fill="#A1A1A1" stroke="#000" stroke-opacity="0">Republican - Democratic Popular Vote (%) by Region</text></g><defs><clipPath id="a"><path d="M24.43 12.91H233.1v108.04H24.43"/></clipPath><circle r=".9" id="b"/></defs></svg>