<?xml version="1.0" encoding="UTF-8"?>
<svg xmlns="http://www.w3.org/2000/svg"
     xmlns:xlink="http://www.w3.org/1999/xlink"
     xmlns:gadfly="http://www.gadflyjl.org/ns"
     version="1.2"
     width="120mm" height="80mm" viewBox="0 0 120 80"
     stroke="none"
     fill="#000000"
     stroke-width="0.3"
     font-size="3.88"
>
<g class="plotroot xscalable yscalable" id="img-a3009f16-1">
  <g font-size="5.29" font-family="'PT Sans','Helvetica Neue','Helvetica',sans-serif" fill="#564A55" stroke="#000000" stroke-opacity="0.000" id="img-a3009f16-2">
    <text x="69.17" y="68.12" text-anchor="middle" dy="0.6em">Year</text>
  </g>
  <g class="guide xlabels" font-size="3.7" font-family="'PT Sans Caption','Helvetica Neue','Helvetica',sans-serif" fill="#6C606B" id="img-a3009f16-3">
    <text x="25.35" y="54.59" text-anchor="end" dy="0.35em" transform="rotate(-90, 25.35, 54.59)">1908</text>
    <text x="31.96" y="54.59" text-anchor="end" dy="0.35em" transform="rotate(-90, 31.96, 54.59)">1916</text>
    <text x="38.58" y="54.59" text-anchor="end" dy="0.35em" transform="rotate(-90, 38.58, 54.59)">1924</text>
    <text x="45.19" y="54.59" text-anchor="end" dy="0.35em" transform="rotate(-90, 45.19, 54.59)">1932</text>
    <text x="51.81" y="54.59" text-anchor="end" dy="0.35em" transform="rotate(-90, 51.81, 54.59)">1940</text>
    <text x="58.42" y="54.59" text-anchor="end" dy="0.35em" transform="rotate(-90, 58.42, 54.59)">1948</text>
    <text x="65.04" y="54.59" text-anchor="end" dy="0.35em" transform="rotate(-90, 65.04, 54.59)">1956</text>
    <text x="71.65" y="54.59" text-anchor="end" dy="0.35em" transform="rotate(-90, 71.65, 54.59)">1964</text>
    <text x="78.27" y="54.59" text-anchor="end" dy="0.35em" transform="rotate(-90, 78.27, 54.59)">1972</text>
    <text x="84.88" y="54.59" text-anchor="end" dy="0.35em" transform="rotate(-90, 84.88, 54.59)">1980</text>
    <text x="91.5" y="54.59" text-anchor="end" dy="0.35em" transform="rotate(-90, 91.5, 54.59)">1988</text>
    <text x="98.12" y="54.59" text-anchor="end" dy="0.35em" transform="rotate(-90, 98.12, 54.59)">1996</text>
    <text x="104.73" y="54.59" text-anchor="end" dy="0.35em" transform="rotate(-90, 104.73, 54.59)">2004</text>
    <text x="111.35" y="54.59" text-anchor="end" dy="0.35em" transform="rotate(-90, 111.35, 54.59)">2012</text>
  </g>
<g clip-path="url(#img-a3009f16-4)">
  <g id="img-a3009f16-5">
    <g pointer-events="visible" opacity="1" fill="#000000" fill-opacity="0.000" stroke="#000000" stroke-opacity="0.000" class="guide background" id="img-a3009f16-6">
      <rect x="23.35" y="5" width="91.65" height="48.59"/>
    </g>
    <g class="guide ygridlines xfixed" stroke-dasharray="0.5,0.5" stroke-width="0.26" stroke="#000000" id="img-a3009f16-7">
      <path fill="none" d="M23.35,51.59 L 115 51.59"/>
      <path fill="none" d="M23.35,40.45 L 115 40.45"/>
      <path fill="none" d="M23.35,29.3 L 115 29.3"/>
      <path fill="none" d="M23.35,18.15 L 115 18.15"/>
      <path fill="none" d="M23.35,7 L 115 7"/>
    </g>
    <g class="guide xgridlines yfixed" stroke-dasharray="0.5,0.5" stroke-width="0.26" stroke="#000000" id="img-a3009f16-8">
      <path fill="none" d="M25.35,5 L 25.35 53.59"/>
      <path fill="none" d="M31.96,5 L 31.96 53.59"/>
      <path fill="none" d="M38.58,5 L 38.58 53.59"/>
      <path fill="none" d="M45.19,5 L 45.19 53.59"/>
      <path fill="none" d="M51.81,5 L 51.81 53.59"/>
      <path fill="none" d="M58.42,5 L 58.42 53.59"/>
      <path fill="none" d="M65.04,5 L 65.04 53.59"/>
      <path fill="none" d="M71.65,5 L 71.65 53.59"/>
      <path fill="none" d="M78.27,5 L 78.27 53.59"/>
      <path fill="none" d="M84.88,5 L 84.88 53.59"/>
      <path fill="none" d="M91.5,5 L 91.5 53.59"/>
      <path fill="none" d="M98.12,5 L 98.12 53.59"/>
      <path fill="none" d="M104.73,5 L 104.73 53.59"/>
      <path fill="none" d="M111.35,5 L 111.35 53.59"/>
    </g>
    <g class="plotpanel" id="img-a3009f16-9">
      <g shape-rendering="crispEdges" stroke-width="0.3" id="img-a3009f16-10">
        <g stroke="#000000" stroke-opacity="0.000" fill="#00BFFF" class="geometry" id="img-a3009f16-11">
          <rect x="26.98" y="18.91" width="3.36" height="10.38"/>
          <rect x="30.28" y="15.01" width="3.36" height="14.29"/>
          <rect x="33.59" y="12.11" width="3.36" height="17.19"/>
          <rect x="36.9" y="9.2" width="3.36" height="20.09"/>
          <rect x="40.21" y="20.61" width="3.36" height="8.69"/>
          <rect x="43.51" y="15.85" width="3.36" height="13.45"/>
          <rect x="46.82" y="17.82" width="3.36" height="11.48"/>
          <rect x="50.13" y="16.52" width="3.36" height="12.78"/>
          <rect x="53.44" y="18.32" width="3.36" height="10.98"/>
          <rect x="56.74" y="28.63" width="3.36" height="0.66"/>
          <rect x="60.05" y="26.55" width="3.36" height="2.75"/>
          <rect x="63.36" y="25.52" width="3.36" height="3.78"/>
          <rect x="66.67" y="29.3" width="3.36" height="2.31"/>
          <rect x="69.98" y="29.3" width="3.36" height="18.12"/>
          <rect x="73.28" y="29.3" width="3.36" height="6.01"/>
          <rect x="76.59" y="29.3" width="3.36" height="11.89"/>
          <rect x="79.9" y="29.3" width="3.36" height="2.11"/>
          <rect x="83.21" y="29.3" width="3.36" height="4.13"/>
          <rect x="86.51" y="29.3" width="3.36" height="7.65"/>
          <rect x="89.82" y="29.3" width="3.36" height="8.97"/>
          <rect x="93.13" y="29.3" width="3.36" height="7.96"/>
          <rect x="96.44" y="29.3" width="3.36" height="9.41"/>
          <rect x="99.74" y="29.3" width="3.36" height="10.78"/>
          <rect x="103.05" y="29.3" width="3.36" height="11.68"/>
          <rect x="106.36" y="29.3" width="3.36" height="12.94"/>
          <rect x="109.67" y="29.3" width="3.36" height="12.58"/>
        </g>
      </g>
    </g>
  </g>
</g>
  <g class="guide ylabels" font-size="3.7" font-family="'PT Sans Caption','Helvetica Neue','Helvetica',sans-serif" fill="#6C606B" id="img-a3009f16-12">
    <text x="22.35" y="51.59" text-anchor="end" dy="0.35em">-0.4</text>
    <text x="22.35" y="40.45" text-anchor="end" dy="0.35em">-0.2</text>
    <text x="22.35" y="29.3" text-anchor="end" dy="0.35em">0.0</text>
    <text x="22.35" y="18.15" text-anchor="end" dy="0.35em">0.2</text>
    <text x="22.35" y="7" text-anchor="end" dy="0.35em">0.4</text>
  </g>
  <g font-size="5.29" font-family="'PT Sans','Helvetica Neue','Helvetica',sans-serif" fill="#564A55" stroke="#000000" stroke-opacity="0.000" id="img-a3009f16-13">
    <text x="9.47" y="27.3" text-anchor="middle" dy="0.35em" transform="rotate(-90, 9.47, 29.3)">PC1 Loadings</text>
  </g>
</g>
<defs>
  <clipPath id="img-a3009f16-4">
  <path d="M23.35,5 L 115 5 115 53.59 23.35 53.59" />
</clipPath>
</defs>
</svg>
