<?xml version="1.0" encoding="UTF-8"?>
<svg xmlns="http://www.w3.org/2000/svg"
     xmlns:xlink="http://www.w3.org/1999/xlink"
     xmlns:gadfly="http://www.gadflyjl.org/ns"
     version="1.2"
     width="120mm" height="80mm" viewBox="0 0 120 80"
     stroke="none"
     fill="#000000"
     stroke-width="0.3"
     font-size="3.88"
>
<g class="plotroot xscalable yscalable" id="img-ca2d39af-1">
  <g font-size="5.29" font-family="'PT Sans','Helvetica Neue','Helvetica',sans-serif" fill="#FFFFFF" stroke="#000000" stroke-opacity="0.000" id="img-ca2d39af-2">
    <text x="68.64" y="68.12" text-anchor="middle" dy="0.6em">Year</text>
  </g>
  <g class="guide xlabels" font-size="3.7" font-family="'PT Sans Caption','Helvetica Neue','Helvetica',sans-serif" fill="#FFFFFF" id="img-ca2d39af-3">
    <text x="24.29" y="61.3" text-anchor="middle" dy="0.6em">1960</text>
    <text x="36.96" y="61.3" text-anchor="middle" dy="0.6em">1968</text>
    <text x="49.63" y="61.3" text-anchor="middle" dy="0.6em">1976</text>
    <text x="62.31" y="61.3" text-anchor="middle" dy="0.6em">1984</text>
    <text x="74.98" y="61.3" text-anchor="middle" dy="0.6em">1992</text>
    <text x="87.65" y="61.3" text-anchor="middle" dy="0.6em">2000</text>
    <text x="100.33" y="61.3" text-anchor="middle" dy="0.6em">2008</text>
    <text x="113" y="61.3" text-anchor="middle" dy="0.6em">2016</text>
  </g>
<g clip-path="url(#img-ca2d39af-4)">
  <g id="img-ca2d39af-5">
    <g pointer-events="visible" opacity="1" fill="#000000" fill-opacity="0.000" stroke="#000000" stroke-opacity="0.000" class="guide background" id="img-ca2d39af-6">
      <rect x="22.29" y="5" width="92.71" height="55.3"/>
    </g>
    <g class="guide ygridlines xfixed" stroke-dasharray="0.5,0.5" stroke-width="0.26" stroke="#FFFFFF" id="img-ca2d39af-7">
      <path fill="none" d="M22.29,58.3 L 115 58.3"/>
      <path fill="none" d="M22.29,41.2 L 115 41.2"/>
      <path fill="none" d="M22.29,24.1 L 115 24.1"/>
      <path fill="none" d="M22.29,7 L 115 7"/>
    </g>
    <g class="guide xgridlines yfixed" stroke-dasharray="0.5,0.5" stroke-width="0.26" stroke="#FFFFFF" id="img-ca2d39af-8">
      <path fill="none" d="M24.29,5 L 24.29 60.3"/>
      <path fill="none" d="M36.96,5 L 36.96 60.3"/>
      <path fill="none" d="M49.63,5 L 49.63 60.3"/>
      <path fill="none" d="M62.31,5 L 62.31 60.3"/>
      <path fill="none" d="M74.98,5 L 74.98 60.3"/>
      <path fill="none" d="M87.65,5 L 87.65 60.3"/>
      <path fill="none" d="M100.33,5 L 100.33 60.3"/>
      <path fill="none" d="M113,5 L 113 60.3"/>
    </g>
    <g class="plotpanel" id="img-ca2d39af-9">
      <g shape-rendering="crispEdges" stroke-width="0.3" id="img-ca2d39af-10">
        <g stroke="#000000" stroke-opacity="0.000" fill="#00BFFF" class="geometry" id="img-ca2d39af-11">
          <rect x="27.43" y="19.98" width="6.39" height="21.22"/>
          <rect x="33.77" y="41.2" width="6.39" height="7"/>
          <rect x="40.11" y="36.51" width="6.39" height="4.68"/>
          <rect x="46.44" y="41.2" width="6.39" height="15.89"/>
          <rect x="52.78" y="41.2" width="6.39" height="13.51"/>
          <rect x="59.11" y="41.2" width="6.39" height="6"/>
          <rect x="65.45" y="41.2" width="6.39" height="1.97"/>
          <rect x="71.79" y="41.2" width="6.39" height="3.24"/>
          <rect x="78.12" y="41.2" width="6.39" height="0.78"/>
          <rect x="84.46" y="39.57" width="6.39" height="1.63"/>
          <rect x="90.8" y="37.36" width="6.39" height="3.84"/>
          <rect x="97.13" y="32.39" width="6.39" height="8.81"/>
          <rect x="103.47" y="32.99" width="6.39" height="8.21"/>
        </g>
      </g>
    </g>
  </g>
</g>
  <g class="guide ylabels" font-size="3.7" font-family="'PT Sans Caption','Helvetica Neue','Helvetica',sans-serif" fill="#FFFFFF" id="img-ca2d39af-12">
    <text x="21.29" y="58.3" text-anchor="end" dy="0.35em">-0.5</text>
    <text x="21.29" y="41.2" text-anchor="end" dy="0.35em">0.0</text>
    <text x="21.29" y="24.1" text-anchor="end" dy="0.35em">0.5</text>
    <text x="21.29" y="7" text-anchor="end" dy="0.35em">1.0</text>
  </g>
  <g font-size="5.29" font-family="'PT Sans','Helvetica Neue','Helvetica',sans-serif" fill="#FFFFFF" stroke="#000000" stroke-opacity="0.000" id="img-ca2d39af-13">
    <text x="9.47" y="30.65" text-anchor="middle" dy="0.35em" transform="rotate(-90, 9.47, 32.65)">PC1 Loadings</text>
  </g>
</g>
<defs>
  <clipPath id="img-ca2d39af-4">
  <path d="M22.29,5 L 115 5 115 60.3 22.29 60.3" />
</clipPath>
</defs>
</svg>
