<svg xmlns="http://www.w3.org/2000/svg" version="1.2" width="599.924" height="449.953" viewBox="0 0 158.73 119.05" stroke-width=".3" font-size="3.88"><path d="M0 0h158.73v119.05H0z" stroke="#000" stroke-opacity="0" fill="#222831"/><g class="plotroot xscalable yscalable"><text x="88.2" y="106.12" text-anchor="middle" dy=".6em" font-size="5.29" font-family="'PT Sans','Helvetica Neue','Helvetica',sans-serif" fill="#A1A1A1" stroke="#000" stroke-opacity="0">Year</text><g class="guide xlabels" font-size="3.7" font-family="'PT Sans Caption','Helvetica Neue','Helvetica',sans-serif" fill="#A1A1A1" text-anchor="middle"><text x="24.66" y="98.61" dy=".6em">1908</text><text x="34.25" y="98.61" dy=".6em">1916</text><text x="43.84" y="98.61" dy=".6em">1924</text><text x="53.43" y="98.61" dy=".6em">1932</text><text x="63.02" y="98.61" dy=".6em">1940</text><text x="72.61" y="98.61" dy=".6em">1948</text><text x="82.2" y="98.61" dy=".6em">1956</text><text x="91.79" y="98.61" dy=".6em">1964</text><text x="101.38" y="98.61" dy=".6em">1972</text><text x="110.97" y="98.61" dy=".6em">1980</text><text x="120.56" y="98.61" dy=".6em">1988</text><text x="130.15" y="98.61" dy=".6em">1996</text><text x="139.74" y="98.61" dy=".6em">2004</text><text x="149.33" y="98.61" dy=".6em">2012</text></g><g clip-path="url(#a)"><path d="M22.66 5h131.07v92.61H22.66z" pointer-events="visible" fill="#222831" stroke="#000" stroke-opacity="0" class="guide background"/><g class="guide ygridlines xfixed" stroke-dasharray="0.5,0.5" stroke-width=".2" stroke="#575757" fill="none"><path d="M22.66 95.61h131.07M22.66 73.46h131.07M22.66 51.31h131.07M22.66 29.15h131.07M22.66 7h131.07"/></g><g class="guide xgridlines yfixed" stroke-dasharray="0.5,0.5" stroke-width=".2" stroke="#575757" fill="none"><path d="M24.66 5v92.61M34.25 5v92.61M43.84 5v92.61M53.43 5v92.61M63.02 5v92.61M72.61 5v92.61M82.2 5v92.61M91.79 5v92.61M101.38 5v92.61M110.97 5v92.61M120.56 5v92.61M130.15 5v92.61M139.74 5v92.61M149.33 5v92.61"/></g><g stroke="#000" stroke-opacity="0" fill="#FE4365" class="plotpanel geometry" shape-rendering="crispEdges"><path d="M27.03 30.67h4.85V51.3h-4.85z"/><path d="M31.83 22.91h4.85V51.3h-4.85z"/><path d="M36.62 17.15h4.85v34.16h-4.85z"/><path d="M41.42 11.38h4.85v39.93h-4.85z"/><path d="M46.21 34.04h4.85v17.27h-4.85z"/><path d="M51.01 24.58h4.85v26.73h-4.85z"/><path d="M55.8 28.5h4.85v22.81H55.8z"/><path d="M60.6 25.92h4.85v25.39H60.6z"/><path d="M65.39 29.49h4.85v21.82h-4.85z"/><path d="M70.19 49.99h4.85v1.32h-4.85z"/><path d="M74.98 45.84h4.85v5.47h-4.85z"/><path d="M79.78 43.79h4.85v7.51h-4.85zM84.57 51.31h4.85v4.59h-4.85z"/><path d="M89.37 51.31h4.85v36h-4.85z"/><path d="M94.16 51.31h4.85v11.94h-4.85z"/><path d="M98.96 51.31h4.85v23.63h-4.85z"/><path d="M103.75 51.31h4.85v4.19h-4.85z"/><path d="M108.55 51.31h4.85v8.2h-4.85z"/><path d="M113.34 51.31h4.85v15.2h-4.85z"/><path d="M118.14 51.31h4.85v17.82h-4.85z"/><path d="M122.93 51.31h4.85v15.83h-4.85z"/><path d="M127.73 51.31h4.85v18.7h-4.85z"/><path d="M132.52 51.31h4.85v21.41h-4.85z"/><path d="M137.32 51.31h4.85v23.22h-4.85z"/><path d="M142.12 51.31h4.85v25.71h-4.85z"/><path d="M146.91 51.31h4.85v25h-4.85z"/></g></g><g class="guide ylabels" font-size="3.7" font-family="'PT Sans Caption','Helvetica Neue','Helvetica',sans-serif" fill="#A1A1A1" text-anchor="end"><text x="21.66" y="95.61" dy=".35em">-0.4</text><text x="21.66" y="73.46" dy=".35em">-0.2</text><text x="21.66" y="51.31" dy=".35em">0.0</text><text x="21.66" y="29.15" dy=".35em">0.2</text><text x="21.66" y="7" dy=".35em">0.4</text></g><text x="9.46" y="49.31" text-anchor="middle" dy=".35em" transform="rotate(-90 9.46 51.31)" font-size="5.29" font-family="'PT Sans','Helvetica Neue','Helvetica',sans-serif" fill="#A1A1A1" stroke="#000" stroke-opacity="0">PC1 Loadings</text></g><defs><clipPath id="a"><path d="M22.66 5h131.07v92.61H22.66"/></clipPath></defs></svg>