<svg xmlns="http://www.w3.org/2000/svg" xmlns:xlink="http://www.w3.org/1999/xlink" version="1.2" width="238.1mm" height="599.924" viewBox="0 0 238.1 158.73" stroke-width=".3" font-size="3.88"><path d="M0 0h238.1v158.73H0z" stroke="#000" stroke-opacity="0" fill="#222831"/><g class="plotroot xscalable yscalable"><g class="guide colorkey"><g class="color_4"><text x="47.39" y="148.78" dy=".35em" fill="#A1A1A1" font-size="3.7" font-family="'PT Sans','Helvetica Neue','Helvetica',sans-serif">4</text><path d="M44.17 147.66h2.22v2.22h-2.22z" fill="#EEDBFF" stroke="#000" stroke-opacity="0"/></g><g class="color_3"><text x="41.15" y="148.78" dy=".35em" fill="#A1A1A1" font-size="3.7" font-family="'PT Sans','Helvetica Neue','Helvetica',sans-serif">3</text><path d="M37.92 147.66h2.22v2.22h-2.22z" fill="#3F9778" stroke="#000" stroke-opacity="0"/></g><g class="color_2"><text x="34.9" y="148.78" dy=".35em" fill="#A1A1A1" font-size="3.7" font-family="'PT Sans','Helvetica Neue','Helvetica',sans-serif">2</text><path d="M31.68 147.66h2.22v2.22h-2.22z" fill="#ECA25C" stroke="#000" stroke-opacity="0"/></g><g class="color_1"><text x="28.66" y="148.78" dy=".35em" fill="#A1A1A1" font-size="3.7" font-family="'PT Sans','Helvetica Neue','Helvetica',sans-serif">1</text><path d="M25.43 147.66h2.22v2.22h-2.22z" fill="#FE4365" stroke="#000" stroke-opacity="0"/></g><text x="25.43" y="145.28" fill="#A1A1A1" font-size="6.35" font-family="'PT Sans','Helvetica Neue','Helvetica',sans-serif" stroke="#000" stroke-opacity="0">Cluster</text></g><text x="128.76" y="130.46" text-anchor="middle" dy=".6em" font-size="6.35" font-family="'PT Sans','Helvetica Neue','Helvetica',sans-serif" fill="#A1A1A1" stroke="#000" stroke-opacity="0">Year</text><g class="guide xlabels" font-size="4.76" font-family="'PT Sans Caption','Helvetica Neue','Helvetica',sans-serif" fill="#A1A1A1" text-anchor="middle"><text x="26.43" y="121.95" dy=".6em">1908</text><text x="41.59" y="121.95" dy=".6em">1916</text><text x="56.75" y="121.95" dy=".6em">1924</text><text x="71.91" y="121.95" dy=".6em">1932</text><text x="87.07" y="121.95" dy=".6em">1940</text><text x="102.23" y="121.95" dy=".6em">1948</text><text x="117.39" y="121.95" dy=".6em">1956</text><text x="132.55" y="121.95" dy=".6em">1964</text><text x="147.71" y="121.95" dy=".6em">1972</text><text x="162.88" y="121.95" dy=".6em">1980</text><text x="178.04" y="121.95" dy=".6em">1988</text><text x="193.2" y="121.95" dy=".6em">1996</text><text x="208.36" y="121.95" dy=".6em">2004</text><text x="223.52" y="121.95" dy=".6em">2012</text></g><g clip-path="url(#a)"><path d="M24.43 12.91h208.66v108.04H24.43z" pointer-events="visible" fill="#222831" stroke="#000" stroke-opacity="0" class="guide background"/><g class="guide ygridlines xfixed" stroke-dasharray="0.5,0.5" stroke-width=".2" stroke="#575757" fill="none"><path d="M24.43 118.95H233.1M24.43 105.95H233.1M24.43 92.94H233.1M24.43 79.94H233.1M24.43 66.93H233.1M24.43 53.93H233.1M24.43 40.92H233.1M24.43 27.91H233.1M24.43 14.91H233.1"/></g><g class="guide xgridlines yfixed" stroke-dasharray="0.5,0.5" stroke-width=".2" stroke="#575757" fill="none"><path d="M26.43 12.91v108.04M41.59 12.91v108.04M56.75 12.91v108.04M71.91 12.91v108.04M87.07 12.91v108.04M102.23 12.91v108.04M117.39 12.91v108.04M132.55 12.91v108.04M147.71 12.91v108.04M162.88 12.91v108.04M178.04 12.91v108.04M193.2 12.91v108.04M208.36 12.91v108.04M223.52 12.91v108.04"/></g><g class="plotpanel"><g stroke="#000" stroke-opacity="0" class="geometry" fill-opacity=".53"><path d="M223.52 55.21l-7.58.87-7.58-5.85-7.58 2.45-7.58 5.14-7.58-1.38-7.58-10.85-7.58-5.42-7.58 12.12-7.59 10.85-7.58-30.42-7.58 20.37-7.58 15.88L124.97 56l-7.58-3.09-7.58 4.07-7.58 19.4-7.58 6.68-7.58 6.03-7.58 3.04-7.58 1.36-7.58-41.64-7.58 24.93-7.58-7.77-7.58 11.24-7.58 6.04-7.58-13.32-7.58 2.7-7.58-5.31-7.58 7.44-7.58.42-7.58-6.87-7.58.49-7.58 2.28-7.58.31-7.58-13.46-7.58 17.5-7.58 1.24-7.58-16.93V56.1l7.58 23.61 7.58-43.18 7.58 9.7 7.58 10.5 7.58-3.94 7.58-1.57 7.58-.5 7.58-1.2 7.58 3.27 7.58-.24 7.58-12.67 7.58 8.9 7.58 12.12 7.58-3.47 7.58-14.67 7.58 1.76 7.58-7.44 7.58 30.38 7.58.45 7.58-8.81 7.58-3.17 7.58 1.53 7.58-16.1 7.58-.71 7.58 5.02 7.58 10.74 7.58-13.32 7.58-17.62 7.58 22.5 7.59-11.99 7.58-5.29 7.58 8.42 7.58 9.16 7.58-.24 7.58-9.35 7.58-1.74 7.58 5.35 7.58-3.6z" fill="#009C71"/><path d="M223.52 68.46l-7.58.61-7.58-8.12-7.58.48-7.58 2.75-7.58-1.1-7.58-6.9-7.58-7.71-7.58 3.11-7.59 5.96-7.58-10.67-7.58 9.16-7.58 16.33-7.58-17.07-7.58-6.31-7.58.7-7.58 11.39-7.58.09-7.58 2-7.58 12.51-7.58-3.65-7.58-27.18-7.58-.41-7.58 1.01-7.58 15.1-7.58 11.83-7.58-19.11-7.58-6.02-7.58 8.01-7.58 9.4-7.58-3.93-7.58-4.77-7.58 1-7.58 1.88-7.58 2.07-7.58-5.02-7.58.68-7.58-6.05-7.58 8.12V42.89l7.58-6.47 7.58 3.71 7.58.46 7.58 4.1 7.58-2.87 7.58 3.79 7.58.24 7.58-5.63 7.58.1 7.58 1.27 7.58-14.14 7.58 13.9 7.58 18.03 7.58-8.6 7.58-25.25 7.58-.06 7.58 7.2 7.58 26.38 7.58 4.62 7.58-11.99 7.58-1.84 7.58 1.78 7.58-13.78 7.58 1.05 7.58 8.47 7.58 17.17 7.58-17.35 7.58-10.77 7.58 13.44 7.59-9.69 7.58-1.95 7.58 7.88 7.58 8.61 7.58-.38 7.58-6.02 7.58-.47 7.58 7.42 7.58-4.12z" fill="#EBA25E"/><path d="M223.52 70.45l-7.58 1.03-7.58-5.72-7.58 3.53-7.58 2.87-7.58-7.6-7.58-7.67-7.58-6.85-7.58 2.72-7.59 6.01-7.58-9.88-7.58 14.56-7.58 18.22-7.58-20.53-7.58-15.93-7.58 4.74-7.58 7.14-7.58 1.03-7.58.27-7.58 9.84-7.58-5.22-7.58-10.35-7.58-16.22-7.58-5.16-7.58 19.08-7.58 14.09-7.58-18.7-7.58-.56-7.58 3.64-7.58-2.51-7.58 11-7.58-2.3-7.58.26-7.58-.77-7.58 2.63-7.58-6.76-7.58 6.61-7.58.4-7.58-4.69V25.79l7.58 14.05 7.58-.05 7.58-5.31 7.58 12.54 7.58-2.02 7.58 1.96 7.58-.23 7.58 2.28L3.69 33.3l7.58 5.6 7.58-10.25 7.58 8.33 7.58 19.83 7.58-11.06 7.58-21.13 7.58-2.31 7.58 12.12 7.58 18.54 7.58 8.22 7.58-6.5 7.58-.22 7.58-4.23 7.58-6.22 7.58-7.21 7.58 15.58 7.58 17.17 7.58-18.04 7.58-13.56 7.58 13.08 7.59-3.7 7.58-5.4 7.58 6.37 7.58 9.77 7.58 3.64 7.58-3.83 7.58-1.74 7.58 6.92 7.58-3.24z" fill="#FDCFFF"/><path d="M223.52 48.99l-7.58 1.26-7.58-5.78-7.58 3.23-7.58 10.64-7.58-2.64-7.58-10.55-7.58-4.6-7.58 19.59-7.59 11.43-7.58-43.41-7.58 30.45-7.58-6.33-7.58 17.89-7.58 6.44-7.58.47-7.58 1.51-7.58 25.97-7.58 3.96-7.58 3.16-7.58 2.05-7.58-19.9-7.58 10.04-7.58-7.73-7.58 14.82-7.58-1.82-7.58-2.35-7.58.49L11.27 99l-7.58-1.68-7.58-3.34-7.58-4.87-7.58-9.1-7.58-4.39-7.58 3.53-7.58-22.05-7.58 19.89-15.16-13.05v-5.18l15.16-10.31 7.58-16.58 7.58 22.64 7.58 15.51 7.58-4.78 7.58 11.73 7.58 2.7 7.58-9.78 7.58.61 7.58 12.89 7.58-9.73 7.58 21.44 7.58-1.68 7.58-25.05 7.58 14.79 7.58-25.75 7.58 45.51 7.58-2.56 7.58-2.9 7.58-5.79 7.58-39.49 7.58 5.39 7.58-5.71 7.58 8.43 7.58-43.55 7.58 34.2 7.58-31.76 7.58 37.05 7.59-6.25 7.58-12.54 7.58 1.53 7.58 9.87 7.58.09 7.58-5.42 7.58-3.98 7.58 2.22 7.58.18z" fill="#DC6671"/></g><g fill-opacity="0"><path fill="none" d="M-64.53 59.44l7.58 20.27 7.58-22.21 7.58-3.9 7.58 11.98 7.58-2.13 7.58-1.92 7.58-.49 7.58 2.83 7.58 1.42 7.58-3.83 7.58-3.68 7.58 3.09 7.58 12.72 7.58-4.75 7.58-12.96 7.58 4.77 7.58-16.18 7.58 36 7.58-.45 7.58-5.93 7.58-4.6 7.58-2.57 7.58-17.75 7.58-2.39 7.58 4.05 7.58 11.86 7.58-14.6 7.58-19 7.58 26.47 7.59-11.43 7.58-8.7 7.58 6.92 7.58 10.01 7.58.57 7.58-7.25 7.58-2.1 7.58 5.61 7.58-2.24" stroke="#3F9778" class="geometry color_3"/><path fill="none" d="M-64.53 50.76l7.58-7.3 7.58 4.89 7.58-.12 7.58 4.56 7.58-2.46 7.58.95 7.58-.38 7.58-.43 7.58 2.02 7.58-4.07 7.58-11.07 7.58 9.95 7.58 18.57 7.58-10.21 7.58-20.17 7.58-.54 7.58 3.8 7.58 26.79 7.58 4.13 7.58-12.25 7.58-1.92 7.58.85 7.58-12.59 7.58.18 7.58 7.38 7.58 17.12 7.58-16.83 7.58-9.97 7.58 12.05 7.59-7.82 7.58-2.53 7.58 7.79 7.58 7.76 7.58.36 7.58-4.39 7.58-.47 7.58 7.77 7.58-2.37" stroke="#ECA25C" class="geometry color_2"/><path fill="none" d="M-64.53 39.25l7.58 9.36 7.58-.22 7.58-5.96 7.58 9.65 7.58-2.33 7.58 1.37 7.58-.25 7.58 2.29 7.58-13.35 7.58 4.06 7.58-6.95 7.58 4.45 7.58 19.26 7.58-12.58 7.58-20.1 7.58 1.43 7.58 14.16 7.58 14.45 7.58 6.72 7.58-8.17 7.58-.24 7.58-2.63 7.58-6.68 7.58-5.98 7.58 15.76 7.58 18.84 7.58-18.12 7.58-14.07 7.58 11.49 7.59-4.86 7.58-4.06 7.58 6.61 7.58 8.72 7.58 5.62 7.58-3.35 7.58-2.63 7.58 6.31 7.58-2.13" stroke="#EEDBFF" class="geometry color_4"/><path fill="none" d="M-64.53 61.35l15.16 1.37 7.58-18.23 7.58 22.34 7.58 5.99 7.58-.19 7.58 10.41 7.58 3.79 7.58-3.23 7.58 1.15 7.58 10.59 7.58-5.11 7.58 11.89 7.58.07 7.58-19.94 7.58 11.26 7.58-17.89 7.58 32.7 7.58-2.3 7.58-3.03 7.58-4.87 7.58-32.73 7.58 1.93 7.58-3.08 7.58.99 7.58-30.72 7.58 20.27 7.58-31.11 7.58 40.23 7.59-8.84 7.58-16.07 7.58 3.07 7.58 10.21 7.58 1.37 7.58-8.03 7.58-3.61 7.58 4 7.58-.54" stroke="#FE4365" class="geometry color_1"/></g><g class="geometry"><use xlink:href="#b" x="-64.53" y="61.35" stroke="#B58486" fill="#FE4365" class="color_1"/><use xlink:href="#b" x="-64.53" y="50.76" stroke="#AA8B71" fill="#ECA25C" class="color_2"/><use xlink:href="#b" x="-64.53" y="59.44" stroke="#6D9A87" fill="#3F9778" class="color_3"/><use xlink:href="#b" x="-64.53" y="39.25" stroke="#9B8AAB" fill="#EEDBFF" class="color_4"/><use xlink:href="#b" x="-56.95" y="43.46" stroke="#AA8B71" fill="#ECA25C" class="color_2"/><use xlink:href="#b" x="-56.95" y="79.71" stroke="#6D9A87" fill="#3F9778" class="color_3"/><use xlink:href="#b" x="-56.95" y="48.61" stroke="#9B8AAB" fill="#EEDBFF" class="color_4"/><use xlink:href="#b" x="-49.37" y="62.72" stroke="#B58486" fill="#FE4365" class="color_1"/><use xlink:href="#b" x="-49.37" y="48.35" stroke="#AA8B71" fill="#ECA25C" class="color_2"/><use xlink:href="#b" x="-49.37" y="57.5" stroke="#6D9A87" fill="#3F9778" class="color_3"/><use xlink:href="#b" x="-49.37" y="48.39" stroke="#9B8AAB" fill="#EEDBFF" class="color_4"/><use xlink:href="#b" x="-41.79" y="44.49" stroke="#B58486" fill="#FE4365" class="color_1"/><use xlink:href="#b" x="-41.79" y="48.23" stroke="#AA8B71" fill="#ECA25C" class="color_2"/><use xlink:href="#b" x="-41.79" y="53.6" stroke="#6D9A87" fill="#3F9778" class="color_3"/><use xlink:href="#b" x="-41.79" y="42.43" stroke="#9B8AAB" fill="#EEDBFF" class="color_4"/><use xlink:href="#b" x="-34.21" y="66.83" stroke="#B58486" fill="#FE4365" class="color_1"/><use xlink:href="#b" x="-34.21" y="52.79" stroke="#AA8B71" fill="#ECA25C" class="color_2"/><use xlink:href="#b" x="-34.21" y="65.58" stroke="#6D9A87" fill="#3F9778" class="color_3"/><use xlink:href="#b" x="-34.21" y="52.08" stroke="#9B8AAB" fill="#EEDBFF" class="color_4"/><use xlink:href="#b" x="-26.63" y="72.82" stroke="#B58486" fill="#FE4365" class="color_1"/><use xlink:href="#b" x="-26.63" y="50.33" stroke="#AA8B71" fill="#ECA25C" class="color_2"/><use xlink:href="#b" x="-26.63" y="63.45" stroke="#6D9A87" fill="#3F9778" class="color_3"/><use xlink:href="#b" x="-26.63" y="49.75" stroke="#9B8AAB" fill="#EEDBFF" class="color_4"/><use xlink:href="#b" x="-19.05" y="72.63" stroke="#B58486" fill="#FE4365" class="color_1"/><use xlink:href="#b" x="-19.05" y="51.28" stroke="#AA8B71" fill="#ECA25C" class="color_2"/><use xlink:href="#b" x="-19.05" y="61.53" stroke="#6D9A87" fill="#3F9778" class="color_3"/><use xlink:href="#b" x="-19.05" y="51.12" stroke="#9B8AAB" fill="#EEDBFF" class="color_4"/><use xlink:href="#b" x="-11.47" y="83.04" stroke="#B58486" fill="#FE4365" class="color_1"/><use xlink:href="#b" x="-11.47" y="50.9" stroke="#AA8B71" fill="#ECA25C" class="color_2"/><use xlink:href="#b" x="-11.47" y="61.04" stroke="#6D9A87" fill="#3F9778" class="color_3"/><use xlink:href="#b" x="-11.47" y="50.87" stroke="#9B8AAB" fill="#EEDBFF" class="color_4"/><use xlink:href="#b" x="-3.89" y="86.83" stroke="#B58486" fill="#FE4365" class="color_1"/><use xlink:href="#b" x="-3.89" y="50.47" stroke="#AA8B71" fill="#ECA25C" class="color_2"/><use xlink:href="#b" x="-3.89" y="63.87" stroke="#6D9A87" fill="#3F9778" class="color_3"/><use xlink:href="#b" x="-3.89" y="53.16" stroke="#9B8AAB" fill="#EEDBFF" class="color_4"/><use xlink:href="#b" x="3.69" y="83.6" stroke="#B58486" fill="#FE4365" class="color_1"/><use xlink:href="#b" x="3.69" y="52.49" stroke="#AA8B71" fill="#ECA25C" class="color_2"/><use xlink:href="#b" x="3.69" y="65.29" stroke="#6D9A87" fill="#3F9778" class="color_3"/><use xlink:href="#b" x="3.69" y="39.81" stroke="#9B8AAB" fill="#EEDBFF" class="color_4"/><use xlink:href="#b" x="11.27" y="84.75" stroke="#B58486" fill="#FE4365" class="color_1"/><use xlink:href="#b" x="11.27" y="48.42" stroke="#AA8B71" fill="#ECA25C" class="color_2"/><use xlink:href="#b" x="11.27" y="61.46" stroke="#6D9A87" fill="#3F9778" class="color_3"/><use xlink:href="#b" x="11.27" y="43.87" stroke="#9B8AAB" fill="#EEDBFF" class="color_4"/><use xlink:href="#b" x="18.85" y="95.34" stroke="#B58486" fill="#FE4365" class="color_1"/><use xlink:href="#b" x="18.85" y="37.35" stroke="#AA8B71" fill="#ECA25C" class="color_2"/><use xlink:href="#b" x="18.85" y="57.78" stroke="#6D9A87" fill="#3F9778" class="color_3"/><use xlink:href="#b" x="18.85" y="36.92" stroke="#9B8AAB" fill="#EEDBFF" class="color_4"/><use xlink:href="#b" x="26.43" y="90.23" stroke="#B58486" fill="#FE4365" class="color_1"/><use xlink:href="#b" x="26.43" y="47.3" stroke="#AA8B71" fill="#ECA25C" class="color_2"/><use xlink:href="#b" x="26.43" y="60.87" stroke="#6D9A87" fill="#3F9778" class="color_3"/><use xlink:href="#b" x="26.43" y="41.37" stroke="#9B8AAB" fill="#EEDBFF" class="color_4"/><use xlink:href="#b" x="34.01" y="102.12" stroke="#B58486" fill="#FE4365" class="color_1"/><use xlink:href="#b" x="34.01" y="65.87" stroke="#AA8B71" fill="#ECA25C" class="color_2"/><use xlink:href="#b" x="34.01" y="73.59" stroke="#6D9A87" fill="#3F9778" class="color_3"/><use xlink:href="#b" x="34.01" y="60.63" stroke="#9B8AAB" fill="#EEDBFF" class="color_4"/><use xlink:href="#b" x="41.59" y="102.19" stroke="#B58486" fill="#FE4365" class="color_1"/><use xlink:href="#b" x="41.59" y="55.66" stroke="#AA8B71" fill="#ECA25C" class="color_2"/><use xlink:href="#b" x="41.59" y="68.84" stroke="#6D9A87" fill="#3F9778" class="color_3"/><use xlink:href="#b" x="41.59" y="48.05" stroke="#9B8AAB" fill="#EEDBFF" class="color_4"/><use xlink:href="#b" x="49.17" y="82.25" stroke="#B58486" fill="#FE4365" class="color_1"/><use xlink:href="#b" x="49.17" y="35.49" stroke="#AA8B71" fill="#ECA25C" class="color_2"/><use xlink:href="#b" x="49.17" y="55.88" stroke="#6D9A87" fill="#3F9778" class="color_3"/><use xlink:href="#b" x="49.17" y="27.95" stroke="#9B8AAB" fill="#EEDBFF" class="color_4"/><use xlink:href="#b" x="56.75" y="93.51" stroke="#B58486" fill="#FE4365" class="color_1"/><use xlink:href="#b" x="56.75" y="34.95" stroke="#AA8B71" fill="#ECA25C" class="color_2"/><use xlink:href="#b" x="56.75" y="60.65" stroke="#6D9A87" fill="#3F9778" class="color_3"/><use xlink:href="#b" x="56.75" y="29.38" stroke="#9B8AAB" fill="#EEDBFF" class="color_4"/><use xlink:href="#b" x="64.33" y="75.62" stroke="#B58486" fill="#FE4365" class="color_1"/><use xlink:href="#b" x="64.33" y="38.75" stroke="#AA8B71" fill="#ECA25C" class="color_2"/><use xlink:href="#b" x="64.33" y="44.47" stroke="#6D9A87" fill="#3F9778" class="color_3"/><use xlink:href="#b" x="64.33" y="43.54" stroke="#9B8AAB" fill="#EEDBFF" class="color_4"/><use xlink:href="#b" x="71.91" y="108.32" stroke="#B58486" fill="#FE4365" class="color_1"/><use xlink:href="#b" x="71.91" y="65.54" stroke="#AA8B71" fill="#ECA25C" class="color_2"/><use xlink:href="#b" x="71.91" y="80.47" stroke="#6D9A87" fill="#3F9778" class="color_3"/><use xlink:href="#b" x="71.91" y="57.99" stroke="#9B8AAB" fill="#EEDBFF" class="color_4"/><use xlink:href="#b" x="79.49" y="106.02" stroke="#B58486" fill="#FE4365" class="color_1"/><use xlink:href="#b" x="79.49" y="69.67" stroke="#AA8B71" fill="#ECA25C" class="color_2"/><use xlink:href="#b" x="79.49" y="80.02" stroke="#6D9A87" fill="#3F9778" class="color_3"/><use xlink:href="#b" x="79.49" y="64.71" stroke="#9B8AAB" fill="#EEDBFF" class="color_4"/><use xlink:href="#b" x="87.07" y="102.99" stroke="#B58486" fill="#FE4365" class="color_1"/><use xlink:href="#b" x="87.07" y="57.42" stroke="#AA8B71" fill="#ECA25C" class="color_2"/><use xlink:href="#b" x="87.07" y="74.09" stroke="#6D9A87" fill="#3F9778" class="color_3"/><use xlink:href="#b" x="87.07" y="56.54" stroke="#9B8AAB" fill="#EEDBFF" class="color_4"/><use xlink:href="#b" x="94.65" y="98.12" stroke="#B58486" fill="#FE4365" class="color_1"/><use xlink:href="#b" x="94.65" y="55.5" stroke="#AA8B71" fill="#ECA25C" class="color_2"/><use xlink:href="#b" x="94.65" y="69.49" stroke="#6D9A87" fill="#3F9778" class="color_3"/><use xlink:href="#b" x="94.65" y="56.3" stroke="#9B8AAB" fill="#EEDBFF" class="color_4"/><use xlink:href="#b" x="102.23" y="65.39" stroke="#B58486" fill="#FE4365" class="color_1"/><use xlink:href="#b" x="102.23" y="56.35" stroke="#AA8B71" fill="#ECA25C" class="color_2"/><use xlink:href="#b" x="102.23" y="66.92" stroke="#6D9A87" fill="#3F9778" class="color_3"/><use xlink:href="#b" x="102.23" y="53.67" stroke="#9B8AAB" fill="#EEDBFF" class="color_4"/><use xlink:href="#b" x="109.81" y="67.32" stroke="#B58486" fill="#FE4365" class="color_1"/><use xlink:href="#b" x="109.81" y="43.76" stroke="#AA8B71" fill="#ECA25C" class="color_2"/><use xlink:href="#b" x="109.81" y="49.17" stroke="#6D9A87" fill="#3F9778" class="color_3"/><use xlink:href="#b" x="109.81" y="46.99" stroke="#9B8AAB" fill="#EEDBFF" class="color_4"/><use xlink:href="#b" x="117.39" y="64.24" stroke="#B58486" fill="#FE4365" class="color_1"/><use xlink:href="#b" x="117.39" y="43.94" stroke="#AA8B71" fill="#ECA25C" class="color_2"/><use xlink:href="#b" x="117.39" y="46.78" stroke="#6D9A87" fill="#3F9778" class="color_3"/><use xlink:href="#b" x="117.39" y="41.01" stroke="#9B8AAB" fill="#EEDBFF" class="color_4"/><use xlink:href="#b" x="124.97" y="65.23" stroke="#B58486" fill="#FE4365" class="color_1"/><use xlink:href="#b" x="124.97" y="51.32" stroke="#AA8B71" fill="#ECA25C" class="color_2"/><use xlink:href="#b" x="124.97" y="50.83" stroke="#6D9A87" fill="#3F9778" class="color_3"/><use xlink:href="#b" x="124.97" y="56.77" stroke="#9B8AAB" fill="#EEDBFF" class="color_4"/><use xlink:href="#b" x="132.55" y="34.51" stroke="#B58486" fill="#FE4365" class="color_1"/><use xlink:href="#b" x="132.55" y="68.44" stroke="#AA8B71" fill="#ECA25C" class="color_2"/><use xlink:href="#b" x="132.55" y="62.69" stroke="#6D9A87" fill="#3F9778" class="color_3"/><use xlink:href="#b" x="132.55" y="75.61" stroke="#9B8AAB" fill="#EEDBFF" class="color_4"/><use xlink:href="#b" x="140.13" y="54.78" stroke="#B58486" fill="#FE4365" class="color_1"/><use xlink:href="#b" x="140.13" y="51.61" stroke="#AA8B71" fill="#ECA25C" class="color_2"/><use xlink:href="#b" x="140.13" y="48.09" stroke="#6D9A87" fill="#3F9778" class="color_3"/><use xlink:href="#b" x="140.13" y="57.49" stroke="#9B8AAB" fill="#EEDBFF" class="color_4"/><use xlink:href="#b" x="147.71" y="23.67" stroke="#B58486" fill="#FE4365" class="color_1"/><use xlink:href="#b" x="147.71" y="41.64" stroke="#AA8B71" fill="#ECA25C" class="color_2"/><use xlink:href="#b" x="147.71" y="29.09" stroke="#6D9A87" fill="#3F9778" class="color_3"/><use xlink:href="#b" x="147.71" y="43.42" stroke="#9B8AAB" fill="#EEDBFF" class="color_4"/><use xlink:href="#b" x="155.29" y="63.9" stroke="#B58486" fill="#FE4365" class="color_1"/><use xlink:href="#b" x="155.29" y="53.69" stroke="#AA8B71" fill="#ECA25C" class="color_2"/><use xlink:href="#b" x="155.29" y="55.56" stroke="#6D9A87" fill="#3F9778" class="color_3"/><use xlink:href="#b" x="155.29" y="54.91" stroke="#9B8AAB" fill="#EEDBFF" class="color_4"/><use xlink:href="#b" x="162.88" y="55.06" stroke="#B58486" fill="#FE4365" class="color_1"/><use xlink:href="#b" x="162.88" y="45.87" stroke="#AA8B71" fill="#ECA25C" class="color_2"/><use xlink:href="#b" x="162.88" y="44.13" stroke="#6D9A87" fill="#3F9778" class="color_3"/><use xlink:href="#b" x="162.88" y="50.05" stroke="#9B8AAB" fill="#EEDBFF" class="color_4"/><use xlink:href="#b" x="170.46" y="38.99" stroke="#B58486" fill="#FE4365" class="color_1"/><use xlink:href="#b" x="170.46" y="43.34" stroke="#AA8B71" fill="#ECA25C" class="color_2"/><use xlink:href="#b" x="170.46" y="35.43" stroke="#6D9A87" fill="#3F9778" class="color_3"/><use xlink:href="#b" x="170.46" y="45.99" stroke="#9B8AAB" fill="#EEDBFF" class="color_4"/><use xlink:href="#b" x="178.04" y="42.06" stroke="#B58486" fill="#FE4365" class="color_1"/><use xlink:href="#b" x="178.04" y="51.13" stroke="#AA8B71" fill="#ECA25C" class="color_2"/><use xlink:href="#b" x="178.04" y="42.35" stroke="#6D9A87" fill="#3F9778" class="color_3"/><use xlink:href="#b" x="178.04" y="52.6" stroke="#9B8AAB" fill="#EEDBFF" class="color_4"/><use xlink:href="#b" x="185.62" y="52.27" stroke="#B58486" fill="#FE4365" class="color_1"/><use xlink:href="#b" x="185.62" y="58.89" stroke="#AA8B71" fill="#ECA25C" class="color_2"/><use xlink:href="#b" x="185.62" y="52.36" stroke="#6D9A87" fill="#3F9778" class="color_3"/><use xlink:href="#b" x="185.62" y="61.32" stroke="#9B8AAB" fill="#EEDBFF" class="color_4"/><use xlink:href="#b" x="193.2" y="53.64" stroke="#B58486" fill="#FE4365" class="color_1"/><use xlink:href="#b" x="193.2" y="59.25" stroke="#AA8B71" fill="#ECA25C" class="color_2"/><use xlink:href="#b" x="193.2" y="52.93" stroke="#6D9A87" fill="#3F9778" class="color_3"/><use xlink:href="#b" x="193.2" y="66.94" stroke="#9B8AAB" fill="#EEDBFF" class="color_4"/><use xlink:href="#b" x="200.78" y="45.61" stroke="#B58486" fill="#FE4365" class="color_1"/><use xlink:href="#b" x="200.78" y="54.86" stroke="#AA8B71" fill="#ECA25C" class="color_2"/><use xlink:href="#b" x="200.78" y="45.68" stroke="#6D9A87" fill="#3F9778" class="color_3"/><use xlink:href="#b" x="200.78" y="63.59" stroke="#9B8AAB" fill="#EEDBFF" class="color_4"/><use xlink:href="#b" x="208.36" y="42" stroke="#B58486" fill="#FE4365" class="color_1"/><use xlink:href="#b" x="208.36" y="54.39" stroke="#AA8B71" fill="#ECA25C" class="color_2"/><use xlink:href="#b" x="208.36" y="43.58" stroke="#6D9A87" fill="#3F9778" class="color_3"/><use xlink:href="#b" x="208.36" y="60.96" stroke="#9B8AAB" fill="#EEDBFF" class="color_4"/><use xlink:href="#b" x="215.94" y="46" stroke="#B58486" fill="#FE4365" class="color_1"/><use xlink:href="#b" x="215.94" y="62.16" stroke="#AA8B71" fill="#ECA25C" class="color_2"/><use xlink:href="#b" x="215.94" y="49.19" stroke="#6D9A87" fill="#3F9778" class="color_3"/><use xlink:href="#b" x="215.94" y="67.27" stroke="#9B8AAB" fill="#EEDBFF" class="color_4"/><use xlink:href="#b" x="223.52" y="45.46" stroke="#B58486" fill="#FE4365" class="color_1"/><use xlink:href="#b" x="223.52" y="59.79" stroke="#AA8B71" fill="#ECA25C" class="color_2"/><use xlink:href="#b" x="223.52" y="46.95" stroke="#6D9A87" fill="#3F9778" class="color_3"/><use xlink:href="#b" x="223.52" y="65.14" stroke="#9B8AAB" fill="#EEDBFF" class="color_4"/></g></g></g><g class="guide ylabels" font-size="4.76" font-family="'PT Sans Caption','Helvetica Neue','Helvetica',sans-serif" fill="#A1A1A1" text-anchor="end"><text x="23.43" y="118.95" dy=".35em">-50</text><text x="23.43" y="105.95" dy=".35em">-40</text><text x="23.43" y="92.94" dy=".35em">-30</text><text x="23.43" y="79.94" dy=".35em">-20</text><text x="23.43" y="66.93" dy=".35em">-10</text><text x="23.43" y="53.93" dy=".35em">0</text><text x="23.43" y="40.92" dy=".35em">10</text><text x="23.43" y="27.91" dy=".35em">20</text><text x="23.43" y="14.91" dy=".35em">30</text></g><text x="9.95" y="64.93" text-anchor="middle" dy=".35em" transform="rotate(-90 9.95 66.93)" font-size="6.35" font-family="'PT Sans','Helvetica Neue','Helvetica',sans-serif" fill="#A1A1A1" stroke="#000" stroke-opacity="0">Difference (%)</text><text x="128.76" y="5" text-anchor="middle" dy=".6em" font-size="6.35" font-family="'PT Sans','Helvetica Neue','Helvetica',sans-serif" fill="#A1A1A1" stroke="#000" stroke-opacity="0">Republican - Democratic Popular Vote (%) by Cluster</text></g><defs><clipPath id="a"><path d="M24.43 12.91H233.1v108.04H24.43"/></clipPath><circle r=".9" id="b"/></defs></svg>