<?xml version="1.0" encoding="UTF-8"?>
<svg xmlns="http://www.w3.org/2000/svg"
     xmlns:xlink="http://www.w3.org/1999/xlink"
     xmlns:gadfly="http://www.gadflyjl.org/ns"
     version="1.2"
     width="320mm" height="160mm" viewBox="0 0 320 160"
     stroke="none"
     fill="#000000"
     stroke-width="0.3"
     font-size="3.88"
>
<g class="plotroot xscalable yscalable" id="img-743c1c3c-1">
  <g class="guide colorkey" id="img-743c1c3c-2">
    <g class="color_1" id="img-743c1c3c-3">
      <g fill="#4C404B" font-size="4.76" font-family="'PT Sans','Helvetica Neue','Helvetica',sans-serif" id="img-743c1c3c-4">
        <text x="48.52" y="150.53" dy="0.35em">1</text>
      </g>
      <g fill="#00B78D" stroke="#000000" stroke-opacity="0.000" id="img-743c1c3c-5">
        <rect x="45.25" y="149.4" width="2.26" height="2.26"/>
      </g>
    </g>
    <g class="color_3" id="img-743c1c3c-6">
      <g fill="#4C404B" font-size="4.76" font-family="'PT Sans','Helvetica Neue','Helvetica',sans-serif" id="img-743c1c3c-7">
        <text x="41.78" y="150.53" dy="0.35em">3</text>
      </g>
      <g fill="#FF6DAE" stroke="#000000" stroke-opacity="0.000" id="img-743c1c3c-8">
        <rect x="38.52" y="149.4" width="2.26" height="2.26"/>
      </g>
    </g>
    <g class="color_4" id="img-743c1c3c-9">
      <g fill="#4C404B" font-size="4.76" font-family="'PT Sans','Helvetica Neue','Helvetica',sans-serif" id="img-743c1c3c-10">
        <text x="35.05" y="150.53" dy="0.35em">4</text>
      </g>
      <g fill="#D4CA3A" stroke="#000000" stroke-opacity="0.000" id="img-743c1c3c-11">
        <rect x="31.79" y="149.4" width="2.26" height="2.26"/>
      </g>
    </g>
    <g class="color_2" id="img-743c1c3c-12">
      <g fill="#4C404B" font-size="4.76" font-family="'PT Sans','Helvetica Neue','Helvetica',sans-serif" id="img-743c1c3c-13">
        <text x="28.32" y="150.53" dy="0.35em">2</text>
      </g>
      <g fill="#00BFFF" stroke="#000000" stroke-opacity="0.000" id="img-743c1c3c-14">
        <rect x="25.05" y="149.4" width="2.26" height="2.26"/>
      </g>
    </g>
    <g fill="#362A35" font-size="6.35" font-family="'PT Sans','Helvetica Neue','Helvetica',sans-serif" stroke="#000000" stroke-opacity="0.000" id="img-743c1c3c-15">
      <text x="25.05" y="146.47">Cluster</text>
    </g>
  </g>
  <g font-size="6.35" font-family="'PT Sans','Helvetica Neue','Helvetica',sans-serif" fill="#564A55" stroke="#000000" stroke-opacity="0.000" id="img-743c1c3c-16">
    <text x="169.53" y="133.95" text-anchor="middle" dy="0.6em">Year</text>
  </g>
  <g class="guide xlabels" font-size="4.76" font-family="'PT Sans Caption','Helvetica Neue','Helvetica',sans-serif" fill="#6C606B" id="img-743c1c3c-17">
    <text x="26.05" y="126.42" text-anchor="middle" dy="0.6em">1908</text>
    <text x="47.31" y="126.42" text-anchor="middle" dy="0.6em">1916</text>
    <text x="68.56" y="126.42" text-anchor="middle" dy="0.6em">1924</text>
    <text x="89.82" y="126.42" text-anchor="middle" dy="0.6em">1932</text>
    <text x="111.07" y="126.42" text-anchor="middle" dy="0.6em">1940</text>
    <text x="132.33" y="126.42" text-anchor="middle" dy="0.6em">1948</text>
    <text x="153.58" y="126.42" text-anchor="middle" dy="0.6em">1956</text>
    <text x="174.84" y="126.42" text-anchor="middle" dy="0.6em">1964</text>
    <text x="196.1" y="126.42" text-anchor="middle" dy="0.6em">1972</text>
    <text x="217.35" y="126.42" text-anchor="middle" dy="0.6em">1980</text>
    <text x="238.61" y="126.42" text-anchor="middle" dy="0.6em">1988</text>
    <text x="259.86" y="126.42" text-anchor="middle" dy="0.6em">1996</text>
    <text x="281.12" y="126.42" text-anchor="middle" dy="0.6em">2004</text>
    <text x="302.37" y="126.42" text-anchor="middle" dy="0.6em">2012</text>
  </g>
<g clip-path="url(#img-743c1c3c-18)">
  <g id="img-743c1c3c-19">
    <g pointer-events="visible" opacity="1" fill="#000000" fill-opacity="0.000" stroke="#000000" stroke-opacity="0.000" class="guide background" id="img-743c1c3c-20">
      <rect x="24.05" y="15.35" width="290.95" height="110.07"/>
    </g>
    <g class="guide ygridlines xfixed" stroke-dasharray="0.5,0.5" stroke-width="0.26" stroke="#000000" id="img-743c1c3c-21">
      <path fill="none" d="M24.05,123.42 L 315 123.42"/>
      <path fill="none" d="M24.05,110.16 L 315 110.16"/>
      <path fill="none" d="M24.05,96.9 L 315 96.9"/>
      <path fill="none" d="M24.05,83.64 L 315 83.64"/>
      <path fill="none" d="M24.05,70.38 L 315 70.38"/>
      <path fill="none" d="M24.05,57.13 L 315 57.13"/>
      <path fill="none" d="M24.05,43.87 L 315 43.87"/>
      <path fill="none" d="M24.05,30.61 L 315 30.61"/>
      <path fill="none" d="M24.05,17.35 L 315 17.35"/>
    </g>
    <g class="guide xgridlines yfixed" stroke-dasharray="0.5,0.5" stroke-width="0.26" stroke="#000000" id="img-743c1c3c-22">
      <path fill="none" d="M26.05,15.35 L 26.05 125.42"/>
      <path fill="none" d="M47.31,15.35 L 47.31 125.42"/>
      <path fill="none" d="M68.56,15.35 L 68.56 125.42"/>
      <path fill="none" d="M89.82,15.35 L 89.82 125.42"/>
      <path fill="none" d="M111.07,15.35 L 111.07 125.42"/>
      <path fill="none" d="M132.33,15.35 L 132.33 125.42"/>
      <path fill="none" d="M153.58,15.35 L 153.58 125.42"/>
      <path fill="none" d="M174.84,15.35 L 174.84 125.42"/>
      <path fill="none" d="M196.1,15.35 L 196.1 125.42"/>
      <path fill="none" d="M217.35,15.35 L 217.35 125.42"/>
      <path fill="none" d="M238.61,15.35 L 238.61 125.42"/>
      <path fill="none" d="M259.86,15.35 L 259.86 125.42"/>
      <path fill="none" d="M281.12,15.35 L 281.12 125.42"/>
      <path fill="none" d="M302.37,15.35 L 302.37 125.42"/>
    </g>
    <g class="plotpanel" id="img-743c1c3c-23">
      <g stroke-width="0.53" stroke="#000000" stroke-opacity="0.000" class="geometry" id="img-743c1c3c-24">
        <path d="M302.37,57.88 L 291.74 61.78 281.12 53.76 270.49 55.02 259.86 61.56 249.23 62.6 238.61 54.19 227.98 45.06 217.35 53.34 206.72 60.71 196.1 41.7 185.47 56.47 174.84 76.09 164.21 57.3 153.58 53.61 142.96 56.62 132.33 67.28 121.7 62.48 111.07 65.73 100.45 75.28 89.82 76.1 79.19 49.37 68.56 54.63 57.94 54.28 47.31 66.54 36.68 74.33 26.05 59.34 15.43 56.54 4.8 62.08 -5.83 75.72 -16.46 65.84 -27.09 62.32 -37.71 64.55 -48.34 68.4 -58.97 72.51 -69.6 64.87 -80.22 75.19 -90.85 68.55 -101.48 72.04 -101.48 51.87 -90.85 32.67 -80.22 41.62 -69.6 45.66 -58.97 49.99 -48.34 46.82 -37.71 48.33 -27.09 47.68 -16.46 35.85 -5.83 49.28 4.8 51.28 15.43 35.36 26.05 49.82 36.68 65.63 47.31 56.2 57.94 36.37 68.56 37.47 79.19 36.71 89.82 64.25 100.45 65.18 111.07 51.15 121.7 48.83 132.33 54.38 142.96 36.67 153.58 40.14 164.21 46.4 174.84 62.51 185.47 44.32 196.1 33.33 206.72 47.65 217.35 36.13 227.98 34.27 238.61 43.63 249.23 51.99 259.86 49.77 270.49 41.91 281.12 40.39 291.74 47.39 302.37 42.34 z" fill="#EBE3BD"/>
        <path d="M302.37,73.37 L 291.74 74.39 281.12 67.1 270.49 70.01 259.86 72.61 249.23 67.38 238.61 60.12 227.98 52.87 217.35 55.94 206.72 61.46 196.1 51.47 185.47 64.43 174.84 82.54 164.21 62.7 153.58 49.45 142.96 52.29 132.33 61.38 121.7 63.05 111.07 64.19 100.45 76.15 89.82 70.64 79.19 53.08 68.56 39.45 57.94 38.63 47.31 58.06 36.68 72.1 26.05 50.63 15.43 47.16 4.8 52.19 -5.83 52.96 -16.46 60.39 -27.09 57.81 -37.71 58.19 -48.34 57.99 -58.97 60.39 -69.6 54.35 -80.22 60.44 -90.85 58.42 -101.48 57.49 -101.48 32.77 -90.85 42.42 -80.22 42.68 -69.6 39.07 -58.97 49.24 -48.34 46.66 -37.71 49.88 -27.09 50.13 -16.46 51.98 -5.83 37.96 4.8 42.16 15.43 29.86 26.05 40.39 36.68 59.56 47.31 49.13 57.94 25.35 68.56 25.33 79.19 35.87 89.82 57.17 100.45 64.94 111.07 57.26 121.7 56.75 132.33 53.95 142.96 45.2 153.58 40.58 164.21 53.51 174.84 70.48 185.47 53.08 196.1 41.83 206.72 54.26 217.35 47.58 227.98 44.47 238.61 51.3 249.23 60.81 259.86 62.73 270.49 58.07 281.12 57.95 291.74 64.74 302.37 62.13 z" fill="#BCEDDA"/>
        <path d="M302.37,52.1 L 291.74 53.38 281.12 47.49 270.49 50.78 259.86 61.63 249.23 58.93 238.61 48.18 227.98 43.49 217.35 63.46 206.72 75.11 196.1 30.86 185.47 61.9 174.84 55.45 164.21 73.69 153.58 80.26 142.96 80.73 132.33 82.27 121.7 108.75 111.07 112.78 100.45 116.01 89.82 118.09 79.19 97.81 68.56 108.04 57.94 100.16 47.31 115.27 36.68 113.41 26.05 111.02 15.43 111.52 4.8 103.08 -5.83 101.36 -16.46 97.96 -27.09 93 -37.71 83.72 -48.34 79.24 -58.97 82.84 -69.6 60.37 -80.22 80.64 -101.48 67.33 -101.48 62.05 -80.22 51.55 -69.6 34.64 -58.97 57.72 -48.34 73.53 -37.71 68.67 -27.09 80.62 -16.46 83.38 -5.83 73.4 4.8 74.02 15.43 87.17 26.05 77.24 36.68 99.1 47.31 97.39 57.94 71.85 68.56 86.93 79.19 60.68 89.82 107.07 100.45 104.47 111.07 101.51 121.7 95.61 132.33 55.35 142.96 60.84 153.58 55.02 164.21 63.62 174.84 19.22 185.47 54.09 196.1 21.7 206.72 59.48 217.35 53.1 227.98 40.32 238.61 41.88 249.23 51.94 259.86 52.04 270.49 46.51 281.12 42.45 291.74 44.71 302.37 44.89 z" fill="#BDE8FF"/>
        <path d="M302.37,59.45 L 291.74 60.29 281.12 53.79 270.49 56.17 259.86 61.16 249.23 59.68 238.61 48.67 227.98 43.05 217.35 55.25 206.72 66.86 196.1 34.49 185.47 56.34 174.84 71.81 164.21 59.96 153.58 56.85 142.96 59.58 132.33 82.1 121.7 89.56 111.07 96.17 100.45 99.88 89.82 102.59 79.19 58.1 68.56 86.85 57.94 76.2 47.31 89.22 36.68 95.6 26.05 82.01 15.43 85.26 4.8 77.44 -5.83 85.03 -16.46 82.59 -27.09 77.38 -37.71 76.95 -48.34 78.01 -58.97 76.81 -69.6 63.21 -80.22 55.98 -101.48 63.46 -101.48 59.11 -80.22 38.34 -69.6 50.09 -58.97 62.22 -48.34 60.02 -37.71 56.43 -27.09 56.68 -16.46 63.66 -5.83 59.65 4.8 60.36 15.43 56.64 26.05 55.67 36.68 67.41 47.31 65.75 57.94 53.98 68.56 58.87 79.19 42.7 89.82 78.73 100.45 80.21 111.07 74.22 121.7 69.29 132.33 65.45 142.96 49.03 153.58 45.85 164.21 50.83 174.84 60.26 185.47 48.2 196.1 27.73 206.72 53.92 217.35 41.34 227.98 34.46 238.61 42.13 249.23 51.85 259.86 51.94 270.49 42.69 281.12 40.76 291.74 46.17 302.37 42.63 z" fill="#FFD5E7"/>
      </g>
      <g stroke-width="0.53" fill="#000000" fill-opacity="0.000" stroke-dasharray="none" id="img-743c1c3c-25">
        <path fill="none" d="M-101.48,45.13 L -90.85 50.42 -80.22 51.56 -69.6 46.71 -58.97 54.81 -48.34 52.32 -37.71 54.04 -27.09 53.97 -16.46 56.18 -5.83 45.46 4.8 47.18 15.43 38.51 26.05 45.51 36.68 65.83 47.31 53.6 57.94 31.99 68.56 32.39 79.19 44.47 89.82 63.9 100.45 70.55 111.07 60.73 121.7 59.9 132.33 57.67 142.96 48.75 153.58 45.01 164.21 58.1 174.84 76.51 185.47 58.75 196.1 46.65 206.72 57.86 217.35 51.76 227.98 48.67 238.61 55.71 249.23 64.09 259.86 67.67 270.49 64.04 281.12 62.53 291.74 69.56 302.37 67.75" class="geometry color_1" stroke="#00B78D"/>
        <path fill="none" d="M-101.48,64.69 L -80.22 66.09 -69.6 47.5 -58.97 70.28 -48.34 76.38 -37.71 76.19 -27.09 86.81 -16.46 90.67 -5.83 87.38 4.8 88.55 15.43 99.34 26.05 94.13 36.68 106.25 47.31 106.33 57.94 86.01 68.56 97.48 79.19 79.24 89.82 112.58 100.45 110.24 111.07 107.14 121.7 102.18 132.33 68.81 142.96 70.78 153.58 67.64 164.21 68.65 174.84 37.33 185.47 57.99 196.1 26.28 206.72 67.3 217.35 58.28 227.98 41.9 238.61 45.03 249.23 55.44 259.86 56.83 270.49 48.64 281.12 44.97 291.74 49.05 302.37 48.49" class="geometry color_2" stroke="#00BFFF"/>
        <path fill="none" d="M-101.48,61.96 L -90.85 50.61 -80.22 58.4 -69.6 55.27 -58.97 61.25 -48.34 57.61 -37.71 56.44 -27.09 55 -16.46 50.84 -5.83 62.5 4.8 56.68 15.43 45.95 26.05 54.58 36.68 69.98 47.31 61.37 57.94 45.33 68.56 46.05 79.19 43.04 89.82 70.18 100.45 70.23 111.07 58.44 121.7 55.65 132.33 60.83 142.96 46.65 153.58 46.88 164.21 51.85 174.84 69.3 185.47 50.4 196.1 37.52 206.72 54.18 217.35 44.73 227.98 39.67 238.61 48.91 249.23 57.29 259.86 55.66 270.49 48.46 281.12 47.07 291.74 54.58 302.37 50.11" class="geometry color_4" stroke="#D4CA3A"/>
        <path fill="none" d="M-101.48,61.29 L -80.22 47.16 -69.6 56.65 -58.97 69.51 -48.34 69.01 -37.71 66.69 -27.09 67.03 -16.46 73.13 -5.83 72.34 4.8 68.9 15.43 70.95 26.05 68.84 36.68 81.51 47.31 77.49 57.94 65.09 68.56 72.86 79.19 50.4 89.82 90.66 100.45 90.04 111.07 85.2 121.7 79.42 132.33 73.77 142.96 54.31 153.58 51.35 164.21 55.39 174.84 66.04 185.47 52.27 196.1 31.11 206.72 60.39 217.35 48.3 227.98 38.76 238.61 45.4 249.23 55.76 259.86 56.55 270.49 49.43 281.12 47.27 291.74 53.23 302.37 51.04" class="geometry color_3" stroke="#FF6DAE"/>
      </g>
      <g class="geometry" id="img-743c1c3c-26">
        <g stroke-width="0.3" id="img-743c1c3c-27">
          <use xlink:href="#img-743c1c3c-28" x="-101.48" y="64.69" fill="#00BFFF" class="color_2" stroke="#FFFFFF"/>
          <use xlink:href="#img-743c1c3c-28" x="-101.48" y="61.96" fill="#D4CA3A" class="color_4" stroke="#FFFFFF"/>
          <use xlink:href="#img-743c1c3c-28" x="-101.48" y="61.29" fill="#FF6DAE" class="color_3" stroke="#FFFFFF"/>
          <use xlink:href="#img-743c1c3c-28" x="-101.48" y="45.13" fill="#00B78D" class="color_1" stroke="#FFFFFF"/>
          <use xlink:href="#img-743c1c3c-28" x="-90.85" y="50.61" fill="#D4CA3A" class="color_4" stroke="#FFFFFF"/>
          <use xlink:href="#img-743c1c3c-28" x="-90.85" y="50.42" fill="#00B78D" class="color_1" stroke="#FFFFFF"/>
          <use xlink:href="#img-743c1c3c-28" x="-80.22" y="66.09" fill="#00BFFF" class="color_2" stroke="#FFFFFF"/>
          <use xlink:href="#img-743c1c3c-28" x="-80.22" y="58.4" fill="#D4CA3A" class="color_4" stroke="#FFFFFF"/>
          <use xlink:href="#img-743c1c3c-28" x="-80.22" y="47.16" fill="#FF6DAE" class="color_3" stroke="#FFFFFF"/>
          <use xlink:href="#img-743c1c3c-28" x="-80.22" y="51.56" fill="#00B78D" class="color_1" stroke="#FFFFFF"/>
          <use xlink:href="#img-743c1c3c-28" x="-69.6" y="47.5" fill="#00BFFF" class="color_2" stroke="#FFFFFF"/>
          <use xlink:href="#img-743c1c3c-28" x="-69.6" y="55.27" fill="#D4CA3A" class="color_4" stroke="#FFFFFF"/>
          <use xlink:href="#img-743c1c3c-28" x="-69.6" y="56.65" fill="#FF6DAE" class="color_3" stroke="#FFFFFF"/>
          <use xlink:href="#img-743c1c3c-28" x="-69.6" y="46.71" fill="#00B78D" class="color_1" stroke="#FFFFFF"/>
          <use xlink:href="#img-743c1c3c-28" x="-58.97" y="70.28" fill="#00BFFF" class="color_2" stroke="#FFFFFF"/>
          <use xlink:href="#img-743c1c3c-28" x="-58.97" y="61.25" fill="#D4CA3A" class="color_4" stroke="#FFFFFF"/>
          <use xlink:href="#img-743c1c3c-28" x="-58.97" y="69.51" fill="#FF6DAE" class="color_3" stroke="#FFFFFF"/>
          <use xlink:href="#img-743c1c3c-28" x="-58.97" y="54.81" fill="#00B78D" class="color_1" stroke="#FFFFFF"/>
          <use xlink:href="#img-743c1c3c-28" x="-48.34" y="76.38" fill="#00BFFF" class="color_2" stroke="#FFFFFF"/>
          <use xlink:href="#img-743c1c3c-28" x="-48.34" y="57.61" fill="#D4CA3A" class="color_4" stroke="#FFFFFF"/>
          <use xlink:href="#img-743c1c3c-28" x="-48.34" y="69.01" fill="#FF6DAE" class="color_3" stroke="#FFFFFF"/>
          <use xlink:href="#img-743c1c3c-28" x="-48.34" y="52.32" fill="#00B78D" class="color_1" stroke="#FFFFFF"/>
          <use xlink:href="#img-743c1c3c-28" x="-37.71" y="76.19" fill="#00BFFF" class="color_2" stroke="#FFFFFF"/>
          <use xlink:href="#img-743c1c3c-28" x="-37.71" y="56.44" fill="#D4CA3A" class="color_4" stroke="#FFFFFF"/>
          <use xlink:href="#img-743c1c3c-28" x="-37.71" y="66.69" fill="#FF6DAE" class="color_3" stroke="#FFFFFF"/>
          <use xlink:href="#img-743c1c3c-28" x="-37.71" y="54.04" fill="#00B78D" class="color_1" stroke="#FFFFFF"/>
          <use xlink:href="#img-743c1c3c-28" x="-27.09" y="86.81" fill="#00BFFF" class="color_2" stroke="#FFFFFF"/>
          <use xlink:href="#img-743c1c3c-28" x="-27.09" y="55" fill="#D4CA3A" class="color_4" stroke="#FFFFFF"/>
          <use xlink:href="#img-743c1c3c-28" x="-27.09" y="67.03" fill="#FF6DAE" class="color_3" stroke="#FFFFFF"/>
          <use xlink:href="#img-743c1c3c-28" x="-27.09" y="53.97" fill="#00B78D" class="color_1" stroke="#FFFFFF"/>
          <use xlink:href="#img-743c1c3c-28" x="-16.46" y="90.67" fill="#00BFFF" class="color_2" stroke="#FFFFFF"/>
          <use xlink:href="#img-743c1c3c-28" x="-16.46" y="50.84" fill="#D4CA3A" class="color_4" stroke="#FFFFFF"/>
          <use xlink:href="#img-743c1c3c-28" x="-16.46" y="73.13" fill="#FF6DAE" class="color_3" stroke="#FFFFFF"/>
          <use xlink:href="#img-743c1c3c-28" x="-16.46" y="56.18" fill="#00B78D" class="color_1" stroke="#FFFFFF"/>
          <use xlink:href="#img-743c1c3c-28" x="-5.83" y="87.38" fill="#00BFFF" class="color_2" stroke="#FFFFFF"/>
          <use xlink:href="#img-743c1c3c-28" x="-5.83" y="62.5" fill="#D4CA3A" class="color_4" stroke="#FFFFFF"/>
          <use xlink:href="#img-743c1c3c-28" x="-5.83" y="72.34" fill="#FF6DAE" class="color_3" stroke="#FFFFFF"/>
          <use xlink:href="#img-743c1c3c-28" x="-5.83" y="45.46" fill="#00B78D" class="color_1" stroke="#FFFFFF"/>
          <use xlink:href="#img-743c1c3c-28" x="4.8" y="88.55" fill="#00BFFF" class="color_2" stroke="#FFFFFF"/>
          <use xlink:href="#img-743c1c3c-28" x="4.8" y="56.68" fill="#D4CA3A" class="color_4" stroke="#FFFFFF"/>
          <use xlink:href="#img-743c1c3c-28" x="4.8" y="68.9" fill="#FF6DAE" class="color_3" stroke="#FFFFFF"/>
          <use xlink:href="#img-743c1c3c-28" x="4.8" y="47.18" fill="#00B78D" class="color_1" stroke="#FFFFFF"/>
          <use xlink:href="#img-743c1c3c-28" x="15.43" y="99.34" fill="#00BFFF" class="color_2" stroke="#FFFFFF"/>
          <use xlink:href="#img-743c1c3c-28" x="15.43" y="45.95" fill="#D4CA3A" class="color_4" stroke="#FFFFFF"/>
          <use xlink:href="#img-743c1c3c-28" x="15.43" y="70.95" fill="#FF6DAE" class="color_3" stroke="#FFFFFF"/>
          <use xlink:href="#img-743c1c3c-28" x="15.43" y="38.51" fill="#00B78D" class="color_1" stroke="#FFFFFF"/>
          <use xlink:href="#img-743c1c3c-28" x="26.05" y="94.13" fill="#00BFFF" class="color_2" stroke="#FFFFFF"/>
          <use xlink:href="#img-743c1c3c-28" x="26.05" y="54.58" fill="#D4CA3A" class="color_4" stroke="#FFFFFF"/>
          <use xlink:href="#img-743c1c3c-28" x="26.05" y="68.84" fill="#FF6DAE" class="color_3" stroke="#FFFFFF"/>
          <use xlink:href="#img-743c1c3c-28" x="26.05" y="45.51" fill="#00B78D" class="color_1" stroke="#FFFFFF"/>
          <use xlink:href="#img-743c1c3c-28" x="36.68" y="106.25" fill="#00BFFF" class="color_2" stroke="#FFFFFF"/>
          <use xlink:href="#img-743c1c3c-28" x="36.68" y="69.98" fill="#D4CA3A" class="color_4" stroke="#FFFFFF"/>
          <use xlink:href="#img-743c1c3c-28" x="36.68" y="81.51" fill="#FF6DAE" class="color_3" stroke="#FFFFFF"/>
          <use xlink:href="#img-743c1c3c-28" x="36.68" y="65.83" fill="#00B78D" class="color_1" stroke="#FFFFFF"/>
          <use xlink:href="#img-743c1c3c-28" x="47.31" y="106.33" fill="#00BFFF" class="color_2" stroke="#FFFFFF"/>
          <use xlink:href="#img-743c1c3c-28" x="47.31" y="61.37" fill="#D4CA3A" class="color_4" stroke="#FFFFFF"/>
          <use xlink:href="#img-743c1c3c-28" x="47.31" y="77.49" fill="#FF6DAE" class="color_3" stroke="#FFFFFF"/>
          <use xlink:href="#img-743c1c3c-28" x="47.31" y="53.6" fill="#00B78D" class="color_1" stroke="#FFFFFF"/>
          <use xlink:href="#img-743c1c3c-28" x="57.94" y="86.01" fill="#00BFFF" class="color_2" stroke="#FFFFFF"/>
          <use xlink:href="#img-743c1c3c-28" x="57.94" y="45.33" fill="#D4CA3A" class="color_4" stroke="#FFFFFF"/>
          <use xlink:href="#img-743c1c3c-28" x="57.94" y="65.09" fill="#FF6DAE" class="color_3" stroke="#FFFFFF"/>
          <use xlink:href="#img-743c1c3c-28" x="57.94" y="31.99" fill="#00B78D" class="color_1" stroke="#FFFFFF"/>
          <use xlink:href="#img-743c1c3c-28" x="68.56" y="97.48" fill="#00BFFF" class="color_2" stroke="#FFFFFF"/>
          <use xlink:href="#img-743c1c3c-28" x="68.56" y="46.05" fill="#D4CA3A" class="color_4" stroke="#FFFFFF"/>
          <use xlink:href="#img-743c1c3c-28" x="68.56" y="72.86" fill="#FF6DAE" class="color_3" stroke="#FFFFFF"/>
          <use xlink:href="#img-743c1c3c-28" x="68.56" y="32.39" fill="#00B78D" class="color_1" stroke="#FFFFFF"/>
          <use xlink:href="#img-743c1c3c-28" x="79.19" y="79.24" fill="#00BFFF" class="color_2" stroke="#FFFFFF"/>
          <use xlink:href="#img-743c1c3c-28" x="79.19" y="43.04" fill="#D4CA3A" class="color_4" stroke="#FFFFFF"/>
          <use xlink:href="#img-743c1c3c-28" x="79.19" y="50.4" fill="#FF6DAE" class="color_3" stroke="#FFFFFF"/>
          <use xlink:href="#img-743c1c3c-28" x="79.19" y="44.47" fill="#00B78D" class="color_1" stroke="#FFFFFF"/>
          <use xlink:href="#img-743c1c3c-28" x="89.82" y="112.58" fill="#00BFFF" class="color_2" stroke="#FFFFFF"/>
          <use xlink:href="#img-743c1c3c-28" x="89.82" y="70.18" fill="#D4CA3A" class="color_4" stroke="#FFFFFF"/>
          <use xlink:href="#img-743c1c3c-28" x="89.82" y="90.66" fill="#FF6DAE" class="color_3" stroke="#FFFFFF"/>
          <use xlink:href="#img-743c1c3c-28" x="89.82" y="63.9" fill="#00B78D" class="color_1" stroke="#FFFFFF"/>
          <use xlink:href="#img-743c1c3c-28" x="100.45" y="110.24" fill="#00BFFF" class="color_2" stroke="#FFFFFF"/>
          <use xlink:href="#img-743c1c3c-28" x="100.45" y="70.23" fill="#D4CA3A" class="color_4" stroke="#FFFFFF"/>
          <use xlink:href="#img-743c1c3c-28" x="100.45" y="90.04" fill="#FF6DAE" class="color_3" stroke="#FFFFFF"/>
          <use xlink:href="#img-743c1c3c-28" x="100.45" y="70.55" fill="#00B78D" class="color_1" stroke="#FFFFFF"/>
          <use xlink:href="#img-743c1c3c-28" x="111.07" y="107.14" fill="#00BFFF" class="color_2" stroke="#FFFFFF"/>
          <use xlink:href="#img-743c1c3c-28" x="111.07" y="58.44" fill="#D4CA3A" class="color_4" stroke="#FFFFFF"/>
          <use xlink:href="#img-743c1c3c-28" x="111.07" y="85.2" fill="#FF6DAE" class="color_3" stroke="#FFFFFF"/>
          <use xlink:href="#img-743c1c3c-28" x="111.07" y="60.73" fill="#00B78D" class="color_1" stroke="#FFFFFF"/>
          <use xlink:href="#img-743c1c3c-28" x="121.7" y="102.18" fill="#00BFFF" class="color_2" stroke="#FFFFFF"/>
          <use xlink:href="#img-743c1c3c-28" x="121.7" y="55.65" fill="#D4CA3A" class="color_4" stroke="#FFFFFF"/>
          <use xlink:href="#img-743c1c3c-28" x="121.7" y="79.42" fill="#FF6DAE" class="color_3" stroke="#FFFFFF"/>
          <use xlink:href="#img-743c1c3c-28" x="121.7" y="59.9" fill="#00B78D" class="color_1" stroke="#FFFFFF"/>
          <use xlink:href="#img-743c1c3c-28" x="132.33" y="68.81" fill="#00BFFF" class="color_2" stroke="#FFFFFF"/>
          <use xlink:href="#img-743c1c3c-28" x="132.33" y="60.83" fill="#D4CA3A" class="color_4" stroke="#FFFFFF"/>
          <use xlink:href="#img-743c1c3c-28" x="132.33" y="73.77" fill="#FF6DAE" class="color_3" stroke="#FFFFFF"/>
          <use xlink:href="#img-743c1c3c-28" x="132.33" y="57.67" fill="#00B78D" class="color_1" stroke="#FFFFFF"/>
          <use xlink:href="#img-743c1c3c-28" x="142.96" y="70.78" fill="#00BFFF" class="color_2" stroke="#FFFFFF"/>
          <use xlink:href="#img-743c1c3c-28" x="142.96" y="46.65" fill="#D4CA3A" class="color_4" stroke="#FFFFFF"/>
          <use xlink:href="#img-743c1c3c-28" x="142.96" y="54.31" fill="#FF6DAE" class="color_3" stroke="#FFFFFF"/>
          <use xlink:href="#img-743c1c3c-28" x="142.96" y="48.75" fill="#00B78D" class="color_1" stroke="#FFFFFF"/>
          <use xlink:href="#img-743c1c3c-28" x="153.58" y="67.64" fill="#00BFFF" class="color_2" stroke="#FFFFFF"/>
          <use xlink:href="#img-743c1c3c-28" x="153.58" y="46.88" fill="#D4CA3A" class="color_4" stroke="#FFFFFF"/>
          <use xlink:href="#img-743c1c3c-28" x="153.58" y="51.35" fill="#FF6DAE" class="color_3" stroke="#FFFFFF"/>
          <use xlink:href="#img-743c1c3c-28" x="153.58" y="45.01" fill="#00B78D" class="color_1" stroke="#FFFFFF"/>
          <use xlink:href="#img-743c1c3c-28" x="164.21" y="68.65" fill="#00BFFF" class="color_2" stroke="#FFFFFF"/>
          <use xlink:href="#img-743c1c3c-28" x="164.21" y="51.85" fill="#D4CA3A" class="color_4" stroke="#FFFFFF"/>
          <use xlink:href="#img-743c1c3c-28" x="164.21" y="55.39" fill="#FF6DAE" class="color_3" stroke="#FFFFFF"/>
          <use xlink:href="#img-743c1c3c-28" x="164.21" y="58.1" fill="#00B78D" class="color_1" stroke="#FFFFFF"/>
          <use xlink:href="#img-743c1c3c-28" x="174.84" y="37.33" fill="#00BFFF" class="color_2" stroke="#FFFFFF"/>
          <use xlink:href="#img-743c1c3c-28" x="174.84" y="69.3" fill="#D4CA3A" class="color_4" stroke="#FFFFFF"/>
          <use xlink:href="#img-743c1c3c-28" x="174.84" y="66.04" fill="#FF6DAE" class="color_3" stroke="#FFFFFF"/>
          <use xlink:href="#img-743c1c3c-28" x="174.84" y="76.51" fill="#00B78D" class="color_1" stroke="#FFFFFF"/>
          <use xlink:href="#img-743c1c3c-28" x="185.47" y="57.99" fill="#00BFFF" class="color_2" stroke="#FFFFFF"/>
          <use xlink:href="#img-743c1c3c-28" x="185.47" y="50.4" fill="#D4CA3A" class="color_4" stroke="#FFFFFF"/>
          <use xlink:href="#img-743c1c3c-28" x="185.47" y="52.27" fill="#FF6DAE" class="color_3" stroke="#FFFFFF"/>
          <use xlink:href="#img-743c1c3c-28" x="185.47" y="58.75" fill="#00B78D" class="color_1" stroke="#FFFFFF"/>
          <use xlink:href="#img-743c1c3c-28" x="196.1" y="26.28" fill="#00BFFF" class="color_2" stroke="#FFFFFF"/>
          <use xlink:href="#img-743c1c3c-28" x="196.1" y="37.52" fill="#D4CA3A" class="color_4" stroke="#FFFFFF"/>
          <use xlink:href="#img-743c1c3c-28" x="196.1" y="31.11" fill="#FF6DAE" class="color_3" stroke="#FFFFFF"/>
          <use xlink:href="#img-743c1c3c-28" x="196.1" y="46.65" fill="#00B78D" class="color_1" stroke="#FFFFFF"/>
          <use xlink:href="#img-743c1c3c-28" x="206.72" y="67.3" fill="#00BFFF" class="color_2" stroke="#FFFFFF"/>
          <use xlink:href="#img-743c1c3c-28" x="206.72" y="54.18" fill="#D4CA3A" class="color_4" stroke="#FFFFFF"/>
          <use xlink:href="#img-743c1c3c-28" x="206.72" y="60.39" fill="#FF6DAE" class="color_3" stroke="#FFFFFF"/>
          <use xlink:href="#img-743c1c3c-28" x="206.72" y="57.86" fill="#00B78D" class="color_1" stroke="#FFFFFF"/>
          <use xlink:href="#img-743c1c3c-28" x="217.35" y="58.28" fill="#00BFFF" class="color_2" stroke="#FFFFFF"/>
          <use xlink:href="#img-743c1c3c-28" x="217.35" y="44.73" fill="#D4CA3A" class="color_4" stroke="#FFFFFF"/>
          <use xlink:href="#img-743c1c3c-28" x="217.35" y="48.3" fill="#FF6DAE" class="color_3" stroke="#FFFFFF"/>
          <use xlink:href="#img-743c1c3c-28" x="217.35" y="51.76" fill="#00B78D" class="color_1" stroke="#FFFFFF"/>
          <use xlink:href="#img-743c1c3c-28" x="227.98" y="41.9" fill="#00BFFF" class="color_2" stroke="#FFFFFF"/>
          <use xlink:href="#img-743c1c3c-28" x="227.98" y="39.67" fill="#D4CA3A" class="color_4" stroke="#FFFFFF"/>
          <use xlink:href="#img-743c1c3c-28" x="227.98" y="38.76" fill="#FF6DAE" class="color_3" stroke="#FFFFFF"/>
          <use xlink:href="#img-743c1c3c-28" x="227.98" y="48.67" fill="#00B78D" class="color_1" stroke="#FFFFFF"/>
          <use xlink:href="#img-743c1c3c-28" x="238.61" y="45.03" fill="#00BFFF" class="color_2" stroke="#FFFFFF"/>
          <use xlink:href="#img-743c1c3c-28" x="238.61" y="48.91" fill="#D4CA3A" class="color_4" stroke="#FFFFFF"/>
          <use xlink:href="#img-743c1c3c-28" x="238.61" y="45.4" fill="#FF6DAE" class="color_3" stroke="#FFFFFF"/>
          <use xlink:href="#img-743c1c3c-28" x="238.61" y="55.71" fill="#00B78D" class="color_1" stroke="#FFFFFF"/>
          <use xlink:href="#img-743c1c3c-28" x="249.23" y="55.44" fill="#00BFFF" class="color_2" stroke="#FFFFFF"/>
          <use xlink:href="#img-743c1c3c-28" x="249.23" y="57.29" fill="#D4CA3A" class="color_4" stroke="#FFFFFF"/>
          <use xlink:href="#img-743c1c3c-28" x="249.23" y="55.76" fill="#FF6DAE" class="color_3" stroke="#FFFFFF"/>
          <use xlink:href="#img-743c1c3c-28" x="249.23" y="64.09" fill="#00B78D" class="color_1" stroke="#FFFFFF"/>
          <use xlink:href="#img-743c1c3c-28" x="259.86" y="56.83" fill="#00BFFF" class="color_2" stroke="#FFFFFF"/>
          <use xlink:href="#img-743c1c3c-28" x="259.86" y="55.66" fill="#D4CA3A" class="color_4" stroke="#FFFFFF"/>
          <use xlink:href="#img-743c1c3c-28" x="259.86" y="56.55" fill="#FF6DAE" class="color_3" stroke="#FFFFFF"/>
          <use xlink:href="#img-743c1c3c-28" x="259.86" y="67.67" fill="#00B78D" class="color_1" stroke="#FFFFFF"/>
          <use xlink:href="#img-743c1c3c-28" x="270.49" y="48.64" fill="#00BFFF" class="color_2" stroke="#FFFFFF"/>
          <use xlink:href="#img-743c1c3c-28" x="270.49" y="48.46" fill="#D4CA3A" class="color_4" stroke="#FFFFFF"/>
          <use xlink:href="#img-743c1c3c-28" x="270.49" y="49.43" fill="#FF6DAE" class="color_3" stroke="#FFFFFF"/>
          <use xlink:href="#img-743c1c3c-28" x="270.49" y="64.04" fill="#00B78D" class="color_1" stroke="#FFFFFF"/>
          <use xlink:href="#img-743c1c3c-28" x="281.12" y="44.97" fill="#00BFFF" class="color_2" stroke="#FFFFFF"/>
          <use xlink:href="#img-743c1c3c-28" x="281.12" y="47.07" fill="#D4CA3A" class="color_4" stroke="#FFFFFF"/>
          <use xlink:href="#img-743c1c3c-28" x="281.12" y="47.27" fill="#FF6DAE" class="color_3" stroke="#FFFFFF"/>
          <use xlink:href="#img-743c1c3c-28" x="281.12" y="62.53" fill="#00B78D" class="color_1" stroke="#FFFFFF"/>
          <use xlink:href="#img-743c1c3c-28" x="291.74" y="49.05" fill="#00BFFF" class="color_2" stroke="#FFFFFF"/>
          <use xlink:href="#img-743c1c3c-28" x="291.74" y="54.58" fill="#D4CA3A" class="color_4" stroke="#FFFFFF"/>
          <use xlink:href="#img-743c1c3c-28" x="291.74" y="53.23" fill="#FF6DAE" class="color_3" stroke="#FFFFFF"/>
          <use xlink:href="#img-743c1c3c-28" x="291.74" y="69.56" fill="#00B78D" class="color_1" stroke="#FFFFFF"/>
          <use xlink:href="#img-743c1c3c-28" x="302.37" y="48.49" fill="#00BFFF" class="color_2" stroke="#FFFFFF"/>
          <use xlink:href="#img-743c1c3c-28" x="302.37" y="50.11" fill="#D4CA3A" class="color_4" stroke="#FFFFFF"/>
          <use xlink:href="#img-743c1c3c-28" x="302.37" y="51.04" fill="#FF6DAE" class="color_3" stroke="#FFFFFF"/>
          <use xlink:href="#img-743c1c3c-28" x="302.37" y="67.75" fill="#00B78D" class="color_1" stroke="#FFFFFF"/>
        </g>
      </g>
    </g>
  </g>
</g>
  <g class="guide ylabels" font-size="4.76" font-family="'PT Sans Caption','Helvetica Neue','Helvetica',sans-serif" fill="#6C606B" id="img-743c1c3c-29">
    <text x="23.05" y="123.42" text-anchor="end" dy="0.35em">-50</text>
    <text x="23.05" y="110.16" text-anchor="end" dy="0.35em">-40</text>
    <text x="23.05" y="96.9" text-anchor="end" dy="0.35em">-30</text>
    <text x="23.05" y="83.64" text-anchor="end" dy="0.35em">-20</text>
    <text x="23.05" y="70.38" text-anchor="end" dy="0.35em">-10</text>
    <text x="23.05" y="57.13" text-anchor="end" dy="0.35em">0</text>
    <text x="23.05" y="43.87" text-anchor="end" dy="0.35em">10</text>
    <text x="23.05" y="30.61" text-anchor="end" dy="0.35em">20</text>
    <text x="23.05" y="17.35" text-anchor="end" dy="0.35em">30</text>
  </g>
  <g font-size="6.35" font-family="'PT Sans','Helvetica Neue','Helvetica',sans-serif" fill="#564A55" stroke="#000000" stroke-opacity="0.000" id="img-743c1c3c-30">
    <text x="9.82" y="68.38" text-anchor="middle" dy="0.35em" transform="rotate(-90, 9.82, 70.38)">Difference (%)</text>
  </g>
  <g font-size="6.35" font-family="'PT Sans','Helvetica Neue','Helvetica',sans-serif" fill="#564A55" stroke="#000000" stroke-opacity="0.000" id="img-743c1c3c-31">
    <text x="169.53" y="13.35" text-anchor="middle">Republican - Democratic Popular Vote (%) by Cluster</text>
  </g>
</g>
<defs>
  <clipPath id="img-743c1c3c-18">
  <path d="M24.05,15.35 L 315 15.35 315 125.42 24.05 125.42" />
</clipPath>
  <g id="img-743c1c3c-28">
    <circle cx="0" cy="0" r="0.9"/>
  </g>
</defs>
</svg>
