<?xml version="1.0" encoding="UTF-8"?>
<svg xmlns="http://www.w3.org/2000/svg"
     xmlns:xlink="http://www.w3.org/1999/xlink"
     xmlns:gadfly="http://www.gadflyjl.org/ns"
     version="1.2"
     width="158.73mm" height="119.05mm" viewBox="0 0 158.73 119.05"
     stroke="none"
     fill="#000000"
     stroke-width="0.3"
     font-size="3.88"
>
<g stroke="#000000" stroke-opacity="0.000" fill="#222831" id="img-290d5cd5-1">
  <rect x="0" y="0" width="158.73" height="119.05"/>
</g>
<g class="plotroot xscalable yscalable" id="img-290d5cd5-2">
  <g font-size="5.29" font-family="'PT Sans','Helvetica Neue','Helvetica',sans-serif" fill="#A1A1A1" stroke="#000000" stroke-opacity="0.000" id="img-290d5cd5-3">
    <text x="88.2" y="106.12" text-anchor="middle" dy="0.6em">Year</text>
  </g>
  <g class="guide xlabels" font-size="3.7" font-family="'PT Sans Caption','Helvetica Neue','Helvetica',sans-serif" fill="#A1A1A1" id="img-290d5cd5-4">
    <text x="24.66" y="98.61" text-anchor="middle" dy="0.6em">1960</text>
    <text x="42.81" y="98.61" text-anchor="middle" dy="0.6em">1968</text>
    <text x="60.97" y="98.61" text-anchor="middle" dy="0.6em">1976</text>
    <text x="79.12" y="98.61" text-anchor="middle" dy="0.6em">1984</text>
    <text x="97.27" y="98.61" text-anchor="middle" dy="0.6em">1992</text>
    <text x="115.42" y="98.61" text-anchor="middle" dy="0.6em">2000</text>
    <text x="133.58" y="98.61" text-anchor="middle" dy="0.6em">2008</text>
    <text x="151.73" y="98.61" text-anchor="middle" dy="0.6em">2016</text>
  </g>
<g clip-path="url(#img-290d5cd5-5)">
  <g id="img-290d5cd5-6">
    <g pointer-events="visible" opacity="1" fill="#222831" stroke="#000000" stroke-opacity="0.000" class="guide background" id="img-290d5cd5-7">
      <rect x="22.66" y="5" width="131.07" height="92.61"/>
    </g>
    <g class="guide ygridlines xfixed" stroke-dasharray="0.5,0.5" stroke-width="0.2" stroke="#575757" id="img-290d5cd5-8">
      <path fill="none" d="M22.66,95.61 L 153.73 95.61"/>
      <path fill="none" d="M22.66,66.08 L 153.73 66.08"/>
      <path fill="none" d="M22.66,36.54 L 153.73 36.54"/>
      <path fill="none" d="M22.66,7 L 153.73 7"/>
    </g>
    <g class="guide xgridlines yfixed" stroke-dasharray="0.5,0.5" stroke-width="0.2" stroke="#575757" id="img-290d5cd5-9">
      <path fill="none" d="M24.66,5 L 24.66 97.61"/>
      <path fill="none" d="M42.81,5 L 42.81 97.61"/>
      <path fill="none" d="M60.97,5 L 60.97 97.61"/>
      <path fill="none" d="M79.12,5 L 79.12 97.61"/>
      <path fill="none" d="M97.27,5 L 97.27 97.61"/>
      <path fill="none" d="M115.42,5 L 115.42 97.61"/>
      <path fill="none" d="M133.58,5 L 133.58 97.61"/>
      <path fill="none" d="M151.73,5 L 151.73 97.61"/>
    </g>
    <g class="plotpanel" id="img-290d5cd5-10">
      <g shape-rendering="crispEdges" stroke-width="0.3" id="img-290d5cd5-11">
        <g stroke="#000000" stroke-opacity="0.000" fill="#FE4365" class="geometry" id="img-290d5cd5-12">
          <rect x="29.17" y="29.43" width="9.13" height="36.65"/>
          <rect x="38.25" y="66.08" width="9.13" height="12.09"/>
          <rect x="47.33" y="57.99" width="9.13" height="8.09"/>
          <rect x="56.4" y="66.08" width="9.13" height="27.45"/>
          <rect x="65.48" y="66.08" width="9.13" height="23.34"/>
          <rect x="74.56" y="66.08" width="9.13" height="10.37"/>
          <rect x="83.63" y="66.08" width="9.13" height="3.4"/>
          <rect x="92.71" y="66.08" width="9.13" height="5.59"/>
          <rect x="101.79" y="66.08" width="9.13" height="1.35"/>
          <rect x="110.86" y="63.27" width="9.13" height="2.81"/>
          <rect x="119.94" y="59.44" width="9.13" height="6.64"/>
          <rect x="129.01" y="50.86" width="9.13" height="15.22"/>
          <rect x="138.09" y="51.89" width="9.13" height="14.18"/>
        </g>
      </g>
    </g>
  </g>
</g>
  <g class="guide ylabels" font-size="3.7" font-family="'PT Sans Caption','Helvetica Neue','Helvetica',sans-serif" fill="#A1A1A1" id="img-290d5cd5-13">
    <text x="21.66" y="95.61" text-anchor="end" dy="0.35em">-0.5</text>
    <text x="21.66" y="66.08" text-anchor="end" dy="0.35em">0.0</text>
    <text x="21.66" y="36.54" text-anchor="end" dy="0.35em">0.5</text>
    <text x="21.66" y="7" text-anchor="end" dy="0.35em">1.0</text>
  </g>
  <g font-size="5.29" font-family="'PT Sans','Helvetica Neue','Helvetica',sans-serif" fill="#A1A1A1" stroke="#000000" stroke-opacity="0.000" id="img-290d5cd5-14">
    <text x="9.46" y="49.31" text-anchor="middle" dy="0.35em" transform="rotate(-90, 9.46, 51.31)">PC1 Loadings</text>
  </g>
</g>
<defs>
  <clipPath id="img-290d5cd5-5">
  <path d="M22.66,5 L 153.73 5 153.73 97.61 22.66 97.61" />
</clipPath>
</defs>
</svg>
