<?xml version="1.0" encoding="UTF-8"?>
<svg xmlns="http://www.w3.org/2000/svg"
     xmlns:xlink="http://www.w3.org/1999/xlink"
     xmlns:gadfly="http://www.gadflyjl.org/ns"
     version="1.2"
     width="320mm" height="160mm" viewBox="0 0 320 160"
     stroke="none"
     fill="#000000"
     stroke-width="0.3"
     font-size="3.88"
>
<g class="plotroot xscalable yscalable" id="img-29816ce5-1">
  <g class="guide colorkey" id="img-29816ce5-2">
    <g class="color_Democratic" id="img-29816ce5-3">
      <g fill="#4C404B" font-size="4.76" font-family="'PT Sans','Helvetica Neue','Helvetica',sans-serif" id="img-29816ce5-4">
        <text x="57.56" y="150.05" dy="0.35em">Democratic</text>
      </g>
      <g fill="#0000FF" stroke="#000000" stroke-opacity="0.000" id="img-29816ce5-5">
        <rect x="53.84" y="148.69" width="2.72" height="2.72"/>
      </g>
    </g>
    <g class="color_Republican" id="img-29816ce5-6">
      <g fill="#4C404B" font-size="4.76" font-family="'PT Sans','Helvetica Neue','Helvetica',sans-serif" id="img-29816ce5-7">
        <text x="30.1" y="150.05" dy="0.35em">Republican</text>
      </g>
      <g fill="#FF0000" stroke="#000000" stroke-opacity="0.000" id="img-29816ce5-8">
        <rect x="26.38" y="148.69" width="2.72" height="2.72"/>
      </g>
    </g>
    <g fill="#362A35" font-size="6.35" font-family="'PT Sans','Helvetica Neue','Helvetica',sans-serif" stroke="#000000" stroke-opacity="0.000" id="img-29816ce5-9">
      <text x="26.38" y="145.57">Party</text>
    </g>
  </g>
  <g font-size="6.35" font-family="'PT Sans','Helvetica Neue','Helvetica',sans-serif" fill="#564A55" stroke="#000000" stroke-opacity="0.000" id="img-29816ce5-10">
    <text x="170.19" y="130.75" text-anchor="middle" dy="0.6em">Year</text>
  </g>
  <g class="guide xlabels" font-size="4.76" font-family="'PT Sans Caption','Helvetica Neue','Helvetica',sans-serif" fill="#6C606B" id="img-29816ce5-11">
    <text x="27.38" y="122.24" text-anchor="middle" dy="0.6em">1824</text>
    <text x="45.23" y="122.24" text-anchor="middle" dy="0.6em">1836</text>
    <text x="63.08" y="122.24" text-anchor="middle" dy="0.6em">1848</text>
    <text x="80.93" y="122.24" text-anchor="middle" dy="0.6em">1860</text>
    <text x="98.78" y="122.24" text-anchor="middle" dy="0.6em">1872</text>
    <text x="116.64" y="122.24" text-anchor="middle" dy="0.6em">1884</text>
    <text x="134.49" y="122.24" text-anchor="middle" dy="0.6em">1896</text>
    <text x="152.34" y="122.24" text-anchor="middle" dy="0.6em">1908</text>
    <text x="170.19" y="122.24" text-anchor="middle" dy="0.6em">1920</text>
    <text x="188.04" y="122.24" text-anchor="middle" dy="0.6em">1932</text>
    <text x="205.89" y="122.24" text-anchor="middle" dy="0.6em">1944</text>
    <text x="223.74" y="122.24" text-anchor="middle" dy="0.6em">1956</text>
    <text x="241.59" y="122.24" text-anchor="middle" dy="0.6em">1968</text>
    <text x="259.45" y="122.24" text-anchor="middle" dy="0.6em">1980</text>
    <text x="277.3" y="122.24" text-anchor="middle" dy="0.6em">1992</text>
    <text x="295.15" y="122.24" text-anchor="middle" dy="0.6em">2004</text>
    <text x="313" y="122.24" text-anchor="middle" dy="0.6em">2016</text>
  </g>
<g clip-path="url(#img-29816ce5-12)">
  <g id="img-29816ce5-13">
    <g pointer-events="visible" opacity="1" fill="#000000" fill-opacity="0.000" stroke="#000000" stroke-opacity="0.000" class="guide background" id="img-29816ce5-14">
      <rect x="25.38" y="14.91" width="289.62" height="106.33"/>
    </g>
    <g class="guide ygridlines xfixed" stroke-dasharray="0.5,0.5" stroke-width="0.26" stroke="#000000" id="img-29816ce5-15">
      <path fill="none" d="M25.38,119.24 L 315 119.24"/>
      <path fill="none" d="M25.38,93.66 L 315 93.66"/>
      <path fill="none" d="M25.38,68.07 L 315 68.07"/>
      <path fill="none" d="M25.38,42.49 L 315 42.49"/>
      <path fill="none" d="M25.38,16.91 L 315 16.91"/>
    </g>
    <g class="guide xgridlines yfixed" stroke-dasharray="0.5,0.5" stroke-width="0.26" stroke="#000000" id="img-29816ce5-16">
      <path fill="none" d="M27.38,14.91 L 27.38 121.24"/>
      <path fill="none" d="M45.23,14.91 L 45.23 121.24"/>
      <path fill="none" d="M63.08,14.91 L 63.08 121.24"/>
      <path fill="none" d="M80.93,14.91 L 80.93 121.24"/>
      <path fill="none" d="M98.78,14.91 L 98.78 121.24"/>
      <path fill="none" d="M116.64,14.91 L 116.64 121.24"/>
      <path fill="none" d="M134.49,14.91 L 134.49 121.24"/>
      <path fill="none" d="M152.34,14.91 L 152.34 121.24"/>
      <path fill="none" d="M170.19,14.91 L 170.19 121.24"/>
      <path fill="none" d="M188.04,14.91 L 188.04 121.24"/>
      <path fill="none" d="M205.89,14.91 L 205.89 121.24"/>
      <path fill="none" d="M223.74,14.91 L 223.74 121.24"/>
      <path fill="none" d="M241.59,14.91 L 241.59 121.24"/>
      <path fill="none" d="M259.45,14.91 L 259.45 121.24"/>
      <path fill="none" d="M277.3,14.91 L 277.3 121.24"/>
      <path fill="none" d="M295.15,14.91 L 295.15 121.24"/>
      <path fill="none" d="M313,14.91 L 313 121.24"/>
    </g>
    <g class="plotpanel" id="img-29816ce5-17">
      <g class="geometry" id="img-29816ce5-18">
        <g stroke-width="0.3" id="img-29816ce5-19">
          <use xlink:href="#img-29816ce5-20" x="80.93" y="94.97" class="color_Republican" fill="#FF0000" stroke="#FFFFFF"/>
          <use xlink:href="#img-29816ce5-20" x="86.88" y="69.92" class="color_Republican" fill="#FF0000" stroke="#FFFFFF"/>
          <use xlink:href="#img-29816ce5-20" x="92.83" y="77.28" class="color_Republican" fill="#FF0000" stroke="#FFFFFF"/>
          <use xlink:href="#img-29816ce5-20" x="98.78" y="67.05" class="color_Republican" fill="#FF0000" stroke="#FFFFFF"/>
          <use xlink:href="#img-29816ce5-20" x="104.74" y="73.65" class="color_Republican" fill="#FF0000" stroke="#FFFFFF"/>
          <use xlink:href="#img-29816ce5-20" x="110.69" y="70.09" class="color_Republican" fill="#FF0000" stroke="#FFFFFF"/>
          <use xlink:href="#img-29816ce5-20" x="116.64" y="75.03" class="color_Republican" fill="#FF0000" stroke="#FFFFFF"/>
          <use xlink:href="#img-29816ce5-20" x="122.59" y="74.72" class="color_Republican" fill="#FF0000" stroke="#FFFFFF"/>
          <use xlink:href="#img-29816ce5-20" x="128.54" y="69.56" class="color_Republican" fill="#FF0000" stroke="#FFFFFF"/>
          <use xlink:href="#img-29816ce5-20" x="134.49" y="64.82" class="color_Republican" fill="#FF0000" stroke="#FFFFFF"/>
          <use xlink:href="#img-29816ce5-20" x="140.44" y="64.32" class="color_Republican" fill="#FF0000" stroke="#FFFFFF"/>
          <use xlink:href="#img-29816ce5-20" x="146.39" y="63.93" class="color_Republican" fill="#FF0000" stroke="#FFFFFF"/>
          <use xlink:href="#img-29816ce5-20" x="152.34" y="65.92" class="color_Republican" fill="#FF0000" stroke="#FFFFFF"/>
          <use xlink:href="#img-29816ce5-20" x="158.29" y="85.62" class="color_Republican" fill="#FF0000" stroke="#FFFFFF"/>
          <use xlink:href="#img-29816ce5-20" x="164.24" y="67.86" class="color_Republican" fill="#FF0000" stroke="#FFFFFF"/>
          <use xlink:href="#img-29816ce5-20" x="170.19" y="62.23" class="color_Republican" fill="#FF0000" stroke="#FFFFFF"/>
          <use xlink:href="#img-29816ce5-20" x="176.14" y="60.19" class="color_Republican" fill="#FF0000" stroke="#FFFFFF"/>
          <use xlink:href="#img-29816ce5-20" x="182.09" y="52.69" class="color_Republican" fill="#FF0000" stroke="#FFFFFF"/>
          <use xlink:href="#img-29816ce5-20" x="188.04" y="67.51" class="color_Republican" fill="#FF0000" stroke="#FFFFFF"/>
          <use xlink:href="#img-29816ce5-20" x="193.99" y="73.34" class="color_Republican" fill="#FF0000" stroke="#FFFFFF"/>
          <use xlink:href="#img-29816ce5-20" x="199.94" y="73.14" class="color_Republican" fill="#FF0000" stroke="#FFFFFF"/>
          <use xlink:href="#img-29816ce5-20" x="205.89" y="72.92" class="color_Republican" fill="#FF0000" stroke="#FFFFFF"/>
          <use xlink:href="#img-29816ce5-20" x="211.84" y="68.04" class="color_Republican" fill="#FF0000" stroke="#FFFFFF"/>
          <use xlink:href="#img-29816ce5-20" x="217.79" y="66.28" class="color_Republican" fill="#FF0000" stroke="#FFFFFF"/>
          <use xlink:href="#img-29816ce5-20" x="223.74" y="62.86" class="color_Republican" fill="#FF0000" stroke="#FFFFFF"/>
          <use xlink:href="#img-29816ce5-20" x="229.69" y="69.1" class="color_Republican" fill="#FF0000" stroke="#FFFFFF"/>
          <use xlink:href="#img-29816ce5-20" x="235.64" y="79.55" class="color_Republican" fill="#FF0000" stroke="#FFFFFF"/>
          <use xlink:href="#img-29816ce5-20" x="241.59" y="73.07" class="color_Republican" fill="#FF0000" stroke="#FFFFFF"/>
          <use xlink:href="#img-29816ce5-20" x="247.55" y="58.25" class="color_Republican" fill="#FF0000" stroke="#FFFFFF"/>
          <use xlink:href="#img-29816ce5-20" x="253.5" y="71.58" class="color_Republican" fill="#FF0000" stroke="#FFFFFF"/>
          <use xlink:href="#img-29816ce5-20" x="259.45" y="70.93" class="color_Republican" fill="#FF0000" stroke="#FFFFFF"/>
          <use xlink:href="#img-29816ce5-20" x="265.4" y="58.06" class="color_Republican" fill="#FF0000" stroke="#FFFFFF"/>
          <use xlink:href="#img-29816ce5-20" x="271.35" y="62.06" class="color_Republican" fill="#FF0000" stroke="#FFFFFF"/>
          <use xlink:href="#img-29816ce5-20" x="277.3" y="83.1" class="color_Republican" fill="#FF0000" stroke="#FFFFFF"/>
          <use xlink:href="#img-29816ce5-20" x="283.25" y="81.84" class="color_Republican" fill="#FF0000" stroke="#FFFFFF"/>
          <use xlink:href="#img-29816ce5-20" x="289.2" y="76.36" class="color_Republican" fill="#FF0000" stroke="#FFFFFF"/>
          <use xlink:href="#img-29816ce5-20" x="295.15" y="72.43" class="color_Republican" fill="#FF0000" stroke="#FFFFFF"/>
          <use xlink:href="#img-29816ce5-20" x="301.1" y="81.45" class="color_Republican" fill="#FF0000" stroke="#FFFFFF"/>
          <use xlink:href="#img-29816ce5-20" x="307.05" y="78.33" class="color_Republican" fill="#FF0000" stroke="#FFFFFF"/>
          <use xlink:href="#img-29816ce5-20" x="33.33" y="NaN" class="color_Democratic" fill="#0000FF" stroke="#FFFFFF"/>
          <use xlink:href="#img-29816ce5-20" x="39.28" y="69.09" class="color_Democratic" fill="#0000FF" stroke="#FFFFFF"/>
          <use xlink:href="#img-29816ce5-20" x="45.23" y="71.45" class="color_Democratic" fill="#0000FF" stroke="#FFFFFF"/>
          <use xlink:href="#img-29816ce5-20" x="51.18" y="73.3" class="color_Democratic" fill="#0000FF" stroke="#FFFFFF"/>
          <use xlink:href="#img-29816ce5-20" x="57.13" y="69.36" class="color_Democratic" fill="#0000FF" stroke="#FFFFFF"/>
          <use xlink:href="#img-29816ce5-20" x="63.08" y="70.59" class="color_Democratic" fill="#0000FF" stroke="#FFFFFF"/>
          <use xlink:href="#img-29816ce5-20" x="69.03" y="68.22" class="color_Democratic" fill="#0000FF" stroke="#FFFFFF"/>
          <use xlink:href="#img-29816ce5-20" x="74.98" y="63.13" class="color_Democratic" fill="#0000FF" stroke="#FFFFFF"/>
          <use xlink:href="#img-29816ce5-20" x="80.93" y="112.47" class="color_Democratic" fill="#0000FF" stroke="#FFFFFF"/>
          <use xlink:href="#img-29816ce5-20" x="86.88" y="66.22" class="color_Democratic" fill="#0000FF" stroke="#FFFFFF"/>
          <use xlink:href="#img-29816ce5-20" x="92.83" y="58.86" class="color_Democratic" fill="#0000FF" stroke="#FFFFFF"/>
          <use xlink:href="#img-29816ce5-20" x="98.78" y="71.38" class="color_Democratic" fill="#0000FF" stroke="#FFFFFF"/>
          <use xlink:href="#img-29816ce5-20" x="104.74" y="62.5" class="color_Democratic" fill="#0000FF" stroke="#FFFFFF"/>
          <use xlink:href="#img-29816ce5-20" x="110.69" y="66.5" class="color_Democratic" fill="#0000FF" stroke="#FFFFFF"/>
          <use xlink:href="#img-29816ce5-20" x="116.64" y="61.37" class="color_Democratic" fill="#0000FF" stroke="#FFFFFF"/>
          <use xlink:href="#img-29816ce5-20" x="122.59" y="62.81" class="color_Democratic" fill="#0000FF" stroke="#FFFFFF"/>
          <use xlink:href="#img-29816ce5-20" x="128.54" y="68.17" class="color_Democratic" fill="#0000FF" stroke="#FFFFFF"/>
          <use xlink:href="#img-29816ce5-20" x="134.49" y="75.14" class="color_Democratic" fill="#0000FF" stroke="#FFFFFF"/>
          <use xlink:href="#img-29816ce5-20" x="140.44" y="73.3" class="color_Democratic" fill="#0000FF" stroke="#FFFFFF"/>
          <use xlink:href="#img-29816ce5-20" x="146.39" y="74.1" class="color_Democratic" fill="#0000FF" stroke="#FFFFFF"/>
          <use xlink:href="#img-29816ce5-20" x="152.34" y="72.23" class="color_Democratic" fill="#0000FF" stroke="#FFFFFF"/>
          <use xlink:href="#img-29816ce5-20" x="158.29" y="71.68" class="color_Democratic" fill="#0000FF" stroke="#FFFFFF"/>
          <use xlink:href="#img-29816ce5-20" x="164.24" y="70.35" class="color_Democratic" fill="#0000FF" stroke="#FFFFFF"/>
          <use xlink:href="#img-29816ce5-20" x="170.19" y="76.19" class="color_Democratic" fill="#0000FF" stroke="#FFFFFF"/>
          <use xlink:href="#img-29816ce5-20" x="176.14" y="81.58" class="color_Democratic" fill="#0000FF" stroke="#FFFFFF"/>
          <use xlink:href="#img-29816ce5-20" x="182.09" y="83.83" class="color_Democratic" fill="#0000FF" stroke="#FFFFFF"/>
          <use xlink:href="#img-29816ce5-20" x="188.04" y="70.01" class="color_Democratic" fill="#0000FF" stroke="#FFFFFF"/>
          <use xlink:href="#img-29816ce5-20" x="193.99" y="63.34" class="color_Democratic" fill="#0000FF" stroke="#FFFFFF"/>
          <use xlink:href="#img-29816ce5-20" x="199.94" y="63.26" class="color_Democratic" fill="#0000FF" stroke="#FFFFFF"/>
          <use xlink:href="#img-29816ce5-20" x="205.89" y="63.6" class="color_Democratic" fill="#0000FF" stroke="#FFFFFF"/>
          <use xlink:href="#img-29816ce5-20" x="211.84" y="69.34" class="color_Democratic" fill="#0000FF" stroke="#FFFFFF"/>
          <use xlink:href="#img-29816ce5-20" x="217.79" y="70.25" class="color_Democratic" fill="#0000FF" stroke="#FFFFFF"/>
          <use xlink:href="#img-29816ce5-20" x="223.74" y="73.58" class="color_Democratic" fill="#0000FF" stroke="#FFFFFF"/>
          <use xlink:href="#img-29816ce5-20" x="229.69" y="67.42" class="color_Democratic" fill="#0000FF" stroke="#FFFFFF"/>
          <use xlink:href="#img-29816ce5-20" x="235.64" y="56.87" class="color_Democratic" fill="#0000FF" stroke="#FFFFFF"/>
          <use xlink:href="#img-29816ce5-20" x="241.59" y="76.66" class="color_Democratic" fill="#0000FF" stroke="#FFFFFF"/>
          <use xlink:href="#img-29816ce5-20" x="247.55" y="79.14" class="color_Democratic" fill="#0000FF" stroke="#FFFFFF"/>
          <use xlink:href="#img-29816ce5-20" x="253.5" y="66.04" class="color_Democratic" fill="#0000FF" stroke="#FFFFFF"/>
          <use xlink:href="#img-29816ce5-20" x="259.45" y="73.32" class="color_Democratic" fill="#0000FF" stroke="#FFFFFF"/>
          <use xlink:href="#img-29816ce5-20" x="265.4" y="78.38" class="color_Democratic" fill="#0000FF" stroke="#FFFFFF"/>
          <use xlink:href="#img-29816ce5-20" x="271.35" y="74.75" class="color_Democratic" fill="#0000FF" stroke="#FFFFFF"/>
          <use xlink:href="#img-29816ce5-20" x="277.3" y="74.72" class="color_Democratic" fill="#0000FF" stroke="#FFFFFF"/>
          <use xlink:href="#img-29816ce5-20" x="283.25" y="66.26" class="color_Democratic" fill="#0000FF" stroke="#FFFFFF"/>
          <use xlink:href="#img-29816ce5-20" x="289.2" y="63" class="color_Democratic" fill="#0000FF" stroke="#FFFFFF"/>
          <use xlink:href="#img-29816ce5-20" x="295.15" y="64.66" class="color_Democratic" fill="#0000FF" stroke="#FFFFFF"/>
          <use xlink:href="#img-29816ce5-20" x="301.1" y="55.88" class="color_Democratic" fill="#0000FF" stroke="#FFFFFF"/>
          <use xlink:href="#img-29816ce5-20" x="307.05" y="59.27" class="color_Democratic" fill="#0000FF" stroke="#FFFFFF"/>
        </g>
      </g>
      <g stroke-width="0.53" fill="#000000" fill-opacity="0.000" stroke-dasharray="none" id="img-29816ce5-21">
        <path fill="none" d="M39.28,69.09 L 45.23 71.45 51.18 73.3 57.13 69.36 63.08 70.59 69.03 68.22 74.98 63.13 80.93 112.47 86.88 66.22 92.83 58.86 98.78 71.38 104.74 62.5 110.69 66.5 116.64 61.37 122.59 62.81 128.54 68.17 134.49 75.14 140.44 73.3 146.39 74.1 152.34 72.23 158.29 71.68 164.24 70.35 170.19 76.19 176.14 81.58 182.09 83.83 188.04 70.01 193.99 63.34 199.94 63.26 205.89 63.6 211.84 69.34 217.79 70.25 223.74 73.58 229.69 67.42 235.64 56.87 241.59 76.66 247.55 79.14 253.5 66.04 259.45 73.32 265.4 78.38 271.35 74.75 277.3 74.72 283.25 66.26 289.2 63 295.15 64.66 301.1 55.88 307.05 59.27" class="geometry color_Democratic" stroke="#0000FF"/>
        <path fill="none" d="M80.93,94.97 L 86.88 69.92 92.83 77.28 98.78 67.05 104.74 73.65 110.69 70.09 116.64 75.03 122.59 74.72 128.54 69.56 134.49 64.82 140.44 64.32 146.39 63.93 152.34 65.92 158.29 85.62 164.24 67.86 170.19 62.23 176.14 60.19 182.09 52.69 188.04 67.51 193.99 73.34 199.94 73.14 205.89 72.92 211.84 68.04 217.79 66.28 223.74 62.86 229.69 69.1 235.64 79.55 241.59 73.07 247.55 58.25 253.5 71.58 259.45 70.93 265.4 58.06 271.35 62.06 277.3 83.1 283.25 81.84 289.2 76.36 295.15 72.43 301.1 81.45 307.05 78.33" class="geometry color_Republican" stroke="#FF0000"/>
      </g>
    </g>
  </g>
</g>
  <g class="guide ylabels" font-size="4.76" font-family="'PT Sans Caption','Helvetica Neue','Helvetica',sans-serif" fill="#6C606B" id="img-29816ce5-22">
    <text x="24.38" y="119.24" text-anchor="end" dy="0.35em">0</text>
    <text x="24.38" y="93.66" text-anchor="end" dy="0.35em">25</text>
    <text x="24.38" y="68.07" text-anchor="end" dy="0.35em">50</text>
    <text x="24.38" y="42.49" text-anchor="end" dy="0.35em">75</text>
    <text x="24.38" y="16.91" text-anchor="end" dy="0.35em">100</text>
  </g>
  <g font-size="6.35" font-family="'PT Sans','Helvetica Neue','Helvetica',sans-serif" fill="#564A55" stroke="#000000" stroke-opacity="0.000" id="img-29816ce5-23">
    <text x="9.95" y="66.07" text-anchor="middle" dy="0.35em" transform="rotate(-90, 9.95, 68.07)">Popular Vote (%)</text>
  </g>
  <g font-size="6.35" font-family="'PT Sans','Helvetica Neue','Helvetica',sans-serif" fill="#564A55" stroke="#000000" stroke-opacity="0.000" id="img-29816ce5-24">
    <text x="170.19" y="12.91" text-anchor="middle">Delaware</text>
  </g>
</g>
<defs>
  <clipPath id="img-29816ce5-12">
  <path d="M25.38,14.91 L 315 14.91 315 121.24 25.38 121.24" />
</clipPath>
  <g id="img-29816ce5-20">
    <circle cx="0" cy="0" r="0.9"/>
  </g>
</defs>
</svg>
