<svg xmlns="http://www.w3.org/2000/svg" xmlns:xlink="http://www.w3.org/1999/xlink" version="1.2" width="799.899" height="599.924" viewBox="0 0 211.64 158.73" stroke-width=".3" font-size="3.88"><path d="M0 0h211.64v158.73H0z" stroke="#000" stroke-opacity="0" fill="#222831"/><g class="plotroot xscalable yscalable"><g class="guide colorkey"><g class="color_Midwest"><text x="75.01" y="148.78" dy=".35em" fill="#A1A1A1" font-size="3.7" font-family="'PT Sans','Helvetica Neue','Helvetica',sans-serif">Midwest</text><path d="M71.79 147.66h2.22v2.22h-2.22z" fill="#EEDBFF" stroke="#000" stroke-opacity="0"/></g><g class="color_Northeast"><text x="55.23" y="148.78" dy=".35em" fill="#A1A1A1" font-size="3.7" font-family="'PT Sans','Helvetica Neue','Helvetica',sans-serif">Northeast</text><path d="M52.01 147.66h2.22v2.22h-2.22z" fill="#3F9778" stroke="#000" stroke-opacity="0"/></g><g class="color_West"><text x="43.25" y="148.78" dy=".35em" fill="#A1A1A1" font-size="3.7" font-family="'PT Sans','Helvetica Neue','Helvetica',sans-serif">West</text><path d="M40.02 147.66h2.22v2.22h-2.22z" fill="#ECA25C" stroke="#000" stroke-opacity="0"/></g><g class="color_South"><text x="29.79" y="148.78" dy=".35em" fill="#A1A1A1" font-size="3.7" font-family="'PT Sans','Helvetica Neue','Helvetica',sans-serif">South</text><path d="M26.57 147.66h2.22v2.22h-2.22z" fill="#FE4365" stroke="#000" stroke-opacity="0"/></g><text x="26.57" y="145.28" fill="#A1A1A1" font-size="6.35" font-family="'PT Sans','Helvetica Neue','Helvetica',sans-serif" stroke="#000" stroke-opacity="0">Color</text></g><text x="116.11" y="130.46" text-anchor="middle" dy=".6em" font-size="6.35" font-family="'PT Sans','Helvetica Neue','Helvetica',sans-serif" fill="#A1A1A1" stroke="#000" stroke-opacity="0">PC1</text><g class="guide xlabels" font-size="4.76" font-family="'PT Sans Caption','Helvetica Neue','Helvetica',sans-serif" fill="#A1A1A1" text-anchor="middle"><text x="27.57" y="121.95" dy=".6em">-3</text><text x="62.98" y="121.95" dy=".6em">-2</text><text x="98.4" y="121.95" dy=".6em">-1</text><text x="133.81" y="121.95" dy=".6em">0</text><text x="169.23" y="121.95" dy=".6em">1</text><text x="204.64" y="121.95" dy=".6em">2</text></g><g clip-path="url(#a)"><path d="M25.57 12.91h181.07v108.04H25.57z" pointer-events="visible" fill="#222831" stroke="#000" stroke-opacity="0" class="guide background"/><g class="guide ygridlines xfixed" stroke-dasharray="0.5,0.5" stroke-width=".2" stroke="#575757" fill="none"><path d="M25.57 118.95h181.07M25.57 84.27h181.07M25.57 49.59h181.07M25.57 14.91h181.07"/></g><g class="guide xgridlines yfixed" stroke-dasharray="0.5,0.5" stroke-width=".2" stroke="#575757" fill="none"><path d="M27.57 12.91v108.04M62.98 12.91v108.04M98.4 12.91v108.04M133.81 12.91v108.04M169.23 12.91v108.04M204.64 12.91v108.04"/></g><g class="plotpanel"><g class="geometry" stroke="#000" stroke-opacity="0" fill="#A1A1A1" font-size="3.7" font-family="'PT Sans Caption','Helvetica Neue','Helvetica',sans-serif" text-anchor="middle"><text x="86.89" y="57.2" dy=".35em">Alabama</text><text x="127.76" y="84.87" dy=".35em" visibility="hidden">Arizona</text><text x="113.97" y="102.11" dy=".35em">Arkansas</text><text x="162.24" y="75.06" dy=".35em" visibility="hidden">California</text><text x="153.12" y="89.09" dy=".35em" visibility="hidden">Colorado</text><text x="169.43" y="71.44" dy=".35em" visibility="hidden">Connecticut</text><text x="161.12" y="68.21" dy=".35em" visibility="hidden">Delaware</text><text x="99.43" y="68.64" dy=".35em">Florida</text><text x="93.07" y="89.56" dy=".35em">Georgia</text><text x="122.33" y="107.95" dy=".35em">Idaho</text><text x="161.5" y="74.51" dy=".35em">Illinois</text><text x="128.68" y="85.92" dy=".35em">Indiana</text><text x="161.39" y="90.18" dy=".35em" visibility="hidden">Iowa</text><text x="144.54" y="91.58" dy=".35em">Kansas</text><text x="140.28" y="100.5" dy=".35em" visibility="hidden">Kentucky</text><text x="93.96" y="77.16" dy=".35em">Louisiana</text><text x="168.28" y="63.85" dy=".35em">Maine</text><text x="137.95" y="65.4" dy=".35em">Maryland</text><text x="184.05" y="79.58" dy=".35em">Massachusetts</text><text x="172.09" y="85.42" dy=".35em">Michigan</text><text x="167.11" y="99.14" dy=".35em" visibility="hidden">Minnesota</text><text x="63.41" y="51.95" dy=".35em">Mississippi</text><text x="146.88" y="98.06" dy=".35em" visibility="hidden">Missouri</text><text x="139.88" y="104.48" dy=".35em" visibility="hidden">Montana</text><text x="120" y="95.57" dy=".35em">Nebraska</text><text x="128.37" y="78.72" dy=".35em">Nevada</text><text x="131.88" y="72.35" dy=".35em">New Hampshire</text><text x="166.94" y="72.59" dy=".35em" visibility="hidden">New Jersey</text><text x="152.39" y="80.44" dy=".35em" visibility="hidden">New Mexico</text><text x="154.42" y="65.28" dy=".35em" visibility="hidden">New York</text><text x="100.53" y="83.94" dy=".35em">North Carolina</text><text x="147.42" y="107.98" dy=".35em">North Dakota</text><text x="150.81" y="80.34" dy=".35em">Ohio</text><text x="109.69" y="114.84" dy=".35em">Oklahoma</text><text x="146.55" y="86.71" dy=".35em" visibility="hidden">Oregon</text><text x="166.51" y="79.4" dy=".35em" visibility="hidden">Pennsylvania</text><text x="178.24" y="80.87" dy=".35em" visibility="hidden">Rhode Island</text><text x="73.45" y="66.13" dy=".35em">South Carolina</text><text x="155.61" y="99.66" dy=".35em">South Dakota</text><text x="128.43" y="88.04" dy=".35em" visibility="hidden">Tennessee</text><text x="87.72" y="104.14" dy=".35em">Texas</text><text x="110.09" y="108.99" dy=".35em">Utah</text><text x="186.27" y="55.13" dy=".35em">Vermont</text><text x="118.61" y="66.54" dy=".35em">Virginia</text><text x="163.37" y="87.97" dy=".35em" visibility="hidden">Washington</text><text x="148.55" y="106.8" dy=".35em" visibility="hidden">West Virginia</text><text x="162.73" y="91.03" dy=".35em">Wisconsin</text><text x="138.52" y="114.35" dy=".35em">Wyoming</text></g><g class="geometry"><use xlink:href="#b" x="82.08" y="59.96" stroke="#B58486" fill="#FE4365" class="color_South"/><use xlink:href="#b" x="122.37" y="82.12" stroke="#AA8B71" fill="#ECA25C" class="color_West"/><use xlink:href="#b" x="104.86" y="103.38" stroke="#B58486" fill="#FE4365" class="color_South"/><use xlink:href="#b" x="152.41" y="72.31" stroke="#AA8B71" fill="#ECA25C" class="color_West"/><use xlink:href="#b" x="143.9" y="86.34" stroke="#AA8B71" fill="#ECA25C" class="color_West"/><use xlink:href="#b" x="157.39" y="70.13" stroke="#6D9A87" fill="#3F9778" class="color_Northeast"/><use xlink:href="#b" x="151.55" y="65.45" stroke="#B58486" fill="#FE4365" class="color_South"/><use xlink:href="#b" x="106.79" y="69.53" stroke="#B58486" fill="#FE4365" class="color_South"/><use xlink:href="#b" x="85.03" y="88.32" stroke="#B58486" fill="#FE4365" class="color_South"/><use xlink:href="#b" x="125.66" y="105.2" stroke="#AA8B71" fill="#ECA25C" class="color_West"/><use xlink:href="#b" x="156.56" y="71.76" stroke="#9B8AAB" fill="#EEDBFF" class="color_Midwest"/><use xlink:href="#b" x="136.69" y="84.61" stroke="#9B8AAB" fill="#EEDBFF" class="color_Midwest"/><use xlink:href="#b" x="155.85" y="87.43" stroke="#9B8AAB" fill="#EEDBFF" class="color_Midwest"/><use xlink:href="#b" x="140.56" y="94.33" stroke="#9B8AAB" fill="#EEDBFF" class="color_Midwest"/><use xlink:href="#b" x="130.81" y="101.02" stroke="#B58486" fill="#FE4365" class="color_South"/><use xlink:href="#b" x="84.11" y="76.47" stroke="#B58486" fill="#FE4365" class="color_South"/><use xlink:href="#b" x="164.93" y="66.61" stroke="#6D9A87" fill="#3F9778" class="color_Northeast"/><use xlink:href="#b" x="147.37" y="66.63" stroke="#B58486" fill="#FE4365" class="color_South"/><use xlink:href="#b" x="169.64" y="80.57" stroke="#6D9A87" fill="#3F9778" class="color_Northeast"/><use xlink:href="#b" x="162.73" y="86.63" stroke="#9B8AAB" fill="#EEDBFF" class="color_Midwest"/><use xlink:href="#b" x="156.52" y="96.39" stroke="#9B8AAB" fill="#EEDBFF" class="color_Midwest"/><use xlink:href="#b" x="57.43" y="49.2" stroke="#B58486" fill="#FE4365" class="color_South"/><use xlink:href="#b" x="138.19" y="96.87" stroke="#9B8AAB" fill="#EEDBFF" class="color_Midwest"/><use xlink:href="#b" x="133.99" y="101.72" stroke="#AA8B71" fill="#ECA25C" class="color_West"/><use xlink:href="#b" x="129.44" y="94.82" stroke="#9B8AAB" fill="#EEDBFF" class="color_Midwest"/><use xlink:href="#b" x="133.79" y="81.48" stroke="#AA8B71" fill="#ECA25C" class="color_West"/><use xlink:href="#b" x="147.3" y="71.26" stroke="#6D9A87" fill="#3F9778" class="color_Northeast"/><use xlink:href="#b" x="155.95" y="69.83" stroke="#6D9A87" fill="#3F9778" class="color_Northeast"/><use xlink:href="#b" x="140.28" y="81.73" stroke="#AA8B71" fill="#ECA25C" class="color_West"/><use xlink:href="#b" x="160.59" y="68.03" stroke="#6D9A87" fill="#3F9778" class="color_Northeast"/><use xlink:href="#b" x="114.81" y="84.84" stroke="#B58486" fill="#FE4365" class="color_South"/><use xlink:href="#b" x="139.41" y="105.22" stroke="#9B8AAB" fill="#EEDBFF" class="color_Midwest"/><use xlink:href="#b" x="147.81" y="83.09" stroke="#9B8AAB" fill="#EEDBFF" class="color_Midwest"/><use xlink:href="#b" x="116.62" y="112.09" stroke="#B58486" fill="#FE4365" class="color_South"/><use xlink:href="#b" x="150.54" y="83.96" stroke="#AA8B71" fill="#ECA25C" class="color_West"/><use xlink:href="#b" x="158.12" y="82.15" stroke="#6D9A87" fill="#3F9778" class="color_Northeast"/><use xlink:href="#b" x="165.16" y="80.09" stroke="#6D9A87" fill="#3F9778" class="color_Northeast"/><use xlink:href="#b" x="58.96" y="64.97" stroke="#B58486" fill="#FE4365" class="color_South"/><use xlink:href="#b" x="142.28" y="99.15" stroke="#9B8AAB" fill="#EEDBFF" class="color_Midwest"/><use xlink:href="#b" x="121.4" y="90.8" stroke="#B58486" fill="#FE4365" class="color_South"/><use xlink:href="#b" x="94.05" y="103.54" stroke="#B58486" fill="#FE4365" class="color_South"/><use xlink:href="#b" x="115.41" y="109.13" stroke="#AA8B71" fill="#ECA25C" class="color_West"/><use xlink:href="#b" x="177.44" y="53.9" stroke="#6D9A87" fill="#3F9778" class="color_Northeast"/><use xlink:href="#b" x="113.86" y="69.29" stroke="#B58486" fill="#FE4365" class="color_South"/><use xlink:href="#b" x="151.46" y="85.21" stroke="#AA8B71" fill="#ECA25C" class="color_West"/><use xlink:href="#b" x="139.42" y="104.05" stroke="#B58486" fill="#FE4365" class="color_South"/><use xlink:href="#b" x="152.5" y="89.7" stroke="#9B8AAB" fill="#EEDBFF" class="color_Midwest"/><use xlink:href="#b" x="128.99" y="113.75" stroke="#AA8B71" fill="#ECA25C" class="color_West"/></g></g></g><g class="guide ylabels" font-size="4.76" font-family="'PT Sans Caption','Helvetica Neue','Helvetica',sans-serif" fill="#A1A1A1" text-anchor="end"><text x="24.57" y="118.95" dy=".35em">-0.5</text><text x="24.57" y="84.27" dy=".35em">0.0</text><text x="24.57" y="49.59" dy=".35em">0.5</text><text x="24.57" y="14.91" dy=".35em">1.0</text></g><text x="9.95" y="64.93" text-anchor="middle" dy=".35em" transform="rotate(-90 9.95 66.93)" font-size="6.35" font-family="'PT Sans','Helvetica Neue','Helvetica',sans-serif" fill="#A1A1A1" stroke="#000" stroke-opacity="0">PC2</text><text x="116.11" y="5" text-anchor="middle" dy=".6em" font-size="6.35" font-family="'PT Sans','Helvetica Neue','Helvetica',sans-serif" fill="#A1A1A1" stroke="#000" stroke-opacity="0">PCA of States</text></g><defs><clipPath id="a"><path d="M25.57 12.91h181.07v108.04H25.57"/></clipPath><circle r=".9" id="b"/></defs></svg>