<?xml version="1.0" encoding="UTF-8"?>
<svg xmlns="http://www.w3.org/2000/svg"
     xmlns:xlink="http://www.w3.org/1999/xlink"
     xmlns:gadfly="http://www.gadflyjl.org/ns"
     version="1.2"
     width="320mm" height="160mm" viewBox="0 0 320 160"
     stroke="none"
     fill="#000000"
     stroke-width="0.3"
     font-size="3.88"
>
<g class="plotroot xscalable yscalable" id="img-60a835b5-1">
  <g class="guide colorkey" id="img-60a835b5-2">
    <g class="color_West" id="img-60a835b5-3">
      <g fill="#4C404B" font-size="4.76" font-family="'PT Sans','Helvetica Neue','Helvetica',sans-serif" id="img-60a835b5-4">
        <text x="98.96" y="149.82" dy="0.35em">West</text>
      </g>
      <g fill="#00B78D" stroke="#000000" stroke-opacity="0.000" id="img-60a835b5-5">
        <rect x="95.52" y="148.6" width="2.44" height="2.44"/>
      </g>
    </g>
    <g class="color_South" id="img-60a835b5-6">
      <g fill="#4C404B" font-size="4.76" font-family="'PT Sans','Helvetica Neue','Helvetica',sans-serif" id="img-60a835b5-7">
        <text x="80.77" y="149.82" dy="0.35em">South</text>
      </g>
      <g fill="#FF6DAE" stroke="#000000" stroke-opacity="0.000" id="img-60a835b5-8">
        <rect x="77.33" y="148.6" width="2.44" height="2.44"/>
      </g>
    </g>
    <g class="color_Northeast" id="img-60a835b5-9">
      <g fill="#4C404B" font-size="4.76" font-family="'PT Sans','Helvetica Neue','Helvetica',sans-serif" id="img-60a835b5-10">
        <text x="52.69" y="149.82" dy="0.35em">Northeast</text>
      </g>
      <g fill="#D4CA3A" stroke="#000000" stroke-opacity="0.000" id="img-60a835b5-11">
        <rect x="49.25" y="148.6" width="2.44" height="2.44"/>
      </g>
    </g>
    <g class="color_Midwest" id="img-60a835b5-12">
      <g fill="#4C404B" font-size="4.76" font-family="'PT Sans','Helvetica Neue','Helvetica',sans-serif" id="img-60a835b5-13">
        <text x="28.49" y="149.82" dy="0.35em">Midwest</text>
      </g>
      <g fill="#00BFFF" stroke="#000000" stroke-opacity="0.000" id="img-60a835b5-14">
        <rect x="25.05" y="148.6" width="2.44" height="2.44"/>
      </g>
    </g>
    <g fill="#362A35" font-size="6.35" font-family="'PT Sans','Helvetica Neue','Helvetica',sans-serif" stroke="#000000" stroke-opacity="0.000" id="img-60a835b5-15">
      <text x="25.05" y="146.12">Region</text>
    </g>
  </g>
  <g font-size="6.35" font-family="'PT Sans','Helvetica Neue','Helvetica',sans-serif" fill="#564A55" stroke="#000000" stroke-opacity="0.000" id="img-60a835b5-16">
    <text x="169.53" y="132.18" text-anchor="middle" dy="0.6em">Year</text>
  </g>
  <g class="guide xlabels" font-size="4.76" font-family="'PT Sans Caption','Helvetica Neue','Helvetica',sans-serif" fill="#6C606B" id="img-60a835b5-17">
    <text x="26.05" y="124.66" text-anchor="middle" dy="0.6em">1856</text>
    <text x="47.57" y="124.66" text-anchor="middle" dy="0.6em">1868</text>
    <text x="69.09" y="124.66" text-anchor="middle" dy="0.6em">1880</text>
    <text x="90.62" y="124.66" text-anchor="middle" dy="0.6em">1892</text>
    <text x="112.14" y="124.66" text-anchor="middle" dy="0.6em">1904</text>
    <text x="133.66" y="124.66" text-anchor="middle" dy="0.6em">1916</text>
    <text x="155.18" y="124.66" text-anchor="middle" dy="0.6em">1928</text>
    <text x="176.7" y="124.66" text-anchor="middle" dy="0.6em">1940</text>
    <text x="198.22" y="124.66" text-anchor="middle" dy="0.6em">1952</text>
    <text x="219.74" y="124.66" text-anchor="middle" dy="0.6em">1964</text>
    <text x="241.26" y="124.66" text-anchor="middle" dy="0.6em">1976</text>
    <text x="262.78" y="124.66" text-anchor="middle" dy="0.6em">1988</text>
    <text x="284.31" y="124.66" text-anchor="middle" dy="0.6em">2000</text>
    <text x="305.83" y="124.66" text-anchor="middle" dy="0.6em">2012</text>
  </g>
<g clip-path="url(#img-60a835b5-18)">
  <g id="img-60a835b5-19">
    <g pointer-events="visible" opacity="1" fill="#000000" fill-opacity="0.000" stroke="#000000" stroke-opacity="0.000" class="guide background" id="img-60a835b5-20">
      <rect x="24.05" y="15.35" width="290.95" height="108.31"/>
    </g>
    <g class="guide ygridlines xfixed" stroke-dasharray="0.5,0.5" stroke-width="0.26" stroke="#000000" id="img-60a835b5-21">
      <path fill="none" d="M24.05,121.66 L 315 121.66"/>
      <path fill="none" d="M24.05,95.58 L 315 95.58"/>
      <path fill="none" d="M24.05,69.5 L 315 69.5"/>
      <path fill="none" d="M24.05,43.43 L 315 43.43"/>
      <path fill="none" d="M24.05,17.35 L 315 17.35"/>
    </g>
    <g class="guide xgridlines yfixed" stroke-dasharray="0.5,0.5" stroke-width="0.26" stroke="#000000" id="img-60a835b5-22">
      <path fill="none" d="M26.05,15.35 L 26.05 123.66"/>
      <path fill="none" d="M47.57,15.35 L 47.57 123.66"/>
      <path fill="none" d="M69.09,15.35 L 69.09 123.66"/>
      <path fill="none" d="M90.62,15.35 L 90.62 123.66"/>
      <path fill="none" d="M112.14,15.35 L 112.14 123.66"/>
      <path fill="none" d="M133.66,15.35 L 133.66 123.66"/>
      <path fill="none" d="M155.18,15.35 L 155.18 123.66"/>
      <path fill="none" d="M176.7,15.35 L 176.7 123.66"/>
      <path fill="none" d="M198.22,15.35 L 198.22 123.66"/>
      <path fill="none" d="M219.74,15.35 L 219.74 123.66"/>
      <path fill="none" d="M241.26,15.35 L 241.26 123.66"/>
      <path fill="none" d="M262.78,15.35 L 262.78 123.66"/>
      <path fill="none" d="M284.31,15.35 L 284.31 123.66"/>
      <path fill="none" d="M305.83,15.35 L 305.83 123.66"/>
    </g>
    <g class="plotpanel" id="img-60a835b5-23">
      <g stroke-width="0.53" stroke="#000000" stroke-opacity="0.000" class="geometry" id="img-60a835b5-24">
        <path d="M305.83,87.58 L 298.65 87.28 291.48 82.79 284.31 86.81 277.13 89.47 269.96 80.58 262.78 73.91 255.61 67.13 248.44 69.52 241.26 75.7 234.09 65.55 226.92 80.7 219.74 98.48 212.57 78.14 205.39 59.75 198.22 65.91 191.05 73.13 183.87 74.15 176.7 74.48 169.53 84.12 162.35 77.41 155.18 69.69 148.01 52.39 140.83 47.36 133.66 66.65 126.48 80.17 119.31 61.29 112.14 62.73 104.96 63.5 97.79 58.47 90.62 72.86 83.44 70.82 76.27 70.77 69.09 70.99 61.92 73.65 54.75 66.91 47.57 74.02 40.4 73.93 33.23 65.8 33.23 38.3 40.4 54.49 47.57 55 54.75 49.4 61.92 62.45 69.09 60.99 76.27 61.61 83.44 61.48 90.62 63.7 97.79 46.2 104.96 53.14 112.14 45.62 119.31 52.61 126.48 72.76 133.66 60.65 140.83 42.4 148.01 40.9 155.18 51.97 162.35 66.86 169.53 75.66 176.7 71.02 183.87 70.1 191.05 65.08 198.22 58.8 205.39 51.03 212.57 68.18 219.74 88.5 226.92 67.65 234.09 52.51 241.26 67.7 248.44 61.83 255.61 57.3 262.78 63.31 269.96 73.13 277.13 77.84 284.31 74.43 291.48 72.15 298.65 77.72 305.83 75.59 z" fill="#EBE3BD"/>
        <path d="M305.83,88.58 L 298.65 88.87 291.48 79.55 284.31 80.42 277.13 80.66 269.96 80.3 262.78 71.47 255.61 62.53 248.44 63.11 241.26 70.73 234.09 62.95 226.92 70.91 219.74 87.09 212.57 70.09 205.39 64.16 198.22 62.03 191.05 74.4 183.87 80.88 176.7 83.05 169.53 95.03 162.35 86.02 155.18 55.25 148.01 53.39 140.83 54.93 133.66 80.82 126.48 94.25 119.31 65.99 112.14 56.56 104.96 76.1 97.79 109.48 90.62 71.69 83.44 68.36 76.27 66.36 69.09 70.58 61.92 68.7 54.75 61.23 47.57 70.67 40.4 61.1 33.23 70.11 33.23 67.01 40.4 56.7 47.57 66.86 54.75 58.27 61.92 67.18 69.09 67.27 76.27 62.61 83.44 61.58 90.62 49.23 97.79 67.26 104.96 59.4 112.14 40.35 119.31 52.76 126.48 72.04 133.66 68 140.83 42.37 148.01 36.75 155.18 46.57 162.35 80.41 169.53 88.66 176.7 74.57 183.87 72.36 191.05 68.58 198.22 56.26 205.39 57.91 212.57 65.51 219.74 76.85 226.92 61.58 234.09 52.5 241.26 61.38 248.44 50.38 255.61 49.97 262.78 59.63 269.96 69.69 277.13 68.27 284.31 61.27 291.48 60.95 298.65 68.48 305.83 64.73 z" fill="#BCEDDA"/>
        <path d="M305.83,78.61 L 298.65 82.58 291.48 75.1 284.31 75.43 277.13 80.91 269.96 77.81 262.78 71.35 255.61 64.22 248.44 68.51 241.26 72.59 234.09 62.19 226.92 73.1 219.74 89.18 212.57 71.03 205.39 63.21 198.22 65.68 191.05 75.59 183.87 72.87 176.7 73.24 169.53 86.48 162.35 86.2 155.18 61.78 148.01 57.64 140.83 57.8 133.66 73.09 126.48 83.15 119.31 68.05 112.14 59.52 104.96 68.84 97.79 70.76 90.62 75.88 83.44 70.79 76.27 71.84 69.09 71.62 61.92 74.13 54.75 69.75 47.57 66.28 40.4 66.92 33.23 73.04 33.23 58.39 40.4 53.69 47.57 57.26 54.75 53.76 61.92 59.34 69.09 55.9 76.27 61.3 83.44 61.52 90.62 56.62 97.79 59.3 104.96 57.31 112.14 42.09 119.31 55.73 126.48 74.37 133.66 63.36 140.83 37.51 148.01 38.7 155.18 47.94 162.35 73.31 169.53 78.13 176.7 66.01 183.87 64.58 191.05 66.43 198.22 52.97 205.39 53.1 212.57 62.01 219.74 79.61 226.92 61.85 234.09 51.04 241.26 64.66 248.44 57.37 255.61 53 262.78 60.47 269.96 68.05 277.13 68.15 284.31 62.08 291.48 60.77 298.65 68.58 305.83 64.37 z" fill="#BDE8FF"/>
        <path d="M305.83,74.58 L 298.65 75.53 291.48 68.89 284.31 71.37 277.13 76.61 269.96 75.56 262.78 65.64 255.61 61.32 248.44 72.74 241.26 82.14 234.09 52.67 226.92 73.67 219.74 91.85 212.57 77.7 205.39 75.87 198.22 78.87 191.05 92.28 183.87 105.08 176.7 110.35 169.53 113.97 162.35 115.93 155.18 79.44 148.01 98.78 140.83 89.96 133.66 106.29 126.48 109.16 119.31 97.54 112.14 100.83 104.96 93.65 97.79 96.47 90.62 99.08 83.44 94.15 76.27 89.73 69.09 89.97 61.92 90.75 54.75 76.11 47.57 94.36 40.4 93.69 33.23 78.91 33.23 71.26 40.4 55.54 47.57 59.21 54.75 56.26 61.92 72.99 69.09 74.79 76.27 70.74 83.44 69.62 90.62 74.33 97.79 65.96 104.96 66.12 112.14 65.56 119.31 64.65 126.48 80.81 133.66 70.65 140.83 62.13 148.01 65 155.18 50.94 162.35 81.57 169.53 83.72 176.7 79.77 183.87 75.27 191.05 72.98 198.22 61.72 205.39 57.34 212.57 64.36 219.74 57.54 226.92 61.45 234.09 37.07 241.26 68.82 248.44 58.35 255.61 47.38 262.78 53.63 269.96 63.85 277.13 64.45 284.31 55.92 291.48 53.31 298.65 57.1 305.83 55.09 z" fill="#FFD5E7"/>
      </g>
      <g stroke-width="0.53" fill="#000000" fill-opacity="0.000" stroke-dasharray="none" id="img-60a835b5-25">
        <path fill="none" d="M33.23,68.56 L 40.4 58.9 47.57 68.76 54.75 59.75 61.92 67.94 69.09 68.93 76.27 64.49 83.44 64.97 90.62 60.46 97.79 88.37 104.96 67.75 112.14 48.45 119.31 59.37 126.48 83.15 133.66 74.41 140.83 48.65 148.01 45.07 155.18 50.91 162.35 83.21 169.53 91.84 176.7 78.81 183.87 76.62 191.05 71.49 198.22 59.14 205.39 61.03 212.57 67.8 219.74 81.97 226.92 66.25 234.09 57.73 241.26 66.05 248.44 56.74 255.61 56.25 262.78 65.55 269.96 75 277.13 74.46 284.31 70.85 291.48 70.25 298.65 78.68 305.83 76.65" class="geometry color_West" stroke="#00B78D"/>
        <path fill="none" d="M33.23,65.72 L 40.4 60.31 47.57 61.77 54.75 61.75 61.92 66.74 69.09 63.76 76.27 66.57 83.44 66.15 90.62 66.25 97.79 65.03 104.96 63.08 112.14 50.81 119.31 61.89 126.48 78.76 133.66 68.22 140.83 47.65 148.01 48.17 155.18 54.86 162.35 79.75 169.53 82.3 176.7 69.62 183.87 68.72 191.05 71.01 198.22 59.32 205.39 58.15 212.57 66.52 219.74 84.4 226.92 67.47 234.09 56.62 241.26 68.63 248.44 62.94 255.61 58.61 262.78 65.91 269.96 72.93 277.13 74.53 284.31 68.76 291.48 67.94 298.65 75.58 305.83 71.49" class="geometry color_Midwest" stroke="#00BFFF"/>
        <path fill="none" d="M33.23,52.05 L 40.4 64.21 47.57 64.51 54.75 58.15 61.92 68.05 69.09 65.99 76.27 66.19 83.44 66.15 90.62 68.28 97.79 52.34 104.96 58.32 112.14 54.18 119.31 56.95 126.48 76.46 133.66 63.65 140.83 44.88 148.01 46.65 155.18 60.83 162.35 72.13 169.53 79.89 176.7 72.75 183.87 72.12 191.05 69.1 198.22 62.35 205.39 55.39 212.57 73.16 219.74 93.49 226.92 74.18 234.09 59.03 241.26 71.7 248.44 65.67 255.61 62.21 262.78 68.61 269.96 76.85 277.13 83.65 284.31 80.62 291.48 77.47 298.65 82.5 305.83 81.59" class="geometry color_Northeast" stroke="#D4CA3A"/>
        <path fill="none" d="M33.23,75.09 L 40.4 74.61 47.57 76.79 54.75 66.19 61.92 81.87 69.09 82.38 76.27 80.24 83.44 81.88 90.62 86.7 97.79 81.21 104.96 79.89 112.14 83.2 119.31 81.09 126.48 94.99 133.66 88.47 140.83 76.05 148.01 81.89 155.18 65.19 162.35 98.75 169.53 98.85 176.7 95.06 183.87 90.17 191.05 82.63 198.22 70.29 205.39 66.6 212.57 71.03 219.74 74.7 226.92 67.56 234.09 44.87 241.26 75.48 248.44 65.55 255.61 54.35 262.78 59.63 269.96 69.7 277.13 70.53 284.31 63.64 291.48 61.1 298.65 66.32 305.83 64.83" class="geometry color_South" stroke="#FF6DAE"/>
      </g>
      <g class="geometry" id="img-60a835b5-26">
        <g stroke-width="0.3" id="img-60a835b5-27">
          <use xlink:href="#img-60a835b5-28" x="33.23" y="65.72" fill="#00BFFF" class="color_Midwest" stroke="#FFFFFF"/>
          <use xlink:href="#img-60a835b5-28" x="33.23" y="52.05" fill="#D4CA3A" class="color_Northeast" stroke="#FFFFFF"/>
          <use xlink:href="#img-60a835b5-28" x="33.23" y="75.09" fill="#FF6DAE" class="color_South" stroke="#FFFFFF"/>
          <use xlink:href="#img-60a835b5-28" x="33.23" y="68.56" fill="#00B78D" class="color_West" stroke="#FFFFFF"/>
          <use xlink:href="#img-60a835b5-28" x="40.4" y="60.31" fill="#00BFFF" class="color_Midwest" stroke="#FFFFFF"/>
          <use xlink:href="#img-60a835b5-28" x="40.4" y="64.21" fill="#D4CA3A" class="color_Northeast" stroke="#FFFFFF"/>
          <use xlink:href="#img-60a835b5-28" x="40.4" y="74.61" fill="#FF6DAE" class="color_South" stroke="#FFFFFF"/>
          <use xlink:href="#img-60a835b5-28" x="40.4" y="58.9" fill="#00B78D" class="color_West" stroke="#FFFFFF"/>
          <use xlink:href="#img-60a835b5-28" x="47.57" y="61.77" fill="#00BFFF" class="color_Midwest" stroke="#FFFFFF"/>
          <use xlink:href="#img-60a835b5-28" x="47.57" y="64.51" fill="#D4CA3A" class="color_Northeast" stroke="#FFFFFF"/>
          <use xlink:href="#img-60a835b5-28" x="47.57" y="76.79" fill="#FF6DAE" class="color_South" stroke="#FFFFFF"/>
          <use xlink:href="#img-60a835b5-28" x="47.57" y="68.76" fill="#00B78D" class="color_West" stroke="#FFFFFF"/>
          <use xlink:href="#img-60a835b5-28" x="54.75" y="61.75" fill="#00BFFF" class="color_Midwest" stroke="#FFFFFF"/>
          <use xlink:href="#img-60a835b5-28" x="54.75" y="58.15" fill="#D4CA3A" class="color_Northeast" stroke="#FFFFFF"/>
          <use xlink:href="#img-60a835b5-28" x="54.75" y="66.19" fill="#FF6DAE" class="color_South" stroke="#FFFFFF"/>
          <use xlink:href="#img-60a835b5-28" x="54.75" y="59.75" fill="#00B78D" class="color_West" stroke="#FFFFFF"/>
          <use xlink:href="#img-60a835b5-28" x="61.92" y="66.74" fill="#00BFFF" class="color_Midwest" stroke="#FFFFFF"/>
          <use xlink:href="#img-60a835b5-28" x="61.92" y="68.05" fill="#D4CA3A" class="color_Northeast" stroke="#FFFFFF"/>
          <use xlink:href="#img-60a835b5-28" x="61.92" y="81.87" fill="#FF6DAE" class="color_South" stroke="#FFFFFF"/>
          <use xlink:href="#img-60a835b5-28" x="61.92" y="67.94" fill="#00B78D" class="color_West" stroke="#FFFFFF"/>
          <use xlink:href="#img-60a835b5-28" x="69.09" y="63.76" fill="#00BFFF" class="color_Midwest" stroke="#FFFFFF"/>
          <use xlink:href="#img-60a835b5-28" x="69.09" y="65.99" fill="#D4CA3A" class="color_Northeast" stroke="#FFFFFF"/>
          <use xlink:href="#img-60a835b5-28" x="69.09" y="82.38" fill="#FF6DAE" class="color_South" stroke="#FFFFFF"/>
          <use xlink:href="#img-60a835b5-28" x="69.09" y="68.93" fill="#00B78D" class="color_West" stroke="#FFFFFF"/>
          <use xlink:href="#img-60a835b5-28" x="76.27" y="66.57" fill="#00BFFF" class="color_Midwest" stroke="#FFFFFF"/>
          <use xlink:href="#img-60a835b5-28" x="76.27" y="66.19" fill="#D4CA3A" class="color_Northeast" stroke="#FFFFFF"/>
          <use xlink:href="#img-60a835b5-28" x="76.27" y="80.24" fill="#FF6DAE" class="color_South" stroke="#FFFFFF"/>
          <use xlink:href="#img-60a835b5-28" x="76.27" y="64.49" fill="#00B78D" class="color_West" stroke="#FFFFFF"/>
          <use xlink:href="#img-60a835b5-28" x="83.44" y="66.15" fill="#00BFFF" class="color_Midwest" stroke="#FFFFFF"/>
          <use xlink:href="#img-60a835b5-28" x="83.44" y="66.15" fill="#D4CA3A" class="color_Northeast" stroke="#FFFFFF"/>
          <use xlink:href="#img-60a835b5-28" x="83.44" y="81.88" fill="#FF6DAE" class="color_South" stroke="#FFFFFF"/>
          <use xlink:href="#img-60a835b5-28" x="83.44" y="64.97" fill="#00B78D" class="color_West" stroke="#FFFFFF"/>
          <use xlink:href="#img-60a835b5-28" x="90.62" y="66.25" fill="#00BFFF" class="color_Midwest" stroke="#FFFFFF"/>
          <use xlink:href="#img-60a835b5-28" x="90.62" y="68.28" fill="#D4CA3A" class="color_Northeast" stroke="#FFFFFF"/>
          <use xlink:href="#img-60a835b5-28" x="90.62" y="86.7" fill="#FF6DAE" class="color_South" stroke="#FFFFFF"/>
          <use xlink:href="#img-60a835b5-28" x="90.62" y="60.46" fill="#00B78D" class="color_West" stroke="#FFFFFF"/>
          <use xlink:href="#img-60a835b5-28" x="97.79" y="65.03" fill="#00BFFF" class="color_Midwest" stroke="#FFFFFF"/>
          <use xlink:href="#img-60a835b5-28" x="97.79" y="52.34" fill="#D4CA3A" class="color_Northeast" stroke="#FFFFFF"/>
          <use xlink:href="#img-60a835b5-28" x="97.79" y="81.21" fill="#FF6DAE" class="color_South" stroke="#FFFFFF"/>
          <use xlink:href="#img-60a835b5-28" x="97.79" y="88.37" fill="#00B78D" class="color_West" stroke="#FFFFFF"/>
          <use xlink:href="#img-60a835b5-28" x="104.96" y="63.08" fill="#00BFFF" class="color_Midwest" stroke="#FFFFFF"/>
          <use xlink:href="#img-60a835b5-28" x="104.96" y="58.32" fill="#D4CA3A" class="color_Northeast" stroke="#FFFFFF"/>
          <use xlink:href="#img-60a835b5-28" x="104.96" y="79.89" fill="#FF6DAE" class="color_South" stroke="#FFFFFF"/>
          <use xlink:href="#img-60a835b5-28" x="104.96" y="67.75" fill="#00B78D" class="color_West" stroke="#FFFFFF"/>
          <use xlink:href="#img-60a835b5-28" x="112.14" y="50.81" fill="#00BFFF" class="color_Midwest" stroke="#FFFFFF"/>
          <use xlink:href="#img-60a835b5-28" x="112.14" y="54.18" fill="#D4CA3A" class="color_Northeast" stroke="#FFFFFF"/>
          <use xlink:href="#img-60a835b5-28" x="112.14" y="83.2" fill="#FF6DAE" class="color_South" stroke="#FFFFFF"/>
          <use xlink:href="#img-60a835b5-28" x="112.14" y="48.45" fill="#00B78D" class="color_West" stroke="#FFFFFF"/>
          <use xlink:href="#img-60a835b5-28" x="119.31" y="61.89" fill="#00BFFF" class="color_Midwest" stroke="#FFFFFF"/>
          <use xlink:href="#img-60a835b5-28" x="119.31" y="56.95" fill="#D4CA3A" class="color_Northeast" stroke="#FFFFFF"/>
          <use xlink:href="#img-60a835b5-28" x="119.31" y="81.09" fill="#FF6DAE" class="color_South" stroke="#FFFFFF"/>
          <use xlink:href="#img-60a835b5-28" x="119.31" y="59.37" fill="#00B78D" class="color_West" stroke="#FFFFFF"/>
          <use xlink:href="#img-60a835b5-28" x="126.48" y="78.76" fill="#00BFFF" class="color_Midwest" stroke="#FFFFFF"/>
          <use xlink:href="#img-60a835b5-28" x="126.48" y="76.46" fill="#D4CA3A" class="color_Northeast" stroke="#FFFFFF"/>
          <use xlink:href="#img-60a835b5-28" x="126.48" y="94.99" fill="#FF6DAE" class="color_South" stroke="#FFFFFF"/>
          <use xlink:href="#img-60a835b5-28" x="126.48" y="83.15" fill="#00B78D" class="color_West" stroke="#FFFFFF"/>
          <use xlink:href="#img-60a835b5-28" x="133.66" y="68.22" fill="#00BFFF" class="color_Midwest" stroke="#FFFFFF"/>
          <use xlink:href="#img-60a835b5-28" x="133.66" y="63.65" fill="#D4CA3A" class="color_Northeast" stroke="#FFFFFF"/>
          <use xlink:href="#img-60a835b5-28" x="133.66" y="88.47" fill="#FF6DAE" class="color_South" stroke="#FFFFFF"/>
          <use xlink:href="#img-60a835b5-28" x="133.66" y="74.41" fill="#00B78D" class="color_West" stroke="#FFFFFF"/>
          <use xlink:href="#img-60a835b5-28" x="140.83" y="47.65" fill="#00BFFF" class="color_Midwest" stroke="#FFFFFF"/>
          <use xlink:href="#img-60a835b5-28" x="140.83" y="44.88" fill="#D4CA3A" class="color_Northeast" stroke="#FFFFFF"/>
          <use xlink:href="#img-60a835b5-28" x="140.83" y="76.05" fill="#FF6DAE" class="color_South" stroke="#FFFFFF"/>
          <use xlink:href="#img-60a835b5-28" x="140.83" y="48.65" fill="#00B78D" class="color_West" stroke="#FFFFFF"/>
          <use xlink:href="#img-60a835b5-28" x="148.01" y="48.17" fill="#00BFFF" class="color_Midwest" stroke="#FFFFFF"/>
          <use xlink:href="#img-60a835b5-28" x="148.01" y="46.65" fill="#D4CA3A" class="color_Northeast" stroke="#FFFFFF"/>
          <use xlink:href="#img-60a835b5-28" x="148.01" y="81.89" fill="#FF6DAE" class="color_South" stroke="#FFFFFF"/>
          <use xlink:href="#img-60a835b5-28" x="148.01" y="45.07" fill="#00B78D" class="color_West" stroke="#FFFFFF"/>
          <use xlink:href="#img-60a835b5-28" x="155.18" y="54.86" fill="#00BFFF" class="color_Midwest" stroke="#FFFFFF"/>
          <use xlink:href="#img-60a835b5-28" x="155.18" y="60.83" fill="#D4CA3A" class="color_Northeast" stroke="#FFFFFF"/>
          <use xlink:href="#img-60a835b5-28" x="155.18" y="65.19" fill="#FF6DAE" class="color_South" stroke="#FFFFFF"/>
          <use xlink:href="#img-60a835b5-28" x="155.18" y="50.91" fill="#00B78D" class="color_West" stroke="#FFFFFF"/>
          <use xlink:href="#img-60a835b5-28" x="162.35" y="79.75" fill="#00BFFF" class="color_Midwest" stroke="#FFFFFF"/>
          <use xlink:href="#img-60a835b5-28" x="162.35" y="72.13" fill="#D4CA3A" class="color_Northeast" stroke="#FFFFFF"/>
          <use xlink:href="#img-60a835b5-28" x="162.35" y="98.75" fill="#FF6DAE" class="color_South" stroke="#FFFFFF"/>
          <use xlink:href="#img-60a835b5-28" x="162.35" y="83.21" fill="#00B78D" class="color_West" stroke="#FFFFFF"/>
          <use xlink:href="#img-60a835b5-28" x="169.53" y="82.3" fill="#00BFFF" class="color_Midwest" stroke="#FFFFFF"/>
          <use xlink:href="#img-60a835b5-28" x="169.53" y="79.89" fill="#D4CA3A" class="color_Northeast" stroke="#FFFFFF"/>
          <use xlink:href="#img-60a835b5-28" x="169.53" y="98.85" fill="#FF6DAE" class="color_South" stroke="#FFFFFF"/>
          <use xlink:href="#img-60a835b5-28" x="169.53" y="91.84" fill="#00B78D" class="color_West" stroke="#FFFFFF"/>
          <use xlink:href="#img-60a835b5-28" x="176.7" y="69.62" fill="#00BFFF" class="color_Midwest" stroke="#FFFFFF"/>
          <use xlink:href="#img-60a835b5-28" x="176.7" y="72.75" fill="#D4CA3A" class="color_Northeast" stroke="#FFFFFF"/>
          <use xlink:href="#img-60a835b5-28" x="176.7" y="95.06" fill="#FF6DAE" class="color_South" stroke="#FFFFFF"/>
          <use xlink:href="#img-60a835b5-28" x="176.7" y="78.81" fill="#00B78D" class="color_West" stroke="#FFFFFF"/>
          <use xlink:href="#img-60a835b5-28" x="183.87" y="68.72" fill="#00BFFF" class="color_Midwest" stroke="#FFFFFF"/>
          <use xlink:href="#img-60a835b5-28" x="183.87" y="72.12" fill="#D4CA3A" class="color_Northeast" stroke="#FFFFFF"/>
          <use xlink:href="#img-60a835b5-28" x="183.87" y="90.17" fill="#FF6DAE" class="color_South" stroke="#FFFFFF"/>
          <use xlink:href="#img-60a835b5-28" x="183.87" y="76.62" fill="#00B78D" class="color_West" stroke="#FFFFFF"/>
          <use xlink:href="#img-60a835b5-28" x="191.05" y="71.01" fill="#00BFFF" class="color_Midwest" stroke="#FFFFFF"/>
          <use xlink:href="#img-60a835b5-28" x="191.05" y="69.1" fill="#D4CA3A" class="color_Northeast" stroke="#FFFFFF"/>
          <use xlink:href="#img-60a835b5-28" x="191.05" y="82.63" fill="#FF6DAE" class="color_South" stroke="#FFFFFF"/>
          <use xlink:href="#img-60a835b5-28" x="191.05" y="71.49" fill="#00B78D" class="color_West" stroke="#FFFFFF"/>
          <use xlink:href="#img-60a835b5-28" x="198.22" y="59.32" fill="#00BFFF" class="color_Midwest" stroke="#FFFFFF"/>
          <use xlink:href="#img-60a835b5-28" x="198.22" y="62.35" fill="#D4CA3A" class="color_Northeast" stroke="#FFFFFF"/>
          <use xlink:href="#img-60a835b5-28" x="198.22" y="70.29" fill="#FF6DAE" class="color_South" stroke="#FFFFFF"/>
          <use xlink:href="#img-60a835b5-28" x="198.22" y="59.14" fill="#00B78D" class="color_West" stroke="#FFFFFF"/>
          <use xlink:href="#img-60a835b5-28" x="205.39" y="58.15" fill="#00BFFF" class="color_Midwest" stroke="#FFFFFF"/>
          <use xlink:href="#img-60a835b5-28" x="205.39" y="55.39" fill="#D4CA3A" class="color_Northeast" stroke="#FFFFFF"/>
          <use xlink:href="#img-60a835b5-28" x="205.39" y="66.6" fill="#FF6DAE" class="color_South" stroke="#FFFFFF"/>
          <use xlink:href="#img-60a835b5-28" x="205.39" y="61.03" fill="#00B78D" class="color_West" stroke="#FFFFFF"/>
          <use xlink:href="#img-60a835b5-28" x="212.57" y="66.52" fill="#00BFFF" class="color_Midwest" stroke="#FFFFFF"/>
          <use xlink:href="#img-60a835b5-28" x="212.57" y="73.16" fill="#D4CA3A" class="color_Northeast" stroke="#FFFFFF"/>
          <use xlink:href="#img-60a835b5-28" x="212.57" y="71.03" fill="#FF6DAE" class="color_South" stroke="#FFFFFF"/>
          <use xlink:href="#img-60a835b5-28" x="212.57" y="67.8" fill="#00B78D" class="color_West" stroke="#FFFFFF"/>
          <use xlink:href="#img-60a835b5-28" x="219.74" y="84.4" fill="#00BFFF" class="color_Midwest" stroke="#FFFFFF"/>
          <use xlink:href="#img-60a835b5-28" x="219.74" y="93.49" fill="#D4CA3A" class="color_Northeast" stroke="#FFFFFF"/>
          <use xlink:href="#img-60a835b5-28" x="219.74" y="74.7" fill="#FF6DAE" class="color_South" stroke="#FFFFFF"/>
          <use xlink:href="#img-60a835b5-28" x="219.74" y="81.97" fill="#00B78D" class="color_West" stroke="#FFFFFF"/>
          <use xlink:href="#img-60a835b5-28" x="226.92" y="67.47" fill="#00BFFF" class="color_Midwest" stroke="#FFFFFF"/>
          <use xlink:href="#img-60a835b5-28" x="226.92" y="74.18" fill="#D4CA3A" class="color_Northeast" stroke="#FFFFFF"/>
          <use xlink:href="#img-60a835b5-28" x="226.92" y="67.56" fill="#FF6DAE" class="color_South" stroke="#FFFFFF"/>
          <use xlink:href="#img-60a835b5-28" x="226.92" y="66.25" fill="#00B78D" class="color_West" stroke="#FFFFFF"/>
          <use xlink:href="#img-60a835b5-28" x="234.09" y="56.62" fill="#00BFFF" class="color_Midwest" stroke="#FFFFFF"/>
          <use xlink:href="#img-60a835b5-28" x="234.09" y="59.03" fill="#D4CA3A" class="color_Northeast" stroke="#FFFFFF"/>
          <use xlink:href="#img-60a835b5-28" x="234.09" y="44.87" fill="#FF6DAE" class="color_South" stroke="#FFFFFF"/>
          <use xlink:href="#img-60a835b5-28" x="234.09" y="57.73" fill="#00B78D" class="color_West" stroke="#FFFFFF"/>
          <use xlink:href="#img-60a835b5-28" x="241.26" y="68.63" fill="#00BFFF" class="color_Midwest" stroke="#FFFFFF"/>
          <use xlink:href="#img-60a835b5-28" x="241.26" y="71.7" fill="#D4CA3A" class="color_Northeast" stroke="#FFFFFF"/>
          <use xlink:href="#img-60a835b5-28" x="241.26" y="75.48" fill="#FF6DAE" class="color_South" stroke="#FFFFFF"/>
          <use xlink:href="#img-60a835b5-28" x="241.26" y="66.05" fill="#00B78D" class="color_West" stroke="#FFFFFF"/>
          <use xlink:href="#img-60a835b5-28" x="248.44" y="62.94" fill="#00BFFF" class="color_Midwest" stroke="#FFFFFF"/>
          <use xlink:href="#img-60a835b5-28" x="248.44" y="65.67" fill="#D4CA3A" class="color_Northeast" stroke="#FFFFFF"/>
          <use xlink:href="#img-60a835b5-28" x="248.44" y="65.55" fill="#FF6DAE" class="color_South" stroke="#FFFFFF"/>
          <use xlink:href="#img-60a835b5-28" x="248.44" y="56.74" fill="#00B78D" class="color_West" stroke="#FFFFFF"/>
          <use xlink:href="#img-60a835b5-28" x="255.61" y="58.61" fill="#00BFFF" class="color_Midwest" stroke="#FFFFFF"/>
          <use xlink:href="#img-60a835b5-28" x="255.61" y="62.21" fill="#D4CA3A" class="color_Northeast" stroke="#FFFFFF"/>
          <use xlink:href="#img-60a835b5-28" x="255.61" y="54.35" fill="#FF6DAE" class="color_South" stroke="#FFFFFF"/>
          <use xlink:href="#img-60a835b5-28" x="255.61" y="56.25" fill="#00B78D" class="color_West" stroke="#FFFFFF"/>
          <use xlink:href="#img-60a835b5-28" x="262.78" y="65.91" fill="#00BFFF" class="color_Midwest" stroke="#FFFFFF"/>
          <use xlink:href="#img-60a835b5-28" x="262.78" y="68.61" fill="#D4CA3A" class="color_Northeast" stroke="#FFFFFF"/>
          <use xlink:href="#img-60a835b5-28" x="262.78" y="59.63" fill="#FF6DAE" class="color_South" stroke="#FFFFFF"/>
          <use xlink:href="#img-60a835b5-28" x="262.78" y="65.55" fill="#00B78D" class="color_West" stroke="#FFFFFF"/>
          <use xlink:href="#img-60a835b5-28" x="269.96" y="72.93" fill="#00BFFF" class="color_Midwest" stroke="#FFFFFF"/>
          <use xlink:href="#img-60a835b5-28" x="269.96" y="76.85" fill="#D4CA3A" class="color_Northeast" stroke="#FFFFFF"/>
          <use xlink:href="#img-60a835b5-28" x="269.96" y="69.7" fill="#FF6DAE" class="color_South" stroke="#FFFFFF"/>
          <use xlink:href="#img-60a835b5-28" x="269.96" y="75" fill="#00B78D" class="color_West" stroke="#FFFFFF"/>
          <use xlink:href="#img-60a835b5-28" x="277.13" y="74.53" fill="#00BFFF" class="color_Midwest" stroke="#FFFFFF"/>
          <use xlink:href="#img-60a835b5-28" x="277.13" y="83.65" fill="#D4CA3A" class="color_Northeast" stroke="#FFFFFF"/>
          <use xlink:href="#img-60a835b5-28" x="277.13" y="70.53" fill="#FF6DAE" class="color_South" stroke="#FFFFFF"/>
          <use xlink:href="#img-60a835b5-28" x="277.13" y="74.46" fill="#00B78D" class="color_West" stroke="#FFFFFF"/>
          <use xlink:href="#img-60a835b5-28" x="284.31" y="68.76" fill="#00BFFF" class="color_Midwest" stroke="#FFFFFF"/>
          <use xlink:href="#img-60a835b5-28" x="284.31" y="80.62" fill="#D4CA3A" class="color_Northeast" stroke="#FFFFFF"/>
          <use xlink:href="#img-60a835b5-28" x="284.31" y="63.64" fill="#FF6DAE" class="color_South" stroke="#FFFFFF"/>
          <use xlink:href="#img-60a835b5-28" x="284.31" y="70.85" fill="#00B78D" class="color_West" stroke="#FFFFFF"/>
          <use xlink:href="#img-60a835b5-28" x="291.48" y="67.94" fill="#00BFFF" class="color_Midwest" stroke="#FFFFFF"/>
          <use xlink:href="#img-60a835b5-28" x="291.48" y="77.47" fill="#D4CA3A" class="color_Northeast" stroke="#FFFFFF"/>
          <use xlink:href="#img-60a835b5-28" x="291.48" y="61.1" fill="#FF6DAE" class="color_South" stroke="#FFFFFF"/>
          <use xlink:href="#img-60a835b5-28" x="291.48" y="70.25" fill="#00B78D" class="color_West" stroke="#FFFFFF"/>
          <use xlink:href="#img-60a835b5-28" x="298.65" y="75.58" fill="#00BFFF" class="color_Midwest" stroke="#FFFFFF"/>
          <use xlink:href="#img-60a835b5-28" x="298.65" y="82.5" fill="#D4CA3A" class="color_Northeast" stroke="#FFFFFF"/>
          <use xlink:href="#img-60a835b5-28" x="298.65" y="66.32" fill="#FF6DAE" class="color_South" stroke="#FFFFFF"/>
          <use xlink:href="#img-60a835b5-28" x="298.65" y="78.68" fill="#00B78D" class="color_West" stroke="#FFFFFF"/>
          <use xlink:href="#img-60a835b5-28" x="305.83" y="71.49" fill="#00BFFF" class="color_Midwest" stroke="#FFFFFF"/>
          <use xlink:href="#img-60a835b5-28" x="305.83" y="81.59" fill="#D4CA3A" class="color_Northeast" stroke="#FFFFFF"/>
          <use xlink:href="#img-60a835b5-28" x="305.83" y="64.83" fill="#FF6DAE" class="color_South" stroke="#FFFFFF"/>
          <use xlink:href="#img-60a835b5-28" x="305.83" y="76.65" fill="#00B78D" class="color_West" stroke="#FFFFFF"/>
        </g>
      </g>
    </g>
  </g>
</g>
  <g class="guide ylabels" font-size="4.76" font-family="'PT Sans Caption','Helvetica Neue','Helvetica',sans-serif" fill="#6C606B" id="img-60a835b5-29">
    <text x="23.05" y="121.66" text-anchor="end" dy="0.35em">-40</text>
    <text x="23.05" y="95.58" text-anchor="end" dy="0.35em">-20</text>
    <text x="23.05" y="69.5" text-anchor="end" dy="0.35em">0</text>
    <text x="23.05" y="43.43" text-anchor="end" dy="0.35em">20</text>
    <text x="23.05" y="17.35" text-anchor="end" dy="0.35em">40</text>
  </g>
  <g font-size="6.35" font-family="'PT Sans','Helvetica Neue','Helvetica',sans-serif" fill="#564A55" stroke="#000000" stroke-opacity="0.000" id="img-60a835b5-30">
    <text x="9.82" y="67.5" text-anchor="middle" dy="0.35em" transform="rotate(-90, 9.82, 69.5)">Difference (%)</text>
  </g>
  <g font-size="6.35" font-family="'PT Sans','Helvetica Neue','Helvetica',sans-serif" fill="#564A55" stroke="#000000" stroke-opacity="0.000" id="img-60a835b5-31">
    <text x="169.53" y="13.35" text-anchor="middle">Republican - Democratic Popular Vote (%) by Region</text>
  </g>
</g>
<defs>
  <clipPath id="img-60a835b5-18">
  <path d="M24.05,15.35 L 315 15.35 315 123.66 24.05 123.66" />
</clipPath>
  <g id="img-60a835b5-28">
    <circle cx="0" cy="0" r="0.9"/>
  </g>
</defs>
</svg>
