<?xml version="1.0" encoding="UTF-8"?>
<svg xmlns="http://www.w3.org/2000/svg"
     xmlns:xlink="http://www.w3.org/1999/xlink"
     xmlns:gadfly="http://www.gadflyjl.org/ns"
     version="1.2"
     width="320mm" height="160mm" viewBox="0 0 320 160"
     stroke="none"
     fill="#000000"
     stroke-width="0.3"
     font-size="3.88"
>
<g class="plotroot xscalable yscalable" id="img-f8a39ee4-1">
  <g class="guide colorkey" id="img-f8a39ee4-2">
    <g class="color_West" id="img-f8a39ee4-3">
      <g fill="#FFFFFF" font-size="4.76" font-family="'PT Sans','Helvetica Neue','Helvetica',sans-serif" id="img-f8a39ee4-4">
        <text x="93.67" y="149.82" dy="0.35em">West</text>
      </g>
      <g fill="#00B78D" stroke="#000000" stroke-opacity="0.000" id="img-f8a39ee4-5">
        <rect x="90.23" y="148.6" width="2.44" height="2.44"/>
      </g>
    </g>
    <g class="color_South" id="img-f8a39ee4-6">
      <g fill="#FFFFFF" font-size="4.76" font-family="'PT Sans','Helvetica Neue','Helvetica',sans-serif" id="img-f8a39ee4-7">
        <text x="77.24" y="149.82" dy="0.35em">South</text>
      </g>
      <g fill="#FF6DAE" stroke="#000000" stroke-opacity="0.000" id="img-f8a39ee4-8">
        <rect x="73.8" y="148.6" width="2.44" height="2.44"/>
      </g>
    </g>
    <g class="color_Northeast" id="img-f8a39ee4-9">
      <g fill="#FFFFFF" font-size="4.76" font-family="'PT Sans','Helvetica Neue','Helvetica',sans-serif" id="img-f8a39ee4-10">
        <text x="51.28" y="149.82" dy="0.35em">Northeast</text>
      </g>
      <g fill="#D4CA3A" stroke="#000000" stroke-opacity="0.000" id="img-f8a39ee4-11">
        <rect x="47.84" y="148.6" width="2.44" height="2.44"/>
      </g>
    </g>
    <g class="color_Midwest" id="img-f8a39ee4-12">
      <g fill="#FFFFFF" font-size="4.76" font-family="'PT Sans','Helvetica Neue','Helvetica',sans-serif" id="img-f8a39ee4-13">
        <text x="28.49" y="149.82" dy="0.35em">Midwest</text>
      </g>
      <g fill="#00BFFF" stroke="#000000" stroke-opacity="0.000" id="img-f8a39ee4-14">
        <rect x="25.05" y="148.6" width="2.44" height="2.44"/>
      </g>
    </g>
    <g fill="#FFFFFF" font-size="6.35" font-family="'PT Sans','Helvetica Neue','Helvetica',sans-serif" stroke="#000000" stroke-opacity="0.000" id="img-f8a39ee4-15">
      <text x="25.05" y="146.12">Region</text>
    </g>
  </g>
  <g font-size="6.35" font-family="'PT Sans','Helvetica Neue','Helvetica',sans-serif" fill="#FFFFFF" stroke="#000000" stroke-opacity="0.000" id="img-f8a39ee4-16">
    <text x="169.53" y="131.83" text-anchor="middle" dy="0.6em">Year</text>
  </g>
  <g class="guide xlabels" font-size="4.76" font-family="'PT Sans Caption','Helvetica Neue','Helvetica',sans-serif" fill="#FFFFFF" id="img-f8a39ee4-17">
    <text x="26.05" y="123.95" text-anchor="middle" dy="0.6em">1856</text>
    <text x="47.57" y="123.95" text-anchor="middle" dy="0.6em">1868</text>
    <text x="69.09" y="123.95" text-anchor="middle" dy="0.6em">1880</text>
    <text x="90.62" y="123.95" text-anchor="middle" dy="0.6em">1892</text>
    <text x="112.14" y="123.95" text-anchor="middle" dy="0.6em">1904</text>
    <text x="133.66" y="123.95" text-anchor="middle" dy="0.6em">1916</text>
    <text x="155.18" y="123.95" text-anchor="middle" dy="0.6em">1928</text>
    <text x="176.7" y="123.95" text-anchor="middle" dy="0.6em">1940</text>
    <text x="198.22" y="123.95" text-anchor="middle" dy="0.6em">1952</text>
    <text x="219.74" y="123.95" text-anchor="middle" dy="0.6em">1964</text>
    <text x="241.26" y="123.95" text-anchor="middle" dy="0.6em">1976</text>
    <text x="262.78" y="123.95" text-anchor="middle" dy="0.6em">1988</text>
    <text x="284.31" y="123.95" text-anchor="middle" dy="0.6em">2000</text>
    <text x="305.83" y="123.95" text-anchor="middle" dy="0.6em">2012</text>
  </g>
<g clip-path="url(#img-f8a39ee4-18)">
  <g id="img-f8a39ee4-19">
    <g pointer-events="visible" opacity="1" fill="#000000" fill-opacity="0.000" stroke="#000000" stroke-opacity="0.000" class="guide background" id="img-f8a39ee4-20">
      <rect x="24.05" y="15.35" width="290.95" height="107.6"/>
    </g>
    <g class="guide ygridlines xfixed" stroke-dasharray="0.5,0.5" stroke-width="0.26" stroke="#FFFFFF" id="img-f8a39ee4-21">
      <path fill="none" d="M24.05,120.95 L 315 120.95"/>
      <path fill="none" d="M24.05,95.05 L 315 95.05"/>
      <path fill="none" d="M24.05,69.15 L 315 69.15"/>
      <path fill="none" d="M24.05,43.25 L 315 43.25"/>
      <path fill="none" d="M24.05,17.35 L 315 17.35"/>
    </g>
    <g class="guide xgridlines yfixed" stroke-dasharray="0.5,0.5" stroke-width="0.26" stroke="#FFFFFF" id="img-f8a39ee4-22">
      <path fill="none" d="M26.05,15.35 L 26.05 122.95"/>
      <path fill="none" d="M47.57,15.35 L 47.57 122.95"/>
      <path fill="none" d="M69.09,15.35 L 69.09 122.95"/>
      <path fill="none" d="M90.62,15.35 L 90.62 122.95"/>
      <path fill="none" d="M112.14,15.35 L 112.14 122.95"/>
      <path fill="none" d="M133.66,15.35 L 133.66 122.95"/>
      <path fill="none" d="M155.18,15.35 L 155.18 122.95"/>
      <path fill="none" d="M176.7,15.35 L 176.7 122.95"/>
      <path fill="none" d="M198.22,15.35 L 198.22 122.95"/>
      <path fill="none" d="M219.74,15.35 L 219.74 122.95"/>
      <path fill="none" d="M241.26,15.35 L 241.26 122.95"/>
      <path fill="none" d="M262.78,15.35 L 262.78 122.95"/>
      <path fill="none" d="M284.31,15.35 L 284.31 122.95"/>
      <path fill="none" d="M305.83,15.35 L 305.83 122.95"/>
    </g>
    <g class="plotpanel" id="img-f8a39ee4-23">
      <g stroke-width="0.53" stroke="#000000" stroke-opacity="0.000" class="geometry" id="img-f8a39ee4-24">
        <path d="M305.83,88.1 L 298.65 88.38 291.48 79.13 284.31 80 277.13 80.23 269.96 79.88 262.78 71.11 255.61 62.23 248.44 62.8 241.26 70.37 234.09 62.65 226.92 70.55 219.74 86.62 212.57 69.73 205.39 63.84 198.22 61.72 191.05 74.01 183.87 80.45 176.7 82.61 169.53 94.5 162.35 85.55 155.18 54.99 148.01 53.15 140.83 54.68 133.66 80.39 126.48 93.73 119.31 65.66 112.14 56.3 104.96 75.71 97.79 108.86 90.62 71.32 83.44 68.02 76.27 66.03 69.09 70.22 61.92 68.35 54.75 60.93 47.57 70.31 40.4 60.8 33.23 69.75 33.23 66.67 40.4 56.43 47.57 66.52 54.75 57.99 61.92 66.84 69.09 66.94 76.27 62.3 83.44 61.28 90.62 49.01 97.79 66.92 104.96 59.11 112.14 40.19 119.31 52.52 126.48 71.67 133.66 67.66 140.83 42.2 148.01 36.62 155.18 46.38 162.35 79.98 169.53 88.18 176.7 74.18 183.87 71.98 191.05 68.23 198.22 55.99 205.39 57.63 212.57 65.18 219.74 76.45 226.92 61.28 234.09 52.26 241.26 61.08 248.44 50.16 255.61 49.75 262.78 59.34 269.96 69.34 277.13 67.93 284.31 60.97 291.48 60.66 298.65 68.14 305.83 64.41 z" fill="#BCEDDA"/>
        <path d="M305.83,78.2 L 298.65 82.13 291.48 74.71 284.31 75.04 277.13 80.48 269.96 77.4 262.78 70.99 255.61 63.9 248.44 68.16 241.26 72.22 234.09 61.89 226.92 72.72 219.74 88.7 212.57 70.67 205.39 62.9 198.22 65.35 191.05 75.2 183.87 72.49 176.7 72.86 169.53 86.01 162.35 85.73 155.18 61.48 148.01 57.37 140.83 57.52 133.66 72.71 126.48 82.7 119.31 67.71 112.14 59.24 104.96 68.5 97.79 70.4 90.62 75.49 83.44 70.43 76.27 71.47 69.09 71.25 61.92 73.75 54.75 69.39 47.57 65.95 40.4 66.58 33.23 72.67 33.23 58.12 40.4 53.45 47.57 56.99 54.75 53.51 61.92 59.06 69.09 55.64 76.27 61 83.44 61.22 90.62 56.36 97.79 59.02 104.96 57.04 112.14 41.92 119.31 55.47 126.48 73.98 133.66 63.05 140.83 37.37 148.01 38.55 155.18 47.73 162.35 72.93 169.53 77.72 176.7 65.68 183.87 64.26 191.05 66.1 198.22 52.72 205.39 52.86 212.57 61.71 219.74 79.19 226.92 61.55 234.09 50.81 241.26 64.34 248.44 57.1 255.61 52.76 262.78 60.18 269.96 67.71 277.13 67.81 284.31 61.78 291.48 60.48 298.65 68.24 305.83 64.05 z" fill="#BDE8FF"/>
        <path d="M305.83,87.1 L 298.65 86.81 291.48 82.34 284.31 86.34 277.13 88.98 269.96 80.15 262.78 73.53 255.61 66.79 248.44 69.17 241.26 75.3 234.09 65.22 226.92 80.28 219.74 97.93 212.57 77.73 205.39 59.46 198.22 65.58 191.05 72.75 183.87 73.76 176.7 74.09 169.53 83.67 162.35 77 155.18 69.33 148.01 52.16 140.83 47.16 133.66 66.31 126.48 79.75 119.31 60.99 112.14 62.43 104.96 63.19 97.79 58.19 90.62 72.48 83.44 70.46 76.27 70.41 69.09 70.63 61.92 73.27 54.75 66.57 47.57 73.64 40.4 73.55 33.23 65.47 33.23 38.16 40.4 54.24 47.57 54.74 54.75 49.18 61.92 62.14 69.09 60.7 76.27 61.31 83.44 61.18 90.62 63.38 97.79 46.01 104.96 52.9 112.14 45.43 119.31 52.37 126.48 72.38 133.66 60.36 140.83 42.23 148.01 40.74 155.18 51.73 162.35 66.53 169.53 75.26 176.7 70.66 183.87 69.75 191.05 64.75 198.22 58.52 205.39 50.8 212.57 67.84 219.74 88.02 226.92 67.31 234.09 52.27 241.26 67.36 248.44 61.53 255.61 57.03 262.78 63 269.96 72.75 277.13 77.43 284.31 74.05 291.48 71.78 298.65 77.31 305.83 75.2 z" fill="#EBE3BD"/>
        <path d="M305.83,74.2 L 298.65 75.14 291.48 68.54 284.31 71 277.13 76.21 269.96 75.16 262.78 65.31 255.61 61.02 248.44 72.36 241.26 81.7 234.09 52.43 226.92 73.29 219.74 91.35 212.57 77.29 205.39 75.47 198.22 78.45 191.05 91.77 183.87 104.48 176.7 109.72 169.53 113.32 162.35 115.26 155.18 79.02 148.01 98.23 140.83 89.47 133.66 105.69 126.48 108.54 119.31 97 112.14 100.26 104.96 93.14 97.79 95.93 90.62 98.53 83.44 93.63 76.27 89.24 69.09 89.48 61.92 90.25 54.75 75.72 47.57 93.84 40.4 93.17 33.23 78.5 33.23 70.9 40.4 55.28 47.57 58.92 54.75 56 61.92 72.62 69.09 74.4 76.27 70.38 83.44 69.27 90.62 73.95 97.79 65.63 104.96 65.79 112.14 65.24 119.31 64.33 126.48 80.38 133.66 70.29 140.83 61.83 148.01 64.68 155.18 50.71 162.35 81.13 169.53 83.28 176.7 79.34 183.87 74.87 191.05 72.61 198.22 61.42 205.39 57.07 212.57 64.05 219.74 57.27 226.92 61.15 234.09 36.93 241.26 68.47 248.44 58.08 255.61 47.18 262.78 53.38 269.96 63.54 277.13 64.14 284.31 55.66 291.48 53.06 298.65 56.83 305.83 54.83 z" fill="#FFD5E7"/>
      </g>
      <g stroke-width="0.53" fill="#000000" fill-opacity="0.000" stroke-dasharray="none" id="img-f8a39ee4-25">
        <path fill="none" d="M33.23,68.21 L 40.4 58.62 47.57 68.41 54.75 59.46 61.92 67.6 69.09 68.58 76.27 64.17 83.44 64.65 90.62 60.17 97.79 87.89 104.96 67.41 112.14 48.24 119.31 59.09 126.48 82.7 133.66 74.03 140.83 48.44 148.01 44.89 155.18 50.69 162.35 82.77 169.53 91.34 176.7 78.39 183.87 76.22 191.05 71.12 198.22 58.86 205.39 60.74 212.57 67.46 219.74 81.53 226.92 65.92 234.09 57.45 241.26 65.72 248.44 56.48 255.61 55.99 262.78 65.22 269.96 74.61 277.13 74.08 284.31 70.49 291.48 69.9 298.65 78.26 305.83 76.25" stroke="#00B78D" class="geometry color_West"/>
        <path fill="none" d="M33.23,65.39 L 40.4 60.02 47.57 61.47 54.75 61.45 61.92 66.4 69.09 63.45 76.27 66.24 83.44 65.82 90.62 65.92 97.79 64.71 104.96 62.77 112.14 50.58 119.31 61.59 126.48 78.34 133.66 67.88 140.83 47.45 148.01 47.96 155.18 54.6 162.35 79.33 169.53 81.86 176.7 69.27 183.87 68.37 191.05 70.65 198.22 59.04 205.39 57.88 212.57 66.19 219.74 83.95 226.92 67.14 234.09 56.35 241.26 68.28 248.44 62.63 255.61 58.33 262.78 65.58 269.96 72.55 277.13 74.15 284.31 68.41 291.48 67.59 298.65 75.19 305.83 71.12" stroke="#00BFFF" class="geometry color_Midwest"/>
        <path fill="none" d="M33.23,51.82 L 40.4 63.89 47.57 64.19 54.75 57.88 61.92 67.7 69.09 65.66 76.27 65.86 83.44 65.82 90.62 67.93 97.79 52.1 104.96 58.04 112.14 53.93 119.31 56.68 126.48 76.06 133.66 63.34 140.83 44.69 148.01 46.45 155.18 60.53 162.35 71.76 169.53 79.47 176.7 72.38 183.87 71.75 191.05 68.75 198.22 62.05 205.39 55.13 212.57 72.78 219.74 92.98 226.92 73.79 234.09 58.75 241.26 71.33 248.44 65.35 255.61 61.91 262.78 68.26 269.96 76.45 277.13 83.21 284.31 80.19 291.48 77.06 298.65 82.06 305.83 81.15" stroke="#D4CA3A" class="geometry color_Northeast"/>
        <path fill="none" d="M33.23,74.7 L 40.4 74.23 47.57 76.38 54.75 65.86 61.92 81.43 69.09 81.94 76.27 79.81 83.44 81.45 90.62 86.24 97.79 80.78 104.96 79.46 112.14 82.75 119.31 80.66 126.48 94.46 133.66 87.99 140.83 75.65 148.01 81.45 155.18 64.86 162.35 98.2 169.53 98.3 176.7 94.53 183.87 89.68 191.05 82.19 198.22 69.94 205.39 66.27 212.57 70.67 219.74 74.31 226.92 67.22 234.09 44.68 241.26 75.09 248.44 65.22 255.61 54.1 262.78 59.35 269.96 69.35 277.13 70.17 284.31 63.33 291.48 60.8 298.65 65.98 305.83 64.51" stroke="#FF6DAE" class="geometry color_South"/>
      </g>
      <g class="geometry" id="img-f8a39ee4-26">
        <g stroke-width="0.3" id="img-f8a39ee4-27">
          <use xlink:href="#img-f8a39ee4-28" x="33.23" y="65.39" stroke="#FFFFFF" fill="#00BFFF" class="color_Midwest"/>
          <use xlink:href="#img-f8a39ee4-28" x="33.23" y="51.82" stroke="#FFFFFF" fill="#D4CA3A" class="color_Northeast"/>
          <use xlink:href="#img-f8a39ee4-28" x="33.23" y="74.7" stroke="#FFFFFF" fill="#FF6DAE" class="color_South"/>
          <use xlink:href="#img-f8a39ee4-28" x="33.23" y="68.21" stroke="#FFFFFF" fill="#00B78D" class="color_West"/>
          <use xlink:href="#img-f8a39ee4-28" x="40.4" y="60.02" stroke="#FFFFFF" fill="#00BFFF" class="color_Midwest"/>
          <use xlink:href="#img-f8a39ee4-28" x="40.4" y="63.89" stroke="#FFFFFF" fill="#D4CA3A" class="color_Northeast"/>
          <use xlink:href="#img-f8a39ee4-28" x="40.4" y="74.23" stroke="#FFFFFF" fill="#FF6DAE" class="color_South"/>
          <use xlink:href="#img-f8a39ee4-28" x="40.4" y="58.62" stroke="#FFFFFF" fill="#00B78D" class="color_West"/>
          <use xlink:href="#img-f8a39ee4-28" x="47.57" y="61.47" stroke="#FFFFFF" fill="#00BFFF" class="color_Midwest"/>
          <use xlink:href="#img-f8a39ee4-28" x="47.57" y="64.19" stroke="#FFFFFF" fill="#D4CA3A" class="color_Northeast"/>
          <use xlink:href="#img-f8a39ee4-28" x="47.57" y="76.38" stroke="#FFFFFF" fill="#FF6DAE" class="color_South"/>
          <use xlink:href="#img-f8a39ee4-28" x="47.57" y="68.41" stroke="#FFFFFF" fill="#00B78D" class="color_West"/>
          <use xlink:href="#img-f8a39ee4-28" x="54.75" y="61.45" stroke="#FFFFFF" fill="#00BFFF" class="color_Midwest"/>
          <use xlink:href="#img-f8a39ee4-28" x="54.75" y="57.88" stroke="#FFFFFF" fill="#D4CA3A" class="color_Northeast"/>
          <use xlink:href="#img-f8a39ee4-28" x="54.75" y="65.86" stroke="#FFFFFF" fill="#FF6DAE" class="color_South"/>
          <use xlink:href="#img-f8a39ee4-28" x="54.75" y="59.46" stroke="#FFFFFF" fill="#00B78D" class="color_West"/>
          <use xlink:href="#img-f8a39ee4-28" x="61.92" y="66.4" stroke="#FFFFFF" fill="#00BFFF" class="color_Midwest"/>
          <use xlink:href="#img-f8a39ee4-28" x="61.92" y="67.7" stroke="#FFFFFF" fill="#D4CA3A" class="color_Northeast"/>
          <use xlink:href="#img-f8a39ee4-28" x="61.92" y="81.43" stroke="#FFFFFF" fill="#FF6DAE" class="color_South"/>
          <use xlink:href="#img-f8a39ee4-28" x="61.92" y="67.6" stroke="#FFFFFF" fill="#00B78D" class="color_West"/>
          <use xlink:href="#img-f8a39ee4-28" x="69.09" y="63.45" stroke="#FFFFFF" fill="#00BFFF" class="color_Midwest"/>
          <use xlink:href="#img-f8a39ee4-28" x="69.09" y="65.66" stroke="#FFFFFF" fill="#D4CA3A" class="color_Northeast"/>
          <use xlink:href="#img-f8a39ee4-28" x="69.09" y="81.94" stroke="#FFFFFF" fill="#FF6DAE" class="color_South"/>
          <use xlink:href="#img-f8a39ee4-28" x="69.09" y="68.58" stroke="#FFFFFF" fill="#00B78D" class="color_West"/>
          <use xlink:href="#img-f8a39ee4-28" x="76.27" y="66.24" stroke="#FFFFFF" fill="#00BFFF" class="color_Midwest"/>
          <use xlink:href="#img-f8a39ee4-28" x="76.27" y="65.86" stroke="#FFFFFF" fill="#D4CA3A" class="color_Northeast"/>
          <use xlink:href="#img-f8a39ee4-28" x="76.27" y="79.81" stroke="#FFFFFF" fill="#FF6DAE" class="color_South"/>
          <use xlink:href="#img-f8a39ee4-28" x="76.27" y="64.17" stroke="#FFFFFF" fill="#00B78D" class="color_West"/>
          <use xlink:href="#img-f8a39ee4-28" x="83.44" y="65.82" stroke="#FFFFFF" fill="#00BFFF" class="color_Midwest"/>
          <use xlink:href="#img-f8a39ee4-28" x="83.44" y="65.82" stroke="#FFFFFF" fill="#D4CA3A" class="color_Northeast"/>
          <use xlink:href="#img-f8a39ee4-28" x="83.44" y="81.45" stroke="#FFFFFF" fill="#FF6DAE" class="color_South"/>
          <use xlink:href="#img-f8a39ee4-28" x="83.44" y="64.65" stroke="#FFFFFF" fill="#00B78D" class="color_West"/>
          <use xlink:href="#img-f8a39ee4-28" x="90.62" y="65.92" stroke="#FFFFFF" fill="#00BFFF" class="color_Midwest"/>
          <use xlink:href="#img-f8a39ee4-28" x="90.62" y="67.93" stroke="#FFFFFF" fill="#D4CA3A" class="color_Northeast"/>
          <use xlink:href="#img-f8a39ee4-28" x="90.62" y="86.24" stroke="#FFFFFF" fill="#FF6DAE" class="color_South"/>
          <use xlink:href="#img-f8a39ee4-28" x="90.62" y="60.17" stroke="#FFFFFF" fill="#00B78D" class="color_West"/>
          <use xlink:href="#img-f8a39ee4-28" x="97.79" y="64.71" stroke="#FFFFFF" fill="#00BFFF" class="color_Midwest"/>
          <use xlink:href="#img-f8a39ee4-28" x="97.79" y="52.1" stroke="#FFFFFF" fill="#D4CA3A" class="color_Northeast"/>
          <use xlink:href="#img-f8a39ee4-28" x="97.79" y="80.78" stroke="#FFFFFF" fill="#FF6DAE" class="color_South"/>
          <use xlink:href="#img-f8a39ee4-28" x="97.79" y="87.89" stroke="#FFFFFF" fill="#00B78D" class="color_West"/>
          <use xlink:href="#img-f8a39ee4-28" x="104.96" y="62.77" stroke="#FFFFFF" fill="#00BFFF" class="color_Midwest"/>
          <use xlink:href="#img-f8a39ee4-28" x="104.96" y="58.04" stroke="#FFFFFF" fill="#D4CA3A" class="color_Northeast"/>
          <use xlink:href="#img-f8a39ee4-28" x="104.96" y="79.46" stroke="#FFFFFF" fill="#FF6DAE" class="color_South"/>
          <use xlink:href="#img-f8a39ee4-28" x="104.96" y="67.41" stroke="#FFFFFF" fill="#00B78D" class="color_West"/>
          <use xlink:href="#img-f8a39ee4-28" x="112.14" y="50.58" stroke="#FFFFFF" fill="#00BFFF" class="color_Midwest"/>
          <use xlink:href="#img-f8a39ee4-28" x="112.14" y="53.93" stroke="#FFFFFF" fill="#D4CA3A" class="color_Northeast"/>
          <use xlink:href="#img-f8a39ee4-28" x="112.14" y="82.75" stroke="#FFFFFF" fill="#FF6DAE" class="color_South"/>
          <use xlink:href="#img-f8a39ee4-28" x="112.14" y="48.24" stroke="#FFFFFF" fill="#00B78D" class="color_West"/>
          <use xlink:href="#img-f8a39ee4-28" x="119.31" y="61.59" stroke="#FFFFFF" fill="#00BFFF" class="color_Midwest"/>
          <use xlink:href="#img-f8a39ee4-28" x="119.31" y="56.68" stroke="#FFFFFF" fill="#D4CA3A" class="color_Northeast"/>
          <use xlink:href="#img-f8a39ee4-28" x="119.31" y="80.66" stroke="#FFFFFF" fill="#FF6DAE" class="color_South"/>
          <use xlink:href="#img-f8a39ee4-28" x="119.31" y="59.09" stroke="#FFFFFF" fill="#00B78D" class="color_West"/>
          <use xlink:href="#img-f8a39ee4-28" x="126.48" y="78.34" stroke="#FFFFFF" fill="#00BFFF" class="color_Midwest"/>
          <use xlink:href="#img-f8a39ee4-28" x="126.48" y="76.06" stroke="#FFFFFF" fill="#D4CA3A" class="color_Northeast"/>
          <use xlink:href="#img-f8a39ee4-28" x="126.48" y="94.46" stroke="#FFFFFF" fill="#FF6DAE" class="color_South"/>
          <use xlink:href="#img-f8a39ee4-28" x="126.48" y="82.7" stroke="#FFFFFF" fill="#00B78D" class="color_West"/>
          <use xlink:href="#img-f8a39ee4-28" x="133.66" y="67.88" stroke="#FFFFFF" fill="#00BFFF" class="color_Midwest"/>
          <use xlink:href="#img-f8a39ee4-28" x="133.66" y="63.34" stroke="#FFFFFF" fill="#D4CA3A" class="color_Northeast"/>
          <use xlink:href="#img-f8a39ee4-28" x="133.66" y="87.99" stroke="#FFFFFF" fill="#FF6DAE" class="color_South"/>
          <use xlink:href="#img-f8a39ee4-28" x="133.66" y="74.03" stroke="#FFFFFF" fill="#00B78D" class="color_West"/>
          <use xlink:href="#img-f8a39ee4-28" x="140.83" y="47.45" stroke="#FFFFFF" fill="#00BFFF" class="color_Midwest"/>
          <use xlink:href="#img-f8a39ee4-28" x="140.83" y="44.69" stroke="#FFFFFF" fill="#D4CA3A" class="color_Northeast"/>
          <use xlink:href="#img-f8a39ee4-28" x="140.83" y="75.65" stroke="#FFFFFF" fill="#FF6DAE" class="color_South"/>
          <use xlink:href="#img-f8a39ee4-28" x="140.83" y="48.44" stroke="#FFFFFF" fill="#00B78D" class="color_West"/>
          <use xlink:href="#img-f8a39ee4-28" x="148.01" y="47.96" stroke="#FFFFFF" fill="#00BFFF" class="color_Midwest"/>
          <use xlink:href="#img-f8a39ee4-28" x="148.01" y="46.45" stroke="#FFFFFF" fill="#D4CA3A" class="color_Northeast"/>
          <use xlink:href="#img-f8a39ee4-28" x="148.01" y="81.45" stroke="#FFFFFF" fill="#FF6DAE" class="color_South"/>
          <use xlink:href="#img-f8a39ee4-28" x="148.01" y="44.89" stroke="#FFFFFF" fill="#00B78D" class="color_West"/>
          <use xlink:href="#img-f8a39ee4-28" x="155.18" y="54.6" stroke="#FFFFFF" fill="#00BFFF" class="color_Midwest"/>
          <use xlink:href="#img-f8a39ee4-28" x="155.18" y="60.53" stroke="#FFFFFF" fill="#D4CA3A" class="color_Northeast"/>
          <use xlink:href="#img-f8a39ee4-28" x="155.18" y="64.86" stroke="#FFFFFF" fill="#FF6DAE" class="color_South"/>
          <use xlink:href="#img-f8a39ee4-28" x="155.18" y="50.69" stroke="#FFFFFF" fill="#00B78D" class="color_West"/>
          <use xlink:href="#img-f8a39ee4-28" x="162.35" y="79.33" stroke="#FFFFFF" fill="#00BFFF" class="color_Midwest"/>
          <use xlink:href="#img-f8a39ee4-28" x="162.35" y="71.76" stroke="#FFFFFF" fill="#D4CA3A" class="color_Northeast"/>
          <use xlink:href="#img-f8a39ee4-28" x="162.35" y="98.2" stroke="#FFFFFF" fill="#FF6DAE" class="color_South"/>
          <use xlink:href="#img-f8a39ee4-28" x="162.35" y="82.77" stroke="#FFFFFF" fill="#00B78D" class="color_West"/>
          <use xlink:href="#img-f8a39ee4-28" x="169.53" y="81.86" stroke="#FFFFFF" fill="#00BFFF" class="color_Midwest"/>
          <use xlink:href="#img-f8a39ee4-28" x="169.53" y="79.47" stroke="#FFFFFF" fill="#D4CA3A" class="color_Northeast"/>
          <use xlink:href="#img-f8a39ee4-28" x="169.53" y="98.3" stroke="#FFFFFF" fill="#FF6DAE" class="color_South"/>
          <use xlink:href="#img-f8a39ee4-28" x="169.53" y="91.34" stroke="#FFFFFF" fill="#00B78D" class="color_West"/>
          <use xlink:href="#img-f8a39ee4-28" x="176.7" y="69.27" stroke="#FFFFFF" fill="#00BFFF" class="color_Midwest"/>
          <use xlink:href="#img-f8a39ee4-28" x="176.7" y="72.38" stroke="#FFFFFF" fill="#D4CA3A" class="color_Northeast"/>
          <use xlink:href="#img-f8a39ee4-28" x="176.7" y="94.53" stroke="#FFFFFF" fill="#FF6DAE" class="color_South"/>
          <use xlink:href="#img-f8a39ee4-28" x="176.7" y="78.39" stroke="#FFFFFF" fill="#00B78D" class="color_West"/>
          <use xlink:href="#img-f8a39ee4-28" x="183.87" y="68.37" stroke="#FFFFFF" fill="#00BFFF" class="color_Midwest"/>
          <use xlink:href="#img-f8a39ee4-28" x="183.87" y="71.75" stroke="#FFFFFF" fill="#D4CA3A" class="color_Northeast"/>
          <use xlink:href="#img-f8a39ee4-28" x="183.87" y="89.68" stroke="#FFFFFF" fill="#FF6DAE" class="color_South"/>
          <use xlink:href="#img-f8a39ee4-28" x="183.87" y="76.22" stroke="#FFFFFF" fill="#00B78D" class="color_West"/>
          <use xlink:href="#img-f8a39ee4-28" x="191.05" y="70.65" stroke="#FFFFFF" fill="#00BFFF" class="color_Midwest"/>
          <use xlink:href="#img-f8a39ee4-28" x="191.05" y="68.75" stroke="#FFFFFF" fill="#D4CA3A" class="color_Northeast"/>
          <use xlink:href="#img-f8a39ee4-28" x="191.05" y="82.19" stroke="#FFFFFF" fill="#FF6DAE" class="color_South"/>
          <use xlink:href="#img-f8a39ee4-28" x="191.05" y="71.12" stroke="#FFFFFF" fill="#00B78D" class="color_West"/>
          <use xlink:href="#img-f8a39ee4-28" x="198.22" y="59.04" stroke="#FFFFFF" fill="#00BFFF" class="color_Midwest"/>
          <use xlink:href="#img-f8a39ee4-28" x="198.22" y="62.05" stroke="#FFFFFF" fill="#D4CA3A" class="color_Northeast"/>
          <use xlink:href="#img-f8a39ee4-28" x="198.22" y="69.94" stroke="#FFFFFF" fill="#FF6DAE" class="color_South"/>
          <use xlink:href="#img-f8a39ee4-28" x="198.22" y="58.86" stroke="#FFFFFF" fill="#00B78D" class="color_West"/>
          <use xlink:href="#img-f8a39ee4-28" x="205.39" y="57.88" stroke="#FFFFFF" fill="#00BFFF" class="color_Midwest"/>
          <use xlink:href="#img-f8a39ee4-28" x="205.39" y="55.13" stroke="#FFFFFF" fill="#D4CA3A" class="color_Northeast"/>
          <use xlink:href="#img-f8a39ee4-28" x="205.39" y="66.27" stroke="#FFFFFF" fill="#FF6DAE" class="color_South"/>
          <use xlink:href="#img-f8a39ee4-28" x="205.39" y="60.74" stroke="#FFFFFF" fill="#00B78D" class="color_West"/>
          <use xlink:href="#img-f8a39ee4-28" x="212.57" y="66.19" stroke="#FFFFFF" fill="#00BFFF" class="color_Midwest"/>
          <use xlink:href="#img-f8a39ee4-28" x="212.57" y="72.78" stroke="#FFFFFF" fill="#D4CA3A" class="color_Northeast"/>
          <use xlink:href="#img-f8a39ee4-28" x="212.57" y="70.67" stroke="#FFFFFF" fill="#FF6DAE" class="color_South"/>
          <use xlink:href="#img-f8a39ee4-28" x="212.57" y="67.46" stroke="#FFFFFF" fill="#00B78D" class="color_West"/>
          <use xlink:href="#img-f8a39ee4-28" x="219.74" y="83.95" stroke="#FFFFFF" fill="#00BFFF" class="color_Midwest"/>
          <use xlink:href="#img-f8a39ee4-28" x="219.74" y="92.98" stroke="#FFFFFF" fill="#D4CA3A" class="color_Northeast"/>
          <use xlink:href="#img-f8a39ee4-28" x="219.74" y="74.31" stroke="#FFFFFF" fill="#FF6DAE" class="color_South"/>
          <use xlink:href="#img-f8a39ee4-28" x="219.74" y="81.53" stroke="#FFFFFF" fill="#00B78D" class="color_West"/>
          <use xlink:href="#img-f8a39ee4-28" x="226.92" y="67.14" stroke="#FFFFFF" fill="#00BFFF" class="color_Midwest"/>
          <use xlink:href="#img-f8a39ee4-28" x="226.92" y="73.79" stroke="#FFFFFF" fill="#D4CA3A" class="color_Northeast"/>
          <use xlink:href="#img-f8a39ee4-28" x="226.92" y="67.22" stroke="#FFFFFF" fill="#FF6DAE" class="color_South"/>
          <use xlink:href="#img-f8a39ee4-28" x="226.92" y="65.92" stroke="#FFFFFF" fill="#00B78D" class="color_West"/>
          <use xlink:href="#img-f8a39ee4-28" x="234.09" y="56.35" stroke="#FFFFFF" fill="#00BFFF" class="color_Midwest"/>
          <use xlink:href="#img-f8a39ee4-28" x="234.09" y="58.75" stroke="#FFFFFF" fill="#D4CA3A" class="color_Northeast"/>
          <use xlink:href="#img-f8a39ee4-28" x="234.09" y="44.68" stroke="#FFFFFF" fill="#FF6DAE" class="color_South"/>
          <use xlink:href="#img-f8a39ee4-28" x="234.09" y="57.45" stroke="#FFFFFF" fill="#00B78D" class="color_West"/>
          <use xlink:href="#img-f8a39ee4-28" x="241.26" y="68.28" stroke="#FFFFFF" fill="#00BFFF" class="color_Midwest"/>
          <use xlink:href="#img-f8a39ee4-28" x="241.26" y="71.33" stroke="#FFFFFF" fill="#D4CA3A" class="color_Northeast"/>
          <use xlink:href="#img-f8a39ee4-28" x="241.26" y="75.09" stroke="#FFFFFF" fill="#FF6DAE" class="color_South"/>
          <use xlink:href="#img-f8a39ee4-28" x="241.26" y="65.72" stroke="#FFFFFF" fill="#00B78D" class="color_West"/>
          <use xlink:href="#img-f8a39ee4-28" x="248.44" y="62.63" stroke="#FFFFFF" fill="#00BFFF" class="color_Midwest"/>
          <use xlink:href="#img-f8a39ee4-28" x="248.44" y="65.35" stroke="#FFFFFF" fill="#D4CA3A" class="color_Northeast"/>
          <use xlink:href="#img-f8a39ee4-28" x="248.44" y="65.22" stroke="#FFFFFF" fill="#FF6DAE" class="color_South"/>
          <use xlink:href="#img-f8a39ee4-28" x="248.44" y="56.48" stroke="#FFFFFF" fill="#00B78D" class="color_West"/>
          <use xlink:href="#img-f8a39ee4-28" x="255.61" y="58.33" stroke="#FFFFFF" fill="#00BFFF" class="color_Midwest"/>
          <use xlink:href="#img-f8a39ee4-28" x="255.61" y="61.91" stroke="#FFFFFF" fill="#D4CA3A" class="color_Northeast"/>
          <use xlink:href="#img-f8a39ee4-28" x="255.61" y="54.1" stroke="#FFFFFF" fill="#FF6DAE" class="color_South"/>
          <use xlink:href="#img-f8a39ee4-28" x="255.61" y="55.99" stroke="#FFFFFF" fill="#00B78D" class="color_West"/>
          <use xlink:href="#img-f8a39ee4-28" x="262.78" y="65.58" stroke="#FFFFFF" fill="#00BFFF" class="color_Midwest"/>
          <use xlink:href="#img-f8a39ee4-28" x="262.78" y="68.26" stroke="#FFFFFF" fill="#D4CA3A" class="color_Northeast"/>
          <use xlink:href="#img-f8a39ee4-28" x="262.78" y="59.35" stroke="#FFFFFF" fill="#FF6DAE" class="color_South"/>
          <use xlink:href="#img-f8a39ee4-28" x="262.78" y="65.22" stroke="#FFFFFF" fill="#00B78D" class="color_West"/>
          <use xlink:href="#img-f8a39ee4-28" x="269.96" y="72.55" stroke="#FFFFFF" fill="#00BFFF" class="color_Midwest"/>
          <use xlink:href="#img-f8a39ee4-28" x="269.96" y="76.45" stroke="#FFFFFF" fill="#D4CA3A" class="color_Northeast"/>
          <use xlink:href="#img-f8a39ee4-28" x="269.96" y="69.35" stroke="#FFFFFF" fill="#FF6DAE" class="color_South"/>
          <use xlink:href="#img-f8a39ee4-28" x="269.96" y="74.61" stroke="#FFFFFF" fill="#00B78D" class="color_West"/>
          <use xlink:href="#img-f8a39ee4-28" x="277.13" y="74.15" stroke="#FFFFFF" fill="#00BFFF" class="color_Midwest"/>
          <use xlink:href="#img-f8a39ee4-28" x="277.13" y="83.21" stroke="#FFFFFF" fill="#D4CA3A" class="color_Northeast"/>
          <use xlink:href="#img-f8a39ee4-28" x="277.13" y="70.17" stroke="#FFFFFF" fill="#FF6DAE" class="color_South"/>
          <use xlink:href="#img-f8a39ee4-28" x="277.13" y="74.08" stroke="#FFFFFF" fill="#00B78D" class="color_West"/>
          <use xlink:href="#img-f8a39ee4-28" x="284.31" y="68.41" stroke="#FFFFFF" fill="#00BFFF" class="color_Midwest"/>
          <use xlink:href="#img-f8a39ee4-28" x="284.31" y="80.19" stroke="#FFFFFF" fill="#D4CA3A" class="color_Northeast"/>
          <use xlink:href="#img-f8a39ee4-28" x="284.31" y="63.33" stroke="#FFFFFF" fill="#FF6DAE" class="color_South"/>
          <use xlink:href="#img-f8a39ee4-28" x="284.31" y="70.49" stroke="#FFFFFF" fill="#00B78D" class="color_West"/>
          <use xlink:href="#img-f8a39ee4-28" x="291.48" y="67.59" stroke="#FFFFFF" fill="#00BFFF" class="color_Midwest"/>
          <use xlink:href="#img-f8a39ee4-28" x="291.48" y="77.06" stroke="#FFFFFF" fill="#D4CA3A" class="color_Northeast"/>
          <use xlink:href="#img-f8a39ee4-28" x="291.48" y="60.8" stroke="#FFFFFF" fill="#FF6DAE" class="color_South"/>
          <use xlink:href="#img-f8a39ee4-28" x="291.48" y="69.9" stroke="#FFFFFF" fill="#00B78D" class="color_West"/>
          <use xlink:href="#img-f8a39ee4-28" x="298.65" y="75.19" stroke="#FFFFFF" fill="#00BFFF" class="color_Midwest"/>
          <use xlink:href="#img-f8a39ee4-28" x="298.65" y="82.06" stroke="#FFFFFF" fill="#D4CA3A" class="color_Northeast"/>
          <use xlink:href="#img-f8a39ee4-28" x="298.65" y="65.98" stroke="#FFFFFF" fill="#FF6DAE" class="color_South"/>
          <use xlink:href="#img-f8a39ee4-28" x="298.65" y="78.26" stroke="#FFFFFF" fill="#00B78D" class="color_West"/>
          <use xlink:href="#img-f8a39ee4-28" x="305.83" y="71.12" stroke="#FFFFFF" fill="#00BFFF" class="color_Midwest"/>
          <use xlink:href="#img-f8a39ee4-28" x="305.83" y="81.15" stroke="#FFFFFF" fill="#D4CA3A" class="color_Northeast"/>
          <use xlink:href="#img-f8a39ee4-28" x="305.83" y="64.51" stroke="#FFFFFF" fill="#FF6DAE" class="color_South"/>
          <use xlink:href="#img-f8a39ee4-28" x="305.83" y="76.25" stroke="#FFFFFF" fill="#00B78D" class="color_West"/>
        </g>
      </g>
    </g>
  </g>
</g>
  <g class="guide ylabels" font-size="4.76" font-family="'PT Sans Caption','Helvetica Neue','Helvetica',sans-serif" fill="#FFFFFF" id="img-f8a39ee4-29">
    <text x="23.05" y="120.95" text-anchor="end" dy="0.35em">-40</text>
    <text x="23.05" y="95.05" text-anchor="end" dy="0.35em">-20</text>
    <text x="23.05" y="69.15" text-anchor="end" dy="0.35em">0</text>
    <text x="23.05" y="43.25" text-anchor="end" dy="0.35em">20</text>
    <text x="23.05" y="17.35" text-anchor="end" dy="0.35em">40</text>
  </g>
  <g font-size="6.35" font-family="'PT Sans','Helvetica Neue','Helvetica',sans-serif" fill="#FFFFFF" stroke="#000000" stroke-opacity="0.000" id="img-f8a39ee4-30">
    <text x="10.18" y="67.15" text-anchor="middle" dy="0.35em" transform="rotate(-90, 10.18, 69.15)">Difference (%)</text>
  </g>
  <g font-size="6.35" font-family="'PT Sans','Helvetica Neue','Helvetica',sans-serif" fill="#FFFFFF" stroke="#000000" stroke-opacity="0.000" id="img-f8a39ee4-31">
    <text x="169.53" y="13.35" text-anchor="middle">Republican - Democratic Popular Vote (%) by Region</text>
  </g>
</g>
<defs>
  <clipPath id="img-f8a39ee4-18">
  <path d="M24.05,15.35 L 315 15.35 315 122.95 24.05 122.95" />
</clipPath>
  <g id="img-f8a39ee4-28">
    <circle cx="0" cy="0" r="0.9"/>
  </g>
</defs>
</svg>
