<?xml version="1.0" encoding="UTF-8"?>
<svg xmlns="http://www.w3.org/2000/svg"
     xmlns:xlink="http://www.w3.org/1999/xlink"
     xmlns:gadfly="http://www.gadflyjl.org/ns"
     version="1.2"
     width="120mm" height="80mm" viewBox="0 0 120 80"
     stroke="none"
     fill="#000000"
     stroke-width="0.3"
     font-size="3.88"
>
<g class="plotroot xscalable yscalable" id="img-d0fe623f-1">
  <g font-size="5.29" font-family="'PT Sans','Helvetica Neue','Helvetica',sans-serif" fill="#564A55" stroke="#000000" stroke-opacity="0.000" id="img-d0fe623f-2">
    <text x="68.83" y="67.08" text-anchor="middle" dy="0.6em">Year</text>
  </g>
  <g class="guide xlabels" font-size="3.7" font-family="'PT Sans Caption','Helvetica Neue','Helvetica',sans-serif" fill="#6C606B" id="img-d0fe623f-3">
    <text x="24.66" y="54.29" text-anchor="end" dy="0.35em" transform="rotate(-90, 24.66, 54.29)">1908</text>
    <text x="31.33" y="54.29" text-anchor="end" dy="0.35em" transform="rotate(-90, 31.33, 54.29)">1916</text>
    <text x="38" y="54.29" text-anchor="end" dy="0.35em" transform="rotate(-90, 38, 54.29)">1924</text>
    <text x="44.66" y="54.29" text-anchor="end" dy="0.35em" transform="rotate(-90, 44.66, 54.29)">1932</text>
    <text x="51.33" y="54.29" text-anchor="end" dy="0.35em" transform="rotate(-90, 51.33, 54.29)">1940</text>
    <text x="58" y="54.29" text-anchor="end" dy="0.35em" transform="rotate(-90, 58, 54.29)">1948</text>
    <text x="64.66" y="54.29" text-anchor="end" dy="0.35em" transform="rotate(-90, 64.66, 54.29)">1956</text>
    <text x="71.33" y="54.29" text-anchor="end" dy="0.35em" transform="rotate(-90, 71.33, 54.29)">1964</text>
    <text x="78" y="54.29" text-anchor="end" dy="0.35em" transform="rotate(-90, 78, 54.29)">1972</text>
    <text x="84.66" y="54.29" text-anchor="end" dy="0.35em" transform="rotate(-90, 84.66, 54.29)">1980</text>
    <text x="91.33" y="54.29" text-anchor="end" dy="0.35em" transform="rotate(-90, 91.33, 54.29)">1988</text>
    <text x="98" y="54.29" text-anchor="end" dy="0.35em" transform="rotate(-90, 98, 54.29)">1996</text>
    <text x="104.67" y="54.29" text-anchor="end" dy="0.35em" transform="rotate(-90, 104.67, 54.29)">2004</text>
    <text x="111.33" y="54.29" text-anchor="end" dy="0.35em" transform="rotate(-90, 111.33, 54.29)">2012</text>
  </g>
<g clip-path="url(#img-d0fe623f-4)">
  <g id="img-d0fe623f-5">
    <g pointer-events="visible" opacity="1" fill="#000000" fill-opacity="0.000" stroke="#000000" stroke-opacity="0.000" class="guide background" id="img-d0fe623f-6">
      <rect x="22.66" y="5" width="92.34" height="48.29"/>
    </g>
    <g class="guide ygridlines xfixed" stroke-dasharray="0.5,0.5" stroke-width="0.26" stroke="#000000" id="img-d0fe623f-7">
      <path fill="none" d="M22.66,51.29 L 115 51.29"/>
      <path fill="none" d="M22.66,40.22 L 115 40.22"/>
      <path fill="none" d="M22.66,29.15 L 115 29.15"/>
      <path fill="none" d="M22.66,18.07 L 115 18.07"/>
      <path fill="none" d="M22.66,7 L 115 7"/>
    </g>
    <g class="guide xgridlines yfixed" stroke-dasharray="0.5,0.5" stroke-width="0.26" stroke="#000000" id="img-d0fe623f-8">
      <path fill="none" d="M24.66,5 L 24.66 53.29"/>
      <path fill="none" d="M31.33,5 L 31.33 53.29"/>
      <path fill="none" d="M38,5 L 38 53.29"/>
      <path fill="none" d="M44.66,5 L 44.66 53.29"/>
      <path fill="none" d="M51.33,5 L 51.33 53.29"/>
      <path fill="none" d="M58,5 L 58 53.29"/>
      <path fill="none" d="M64.66,5 L 64.66 53.29"/>
      <path fill="none" d="M71.33,5 L 71.33 53.29"/>
      <path fill="none" d="M78,5 L 78 53.29"/>
      <path fill="none" d="M84.66,5 L 84.66 53.29"/>
      <path fill="none" d="M91.33,5 L 91.33 53.29"/>
      <path fill="none" d="M98,5 L 98 53.29"/>
      <path fill="none" d="M104.67,5 L 104.67 53.29"/>
      <path fill="none" d="M111.33,5 L 111.33 53.29"/>
    </g>
    <g class="plotpanel" id="img-d0fe623f-9">
      <g shape-rendering="crispEdges" stroke-width="0.3" id="img-d0fe623f-10">
        <g stroke="#000000" stroke-opacity="0.000" fill="#00BFFF" class="geometry" id="img-d0fe623f-11">
          <rect x="26.3" y="18.83" width="3.38" height="10.31"/>
          <rect x="29.64" y="14.95" width="3.38" height="14.19"/>
          <rect x="32.97" y="12.07" width="3.38" height="17.07"/>
          <rect x="36.3" y="9.19" width="3.38" height="19.96"/>
          <rect x="39.64" y="20.51" width="3.38" height="8.63"/>
          <rect x="42.97" y="15.79" width="3.38" height="13.36"/>
          <rect x="46.3" y="17.74" width="3.38" height="11.4"/>
          <rect x="49.64" y="16.46" width="3.38" height="12.69"/>
          <rect x="52.97" y="18.24" width="3.38" height="10.9"/>
          <rect x="56.3" y="28.49" width="3.38" height="0.66"/>
          <rect x="59.64" y="26.41" width="3.38" height="2.73"/>
          <rect x="62.97" y="25.39" width="3.38" height="3.76"/>
          <rect x="66.31" y="29.15" width="3.38" height="2.29"/>
          <rect x="69.64" y="29.15" width="3.38" height="18"/>
          <rect x="72.97" y="29.15" width="3.38" height="5.97"/>
          <rect x="76.31" y="29.15" width="3.38" height="11.81"/>
          <rect x="79.64" y="29.15" width="3.38" height="2.1"/>
          <rect x="82.97" y="29.15" width="3.38" height="4.1"/>
          <rect x="86.31" y="29.15" width="3.38" height="7.6"/>
          <rect x="89.64" y="29.15" width="3.38" height="8.9"/>
          <rect x="92.97" y="29.15" width="3.38" height="7.91"/>
          <rect x="96.31" y="29.15" width="3.38" height="9.35"/>
          <rect x="99.64" y="29.15" width="3.38" height="10.7"/>
          <rect x="102.97" y="29.15" width="3.38" height="11.6"/>
          <rect x="106.31" y="29.15" width="3.38" height="12.85"/>
          <rect x="109.64" y="29.15" width="3.38" height="12.5"/>
        </g>
      </g>
    </g>
  </g>
</g>
  <g class="guide ylabels" font-size="3.7" font-family="'PT Sans Caption','Helvetica Neue','Helvetica',sans-serif" fill="#6C606B" id="img-d0fe623f-12">
    <text x="21.66" y="51.29" text-anchor="end" dy="0.35em">-0.4</text>
    <text x="21.66" y="40.22" text-anchor="end" dy="0.35em">-0.2</text>
    <text x="21.66" y="29.15" text-anchor="end" dy="0.35em">0.0</text>
    <text x="21.66" y="18.07" text-anchor="end" dy="0.35em">0.2</text>
    <text x="21.66" y="7" text-anchor="end" dy="0.35em">0.4</text>
  </g>
  <g font-size="5.29" font-family="'PT Sans','Helvetica Neue','Helvetica',sans-serif" fill="#564A55" stroke="#000000" stroke-opacity="0.000" id="img-d0fe623f-13">
    <text x="9.46" y="27.15" text-anchor="middle" dy="0.35em" transform="rotate(-90, 9.46, 29.15)">PC1 Loadings</text>
  </g>
</g>
<defs>
  <clipPath id="img-d0fe623f-4">
  <path d="M22.66,5 L 115 5 115 53.29 22.66 53.29" />
</clipPath>
</defs>
</svg>
