<svg xmlns="http://www.w3.org/2000/svg" xmlns:xlink="http://www.w3.org/1999/xlink" version="1.2" width="799.899" height="599.924" viewBox="0 0 211.64 158.73" stroke-width=".3" font-size="3.88"><path d="M0 0h211.64v158.73H0z" stroke="#000" stroke-opacity="0" fill="#222831"/><g class="plotroot xscalable yscalable"><g class="guide colorkey"><g class="color_1"><text x="48.53" y="148.78" dy=".35em" fill="#A1A1A1" font-size="3.7" font-family="'PT Sans','Helvetica Neue','Helvetica',sans-serif">1</text><path d="M45.3 147.66h2.22v2.22H45.3z" fill="#EEDBFF" stroke="#000" stroke-opacity="0"/></g><g class="color_2"><text x="42.28" y="148.78" dy=".35em" fill="#A1A1A1" font-size="3.7" font-family="'PT Sans','Helvetica Neue','Helvetica',sans-serif">2</text><path d="M39.06 147.66h2.22v2.22h-2.22z" fill="#3F9778" stroke="#000" stroke-opacity="0"/></g><g class="color_3"><text x="36.04" y="148.78" dy=".35em" fill="#A1A1A1" font-size="3.7" font-family="'PT Sans','Helvetica Neue','Helvetica',sans-serif">3</text><path d="M32.82 147.66h2.22v2.22h-2.22z" fill="#ECA25C" stroke="#000" stroke-opacity="0"/></g><g class="color_4"><text x="29.79" y="148.78" dy=".35em" fill="#A1A1A1" font-size="3.7" font-family="'PT Sans','Helvetica Neue','Helvetica',sans-serif">4</text><path d="M26.57 147.66h2.22v2.22h-2.22z" fill="#FE4365" stroke="#000" stroke-opacity="0"/></g><text x="26.57" y="145.28" fill="#A1A1A1" font-size="6.35" font-family="'PT Sans','Helvetica Neue','Helvetica',sans-serif" stroke="#000" stroke-opacity="0">Color</text></g><text x="116.11" y="130.46" text-anchor="middle" dy=".6em" font-size="6.35" font-family="'PT Sans','Helvetica Neue','Helvetica',sans-serif" fill="#A1A1A1" stroke="#000" stroke-opacity="0">PC1</text><g class="guide xlabels" font-size="4.76" font-family="'PT Sans Caption','Helvetica Neue','Helvetica',sans-serif" fill="#A1A1A1" text-anchor="middle"><text x="27.57" y="121.95" dy=".6em">-0.5</text><text x="86.59" y="121.95" dy=".6em">0.0</text><text x="145.62" y="121.95" dy=".6em">0.5</text><text x="204.64" y="121.95" dy=".6em">1.0</text></g><g clip-path="url(#a)"><path d="M25.57 12.91h181.07v108.04H25.57z" pointer-events="visible" fill="#222831" stroke="#000" stroke-opacity="0" class="guide background"/><g class="guide ygridlines xfixed" stroke-dasharray="0.5,0.5" stroke-width=".2" stroke="#575757" fill="none"><path d="M25.57 118.95h181.07M25.57 98.14h181.07M25.57 77.34h181.07M25.57 56.53h181.07M25.57 35.72h181.07M25.57 14.91h181.07"/></g><g class="guide xgridlines yfixed" stroke-dasharray="0.5,0.5" stroke-width=".2" stroke="#575757" fill="none"><path d="M27.57 12.91v108.04M86.59 12.91v108.04M145.62 12.91v108.04M204.64 12.91v108.04"/></g><g class="plotpanel"><g class="geometry" stroke="#000" stroke-opacity="0" fill="#A1A1A1" font-size="3.7" font-family="'PT Sans Caption','Helvetica Neue','Helvetica',sans-serif" text-anchor="middle"><text x="177.9" y="47.01" dy=".35em">South</text><text x="59.71" y="106.59" dy=".35em">West</text><text x="86.18" y="67.97" dy=".35em">West</text><text x="136.12" y="100.5" dy=".35em">South</text><text x="61.76" y="52.87" dy=".35em">West</text><text x="61" y="75.9" dy=".35em">West</text><text x="65.64" y="60.57" dy=".35em" visibility="hidden">Northeast</text><text x="93.5" y="49.59" dy=".35em">South</text><text x="80.09" y="52.48" dy=".35em">South</text><text x="99.24" y="55.63" dy=".35em">South</text><text x="151.81" y="71.92" dy=".35em">South</text><text x="52.58" y="60.53" dy=".35em" visibility="hidden">West</text><text x="88.51" y="99.51" dy=".35em" visibility="hidden">West</text><text x="65.36" y="54.64" dy=".35em" visibility="hidden">Midwest</text><text x="91.04" y="77.53" dy=".35em">Midwest</text><text x="82.66" y="75.36" dy=".35em" visibility="hidden">Midwest</text><text x="99.65" y="92.54" dy=".35em">Midwest</text><text x="96.87" y="112.21" dy=".35em">South</text><text x="127.1" y="80.47" dy=".35em">South</text><text x="77.77" y="70.85" dy=".35em" visibility="hidden">Northeast</text><text x="81.21" y="59.72" dy=".35em" visibility="hidden">South</text><text x="75.01" y="82.53" dy=".35em" visibility="hidden">Northeast</text><text x="73.62" y="72.03" dy=".35em" visibility="hidden">Midwest</text><text x="103.16" y="85.09" dy=".35em">Midwest</text><text x="171.43" y="34.66" dy=".35em">South</text><text x="79.58" y="92.42" dy=".35em" visibility="hidden">Midwest</text><text x="78.89" y="94.01" dy=".35em">West</text><text x="67.43" y="86.15" dy=".35em">Midwest</text><text x="60.43" y="67.01" dy=".35em">West</text><text x="64.34" y="69.83" dy=".35em" visibility="hidden">Northeast</text><text x="72.4" y="63.82" dy=".35em" visibility="hidden">Northeast</text><text x="77.59" y="66.43" dy=".35em" visibility="hidden">West</text><text x="74.84" y="60.64" dy=".35em">Northeast</text><text x="106.16" y="79.09" dy=".35em">South</text><text x="72.62" y="100.77" dy=".35em">Midwest</text><text x="73.64" y="82.15" dy=".35em" visibility="hidden">Midwest</text><text x="109.45" y="104.22" dy=".35em">South</text><text x="73.85" y="72.24" dy=".35em">West</text><text x="73.95" y="82.18" dy=".35em" visibility="hidden">Northeast</text><text x="72.6" y="82" dy=".35em" visibility="hidden">Northeast</text><text x="123.92" y="65.67" dy=".35em">South</text><text x="95.88" y="98.59" dy=".35em">Midwest</text><text x="123.28" y="91.32" dy=".35em">South</text><text x="87.37" y="106.57" dy=".35em">South</text><text x="72.5" y="108.65" dy=".35em">West</text><text x="55.13" y="40.1" dy=".35em" visibility="hidden">Northeast</text><text x="94.78" y="62.1" dy=".35em">South</text><text x="77.04" y="69.46" dy=".35em" visibility="hidden">West</text><text x="116.8" y="118.49" dy=".35em">South</text><text x="85.28" y="74.78" dy=".35em" visibility="hidden">Midwest</text><text x="91.78" y="118.64" dy=".35em">West</text></g><g class="geometry"><use xlink:href="#b" x="182" y="49.77" stroke="#B58486" fill="#FE4365" class="color_4"/><use xlink:href="#b" x="65.18" y="107.56" stroke="#AA8B71" fill="#ECA25C" class="color_3"/><use xlink:href="#b" x="80.7" y="67.28" stroke="#6D9A87" fill="#3F9778" class="color_2"/><use xlink:href="#b" x="129.75" y="99.57" stroke="#9B8AAB" fill="#EEDBFF" class="color_1"/><use xlink:href="#b" x="67.23" y="53.7" stroke="#6D9A87" fill="#3F9778" class="color_2"/><use xlink:href="#b" x="64.44" y="73.14" stroke="#6D9A87" fill="#3F9778" class="color_2"/><use xlink:href="#b" x="58.61" y="63.32" stroke="#6D9A87" fill="#3F9778" class="color_2"/><use xlink:href="#b" x="89.53" y="52.34" stroke="#6D9A87" fill="#3F9778" class="color_2"/><use xlink:href="#b" x="75.47" y="55.23" stroke="#6D9A87" fill="#3F9778" class="color_2"/><use xlink:href="#b" x="95.34" y="58.39" stroke="#6D9A87" fill="#3F9778" class="color_2"/><use xlink:href="#b" x="145.44" y="71.97" stroke="#9B8AAB" fill="#EEDBFF" class="color_1"/><use xlink:href="#b" x="47.11" y="60.08" stroke="#6D9A87" fill="#3F9778" class="color_2"/><use xlink:href="#b" x="83.04" y="98.48" stroke="#AA8B71" fill="#ECA25C" class="color_3"/><use xlink:href="#b" x="74.05" y="55.74" stroke="#6D9A87" fill="#3F9778" class="color_2"/><use xlink:href="#b" x="85.13" y="80.28" stroke="#6D9A87" fill="#3F9778" class="color_2"/><use xlink:href="#b" x="77.05" y="78.11" stroke="#6D9A87" fill="#3F9778" class="color_2"/><use xlink:href="#b" x="90.96" y="92.24" stroke="#AA8B71" fill="#ECA25C" class="color_3"/><use xlink:href="#b" x="101.4" y="109.46" stroke="#AA8B71" fill="#ECA25C" class="color_3"/><use xlink:href="#b" x="131.71" y="77.72" stroke="#9B8AAB" fill="#EEDBFF" class="color_1"/><use xlink:href="#b" x="67.75" y="70.69" stroke="#6D9A87" fill="#3F9778" class="color_2"/><use xlink:href="#b" x="74.84" y="56.97" stroke="#6D9A87" fill="#3F9778" class="color_2"/><use xlink:href="#b" x="64.99" y="79.78" stroke="#6D9A87" fill="#3F9778" class="color_2"/><use xlink:href="#b" x="67.26" y="74.78" stroke="#6D9A87" fill="#3F9778" class="color_2"/><use xlink:href="#b" x="94.47" y="85.66" stroke="#AA8B71" fill="#ECA25C" class="color_3"/><use xlink:href="#b" x="175.41" y="31.91" stroke="#B58486" fill="#FE4365" class="color_4"/><use xlink:href="#b" x="88.27" y="92.43" stroke="#AA8B71" fill="#ECA25C" class="color_3"/><use xlink:href="#b" x="81.67" y="96.77" stroke="#AA8B71" fill="#ECA25C" class="color_3"/><use xlink:href="#b" x="76.12" y="87.36" stroke="#AA8B71" fill="#ECA25C" class="color_3"/><use xlink:href="#b" x="63.21" y="64.25" stroke="#6D9A87" fill="#3F9778" class="color_2"/><use xlink:href="#b" x="54.32" y="67.08" stroke="#6D9A87" fill="#3F9778" class="color_2"/><use xlink:href="#b" x="62.38" y="61.07" stroke="#6D9A87" fill="#3F9778" class="color_2"/><use xlink:href="#b" x="72.12" y="65.79" stroke="#6D9A87" fill="#3F9778" class="color_2"/><use xlink:href="#b" x="64.82" y="57.88" stroke="#6D9A87" fill="#3F9778" class="color_2"/><use xlink:href="#b" x="102.31" y="76.34" stroke="#9B8AAB" fill="#EEDBFF" class="color_1"/><use xlink:href="#b" x="77.41" y="98.01" stroke="#AA8B71" fill="#ECA25C" class="color_3"/><use xlink:href="#b" x="78.79" y="79.39" stroke="#6D9A87" fill="#3F9778" class="color_2"/><use xlink:href="#b" x="103.08" y="105.18" stroke="#AA8B71" fill="#ECA25C" class="color_3"/><use xlink:href="#b" x="71.02" y="74.99" stroke="#6D9A87" fill="#3F9778" class="color_2"/><use xlink:href="#b" x="80.07" y="79.43" stroke="#6D9A87" fill="#3F9778" class="color_2"/><use xlink:href="#b" x="62.58" y="79.25" stroke="#6D9A87" fill="#3F9778" class="color_2"/><use xlink:href="#b" x="130.29" y="65.99" stroke="#9B8AAB" fill="#EEDBFF" class="color_1"/><use xlink:href="#b" x="87.19" y="99.38" stroke="#AA8B71" fill="#ECA25C" class="color_3"/><use xlink:href="#b" x="116.9" y="90.56" stroke="#9B8AAB" fill="#EEDBFF" class="color_1"/><use xlink:href="#b" x="92.08" y="103.81" stroke="#AA8B71" fill="#ECA25C" class="color_3"/><use xlink:href="#b" x="75.42" y="111.4" stroke="#AA8B71" fill="#ECA25C" class="color_3"/><use xlink:href="#b" x="48.82" y="42.85" stroke="#6D9A87" fill="#3F9778" class="color_2"/><use xlink:href="#b" x="88.4" y="62.47" stroke="#6D9A87" fill="#3F9778" class="color_2"/><use xlink:href="#b" x="71.57" y="66.7" stroke="#6D9A87" fill="#3F9778" class="color_2"/><use xlink:href="#b" x="110.43" y="118.15" stroke="#AA8B71" fill="#ECA25C" class="color_3"/><use xlink:href="#b" x="80.04" y="77.53" stroke="#6D9A87" fill="#3F9778" class="color_2"/><use xlink:href="#b" x="88.12" y="115.88" stroke="#AA8B71" fill="#ECA25C" class="color_3"/></g></g></g><g class="guide ylabels" font-size="4.76" font-family="'PT Sans Caption','Helvetica Neue','Helvetica',sans-serif" fill="#A1A1A1" text-anchor="end"><text x="24.57" y="118.95" dy=".35em">-0.4</text><text x="24.57" y="98.14" dy=".35em">-0.2</text><text x="24.57" y="77.34" dy=".35em">0.0</text><text x="24.57" y="56.53" dy=".35em">0.2</text><text x="24.57" y="35.72" dy=".35em">0.4</text><text x="24.57" y="14.91" dy=".35em">0.6</text></g><text x="9.95" y="64.93" text-anchor="middle" dy=".35em" transform="rotate(-90 9.95 66.93)" font-size="6.35" font-family="'PT Sans','Helvetica Neue','Helvetica',sans-serif" fill="#A1A1A1" stroke="#000" stroke-opacity="0">PC2</text><text x="116.11" y="5" text-anchor="middle" dy=".6em" font-size="6.35" font-family="'PT Sans','Helvetica Neue','Helvetica',sans-serif" fill="#A1A1A1" stroke="#000" stroke-opacity="0">k-means Clustering of State PCA</text></g><defs><clipPath id="a"><path d="M25.57 12.91h181.07v108.04H25.57"/></clipPath><circle r=".9" id="b"/></defs></svg>