<svg xmlns="http://www.w3.org/2000/svg" version="1.2" width="599.924" height="449.953" viewBox="0 0 158.73 119.05" stroke-width=".3" font-size="3.88"><path d="M0 0h158.73v119.05H0z" stroke="#000" stroke-opacity="0" fill="#222831"/><g class="plotroot xscalable yscalable"><text x="88.2" y="106.12" text-anchor="middle" dy=".6em" font-size="5.29" font-family="'PT Sans','Helvetica Neue','Helvetica',sans-serif" fill="#A1A1A1" stroke="#000" stroke-opacity="0">Year</text><g class="guide xlabels" font-size="3.7" font-family="'PT Sans Caption','Helvetica Neue','Helvetica',sans-serif" fill="#A1A1A1" text-anchor="middle"><text x="24.66" y="98.61" dy=".6em">1960</text><text x="42.81" y="98.61" dy=".6em">1968</text><text x="60.97" y="98.61" dy=".6em">1976</text><text x="79.12" y="98.61" dy=".6em">1984</text><text x="97.27" y="98.61" dy=".6em">1992</text><text x="115.42" y="98.61" dy=".6em">2000</text><text x="133.58" y="98.61" dy=".6em">2008</text><text x="151.73" y="98.61" dy=".6em">2016</text></g><g clip-path="url(#a)"><path d="M22.66 5h131.07v92.61H22.66z" pointer-events="visible" fill="#222831" stroke="#000" stroke-opacity="0" class="guide background"/><g class="guide ygridlines xfixed" stroke-dasharray="0.5,0.5" stroke-width=".2" stroke="#575757" fill="none"><path d="M22.66 95.61h131.07M22.66 66.08h131.07M22.66 36.54h131.07M22.66 7h131.07"/></g><g class="guide xgridlines yfixed" stroke-dasharray="0.5,0.5" stroke-width=".2" stroke="#575757" fill="none"><path d="M24.66 5v92.61M42.81 5v92.61M60.97 5v92.61M79.12 5v92.61M97.27 5v92.61M115.42 5v92.61M133.58 5v92.61M151.73 5v92.61"/></g><g stroke="#000" stroke-opacity="0" fill="#FE4365" class="plotpanel geometry" shape-rendering="crispEdges"><path d="M29.17 29.43h9.13v36.65h-9.13zM38.25 66.08h9.13v12.09h-9.13zM47.33 57.99h9.13v8.09h-9.13zM56.4 66.08h9.13v27.45H56.4z"/><path d="M65.48 66.08h9.13v23.34h-9.13z"/><path d="M74.56 66.08h9.13v10.37h-9.13z"/><path d="M83.63 66.08h9.13v3.4h-9.13z"/><path d="M92.71 66.08h9.13v5.59h-9.13z"/><path d="M101.79 66.08h9.13v1.35h-9.13zM110.86 63.27h9.13v2.81h-9.13z"/><path d="M119.94 59.44h9.13v6.64h-9.13z"/><path d="M129.01 50.86h9.13v15.22h-9.13z"/><path d="M138.09 51.89h9.13v14.18h-9.13z"/></g></g><g class="guide ylabels" font-size="3.7" font-family="'PT Sans Caption','Helvetica Neue','Helvetica',sans-serif" fill="#A1A1A1" text-anchor="end"><text x="21.66" y="95.61" dy=".35em">-0.5</text><text x="21.66" y="66.08" dy=".35em">0.0</text><text x="21.66" y="36.54" dy=".35em">0.5</text><text x="21.66" y="7" dy=".35em">1.0</text></g><text x="9.46" y="49.31" text-anchor="middle" dy=".35em" transform="rotate(-90 9.46 51.31)" font-size="5.29" font-family="'PT Sans','Helvetica Neue','Helvetica',sans-serif" fill="#A1A1A1" stroke="#000" stroke-opacity="0">PC1 Loadings</text></g><defs><clipPath id="a"><path d="M22.66 5h131.07v92.61H22.66"/></clipPath></defs></svg>