<svg xmlns="http://www.w3.org/2000/svg" xmlns:xlink="http://www.w3.org/1999/xlink" version="1.2" width="799.899" height="599.924" viewBox="0 0 211.64 158.73" stroke-width=".3" font-size="3.88"><path d="M0 0h211.64v158.73H0z" stroke="#000" stroke-opacity="0" fill="#222831"/><g class="plotroot xscalable yscalable"><g class="guide colorkey"><g class="color_4"><text x="48.53" y="148.78" dy=".35em" fill="#A1A1A1" font-size="3.7" font-family="'PT Sans','Helvetica Neue','Helvetica',sans-serif">4</text><path d="M45.3 147.66h2.22v2.22H45.3z" fill="#EEDBFF" stroke="#000" stroke-opacity="0"/></g><g class="color_2"><text x="42.28" y="148.78" dy=".35em" fill="#A1A1A1" font-size="3.7" font-family="'PT Sans','Helvetica Neue','Helvetica',sans-serif">2</text><path d="M39.06 147.66h2.22v2.22h-2.22z" fill="#3F9778" stroke="#000" stroke-opacity="0"/></g><g class="color_3"><text x="36.04" y="148.78" dy=".35em" fill="#A1A1A1" font-size="3.7" font-family="'PT Sans','Helvetica Neue','Helvetica',sans-serif">3</text><path d="M32.82 147.66h2.22v2.22h-2.22z" fill="#ECA25C" stroke="#000" stroke-opacity="0"/></g><g class="color_1"><text x="29.79" y="148.78" dy=".35em" fill="#A1A1A1" font-size="3.7" font-family="'PT Sans','Helvetica Neue','Helvetica',sans-serif">1</text><path d="M26.57 147.66h2.22v2.22h-2.22z" fill="#FE4365" stroke="#000" stroke-opacity="0"/></g><text x="26.57" y="145.28" fill="#A1A1A1" font-size="6.35" font-family="'PT Sans','Helvetica Neue','Helvetica',sans-serif" stroke="#000" stroke-opacity="0">Color</text></g><text x="116.11" y="130.46" text-anchor="middle" dy=".6em" font-size="6.35" font-family="'PT Sans','Helvetica Neue','Helvetica',sans-serif" fill="#A1A1A1" stroke="#000" stroke-opacity="0">PC1</text><g class="guide xlabels" font-size="4.76" font-family="'PT Sans Caption','Helvetica Neue','Helvetica',sans-serif" fill="#A1A1A1" text-anchor="middle"><text x="27.57" y="121.95" dy=".6em">-3</text><text x="62.98" y="121.95" dy=".6em">-2</text><text x="98.4" y="121.95" dy=".6em">-1</text><text x="133.81" y="121.95" dy=".6em">0</text><text x="169.23" y="121.95" dy=".6em">1</text><text x="204.64" y="121.95" dy=".6em">2</text></g><g clip-path="url(#a)"><path d="M25.57 12.91h181.07v108.04H25.57z" pointer-events="visible" fill="#222831" stroke="#000" stroke-opacity="0" class="guide background"/><g class="guide ygridlines xfixed" stroke-dasharray="0.5,0.5" stroke-width=".2" stroke="#575757" fill="none"><path d="M25.57 118.95h181.07M25.57 84.27h181.07M25.57 49.59h181.07M25.57 14.91h181.07"/></g><g class="guide xgridlines yfixed" stroke-dasharray="0.5,0.5" stroke-width=".2" stroke="#575757" fill="none"><path d="M27.57 12.91v108.04M62.98 12.91v108.04M98.4 12.91v108.04M133.81 12.91v108.04M169.23 12.91v108.04M204.64 12.91v108.04"/></g><g class="plotpanel"><g class="geometry" stroke="#000" stroke-opacity="0" fill="#A1A1A1" font-size="3.7" font-family="'PT Sans Caption','Helvetica Neue','Helvetica',sans-serif" text-anchor="middle"><text x="88.46" y="60.71" dy=".35em">South</text><text x="116.89" y="80.92" dy=".35em">West</text><text x="109.56" y="100.63" dy=".35em">South</text><text x="148.38" y="75.06" dy=".35em">West</text><text x="140.41" y="89.09" dy=".35em">West</text><text x="167.41" y="71.43" dy=".35em">Northeast</text><text x="157.92" y="64.28" dy=".35em">South</text><text x="100.42" y="69.96" dy=".35em">South</text><text x="88.47" y="91.07" dy=".35em">South</text><text x="121.61" y="107.95" dy=".35em">West</text><text x="165.25" y="74.51" dy=".35em" visibility="hidden">Midwest</text><text x="145.38" y="87.36" dy=".35em" visibility="hidden">Midwest</text><text x="162.02" y="90.18" dy=".35em">Midwest</text><text x="149.25" y="95.54" dy=".35em" visibility="hidden">Midwest</text><text x="124.44" y="100.38" dy=".35em">South</text><text x="87.92" y="79.22" dy=".35em">South</text><text x="174.95" y="65.51" dy=".35em">Northeast</text><text x="141" y="68.01" dy=".35em">South</text><text x="176.46" y="77.82" dy=".35em">Northeast</text><text x="167.75" y="83.88" dy=".35em">Midwest</text><text x="165.21" y="95.9" dy=".35em">Midwest</text><text x="61.15" y="51.95" dy=".35em">South</text><text x="129.5" y="95.87" dy=".35em" visibility="hidden">Midwest</text><text x="137.4" y="104.48" dy=".35em" visibility="hidden">West</text><text x="120.75" y="94.19" dy=".35em">Midwest</text><text x="130.6" y="78.72" dy=".35em">West</text><text x="137.28" y="70.13" dy=".35em" visibility="hidden">Northeast</text><text x="165.97" y="72.59" dy=".35em" visibility="hidden">Northeast</text><text x="145.75" y="81.16" dy=".35em" visibility="hidden">West</text><text x="166.07" y="65.28" dy=".35em" visibility="hidden">Northeast</text><text x="110.57" y="87.59" dy=".35em">South</text><text x="144.19" y="107.98" dy=".35em">Midwest</text><text x="139.12" y="83.86" dy=".35em" visibility="hidden">Midwest</text><text x="112.85" y="114.84" dy=".35em">South</text><text x="156.01" y="83.93" dy=".35em" visibility="hidden">West</text><text x="168.14" y="84.9" dy=".35em" visibility="hidden">Northeast</text><text x="175.18" y="79.4" dy=".35em" visibility="hidden">Northeast</text><text x="62.43" y="62.21" dy=".35em">South</text><text x="148.76" y="101.9" dy=".35em">Midwest</text><text x="124.71" y="88.04" dy=".35em">South</text><text x="90.86" y="106.3" dy=".35em">South</text><text x="109.94" y="109.26" dy=".35em">West</text><text x="167.42" y="54.55" dy=".35em">Northeast</text><text x="120.23" y="68.28" dy=".35em">South</text><text x="155.5" y="82.46" dy=".35em" visibility="hidden">West</text><text x="142.62" y="101.3" dy=".35em" visibility="hidden">South</text><text x="161.19" y="92.46" dy=".35em" visibility="hidden">Midwest</text><text x="132.79" y="116.51" dy=".35em">West</text></g><g class="geometry"><use xlink:href="#b" x="82.08" y="59.96" stroke="#B58486" fill="#FE4365" class="color_1"/><use xlink:href="#b" x="122.37" y="82.12" stroke="#AA8B71" fill="#ECA25C" class="color_3"/><use xlink:href="#b" x="104.86" y="103.38" stroke="#AA8B71" fill="#ECA25C" class="color_3"/><use xlink:href="#b" x="152.41" y="72.31" stroke="#6D9A87" fill="#3F9778" class="color_2"/><use xlink:href="#b" x="143.9" y="86.34" stroke="#6D9A87" fill="#3F9778" class="color_2"/><use xlink:href="#b" x="157.39" y="70.13" stroke="#9B8AAB" fill="#EEDBFF" class="color_4"/><use xlink:href="#b" x="151.55" y="65.45" stroke="#9B8AAB" fill="#EEDBFF" class="color_4"/><use xlink:href="#b" x="106.79" y="69.53" stroke="#AA8B71" fill="#ECA25C" class="color_3"/><use xlink:href="#b" x="85.03" y="88.32" stroke="#B58486" fill="#FE4365" class="color_1"/><use xlink:href="#b" x="125.66" y="105.2" stroke="#AA8B71" fill="#ECA25C" class="color_3"/><use xlink:href="#b" x="156.56" y="71.76" stroke="#9B8AAB" fill="#EEDBFF" class="color_4"/><use xlink:href="#b" x="136.69" y="84.61" stroke="#6D9A87" fill="#3F9778" class="color_2"/><use xlink:href="#b" x="155.85" y="87.43" stroke="#6D9A87" fill="#3F9778" class="color_2"/><use xlink:href="#b" x="140.56" y="94.33" stroke="#6D9A87" fill="#3F9778" class="color_2"/><use xlink:href="#b" x="130.81" y="101.02" stroke="#AA8B71" fill="#ECA25C" class="color_3"/><use xlink:href="#b" x="84.11" y="76.47" stroke="#B58486" fill="#FE4365" class="color_1"/><use xlink:href="#b" x="164.93" y="66.61" stroke="#9B8AAB" fill="#EEDBFF" class="color_4"/><use xlink:href="#b" x="147.37" y="66.63" stroke="#6D9A87" fill="#3F9778" class="color_2"/><use xlink:href="#b" x="169.64" y="80.57" stroke="#9B8AAB" fill="#EEDBFF" class="color_4"/><use xlink:href="#b" x="162.73" y="86.63" stroke="#9B8AAB" fill="#EEDBFF" class="color_4"/><use xlink:href="#b" x="156.52" y="96.39" stroke="#6D9A87" fill="#3F9778" class="color_2"/><use xlink:href="#b" x="57.43" y="49.2" stroke="#B58486" fill="#FE4365" class="color_1"/><use xlink:href="#b" x="138.19" y="96.87" stroke="#6D9A87" fill="#3F9778" class="color_2"/><use xlink:href="#b" x="133.99" y="101.72" stroke="#6D9A87" fill="#3F9778" class="color_2"/><use xlink:href="#b" x="129.44" y="94.82" stroke="#AA8B71" fill="#ECA25C" class="color_3"/><use xlink:href="#b" x="133.79" y="81.48" stroke="#6D9A87" fill="#3F9778" class="color_2"/><use xlink:href="#b" x="147.3" y="71.26" stroke="#6D9A87" fill="#3F9778" class="color_2"/><use xlink:href="#b" x="155.95" y="69.83" stroke="#9B8AAB" fill="#EEDBFF" class="color_4"/><use xlink:href="#b" x="140.28" y="81.73" stroke="#6D9A87" fill="#3F9778" class="color_2"/><use xlink:href="#b" x="160.59" y="68.03" stroke="#9B8AAB" fill="#EEDBFF" class="color_4"/><use xlink:href="#b" x="114.81" y="84.84" stroke="#AA8B71" fill="#ECA25C" class="color_3"/><use xlink:href="#b" x="139.41" y="105.22" stroke="#6D9A87" fill="#3F9778" class="color_2"/><use xlink:href="#b" x="147.81" y="83.09" stroke="#6D9A87" fill="#3F9778" class="color_2"/><use xlink:href="#b" x="116.62" y="112.09" stroke="#AA8B71" fill="#ECA25C" class="color_3"/><use xlink:href="#b" x="150.54" y="83.96" stroke="#6D9A87" fill="#3F9778" class="color_2"/><use xlink:href="#b" x="158.12" y="82.15" stroke="#9B8AAB" fill="#EEDBFF" class="color_4"/><use xlink:href="#b" x="165.16" y="80.09" stroke="#9B8AAB" fill="#EEDBFF" class="color_4"/><use xlink:href="#b" x="58.96" y="64.97" stroke="#B58486" fill="#FE4365" class="color_1"/><use xlink:href="#b" x="142.28" y="99.15" stroke="#6D9A87" fill="#3F9778" class="color_2"/><use xlink:href="#b" x="121.4" y="90.8" stroke="#AA8B71" fill="#ECA25C" class="color_3"/><use xlink:href="#b" x="94.05" y="103.54" stroke="#AA8B71" fill="#ECA25C" class="color_3"/><use xlink:href="#b" x="115.41" y="109.13" stroke="#AA8B71" fill="#ECA25C" class="color_3"/><use xlink:href="#b" x="177.44" y="53.9" stroke="#9B8AAB" fill="#EEDBFF" class="color_4"/><use xlink:href="#b" x="113.86" y="69.29" stroke="#AA8B71" fill="#ECA25C" class="color_3"/><use xlink:href="#b" x="151.46" y="85.21" stroke="#6D9A87" fill="#3F9778" class="color_2"/><use xlink:href="#b" x="139.42" y="104.05" stroke="#6D9A87" fill="#3F9778" class="color_2"/><use xlink:href="#b" x="152.5" y="89.7" stroke="#6D9A87" fill="#3F9778" class="color_2"/><use xlink:href="#b" x="128.99" y="113.75" stroke="#AA8B71" fill="#ECA25C" class="color_3"/></g></g></g><g class="guide ylabels" font-size="4.76" font-family="'PT Sans Caption','Helvetica Neue','Helvetica',sans-serif" fill="#A1A1A1" text-anchor="end"><text x="24.57" y="118.95" dy=".35em">-0.5</text><text x="24.57" y="84.27" dy=".35em">0.0</text><text x="24.57" y="49.59" dy=".35em">0.5</text><text x="24.57" y="14.91" dy=".35em">1.0</text></g><text x="9.95" y="64.93" text-anchor="middle" dy=".35em" transform="rotate(-90 9.95 66.93)" font-size="6.35" font-family="'PT Sans','Helvetica Neue','Helvetica',sans-serif" fill="#A1A1A1" stroke="#000" stroke-opacity="0">PC2</text><text x="116.11" y="5" text-anchor="middle" dy=".6em" font-size="6.35" font-family="'PT Sans','Helvetica Neue','Helvetica',sans-serif" fill="#A1A1A1" stroke="#000" stroke-opacity="0">k-means Clustering of State PCA</text></g><defs><clipPath id="a"><path d="M25.57 12.91h181.07v108.04H25.57"/></clipPath><circle r=".9" id="b"/></defs></svg>