<?xml version="1.0" encoding="UTF-8"?>
<svg xmlns="http://www.w3.org/2000/svg"
     xmlns:xlink="http://www.w3.org/1999/xlink"
     xmlns:gadfly="http://www.gadflyjl.org/ns"
     version="1.2"
     width="320mm" height="160mm" viewBox="0 0 320 160"
     stroke="none"
     fill="#000000"
     stroke-width="0.3"
     font-size="3.88"
>
<g class="plotroot xscalable yscalable" id="img-dedbebb0-1">
  <g class="guide colorkey" id="img-dedbebb0-2">
    <g class="color_1" id="img-dedbebb0-3">
      <g fill="#FFFFFF" font-size="4.76" font-family="'PT Sans','Helvetica Neue','Helvetica',sans-serif" id="img-dedbebb0-4">
        <text x="48.52" y="150.53" dy="0.35em">1</text>
      </g>
      <g fill="#00B78D" stroke="#000000" stroke-opacity="0.000" id="img-dedbebb0-5">
        <rect x="45.08" y="149.31" width="2.44" height="2.44"/>
      </g>
    </g>
    <g class="color_3" id="img-dedbebb0-6">
      <g fill="#FFFFFF" font-size="4.76" font-family="'PT Sans','Helvetica Neue','Helvetica',sans-serif" id="img-dedbebb0-7">
        <text x="41.96" y="150.53" dy="0.35em">3</text>
      </g>
      <g fill="#FF6DAE" stroke="#000000" stroke-opacity="0.000" id="img-dedbebb0-8">
        <rect x="38.52" y="149.31" width="2.44" height="2.44"/>
      </g>
    </g>
    <g class="color_4" id="img-dedbebb0-9">
      <g fill="#FFFFFF" font-size="4.76" font-family="'PT Sans','Helvetica Neue','Helvetica',sans-serif" id="img-dedbebb0-10">
        <text x="35.05" y="150.53" dy="0.35em">4</text>
      </g>
      <g fill="#D4CA3A" stroke="#000000" stroke-opacity="0.000" id="img-dedbebb0-11">
        <rect x="31.61" y="149.31" width="2.44" height="2.44"/>
      </g>
    </g>
    <g class="color_2" id="img-dedbebb0-12">
      <g fill="#FFFFFF" font-size="4.76" font-family="'PT Sans','Helvetica Neue','Helvetica',sans-serif" id="img-dedbebb0-13">
        <text x="28.49" y="150.53" dy="0.35em">2</text>
      </g>
      <g fill="#00BFFF" stroke="#000000" stroke-opacity="0.000" id="img-dedbebb0-14">
        <rect x="25.05" y="149.31" width="2.44" height="2.44"/>
      </g>
    </g>
    <g fill="#FFFFFF" font-size="6.35" font-family="'PT Sans','Helvetica Neue','Helvetica',sans-serif" stroke="#000000" stroke-opacity="0.000" id="img-dedbebb0-15">
      <text x="25.05" y="146.12">Cluster</text>
    </g>
  </g>
  <g font-size="6.35" font-family="'PT Sans','Helvetica Neue','Helvetica',sans-serif" fill="#FFFFFF" stroke="#000000" stroke-opacity="0.000" id="img-dedbebb0-16">
    <text x="169.53" y="133.24" text-anchor="middle" dy="0.6em">Year</text>
  </g>
  <g class="guide xlabels" font-size="4.76" font-family="'PT Sans Caption','Helvetica Neue','Helvetica',sans-serif" fill="#FFFFFF" id="img-dedbebb0-17">
    <text x="26.05" y="125.36" text-anchor="middle" dy="0.6em">1908</text>
    <text x="47.31" y="125.36" text-anchor="middle" dy="0.6em">1916</text>
    <text x="68.56" y="125.36" text-anchor="middle" dy="0.6em">1924</text>
    <text x="89.82" y="125.36" text-anchor="middle" dy="0.6em">1932</text>
    <text x="111.07" y="125.36" text-anchor="middle" dy="0.6em">1940</text>
    <text x="132.33" y="125.36" text-anchor="middle" dy="0.6em">1948</text>
    <text x="153.58" y="125.36" text-anchor="middle" dy="0.6em">1956</text>
    <text x="174.84" y="125.36" text-anchor="middle" dy="0.6em">1964</text>
    <text x="196.1" y="125.36" text-anchor="middle" dy="0.6em">1972</text>
    <text x="217.35" y="125.36" text-anchor="middle" dy="0.6em">1980</text>
    <text x="238.61" y="125.36" text-anchor="middle" dy="0.6em">1988</text>
    <text x="259.86" y="125.36" text-anchor="middle" dy="0.6em">1996</text>
    <text x="281.12" y="125.36" text-anchor="middle" dy="0.6em">2004</text>
    <text x="302.37" y="125.36" text-anchor="middle" dy="0.6em">2012</text>
  </g>
<g clip-path="url(#img-dedbebb0-18)">
  <g id="img-dedbebb0-19">
    <g pointer-events="visible" opacity="1" fill="#000000" fill-opacity="0.000" stroke="#000000" stroke-opacity="0.000" class="guide background" id="img-dedbebb0-20">
      <rect x="24.05" y="15.35" width="290.95" height="109.01"/>
    </g>
    <g class="guide ygridlines xfixed" stroke-dasharray="0.5,0.5" stroke-width="0.26" stroke="#FFFFFF" id="img-dedbebb0-21">
      <path fill="none" d="M24.05,122.36 L 315 122.36"/>
      <path fill="none" d="M24.05,109.23 L 315 109.23"/>
      <path fill="none" d="M24.05,96.11 L 315 96.11"/>
      <path fill="none" d="M24.05,82.98 L 315 82.98"/>
      <path fill="none" d="M24.05,69.86 L 315 69.86"/>
      <path fill="none" d="M24.05,56.73 L 315 56.73"/>
      <path fill="none" d="M24.05,43.6 L 315 43.6"/>
      <path fill="none" d="M24.05,30.48 L 315 30.48"/>
      <path fill="none" d="M24.05,17.35 L 315 17.35"/>
    </g>
    <g class="guide xgridlines yfixed" stroke-dasharray="0.5,0.5" stroke-width="0.26" stroke="#FFFFFF" id="img-dedbebb0-22">
      <path fill="none" d="M26.05,15.35 L 26.05 124.36"/>
      <path fill="none" d="M47.31,15.35 L 47.31 124.36"/>
      <path fill="none" d="M68.56,15.35 L 68.56 124.36"/>
      <path fill="none" d="M89.82,15.35 L 89.82 124.36"/>
      <path fill="none" d="M111.07,15.35 L 111.07 124.36"/>
      <path fill="none" d="M132.33,15.35 L 132.33 124.36"/>
      <path fill="none" d="M153.58,15.35 L 153.58 124.36"/>
      <path fill="none" d="M174.84,15.35 L 174.84 124.36"/>
      <path fill="none" d="M196.1,15.35 L 196.1 124.36"/>
      <path fill="none" d="M217.35,15.35 L 217.35 124.36"/>
      <path fill="none" d="M238.61,15.35 L 238.61 124.36"/>
      <path fill="none" d="M259.86,15.35 L 259.86 124.36"/>
      <path fill="none" d="M281.12,15.35 L 281.12 124.36"/>
      <path fill="none" d="M302.37,15.35 L 302.37 124.36"/>
    </g>
    <g class="plotpanel" id="img-dedbebb0-23">
      <g stroke-width="0.53" stroke="#000000" stroke-opacity="0.000" class="geometry" id="img-dedbebb0-24">
        <path d="M302.37,57.85 L 291.74 62.14 281.12 53.31 270.49 54.31 259.86 61.02 249.23 62.58 238.61 54.31 227.98 45.22 217.35 53.6 206.72 60.68 196.1 41.65 185.47 56.38 174.84 75.66 164.21 57.08 153.58 53.44 142.96 56.38 132.33 66.78 121.7 61.63 111.07 64.69 100.45 74.17 89.82 75.24 79.19 49.02 68.56 54.19 57.94 53.9 47.31 65.8 36.68 73.68 26.05 58.93 15.43 56.15 4.8 61.64 -5.83 75.14 -16.46 65.35 -27.09 61.87 -37.71 64.08 -48.34 67.89 -58.97 71.96 -69.6 64.4 -80.22 74.61 -90.85 68.04 -101.48 71.49 -101.48 51.53 -90.85 32.52 -80.22 41.38 -69.6 45.38 -58.97 49.67 -48.34 46.53 -37.71 48.02 -27.09 47.37 -16.46 35.67 -5.83 48.96 4.8 50.94 15.43 35.18 26.05 49.5 36.68 65.13 47.31 55.78 57.94 36.1 68.56 37.18 79.19 36.45 89.82 63.73 100.45 64.8 111.07 50.8 121.7 48.45 132.33 53.89 142.96 36.36 153.58 39.99 164.21 46.11 174.84 63.17 185.47 44.39 196.1 33.12 206.72 48.04 217.35 36.68 227.98 34.52 238.61 44.04 249.23 51.54 259.86 48.88 270.49 40.97 281.12 39.44 291.74 47.13 302.37 41.43 z" fill="#BCEDDA"/>
        <path d="M302.37,51.75 L 291.74 53.02 281.12 47.19 270.49 50.44 259.86 61.19 249.23 58.52 238.61 47.87 227.98 43.23 217.35 63 206.72 74.54 196.1 30.73 185.47 61.45 174.84 55.07 164.21 73.13 153.58 79.63 142.96 80.09 132.33 81.63 121.7 107.84 111.07 111.83 100.45 115.02 89.82 117.09 79.19 97.01 68.56 107.13 57.94 99.33 47.31 114.29 36.68 112.45 26.05 110.09 15.43 110.58 4.8 102.23 -5.83 100.52 -16.46 97.15 -27.09 92.24 -37.71 83.05 -48.34 78.62 -58.97 82.18 -69.6 59.94 -80.22 80.01 -101.48 66.83 -101.48 61.6 -80.22 51.21 -69.6 34.46 -58.97 57.32 -48.34 72.97 -37.71 68.15 -27.09 79.99 -16.46 82.72 -5.83 72.84 4.8 73.46 15.43 86.47 26.05 76.65 36.68 98.28 47.31 96.59 57.94 71.31 68.56 86.23 79.19 60.24 89.82 106.18 100.45 103.6 111.07 100.67 121.7 94.83 132.33 54.97 142.96 60.41 153.58 54.65 164.21 63.15 174.84 19.2 185.47 53.72 196.1 21.66 206.72 59.06 217.35 52.74 227.98 40.09 238.61 41.64 249.23 51.59 259.86 51.69 270.49 46.22 281.12 42.2 291.74 44.44 302.37 44.62 z" fill="#BDE8FF"/>
        <path d="M302.37,58.74 L 291.74 59.51 281.12 53.44 270.49 55.84 259.86 60.73 249.23 59.14 238.61 48.17 227.98 42.56 217.35 54.6 206.72 66.22 196.1 34.69 185.47 55.85 174.84 71.04 164.21 59.34 153.58 56.28 142.96 59.01 132.33 81.16 121.7 88.53 111.07 95.04 100.45 98.81 89.82 101.38 79.19 57.52 68.56 85.79 57.94 75.35 47.31 88.18 36.68 94.66 26.05 81.36 15.43 84.58 4.8 76.84 -5.83 84.35 -16.46 81.94 -27.09 76.78 -37.71 76.36 -48.34 77.4 -58.97 76.22 -69.6 62.75 -80.22 55.6 -101.48 63 -101.48 58.7 -80.22 38.13 -69.6 49.77 -58.97 61.77 -48.34 59.59 -37.71 56.04 -27.09 56.28 -16.46 63.2 -5.83 59.23 4.8 59.93 15.43 56.25 26.05 55.29 36.68 66.95 47.31 65.22 57.94 53.13 68.56 57.74 79.19 42.44 89.82 77.91 100.45 79.56 111.07 73.38 121.7 68.46 132.33 64.56 142.96 48.32 153.58 45.09 164.21 50.2 174.84 59.19 185.47 47.33 196.1 27.78 206.72 52.32 217.35 40.09 227.98 34.09 238.61 41.79 249.23 51.63 259.86 51.84 270.49 42.82 281.12 40.9 291.74 46 302.37 42.68 z" fill="#EBE3BD"/>
        <path d="M302.37,72.81 L 291.74 73.82 281.12 66.61 270.49 69.48 259.86 72.06 249.23 66.88 238.61 59.7 227.98 52.52 217.35 55.55 206.72 61.02 196.1 51.13 185.47 63.96 174.84 81.89 164.21 62.25 153.58 49.13 142.96 51.94 132.33 60.94 121.7 62.59 111.07 63.73 100.45 75.56 89.82 70.11 79.19 52.73 68.56 39.23 57.94 38.42 47.31 57.65 36.68 71.55 26.05 50.29 15.43 46.86 4.8 51.85 -5.83 52.6 -16.46 59.96 -27.09 57.41 -37.71 57.79 -48.34 57.59 -58.97 59.96 -69.6 53.98 -80.22 60.01 -90.85 58.01 -101.48 57.09 -101.48 32.61 -90.85 42.17 -80.22 42.43 -69.6 38.85 -58.97 48.92 -48.34 46.36 -37.71 49.56 -27.09 49.81 -16.46 51.63 -5.83 37.76 4.8 41.92 15.43 29.73 26.05 40.16 36.68 59.14 47.31 48.82 57.94 25.27 68.56 25.25 79.19 35.68 89.82 56.77 100.45 64.47 111.07 56.86 121.7 56.36 132.33 53.59 142.96 44.92 153.58 40.34 164.21 53.15 174.84 69.95 185.47 52.72 196.1 41.59 206.72 53.89 217.35 47.28 227.98 44.2 238.61 50.96 249.23 60.38 259.86 62.27 270.49 57.67 281.12 57.55 291.74 64.26 302.37 61.68 z" fill="#FFD5E7"/>
      </g>
      <g stroke-width="0.53" fill="#000000" fill-opacity="0.000" stroke-dasharray="none" id="img-dedbebb0-25">
        <path fill="none" d="M-101.48,61.51 L -90.85 50.28 -80.22 57.99 -69.6 54.89 -58.97 60.82 -48.34 57.21 -37.71 56.05 -27.09 54.62 -16.46 50.51 -5.83 62.05 4.8 56.29 15.43 45.66 26.05 54.21 36.68 69.4 47.31 60.79 57.94 45 68.56 45.68 79.19 42.73 89.82 69.49 100.45 69.48 111.07 57.75 121.7 55.04 132.33 60.33 142.96 46.37 153.58 46.72 164.21 51.59 174.84 69.41 185.47 50.38 196.1 37.39 206.72 54.36 217.35 45.14 227.98 39.87 238.61 49.18 249.23 57.06 259.86 54.95 270.49 47.64 281.12 46.37 291.74 54.64 302.37 49.64" stroke="#00B78D" class="geometry color_1"/>
        <path fill="none" d="M-101.48,64.22 L -80.22 65.61 -69.6 47.2 -58.97 69.75 -48.34 75.8 -37.71 75.6 -27.09 86.12 -16.46 89.94 -5.83 86.68 4.8 87.84 15.43 98.53 26.05 93.37 36.68 105.37 47.31 105.44 57.94 85.32 68.56 96.68 79.19 78.63 89.82 111.63 100.45 109.31 111.07 106.25 121.7 101.33 132.33 68.3 142.96 70.25 153.58 67.14 164.21 68.14 174.84 37.13 185.47 57.59 196.1 26.19 206.72 66.8 217.35 57.87 227.98 41.66 238.61 44.75 249.23 55.06 259.86 56.44 270.49 48.33 281.12 44.69 291.74 48.73 302.37 48.18" stroke="#00BFFF" class="geometry color_2"/>
        <path fill="none" d="M-101.48,60.85 L -80.22 46.86 -69.6 56.26 -58.97 68.99 -48.34 68.5 -37.71 66.2 -27.09 66.53 -16.46 72.57 -5.83 71.79 4.8 68.39 15.43 70.42 26.05 68.33 36.68 80.8 47.31 76.7 57.94 64.24 68.56 71.77 79.19 49.98 89.82 89.64 100.45 89.18 111.07 84.21 121.7 78.5 132.33 72.86 142.96 53.66 153.58 50.69 164.21 54.77 174.84 65.12 185.47 51.59 196.1 31.23 206.72 59.27 217.35 47.34 227.98 38.33 238.61 44.98 249.23 55.39 259.86 56.29 270.49 49.33 281.12 47.17 291.74 52.76 302.37 50.71" stroke="#D4CA3A" class="geometry color_4"/>
        <path fill="none" d="M-101.48,44.85 L -90.85 50.09 -80.22 51.22 -69.6 46.42 -58.97 54.44 -48.34 51.97 -37.71 53.67 -27.09 53.61 -16.46 55.8 -5.83 45.18 4.8 46.88 15.43 38.3 26.05 45.23 36.68 65.34 47.31 53.23 57.94 31.84 68.56 32.24 79.19 44.2 89.82 63.44 100.45 70.02 111.07 60.29 121.7 59.48 132.33 57.27 142.96 48.43 153.58 44.74 164.21 57.7 174.84 75.92 185.47 58.34 196.1 46.36 206.72 57.46 217.35 51.41 227.98 48.36 238.61 55.33 249.23 63.63 259.86 67.17 270.49 63.57 281.12 62.08 291.74 69.04 302.37 67.25" stroke="#FF6DAE" class="geometry color_3"/>
      </g>
      <g class="geometry" id="img-dedbebb0-26">
        <g stroke-width="0.3" id="img-dedbebb0-27">
          <use xlink:href="#img-dedbebb0-28" x="-101.48" y="64.22" stroke="#FFFFFF" fill="#00BFFF" class="color_2"/>
          <use xlink:href="#img-dedbebb0-28" x="-101.48" y="60.85" stroke="#FFFFFF" fill="#D4CA3A" class="color_4"/>
          <use xlink:href="#img-dedbebb0-28" x="-101.48" y="44.85" stroke="#FFFFFF" fill="#FF6DAE" class="color_3"/>
          <use xlink:href="#img-dedbebb0-28" x="-101.48" y="61.51" stroke="#FFFFFF" fill="#00B78D" class="color_1"/>
          <use xlink:href="#img-dedbebb0-28" x="-90.85" y="50.09" stroke="#FFFFFF" fill="#FF6DAE" class="color_3"/>
          <use xlink:href="#img-dedbebb0-28" x="-90.85" y="50.28" stroke="#FFFFFF" fill="#00B78D" class="color_1"/>
          <use xlink:href="#img-dedbebb0-28" x="-80.22" y="65.61" stroke="#FFFFFF" fill="#00BFFF" class="color_2"/>
          <use xlink:href="#img-dedbebb0-28" x="-80.22" y="46.86" stroke="#FFFFFF" fill="#D4CA3A" class="color_4"/>
          <use xlink:href="#img-dedbebb0-28" x="-80.22" y="51.22" stroke="#FFFFFF" fill="#FF6DAE" class="color_3"/>
          <use xlink:href="#img-dedbebb0-28" x="-80.22" y="57.99" stroke="#FFFFFF" fill="#00B78D" class="color_1"/>
          <use xlink:href="#img-dedbebb0-28" x="-69.6" y="47.2" stroke="#FFFFFF" fill="#00BFFF" class="color_2"/>
          <use xlink:href="#img-dedbebb0-28" x="-69.6" y="56.26" stroke="#FFFFFF" fill="#D4CA3A" class="color_4"/>
          <use xlink:href="#img-dedbebb0-28" x="-69.6" y="46.42" stroke="#FFFFFF" fill="#FF6DAE" class="color_3"/>
          <use xlink:href="#img-dedbebb0-28" x="-69.6" y="54.89" stroke="#FFFFFF" fill="#00B78D" class="color_1"/>
          <use xlink:href="#img-dedbebb0-28" x="-58.97" y="69.75" stroke="#FFFFFF" fill="#00BFFF" class="color_2"/>
          <use xlink:href="#img-dedbebb0-28" x="-58.97" y="68.99" stroke="#FFFFFF" fill="#D4CA3A" class="color_4"/>
          <use xlink:href="#img-dedbebb0-28" x="-58.97" y="54.44" stroke="#FFFFFF" fill="#FF6DAE" class="color_3"/>
          <use xlink:href="#img-dedbebb0-28" x="-58.97" y="60.82" stroke="#FFFFFF" fill="#00B78D" class="color_1"/>
          <use xlink:href="#img-dedbebb0-28" x="-48.34" y="75.8" stroke="#FFFFFF" fill="#00BFFF" class="color_2"/>
          <use xlink:href="#img-dedbebb0-28" x="-48.34" y="68.5" stroke="#FFFFFF" fill="#D4CA3A" class="color_4"/>
          <use xlink:href="#img-dedbebb0-28" x="-48.34" y="51.97" stroke="#FFFFFF" fill="#FF6DAE" class="color_3"/>
          <use xlink:href="#img-dedbebb0-28" x="-48.34" y="57.21" stroke="#FFFFFF" fill="#00B78D" class="color_1"/>
          <use xlink:href="#img-dedbebb0-28" x="-37.71" y="75.6" stroke="#FFFFFF" fill="#00BFFF" class="color_2"/>
          <use xlink:href="#img-dedbebb0-28" x="-37.71" y="66.2" stroke="#FFFFFF" fill="#D4CA3A" class="color_4"/>
          <use xlink:href="#img-dedbebb0-28" x="-37.71" y="53.67" stroke="#FFFFFF" fill="#FF6DAE" class="color_3"/>
          <use xlink:href="#img-dedbebb0-28" x="-37.71" y="56.05" stroke="#FFFFFF" fill="#00B78D" class="color_1"/>
          <use xlink:href="#img-dedbebb0-28" x="-27.09" y="86.12" stroke="#FFFFFF" fill="#00BFFF" class="color_2"/>
          <use xlink:href="#img-dedbebb0-28" x="-27.09" y="66.53" stroke="#FFFFFF" fill="#D4CA3A" class="color_4"/>
          <use xlink:href="#img-dedbebb0-28" x="-27.09" y="53.61" stroke="#FFFFFF" fill="#FF6DAE" class="color_3"/>
          <use xlink:href="#img-dedbebb0-28" x="-27.09" y="54.62" stroke="#FFFFFF" fill="#00B78D" class="color_1"/>
          <use xlink:href="#img-dedbebb0-28" x="-16.46" y="89.94" stroke="#FFFFFF" fill="#00BFFF" class="color_2"/>
          <use xlink:href="#img-dedbebb0-28" x="-16.46" y="72.57" stroke="#FFFFFF" fill="#D4CA3A" class="color_4"/>
          <use xlink:href="#img-dedbebb0-28" x="-16.46" y="55.8" stroke="#FFFFFF" fill="#FF6DAE" class="color_3"/>
          <use xlink:href="#img-dedbebb0-28" x="-16.46" y="50.51" stroke="#FFFFFF" fill="#00B78D" class="color_1"/>
          <use xlink:href="#img-dedbebb0-28" x="-5.83" y="86.68" stroke="#FFFFFF" fill="#00BFFF" class="color_2"/>
          <use xlink:href="#img-dedbebb0-28" x="-5.83" y="71.79" stroke="#FFFFFF" fill="#D4CA3A" class="color_4"/>
          <use xlink:href="#img-dedbebb0-28" x="-5.83" y="45.18" stroke="#FFFFFF" fill="#FF6DAE" class="color_3"/>
          <use xlink:href="#img-dedbebb0-28" x="-5.83" y="62.05" stroke="#FFFFFF" fill="#00B78D" class="color_1"/>
          <use xlink:href="#img-dedbebb0-28" x="4.8" y="87.84" stroke="#FFFFFF" fill="#00BFFF" class="color_2"/>
          <use xlink:href="#img-dedbebb0-28" x="4.8" y="68.39" stroke="#FFFFFF" fill="#D4CA3A" class="color_4"/>
          <use xlink:href="#img-dedbebb0-28" x="4.8" y="46.88" stroke="#FFFFFF" fill="#FF6DAE" class="color_3"/>
          <use xlink:href="#img-dedbebb0-28" x="4.8" y="56.29" stroke="#FFFFFF" fill="#00B78D" class="color_1"/>
          <use xlink:href="#img-dedbebb0-28" x="15.43" y="98.53" stroke="#FFFFFF" fill="#00BFFF" class="color_2"/>
          <use xlink:href="#img-dedbebb0-28" x="15.43" y="70.42" stroke="#FFFFFF" fill="#D4CA3A" class="color_4"/>
          <use xlink:href="#img-dedbebb0-28" x="15.43" y="38.3" stroke="#FFFFFF" fill="#FF6DAE" class="color_3"/>
          <use xlink:href="#img-dedbebb0-28" x="15.43" y="45.66" stroke="#FFFFFF" fill="#00B78D" class="color_1"/>
          <use xlink:href="#img-dedbebb0-28" x="26.05" y="93.37" stroke="#FFFFFF" fill="#00BFFF" class="color_2"/>
          <use xlink:href="#img-dedbebb0-28" x="26.05" y="68.33" stroke="#FFFFFF" fill="#D4CA3A" class="color_4"/>
          <use xlink:href="#img-dedbebb0-28" x="26.05" y="45.23" stroke="#FFFFFF" fill="#FF6DAE" class="color_3"/>
          <use xlink:href="#img-dedbebb0-28" x="26.05" y="54.21" stroke="#FFFFFF" fill="#00B78D" class="color_1"/>
          <use xlink:href="#img-dedbebb0-28" x="36.68" y="105.37" stroke="#FFFFFF" fill="#00BFFF" class="color_2"/>
          <use xlink:href="#img-dedbebb0-28" x="36.68" y="80.8" stroke="#FFFFFF" fill="#D4CA3A" class="color_4"/>
          <use xlink:href="#img-dedbebb0-28" x="36.68" y="65.34" stroke="#FFFFFF" fill="#FF6DAE" class="color_3"/>
          <use xlink:href="#img-dedbebb0-28" x="36.68" y="69.4" stroke="#FFFFFF" fill="#00B78D" class="color_1"/>
          <use xlink:href="#img-dedbebb0-28" x="47.31" y="105.44" stroke="#FFFFFF" fill="#00BFFF" class="color_2"/>
          <use xlink:href="#img-dedbebb0-28" x="47.31" y="76.7" stroke="#FFFFFF" fill="#D4CA3A" class="color_4"/>
          <use xlink:href="#img-dedbebb0-28" x="47.31" y="53.23" stroke="#FFFFFF" fill="#FF6DAE" class="color_3"/>
          <use xlink:href="#img-dedbebb0-28" x="47.31" y="60.79" stroke="#FFFFFF" fill="#00B78D" class="color_1"/>
          <use xlink:href="#img-dedbebb0-28" x="57.94" y="85.32" stroke="#FFFFFF" fill="#00BFFF" class="color_2"/>
          <use xlink:href="#img-dedbebb0-28" x="57.94" y="64.24" stroke="#FFFFFF" fill="#D4CA3A" class="color_4"/>
          <use xlink:href="#img-dedbebb0-28" x="57.94" y="31.84" stroke="#FFFFFF" fill="#FF6DAE" class="color_3"/>
          <use xlink:href="#img-dedbebb0-28" x="57.94" y="45" stroke="#FFFFFF" fill="#00B78D" class="color_1"/>
          <use xlink:href="#img-dedbebb0-28" x="68.56" y="96.68" stroke="#FFFFFF" fill="#00BFFF" class="color_2"/>
          <use xlink:href="#img-dedbebb0-28" x="68.56" y="71.77" stroke="#FFFFFF" fill="#D4CA3A" class="color_4"/>
          <use xlink:href="#img-dedbebb0-28" x="68.56" y="32.24" stroke="#FFFFFF" fill="#FF6DAE" class="color_3"/>
          <use xlink:href="#img-dedbebb0-28" x="68.56" y="45.68" stroke="#FFFFFF" fill="#00B78D" class="color_1"/>
          <use xlink:href="#img-dedbebb0-28" x="79.19" y="78.63" stroke="#FFFFFF" fill="#00BFFF" class="color_2"/>
          <use xlink:href="#img-dedbebb0-28" x="79.19" y="49.98" stroke="#FFFFFF" fill="#D4CA3A" class="color_4"/>
          <use xlink:href="#img-dedbebb0-28" x="79.19" y="44.2" stroke="#FFFFFF" fill="#FF6DAE" class="color_3"/>
          <use xlink:href="#img-dedbebb0-28" x="79.19" y="42.73" stroke="#FFFFFF" fill="#00B78D" class="color_1"/>
          <use xlink:href="#img-dedbebb0-28" x="89.82" y="111.63" stroke="#FFFFFF" fill="#00BFFF" class="color_2"/>
          <use xlink:href="#img-dedbebb0-28" x="89.82" y="89.64" stroke="#FFFFFF" fill="#D4CA3A" class="color_4"/>
          <use xlink:href="#img-dedbebb0-28" x="89.82" y="63.44" stroke="#FFFFFF" fill="#FF6DAE" class="color_3"/>
          <use xlink:href="#img-dedbebb0-28" x="89.82" y="69.49" stroke="#FFFFFF" fill="#00B78D" class="color_1"/>
          <use xlink:href="#img-dedbebb0-28" x="100.45" y="109.31" stroke="#FFFFFF" fill="#00BFFF" class="color_2"/>
          <use xlink:href="#img-dedbebb0-28" x="100.45" y="89.18" stroke="#FFFFFF" fill="#D4CA3A" class="color_4"/>
          <use xlink:href="#img-dedbebb0-28" x="100.45" y="70.02" stroke="#FFFFFF" fill="#FF6DAE" class="color_3"/>
          <use xlink:href="#img-dedbebb0-28" x="100.45" y="69.48" stroke="#FFFFFF" fill="#00B78D" class="color_1"/>
          <use xlink:href="#img-dedbebb0-28" x="111.07" y="106.25" stroke="#FFFFFF" fill="#00BFFF" class="color_2"/>
          <use xlink:href="#img-dedbebb0-28" x="111.07" y="84.21" stroke="#FFFFFF" fill="#D4CA3A" class="color_4"/>
          <use xlink:href="#img-dedbebb0-28" x="111.07" y="60.29" stroke="#FFFFFF" fill="#FF6DAE" class="color_3"/>
          <use xlink:href="#img-dedbebb0-28" x="111.07" y="57.75" stroke="#FFFFFF" fill="#00B78D" class="color_1"/>
          <use xlink:href="#img-dedbebb0-28" x="121.7" y="101.33" stroke="#FFFFFF" fill="#00BFFF" class="color_2"/>
          <use xlink:href="#img-dedbebb0-28" x="121.7" y="78.5" stroke="#FFFFFF" fill="#D4CA3A" class="color_4"/>
          <use xlink:href="#img-dedbebb0-28" x="121.7" y="59.48" stroke="#FFFFFF" fill="#FF6DAE" class="color_3"/>
          <use xlink:href="#img-dedbebb0-28" x="121.7" y="55.04" stroke="#FFFFFF" fill="#00B78D" class="color_1"/>
          <use xlink:href="#img-dedbebb0-28" x="132.33" y="68.3" stroke="#FFFFFF" fill="#00BFFF" class="color_2"/>
          <use xlink:href="#img-dedbebb0-28" x="132.33" y="72.86" stroke="#FFFFFF" fill="#D4CA3A" class="color_4"/>
          <use xlink:href="#img-dedbebb0-28" x="132.33" y="57.27" stroke="#FFFFFF" fill="#FF6DAE" class="color_3"/>
          <use xlink:href="#img-dedbebb0-28" x="132.33" y="60.33" stroke="#FFFFFF" fill="#00B78D" class="color_1"/>
          <use xlink:href="#img-dedbebb0-28" x="142.96" y="70.25" stroke="#FFFFFF" fill="#00BFFF" class="color_2"/>
          <use xlink:href="#img-dedbebb0-28" x="142.96" y="53.66" stroke="#FFFFFF" fill="#D4CA3A" class="color_4"/>
          <use xlink:href="#img-dedbebb0-28" x="142.96" y="48.43" stroke="#FFFFFF" fill="#FF6DAE" class="color_3"/>
          <use xlink:href="#img-dedbebb0-28" x="142.96" y="46.37" stroke="#FFFFFF" fill="#00B78D" class="color_1"/>
          <use xlink:href="#img-dedbebb0-28" x="153.58" y="67.14" stroke="#FFFFFF" fill="#00BFFF" class="color_2"/>
          <use xlink:href="#img-dedbebb0-28" x="153.58" y="50.69" stroke="#FFFFFF" fill="#D4CA3A" class="color_4"/>
          <use xlink:href="#img-dedbebb0-28" x="153.58" y="44.74" stroke="#FFFFFF" fill="#FF6DAE" class="color_3"/>
          <use xlink:href="#img-dedbebb0-28" x="153.58" y="46.72" stroke="#FFFFFF" fill="#00B78D" class="color_1"/>
          <use xlink:href="#img-dedbebb0-28" x="164.21" y="68.14" stroke="#FFFFFF" fill="#00BFFF" class="color_2"/>
          <use xlink:href="#img-dedbebb0-28" x="164.21" y="54.77" stroke="#FFFFFF" fill="#D4CA3A" class="color_4"/>
          <use xlink:href="#img-dedbebb0-28" x="164.21" y="57.7" stroke="#FFFFFF" fill="#FF6DAE" class="color_3"/>
          <use xlink:href="#img-dedbebb0-28" x="164.21" y="51.59" stroke="#FFFFFF" fill="#00B78D" class="color_1"/>
          <use xlink:href="#img-dedbebb0-28" x="174.84" y="37.13" stroke="#FFFFFF" fill="#00BFFF" class="color_2"/>
          <use xlink:href="#img-dedbebb0-28" x="174.84" y="65.12" stroke="#FFFFFF" fill="#D4CA3A" class="color_4"/>
          <use xlink:href="#img-dedbebb0-28" x="174.84" y="75.92" stroke="#FFFFFF" fill="#FF6DAE" class="color_3"/>
          <use xlink:href="#img-dedbebb0-28" x="174.84" y="69.41" stroke="#FFFFFF" fill="#00B78D" class="color_1"/>
          <use xlink:href="#img-dedbebb0-28" x="185.47" y="57.59" stroke="#FFFFFF" fill="#00BFFF" class="color_2"/>
          <use xlink:href="#img-dedbebb0-28" x="185.47" y="51.59" stroke="#FFFFFF" fill="#D4CA3A" class="color_4"/>
          <use xlink:href="#img-dedbebb0-28" x="185.47" y="58.34" stroke="#FFFFFF" fill="#FF6DAE" class="color_3"/>
          <use xlink:href="#img-dedbebb0-28" x="185.47" y="50.38" stroke="#FFFFFF" fill="#00B78D" class="color_1"/>
          <use xlink:href="#img-dedbebb0-28" x="196.1" y="26.19" stroke="#FFFFFF" fill="#00BFFF" class="color_2"/>
          <use xlink:href="#img-dedbebb0-28" x="196.1" y="31.23" stroke="#FFFFFF" fill="#D4CA3A" class="color_4"/>
          <use xlink:href="#img-dedbebb0-28" x="196.1" y="46.36" stroke="#FFFFFF" fill="#FF6DAE" class="color_3"/>
          <use xlink:href="#img-dedbebb0-28" x="196.1" y="37.39" stroke="#FFFFFF" fill="#00B78D" class="color_1"/>
          <use xlink:href="#img-dedbebb0-28" x="206.72" y="66.8" stroke="#FFFFFF" fill="#00BFFF" class="color_2"/>
          <use xlink:href="#img-dedbebb0-28" x="206.72" y="59.27" stroke="#FFFFFF" fill="#D4CA3A" class="color_4"/>
          <use xlink:href="#img-dedbebb0-28" x="206.72" y="57.46" stroke="#FFFFFF" fill="#FF6DAE" class="color_3"/>
          <use xlink:href="#img-dedbebb0-28" x="206.72" y="54.36" stroke="#FFFFFF" fill="#00B78D" class="color_1"/>
          <use xlink:href="#img-dedbebb0-28" x="217.35" y="57.87" stroke="#FFFFFF" fill="#00BFFF" class="color_2"/>
          <use xlink:href="#img-dedbebb0-28" x="217.35" y="47.34" stroke="#FFFFFF" fill="#D4CA3A" class="color_4"/>
          <use xlink:href="#img-dedbebb0-28" x="217.35" y="51.41" stroke="#FFFFFF" fill="#FF6DAE" class="color_3"/>
          <use xlink:href="#img-dedbebb0-28" x="217.35" y="45.14" stroke="#FFFFFF" fill="#00B78D" class="color_1"/>
          <use xlink:href="#img-dedbebb0-28" x="227.98" y="41.66" stroke="#FFFFFF" fill="#00BFFF" class="color_2"/>
          <use xlink:href="#img-dedbebb0-28" x="227.98" y="38.33" stroke="#FFFFFF" fill="#D4CA3A" class="color_4"/>
          <use xlink:href="#img-dedbebb0-28" x="227.98" y="48.36" stroke="#FFFFFF" fill="#FF6DAE" class="color_3"/>
          <use xlink:href="#img-dedbebb0-28" x="227.98" y="39.87" stroke="#FFFFFF" fill="#00B78D" class="color_1"/>
          <use xlink:href="#img-dedbebb0-28" x="238.61" y="44.75" stroke="#FFFFFF" fill="#00BFFF" class="color_2"/>
          <use xlink:href="#img-dedbebb0-28" x="238.61" y="44.98" stroke="#FFFFFF" fill="#D4CA3A" class="color_4"/>
          <use xlink:href="#img-dedbebb0-28" x="238.61" y="55.33" stroke="#FFFFFF" fill="#FF6DAE" class="color_3"/>
          <use xlink:href="#img-dedbebb0-28" x="238.61" y="49.18" stroke="#FFFFFF" fill="#00B78D" class="color_1"/>
          <use xlink:href="#img-dedbebb0-28" x="249.23" y="55.06" stroke="#FFFFFF" fill="#00BFFF" class="color_2"/>
          <use xlink:href="#img-dedbebb0-28" x="249.23" y="55.39" stroke="#FFFFFF" fill="#D4CA3A" class="color_4"/>
          <use xlink:href="#img-dedbebb0-28" x="249.23" y="63.63" stroke="#FFFFFF" fill="#FF6DAE" class="color_3"/>
          <use xlink:href="#img-dedbebb0-28" x="249.23" y="57.06" stroke="#FFFFFF" fill="#00B78D" class="color_1"/>
          <use xlink:href="#img-dedbebb0-28" x="259.86" y="56.44" stroke="#FFFFFF" fill="#00BFFF" class="color_2"/>
          <use xlink:href="#img-dedbebb0-28" x="259.86" y="56.29" stroke="#FFFFFF" fill="#D4CA3A" class="color_4"/>
          <use xlink:href="#img-dedbebb0-28" x="259.86" y="67.17" stroke="#FFFFFF" fill="#FF6DAE" class="color_3"/>
          <use xlink:href="#img-dedbebb0-28" x="259.86" y="54.95" stroke="#FFFFFF" fill="#00B78D" class="color_1"/>
          <use xlink:href="#img-dedbebb0-28" x="270.49" y="48.33" stroke="#FFFFFF" fill="#00BFFF" class="color_2"/>
          <use xlink:href="#img-dedbebb0-28" x="270.49" y="49.33" stroke="#FFFFFF" fill="#D4CA3A" class="color_4"/>
          <use xlink:href="#img-dedbebb0-28" x="270.49" y="63.57" stroke="#FFFFFF" fill="#FF6DAE" class="color_3"/>
          <use xlink:href="#img-dedbebb0-28" x="270.49" y="47.64" stroke="#FFFFFF" fill="#00B78D" class="color_1"/>
          <use xlink:href="#img-dedbebb0-28" x="281.12" y="44.69" stroke="#FFFFFF" fill="#00BFFF" class="color_2"/>
          <use xlink:href="#img-dedbebb0-28" x="281.12" y="47.17" stroke="#FFFFFF" fill="#D4CA3A" class="color_4"/>
          <use xlink:href="#img-dedbebb0-28" x="281.12" y="62.08" stroke="#FFFFFF" fill="#FF6DAE" class="color_3"/>
          <use xlink:href="#img-dedbebb0-28" x="281.12" y="46.37" stroke="#FFFFFF" fill="#00B78D" class="color_1"/>
          <use xlink:href="#img-dedbebb0-28" x="291.74" y="48.73" stroke="#FFFFFF" fill="#00BFFF" class="color_2"/>
          <use xlink:href="#img-dedbebb0-28" x="291.74" y="52.76" stroke="#FFFFFF" fill="#D4CA3A" class="color_4"/>
          <use xlink:href="#img-dedbebb0-28" x="291.74" y="69.04" stroke="#FFFFFF" fill="#FF6DAE" class="color_3"/>
          <use xlink:href="#img-dedbebb0-28" x="291.74" y="54.64" stroke="#FFFFFF" fill="#00B78D" class="color_1"/>
          <use xlink:href="#img-dedbebb0-28" x="302.37" y="48.18" stroke="#FFFFFF" fill="#00BFFF" class="color_2"/>
          <use xlink:href="#img-dedbebb0-28" x="302.37" y="50.71" stroke="#FFFFFF" fill="#D4CA3A" class="color_4"/>
          <use xlink:href="#img-dedbebb0-28" x="302.37" y="67.25" stroke="#FFFFFF" fill="#FF6DAE" class="color_3"/>
          <use xlink:href="#img-dedbebb0-28" x="302.37" y="49.64" stroke="#FFFFFF" fill="#00B78D" class="color_1"/>
        </g>
      </g>
    </g>
  </g>
</g>
  <g class="guide ylabels" font-size="4.76" font-family="'PT Sans Caption','Helvetica Neue','Helvetica',sans-serif" fill="#FFFFFF" id="img-dedbebb0-29">
    <text x="23.05" y="122.36" text-anchor="end" dy="0.35em">-50</text>
    <text x="23.05" y="109.23" text-anchor="end" dy="0.35em">-40</text>
    <text x="23.05" y="96.11" text-anchor="end" dy="0.35em">-30</text>
    <text x="23.05" y="82.98" text-anchor="end" dy="0.35em">-20</text>
    <text x="23.05" y="69.86" text-anchor="end" dy="0.35em">-10</text>
    <text x="23.05" y="56.73" text-anchor="end" dy="0.35em">0</text>
    <text x="23.05" y="43.6" text-anchor="end" dy="0.35em">10</text>
    <text x="23.05" y="30.48" text-anchor="end" dy="0.35em">20</text>
    <text x="23.05" y="17.35" text-anchor="end" dy="0.35em">30</text>
  </g>
  <g font-size="6.35" font-family="'PT Sans','Helvetica Neue','Helvetica',sans-serif" fill="#FFFFFF" stroke="#000000" stroke-opacity="0.000" id="img-dedbebb0-30">
    <text x="10.18" y="67.86" text-anchor="middle" dy="0.35em" transform="rotate(-90, 10.18, 69.86)">Difference (%)</text>
  </g>
  <g font-size="6.35" font-family="'PT Sans','Helvetica Neue','Helvetica',sans-serif" fill="#FFFFFF" stroke="#000000" stroke-opacity="0.000" id="img-dedbebb0-31">
    <text x="169.53" y="13.35" text-anchor="middle">Republican - Democratic Popular Vote (%) by Cluster</text>
  </g>
</g>
<defs>
  <clipPath id="img-dedbebb0-18">
  <path d="M24.05,15.35 L 315 15.35 315 124.36 24.05 124.36" />
</clipPath>
  <g id="img-dedbebb0-28">
    <circle cx="0" cy="0" r="0.9"/>
  </g>
</defs>
</svg>
