<svg xmlns="http://www.w3.org/2000/svg" xmlns:xlink="http://www.w3.org/1999/xlink" version="1.2" width="238.1mm" height="599.924" viewBox="0 0 238.1 158.73" stroke-width=".3" font-size="3.88"><path d="M0 0h238.1v158.73H0z" stroke="#000" stroke-opacity="0" fill="#222831"/><g class="plotroot xscalable yscalable"><g class="guide colorkey"><g class="color_Democratic"><text x="51.52" y="148.78" dy=".35em" fill="#A1A1A1" font-size="3.7" font-family="'PT Sans','Helvetica Neue','Helvetica',sans-serif">Democratic</text><path d="M48.29 147.66h2.22v2.22h-2.22z" fill="#00F" stroke="#000" stroke-opacity="0"/></g><g class="color_Republican"><text x="29.6" y="148.78" dy=".35em" fill="#A1A1A1" font-size="3.7" font-family="'PT Sans','Helvetica Neue','Helvetica',sans-serif">Republican</text><path d="M26.38 147.66h2.22v2.22h-2.22z" fill="#F00" stroke="#000" stroke-opacity="0"/></g><text x="26.38" y="145.28" fill="#A1A1A1" font-size="6.35" font-family="'PT Sans','Helvetica Neue','Helvetica',sans-serif" stroke="#000" stroke-opacity="0">Party</text></g><text x="129.24" y="130.46" text-anchor="middle" dy=".6em" font-size="6.35" font-family="'PT Sans','Helvetica Neue','Helvetica',sans-serif" fill="#A1A1A1" stroke="#000" stroke-opacity="0">Year</text><g class="guide xlabels" font-size="4.76" font-family="'PT Sans Caption','Helvetica Neue','Helvetica',sans-serif" fill="#A1A1A1" text-anchor="middle"><text x="27.38" y="121.95" dy=".6em">1844</text><text x="41.59" y="121.95" dy=".6em">1856</text><text x="55.8" y="121.95" dy=".6em">1868</text><text x="70.02" y="121.95" dy=".6em">1880</text><text x="84.23" y="121.95" dy=".6em">1892</text><text x="98.44" y="121.95" dy=".6em">1904</text><text x="112.66" y="121.95" dy=".6em">1916</text><text x="126.87" y="121.95" dy=".6em">1928</text><text x="141.08" y="121.95" dy=".6em">1940</text><text x="155.29" y="121.95" dy=".6em">1952</text><text x="169.51" y="121.95" dy=".6em">1964</text><text x="183.72" y="121.95" dy=".6em">1976</text><text x="197.93" y="121.95" dy=".6em">1988</text><text x="212.14" y="121.95" dy=".6em">2000</text><text x="226.36" y="121.95" dy=".6em">2012</text></g><g clip-path="url(#a)"><path d="M25.38 12.91H233.1v108.04H25.38z" pointer-events="visible" fill="#222831" stroke="#000" stroke-opacity="0" class="guide background"/><g class="guide ygridlines xfixed" stroke-dasharray="0.5,0.5" stroke-width=".2" stroke="#575757" fill="none"><path d="M25.38 118.95H233.1M25.38 92.94H233.1M25.38 66.93H233.1M25.38 40.92H233.1M25.38 14.91H233.1"/></g><g class="guide xgridlines yfixed" stroke-dasharray="0.5,0.5" stroke-width=".2" stroke="#575757" fill="none"><path d="M27.38 12.91v108.04M41.59 12.91v108.04M55.8 12.91v108.04M70.02 12.91v108.04M84.23 12.91v108.04M98.44 12.91v108.04M112.66 12.91v108.04M126.87 12.91v108.04M141.08 12.91v108.04M155.29 12.91v108.04M169.51 12.91v108.04M183.72 12.91v108.04M197.93 12.91v108.04M212.14 12.91v108.04M226.36 12.91v108.04"/></g><g class="plotpanel"><g class="geometry"><use xlink:href="#b" x="46.33" y="118.95" stroke="#B3867B" fill="#F00" class="color_Republican"/><use xlink:href="#b" x="60.54" y="63.27" stroke="#B3867B" fill="#F00" class="color_Republican"/><use xlink:href="#b" x="65.28" y="65.91" stroke="#B3867B" fill="#F00" class="color_Republican"/><use xlink:href="#b" x="70.02" y="71.28" stroke="#B3867B" fill="#F00" class="color_Republican"/><use xlink:href="#b" x="74.76" y="70.34" stroke="#B3867B" fill="#F00" class="color_Republican"/><use xlink:href="#b" x="79.49" y="77.45" stroke="#B3867B" fill="#F00" class="color_Republican"/><use xlink:href="#b" x="84.23" y="118.95" stroke="#B3867B" fill="#F00" class="color_Republican"/><use xlink:href="#b" x="88.97" y="93.67" stroke="#B3867B" fill="#F00" class="color_Republican"/><use xlink:href="#b" x="93.71" y="99.65" stroke="#B3867B" fill="#F00" class="color_Republican"/><use xlink:href="#b" x="98.44" y="96.95" stroke="#B3867B" fill="#F00" class="color_Republican"/><use xlink:href="#b" x="103.18" y="96.5" stroke="#B3867B" fill="#F00" class="color_Republican"/><use xlink:href="#b" x="107.92" y="110.2" stroke="#B3867B" fill="#F00" class="color_Republican"/><use xlink:href="#b" x="112.66" y="100.12" stroke="#B3867B" fill="#F00" class="color_Republican"/><use xlink:href="#b" x="117.39" y="86.92" stroke="#B3867B" fill="#F00" class="color_Republican"/><use xlink:href="#b" x="122.13" y="89.75" stroke="#B3867B" fill="#F00" class="color_Republican"/><use xlink:href="#b" x="126.87" y="59.82" stroke="#B3867B" fill="#F00" class="color_Republican"/><use xlink:href="#b" x="131.61" y="92.9" stroke="#B3867B" fill="#F00" class="color_Republican"/><use xlink:href="#b" x="136.34" y="94.09" stroke="#B3867B" fill="#F00" class="color_Republican"/><use xlink:href="#b" x="141.08" y="91.92" stroke="#B3867B" fill="#F00" class="color_Republican"/><use xlink:href="#b" x="145.82" y="88.08" stroke="#B3867B" fill="#F00" class="color_Republican"/><use xlink:href="#b" x="150.56" y="83.96" stroke="#B3867B" fill="#F00" class="color_Republican"/><use xlink:href="#b" x="155.29" y="61.74" stroke="#B3867B" fill="#F00" class="color_Republican"/><use xlink:href="#b" x="160.03" y="59.37" stroke="#B3867B" fill="#F00" class="color_Republican"/><use xlink:href="#b" x="164.77" y="65.36" stroke="#B3867B" fill="#F00" class="color_Republican"/><use xlink:href="#b" x="169.51" y="68.13" stroke="#B3867B" fill="#F00" class="color_Republican"/><use xlink:href="#b" x="174.24" y="76.78" stroke="#B3867B" fill="#F00" class="color_Republican"/><use xlink:href="#b" x="178.98" y="44.13" stroke="#B3867B" fill="#F00" class="color_Republican"/><use xlink:href="#b" x="183.72" y="70.42" stroke="#B3867B" fill="#F00" class="color_Republican"/><use xlink:href="#b" x="188.46" y="61.19" stroke="#B3867B" fill="#F00" class="color_Republican"/><use xlink:href="#b" x="193.19" y="50.99" stroke="#B3867B" fill="#F00" class="color_Republican"/><use xlink:href="#b" x="197.93" y="55.62" stroke="#B3867B" fill="#F00" class="color_Republican"/><use xlink:href="#b" x="202.67" y="76.41" stroke="#B3867B" fill="#F00" class="color_Republican"/><use xlink:href="#b" x="207.41" y="74.92" stroke="#B3867B" fill="#F00" class="color_Republican"/><use xlink:href="#b" x="212.14" y="68.13" stroke="#B3867B" fill="#F00" class="color_Republican"/><use xlink:href="#b" x="216.88" y="64.75" stroke="#B3867B" fill="#F00" class="color_Republican"/><use xlink:href="#b" x="221.62" y="68.91" stroke="#B3867B" fill="#F00" class="color_Republican"/><use xlink:href="#b" x="226.36" y="67.94" stroke="#B3867B" fill="#F00" class="color_Republican"/><use xlink:href="#b" x="32.12" y="74.42" stroke="#988BAD" fill="#00F" class="color_Democratic"/><use xlink:href="#b" x="36.85" y="56.5" stroke="#988BAD" fill="#00F" class="color_Democratic"/><use xlink:href="#b" x="41.59" y="59.84" stroke="#988BAD" fill="#00F" class="color_Democratic"/><use xlink:href="#b" x="46.33" y="117.21" stroke="#988BAD" fill="#00F" class="color_Democratic"/><use xlink:href="#b" x="60.54" y="70.59" stroke="#988BAD" fill="#00F" class="color_Democratic"/><use xlink:href="#b" x="65.28" y="67.96" stroke="#988BAD" fill="#00F" class="color_Democratic"/><use xlink:href="#b" x="70.02" y="62.59" stroke="#988BAD" fill="#00F" class="color_Democratic"/><use xlink:href="#b" x="74.76" y="63.85" stroke="#988BAD" fill="#00F" class="color_Democratic"/><use xlink:href="#b" x="79.49" y="57.06" stroke="#988BAD" fill="#00F" class="color_Democratic"/><use xlink:href="#b" x="84.23" y="30.51" stroke="#988BAD" fill="#00F" class="color_Democratic"/><use xlink:href="#b" x="88.97" y="45.64" stroke="#988BAD" fill="#00F" class="color_Democratic"/><use xlink:href="#b" x="93.71" y="44.76" stroke="#988BAD" fill="#00F" class="color_Democratic"/><use xlink:href="#b" x="98.44" y="47.37" stroke="#988BAD" fill="#00F" class="color_Democratic"/><use xlink:href="#b" x="103.18" y="53.39" stroke="#988BAD" fill="#00F" class="color_Democratic"/><use xlink:href="#b" x="107.92" y="46.62" stroke="#988BAD" fill="#00F" class="color_Democratic"/><use xlink:href="#b" x="112.66" y="46.81" stroke="#988BAD" fill="#00F" class="color_Democratic"/><use xlink:href="#b" x="117.39" y="54.31" stroke="#988BAD" fill="#00F" class="color_Democratic"/><use xlink:href="#b" x="122.13" y="59.78" stroke="#988BAD" fill="#00F" class="color_Democratic"/><use xlink:href="#b" x="126.87" y="77.22" stroke="#988BAD" fill="#00F" class="color_Democratic"/><use xlink:href="#b" x="131.61" y="41.25" stroke="#988BAD" fill="#00F" class="color_Democratic"/><use xlink:href="#b" x="136.34" y="39.79" stroke="#988BAD" fill="#00F" class="color_Democratic"/><use xlink:href="#b" x="141.08" y="41.95" stroke="#988BAD" fill="#00F" class="color_Democratic"/><use xlink:href="#b" x="145.82" y="45.79" stroke="#988BAD" fill="#00F" class="color_Democratic"/><use xlink:href="#b" x="150.56" y="68.16" stroke="#988BAD" fill="#00F" class="color_Democratic"/><use xlink:href="#b" x="155.29" y="72.16" stroke="#988BAD" fill="#00F" class="color_Democratic"/><use xlink:href="#b" x="160.03" y="74.5" stroke="#988BAD" fill="#00F" class="color_Democratic"/><use xlink:href="#b" x="164.77" y="68.51" stroke="#988BAD" fill="#00F" class="color_Democratic"/><use xlink:href="#b" x="169.51" y="65.74" stroke="#988BAD" fill="#00F" class="color_Democratic"/><use xlink:href="#b" x="174.24" y="86.77" stroke="#988BAD" fill="#00F" class="color_Democratic"/><use xlink:href="#b" x="178.98" y="90.03" stroke="#988BAD" fill="#00F" class="color_Democratic"/><use xlink:href="#b" x="183.72" y="64.93" stroke="#988BAD" fill="#00F" class="color_Democratic"/><use xlink:href="#b" x="188.46" y="78.9" stroke="#988BAD" fill="#00F" class="color_Democratic"/><use xlink:href="#b" x="193.19" y="82.89" stroke="#988BAD" fill="#00F" class="color_Democratic"/><use xlink:href="#b" x="197.93" y="78.89" stroke="#988BAD" fill="#00F" class="color_Democratic"/><use xlink:href="#b" x="202.67" y="78.37" stroke="#988BAD" fill="#00F" class="color_Democratic"/><use xlink:href="#b" x="207.41" y="68.99" stroke="#988BAD" fill="#00F" class="color_Democratic"/><use xlink:href="#b" x="212.14" y="68.14" stroke="#988BAD" fill="#00F" class="color_Democratic"/><use xlink:href="#b" x="216.88" y="69.96" stroke="#988BAD" fill="#00F" class="color_Democratic"/><use xlink:href="#b" x="221.62" y="65.99" stroke="#988BAD" fill="#00F" class="color_Democratic"/><use xlink:href="#b" x="226.36" y="67.03" stroke="#988BAD" fill="#00F" class="color_Democratic"/></g><g fill-opacity="0"><path fill="none" d="M32.12 74.42l4.73-17.92 4.74 3.34 4.74 57.37 14.21-46.62 4.74-2.63 4.74-5.37 4.74 1.26 4.73-6.79 4.74-26.55 4.74 15.13 4.74-.88 4.73 2.61 4.74 6.02 4.74-6.77 4.74.19 4.73 7.5 4.74 5.47 4.74 17.44 4.74-35.97 4.73-1.46 4.74 2.16 4.74 3.84 4.74 22.37 4.73 4 4.74 2.34 4.74-5.99 4.74-2.77 4.73 21.03 4.74 3.26 4.74-25.1 4.74 13.97 4.73 3.99 4.74-4 4.74-.52 4.74-9.38 4.73-.85 4.74 1.82 4.74-3.97 4.74 1.04" stroke="#00F" class="geometry color_Democratic"/><path fill="none" d="M46.33 118.95l14.21-55.68 4.74 2.64 4.74 5.37 4.74-.94 4.73 7.11 4.74 41.5 4.74-25.28 4.74 5.98 4.73-2.7 4.74-.45 4.74 13.7 4.74-10.08 4.73-13.2 4.74 2.83 4.74-29.93 4.74 33.08 4.73 1.19 4.74-2.17 4.74-3.84 4.74-4.12 4.73-22.22 4.74-2.37 4.74 5.99 4.74 2.77 4.73 8.65 4.74-32.65 4.74 26.29 4.74-9.23 4.73-10.2 4.74 4.63 4.74 20.79 4.74-1.49 4.73-6.79 4.74-3.38 4.74 4.16 4.74-.97" stroke="#F00" class="geometry color_Republican"/></g></g></g><g class="guide ylabels" font-size="4.76" font-family="'PT Sans Caption','Helvetica Neue','Helvetica',sans-serif" fill="#A1A1A1" text-anchor="end"><text x="24.38" y="118.95" dy=".35em">0</text><text x="24.38" y="92.94" dy=".35em">25</text><text x="24.38" y="66.93" dy=".35em">50</text><text x="24.38" y="40.92" dy=".35em">75</text><text x="24.38" y="14.91" dy=".35em">100</text></g><text x="9.95" y="64.93" text-anchor="middle" dy=".35em" transform="rotate(-90 9.95 66.93)" font-size="6.35" font-family="'PT Sans','Helvetica Neue','Helvetica',sans-serif" fill="#A1A1A1" stroke="#000" stroke-opacity="0">Popular Vote (%)</text><text x="129.24" y="5" text-anchor="middle" dy=".6em" font-size="6.35" font-family="'PT Sans','Helvetica Neue','Helvetica',sans-serif" fill="#A1A1A1" stroke="#000" stroke-opacity="0">Florida</text></g><defs><clipPath id="a"><path d="M25.38 12.91H233.1v108.04H25.38"/></clipPath><circle r=".9" id="b"/></defs></svg>