<?xml version="1.0" encoding="UTF-8"?>
<svg xmlns="http://www.w3.org/2000/svg"
     xmlns:xlink="http://www.w3.org/1999/xlink"
     xmlns:gadfly="http://www.gadflyjl.org/ns"
     version="1.2"
     width="320mm" height="160mm" viewBox="0 0 320 160"
     stroke="none"
     fill="#000000"
     stroke-width="0.3"
     font-size="3.88"
>
<g class="plotroot xscalable yscalable" id="img-63afe016-1">
  <g class="guide colorkey" id="img-63afe016-2">
    <g class="color_Democratic" id="img-63afe016-3">
      <g fill="#FFFFFF" font-size="4.76" font-family="'PT Sans','Helvetica Neue','Helvetica',sans-serif" id="img-63afe016-4">
        <text x="58.33" y="149.82" dy="0.35em">Democratic</text>
      </g>
      <g fill="#0000FF" stroke="#000000" stroke-opacity="0.000" id="img-63afe016-5">
        <rect x="54.36" y="148.34" width="2.97" height="2.97"/>
      </g>
    </g>
    <g class="color_Republican" id="img-63afe016-6">
      <g fill="#FFFFFF" font-size="4.76" font-family="'PT Sans','Helvetica Neue','Helvetica',sans-serif" id="img-63afe016-7">
        <text x="29.73" y="149.82" dy="0.35em">Republican</text>
      </g>
      <g fill="#FF0000" stroke="#000000" stroke-opacity="0.000" id="img-63afe016-8">
        <rect x="25.76" y="148.34" width="2.97" height="2.97"/>
      </g>
    </g>
    <g fill="#FFFFFF" font-size="6.35" font-family="'PT Sans','Helvetica Neue','Helvetica',sans-serif" stroke="#000000" stroke-opacity="0.000" id="img-63afe016-9">
      <text x="25.76" y="145.06">Party</text>
    </g>
  </g>
  <g font-size="6.35" font-family="'PT Sans','Helvetica Neue','Helvetica',sans-serif" fill="#FFFFFF" stroke="#000000" stroke-opacity="0.000" id="img-63afe016-10">
    <text x="169.88" y="130.77" text-anchor="middle" dy="0.6em">Year</text>
  </g>
  <g class="guide xlabels" font-size="4.76" font-family="'PT Sans Caption','Helvetica Neue','Helvetica',sans-serif" fill="#FFFFFF" id="img-63afe016-11">
    <text x="26.76" y="122.89" text-anchor="middle" dy="0.6em">1844</text>
    <text x="46.73" y="122.89" text-anchor="middle" dy="0.6em">1856</text>
    <text x="66.7" y="122.89" text-anchor="middle" dy="0.6em">1868</text>
    <text x="86.67" y="122.89" text-anchor="middle" dy="0.6em">1880</text>
    <text x="106.64" y="122.89" text-anchor="middle" dy="0.6em">1892</text>
    <text x="126.61" y="122.89" text-anchor="middle" dy="0.6em">1904</text>
    <text x="146.58" y="122.89" text-anchor="middle" dy="0.6em">1916</text>
    <text x="166.55" y="122.89" text-anchor="middle" dy="0.6em">1928</text>
    <text x="186.52" y="122.89" text-anchor="middle" dy="0.6em">1940</text>
    <text x="206.49" y="122.89" text-anchor="middle" dy="0.6em">1952</text>
    <text x="226.46" y="122.89" text-anchor="middle" dy="0.6em">1964</text>
    <text x="246.43" y="122.89" text-anchor="middle" dy="0.6em">1976</text>
    <text x="266.4" y="122.89" text-anchor="middle" dy="0.6em">1988</text>
    <text x="286.37" y="122.89" text-anchor="middle" dy="0.6em">2000</text>
    <text x="306.34" y="122.89" text-anchor="middle" dy="0.6em">2012</text>
  </g>
<g clip-path="url(#img-63afe016-12)">
  <g id="img-63afe016-13">
    <g pointer-events="visible" opacity="1" fill="#000000" fill-opacity="0.000" stroke="#000000" stroke-opacity="0.000" class="guide background" id="img-63afe016-14">
      <rect x="24.76" y="13.94" width="290.24" height="107.95"/>
    </g>
    <g class="guide ygridlines xfixed" stroke-dasharray="0.5,0.5" stroke-width="0.26" stroke="#FFFFFF" id="img-63afe016-15">
      <path fill="none" d="M24.76,119.89 L 315 119.89"/>
      <path fill="none" d="M24.76,93.9 L 315 93.9"/>
      <path fill="none" d="M24.76,67.92 L 315 67.92"/>
      <path fill="none" d="M24.76,41.93 L 315 41.93"/>
      <path fill="none" d="M24.76,15.94 L 315 15.94"/>
    </g>
    <g class="guide xgridlines yfixed" stroke-dasharray="0.5,0.5" stroke-width="0.26" stroke="#FFFFFF" id="img-63afe016-16">
      <path fill="none" d="M26.76,13.94 L 26.76 121.89"/>
      <path fill="none" d="M46.73,13.94 L 46.73 121.89"/>
      <path fill="none" d="M66.7,13.94 L 66.7 121.89"/>
      <path fill="none" d="M86.67,13.94 L 86.67 121.89"/>
      <path fill="none" d="M106.64,13.94 L 106.64 121.89"/>
      <path fill="none" d="M126.61,13.94 L 126.61 121.89"/>
      <path fill="none" d="M146.58,13.94 L 146.58 121.89"/>
      <path fill="none" d="M166.55,13.94 L 166.55 121.89"/>
      <path fill="none" d="M186.52,13.94 L 186.52 121.89"/>
      <path fill="none" d="M206.49,13.94 L 206.49 121.89"/>
      <path fill="none" d="M226.46,13.94 L 226.46 121.89"/>
      <path fill="none" d="M246.43,13.94 L 246.43 121.89"/>
      <path fill="none" d="M266.4,13.94 L 266.4 121.89"/>
      <path fill="none" d="M286.37,13.94 L 286.37 121.89"/>
      <path fill="none" d="M306.34,13.94 L 306.34 121.89"/>
    </g>
    <g class="plotpanel" id="img-63afe016-17">
      <g class="geometry" id="img-63afe016-18">
        <g stroke-width="0.3" id="img-63afe016-19">
          <use xlink:href="#img-63afe016-20" x="53.39" y="119.89" stroke="#FFFFFF" fill="#FF0000" class="color_Republican"/>
          <use xlink:href="#img-63afe016-20" x="73.36" y="64.26" stroke="#FFFFFF" fill="#FF0000" class="color_Republican"/>
          <use xlink:href="#img-63afe016-20" x="80.01" y="66.89" stroke="#FFFFFF" fill="#FF0000" class="color_Republican"/>
          <use xlink:href="#img-63afe016-20" x="86.67" y="72.26" stroke="#FFFFFF" fill="#FF0000" class="color_Republican"/>
          <use xlink:href="#img-63afe016-20" x="93.33" y="71.32" stroke="#FFFFFF" fill="#FF0000" class="color_Republican"/>
          <use xlink:href="#img-63afe016-20" x="99.98" y="78.42" stroke="#FFFFFF" fill="#FF0000" class="color_Republican"/>
          <use xlink:href="#img-63afe016-20" x="106.64" y="119.89" stroke="#FFFFFF" fill="#FF0000" class="color_Republican"/>
          <use xlink:href="#img-63afe016-20" x="113.3" y="94.63" stroke="#FFFFFF" fill="#FF0000" class="color_Republican"/>
          <use xlink:href="#img-63afe016-20" x="119.95" y="100.61" stroke="#FFFFFF" fill="#FF0000" class="color_Republican"/>
          <use xlink:href="#img-63afe016-20" x="126.61" y="97.91" stroke="#FFFFFF" fill="#FF0000" class="color_Republican"/>
          <use xlink:href="#img-63afe016-20" x="133.27" y="97.45" stroke="#FFFFFF" fill="#FF0000" class="color_Republican"/>
          <use xlink:href="#img-63afe016-20" x="139.92" y="111.14" stroke="#FFFFFF" fill="#FF0000" class="color_Republican"/>
          <use xlink:href="#img-63afe016-20" x="146.58" y="101.08" stroke="#FFFFFF" fill="#FF0000" class="color_Republican"/>
          <use xlink:href="#img-63afe016-20" x="153.24" y="87.89" stroke="#FFFFFF" fill="#FF0000" class="color_Republican"/>
          <use xlink:href="#img-63afe016-20" x="159.89" y="90.72" stroke="#FFFFFF" fill="#FF0000" class="color_Republican"/>
          <use xlink:href="#img-63afe016-20" x="166.55" y="60.81" stroke="#FFFFFF" fill="#FF0000" class="color_Republican"/>
          <use xlink:href="#img-63afe016-20" x="173.21" y="93.86" stroke="#FFFFFF" fill="#FF0000" class="color_Republican"/>
          <use xlink:href="#img-63afe016-20" x="179.86" y="95.05" stroke="#FFFFFF" fill="#FF0000" class="color_Republican"/>
          <use xlink:href="#img-63afe016-20" x="186.52" y="92.88" stroke="#FFFFFF" fill="#FF0000" class="color_Republican"/>
          <use xlink:href="#img-63afe016-20" x="193.18" y="89.04" stroke="#FFFFFF" fill="#FF0000" class="color_Republican"/>
          <use xlink:href="#img-63afe016-20" x="199.83" y="84.93" stroke="#FFFFFF" fill="#FF0000" class="color_Republican"/>
          <use xlink:href="#img-63afe016-20" x="206.49" y="62.73" stroke="#FFFFFF" fill="#FF0000" class="color_Republican"/>
          <use xlink:href="#img-63afe016-20" x="213.15" y="60.36" stroke="#FFFFFF" fill="#FF0000" class="color_Republican"/>
          <use xlink:href="#img-63afe016-20" x="219.81" y="66.34" stroke="#FFFFFF" fill="#FF0000" class="color_Republican"/>
          <use xlink:href="#img-63afe016-20" x="226.46" y="69.11" stroke="#FFFFFF" fill="#FF0000" class="color_Republican"/>
          <use xlink:href="#img-63afe016-20" x="233.12" y="77.76" stroke="#FFFFFF" fill="#FF0000" class="color_Republican"/>
          <use xlink:href="#img-63afe016-20" x="239.78" y="45.13" stroke="#FFFFFF" fill="#FF0000" class="color_Republican"/>
          <use xlink:href="#img-63afe016-20" x="246.43" y="71.41" stroke="#FFFFFF" fill="#FF0000" class="color_Republican"/>
          <use xlink:href="#img-63afe016-20" x="253.09" y="62.18" stroke="#FFFFFF" fill="#FF0000" class="color_Republican"/>
          <use xlink:href="#img-63afe016-20" x="259.75" y="51.99" stroke="#FFFFFF" fill="#FF0000" class="color_Republican"/>
          <use xlink:href="#img-63afe016-20" x="266.4" y="56.61" stroke="#FFFFFF" fill="#FF0000" class="color_Republican"/>
          <use xlink:href="#img-63afe016-20" x="273.06" y="77.38" stroke="#FFFFFF" fill="#FF0000" class="color_Republican"/>
          <use xlink:href="#img-63afe016-20" x="279.72" y="75.9" stroke="#FFFFFF" fill="#FF0000" class="color_Republican"/>
          <use xlink:href="#img-63afe016-20" x="286.37" y="69.11" stroke="#FFFFFF" fill="#FF0000" class="color_Republican"/>
          <use xlink:href="#img-63afe016-20" x="293.03" y="65.73" stroke="#FFFFFF" fill="#FF0000" class="color_Republican"/>
          <use xlink:href="#img-63afe016-20" x="299.69" y="69.89" stroke="#FFFFFF" fill="#FF0000" class="color_Republican"/>
          <use xlink:href="#img-63afe016-20" x="306.34" y="68.93" stroke="#FFFFFF" fill="#FF0000" class="color_Republican"/>
          <use xlink:href="#img-63afe016-20" x="33.42" y="75.4" stroke="#FFFFFF" fill="#0000FF" class="color_Democratic"/>
          <use xlink:href="#img-63afe016-20" x="40.07" y="57.49" stroke="#FFFFFF" fill="#0000FF" class="color_Democratic"/>
          <use xlink:href="#img-63afe016-20" x="46.73" y="60.83" stroke="#FFFFFF" fill="#0000FF" class="color_Democratic"/>
          <use xlink:href="#img-63afe016-20" x="53.39" y="118.15" stroke="#FFFFFF" fill="#0000FF" class="color_Democratic"/>
          <use xlink:href="#img-63afe016-20" x="73.36" y="71.57" stroke="#FFFFFF" fill="#0000FF" class="color_Democratic"/>
          <use xlink:href="#img-63afe016-20" x="80.01" y="68.94" stroke="#FFFFFF" fill="#0000FF" class="color_Democratic"/>
          <use xlink:href="#img-63afe016-20" x="86.67" y="63.58" stroke="#FFFFFF" fill="#0000FF" class="color_Democratic"/>
          <use xlink:href="#img-63afe016-20" x="93.33" y="64.84" stroke="#FFFFFF" fill="#0000FF" class="color_Democratic"/>
          <use xlink:href="#img-63afe016-20" x="99.98" y="58.06" stroke="#FFFFFF" fill="#0000FF" class="color_Democratic"/>
          <use xlink:href="#img-63afe016-20" x="106.64" y="31.52" stroke="#FFFFFF" fill="#0000FF" class="color_Democratic"/>
          <use xlink:href="#img-63afe016-20" x="113.3" y="46.65" stroke="#FFFFFF" fill="#0000FF" class="color_Democratic"/>
          <use xlink:href="#img-63afe016-20" x="119.95" y="45.76" stroke="#FFFFFF" fill="#0000FF" class="color_Democratic"/>
          <use xlink:href="#img-63afe016-20" x="126.61" y="48.37" stroke="#FFFFFF" fill="#0000FF" class="color_Democratic"/>
          <use xlink:href="#img-63afe016-20" x="133.27" y="54.39" stroke="#FFFFFF" fill="#0000FF" class="color_Democratic"/>
          <use xlink:href="#img-63afe016-20" x="139.92" y="47.62" stroke="#FFFFFF" fill="#0000FF" class="color_Democratic"/>
          <use xlink:href="#img-63afe016-20" x="146.58" y="47.81" stroke="#FFFFFF" fill="#0000FF" class="color_Democratic"/>
          <use xlink:href="#img-63afe016-20" x="153.24" y="55.3" stroke="#FFFFFF" fill="#0000FF" class="color_Democratic"/>
          <use xlink:href="#img-63afe016-20" x="159.89" y="60.77" stroke="#FFFFFF" fill="#0000FF" class="color_Democratic"/>
          <use xlink:href="#img-63afe016-20" x="166.55" y="78.19" stroke="#FFFFFF" fill="#0000FF" class="color_Democratic"/>
          <use xlink:href="#img-63afe016-20" x="173.21" y="42.26" stroke="#FFFFFF" fill="#0000FF" class="color_Democratic"/>
          <use xlink:href="#img-63afe016-20" x="179.86" y="40.8" stroke="#FFFFFF" fill="#0000FF" class="color_Democratic"/>
          <use xlink:href="#img-63afe016-20" x="186.52" y="42.95" stroke="#FFFFFF" fill="#0000FF" class="color_Democratic"/>
          <use xlink:href="#img-63afe016-20" x="193.18" y="46.79" stroke="#FFFFFF" fill="#0000FF" class="color_Democratic"/>
          <use xlink:href="#img-63afe016-20" x="199.83" y="69.15" stroke="#FFFFFF" fill="#0000FF" class="color_Democratic"/>
          <use xlink:href="#img-63afe016-20" x="206.49" y="73.14" stroke="#FFFFFF" fill="#0000FF" class="color_Democratic"/>
          <use xlink:href="#img-63afe016-20" x="213.15" y="75.47" stroke="#FFFFFF" fill="#0000FF" class="color_Democratic"/>
          <use xlink:href="#img-63afe016-20" x="219.81" y="69.49" stroke="#FFFFFF" fill="#0000FF" class="color_Democratic"/>
          <use xlink:href="#img-63afe016-20" x="226.46" y="66.72" stroke="#FFFFFF" fill="#0000FF" class="color_Democratic"/>
          <use xlink:href="#img-63afe016-20" x="233.12" y="87.73" stroke="#FFFFFF" fill="#0000FF" class="color_Democratic"/>
          <use xlink:href="#img-63afe016-20" x="239.78" y="90.99" stroke="#FFFFFF" fill="#0000FF" class="color_Democratic"/>
          <use xlink:href="#img-63afe016-20" x="246.43" y="65.91" stroke="#FFFFFF" fill="#0000FF" class="color_Democratic"/>
          <use xlink:href="#img-63afe016-20" x="253.09" y="79.87" stroke="#FFFFFF" fill="#0000FF" class="color_Democratic"/>
          <use xlink:href="#img-63afe016-20" x="259.75" y="83.86" stroke="#FFFFFF" fill="#0000FF" class="color_Democratic"/>
          <use xlink:href="#img-63afe016-20" x="266.4" y="79.86" stroke="#FFFFFF" fill="#0000FF" class="color_Democratic"/>
          <use xlink:href="#img-63afe016-20" x="273.06" y="79.35" stroke="#FFFFFF" fill="#0000FF" class="color_Democratic"/>
          <use xlink:href="#img-63afe016-20" x="279.72" y="69.97" stroke="#FFFFFF" fill="#0000FF" class="color_Democratic"/>
          <use xlink:href="#img-63afe016-20" x="286.37" y="69.12" stroke="#FFFFFF" fill="#0000FF" class="color_Democratic"/>
          <use xlink:href="#img-63afe016-20" x="293.03" y="70.94" stroke="#FFFFFF" fill="#0000FF" class="color_Democratic"/>
          <use xlink:href="#img-63afe016-20" x="299.69" y="66.97" stroke="#FFFFFF" fill="#0000FF" class="color_Democratic"/>
          <use xlink:href="#img-63afe016-20" x="306.34" y="68.02" stroke="#FFFFFF" fill="#0000FF" class="color_Democratic"/>
        </g>
      </g>
      <g stroke-width="0.53" fill="#000000" fill-opacity="0.000" stroke-dasharray="none" id="img-63afe016-21">
        <path fill="none" d="M33.42,75.4 L 40.07 57.49 46.73 60.83 53.39 118.15 73.36 71.57 80.01 68.94 86.67 63.58 93.33 64.84 99.98 58.06 106.64 31.52 113.3 46.65 119.95 45.76 126.61 48.37 133.27 54.39 139.92 47.62 146.58 47.81 153.24 55.3 159.89 60.77 166.55 78.19 173.21 42.26 179.86 40.8 186.52 42.95 193.18 46.79 199.83 69.15 206.49 73.14 213.15 75.47 219.81 69.49 226.46 66.72 233.12 87.73 239.78 90.99 246.43 65.91 253.09 79.87 259.75 83.86 266.4 79.86 273.06 79.35 279.72 69.97 286.37 69.12 293.03 70.94 299.69 66.97 306.34 68.02" stroke="#0000FF" class="geometry color_Democratic"/>
        <path fill="none" d="M53.39,119.89 L 73.36 64.26 80.01 66.89 86.67 72.26 93.33 71.32 99.98 78.42 106.64 119.89 113.3 94.63 119.95 100.61 126.61 97.91 133.27 97.45 139.92 111.14 146.58 101.08 153.24 87.89 159.89 90.72 166.55 60.81 173.21 93.86 179.86 95.05 186.52 92.88 193.18 89.04 199.83 84.93 206.49 62.73 213.15 60.36 219.81 66.34 226.46 69.11 233.12 77.76 239.78 45.13 246.43 71.41 253.09 62.18 259.75 51.99 266.4 56.61 273.06 77.38 279.72 75.9 286.37 69.11 293.03 65.73 299.69 69.89 306.34 68.93" stroke="#FF0000" class="geometry color_Republican"/>
      </g>
    </g>
  </g>
</g>
  <g class="guide ylabels" font-size="4.76" font-family="'PT Sans Caption','Helvetica Neue','Helvetica',sans-serif" fill="#FFFFFF" id="img-63afe016-22">
    <text x="23.76" y="119.89" text-anchor="end" dy="0.35em">0</text>
    <text x="23.76" y="93.9" text-anchor="end" dy="0.35em">25</text>
    <text x="23.76" y="67.92" text-anchor="end" dy="0.35em">50</text>
    <text x="23.76" y="41.93" text-anchor="end" dy="0.35em">75</text>
    <text x="23.76" y="15.94" text-anchor="end" dy="0.35em">100</text>
  </g>
  <g font-size="6.35" font-family="'PT Sans','Helvetica Neue','Helvetica',sans-serif" fill="#FFFFFF" stroke="#000000" stroke-opacity="0.000" id="img-63afe016-23">
    <text x="10.18" y="65.92" text-anchor="middle" dy="0.35em" transform="rotate(-90, 10.18, 67.92)">Popular Vote (%)</text>
  </g>
  <g font-size="6.35" font-family="'PT Sans','Helvetica Neue','Helvetica',sans-serif" fill="#FFFFFF" stroke="#000000" stroke-opacity="0.000" id="img-63afe016-24">
    <text x="169.88" y="11.94" text-anchor="middle">Florida</text>
  </g>
</g>
<defs>
  <clipPath id="img-63afe016-12">
  <path d="M24.76,13.94 L 315 13.94 315 121.89 24.76 121.89" />
</clipPath>
  <g id="img-63afe016-20">
    <circle cx="0" cy="0" r="0.9"/>
  </g>
</defs>
</svg>
