<?xml version="1.0" encoding="UTF-8"?>
<svg xmlns="http://www.w3.org/2000/svg"
     xmlns:xlink="http://www.w3.org/1999/xlink"
     xmlns:gadfly="http://www.gadflyjl.org/ns"
     version="1.2"
     width="320mm" height="160mm" viewBox="0 0 320 160"
     stroke="none"
     fill="#000000"
     stroke-width="0.3"
     font-size="3.88"
>
<g class="plotroot xscalable yscalable" id="img-6ad990e6-1">
  <g class="guide colorkey" id="img-6ad990e6-2">
    <g class="color_Democratic" id="img-6ad990e6-3">
      <g fill="#4C404B" font-size="4.76" font-family="'PT Sans','Helvetica Neue','Helvetica',sans-serif" id="img-6ad990e6-4">
        <text x="61.86" y="150" dy="0.35em">Democratic</text>
      </g>
      <g fill="#0000FF" stroke="#000000" stroke-opacity="0.000" id="img-6ad990e6-5">
        <rect x="57.89" y="148.52" width="2.97" height="2.97"/>
      </g>
    </g>
    <g class="color_Republican" id="img-6ad990e6-6">
      <g fill="#4C404B" font-size="4.76" font-family="'PT Sans','Helvetica Neue','Helvetica',sans-serif" id="img-6ad990e6-7">
        <text x="30.79" y="150" dy="0.35em">Republican</text>
      </g>
      <g fill="#FF0000" stroke="#000000" stroke-opacity="0.000" id="img-6ad990e6-8">
        <rect x="26.82" y="148.52" width="2.97" height="2.97"/>
      </g>
    </g>
    <g fill="#362A35" font-size="6.35" font-family="'PT Sans','Helvetica Neue','Helvetica',sans-serif" stroke="#000000" stroke-opacity="0.000" id="img-6ad990e6-9">
      <text x="26.82" y="145.06">Party</text>
    </g>
  </g>
  <g font-size="6.35" font-family="'PT Sans','Helvetica Neue','Helvetica',sans-serif" fill="#564A55" stroke="#000000" stroke-opacity="0.000" id="img-6ad990e6-10">
    <text x="170.41" y="131.48" text-anchor="middle" dy="0.6em">Year</text>
  </g>
  <g class="guide xlabels" font-size="4.76" font-family="'PT Sans Caption','Helvetica Neue','Helvetica',sans-serif" fill="#6C606B" id="img-6ad990e6-11">
    <text x="27.82" y="123.95" text-anchor="middle" dy="0.6em">1824</text>
    <text x="45.64" y="123.95" text-anchor="middle" dy="0.6em">1836</text>
    <text x="63.46" y="123.95" text-anchor="middle" dy="0.6em">1848</text>
    <text x="81.29" y="123.95" text-anchor="middle" dy="0.6em">1860</text>
    <text x="99.11" y="123.95" text-anchor="middle" dy="0.6em">1872</text>
    <text x="116.94" y="123.95" text-anchor="middle" dy="0.6em">1884</text>
    <text x="134.76" y="123.95" text-anchor="middle" dy="0.6em">1896</text>
    <text x="152.58" y="123.95" text-anchor="middle" dy="0.6em">1908</text>
    <text x="170.41" y="123.95" text-anchor="middle" dy="0.6em">1920</text>
    <text x="188.23" y="123.95" text-anchor="middle" dy="0.6em">1932</text>
    <text x="206.06" y="123.95" text-anchor="middle" dy="0.6em">1944</text>
    <text x="223.88" y="123.95" text-anchor="middle" dy="0.6em">1956</text>
    <text x="241.7" y="123.95" text-anchor="middle" dy="0.6em">1968</text>
    <text x="259.53" y="123.95" text-anchor="middle" dy="0.6em">1980</text>
    <text x="277.35" y="123.95" text-anchor="middle" dy="0.6em">1992</text>
    <text x="295.18" y="123.95" text-anchor="middle" dy="0.6em">2004</text>
    <text x="313" y="123.95" text-anchor="middle" dy="0.6em">2016</text>
  </g>
<g clip-path="url(#img-6ad990e6-12)">
  <g id="img-6ad990e6-13">
    <g pointer-events="visible" opacity="1" fill="#000000" fill-opacity="0.000" stroke="#000000" stroke-opacity="0.000" class="guide background" id="img-6ad990e6-14">
      <rect x="25.82" y="15.35" width="289.18" height="107.6"/>
    </g>
    <g class="guide ygridlines xfixed" stroke-dasharray="0.5,0.5" stroke-width="0.26" stroke="#000000" id="img-6ad990e6-15">
      <path fill="none" d="M25.82,120.95 L 315 120.95"/>
      <path fill="none" d="M25.82,95.05 L 315 95.05"/>
      <path fill="none" d="M25.82,69.15 L 315 69.15"/>
      <path fill="none" d="M25.82,43.25 L 315 43.25"/>
      <path fill="none" d="M25.82,17.35 L 315 17.35"/>
    </g>
    <g class="guide xgridlines yfixed" stroke-dasharray="0.5,0.5" stroke-width="0.26" stroke="#000000" id="img-6ad990e6-16">
      <path fill="none" d="M27.82,15.35 L 27.82 122.95"/>
      <path fill="none" d="M45.64,15.35 L 45.64 122.95"/>
      <path fill="none" d="M63.46,15.35 L 63.46 122.95"/>
      <path fill="none" d="M81.29,15.35 L 81.29 122.95"/>
      <path fill="none" d="M99.11,15.35 L 99.11 122.95"/>
      <path fill="none" d="M116.94,15.35 L 116.94 122.95"/>
      <path fill="none" d="M134.76,15.35 L 134.76 122.95"/>
      <path fill="none" d="M152.58,15.35 L 152.58 122.95"/>
      <path fill="none" d="M170.41,15.35 L 170.41 122.95"/>
      <path fill="none" d="M188.23,15.35 L 188.23 122.95"/>
      <path fill="none" d="M206.06,15.35 L 206.06 122.95"/>
      <path fill="none" d="M223.88,15.35 L 223.88 122.95"/>
      <path fill="none" d="M241.7,15.35 L 241.7 122.95"/>
      <path fill="none" d="M259.53,15.35 L 259.53 122.95"/>
      <path fill="none" d="M277.35,15.35 L 277.35 122.95"/>
      <path fill="none" d="M295.18,15.35 L 295.18 122.95"/>
      <path fill="none" d="M313,15.35 L 313 122.95"/>
    </g>
    <g class="plotpanel" id="img-6ad990e6-17">
      <g class="geometry" id="img-6ad990e6-18">
        <g stroke-width="0.3" id="img-6ad990e6-19">
          <use xlink:href="#img-6ad990e6-20" x="81.29" y="120.95" fill="#FF0000" class="color_Republican" stroke="#FFFFFF"/>
          <use xlink:href="#img-6ad990e6-20" x="93.17" y="83.93" fill="#FF0000" class="color_Republican" stroke="#FFFFFF"/>
          <use xlink:href="#img-6ad990e6-20" x="99.11" y="74.3" fill="#FF0000" class="color_Republican" stroke="#FFFFFF"/>
          <use xlink:href="#img-6ad990e6-20" x="105.05" y="91.98" fill="#FF0000" class="color_Republican" stroke="#FFFFFF"/>
          <use xlink:href="#img-6ad990e6-20" x="111" y="85.11" fill="#FF0000" class="color_Republican" stroke="#FFFFFF"/>
          <use xlink:href="#img-6ad990e6-20" x="116.94" y="85.89" fill="#FF0000" class="color_Republican" stroke="#FFFFFF"/>
          <use xlink:href="#img-6ad990e6-20" x="122.88" y="91.6" fill="#FF0000" class="color_Republican" stroke="#FFFFFF"/>
          <use xlink:href="#img-6ad990e6-20" x="128.82" y="98.47" fill="#FF0000" class="color_Republican" stroke="#FFFFFF"/>
          <use xlink:href="#img-6ad990e6-20" x="134.76" y="83.08" fill="#FF0000" class="color_Republican" stroke="#FFFFFF"/>
          <use xlink:href="#img-6ad990e6-20" x="140.7" y="91.72" fill="#FF0000" class="color_Republican" stroke="#FFFFFF"/>
          <use xlink:href="#img-6ad990e6-20" x="146.64" y="101.96" fill="#FF0000" class="color_Republican" stroke="#FFFFFF"/>
          <use xlink:href="#img-6ad990e6-20" x="152.58" y="88.62" fill="#FF0000" class="color_Republican" stroke="#FFFFFF"/>
          <use xlink:href="#img-6ad990e6-20" x="158.53" y="116.52" fill="#FF0000" class="color_Republican" stroke="#FFFFFF"/>
          <use xlink:href="#img-6ad990e6-20" x="164.47" y="113.67" fill="#FF0000" class="color_Republican" stroke="#FFFFFF"/>
          <use xlink:href="#img-6ad990e6-20" x="170.41" y="92.33" fill="#FF0000" class="color_Republican" stroke="#FFFFFF"/>
          <use xlink:href="#img-6ad990e6-20" x="176.35" y="102.11" fill="#FF0000" class="color_Republican" stroke="#FFFFFF"/>
          <use xlink:href="#img-6ad990e6-20" x="182.29" y="76.03" fill="#FF0000" class="color_Republican" stroke="#FFFFFF"/>
          <use xlink:href="#img-6ad990e6-20" x="188.23" y="112.9" fill="#FF0000" class="color_Republican" stroke="#FFFFFF"/>
          <use xlink:href="#img-6ad990e6-20" x="194.17" y="107.9" fill="#FF0000" class="color_Republican" stroke="#FFFFFF"/>
          <use xlink:href="#img-6ad990e6-20" x="200.11" y="105.58" fill="#FF0000" class="color_Republican" stroke="#FFFFFF"/>
          <use xlink:href="#img-6ad990e6-20" x="206.06" y="102.04" fill="#FF0000" class="color_Republican" stroke="#FFFFFF"/>
          <use xlink:href="#img-6ad990e6-20" x="212" y="101.98" fill="#FF0000" class="color_Republican" stroke="#FFFFFF"/>
          <use xlink:href="#img-6ad990e6-20" x="217.94" y="89.52" fill="#FF0000" class="color_Republican" stroke="#FFFFFF"/>
          <use xlink:href="#img-6ad990e6-20" x="223.88" y="87.12" fill="#FF0000" class="color_Republican" stroke="#FFFFFF"/>
          <use xlink:href="#img-6ad990e6-20" x="229.82" y="82.18" fill="#FF0000" class="color_Republican" stroke="#FFFFFF"/>
          <use xlink:href="#img-6ad990e6-20" x="235.76" y="64.88" fill="#FF0000" class="color_Republican" stroke="#FFFFFF"/>
          <use xlink:href="#img-6ad990e6-20" x="241.7" y="89.45" fill="#FF0000" class="color_Republican" stroke="#FFFFFF"/>
          <use xlink:href="#img-6ad990e6-20" x="247.65" y="43.21" fill="#FF0000" class="color_Republican" stroke="#FFFFFF"/>
          <use xlink:href="#img-6ad990e6-20" x="253.59" y="86.8" fill="#FF0000" class="color_Republican" stroke="#FFFFFF"/>
          <use xlink:href="#img-6ad990e6-20" x="259.53" y="78.53" fill="#FF0000" class="color_Republican" stroke="#FFFFFF"/>
          <use xlink:href="#img-6ad990e6-20" x="265.47" y="58.61" fill="#FF0000" class="color_Republican" stroke="#FFFFFF"/>
          <use xlink:href="#img-6ad990e6-20" x="271.41" y="59.05" fill="#FF0000" class="color_Republican" stroke="#FFFFFF"/>
          <use xlink:href="#img-6ad990e6-20" x="277.35" y="76.53" fill="#FF0000" class="color_Republican" stroke="#FFFFFF"/>
          <use xlink:href="#img-6ad990e6-20" x="283.29" y="72.25" fill="#FF0000" class="color_Republican" stroke="#FFFFFF"/>
          <use xlink:href="#img-6ad990e6-20" x="289.23" y="64.31" fill="#FF0000" class="color_Republican" stroke="#FFFFFF"/>
          <use xlink:href="#img-6ad990e6-20" x="295.18" y="60.94" fill="#FF0000" class="color_Republican" stroke="#FFFFFF"/>
          <use xlink:href="#img-6ad990e6-20" x="301.12" y="66.97" fill="#FF0000" class="color_Republican" stroke="#FFFFFF"/>
          <use xlink:href="#img-6ad990e6-20" x="307.06" y="65.85" fill="#FF0000" class="color_Republican" stroke="#FFFFFF"/>
          <use xlink:href="#img-6ad990e6-20" x="33.76" y="20.67" fill="#0000FF" class="color_Democratic" stroke="#FFFFFF"/>
          <use xlink:href="#img-6ad990e6-20" x="39.7" y="17.35" fill="#0000FF" class="color_Democratic" stroke="#FFFFFF"/>
          <use xlink:href="#img-6ad990e6-20" x="45.64" y="71.02" fill="#0000FF" class="color_Democratic" stroke="#FFFFFF"/>
          <use xlink:href="#img-6ad990e6-20" x="51.58" y="75.13" fill="#0000FF" class="color_Democratic" stroke="#FFFFFF"/>
          <use xlink:href="#img-6ad990e6-20" x="57.52" y="67.92" fill="#0000FF" class="color_Democratic" stroke="#FFFFFF"/>
          <use xlink:href="#img-6ad990e6-20" x="63.46" y="70.69" fill="#0000FF" class="color_Democratic" stroke="#FFFFFF"/>
          <use xlink:href="#img-6ad990e6-20" x="69.41" y="53.93" fill="#0000FF" class="color_Democratic" stroke="#FFFFFF"/>
          <use xlink:href="#img-6ad990e6-20" x="75.35" y="61.75" fill="#0000FF" class="color_Democratic" stroke="#FFFFFF"/>
          <use xlink:href="#img-6ad990e6-20" x="81.29" y="109.71" fill="#0000FF" class="color_Democratic" stroke="#FFFFFF"/>
          <use xlink:href="#img-6ad990e6-20" x="93.17" y="54.37" fill="#0000FF" class="color_Democratic" stroke="#FFFFFF"/>
          <use xlink:href="#img-6ad990e6-20" x="99.11" y="64" fill="#0000FF" class="color_Democratic" stroke="#FFFFFF"/>
          <use xlink:href="#img-6ad990e6-20" x="105.05" y="46.32" fill="#0000FF" class="color_Democratic" stroke="#FFFFFF"/>
          <use xlink:href="#img-6ad990e6-20" x="111" y="53.19" fill="#0000FF" class="color_Democratic" stroke="#FFFFFF"/>
          <use xlink:href="#img-6ad990e6-20" x="116.94" y="52.66" fill="#0000FF" class="color_Democratic" stroke="#FFFFFF"/>
          <use xlink:href="#img-6ad990e6-20" x="122.88" y="48.11" fill="#0000FF" class="color_Democratic" stroke="#FFFFFF"/>
          <use xlink:href="#img-6ad990e6-20" x="128.82" y="60.85" fill="#0000FF" class="color_Democratic" stroke="#FFFFFF"/>
          <use xlink:href="#img-6ad990e6-20" x="134.76" y="61.09" fill="#0000FF" class="color_Democratic" stroke="#FFFFFF"/>
          <use xlink:href="#img-6ad990e6-20" x="140.7" y="51.68" fill="#0000FF" class="color_Democratic" stroke="#FFFFFF"/>
          <use xlink:href="#img-6ad990e6-20" x="146.64" y="54.93" fill="#0000FF" class="color_Democratic" stroke="#FFFFFF"/>
          <use xlink:href="#img-6ad990e6-20" x="152.58" y="64.38" fill="#0000FF" class="color_Democratic" stroke="#FFFFFF"/>
          <use xlink:href="#img-6ad990e6-20" x="158.53" y="41.56" fill="#0000FF" class="color_Democratic" stroke="#FFFFFF"/>
          <use xlink:href="#img-6ad990e6-20" x="164.47" y="38.58" fill="#0000FF" class="color_Democratic" stroke="#FFFFFF"/>
          <use xlink:href="#img-6ad990e6-20" x="170.41" y="46.3" fill="#0000FF" class="color_Democratic" stroke="#FFFFFF"/>
          <use xlink:href="#img-6ad990e6-20" x="176.35" y="44.33" fill="#0000FF" class="color_Democratic" stroke="#FFFFFF"/>
          <use xlink:href="#img-6ad990e6-20" x="182.29" y="62.36" fill="#0000FF" class="color_Democratic" stroke="#FFFFFF"/>
          <use xlink:href="#img-6ad990e6-20" x="188.23" y="26.05" fill="#0000FF" class="color_Democratic" stroke="#FFFFFF"/>
          <use xlink:href="#img-6ad990e6-20" x="194.17" y="30.71" fill="#0000FF" class="color_Democratic" stroke="#FFFFFF"/>
          <use xlink:href="#img-6ad990e6-20" x="200.11" y="33.05" fill="#0000FF" class="color_Democratic" stroke="#FFFFFF"/>
          <use xlink:href="#img-6ad990e6-20" x="206.06" y="36.27" fill="#0000FF" class="color_Democratic" stroke="#FFFFFF"/>
          <use xlink:href="#img-6ad990e6-20" x="212" y="57.95" fill="#0000FF" class="color_Democratic" stroke="#FFFFFF"/>
          <use xlink:href="#img-6ad990e6-20" x="217.94" y="48.78" fill="#0000FF" class="color_Democratic" stroke="#FFFFFF"/>
          <use xlink:href="#img-6ad990e6-20" x="223.88" y="52.07" fill="#0000FF" class="color_Democratic" stroke="#FFFFFF"/>
          <use xlink:href="#img-6ad990e6-20" x="229.82" y="56.16" fill="#0000FF" class="color_Democratic" stroke="#FFFFFF"/>
          <use xlink:href="#img-6ad990e6-20" x="235.76" y="73.43" fill="#0000FF" class="color_Democratic" stroke="#FFFFFF"/>
          <use xlink:href="#img-6ad990e6-20" x="241.7" y="93.24" fill="#0000FF" class="color_Democratic" stroke="#FFFFFF"/>
          <use xlink:href="#img-6ad990e6-20" x="247.65" y="95.42" fill="#0000FF" class="color_Democratic" stroke="#FFFFFF"/>
          <use xlink:href="#img-6ad990e6-20" x="253.59" y="51.81" fill="#0000FF" class="color_Democratic" stroke="#FFFFFF"/>
          <use xlink:href="#img-6ad990e6-20" x="259.53" y="63.18" fill="#0000FF" class="color_Democratic" stroke="#FFFFFF"/>
          <use xlink:href="#img-6ad990e6-20" x="265.47" y="79.73" fill="#0000FF" class="color_Democratic" stroke="#FFFFFF"/>
          <use xlink:href="#img-6ad990e6-20" x="271.41" y="80.03" fill="#0000FF" class="color_Democratic" stroke="#FFFFFF"/>
          <use xlink:href="#img-6ad990e6-20" x="277.35" y="75.92" fill="#0000FF" class="color_Democratic" stroke="#FFFFFF"/>
          <use xlink:href="#img-6ad990e6-20" x="283.29" y="73.46" fill="#0000FF" class="color_Democratic" stroke="#FFFFFF"/>
          <use xlink:href="#img-6ad990e6-20" x="289.23" y="76.42" fill="#0000FF" class="color_Democratic" stroke="#FFFFFF"/>
          <use xlink:href="#img-6ad990e6-20" x="295.18" y="78.12" fill="#0000FF" class="color_Democratic" stroke="#FFFFFF"/>
          <use xlink:href="#img-6ad990e6-20" x="301.12" y="72.36" fill="#0000FF" class="color_Democratic" stroke="#FFFFFF"/>
          <use xlink:href="#img-6ad990e6-20" x="307.06" y="73.93" fill="#0000FF" class="color_Democratic" stroke="#FFFFFF"/>
        </g>
      </g>
      <g stroke-width="0.53" fill="#000000" fill-opacity="0.000" stroke-dasharray="none" id="img-6ad990e6-21">
        <path fill="none" d="M33.76,20.67 L 39.7 17.35 45.64 71.02 51.58 75.13 57.52 67.92 63.46 70.69 69.41 53.93 75.35 61.75 81.29 109.71 93.17 54.37 99.11 64 105.05 46.32 111 53.19 116.94 52.66 122.88 48.11 128.82 60.85 134.76 61.09 140.7 51.68 146.64 54.93 152.58 64.38 158.53 41.56 164.47 38.58 170.41 46.3 176.35 44.33 182.29 62.36 188.23 26.05 194.17 30.71 200.11 33.05 206.06 36.27 212 57.95 217.94 48.78 223.88 52.07 229.82 56.16 235.76 73.43 241.7 93.24 247.65 95.42 253.59 51.81 259.53 63.18 265.47 79.73 271.41 80.03 277.35 75.92 283.29 73.46 289.23 76.42 295.18 78.12 301.12 72.36 307.06 73.93" class="geometry color_Democratic" stroke="#0000FF"/>
        <path fill="none" d="M81.29,120.95 L 93.17 83.93 99.11 74.3 105.05 91.98 111 85.11 116.94 85.89 122.88 91.6 128.82 98.47 134.76 83.08 140.7 91.72 146.64 101.96 152.58 88.62 158.53 116.52 164.47 113.67 170.41 92.33 176.35 102.11 182.29 76.03 188.23 112.9 194.17 107.9 200.11 105.58 206.06 102.04 212 101.98 217.94 89.52 223.88 87.12 229.82 82.18 235.76 64.88 241.7 89.45 247.65 43.21 253.59 86.8 259.53 78.53 265.47 58.61 271.41 59.05 277.35 76.53 283.29 72.25 289.23 64.31 295.18 60.94 301.12 66.97 307.06 65.85" class="geometry color_Republican" stroke="#FF0000"/>
      </g>
    </g>
  </g>
</g>
  <g class="guide ylabels" font-size="4.76" font-family="'PT Sans Caption','Helvetica Neue','Helvetica',sans-serif" fill="#6C606B" id="img-6ad990e6-22">
    <text x="24.82" y="120.95" text-anchor="end" dy="0.35em">0</text>
    <text x="24.82" y="95.05" text-anchor="end" dy="0.35em">25</text>
    <text x="24.82" y="69.15" text-anchor="end" dy="0.35em">50</text>
    <text x="24.82" y="43.25" text-anchor="end" dy="0.35em">75</text>
    <text x="24.82" y="17.35" text-anchor="end" dy="0.35em">100</text>
  </g>
  <g font-size="6.35" font-family="'PT Sans','Helvetica Neue','Helvetica',sans-serif" fill="#564A55" stroke="#000000" stroke-opacity="0.000" id="img-6ad990e6-23">
    <text x="10.18" y="67.15" text-anchor="middle" dy="0.35em" transform="rotate(-90, 10.18, 69.15)">Popular Vote (%)</text>
  </g>
  <g font-size="6.35" font-family="'PT Sans','Helvetica Neue','Helvetica',sans-serif" fill="#564A55" stroke="#000000" stroke-opacity="0.000" id="img-6ad990e6-24">
    <text x="170.41" y="13.35" text-anchor="middle">Georgia</text>
  </g>
</g>
<defs>
  <clipPath id="img-6ad990e6-12">
  <path d="M25.82,15.35 L 315 15.35 315 122.95 25.82 122.95" />
</clipPath>
  <g id="img-6ad990e6-20">
    <circle cx="0" cy="0" r="0.9"/>
  </g>
</defs>
</svg>
