<?xml version="1.0" encoding="UTF-8"?>
<svg xmlns="http://www.w3.org/2000/svg"
     xmlns:xlink="http://www.w3.org/1999/xlink"
     xmlns:gadfly="http://www.gadflyjl.org/ns"
     version="1.2"
     width="320mm" height="160mm" viewBox="0 0 320 160"
     stroke="none"
     fill="#000000"
     stroke-width="0.3"
     font-size="3.88"
>
<g class="plotroot xscalable yscalable" id="img-1a04214a-1">
  <g class="guide colorkey" id="img-1a04214a-2">
    <g class="color_Democratic" id="img-1a04214a-3">
      <g fill="#FFFFFF" font-size="4.76" font-family="'PT Sans','Helvetica Neue','Helvetica',sans-serif" id="img-1a04214a-4">
        <text x="58.33" y="149.82" dy="0.35em">Democratic</text>
      </g>
      <g fill="#0000FF" stroke="#000000" stroke-opacity="0.000" id="img-1a04214a-5">
        <rect x="54.36" y="148.34" width="2.97" height="2.97"/>
      </g>
    </g>
    <g class="color_Republican" id="img-1a04214a-6">
      <g fill="#FFFFFF" font-size="4.76" font-family="'PT Sans','Helvetica Neue','Helvetica',sans-serif" id="img-1a04214a-7">
        <text x="29.73" y="149.82" dy="0.35em">Republican</text>
      </g>
      <g fill="#FF0000" stroke="#000000" stroke-opacity="0.000" id="img-1a04214a-8">
        <rect x="25.76" y="148.34" width="2.97" height="2.97"/>
      </g>
    </g>
    <g fill="#FFFFFF" font-size="6.35" font-family="'PT Sans','Helvetica Neue','Helvetica',sans-serif" stroke="#000000" stroke-opacity="0.000" id="img-1a04214a-9">
      <text x="25.76" y="145.06">Party</text>
    </g>
  </g>
  <g font-size="6.35" font-family="'PT Sans','Helvetica Neue','Helvetica',sans-serif" fill="#FFFFFF" stroke="#000000" stroke-opacity="0.000" id="img-1a04214a-10">
    <text x="169.88" y="130.77" text-anchor="middle" dy="0.6em">Year</text>
  </g>
  <g class="guide xlabels" font-size="4.76" font-family="'PT Sans Caption','Helvetica Neue','Helvetica',sans-serif" fill="#FFFFFF" id="img-1a04214a-11">
    <text x="26.76" y="122.89" text-anchor="middle" dy="0.6em">1824</text>
    <text x="44.65" y="122.89" text-anchor="middle" dy="0.6em">1836</text>
    <text x="62.54" y="122.89" text-anchor="middle" dy="0.6em">1848</text>
    <text x="80.43" y="122.89" text-anchor="middle" dy="0.6em">1860</text>
    <text x="98.32" y="122.89" text-anchor="middle" dy="0.6em">1872</text>
    <text x="116.21" y="122.89" text-anchor="middle" dy="0.6em">1884</text>
    <text x="134.1" y="122.89" text-anchor="middle" dy="0.6em">1896</text>
    <text x="151.99" y="122.89" text-anchor="middle" dy="0.6em">1908</text>
    <text x="169.88" y="122.89" text-anchor="middle" dy="0.6em">1920</text>
    <text x="187.77" y="122.89" text-anchor="middle" dy="0.6em">1932</text>
    <text x="205.66" y="122.89" text-anchor="middle" dy="0.6em">1944</text>
    <text x="223.55" y="122.89" text-anchor="middle" dy="0.6em">1956</text>
    <text x="241.44" y="122.89" text-anchor="middle" dy="0.6em">1968</text>
    <text x="259.33" y="122.89" text-anchor="middle" dy="0.6em">1980</text>
    <text x="277.22" y="122.89" text-anchor="middle" dy="0.6em">1992</text>
    <text x="295.11" y="122.89" text-anchor="middle" dy="0.6em">2004</text>
    <text x="313" y="122.89" text-anchor="middle" dy="0.6em">2016</text>
  </g>
<g clip-path="url(#img-1a04214a-12)">
  <g id="img-1a04214a-13">
    <g pointer-events="visible" opacity="1" fill="#000000" fill-opacity="0.000" stroke="#000000" stroke-opacity="0.000" class="guide background" id="img-1a04214a-14">
      <rect x="24.76" y="15.35" width="290.24" height="106.54"/>
    </g>
    <g class="guide ygridlines xfixed" stroke-dasharray="0.5,0.5" stroke-width="0.26" stroke="#FFFFFF" id="img-1a04214a-15">
      <path fill="none" d="M24.76,119.89 L 315 119.89"/>
      <path fill="none" d="M24.76,94.26 L 315 94.26"/>
      <path fill="none" d="M24.76,68.62 L 315 68.62"/>
      <path fill="none" d="M24.76,42.99 L 315 42.99"/>
      <path fill="none" d="M24.76,17.35 L 315 17.35"/>
    </g>
    <g class="guide xgridlines yfixed" stroke-dasharray="0.5,0.5" stroke-width="0.26" stroke="#FFFFFF" id="img-1a04214a-16">
      <path fill="none" d="M26.76,15.35 L 26.76 121.89"/>
      <path fill="none" d="M44.65,15.35 L 44.65 121.89"/>
      <path fill="none" d="M62.54,15.35 L 62.54 121.89"/>
      <path fill="none" d="M80.43,15.35 L 80.43 121.89"/>
      <path fill="none" d="M98.32,15.35 L 98.32 121.89"/>
      <path fill="none" d="M116.21,15.35 L 116.21 121.89"/>
      <path fill="none" d="M134.1,15.35 L 134.1 121.89"/>
      <path fill="none" d="M151.99,15.35 L 151.99 121.89"/>
      <path fill="none" d="M169.88,15.35 L 169.88 121.89"/>
      <path fill="none" d="M187.77,15.35 L 187.77 121.89"/>
      <path fill="none" d="M205.66,15.35 L 205.66 121.89"/>
      <path fill="none" d="M223.55,15.35 L 223.55 121.89"/>
      <path fill="none" d="M241.44,15.35 L 241.44 121.89"/>
      <path fill="none" d="M259.33,15.35 L 259.33 121.89"/>
      <path fill="none" d="M277.22,15.35 L 277.22 121.89"/>
      <path fill="none" d="M295.11,15.35 L 295.11 121.89"/>
      <path fill="none" d="M313,15.35 L 313 121.89"/>
    </g>
    <g class="plotpanel" id="img-1a04214a-17">
      <g class="geometry" id="img-1a04214a-18">
        <g stroke-width="0.3" id="img-1a04214a-19">
          <use xlink:href="#img-1a04214a-20" x="80.43" y="119.89" stroke="#FFFFFF" fill="#FF0000" class="color_Republican"/>
          <use xlink:href="#img-1a04214a-20" x="92.36" y="83.25" stroke="#FFFFFF" fill="#FF0000" class="color_Republican"/>
          <use xlink:href="#img-1a04214a-20" x="98.32" y="73.72" stroke="#FFFFFF" fill="#FF0000" class="color_Republican"/>
          <use xlink:href="#img-1a04214a-20" x="104.28" y="91.21" stroke="#FFFFFF" fill="#FF0000" class="color_Republican"/>
          <use xlink:href="#img-1a04214a-20" x="110.25" y="84.42" stroke="#FFFFFF" fill="#FF0000" class="color_Republican"/>
          <use xlink:href="#img-1a04214a-20" x="116.21" y="85.19" stroke="#FFFFFF" fill="#FF0000" class="color_Republican"/>
          <use xlink:href="#img-1a04214a-20" x="122.17" y="90.84" stroke="#FFFFFF" fill="#FF0000" class="color_Republican"/>
          <use xlink:href="#img-1a04214a-20" x="128.14" y="97.64" stroke="#FFFFFF" fill="#FF0000" class="color_Republican"/>
          <use xlink:href="#img-1a04214a-20" x="134.1" y="82.41" stroke="#FFFFFF" fill="#FF0000" class="color_Republican"/>
          <use xlink:href="#img-1a04214a-20" x="140.06" y="90.96" stroke="#FFFFFF" fill="#FF0000" class="color_Republican"/>
          <use xlink:href="#img-1a04214a-20" x="146.03" y="101.1" stroke="#FFFFFF" fill="#FF0000" class="color_Republican"/>
          <use xlink:href="#img-1a04214a-20" x="151.99" y="87.89" stroke="#FFFFFF" fill="#FF0000" class="color_Republican"/>
          <use xlink:href="#img-1a04214a-20" x="157.95" y="115.51" stroke="#FFFFFF" fill="#FF0000" class="color_Republican"/>
          <use xlink:href="#img-1a04214a-20" x="163.92" y="112.68" stroke="#FFFFFF" fill="#FF0000" class="color_Republican"/>
          <use xlink:href="#img-1a04214a-20" x="169.88" y="91.56" stroke="#FFFFFF" fill="#FF0000" class="color_Republican"/>
          <use xlink:href="#img-1a04214a-20" x="175.84" y="101.24" stroke="#FFFFFF" fill="#FF0000" class="color_Republican"/>
          <use xlink:href="#img-1a04214a-20" x="181.81" y="75.43" stroke="#FFFFFF" fill="#FF0000" class="color_Republican"/>
          <use xlink:href="#img-1a04214a-20" x="187.77" y="111.92" stroke="#FFFFFF" fill="#FF0000" class="color_Republican"/>
          <use xlink:href="#img-1a04214a-20" x="193.73" y="106.97" stroke="#FFFFFF" fill="#FF0000" class="color_Republican"/>
          <use xlink:href="#img-1a04214a-20" x="199.7" y="104.68" stroke="#FFFFFF" fill="#FF0000" class="color_Republican"/>
          <use xlink:href="#img-1a04214a-20" x="205.66" y="101.18" stroke="#FFFFFF" fill="#FF0000" class="color_Republican"/>
          <use xlink:href="#img-1a04214a-20" x="211.62" y="101.11" stroke="#FFFFFF" fill="#FF0000" class="color_Republican"/>
          <use xlink:href="#img-1a04214a-20" x="217.59" y="88.78" stroke="#FFFFFF" fill="#FF0000" class="color_Republican"/>
          <use xlink:href="#img-1a04214a-20" x="223.55" y="86.41" stroke="#FFFFFF" fill="#FF0000" class="color_Republican"/>
          <use xlink:href="#img-1a04214a-20" x="229.51" y="81.51" stroke="#FFFFFF" fill="#FF0000" class="color_Republican"/>
          <use xlink:href="#img-1a04214a-20" x="235.48" y="64.4" stroke="#FFFFFF" fill="#FF0000" class="color_Republican"/>
          <use xlink:href="#img-1a04214a-20" x="241.44" y="88.72" stroke="#FFFFFF" fill="#FF0000" class="color_Republican"/>
          <use xlink:href="#img-1a04214a-20" x="247.4" y="42.95" stroke="#FFFFFF" fill="#FF0000" class="color_Republican"/>
          <use xlink:href="#img-1a04214a-20" x="253.37" y="86.09" stroke="#FFFFFF" fill="#FF0000" class="color_Republican"/>
          <use xlink:href="#img-1a04214a-20" x="259.33" y="77.9" stroke="#FFFFFF" fill="#FF0000" class="color_Republican"/>
          <use xlink:href="#img-1a04214a-20" x="265.29" y="58.19" stroke="#FFFFFF" fill="#FF0000" class="color_Republican"/>
          <use xlink:href="#img-1a04214a-20" x="271.26" y="58.62" stroke="#FFFFFF" fill="#FF0000" class="color_Republican"/>
          <use xlink:href="#img-1a04214a-20" x="277.22" y="75.92" stroke="#FFFFFF" fill="#FF0000" class="color_Republican"/>
          <use xlink:href="#img-1a04214a-20" x="283.18" y="71.68" stroke="#FFFFFF" fill="#FF0000" class="color_Republican"/>
          <use xlink:href="#img-1a04214a-20" x="289.15" y="63.83" stroke="#FFFFFF" fill="#FF0000" class="color_Republican"/>
          <use xlink:href="#img-1a04214a-20" x="295.11" y="60.49" stroke="#FFFFFF" fill="#FF0000" class="color_Republican"/>
          <use xlink:href="#img-1a04214a-20" x="301.07" y="66.46" stroke="#FFFFFF" fill="#FF0000" class="color_Republican"/>
          <use xlink:href="#img-1a04214a-20" x="307.04" y="65.35" stroke="#FFFFFF" fill="#FF0000" class="color_Republican"/>
          <use xlink:href="#img-1a04214a-20" x="32.72" y="20.64" stroke="#FFFFFF" fill="#0000FF" class="color_Democratic"/>
          <use xlink:href="#img-1a04214a-20" x="38.69" y="17.35" stroke="#FFFFFF" fill="#0000FF" class="color_Democratic"/>
          <use xlink:href="#img-1a04214a-20" x="44.65" y="70.47" stroke="#FFFFFF" fill="#0000FF" class="color_Democratic"/>
          <use xlink:href="#img-1a04214a-20" x="50.61" y="74.54" stroke="#FFFFFF" fill="#0000FF" class="color_Democratic"/>
          <use xlink:href="#img-1a04214a-20" x="56.58" y="67.4" stroke="#FFFFFF" fill="#0000FF" class="color_Democratic"/>
          <use xlink:href="#img-1a04214a-20" x="62.54" y="70.15" stroke="#FFFFFF" fill="#0000FF" class="color_Democratic"/>
          <use xlink:href="#img-1a04214a-20" x="68.5" y="53.55" stroke="#FFFFFF" fill="#0000FF" class="color_Democratic"/>
          <use xlink:href="#img-1a04214a-20" x="74.47" y="61.3" stroke="#FFFFFF" fill="#0000FF" class="color_Democratic"/>
          <use xlink:href="#img-1a04214a-20" x="80.43" y="108.76" stroke="#FFFFFF" fill="#0000FF" class="color_Democratic"/>
          <use xlink:href="#img-1a04214a-20" x="92.36" y="53.99" stroke="#FFFFFF" fill="#0000FF" class="color_Democratic"/>
          <use xlink:href="#img-1a04214a-20" x="98.32" y="63.52" stroke="#FFFFFF" fill="#0000FF" class="color_Democratic"/>
          <use xlink:href="#img-1a04214a-20" x="104.28" y="46.03" stroke="#FFFFFF" fill="#0000FF" class="color_Democratic"/>
          <use xlink:href="#img-1a04214a-20" x="110.25" y="52.82" stroke="#FFFFFF" fill="#0000FF" class="color_Democratic"/>
          <use xlink:href="#img-1a04214a-20" x="116.21" y="52.3" stroke="#FFFFFF" fill="#0000FF" class="color_Democratic"/>
          <use xlink:href="#img-1a04214a-20" x="122.17" y="47.8" stroke="#FFFFFF" fill="#0000FF" class="color_Democratic"/>
          <use xlink:href="#img-1a04214a-20" x="128.14" y="60.4" stroke="#FFFFFF" fill="#0000FF" class="color_Democratic"/>
          <use xlink:href="#img-1a04214a-20" x="134.1" y="60.64" stroke="#FFFFFF" fill="#0000FF" class="color_Democratic"/>
          <use xlink:href="#img-1a04214a-20" x="140.06" y="51.33" stroke="#FFFFFF" fill="#0000FF" class="color_Democratic"/>
          <use xlink:href="#img-1a04214a-20" x="146.03" y="54.55" stroke="#FFFFFF" fill="#0000FF" class="color_Democratic"/>
          <use xlink:href="#img-1a04214a-20" x="151.99" y="63.9" stroke="#FFFFFF" fill="#0000FF" class="color_Democratic"/>
          <use xlink:href="#img-1a04214a-20" x="157.95" y="41.31" stroke="#FFFFFF" fill="#0000FF" class="color_Democratic"/>
          <use xlink:href="#img-1a04214a-20" x="163.92" y="38.36" stroke="#FFFFFF" fill="#0000FF" class="color_Democratic"/>
          <use xlink:href="#img-1a04214a-20" x="169.88" y="46" stroke="#FFFFFF" fill="#0000FF" class="color_Democratic"/>
          <use xlink:href="#img-1a04214a-20" x="175.84" y="44.05" stroke="#FFFFFF" fill="#0000FF" class="color_Democratic"/>
          <use xlink:href="#img-1a04214a-20" x="181.81" y="61.9" stroke="#FFFFFF" fill="#0000FF" class="color_Democratic"/>
          <use xlink:href="#img-1a04214a-20" x="187.77" y="25.96" stroke="#FFFFFF" fill="#0000FF" class="color_Democratic"/>
          <use xlink:href="#img-1a04214a-20" x="193.73" y="30.58" stroke="#FFFFFF" fill="#0000FF" class="color_Democratic"/>
          <use xlink:href="#img-1a04214a-20" x="199.7" y="32.89" stroke="#FFFFFF" fill="#0000FF" class="color_Democratic"/>
          <use xlink:href="#img-1a04214a-20" x="205.66" y="36.08" stroke="#FFFFFF" fill="#0000FF" class="color_Democratic"/>
          <use xlink:href="#img-1a04214a-20" x="211.62" y="57.54" stroke="#FFFFFF" fill="#0000FF" class="color_Democratic"/>
          <use xlink:href="#img-1a04214a-20" x="217.59" y="48.46" stroke="#FFFFFF" fill="#0000FF" class="color_Democratic"/>
          <use xlink:href="#img-1a04214a-20" x="223.55" y="51.72" stroke="#FFFFFF" fill="#0000FF" class="color_Democratic"/>
          <use xlink:href="#img-1a04214a-20" x="229.51" y="55.76" stroke="#FFFFFF" fill="#0000FF" class="color_Democratic"/>
          <use xlink:href="#img-1a04214a-20" x="235.48" y="72.86" stroke="#FFFFFF" fill="#0000FF" class="color_Democratic"/>
          <use xlink:href="#img-1a04214a-20" x="241.44" y="92.46" stroke="#FFFFFF" fill="#0000FF" class="color_Democratic"/>
          <use xlink:href="#img-1a04214a-20" x="247.4" y="94.62" stroke="#FFFFFF" fill="#0000FF" class="color_Democratic"/>
          <use xlink:href="#img-1a04214a-20" x="253.37" y="51.45" stroke="#FFFFFF" fill="#0000FF" class="color_Democratic"/>
          <use xlink:href="#img-1a04214a-20" x="259.33" y="62.72" stroke="#FFFFFF" fill="#0000FF" class="color_Democratic"/>
          <use xlink:href="#img-1a04214a-20" x="265.29" y="79.09" stroke="#FFFFFF" fill="#0000FF" class="color_Democratic"/>
          <use xlink:href="#img-1a04214a-20" x="271.26" y="79.39" stroke="#FFFFFF" fill="#0000FF" class="color_Democratic"/>
          <use xlink:href="#img-1a04214a-20" x="277.22" y="75.32" stroke="#FFFFFF" fill="#0000FF" class="color_Democratic"/>
          <use xlink:href="#img-1a04214a-20" x="283.18" y="72.89" stroke="#FFFFFF" fill="#0000FF" class="color_Democratic"/>
          <use xlink:href="#img-1a04214a-20" x="289.15" y="75.81" stroke="#FFFFFF" fill="#0000FF" class="color_Democratic"/>
          <use xlink:href="#img-1a04214a-20" x="295.11" y="77.5" stroke="#FFFFFF" fill="#0000FF" class="color_Democratic"/>
          <use xlink:href="#img-1a04214a-20" x="301.07" y="71.8" stroke="#FFFFFF" fill="#0000FF" class="color_Democratic"/>
          <use xlink:href="#img-1a04214a-20" x="307.04" y="73.35" stroke="#FFFFFF" fill="#0000FF" class="color_Democratic"/>
        </g>
      </g>
      <g stroke-width="0.53" fill="#000000" fill-opacity="0.000" stroke-dasharray="none" id="img-1a04214a-21">
        <path fill="none" d="M32.72,20.64 L 38.69 17.35 44.65 70.47 50.61 74.54 56.58 67.4 62.54 70.15 68.5 53.55 74.47 61.3 80.43 108.76 92.36 53.99 98.32 63.52 104.28 46.03 110.25 52.82 116.21 52.3 122.17 47.8 128.14 60.4 134.1 60.64 140.06 51.33 146.03 54.55 151.99 63.9 157.95 41.31 163.92 38.36 169.88 46 175.84 44.05 181.81 61.9 187.77 25.96 193.73 30.58 199.7 32.89 205.66 36.08 211.62 57.54 217.59 48.46 223.55 51.72 229.51 55.76 235.48 72.86 241.44 92.46 247.4 94.62 253.37 51.45 259.33 62.72 265.29 79.09 271.26 79.39 277.22 75.32 283.18 72.89 289.15 75.81 295.11 77.5 301.07 71.8 307.04 73.35" stroke="#0000FF" class="geometry color_Democratic"/>
        <path fill="none" d="M80.43,119.89 L 92.36 83.25 98.32 73.72 104.28 91.21 110.25 84.42 116.21 85.19 122.17 90.84 128.14 97.64 134.1 82.41 140.06 90.96 146.03 101.1 151.99 87.89 157.95 115.51 163.92 112.68 169.88 91.56 175.84 101.24 181.81 75.43 187.77 111.92 193.73 106.97 199.7 104.68 205.66 101.18 211.62 101.11 217.59 88.78 223.55 86.41 229.51 81.51 235.48 64.4 241.44 88.72 247.4 42.95 253.37 86.09 259.33 77.9 265.29 58.19 271.26 58.62 277.22 75.92 283.18 71.68 289.15 63.83 295.11 60.49 301.07 66.46 307.04 65.35" stroke="#FF0000" class="geometry color_Republican"/>
      </g>
    </g>
  </g>
</g>
  <g class="guide ylabels" font-size="4.76" font-family="'PT Sans Caption','Helvetica Neue','Helvetica',sans-serif" fill="#FFFFFF" id="img-1a04214a-22">
    <text x="23.76" y="119.89" text-anchor="end" dy="0.35em">0</text>
    <text x="23.76" y="94.26" text-anchor="end" dy="0.35em">25</text>
    <text x="23.76" y="68.62" text-anchor="end" dy="0.35em">50</text>
    <text x="23.76" y="42.99" text-anchor="end" dy="0.35em">75</text>
    <text x="23.76" y="17.35" text-anchor="end" dy="0.35em">100</text>
  </g>
  <g font-size="6.35" font-family="'PT Sans','Helvetica Neue','Helvetica',sans-serif" fill="#FFFFFF" stroke="#000000" stroke-opacity="0.000" id="img-1a04214a-23">
    <text x="10.18" y="66.62" text-anchor="middle" dy="0.35em" transform="rotate(-90, 10.18, 68.62)">Popular Vote (%)</text>
  </g>
  <g font-size="6.35" font-family="'PT Sans','Helvetica Neue','Helvetica',sans-serif" fill="#FFFFFF" stroke="#000000" stroke-opacity="0.000" id="img-1a04214a-24">
    <text x="169.88" y="13.35" text-anchor="middle">Georgia</text>
  </g>
</g>
<defs>
  <clipPath id="img-1a04214a-12">
  <path d="M24.76,15.35 L 315 15.35 315 121.89 24.76 121.89" />
</clipPath>
  <g id="img-1a04214a-20">
    <circle cx="0" cy="0" r="0.9"/>
  </g>
</defs>
</svg>
