<svg xmlns="http://www.w3.org/2000/svg" xmlns:xlink="http://www.w3.org/1999/xlink" version="1.2" width="238.1mm" height="599.924" viewBox="0 0 238.1 158.73" stroke-width=".3" font-size="3.88"><path d="M0 0h238.1v158.73H0z" stroke="#000" stroke-opacity="0" fill="#222831"/><g class="plotroot xscalable yscalable"><g class="guide colorkey"><g class="color_Democratic"><text x="51.52" y="148.78" dy=".35em" fill="#A1A1A1" font-size="3.7" font-family="'PT Sans','Helvetica Neue','Helvetica',sans-serif">Democratic</text><path d="M48.29 147.66h2.22v2.22h-2.22z" fill="#00F" stroke="#000" stroke-opacity="0"/></g><g class="color_Republican"><text x="29.6" y="148.78" dy=".35em" fill="#A1A1A1" font-size="3.7" font-family="'PT Sans','Helvetica Neue','Helvetica',sans-serif">Republican</text><path d="M26.38 147.66h2.22v2.22h-2.22z" fill="#F00" stroke="#000" stroke-opacity="0"/></g><text x="26.38" y="145.28" fill="#A1A1A1" font-size="6.35" font-family="'PT Sans','Helvetica Neue','Helvetica',sans-serif" stroke="#000" stroke-opacity="0">Party</text></g><text x="129.24" y="130.46" text-anchor="middle" dy=".6em" font-size="6.35" font-family="'PT Sans','Helvetica Neue','Helvetica',sans-serif" fill="#A1A1A1" stroke="#000" stroke-opacity="0">Year</text><g class="guide xlabels" font-size="4.76" font-family="'PT Sans Caption','Helvetica Neue','Helvetica',sans-serif" fill="#A1A1A1" text-anchor="middle"><text x="27.38" y="121.95" dy=".6em">1956</text><text x="54.54" y="121.95" dy=".6em">1964</text><text x="81.7" y="121.95" dy=".6em">1972</text><text x="108.87" y="121.95" dy=".6em">1980</text><text x="136.03" y="121.95" dy=".6em">1988</text><text x="163.19" y="121.95" dy=".6em">1996</text><text x="190.35" y="121.95" dy=".6em">2004</text><text x="217.51" y="121.95" dy=".6em">2012</text></g><g clip-path="url(#a)"><path d="M25.38 12.91H233.1v108.04H25.38z" pointer-events="visible" fill="#222831" stroke="#000" stroke-opacity="0" class="guide background"/><g class="guide ygridlines xfixed" stroke-dasharray="0.5,0.5" stroke-width=".2" stroke="#575757" fill="none"><path d="M25.38 118.95H233.1M25.38 92.94H233.1M25.38 66.93H233.1M25.38 40.92H233.1M25.38 14.91H233.1"/></g><g class="guide xgridlines yfixed" stroke-dasharray="0.5,0.5" stroke-width=".2" stroke="#575757" fill="none"><path d="M27.38 12.91v108.04M54.54 12.91v108.04M81.7 12.91v108.04M108.87 12.91v108.04M136.03 12.91v108.04M163.19 12.91v108.04M190.35 12.91v108.04M217.51 12.91v108.04"/></g><g class="plotpanel"><g class="geometry"><use xlink:href="#b" x="40.96" y="66.96" stroke="#B3867B" fill="#F00" class="color_Republican"/><use xlink:href="#b" x="54.54" y="96.86" stroke="#B3867B" fill="#F00" class="color_Republican"/><use xlink:href="#b" x="68.12" y="78.68" stroke="#B3867B" fill="#F00" class="color_Republican"/><use xlink:href="#b" x="81.7" y="53.95" stroke="#B3867B" fill="#F00" class="color_Republican"/><use xlink:href="#b" x="95.28" y="68.95" stroke="#B3867B" fill="#F00" class="color_Republican"/><use xlink:href="#b" x="108.87" y="74.32" stroke="#B3867B" fill="#F00" class="color_Republican"/><use xlink:href="#b" x="122.45" y="61.63" stroke="#B3867B" fill="#F00" class="color_Republican"/><use xlink:href="#b" x="136.03" y="72.39" stroke="#B3867B" fill="#F00" class="color_Republican"/><use xlink:href="#b" x="149.61" y="80.77" stroke="#B3867B" fill="#F00" class="color_Republican"/><use xlink:href="#b" x="163.19" y="86.03" stroke="#B3867B" fill="#F00" class="color_Republican"/><use xlink:href="#b" x="176.77" y="79.98" stroke="#B3867B" fill="#F00" class="color_Republican"/><use xlink:href="#b" x="190.35" y="71.86" stroke="#B3867B" fill="#F00" class="color_Republican"/><use xlink:href="#b" x="203.93" y="91.3" stroke="#B3867B" fill="#F00" class="color_Republican"/><use xlink:href="#b" x="217.51" y="89.99" stroke="#B3867B" fill="#F00" class="color_Republican"/><use xlink:href="#b" x="40.96" y="66.9" stroke="#988BAD" fill="#00F" class="color_Democratic"/><use xlink:href="#b" x="54.54" y="37.01" stroke="#988BAD" fill="#00F" class="color_Democratic"/><use xlink:href="#b" x="68.12" y="56.71" stroke="#988BAD" fill="#00F" class="color_Democratic"/><use xlink:href="#b" x="81.7" y="79.92" stroke="#988BAD" fill="#00F" class="color_Democratic"/><use xlink:href="#b" x="95.28" y="66.32" stroke="#988BAD" fill="#00F" class="color_Democratic"/><use xlink:href="#b" x="108.87" y="72.34" stroke="#988BAD" fill="#00F" class="color_Democratic"/><use xlink:href="#b" x="122.45" y="73.37" stroke="#988BAD" fill="#00F" class="color_Democratic"/><use xlink:href="#b" x="136.03" y="62.49" stroke="#988BAD" fill="#00F" class="color_Democratic"/><use xlink:href="#b" x="149.61" y="68.92" stroke="#988BAD" fill="#00F" class="color_Democratic"/><use xlink:href="#b" x="163.19" y="59.72" stroke="#988BAD" fill="#00F" class="color_Democratic"/><use xlink:href="#b" x="176.77" y="60.91" stroke="#988BAD" fill="#00F" class="color_Democratic"/><use xlink:href="#b" x="190.35" y="62.76" stroke="#988BAD" fill="#00F" class="color_Democratic"/><use xlink:href="#b" x="203.93" y="44.2" stroke="#988BAD" fill="#00F" class="color_Democratic"/><use xlink:href="#b" x="217.51" y="45.56" stroke="#988BAD" fill="#00F" class="color_Democratic"/></g><g fill-opacity="0"><path fill="none" d="M40.96 66.9l13.58-29.89 13.58 19.7L81.7 79.92l13.58-13.6 13.59 6.02 13.58 1.03 13.58-10.88 13.58 6.43 13.58-9.2 13.58 1.19 13.58 1.85 13.58-18.56 13.58 1.36" stroke="#00F" class="geometry color_Democratic"/><path fill="none" d="M40.96 66.96l13.58 29.9 13.58-18.18L81.7 53.95l13.58 15 13.59 5.37 13.58-12.69 13.58 10.76 13.58 8.38 13.58 5.26 13.58-6.05 13.58-8.12 13.58 19.44 13.58-1.31" stroke="#F00" class="geometry color_Republican"/></g></g></g><g class="guide ylabels" font-size="4.76" font-family="'PT Sans Caption','Helvetica Neue','Helvetica',sans-serif" fill="#A1A1A1" text-anchor="end"><text x="24.38" y="118.95" dy=".35em">0</text><text x="24.38" y="92.94" dy=".35em">25</text><text x="24.38" y="66.93" dy=".35em">50</text><text x="24.38" y="40.92" dy=".35em">75</text><text x="24.38" y="14.91" dy=".35em">100</text></g><text x="9.95" y="64.93" text-anchor="middle" dy=".35em" transform="rotate(-90 9.95 66.93)" font-size="6.35" font-family="'PT Sans','Helvetica Neue','Helvetica',sans-serif" fill="#A1A1A1" stroke="#000" stroke-opacity="0">Popular Vote (%)</text><text x="129.24" y="5" text-anchor="middle" dy=".6em" font-size="6.35" font-family="'PT Sans','Helvetica Neue','Helvetica',sans-serif" fill="#A1A1A1" stroke="#000" stroke-opacity="0">Hawaii</text></g><defs><clipPath id="a"><path d="M25.38 12.91H233.1v108.04H25.38"/></clipPath><circle r=".9" id="b"/></defs></svg>