<?xml version="1.0" encoding="UTF-8"?>
<svg xmlns="http://www.w3.org/2000/svg"
     xmlns:xlink="http://www.w3.org/1999/xlink"
     xmlns:gadfly="http://www.gadflyjl.org/ns"
     version="1.2"
     width="238.1mm" height="158.73mm" viewBox="0 0 238.1 158.73"
     stroke="none"
     fill="#000000"
     stroke-width="0.3"
     font-size="3.88"
>
<g stroke="#000000" stroke-opacity="0.000" fill="#222831" id="img-def19ef4-1">
  <rect x="0" y="0" width="238.1" height="158.73"/>
</g>
<g class="plotroot xscalable yscalable" id="img-def19ef4-2">
  <g class="guide colorkey" id="img-def19ef4-3">
    <g class="color_Democratic" id="img-def19ef4-4">
      <g fill="#A1A1A1" font-size="3.7" font-family="'PT Sans','Helvetica Neue','Helvetica',sans-serif" id="img-def19ef4-5">
        <text x="51.52" y="148.78" dy="0.35em">Democratic</text>
      </g>
      <g fill="#0000FF" stroke="#000000" stroke-opacity="0.000" id="img-def19ef4-6">
        <rect x="48.29" y="147.66" width="2.22" height="2.22"/>
      </g>
    </g>
    <g class="color_Republican" id="img-def19ef4-7">
      <g fill="#A1A1A1" font-size="3.7" font-family="'PT Sans','Helvetica Neue','Helvetica',sans-serif" id="img-def19ef4-8">
        <text x="29.6" y="148.78" dy="0.35em">Republican</text>
      </g>
      <g fill="#FF0000" stroke="#000000" stroke-opacity="0.000" id="img-def19ef4-9">
        <rect x="26.38" y="147.66" width="2.22" height="2.22"/>
      </g>
    </g>
    <g fill="#A1A1A1" font-size="6.35" font-family="'PT Sans','Helvetica Neue','Helvetica',sans-serif" stroke="#000000" stroke-opacity="0.000" id="img-def19ef4-10">
      <text x="26.38" y="145.28">Party</text>
    </g>
  </g>
  <g font-size="6.35" font-family="'PT Sans','Helvetica Neue','Helvetica',sans-serif" fill="#A1A1A1" stroke="#000000" stroke-opacity="0.000" id="img-def19ef4-11">
    <text x="129.24" y="130.46" text-anchor="middle" dy="0.6em">Year</text>
  </g>
  <g class="guide xlabels" font-size="4.76" font-family="'PT Sans Caption','Helvetica Neue','Helvetica',sans-serif" fill="#A1A1A1" id="img-def19ef4-12">
    <text x="27.38" y="121.95" text-anchor="middle" dy="0.6em">1888</text>
    <text x="40.11" y="121.95" text-anchor="middle" dy="0.6em">1896</text>
    <text x="52.84" y="121.95" text-anchor="middle" dy="0.6em">1904</text>
    <text x="65.58" y="121.95" text-anchor="middle" dy="0.6em">1912</text>
    <text x="78.31" y="121.95" text-anchor="middle" dy="0.6em">1920</text>
    <text x="91.04" y="121.95" text-anchor="middle" dy="0.6em">1928</text>
    <text x="103.77" y="121.95" text-anchor="middle" dy="0.6em">1936</text>
    <text x="116.51" y="121.95" text-anchor="middle" dy="0.6em">1944</text>
    <text x="129.24" y="121.95" text-anchor="middle" dy="0.6em">1952</text>
    <text x="141.97" y="121.95" text-anchor="middle" dy="0.6em">1960</text>
    <text x="154.7" y="121.95" text-anchor="middle" dy="0.6em">1968</text>
    <text x="167.43" y="121.95" text-anchor="middle" dy="0.6em">1976</text>
    <text x="180.17" y="121.95" text-anchor="middle" dy="0.6em">1984</text>
    <text x="192.9" y="121.95" text-anchor="middle" dy="0.6em">1992</text>
    <text x="205.63" y="121.95" text-anchor="middle" dy="0.6em">2000</text>
    <text x="218.36" y="121.95" text-anchor="middle" dy="0.6em">2008</text>
    <text x="231.1" y="121.95" text-anchor="middle" dy="0.6em">2016</text>
  </g>
<g clip-path="url(#img-def19ef4-13)">
  <g id="img-def19ef4-14">
    <g pointer-events="visible" opacity="1" fill="#222831" stroke="#000000" stroke-opacity="0.000" class="guide background" id="img-def19ef4-15">
      <rect x="25.38" y="12.91" width="207.72" height="108.04"/>
    </g>
    <g class="guide ygridlines xfixed" stroke-dasharray="0.5,0.5" stroke-width="0.2" stroke="#575757" id="img-def19ef4-16">
      <path fill="none" d="M25.38,118.95 L 233.1 118.95"/>
      <path fill="none" d="M25.38,92.94 L 233.1 92.94"/>
      <path fill="none" d="M25.38,66.93 L 233.1 66.93"/>
      <path fill="none" d="M25.38,40.92 L 233.1 40.92"/>
      <path fill="none" d="M25.38,14.91 L 233.1 14.91"/>
    </g>
    <g class="guide xgridlines yfixed" stroke-dasharray="0.5,0.5" stroke-width="0.2" stroke="#575757" id="img-def19ef4-17">
      <path fill="none" d="M27.38,12.91 L 27.38 120.95"/>
      <path fill="none" d="M40.11,12.91 L 40.11 120.95"/>
      <path fill="none" d="M52.84,12.91 L 52.84 120.95"/>
      <path fill="none" d="M65.58,12.91 L 65.58 120.95"/>
      <path fill="none" d="M78.31,12.91 L 78.31 120.95"/>
      <path fill="none" d="M91.04,12.91 L 91.04 120.95"/>
      <path fill="none" d="M103.77,12.91 L 103.77 120.95"/>
      <path fill="none" d="M116.51,12.91 L 116.51 120.95"/>
      <path fill="none" d="M129.24,12.91 L 129.24 120.95"/>
      <path fill="none" d="M141.97,12.91 L 141.97 120.95"/>
      <path fill="none" d="M154.7,12.91 L 154.7 120.95"/>
      <path fill="none" d="M167.43,12.91 L 167.43 120.95"/>
      <path fill="none" d="M180.17,12.91 L 180.17 120.95"/>
      <path fill="none" d="M192.9,12.91 L 192.9 120.95"/>
      <path fill="none" d="M205.63,12.91 L 205.63 120.95"/>
      <path fill="none" d="M218.36,12.91 L 218.36 120.95"/>
      <path fill="none" d="M231.1,12.91 L 231.1 120.95"/>
    </g>
    <g class="plotpanel" id="img-def19ef4-18">
      <g class="geometry" id="img-def19ef4-19">
        <g stroke-width="0.3" id="img-def19ef4-20">
          <use xlink:href="#img-def19ef4-21" x="33.75" y="72.85" stroke="#B3867B" fill="#FF0000" class="color_Republican"/>
          <use xlink:href="#img-def19ef4-21" x="40.11" y="96.78" stroke="#B3867B" fill="#FF0000" class="color_Republican"/>
          <use xlink:href="#img-def19ef4-21" x="46.48" y="70.09" stroke="#B3867B" fill="#FF0000" class="color_Republican"/>
          <use xlink:href="#img-def19ef4-21" x="52.84" y="50.45" stroke="#B3867B" fill="#FF0000" class="color_Republican"/>
          <use xlink:href="#img-def19ef4-21" x="59.21" y="62.68" stroke="#B3867B" fill="#FF0000" class="color_Republican"/>
          <use xlink:href="#img-def19ef4-21" x="65.58" y="86.67" stroke="#B3867B" fill="#FF0000" class="color_Republican"/>
          <use xlink:href="#img-def19ef4-21" x="71.94" y="76.16" stroke="#B3867B" fill="#FF0000" class="color_Republican"/>
          <use xlink:href="#img-def19ef4-21" x="78.31" y="50.7" stroke="#B3867B" fill="#FF0000" class="color_Republican"/>
          <use xlink:href="#img-def19ef4-21" x="84.67" y="69.93" stroke="#B3867B" fill="#FF0000" class="color_Republican"/>
          <use xlink:href="#img-def19ef4-21" x="91.04" y="52.13" stroke="#B3867B" fill="#FF0000" class="color_Republican"/>
          <use xlink:href="#img-def19ef4-21" x="97.41" y="79.14" stroke="#B3867B" fill="#FF0000" class="color_Republican"/>
          <use xlink:href="#img-def19ef4-21" x="103.77" y="84.42" stroke="#B3867B" fill="#FF0000" class="color_Republican"/>
          <use xlink:href="#img-def19ef4-21" x="110.14" y="71.81" stroke="#B3867B" fill="#FF0000" class="color_Republican"/>
          <use xlink:href="#img-def19ef4-21" x="116.51" y="68.94" stroke="#B3867B" fill="#FF0000" class="color_Republican"/>
          <use xlink:href="#img-def19ef4-21" x="122.87" y="69.79" stroke="#B3867B" fill="#FF0000" class="color_Republican"/>
          <use xlink:href="#img-def19ef4-21" x="129.24" y="50.89" stroke="#B3867B" fill="#FF0000" class="color_Republican"/>
          <use xlink:href="#img-def19ef4-21" x="135.6" y="55.31" stroke="#B3867B" fill="#FF0000" class="color_Republican"/>
          <use xlink:href="#img-def19ef4-21" x="141.97" y="62.99" stroke="#B3867B" fill="#FF0000" class="color_Republican"/>
          <use xlink:href="#img-def19ef4-21" x="148.34" y="67.89" stroke="#B3867B" fill="#FF0000" class="color_Republican"/>
          <use xlink:href="#img-def19ef4-21" x="154.7" y="59.86" stroke="#B3867B" fill="#FF0000" class="color_Republican"/>
          <use xlink:href="#img-def19ef4-21" x="161.07" y="52.12" stroke="#B3867B" fill="#FF0000" class="color_Republican"/>
          <use xlink:href="#img-def19ef4-21" x="167.43" y="56.65" stroke="#B3867B" fill="#FF0000" class="color_Republican"/>
          <use xlink:href="#img-def19ef4-21" x="173.8" y="49.81" stroke="#B3867B" fill="#FF0000" class="color_Republican"/>
          <use xlink:href="#img-def19ef4-21" x="180.17" y="43.66" stroke="#B3867B" fill="#FF0000" class="color_Republican"/>
          <use xlink:href="#img-def19ef4-21" x="186.53" y="54.36" stroke="#B3867B" fill="#FF0000" class="color_Republican"/>
          <use xlink:href="#img-def19ef4-21" x="192.9" y="75.22" stroke="#B3867B" fill="#FF0000" class="color_Republican"/>
          <use xlink:href="#img-def19ef4-21" x="199.26" y="64.66" stroke="#B3867B" fill="#FF0000" class="color_Republican"/>
          <use xlink:href="#img-def19ef4-21" x="205.63" y="49.07" stroke="#B3867B" fill="#FF0000" class="color_Republican"/>
          <use xlink:href="#img-def19ef4-21" x="212" y="47.81" stroke="#B3867B" fill="#FF0000" class="color_Republican"/>
          <use xlink:href="#img-def19ef4-21" x="218.36" y="55.27" stroke="#B3867B" fill="#FF0000" class="color_Republican"/>
          <use xlink:href="#img-def19ef4-21" x="224.73" y="52.27" stroke="#B3867B" fill="#FF0000" class="color_Republican"/>
          <use xlink:href="#img-def19ef4-21" x="33.75" y="118.95" stroke="#988BAD" fill="#0000FF" class="color_Democratic"/>
          <use xlink:href="#img-def19ef4-21" x="40.11" y="37.69" stroke="#988BAD" fill="#0000FF" class="color_Democratic"/>
          <use xlink:href="#img-def19ef4-21" x="46.48" y="66.11" stroke="#988BAD" fill="#0000FF" class="color_Democratic"/>
          <use xlink:href="#img-def19ef4-21" x="52.84" y="92.46" stroke="#988BAD" fill="#0000FF" class="color_Democratic"/>
          <use xlink:href="#img-def19ef4-21" x="59.21" y="80.28" stroke="#988BAD" fill="#0000FF" class="color_Democratic"/>
          <use xlink:href="#img-def19ef4-21" x="65.58" y="85.58" stroke="#988BAD" fill="#0000FF" class="color_Democratic"/>
          <use xlink:href="#img-def19ef4-21" x="71.94" y="64.81" stroke="#988BAD" fill="#0000FF" class="color_Democratic"/>
          <use xlink:href="#img-def19ef4-21" x="78.31" y="83.22" stroke="#988BAD" fill="#0000FF" class="color_Democratic"/>
          <use xlink:href="#img-def19ef4-21" x="84.67" y="101.94" stroke="#988BAD" fill="#0000FF" class="color_Democratic"/>
          <use xlink:href="#img-def19ef4-21" x="91.04" y="82.62" stroke="#988BAD" fill="#0000FF" class="color_Democratic"/>
          <use xlink:href="#img-def19ef4-21" x="97.41" y="57.92" stroke="#988BAD" fill="#0000FF" class="color_Democratic"/>
          <use xlink:href="#img-def19ef4-21" x="103.77" y="53.45" stroke="#988BAD" fill="#0000FF" class="color_Democratic"/>
          <use xlink:href="#img-def19ef4-21" x="110.14" y="62.39" stroke="#988BAD" fill="#0000FF" class="color_Democratic"/>
          <use xlink:href="#img-def19ef4-21" x="116.51" y="65.31" stroke="#988BAD" fill="#0000FF" class="color_Democratic"/>
          <use xlink:href="#img-def19ef4-21" x="122.87" y="66.95" stroke="#988BAD" fill="#0000FF" class="color_Democratic"/>
          <use xlink:href="#img-def19ef4-21" x="129.24" y="83.14" stroke="#988BAD" fill="#0000FF" class="color_Democratic"/>
          <use xlink:href="#img-def19ef4-21" x="135.6" y="78.6" stroke="#988BAD" fill="#0000FF" class="color_Democratic"/>
          <use xlink:href="#img-def19ef4-21" x="141.97" y="70.87" stroke="#988BAD" fill="#0000FF" class="color_Democratic"/>
          <use xlink:href="#img-def19ef4-21" x="148.34" y="65.98" stroke="#988BAD" fill="#0000FF" class="color_Democratic"/>
          <use xlink:href="#img-def19ef4-21" x="154.7" y="87.06" stroke="#988BAD" fill="#0000FF" class="color_Democratic"/>
          <use xlink:href="#img-def19ef4-21" x="161.07" y="91.86" stroke="#988BAD" fill="#0000FF" class="color_Democratic"/>
          <use xlink:href="#img-def19ef4-21" x="167.43" y="80.33" stroke="#988BAD" fill="#0000FF" class="color_Democratic"/>
          <use xlink:href="#img-def19ef4-21" x="173.8" y="92.74" stroke="#988BAD" fill="#0000FF" class="color_Democratic"/>
          <use xlink:href="#img-def19ef4-21" x="180.17" y="91.49" stroke="#988BAD" fill="#0000FF" class="color_Democratic"/>
          <use xlink:href="#img-def19ef4-21" x="186.53" y="81.49" stroke="#988BAD" fill="#0000FF" class="color_Democratic"/>
          <use xlink:href="#img-def19ef4-21" x="192.9" y="89.39" stroke="#988BAD" fill="#0000FF" class="color_Democratic"/>
          <use xlink:href="#img-def19ef4-21" x="199.26" y="83.95" stroke="#988BAD" fill="#0000FF" class="color_Democratic"/>
          <use xlink:href="#img-def19ef4-21" x="205.63" y="90.2" stroke="#988BAD" fill="#0000FF" class="color_Democratic"/>
          <use xlink:href="#img-def19ef4-21" x="212" y="87.47" stroke="#988BAD" fill="#0000FF" class="color_Democratic"/>
          <use xlink:href="#img-def19ef4-21" x="218.36" y="81.59" stroke="#988BAD" fill="#0000FF" class="color_Democratic"/>
          <use xlink:href="#img-def19ef4-21" x="224.73" y="85.24" stroke="#988BAD" fill="#0000FF" class="color_Democratic"/>
        </g>
      </g>
      <g stroke-width="0.3" fill="#000000" fill-opacity="0.000" stroke-dasharray="none" id="img-def19ef4-22">
        <path fill="none" d="M33.75,118.95 L 40.11 37.69 46.48 66.11 52.84 92.46 59.21 80.28 65.58 85.58 71.94 64.81 78.31 83.22 84.67 101.94 91.04 82.62 97.41 57.92 103.77 53.45 110.14 62.39 116.51 65.31 122.87 66.95 129.24 83.14 135.6 78.6 141.97 70.87 148.34 65.98 154.7 87.06 161.07 91.86 167.43 80.33 173.8 92.74 180.17 91.49 186.53 81.49 192.9 89.39 199.26 83.95 205.63 90.2 212 87.47 218.36 81.59 224.73 85.24" stroke="#0000FF" class="geometry color_Democratic"/>
        <path fill="none" d="M33.75,72.85 L 40.11 96.78 46.48 70.09 52.84 50.45 59.21 62.68 65.58 86.67 71.94 76.16 78.31 50.7 84.67 69.93 91.04 52.13 97.41 79.14 103.77 84.42 110.14 71.81 116.51 68.94 122.87 69.79 129.24 50.89 135.6 55.31 141.97 62.99 148.34 67.89 154.7 59.86 161.07 52.12 167.43 56.65 173.8 49.81 180.17 43.66 186.53 54.36 192.9 75.22 199.26 64.66 205.63 49.07 212 47.81 218.36 55.27 224.73 52.27" stroke="#FF0000" class="geometry color_Republican"/>
      </g>
    </g>
  </g>
</g>
  <g class="guide ylabels" font-size="4.76" font-family="'PT Sans Caption','Helvetica Neue','Helvetica',sans-serif" fill="#A1A1A1" id="img-def19ef4-23">
    <text x="24.38" y="118.95" text-anchor="end" dy="0.35em">0</text>
    <text x="24.38" y="92.94" text-anchor="end" dy="0.35em">25</text>
    <text x="24.38" y="66.93" text-anchor="end" dy="0.35em">50</text>
    <text x="24.38" y="40.92" text-anchor="end" dy="0.35em">75</text>
    <text x="24.38" y="14.91" text-anchor="end" dy="0.35em">100</text>
  </g>
  <g font-size="6.35" font-family="'PT Sans','Helvetica Neue','Helvetica',sans-serif" fill="#A1A1A1" stroke="#000000" stroke-opacity="0.000" id="img-def19ef4-24">
    <text x="9.95" y="64.93" text-anchor="middle" dy="0.35em" transform="rotate(-90, 9.95, 66.93)">Popular Vote (%)</text>
  </g>
  <g font-size="6.35" font-family="'PT Sans','Helvetica Neue','Helvetica',sans-serif" fill="#A1A1A1" stroke="#000000" stroke-opacity="0.000" id="img-def19ef4-25">
    <text x="129.24" y="5" text-anchor="middle" dy="0.6em">Idaho</text>
  </g>
</g>
<defs>
  <clipPath id="img-def19ef4-13">
  <path d="M25.38,12.91 L 233.1 12.91 233.1 120.95 25.38 120.95" />
</clipPath>
  <g id="img-def19ef4-21">
    <circle cx="0" cy="0" r="0.9"/>
  </g>
</defs>
</svg>
