<svg xmlns="http://www.w3.org/2000/svg" xmlns:xlink="http://www.w3.org/1999/xlink" version="1.2" width="238.1mm" height="599.924" viewBox="0 0 238.1 158.73" stroke-width=".3" font-size="3.88"><path d="M0 0h238.1v158.73H0z" stroke="#000" stroke-opacity="0" fill="#222831"/><g class="plotroot xscalable yscalable"><g class="guide colorkey"><g class="color_Democratic"><text x="51.52" y="148.78" dy=".35em" fill="#A1A1A1" font-size="3.7" font-family="'PT Sans','Helvetica Neue','Helvetica',sans-serif">Democratic</text><path d="M48.29 147.66h2.22v2.22h-2.22z" fill="#00F" stroke="#000" stroke-opacity="0"/></g><g class="color_Republican"><text x="29.6" y="148.78" dy=".35em" fill="#A1A1A1" font-size="3.7" font-family="'PT Sans','Helvetica Neue','Helvetica',sans-serif">Republican</text><path d="M26.38 147.66h2.22v2.22h-2.22z" fill="#F00" stroke="#000" stroke-opacity="0"/></g><text x="26.38" y="145.28" fill="#A1A1A1" font-size="6.35" font-family="'PT Sans','Helvetica Neue','Helvetica',sans-serif" stroke="#000" stroke-opacity="0">Party</text></g><text x="129.24" y="130.46" text-anchor="middle" dy=".6em" font-size="6.35" font-family="'PT Sans','Helvetica Neue','Helvetica',sans-serif" fill="#A1A1A1" stroke="#000" stroke-opacity="0">Year</text><g class="guide xlabels" font-size="4.76" font-family="'PT Sans Caption','Helvetica Neue','Helvetica',sans-serif" fill="#A1A1A1" text-anchor="middle"><text x="27.38" y="121.95" dy=".6em">1844</text><text x="41.59" y="121.95" dy=".6em">1856</text><text x="55.8" y="121.95" dy=".6em">1868</text><text x="70.02" y="121.95" dy=".6em">1880</text><text x="84.23" y="121.95" dy=".6em">1892</text><text x="98.44" y="121.95" dy=".6em">1904</text><text x="112.66" y="121.95" dy=".6em">1916</text><text x="126.87" y="121.95" dy=".6em">1928</text><text x="141.08" y="121.95" dy=".6em">1940</text><text x="155.29" y="121.95" dy=".6em">1952</text><text x="169.51" y="121.95" dy=".6em">1964</text><text x="183.72" y="121.95" dy=".6em">1976</text><text x="197.93" y="121.95" dy=".6em">1988</text><text x="212.14" y="121.95" dy=".6em">2000</text><text x="226.36" y="121.95" dy=".6em">2012</text></g><g clip-path="url(#a)"><path d="M25.38 12.91H233.1v108.04H25.38z" pointer-events="visible" fill="#222831" stroke="#000" stroke-opacity="0" class="guide background"/><g class="guide ygridlines xfixed" stroke-dasharray="0.5,0.5" stroke-width=".2" stroke="#575757" fill="none"><path d="M25.38 118.95H233.1M25.38 92.94H233.1M25.38 66.93H233.1M25.38 40.92H233.1M25.38 14.91H233.1"/></g><g class="guide xgridlines yfixed" stroke-dasharray="0.5,0.5" stroke-width=".2" stroke="#575757" fill="none"><path d="M27.38 12.91v108.04M41.59 12.91v108.04M55.8 12.91v108.04M70.02 12.91v108.04M84.23 12.91v108.04M98.44 12.91v108.04M112.66 12.91v108.04M126.87 12.91v108.04M141.08 12.91v108.04M155.29 12.91v108.04M169.51 12.91v108.04M183.72 12.91v108.04M197.93 12.91v108.04M212.14 12.91v108.04M226.36 12.91v108.04"/></g><g class="plotpanel"><g class="geometry"><use xlink:href="#b" x="46.33" y="62.14" stroke="#B3867B" fill="#F00" class="color_Republican"/><use xlink:href="#b" x="51.07" y="52.24" stroke="#B3867B" fill="#F00" class="color_Republican"/><use xlink:href="#b" x="55.8" y="54.53" stroke="#B3867B" fill="#F00" class="color_Republican"/><use xlink:href="#b" x="60.54" y="55.69" stroke="#B3867B" fill="#F00" class="color_Republican"/><use xlink:href="#b" x="65.28" y="58.09" stroke="#B3867B" fill="#F00" class="color_Republican"/><use xlink:href="#b" x="70.02" y="59.65" stroke="#B3867B" fill="#F00" class="color_Republican"/><use xlink:href="#b" x="74.76" y="64.59" stroke="#B3867B" fill="#F00" class="color_Republican"/><use xlink:href="#b" x="79.49" y="64.48" stroke="#B3867B" fill="#F00" class="color_Republican"/><use xlink:href="#b" x="84.23" y="67.35" stroke="#B3867B" fill="#F00" class="color_Republican"/><use xlink:href="#b" x="88.97" y="61.24" stroke="#B3867B" fill="#F00" class="color_Republican"/><use xlink:href="#b" x="93.71" y="58.57" stroke="#B3867B" fill="#F00" class="color_Republican"/><use xlink:href="#b" x="98.44" y="52.99" stroke="#B3867B" fill="#F00" class="color_Republican"/><use xlink:href="#b" x="103.18" y="61.08" stroke="#B3867B" fill="#F00" class="color_Republican"/><use xlink:href="#b" x="107.92" y="93.64" stroke="#B3867B" fill="#F00" class="color_Republican"/><use xlink:href="#b" x="112.66" y="62.51" stroke="#B3867B" fill="#F00" class="color_Republican"/><use xlink:href="#b" x="117.39" y="45.18" stroke="#B3867B" fill="#F00" class="color_Republican"/><use xlink:href="#b" x="122.13" y="61.7" stroke="#B3867B" fill="#F00" class="color_Republican"/><use xlink:href="#b" x="126.87" y="54.68" stroke="#B3867B" fill="#F00" class="color_Republican"/><use xlink:href="#b" x="131.61" y="77.36" stroke="#B3867B" fill="#F00" class="color_Republican"/><use xlink:href="#b" x="136.34" y="74.52" stroke="#B3867B" fill="#F00" class="color_Republican"/><use xlink:href="#b" x="141.08" y="64.82" stroke="#B3867B" fill="#F00" class="color_Republican"/><use xlink:href="#b" x="145.82" y="64.86" stroke="#B3867B" fill="#F00" class="color_Republican"/><use xlink:href="#b" x="150.56" y="69.45" stroke="#B3867B" fill="#F00" class="color_Republican"/><use xlink:href="#b" x="155.29" y="52.62" stroke="#B3867B" fill="#F00" class="color_Republican"/><use xlink:href="#b" x="160.03" y="57.5" stroke="#B3867B" fill="#F00" class="color_Republican"/><use xlink:href="#b" x="164.77" y="59.95" stroke="#B3867B" fill="#F00" class="color_Republican"/><use xlink:href="#b" x="169.51" y="79.5" stroke="#B3867B" fill="#F00" class="color_Republican"/><use xlink:href="#b" x="174.24" y="63.8" stroke="#B3867B" fill="#F00" class="color_Republican"/><use xlink:href="#b" x="178.98" y="59.02" stroke="#B3867B" fill="#F00" class="color_Republican"/><use xlink:href="#b" x="183.72" y="67.48" stroke="#B3867B" fill="#F00" class="color_Republican"/><use xlink:href="#b" x="188.46" y="65.57" stroke="#B3867B" fill="#F00" class="color_Republican"/><use xlink:href="#b" x="193.19" y="63.53" stroke="#B3867B" fill="#F00" class="color_Republican"/><use xlink:href="#b" x="197.93" y="72.66" stroke="#B3867B" fill="#F00" class="color_Republican"/><use xlink:href="#b" x="202.67" y="80.17" stroke="#B3867B" fill="#F00" class="color_Republican"/><use xlink:href="#b" x="207.41" y="77.42" stroke="#B3867B" fill="#F00" class="color_Republican"/><use xlink:href="#b" x="212.14" y="68.78" stroke="#B3867B" fill="#F00" class="color_Republican"/><use xlink:href="#b" x="216.88" y="67.03" stroke="#B3867B" fill="#F00" class="color_Republican"/><use xlink:href="#b" x="221.62" y="72.77" stroke="#B3867B" fill="#F00" class="color_Republican"/><use xlink:href="#b" x="226.36" y="70.91" stroke="#B3867B" fill="#F00" class="color_Republican"/><use xlink:href="#b" x="32.12" y="66.45" stroke="#988BAD" fill="#00F" class="color_Democratic"/><use xlink:href="#b" x="36.85" y="66.69" stroke="#988BAD" fill="#00F" class="color_Democratic"/><use xlink:href="#b" x="41.59" y="76.61" stroke="#988BAD" fill="#00F" class="color_Democratic"/><use xlink:href="#b" x="46.33" y="73.99" stroke="#988BAD" fill="#00F" class="color_Democratic"/><use xlink:href="#b" x="51.07" y="81.62" stroke="#988BAD" fill="#00F" class="color_Democratic"/><use xlink:href="#b" x="55.8" y="79.33" stroke="#988BAD" fill="#00F" class="color_Democratic"/><use xlink:href="#b" x="60.54" y="84.72" stroke="#988BAD" fill="#00F" class="color_Democratic"/><use xlink:href="#b" x="65.28" y="79.12" stroke="#988BAD" fill="#00F" class="color_Democratic"/><use xlink:href="#b" x="70.02" y="84.82" stroke="#988BAD" fill="#00F" class="color_Democratic"/><use xlink:href="#b" x="74.76" y="70.04" stroke="#988BAD" fill="#00F" class="color_Democratic"/><use xlink:href="#b" x="79.49" y="72.64" stroke="#988BAD" fill="#00F" class="color_Democratic"/><use xlink:href="#b" x="84.23" y="72.85" stroke="#988BAD" fill="#00F" class="color_Democratic"/><use xlink:href="#b" x="88.97" y="74.32" stroke="#988BAD" fill="#00F" class="color_Democratic"/><use xlink:href="#b" x="93.71" y="77.9" stroke="#988BAD" fill="#00F" class="color_Democratic"/><use xlink:href="#b" x="98.44" y="87" stroke="#988BAD" fill="#00F" class="color_Democratic"/><use xlink:href="#b" x="103.18" y="76.73" stroke="#988BAD" fill="#00F" class="color_Democratic"/><use xlink:href="#b" x="107.92" y="79.79" stroke="#988BAD" fill="#00F" class="color_Democratic"/><use xlink:href="#b" x="112.66" y="74.33" stroke="#988BAD" fill="#00F" class="color_Democratic"/><use xlink:href="#b" x="117.39" y="92.46" stroke="#988BAD" fill="#00F" class="color_Democratic"/><use xlink:href="#b" x="122.13" y="101.87" stroke="#988BAD" fill="#00F" class="color_Democratic"/><use xlink:href="#b" x="126.87" y="79.86" stroke="#988BAD" fill="#00F" class="color_Democratic"/><use xlink:href="#b" x="131.61" y="58.94" stroke="#988BAD" fill="#00F" class="color_Democratic"/><use xlink:href="#b" x="136.34" y="62.34" stroke="#988BAD" fill="#00F" class="color_Democratic"/><use xlink:href="#b" x="141.08" y="69.41" stroke="#988BAD" fill="#00F" class="color_Democratic"/><use xlink:href="#b" x="145.82" y="69.54" stroke="#988BAD" fill="#00F" class="color_Democratic"/><use xlink:href="#b" x="150.56" y="66.61" stroke="#988BAD" fill="#00F" class="color_Democratic"/><use xlink:href="#b" x="155.29" y="81.93" stroke="#988BAD" fill="#00F" class="color_Democratic"/><use xlink:href="#b" x="160.03" y="76.66" stroke="#988BAD" fill="#00F" class="color_Democratic"/><use xlink:href="#b" x="164.77" y="73.98" stroke="#988BAD" fill="#00F" class="color_Democratic"/><use xlink:href="#b" x="169.51" y="54.57" stroke="#988BAD" fill="#00F" class="color_Democratic"/><use xlink:href="#b" x="174.24" y="76.49" stroke="#988BAD" fill="#00F" class="color_Democratic"/><use xlink:href="#b" x="178.98" y="76.84" stroke="#988BAD" fill="#00F" class="color_Democratic"/><use xlink:href="#b" x="183.72" y="68.54" stroke="#988BAD" fill="#00F" class="color_Democratic"/><use xlink:href="#b" x="188.46" y="78.79" stroke="#988BAD" fill="#00F" class="color_Democratic"/><use xlink:href="#b" x="193.19" y="71.21" stroke="#988BAD" fill="#00F" class="color_Democratic"/><use xlink:href="#b" x="197.93" y="62.03" stroke="#988BAD" fill="#00F" class="color_Democratic"/><use xlink:href="#b" x="202.67" y="73.92" stroke="#988BAD" fill="#00F" class="color_Democratic"/><use xlink:href="#b" x="207.41" y="66.66" stroke="#988BAD" fill="#00F" class="color_Democratic"/><use xlink:href="#b" x="212.14" y="68.46" stroke="#988BAD" fill="#00F" class="color_Democratic"/><use xlink:href="#b" x="216.88" y="67.73" stroke="#988BAD" fill="#00F" class="color_Democratic"/><use xlink:href="#b" x="221.62" y="62.84" stroke="#988BAD" fill="#00F" class="color_Democratic"/><use xlink:href="#b" x="226.36" y="64.86" stroke="#988BAD" fill="#00F" class="color_Democratic"/></g><g fill-opacity="0"><path fill="none" d="M32.12 66.45l4.73.24 4.74 9.92 4.74-2.62 4.74 7.63 4.73-2.29 4.74 5.39 4.74-5.6 4.74 5.7 4.74-14.78 4.73 2.6 4.74.21 4.74 1.47 4.74 3.58 4.73 9.1 4.74-10.27 4.74 3.06 4.74-5.46 4.73 18.13 4.74 9.41 4.74-22.01 4.74-20.92 4.73 3.4 4.74 7.07 4.74.13 4.74-2.93 4.73 15.32 4.74-5.27 4.74-2.68 4.74-19.41 4.73 21.92 4.74.35 4.74-8.3 4.74 10.25 4.73-7.58 4.74-9.18 4.74 11.89 4.74-7.26 4.73 1.8 4.74-.73 4.74-4.89 4.74 2.02" stroke="#00F" class="geometry color_Democratic"/><path fill="none" d="M46.33 62.14l4.74-9.9 4.73 2.29 4.74 1.16 4.74 2.4 4.74 1.56 4.74 4.94 4.73-.11 4.74 2.87 4.74-6.11 4.74-2.67 4.73-5.58 4.74 8.09 4.74 32.56 4.74-31.13 4.73-17.33 4.74 16.52 4.74-7.02 4.74 22.68 4.73-2.84 4.74-9.7 4.74.04 4.74 4.59 4.73-16.83 4.74 4.88 4.74 2.45 4.74 19.55 4.73-15.7 4.74-4.78 4.74 8.46 4.74-1.91 4.73-2.04 4.74 9.13 4.74 7.51 4.74-2.75 4.73-8.64 4.74-1.75 4.74 5.74 4.74-1.86" stroke="#F00" class="geometry color_Republican"/></g></g></g><g class="guide ylabels" font-size="4.76" font-family="'PT Sans Caption','Helvetica Neue','Helvetica',sans-serif" fill="#A1A1A1" text-anchor="end"><text x="24.38" y="118.95" dy=".35em">0</text><text x="24.38" y="92.94" dy=".35em">25</text><text x="24.38" y="66.93" dy=".35em">50</text><text x="24.38" y="40.92" dy=".35em">75</text><text x="24.38" y="14.91" dy=".35em">100</text></g><text x="9.95" y="64.93" text-anchor="middle" dy=".35em" transform="rotate(-90 9.95 66.93)" font-size="6.35" font-family="'PT Sans','Helvetica Neue','Helvetica',sans-serif" fill="#A1A1A1" stroke="#000" stroke-opacity="0">Popular Vote (%)</text><text x="129.24" y="5" text-anchor="middle" dy=".6em" font-size="6.35" font-family="'PT Sans','Helvetica Neue','Helvetica',sans-serif" fill="#A1A1A1" stroke="#000" stroke-opacity="0">Iowa</text></g><defs><clipPath id="a"><path d="M25.38 12.91H233.1v108.04H25.38"/></clipPath><circle r=".9" id="b"/></defs></svg>