<?xml version="1.0" encoding="UTF-8"?>
<svg xmlns="http://www.w3.org/2000/svg"
     xmlns:xlink="http://www.w3.org/1999/xlink"
     xmlns:gadfly="http://www.gadflyjl.org/ns"
     version="1.2"
     width="320mm" height="160mm" viewBox="0 0 320 160"
     stroke="none"
     fill="#000000"
     stroke-width="0.3"
     font-size="3.88"
>
<g class="plotroot xscalable yscalable" id="img-e7891eed-1">
  <g class="guide colorkey" id="img-e7891eed-2">
    <g class="color_Democratic" id="img-e7891eed-3">
      <g fill="#FFFFFF" font-size="4.76" font-family="'PT Sans','Helvetica Neue','Helvetica',sans-serif" id="img-e7891eed-4">
        <text x="58.33" y="149.82" dy="0.35em">Democratic</text>
      </g>
      <g fill="#0000FF" stroke="#000000" stroke-opacity="0.000" id="img-e7891eed-5">
        <rect x="54.36" y="148.34" width="2.97" height="2.97"/>
      </g>
    </g>
    <g class="color_Republican" id="img-e7891eed-6">
      <g fill="#FFFFFF" font-size="4.76" font-family="'PT Sans','Helvetica Neue','Helvetica',sans-serif" id="img-e7891eed-7">
        <text x="29.73" y="149.82" dy="0.35em">Republican</text>
      </g>
      <g fill="#FF0000" stroke="#000000" stroke-opacity="0.000" id="img-e7891eed-8">
        <rect x="25.76" y="148.34" width="2.97" height="2.97"/>
      </g>
    </g>
    <g fill="#FFFFFF" font-size="6.35" font-family="'PT Sans','Helvetica Neue','Helvetica',sans-serif" stroke="#000000" stroke-opacity="0.000" id="img-e7891eed-9">
      <text x="25.76" y="145.06">Party</text>
    </g>
  </g>
  <g font-size="6.35" font-family="'PT Sans','Helvetica Neue','Helvetica',sans-serif" fill="#FFFFFF" stroke="#000000" stroke-opacity="0.000" id="img-e7891eed-10">
    <text x="169.88" y="130.77" text-anchor="middle" dy="0.6em">Year</text>
  </g>
  <g class="guide xlabels" font-size="4.76" font-family="'PT Sans Caption','Helvetica Neue','Helvetica',sans-serif" fill="#FFFFFF" id="img-e7891eed-11">
    <text x="26.76" y="122.89" text-anchor="middle" dy="0.6em">1888</text>
    <text x="44.65" y="122.89" text-anchor="middle" dy="0.6em">1896</text>
    <text x="62.54" y="122.89" text-anchor="middle" dy="0.6em">1904</text>
    <text x="80.43" y="122.89" text-anchor="middle" dy="0.6em">1912</text>
    <text x="98.32" y="122.89" text-anchor="middle" dy="0.6em">1920</text>
    <text x="116.21" y="122.89" text-anchor="middle" dy="0.6em">1928</text>
    <text x="134.1" y="122.89" text-anchor="middle" dy="0.6em">1936</text>
    <text x="151.99" y="122.89" text-anchor="middle" dy="0.6em">1944</text>
    <text x="169.88" y="122.89" text-anchor="middle" dy="0.6em">1952</text>
    <text x="187.77" y="122.89" text-anchor="middle" dy="0.6em">1960</text>
    <text x="205.66" y="122.89" text-anchor="middle" dy="0.6em">1968</text>
    <text x="223.55" y="122.89" text-anchor="middle" dy="0.6em">1976</text>
    <text x="241.44" y="122.89" text-anchor="middle" dy="0.6em">1984</text>
    <text x="259.33" y="122.89" text-anchor="middle" dy="0.6em">1992</text>
    <text x="277.22" y="122.89" text-anchor="middle" dy="0.6em">2000</text>
    <text x="295.11" y="122.89" text-anchor="middle" dy="0.6em">2008</text>
    <text x="313" y="122.89" text-anchor="middle" dy="0.6em">2016</text>
  </g>
<g clip-path="url(#img-e7891eed-12)">
  <g id="img-e7891eed-13">
    <g pointer-events="visible" opacity="1" fill="#000000" fill-opacity="0.000" stroke="#000000" stroke-opacity="0.000" class="guide background" id="img-e7891eed-14">
      <rect x="24.76" y="13.94" width="290.24" height="107.95"/>
    </g>
    <g class="guide ygridlines xfixed" stroke-dasharray="0.5,0.5" stroke-width="0.26" stroke="#FFFFFF" id="img-e7891eed-15">
      <path fill="none" d="M24.76,119.89 L 315 119.89"/>
      <path fill="none" d="M24.76,93.9 L 315 93.9"/>
      <path fill="none" d="M24.76,67.92 L 315 67.92"/>
      <path fill="none" d="M24.76,41.93 L 315 41.93"/>
      <path fill="none" d="M24.76,15.94 L 315 15.94"/>
    </g>
    <g class="guide xgridlines yfixed" stroke-dasharray="0.5,0.5" stroke-width="0.26" stroke="#FFFFFF" id="img-e7891eed-16">
      <path fill="none" d="M26.76,13.94 L 26.76 121.89"/>
      <path fill="none" d="M44.65,13.94 L 44.65 121.89"/>
      <path fill="none" d="M62.54,13.94 L 62.54 121.89"/>
      <path fill="none" d="M80.43,13.94 L 80.43 121.89"/>
      <path fill="none" d="M98.32,13.94 L 98.32 121.89"/>
      <path fill="none" d="M116.21,13.94 L 116.21 121.89"/>
      <path fill="none" d="M134.1,13.94 L 134.1 121.89"/>
      <path fill="none" d="M151.99,13.94 L 151.99 121.89"/>
      <path fill="none" d="M169.88,13.94 L 169.88 121.89"/>
      <path fill="none" d="M187.77,13.94 L 187.77 121.89"/>
      <path fill="none" d="M205.66,13.94 L 205.66 121.89"/>
      <path fill="none" d="M223.55,13.94 L 223.55 121.89"/>
      <path fill="none" d="M241.44,13.94 L 241.44 121.89"/>
      <path fill="none" d="M259.33,13.94 L 259.33 121.89"/>
      <path fill="none" d="M277.22,13.94 L 277.22 121.89"/>
      <path fill="none" d="M295.11,13.94 L 295.11 121.89"/>
      <path fill="none" d="M313,13.94 L 313 121.89"/>
    </g>
    <g class="plotpanel" id="img-e7891eed-17">
      <g class="geometry" id="img-e7891eed-18">
        <g stroke-width="0.3" id="img-e7891eed-19">
          <use xlink:href="#img-e7891eed-20" x="35.7" y="73.83" stroke="#FFFFFF" fill="#FF0000" class="color_Republican"/>
          <use xlink:href="#img-e7891eed-20" x="44.65" y="97.73" stroke="#FFFFFF" fill="#FF0000" class="color_Republican"/>
          <use xlink:href="#img-e7891eed-20" x="53.59" y="71.07" stroke="#FFFFFF" fill="#FF0000" class="color_Republican"/>
          <use xlink:href="#img-e7891eed-20" x="62.54" y="51.45" stroke="#FFFFFF" fill="#FF0000" class="color_Republican"/>
          <use xlink:href="#img-e7891eed-20" x="71.48" y="63.67" stroke="#FFFFFF" fill="#FF0000" class="color_Republican"/>
          <use xlink:href="#img-e7891eed-20" x="80.43" y="87.64" stroke="#FFFFFF" fill="#FF0000" class="color_Republican"/>
          <use xlink:href="#img-e7891eed-20" x="89.37" y="77.14" stroke="#FFFFFF" fill="#FF0000" class="color_Republican"/>
          <use xlink:href="#img-e7891eed-20" x="98.32" y="51.69" stroke="#FFFFFF" fill="#FF0000" class="color_Republican"/>
          <use xlink:href="#img-e7891eed-20" x="107.26" y="70.91" stroke="#FFFFFF" fill="#FF0000" class="color_Republican"/>
          <use xlink:href="#img-e7891eed-20" x="116.21" y="53.13" stroke="#FFFFFF" fill="#FF0000" class="color_Republican"/>
          <use xlink:href="#img-e7891eed-20" x="125.15" y="80.11" stroke="#FFFFFF" fill="#FF0000" class="color_Republican"/>
          <use xlink:href="#img-e7891eed-20" x="134.1" y="85.39" stroke="#FFFFFF" fill="#FF0000" class="color_Republican"/>
          <use xlink:href="#img-e7891eed-20" x="143.04" y="72.79" stroke="#FFFFFF" fill="#FF0000" class="color_Republican"/>
          <use xlink:href="#img-e7891eed-20" x="151.99" y="69.92" stroke="#FFFFFF" fill="#FF0000" class="color_Republican"/>
          <use xlink:href="#img-e7891eed-20" x="160.93" y="70.77" stroke="#FFFFFF" fill="#FF0000" class="color_Republican"/>
          <use xlink:href="#img-e7891eed-20" x="169.88" y="51.89" stroke="#FFFFFF" fill="#FF0000" class="color_Republican"/>
          <use xlink:href="#img-e7891eed-20" x="178.82" y="56.31" stroke="#FFFFFF" fill="#FF0000" class="color_Republican"/>
          <use xlink:href="#img-e7891eed-20" x="187.77" y="63.98" stroke="#FFFFFF" fill="#FF0000" class="color_Republican"/>
          <use xlink:href="#img-e7891eed-20" x="196.71" y="68.87" stroke="#FFFFFF" fill="#FF0000" class="color_Republican"/>
          <use xlink:href="#img-e7891eed-20" x="205.66" y="60.85" stroke="#FFFFFF" fill="#FF0000" class="color_Republican"/>
          <use xlink:href="#img-e7891eed-20" x="214.6" y="53.11" stroke="#FFFFFF" fill="#FF0000" class="color_Republican"/>
          <use xlink:href="#img-e7891eed-20" x="223.55" y="57.64" stroke="#FFFFFF" fill="#FF0000" class="color_Republican"/>
          <use xlink:href="#img-e7891eed-20" x="232.49" y="50.81" stroke="#FFFFFF" fill="#FF0000" class="color_Republican"/>
          <use xlink:href="#img-e7891eed-20" x="241.44" y="44.67" stroke="#FFFFFF" fill="#FF0000" class="color_Republican"/>
          <use xlink:href="#img-e7891eed-20" x="250.38" y="55.36" stroke="#FFFFFF" fill="#FF0000" class="color_Republican"/>
          <use xlink:href="#img-e7891eed-20" x="259.33" y="76.2" stroke="#FFFFFF" fill="#FF0000" class="color_Republican"/>
          <use xlink:href="#img-e7891eed-20" x="268.27" y="65.65" stroke="#FFFFFF" fill="#FF0000" class="color_Republican"/>
          <use xlink:href="#img-e7891eed-20" x="277.22" y="50.07" stroke="#FFFFFF" fill="#FF0000" class="color_Republican"/>
          <use xlink:href="#img-e7891eed-20" x="286.16" y="48.81" stroke="#FFFFFF" fill="#FF0000" class="color_Republican"/>
          <use xlink:href="#img-e7891eed-20" x="295.11" y="56.27" stroke="#FFFFFF" fill="#FF0000" class="color_Republican"/>
          <use xlink:href="#img-e7891eed-20" x="304.05" y="53.27" stroke="#FFFFFF" fill="#FF0000" class="color_Republican"/>
          <use xlink:href="#img-e7891eed-20" x="35.7" y="119.89" stroke="#FFFFFF" fill="#0000FF" class="color_Democratic"/>
          <use xlink:href="#img-e7891eed-20" x="44.65" y="38.7" stroke="#FFFFFF" fill="#0000FF" class="color_Democratic"/>
          <use xlink:href="#img-e7891eed-20" x="53.59" y="67.09" stroke="#FFFFFF" fill="#0000FF" class="color_Democratic"/>
          <use xlink:href="#img-e7891eed-20" x="62.54" y="93.42" stroke="#FFFFFF" fill="#0000FF" class="color_Democratic"/>
          <use xlink:href="#img-e7891eed-20" x="71.48" y="81.25" stroke="#FFFFFF" fill="#0000FF" class="color_Democratic"/>
          <use xlink:href="#img-e7891eed-20" x="80.43" y="86.55" stroke="#FFFFFF" fill="#0000FF" class="color_Democratic"/>
          <use xlink:href="#img-e7891eed-20" x="89.37" y="65.79" stroke="#FFFFFF" fill="#0000FF" class="color_Democratic"/>
          <use xlink:href="#img-e7891eed-20" x="98.32" y="84.19" stroke="#FFFFFF" fill="#0000FF" class="color_Democratic"/>
          <use xlink:href="#img-e7891eed-20" x="107.26" y="102.89" stroke="#FFFFFF" fill="#0000FF" class="color_Democratic"/>
          <use xlink:href="#img-e7891eed-20" x="116.21" y="83.59" stroke="#FFFFFF" fill="#0000FF" class="color_Democratic"/>
          <use xlink:href="#img-e7891eed-20" x="125.15" y="58.91" stroke="#FFFFFF" fill="#0000FF" class="color_Democratic"/>
          <use xlink:href="#img-e7891eed-20" x="134.1" y="54.44" stroke="#FFFFFF" fill="#0000FF" class="color_Democratic"/>
          <use xlink:href="#img-e7891eed-20" x="143.04" y="63.38" stroke="#FFFFFF" fill="#0000FF" class="color_Democratic"/>
          <use xlink:href="#img-e7891eed-20" x="151.99" y="66.3" stroke="#FFFFFF" fill="#0000FF" class="color_Democratic"/>
          <use xlink:href="#img-e7891eed-20" x="160.93" y="67.93" stroke="#FFFFFF" fill="#0000FF" class="color_Democratic"/>
          <use xlink:href="#img-e7891eed-20" x="169.88" y="84.11" stroke="#FFFFFF" fill="#0000FF" class="color_Democratic"/>
          <use xlink:href="#img-e7891eed-20" x="178.82" y="79.58" stroke="#FFFFFF" fill="#0000FF" class="color_Democratic"/>
          <use xlink:href="#img-e7891eed-20" x="187.77" y="71.85" stroke="#FFFFFF" fill="#0000FF" class="color_Democratic"/>
          <use xlink:href="#img-e7891eed-20" x="196.71" y="66.96" stroke="#FFFFFF" fill="#0000FF" class="color_Democratic"/>
          <use xlink:href="#img-e7891eed-20" x="205.66" y="88.02" stroke="#FFFFFF" fill="#0000FF" class="color_Democratic"/>
          <use xlink:href="#img-e7891eed-20" x="214.6" y="92.82" stroke="#FFFFFF" fill="#0000FF" class="color_Democratic"/>
          <use xlink:href="#img-e7891eed-20" x="223.55" y="81.31" stroke="#FFFFFF" fill="#0000FF" class="color_Democratic"/>
          <use xlink:href="#img-e7891eed-20" x="232.49" y="93.71" stroke="#FFFFFF" fill="#0000FF" class="color_Democratic"/>
          <use xlink:href="#img-e7891eed-20" x="241.44" y="92.46" stroke="#FFFFFF" fill="#0000FF" class="color_Democratic"/>
          <use xlink:href="#img-e7891eed-20" x="250.38" y="82.46" stroke="#FFFFFF" fill="#0000FF" class="color_Democratic"/>
          <use xlink:href="#img-e7891eed-20" x="259.33" y="90.35" stroke="#FFFFFF" fill="#0000FF" class="color_Democratic"/>
          <use xlink:href="#img-e7891eed-20" x="268.27" y="84.92" stroke="#FFFFFF" fill="#0000FF" class="color_Democratic"/>
          <use xlink:href="#img-e7891eed-20" x="277.22" y="91.16" stroke="#FFFFFF" fill="#0000FF" class="color_Democratic"/>
          <use xlink:href="#img-e7891eed-20" x="286.16" y="88.43" stroke="#FFFFFF" fill="#0000FF" class="color_Democratic"/>
          <use xlink:href="#img-e7891eed-20" x="295.11" y="82.56" stroke="#FFFFFF" fill="#0000FF" class="color_Democratic"/>
          <use xlink:href="#img-e7891eed-20" x="304.05" y="86.21" stroke="#FFFFFF" fill="#0000FF" class="color_Democratic"/>
        </g>
      </g>
      <g stroke-width="0.53" fill="#000000" fill-opacity="0.000" stroke-dasharray="none" id="img-e7891eed-21">
        <path fill="none" d="M35.7,119.89 L 44.65 38.7 53.59 67.09 62.54 93.42 71.48 81.25 80.43 86.55 89.37 65.79 98.32 84.19 107.26 102.89 116.21 83.59 125.15 58.91 134.1 54.44 143.04 63.38 151.99 66.3 160.93 67.93 169.88 84.11 178.82 79.58 187.77 71.85 196.71 66.96 205.66 88.02 214.6 92.82 223.55 81.31 232.49 93.71 241.44 92.46 250.38 82.46 259.33 90.35 268.27 84.92 277.22 91.16 286.16 88.43 295.11 82.56 304.05 86.21" stroke="#0000FF" class="geometry color_Democratic"/>
        <path fill="none" d="M35.7,73.83 L 44.65 97.73 53.59 71.07 62.54 51.45 71.48 63.67 80.43 87.64 89.37 77.14 98.32 51.69 107.26 70.91 116.21 53.13 125.15 80.11 134.1 85.39 143.04 72.79 151.99 69.92 160.93 70.77 169.88 51.89 178.82 56.31 187.77 63.98 196.71 68.87 205.66 60.85 214.6 53.11 223.55 57.64 232.49 50.81 241.44 44.67 250.38 55.36 259.33 76.2 268.27 65.65 277.22 50.07 286.16 48.81 295.11 56.27 304.05 53.27" stroke="#FF0000" class="geometry color_Republican"/>
      </g>
    </g>
  </g>
</g>
  <g class="guide ylabels" font-size="4.76" font-family="'PT Sans Caption','Helvetica Neue','Helvetica',sans-serif" fill="#FFFFFF" id="img-e7891eed-22">
    <text x="23.76" y="119.89" text-anchor="end" dy="0.35em">0</text>
    <text x="23.76" y="93.9" text-anchor="end" dy="0.35em">25</text>
    <text x="23.76" y="67.92" text-anchor="end" dy="0.35em">50</text>
    <text x="23.76" y="41.93" text-anchor="end" dy="0.35em">75</text>
    <text x="23.76" y="15.94" text-anchor="end" dy="0.35em">100</text>
  </g>
  <g font-size="6.35" font-family="'PT Sans','Helvetica Neue','Helvetica',sans-serif" fill="#FFFFFF" stroke="#000000" stroke-opacity="0.000" id="img-e7891eed-23">
    <text x="10.18" y="65.92" text-anchor="middle" dy="0.35em" transform="rotate(-90, 10.18, 67.92)">Popular Vote (%)</text>
  </g>
  <g font-size="6.35" font-family="'PT Sans','Helvetica Neue','Helvetica',sans-serif" fill="#FFFFFF" stroke="#000000" stroke-opacity="0.000" id="img-e7891eed-24">
    <text x="169.88" y="11.94" text-anchor="middle">Idaho</text>
  </g>
</g>
<defs>
  <clipPath id="img-e7891eed-12">
  <path d="M24.76,13.94 L 315 13.94 315 121.89 24.76 121.89" />
</clipPath>
  <g id="img-e7891eed-20">
    <circle cx="0" cy="0" r="0.9"/>
  </g>
</defs>
</svg>
