<?xml version="1.0" encoding="UTF-8"?>
<svg xmlns="http://www.w3.org/2000/svg"
     xmlns:xlink="http://www.w3.org/1999/xlink"
     xmlns:gadfly="http://www.gadflyjl.org/ns"
     version="1.2"
     width="320mm" height="160mm" viewBox="0 0 320 160"
     stroke="none"
     fill="#000000"
     stroke-width="0.3"
     font-size="3.88"
>
<g class="plotroot xscalable yscalable" id="img-350a8729-1">
  <g class="guide colorkey" id="img-350a8729-2">
    <g class="color_Democratic" id="img-350a8729-3">
      <g fill="#4C404B" font-size="4.76" font-family="'PT Sans','Helvetica Neue','Helvetica',sans-serif" id="img-350a8729-4">
        <text x="57.56" y="150.05" dy="0.35em">Democratic</text>
      </g>
      <g fill="#0000FF" stroke="#000000" stroke-opacity="0.000" id="img-350a8729-5">
        <rect x="53.84" y="148.69" width="2.72" height="2.72"/>
      </g>
    </g>
    <g class="color_Republican" id="img-350a8729-6">
      <g fill="#4C404B" font-size="4.76" font-family="'PT Sans','Helvetica Neue','Helvetica',sans-serif" id="img-350a8729-7">
        <text x="30.1" y="150.05" dy="0.35em">Republican</text>
      </g>
      <g fill="#FF0000" stroke="#000000" stroke-opacity="0.000" id="img-350a8729-8">
        <rect x="26.38" y="148.69" width="2.72" height="2.72"/>
      </g>
    </g>
    <g fill="#362A35" font-size="6.35" font-family="'PT Sans','Helvetica Neue','Helvetica',sans-serif" stroke="#000000" stroke-opacity="0.000" id="img-350a8729-9">
      <text x="26.38" y="145.57">Party</text>
    </g>
  </g>
  <g font-size="6.35" font-family="'PT Sans','Helvetica Neue','Helvetica',sans-serif" fill="#564A55" stroke="#000000" stroke-opacity="0.000" id="img-350a8729-10">
    <text x="170.19" y="130.75" text-anchor="middle" dy="0.6em">Year</text>
  </g>
  <g class="guide xlabels" font-size="4.76" font-family="'PT Sans Caption','Helvetica Neue','Helvetica',sans-serif" fill="#6C606B" id="img-350a8729-11">
    <text x="27.38" y="122.24" text-anchor="middle" dy="0.6em">1844</text>
    <text x="47.31" y="122.24" text-anchor="middle" dy="0.6em">1856</text>
    <text x="67.23" y="122.24" text-anchor="middle" dy="0.6em">1868</text>
    <text x="87.16" y="122.24" text-anchor="middle" dy="0.6em">1880</text>
    <text x="107.09" y="122.24" text-anchor="middle" dy="0.6em">1892</text>
    <text x="127.01" y="122.24" text-anchor="middle" dy="0.6em">1904</text>
    <text x="146.94" y="122.24" text-anchor="middle" dy="0.6em">1916</text>
    <text x="166.87" y="122.24" text-anchor="middle" dy="0.6em">1928</text>
    <text x="186.8" y="122.24" text-anchor="middle" dy="0.6em">1940</text>
    <text x="206.72" y="122.24" text-anchor="middle" dy="0.6em">1952</text>
    <text x="226.65" y="122.24" text-anchor="middle" dy="0.6em">1964</text>
    <text x="246.58" y="122.24" text-anchor="middle" dy="0.6em">1976</text>
    <text x="266.5" y="122.24" text-anchor="middle" dy="0.6em">1988</text>
    <text x="286.43" y="122.24" text-anchor="middle" dy="0.6em">2000</text>
    <text x="306.36" y="122.24" text-anchor="middle" dy="0.6em">2012</text>
  </g>
<g clip-path="url(#img-350a8729-12)">
  <g id="img-350a8729-13">
    <g pointer-events="visible" opacity="1" fill="#000000" fill-opacity="0.000" stroke="#000000" stroke-opacity="0.000" class="guide background" id="img-350a8729-14">
      <rect x="25.38" y="14.91" width="289.62" height="106.33"/>
    </g>
    <g class="guide ygridlines xfixed" stroke-dasharray="0.5,0.5" stroke-width="0.26" stroke="#000000" id="img-350a8729-15">
      <path fill="none" d="M25.38,119.24 L 315 119.24"/>
      <path fill="none" d="M25.38,93.66 L 315 93.66"/>
      <path fill="none" d="M25.38,68.07 L 315 68.07"/>
      <path fill="none" d="M25.38,42.49 L 315 42.49"/>
      <path fill="none" d="M25.38,16.91 L 315 16.91"/>
    </g>
    <g class="guide xgridlines yfixed" stroke-dasharray="0.5,0.5" stroke-width="0.26" stroke="#000000" id="img-350a8729-16">
      <path fill="none" d="M27.38,14.91 L 27.38 121.24"/>
      <path fill="none" d="M47.31,14.91 L 47.31 121.24"/>
      <path fill="none" d="M67.23,14.91 L 67.23 121.24"/>
      <path fill="none" d="M87.16,14.91 L 87.16 121.24"/>
      <path fill="none" d="M107.09,14.91 L 107.09 121.24"/>
      <path fill="none" d="M127.01,14.91 L 127.01 121.24"/>
      <path fill="none" d="M146.94,14.91 L 146.94 121.24"/>
      <path fill="none" d="M166.87,14.91 L 166.87 121.24"/>
      <path fill="none" d="M186.8,14.91 L 186.8 121.24"/>
      <path fill="none" d="M206.72,14.91 L 206.72 121.24"/>
      <path fill="none" d="M226.65,14.91 L 226.65 121.24"/>
      <path fill="none" d="M246.58,14.91 L 246.58 121.24"/>
      <path fill="none" d="M266.5,14.91 L 266.5 121.24"/>
      <path fill="none" d="M286.43,14.91 L 286.43 121.24"/>
      <path fill="none" d="M306.36,14.91 L 306.36 121.24"/>
    </g>
    <g class="plotpanel" id="img-350a8729-17">
      <g class="geometry" id="img-350a8729-18">
        <g stroke-width="0.3" id="img-350a8729-19">
          <use xlink:href="#img-350a8729-20" x="53.95" y="63.36" class="color_Republican" fill="#FF0000" stroke="#FFFFFF"/>
          <use xlink:href="#img-350a8729-20" x="60.59" y="53.63" class="color_Republican" fill="#FF0000" stroke="#FFFFFF"/>
          <use xlink:href="#img-350a8729-20" x="67.23" y="55.88" class="color_Republican" fill="#FF0000" stroke="#FFFFFF"/>
          <use xlink:href="#img-350a8729-20" x="73.88" y="57.01" class="color_Republican" fill="#FF0000" stroke="#FFFFFF"/>
          <use xlink:href="#img-350a8729-20" x="80.52" y="59.38" class="color_Republican" fill="#FF0000" stroke="#FFFFFF"/>
          <use xlink:href="#img-350a8729-20" x="87.16" y="60.92" class="color_Republican" fill="#FF0000" stroke="#FFFFFF"/>
          <use xlink:href="#img-350a8729-20" x="93.8" y="65.77" class="color_Republican" fill="#FF0000" stroke="#FFFFFF"/>
          <use xlink:href="#img-350a8729-20" x="100.45" y="65.66" class="color_Republican" fill="#FF0000" stroke="#FFFFFF"/>
          <use xlink:href="#img-350a8729-20" x="107.09" y="68.49" class="color_Republican" fill="#FF0000" stroke="#FFFFFF"/>
          <use xlink:href="#img-350a8729-20" x="113.73" y="62.48" class="color_Republican" fill="#FF0000" stroke="#FFFFFF"/>
          <use xlink:href="#img-350a8729-20" x="120.37" y="59.85" class="color_Republican" fill="#FF0000" stroke="#FFFFFF"/>
          <use xlink:href="#img-350a8729-20" x="127.01" y="54.37" class="color_Republican" fill="#FF0000" stroke="#FFFFFF"/>
          <use xlink:href="#img-350a8729-20" x="133.66" y="62.32" class="color_Republican" fill="#FF0000" stroke="#FFFFFF"/>
          <use xlink:href="#img-350a8729-20" x="140.3" y="94.34" class="color_Republican" fill="#FF0000" stroke="#FFFFFF"/>
          <use xlink:href="#img-350a8729-20" x="146.94" y="63.73" class="color_Republican" fill="#FF0000" stroke="#FFFFFF"/>
          <use xlink:href="#img-350a8729-20" x="153.58" y="46.68" class="color_Republican" fill="#FF0000" stroke="#FFFFFF"/>
          <use xlink:href="#img-350a8729-20" x="160.23" y="62.93" class="color_Republican" fill="#FF0000" stroke="#FFFFFF"/>
          <use xlink:href="#img-350a8729-20" x="166.87" y="56.03" class="color_Republican" fill="#FF0000" stroke="#FFFFFF"/>
          <use xlink:href="#img-350a8729-20" x="173.51" y="78.33" class="color_Republican" fill="#FF0000" stroke="#FFFFFF"/>
          <use xlink:href="#img-350a8729-20" x="180.15" y="75.54" class="color_Republican" fill="#FF0000" stroke="#FFFFFF"/>
          <use xlink:href="#img-350a8729-20" x="186.8" y="66" class="color_Republican" fill="#FF0000" stroke="#FFFFFF"/>
          <use xlink:href="#img-350a8729-20" x="193.44" y="66.04" class="color_Republican" fill="#FF0000" stroke="#FFFFFF"/>
          <use xlink:href="#img-350a8729-20" x="200.08" y="70.55" class="color_Republican" fill="#FF0000" stroke="#FFFFFF"/>
          <use xlink:href="#img-350a8729-20" x="206.72" y="54" class="color_Republican" fill="#FF0000" stroke="#FFFFFF"/>
          <use xlink:href="#img-350a8729-20" x="213.36" y="58.8" class="color_Republican" fill="#FF0000" stroke="#FFFFFF"/>
          <use xlink:href="#img-350a8729-20" x="220.01" y="61.21" class="color_Republican" fill="#FF0000" stroke="#FFFFFF"/>
          <use xlink:href="#img-350a8729-20" x="226.65" y="80.44" class="color_Republican" fill="#FF0000" stroke="#FFFFFF"/>
          <use xlink:href="#img-350a8729-20" x="233.29" y="65" class="color_Republican" fill="#FF0000" stroke="#FFFFFF"/>
          <use xlink:href="#img-350a8729-20" x="239.93" y="60.29" class="color_Republican" fill="#FF0000" stroke="#FFFFFF"/>
          <use xlink:href="#img-350a8729-20" x="246.58" y="68.62" class="color_Republican" fill="#FF0000" stroke="#FFFFFF"/>
          <use xlink:href="#img-350a8729-20" x="253.22" y="66.74" class="color_Republican" fill="#FF0000" stroke="#FFFFFF"/>
          <use xlink:href="#img-350a8729-20" x="259.86" y="64.73" class="color_Republican" fill="#FF0000" stroke="#FFFFFF"/>
          <use xlink:href="#img-350a8729-20" x="266.5" y="73.71" class="color_Republican" fill="#FF0000" stroke="#FFFFFF"/>
          <use xlink:href="#img-350a8729-20" x="273.15" y="81.1" class="color_Republican" fill="#FF0000" stroke="#FFFFFF"/>
          <use xlink:href="#img-350a8729-20" x="279.79" y="78.39" class="color_Republican" fill="#FF0000" stroke="#FFFFFF"/>
          <use xlink:href="#img-350a8729-20" x="286.43" y="69.89" class="color_Republican" fill="#FF0000" stroke="#FFFFFF"/>
          <use xlink:href="#img-350a8729-20" x="293.07" y="68.18" class="color_Republican" fill="#FF0000" stroke="#FFFFFF"/>
          <use xlink:href="#img-350a8729-20" x="299.72" y="73.81" class="color_Republican" fill="#FF0000" stroke="#FFFFFF"/>
          <use xlink:href="#img-350a8729-20" x="306.36" y="71.99" class="color_Republican" fill="#FF0000" stroke="#FFFFFF"/>
          <use xlink:href="#img-350a8729-20" x="34.02" y="67.6" class="color_Democratic" fill="#0000FF" stroke="#FFFFFF"/>
          <use xlink:href="#img-350a8729-20" x="40.66" y="67.84" class="color_Democratic" fill="#0000FF" stroke="#FFFFFF"/>
          <use xlink:href="#img-350a8729-20" x="47.31" y="77.59" class="color_Democratic" fill="#0000FF" stroke="#FFFFFF"/>
          <use xlink:href="#img-350a8729-20" x="53.95" y="75.01" class="color_Democratic" fill="#0000FF" stroke="#FFFFFF"/>
          <use xlink:href="#img-350a8729-20" x="60.59" y="82.52" class="color_Democratic" fill="#0000FF" stroke="#FFFFFF"/>
          <use xlink:href="#img-350a8729-20" x="67.23" y="80.27" class="color_Democratic" fill="#0000FF" stroke="#FFFFFF"/>
          <use xlink:href="#img-350a8729-20" x="73.88" y="85.57" class="color_Democratic" fill="#0000FF" stroke="#FFFFFF"/>
          <use xlink:href="#img-350a8729-20" x="80.52" y="80.06" class="color_Democratic" fill="#0000FF" stroke="#FFFFFF"/>
          <use xlink:href="#img-350a8729-20" x="87.16" y="85.67" class="color_Democratic" fill="#0000FF" stroke="#FFFFFF"/>
          <use xlink:href="#img-350a8729-20" x="93.8" y="71.14" class="color_Democratic" fill="#0000FF" stroke="#FFFFFF"/>
          <use xlink:href="#img-350a8729-20" x="100.45" y="73.69" class="color_Democratic" fill="#0000FF" stroke="#FFFFFF"/>
          <use xlink:href="#img-350a8729-20" x="107.09" y="73.9" class="color_Democratic" fill="#0000FF" stroke="#FFFFFF"/>
          <use xlink:href="#img-350a8729-20" x="113.73" y="75.34" class="color_Democratic" fill="#0000FF" stroke="#FFFFFF"/>
          <use xlink:href="#img-350a8729-20" x="120.37" y="78.86" class="color_Democratic" fill="#0000FF" stroke="#FFFFFF"/>
          <use xlink:href="#img-350a8729-20" x="127.01" y="87.81" class="color_Democratic" fill="#0000FF" stroke="#FFFFFF"/>
          <use xlink:href="#img-350a8729-20" x="133.66" y="77.71" class="color_Democratic" fill="#0000FF" stroke="#FFFFFF"/>
          <use xlink:href="#img-350a8729-20" x="140.3" y="80.72" class="color_Democratic" fill="#0000FF" stroke="#FFFFFF"/>
          <use xlink:href="#img-350a8729-20" x="146.94" y="75.35" class="color_Democratic" fill="#0000FF" stroke="#FFFFFF"/>
          <use xlink:href="#img-350a8729-20" x="153.58" y="93.18" class="color_Democratic" fill="#0000FF" stroke="#FFFFFF"/>
          <use xlink:href="#img-350a8729-20" x="160.23" y="102.44" class="color_Democratic" fill="#0000FF" stroke="#FFFFFF"/>
          <use xlink:href="#img-350a8729-20" x="166.87" y="80.79" class="color_Democratic" fill="#0000FF" stroke="#FFFFFF"/>
          <use xlink:href="#img-350a8729-20" x="173.51" y="60.21" class="color_Democratic" fill="#0000FF" stroke="#FFFFFF"/>
          <use xlink:href="#img-350a8729-20" x="180.15" y="63.56" class="color_Democratic" fill="#0000FF" stroke="#FFFFFF"/>
          <use xlink:href="#img-350a8729-20" x="186.8" y="70.51" class="color_Democratic" fill="#0000FF" stroke="#FFFFFF"/>
          <use xlink:href="#img-350a8729-20" x="193.44" y="70.64" class="color_Democratic" fill="#0000FF" stroke="#FFFFFF"/>
          <use xlink:href="#img-350a8729-20" x="200.08" y="67.75" class="color_Democratic" fill="#0000FF" stroke="#FFFFFF"/>
          <use xlink:href="#img-350a8729-20" x="206.72" y="82.82" class="color_Democratic" fill="#0000FF" stroke="#FFFFFF"/>
          <use xlink:href="#img-350a8729-20" x="213.36" y="77.64" class="color_Democratic" fill="#0000FF" stroke="#FFFFFF"/>
          <use xlink:href="#img-350a8729-20" x="220.01" y="75.01" class="color_Democratic" fill="#0000FF" stroke="#FFFFFF"/>
          <use xlink:href="#img-350a8729-20" x="226.65" y="55.91" class="color_Democratic" fill="#0000FF" stroke="#FFFFFF"/>
          <use xlink:href="#img-350a8729-20" x="233.29" y="77.47" class="color_Democratic" fill="#0000FF" stroke="#FFFFFF"/>
          <use xlink:href="#img-350a8729-20" x="239.93" y="77.82" class="color_Democratic" fill="#0000FF" stroke="#FFFFFF"/>
          <use xlink:href="#img-350a8729-20" x="246.58" y="69.65" class="color_Democratic" fill="#0000FF" stroke="#FFFFFF"/>
          <use xlink:href="#img-350a8729-20" x="253.22" y="79.74" class="color_Democratic" fill="#0000FF" stroke="#FFFFFF"/>
          <use xlink:href="#img-350a8729-20" x="259.86" y="72.28" class="color_Democratic" fill="#0000FF" stroke="#FFFFFF"/>
          <use xlink:href="#img-350a8729-20" x="266.5" y="63.25" class="color_Democratic" fill="#0000FF" stroke="#FFFFFF"/>
          <use xlink:href="#img-350a8729-20" x="273.15" y="74.94" class="color_Democratic" fill="#0000FF" stroke="#FFFFFF"/>
          <use xlink:href="#img-350a8729-20" x="279.79" y="67.81" class="color_Democratic" fill="#0000FF" stroke="#FFFFFF"/>
          <use xlink:href="#img-350a8729-20" x="286.43" y="69.57" class="color_Democratic" fill="#0000FF" stroke="#FFFFFF"/>
          <use xlink:href="#img-350a8729-20" x="293.07" y="68.86" class="color_Democratic" fill="#0000FF" stroke="#FFFFFF"/>
          <use xlink:href="#img-350a8729-20" x="299.72" y="64.05" class="color_Democratic" fill="#0000FF" stroke="#FFFFFF"/>
          <use xlink:href="#img-350a8729-20" x="306.36" y="66.04" class="color_Democratic" fill="#0000FF" stroke="#FFFFFF"/>
        </g>
      </g>
      <g stroke-width="0.53" fill="#000000" fill-opacity="0.000" stroke-dasharray="none" id="img-350a8729-21">
        <path fill="none" d="M34.02,67.6 L 40.66 67.84 47.31 77.59 53.95 75.01 60.59 82.52 67.23 80.27 73.88 85.57 80.52 80.06 87.16 85.67 93.8 71.14 100.45 73.69 107.09 73.9 113.73 75.34 120.37 78.86 127.01 87.81 133.66 77.71 140.3 80.72 146.94 75.35 153.58 93.18 160.23 102.44 166.87 80.79 173.51 60.21 180.15 63.56 186.8 70.51 193.44 70.64 200.08 67.75 206.72 82.82 213.36 77.64 220.01 75.01 226.65 55.91 233.29 77.47 239.93 77.82 246.58 69.65 253.22 79.74 259.86 72.28 266.5 63.25 273.15 74.94 279.79 67.81 286.43 69.57 293.07 68.86 299.72 64.05 306.36 66.04" class="geometry color_Democratic" stroke="#0000FF"/>
        <path fill="none" d="M53.95,63.36 L 60.59 53.63 67.23 55.88 73.88 57.01 80.52 59.38 87.16 60.92 93.8 65.77 100.45 65.66 107.09 68.49 113.73 62.48 120.37 59.85 127.01 54.37 133.66 62.32 140.3 94.34 146.94 63.73 153.58 46.68 160.23 62.93 166.87 56.03 173.51 78.33 180.15 75.54 186.8 66 193.44 66.04 200.08 70.55 206.72 54 213.36 58.8 220.01 61.21 226.65 80.44 233.29 65 239.93 60.29 246.58 68.62 253.22 66.74 259.86 64.73 266.5 73.71 273.15 81.1 279.79 78.39 286.43 69.89 293.07 68.18 299.72 73.81 306.36 71.99" class="geometry color_Republican" stroke="#FF0000"/>
      </g>
    </g>
  </g>
</g>
  <g class="guide ylabels" font-size="4.76" font-family="'PT Sans Caption','Helvetica Neue','Helvetica',sans-serif" fill="#6C606B" id="img-350a8729-22">
    <text x="24.38" y="119.24" text-anchor="end" dy="0.35em">0</text>
    <text x="24.38" y="93.66" text-anchor="end" dy="0.35em">25</text>
    <text x="24.38" y="68.07" text-anchor="end" dy="0.35em">50</text>
    <text x="24.38" y="42.49" text-anchor="end" dy="0.35em">75</text>
    <text x="24.38" y="16.91" text-anchor="end" dy="0.35em">100</text>
  </g>
  <g font-size="6.35" font-family="'PT Sans','Helvetica Neue','Helvetica',sans-serif" fill="#564A55" stroke="#000000" stroke-opacity="0.000" id="img-350a8729-23">
    <text x="9.95" y="66.07" text-anchor="middle" dy="0.35em" transform="rotate(-90, 9.95, 68.07)">Popular Vote (%)</text>
  </g>
  <g font-size="6.35" font-family="'PT Sans','Helvetica Neue','Helvetica',sans-serif" fill="#564A55" stroke="#000000" stroke-opacity="0.000" id="img-350a8729-24">
    <text x="170.19" y="12.91" text-anchor="middle">Iowa</text>
  </g>
</g>
<defs>
  <clipPath id="img-350a8729-12">
  <path d="M25.38,14.91 L 315 14.91 315 121.24 25.38 121.24" />
</clipPath>
  <g id="img-350a8729-20">
    <circle cx="0" cy="0" r="0.9"/>
  </g>
</defs>
</svg>
