<?xml version="1.0" encoding="UTF-8"?>
<svg xmlns="http://www.w3.org/2000/svg"
     xmlns:xlink="http://www.w3.org/1999/xlink"
     xmlns:gadfly="http://www.gadflyjl.org/ns"
     version="1.2"
     width="238.1mm" height="158.73mm" viewBox="0 0 238.1 158.73"
     stroke="none"
     fill="#000000"
     stroke-width="0.3"
     font-size="3.88"
>
<g stroke="#000000" stroke-opacity="0.000" fill="#222831" id="img-8cce15c1-1">
  <rect x="0" y="0" width="238.1" height="158.73"/>
</g>
<g class="plotroot xscalable yscalable" id="img-8cce15c1-2">
  <g class="guide colorkey" id="img-8cce15c1-3">
    <g class="color_Democratic" id="img-8cce15c1-4">
      <g fill="#A1A1A1" font-size="3.7" font-family="'PT Sans','Helvetica Neue','Helvetica',sans-serif" id="img-8cce15c1-5">
        <text x="51.52" y="148.78" dy="0.35em">Democratic</text>
      </g>
      <g fill="#0000FF" stroke="#000000" stroke-opacity="0.000" id="img-8cce15c1-6">
        <rect x="48.29" y="147.66" width="2.22" height="2.22"/>
      </g>
    </g>
    <g class="color_Republican" id="img-8cce15c1-7">
      <g fill="#A1A1A1" font-size="3.7" font-family="'PT Sans','Helvetica Neue','Helvetica',sans-serif" id="img-8cce15c1-8">
        <text x="29.6" y="148.78" dy="0.35em">Republican</text>
      </g>
      <g fill="#FF0000" stroke="#000000" stroke-opacity="0.000" id="img-8cce15c1-9">
        <rect x="26.38" y="147.66" width="2.22" height="2.22"/>
      </g>
    </g>
    <g fill="#A1A1A1" font-size="6.35" font-family="'PT Sans','Helvetica Neue','Helvetica',sans-serif" stroke="#000000" stroke-opacity="0.000" id="img-8cce15c1-10">
      <text x="26.38" y="145.28">Party</text>
    </g>
  </g>
  <g font-size="6.35" font-family="'PT Sans','Helvetica Neue','Helvetica',sans-serif" fill="#A1A1A1" stroke="#000000" stroke-opacity="0.000" id="img-8cce15c1-11">
    <text x="129.24" y="130.46" text-anchor="middle" dy="0.6em">Year</text>
  </g>
  <g class="guide xlabels" font-size="4.76" font-family="'PT Sans Caption','Helvetica Neue','Helvetica',sans-serif" fill="#A1A1A1" id="img-8cce15c1-12">
    <text x="27.38" y="121.95" text-anchor="middle" dy="0.6em">1824</text>
    <text x="40.11" y="121.95" text-anchor="middle" dy="0.6em">1836</text>
    <text x="52.84" y="121.95" text-anchor="middle" dy="0.6em">1848</text>
    <text x="65.58" y="121.95" text-anchor="middle" dy="0.6em">1860</text>
    <text x="78.31" y="121.95" text-anchor="middle" dy="0.6em">1872</text>
    <text x="91.04" y="121.95" text-anchor="middle" dy="0.6em">1884</text>
    <text x="103.77" y="121.95" text-anchor="middle" dy="0.6em">1896</text>
    <text x="116.51" y="121.95" text-anchor="middle" dy="0.6em">1908</text>
    <text x="129.24" y="121.95" text-anchor="middle" dy="0.6em">1920</text>
    <text x="141.97" y="121.95" text-anchor="middle" dy="0.6em">1932</text>
    <text x="154.7" y="121.95" text-anchor="middle" dy="0.6em">1944</text>
    <text x="167.43" y="121.95" text-anchor="middle" dy="0.6em">1956</text>
    <text x="180.17" y="121.95" text-anchor="middle" dy="0.6em">1968</text>
    <text x="192.9" y="121.95" text-anchor="middle" dy="0.6em">1980</text>
    <text x="205.63" y="121.95" text-anchor="middle" dy="0.6em">1992</text>
    <text x="218.36" y="121.95" text-anchor="middle" dy="0.6em">2004</text>
    <text x="231.1" y="121.95" text-anchor="middle" dy="0.6em">2016</text>
  </g>
<g clip-path="url(#img-8cce15c1-13)">
  <g id="img-8cce15c1-14">
    <g pointer-events="visible" opacity="1" fill="#222831" stroke="#000000" stroke-opacity="0.000" class="guide background" id="img-8cce15c1-15">
      <rect x="25.38" y="12.91" width="207.72" height="108.04"/>
    </g>
    <g class="guide ygridlines xfixed" stroke-dasharray="0.5,0.5" stroke-width="0.2" stroke="#575757" id="img-8cce15c1-16">
      <path fill="none" d="M25.38,118.95 L 233.1 118.95"/>
      <path fill="none" d="M25.38,92.94 L 233.1 92.94"/>
      <path fill="none" d="M25.38,66.93 L 233.1 66.93"/>
      <path fill="none" d="M25.38,40.92 L 233.1 40.92"/>
      <path fill="none" d="M25.38,14.91 L 233.1 14.91"/>
    </g>
    <g class="guide xgridlines yfixed" stroke-dasharray="0.5,0.5" stroke-width="0.2" stroke="#575757" id="img-8cce15c1-17">
      <path fill="none" d="M27.38,12.91 L 27.38 120.95"/>
      <path fill="none" d="M40.11,12.91 L 40.11 120.95"/>
      <path fill="none" d="M52.84,12.91 L 52.84 120.95"/>
      <path fill="none" d="M65.58,12.91 L 65.58 120.95"/>
      <path fill="none" d="M78.31,12.91 L 78.31 120.95"/>
      <path fill="none" d="M91.04,12.91 L 91.04 120.95"/>
      <path fill="none" d="M103.77,12.91 L 103.77 120.95"/>
      <path fill="none" d="M116.51,12.91 L 116.51 120.95"/>
      <path fill="none" d="M129.24,12.91 L 129.24 120.95"/>
      <path fill="none" d="M141.97,12.91 L 141.97 120.95"/>
      <path fill="none" d="M154.7,12.91 L 154.7 120.95"/>
      <path fill="none" d="M167.43,12.91 L 167.43 120.95"/>
      <path fill="none" d="M180.17,12.91 L 180.17 120.95"/>
      <path fill="none" d="M192.9,12.91 L 192.9 120.95"/>
      <path fill="none" d="M205.63,12.91 L 205.63 120.95"/>
      <path fill="none" d="M218.36,12.91 L 218.36 120.95"/>
      <path fill="none" d="M231.1,12.91 L 231.1 120.95"/>
    </g>
    <g class="plotpanel" id="img-8cce15c1-18">
      <g class="geometry" id="img-8cce15c1-19">
        <g stroke-width="0.3" id="img-8cce15c1-20">
          <use xlink:href="#img-8cce15c1-21" x="65.58" y="66.22" stroke="#B3867B" fill="#FF0000" class="color_Republican"/>
          <use xlink:href="#img-8cce15c1-21" x="69.82" y="62.33" stroke="#B3867B" fill="#FF0000" class="color_Republican"/>
          <use xlink:href="#img-8cce15c1-21" x="74.06" y="61.01" stroke="#B3867B" fill="#FF0000" class="color_Republican"/>
          <use xlink:href="#img-8cce15c1-21" x="78.31" y="60.41" stroke="#B3867B" fill="#FF0000" class="color_Republican"/>
          <use xlink:href="#img-8cce15c1-21" x="82.55" y="66.72" stroke="#B3867B" fill="#FF0000" class="color_Republican"/>
          <use xlink:href="#img-8cce15c1-21" x="86.8" y="65.78" stroke="#B3867B" fill="#FF0000" class="color_Republican"/>
          <use xlink:href="#img-8cce15c1-21" x="91.04" y="66.76" stroke="#B3867B" fill="#FF0000" class="color_Republican"/>
          <use xlink:href="#img-8cce15c1-21" x="95.28" y="67.41" stroke="#B3867B" fill="#FF0000" class="color_Republican"/>
          <use xlink:href="#img-8cce15c1-21" x="99.53" y="71.4" stroke="#B3867B" fill="#FF0000" class="color_Republican"/>
          <use xlink:href="#img-8cce15c1-21" x="103.77" y="61.05" stroke="#B3867B" fill="#FF0000" class="color_Republican"/>
          <use xlink:href="#img-8cce15c1-21" x="108.02" y="63.99" stroke="#B3867B" fill="#FF0000" class="color_Republican"/>
          <use xlink:href="#img-8cce15c1-21" x="112.26" y="57.81" stroke="#B3867B" fill="#FF0000" class="color_Republican"/>
          <use xlink:href="#img-8cce15c1-21" x="116.51" y="62.22" stroke="#B3867B" fill="#FF0000" class="color_Republican"/>
          <use xlink:href="#img-8cce15c1-21" x="120.75" y="95.93" stroke="#B3867B" fill="#FF0000" class="color_Republican"/>
          <use xlink:href="#img-8cce15c1-21" x="124.99" y="64.27" stroke="#B3867B" fill="#FF0000" class="color_Republican"/>
          <use xlink:href="#img-8cce15c1-21" x="129.24" y="48.4" stroke="#B3867B" fill="#FF0000" class="color_Republican"/>
          <use xlink:href="#img-8cce15c1-21" x="133.48" y="57.74" stroke="#B3867B" fill="#FF0000" class="color_Republican"/>
          <use xlink:href="#img-8cce15c1-21" x="137.73" y="59.72" stroke="#B3867B" fill="#FF0000" class="color_Republican"/>
          <use xlink:href="#img-8cce15c1-21" x="141.97" y="75.21" stroke="#B3867B" fill="#FF0000" class="color_Republican"/>
          <use xlink:href="#img-8cce15c1-21" x="146.21" y="77.66" stroke="#B3867B" fill="#FF0000" class="color_Republican"/>
          <use xlink:href="#img-8cce15c1-21" x="150.46" y="68.45" stroke="#B3867B" fill="#FF0000" class="color_Republican"/>
          <use xlink:href="#img-8cce15c1-21" x="154.7" y="68.96" stroke="#B3867B" fill="#FF0000" class="color_Republican"/>
          <use xlink:href="#img-8cce15c1-21" x="158.95" y="67.74" stroke="#B3867B" fill="#FF0000" class="color_Republican"/>
          <use xlink:href="#img-8cce15c1-21" x="163.19" y="61.9" stroke="#B3867B" fill="#FF0000" class="color_Republican"/>
          <use xlink:href="#img-8cce15c1-21" x="167.43" y="57.03" stroke="#B3867B" fill="#FF0000" class="color_Republican"/>
          <use xlink:href="#img-8cce15c1-21" x="171.68" y="67.14" stroke="#B3867B" fill="#FF0000" class="color_Republican"/>
          <use xlink:href="#img-8cce15c1-21" x="175.92" y="76.79" stroke="#B3867B" fill="#FF0000" class="color_Republican"/>
          <use xlink:href="#img-8cce15c1-21" x="180.17" y="69.97" stroke="#B3867B" fill="#FF0000" class="color_Republican"/>
          <use xlink:href="#img-8cce15c1-21" x="184.41" y="57.54" stroke="#B3867B" fill="#FF0000" class="color_Republican"/>
          <use xlink:href="#img-8cce15c1-21" x="188.65" y="66.82" stroke="#B3867B" fill="#FF0000" class="color_Republican"/>
          <use xlink:href="#img-8cce15c1-21" x="192.9" y="67.3" stroke="#B3867B" fill="#FF0000" class="color_Republican"/>
          <use xlink:href="#img-8cce15c1-21" x="197.14" y="60.51" stroke="#B3867B" fill="#FF0000" class="color_Republican"/>
          <use xlink:href="#img-8cce15c1-21" x="201.39" y="66.22" stroke="#B3867B" fill="#FF0000" class="color_Republican"/>
          <use xlink:href="#img-8cce15c1-21" x="205.63" y="83.23" stroke="#B3867B" fill="#FF0000" class="color_Republican"/>
          <use xlink:href="#img-8cce15c1-21" x="209.87" y="80.66" stroke="#B3867B" fill="#FF0000" class="color_Republican"/>
          <use xlink:href="#img-8cce15c1-21" x="214.12" y="74.65" stroke="#B3867B" fill="#FF0000" class="color_Republican"/>
          <use xlink:href="#img-8cce15c1-21" x="218.36" y="72.68" stroke="#B3867B" fill="#FF0000" class="color_Republican"/>
          <use xlink:href="#img-8cce15c1-21" x="222.61" y="80.74" stroke="#B3867B" fill="#FF0000" class="color_Republican"/>
          <use xlink:href="#img-8cce15c1-21" x="226.85" y="76.65" stroke="#B3867B" fill="#FF0000" class="color_Republican"/>
          <use xlink:href="#img-8cce15c1-21" x="31.62" y="49.02" stroke="#988BAD" fill="#0000FF" class="color_Democratic"/>
          <use xlink:href="#img-8cce15c1-21" x="35.87" y="48.19" stroke="#988BAD" fill="#0000FF" class="color_Democratic"/>
          <use xlink:href="#img-8cce15c1-21" x="40.11" y="62.05" stroke="#988BAD" fill="#0000FF" class="color_Democratic"/>
          <use xlink:href="#img-8cce15c1-21" x="44.36" y="65.98" stroke="#988BAD" fill="#0000FF" class="color_Democratic"/>
          <use xlink:href="#img-8cce15c1-21" x="48.6" y="62.86" stroke="#988BAD" fill="#0000FF" class="color_Democratic"/>
          <use xlink:href="#img-8cce15c1-21" x="52.84" y="72.23" stroke="#988BAD" fill="#0000FF" class="color_Democratic"/>
          <use xlink:href="#img-8cce15c1-21" x="57.09" y="64.99" stroke="#988BAD" fill="#0000FF" class="color_Democratic"/>
          <use xlink:href="#img-8cce15c1-21" x="61.33" y="73.08" stroke="#988BAD" fill="#0000FF" class="color_Democratic"/>
          <use xlink:href="#img-8cce15c1-21" x="65.58" y="69.88" stroke="#988BAD" fill="#0000FF" class="color_Democratic"/>
          <use xlink:href="#img-8cce15c1-21" x="69.82" y="71.53" stroke="#988BAD" fill="#0000FF" class="color_Democratic"/>
          <use xlink:href="#img-8cce15c1-21" x="74.06" y="72.86" stroke="#988BAD" fill="#0000FF" class="color_Democratic"/>
          <use xlink:href="#img-8cce15c1-21" x="78.31" y="74.22" stroke="#988BAD" fill="#0000FF" class="color_Democratic"/>
          <use xlink:href="#img-8cce15c1-21" x="82.55" y="70.41" stroke="#988BAD" fill="#0000FF" class="color_Democratic"/>
          <use xlink:href="#img-8cce15c1-21" x="86.8" y="72.59" stroke="#988BAD" fill="#0000FF" class="color_Democratic"/>
          <use xlink:href="#img-8cce15c1-21" x="91.04" y="70.64" stroke="#988BAD" fill="#0000FF" class="color_Democratic"/>
          <use xlink:href="#img-8cce15c1-21" x="95.28" y="70.49" stroke="#988BAD" fill="#0000FF" class="color_Democratic"/>
          <use xlink:href="#img-8cce15c1-21" x="99.53" y="68.19" stroke="#988BAD" fill="#0000FF" class="color_Democratic"/>
          <use xlink:href="#img-8cce15c1-21" x="103.77" y="74.54" stroke="#988BAD" fill="#0000FF" class="color_Democratic"/>
          <use xlink:href="#img-8cce15c1-21" x="108.02" y="72.71" stroke="#988BAD" fill="#0000FF" class="color_Democratic"/>
          <use xlink:href="#img-8cce15c1-21" x="112.26" y="87.29" stroke="#988BAD" fill="#0000FF" class="color_Democratic"/>
          <use xlink:href="#img-8cce15c1-21" x="116.51" y="78.35" stroke="#988BAD" fill="#0000FF" class="color_Democratic"/>
          <use xlink:href="#img-8cce15c1-21" x="120.75" y="82.19" stroke="#988BAD" fill="#0000FF" class="color_Democratic"/>
          <use xlink:href="#img-8cce15c1-21" x="124.99" y="73.87" stroke="#988BAD" fill="#0000FF" class="color_Democratic"/>
          <use xlink:href="#img-8cce15c1-21" x="129.24" y="92.41" stroke="#988BAD" fill="#0000FF" class="color_Democratic"/>
          <use xlink:href="#img-8cce15c1-21" x="133.48" y="94.65" stroke="#988BAD" fill="#0000FF" class="color_Democratic"/>
          <use xlink:href="#img-8cce15c1-21" x="137.73" y="74.96" stroke="#988BAD" fill="#0000FF" class="color_Democratic"/>
          <use xlink:href="#img-8cce15c1-21" x="141.97" y="61.49" stroke="#988BAD" fill="#0000FF" class="color_Democratic"/>
          <use xlink:href="#img-8cce15c1-21" x="146.21" y="58.92" stroke="#988BAD" fill="#0000FF" class="color_Democratic"/>
          <use xlink:href="#img-8cce15c1-21" x="150.46" y="65.92" stroke="#988BAD" fill="#0000FF" class="color_Democratic"/>
          <use xlink:href="#img-8cce15c1-21" x="154.7" y="65.35" stroke="#988BAD" fill="#0000FF" class="color_Democratic"/>
          <use xlink:href="#img-8cce15c1-21" x="158.95" y="66.86" stroke="#988BAD" fill="#0000FF" class="color_Democratic"/>
          <use xlink:href="#img-8cce15c1-21" x="163.19" y="72.19" stroke="#988BAD" fill="#0000FF" class="color_Democratic"/>
          <use xlink:href="#img-8cce15c1-21" x="167.43" y="77.04" stroke="#988BAD" fill="#0000FF" class="color_Democratic"/>
          <use xlink:href="#img-8cce15c1-21" x="171.68" y="66.95" stroke="#988BAD" fill="#0000FF" class="color_Democratic"/>
          <use xlink:href="#img-8cce15c1-21" x="175.92" y="57.08" stroke="#988BAD" fill="#0000FF" class="color_Democratic"/>
          <use xlink:href="#img-8cce15c1-21" x="180.17" y="73.01" stroke="#988BAD" fill="#0000FF" class="color_Democratic"/>
          <use xlink:href="#img-8cce15c1-21" x="184.41" y="76.8" stroke="#988BAD" fill="#0000FF" class="color_Democratic"/>
          <use xlink:href="#img-8cce15c1-21" x="188.65" y="68.87" stroke="#988BAD" fill="#0000FF" class="color_Democratic"/>
          <use xlink:href="#img-8cce15c1-21" x="192.9" y="75.55" stroke="#988BAD" fill="#0000FF" class="color_Democratic"/>
          <use xlink:href="#img-8cce15c1-21" x="197.14" y="73.91" stroke="#988BAD" fill="#0000FF" class="color_Democratic"/>
          <use xlink:href="#img-8cce15c1-21" x="201.39" y="68.38" stroke="#988BAD" fill="#0000FF" class="color_Democratic"/>
          <use xlink:href="#img-8cce15c1-21" x="205.63" y="68.41" stroke="#988BAD" fill="#0000FF" class="color_Democratic"/>
          <use xlink:href="#img-8cce15c1-21" x="209.87" y="62.44" stroke="#988BAD" fill="#0000FF" class="color_Democratic"/>
          <use xlink:href="#img-8cce15c1-21" x="214.12" y="62.15" stroke="#988BAD" fill="#0000FF" class="color_Democratic"/>
          <use xlink:href="#img-8cce15c1-21" x="218.36" y="61.91" stroke="#988BAD" fill="#0000FF" class="color_Democratic"/>
          <use xlink:href="#img-8cce15c1-21" x="222.61" y="54.62" stroke="#988BAD" fill="#0000FF" class="color_Democratic"/>
          <use xlink:href="#img-8cce15c1-21" x="226.85" y="59.13" stroke="#988BAD" fill="#0000FF" class="color_Democratic"/>
        </g>
      </g>
      <g stroke-width="0.3" fill="#000000" fill-opacity="0.000" stroke-dasharray="none" id="img-8cce15c1-22">
        <path fill="none" d="M31.62,49.02 L 35.87 48.19 40.11 62.05 44.36 65.98 48.6 62.86 52.84 72.23 57.09 64.99 61.33 73.08 65.58 69.88 69.82 71.53 74.06 72.86 78.31 74.22 82.55 70.41 86.8 72.59 91.04 70.64 95.28 70.49 99.53 68.19 103.77 74.54 108.02 72.71 112.26 87.29 116.51 78.35 120.75 82.19 124.99 73.87 129.24 92.41 133.48 94.65 137.73 74.96 141.97 61.49 146.21 58.92 150.46 65.92 154.7 65.35 158.95 66.86 163.19 72.19 167.43 77.04 171.68 66.95 175.92 57.08 180.17 73.01 184.41 76.8 188.65 68.87 192.9 75.55 197.14 73.91 201.39 68.38 205.63 68.41 209.87 62.44 214.12 62.15 218.36 61.91 222.61 54.62 226.85 59.13" stroke="#0000FF" class="geometry color_Democratic"/>
        <path fill="none" d="M65.58,66.22 L 69.82 62.33 74.06 61.01 78.31 60.41 82.55 66.72 86.8 65.78 91.04 66.76 95.28 67.41 99.53 71.4 103.77 61.05 108.02 63.99 112.26 57.81 116.51 62.22 120.75 95.93 124.99 64.27 129.24 48.4 133.48 57.74 137.73 59.72 141.97 75.21 146.21 77.66 150.46 68.45 154.7 68.96 158.95 67.74 163.19 61.9 167.43 57.03 171.68 67.14 175.92 76.79 180.17 69.97 184.41 57.54 188.65 66.82 192.9 67.3 197.14 60.51 201.39 66.22 205.63 83.23 209.87 80.66 214.12 74.65 218.36 72.68 222.61 80.74 226.85 76.65" stroke="#FF0000" class="geometry color_Republican"/>
      </g>
    </g>
  </g>
</g>
  <g class="guide ylabels" font-size="4.76" font-family="'PT Sans Caption','Helvetica Neue','Helvetica',sans-serif" fill="#A1A1A1" id="img-8cce15c1-23">
    <text x="24.38" y="118.95" text-anchor="end" dy="0.35em">0</text>
    <text x="24.38" y="92.94" text-anchor="end" dy="0.35em">25</text>
    <text x="24.38" y="66.93" text-anchor="end" dy="0.35em">50</text>
    <text x="24.38" y="40.92" text-anchor="end" dy="0.35em">75</text>
    <text x="24.38" y="14.91" text-anchor="end" dy="0.35em">100</text>
  </g>
  <g font-size="6.35" font-family="'PT Sans','Helvetica Neue','Helvetica',sans-serif" fill="#A1A1A1" stroke="#000000" stroke-opacity="0.000" id="img-8cce15c1-24">
    <text x="9.95" y="64.93" text-anchor="middle" dy="0.35em" transform="rotate(-90, 9.95, 66.93)">Popular Vote (%)</text>
  </g>
  <g font-size="6.35" font-family="'PT Sans','Helvetica Neue','Helvetica',sans-serif" fill="#A1A1A1" stroke="#000000" stroke-opacity="0.000" id="img-8cce15c1-25">
    <text x="129.24" y="5" text-anchor="middle" dy="0.6em">Illinois</text>
  </g>
</g>
<defs>
  <clipPath id="img-8cce15c1-13">
  <path d="M25.38,12.91 L 233.1 12.91 233.1 120.95 25.38 120.95" />
</clipPath>
  <g id="img-8cce15c1-21">
    <circle cx="0" cy="0" r="0.9"/>
  </g>
</defs>
</svg>
