<svg xmlns="http://www.w3.org/2000/svg" xmlns:xlink="http://www.w3.org/1999/xlink" version="1.2" width="238.1mm" height="599.924" viewBox="0 0 238.1 158.73" stroke-width=".3" font-size="3.88"><path d="M0 0h238.1v158.73H0z" stroke="#000" stroke-opacity="0" fill="#222831"/><g class="plotroot xscalable yscalable"><g class="guide colorkey"><g class="color_Democratic"><text x="51.52" y="148.78" dy=".35em" fill="#A1A1A1" font-size="3.7" font-family="'PT Sans','Helvetica Neue','Helvetica',sans-serif">Democratic</text><path d="M48.29 147.66h2.22v2.22h-2.22z" fill="#00F" stroke="#000" stroke-opacity="0"/></g><g class="color_Republican"><text x="29.6" y="148.78" dy=".35em" fill="#A1A1A1" font-size="3.7" font-family="'PT Sans','Helvetica Neue','Helvetica',sans-serif">Republican</text><path d="M26.38 147.66h2.22v2.22h-2.22z" fill="#F00" stroke="#000" stroke-opacity="0"/></g><text x="26.38" y="145.28" fill="#A1A1A1" font-size="6.35" font-family="'PT Sans','Helvetica Neue','Helvetica',sans-serif" stroke="#000" stroke-opacity="0">Party</text></g><text x="129.24" y="130.46" text-anchor="middle" dy=".6em" font-size="6.35" font-family="'PT Sans','Helvetica Neue','Helvetica',sans-serif" fill="#A1A1A1" stroke="#000" stroke-opacity="0">Year</text><g class="guide xlabels" font-size="4.76" font-family="'PT Sans Caption','Helvetica Neue','Helvetica',sans-serif" fill="#A1A1A1" text-anchor="middle"><text x="27.38" y="121.95" dy=".6em">1888</text><text x="40.11" y="121.95" dy=".6em">1896</text><text x="52.84" y="121.95" dy=".6em">1904</text><text x="65.58" y="121.95" dy=".6em">1912</text><text x="78.31" y="121.95" dy=".6em">1920</text><text x="91.04" y="121.95" dy=".6em">1928</text><text x="103.77" y="121.95" dy=".6em">1936</text><text x="116.51" y="121.95" dy=".6em">1944</text><text x="129.24" y="121.95" dy=".6em">1952</text><text x="141.97" y="121.95" dy=".6em">1960</text><text x="154.7" y="121.95" dy=".6em">1968</text><text x="167.43" y="121.95" dy=".6em">1976</text><text x="180.17" y="121.95" dy=".6em">1984</text><text x="192.9" y="121.95" dy=".6em">1992</text><text x="205.63" y="121.95" dy=".6em">2000</text><text x="218.36" y="121.95" dy=".6em">2008</text><text x="231.1" y="121.95" dy=".6em">2016</text></g><g clip-path="url(#a)"><path d="M25.38 12.91H233.1v108.04H25.38z" pointer-events="visible" fill="#222831" stroke="#000" stroke-opacity="0" class="guide background"/><g class="guide ygridlines xfixed" stroke-dasharray="0.5,0.5" stroke-width=".2" stroke="#575757" fill="none"><path d="M25.38 118.95H233.1M25.38 92.94H233.1M25.38 66.93H233.1M25.38 40.92H233.1M25.38 14.91H233.1"/></g><g class="guide xgridlines yfixed" stroke-dasharray="0.5,0.5" stroke-width=".2" stroke="#575757" fill="none"><path d="M27.38 12.91v108.04M40.11 12.91v108.04M52.84 12.91v108.04M65.58 12.91v108.04M78.31 12.91v108.04M91.04 12.91v108.04M103.77 12.91v108.04M116.51 12.91v108.04M129.24 12.91v108.04M141.97 12.91v108.04M154.7 12.91v108.04M167.43 12.91v108.04M180.17 12.91v108.04M192.9 12.91v108.04M205.63 12.91v108.04M218.36 12.91v108.04M231.1 12.91v108.04"/></g><g class="plotpanel"><g class="geometry"><use xlink:href="#b" x="33.75" y="72.85" stroke="#B3867B" fill="#F00" class="color_Republican"/><use xlink:href="#b" x="40.11" y="96.78" stroke="#B3867B" fill="#F00" class="color_Republican"/><use xlink:href="#b" x="46.48" y="70.09" stroke="#B3867B" fill="#F00" class="color_Republican"/><use xlink:href="#b" x="52.84" y="50.45" stroke="#B3867B" fill="#F00" class="color_Republican"/><use xlink:href="#b" x="59.21" y="62.68" stroke="#B3867B" fill="#F00" class="color_Republican"/><use xlink:href="#b" x="65.58" y="86.67" stroke="#B3867B" fill="#F00" class="color_Republican"/><use xlink:href="#b" x="71.94" y="76.16" stroke="#B3867B" fill="#F00" class="color_Republican"/><use xlink:href="#b" x="78.31" y="50.7" stroke="#B3867B" fill="#F00" class="color_Republican"/><use xlink:href="#b" x="84.67" y="69.93" stroke="#B3867B" fill="#F00" class="color_Republican"/><use xlink:href="#b" x="91.04" y="52.13" stroke="#B3867B" fill="#F00" class="color_Republican"/><use xlink:href="#b" x="97.41" y="79.14" stroke="#B3867B" fill="#F00" class="color_Republican"/><use xlink:href="#b" x="103.77" y="84.42" stroke="#B3867B" fill="#F00" class="color_Republican"/><use xlink:href="#b" x="110.14" y="71.81" stroke="#B3867B" fill="#F00" class="color_Republican"/><use xlink:href="#b" x="116.51" y="68.94" stroke="#B3867B" fill="#F00" class="color_Republican"/><use xlink:href="#b" x="122.87" y="69.79" stroke="#B3867B" fill="#F00" class="color_Republican"/><use xlink:href="#b" x="129.24" y="50.89" stroke="#B3867B" fill="#F00" class="color_Republican"/><use xlink:href="#b" x="135.6" y="55.31" stroke="#B3867B" fill="#F00" class="color_Republican"/><use xlink:href="#b" x="141.97" y="62.99" stroke="#B3867B" fill="#F00" class="color_Republican"/><use xlink:href="#b" x="148.34" y="67.89" stroke="#B3867B" fill="#F00" class="color_Republican"/><use xlink:href="#b" x="154.7" y="59.86" stroke="#B3867B" fill="#F00" class="color_Republican"/><use xlink:href="#b" x="161.07" y="52.12" stroke="#B3867B" fill="#F00" class="color_Republican"/><use xlink:href="#b" x="167.43" y="56.65" stroke="#B3867B" fill="#F00" class="color_Republican"/><use xlink:href="#b" x="173.8" y="49.81" stroke="#B3867B" fill="#F00" class="color_Republican"/><use xlink:href="#b" x="180.17" y="43.66" stroke="#B3867B" fill="#F00" class="color_Republican"/><use xlink:href="#b" x="186.53" y="54.36" stroke="#B3867B" fill="#F00" class="color_Republican"/><use xlink:href="#b" x="192.9" y="75.22" stroke="#B3867B" fill="#F00" class="color_Republican"/><use xlink:href="#b" x="199.26" y="64.66" stroke="#B3867B" fill="#F00" class="color_Republican"/><use xlink:href="#b" x="205.63" y="49.07" stroke="#B3867B" fill="#F00" class="color_Republican"/><use xlink:href="#b" x="212" y="47.81" stroke="#B3867B" fill="#F00" class="color_Republican"/><use xlink:href="#b" x="218.36" y="55.27" stroke="#B3867B" fill="#F00" class="color_Republican"/><use xlink:href="#b" x="224.73" y="52.27" stroke="#B3867B" fill="#F00" class="color_Republican"/><use xlink:href="#b" x="33.75" y="118.95" stroke="#988BAD" fill="#00F" class="color_Democratic"/><use xlink:href="#b" x="40.11" y="37.69" stroke="#988BAD" fill="#00F" class="color_Democratic"/><use xlink:href="#b" x="46.48" y="66.11" stroke="#988BAD" fill="#00F" class="color_Democratic"/><use xlink:href="#b" x="52.84" y="92.46" stroke="#988BAD" fill="#00F" class="color_Democratic"/><use xlink:href="#b" x="59.21" y="80.28" stroke="#988BAD" fill="#00F" class="color_Democratic"/><use xlink:href="#b" x="65.58" y="85.58" stroke="#988BAD" fill="#00F" class="color_Democratic"/><use xlink:href="#b" x="71.94" y="64.81" stroke="#988BAD" fill="#00F" class="color_Democratic"/><use xlink:href="#b" x="78.31" y="83.22" stroke="#988BAD" fill="#00F" class="color_Democratic"/><use xlink:href="#b" x="84.67" y="101.94" stroke="#988BAD" fill="#00F" class="color_Democratic"/><use xlink:href="#b" x="91.04" y="82.62" stroke="#988BAD" fill="#00F" class="color_Democratic"/><use xlink:href="#b" x="97.41" y="57.92" stroke="#988BAD" fill="#00F" class="color_Democratic"/><use xlink:href="#b" x="103.77" y="53.45" stroke="#988BAD" fill="#00F" class="color_Democratic"/><use xlink:href="#b" x="110.14" y="62.39" stroke="#988BAD" fill="#00F" class="color_Democratic"/><use xlink:href="#b" x="116.51" y="65.31" stroke="#988BAD" fill="#00F" class="color_Democratic"/><use xlink:href="#b" x="122.87" y="66.95" stroke="#988BAD" fill="#00F" class="color_Democratic"/><use xlink:href="#b" x="129.24" y="83.14" stroke="#988BAD" fill="#00F" class="color_Democratic"/><use xlink:href="#b" x="135.6" y="78.6" stroke="#988BAD" fill="#00F" class="color_Democratic"/><use xlink:href="#b" x="141.97" y="70.87" stroke="#988BAD" fill="#00F" class="color_Democratic"/><use xlink:href="#b" x="148.34" y="65.98" stroke="#988BAD" fill="#00F" class="color_Democratic"/><use xlink:href="#b" x="154.7" y="87.06" stroke="#988BAD" fill="#00F" class="color_Democratic"/><use xlink:href="#b" x="161.07" y="91.86" stroke="#988BAD" fill="#00F" class="color_Democratic"/><use xlink:href="#b" x="167.43" y="80.33" stroke="#988BAD" fill="#00F" class="color_Democratic"/><use xlink:href="#b" x="173.8" y="92.74" stroke="#988BAD" fill="#00F" class="color_Democratic"/><use xlink:href="#b" x="180.17" y="91.49" stroke="#988BAD" fill="#00F" class="color_Democratic"/><use xlink:href="#b" x="186.53" y="81.49" stroke="#988BAD" fill="#00F" class="color_Democratic"/><use xlink:href="#b" x="192.9" y="89.39" stroke="#988BAD" fill="#00F" class="color_Democratic"/><use xlink:href="#b" x="199.26" y="83.95" stroke="#988BAD" fill="#00F" class="color_Democratic"/><use xlink:href="#b" x="205.63" y="90.2" stroke="#988BAD" fill="#00F" class="color_Democratic"/><use xlink:href="#b" x="212" y="87.47" stroke="#988BAD" fill="#00F" class="color_Democratic"/><use xlink:href="#b" x="218.36" y="81.59" stroke="#988BAD" fill="#00F" class="color_Democratic"/><use xlink:href="#b" x="224.73" y="85.24" stroke="#988BAD" fill="#00F" class="color_Democratic"/></g><g fill-opacity="0"><path fill="none" d="M33.75 118.95l6.36-81.26 6.37 28.42 6.36 26.35 6.37-12.18 6.37 5.3 6.36-20.77 6.37 18.41 6.36 18.72 6.37-19.32 6.37-24.7 6.36-4.47 6.37 8.94 6.37 2.92 6.36 1.64 6.37 16.19 6.36-4.54 6.37-7.73 6.37-4.89 6.36 21.08 6.37 4.8 6.36-11.53 6.37 12.41 6.37-1.25 6.36-10 6.37 7.9 6.36-5.44 6.37 6.25 6.37-2.73 6.36-5.88 6.37 3.65" stroke="#00F" class="geometry color_Democratic"/><path fill="none" d="M33.75 72.85l6.36 23.93 6.37-26.69 6.36-19.64 6.37 12.23 6.37 23.99 6.36-10.51 6.37-25.46 6.36 19.23 6.37-17.8 6.37 27.01 6.36 5.28 6.37-12.61 6.37-2.87 6.36.85 6.37-18.9 6.36 4.42 6.37 7.68 6.37 4.9 6.36-8.03 6.37-7.74 6.36 4.53 6.37-6.84 6.37-6.15 6.36 10.7 6.37 20.86 6.36-10.56 6.37-15.59 6.37-1.26 6.36 7.46 6.37-3" stroke="#F00" class="geometry color_Republican"/></g></g></g><g class="guide ylabels" font-size="4.76" font-family="'PT Sans Caption','Helvetica Neue','Helvetica',sans-serif" fill="#A1A1A1" text-anchor="end"><text x="24.38" y="118.95" dy=".35em">0</text><text x="24.38" y="92.94" dy=".35em">25</text><text x="24.38" y="66.93" dy=".35em">50</text><text x="24.38" y="40.92" dy=".35em">75</text><text x="24.38" y="14.91" dy=".35em">100</text></g><text x="9.95" y="64.93" text-anchor="middle" dy=".35em" transform="rotate(-90 9.95 66.93)" font-size="6.35" font-family="'PT Sans','Helvetica Neue','Helvetica',sans-serif" fill="#A1A1A1" stroke="#000" stroke-opacity="0">Popular Vote (%)</text><text x="129.24" y="5" text-anchor="middle" dy=".6em" font-size="6.35" font-family="'PT Sans','Helvetica Neue','Helvetica',sans-serif" fill="#A1A1A1" stroke="#000" stroke-opacity="0">Idaho</text></g><defs><clipPath id="a"><path d="M25.38 12.91H233.1v108.04H25.38"/></clipPath><circle r=".9" id="b"/></defs></svg>