<?xml version="1.0" encoding="UTF-8"?>
<svg xmlns="http://www.w3.org/2000/svg"
     xmlns:xlink="http://www.w3.org/1999/xlink"
     xmlns:gadfly="http://www.gadflyjl.org/ns"
     version="1.2"
     width="320mm" height="160mm" viewBox="0 0 320 160"
     stroke="none"
     fill="#000000"
     stroke-width="0.3"
     font-size="3.88"
>
<g class="plotroot xscalable yscalable" id="img-a4364979-1">
  <g class="guide colorkey" id="img-a4364979-2">
    <g class="color_Democratic" id="img-a4364979-3">
      <g fill="#FFFFFF" font-size="4.76" font-family="'PT Sans','Helvetica Neue','Helvetica',sans-serif" id="img-a4364979-4">
        <text x="58.33" y="149.82" dy="0.35em">Democratic</text>
      </g>
      <g fill="#0000FF" stroke="#000000" stroke-opacity="0.000" id="img-a4364979-5">
        <rect x="54.36" y="148.34" width="2.97" height="2.97"/>
      </g>
    </g>
    <g class="color_Republican" id="img-a4364979-6">
      <g fill="#FFFFFF" font-size="4.76" font-family="'PT Sans','Helvetica Neue','Helvetica',sans-serif" id="img-a4364979-7">
        <text x="29.73" y="149.82" dy="0.35em">Republican</text>
      </g>
      <g fill="#FF0000" stroke="#000000" stroke-opacity="0.000" id="img-a4364979-8">
        <rect x="25.76" y="148.34" width="2.97" height="2.97"/>
      </g>
    </g>
    <g fill="#FFFFFF" font-size="6.35" font-family="'PT Sans','Helvetica Neue','Helvetica',sans-serif" stroke="#000000" stroke-opacity="0.000" id="img-a4364979-9">
      <text x="25.76" y="145.06">Party</text>
    </g>
  </g>
  <g font-size="6.35" font-family="'PT Sans','Helvetica Neue','Helvetica',sans-serif" fill="#FFFFFF" stroke="#000000" stroke-opacity="0.000" id="img-a4364979-10">
    <text x="169.88" y="130.77" text-anchor="middle" dy="0.6em">Year</text>
  </g>
  <g class="guide xlabels" font-size="4.76" font-family="'PT Sans Caption','Helvetica Neue','Helvetica',sans-serif" fill="#FFFFFF" id="img-a4364979-11">
    <text x="26.76" y="122.89" text-anchor="middle" dy="0.6em">1824</text>
    <text x="44.65" y="122.89" text-anchor="middle" dy="0.6em">1836</text>
    <text x="62.54" y="122.89" text-anchor="middle" dy="0.6em">1848</text>
    <text x="80.43" y="122.89" text-anchor="middle" dy="0.6em">1860</text>
    <text x="98.32" y="122.89" text-anchor="middle" dy="0.6em">1872</text>
    <text x="116.21" y="122.89" text-anchor="middle" dy="0.6em">1884</text>
    <text x="134.1" y="122.89" text-anchor="middle" dy="0.6em">1896</text>
    <text x="151.99" y="122.89" text-anchor="middle" dy="0.6em">1908</text>
    <text x="169.88" y="122.89" text-anchor="middle" dy="0.6em">1920</text>
    <text x="187.77" y="122.89" text-anchor="middle" dy="0.6em">1932</text>
    <text x="205.66" y="122.89" text-anchor="middle" dy="0.6em">1944</text>
    <text x="223.55" y="122.89" text-anchor="middle" dy="0.6em">1956</text>
    <text x="241.44" y="122.89" text-anchor="middle" dy="0.6em">1968</text>
    <text x="259.33" y="122.89" text-anchor="middle" dy="0.6em">1980</text>
    <text x="277.22" y="122.89" text-anchor="middle" dy="0.6em">1992</text>
    <text x="295.11" y="122.89" text-anchor="middle" dy="0.6em">2004</text>
    <text x="313" y="122.89" text-anchor="middle" dy="0.6em">2016</text>
  </g>
<g clip-path="url(#img-a4364979-12)">
  <g id="img-a4364979-13">
    <g pointer-events="visible" opacity="1" fill="#000000" fill-opacity="0.000" stroke="#000000" stroke-opacity="0.000" class="guide background" id="img-a4364979-14">
      <rect x="24.76" y="13.94" width="290.24" height="107.95"/>
    </g>
    <g class="guide ygridlines xfixed" stroke-dasharray="0.5,0.5" stroke-width="0.26" stroke="#FFFFFF" id="img-a4364979-15">
      <path fill="none" d="M24.76,119.89 L 315 119.89"/>
      <path fill="none" d="M24.76,93.9 L 315 93.9"/>
      <path fill="none" d="M24.76,67.92 L 315 67.92"/>
      <path fill="none" d="M24.76,41.93 L 315 41.93"/>
      <path fill="none" d="M24.76,15.94 L 315 15.94"/>
    </g>
    <g class="guide xgridlines yfixed" stroke-dasharray="0.5,0.5" stroke-width="0.26" stroke="#FFFFFF" id="img-a4364979-16">
      <path fill="none" d="M26.76,13.94 L 26.76 121.89"/>
      <path fill="none" d="M44.65,13.94 L 44.65 121.89"/>
      <path fill="none" d="M62.54,13.94 L 62.54 121.89"/>
      <path fill="none" d="M80.43,13.94 L 80.43 121.89"/>
      <path fill="none" d="M98.32,13.94 L 98.32 121.89"/>
      <path fill="none" d="M116.21,13.94 L 116.21 121.89"/>
      <path fill="none" d="M134.1,13.94 L 134.1 121.89"/>
      <path fill="none" d="M151.99,13.94 L 151.99 121.89"/>
      <path fill="none" d="M169.88,13.94 L 169.88 121.89"/>
      <path fill="none" d="M187.77,13.94 L 187.77 121.89"/>
      <path fill="none" d="M205.66,13.94 L 205.66 121.89"/>
      <path fill="none" d="M223.55,13.94 L 223.55 121.89"/>
      <path fill="none" d="M241.44,13.94 L 241.44 121.89"/>
      <path fill="none" d="M259.33,13.94 L 259.33 121.89"/>
      <path fill="none" d="M277.22,13.94 L 277.22 121.89"/>
      <path fill="none" d="M295.11,13.94 L 295.11 121.89"/>
      <path fill="none" d="M313,13.94 L 313 121.89"/>
    </g>
    <g class="plotpanel" id="img-a4364979-17">
      <g class="geometry" id="img-a4364979-18">
        <g stroke-width="0.3" id="img-a4364979-19">
          <use xlink:href="#img-a4364979-20" x="80.43" y="67.2" stroke="#FFFFFF" fill="#FF0000" class="color_Republican"/>
          <use xlink:href="#img-a4364979-20" x="86.39" y="63.32" stroke="#FFFFFF" fill="#FF0000" class="color_Republican"/>
          <use xlink:href="#img-a4364979-20" x="92.36" y="62" stroke="#FFFFFF" fill="#FF0000" class="color_Republican"/>
          <use xlink:href="#img-a4364979-20" x="98.32" y="61.4" stroke="#FFFFFF" fill="#FF0000" class="color_Republican"/>
          <use xlink:href="#img-a4364979-20" x="104.28" y="67.71" stroke="#FFFFFF" fill="#FF0000" class="color_Republican"/>
          <use xlink:href="#img-a4364979-20" x="110.25" y="66.77" stroke="#FFFFFF" fill="#FF0000" class="color_Republican"/>
          <use xlink:href="#img-a4364979-20" x="116.21" y="67.74" stroke="#FFFFFF" fill="#FF0000" class="color_Republican"/>
          <use xlink:href="#img-a4364979-20" x="122.17" y="68.39" stroke="#FFFFFF" fill="#FF0000" class="color_Republican"/>
          <use xlink:href="#img-a4364979-20" x="128.14" y="72.38" stroke="#FFFFFF" fill="#FF0000" class="color_Republican"/>
          <use xlink:href="#img-a4364979-20" x="134.1" y="62.04" stroke="#FFFFFF" fill="#FF0000" class="color_Republican"/>
          <use xlink:href="#img-a4364979-20" x="140.06" y="64.97" stroke="#FFFFFF" fill="#FF0000" class="color_Republican"/>
          <use xlink:href="#img-a4364979-20" x="146.03" y="58.8" stroke="#FFFFFF" fill="#FF0000" class="color_Republican"/>
          <use xlink:href="#img-a4364979-20" x="151.99" y="63.21" stroke="#FFFFFF" fill="#FF0000" class="color_Republican"/>
          <use xlink:href="#img-a4364979-20" x="157.95" y="96.89" stroke="#FFFFFF" fill="#FF0000" class="color_Republican"/>
          <use xlink:href="#img-a4364979-20" x="163.92" y="65.25" stroke="#FFFFFF" fill="#FF0000" class="color_Republican"/>
          <use xlink:href="#img-a4364979-20" x="169.88" y="49.4" stroke="#FFFFFF" fill="#FF0000" class="color_Republican"/>
          <use xlink:href="#img-a4364979-20" x="175.84" y="58.73" stroke="#FFFFFF" fill="#FF0000" class="color_Republican"/>
          <use xlink:href="#img-a4364979-20" x="181.81" y="60.71" stroke="#FFFFFF" fill="#FF0000" class="color_Republican"/>
          <use xlink:href="#img-a4364979-20" x="187.77" y="76.19" stroke="#FFFFFF" fill="#FF0000" class="color_Republican"/>
          <use xlink:href="#img-a4364979-20" x="193.73" y="78.63" stroke="#FFFFFF" fill="#FF0000" class="color_Republican"/>
          <use xlink:href="#img-a4364979-20" x="199.7" y="69.44" stroke="#FFFFFF" fill="#FF0000" class="color_Republican"/>
          <use xlink:href="#img-a4364979-20" x="205.66" y="69.94" stroke="#FFFFFF" fill="#FF0000" class="color_Republican"/>
          <use xlink:href="#img-a4364979-20" x="211.62" y="68.72" stroke="#FFFFFF" fill="#FF0000" class="color_Republican"/>
          <use xlink:href="#img-a4364979-20" x="217.59" y="62.89" stroke="#FFFFFF" fill="#FF0000" class="color_Republican"/>
          <use xlink:href="#img-a4364979-20" x="223.55" y="58.02" stroke="#FFFFFF" fill="#FF0000" class="color_Republican"/>
          <use xlink:href="#img-a4364979-20" x="229.51" y="68.13" stroke="#FFFFFF" fill="#FF0000" class="color_Republican"/>
          <use xlink:href="#img-a4364979-20" x="235.48" y="77.76" stroke="#FFFFFF" fill="#FF0000" class="color_Republican"/>
          <use xlink:href="#img-a4364979-20" x="241.44" y="70.96" stroke="#FFFFFF" fill="#FF0000" class="color_Republican"/>
          <use xlink:href="#img-a4364979-20" x="247.4" y="58.53" stroke="#FFFFFF" fill="#FF0000" class="color_Republican"/>
          <use xlink:href="#img-a4364979-20" x="253.37" y="67.81" stroke="#FFFFFF" fill="#FF0000" class="color_Republican"/>
          <use xlink:href="#img-a4364979-20" x="259.33" y="68.28" stroke="#FFFFFF" fill="#FF0000" class="color_Republican"/>
          <use xlink:href="#img-a4364979-20" x="265.29" y="61.5" stroke="#FFFFFF" fill="#FF0000" class="color_Republican"/>
          <use xlink:href="#img-a4364979-20" x="271.26" y="67.2" stroke="#FFFFFF" fill="#FF0000" class="color_Republican"/>
          <use xlink:href="#img-a4364979-20" x="277.22" y="84.2" stroke="#FFFFFF" fill="#FF0000" class="color_Republican"/>
          <use xlink:href="#img-a4364979-20" x="283.18" y="81.63" stroke="#FFFFFF" fill="#FF0000" class="color_Republican"/>
          <use xlink:href="#img-a4364979-20" x="289.15" y="75.62" stroke="#FFFFFF" fill="#FF0000" class="color_Republican"/>
          <use xlink:href="#img-a4364979-20" x="295.11" y="73.65" stroke="#FFFFFF" fill="#FF0000" class="color_Republican"/>
          <use xlink:href="#img-a4364979-20" x="301.07" y="81.71" stroke="#FFFFFF" fill="#FF0000" class="color_Republican"/>
          <use xlink:href="#img-a4364979-20" x="307.04" y="77.62" stroke="#FFFFFF" fill="#FF0000" class="color_Republican"/>
          <use xlink:href="#img-a4364979-20" x="32.72" y="50.01" stroke="#FFFFFF" fill="#0000FF" class="color_Democratic"/>
          <use xlink:href="#img-a4364979-20" x="38.69" y="49.19" stroke="#FFFFFF" fill="#0000FF" class="color_Democratic"/>
          <use xlink:href="#img-a4364979-20" x="44.65" y="63.04" stroke="#FFFFFF" fill="#0000FF" class="color_Democratic"/>
          <use xlink:href="#img-a4364979-20" x="50.61" y="66.96" stroke="#FFFFFF" fill="#0000FF" class="color_Democratic"/>
          <use xlink:href="#img-a4364979-20" x="56.58" y="63.85" stroke="#FFFFFF" fill="#0000FF" class="color_Democratic"/>
          <use xlink:href="#img-a4364979-20" x="62.54" y="73.21" stroke="#FFFFFF" fill="#0000FF" class="color_Democratic"/>
          <use xlink:href="#img-a4364979-20" x="68.5" y="65.98" stroke="#FFFFFF" fill="#0000FF" class="color_Democratic"/>
          <use xlink:href="#img-a4364979-20" x="74.47" y="74.06" stroke="#FFFFFF" fill="#0000FF" class="color_Democratic"/>
          <use xlink:href="#img-a4364979-20" x="80.43" y="70.86" stroke="#FFFFFF" fill="#0000FF" class="color_Democratic"/>
          <use xlink:href="#img-a4364979-20" x="86.39" y="72.51" stroke="#FFFFFF" fill="#0000FF" class="color_Democratic"/>
          <use xlink:href="#img-a4364979-20" x="92.36" y="73.84" stroke="#FFFFFF" fill="#0000FF" class="color_Democratic"/>
          <use xlink:href="#img-a4364979-20" x="98.32" y="75.19" stroke="#FFFFFF" fill="#0000FF" class="color_Democratic"/>
          <use xlink:href="#img-a4364979-20" x="104.28" y="71.39" stroke="#FFFFFF" fill="#0000FF" class="color_Democratic"/>
          <use xlink:href="#img-a4364979-20" x="110.25" y="73.57" stroke="#FFFFFF" fill="#0000FF" class="color_Democratic"/>
          <use xlink:href="#img-a4364979-20" x="116.21" y="71.62" stroke="#FFFFFF" fill="#0000FF" class="color_Democratic"/>
          <use xlink:href="#img-a4364979-20" x="122.17" y="71.47" stroke="#FFFFFF" fill="#0000FF" class="color_Democratic"/>
          <use xlink:href="#img-a4364979-20" x="128.14" y="69.17" stroke="#FFFFFF" fill="#0000FF" class="color_Democratic"/>
          <use xlink:href="#img-a4364979-20" x="134.1" y="75.52" stroke="#FFFFFF" fill="#0000FF" class="color_Democratic"/>
          <use xlink:href="#img-a4364979-20" x="140.06" y="73.69" stroke="#FFFFFF" fill="#0000FF" class="color_Democratic"/>
          <use xlink:href="#img-a4364979-20" x="146.03" y="88.26" stroke="#FFFFFF" fill="#0000FF" class="color_Democratic"/>
          <use xlink:href="#img-a4364979-20" x="151.99" y="79.33" stroke="#FFFFFF" fill="#0000FF" class="color_Democratic"/>
          <use xlink:href="#img-a4364979-20" x="157.95" y="83.16" stroke="#FFFFFF" fill="#0000FF" class="color_Democratic"/>
          <use xlink:href="#img-a4364979-20" x="163.92" y="74.84" stroke="#FFFFFF" fill="#0000FF" class="color_Democratic"/>
          <use xlink:href="#img-a4364979-20" x="169.88" y="93.37" stroke="#FFFFFF" fill="#0000FF" class="color_Democratic"/>
          <use xlink:href="#img-a4364979-20" x="175.84" y="95.61" stroke="#FFFFFF" fill="#0000FF" class="color_Democratic"/>
          <use xlink:href="#img-a4364979-20" x="181.81" y="75.94" stroke="#FFFFFF" fill="#0000FF" class="color_Democratic"/>
          <use xlink:href="#img-a4364979-20" x="187.77" y="62.48" stroke="#FFFFFF" fill="#0000FF" class="color_Democratic"/>
          <use xlink:href="#img-a4364979-20" x="193.73" y="59.91" stroke="#FFFFFF" fill="#0000FF" class="color_Democratic"/>
          <use xlink:href="#img-a4364979-20" x="199.7" y="66.91" stroke="#FFFFFF" fill="#0000FF" class="color_Democratic"/>
          <use xlink:href="#img-a4364979-20" x="205.66" y="66.33" stroke="#FFFFFF" fill="#0000FF" class="color_Democratic"/>
          <use xlink:href="#img-a4364979-20" x="211.62" y="67.85" stroke="#FFFFFF" fill="#0000FF" class="color_Democratic"/>
          <use xlink:href="#img-a4364979-20" x="217.59" y="73.17" stroke="#FFFFFF" fill="#0000FF" class="color_Democratic"/>
          <use xlink:href="#img-a4364979-20" x="223.55" y="78.01" stroke="#FFFFFF" fill="#0000FF" class="color_Democratic"/>
          <use xlink:href="#img-a4364979-20" x="229.51" y="67.93" stroke="#FFFFFF" fill="#0000FF" class="color_Democratic"/>
          <use xlink:href="#img-a4364979-20" x="235.48" y="58.07" stroke="#FFFFFF" fill="#0000FF" class="color_Democratic"/>
          <use xlink:href="#img-a4364979-20" x="241.44" y="73.99" stroke="#FFFFFF" fill="#0000FF" class="color_Democratic"/>
          <use xlink:href="#img-a4364979-20" x="247.4" y="77.78" stroke="#FFFFFF" fill="#0000FF" class="color_Democratic"/>
          <use xlink:href="#img-a4364979-20" x="253.37" y="69.86" stroke="#FFFFFF" fill="#0000FF" class="color_Democratic"/>
          <use xlink:href="#img-a4364979-20" x="259.33" y="76.53" stroke="#FFFFFF" fill="#0000FF" class="color_Democratic"/>
          <use xlink:href="#img-a4364979-20" x="265.29" y="74.88" stroke="#FFFFFF" fill="#0000FF" class="color_Democratic"/>
          <use xlink:href="#img-a4364979-20" x="271.26" y="69.37" stroke="#FFFFFF" fill="#0000FF" class="color_Democratic"/>
          <use xlink:href="#img-a4364979-20" x="277.22" y="69.39" stroke="#FFFFFF" fill="#0000FF" class="color_Democratic"/>
          <use xlink:href="#img-a4364979-20" x="283.18" y="63.43" stroke="#FFFFFF" fill="#0000FF" class="color_Democratic"/>
          <use xlink:href="#img-a4364979-20" x="289.15" y="63.14" stroke="#FFFFFF" fill="#0000FF" class="color_Democratic"/>
          <use xlink:href="#img-a4364979-20" x="295.11" y="62.9" stroke="#FFFFFF" fill="#0000FF" class="color_Democratic"/>
          <use xlink:href="#img-a4364979-20" x="301.07" y="55.62" stroke="#FFFFFF" fill="#0000FF" class="color_Democratic"/>
          <use xlink:href="#img-a4364979-20" x="307.04" y="60.12" stroke="#FFFFFF" fill="#0000FF" class="color_Democratic"/>
        </g>
      </g>
      <g stroke-width="0.53" fill="#000000" fill-opacity="0.000" stroke-dasharray="none" id="img-a4364979-21">
        <path fill="none" d="M32.72,50.01 L 38.69 49.19 44.65 63.04 50.61 66.96 56.58 63.85 62.54 73.21 68.5 65.98 74.47 74.06 80.43 70.86 86.39 72.51 92.36 73.84 98.32 75.19 104.28 71.39 110.25 73.57 116.21 71.62 122.17 71.47 128.14 69.17 134.1 75.52 140.06 73.69 146.03 88.26 151.99 79.33 157.95 83.16 163.92 74.84 169.88 93.37 175.84 95.61 181.81 75.94 187.77 62.48 193.73 59.91 199.7 66.91 205.66 66.33 211.62 67.85 217.59 73.17 223.55 78.01 229.51 67.93 235.48 58.07 241.44 73.99 247.4 77.78 253.37 69.86 259.33 76.53 265.29 74.88 271.26 69.37 277.22 69.39 283.18 63.43 289.15 63.14 295.11 62.9 301.07 55.62 307.04 60.12" stroke="#0000FF" class="geometry color_Democratic"/>
        <path fill="none" d="M80.43,67.2 L 86.39 63.32 92.36 62 98.32 61.4 104.28 67.71 110.25 66.77 116.21 67.74 122.17 68.39 128.14 72.38 134.1 62.04 140.06 64.97 146.03 58.8 151.99 63.21 157.95 96.89 163.92 65.25 169.88 49.4 175.84 58.73 181.81 60.71 187.77 76.19 193.73 78.63 199.7 69.44 205.66 69.94 211.62 68.72 217.59 62.89 223.55 58.02 229.51 68.13 235.48 77.76 241.44 70.96 247.4 58.53 253.37 67.81 259.33 68.28 265.29 61.5 271.26 67.2 277.22 84.2 283.18 81.63 289.15 75.62 295.11 73.65 301.07 81.71 307.04 77.62" stroke="#FF0000" class="geometry color_Republican"/>
      </g>
    </g>
  </g>
</g>
  <g class="guide ylabels" font-size="4.76" font-family="'PT Sans Caption','Helvetica Neue','Helvetica',sans-serif" fill="#FFFFFF" id="img-a4364979-22">
    <text x="23.76" y="119.89" text-anchor="end" dy="0.35em">0</text>
    <text x="23.76" y="93.9" text-anchor="end" dy="0.35em">25</text>
    <text x="23.76" y="67.92" text-anchor="end" dy="0.35em">50</text>
    <text x="23.76" y="41.93" text-anchor="end" dy="0.35em">75</text>
    <text x="23.76" y="15.94" text-anchor="end" dy="0.35em">100</text>
  </g>
  <g font-size="6.35" font-family="'PT Sans','Helvetica Neue','Helvetica',sans-serif" fill="#FFFFFF" stroke="#000000" stroke-opacity="0.000" id="img-a4364979-23">
    <text x="10.18" y="65.92" text-anchor="middle" dy="0.35em" transform="rotate(-90, 10.18, 67.92)">Popular Vote (%)</text>
  </g>
  <g font-size="6.35" font-family="'PT Sans','Helvetica Neue','Helvetica',sans-serif" fill="#FFFFFF" stroke="#000000" stroke-opacity="0.000" id="img-a4364979-24">
    <text x="169.88" y="11.94" text-anchor="middle">Illinois</text>
  </g>
</g>
<defs>
  <clipPath id="img-a4364979-12">
  <path d="M24.76,13.94 L 315 13.94 315 121.89 24.76 121.89" />
</clipPath>
  <g id="img-a4364979-20">
    <circle cx="0" cy="0" r="0.9"/>
  </g>
</defs>
</svg>
