<?xml version="1.0" encoding="UTF-8"?>
<svg xmlns="http://www.w3.org/2000/svg"
     xmlns:xlink="http://www.w3.org/1999/xlink"
     xmlns:gadfly="http://www.gadflyjl.org/ns"
     version="1.2"
     width="320mm" height="160mm" viewBox="0 0 320 160"
     stroke="none"
     fill="#000000"
     stroke-width="0.3"
     font-size="3.88"
>
<g class="plotroot xscalable yscalable" id="img-d77ff2fe-1">
  <g class="guide colorkey" id="img-d77ff2fe-2">
    <g class="color_Democratic" id="img-d77ff2fe-3">
      <g fill="#4C404B" font-size="4.76" font-family="'PT Sans','Helvetica Neue','Helvetica',sans-serif" id="img-d77ff2fe-4">
        <text x="57.56" y="150.05" dy="0.35em">Democratic</text>
      </g>
      <g fill="#0000FF" stroke="#000000" stroke-opacity="0.000" id="img-d77ff2fe-5">
        <rect x="53.84" y="148.69" width="2.72" height="2.72"/>
      </g>
    </g>
    <g class="color_Republican" id="img-d77ff2fe-6">
      <g fill="#4C404B" font-size="4.76" font-family="'PT Sans','Helvetica Neue','Helvetica',sans-serif" id="img-d77ff2fe-7">
        <text x="30.1" y="150.05" dy="0.35em">Republican</text>
      </g>
      <g fill="#FF0000" stroke="#000000" stroke-opacity="0.000" id="img-d77ff2fe-8">
        <rect x="26.38" y="148.69" width="2.72" height="2.72"/>
      </g>
    </g>
    <g fill="#362A35" font-size="6.35" font-family="'PT Sans','Helvetica Neue','Helvetica',sans-serif" stroke="#000000" stroke-opacity="0.000" id="img-d77ff2fe-9">
      <text x="26.38" y="145.57">Party</text>
    </g>
  </g>
  <g font-size="6.35" font-family="'PT Sans','Helvetica Neue','Helvetica',sans-serif" fill="#564A55" stroke="#000000" stroke-opacity="0.000" id="img-d77ff2fe-10">
    <text x="170.19" y="130.75" text-anchor="middle" dy="0.6em">Year</text>
  </g>
  <g class="guide xlabels" font-size="4.76" font-family="'PT Sans Caption','Helvetica Neue','Helvetica',sans-serif" fill="#6C606B" id="img-d77ff2fe-11">
    <text x="27.38" y="122.24" text-anchor="middle" dy="0.6em">1888</text>
    <text x="45.23" y="122.24" text-anchor="middle" dy="0.6em">1896</text>
    <text x="63.08" y="122.24" text-anchor="middle" dy="0.6em">1904</text>
    <text x="80.93" y="122.24" text-anchor="middle" dy="0.6em">1912</text>
    <text x="98.78" y="122.24" text-anchor="middle" dy="0.6em">1920</text>
    <text x="116.64" y="122.24" text-anchor="middle" dy="0.6em">1928</text>
    <text x="134.49" y="122.24" text-anchor="middle" dy="0.6em">1936</text>
    <text x="152.34" y="122.24" text-anchor="middle" dy="0.6em">1944</text>
    <text x="170.19" y="122.24" text-anchor="middle" dy="0.6em">1952</text>
    <text x="188.04" y="122.24" text-anchor="middle" dy="0.6em">1960</text>
    <text x="205.89" y="122.24" text-anchor="middle" dy="0.6em">1968</text>
    <text x="223.74" y="122.24" text-anchor="middle" dy="0.6em">1976</text>
    <text x="241.59" y="122.24" text-anchor="middle" dy="0.6em">1984</text>
    <text x="259.45" y="122.24" text-anchor="middle" dy="0.6em">1992</text>
    <text x="277.3" y="122.24" text-anchor="middle" dy="0.6em">2000</text>
    <text x="295.15" y="122.24" text-anchor="middle" dy="0.6em">2008</text>
    <text x="313" y="122.24" text-anchor="middle" dy="0.6em">2016</text>
  </g>
<g clip-path="url(#img-d77ff2fe-12)">
  <g id="img-d77ff2fe-13">
    <g pointer-events="visible" opacity="1" fill="#000000" fill-opacity="0.000" stroke="#000000" stroke-opacity="0.000" class="guide background" id="img-d77ff2fe-14">
      <rect x="25.38" y="14.91" width="289.62" height="106.33"/>
    </g>
    <g class="guide ygridlines xfixed" stroke-dasharray="0.5,0.5" stroke-width="0.26" stroke="#000000" id="img-d77ff2fe-15">
      <path fill="none" d="M25.38,119.24 L 315 119.24"/>
      <path fill="none" d="M25.38,93.66 L 315 93.66"/>
      <path fill="none" d="M25.38,68.07 L 315 68.07"/>
      <path fill="none" d="M25.38,42.49 L 315 42.49"/>
      <path fill="none" d="M25.38,16.91 L 315 16.91"/>
    </g>
    <g class="guide xgridlines yfixed" stroke-dasharray="0.5,0.5" stroke-width="0.26" stroke="#000000" id="img-d77ff2fe-16">
      <path fill="none" d="M27.38,14.91 L 27.38 121.24"/>
      <path fill="none" d="M45.23,14.91 L 45.23 121.24"/>
      <path fill="none" d="M63.08,14.91 L 63.08 121.24"/>
      <path fill="none" d="M80.93,14.91 L 80.93 121.24"/>
      <path fill="none" d="M98.78,14.91 L 98.78 121.24"/>
      <path fill="none" d="M116.64,14.91 L 116.64 121.24"/>
      <path fill="none" d="M134.49,14.91 L 134.49 121.24"/>
      <path fill="none" d="M152.34,14.91 L 152.34 121.24"/>
      <path fill="none" d="M170.19,14.91 L 170.19 121.24"/>
      <path fill="none" d="M188.04,14.91 L 188.04 121.24"/>
      <path fill="none" d="M205.89,14.91 L 205.89 121.24"/>
      <path fill="none" d="M223.74,14.91 L 223.74 121.24"/>
      <path fill="none" d="M241.59,14.91 L 241.59 121.24"/>
      <path fill="none" d="M259.45,14.91 L 259.45 121.24"/>
      <path fill="none" d="M277.3,14.91 L 277.3 121.24"/>
      <path fill="none" d="M295.15,14.91 L 295.15 121.24"/>
      <path fill="none" d="M313,14.91 L 313 121.24"/>
    </g>
    <g class="plotpanel" id="img-d77ff2fe-17">
      <g class="geometry" id="img-d77ff2fe-18">
        <g stroke-width="0.3" id="img-d77ff2fe-19">
          <use xlink:href="#img-d77ff2fe-20" x="36.31" y="73.9" class="color_Republican" fill="#FF0000" stroke="#FFFFFF"/>
          <use xlink:href="#img-d77ff2fe-20" x="45.23" y="97.43" class="color_Republican" fill="#FF0000" stroke="#FFFFFF"/>
          <use xlink:href="#img-d77ff2fe-20" x="54.16" y="71.18" class="color_Republican" fill="#FF0000" stroke="#FFFFFF"/>
          <use xlink:href="#img-d77ff2fe-20" x="63.08" y="51.87" class="color_Republican" fill="#FF0000" stroke="#FFFFFF"/>
          <use xlink:href="#img-d77ff2fe-20" x="72.01" y="63.89" class="color_Republican" fill="#FF0000" stroke="#FFFFFF"/>
          <use xlink:href="#img-d77ff2fe-20" x="80.93" y="87.49" class="color_Republican" fill="#FF0000" stroke="#FFFFFF"/>
          <use xlink:href="#img-d77ff2fe-20" x="89.86" y="77.15" class="color_Republican" fill="#FF0000" stroke="#FFFFFF"/>
          <use xlink:href="#img-d77ff2fe-20" x="98.78" y="52.11" class="color_Republican" fill="#FF0000" stroke="#FFFFFF"/>
          <use xlink:href="#img-d77ff2fe-20" x="107.71" y="71.02" class="color_Republican" fill="#FF0000" stroke="#FFFFFF"/>
          <use xlink:href="#img-d77ff2fe-20" x="116.64" y="53.52" class="color_Republican" fill="#FF0000" stroke="#FFFFFF"/>
          <use xlink:href="#img-d77ff2fe-20" x="125.56" y="80.08" class="color_Republican" fill="#FF0000" stroke="#FFFFFF"/>
          <use xlink:href="#img-d77ff2fe-20" x="134.49" y="85.27" class="color_Republican" fill="#FF0000" stroke="#FFFFFF"/>
          <use xlink:href="#img-d77ff2fe-20" x="143.41" y="72.87" class="color_Republican" fill="#FF0000" stroke="#FFFFFF"/>
          <use xlink:href="#img-d77ff2fe-20" x="152.34" y="70.05" class="color_Republican" fill="#FF0000" stroke="#FFFFFF"/>
          <use xlink:href="#img-d77ff2fe-20" x="161.26" y="70.88" class="color_Republican" fill="#FF0000" stroke="#FFFFFF"/>
          <use xlink:href="#img-d77ff2fe-20" x="170.19" y="52.3" class="color_Republican" fill="#FF0000" stroke="#FFFFFF"/>
          <use xlink:href="#img-d77ff2fe-20" x="179.12" y="56.65" class="color_Republican" fill="#FF0000" stroke="#FFFFFF"/>
          <use xlink:href="#img-d77ff2fe-20" x="188.04" y="64.2" class="color_Republican" fill="#FF0000" stroke="#FFFFFF"/>
          <use xlink:href="#img-d77ff2fe-20" x="196.97" y="69.01" class="color_Republican" fill="#FF0000" stroke="#FFFFFF"/>
          <use xlink:href="#img-d77ff2fe-20" x="205.89" y="61.12" class="color_Republican" fill="#FF0000" stroke="#FFFFFF"/>
          <use xlink:href="#img-d77ff2fe-20" x="214.82" y="53.5" class="color_Republican" fill="#FF0000" stroke="#FFFFFF"/>
          <use xlink:href="#img-d77ff2fe-20" x="223.74" y="57.96" class="color_Republican" fill="#FF0000" stroke="#FFFFFF"/>
          <use xlink:href="#img-d77ff2fe-20" x="232.67" y="51.23" class="color_Republican" fill="#FF0000" stroke="#FFFFFF"/>
          <use xlink:href="#img-d77ff2fe-20" x="241.59" y="45.19" class="color_Republican" fill="#FF0000" stroke="#FFFFFF"/>
          <use xlink:href="#img-d77ff2fe-20" x="250.52" y="55.71" class="color_Republican" fill="#FF0000" stroke="#FFFFFF"/>
          <use xlink:href="#img-d77ff2fe-20" x="259.45" y="76.23" class="color_Republican" fill="#FF0000" stroke="#FFFFFF"/>
          <use xlink:href="#img-d77ff2fe-20" x="268.37" y="65.84" class="color_Republican" fill="#FF0000" stroke="#FFFFFF"/>
          <use xlink:href="#img-d77ff2fe-20" x="277.3" y="50.5" class="color_Republican" fill="#FF0000" stroke="#FFFFFF"/>
          <use xlink:href="#img-d77ff2fe-20" x="286.22" y="49.26" class="color_Republican" fill="#FF0000" stroke="#FFFFFF"/>
          <use xlink:href="#img-d77ff2fe-20" x="295.15" y="56.61" class="color_Republican" fill="#FF0000" stroke="#FFFFFF"/>
          <use xlink:href="#img-d77ff2fe-20" x="304.07" y="53.66" class="color_Republican" fill="#FF0000" stroke="#FFFFFF"/>
          <use xlink:href="#img-d77ff2fe-20" x="36.31" y="119.24" class="color_Democratic" fill="#0000FF" stroke="#FFFFFF"/>
          <use xlink:href="#img-d77ff2fe-20" x="45.23" y="39.32" class="color_Democratic" fill="#0000FF" stroke="#FFFFFF"/>
          <use xlink:href="#img-d77ff2fe-20" x="54.16" y="67.27" class="color_Democratic" fill="#0000FF" stroke="#FFFFFF"/>
          <use xlink:href="#img-d77ff2fe-20" x="63.08" y="93.18" class="color_Democratic" fill="#0000FF" stroke="#FFFFFF"/>
          <use xlink:href="#img-d77ff2fe-20" x="72.01" y="81.2" class="color_Democratic" fill="#0000FF" stroke="#FFFFFF"/>
          <use xlink:href="#img-d77ff2fe-20" x="80.93" y="86.42" class="color_Democratic" fill="#0000FF" stroke="#FFFFFF"/>
          <use xlink:href="#img-d77ff2fe-20" x="89.86" y="65.99" class="color_Democratic" fill="#0000FF" stroke="#FFFFFF"/>
          <use xlink:href="#img-d77ff2fe-20" x="98.78" y="84.09" class="color_Democratic" fill="#0000FF" stroke="#FFFFFF"/>
          <use xlink:href="#img-d77ff2fe-20" x="107.71" y="102.5" class="color_Democratic" fill="#0000FF" stroke="#FFFFFF"/>
          <use xlink:href="#img-d77ff2fe-20" x="116.64" y="83.5" class="color_Democratic" fill="#0000FF" stroke="#FFFFFF"/>
          <use xlink:href="#img-d77ff2fe-20" x="125.56" y="59.21" class="color_Democratic" fill="#0000FF" stroke="#FFFFFF"/>
          <use xlink:href="#img-d77ff2fe-20" x="134.49" y="54.81" class="color_Democratic" fill="#0000FF" stroke="#FFFFFF"/>
          <use xlink:href="#img-d77ff2fe-20" x="143.41" y="63.61" class="color_Democratic" fill="#0000FF" stroke="#FFFFFF"/>
          <use xlink:href="#img-d77ff2fe-20" x="152.34" y="66.48" class="color_Democratic" fill="#0000FF" stroke="#FFFFFF"/>
          <use xlink:href="#img-d77ff2fe-20" x="161.26" y="68.09" class="color_Democratic" fill="#0000FF" stroke="#FFFFFF"/>
          <use xlink:href="#img-d77ff2fe-20" x="170.19" y="84.02" class="color_Democratic" fill="#0000FF" stroke="#FFFFFF"/>
          <use xlink:href="#img-d77ff2fe-20" x="179.12" y="79.55" class="color_Democratic" fill="#0000FF" stroke="#FFFFFF"/>
          <use xlink:href="#img-d77ff2fe-20" x="188.04" y="71.95" class="color_Democratic" fill="#0000FF" stroke="#FFFFFF"/>
          <use xlink:href="#img-d77ff2fe-20" x="196.97" y="67.14" class="color_Democratic" fill="#0000FF" stroke="#FFFFFF"/>
          <use xlink:href="#img-d77ff2fe-20" x="205.89" y="87.87" class="color_Democratic" fill="#0000FF" stroke="#FFFFFF"/>
          <use xlink:href="#img-d77ff2fe-20" x="214.82" y="92.59" class="color_Democratic" fill="#0000FF" stroke="#FFFFFF"/>
          <use xlink:href="#img-d77ff2fe-20" x="223.74" y="81.26" class="color_Democratic" fill="#0000FF" stroke="#FFFFFF"/>
          <use xlink:href="#img-d77ff2fe-20" x="232.67" y="93.46" class="color_Democratic" fill="#0000FF" stroke="#FFFFFF"/>
          <use xlink:href="#img-d77ff2fe-20" x="241.59" y="92.23" class="color_Democratic" fill="#0000FF" stroke="#FFFFFF"/>
          <use xlink:href="#img-d77ff2fe-20" x="250.52" y="82.39" class="color_Democratic" fill="#0000FF" stroke="#FFFFFF"/>
          <use xlink:href="#img-d77ff2fe-20" x="259.45" y="90.16" class="color_Democratic" fill="#0000FF" stroke="#FFFFFF"/>
          <use xlink:href="#img-d77ff2fe-20" x="268.37" y="84.81" class="color_Democratic" fill="#0000FF" stroke="#FFFFFF"/>
          <use xlink:href="#img-d77ff2fe-20" x="277.3" y="90.96" class="color_Democratic" fill="#0000FF" stroke="#FFFFFF"/>
          <use xlink:href="#img-d77ff2fe-20" x="286.22" y="88.27" class="color_Democratic" fill="#0000FF" stroke="#FFFFFF"/>
          <use xlink:href="#img-d77ff2fe-20" x="295.15" y="82.49" class="color_Democratic" fill="#0000FF" stroke="#FFFFFF"/>
          <use xlink:href="#img-d77ff2fe-20" x="304.07" y="86.08" class="color_Democratic" fill="#0000FF" stroke="#FFFFFF"/>
        </g>
      </g>
      <g stroke-width="0.53" fill="#000000" fill-opacity="0.000" stroke-dasharray="none" id="img-d77ff2fe-21">
        <path fill="none" d="M36.31,119.24 L 45.23 39.32 54.16 67.27 63.08 93.18 72.01 81.2 80.93 86.42 89.86 65.99 98.78 84.09 107.71 102.5 116.64 83.5 125.56 59.21 134.49 54.81 143.41 63.61 152.34 66.48 161.26 68.09 170.19 84.02 179.12 79.55 188.04 71.95 196.97 67.14 205.89 87.87 214.82 92.59 223.74 81.26 232.67 93.46 241.59 92.23 250.52 82.39 259.45 90.16 268.37 84.81 277.3 90.96 286.22 88.27 295.15 82.49 304.07 86.08" class="geometry color_Democratic" stroke="#0000FF"/>
        <path fill="none" d="M36.31,73.9 L 45.23 97.43 54.16 71.18 63.08 51.87 72.01 63.89 80.93 87.49 89.86 77.15 98.78 52.11 107.71 71.02 116.64 53.52 125.56 80.08 134.49 85.27 143.41 72.87 152.34 70.05 161.26 70.88 170.19 52.3 179.12 56.65 188.04 64.2 196.97 69.01 205.89 61.12 214.82 53.5 223.74 57.96 232.67 51.23 241.59 45.19 250.52 55.71 259.45 76.23 268.37 65.84 277.3 50.5 286.22 49.26 295.15 56.61 304.07 53.66" class="geometry color_Republican" stroke="#FF0000"/>
      </g>
    </g>
  </g>
</g>
  <g class="guide ylabels" font-size="4.76" font-family="'PT Sans Caption','Helvetica Neue','Helvetica',sans-serif" fill="#6C606B" id="img-d77ff2fe-22">
    <text x="24.38" y="119.24" text-anchor="end" dy="0.35em">0</text>
    <text x="24.38" y="93.66" text-anchor="end" dy="0.35em">25</text>
    <text x="24.38" y="68.07" text-anchor="end" dy="0.35em">50</text>
    <text x="24.38" y="42.49" text-anchor="end" dy="0.35em">75</text>
    <text x="24.38" y="16.91" text-anchor="end" dy="0.35em">100</text>
  </g>
  <g font-size="6.35" font-family="'PT Sans','Helvetica Neue','Helvetica',sans-serif" fill="#564A55" stroke="#000000" stroke-opacity="0.000" id="img-d77ff2fe-23">
    <text x="9.95" y="66.07" text-anchor="middle" dy="0.35em" transform="rotate(-90, 9.95, 68.07)">Popular Vote (%)</text>
  </g>
  <g font-size="6.35" font-family="'PT Sans','Helvetica Neue','Helvetica',sans-serif" fill="#564A55" stroke="#000000" stroke-opacity="0.000" id="img-d77ff2fe-24">
    <text x="170.19" y="12.91" text-anchor="middle">Idaho</text>
  </g>
</g>
<defs>
  <clipPath id="img-d77ff2fe-12">
  <path d="M25.38,14.91 L 315 14.91 315 121.24 25.38 121.24" />
</clipPath>
  <g id="img-d77ff2fe-20">
    <circle cx="0" cy="0" r="0.9"/>
  </g>
</defs>
</svg>
