<?xml version="1.0" encoding="UTF-8"?>
<svg xmlns="http://www.w3.org/2000/svg"
     xmlns:xlink="http://www.w3.org/1999/xlink"
     xmlns:gadfly="http://www.gadflyjl.org/ns"
     version="1.2"
     width="238.1mm" height="158.73mm" viewBox="0 0 238.1 158.73"
     stroke="none"
     fill="#000000"
     stroke-width="0.3"
     font-size="3.88"
>
<g stroke="#000000" stroke-opacity="0.000" fill="#222831" id="img-a4add227-1">
  <rect x="0" y="0" width="238.1" height="158.73"/>
</g>
<g class="plotroot xscalable yscalable" id="img-a4add227-2">
  <g class="guide colorkey" id="img-a4add227-3">
    <g class="color_Democratic" id="img-a4add227-4">
      <g fill="#A1A1A1" font-size="3.7" font-family="'PT Sans','Helvetica Neue','Helvetica',sans-serif" id="img-a4add227-5">
        <text x="51.52" y="148.78" dy="0.35em">Democratic</text>
      </g>
      <g fill="#0000FF" stroke="#000000" stroke-opacity="0.000" id="img-a4add227-6">
        <rect x="48.29" y="147.66" width="2.22" height="2.22"/>
      </g>
    </g>
    <g class="color_Republican" id="img-a4add227-7">
      <g fill="#A1A1A1" font-size="3.7" font-family="'PT Sans','Helvetica Neue','Helvetica',sans-serif" id="img-a4add227-8">
        <text x="29.6" y="148.78" dy="0.35em">Republican</text>
      </g>
      <g fill="#FF0000" stroke="#000000" stroke-opacity="0.000" id="img-a4add227-9">
        <rect x="26.38" y="147.66" width="2.22" height="2.22"/>
      </g>
    </g>
    <g fill="#A1A1A1" font-size="6.35" font-family="'PT Sans','Helvetica Neue','Helvetica',sans-serif" stroke="#000000" stroke-opacity="0.000" id="img-a4add227-10">
      <text x="26.38" y="145.28">Party</text>
    </g>
  </g>
  <g font-size="6.35" font-family="'PT Sans','Helvetica Neue','Helvetica',sans-serif" fill="#A1A1A1" stroke="#000000" stroke-opacity="0.000" id="img-a4add227-11">
    <text x="129.24" y="130.46" text-anchor="middle" dy="0.6em">Year</text>
  </g>
  <g class="guide xlabels" font-size="4.76" font-family="'PT Sans Caption','Helvetica Neue','Helvetica',sans-serif" fill="#A1A1A1" id="img-a4add227-12">
    <text x="27.38" y="115.17" text-anchor="end" dy="0.35em" transform="rotate(-90, 27.38, 115.17)">1860</text>
    <text x="37.83" y="115.17" text-anchor="end" dy="0.35em" transform="rotate(-90, 37.83, 115.17)">1868</text>
    <text x="48.27" y="115.17" text-anchor="end" dy="0.35em" transform="rotate(-90, 48.27, 115.17)">1876</text>
    <text x="58.72" y="115.17" text-anchor="end" dy="0.35em" transform="rotate(-90, 58.72, 115.17)">1884</text>
    <text x="69.17" y="115.17" text-anchor="end" dy="0.35em" transform="rotate(-90, 69.17, 115.17)">1892</text>
    <text x="79.61" y="115.17" text-anchor="end" dy="0.35em" transform="rotate(-90, 79.61, 115.17)">1900</text>
    <text x="90.06" y="115.17" text-anchor="end" dy="0.35em" transform="rotate(-90, 90.06, 115.17)">1908</text>
    <text x="100.51" y="115.17" text-anchor="end" dy="0.35em" transform="rotate(-90, 100.51, 115.17)">1916</text>
    <text x="110.96" y="115.17" text-anchor="end" dy="0.35em" transform="rotate(-90, 110.96, 115.17)">1924</text>
    <text x="121.4" y="115.17" text-anchor="end" dy="0.35em" transform="rotate(-90, 121.4, 115.17)">1932</text>
    <text x="131.85" y="115.17" text-anchor="end" dy="0.35em" transform="rotate(-90, 131.85, 115.17)">1940</text>
    <text x="142.3" y="115.17" text-anchor="end" dy="0.35em" transform="rotate(-90, 142.3, 115.17)">1948</text>
    <text x="152.74" y="115.17" text-anchor="end" dy="0.35em" transform="rotate(-90, 152.74, 115.17)">1956</text>
    <text x="163.19" y="115.17" text-anchor="end" dy="0.35em" transform="rotate(-90, 163.19, 115.17)">1964</text>
    <text x="173.64" y="115.17" text-anchor="end" dy="0.35em" transform="rotate(-90, 173.64, 115.17)">1972</text>
    <text x="184.08" y="115.17" text-anchor="end" dy="0.35em" transform="rotate(-90, 184.08, 115.17)">1980</text>
    <text x="194.53" y="115.17" text-anchor="end" dy="0.35em" transform="rotate(-90, 194.53, 115.17)">1988</text>
    <text x="204.98" y="115.17" text-anchor="end" dy="0.35em" transform="rotate(-90, 204.98, 115.17)">1996</text>
    <text x="215.42" y="115.17" text-anchor="end" dy="0.35em" transform="rotate(-90, 215.42, 115.17)">2004</text>
    <text x="225.87" y="115.17" text-anchor="end" dy="0.35em" transform="rotate(-90, 225.87, 115.17)">2012</text>
  </g>
<g clip-path="url(#img-a4add227-13)">
  <g id="img-a4add227-14">
    <g pointer-events="visible" opacity="1" fill="#222831" stroke="#000000" stroke-opacity="0.000" class="guide background" id="img-a4add227-15">
      <rect x="25.38" y="12.91" width="207.72" height="101.26"/>
    </g>
    <g class="guide ygridlines xfixed" stroke-dasharray="0.5,0.5" stroke-width="0.2" stroke="#575757" id="img-a4add227-16">
      <path fill="none" d="M25.38,112.17 L 233.1 112.17"/>
      <path fill="none" d="M25.38,87.86 L 233.1 87.86"/>
      <path fill="none" d="M25.38,63.54 L 233.1 63.54"/>
      <path fill="none" d="M25.38,39.22 L 233.1 39.22"/>
      <path fill="none" d="M25.38,14.91 L 233.1 14.91"/>
    </g>
    <g class="guide xgridlines yfixed" stroke-dasharray="0.5,0.5" stroke-width="0.2" stroke="#575757" id="img-a4add227-17">
      <path fill="none" d="M27.38,12.91 L 27.38 114.17"/>
      <path fill="none" d="M37.83,12.91 L 37.83 114.17"/>
      <path fill="none" d="M48.27,12.91 L 48.27 114.17"/>
      <path fill="none" d="M58.72,12.91 L 58.72 114.17"/>
      <path fill="none" d="M69.17,12.91 L 69.17 114.17"/>
      <path fill="none" d="M79.61,12.91 L 79.61 114.17"/>
      <path fill="none" d="M90.06,12.91 L 90.06 114.17"/>
      <path fill="none" d="M100.51,12.91 L 100.51 114.17"/>
      <path fill="none" d="M110.96,12.91 L 110.96 114.17"/>
      <path fill="none" d="M121.4,12.91 L 121.4 114.17"/>
      <path fill="none" d="M131.85,12.91 L 131.85 114.17"/>
      <path fill="none" d="M142.3,12.91 L 142.3 114.17"/>
      <path fill="none" d="M152.74,12.91 L 152.74 114.17"/>
      <path fill="none" d="M163.19,12.91 L 163.19 114.17"/>
      <path fill="none" d="M173.64,12.91 L 173.64 114.17"/>
      <path fill="none" d="M184.08,12.91 L 184.08 114.17"/>
      <path fill="none" d="M194.53,12.91 L 194.53 114.17"/>
      <path fill="none" d="M204.98,12.91 L 204.98 114.17"/>
      <path fill="none" d="M215.42,12.91 L 215.42 114.17"/>
      <path fill="none" d="M225.87,12.91 L 225.87 114.17"/>
    </g>
    <g class="plotpanel" id="img-a4add227-18">
      <g class="geometry" id="img-a4add227-19">
        <g stroke-width="0.3" id="img-a4add227-20">
          <use xlink:href="#img-a4add227-21" x="32.6" y="35.15" stroke="#B3867B" fill="#FF0000" class="color_Republican"/>
          <use xlink:href="#img-a4add227-21" x="37.83" y="45.23" stroke="#B3867B" fill="#FF0000" class="color_Republican"/>
          <use xlink:href="#img-a4add227-21" x="43.05" y="47.53" stroke="#B3867B" fill="#FF0000" class="color_Republican"/>
          <use xlink:href="#img-a4add227-21" x="48.27" y="50.8" stroke="#B3867B" fill="#FF0000" class="color_Republican"/>
          <use xlink:href="#img-a4add227-21" x="53.5" y="53.42" stroke="#B3867B" fill="#FF0000" class="color_Republican"/>
          <use xlink:href="#img-a4add227-21" x="58.72" y="55.68" stroke="#B3867B" fill="#FF0000" class="color_Republican"/>
          <use xlink:href="#img-a4add227-21" x="63.94" y="58.45" stroke="#B3867B" fill="#FF0000" class="color_Republican"/>
          <use xlink:href="#img-a4add227-21" x="69.17" y="65.1" stroke="#B3867B" fill="#FF0000" class="color_Republican"/>
          <use xlink:href="#img-a4add227-21" x="74.39" y="65.85" stroke="#B3867B" fill="#FF0000" class="color_Republican"/>
          <use xlink:href="#img-a4add227-21" x="79.61" y="61.05" stroke="#B3867B" fill="#FF0000" class="color_Republican"/>
          <use xlink:href="#img-a4add227-21" x="84.84" y="49.13" stroke="#B3867B" fill="#FF0000" class="color_Republican"/>
          <use xlink:href="#img-a4add227-21" x="90.06" y="61.15" stroke="#B3867B" fill="#FF0000" class="color_Republican"/>
          <use xlink:href="#img-a4add227-21" x="95.28" y="92.26" stroke="#B3867B" fill="#FF0000" class="color_Republican"/>
          <use xlink:href="#img-a4add227-21" x="100.51" y="69.29" stroke="#B3867B" fill="#FF0000" class="color_Republican"/>
          <use xlink:href="#img-a4add227-21" x="105.73" y="49.2" stroke="#B3867B" fill="#FF0000" class="color_Republican"/>
          <use xlink:href="#img-a4add227-21" x="110.96" y="52.32" stroke="#B3867B" fill="#FF0000" class="color_Republican"/>
          <use xlink:href="#img-a4add227-21" x="116.18" y="42.12" stroke="#B3867B" fill="#FF0000" class="color_Republican"/>
          <use xlink:href="#img-a4add227-21" x="121.4" y="69.25" stroke="#B3867B" fill="#FF0000" class="color_Republican"/>
          <use xlink:href="#img-a4add227-21" x="126.63" y="67.48" stroke="#B3867B" fill="#FF0000" class="color_Republican"/>
          <use xlink:href="#img-a4add227-21" x="131.85" y="56.87" stroke="#B3867B" fill="#FF0000" class="color_Republican"/>
          <use xlink:href="#img-a4add227-21" x="137.07" y="53.57" stroke="#B3867B" fill="#FF0000" class="color_Republican"/>
          <use xlink:href="#img-a4add227-21" x="142.3" y="60.01" stroke="#B3867B" fill="#FF0000" class="color_Republican"/>
          <use xlink:href="#img-a4add227-21" x="147.52" y="45.28" stroke="#B3867B" fill="#FF0000" class="color_Republican"/>
          <use xlink:href="#img-a4add227-21" x="152.74" y="48.52" stroke="#B3867B" fill="#FF0000" class="color_Republican"/>
          <use xlink:href="#img-a4add227-21" x="157.97" y="53.38" stroke="#B3867B" fill="#FF0000" class="color_Republican"/>
          <use xlink:href="#img-a4add227-21" x="163.19" y="68.34" stroke="#B3867B" fill="#FF0000" class="color_Republican"/>
          <use xlink:href="#img-a4add227-21" x="168.41" y="58.83" stroke="#B3867B" fill="#FF0000" class="color_Republican"/>
          <use xlink:href="#img-a4add227-21" x="173.64" y="46.37" stroke="#B3867B" fill="#FF0000" class="color_Republican"/>
          <use xlink:href="#img-a4add227-21" x="178.86" y="61.12" stroke="#B3867B" fill="#FF0000" class="color_Republican"/>
          <use xlink:href="#img-a4add227-21" x="184.08" y="55.91" stroke="#B3867B" fill="#FF0000" class="color_Republican"/>
          <use xlink:href="#img-a4add227-21" x="189.31" y="47.71" stroke="#B3867B" fill="#FF0000" class="color_Republican"/>
          <use xlink:href="#img-a4add227-21" x="194.53" y="57.91" stroke="#B3867B" fill="#FF0000" class="color_Republican"/>
          <use xlink:href="#img-a4add227-21" x="199.75" y="74.35" stroke="#B3867B" fill="#FF0000" class="color_Republican"/>
          <use xlink:href="#img-a4add227-21" x="204.98" y="59.37" stroke="#B3867B" fill="#FF0000" class="color_Republican"/>
          <use xlink:href="#img-a4add227-21" x="210.2" y="55.72" stroke="#B3867B" fill="#FF0000" class="color_Republican"/>
          <use xlink:href="#img-a4add227-21" x="215.42" y="51.86" stroke="#B3867B" fill="#FF0000" class="color_Republican"/>
          <use xlink:href="#img-a4add227-21" x="220.65" y="57.24" stroke="#B3867B" fill="#FF0000" class="color_Republican"/>
          <use xlink:href="#img-a4add227-21" x="225.87" y="54.21" stroke="#B3867B" fill="#FF0000" class="color_Republican"/>
          <use xlink:href="#img-a4add227-21" x="32.6" y="94.88" stroke="#988BAD" fill="#0000FF" class="color_Democratic"/>
          <use xlink:href="#img-a4add227-21" x="37.83" y="81.85" stroke="#988BAD" fill="#0000FF" class="color_Democratic"/>
          <use xlink:href="#img-a4add227-21" x="43.05" y="80.27" stroke="#988BAD" fill="#0000FF" class="color_Democratic"/>
          <use xlink:href="#img-a4add227-21" x="48.27" y="82.47" stroke="#988BAD" fill="#0000FF" class="color_Democratic"/>
          <use xlink:href="#img-a4add227-21" x="53.5" y="83.27" stroke="#988BAD" fill="#0000FF" class="color_Democratic"/>
          <use xlink:href="#img-a4add227-21" x="58.72" y="79.2" stroke="#988BAD" fill="#0000FF" class="color_Democratic"/>
          <use xlink:href="#img-a4add227-21" x="63.94" y="81.99" stroke="#988BAD" fill="#0000FF" class="color_Democratic"/>
          <use xlink:href="#img-a4add227-21" x="69.17" y="112.17" stroke="#988BAD" fill="#0000FF" class="color_Democratic"/>
          <use xlink:href="#img-a4add227-21" x="74.39" y="62.26" stroke="#988BAD" fill="#0000FF" class="color_Democratic"/>
          <use xlink:href="#img-a4add227-21" x="79.61" y="67.47" stroke="#988BAD" fill="#0000FF" class="color_Democratic"/>
          <use xlink:href="#img-a4add227-21" x="84.84" y="86.66" stroke="#988BAD" fill="#0000FF" class="color_Democratic"/>
          <use xlink:href="#img-a4add227-21" x="90.06" y="70.46" stroke="#988BAD" fill="#0000FF" class="color_Democratic"/>
          <use xlink:href="#img-a4add227-21" x="95.28" y="73.95" stroke="#988BAD" fill="#0000FF" class="color_Democratic"/>
          <use xlink:href="#img-a4add227-21" x="100.51" y="63.59" stroke="#988BAD" fill="#0000FF" class="color_Democratic"/>
          <use xlink:href="#img-a4add227-21" x="105.73" y="80.54" stroke="#988BAD" fill="#0000FF" class="color_Democratic"/>
          <use xlink:href="#img-a4add227-21" x="110.96" y="89.22" stroke="#988BAD" fill="#0000FF" class="color_Democratic"/>
          <use xlink:href="#img-a4add227-21" x="116.18" y="85.85" stroke="#988BAD" fill="#0000FF" class="color_Democratic"/>
          <use xlink:href="#img-a4add227-21" x="121.4" y="60.08" stroke="#988BAD" fill="#0000FF" class="color_Democratic"/>
          <use xlink:href="#img-a4add227-21" x="126.63" y="59.97" stroke="#988BAD" fill="#0000FF" class="color_Democratic"/>
          <use xlink:href="#img-a4add227-21" x="131.85" y="70.94" stroke="#988BAD" fill="#0000FF" class="color_Democratic"/>
          <use xlink:href="#img-a4add227-21" x="137.07" y="74.07" stroke="#988BAD" fill="#0000FF" class="color_Democratic"/>
          <use xlink:href="#img-a4add227-21" x="142.3" y="68.78" stroke="#988BAD" fill="#0000FF" class="color_Democratic"/>
          <use xlink:href="#img-a4add227-21" x="147.52" y="82.51" stroke="#988BAD" fill="#0000FF" class="color_Democratic"/>
          <use xlink:href="#img-a4add227-21" x="152.74" y="78.9" stroke="#988BAD" fill="#0000FF" class="color_Democratic"/>
          <use xlink:href="#img-a4add227-21" x="157.97" y="74.14" stroke="#988BAD" fill="#0000FF" class="color_Democratic"/>
          <use xlink:href="#img-a4add227-21" x="163.19" y="59.56" stroke="#988BAD" fill="#0000FF" class="color_Democratic"/>
          <use xlink:href="#img-a4add227-21" x="168.41" y="78.41" stroke="#988BAD" fill="#0000FF" class="color_Democratic"/>
          <use xlink:href="#img-a4add227-21" x="173.64" y="83.47" stroke="#988BAD" fill="#0000FF" class="color_Democratic"/>
          <use xlink:href="#img-a4add227-21" x="178.86" y="68.47" stroke="#988BAD" fill="#0000FF" class="color_Democratic"/>
          <use xlink:href="#img-a4add227-21" x="184.08" y="79.79" stroke="#988BAD" fill="#0000FF" class="color_Democratic"/>
          <use xlink:href="#img-a4add227-21" x="189.31" y="80.47" stroke="#988BAD" fill="#0000FF" class="color_Democratic"/>
          <use xlink:href="#img-a4add227-21" x="194.53" y="70.78" stroke="#988BAD" fill="#0000FF" class="color_Democratic"/>
          <use xlink:href="#img-a4add227-21" x="199.75" y="79.36" stroke="#988BAD" fill="#0000FF" class="color_Democratic"/>
          <use xlink:href="#img-a4add227-21" x="204.98" y="77.07" stroke="#988BAD" fill="#0000FF" class="color_Democratic"/>
          <use xlink:href="#img-a4add227-21" x="210.2" y="75.95" stroke="#988BAD" fill="#0000FF" class="color_Democratic"/>
          <use xlink:href="#img-a4add227-21" x="215.42" y="76.55" stroke="#988BAD" fill="#0000FF" class="color_Democratic"/>
          <use xlink:href="#img-a4add227-21" x="220.65" y="71.76" stroke="#988BAD" fill="#0000FF" class="color_Democratic"/>
          <use xlink:href="#img-a4add227-21" x="225.87" y="75.21" stroke="#988BAD" fill="#0000FF" class="color_Democratic"/>
        </g>
      </g>
      <g stroke-width="0.3" fill="#000000" fill-opacity="0.000" stroke-dasharray="none" id="img-a4add227-22">
        <path fill="none" d="M32.6,94.88 L 37.83 81.85 43.05 80.27 48.27 82.47 53.5 83.27 58.72 79.2 63.94 81.99 69.17 112.17 74.39 62.26 79.61 67.47 84.84 86.66 90.06 70.46 95.28 73.95 100.51 63.59 105.73 80.54 110.96 89.22 116.18 85.85 121.4 60.08 126.63 59.97 131.85 70.94 137.07 74.07 142.3 68.78 147.52 82.51 152.74 78.9 157.97 74.14 163.19 59.56 168.41 78.41 173.64 83.47 178.86 68.47 184.08 79.79 189.31 80.47 194.53 70.78 199.75 79.36 204.98 77.07 210.2 75.95 215.42 76.55 220.65 71.76 225.87 75.21" stroke="#0000FF" class="geometry color_Democratic"/>
        <path fill="none" d="M32.6,35.15 L 37.83 45.23 43.05 47.53 48.27 50.8 53.5 53.42 58.72 55.68 63.94 58.45 69.17 65.1 74.39 65.85 79.61 61.05 84.84 49.13 90.06 61.15 95.28 92.26 100.51 69.29 105.73 49.2 110.96 52.32 116.18 42.12 121.4 69.25 126.63 67.48 131.85 56.87 137.07 53.57 142.3 60.01 147.52 45.28 152.74 48.52 157.97 53.38 163.19 68.34 168.41 58.83 173.64 46.37 178.86 61.12 184.08 55.91 189.31 47.71 194.53 57.91 199.75 74.35 204.98 59.37 210.2 55.72 215.42 51.86 220.65 57.24 225.87 54.21" stroke="#FF0000" class="geometry color_Republican"/>
      </g>
    </g>
  </g>
</g>
  <g class="guide ylabels" font-size="4.76" font-family="'PT Sans Caption','Helvetica Neue','Helvetica',sans-serif" fill="#A1A1A1" id="img-a4add227-23">
    <text x="24.38" y="112.17" text-anchor="end" dy="0.35em">0</text>
    <text x="24.38" y="87.86" text-anchor="end" dy="0.35em">25</text>
    <text x="24.38" y="63.54" text-anchor="end" dy="0.35em">50</text>
    <text x="24.38" y="39.22" text-anchor="end" dy="0.35em">75</text>
    <text x="24.38" y="14.91" text-anchor="end" dy="0.35em">100</text>
  </g>
  <g font-size="6.35" font-family="'PT Sans','Helvetica Neue','Helvetica',sans-serif" fill="#A1A1A1" stroke="#000000" stroke-opacity="0.000" id="img-a4add227-24">
    <text x="9.95" y="61.54" text-anchor="middle" dy="0.35em" transform="rotate(-90, 9.95, 63.54)">Popular Vote (%)</text>
  </g>
  <g font-size="6.35" font-family="'PT Sans','Helvetica Neue','Helvetica',sans-serif" fill="#A1A1A1" stroke="#000000" stroke-opacity="0.000" id="img-a4add227-25">
    <text x="129.24" y="5" text-anchor="middle" dy="0.6em">Kansas</text>
  </g>
</g>
<defs>
  <clipPath id="img-a4add227-13">
  <path d="M25.38,12.91 L 233.1 12.91 233.1 114.17 25.38 114.17" />
</clipPath>
  <g id="img-a4add227-21">
    <circle cx="0" cy="0" r="0.9"/>
  </g>
</defs>
</svg>
