<svg xmlns="http://www.w3.org/2000/svg" xmlns:xlink="http://www.w3.org/1999/xlink" version="1.2" width="238.1mm" height="599.924" viewBox="0 0 238.1 158.73" stroke-width=".3" font-size="3.88"><path d="M0 0h238.1v158.73H0z" stroke="#000" stroke-opacity="0" fill="#222831"/><g class="plotroot xscalable yscalable"><g class="guide colorkey"><g class="color_Democratic"><text x="51.52" y="148.78" dy=".35em" fill="#A1A1A1" font-size="3.7" font-family="'PT Sans','Helvetica Neue','Helvetica',sans-serif">Democratic</text><path d="M48.29 147.66h2.22v2.22h-2.22z" fill="#00F" stroke="#000" stroke-opacity="0"/></g><g class="color_Republican"><text x="29.6" y="148.78" dy=".35em" fill="#A1A1A1" font-size="3.7" font-family="'PT Sans','Helvetica Neue','Helvetica',sans-serif">Republican</text><path d="M26.38 147.66h2.22v2.22h-2.22z" fill="#F00" stroke="#000" stroke-opacity="0"/></g><text x="26.38" y="145.28" fill="#A1A1A1" font-size="6.35" font-family="'PT Sans','Helvetica Neue','Helvetica',sans-serif" stroke="#000" stroke-opacity="0">Party</text></g><text x="129.24" y="130.46" text-anchor="middle" dy=".6em" font-size="6.35" font-family="'PT Sans','Helvetica Neue','Helvetica',sans-serif" fill="#A1A1A1" stroke="#000" stroke-opacity="0">Year</text><g class="guide xlabels" font-size="4.76" font-family="'PT Sans Caption','Helvetica Neue','Helvetica',sans-serif" fill="#A1A1A1" text-anchor="end"><text x="27.38" y="115.17" dy=".35em" transform="rotate(-90 27.38 115.17)">1860</text><text x="37.83" y="115.17" dy=".35em" transform="rotate(-90 37.83 115.17)">1868</text><text x="48.27" y="115.17" dy=".35em" transform="rotate(-90 48.27 115.17)">1876</text><text x="58.72" y="115.17" dy=".35em" transform="rotate(-90 58.72 115.17)">1884</text><text x="69.17" y="115.17" dy=".35em" transform="rotate(-90 69.17 115.17)">1892</text><text x="79.61" y="115.17" dy=".35em" transform="rotate(-90 79.61 115.17)">1900</text><text x="90.06" y="115.17" dy=".35em" transform="rotate(-90 90.06 115.17)">1908</text><text x="100.51" y="115.17" dy=".35em" transform="rotate(-90 100.51 115.17)">1916</text><text x="110.96" y="115.17" dy=".35em" transform="rotate(-90 110.96 115.17)">1924</text><text x="121.4" y="115.17" dy=".35em" transform="rotate(-90 121.4 115.17)">1932</text><text x="131.85" y="115.17" dy=".35em" transform="rotate(-90 131.85 115.17)">1940</text><text x="142.3" y="115.17" dy=".35em" transform="rotate(-90 142.3 115.17)">1948</text><text x="152.74" y="115.17" dy=".35em" transform="rotate(-90 152.74 115.17)">1956</text><text x="163.19" y="115.17" dy=".35em" transform="rotate(-90 163.19 115.17)">1964</text><text x="173.64" y="115.17" dy=".35em" transform="rotate(-90 173.64 115.17)">1972</text><text x="184.08" y="115.17" dy=".35em" transform="rotate(-90 184.08 115.17)">1980</text><text x="194.53" y="115.17" dy=".35em" transform="rotate(-90 194.53 115.17)">1988</text><text x="204.98" y="115.17" dy=".35em" transform="rotate(-90 204.98 115.17)">1996</text><text x="215.42" y="115.17" dy=".35em" transform="rotate(-90 215.42 115.17)">2004</text><text x="225.87" y="115.17" dy=".35em" transform="rotate(-90 225.87 115.17)">2012</text></g><g clip-path="url(#a)"><path d="M25.38 12.91H233.1v101.26H25.38z" pointer-events="visible" fill="#222831" stroke="#000" stroke-opacity="0" class="guide background"/><g class="guide ygridlines xfixed" stroke-dasharray="0.5,0.5" stroke-width=".2" stroke="#575757" fill="none"><path d="M25.38 112.17H233.1M25.38 87.86H233.1M25.38 63.54H233.1M25.38 39.22H233.1M25.38 14.91H233.1"/></g><g class="guide xgridlines yfixed" stroke-dasharray="0.5,0.5" stroke-width=".2" stroke="#575757" fill="none"><path d="M27.38 12.91v101.26M37.83 12.91v101.26M48.27 12.91v101.26M58.72 12.91v101.26M69.17 12.91v101.26M79.61 12.91v101.26M90.06 12.91v101.26M100.51 12.91v101.26M110.96 12.91v101.26M121.4 12.91v101.26M131.85 12.91v101.26M142.3 12.91v101.26M152.74 12.91v101.26M163.19 12.91v101.26M173.64 12.91v101.26M184.08 12.91v101.26M194.53 12.91v101.26M204.98 12.91v101.26M215.42 12.91v101.26M225.87 12.91v101.26"/></g><g class="plotpanel"><g class="geometry"><use xlink:href="#b" x="32.6" y="35.15" stroke="#B3867B" fill="#F00" class="color_Republican"/><use xlink:href="#b" x="37.83" y="45.23" stroke="#B3867B" fill="#F00" class="color_Republican"/><use xlink:href="#b" x="43.05" y="47.53" stroke="#B3867B" fill="#F00" class="color_Republican"/><use xlink:href="#b" x="48.27" y="50.8" stroke="#B3867B" fill="#F00" class="color_Republican"/><use xlink:href="#b" x="53.5" y="53.42" stroke="#B3867B" fill="#F00" class="color_Republican"/><use xlink:href="#b" x="58.72" y="55.68" stroke="#B3867B" fill="#F00" class="color_Republican"/><use xlink:href="#b" x="63.94" y="58.45" stroke="#B3867B" fill="#F00" class="color_Republican"/><use xlink:href="#b" x="69.17" y="65.1" stroke="#B3867B" fill="#F00" class="color_Republican"/><use xlink:href="#b" x="74.39" y="65.85" stroke="#B3867B" fill="#F00" class="color_Republican"/><use xlink:href="#b" x="79.61" y="61.05" stroke="#B3867B" fill="#F00" class="color_Republican"/><use xlink:href="#b" x="84.84" y="49.13" stroke="#B3867B" fill="#F00" class="color_Republican"/><use xlink:href="#b" x="90.06" y="61.15" stroke="#B3867B" fill="#F00" class="color_Republican"/><use xlink:href="#b" x="95.28" y="92.26" stroke="#B3867B" fill="#F00" class="color_Republican"/><use xlink:href="#b" x="100.51" y="69.29" stroke="#B3867B" fill="#F00" class="color_Republican"/><use xlink:href="#b" x="105.73" y="49.2" stroke="#B3867B" fill="#F00" class="color_Republican"/><use xlink:href="#b" x="110.96" y="52.32" stroke="#B3867B" fill="#F00" class="color_Republican"/><use xlink:href="#b" x="116.18" y="42.12" stroke="#B3867B" fill="#F00" class="color_Republican"/><use xlink:href="#b" x="121.4" y="69.25" stroke="#B3867B" fill="#F00" class="color_Republican"/><use xlink:href="#b" x="126.63" y="67.48" stroke="#B3867B" fill="#F00" class="color_Republican"/><use xlink:href="#b" x="131.85" y="56.87" stroke="#B3867B" fill="#F00" class="color_Republican"/><use xlink:href="#b" x="137.07" y="53.57" stroke="#B3867B" fill="#F00" class="color_Republican"/><use xlink:href="#b" x="142.3" y="60.01" stroke="#B3867B" fill="#F00" class="color_Republican"/><use xlink:href="#b" x="147.52" y="45.28" stroke="#B3867B" fill="#F00" class="color_Republican"/><use xlink:href="#b" x="152.74" y="48.52" stroke="#B3867B" fill="#F00" class="color_Republican"/><use xlink:href="#b" x="157.97" y="53.38" stroke="#B3867B" fill="#F00" class="color_Republican"/><use xlink:href="#b" x="163.19" y="68.34" stroke="#B3867B" fill="#F00" class="color_Republican"/><use xlink:href="#b" x="168.41" y="58.83" stroke="#B3867B" fill="#F00" class="color_Republican"/><use xlink:href="#b" x="173.64" y="46.37" stroke="#B3867B" fill="#F00" class="color_Republican"/><use xlink:href="#b" x="178.86" y="61.12" stroke="#B3867B" fill="#F00" class="color_Republican"/><use xlink:href="#b" x="184.08" y="55.91" stroke="#B3867B" fill="#F00" class="color_Republican"/><use xlink:href="#b" x="189.31" y="47.71" stroke="#B3867B" fill="#F00" class="color_Republican"/><use xlink:href="#b" x="194.53" y="57.91" stroke="#B3867B" fill="#F00" class="color_Republican"/><use xlink:href="#b" x="199.75" y="74.35" stroke="#B3867B" fill="#F00" class="color_Republican"/><use xlink:href="#b" x="204.98" y="59.37" stroke="#B3867B" fill="#F00" class="color_Republican"/><use xlink:href="#b" x="210.2" y="55.72" stroke="#B3867B" fill="#F00" class="color_Republican"/><use xlink:href="#b" x="215.42" y="51.86" stroke="#B3867B" fill="#F00" class="color_Republican"/><use xlink:href="#b" x="220.65" y="57.24" stroke="#B3867B" fill="#F00" class="color_Republican"/><use xlink:href="#b" x="225.87" y="54.21" stroke="#B3867B" fill="#F00" class="color_Republican"/><use xlink:href="#b" x="32.6" y="94.88" stroke="#988BAD" fill="#00F" class="color_Democratic"/><use xlink:href="#b" x="37.83" y="81.85" stroke="#988BAD" fill="#00F" class="color_Democratic"/><use xlink:href="#b" x="43.05" y="80.27" stroke="#988BAD" fill="#00F" class="color_Democratic"/><use xlink:href="#b" x="48.27" y="82.47" stroke="#988BAD" fill="#00F" class="color_Democratic"/><use xlink:href="#b" x="53.5" y="83.27" stroke="#988BAD" fill="#00F" class="color_Democratic"/><use xlink:href="#b" x="58.72" y="79.2" stroke="#988BAD" fill="#00F" class="color_Democratic"/><use xlink:href="#b" x="63.94" y="81.99" stroke="#988BAD" fill="#00F" class="color_Democratic"/><use xlink:href="#b" x="69.17" y="112.17" stroke="#988BAD" fill="#00F" class="color_Democratic"/><use xlink:href="#b" x="74.39" y="62.26" stroke="#988BAD" fill="#00F" class="color_Democratic"/><use xlink:href="#b" x="79.61" y="67.47" stroke="#988BAD" fill="#00F" class="color_Democratic"/><use xlink:href="#b" x="84.84" y="86.66" stroke="#988BAD" fill="#00F" class="color_Democratic"/><use xlink:href="#b" x="90.06" y="70.46" stroke="#988BAD" fill="#00F" class="color_Democratic"/><use xlink:href="#b" x="95.28" y="73.95" stroke="#988BAD" fill="#00F" class="color_Democratic"/><use xlink:href="#b" x="100.51" y="63.59" stroke="#988BAD" fill="#00F" class="color_Democratic"/><use xlink:href="#b" x="105.73" y="80.54" stroke="#988BAD" fill="#00F" class="color_Democratic"/><use xlink:href="#b" x="110.96" y="89.22" stroke="#988BAD" fill="#00F" class="color_Democratic"/><use xlink:href="#b" x="116.18" y="85.85" stroke="#988BAD" fill="#00F" class="color_Democratic"/><use xlink:href="#b" x="121.4" y="60.08" stroke="#988BAD" fill="#00F" class="color_Democratic"/><use xlink:href="#b" x="126.63" y="59.97" stroke="#988BAD" fill="#00F" class="color_Democratic"/><use xlink:href="#b" x="131.85" y="70.94" stroke="#988BAD" fill="#00F" class="color_Democratic"/><use xlink:href="#b" x="137.07" y="74.07" stroke="#988BAD" fill="#00F" class="color_Democratic"/><use xlink:href="#b" x="142.3" y="68.78" stroke="#988BAD" fill="#00F" class="color_Democratic"/><use xlink:href="#b" x="147.52" y="82.51" stroke="#988BAD" fill="#00F" class="color_Democratic"/><use xlink:href="#b" x="152.74" y="78.9" stroke="#988BAD" fill="#00F" class="color_Democratic"/><use xlink:href="#b" x="157.97" y="74.14" stroke="#988BAD" fill="#00F" class="color_Democratic"/><use xlink:href="#b" x="163.19" y="59.56" stroke="#988BAD" fill="#00F" class="color_Democratic"/><use xlink:href="#b" x="168.41" y="78.41" stroke="#988BAD" fill="#00F" class="color_Democratic"/><use xlink:href="#b" x="173.64" y="83.47" stroke="#988BAD" fill="#00F" class="color_Democratic"/><use xlink:href="#b" x="178.86" y="68.47" stroke="#988BAD" fill="#00F" class="color_Democratic"/><use xlink:href="#b" x="184.08" y="79.79" stroke="#988BAD" fill="#00F" class="color_Democratic"/><use xlink:href="#b" x="189.31" y="80.47" stroke="#988BAD" fill="#00F" class="color_Democratic"/><use xlink:href="#b" x="194.53" y="70.78" stroke="#988BAD" fill="#00F" class="color_Democratic"/><use xlink:href="#b" x="199.75" y="79.36" stroke="#988BAD" fill="#00F" class="color_Democratic"/><use xlink:href="#b" x="204.98" y="77.07" stroke="#988BAD" fill="#00F" class="color_Democratic"/><use xlink:href="#b" x="210.2" y="75.95" stroke="#988BAD" fill="#00F" class="color_Democratic"/><use xlink:href="#b" x="215.42" y="76.55" stroke="#988BAD" fill="#00F" class="color_Democratic"/><use xlink:href="#b" x="220.65" y="71.76" stroke="#988BAD" fill="#00F" class="color_Democratic"/><use xlink:href="#b" x="225.87" y="75.21" stroke="#988BAD" fill="#00F" class="color_Democratic"/></g><g fill-opacity="0"><path fill="none" d="M32.6 94.88l5.23-13.03 5.22-1.58 5.22 2.2 5.23.8 5.22-4.07 5.22 2.79 5.23 30.18 5.22-49.91 5.22 5.21 5.23 19.19 5.22-16.2 5.22 3.49 5.23-10.36 5.22 16.95 5.23 8.68 5.22-3.37 5.22-25.77 5.23-.11 5.22 10.97 5.22 3.13 5.23-5.29 5.22 13.73 5.22-3.61 5.23-4.76 5.22-14.58 5.22 18.85 5.23 5.06 5.22-15 5.22 11.32 5.23.68 5.22-9.69 5.22 8.58 5.23-2.29 5.22-1.12 5.22.6 5.23-4.79 5.22 3.45" stroke="#00F" class="geometry color_Democratic"/><path fill="none" d="M32.6 35.15l5.23 10.08 5.22 2.3 5.22 3.27 5.23 2.62 5.22 2.26 5.22 2.77 5.23 6.65 5.22.75 5.22-4.8 5.23-11.92 5.22 12.02 5.22 31.11 5.23-22.97 5.22-20.09 5.23 3.12 5.22-10.2 5.22 27.13 5.23-1.77 5.22-10.61 5.22-3.3 5.23 6.44 5.22-14.73 5.22 3.24 5.23 4.86 5.22 14.96 5.22-9.51 5.23-12.46 5.22 14.75 5.22-5.21 5.23-8.2 5.22 10.2 5.22 16.44 5.23-14.98 5.22-3.65 5.22-3.86 5.23 5.38 5.22-3.03" stroke="#F00" class="geometry color_Republican"/></g></g></g><g class="guide ylabels" font-size="4.76" font-family="'PT Sans Caption','Helvetica Neue','Helvetica',sans-serif" fill="#A1A1A1" text-anchor="end"><text x="24.38" y="112.17" dy=".35em">0</text><text x="24.38" y="87.86" dy=".35em">25</text><text x="24.38" y="63.54" dy=".35em">50</text><text x="24.38" y="39.22" dy=".35em">75</text><text x="24.38" y="14.91" dy=".35em">100</text></g><text x="9.95" y="61.54" text-anchor="middle" dy=".35em" transform="rotate(-90 9.95 63.54)" font-size="6.35" font-family="'PT Sans','Helvetica Neue','Helvetica',sans-serif" fill="#A1A1A1" stroke="#000" stroke-opacity="0">Popular Vote (%)</text><text x="129.24" y="5" text-anchor="middle" dy=".6em" font-size="6.35" font-family="'PT Sans','Helvetica Neue','Helvetica',sans-serif" fill="#A1A1A1" stroke="#000" stroke-opacity="0">Kansas</text></g><defs><clipPath id="a"><path d="M25.38 12.91H233.1v101.26H25.38"/></clipPath><circle r=".9" id="b"/></defs></svg>