<?xml version="1.0" encoding="UTF-8"?>
<svg xmlns="http://www.w3.org/2000/svg"
     xmlns:xlink="http://www.w3.org/1999/xlink"
     xmlns:gadfly="http://www.gadflyjl.org/ns"
     version="1.2"
     width="320mm" height="160mm" viewBox="0 0 320 160"
     stroke="none"
     fill="#000000"
     stroke-width="0.3"
     font-size="3.88"
>
<g class="plotroot xscalable yscalable" id="img-96b57e9d-1">
  <g class="guide colorkey" id="img-96b57e9d-2">
    <g class="color_Democratic" id="img-96b57e9d-3">
      <g fill="#FFFFFF" font-size="4.76" font-family="'PT Sans','Helvetica Neue','Helvetica',sans-serif" id="img-96b57e9d-4">
        <text x="58.33" y="149.82" dy="0.35em">Democratic</text>
      </g>
      <g fill="#0000FF" stroke="#000000" stroke-opacity="0.000" id="img-96b57e9d-5">
        <rect x="54.36" y="148.34" width="2.97" height="2.97"/>
      </g>
    </g>
    <g class="color_Republican" id="img-96b57e9d-6">
      <g fill="#FFFFFF" font-size="4.76" font-family="'PT Sans','Helvetica Neue','Helvetica',sans-serif" id="img-96b57e9d-7">
        <text x="29.73" y="149.82" dy="0.35em">Republican</text>
      </g>
      <g fill="#FF0000" stroke="#000000" stroke-opacity="0.000" id="img-96b57e9d-8">
        <rect x="25.76" y="148.34" width="2.97" height="2.97"/>
      </g>
    </g>
    <g fill="#FFFFFF" font-size="6.35" font-family="'PT Sans','Helvetica Neue','Helvetica',sans-serif" stroke="#000000" stroke-opacity="0.000" id="img-96b57e9d-9">
      <text x="25.76" y="145.06">Party</text>
    </g>
  </g>
  <g font-size="6.35" font-family="'PT Sans','Helvetica Neue','Helvetica',sans-serif" fill="#FFFFFF" stroke="#000000" stroke-opacity="0.000" id="img-96b57e9d-10">
    <text x="169.88" y="130.77" text-anchor="middle" dy="0.6em">Year</text>
  </g>
  <g class="guide xlabels" font-size="4.76" font-family="'PT Sans Caption','Helvetica Neue','Helvetica',sans-serif" fill="#FFFFFF" id="img-96b57e9d-11">
    <text x="26.76" y="122.89" text-anchor="middle" dy="0.6em">1860</text>
    <text x="41.44" y="122.89" text-anchor="middle" dy="0.6em">1868</text>
    <text x="56.12" y="122.89" text-anchor="middle" dy="0.6em">1876</text>
    <text x="70.8" y="122.89" text-anchor="middle" dy="0.6em">1884</text>
    <text x="85.47" y="122.89" text-anchor="middle" dy="0.6em">1892</text>
    <text x="100.15" y="122.89" text-anchor="middle" dy="0.6em">1900</text>
    <text x="114.83" y="122.89" text-anchor="middle" dy="0.6em">1908</text>
    <text x="129.51" y="122.89" text-anchor="middle" dy="0.6em">1916</text>
    <text x="144.19" y="122.89" text-anchor="middle" dy="0.6em">1924</text>
    <text x="158.87" y="122.89" text-anchor="middle" dy="0.6em">1932</text>
    <text x="173.55" y="122.89" text-anchor="middle" dy="0.6em">1940</text>
    <text x="188.23" y="122.89" text-anchor="middle" dy="0.6em">1948</text>
    <text x="202.91" y="122.89" text-anchor="middle" dy="0.6em">1956</text>
    <text x="217.59" y="122.89" text-anchor="middle" dy="0.6em">1964</text>
    <text x="232.27" y="122.89" text-anchor="middle" dy="0.6em">1972</text>
    <text x="246.94" y="122.89" text-anchor="middle" dy="0.6em">1980</text>
    <text x="261.62" y="122.89" text-anchor="middle" dy="0.6em">1988</text>
    <text x="276.3" y="122.89" text-anchor="middle" dy="0.6em">1996</text>
    <text x="290.98" y="122.89" text-anchor="middle" dy="0.6em">2004</text>
    <text x="305.66" y="122.89" text-anchor="middle" dy="0.6em">2012</text>
  </g>
<g clip-path="url(#img-96b57e9d-12)">
  <g id="img-96b57e9d-13">
    <g pointer-events="visible" opacity="1" fill="#000000" fill-opacity="0.000" stroke="#000000" stroke-opacity="0.000" class="guide background" id="img-96b57e9d-14">
      <rect x="24.76" y="13.94" width="290.24" height="107.95"/>
    </g>
    <g class="guide ygridlines xfixed" stroke-dasharray="0.5,0.5" stroke-width="0.26" stroke="#FFFFFF" id="img-96b57e9d-15">
      <path fill="none" d="M24.76,119.89 L 315 119.89"/>
      <path fill="none" d="M24.76,93.9 L 315 93.9"/>
      <path fill="none" d="M24.76,67.92 L 315 67.92"/>
      <path fill="none" d="M24.76,41.93 L 315 41.93"/>
      <path fill="none" d="M24.76,15.94 L 315 15.94"/>
    </g>
    <g class="guide xgridlines yfixed" stroke-dasharray="0.5,0.5" stroke-width="0.26" stroke="#FFFFFF" id="img-96b57e9d-16">
      <path fill="none" d="M26.76,13.94 L 26.76 121.89"/>
      <path fill="none" d="M41.44,13.94 L 41.44 121.89"/>
      <path fill="none" d="M56.12,13.94 L 56.12 121.89"/>
      <path fill="none" d="M70.8,13.94 L 70.8 121.89"/>
      <path fill="none" d="M85.47,13.94 L 85.47 121.89"/>
      <path fill="none" d="M100.15,13.94 L 100.15 121.89"/>
      <path fill="none" d="M114.83,13.94 L 114.83 121.89"/>
      <path fill="none" d="M129.51,13.94 L 129.51 121.89"/>
      <path fill="none" d="M144.19,13.94 L 144.19 121.89"/>
      <path fill="none" d="M158.87,13.94 L 158.87 121.89"/>
      <path fill="none" d="M173.55,13.94 L 173.55 121.89"/>
      <path fill="none" d="M188.23,13.94 L 188.23 121.89"/>
      <path fill="none" d="M202.91,13.94 L 202.91 121.89"/>
      <path fill="none" d="M217.59,13.94 L 217.59 121.89"/>
      <path fill="none" d="M232.27,13.94 L 232.27 121.89"/>
      <path fill="none" d="M246.94,13.94 L 246.94 121.89"/>
      <path fill="none" d="M261.62,13.94 L 261.62 121.89"/>
      <path fill="none" d="M276.3,13.94 L 276.3 121.89"/>
      <path fill="none" d="M290.98,13.94 L 290.98 121.89"/>
      <path fill="none" d="M305.66,13.94 L 305.66 121.89"/>
    </g>
    <g class="plotpanel" id="img-96b57e9d-17">
      <g class="geometry" id="img-96b57e9d-18">
        <g stroke-width="0.3" id="img-96b57e9d-19">
          <use xlink:href="#img-96b57e9d-20" x="34.1" y="37.57" stroke="#FFFFFF" fill="#FF0000" class="color_Republican"/>
          <use xlink:href="#img-96b57e9d-20" x="41.44" y="48.35" stroke="#FFFFFF" fill="#FF0000" class="color_Republican"/>
          <use xlink:href="#img-96b57e9d-20" x="48.78" y="50.8" stroke="#FFFFFF" fill="#FF0000" class="color_Republican"/>
          <use xlink:href="#img-96b57e9d-20" x="56.12" y="54.3" stroke="#FFFFFF" fill="#FF0000" class="color_Republican"/>
          <use xlink:href="#img-96b57e9d-20" x="63.46" y="57.1" stroke="#FFFFFF" fill="#FF0000" class="color_Republican"/>
          <use xlink:href="#img-96b57e9d-20" x="70.8" y="59.52" stroke="#FFFFFF" fill="#FF0000" class="color_Republican"/>
          <use xlink:href="#img-96b57e9d-20" x="78.14" y="62.48" stroke="#FFFFFF" fill="#FF0000" class="color_Republican"/>
          <use xlink:href="#img-96b57e9d-20" x="85.47" y="69.58" stroke="#FFFFFF" fill="#FF0000" class="color_Republican"/>
          <use xlink:href="#img-96b57e9d-20" x="92.81" y="70.38" stroke="#FFFFFF" fill="#FF0000" class="color_Republican"/>
          <use xlink:href="#img-96b57e9d-20" x="100.15" y="65.25" stroke="#FFFFFF" fill="#FF0000" class="color_Republican"/>
          <use xlink:href="#img-96b57e9d-20" x="107.49" y="52.52" stroke="#FFFFFF" fill="#FF0000" class="color_Republican"/>
          <use xlink:href="#img-96b57e9d-20" x="114.83" y="65.36" stroke="#FFFFFF" fill="#FF0000" class="color_Republican"/>
          <use xlink:href="#img-96b57e9d-20" x="122.17" y="98.61" stroke="#FFFFFF" fill="#FF0000" class="color_Republican"/>
          <use xlink:href="#img-96b57e9d-20" x="129.51" y="74.06" stroke="#FFFFFF" fill="#FF0000" class="color_Republican"/>
          <use xlink:href="#img-96b57e9d-20" x="136.85" y="52.58" stroke="#FFFFFF" fill="#FF0000" class="color_Republican"/>
          <use xlink:href="#img-96b57e9d-20" x="144.19" y="55.92" stroke="#FFFFFF" fill="#FF0000" class="color_Republican"/>
          <use xlink:href="#img-96b57e9d-20" x="151.53" y="45.02" stroke="#FFFFFF" fill="#FF0000" class="color_Republican"/>
          <use xlink:href="#img-96b57e9d-20" x="158.87" y="74.02" stroke="#FFFFFF" fill="#FF0000" class="color_Republican"/>
          <use xlink:href="#img-96b57e9d-20" x="166.21" y="72.12" stroke="#FFFFFF" fill="#FF0000" class="color_Republican"/>
          <use xlink:href="#img-96b57e9d-20" x="173.55" y="60.78" stroke="#FFFFFF" fill="#FF0000" class="color_Republican"/>
          <use xlink:href="#img-96b57e9d-20" x="180.89" y="57.26" stroke="#FFFFFF" fill="#FF0000" class="color_Republican"/>
          <use xlink:href="#img-96b57e9d-20" x="188.23" y="64.14" stroke="#FFFFFF" fill="#FF0000" class="color_Republican"/>
          <use xlink:href="#img-96b57e9d-20" x="195.57" y="48.4" stroke="#FFFFFF" fill="#FF0000" class="color_Republican"/>
          <use xlink:href="#img-96b57e9d-20" x="202.91" y="51.86" stroke="#FFFFFF" fill="#FF0000" class="color_Republican"/>
          <use xlink:href="#img-96b57e9d-20" x="210.25" y="57.05" stroke="#FFFFFF" fill="#FF0000" class="color_Republican"/>
          <use xlink:href="#img-96b57e9d-20" x="217.59" y="73.05" stroke="#FFFFFF" fill="#FF0000" class="color_Republican"/>
          <use xlink:href="#img-96b57e9d-20" x="224.93" y="62.88" stroke="#FFFFFF" fill="#FF0000" class="color_Republican"/>
          <use xlink:href="#img-96b57e9d-20" x="232.27" y="49.56" stroke="#FFFFFF" fill="#FF0000" class="color_Republican"/>
          <use xlink:href="#img-96b57e9d-20" x="239.6" y="65.33" stroke="#FFFFFF" fill="#FF0000" class="color_Republican"/>
          <use xlink:href="#img-96b57e9d-20" x="246.94" y="59.75" stroke="#FFFFFF" fill="#FF0000" class="color_Republican"/>
          <use xlink:href="#img-96b57e9d-20" x="254.28" y="51" stroke="#FFFFFF" fill="#FF0000" class="color_Republican"/>
          <use xlink:href="#img-96b57e9d-20" x="261.62" y="61.89" stroke="#FFFFFF" fill="#FF0000" class="color_Republican"/>
          <use xlink:href="#img-96b57e9d-20" x="268.96" y="79.47" stroke="#FFFFFF" fill="#FF0000" class="color_Republican"/>
          <use xlink:href="#img-96b57e9d-20" x="276.3" y="63.45" stroke="#FFFFFF" fill="#FF0000" class="color_Republican"/>
          <use xlink:href="#img-96b57e9d-20" x="283.64" y="59.56" stroke="#FFFFFF" fill="#FF0000" class="color_Republican"/>
          <use xlink:href="#img-96b57e9d-20" x="290.98" y="55.44" stroke="#FFFFFF" fill="#FF0000" class="color_Republican"/>
          <use xlink:href="#img-96b57e9d-20" x="298.32" y="61.18" stroke="#FFFFFF" fill="#FF0000" class="color_Republican"/>
          <use xlink:href="#img-96b57e9d-20" x="305.66" y="57.94" stroke="#FFFFFF" fill="#FF0000" class="color_Republican"/>
          <use xlink:href="#img-96b57e9d-20" x="34.1" y="101.41" stroke="#FFFFFF" fill="#0000FF" class="color_Democratic"/>
          <use xlink:href="#img-96b57e9d-20" x="41.44" y="87.49" stroke="#FFFFFF" fill="#0000FF" class="color_Democratic"/>
          <use xlink:href="#img-96b57e9d-20" x="48.78" y="85.79" stroke="#FFFFFF" fill="#0000FF" class="color_Democratic"/>
          <use xlink:href="#img-96b57e9d-20" x="56.12" y="88.15" stroke="#FFFFFF" fill="#0000FF" class="color_Democratic"/>
          <use xlink:href="#img-96b57e9d-20" x="63.46" y="89" stroke="#FFFFFF" fill="#0000FF" class="color_Democratic"/>
          <use xlink:href="#img-96b57e9d-20" x="70.8" y="84.65" stroke="#FFFFFF" fill="#0000FF" class="color_Democratic"/>
          <use xlink:href="#img-96b57e9d-20" x="78.14" y="87.64" stroke="#FFFFFF" fill="#0000FF" class="color_Democratic"/>
          <use xlink:href="#img-96b57e9d-20" x="85.47" y="119.89" stroke="#FFFFFF" fill="#0000FF" class="color_Democratic"/>
          <use xlink:href="#img-96b57e9d-20" x="92.81" y="66.55" stroke="#FFFFFF" fill="#0000FF" class="color_Democratic"/>
          <use xlink:href="#img-96b57e9d-20" x="100.15" y="72.11" stroke="#FFFFFF" fill="#0000FF" class="color_Democratic"/>
          <use xlink:href="#img-96b57e9d-20" x="107.49" y="92.63" stroke="#FFFFFF" fill="#0000FF" class="color_Democratic"/>
          <use xlink:href="#img-96b57e9d-20" x="114.83" y="75.32" stroke="#FFFFFF" fill="#0000FF" class="color_Democratic"/>
          <use xlink:href="#img-96b57e9d-20" x="122.17" y="79.04" stroke="#FFFFFF" fill="#0000FF" class="color_Democratic"/>
          <use xlink:href="#img-96b57e9d-20" x="129.51" y="67.97" stroke="#FFFFFF" fill="#0000FF" class="color_Democratic"/>
          <use xlink:href="#img-96b57e9d-20" x="136.85" y="86.09" stroke="#FFFFFF" fill="#0000FF" class="color_Democratic"/>
          <use xlink:href="#img-96b57e9d-20" x="144.19" y="95.36" stroke="#FFFFFF" fill="#0000FF" class="color_Democratic"/>
          <use xlink:href="#img-96b57e9d-20" x="151.53" y="91.76" stroke="#FFFFFF" fill="#0000FF" class="color_Democratic"/>
          <use xlink:href="#img-96b57e9d-20" x="158.87" y="64.21" stroke="#FFFFFF" fill="#0000FF" class="color_Democratic"/>
          <use xlink:href="#img-96b57e9d-20" x="166.21" y="64.1" stroke="#FFFFFF" fill="#0000FF" class="color_Democratic"/>
          <use xlink:href="#img-96b57e9d-20" x="173.55" y="75.82" stroke="#FFFFFF" fill="#0000FF" class="color_Democratic"/>
          <use xlink:href="#img-96b57e9d-20" x="180.89" y="79.17" stroke="#FFFFFF" fill="#0000FF" class="color_Democratic"/>
          <use xlink:href="#img-96b57e9d-20" x="188.23" y="73.52" stroke="#FFFFFF" fill="#0000FF" class="color_Democratic"/>
          <use xlink:href="#img-96b57e9d-20" x="195.57" y="88.19" stroke="#FFFFFF" fill="#0000FF" class="color_Democratic"/>
          <use xlink:href="#img-96b57e9d-20" x="202.91" y="84.33" stroke="#FFFFFF" fill="#0000FF" class="color_Democratic"/>
          <use xlink:href="#img-96b57e9d-20" x="210.25" y="79.24" stroke="#FFFFFF" fill="#0000FF" class="color_Democratic"/>
          <use xlink:href="#img-96b57e9d-20" x="217.59" y="63.66" stroke="#FFFFFF" fill="#0000FF" class="color_Democratic"/>
          <use xlink:href="#img-96b57e9d-20" x="224.93" y="83.8" stroke="#FFFFFF" fill="#0000FF" class="color_Democratic"/>
          <use xlink:href="#img-96b57e9d-20" x="232.27" y="89.22" stroke="#FFFFFF" fill="#0000FF" class="color_Democratic"/>
          <use xlink:href="#img-96b57e9d-20" x="239.6" y="73.18" stroke="#FFFFFF" fill="#0000FF" class="color_Democratic"/>
          <use xlink:href="#img-96b57e9d-20" x="246.94" y="85.29" stroke="#FFFFFF" fill="#0000FF" class="color_Democratic"/>
          <use xlink:href="#img-96b57e9d-20" x="254.28" y="86.01" stroke="#FFFFFF" fill="#0000FF" class="color_Democratic"/>
          <use xlink:href="#img-96b57e9d-20" x="261.62" y="75.65" stroke="#FFFFFF" fill="#0000FF" class="color_Democratic"/>
          <use xlink:href="#img-96b57e9d-20" x="268.96" y="84.82" stroke="#FFFFFF" fill="#0000FF" class="color_Democratic"/>
          <use xlink:href="#img-96b57e9d-20" x="276.3" y="82.38" stroke="#FFFFFF" fill="#0000FF" class="color_Democratic"/>
          <use xlink:href="#img-96b57e9d-20" x="283.64" y="81.18" stroke="#FFFFFF" fill="#0000FF" class="color_Democratic"/>
          <use xlink:href="#img-96b57e9d-20" x="290.98" y="81.82" stroke="#FFFFFF" fill="#0000FF" class="color_Democratic"/>
          <use xlink:href="#img-96b57e9d-20" x="298.32" y="76.7" stroke="#FFFFFF" fill="#0000FF" class="color_Democratic"/>
          <use xlink:href="#img-96b57e9d-20" x="305.66" y="80.39" stroke="#FFFFFF" fill="#0000FF" class="color_Democratic"/>
        </g>
      </g>
      <g stroke-width="0.53" fill="#000000" fill-opacity="0.000" stroke-dasharray="none" id="img-96b57e9d-21">
        <path fill="none" d="M34.1,101.41 L 41.44 87.49 48.78 85.79 56.12 88.15 63.46 89 70.8 84.65 78.14 87.64 85.47 119.89 92.81 66.55 100.15 72.11 107.49 92.63 114.83 75.32 122.17 79.04 129.51 67.97 136.85 86.09 144.19 95.36 151.53 91.76 158.87 64.21 166.21 64.1 173.55 75.82 180.89 79.17 188.23 73.52 195.57 88.19 202.91 84.33 210.25 79.24 217.59 63.66 224.93 83.8 232.27 89.22 239.6 73.18 246.94 85.29 254.28 86.01 261.62 75.65 268.96 84.82 276.3 82.38 283.64 81.18 290.98 81.82 298.32 76.7 305.66 80.39" stroke="#0000FF" class="geometry color_Democratic"/>
        <path fill="none" d="M34.1,37.57 L 41.44 48.35 48.78 50.8 56.12 54.3 63.46 57.1 70.8 59.52 78.14 62.48 85.47 69.58 92.81 70.38 100.15 65.25 107.49 52.52 114.83 65.36 122.17 98.61 129.51 74.06 136.85 52.58 144.19 55.92 151.53 45.02 158.87 74.02 166.21 72.12 173.55 60.78 180.89 57.26 188.23 64.14 195.57 48.4 202.91 51.86 210.25 57.05 217.59 73.05 224.93 62.88 232.27 49.56 239.6 65.33 246.94 59.75 254.28 51 261.62 61.89 268.96 79.47 276.3 63.45 283.64 59.56 290.98 55.44 298.32 61.18 305.66 57.94" stroke="#FF0000" class="geometry color_Republican"/>
      </g>
    </g>
  </g>
</g>
  <g class="guide ylabels" font-size="4.76" font-family="'PT Sans Caption','Helvetica Neue','Helvetica',sans-serif" fill="#FFFFFF" id="img-96b57e9d-22">
    <text x="23.76" y="119.89" text-anchor="end" dy="0.35em">0</text>
    <text x="23.76" y="93.9" text-anchor="end" dy="0.35em">25</text>
    <text x="23.76" y="67.92" text-anchor="end" dy="0.35em">50</text>
    <text x="23.76" y="41.93" text-anchor="end" dy="0.35em">75</text>
    <text x="23.76" y="15.94" text-anchor="end" dy="0.35em">100</text>
  </g>
  <g font-size="6.35" font-family="'PT Sans','Helvetica Neue','Helvetica',sans-serif" fill="#FFFFFF" stroke="#000000" stroke-opacity="0.000" id="img-96b57e9d-23">
    <text x="10.18" y="65.92" text-anchor="middle" dy="0.35em" transform="rotate(-90, 10.18, 67.92)">Popular Vote (%)</text>
  </g>
  <g font-size="6.35" font-family="'PT Sans','Helvetica Neue','Helvetica',sans-serif" fill="#FFFFFF" stroke="#000000" stroke-opacity="0.000" id="img-96b57e9d-24">
    <text x="169.88" y="11.94" text-anchor="middle">Kansas</text>
  </g>
</g>
<defs>
  <clipPath id="img-96b57e9d-12">
  <path d="M24.76,13.94 L 315 13.94 315 121.89 24.76 121.89" />
</clipPath>
  <g id="img-96b57e9d-20">
    <circle cx="0" cy="0" r="0.9"/>
  </g>
</defs>
</svg>
