<?xml version="1.0" encoding="UTF-8"?>
<svg xmlns="http://www.w3.org/2000/svg"
     xmlns:xlink="http://www.w3.org/1999/xlink"
     xmlns:gadfly="http://www.gadflyjl.org/ns"
     version="1.2"
     width="238.1mm" height="158.73mm" viewBox="0 0 238.1 158.73"
     stroke="none"
     fill="#000000"
     stroke-width="0.3"
     font-size="3.88"
>
<g stroke="#000000" stroke-opacity="0.000" fill="#222831" id="img-c015ba32-1">
  <rect x="0" y="0" width="238.1" height="158.73"/>
</g>
<g class="plotroot xscalable yscalable" id="img-c015ba32-2">
  <g class="guide colorkey" id="img-c015ba32-3">
    <g class="color_Democratic" id="img-c015ba32-4">
      <g fill="#A1A1A1" font-size="3.7" font-family="'PT Sans','Helvetica Neue','Helvetica',sans-serif" id="img-c015ba32-5">
        <text x="51.52" y="148.78" dy="0.35em">Democratic</text>
      </g>
      <g fill="#0000FF" stroke="#000000" stroke-opacity="0.000" id="img-c015ba32-6">
        <rect x="48.29" y="147.66" width="2.22" height="2.22"/>
      </g>
    </g>
    <g class="color_Republican" id="img-c015ba32-7">
      <g fill="#A1A1A1" font-size="3.7" font-family="'PT Sans','Helvetica Neue','Helvetica',sans-serif" id="img-c015ba32-8">
        <text x="29.6" y="148.78" dy="0.35em">Republican</text>
      </g>
      <g fill="#FF0000" stroke="#000000" stroke-opacity="0.000" id="img-c015ba32-9">
        <rect x="26.38" y="147.66" width="2.22" height="2.22"/>
      </g>
    </g>
    <g fill="#A1A1A1" font-size="6.35" font-family="'PT Sans','Helvetica Neue','Helvetica',sans-serif" stroke="#000000" stroke-opacity="0.000" id="img-c015ba32-10">
      <text x="26.38" y="145.28">Party</text>
    </g>
  </g>
  <g font-size="6.35" font-family="'PT Sans','Helvetica Neue','Helvetica',sans-serif" fill="#A1A1A1" stroke="#000000" stroke-opacity="0.000" id="img-c015ba32-11">
    <text x="129.24" y="130.46" text-anchor="middle" dy="0.6em">Year</text>
  </g>
  <g class="guide xlabels" font-size="4.76" font-family="'PT Sans Caption','Helvetica Neue','Helvetica',sans-serif" fill="#A1A1A1" id="img-c015ba32-12">
    <text x="27.38" y="121.95" text-anchor="middle" dy="0.6em">1824</text>
    <text x="40.11" y="121.95" text-anchor="middle" dy="0.6em">1836</text>
    <text x="52.84" y="121.95" text-anchor="middle" dy="0.6em">1848</text>
    <text x="65.58" y="121.95" text-anchor="middle" dy="0.6em">1860</text>
    <text x="78.31" y="121.95" text-anchor="middle" dy="0.6em">1872</text>
    <text x="91.04" y="121.95" text-anchor="middle" dy="0.6em">1884</text>
    <text x="103.77" y="121.95" text-anchor="middle" dy="0.6em">1896</text>
    <text x="116.51" y="121.95" text-anchor="middle" dy="0.6em">1908</text>
    <text x="129.24" y="121.95" text-anchor="middle" dy="0.6em">1920</text>
    <text x="141.97" y="121.95" text-anchor="middle" dy="0.6em">1932</text>
    <text x="154.7" y="121.95" text-anchor="middle" dy="0.6em">1944</text>
    <text x="167.43" y="121.95" text-anchor="middle" dy="0.6em">1956</text>
    <text x="180.17" y="121.95" text-anchor="middle" dy="0.6em">1968</text>
    <text x="192.9" y="121.95" text-anchor="middle" dy="0.6em">1980</text>
    <text x="205.63" y="121.95" text-anchor="middle" dy="0.6em">1992</text>
    <text x="218.36" y="121.95" text-anchor="middle" dy="0.6em">2004</text>
    <text x="231.1" y="121.95" text-anchor="middle" dy="0.6em">2016</text>
  </g>
<g clip-path="url(#img-c015ba32-13)">
  <g id="img-c015ba32-14">
    <g pointer-events="visible" opacity="1" fill="#222831" stroke="#000000" stroke-opacity="0.000" class="guide background" id="img-c015ba32-15">
      <rect x="25.38" y="12.91" width="207.72" height="108.04"/>
    </g>
    <g class="guide ygridlines xfixed" stroke-dasharray="0.5,0.5" stroke-width="0.2" stroke="#575757" id="img-c015ba32-16">
      <path fill="none" d="M25.38,118.95 L 233.1 118.95"/>
      <path fill="none" d="M25.38,92.94 L 233.1 92.94"/>
      <path fill="none" d="M25.38,66.93 L 233.1 66.93"/>
      <path fill="none" d="M25.38,40.92 L 233.1 40.92"/>
      <path fill="none" d="M25.38,14.91 L 233.1 14.91"/>
    </g>
    <g class="guide xgridlines yfixed" stroke-dasharray="0.5,0.5" stroke-width="0.2" stroke="#575757" id="img-c015ba32-17">
      <path fill="none" d="M27.38,12.91 L 27.38 120.95"/>
      <path fill="none" d="M40.11,12.91 L 40.11 120.95"/>
      <path fill="none" d="M52.84,12.91 L 52.84 120.95"/>
      <path fill="none" d="M65.58,12.91 L 65.58 120.95"/>
      <path fill="none" d="M78.31,12.91 L 78.31 120.95"/>
      <path fill="none" d="M91.04,12.91 L 91.04 120.95"/>
      <path fill="none" d="M103.77,12.91 L 103.77 120.95"/>
      <path fill="none" d="M116.51,12.91 L 116.51 120.95"/>
      <path fill="none" d="M129.24,12.91 L 129.24 120.95"/>
      <path fill="none" d="M141.97,12.91 L 141.97 120.95"/>
      <path fill="none" d="M154.7,12.91 L 154.7 120.95"/>
      <path fill="none" d="M167.43,12.91 L 167.43 120.95"/>
      <path fill="none" d="M180.17,12.91 L 180.17 120.95"/>
      <path fill="none" d="M192.9,12.91 L 192.9 120.95"/>
      <path fill="none" d="M205.63,12.91 L 205.63 120.95"/>
      <path fill="none" d="M218.36,12.91 L 218.36 120.95"/>
      <path fill="none" d="M231.1,12.91 L 231.1 120.95"/>
    </g>
    <g class="plotpanel" id="img-c015ba32-18">
      <g class="geometry" id="img-c015ba32-19">
        <g stroke-width="0.3" id="img-c015ba32-20">
          <use xlink:href="#img-c015ba32-21" x="65.58" y="117.98" stroke="#B3867B" fill="#FF0000" class="color_Republican"/>
          <use xlink:href="#img-c015ba32-21" x="69.82" y="87.56" stroke="#B3867B" fill="#FF0000" class="color_Republican"/>
          <use xlink:href="#img-c015ba32-21" x="74.06" y="92.47" stroke="#B3867B" fill="#FF0000" class="color_Republican"/>
          <use xlink:href="#img-c015ba32-21" x="78.31" y="70.63" stroke="#B3867B" fill="#FF0000" class="color_Republican"/>
          <use xlink:href="#img-c015ba32-21" x="82.55" y="80" stroke="#B3867B" fill="#FF0000" class="color_Republican"/>
          <use xlink:href="#img-c015ba32-21" x="86.8" y="77.47" stroke="#B3867B" fill="#FF0000" class="color_Republican"/>
          <use xlink:href="#img-c015ba32-21" x="91.04" y="74.29" stroke="#B3867B" fill="#FF0000" class="color_Republican"/>
          <use xlink:href="#img-c015ba32-21" x="95.28" y="72.15" stroke="#B3867B" fill="#FF0000" class="color_Republican"/>
          <use xlink:href="#img-c015ba32-21" x="99.53" y="77.61" stroke="#B3867B" fill="#FF0000" class="color_Republican"/>
          <use xlink:href="#img-c015ba32-21" x="103.77" y="68.05" stroke="#B3867B" fill="#FF0000" class="color_Republican"/>
          <use xlink:href="#img-c015ba32-21" x="108.02" y="68.49" stroke="#B3867B" fill="#FF0000" class="color_Republican"/>
          <use xlink:href="#img-c015ba32-21" x="112.26" y="69.92" stroke="#B3867B" fill="#FF0000" class="color_Republican"/>
          <use xlink:href="#img-c015ba32-21" x="116.51" y="68.98" stroke="#B3867B" fill="#FF0000" class="color_Republican"/>
          <use xlink:href="#img-c015ba32-21" x="120.75" y="92.41" stroke="#B3867B" fill="#FF0000" class="color_Republican"/>
          <use xlink:href="#img-c015ba32-21" x="124.99" y="70.57" stroke="#B3867B" fill="#FF0000" class="color_Republican"/>
          <use xlink:href="#img-c015ba32-21" x="129.24" y="67.71" stroke="#B3867B" fill="#FF0000" class="color_Republican"/>
          <use xlink:href="#img-c015ba32-21" x="133.48" y="68.04" stroke="#B3867B" fill="#FF0000" class="color_Republican"/>
          <use xlink:href="#img-c015ba32-21" x="137.73" y="57.19" stroke="#B3867B" fill="#FF0000" class="color_Republican"/>
          <use xlink:href="#img-c015ba32-21" x="141.97" y="77.18" stroke="#B3867B" fill="#FF0000" class="color_Republican"/>
          <use xlink:href="#img-c015ba32-21" x="146.21" y="77.42" stroke="#B3867B" fill="#FF0000" class="color_Republican"/>
          <use xlink:href="#img-c015ba32-21" x="150.46" y="74.94" stroke="#B3867B" fill="#FF0000" class="color_Republican"/>
          <use xlink:href="#img-c015ba32-21" x="154.7" y="71.91" stroke="#B3867B" fill="#FF0000" class="color_Republican"/>
          <use xlink:href="#img-c015ba32-21" x="158.95" y="75.8" stroke="#B3867B" fill="#FF0000" class="color_Republican"/>
          <use xlink:href="#img-c015ba32-21" x="163.19" y="67.09" stroke="#B3867B" fill="#FF0000" class="color_Republican"/>
          <use xlink:href="#img-c015ba32-21" x="167.43" y="62.46" stroke="#B3867B" fill="#FF0000" class="color_Republican"/>
          <use xlink:href="#img-c015ba32-21" x="171.68" y="63.2" stroke="#B3867B" fill="#FF0000" class="color_Republican"/>
          <use xlink:href="#img-c015ba32-21" x="175.92" y="81.86" stroke="#B3867B" fill="#FF0000" class="color_Republican"/>
          <use xlink:href="#img-c015ba32-21" x="180.17" y="73.39" stroke="#B3867B" fill="#FF0000" class="color_Republican"/>
          <use xlink:href="#img-c015ba32-21" x="184.41" y="53.02" stroke="#B3867B" fill="#FF0000" class="color_Republican"/>
          <use xlink:href="#img-c015ba32-21" x="188.65" y="71.54" stroke="#B3867B" fill="#FF0000" class="color_Republican"/>
          <use xlink:href="#img-c015ba32-21" x="192.9" y="67.9" stroke="#B3867B" fill="#FF0000" class="color_Republican"/>
          <use xlink:href="#img-c015ba32-21" x="197.14" y="56.49" stroke="#B3867B" fill="#FF0000" class="color_Republican"/>
          <use xlink:href="#img-c015ba32-21" x="201.39" y="61.19" stroke="#B3867B" fill="#FF0000" class="color_Republican"/>
          <use xlink:href="#img-c015ba32-21" x="205.63" y="75.94" stroke="#B3867B" fill="#FF0000" class="color_Republican"/>
          <use xlink:href="#img-c015ba32-21" x="209.87" y="72.26" stroke="#B3867B" fill="#FF0000" class="color_Republican"/>
          <use xlink:href="#img-c015ba32-21" x="214.12" y="60.17" stroke="#B3867B" fill="#FF0000" class="color_Republican"/>
          <use xlink:href="#img-c015ba32-21" x="218.36" y="57" stroke="#B3867B" fill="#FF0000" class="color_Republican"/>
          <use xlink:href="#img-c015ba32-21" x="222.61" y="59.26" stroke="#B3867B" fill="#FF0000" class="color_Republican"/>
          <use xlink:href="#img-c015ba32-21" x="226.85" y="56.04" stroke="#B3867B" fill="#FF0000" class="color_Republican"/>
          <use xlink:href="#img-c015ba32-21" x="31.62" y="61.17" stroke="#988BAD" fill="#0000FF" class="color_Democratic"/>
          <use xlink:href="#img-c015ba32-21" x="35.87" y="71.6" stroke="#988BAD" fill="#0000FF" class="color_Democratic"/>
          <use xlink:href="#img-c015ba32-21" x="40.11" y="69.63" stroke="#988BAD" fill="#0000FF" class="color_Democratic"/>
          <use xlink:href="#img-c015ba32-21" x="44.36" y="81.71" stroke="#988BAD" fill="#0000FF" class="color_Democratic"/>
          <use xlink:href="#img-c015ba32-21" x="48.6" y="71.19" stroke="#988BAD" fill="#0000FF" class="color_Democratic"/>
          <use xlink:href="#img-c015ba32-21" x="52.84" y="74.69" stroke="#988BAD" fill="#0000FF" class="color_Democratic"/>
          <use xlink:href="#img-c015ba32-21" x="57.09" y="68.68" stroke="#988BAD" fill="#0000FF" class="color_Democratic"/>
          <use xlink:href="#img-c015ba32-21" x="61.33" y="64.29" stroke="#988BAD" fill="#0000FF" class="color_Democratic"/>
          <use xlink:href="#img-c015ba32-21" x="65.58" y="100.7" stroke="#988BAD" fill="#0000FF" class="color_Democratic"/>
          <use xlink:href="#img-c015ba32-21" x="69.82" y="46.3" stroke="#988BAD" fill="#0000FF" class="color_Democratic"/>
          <use xlink:href="#img-c015ba32-21" x="74.06" y="41.39" stroke="#988BAD" fill="#0000FF" class="color_Democratic"/>
          <use xlink:href="#img-c015ba32-21" x="78.31" y="64.52" stroke="#988BAD" fill="#0000FF" class="color_Democratic"/>
          <use xlink:href="#img-c015ba32-21" x="82.55" y="55.06" stroke="#988BAD" fill="#0000FF" class="color_Democratic"/>
          <use xlink:href="#img-c015ba32-21" x="86.8" y="60.96" stroke="#988BAD" fill="#0000FF" class="color_Democratic"/>
          <use xlink:href="#img-c015ba32-21" x="91.04" y="61.39" stroke="#988BAD" fill="#0000FF" class="color_Democratic"/>
          <use xlink:href="#img-c015ba32-21" x="95.28" y="63.49" stroke="#988BAD" fill="#0000FF" class="color_Democratic"/>
          <use xlink:href="#img-c015ba32-21" x="99.53" y="65.4" stroke="#988BAD" fill="#0000FF" class="color_Democratic"/>
          <use xlink:href="#img-c015ba32-21" x="103.77" y="68.11" stroke="#988BAD" fill="#0000FF" class="color_Democratic"/>
          <use xlink:href="#img-c015ba32-21" x="108.02" y="66.71" stroke="#988BAD" fill="#0000FF" class="color_Democratic"/>
          <use xlink:href="#img-c015ba32-21" x="112.26" y="67.12" stroke="#988BAD" fill="#0000FF" class="color_Democratic"/>
          <use xlink:href="#img-c015ba32-21" x="116.51" y="67.2" stroke="#988BAD" fill="#0000FF" class="color_Democratic"/>
          <use xlink:href="#img-c015ba32-21" x="120.75" y="68.51" stroke="#988BAD" fill="#0000FF" class="color_Democratic"/>
          <use xlink:href="#img-c015ba32-21" x="124.99" y="64.94" stroke="#988BAD" fill="#0000FF" class="color_Democratic"/>
          <use xlink:href="#img-c015ba32-21" x="129.24" y="67.25" stroke="#988BAD" fill="#0000FF" class="color_Democratic"/>
          <use xlink:href="#img-c015ba32-21" x="133.48" y="71.12" stroke="#988BAD" fill="#0000FF" class="color_Democratic"/>
          <use xlink:href="#img-c015ba32-21" x="137.73" y="76.83" stroke="#988BAD" fill="#0000FF" class="color_Democratic"/>
          <use xlink:href="#img-c015ba32-21" x="141.97" y="57.51" stroke="#988BAD" fill="#0000FF" class="color_Democratic"/>
          <use xlink:href="#img-c015ba32-21" x="146.21" y="58.08" stroke="#988BAD" fill="#0000FF" class="color_Democratic"/>
          <use xlink:href="#img-c015ba32-21" x="150.46" y="59.18" stroke="#988BAD" fill="#0000FF" class="color_Democratic"/>
          <use xlink:href="#img-c015ba32-21" x="154.7" y="62.3" stroke="#988BAD" fill="#0000FF" class="color_Democratic"/>
          <use xlink:href="#img-c015ba32-21" x="158.95" y="59.92" stroke="#988BAD" fill="#0000FF" class="color_Democratic"/>
          <use xlink:href="#img-c015ba32-21" x="163.19" y="67.02" stroke="#988BAD" fill="#0000FF" class="color_Democratic"/>
          <use xlink:href="#img-c015ba32-21" x="167.43" y="71.91" stroke="#988BAD" fill="#0000FF" class="color_Democratic"/>
          <use xlink:href="#img-c015ba32-21" x="171.68" y="70.67" stroke="#988BAD" fill="#0000FF" class="color_Democratic"/>
          <use xlink:href="#img-c015ba32-21" x="175.92" y="52.35" stroke="#988BAD" fill="#0000FF" class="color_Democratic"/>
          <use xlink:href="#img-c015ba32-21" x="180.17" y="79.78" stroke="#988BAD" fill="#0000FF" class="color_Democratic"/>
          <use xlink:href="#img-c015ba32-21" x="184.41" y="82.78" stroke="#988BAD" fill="#0000FF" class="color_Democratic"/>
          <use xlink:href="#img-c015ba32-21" x="188.65" y="64.07" stroke="#988BAD" fill="#0000FF" class="color_Democratic"/>
          <use xlink:href="#img-c015ba32-21" x="192.9" y="69.41" stroke="#988BAD" fill="#0000FF" class="color_Democratic"/>
          <use xlink:href="#img-c015ba32-21" x="197.14" y="77.99" stroke="#988BAD" fill="#0000FF" class="color_Democratic"/>
          <use xlink:href="#img-c015ba32-21" x="201.39" y="73.3" stroke="#988BAD" fill="#0000FF" class="color_Democratic"/>
          <use xlink:href="#img-c015ba32-21" x="205.63" y="72.6" stroke="#988BAD" fill="#0000FF" class="color_Democratic"/>
          <use xlink:href="#img-c015ba32-21" x="209.87" y="71.26" stroke="#988BAD" fill="#0000FF" class="color_Democratic"/>
          <use xlink:href="#img-c015ba32-21" x="214.12" y="75.91" stroke="#988BAD" fill="#0000FF" class="color_Democratic"/>
          <use xlink:href="#img-c015ba32-21" x="218.36" y="77.67" stroke="#988BAD" fill="#0000FF" class="color_Democratic"/>
          <use xlink:href="#img-c015ba32-21" x="222.61" y="76.14" stroke="#988BAD" fill="#0000FF" class="color_Democratic"/>
          <use xlink:href="#img-c015ba32-21" x="226.85" y="79.64" stroke="#988BAD" fill="#0000FF" class="color_Democratic"/>
        </g>
      </g>
      <g stroke-width="0.3" fill="#000000" fill-opacity="0.000" stroke-dasharray="none" id="img-c015ba32-22">
        <path fill="none" d="M31.62,61.17 L 35.87 71.6 40.11 69.63 44.36 81.71 48.6 71.19 52.84 74.69 57.09 68.68 61.33 64.29 65.58 100.7 69.82 46.3 74.06 41.39 78.31 64.52 82.55 55.06 86.8 60.96 91.04 61.39 95.28 63.49 99.53 65.4 103.77 68.11 108.02 66.71 112.26 67.12 116.51 67.2 120.75 68.51 124.99 64.94 129.24 67.25 133.48 71.12 137.73 76.83 141.97 57.51 146.21 58.08 150.46 59.18 154.7 62.3 158.95 59.92 163.19 67.02 167.43 71.91 171.68 70.67 175.92 52.35 180.17 79.78 184.41 82.78 188.65 64.07 192.9 69.41 197.14 77.99 201.39 73.3 205.63 72.6 209.87 71.26 214.12 75.91 218.36 77.67 222.61 76.14 226.85 79.64" stroke="#0000FF" class="geometry color_Democratic"/>
        <path fill="none" d="M65.58,117.98 L 69.82 87.56 74.06 92.47 78.31 70.63 82.55 80 86.8 77.47 91.04 74.29 95.28 72.15 99.53 77.61 103.77 68.05 108.02 68.49 112.26 69.92 116.51 68.98 120.75 92.41 124.99 70.57 129.24 67.71 133.48 68.04 137.73 57.19 141.97 77.18 146.21 77.42 150.46 74.94 154.7 71.91 158.95 75.8 163.19 67.09 167.43 62.46 171.68 63.2 175.92 81.86 180.17 73.39 184.41 53.02 188.65 71.54 192.9 67.9 197.14 56.49 201.39 61.19 205.63 75.94 209.87 72.26 214.12 60.17 218.36 57 222.61 59.26 226.85 56.04" stroke="#FF0000" class="geometry color_Republican"/>
      </g>
    </g>
  </g>
</g>
  <g class="guide ylabels" font-size="4.76" font-family="'PT Sans Caption','Helvetica Neue','Helvetica',sans-serif" fill="#A1A1A1" id="img-c015ba32-23">
    <text x="24.38" y="118.95" text-anchor="end" dy="0.35em">0</text>
    <text x="24.38" y="92.94" text-anchor="end" dy="0.35em">25</text>
    <text x="24.38" y="66.93" text-anchor="end" dy="0.35em">50</text>
    <text x="24.38" y="40.92" text-anchor="end" dy="0.35em">75</text>
    <text x="24.38" y="14.91" text-anchor="end" dy="0.35em">100</text>
  </g>
  <g font-size="6.35" font-family="'PT Sans','Helvetica Neue','Helvetica',sans-serif" fill="#A1A1A1" stroke="#000000" stroke-opacity="0.000" id="img-c015ba32-24">
    <text x="9.95" y="64.93" text-anchor="middle" dy="0.35em" transform="rotate(-90, 9.95, 66.93)">Popular Vote (%)</text>
  </g>
  <g font-size="6.35" font-family="'PT Sans','Helvetica Neue','Helvetica',sans-serif" fill="#A1A1A1" stroke="#000000" stroke-opacity="0.000" id="img-c015ba32-25">
    <text x="129.24" y="5" text-anchor="middle" dy="0.6em">Kentucky</text>
  </g>
</g>
<defs>
  <clipPath id="img-c015ba32-13">
  <path d="M25.38,12.91 L 233.1 12.91 233.1 120.95 25.38 120.95" />
</clipPath>
  <g id="img-c015ba32-21">
    <circle cx="0" cy="0" r="0.9"/>
  </g>
</defs>
</svg>
