<?xml version="1.0" encoding="UTF-8"?>
<svg xmlns="http://www.w3.org/2000/svg"
     xmlns:xlink="http://www.w3.org/1999/xlink"
     xmlns:gadfly="http://www.gadflyjl.org/ns"
     version="1.2"
     width="320mm" height="160mm" viewBox="0 0 320 160"
     stroke="none"
     fill="#000000"
     stroke-width="0.3"
     font-size="3.88"
>
<g class="plotroot xscalable yscalable" id="img-bb84416e-1">
  <g class="guide colorkey" id="img-bb84416e-2">
    <g class="color_Democratic" id="img-bb84416e-3">
      <g fill="#4C404B" font-size="4.76" font-family="'PT Sans','Helvetica Neue','Helvetica',sans-serif" id="img-bb84416e-4">
        <text x="61.86" y="150" dy="0.35em">Democratic</text>
      </g>
      <g fill="#0000FF" stroke="#000000" stroke-opacity="0.000" id="img-bb84416e-5">
        <rect x="57.89" y="148.52" width="2.97" height="2.97"/>
      </g>
    </g>
    <g class="color_Republican" id="img-bb84416e-6">
      <g fill="#4C404B" font-size="4.76" font-family="'PT Sans','Helvetica Neue','Helvetica',sans-serif" id="img-bb84416e-7">
        <text x="30.79" y="150" dy="0.35em">Republican</text>
      </g>
      <g fill="#FF0000" stroke="#000000" stroke-opacity="0.000" id="img-bb84416e-8">
        <rect x="26.82" y="148.52" width="2.97" height="2.97"/>
      </g>
    </g>
    <g fill="#362A35" font-size="6.35" font-family="'PT Sans','Helvetica Neue','Helvetica',sans-serif" stroke="#000000" stroke-opacity="0.000" id="img-bb84416e-9">
      <text x="26.82" y="145.06">Party</text>
    </g>
  </g>
  <g font-size="6.35" font-family="'PT Sans','Helvetica Neue','Helvetica',sans-serif" fill="#564A55" stroke="#000000" stroke-opacity="0.000" id="img-bb84416e-10">
    <text x="170.41" y="131.48" text-anchor="middle" dy="0.6em">Year</text>
  </g>
  <g class="guide xlabels" font-size="4.76" font-family="'PT Sans Caption','Helvetica Neue','Helvetica',sans-serif" fill="#6C606B" id="img-bb84416e-11">
    <text x="27.82" y="123.95" text-anchor="middle" dy="0.6em">1832</text>
    <text x="46.42" y="123.95" text-anchor="middle" dy="0.6em">1844</text>
    <text x="65.01" y="123.95" text-anchor="middle" dy="0.6em">1856</text>
    <text x="83.61" y="123.95" text-anchor="middle" dy="0.6em">1868</text>
    <text x="102.21" y="123.95" text-anchor="middle" dy="0.6em">1880</text>
    <text x="120.81" y="123.95" text-anchor="middle" dy="0.6em">1892</text>
    <text x="139.41" y="123.95" text-anchor="middle" dy="0.6em">1904</text>
    <text x="158.01" y="123.95" text-anchor="middle" dy="0.6em">1916</text>
    <text x="176.61" y="123.95" text-anchor="middle" dy="0.6em">1928</text>
    <text x="195.21" y="123.95" text-anchor="middle" dy="0.6em">1940</text>
    <text x="213.81" y="123.95" text-anchor="middle" dy="0.6em">1952</text>
    <text x="232.4" y="123.95" text-anchor="middle" dy="0.6em">1964</text>
    <text x="251" y="123.95" text-anchor="middle" dy="0.6em">1976</text>
    <text x="269.6" y="123.95" text-anchor="middle" dy="0.6em">1988</text>
    <text x="288.2" y="123.95" text-anchor="middle" dy="0.6em">2000</text>
    <text x="306.8" y="123.95" text-anchor="middle" dy="0.6em">2012</text>
  </g>
<g clip-path="url(#img-bb84416e-12)">
  <g id="img-bb84416e-13">
    <g pointer-events="visible" opacity="1" fill="#000000" fill-opacity="0.000" stroke="#000000" stroke-opacity="0.000" class="guide background" id="img-bb84416e-14">
      <rect x="25.82" y="15.35" width="289.18" height="107.6"/>
    </g>
    <g class="guide ygridlines xfixed" stroke-dasharray="0.5,0.5" stroke-width="0.26" stroke="#000000" id="img-bb84416e-15">
      <path fill="none" d="M25.82,120.95 L 315 120.95"/>
      <path fill="none" d="M25.82,95.05 L 315 95.05"/>
      <path fill="none" d="M25.82,69.15 L 315 69.15"/>
      <path fill="none" d="M25.82,43.25 L 315 43.25"/>
      <path fill="none" d="M25.82,17.35 L 315 17.35"/>
    </g>
    <g class="guide xgridlines yfixed" stroke-dasharray="0.5,0.5" stroke-width="0.26" stroke="#000000" id="img-bb84416e-16">
      <path fill="none" d="M27.82,15.35 L 27.82 122.95"/>
      <path fill="none" d="M46.42,15.35 L 46.42 122.95"/>
      <path fill="none" d="M65.01,15.35 L 65.01 122.95"/>
      <path fill="none" d="M83.61,15.35 L 83.61 122.95"/>
      <path fill="none" d="M102.21,15.35 L 102.21 122.95"/>
      <path fill="none" d="M120.81,15.35 L 120.81 122.95"/>
      <path fill="none" d="M139.41,15.35 L 139.41 122.95"/>
      <path fill="none" d="M158.01,15.35 L 158.01 122.95"/>
      <path fill="none" d="M176.61,15.35 L 176.61 122.95"/>
      <path fill="none" d="M195.21,15.35 L 195.21 122.95"/>
      <path fill="none" d="M213.81,15.35 L 213.81 122.95"/>
      <path fill="none" d="M232.4,15.35 L 232.4 122.95"/>
      <path fill="none" d="M251,15.35 L 251 122.95"/>
      <path fill="none" d="M269.6,15.35 L 269.6 122.95"/>
      <path fill="none" d="M288.2,15.35 L 288.2 122.95"/>
      <path fill="none" d="M306.8,15.35 L 306.8 122.95"/>
    </g>
    <g class="plotpanel" id="img-bb84416e-17">
      <g class="geometry" id="img-bb84416e-18">
        <g stroke-width="0.3" id="img-bb84416e-19">
          <use xlink:href="#img-bb84416e-20" x="71.21" y="61.66" fill="#FF0000" class="color_Republican" stroke="#FFFFFF"/>
          <use xlink:href="#img-bb84416e-20" x="77.41" y="65.42" fill="#FF0000" class="color_Republican" stroke="#FFFFFF"/>
          <use xlink:href="#img-bb84416e-20" x="83.61" y="61.92" fill="#FF0000" class="color_Republican" stroke="#FFFFFF"/>
          <use xlink:href="#img-bb84416e-20" x="89.81" y="56.04" fill="#FF0000" class="color_Republican" stroke="#FFFFFF"/>
          <use xlink:href="#img-bb84416e-20" x="96.01" y="66.65" fill="#FF0000" class="color_Republican" stroke="#FFFFFF"/>
          <use xlink:href="#img-bb84416e-20" x="102.21" y="66.57" fill="#FF0000" class="color_Republican" stroke="#FFFFFF"/>
          <use xlink:href="#img-bb84416e-20" x="108.41" y="71.2" fill="#FF0000" class="color_Republican" stroke="#FFFFFF"/>
          <use xlink:href="#img-bb84416e-20" x="114.61" y="69.43" fill="#FF0000" class="color_Republican" stroke="#FFFFFF"/>
          <use xlink:href="#img-bb84416e-20" x="120.81" y="71.44" fill="#FF0000" class="color_Republican" stroke="#FFFFFF"/>
          <use xlink:href="#img-bb84416e-20" x="127.01" y="65.25" fill="#FF0000" class="color_Republican" stroke="#FFFFFF"/>
          <use xlink:href="#img-bb84416e-20" x="133.21" y="60.76" fill="#FF0000" class="color_Republican" stroke="#FFFFFF"/>
          <use xlink:href="#img-bb84416e-20" x="139.41" y="48.94" fill="#FF0000" class="color_Republican" stroke="#FFFFFF"/>
          <use xlink:href="#img-bb84416e-20" x="145.61" y="56.79" fill="#FF0000" class="color_Republican" stroke="#FFFFFF"/>
          <use xlink:href="#img-bb84416e-20" x="151.81" y="92.32" fill="#FF0000" class="color_Republican" stroke="#FFFFFF"/>
          <use xlink:href="#img-bb84416e-20" x="158.01" y="66.98" fill="#FF0000" class="color_Republican" stroke="#FFFFFF"/>
          <use xlink:href="#img-bb84416e-20" x="164.21" y="45.57" fill="#FF0000" class="color_Republican" stroke="#FFFFFF"/>
          <use xlink:href="#img-bb84416e-20" x="170.41" y="42.86" fill="#FF0000" class="color_Republican" stroke="#FFFFFF"/>
          <use xlink:href="#img-bb84416e-20" x="176.61" y="48.06" fill="#FF0000" class="color_Republican" stroke="#FFFFFF"/>
          <use xlink:href="#img-bb84416e-20" x="182.81" y="74.91" fill="#FF0000" class="color_Republican" stroke="#FFFFFF"/>
          <use xlink:href="#img-bb84416e-20" x="189.01" y="80.79" fill="#FF0000" class="color_Republican" stroke="#FFFFFF"/>
          <use xlink:href="#img-bb84416e-20" x="195.21" y="69.3" fill="#FF0000" class="color_Republican" stroke="#FFFFFF"/>
          <use xlink:href="#img-bb84416e-20" x="201.41" y="70" fill="#FF0000" class="color_Republican" stroke="#FFFFFF"/>
          <use xlink:href="#img-bb84416e-20" x="207.61" y="69.95" fill="#FF0000" class="color_Republican" stroke="#FFFFFF"/>
          <use xlink:href="#img-bb84416e-20" x="213.81" y="63.51" fill="#FF0000" class="color_Republican" stroke="#FFFFFF"/>
          <use xlink:href="#img-bb84416e-20" x="220.01" y="63.32" fill="#FF0000" class="color_Republican" stroke="#FFFFFF"/>
          <use xlink:href="#img-bb84416e-20" x="226.21" y="70.36" fill="#FF0000" class="color_Republican" stroke="#FFFFFF"/>
          <use xlink:href="#img-bb84416e-20" x="232.4" y="86.66" fill="#FF0000" class="color_Republican" stroke="#FFFFFF"/>
          <use xlink:href="#img-bb84416e-20" x="238.6" y="78" fill="#FF0000" class="color_Republican" stroke="#FFFFFF"/>
          <use xlink:href="#img-bb84416e-20" x="244.8" y="62.72" fill="#FF0000" class="color_Republican" stroke="#FFFFFF"/>
          <use xlink:href="#img-bb84416e-20" x="251" y="67.25" fill="#FF0000" class="color_Republican" stroke="#FFFFFF"/>
          <use xlink:href="#img-bb84416e-20" x="257.2" y="70.2" fill="#FF0000" class="color_Republican" stroke="#FFFFFF"/>
          <use xlink:href="#img-bb84416e-20" x="263.4" y="59.59" fill="#FF0000" class="color_Republican" stroke="#FFFFFF"/>
          <use xlink:href="#img-bb84416e-20" x="269.6" y="65.45" fill="#FF0000" class="color_Republican" stroke="#FFFFFF"/>
          <use xlink:href="#img-bb84416e-20" x="275.8" y="83.26" fill="#FF0000" class="color_Republican" stroke="#FFFFFF"/>
          <use xlink:href="#img-bb84416e-20" x="282" y="81.08" fill="#FF0000" class="color_Republican" stroke="#FFFFFF"/>
          <use xlink:href="#img-bb84416e-20" x="288.2" y="73.14" fill="#FF0000" class="color_Republican" stroke="#FFFFFF"/>
          <use xlink:href="#img-bb84416e-20" x="294.4" y="71.42" fill="#FF0000" class="color_Republican" stroke="#FFFFFF"/>
          <use xlink:href="#img-bb84416e-20" x="300.6" y="78.59" fill="#FF0000" class="color_Republican" stroke="#FFFFFF"/>
          <use xlink:href="#img-bb84416e-20" x="306.8" y="74.77" fill="#FF0000" class="color_Republican" stroke="#FFFFFF"/>
          <use xlink:href="#img-bb84416e-20" x="34.02" y="62.7" fill="#0000FF" class="color_Democratic" stroke="#FFFFFF"/>
          <use xlink:href="#img-bb84416e-20" x="40.22" y="71.67" fill="#0000FF" class="color_Democratic" stroke="#FFFFFF"/>
          <use xlink:href="#img-bb84416e-20" x="46.42" y="69.41" fill="#0000FF" class="color_Democratic" stroke="#FFFFFF"/>
          <use xlink:href="#img-bb84416e-20" x="52.62" y="72.01" fill="#0000FF" class="color_Democratic" stroke="#FFFFFF"/>
          <use xlink:href="#img-bb84416e-20" x="58.81" y="68.68" fill="#0000FF" class="color_Democratic" stroke="#FFFFFF"/>
          <use xlink:href="#img-bb84416e-20" x="65.01" y="77.93" fill="#0000FF" class="color_Democratic" stroke="#FFFFFF"/>
          <use xlink:href="#img-bb84416e-20" x="71.21" y="77.45" fill="#0000FF" class="color_Democratic" stroke="#FFFFFF"/>
          <use xlink:href="#img-bb84416e-20" x="77.41" y="72.88" fill="#0000FF" class="color_Democratic" stroke="#FFFFFF"/>
          <use xlink:href="#img-bb84416e-20" x="83.61" y="76.38" fill="#0000FF" class="color_Democratic" stroke="#FFFFFF"/>
          <use xlink:href="#img-bb84416e-20" x="89.81" y="84.2" fill="#0000FF" class="color_Democratic" stroke="#FFFFFF"/>
          <use xlink:href="#img-bb84416e-20" x="96.01" y="74.86" fill="#0000FF" class="color_Democratic" stroke="#FFFFFF"/>
          <use xlink:href="#img-bb84416e-20" x="102.21" y="82.34" fill="#0000FF" class="color_Democratic" stroke="#FFFFFF"/>
          <use xlink:href="#img-bb84416e-20" x="108.41" y="72.05" fill="#0000FF" class="color_Democratic" stroke="#FFFFFF"/>
          <use xlink:href="#img-bb84416e-20" x="114.61" y="74.43" fill="#0000FF" class="color_Democratic" stroke="#FFFFFF"/>
          <use xlink:href="#img-bb84416e-20" x="120.81" y="76.13" fill="#0000FF" class="color_Democratic" stroke="#FFFFFF"/>
          <use xlink:href="#img-bb84416e-20" x="127.01" y="75.92" fill="#0000FF" class="color_Democratic" stroke="#FFFFFF"/>
          <use xlink:href="#img-bb84416e-20" x="133.21" y="80.66" fill="#0000FF" class="color_Democratic" stroke="#FFFFFF"/>
          <use xlink:href="#img-bb84416e-20" x="139.41" y="94.23" fill="#0000FF" class="color_Democratic" stroke="#FFFFFF"/>
          <use xlink:href="#img-bb84416e-20" x="145.61" y="87.34" fill="#0000FF" class="color_Democratic" stroke="#FFFFFF"/>
          <use xlink:href="#img-bb84416e-20" x="151.81" y="92.6" fill="#0000FF" class="color_Democratic" stroke="#FFFFFF"/>
          <use xlink:href="#img-bb84416e-20" x="158.01" y="75.31" fill="#0000FF" class="color_Democratic" stroke="#FFFFFF"/>
          <use xlink:href="#img-bb84416e-20" x="164.21" y="97.88" fill="#0000FF" class="color_Democratic" stroke="#FFFFFF"/>
          <use xlink:href="#img-bb84416e-20" x="170.41" y="107.35" fill="#0000FF" class="color_Democratic" stroke="#FFFFFF"/>
          <use xlink:href="#img-bb84416e-20" x="176.61" y="90.99" fill="#0000FF" class="color_Democratic" stroke="#FFFFFF"/>
          <use xlink:href="#img-bb84416e-20" x="182.81" y="66.7" fill="#0000FF" class="color_Democratic" stroke="#FFFFFF"/>
          <use xlink:href="#img-bb84416e-20" x="189.01" y="62.59" fill="#0000FF" class="color_Democratic" stroke="#FFFFFF"/>
          <use xlink:href="#img-bb84416e-20" x="195.21" y="69.65" fill="#0000FF" class="color_Democratic" stroke="#FFFFFF"/>
          <use xlink:href="#img-bb84416e-20" x="201.41" y="68.95" fill="#0000FF" class="color_Democratic" stroke="#FFFFFF"/>
          <use xlink:href="#img-bb84416e-20" x="207.61" y="71.67" fill="#0000FF" class="color_Democratic" stroke="#FFFFFF"/>
          <use xlink:href="#img-bb84416e-20" x="213.81" y="75.39" fill="#0000FF" class="color_Democratic" stroke="#FFFFFF"/>
          <use xlink:href="#img-bb84416e-20" x="220.01" y="75.21" fill="#0000FF" class="color_Democratic" stroke="#FFFFFF"/>
          <use xlink:href="#img-bb84416e-20" x="226.21" y="68.27" fill="#0000FF" class="color_Democratic" stroke="#FFFFFF"/>
          <use xlink:href="#img-bb84416e-20" x="232.4" y="51.84" fill="#0000FF" class="color_Democratic" stroke="#FFFFFF"/>
          <use xlink:href="#img-bb84416e-20" x="238.6" y="71.03" fill="#0000FF" class="color_Democratic" stroke="#FFFFFF"/>
          <use xlink:href="#img-bb84416e-20" x="244.8" y="77.63" fill="#0000FF" class="color_Democratic" stroke="#FFFFFF"/>
          <use xlink:href="#img-bb84416e-20" x="251" y="72.84" fill="#0000FF" class="color_Democratic" stroke="#FFFFFF"/>
          <use xlink:href="#img-bb84416e-20" x="257.2" y="76.92" fill="#0000FF" class="color_Democratic" stroke="#FFFFFF"/>
          <use xlink:href="#img-bb84416e-20" x="263.4" y="79.27" fill="#0000FF" class="color_Democratic" stroke="#FFFFFF"/>
          <use xlink:href="#img-bb84416e-20" x="269.6" y="73.63" fill="#0000FF" class="color_Democratic" stroke="#FFFFFF"/>
          <use xlink:href="#img-bb84416e-20" x="275.8" y="75.6" fill="#0000FF" class="color_Democratic" stroke="#FFFFFF"/>
          <use xlink:href="#img-bb84416e-20" x="282" y="67.39" fill="#0000FF" class="color_Democratic" stroke="#FFFFFF"/>
          <use xlink:href="#img-bb84416e-20" x="288.2" y="67.83" fill="#0000FF" class="color_Democratic" stroke="#FFFFFF"/>
          <use xlink:href="#img-bb84416e-20" x="294.4" y="67.87" fill="#0000FF" class="color_Democratic" stroke="#FFFFFF"/>
          <use xlink:href="#img-bb84416e-20" x="300.6" y="61.56" fill="#0000FF" class="color_Democratic" stroke="#FFFFFF"/>
          <use xlink:href="#img-bb84416e-20" x="306.8" y="64.96" fill="#0000FF" class="color_Democratic" stroke="#FFFFFF"/>
        </g>
      </g>
      <g stroke-width="0.53" fill="#000000" fill-opacity="0.000" stroke-dasharray="none" id="img-bb84416e-21">
        <path fill="none" d="M34.02,62.7 L 40.22 71.67 46.42 69.41 52.62 72.01 58.81 68.68 65.01 77.93 71.21 77.45 77.41 72.88 83.61 76.38 89.81 84.2 96.01 74.86 102.21 82.34 108.41 72.05 114.61 74.43 120.81 76.13 127.01 75.92 133.21 80.66 139.41 94.23 145.61 87.34 151.81 92.6 158.01 75.31 164.21 97.88 170.41 107.35 176.61 90.99 182.81 66.7 189.01 62.59 195.21 69.65 201.41 68.95 207.61 71.67 213.81 75.39 220.01 75.21 226.21 68.27 232.4 51.84 238.6 71.03 244.8 77.63 251 72.84 257.2 76.92 263.4 79.27 269.6 73.63 275.8 75.6 282 67.39 288.2 67.83 294.4 67.87 300.6 61.56 306.8 64.96" class="geometry color_Democratic" stroke="#0000FF"/>
        <path fill="none" d="M71.21,61.66 L 77.41 65.42 83.61 61.92 89.81 56.04 96.01 66.65 102.21 66.57 108.41 71.2 114.61 69.43 120.81 71.44 127.01 65.25 133.21 60.76 139.41 48.94 145.61 56.79 151.81 92.32 158.01 66.98 164.21 45.57 170.41 42.86 176.61 48.06 182.81 74.91 189.01 80.79 195.21 69.3 201.41 70 207.61 69.95 213.81 63.51 220.01 63.32 226.21 70.36 232.4 86.66 238.6 78 244.8 62.72 251 67.25 257.2 70.2 263.4 59.59 269.6 65.45 275.8 83.26 282 81.08 288.2 73.14 294.4 71.42 300.6 78.59 306.8 74.77" class="geometry color_Republican" stroke="#FF0000"/>
      </g>
    </g>
  </g>
</g>
  <g class="guide ylabels" font-size="4.76" font-family="'PT Sans Caption','Helvetica Neue','Helvetica',sans-serif" fill="#6C606B" id="img-bb84416e-22">
    <text x="24.82" y="120.95" text-anchor="end" dy="0.35em">0</text>
    <text x="24.82" y="95.05" text-anchor="end" dy="0.35em">25</text>
    <text x="24.82" y="69.15" text-anchor="end" dy="0.35em">50</text>
    <text x="24.82" y="43.25" text-anchor="end" dy="0.35em">75</text>
    <text x="24.82" y="17.35" text-anchor="end" dy="0.35em">100</text>
  </g>
  <g font-size="6.35" font-family="'PT Sans','Helvetica Neue','Helvetica',sans-serif" fill="#564A55" stroke="#000000" stroke-opacity="0.000" id="img-bb84416e-23">
    <text x="10.18" y="67.15" text-anchor="middle" dy="0.35em" transform="rotate(-90, 10.18, 69.15)">Popular Vote (%)</text>
  </g>
  <g font-size="6.35" font-family="'PT Sans','Helvetica Neue','Helvetica',sans-serif" fill="#564A55" stroke="#000000" stroke-opacity="0.000" id="img-bb84416e-24">
    <text x="170.41" y="13.35" text-anchor="middle">Michigan</text>
  </g>
</g>
<defs>
  <clipPath id="img-bb84416e-12">
  <path d="M25.82,15.35 L 315 15.35 315 122.95 25.82 122.95" />
</clipPath>
  <g id="img-bb84416e-20">
    <circle cx="0" cy="0" r="0.9"/>
  </g>
</defs>
</svg>
