<?xml version="1.0" encoding="UTF-8"?>
<svg xmlns="http://www.w3.org/2000/svg"
     xmlns:xlink="http://www.w3.org/1999/xlink"
     xmlns:gadfly="http://www.gadflyjl.org/ns"
     version="1.2"
     width="320mm" height="160mm" viewBox="0 0 320 160"
     stroke="none"
     fill="#000000"
     stroke-width="0.3"
     font-size="3.88"
>
<g class="plotroot xscalable yscalable" id="img-68cda75b-1">
  <g class="guide colorkey" id="img-68cda75b-2">
    <g class="color_Democratic" id="img-68cda75b-3">
      <g fill="#FFFFFF" font-size="4.76" font-family="'PT Sans','Helvetica Neue','Helvetica',sans-serif" id="img-68cda75b-4">
        <text x="58.33" y="149.82" dy="0.35em">Democratic</text>
      </g>
      <g fill="#0000FF" stroke="#000000" stroke-opacity="0.000" id="img-68cda75b-5">
        <rect x="54.36" y="148.34" width="2.97" height="2.97"/>
      </g>
    </g>
    <g class="color_Republican" id="img-68cda75b-6">
      <g fill="#FFFFFF" font-size="4.76" font-family="'PT Sans','Helvetica Neue','Helvetica',sans-serif" id="img-68cda75b-7">
        <text x="29.73" y="149.82" dy="0.35em">Republican</text>
      </g>
      <g fill="#FF0000" stroke="#000000" stroke-opacity="0.000" id="img-68cda75b-8">
        <rect x="25.76" y="148.34" width="2.97" height="2.97"/>
      </g>
    </g>
    <g fill="#FFFFFF" font-size="6.35" font-family="'PT Sans','Helvetica Neue','Helvetica',sans-serif" stroke="#000000" stroke-opacity="0.000" id="img-68cda75b-9">
      <text x="25.76" y="145.06">Party</text>
    </g>
  </g>
  <g font-size="6.35" font-family="'PT Sans','Helvetica Neue','Helvetica',sans-serif" fill="#FFFFFF" stroke="#000000" stroke-opacity="0.000" id="img-68cda75b-10">
    <text x="169.88" y="130.77" text-anchor="middle" dy="0.6em">Year</text>
  </g>
  <g class="guide xlabels" font-size="4.76" font-family="'PT Sans Caption','Helvetica Neue','Helvetica',sans-serif" fill="#FFFFFF" id="img-68cda75b-11">
    <text x="26.76" y="122.89" text-anchor="middle" dy="0.6em">1888</text>
    <text x="44.65" y="122.89" text-anchor="middle" dy="0.6em">1896</text>
    <text x="62.54" y="122.89" text-anchor="middle" dy="0.6em">1904</text>
    <text x="80.43" y="122.89" text-anchor="middle" dy="0.6em">1912</text>
    <text x="98.32" y="122.89" text-anchor="middle" dy="0.6em">1920</text>
    <text x="116.21" y="122.89" text-anchor="middle" dy="0.6em">1928</text>
    <text x="134.1" y="122.89" text-anchor="middle" dy="0.6em">1936</text>
    <text x="151.99" y="122.89" text-anchor="middle" dy="0.6em">1944</text>
    <text x="169.88" y="122.89" text-anchor="middle" dy="0.6em">1952</text>
    <text x="187.77" y="122.89" text-anchor="middle" dy="0.6em">1960</text>
    <text x="205.66" y="122.89" text-anchor="middle" dy="0.6em">1968</text>
    <text x="223.55" y="122.89" text-anchor="middle" dy="0.6em">1976</text>
    <text x="241.44" y="122.89" text-anchor="middle" dy="0.6em">1984</text>
    <text x="259.33" y="122.89" text-anchor="middle" dy="0.6em">1992</text>
    <text x="277.22" y="122.89" text-anchor="middle" dy="0.6em">2000</text>
    <text x="295.11" y="122.89" text-anchor="middle" dy="0.6em">2008</text>
    <text x="313" y="122.89" text-anchor="middle" dy="0.6em">2016</text>
  </g>
<g clip-path="url(#img-68cda75b-12)">
  <g id="img-68cda75b-13">
    <g pointer-events="visible" opacity="1" fill="#000000" fill-opacity="0.000" stroke="#000000" stroke-opacity="0.000" class="guide background" id="img-68cda75b-14">
      <rect x="24.76" y="13.94" width="290.24" height="107.95"/>
    </g>
    <g class="guide ygridlines xfixed" stroke-dasharray="0.5,0.5" stroke-width="0.26" stroke="#FFFFFF" id="img-68cda75b-15">
      <path fill="none" d="M24.76,119.89 L 315 119.89"/>
      <path fill="none" d="M24.76,93.9 L 315 93.9"/>
      <path fill="none" d="M24.76,67.92 L 315 67.92"/>
      <path fill="none" d="M24.76,41.93 L 315 41.93"/>
      <path fill="none" d="M24.76,15.94 L 315 15.94"/>
    </g>
    <g class="guide xgridlines yfixed" stroke-dasharray="0.5,0.5" stroke-width="0.26" stroke="#FFFFFF" id="img-68cda75b-16">
      <path fill="none" d="M26.76,13.94 L 26.76 121.89"/>
      <path fill="none" d="M44.65,13.94 L 44.65 121.89"/>
      <path fill="none" d="M62.54,13.94 L 62.54 121.89"/>
      <path fill="none" d="M80.43,13.94 L 80.43 121.89"/>
      <path fill="none" d="M98.32,13.94 L 98.32 121.89"/>
      <path fill="none" d="M116.21,13.94 L 116.21 121.89"/>
      <path fill="none" d="M134.1,13.94 L 134.1 121.89"/>
      <path fill="none" d="M151.99,13.94 L 151.99 121.89"/>
      <path fill="none" d="M169.88,13.94 L 169.88 121.89"/>
      <path fill="none" d="M187.77,13.94 L 187.77 121.89"/>
      <path fill="none" d="M205.66,13.94 L 205.66 121.89"/>
      <path fill="none" d="M223.55,13.94 L 223.55 121.89"/>
      <path fill="none" d="M241.44,13.94 L 241.44 121.89"/>
      <path fill="none" d="M259.33,13.94 L 259.33 121.89"/>
      <path fill="none" d="M277.22,13.94 L 277.22 121.89"/>
      <path fill="none" d="M295.11,13.94 L 295.11 121.89"/>
      <path fill="none" d="M313,13.94 L 313 121.89"/>
    </g>
    <g class="plotpanel" id="img-68cda75b-17">
      <g class="geometry" id="img-68cda75b-18">
        <g stroke-width="0.3" id="img-68cda75b-19">
          <use xlink:href="#img-68cda75b-20" x="35.7" y="75.77" stroke="#FFFFFF" fill="#FF0000" class="color_Republican"/>
          <use xlink:href="#img-68cda75b-20" x="44.65" y="99.41" stroke="#FFFFFF" fill="#FF0000" class="color_Republican"/>
          <use xlink:href="#img-68cda75b-20" x="53.59" y="78.53" stroke="#FFFFFF" fill="#FF0000" class="color_Republican"/>
          <use xlink:href="#img-68cda75b-20" x="62.54" y="63.54" stroke="#FFFFFF" fill="#FF0000" class="color_Republican"/>
          <use xlink:href="#img-68cda75b-20" x="71.48" y="71.05" stroke="#FFFFFF" fill="#FF0000" class="color_Republican"/>
          <use xlink:href="#img-68cda75b-20" x="80.43" y="95.78" stroke="#FFFFFF" fill="#FF0000" class="color_Republican"/>
          <use xlink:href="#img-68cda75b-20" x="89.37" y="80.84" stroke="#FFFFFF" fill="#FF0000" class="color_Republican"/>
          <use xlink:href="#img-68cda75b-20" x="98.32" y="56.34" stroke="#FFFFFF" fill="#FF0000" class="color_Republican"/>
          <use xlink:href="#img-68cda75b-20" x="107.26" y="75.71" stroke="#FFFFFF" fill="#FF0000" class="color_Republican"/>
          <use xlink:href="#img-68cda75b-20" x="116.21" y="59.21" stroke="#FFFFFF" fill="#FF0000" class="color_Republican"/>
          <use xlink:href="#img-68cda75b-20" x="125.15" y="82.4" stroke="#FFFFFF" fill="#FF0000" class="color_Republican"/>
          <use xlink:href="#img-68cda75b-20" x="134.1" y="91.21" stroke="#FFFFFF" fill="#FF0000" class="color_Republican"/>
          <use xlink:href="#img-68cda75b-20" x="143.04" y="78.13" stroke="#FFFFFF" fill="#FF0000" class="color_Republican"/>
          <use xlink:href="#img-68cda75b-20" x="151.99" y="73.19" stroke="#FFFFFF" fill="#FF0000" class="color_Republican"/>
          <use xlink:href="#img-68cda75b-20" x="160.93" y="75.04" stroke="#FFFFFF" fill="#FF0000" class="color_Republican"/>
          <use xlink:href="#img-68cda75b-20" x="169.88" y="58.16" stroke="#FFFFFF" fill="#FF0000" class="color_Republican"/>
          <use xlink:href="#img-68cda75b-20" x="178.82" y="60.5" stroke="#FFFFFF" fill="#FF0000" class="color_Republican"/>
          <use xlink:href="#img-68cda75b-20" x="187.77" y="66.77" stroke="#FFFFFF" fill="#FF0000" class="color_Republican"/>
          <use xlink:href="#img-68cda75b-20" x="196.71" y="77.72" stroke="#FFFFFF" fill="#FF0000" class="color_Republican"/>
          <use xlink:href="#img-68cda75b-20" x="205.66" y="67.3" stroke="#FFFFFF" fill="#FF0000" class="color_Republican"/>
          <use xlink:href="#img-68cda75b-20" x="214.6" y="59.68" stroke="#FFFFFF" fill="#FF0000" class="color_Republican"/>
          <use xlink:href="#img-68cda75b-20" x="223.55" y="64.96" stroke="#FFFFFF" fill="#FF0000" class="color_Republican"/>
          <use xlink:href="#img-68cda75b-20" x="232.49" y="60.82" stroke="#FFFFFF" fill="#FF0000" class="color_Republican"/>
          <use xlink:href="#img-68cda75b-20" x="241.44" y="57.03" stroke="#FFFFFF" fill="#FF0000" class="color_Republican"/>
          <use xlink:href="#img-68cda75b-20" x="250.38" y="65.76" stroke="#FFFFFF" fill="#FF0000" class="color_Republican"/>
          <use xlink:href="#img-68cda75b-20" x="259.33" y="83.38" stroke="#FFFFFF" fill="#FF0000" class="color_Republican"/>
          <use xlink:href="#img-68cda75b-20" x="268.27" y="74.04" stroke="#FFFFFF" fill="#FF0000" class="color_Republican"/>
          <use xlink:href="#img-68cda75b-20" x="277.22" y="59.14" stroke="#FFFFFF" fill="#FF0000" class="color_Republican"/>
          <use xlink:href="#img-68cda75b-20" x="286.16" y="58.49" stroke="#FFFFFF" fill="#FF0000" class="color_Republican"/>
          <use xlink:href="#img-68cda75b-20" x="295.11" y="68.44" stroke="#FFFFFF" fill="#FF0000" class="color_Republican"/>
          <use xlink:href="#img-68cda75b-20" x="304.05" y="62.4" stroke="#FFFFFF" fill="#FF0000" class="color_Republican"/>
          <use xlink:href="#img-68cda75b-20" x="35.7" y="78.53" stroke="#FFFFFF" fill="#0000FF" class="color_Democratic"/>
          <use xlink:href="#img-68cda75b-20" x="44.65" y="36.8" stroke="#FFFFFF" fill="#0000FF" class="color_Democratic"/>
          <use xlink:href="#img-68cda75b-20" x="53.59" y="59.15" stroke="#FFFFFF" fill="#0000FF" class="color_Democratic"/>
          <use xlink:href="#img-68cda75b-20" x="62.54" y="84.77" stroke="#FFFFFF" fill="#0000FF" class="color_Democratic"/>
          <use xlink:href="#img-68cda75b-20" x="71.48" y="75.6" stroke="#FFFFFF" fill="#0000FF" class="color_Democratic"/>
          <use xlink:href="#img-68cda75b-20" x="80.43" y="83.51" stroke="#FFFFFF" fill="#0000FF" class="color_Democratic"/>
          <use xlink:href="#img-68cda75b-20" x="89.37" y="60.76" stroke="#FFFFFF" fill="#0000FF" class="color_Democratic"/>
          <use xlink:href="#img-68cda75b-20" x="98.32" y="86.57" stroke="#FFFFFF" fill="#0000FF" class="color_Democratic"/>
          <use xlink:href="#img-68cda75b-20" x="107.26" y="99.74" stroke="#FFFFFF" fill="#0000FF" class="color_Democratic"/>
          <use xlink:href="#img-68cda75b-20" x="116.21" y="77.81" stroke="#FFFFFF" fill="#0000FF" class="color_Democratic"/>
          <use xlink:href="#img-68cda75b-20" x="125.15" y="58.77" stroke="#FFFFFF" fill="#0000FF" class="color_Democratic"/>
          <use xlink:href="#img-68cda75b-20" x="134.1" y="47.88" stroke="#FFFFFF" fill="#0000FF" class="color_Democratic"/>
          <use xlink:href="#img-68cda75b-20" x="143.04" y="58.79" stroke="#FFFFFF" fill="#0000FF" class="color_Democratic"/>
          <use xlink:href="#img-68cda75b-20" x="151.99" y="63.46" stroke="#FFFFFF" fill="#0000FF" class="color_Democratic"/>
          <use xlink:href="#img-68cda75b-20" x="160.93" y="64.7" stroke="#FFFFFF" fill="#0000FF" class="color_Democratic"/>
          <use xlink:href="#img-68cda75b-20" x="169.88" y="78.23" stroke="#FFFFFF" fill="#0000FF" class="color_Democratic"/>
          <use xlink:href="#img-68cda75b-20" x="178.82" y="75.33" stroke="#FFFFFF" fill="#0000FF" class="color_Democratic"/>
          <use xlink:href="#img-68cda75b-20" x="187.77" y="69.38" stroke="#FFFFFF" fill="#0000FF" class="color_Democratic"/>
          <use xlink:href="#img-68cda75b-20" x="196.71" y="58.61" stroke="#FFFFFF" fill="#0000FF" class="color_Democratic"/>
          <use xlink:href="#img-68cda75b-20" x="205.66" y="76.66" stroke="#FFFFFF" fill="#0000FF" class="color_Democratic"/>
          <use xlink:href="#img-68cda75b-20" x="214.6" y="80.55" stroke="#FFFFFF" fill="#0000FF" class="color_Democratic"/>
          <use xlink:href="#img-68cda75b-20" x="223.55" y="72.69" stroke="#FFFFFF" fill="#0000FF" class="color_Democratic"/>
          <use xlink:href="#img-68cda75b-20" x="232.49" y="86.18" stroke="#FFFFFF" fill="#0000FF" class="color_Democratic"/>
          <use xlink:href="#img-68cda75b-20" x="241.44" y="80.21" stroke="#FFFFFF" fill="#0000FF" class="color_Democratic"/>
          <use xlink:href="#img-68cda75b-20" x="250.38" y="71.87" stroke="#FFFFFF" fill="#0000FF" class="color_Democratic"/>
          <use xlink:href="#img-68cda75b-20" x="259.33" y="80.78" stroke="#FFFFFF" fill="#0000FF" class="color_Democratic"/>
          <use xlink:href="#img-68cda75b-20" x="268.27" y="77.03" stroke="#FFFFFF" fill="#0000FF" class="color_Democratic"/>
          <use xlink:href="#img-68cda75b-20" x="277.22" y="85.21" stroke="#FFFFFF" fill="#0000FF" class="color_Democratic"/>
          <use xlink:href="#img-68cda75b-20" x="286.16" y="79.8" stroke="#FFFFFF" fill="#0000FF" class="color_Democratic"/>
          <use xlink:href="#img-68cda75b-20" x="295.11" y="70.91" stroke="#FFFFFF" fill="#0000FF" class="color_Democratic"/>
          <use xlink:href="#img-68cda75b-20" x="304.05" y="76.58" stroke="#FFFFFF" fill="#0000FF" class="color_Democratic"/>
        </g>
      </g>
      <g stroke-width="0.53" fill="#000000" fill-opacity="0.000" stroke-dasharray="none" id="img-68cda75b-21">
        <path fill="none" d="M35.7,78.53 L 44.65 36.8 53.59 59.15 62.54 84.77 71.48 75.6 80.43 83.51 89.37 60.76 98.32 86.57 107.26 99.74 116.21 77.81 125.15 58.77 134.1 47.88 143.04 58.79 151.99 63.46 160.93 64.7 169.88 78.23 178.82 75.33 187.77 69.38 196.71 58.61 205.66 76.66 214.6 80.55 223.55 72.69 232.49 86.18 241.44 80.21 250.38 71.87 259.33 80.78 268.27 77.03 277.22 85.21 286.16 79.8 295.11 70.91 304.05 76.58" stroke="#0000FF" class="geometry color_Democratic"/>
        <path fill="none" d="M35.7,75.77 L 44.65 99.41 53.59 78.53 62.54 63.54 71.48 71.05 80.43 95.78 89.37 80.84 98.32 56.34 107.26 75.71 116.21 59.21 125.15 82.4 134.1 91.21 143.04 78.13 151.99 73.19 160.93 75.04 169.88 58.16 178.82 60.5 187.77 66.77 196.71 77.72 205.66 67.3 214.6 59.68 223.55 64.96 232.49 60.82 241.44 57.03 250.38 65.76 259.33 83.38 268.27 74.04 277.22 59.14 286.16 58.49 295.11 68.44 304.05 62.4" stroke="#FF0000" class="geometry color_Republican"/>
      </g>
    </g>
  </g>
</g>
  <g class="guide ylabels" font-size="4.76" font-family="'PT Sans Caption','Helvetica Neue','Helvetica',sans-serif" fill="#FFFFFF" id="img-68cda75b-22">
    <text x="23.76" y="119.89" text-anchor="end" dy="0.35em">0</text>
    <text x="23.76" y="93.9" text-anchor="end" dy="0.35em">25</text>
    <text x="23.76" y="67.92" text-anchor="end" dy="0.35em">50</text>
    <text x="23.76" y="41.93" text-anchor="end" dy="0.35em">75</text>
    <text x="23.76" y="15.94" text-anchor="end" dy="0.35em">100</text>
  </g>
  <g font-size="6.35" font-family="'PT Sans','Helvetica Neue','Helvetica',sans-serif" fill="#FFFFFF" stroke="#000000" stroke-opacity="0.000" id="img-68cda75b-23">
    <text x="10.18" y="65.92" text-anchor="middle" dy="0.35em" transform="rotate(-90, 10.18, 67.92)">Popular Vote (%)</text>
  </g>
  <g font-size="6.35" font-family="'PT Sans','Helvetica Neue','Helvetica',sans-serif" fill="#FFFFFF" stroke="#000000" stroke-opacity="0.000" id="img-68cda75b-24">
    <text x="169.88" y="11.94" text-anchor="middle">Montana</text>
  </g>
</g>
<defs>
  <clipPath id="img-68cda75b-12">
  <path d="M24.76,13.94 L 315 13.94 315 121.89 24.76 121.89" />
</clipPath>
  <g id="img-68cda75b-20">
    <circle cx="0" cy="0" r="0.9"/>
  </g>
</defs>
</svg>
