<?xml version="1.0" encoding="UTF-8"?>
<svg xmlns="http://www.w3.org/2000/svg"
     xmlns:xlink="http://www.w3.org/1999/xlink"
     xmlns:gadfly="http://www.gadflyjl.org/ns"
     version="1.2"
     width="320mm" height="160mm" viewBox="0 0 320 160"
     stroke="none"
     fill="#000000"
     stroke-width="0.3"
     font-size="3.88"
>
<g class="plotroot xscalable yscalable" id="img-d5de2b30-1">
  <g class="guide colorkey" id="img-d5de2b30-2">
    <g class="color_Democratic" id="img-d5de2b30-3">
      <g fill="#4C404B" font-size="4.76" font-family="'PT Sans','Helvetica Neue','Helvetica',sans-serif" id="img-d5de2b30-4">
        <text x="61.86" y="150" dy="0.35em">Democratic</text>
      </g>
      <g fill="#0000FF" stroke="#000000" stroke-opacity="0.000" id="img-d5de2b30-5">
        <rect x="57.89" y="148.52" width="2.97" height="2.97"/>
      </g>
    </g>
    <g class="color_Republican" id="img-d5de2b30-6">
      <g fill="#4C404B" font-size="4.76" font-family="'PT Sans','Helvetica Neue','Helvetica',sans-serif" id="img-d5de2b30-7">
        <text x="30.79" y="150" dy="0.35em">Republican</text>
      </g>
      <g fill="#FF0000" stroke="#000000" stroke-opacity="0.000" id="img-d5de2b30-8">
        <rect x="26.82" y="148.52" width="2.97" height="2.97"/>
      </g>
    </g>
    <g fill="#362A35" font-size="6.35" font-family="'PT Sans','Helvetica Neue','Helvetica',sans-serif" stroke="#000000" stroke-opacity="0.000" id="img-d5de2b30-9">
      <text x="26.82" y="145.06">Party</text>
    </g>
  </g>
  <g font-size="6.35" font-family="'PT Sans','Helvetica Neue','Helvetica',sans-serif" fill="#564A55" stroke="#000000" stroke-opacity="0.000" id="img-d5de2b30-10">
    <text x="170.41" y="131.48" text-anchor="middle" dy="0.6em">Year</text>
  </g>
  <g class="guide xlabels" font-size="4.76" font-family="'PT Sans Caption','Helvetica Neue','Helvetica',sans-serif" fill="#6C606B" id="img-d5de2b30-11">
    <text x="27.82" y="123.95" text-anchor="middle" dy="0.6em">1824</text>
    <text x="45.64" y="123.95" text-anchor="middle" dy="0.6em">1836</text>
    <text x="63.46" y="123.95" text-anchor="middle" dy="0.6em">1848</text>
    <text x="81.29" y="123.95" text-anchor="middle" dy="0.6em">1860</text>
    <text x="99.11" y="123.95" text-anchor="middle" dy="0.6em">1872</text>
    <text x="116.94" y="123.95" text-anchor="middle" dy="0.6em">1884</text>
    <text x="134.76" y="123.95" text-anchor="middle" dy="0.6em">1896</text>
    <text x="152.58" y="123.95" text-anchor="middle" dy="0.6em">1908</text>
    <text x="170.41" y="123.95" text-anchor="middle" dy="0.6em">1920</text>
    <text x="188.23" y="123.95" text-anchor="middle" dy="0.6em">1932</text>
    <text x="206.06" y="123.95" text-anchor="middle" dy="0.6em">1944</text>
    <text x="223.88" y="123.95" text-anchor="middle" dy="0.6em">1956</text>
    <text x="241.7" y="123.95" text-anchor="middle" dy="0.6em">1968</text>
    <text x="259.53" y="123.95" text-anchor="middle" dy="0.6em">1980</text>
    <text x="277.35" y="123.95" text-anchor="middle" dy="0.6em">1992</text>
    <text x="295.18" y="123.95" text-anchor="middle" dy="0.6em">2004</text>
    <text x="313" y="123.95" text-anchor="middle" dy="0.6em">2016</text>
  </g>
<g clip-path="url(#img-d5de2b30-12)">
  <g id="img-d5de2b30-13">
    <g pointer-events="visible" opacity="1" fill="#000000" fill-opacity="0.000" stroke="#000000" stroke-opacity="0.000" class="guide background" id="img-d5de2b30-14">
      <rect x="25.82" y="15.35" width="289.18" height="107.6"/>
    </g>
    <g class="guide ygridlines xfixed" stroke-dasharray="0.5,0.5" stroke-width="0.26" stroke="#000000" id="img-d5de2b30-15">
      <path fill="none" d="M25.82,120.95 L 315 120.95"/>
      <path fill="none" d="M25.82,95.05 L 315 95.05"/>
      <path fill="none" d="M25.82,69.15 L 315 69.15"/>
      <path fill="none" d="M25.82,43.25 L 315 43.25"/>
      <path fill="none" d="M25.82,17.35 L 315 17.35"/>
    </g>
    <g class="guide xgridlines yfixed" stroke-dasharray="0.5,0.5" stroke-width="0.26" stroke="#000000" id="img-d5de2b30-16">
      <path fill="none" d="M27.82,15.35 L 27.82 122.95"/>
      <path fill="none" d="M45.64,15.35 L 45.64 122.95"/>
      <path fill="none" d="M63.46,15.35 L 63.46 122.95"/>
      <path fill="none" d="M81.29,15.35 L 81.29 122.95"/>
      <path fill="none" d="M99.11,15.35 L 99.11 122.95"/>
      <path fill="none" d="M116.94,15.35 L 116.94 122.95"/>
      <path fill="none" d="M134.76,15.35 L 134.76 122.95"/>
      <path fill="none" d="M152.58,15.35 L 152.58 122.95"/>
      <path fill="none" d="M170.41,15.35 L 170.41 122.95"/>
      <path fill="none" d="M188.23,15.35 L 188.23 122.95"/>
      <path fill="none" d="M206.06,15.35 L 206.06 122.95"/>
      <path fill="none" d="M223.88,15.35 L 223.88 122.95"/>
      <path fill="none" d="M241.7,15.35 L 241.7 122.95"/>
      <path fill="none" d="M259.53,15.35 L 259.53 122.95"/>
      <path fill="none" d="M277.35,15.35 L 277.35 122.95"/>
      <path fill="none" d="M295.18,15.35 L 295.18 122.95"/>
      <path fill="none" d="M313,15.35 L 313 122.95"/>
    </g>
    <g class="plotpanel" id="img-d5de2b30-17">
      <g class="geometry" id="img-d5de2b30-18">
        <g stroke-width="0.3" id="img-d5de2b30-19">
          <use xlink:href="#img-d5de2b30-20" x="81.29" y="120.95" fill="#FF0000" class="color_Republican" stroke="#FFFFFF"/>
          <use xlink:href="#img-d5de2b30-20" x="99.11" y="55.19" fill="#FF0000" class="color_Republican" stroke="#FFFFFF"/>
          <use xlink:href="#img-d5de2b30-20" x="105.05" y="87.88" fill="#FF0000" class="color_Republican" stroke="#FFFFFF"/>
          <use xlink:href="#img-d5de2b30-20" x="111" y="90.11" fill="#FF0000" class="color_Republican" stroke="#FFFFFF"/>
          <use xlink:href="#img-d5de2b30-20" x="116.94" y="84.01" fill="#FF0000" class="color_Republican" stroke="#FFFFFF"/>
          <use xlink:href="#img-d5de2b30-20" x="122.88" y="94.02" fill="#FF0000" class="color_Republican" stroke="#FFFFFF"/>
          <use xlink:href="#img-d5de2b30-20" x="128.82" y="118.19" fill="#FF0000" class="color_Republican" stroke="#FFFFFF"/>
          <use xlink:href="#img-d5de2b30-20" x="134.76" y="113.78" fill="#FF0000" class="color_Republican" stroke="#FFFFFF"/>
          <use xlink:href="#img-d5de2b30-20" x="140.7" y="110.94" fill="#FF0000" class="color_Republican" stroke="#FFFFFF"/>
          <use xlink:href="#img-d5de2b30-20" x="146.64" y="115.16" fill="#FF0000" class="color_Republican" stroke="#FFFFFF"/>
          <use xlink:href="#img-d5de2b30-20" x="152.58" y="114.19" fill="#FF0000" class="color_Republican" stroke="#FFFFFF"/>
          <use xlink:href="#img-d5de2b30-20" x="158.53" y="118.44" fill="#FF0000" class="color_Republican" stroke="#FFFFFF"/>
          <use xlink:href="#img-d5de2b30-20" x="164.47" y="115.87" fill="#FF0000" class="color_Republican" stroke="#FFFFFF"/>
          <use xlink:href="#img-d5de2b30-20" x="170.41" y="106.41" fill="#FF0000" class="color_Republican" stroke="#FFFFFF"/>
          <use xlink:href="#img-d5de2b30-20" x="176.35" y="113.13" fill="#FF0000" class="color_Republican" stroke="#FFFFFF"/>
          <use xlink:href="#img-d5de2b30-20" x="182.29" y="102.41" fill="#FF0000" class="color_Republican" stroke="#FFFFFF"/>
          <use xlink:href="#img-d5de2b30-20" x="188.23" y="117.28" fill="#FF0000" class="color_Republican" stroke="#FFFFFF"/>
          <use xlink:href="#img-d5de2b30-20" x="194.17" y="118.1" fill="#FF0000" class="color_Republican" stroke="#FFFFFF"/>
          <use xlink:href="#img-d5de2b30-20" x="200.11" y="116.61" fill="#FF0000" class="color_Republican" stroke="#FFFFFF"/>
          <use xlink:href="#img-d5de2b30-20" x="206.06" y="114.28" fill="#FF0000" class="color_Republican" stroke="#FFFFFF"/>
          <use xlink:href="#img-d5de2b30-20" x="212" y="118.23" fill="#FF0000" class="color_Republican" stroke="#FFFFFF"/>
          <use xlink:href="#img-d5de2b30-20" x="217.94" y="79.96" fill="#FF0000" class="color_Republican" stroke="#FFFFFF"/>
          <use xlink:href="#img-d5de2b30-20" x="223.88" y="95.61" fill="#FF0000" class="color_Republican" stroke="#FFFFFF"/>
          <use xlink:href="#img-d5de2b30-20" x="229.82" y="95.39" fill="#FF0000" class="color_Republican" stroke="#FFFFFF"/>
          <use xlink:href="#img-d5de2b30-20" x="235.76" y="30.67" fill="#FF0000" class="color_Republican" stroke="#FFFFFF"/>
          <use xlink:href="#img-d5de2b30-20" x="241.7" y="106.94" fill="#FF0000" class="color_Republican" stroke="#FFFFFF"/>
          <use xlink:href="#img-d5de2b30-20" x="247.65" y="39.94" fill="#FF0000" class="color_Republican" stroke="#FFFFFF"/>
          <use xlink:href="#img-d5de2b30-20" x="253.59" y="71.55" fill="#FF0000" class="color_Republican" stroke="#FFFFFF"/>
          <use xlink:href="#img-d5de2b30-20" x="259.53" y="69.76" fill="#FF0000" class="color_Republican" stroke="#FFFFFF"/>
          <use xlink:href="#img-d5de2b30-20" x="265.47" y="56.88" fill="#FF0000" class="color_Republican" stroke="#FFFFFF"/>
          <use xlink:href="#img-d5de2b30-20" x="271.41" y="58.9" fill="#FF0000" class="color_Republican" stroke="#FFFFFF"/>
          <use xlink:href="#img-d5de2b30-20" x="277.35" y="69.48" fill="#FF0000" class="color_Republican" stroke="#FFFFFF"/>
          <use xlink:href="#img-d5de2b30-20" x="283.29" y="69.97" fill="#FF0000" class="color_Republican" stroke="#FFFFFF"/>
          <use xlink:href="#img-d5de2b30-20" x="289.23" y="61.26" fill="#FF0000" class="color_Republican" stroke="#FFFFFF"/>
          <use xlink:href="#img-d5de2b30-20" x="295.18" y="59.37" fill="#FF0000" class="color_Republican" stroke="#FFFFFF"/>
          <use xlink:href="#img-d5de2b30-20" x="301.12" y="62.75" fill="#FF0000" class="color_Republican" stroke="#FFFFFF"/>
          <use xlink:href="#img-d5de2b30-20" x="307.06" y="63.67" fill="#FF0000" class="color_Republican" stroke="#FFFFFF"/>
          <use xlink:href="#img-d5de2b30-20" x="33.76" y="36.98" fill="#0000FF" class="color_Democratic" stroke="#FFFFFF"/>
          <use xlink:href="#img-d5de2b30-20" x="39.7" y="17.35" fill="#0000FF" class="color_Democratic" stroke="#FFFFFF"/>
          <use xlink:href="#img-d5de2b30-20" x="45.64" y="67.82" fill="#0000FF" class="color_Democratic" stroke="#FFFFFF"/>
          <use xlink:href="#img-d5de2b30-20" x="51.58" y="72.7" fill="#0000FF" class="color_Democratic" stroke="#FFFFFF"/>
          <use xlink:href="#img-d5de2b30-20" x="57.52" y="61.45" fill="#0000FF" class="color_Democratic" stroke="#FFFFFF"/>
          <use xlink:href="#img-d5de2b30-20" x="63.46" y="68.52" fill="#0000FF" class="color_Democratic" stroke="#FFFFFF"/>
          <use xlink:href="#img-d5de2b30-20" x="69.41" y="58.27" fill="#0000FF" class="color_Democratic" stroke="#FFFFFF"/>
          <use xlink:href="#img-d5de2b30-20" x="75.35" y="59.37" fill="#0000FF" class="color_Democratic" stroke="#FFFFFF"/>
          <use xlink:href="#img-d5de2b30-20" x="81.29" y="116.03" fill="#0000FF" class="color_Democratic" stroke="#FFFFFF"/>
          <use xlink:href="#img-d5de2b30-20" x="99.11" y="83.11" fill="#0000FF" class="color_Democratic" stroke="#FFFFFF"/>
          <use xlink:href="#img-d5de2b30-20" x="105.05" y="50.42" fill="#0000FF" class="color_Democratic" stroke="#FFFFFF"/>
          <use xlink:href="#img-d5de2b30-20" x="111" y="53.91" fill="#0000FF" class="color_Democratic" stroke="#FFFFFF"/>
          <use xlink:href="#img-d5de2b30-20" x="116.94" y="54.29" fill="#0000FF" class="color_Democratic" stroke="#FFFFFF"/>
          <use xlink:href="#img-d5de2b30-20" x="122.88" y="44.49" fill="#0000FF" class="color_Democratic" stroke="#FFFFFF"/>
          <use xlink:href="#img-d5de2b30-20" x="128.82" y="41.99" fill="#0000FF" class="color_Democratic" stroke="#FFFFFF"/>
          <use xlink:href="#img-d5de2b30-20" x="134.76" y="26.63" fill="#0000FF" class="color_Democratic" stroke="#FFFFFF"/>
          <use xlink:href="#img-d5de2b30-20" x="140.7" y="30.24" fill="#0000FF" class="color_Democratic" stroke="#FFFFFF"/>
          <use xlink:href="#img-d5de2b30-20" x="146.64" y="26.6" fill="#0000FF" class="color_Democratic" stroke="#FFFFFF"/>
          <use xlink:href="#img-d5de2b30-20" x="152.58" y="27.6" fill="#0000FF" class="color_Democratic" stroke="#FFFFFF"/>
          <use xlink:href="#img-d5de2b30-20" x="158.53" y="28.85" fill="#0000FF" class="color_Democratic" stroke="#FFFFFF"/>
          <use xlink:href="#img-d5de2b30-20" x="164.47" y="24.83" fill="#0000FF" class="color_Democratic" stroke="#FFFFFF"/>
          <use xlink:href="#img-d5de2b30-20" x="170.41" y="33.95" fill="#0000FF" class="color_Democratic" stroke="#FFFFFF"/>
          <use xlink:href="#img-d5de2b30-20" x="176.35" y="28.39" fill="#0000FF" class="color_Democratic" stroke="#FFFFFF"/>
          <use xlink:href="#img-d5de2b30-20" x="182.29" y="35.89" fill="#0000FF" class="color_Democratic" stroke="#FFFFFF"/>
          <use xlink:href="#img-d5de2b30-20" x="188.23" y="21.51" fill="#0000FF" class="color_Democratic" stroke="#FFFFFF"/>
          <use xlink:href="#img-d5de2b30-20" x="194.17" y="20.42" fill="#0000FF" class="color_Democratic" stroke="#FFFFFF"/>
          <use xlink:href="#img-d5de2b30-20" x="200.11" y="21.8" fill="#0000FF" class="color_Democratic" stroke="#FFFFFF"/>
          <use xlink:href="#img-d5de2b30-20" x="206.06" y="24.02" fill="#0000FF" class="color_Democratic" stroke="#FFFFFF"/>
          <use xlink:href="#img-d5de2b30-20" x="212" y="110.5" fill="#0000FF" class="color_Democratic" stroke="#FFFFFF"/>
          <use xlink:href="#img-d5de2b30-20" x="217.94" y="58.34" fill="#0000FF" class="color_Democratic" stroke="#FFFFFF"/>
          <use xlink:href="#img-d5de2b30-20" x="223.88" y="60.62" fill="#0000FF" class="color_Democratic" stroke="#FFFFFF"/>
          <use xlink:href="#img-d5de2b30-20" x="229.82" y="83.3" fill="#0000FF" class="color_Democratic" stroke="#FFFFFF"/>
          <use xlink:href="#img-d5de2b30-20" x="235.76" y="107.63" fill="#0000FF" class="color_Democratic" stroke="#FFFFFF"/>
          <use xlink:href="#img-d5de2b30-20" x="241.7" y="97.11" fill="#0000FF" class="color_Democratic" stroke="#FFFFFF"/>
          <use xlink:href="#img-d5de2b30-20" x="247.65" y="100.62" fill="#0000FF" class="color_Democratic" stroke="#FFFFFF"/>
          <use xlink:href="#img-d5de2b30-20" x="253.59" y="69.6" fill="#0000FF" class="color_Democratic" stroke="#FFFFFF"/>
          <use xlink:href="#img-d5de2b30-20" x="259.53" y="71.13" fill="#0000FF" class="color_Democratic" stroke="#FFFFFF"/>
          <use xlink:href="#img-d5de2b30-20" x="265.47" y="82.14" fill="#0000FF" class="color_Democratic" stroke="#FFFFFF"/>
          <use xlink:href="#img-d5de2b30-20" x="271.41" y="80.48" fill="#0000FF" class="color_Democratic" stroke="#FFFFFF"/>
          <use xlink:href="#img-d5de2b30-20" x="277.35" y="78.71" fill="#0000FF" class="color_Democratic" stroke="#FFFFFF"/>
          <use xlink:href="#img-d5de2b30-20" x="283.29" y="75.28" fill="#0000FF" class="color_Democratic" stroke="#FFFFFF"/>
          <use xlink:href="#img-d5de2b30-20" x="289.23" y="78.78" fill="#0000FF" class="color_Democratic" stroke="#FFFFFF"/>
          <use xlink:href="#img-d5de2b30-20" x="295.18" y="79.77" fill="#0000FF" class="color_Democratic" stroke="#FFFFFF"/>
          <use xlink:href="#img-d5de2b30-20" x="301.12" y="76.4" fill="#0000FF" class="color_Democratic" stroke="#FFFFFF"/>
          <use xlink:href="#img-d5de2b30-20" x="307.06" y="75.58" fill="#0000FF" class="color_Democratic" stroke="#FFFFFF"/>
        </g>
      </g>
      <g stroke-width="0.53" fill="#000000" fill-opacity="0.000" stroke-dasharray="none" id="img-d5de2b30-21">
        <path fill="none" d="M33.76,36.98 L 39.7 17.35 45.64 67.82 51.58 72.7 57.52 61.45 63.46 68.52 69.41 58.27 75.35 59.37 81.29 116.03 99.11 83.11 105.05 50.42 111 53.91 116.94 54.29 122.88 44.49 128.82 41.99 134.76 26.63 140.7 30.24 146.64 26.6 152.58 27.6 158.53 28.85 164.47 24.83 170.41 33.95 176.35 28.39 182.29 35.89 188.23 21.51 194.17 20.42 200.11 21.8 206.06 24.02 212 110.5 217.94 58.34 223.88 60.62 229.82 83.3 235.76 107.63 241.7 97.11 247.65 100.62 253.59 69.6 259.53 71.13 265.47 82.14 271.41 80.48 277.35 78.71 283.29 75.28 289.23 78.78 295.18 79.77 301.12 76.4 307.06 75.58" class="geometry color_Democratic" stroke="#0000FF"/>
        <path fill="none" d="M81.29,120.95 L 99.11 55.19 105.05 87.88 111 90.11 116.94 84.01 122.88 94.02 128.82 118.19 134.76 113.78 140.7 110.94 146.64 115.16 152.58 114.19 158.53 118.44 164.47 115.87 170.41 106.41 176.35 113.13 182.29 102.41 188.23 117.28 194.17 118.1 200.11 116.61 206.06 114.28 212 118.23 217.94 79.96 223.88 95.61 229.82 95.39 235.76 30.67 241.7 106.94 247.65 39.94 253.59 71.55 259.53 69.76 265.47 56.88 271.41 58.9 277.35 69.48 283.29 69.97 289.23 61.26 295.18 59.37 301.12 62.75 307.06 63.67" class="geometry color_Republican" stroke="#FF0000"/>
      </g>
    </g>
  </g>
</g>
  <g class="guide ylabels" font-size="4.76" font-family="'PT Sans Caption','Helvetica Neue','Helvetica',sans-serif" fill="#6C606B" id="img-d5de2b30-22">
    <text x="24.82" y="120.95" text-anchor="end" dy="0.35em">0</text>
    <text x="24.82" y="95.05" text-anchor="end" dy="0.35em">25</text>
    <text x="24.82" y="69.15" text-anchor="end" dy="0.35em">50</text>
    <text x="24.82" y="43.25" text-anchor="end" dy="0.35em">75</text>
    <text x="24.82" y="17.35" text-anchor="end" dy="0.35em">100</text>
  </g>
  <g font-size="6.35" font-family="'PT Sans','Helvetica Neue','Helvetica',sans-serif" fill="#564A55" stroke="#000000" stroke-opacity="0.000" id="img-d5de2b30-23">
    <text x="10.18" y="67.15" text-anchor="middle" dy="0.35em" transform="rotate(-90, 10.18, 69.15)">Popular Vote (%)</text>
  </g>
  <g font-size="6.35" font-family="'PT Sans','Helvetica Neue','Helvetica',sans-serif" fill="#564A55" stroke="#000000" stroke-opacity="0.000" id="img-d5de2b30-24">
    <text x="170.41" y="13.35" text-anchor="middle">Mississippi</text>
  </g>
</g>
<defs>
  <clipPath id="img-d5de2b30-12">
  <path d="M25.82,15.35 L 315 15.35 315 122.95 25.82 122.95" />
</clipPath>
  <g id="img-d5de2b30-20">
    <circle cx="0" cy="0" r="0.9"/>
  </g>
</defs>
</svg>
