<?xml version="1.0" encoding="UTF-8"?>
<svg xmlns="http://www.w3.org/2000/svg"
     xmlns:xlink="http://www.w3.org/1999/xlink"
     xmlns:gadfly="http://www.gadflyjl.org/ns"
     version="1.2"
     width="320mm" height="160mm" viewBox="0 0 320 160"
     stroke="none"
     fill="#000000"
     stroke-width="0.3"
     font-size="3.88"
>
<g class="plotroot xscalable yscalable" id="img-62964e4f-1">
  <g class="guide colorkey" id="img-62964e4f-2">
    <g class="color_Democratic" id="img-62964e4f-3">
      <g fill="#4C404B" font-size="4.76" font-family="'PT Sans','Helvetica Neue','Helvetica',sans-serif" id="img-62964e4f-4">
        <text x="57.56" y="150.05" dy="0.35em">Democratic</text>
      </g>
      <g fill="#0000FF" stroke="#000000" stroke-opacity="0.000" id="img-62964e4f-5">
        <rect x="53.84" y="148.69" width="2.72" height="2.72"/>
      </g>
    </g>
    <g class="color_Republican" id="img-62964e4f-6">
      <g fill="#4C404B" font-size="4.76" font-family="'PT Sans','Helvetica Neue','Helvetica',sans-serif" id="img-62964e4f-7">
        <text x="30.1" y="150.05" dy="0.35em">Republican</text>
      </g>
      <g fill="#FF0000" stroke="#000000" stroke-opacity="0.000" id="img-62964e4f-8">
        <rect x="26.38" y="148.69" width="2.72" height="2.72"/>
      </g>
    </g>
    <g fill="#362A35" font-size="6.35" font-family="'PT Sans','Helvetica Neue','Helvetica',sans-serif" stroke="#000000" stroke-opacity="0.000" id="img-62964e4f-9">
      <text x="26.38" y="145.57">Party</text>
    </g>
  </g>
  <g font-size="6.35" font-family="'PT Sans','Helvetica Neue','Helvetica',sans-serif" fill="#564A55" stroke="#000000" stroke-opacity="0.000" id="img-62964e4f-10">
    <text x="170.19" y="130.75" text-anchor="middle" dy="0.6em">Year</text>
  </g>
  <g class="guide xlabels" font-size="4.76" font-family="'PT Sans Caption','Helvetica Neue','Helvetica',sans-serif" fill="#6C606B" id="img-62964e4f-11">
    <text x="27.38" y="122.24" text-anchor="middle" dy="0.6em">1832</text>
    <text x="46.01" y="122.24" text-anchor="middle" dy="0.6em">1844</text>
    <text x="64.63" y="122.24" text-anchor="middle" dy="0.6em">1856</text>
    <text x="83.26" y="122.24" text-anchor="middle" dy="0.6em">1868</text>
    <text x="101.89" y="122.24" text-anchor="middle" dy="0.6em">1880</text>
    <text x="120.52" y="122.24" text-anchor="middle" dy="0.6em">1892</text>
    <text x="139.14" y="122.24" text-anchor="middle" dy="0.6em">1904</text>
    <text x="157.77" y="122.24" text-anchor="middle" dy="0.6em">1916</text>
    <text x="176.4" y="122.24" text-anchor="middle" dy="0.6em">1928</text>
    <text x="195.03" y="122.24" text-anchor="middle" dy="0.6em">1940</text>
    <text x="213.65" y="122.24" text-anchor="middle" dy="0.6em">1952</text>
    <text x="232.28" y="122.24" text-anchor="middle" dy="0.6em">1964</text>
    <text x="250.91" y="122.24" text-anchor="middle" dy="0.6em">1976</text>
    <text x="269.54" y="122.24" text-anchor="middle" dy="0.6em">1988</text>
    <text x="288.16" y="122.24" text-anchor="middle" dy="0.6em">2000</text>
    <text x="306.79" y="122.24" text-anchor="middle" dy="0.6em">2012</text>
  </g>
<g clip-path="url(#img-62964e4f-12)">
  <g id="img-62964e4f-13">
    <g pointer-events="visible" opacity="1" fill="#000000" fill-opacity="0.000" stroke="#000000" stroke-opacity="0.000" class="guide background" id="img-62964e4f-14">
      <rect x="25.38" y="14.91" width="289.62" height="106.33"/>
    </g>
    <g class="guide ygridlines xfixed" stroke-dasharray="0.5,0.5" stroke-width="0.26" stroke="#000000" id="img-62964e4f-15">
      <path fill="none" d="M25.38,119.24 L 315 119.24"/>
      <path fill="none" d="M25.38,93.66 L 315 93.66"/>
      <path fill="none" d="M25.38,68.07 L 315 68.07"/>
      <path fill="none" d="M25.38,42.49 L 315 42.49"/>
      <path fill="none" d="M25.38,16.91 L 315 16.91"/>
    </g>
    <g class="guide xgridlines yfixed" stroke-dasharray="0.5,0.5" stroke-width="0.26" stroke="#000000" id="img-62964e4f-16">
      <path fill="none" d="M27.38,14.91 L 27.38 121.24"/>
      <path fill="none" d="M46.01,14.91 L 46.01 121.24"/>
      <path fill="none" d="M64.63,14.91 L 64.63 121.24"/>
      <path fill="none" d="M83.26,14.91 L 83.26 121.24"/>
      <path fill="none" d="M101.89,14.91 L 101.89 121.24"/>
      <path fill="none" d="M120.52,14.91 L 120.52 121.24"/>
      <path fill="none" d="M139.14,14.91 L 139.14 121.24"/>
      <path fill="none" d="M157.77,14.91 L 157.77 121.24"/>
      <path fill="none" d="M176.4,14.91 L 176.4 121.24"/>
      <path fill="none" d="M195.03,14.91 L 195.03 121.24"/>
      <path fill="none" d="M213.65,14.91 L 213.65 121.24"/>
      <path fill="none" d="M232.28,14.91 L 232.28 121.24"/>
      <path fill="none" d="M250.91,14.91 L 250.91 121.24"/>
      <path fill="none" d="M269.54,14.91 L 269.54 121.24"/>
      <path fill="none" d="M288.16,14.91 L 288.16 121.24"/>
      <path fill="none" d="M306.79,14.91 L 306.79 121.24"/>
    </g>
    <g class="plotpanel" id="img-62964e4f-17">
      <g class="geometry" id="img-62964e4f-18">
        <g stroke-width="0.3" id="img-62964e4f-19">
          <use xlink:href="#img-62964e4f-20" x="70.84" y="60.67" class="color_Republican" fill="#FF0000" stroke="#FFFFFF"/>
          <use xlink:href="#img-62964e4f-20" x="77.05" y="64.39" class="color_Republican" fill="#FF0000" stroke="#FFFFFF"/>
          <use xlink:href="#img-62964e4f-20" x="83.26" y="60.93" class="color_Republican" fill="#FF0000" stroke="#FFFFFF"/>
          <use xlink:href="#img-62964e4f-20" x="89.47" y="55.12" class="color_Republican" fill="#FF0000" stroke="#FFFFFF"/>
          <use xlink:href="#img-62964e4f-20" x="95.68" y="65.61" class="color_Republican" fill="#FF0000" stroke="#FFFFFF"/>
          <use xlink:href="#img-62964e4f-20" x="101.89" y="65.52" class="color_Republican" fill="#FF0000" stroke="#FFFFFF"/>
          <use xlink:href="#img-62964e4f-20" x="108.1" y="70.1" class="color_Republican" fill="#FF0000" stroke="#FFFFFF"/>
          <use xlink:href="#img-62964e4f-20" x="114.31" y="68.35" class="color_Republican" fill="#FF0000" stroke="#FFFFFF"/>
          <use xlink:href="#img-62964e4f-20" x="120.52" y="70.34" class="color_Republican" fill="#FF0000" stroke="#FFFFFF"/>
          <use xlink:href="#img-62964e4f-20" x="126.73" y="64.22" class="color_Republican" fill="#FF0000" stroke="#FFFFFF"/>
          <use xlink:href="#img-62964e4f-20" x="132.93" y="59.79" class="color_Republican" fill="#FF0000" stroke="#FFFFFF"/>
          <use xlink:href="#img-62964e4f-20" x="139.14" y="48.11" class="color_Republican" fill="#FF0000" stroke="#FFFFFF"/>
          <use xlink:href="#img-62964e4f-20" x="145.35" y="55.86" class="color_Republican" fill="#FF0000" stroke="#FFFFFF"/>
          <use xlink:href="#img-62964e4f-20" x="151.56" y="90.96" class="color_Republican" fill="#FF0000" stroke="#FFFFFF"/>
          <use xlink:href="#img-62964e4f-20" x="157.77" y="65.93" class="color_Republican" fill="#FF0000" stroke="#FFFFFF"/>
          <use xlink:href="#img-62964e4f-20" x="163.98" y="44.78" class="color_Republican" fill="#FF0000" stroke="#FFFFFF"/>
          <use xlink:href="#img-62964e4f-20" x="170.19" y="42.11" class="color_Republican" fill="#FF0000" stroke="#FFFFFF"/>
          <use xlink:href="#img-62964e4f-20" x="176.4" y="47.24" class="color_Republican" fill="#FF0000" stroke="#FFFFFF"/>
          <use xlink:href="#img-62964e4f-20" x="182.61" y="73.76" class="color_Republican" fill="#FF0000" stroke="#FFFFFF"/>
          <use xlink:href="#img-62964e4f-20" x="188.82" y="79.57" class="color_Republican" fill="#FF0000" stroke="#FFFFFF"/>
          <use xlink:href="#img-62964e4f-20" x="195.03" y="68.22" class="color_Republican" fill="#FF0000" stroke="#FFFFFF"/>
          <use xlink:href="#img-62964e4f-20" x="201.24" y="68.92" class="color_Republican" fill="#FF0000" stroke="#FFFFFF"/>
          <use xlink:href="#img-62964e4f-20" x="207.44" y="68.86" class="color_Republican" fill="#FF0000" stroke="#FFFFFF"/>
          <use xlink:href="#img-62964e4f-20" x="213.65" y="62.51" class="color_Republican" fill="#FF0000" stroke="#FFFFFF"/>
          <use xlink:href="#img-62964e4f-20" x="219.86" y="62.31" class="color_Republican" fill="#FF0000" stroke="#FFFFFF"/>
          <use xlink:href="#img-62964e4f-20" x="226.07" y="69.27" class="color_Republican" fill="#FF0000" stroke="#FFFFFF"/>
          <use xlink:href="#img-62964e4f-20" x="232.28" y="85.37" class="color_Republican" fill="#FF0000" stroke="#FFFFFF"/>
          <use xlink:href="#img-62964e4f-20" x="238.49" y="76.82" class="color_Republican" fill="#FF0000" stroke="#FFFFFF"/>
          <use xlink:href="#img-62964e4f-20" x="244.7" y="61.72" class="color_Republican" fill="#FF0000" stroke="#FFFFFF"/>
          <use xlink:href="#img-62964e4f-20" x="250.91" y="66.2" class="color_Republican" fill="#FF0000" stroke="#FFFFFF"/>
          <use xlink:href="#img-62964e4f-20" x="257.12" y="69.11" class="color_Republican" fill="#FF0000" stroke="#FFFFFF"/>
          <use xlink:href="#img-62964e4f-20" x="263.33" y="58.63" class="color_Republican" fill="#FF0000" stroke="#FFFFFF"/>
          <use xlink:href="#img-62964e4f-20" x="269.54" y="64.42" class="color_Republican" fill="#FF0000" stroke="#FFFFFF"/>
          <use xlink:href="#img-62964e4f-20" x="275.75" y="82.02" class="color_Republican" fill="#FF0000" stroke="#FFFFFF"/>
          <use xlink:href="#img-62964e4f-20" x="281.95" y="79.86" class="color_Republican" fill="#FF0000" stroke="#FFFFFF"/>
          <use xlink:href="#img-62964e4f-20" x="288.16" y="72.02" class="color_Republican" fill="#FF0000" stroke="#FFFFFF"/>
          <use xlink:href="#img-62964e4f-20" x="294.37" y="70.31" class="color_Republican" fill="#FF0000" stroke="#FFFFFF"/>
          <use xlink:href="#img-62964e4f-20" x="300.58" y="77.4" class="color_Republican" fill="#FF0000" stroke="#FFFFFF"/>
          <use xlink:href="#img-62964e4f-20" x="306.79" y="73.62" class="color_Republican" fill="#FF0000" stroke="#FFFFFF"/>
          <use xlink:href="#img-62964e4f-20" x="33.59" y="61.7" class="color_Democratic" fill="#0000FF" stroke="#FFFFFF"/>
          <use xlink:href="#img-62964e4f-20" x="39.8" y="70.56" class="color_Democratic" fill="#0000FF" stroke="#FFFFFF"/>
          <use xlink:href="#img-62964e4f-20" x="46.01" y="68.33" class="color_Democratic" fill="#0000FF" stroke="#FFFFFF"/>
          <use xlink:href="#img-62964e4f-20" x="52.22" y="70.9" class="color_Democratic" fill="#0000FF" stroke="#FFFFFF"/>
          <use xlink:href="#img-62964e4f-20" x="58.43" y="67.61" class="color_Democratic" fill="#0000FF" stroke="#FFFFFF"/>
          <use xlink:href="#img-62964e4f-20" x="64.63" y="76.75" class="color_Democratic" fill="#0000FF" stroke="#FFFFFF"/>
          <use xlink:href="#img-62964e4f-20" x="70.84" y="76.27" class="color_Democratic" fill="#0000FF" stroke="#FFFFFF"/>
          <use xlink:href="#img-62964e4f-20" x="77.05" y="71.76" class="color_Democratic" fill="#0000FF" stroke="#FFFFFF"/>
          <use xlink:href="#img-62964e4f-20" x="83.26" y="75.22" class="color_Democratic" fill="#0000FF" stroke="#FFFFFF"/>
          <use xlink:href="#img-62964e4f-20" x="89.47" y="82.94" class="color_Democratic" fill="#0000FF" stroke="#FFFFFF"/>
          <use xlink:href="#img-62964e4f-20" x="95.68" y="73.71" class="color_Democratic" fill="#0000FF" stroke="#FFFFFF"/>
          <use xlink:href="#img-62964e4f-20" x="101.89" y="81.1" class="color_Democratic" fill="#0000FF" stroke="#FFFFFF"/>
          <use xlink:href="#img-62964e4f-20" x="108.1" y="70.94" class="color_Democratic" fill="#0000FF" stroke="#FFFFFF"/>
          <use xlink:href="#img-62964e4f-20" x="114.31" y="73.29" class="color_Democratic" fill="#0000FF" stroke="#FFFFFF"/>
          <use xlink:href="#img-62964e4f-20" x="120.52" y="74.97" class="color_Democratic" fill="#0000FF" stroke="#FFFFFF"/>
          <use xlink:href="#img-62964e4f-20" x="126.73" y="74.76" class="color_Democratic" fill="#0000FF" stroke="#FFFFFF"/>
          <use xlink:href="#img-62964e4f-20" x="132.93" y="79.45" class="color_Democratic" fill="#0000FF" stroke="#FFFFFF"/>
          <use xlink:href="#img-62964e4f-20" x="139.14" y="92.85" class="color_Democratic" fill="#0000FF" stroke="#FFFFFF"/>
          <use xlink:href="#img-62964e4f-20" x="145.35" y="86.04" class="color_Democratic" fill="#0000FF" stroke="#FFFFFF"/>
          <use xlink:href="#img-62964e4f-20" x="151.56" y="91.24" class="color_Democratic" fill="#0000FF" stroke="#FFFFFF"/>
          <use xlink:href="#img-62964e4f-20" x="157.77" y="74.16" class="color_Democratic" fill="#0000FF" stroke="#FFFFFF"/>
          <use xlink:href="#img-62964e4f-20" x="163.98" y="96.45" class="color_Democratic" fill="#0000FF" stroke="#FFFFFF"/>
          <use xlink:href="#img-62964e4f-20" x="170.19" y="105.8" class="color_Democratic" fill="#0000FF" stroke="#FFFFFF"/>
          <use xlink:href="#img-62964e4f-20" x="176.4" y="89.65" class="color_Democratic" fill="#0000FF" stroke="#FFFFFF"/>
          <use xlink:href="#img-62964e4f-20" x="182.61" y="65.66" class="color_Democratic" fill="#0000FF" stroke="#FFFFFF"/>
          <use xlink:href="#img-62964e4f-20" x="188.82" y="61.6" class="color_Democratic" fill="#0000FF" stroke="#FFFFFF"/>
          <use xlink:href="#img-62964e4f-20" x="195.03" y="68.56" class="color_Democratic" fill="#0000FF" stroke="#FFFFFF"/>
          <use xlink:href="#img-62964e4f-20" x="201.24" y="67.88" class="color_Democratic" fill="#0000FF" stroke="#FFFFFF"/>
          <use xlink:href="#img-62964e4f-20" x="207.44" y="70.57" class="color_Democratic" fill="#0000FF" stroke="#FFFFFF"/>
          <use xlink:href="#img-62964e4f-20" x="213.65" y="74.24" class="color_Democratic" fill="#0000FF" stroke="#FFFFFF"/>
          <use xlink:href="#img-62964e4f-20" x="219.86" y="74.06" class="color_Democratic" fill="#0000FF" stroke="#FFFFFF"/>
          <use xlink:href="#img-62964e4f-20" x="226.07" y="67.2" class="color_Democratic" fill="#0000FF" stroke="#FFFFFF"/>
          <use xlink:href="#img-62964e4f-20" x="232.28" y="50.98" class="color_Democratic" fill="#0000FF" stroke="#FFFFFF"/>
          <use xlink:href="#img-62964e4f-20" x="238.49" y="69.93" class="color_Democratic" fill="#0000FF" stroke="#FFFFFF"/>
          <use xlink:href="#img-62964e4f-20" x="244.7" y="76.45" class="color_Democratic" fill="#0000FF" stroke="#FFFFFF"/>
          <use xlink:href="#img-62964e4f-20" x="250.91" y="71.72" class="color_Democratic" fill="#0000FF" stroke="#FFFFFF"/>
          <use xlink:href="#img-62964e4f-20" x="257.12" y="75.75" class="color_Democratic" fill="#0000FF" stroke="#FFFFFF"/>
          <use xlink:href="#img-62964e4f-20" x="263.33" y="78.07" class="color_Democratic" fill="#0000FF" stroke="#FFFFFF"/>
          <use xlink:href="#img-62964e4f-20" x="269.54" y="72.5" class="color_Democratic" fill="#0000FF" stroke="#FFFFFF"/>
          <use xlink:href="#img-62964e4f-20" x="275.75" y="74.45" class="color_Democratic" fill="#0000FF" stroke="#FFFFFF"/>
          <use xlink:href="#img-62964e4f-20" x="281.95" y="66.34" class="color_Democratic" fill="#0000FF" stroke="#FFFFFF"/>
          <use xlink:href="#img-62964e4f-20" x="288.16" y="66.77" class="color_Democratic" fill="#0000FF" stroke="#FFFFFF"/>
          <use xlink:href="#img-62964e4f-20" x="294.37" y="66.81" class="color_Democratic" fill="#0000FF" stroke="#FFFFFF"/>
          <use xlink:href="#img-62964e4f-20" x="300.58" y="60.57" class="color_Democratic" fill="#0000FF" stroke="#FFFFFF"/>
          <use xlink:href="#img-62964e4f-20" x="306.79" y="63.94" class="color_Democratic" fill="#0000FF" stroke="#FFFFFF"/>
        </g>
      </g>
      <g stroke-width="0.53" fill="#000000" fill-opacity="0.000" stroke-dasharray="none" id="img-62964e4f-21">
        <path fill="none" d="M33.59,61.7 L 39.8 70.56 46.01 68.33 52.22 70.9 58.43 67.61 64.63 76.75 70.84 76.27 77.05 71.76 83.26 75.22 89.47 82.94 95.68 73.71 101.89 81.1 108.1 70.94 114.31 73.29 120.52 74.97 126.73 74.76 132.93 79.45 139.14 92.85 145.35 86.04 151.56 91.24 157.77 74.16 163.98 96.45 170.19 105.8 176.4 89.65 182.61 65.66 188.82 61.6 195.03 68.56 201.24 67.88 207.44 70.57 213.65 74.24 219.86 74.06 226.07 67.2 232.28 50.98 238.49 69.93 244.7 76.45 250.91 71.72 257.12 75.75 263.33 78.07 269.54 72.5 275.75 74.45 281.95 66.34 288.16 66.77 294.37 66.81 300.58 60.57 306.79 63.94" class="geometry color_Democratic" stroke="#0000FF"/>
        <path fill="none" d="M70.84,60.67 L 77.05 64.39 83.26 60.93 89.47 55.12 95.68 65.61 101.89 65.52 108.1 70.1 114.31 68.35 120.52 70.34 126.73 64.22 132.93 59.79 139.14 48.11 145.35 55.86 151.56 90.96 157.77 65.93 163.98 44.78 170.19 42.11 176.4 47.24 182.61 73.76 188.82 79.57 195.03 68.22 201.24 68.92 207.44 68.86 213.65 62.51 219.86 62.31 226.07 69.27 232.28 85.37 238.49 76.82 244.7 61.72 250.91 66.2 257.12 69.11 263.33 58.63 269.54 64.42 275.75 82.02 281.95 79.86 288.16 72.02 294.37 70.31 300.58 77.4 306.79 73.62" class="geometry color_Republican" stroke="#FF0000"/>
      </g>
    </g>
  </g>
</g>
  <g class="guide ylabels" font-size="4.76" font-family="'PT Sans Caption','Helvetica Neue','Helvetica',sans-serif" fill="#6C606B" id="img-62964e4f-22">
    <text x="24.38" y="119.24" text-anchor="end" dy="0.35em">0</text>
    <text x="24.38" y="93.66" text-anchor="end" dy="0.35em">25</text>
    <text x="24.38" y="68.07" text-anchor="end" dy="0.35em">50</text>
    <text x="24.38" y="42.49" text-anchor="end" dy="0.35em">75</text>
    <text x="24.38" y="16.91" text-anchor="end" dy="0.35em">100</text>
  </g>
  <g font-size="6.35" font-family="'PT Sans','Helvetica Neue','Helvetica',sans-serif" fill="#564A55" stroke="#000000" stroke-opacity="0.000" id="img-62964e4f-23">
    <text x="9.95" y="66.07" text-anchor="middle" dy="0.35em" transform="rotate(-90, 9.95, 68.07)">Popular Vote (%)</text>
  </g>
  <g font-size="6.35" font-family="'PT Sans','Helvetica Neue','Helvetica',sans-serif" fill="#564A55" stroke="#000000" stroke-opacity="0.000" id="img-62964e4f-24">
    <text x="170.19" y="12.91" text-anchor="middle">Michigan</text>
  </g>
</g>
<defs>
  <clipPath id="img-62964e4f-12">
  <path d="M25.38,14.91 L 315 14.91 315 121.24 25.38 121.24" />
</clipPath>
  <g id="img-62964e4f-20">
    <circle cx="0" cy="0" r="0.9"/>
  </g>
</defs>
</svg>
