<?xml version="1.0" encoding="UTF-8"?>
<svg xmlns="http://www.w3.org/2000/svg"
     xmlns:xlink="http://www.w3.org/1999/xlink"
     xmlns:gadfly="http://www.gadflyjl.org/ns"
     version="1.2"
     width="320mm" height="160mm" viewBox="0 0 320 160"
     stroke="none"
     fill="#000000"
     stroke-width="0.3"
     font-size="3.88"
>
<g class="plotroot xscalable yscalable" id="img-4dc75aef-1">
  <g class="guide colorkey" id="img-4dc75aef-2">
    <g class="color_Democratic" id="img-4dc75aef-3">
      <g fill="#4C404B" font-size="4.76" font-family="'PT Sans','Helvetica Neue','Helvetica',sans-serif" id="img-4dc75aef-4">
        <text x="61.86" y="150" dy="0.35em">Democratic</text>
      </g>
      <g fill="#0000FF" stroke="#000000" stroke-opacity="0.000" id="img-4dc75aef-5">
        <rect x="57.89" y="148.52" width="2.97" height="2.97"/>
      </g>
    </g>
    <g class="color_Republican" id="img-4dc75aef-6">
      <g fill="#4C404B" font-size="4.76" font-family="'PT Sans','Helvetica Neue','Helvetica',sans-serif" id="img-4dc75aef-7">
        <text x="30.79" y="150" dy="0.35em">Republican</text>
      </g>
      <g fill="#FF0000" stroke="#000000" stroke-opacity="0.000" id="img-4dc75aef-8">
        <rect x="26.82" y="148.52" width="2.97" height="2.97"/>
      </g>
    </g>
    <g fill="#362A35" font-size="6.35" font-family="'PT Sans','Helvetica Neue','Helvetica',sans-serif" stroke="#000000" stroke-opacity="0.000" id="img-4dc75aef-9">
      <text x="26.82" y="145.06">Party</text>
    </g>
  </g>
  <g font-size="6.35" font-family="'PT Sans','Helvetica Neue','Helvetica',sans-serif" fill="#564A55" stroke="#000000" stroke-opacity="0.000" id="img-4dc75aef-10">
    <text x="170.41" y="131.48" text-anchor="middle" dy="0.6em">Year</text>
  </g>
  <g class="guide xlabels" font-size="4.76" font-family="'PT Sans Caption','Helvetica Neue','Helvetica',sans-serif" fill="#6C606B" id="img-4dc75aef-11">
    <text x="27.82" y="123.95" text-anchor="middle" dy="0.6em">1824</text>
    <text x="45.64" y="123.95" text-anchor="middle" dy="0.6em">1836</text>
    <text x="63.46" y="123.95" text-anchor="middle" dy="0.6em">1848</text>
    <text x="81.29" y="123.95" text-anchor="middle" dy="0.6em">1860</text>
    <text x="99.11" y="123.95" text-anchor="middle" dy="0.6em">1872</text>
    <text x="116.94" y="123.95" text-anchor="middle" dy="0.6em">1884</text>
    <text x="134.76" y="123.95" text-anchor="middle" dy="0.6em">1896</text>
    <text x="152.58" y="123.95" text-anchor="middle" dy="0.6em">1908</text>
    <text x="170.41" y="123.95" text-anchor="middle" dy="0.6em">1920</text>
    <text x="188.23" y="123.95" text-anchor="middle" dy="0.6em">1932</text>
    <text x="206.06" y="123.95" text-anchor="middle" dy="0.6em">1944</text>
    <text x="223.88" y="123.95" text-anchor="middle" dy="0.6em">1956</text>
    <text x="241.7" y="123.95" text-anchor="middle" dy="0.6em">1968</text>
    <text x="259.53" y="123.95" text-anchor="middle" dy="0.6em">1980</text>
    <text x="277.35" y="123.95" text-anchor="middle" dy="0.6em">1992</text>
    <text x="295.18" y="123.95" text-anchor="middle" dy="0.6em">2004</text>
    <text x="313" y="123.95" text-anchor="middle" dy="0.6em">2016</text>
  </g>
<g clip-path="url(#img-4dc75aef-12)">
  <g id="img-4dc75aef-13">
    <g pointer-events="visible" opacity="1" fill="#000000" fill-opacity="0.000" stroke="#000000" stroke-opacity="0.000" class="guide background" id="img-4dc75aef-14">
      <rect x="25.82" y="15.35" width="289.18" height="107.6"/>
    </g>
    <g class="guide ygridlines xfixed" stroke-dasharray="0.5,0.5" stroke-width="0.26" stroke="#000000" id="img-4dc75aef-15">
      <path fill="none" d="M25.82,120.95 L 315 120.95"/>
      <path fill="none" d="M25.82,95.05 L 315 95.05"/>
      <path fill="none" d="M25.82,69.15 L 315 69.15"/>
      <path fill="none" d="M25.82,43.25 L 315 43.25"/>
      <path fill="none" d="M25.82,17.35 L 315 17.35"/>
    </g>
    <g class="guide xgridlines yfixed" stroke-dasharray="0.5,0.5" stroke-width="0.26" stroke="#000000" id="img-4dc75aef-16">
      <path fill="none" d="M27.82,15.35 L 27.82 122.95"/>
      <path fill="none" d="M45.64,15.35 L 45.64 122.95"/>
      <path fill="none" d="M63.46,15.35 L 63.46 122.95"/>
      <path fill="none" d="M81.29,15.35 L 81.29 122.95"/>
      <path fill="none" d="M99.11,15.35 L 99.11 122.95"/>
      <path fill="none" d="M116.94,15.35 L 116.94 122.95"/>
      <path fill="none" d="M134.76,15.35 L 134.76 122.95"/>
      <path fill="none" d="M152.58,15.35 L 152.58 122.95"/>
      <path fill="none" d="M170.41,15.35 L 170.41 122.95"/>
      <path fill="none" d="M188.23,15.35 L 188.23 122.95"/>
      <path fill="none" d="M206.06,15.35 L 206.06 122.95"/>
      <path fill="none" d="M223.88,15.35 L 223.88 122.95"/>
      <path fill="none" d="M241.7,15.35 L 241.7 122.95"/>
      <path fill="none" d="M259.53,15.35 L 259.53 122.95"/>
      <path fill="none" d="M277.35,15.35 L 277.35 122.95"/>
      <path fill="none" d="M295.18,15.35 L 295.18 122.95"/>
      <path fill="none" d="M313,15.35 L 313 122.95"/>
    </g>
    <g class="plotpanel" id="img-4dc75aef-17">
      <g class="geometry" id="img-4dc75aef-18">
        <g stroke-width="0.3" id="img-4dc75aef-19">
          <use xlink:href="#img-4dc75aef-20" x="81.29" y="118.38" fill="#FF0000" class="color_Republican" stroke="#FFFFFF"/>
          <use xlink:href="#img-4dc75aef-20" x="87.23" y="63.88" fill="#FF0000" class="color_Republican" stroke="#FFFFFF"/>
          <use xlink:href="#img-4dc75aef-20" x="93.17" y="86.97" fill="#FF0000" class="color_Republican" stroke="#FFFFFF"/>
          <use xlink:href="#img-4dc75aef-20" x="99.11" y="69.51" fill="#FF0000" class="color_Republican" stroke="#FFFFFF"/>
          <use xlink:href="#img-4dc75aef-20" x="105.05" y="75.41" fill="#FF0000" class="color_Republican" stroke="#FFFFFF"/>
          <use xlink:href="#img-4dc75aef-20" x="111" y="73.72" fill="#FF0000" class="color_Republican" stroke="#FFFFFF"/>
          <use xlink:href="#img-4dc75aef-20" x="116.94" y="73.19" fill="#FF0000" class="color_Republican" stroke="#FFFFFF"/>
          <use xlink:href="#img-4dc75aef-20" x="122.88" y="71.84" fill="#FF0000" class="color_Republican" stroke="#FFFFFF"/>
          <use xlink:href="#img-4dc75aef-20" x="128.82" y="75.9" fill="#FF0000" class="color_Republican" stroke="#FFFFFF"/>
          <use xlink:href="#img-4dc75aef-20" x="134.76" y="64.25" fill="#FF0000" class="color_Republican" stroke="#FFFFFF"/>
          <use xlink:href="#img-4dc75aef-20" x="140.7" y="67.6" fill="#FF0000" class="color_Republican" stroke="#FFFFFF"/>
          <use xlink:href="#img-4dc75aef-20" x="146.64" y="70.36" fill="#FF0000" class="color_Republican" stroke="#FFFFFF"/>
          <use xlink:href="#img-4dc75aef-20" x="152.58" y="70.35" fill="#FF0000" class="color_Republican" stroke="#FFFFFF"/>
          <use xlink:href="#img-4dc75aef-20" x="158.53" y="96.41" fill="#FF0000" class="color_Republican" stroke="#FFFFFF"/>
          <use xlink:href="#img-4dc75aef-20" x="164.47" y="74.56" fill="#FF0000" class="color_Republican" stroke="#FFFFFF"/>
          <use xlink:href="#img-4dc75aef-20" x="170.41" y="63.86" fill="#FF0000" class="color_Republican" stroke="#FFFFFF"/>
          <use xlink:href="#img-4dc75aef-20" x="176.35" y="74.03" fill="#FF0000" class="color_Republican" stroke="#FFFFFF"/>
          <use xlink:href="#img-4dc75aef-20" x="182.29" y="61.84" fill="#FF0000" class="color_Republican" stroke="#FFFFFF"/>
          <use xlink:href="#img-4dc75aef-20" x="188.23" y="83.61" fill="#FF0000" class="color_Republican" stroke="#FFFFFF"/>
          <use xlink:href="#img-4dc75aef-20" x="194.17" y="82.58" fill="#FF0000" class="color_Republican" stroke="#FFFFFF"/>
          <use xlink:href="#img-4dc75aef-20" x="200.11" y="78.65" fill="#FF0000" class="color_Republican" stroke="#FFFFFF"/>
          <use xlink:href="#img-4dc75aef-20" x="206.06" y="71.07" fill="#FF0000" class="color_Republican" stroke="#FFFFFF"/>
          <use xlink:href="#img-4dc75aef-20" x="212" y="69.77" fill="#FF0000" class="color_Republican" stroke="#FFFFFF"/>
          <use xlink:href="#img-4dc75aef-20" x="217.94" y="63.59" fill="#FF0000" class="color_Republican" stroke="#FFFFFF"/>
          <use xlink:href="#img-4dc75aef-20" x="223.88" y="58.75" fill="#FF0000" class="color_Republican" stroke="#FFFFFF"/>
          <use xlink:href="#img-4dc75aef-20" x="229.82" y="72.89" fill="#FF0000" class="color_Republican" stroke="#FFFFFF"/>
          <use xlink:href="#img-4dc75aef-20" x="235.76" y="85.18" fill="#FF0000" class="color_Republican" stroke="#FFFFFF"/>
          <use xlink:href="#img-4dc75aef-20" x="241.7" y="77.5" fill="#FF0000" class="color_Republican" stroke="#FFFFFF"/>
          <use xlink:href="#img-4dc75aef-20" x="247.65" y="57.49" fill="#FF0000" class="color_Republican" stroke="#FFFFFF"/>
          <use xlink:href="#img-4dc75aef-20" x="253.59" y="72.29" fill="#FF0000" class="color_Republican" stroke="#FFFFFF"/>
          <use xlink:href="#img-4dc75aef-20" x="259.53" y="75.18" fill="#FF0000" class="color_Republican" stroke="#FFFFFF"/>
          <use xlink:href="#img-4dc75aef-20" x="265.47" y="66.55" fill="#FF0000" class="color_Republican" stroke="#FFFFFF"/>
          <use xlink:href="#img-4dc75aef-20" x="271.41" y="68" fill="#FF0000" class="color_Republican" stroke="#FFFFFF"/>
          <use xlink:href="#img-4dc75aef-20" x="277.35" y="84.05" fill="#FF0000" class="color_Republican" stroke="#FFFFFF"/>
          <use xlink:href="#img-4dc75aef-20" x="283.29" y="81.3" fill="#FF0000" class="color_Republican" stroke="#FFFFFF"/>
          <use xlink:href="#img-4dc75aef-20" x="289.23" y="79.33" fill="#FF0000" class="color_Republican" stroke="#FFFFFF"/>
          <use xlink:href="#img-4dc75aef-20" x="295.18" y="76.47" fill="#FF0000" class="color_Republican" stroke="#FFFFFF"/>
          <use xlink:href="#img-4dc75aef-20" x="301.12" y="83.16" fill="#FF0000" class="color_Republican" stroke="#FFFFFF"/>
          <use xlink:href="#img-4dc75aef-20" x="307.06" y="83.76" fill="#FF0000" class="color_Republican" stroke="#FFFFFF"/>
          <use xlink:href="#img-4dc75aef-20" x="33.76" y="69.41" fill="#0000FF" class="color_Democratic" stroke="#FFFFFF"/>
          <use xlink:href="#img-4dc75aef-20" x="39.7" y="69.16" fill="#0000FF" class="color_Democratic" stroke="#FFFFFF"/>
          <use xlink:href="#img-4dc75aef-20" x="45.64" y="73.01" fill="#0000FF" class="color_Democratic" stroke="#FFFFFF"/>
          <use xlink:href="#img-4dc75aef-20" x="51.58" y="73.12" fill="#0000FF" class="color_Democratic" stroke="#FFFFFF"/>
          <use xlink:href="#img-4dc75aef-20" x="57.52" y="71.62" fill="#0000FF" class="color_Democratic" stroke="#FFFFFF"/>
          <use xlink:href="#img-4dc75aef-20" x="63.46" y="71.51" fill="#0000FF" class="color_Democratic" stroke="#FFFFFF"/>
          <use xlink:href="#img-4dc75aef-20" x="69.41" y="65.75" fill="#0000FF" class="color_Democratic" stroke="#FFFFFF"/>
          <use xlink:href="#img-4dc75aef-20" x="75.35" y="74.29" fill="#0000FF" class="color_Democratic" stroke="#FFFFFF"/>
          <use xlink:href="#img-4dc75aef-20" x="81.29" y="114.27" fill="#0000FF" class="color_Democratic" stroke="#FFFFFF"/>
          <use xlink:href="#img-4dc75aef-20" x="87.23" y="74.42" fill="#0000FF" class="color_Democratic" stroke="#FFFFFF"/>
          <use xlink:href="#img-4dc75aef-20" x="93.17" y="51.33" fill="#0000FF" class="color_Democratic" stroke="#FFFFFF"/>
          <use xlink:href="#img-4dc75aef-20" x="99.11" y="68.79" fill="#0000FF" class="color_Democratic" stroke="#FFFFFF"/>
          <use xlink:href="#img-4dc75aef-20" x="105.05" y="62.89" fill="#0000FF" class="color_Democratic" stroke="#FFFFFF"/>
          <use xlink:href="#img-4dc75aef-20" x="111" y="64.58" fill="#0000FF" class="color_Democratic" stroke="#FFFFFF"/>
          <use xlink:href="#img-4dc75aef-20" x="116.94" y="67" fill="#0000FF" class="color_Democratic" stroke="#FFFFFF"/>
          <use xlink:href="#img-4dc75aef-20" x="122.88" y="68.8" fill="#0000FF" class="color_Democratic" stroke="#FFFFFF"/>
          <use xlink:href="#img-4dc75aef-20" x="128.82" y="65.64" fill="#0000FF" class="color_Democratic" stroke="#FFFFFF"/>
          <use xlink:href="#img-4dc75aef-20" x="134.76" y="77.83" fill="#0000FF" class="color_Democratic" stroke="#FFFFFF"/>
          <use xlink:href="#img-4dc75aef-20" x="140.7" y="73.06" fill="#0000FF" class="color_Democratic" stroke="#FFFFFF"/>
          <use xlink:href="#img-4dc75aef-20" x="146.64" y="70.38" fill="#0000FF" class="color_Democratic" stroke="#FFFFFF"/>
          <use xlink:href="#img-4dc75aef-20" x="152.58" y="70.61" fill="#0000FF" class="color_Democratic" stroke="#FFFFFF"/>
          <use xlink:href="#img-4dc75aef-20" x="158.53" y="70.63" fill="#0000FF" class="color_Democratic" stroke="#FFFFFF"/>
          <use xlink:href="#img-4dc75aef-20" x="164.47" y="66.25" fill="#0000FF" class="color_Democratic" stroke="#FFFFFF"/>
          <use xlink:href="#img-4dc75aef-20" x="170.41" y="77.27" fill="#0000FF" class="color_Democratic" stroke="#FFFFFF"/>
          <use xlink:href="#img-4dc75aef-20" x="176.35" y="78.18" fill="#0000FF" class="color_Democratic" stroke="#FFFFFF"/>
          <use xlink:href="#img-4dc75aef-20" x="182.29" y="77.1" fill="#0000FF" class="color_Democratic" stroke="#FFFFFF"/>
          <use xlink:href="#img-4dc75aef-20" x="188.23" y="57.23" fill="#0000FF" class="color_Democratic" stroke="#FFFFFF"/>
          <use xlink:href="#img-4dc75aef-20" x="194.17" y="56.36" fill="#0000FF" class="color_Democratic" stroke="#FFFFFF"/>
          <use xlink:href="#img-4dc75aef-20" x="200.11" y="60.6" fill="#0000FF" class="color_Democratic" stroke="#FFFFFF"/>
          <use xlink:href="#img-4dc75aef-20" x="206.06" y="67.23" fill="#0000FF" class="color_Democratic" stroke="#FFFFFF"/>
          <use xlink:href="#img-4dc75aef-20" x="212" y="71.21" fill="#0000FF" class="color_Democratic" stroke="#FFFFFF"/>
          <use xlink:href="#img-4dc75aef-20" x="217.94" y="75.55" fill="#0000FF" class="color_Democratic" stroke="#FFFFFF"/>
          <use xlink:href="#img-4dc75aef-20" x="223.88" y="79.55" fill="#0000FF" class="color_Democratic" stroke="#FFFFFF"/>
          <use xlink:href="#img-4dc75aef-20" x="229.82" y="65.41" fill="#0000FF" class="color_Democratic" stroke="#FFFFFF"/>
          <use xlink:href="#img-4dc75aef-20" x="235.76" y="53.13" fill="#0000FF" class="color_Democratic" stroke="#FFFFFF"/>
          <use xlink:href="#img-4dc75aef-20" x="241.7" y="75.79" fill="#0000FF" class="color_Democratic" stroke="#FFFFFF"/>
          <use xlink:href="#img-4dc75aef-20" x="247.65" y="82.25" fill="#0000FF" class="color_Democratic" stroke="#FFFFFF"/>
          <use xlink:href="#img-4dc75aef-20" x="253.59" y="66.01" fill="#0000FF" class="color_Democratic" stroke="#FFFFFF"/>
          <use xlink:href="#img-4dc75aef-20" x="259.53" y="72.11" fill="#0000FF" class="color_Democratic" stroke="#FFFFFF"/>
          <use xlink:href="#img-4dc75aef-20" x="265.47" y="72.24" fill="#0000FF" class="color_Democratic" stroke="#FFFFFF"/>
          <use xlink:href="#img-4dc75aef-20" x="271.41" y="71.02" fill="#0000FF" class="color_Democratic" stroke="#FFFFFF"/>
          <use xlink:href="#img-4dc75aef-20" x="277.35" y="69.36" fill="#0000FF" class="color_Democratic" stroke="#FFFFFF"/>
          <use xlink:href="#img-4dc75aef-20" x="283.29" y="64.74" fill="#0000FF" class="color_Democratic" stroke="#FFFFFF"/>
          <use xlink:href="#img-4dc75aef-20" x="289.23" y="62.35" fill="#0000FF" class="color_Democratic" stroke="#FFFFFF"/>
          <use xlink:href="#img-4dc75aef-20" x="295.18" y="63.02" fill="#0000FF" class="color_Democratic" stroke="#FFFFFF"/>
          <use xlink:href="#img-4dc75aef-20" x="301.12" y="56.8" fill="#0000FF" class="color_Democratic" stroke="#FFFFFF"/>
          <use xlink:href="#img-4dc75aef-20" x="307.06" y="56.74" fill="#0000FF" class="color_Democratic" stroke="#FFFFFF"/>
        </g>
      </g>
      <g stroke-width="0.53" fill="#000000" fill-opacity="0.000" stroke-dasharray="none" id="img-4dc75aef-21">
        <path fill="none" d="M33.76,69.41 L 39.7 69.16 45.64 73.01 51.58 73.12 57.52 71.62 63.46 71.51 69.41 65.75 75.35 74.29 81.29 114.27 87.23 74.42 93.17 51.33 99.11 68.79 105.05 62.89 111 64.58 116.94 67 122.88 68.8 128.82 65.64 134.76 77.83 140.7 73.06 146.64 70.38 152.58 70.61 158.53 70.63 164.47 66.25 170.41 77.27 176.35 78.18 182.29 77.1 188.23 57.23 194.17 56.36 200.11 60.6 206.06 67.23 212 71.21 217.94 75.55 223.88 79.55 229.82 65.41 235.76 53.13 241.7 75.79 247.65 82.25 253.59 66.01 259.53 72.11 265.47 72.24 271.41 71.02 277.35 69.36 283.29 64.74 289.23 62.35 295.18 63.02 301.12 56.8 307.06 56.74" class="geometry color_Democratic" stroke="#0000FF"/>
        <path fill="none" d="M81.29,118.38 L 87.23 63.88 93.17 86.97 99.11 69.51 105.05 75.41 111 73.72 116.94 73.19 122.88 71.84 128.82 75.9 134.76 64.25 140.7 67.6 146.64 70.36 152.58 70.35 158.53 96.41 164.47 74.56 170.41 63.86 176.35 74.03 182.29 61.84 188.23 83.61 194.17 82.58 200.11 78.65 206.06 71.07 212 69.77 217.94 63.59 223.88 58.75 229.82 72.89 235.76 85.18 241.7 77.5 247.65 57.49 253.59 72.29 259.53 75.18 265.47 66.55 271.41 68 277.35 84.05 283.29 81.3 289.23 79.33 295.18 76.47 301.12 83.16 307.06 83.76" class="geometry color_Republican" stroke="#FF0000"/>
      </g>
    </g>
  </g>
</g>
  <g class="guide ylabels" font-size="4.76" font-family="'PT Sans Caption','Helvetica Neue','Helvetica',sans-serif" fill="#6C606B" id="img-4dc75aef-22">
    <text x="24.82" y="120.95" text-anchor="end" dy="0.35em">0</text>
    <text x="24.82" y="95.05" text-anchor="end" dy="0.35em">25</text>
    <text x="24.82" y="69.15" text-anchor="end" dy="0.35em">50</text>
    <text x="24.82" y="43.25" text-anchor="end" dy="0.35em">75</text>
    <text x="24.82" y="17.35" text-anchor="end" dy="0.35em">100</text>
  </g>
  <g font-size="6.35" font-family="'PT Sans','Helvetica Neue','Helvetica',sans-serif" fill="#564A55" stroke="#000000" stroke-opacity="0.000" id="img-4dc75aef-23">
    <text x="10.18" y="67.15" text-anchor="middle" dy="0.35em" transform="rotate(-90, 10.18, 69.15)">Popular Vote (%)</text>
  </g>
  <g font-size="6.35" font-family="'PT Sans','Helvetica Neue','Helvetica',sans-serif" fill="#564A55" stroke="#000000" stroke-opacity="0.000" id="img-4dc75aef-24">
    <text x="170.41" y="13.35" text-anchor="middle">Maryland</text>
  </g>
</g>
<defs>
  <clipPath id="img-4dc75aef-12">
  <path d="M25.82,15.35 L 315 15.35 315 122.95 25.82 122.95" />
</clipPath>
  <g id="img-4dc75aef-20">
    <circle cx="0" cy="0" r="0.9"/>
  </g>
</defs>
</svg>
