<svg xmlns="http://www.w3.org/2000/svg" xmlns:xlink="http://www.w3.org/1999/xlink" version="1.2" width="238.1mm" height="599.924" viewBox="0 0 238.1 158.73" stroke-width=".3" font-size="3.88"><path d="M0 0h238.1v158.73H0z" stroke="#000" stroke-opacity="0" fill="#222831"/><g class="plotroot xscalable yscalable"><g class="guide colorkey"><g class="color_Democratic"><text x="51.52" y="148.78" dy=".35em" fill="#A1A1A1" font-size="3.7" font-family="'PT Sans','Helvetica Neue','Helvetica',sans-serif">Democratic</text><path d="M48.29 147.66h2.22v2.22h-2.22z" fill="#00F" stroke="#000" stroke-opacity="0"/></g><g class="color_Republican"><text x="29.6" y="148.78" dy=".35em" fill="#A1A1A1" font-size="3.7" font-family="'PT Sans','Helvetica Neue','Helvetica',sans-serif">Republican</text><path d="M26.38 147.66h2.22v2.22h-2.22z" fill="#F00" stroke="#000" stroke-opacity="0"/></g><text x="26.38" y="145.28" fill="#A1A1A1" font-size="6.35" font-family="'PT Sans','Helvetica Neue','Helvetica',sans-serif" stroke="#000" stroke-opacity="0">Party</text></g><text x="129.24" y="130.46" text-anchor="middle" dy=".6em" font-size="6.35" font-family="'PT Sans','Helvetica Neue','Helvetica',sans-serif" fill="#A1A1A1" stroke="#000" stroke-opacity="0">Year</text><g class="guide xlabels" font-size="4.76" font-family="'PT Sans Caption','Helvetica Neue','Helvetica',sans-serif" fill="#A1A1A1" text-anchor="middle"><text x="27.38" y="121.95" dy=".6em">1888</text><text x="40.11" y="121.95" dy=".6em">1896</text><text x="52.84" y="121.95" dy=".6em">1904</text><text x="65.58" y="121.95" dy=".6em">1912</text><text x="78.31" y="121.95" dy=".6em">1920</text><text x="91.04" y="121.95" dy=".6em">1928</text><text x="103.77" y="121.95" dy=".6em">1936</text><text x="116.51" y="121.95" dy=".6em">1944</text><text x="129.24" y="121.95" dy=".6em">1952</text><text x="141.97" y="121.95" dy=".6em">1960</text><text x="154.7" y="121.95" dy=".6em">1968</text><text x="167.43" y="121.95" dy=".6em">1976</text><text x="180.17" y="121.95" dy=".6em">1984</text><text x="192.9" y="121.95" dy=".6em">1992</text><text x="205.63" y="121.95" dy=".6em">2000</text><text x="218.36" y="121.95" dy=".6em">2008</text><text x="231.1" y="121.95" dy=".6em">2016</text></g><g clip-path="url(#a)"><path d="M25.38 12.91H233.1v108.04H25.38z" pointer-events="visible" fill="#222831" stroke="#000" stroke-opacity="0" class="guide background"/><g class="guide ygridlines xfixed" stroke-dasharray="0.5,0.5" stroke-width=".2" stroke="#575757" fill="none"><path d="M25.38 118.95H233.1M25.38 92.94H233.1M25.38 66.93H233.1M25.38 40.92H233.1M25.38 14.91H233.1"/></g><g class="guide xgridlines yfixed" stroke-dasharray="0.5,0.5" stroke-width=".2" stroke="#575757" fill="none"><path d="M27.38 12.91v108.04M40.11 12.91v108.04M52.84 12.91v108.04M65.58 12.91v108.04M78.31 12.91v108.04M91.04 12.91v108.04M103.77 12.91v108.04M116.51 12.91v108.04M129.24 12.91v108.04M141.97 12.91v108.04M154.7 12.91v108.04M167.43 12.91v108.04M180.17 12.91v108.04M192.9 12.91v108.04M205.63 12.91v108.04M218.36 12.91v108.04M231.1 12.91v108.04"/></g><g class="plotpanel"><g class="geometry"><use xlink:href="#b" x="33.75" y="74.79" stroke="#B3867B" fill="#F00" class="color_Republican"/><use xlink:href="#b" x="40.11" y="98.45" stroke="#B3867B" fill="#F00" class="color_Republican"/><use xlink:href="#b" x="46.48" y="77.55" stroke="#B3867B" fill="#F00" class="color_Republican"/><use xlink:href="#b" x="52.84" y="62.56" stroke="#B3867B" fill="#F00" class="color_Republican"/><use xlink:href="#b" x="59.21" y="70.07" stroke="#B3867B" fill="#F00" class="color_Republican"/><use xlink:href="#b" x="65.58" y="94.83" stroke="#B3867B" fill="#F00" class="color_Republican"/><use xlink:href="#b" x="71.94" y="79.87" stroke="#B3867B" fill="#F00" class="color_Republican"/><use xlink:href="#b" x="78.31" y="55.35" stroke="#B3867B" fill="#F00" class="color_Republican"/><use xlink:href="#b" x="84.67" y="74.73" stroke="#B3867B" fill="#F00" class="color_Republican"/><use xlink:href="#b" x="91.04" y="58.22" stroke="#B3867B" fill="#F00" class="color_Republican"/><use xlink:href="#b" x="97.41" y="81.43" stroke="#B3867B" fill="#F00" class="color_Republican"/><use xlink:href="#b" x="103.77" y="90.25" stroke="#B3867B" fill="#F00" class="color_Republican"/><use xlink:href="#b" x="110.14" y="77.16" stroke="#B3867B" fill="#F00" class="color_Republican"/><use xlink:href="#b" x="116.51" y="72.21" stroke="#B3867B" fill="#F00" class="color_Republican"/><use xlink:href="#b" x="122.87" y="74.06" stroke="#B3867B" fill="#F00" class="color_Republican"/><use xlink:href="#b" x="129.24" y="57.17" stroke="#B3867B" fill="#F00" class="color_Republican"/><use xlink:href="#b" x="135.6" y="59.51" stroke="#B3867B" fill="#F00" class="color_Republican"/><use xlink:href="#b" x="141.97" y="65.79" stroke="#B3867B" fill="#F00" class="color_Republican"/><use xlink:href="#b" x="148.34" y="76.75" stroke="#B3867B" fill="#F00" class="color_Republican"/><use xlink:href="#b" x="154.7" y="66.31" stroke="#B3867B" fill="#F00" class="color_Republican"/><use xlink:href="#b" x="161.07" y="58.68" stroke="#B3867B" fill="#F00" class="color_Republican"/><use xlink:href="#b" x="167.43" y="63.98" stroke="#B3867B" fill="#F00" class="color_Republican"/><use xlink:href="#b" x="173.8" y="59.83" stroke="#B3867B" fill="#F00" class="color_Republican"/><use xlink:href="#b" x="180.17" y="56.03" stroke="#B3867B" fill="#F00" class="color_Republican"/><use xlink:href="#b" x="186.53" y="64.78" stroke="#B3867B" fill="#F00" class="color_Republican"/><use xlink:href="#b" x="192.9" y="82.41" stroke="#B3867B" fill="#F00" class="color_Republican"/><use xlink:href="#b" x="199.26" y="73.06" stroke="#B3867B" fill="#F00" class="color_Republican"/><use xlink:href="#b" x="205.63" y="58.15" stroke="#B3867B" fill="#F00" class="color_Republican"/><use xlink:href="#b" x="212" y="57.5" stroke="#B3867B" fill="#F00" class="color_Republican"/><use xlink:href="#b" x="218.36" y="67.46" stroke="#B3867B" fill="#F00" class="color_Republican"/><use xlink:href="#b" x="224.73" y="61.42" stroke="#B3867B" fill="#F00" class="color_Republican"/><use xlink:href="#b" x="33.75" y="77.56" stroke="#988BAD" fill="#00F" class="color_Democratic"/><use xlink:href="#b" x="40.11" y="35.79" stroke="#988BAD" fill="#00F" class="color_Democratic"/><use xlink:href="#b" x="46.48" y="58.16" stroke="#988BAD" fill="#00F" class="color_Democratic"/><use xlink:href="#b" x="52.84" y="83.8" stroke="#988BAD" fill="#00F" class="color_Democratic"/><use xlink:href="#b" x="59.21" y="74.62" stroke="#988BAD" fill="#00F" class="color_Democratic"/><use xlink:href="#b" x="65.58" y="82.54" stroke="#988BAD" fill="#00F" class="color_Democratic"/><use xlink:href="#b" x="71.94" y="59.77" stroke="#988BAD" fill="#00F" class="color_Democratic"/><use xlink:href="#b" x="78.31" y="85.61" stroke="#988BAD" fill="#00F" class="color_Democratic"/><use xlink:href="#b" x="84.67" y="98.79" stroke="#988BAD" fill="#00F" class="color_Democratic"/><use xlink:href="#b" x="91.04" y="76.83" stroke="#988BAD" fill="#00F" class="color_Democratic"/><use xlink:href="#b" x="97.41" y="57.78" stroke="#988BAD" fill="#00F" class="color_Democratic"/><use xlink:href="#b" x="103.77" y="46.88" stroke="#988BAD" fill="#00F" class="color_Democratic"/><use xlink:href="#b" x="110.14" y="57.8" stroke="#988BAD" fill="#00F" class="color_Democratic"/><use xlink:href="#b" x="116.51" y="62.48" stroke="#988BAD" fill="#00F" class="color_Democratic"/><use xlink:href="#b" x="122.87" y="63.72" stroke="#988BAD" fill="#00F" class="color_Democratic"/><use xlink:href="#b" x="129.24" y="77.26" stroke="#988BAD" fill="#00F" class="color_Democratic"/><use xlink:href="#b" x="135.6" y="74.35" stroke="#988BAD" fill="#00F" class="color_Democratic"/><use xlink:href="#b" x="141.97" y="68.39" stroke="#988BAD" fill="#00F" class="color_Democratic"/><use xlink:href="#b" x="148.34" y="57.62" stroke="#988BAD" fill="#00F" class="color_Democratic"/><use xlink:href="#b" x="154.7" y="75.68" stroke="#988BAD" fill="#00F" class="color_Democratic"/><use xlink:href="#b" x="161.07" y="79.58" stroke="#988BAD" fill="#00F" class="color_Democratic"/><use xlink:href="#b" x="167.43" y="71.71" stroke="#988BAD" fill="#00F" class="color_Democratic"/><use xlink:href="#b" x="173.8" y="85.21" stroke="#988BAD" fill="#00F" class="color_Democratic"/><use xlink:href="#b" x="180.17" y="79.23" stroke="#988BAD" fill="#00F" class="color_Democratic"/><use xlink:href="#b" x="186.53" y="70.89" stroke="#988BAD" fill="#00F" class="color_Democratic"/><use xlink:href="#b" x="192.9" y="79.8" stroke="#988BAD" fill="#00F" class="color_Democratic"/><use xlink:href="#b" x="199.26" y="76.05" stroke="#988BAD" fill="#00F" class="color_Democratic"/><use xlink:href="#b" x="205.63" y="84.24" stroke="#988BAD" fill="#00F" class="color_Democratic"/><use xlink:href="#b" x="212" y="78.83" stroke="#988BAD" fill="#00F" class="color_Democratic"/><use xlink:href="#b" x="218.36" y="69.93" stroke="#988BAD" fill="#00F" class="color_Democratic"/><use xlink:href="#b" x="224.73" y="75.61" stroke="#988BAD" fill="#00F" class="color_Democratic"/></g><g fill-opacity="0"><path fill="none" d="M33.75 77.56l6.36-41.77 6.37 22.37 6.36 25.64 6.37-9.18 6.37 7.92 6.36-22.77 6.37 25.84 6.36 13.18 6.37-21.96 6.37-19.05 6.36-10.9 6.37 10.92 6.37 4.68 6.36 1.24 6.37 13.54 6.36-2.91 6.37-5.96 6.37-10.77 6.36 18.06 6.37 3.9 6.36-7.87 6.37 13.5 6.37-5.98 6.36-8.34 6.37 8.91 6.36-3.75 6.37 8.19 6.37-5.41 6.36-8.9 6.37 5.68" stroke="#00F" class="geometry color_Democratic"/><path fill="none" d="M33.75 74.79l6.36 23.66 6.37-20.9 6.36-14.99 6.37 7.51 6.37 24.76 6.36-14.96 6.37-24.52 6.36 19.38 6.37-16.51 6.37 23.21 6.36 8.82 6.37-13.09 6.37-4.95 6.36 1.85 6.37-16.89 6.36 2.34 6.37 6.28 6.37 10.96 6.36-10.44 6.37-7.63 6.36 5.3 6.37-4.15 6.37-3.8 6.36 8.75 6.37 17.63 6.36-9.35 6.37-14.91 6.37-.65 6.36 9.96 6.37-6.04" stroke="#F00" class="geometry color_Republican"/></g></g></g><g class="guide ylabels" font-size="4.76" font-family="'PT Sans Caption','Helvetica Neue','Helvetica',sans-serif" fill="#A1A1A1" text-anchor="end"><text x="24.38" y="118.95" dy=".35em">0</text><text x="24.38" y="92.94" dy=".35em">25</text><text x="24.38" y="66.93" dy=".35em">50</text><text x="24.38" y="40.92" dy=".35em">75</text><text x="24.38" y="14.91" dy=".35em">100</text></g><text x="9.95" y="64.93" text-anchor="middle" dy=".35em" transform="rotate(-90 9.95 66.93)" font-size="6.35" font-family="'PT Sans','Helvetica Neue','Helvetica',sans-serif" fill="#A1A1A1" stroke="#000" stroke-opacity="0">Popular Vote (%)</text><text x="129.24" y="5" text-anchor="middle" dy=".6em" font-size="6.35" font-family="'PT Sans','Helvetica Neue','Helvetica',sans-serif" fill="#A1A1A1" stroke="#000" stroke-opacity="0">Montana</text></g><defs><clipPath id="a"><path d="M25.38 12.91H233.1v108.04H25.38"/></clipPath><circle r=".9" id="b"/></defs></svg>