<svg xmlns="http://www.w3.org/2000/svg" xmlns:xlink="http://www.w3.org/1999/xlink" version="1.2" width="238.1mm" height="599.924" viewBox="0 0 238.1 158.73" stroke-width=".3" font-size="3.88"><path d="M0 0h238.1v158.73H0z" stroke="#000" stroke-opacity="0" fill="#222831"/><g class="plotroot xscalable yscalable"><g class="guide colorkey"><g class="color_Democratic"><text x="51.52" y="148.78" dy=".35em" fill="#A1A1A1" font-size="3.7" font-family="'PT Sans','Helvetica Neue','Helvetica',sans-serif">Democratic</text><path d="M48.29 147.66h2.22v2.22h-2.22z" fill="#00F" stroke="#000" stroke-opacity="0"/></g><g class="color_Republican"><text x="29.6" y="148.78" dy=".35em" fill="#A1A1A1" font-size="3.7" font-family="'PT Sans','Helvetica Neue','Helvetica',sans-serif">Republican</text><path d="M26.38 147.66h2.22v2.22h-2.22z" fill="#F00" stroke="#000" stroke-opacity="0"/></g><text x="26.38" y="145.28" fill="#A1A1A1" font-size="6.35" font-family="'PT Sans','Helvetica Neue','Helvetica',sans-serif" stroke="#000" stroke-opacity="0">Party</text></g><text x="129.24" y="130.46" text-anchor="middle" dy=".6em" font-size="6.35" font-family="'PT Sans','Helvetica Neue','Helvetica',sans-serif" fill="#A1A1A1" stroke="#000" stroke-opacity="0">Year</text><g class="guide xlabels" font-size="4.76" font-family="'PT Sans Caption','Helvetica Neue','Helvetica',sans-serif" fill="#A1A1A1" text-anchor="middle"><text x="27.38" y="121.95" dy=".6em">1856</text><text x="42.66" y="121.95" dy=".6em">1868</text><text x="57.94" y="121.95" dy=".6em">1880</text><text x="73.22" y="121.95" dy=".6em">1892</text><text x="88.49" y="121.95" dy=".6em">1904</text><text x="103.77" y="121.95" dy=".6em">1916</text><text x="119.05" y="121.95" dy=".6em">1928</text><text x="134.33" y="121.95" dy=".6em">1940</text><text x="149.61" y="121.95" dy=".6em">1952</text><text x="164.89" y="121.95" dy=".6em">1964</text><text x="180.17" y="121.95" dy=".6em">1976</text><text x="195.44" y="121.95" dy=".6em">1988</text><text x="210.72" y="121.95" dy=".6em">2000</text><text x="226" y="121.95" dy=".6em">2012</text></g><g clip-path="url(#a)"><path d="M25.38 12.91H233.1v108.04H25.38z" pointer-events="visible" fill="#222831" stroke="#000" stroke-opacity="0" class="guide background"/><g class="guide ygridlines xfixed" stroke-dasharray="0.5,0.5" stroke-width=".2" stroke="#575757" fill="none"><path d="M25.38 118.95H233.1M25.38 92.94H233.1M25.38 66.93H233.1M25.38 40.92H233.1M25.38 14.91H233.1"/></g><g class="guide xgridlines yfixed" stroke-dasharray="0.5,0.5" stroke-width=".2" stroke="#575757" fill="none"><path d="M27.38 12.91v108.04M42.66 12.91v108.04M57.94 12.91v108.04M73.22 12.91v108.04M88.49 12.91v108.04M103.77 12.91v108.04M119.05 12.91v108.04M134.33 12.91v108.04M149.61 12.91v108.04M164.89 12.91v108.04M180.17 12.91v108.04M195.44 12.91v108.04M210.72 12.91v108.04M226 12.91v108.04"/></g><g class="plotpanel"><g class="geometry"><use xlink:href="#b" x="32.47" y="52.85" stroke="#B3867B" fill="#F00" class="color_Republican"/><use xlink:href="#b" x="37.57" y="57.5" stroke="#B3867B" fill="#F00" class="color_Republican"/><use xlink:href="#b" x="42.66" y="55.61" stroke="#B3867B" fill="#F00" class="color_Republican"/><use xlink:href="#b" x="47.75" y="55.2" stroke="#B3867B" fill="#F00" class="color_Republican"/><use xlink:href="#b" x="52.84" y="57.78" stroke="#B3867B" fill="#F00" class="color_Republican"/><use xlink:href="#b" x="57.94" y="54.15" stroke="#B3867B" fill="#F00" class="color_Republican"/><use xlink:href="#b" x="63.03" y="57.8" stroke="#B3867B" fill="#F00" class="color_Republican"/><use xlink:href="#b" x="68.12" y="62.64" stroke="#B3867B" fill="#F00" class="color_Republican"/><use xlink:href="#b" x="73.22" y="71.13" stroke="#B3867B" fill="#F00" class="color_Republican"/><use xlink:href="#b" x="78.31" y="60.04" stroke="#B3867B" fill="#F00" class="color_Republican"/><use xlink:href="#b" x="83.4" y="56.31" stroke="#B3867B" fill="#F00" class="color_Republican"/><use xlink:href="#b" x="88.49" y="41.98" stroke="#B3867B" fill="#F00" class="color_Republican"/><use xlink:href="#b" x="93.59" y="57.45" stroke="#B3867B" fill="#F00" class="color_Republican"/><use xlink:href="#b" x="98.68" y="98.93" stroke="#B3867B" fill="#F00" class="color_Republican"/><use xlink:href="#b" x="103.77" y="70.73" stroke="#B3867B" fill="#F00" class="color_Republican"/><use xlink:href="#b" x="108.87" y="45.51" stroke="#B3867B" fill="#F00" class="color_Republican"/><use xlink:href="#b" x="113.96" y="65.71" stroke="#B3867B" fill="#F00" class="color_Republican"/><use xlink:href="#b" x="119.05" y="58.84" stroke="#B3867B" fill="#F00" class="color_Republican"/><use xlink:href="#b" x="124.14" y="81.19" stroke="#B3867B" fill="#F00" class="color_Republican"/><use xlink:href="#b" x="129.24" y="86.68" stroke="#B3867B" fill="#F00" class="color_Republican"/><use xlink:href="#b" x="134.33" y="69.37" stroke="#B3867B" fill="#F00" class="color_Republican"/><use xlink:href="#b" x="139.42" y="70.2" stroke="#B3867B" fill="#F00" class="color_Republican"/><use xlink:href="#b" x="144.52" y="77.45" stroke="#B3867B" fill="#F00" class="color_Republican"/><use xlink:href="#b" x="149.61" y="61.39" stroke="#B3867B" fill="#F00" class="color_Republican"/><use xlink:href="#b" x="154.7" y="63.1" stroke="#B3867B" fill="#F00" class="color_Republican"/><use xlink:href="#b" x="159.79" y="67.81" stroke="#B3867B" fill="#F00" class="color_Republican"/><use xlink:href="#b" x="164.89" y="81.5" stroke="#B3867B" fill="#F00" class="color_Republican"/><use xlink:href="#b" x="169.98" y="75.81" stroke="#B3867B" fill="#F00" class="color_Republican"/><use xlink:href="#b" x="175.07" y="65.29" stroke="#B3867B" fill="#F00" class="color_Republican"/><use xlink:href="#b" x="180.17" y="75.23" stroke="#B3867B" fill="#F00" class="color_Republican"/><use xlink:href="#b" x="185.26" y="74.68" stroke="#B3867B" fill="#F00" class="color_Republican"/><use xlink:href="#b" x="190.35" y="67.41" stroke="#B3867B" fill="#F00" class="color_Republican"/><use xlink:href="#b" x="195.44" y="71.2" stroke="#B3867B" fill="#F00" class="color_Republican"/><use xlink:href="#b" x="200.54" y="85.81" stroke="#B3867B" fill="#F00" class="color_Republican"/><use xlink:href="#b" x="205.63" y="82.58" stroke="#B3867B" fill="#F00" class="color_Republican"/><use xlink:href="#b" x="210.72" y="71.61" stroke="#B3867B" fill="#F00" class="color_Republican"/><use xlink:href="#b" x="215.82" y="69.41" stroke="#B3867B" fill="#F00" class="color_Republican"/><use xlink:href="#b" x="220.91" y="73.36" stroke="#B3867B" fill="#F00" class="color_Republican"/><use xlink:href="#b" x="226" y="72.18" stroke="#B3867B" fill="#F00" class="color_Republican"/><use xlink:href="#b" x="32.47" y="83.25" stroke="#988BAD" fill="#00F" class="color_Democratic"/><use xlink:href="#b" x="37.57" y="76.36" stroke="#988BAD" fill="#00F" class="color_Democratic"/><use xlink:href="#b" x="42.66" y="78.25" stroke="#988BAD" fill="#00F" class="color_Democratic"/><use xlink:href="#b" x="47.75" y="78.66" stroke="#988BAD" fill="#00F" class="color_Democratic"/><use xlink:href="#b" x="52.84" y="78.21" stroke="#988BAD" fill="#00F" class="color_Democratic"/><use xlink:href="#b" x="57.94" y="82.16" stroke="#988BAD" fill="#00F" class="color_Democratic"/><use xlink:href="#b" x="63.03" y="80.59" stroke="#988BAD" fill="#00F" class="color_Democratic"/><use xlink:href="#b" x="68.12" y="77.7" stroke="#988BAD" fill="#00F" class="color_Democratic"/><use xlink:href="#b" x="73.22" y="79.66" stroke="#988BAD" fill="#00F" class="color_Democratic"/><use xlink:href="#b" x="78.31" y="76.41" stroke="#988BAD" fill="#00F" class="color_Democratic"/><use xlink:href="#b" x="83.4" y="81.82" stroke="#988BAD" fill="#00F" class="color_Democratic"/><use xlink:href="#b" x="88.49" y="99.35" stroke="#988BAD" fill="#00F" class="color_Democratic"/><use xlink:href="#b" x="93.59" y="84.6" stroke="#988BAD" fill="#00F" class="color_Democratic"/><use xlink:href="#b" x="98.68" y="85.82" stroke="#988BAD" fill="#00F" class="color_Democratic"/><use xlink:href="#b" x="103.77" y="70.83" stroke="#988BAD" fill="#00F" class="color_Democratic"/><use xlink:href="#b" x="108.87" y="98.74" stroke="#988BAD" fill="#00F" class="color_Democratic"/><use xlink:href="#b" x="113.96" y="111.88" stroke="#988BAD" fill="#00F" class="color_Democratic"/><use xlink:href="#b" x="119.05" y="76.47" stroke="#988BAD" fill="#00F" class="color_Democratic"/><use xlink:href="#b" x="124.14" y="56.62" stroke="#988BAD" fill="#00F" class="color_Democratic"/><use xlink:href="#b" x="129.24" y="54.61" stroke="#988BAD" fill="#00F" class="color_Democratic"/><use xlink:href="#b" x="134.33" y="65.38" stroke="#988BAD" fill="#00F" class="color_Democratic"/><use xlink:href="#b" x="139.42" y="64.43" stroke="#988BAD" fill="#00F" class="color_Democratic"/><use xlink:href="#b" x="144.52" y="59.48" stroke="#988BAD" fill="#00F" class="color_Democratic"/><use xlink:href="#b" x="149.61" y="73.06" stroke="#988BAD" fill="#00F" class="color_Democratic"/><use xlink:href="#b" x="154.7" y="71.01" stroke="#988BAD" fill="#00F" class="color_Democratic"/><use xlink:href="#b" x="159.79" y="66.32" stroke="#988BAD" fill="#00F" class="color_Democratic"/><use xlink:href="#b" x="164.89" y="52.62" stroke="#988BAD" fill="#00F" class="color_Democratic"/><use xlink:href="#b" x="169.98" y="62.77" stroke="#988BAD" fill="#00F" class="color_Democratic"/><use xlink:href="#b" x="175.07" y="71.02" stroke="#988BAD" fill="#00F" class="color_Democratic"/><use xlink:href="#b" x="180.17" y="61.84" stroke="#988BAD" fill="#00F" class="color_Democratic"/><use xlink:href="#b" x="185.26" y="70.57" stroke="#988BAD" fill="#00F" class="color_Democratic"/><use xlink:href="#b" x="190.35" y="67.22" stroke="#988BAD" fill="#00F" class="color_Democratic"/><use xlink:href="#b" x="195.44" y="63.9" stroke="#988BAD" fill="#00F" class="color_Democratic"/><use xlink:href="#b" x="200.54" y="73.71" stroke="#988BAD" fill="#00F" class="color_Democratic"/><use xlink:href="#b" x="205.63" y="65.79" stroke="#988BAD" fill="#00F" class="color_Democratic"/><use xlink:href="#b" x="210.72" y="69.11" stroke="#988BAD" fill="#00F" class="color_Democratic"/><use xlink:href="#b" x="215.82" y="65.8" stroke="#988BAD" fill="#00F" class="color_Democratic"/><use xlink:href="#b" x="220.91" y="62.71" stroke="#988BAD" fill="#00F" class="color_Democratic"/><use xlink:href="#b" x="226" y="64.17" stroke="#988BAD" fill="#00F" class="color_Democratic"/></g><g fill-opacity="0"><path fill="none" d="M32.47 83.25l5.1-6.89 5.09 1.89 5.09.41 5.09-.45 5.1 3.95 5.09-1.57 5.09-2.89 5.1 1.96 5.09-3.25 5.09 5.41 5.09 17.53 5.1-14.75 5.09 1.22 5.09-14.99 5.1 27.91 5.09 13.14 5.09-35.41 5.09-19.85 5.1-2.01 5.09 10.77 5.09-.95 5.1-4.95 5.09 13.58 5.09-2.05 5.09-4.69 5.1-13.7 5.09 10.15 5.09 8.25 5.1-9.18 5.09 8.73 5.09-3.35 5.09-3.32 5.1 9.81 5.09-7.92 5.09 3.32 5.1-3.31 5.09-3.09 5.09 1.46" stroke="#00F" class="geometry color_Democratic"/><path fill="none" d="M32.47 52.85l5.1 4.65 5.09-1.89 5.09-.41 5.09 2.58 5.1-3.63 5.09 3.65 5.09 4.84 5.1 8.49 5.09-11.09 5.09-3.73 5.09-14.33 5.1 15.47 5.09 41.48 5.09-28.2 5.1-25.22 5.09 20.2 5.09-6.87 5.09 22.35 5.1 5.49 5.09-17.31 5.09.83 5.1 7.25 5.09-16.06 5.09 1.71 5.09 4.71 5.1 13.69 5.09-5.69 5.09-10.52 5.1 9.94 5.09-.55 5.09-7.27 5.09 3.79 5.1 14.61 5.09-3.23 5.09-10.97 5.1-2.2 5.09 3.95 5.09-1.18" stroke="#F00" class="geometry color_Republican"/></g></g></g><g class="guide ylabels" font-size="4.76" font-family="'PT Sans Caption','Helvetica Neue','Helvetica',sans-serif" fill="#A1A1A1" text-anchor="end"><text x="24.38" y="118.95" dy=".35em">0</text><text x="24.38" y="92.94" dy=".35em">25</text><text x="24.38" y="66.93" dy=".35em">50</text><text x="24.38" y="40.92" dy=".35em">75</text><text x="24.38" y="14.91" dy=".35em">100</text></g><text x="9.95" y="64.93" text-anchor="middle" dy=".35em" transform="rotate(-90 9.95 66.93)" font-size="6.35" font-family="'PT Sans','Helvetica Neue','Helvetica',sans-serif" fill="#A1A1A1" stroke="#000" stroke-opacity="0">Popular Vote (%)</text><text x="129.24" y="5" text-anchor="middle" dy=".6em" font-size="6.35" font-family="'PT Sans','Helvetica Neue','Helvetica',sans-serif" fill="#A1A1A1" stroke="#000" stroke-opacity="0">Minnesota</text></g><defs><clipPath id="a"><path d="M25.38 12.91H233.1v108.04H25.38"/></clipPath><circle r=".9" id="b"/></defs></svg>