<?xml version="1.0" encoding="UTF-8"?>
<svg xmlns="http://www.w3.org/2000/svg"
     xmlns:xlink="http://www.w3.org/1999/xlink"
     xmlns:gadfly="http://www.gadflyjl.org/ns"
     version="1.2"
     width="238.1mm" height="158.73mm" viewBox="0 0 238.1 158.73"
     stroke="none"
     fill="#000000"
     stroke-width="0.3"
     font-size="3.88"
>
<g stroke="#000000" stroke-opacity="0.000" fill="#222831" id="img-6bf6cd0d-1">
  <rect x="0" y="0" width="238.1" height="158.73"/>
</g>
<g class="plotroot xscalable yscalable" id="img-6bf6cd0d-2">
  <g class="guide colorkey" id="img-6bf6cd0d-3">
    <g class="color_Democratic" id="img-6bf6cd0d-4">
      <g fill="#A1A1A1" font-size="3.7" font-family="'PT Sans','Helvetica Neue','Helvetica',sans-serif" id="img-6bf6cd0d-5">
        <text x="51.52" y="148.78" dy="0.35em">Democratic</text>
      </g>
      <g fill="#0000FF" stroke="#000000" stroke-opacity="0.000" id="img-6bf6cd0d-6">
        <rect x="48.29" y="147.66" width="2.22" height="2.22"/>
      </g>
    </g>
    <g class="color_Republican" id="img-6bf6cd0d-7">
      <g fill="#A1A1A1" font-size="3.7" font-family="'PT Sans','Helvetica Neue','Helvetica',sans-serif" id="img-6bf6cd0d-8">
        <text x="29.6" y="148.78" dy="0.35em">Republican</text>
      </g>
      <g fill="#FF0000" stroke="#000000" stroke-opacity="0.000" id="img-6bf6cd0d-9">
        <rect x="26.38" y="147.66" width="2.22" height="2.22"/>
      </g>
    </g>
    <g fill="#A1A1A1" font-size="6.35" font-family="'PT Sans','Helvetica Neue','Helvetica',sans-serif" stroke="#000000" stroke-opacity="0.000" id="img-6bf6cd0d-10">
      <text x="26.38" y="145.28">Party</text>
    </g>
  </g>
  <g font-size="6.35" font-family="'PT Sans','Helvetica Neue','Helvetica',sans-serif" fill="#A1A1A1" stroke="#000000" stroke-opacity="0.000" id="img-6bf6cd0d-11">
    <text x="129.24" y="130.46" text-anchor="middle" dy="0.6em">Year</text>
  </g>
  <g class="guide xlabels" font-size="4.76" font-family="'PT Sans Caption','Helvetica Neue','Helvetica',sans-serif" fill="#A1A1A1" id="img-6bf6cd0d-12">
    <text x="27.38" y="121.95" text-anchor="middle" dy="0.6em">1824</text>
    <text x="40.11" y="121.95" text-anchor="middle" dy="0.6em">1836</text>
    <text x="52.84" y="121.95" text-anchor="middle" dy="0.6em">1848</text>
    <text x="65.58" y="121.95" text-anchor="middle" dy="0.6em">1860</text>
    <text x="78.31" y="121.95" text-anchor="middle" dy="0.6em">1872</text>
    <text x="91.04" y="121.95" text-anchor="middle" dy="0.6em">1884</text>
    <text x="103.77" y="121.95" text-anchor="middle" dy="0.6em">1896</text>
    <text x="116.51" y="121.95" text-anchor="middle" dy="0.6em">1908</text>
    <text x="129.24" y="121.95" text-anchor="middle" dy="0.6em">1920</text>
    <text x="141.97" y="121.95" text-anchor="middle" dy="0.6em">1932</text>
    <text x="154.7" y="121.95" text-anchor="middle" dy="0.6em">1944</text>
    <text x="167.43" y="121.95" text-anchor="middle" dy="0.6em">1956</text>
    <text x="180.17" y="121.95" text-anchor="middle" dy="0.6em">1968</text>
    <text x="192.9" y="121.95" text-anchor="middle" dy="0.6em">1980</text>
    <text x="205.63" y="121.95" text-anchor="middle" dy="0.6em">1992</text>
    <text x="218.36" y="121.95" text-anchor="middle" dy="0.6em">2004</text>
    <text x="231.1" y="121.95" text-anchor="middle" dy="0.6em">2016</text>
  </g>
<g clip-path="url(#img-6bf6cd0d-13)">
  <g id="img-6bf6cd0d-14">
    <g pointer-events="visible" opacity="1" fill="#222831" stroke="#000000" stroke-opacity="0.000" class="guide background" id="img-6bf6cd0d-15">
      <rect x="25.38" y="12.91" width="207.72" height="108.04"/>
    </g>
    <g class="guide ygridlines xfixed" stroke-dasharray="0.5,0.5" stroke-width="0.2" stroke="#575757" id="img-6bf6cd0d-16">
      <path fill="none" d="M25.38,118.95 L 233.1 118.95"/>
      <path fill="none" d="M25.38,92.94 L 233.1 92.94"/>
      <path fill="none" d="M25.38,66.93 L 233.1 66.93"/>
      <path fill="none" d="M25.38,40.92 L 233.1 40.92"/>
      <path fill="none" d="M25.38,14.91 L 233.1 14.91"/>
    </g>
    <g class="guide xgridlines yfixed" stroke-dasharray="0.5,0.5" stroke-width="0.2" stroke="#575757" id="img-6bf6cd0d-17">
      <path fill="none" d="M27.38,12.91 L 27.38 120.95"/>
      <path fill="none" d="M40.11,12.91 L 40.11 120.95"/>
      <path fill="none" d="M52.84,12.91 L 52.84 120.95"/>
      <path fill="none" d="M65.58,12.91 L 65.58 120.95"/>
      <path fill="none" d="M78.31,12.91 L 78.31 120.95"/>
      <path fill="none" d="M91.04,12.91 L 91.04 120.95"/>
      <path fill="none" d="M103.77,12.91 L 103.77 120.95"/>
      <path fill="none" d="M116.51,12.91 L 116.51 120.95"/>
      <path fill="none" d="M129.24,12.91 L 129.24 120.95"/>
      <path fill="none" d="M141.97,12.91 L 141.97 120.95"/>
      <path fill="none" d="M154.7,12.91 L 154.7 120.95"/>
      <path fill="none" d="M167.43,12.91 L 167.43 120.95"/>
      <path fill="none" d="M180.17,12.91 L 180.17 120.95"/>
      <path fill="none" d="M192.9,12.91 L 192.9 120.95"/>
      <path fill="none" d="M205.63,12.91 L 205.63 120.95"/>
      <path fill="none" d="M218.36,12.91 L 218.36 120.95"/>
      <path fill="none" d="M231.1,12.91 L 231.1 120.95"/>
    </g>
    <g class="plotpanel" id="img-6bf6cd0d-18">
      <g class="geometry" id="img-6bf6cd0d-19">
        <g stroke-width="0.3" id="img-6bf6cd0d-20">
          <use xlink:href="#img-6bf6cd0d-21" x="65.58" y="53.61" stroke="#B3867B" fill="#FF0000" class="color_Republican"/>
          <use xlink:href="#img-6bf6cd0d-21" x="69.82" y="43.81" stroke="#B3867B" fill="#FF0000" class="color_Republican"/>
          <use xlink:href="#img-6bf6cd0d-21" x="74.06" y="46.38" stroke="#B3867B" fill="#FF0000" class="color_Republican"/>
          <use xlink:href="#img-6bf6cd0d-21" x="78.31" y="46.96" stroke="#B3867B" fill="#FF0000" class="color_Republican"/>
          <use xlink:href="#img-6bf6cd0d-21" x="82.55" y="58.81" stroke="#B3867B" fill="#FF0000" class="color_Republican"/>
          <use xlink:href="#img-6bf6cd0d-21" x="86.8" y="58.06" stroke="#B3867B" fill="#FF0000" class="color_Republican"/>
          <use xlink:href="#img-6bf6cd0d-21" x="91.04" y="68.64" stroke="#B3867B" fill="#FF0000" class="color_Republican"/>
          <use xlink:href="#img-6bf6cd0d-21" x="95.28" y="63.37" stroke="#B3867B" fill="#FF0000" class="color_Republican"/>
          <use xlink:href="#img-6bf6cd0d-21" x="99.53" y="64.99" stroke="#B3867B" fill="#FF0000" class="color_Republican"/>
          <use xlink:href="#img-6bf6cd0d-21" x="103.77" y="46.67" stroke="#B3867B" fill="#FF0000" class="color_Republican"/>
          <use xlink:href="#img-6bf6cd0d-21" x="108.02" y="59.04" stroke="#B3867B" fill="#FF0000" class="color_Republican"/>
          <use xlink:href="#img-6bf6cd0d-21" x="112.26" y="58.69" stroke="#B3867B" fill="#FF0000" class="color_Republican"/>
          <use xlink:href="#img-6bf6cd0d-21" x="116.51" y="58.39" stroke="#B3867B" fill="#FF0000" class="color_Republican"/>
          <use xlink:href="#img-6bf6cd0d-21" x="120.75" y="85.71" stroke="#B3867B" fill="#FF0000" class="color_Republican"/>
          <use xlink:href="#img-6bf6cd0d-21" x="124.99" y="66.37" stroke="#B3867B" fill="#FF0000" class="color_Republican"/>
          <use xlink:href="#img-6bf6cd0d-21" x="129.24" y="47.64" stroke="#B3867B" fill="#FF0000" class="color_Republican"/>
          <use xlink:href="#img-6bf6cd0d-21" x="133.48" y="54.17" stroke="#B3867B" fill="#FF0000" class="color_Republican"/>
          <use xlink:href="#img-6bf6cd0d-21" x="137.73" y="67.81" stroke="#B3867B" fill="#FF0000" class="color_Republican"/>
          <use xlink:href="#img-6bf6cd0d-21" x="141.97" y="70.43" stroke="#B3867B" fill="#FF0000" class="color_Republican"/>
          <use xlink:href="#img-6bf6cd0d-21" x="146.21" y="75.5" stroke="#B3867B" fill="#FF0000" class="color_Republican"/>
          <use xlink:href="#img-6bf6cd0d-21" x="150.46" y="70.72" stroke="#B3867B" fill="#FF0000" class="color_Republican"/>
          <use xlink:href="#img-6bf6cd0d-21" x="154.7" y="70.06" stroke="#B3867B" fill="#FF0000" class="color_Republican"/>
          <use xlink:href="#img-6bf6cd0d-21" x="158.95" y="74.05" stroke="#B3867B" fill="#FF0000" class="color_Republican"/>
          <use xlink:href="#img-6bf6cd0d-21" x="163.19" y="62.54" stroke="#B3867B" fill="#FF0000" class="color_Republican"/>
          <use xlink:href="#img-6bf6cd0d-21" x="167.43" y="57.23" stroke="#B3867B" fill="#FF0000" class="color_Republican"/>
          <use xlink:href="#img-6bf6cd0d-21" x="171.68" y="77.8" stroke="#B3867B" fill="#FF0000" class="color_Republican"/>
          <use xlink:href="#img-6bf6cd0d-21" x="175.92" y="94.56" stroke="#B3867B" fill="#FF0000" class="color_Republican"/>
          <use xlink:href="#img-6bf6cd0d-21" x="180.17" y="84.74" stroke="#B3867B" fill="#FF0000" class="color_Republican"/>
          <use xlink:href="#img-6bf6cd0d-21" x="184.41" y="71.9" stroke="#B3867B" fill="#FF0000" class="color_Republican"/>
          <use xlink:href="#img-6bf6cd0d-21" x="188.65" y="76.88" stroke="#B3867B" fill="#FF0000" class="color_Republican"/>
          <use xlink:href="#img-6bf6cd0d-21" x="192.9" y="75.36" stroke="#B3867B" fill="#FF0000" class="color_Republican"/>
          <use xlink:href="#img-6bf6cd0d-21" x="197.14" y="65.66" stroke="#B3867B" fill="#FF0000" class="color_Republican"/>
          <use xlink:href="#img-6bf6cd0d-21" x="201.39" y="71.74" stroke="#B3867B" fill="#FF0000" class="color_Republican"/>
          <use xlink:href="#img-6bf6cd0d-21" x="205.63" y="88.75" stroke="#B3867B" fill="#FF0000" class="color_Republican"/>
          <use xlink:href="#img-6bf6cd0d-21" x="209.87" y="89.73" stroke="#B3867B" fill="#FF0000" class="color_Republican"/>
          <use xlink:href="#img-6bf6cd0d-21" x="214.12" y="85.14" stroke="#B3867B" fill="#FF0000" class="color_Republican"/>
          <use xlink:href="#img-6bf6cd0d-21" x="218.36" y="80.69" stroke="#B3867B" fill="#FF0000" class="color_Republican"/>
          <use xlink:href="#img-6bf6cd0d-21" x="222.61" y="81.51" stroke="#B3867B" fill="#FF0000" class="color_Republican"/>
          <use xlink:href="#img-6bf6cd0d-21" x="226.85" y="79.92" stroke="#B3867B" fill="#FF0000" class="color_Republican"/>
          <use xlink:href="#img-6bf6cd0d-21" x="31.62" y="102.95" stroke="#988BAD" fill="#0000FF" class="color_Democratic"/>
          <use xlink:href="#img-6bf6cd0d-21" x="35.87" y="97.52" stroke="#988BAD" fill="#0000FF" class="color_Democratic"/>
          <use xlink:href="#img-6bf6cd0d-21" x="40.11" y="72.33" stroke="#988BAD" fill="#0000FF" class="color_Democratic"/>
          <use xlink:href="#img-6bf6cd0d-21" x="44.36" y="76" stroke="#988BAD" fill="#0000FF" class="color_Democratic"/>
          <use xlink:href="#img-6bf6cd0d-21" x="48.6" y="77.16" stroke="#988BAD" fill="#0000FF" class="color_Democratic"/>
          <use xlink:href="#img-6bf6cd0d-21" x="52.84" y="91.71" stroke="#988BAD" fill="#0000FF" class="color_Democratic"/>
          <use xlink:href="#img-6bf6cd0d-21" x="57.09" y="82.47" stroke="#988BAD" fill="#0000FF" class="color_Democratic"/>
          <use xlink:href="#img-6bf6cd0d-21" x="61.33" y="94.94" stroke="#988BAD" fill="#0000FF" class="color_Democratic"/>
          <use xlink:href="#img-6bf6cd0d-21" x="65.58" y="97.9" stroke="#988BAD" fill="#0000FF" class="color_Democratic"/>
          <use xlink:href="#img-6bf6cd0d-21" x="69.82" y="90.05" stroke="#988BAD" fill="#0000FF" class="color_Democratic"/>
          <use xlink:href="#img-6bf6cd0d-21" x="74.06" y="87.5" stroke="#988BAD" fill="#0000FF" class="color_Democratic"/>
          <use xlink:href="#img-6bf6cd0d-21" x="78.31" y="87.02" stroke="#988BAD" fill="#0000FF" class="color_Democratic"/>
          <use xlink:href="#img-6bf6cd0d-21" x="82.55" y="75.36" stroke="#988BAD" fill="#0000FF" class="color_Democratic"/>
          <use xlink:href="#img-6bf6cd0d-21" x="86.8" y="77.77" stroke="#988BAD" fill="#0000FF" class="color_Democratic"/>
          <use xlink:href="#img-6bf6cd0d-21" x="91.04" y="76.99" stroke="#988BAD" fill="#0000FF" class="color_Democratic"/>
          <use xlink:href="#img-6bf6cd0d-21" x="95.28" y="73.14" stroke="#988BAD" fill="#0000FF" class="color_Democratic"/>
          <use xlink:href="#img-6bf6cd0d-21" x="99.53" y="71.91" stroke="#988BAD" fill="#0000FF" class="color_Democratic"/>
          <use xlink:href="#img-6bf6cd0d-21" x="103.77" y="91.56" stroke="#988BAD" fill="#0000FF" class="color_Democratic"/>
          <use xlink:href="#img-6bf6cd0d-21" x="108.02" y="79.57" stroke="#988BAD" fill="#0000FF" class="color_Democratic"/>
          <use xlink:href="#img-6bf6cd0d-21" x="112.26" y="80.21" stroke="#988BAD" fill="#0000FF" class="color_Democratic"/>
          <use xlink:href="#img-6bf6cd0d-21" x="116.51" y="83.54" stroke="#988BAD" fill="#0000FF" class="color_Democratic"/>
          <use xlink:href="#img-6bf6cd0d-21" x="120.75" y="81.99" stroke="#988BAD" fill="#0000FF" class="color_Democratic"/>
          <use xlink:href="#img-6bf6cd0d-21" x="124.99" y="70.46" stroke="#988BAD" fill="#0000FF" class="color_Democratic"/>
          <use xlink:href="#img-6bf6cd0d-21" x="129.24" y="89.98" stroke="#988BAD" fill="#0000FF" class="color_Democratic"/>
          <use xlink:href="#img-6bf6cd0d-21" x="133.48" y="93.09" stroke="#988BAD" fill="#0000FF" class="color_Democratic"/>
          <use xlink:href="#img-6bf6cd0d-21" x="137.73" y="66.68" stroke="#988BAD" fill="#0000FF" class="color_Democratic"/>
          <use xlink:href="#img-6bf6cd0d-21" x="141.97" y="66.27" stroke="#988BAD" fill="#0000FF" class="color_Democratic"/>
          <use xlink:href="#img-6bf6cd0d-21" x="146.21" y="65.66" stroke="#988BAD" fill="#0000FF" class="color_Democratic"/>
          <use xlink:href="#img-6bf6cd0d-21" x="150.46" y="63.7" stroke="#988BAD" fill="#0000FF" class="color_Democratic"/>
          <use xlink:href="#img-6bf6cd0d-21" x="154.7" y="64.01" stroke="#988BAD" fill="#0000FF" class="color_Democratic"/>
          <use xlink:href="#img-6bf6cd0d-21" x="158.95" y="62.08" stroke="#988BAD" fill="#0000FF" class="color_Democratic"/>
          <use xlink:href="#img-6bf6cd0d-21" x="163.19" y="71.65" stroke="#988BAD" fill="#0000FF" class="color_Democratic"/>
          <use xlink:href="#img-6bf6cd0d-21" x="167.43" y="76.95" stroke="#988BAD" fill="#0000FF" class="color_Democratic"/>
          <use xlink:href="#img-6bf6cd0d-21" x="171.68" y="56.3" stroke="#988BAD" fill="#0000FF" class="color_Democratic"/>
          <use xlink:href="#img-6bf6cd0d-21" x="175.92" y="39.69" stroke="#988BAD" fill="#0000FF" class="color_Democratic"/>
          <use xlink:href="#img-6bf6cd0d-21" x="180.17" y="53.4" stroke="#988BAD" fill="#0000FF" class="color_Democratic"/>
          <use xlink:href="#img-6bf6cd0d-21" x="184.41" y="62.57" stroke="#988BAD" fill="#0000FF" class="color_Democratic"/>
          <use xlink:href="#img-6bf6cd0d-21" x="188.65" y="60.57" stroke="#988BAD" fill="#0000FF" class="color_Democratic"/>
          <use xlink:href="#img-6bf6cd0d-21" x="192.9" y="75.52" stroke="#988BAD" fill="#0000FF" class="color_Democratic"/>
          <use xlink:href="#img-6bf6cd0d-21" x="197.14" y="68.56" stroke="#988BAD" fill="#0000FF" class="color_Democratic"/>
          <use xlink:href="#img-6bf6cd0d-21" x="201.39" y="63.57" stroke="#988BAD" fill="#0000FF" class="color_Democratic"/>
          <use xlink:href="#img-6bf6cd0d-21" x="205.63" y="69.49" stroke="#988BAD" fill="#0000FF" class="color_Democratic"/>
          <use xlink:href="#img-6bf6cd0d-21" x="209.87" y="54.99" stroke="#988BAD" fill="#0000FF" class="color_Democratic"/>
          <use xlink:href="#img-6bf6cd0d-21" x="214.12" y="56.73" stroke="#988BAD" fill="#0000FF" class="color_Democratic"/>
          <use xlink:href="#img-6bf6cd0d-21" x="218.36" y="54.51" stroke="#988BAD" fill="#0000FF" class="color_Democratic"/>
          <use xlink:href="#img-6bf6cd0d-21" x="222.61" y="54.65" stroke="#988BAD" fill="#0000FF" class="color_Democratic"/>
          <use xlink:href="#img-6bf6cd0d-21" x="226.85" y="55.83" stroke="#988BAD" fill="#0000FF" class="color_Democratic"/>
        </g>
      </g>
      <g stroke-width="0.3" fill="#000000" fill-opacity="0.000" stroke-dasharray="none" id="img-6bf6cd0d-22">
        <path fill="none" d="M31.62,102.95 L 35.87 97.52 40.11 72.33 44.36 76 48.6 77.16 52.84 91.71 57.09 82.47 61.33 94.94 65.58 97.9 69.82 90.05 74.06 87.5 78.31 87.02 82.55 75.36 86.8 77.77 91.04 76.99 95.28 73.14 99.53 71.91 103.77 91.56 108.02 79.57 112.26 80.21 116.51 83.54 120.75 81.99 124.99 70.46 129.24 89.98 133.48 93.09 137.73 66.68 141.97 66.27 146.21 65.66 150.46 63.7 154.7 64.01 158.95 62.08 163.19 71.65 167.43 76.95 171.68 56.3 175.92 39.69 180.17 53.4 184.41 62.57 188.65 60.57 192.9 75.52 197.14 68.56 201.39 63.57 205.63 69.49 209.87 54.99 214.12 56.73 218.36 54.51 222.61 54.65 226.85 55.83" stroke="#0000FF" class="geometry color_Democratic"/>
        <path fill="none" d="M65.58,53.61 L 69.82 43.81 74.06 46.38 78.31 46.96 82.55 58.81 86.8 58.06 91.04 68.64 95.28 63.37 99.53 64.99 103.77 46.67 108.02 59.04 112.26 58.69 116.51 58.39 120.75 85.71 124.99 66.37 129.24 47.64 133.48 54.17 137.73 67.81 141.97 70.43 146.21 75.5 150.46 70.72 154.7 70.06 158.95 74.05 163.19 62.54 167.43 57.23 171.68 77.8 175.92 94.56 180.17 84.74 184.41 71.9 188.65 76.88 192.9 75.36 197.14 65.66 201.39 71.74 205.63 88.75 209.87 89.73 214.12 85.14 218.36 80.69 222.61 81.51 226.85 79.92" stroke="#FF0000" class="geometry color_Republican"/>
      </g>
    </g>
  </g>
</g>
  <g class="guide ylabels" font-size="4.76" font-family="'PT Sans Caption','Helvetica Neue','Helvetica',sans-serif" fill="#A1A1A1" id="img-6bf6cd0d-23">
    <text x="24.38" y="118.95" text-anchor="end" dy="0.35em">0</text>
    <text x="24.38" y="92.94" text-anchor="end" dy="0.35em">25</text>
    <text x="24.38" y="66.93" text-anchor="end" dy="0.35em">50</text>
    <text x="24.38" y="40.92" text-anchor="end" dy="0.35em">75</text>
    <text x="24.38" y="14.91" text-anchor="end" dy="0.35em">100</text>
  </g>
  <g font-size="6.35" font-family="'PT Sans','Helvetica Neue','Helvetica',sans-serif" fill="#A1A1A1" stroke="#000000" stroke-opacity="0.000" id="img-6bf6cd0d-24">
    <text x="9.95" y="64.93" text-anchor="middle" dy="0.35em" transform="rotate(-90, 9.95, 66.93)">Popular Vote (%)</text>
  </g>
  <g font-size="6.35" font-family="'PT Sans','Helvetica Neue','Helvetica',sans-serif" fill="#A1A1A1" stroke="#000000" stroke-opacity="0.000" id="img-6bf6cd0d-25">
    <text x="129.24" y="5" text-anchor="middle" dy="0.6em">Massachusetts</text>
  </g>
</g>
<defs>
  <clipPath id="img-6bf6cd0d-13">
  <path d="M25.38,12.91 L 233.1 12.91 233.1 120.95 25.38 120.95" />
</clipPath>
  <g id="img-6bf6cd0d-21">
    <circle cx="0" cy="0" r="0.9"/>
  </g>
</defs>
</svg>
