<?xml version="1.0" encoding="UTF-8"?>
<svg xmlns="http://www.w3.org/2000/svg"
     xmlns:xlink="http://www.w3.org/1999/xlink"
     xmlns:gadfly="http://www.gadflyjl.org/ns"
     version="1.2"
     width="238.1mm" height="158.73mm" viewBox="0 0 238.1 158.73"
     stroke="none"
     fill="#000000"
     stroke-width="0.3"
     font-size="3.88"
>
<g stroke="#000000" stroke-opacity="0.000" fill="#222831" id="img-8a1b8f26-1">
  <rect x="0" y="0" width="238.1" height="158.73"/>
</g>
<g class="plotroot xscalable yscalable" id="img-8a1b8f26-2">
  <g class="guide colorkey" id="img-8a1b8f26-3">
    <g class="color_Democratic" id="img-8a1b8f26-4">
      <g fill="#A1A1A1" font-size="3.7" font-family="'PT Sans','Helvetica Neue','Helvetica',sans-serif" id="img-8a1b8f26-5">
        <text x="51.52" y="148.78" dy="0.35em">Democratic</text>
      </g>
      <g fill="#0000FF" stroke="#000000" stroke-opacity="0.000" id="img-8a1b8f26-6">
        <rect x="48.29" y="147.66" width="2.22" height="2.22"/>
      </g>
    </g>
    <g class="color_Republican" id="img-8a1b8f26-7">
      <g fill="#A1A1A1" font-size="3.7" font-family="'PT Sans','Helvetica Neue','Helvetica',sans-serif" id="img-8a1b8f26-8">
        <text x="29.6" y="148.78" dy="0.35em">Republican</text>
      </g>
      <g fill="#FF0000" stroke="#000000" stroke-opacity="0.000" id="img-8a1b8f26-9">
        <rect x="26.38" y="147.66" width="2.22" height="2.22"/>
      </g>
    </g>
    <g fill="#A1A1A1" font-size="6.35" font-family="'PT Sans','Helvetica Neue','Helvetica',sans-serif" stroke="#000000" stroke-opacity="0.000" id="img-8a1b8f26-10">
      <text x="26.38" y="145.28">Party</text>
    </g>
  </g>
  <g font-size="6.35" font-family="'PT Sans','Helvetica Neue','Helvetica',sans-serif" fill="#A1A1A1" stroke="#000000" stroke-opacity="0.000" id="img-8a1b8f26-11">
    <text x="129.24" y="130.46" text-anchor="middle" dy="0.6em">Year</text>
  </g>
  <g class="guide xlabels" font-size="4.76" font-family="'PT Sans Caption','Helvetica Neue','Helvetica',sans-serif" fill="#A1A1A1" id="img-8a1b8f26-12">
    <text x="27.38" y="121.95" text-anchor="middle" dy="0.6em">1888</text>
    <text x="40.11" y="121.95" text-anchor="middle" dy="0.6em">1896</text>
    <text x="52.84" y="121.95" text-anchor="middle" dy="0.6em">1904</text>
    <text x="65.58" y="121.95" text-anchor="middle" dy="0.6em">1912</text>
    <text x="78.31" y="121.95" text-anchor="middle" dy="0.6em">1920</text>
    <text x="91.04" y="121.95" text-anchor="middle" dy="0.6em">1928</text>
    <text x="103.77" y="121.95" text-anchor="middle" dy="0.6em">1936</text>
    <text x="116.51" y="121.95" text-anchor="middle" dy="0.6em">1944</text>
    <text x="129.24" y="121.95" text-anchor="middle" dy="0.6em">1952</text>
    <text x="141.97" y="121.95" text-anchor="middle" dy="0.6em">1960</text>
    <text x="154.7" y="121.95" text-anchor="middle" dy="0.6em">1968</text>
    <text x="167.43" y="121.95" text-anchor="middle" dy="0.6em">1976</text>
    <text x="180.17" y="121.95" text-anchor="middle" dy="0.6em">1984</text>
    <text x="192.9" y="121.95" text-anchor="middle" dy="0.6em">1992</text>
    <text x="205.63" y="121.95" text-anchor="middle" dy="0.6em">2000</text>
    <text x="218.36" y="121.95" text-anchor="middle" dy="0.6em">2008</text>
    <text x="231.1" y="121.95" text-anchor="middle" dy="0.6em">2016</text>
  </g>
<g clip-path="url(#img-8a1b8f26-13)">
  <g id="img-8a1b8f26-14">
    <g pointer-events="visible" opacity="1" fill="#222831" stroke="#000000" stroke-opacity="0.000" class="guide background" id="img-8a1b8f26-15">
      <rect x="25.38" y="12.91" width="207.72" height="108.04"/>
    </g>
    <g class="guide ygridlines xfixed" stroke-dasharray="0.5,0.5" stroke-width="0.2" stroke="#575757" id="img-8a1b8f26-16">
      <path fill="none" d="M25.38,118.95 L 233.1 118.95"/>
      <path fill="none" d="M25.38,92.94 L 233.1 92.94"/>
      <path fill="none" d="M25.38,66.93 L 233.1 66.93"/>
      <path fill="none" d="M25.38,40.92 L 233.1 40.92"/>
      <path fill="none" d="M25.38,14.91 L 233.1 14.91"/>
    </g>
    <g class="guide xgridlines yfixed" stroke-dasharray="0.5,0.5" stroke-width="0.2" stroke="#575757" id="img-8a1b8f26-17">
      <path fill="none" d="M27.38,12.91 L 27.38 120.95"/>
      <path fill="none" d="M40.11,12.91 L 40.11 120.95"/>
      <path fill="none" d="M52.84,12.91 L 52.84 120.95"/>
      <path fill="none" d="M65.58,12.91 L 65.58 120.95"/>
      <path fill="none" d="M78.31,12.91 L 78.31 120.95"/>
      <path fill="none" d="M91.04,12.91 L 91.04 120.95"/>
      <path fill="none" d="M103.77,12.91 L 103.77 120.95"/>
      <path fill="none" d="M116.51,12.91 L 116.51 120.95"/>
      <path fill="none" d="M129.24,12.91 L 129.24 120.95"/>
      <path fill="none" d="M141.97,12.91 L 141.97 120.95"/>
      <path fill="none" d="M154.7,12.91 L 154.7 120.95"/>
      <path fill="none" d="M167.43,12.91 L 167.43 120.95"/>
      <path fill="none" d="M180.17,12.91 L 180.17 120.95"/>
      <path fill="none" d="M192.9,12.91 L 192.9 120.95"/>
      <path fill="none" d="M205.63,12.91 L 205.63 120.95"/>
      <path fill="none" d="M218.36,12.91 L 218.36 120.95"/>
      <path fill="none" d="M231.1,12.91 L 231.1 120.95"/>
    </g>
    <g class="plotpanel" id="img-8a1b8f26-18">
      <g class="geometry" id="img-8a1b8f26-19">
        <g stroke-width="0.3" id="img-8a1b8f26-20">
          <use xlink:href="#img-8a1b8f26-21" x="33.75" y="74.79" stroke="#B3867B" fill="#FF0000" class="color_Republican"/>
          <use xlink:href="#img-8a1b8f26-21" x="40.11" y="98.45" stroke="#B3867B" fill="#FF0000" class="color_Republican"/>
          <use xlink:href="#img-8a1b8f26-21" x="46.48" y="77.55" stroke="#B3867B" fill="#FF0000" class="color_Republican"/>
          <use xlink:href="#img-8a1b8f26-21" x="52.84" y="62.56" stroke="#B3867B" fill="#FF0000" class="color_Republican"/>
          <use xlink:href="#img-8a1b8f26-21" x="59.21" y="70.07" stroke="#B3867B" fill="#FF0000" class="color_Republican"/>
          <use xlink:href="#img-8a1b8f26-21" x="65.58" y="94.83" stroke="#B3867B" fill="#FF0000" class="color_Republican"/>
          <use xlink:href="#img-8a1b8f26-21" x="71.94" y="79.87" stroke="#B3867B" fill="#FF0000" class="color_Republican"/>
          <use xlink:href="#img-8a1b8f26-21" x="78.31" y="55.35" stroke="#B3867B" fill="#FF0000" class="color_Republican"/>
          <use xlink:href="#img-8a1b8f26-21" x="84.67" y="74.73" stroke="#B3867B" fill="#FF0000" class="color_Republican"/>
          <use xlink:href="#img-8a1b8f26-21" x="91.04" y="58.22" stroke="#B3867B" fill="#FF0000" class="color_Republican"/>
          <use xlink:href="#img-8a1b8f26-21" x="97.41" y="81.43" stroke="#B3867B" fill="#FF0000" class="color_Republican"/>
          <use xlink:href="#img-8a1b8f26-21" x="103.77" y="90.25" stroke="#B3867B" fill="#FF0000" class="color_Republican"/>
          <use xlink:href="#img-8a1b8f26-21" x="110.14" y="77.16" stroke="#B3867B" fill="#FF0000" class="color_Republican"/>
          <use xlink:href="#img-8a1b8f26-21" x="116.51" y="72.21" stroke="#B3867B" fill="#FF0000" class="color_Republican"/>
          <use xlink:href="#img-8a1b8f26-21" x="122.87" y="74.06" stroke="#B3867B" fill="#FF0000" class="color_Republican"/>
          <use xlink:href="#img-8a1b8f26-21" x="129.24" y="57.17" stroke="#B3867B" fill="#FF0000" class="color_Republican"/>
          <use xlink:href="#img-8a1b8f26-21" x="135.6" y="59.51" stroke="#B3867B" fill="#FF0000" class="color_Republican"/>
          <use xlink:href="#img-8a1b8f26-21" x="141.97" y="65.79" stroke="#B3867B" fill="#FF0000" class="color_Republican"/>
          <use xlink:href="#img-8a1b8f26-21" x="148.34" y="76.75" stroke="#B3867B" fill="#FF0000" class="color_Republican"/>
          <use xlink:href="#img-8a1b8f26-21" x="154.7" y="66.31" stroke="#B3867B" fill="#FF0000" class="color_Republican"/>
          <use xlink:href="#img-8a1b8f26-21" x="161.07" y="58.68" stroke="#B3867B" fill="#FF0000" class="color_Republican"/>
          <use xlink:href="#img-8a1b8f26-21" x="167.43" y="63.98" stroke="#B3867B" fill="#FF0000" class="color_Republican"/>
          <use xlink:href="#img-8a1b8f26-21" x="173.8" y="59.83" stroke="#B3867B" fill="#FF0000" class="color_Republican"/>
          <use xlink:href="#img-8a1b8f26-21" x="180.17" y="56.03" stroke="#B3867B" fill="#FF0000" class="color_Republican"/>
          <use xlink:href="#img-8a1b8f26-21" x="186.53" y="64.78" stroke="#B3867B" fill="#FF0000" class="color_Republican"/>
          <use xlink:href="#img-8a1b8f26-21" x="192.9" y="82.41" stroke="#B3867B" fill="#FF0000" class="color_Republican"/>
          <use xlink:href="#img-8a1b8f26-21" x="199.26" y="73.06" stroke="#B3867B" fill="#FF0000" class="color_Republican"/>
          <use xlink:href="#img-8a1b8f26-21" x="205.63" y="58.15" stroke="#B3867B" fill="#FF0000" class="color_Republican"/>
          <use xlink:href="#img-8a1b8f26-21" x="212" y="57.5" stroke="#B3867B" fill="#FF0000" class="color_Republican"/>
          <use xlink:href="#img-8a1b8f26-21" x="218.36" y="67.46" stroke="#B3867B" fill="#FF0000" class="color_Republican"/>
          <use xlink:href="#img-8a1b8f26-21" x="224.73" y="61.42" stroke="#B3867B" fill="#FF0000" class="color_Republican"/>
          <use xlink:href="#img-8a1b8f26-21" x="33.75" y="77.56" stroke="#988BAD" fill="#0000FF" class="color_Democratic"/>
          <use xlink:href="#img-8a1b8f26-21" x="40.11" y="35.79" stroke="#988BAD" fill="#0000FF" class="color_Democratic"/>
          <use xlink:href="#img-8a1b8f26-21" x="46.48" y="58.16" stroke="#988BAD" fill="#0000FF" class="color_Democratic"/>
          <use xlink:href="#img-8a1b8f26-21" x="52.84" y="83.8" stroke="#988BAD" fill="#0000FF" class="color_Democratic"/>
          <use xlink:href="#img-8a1b8f26-21" x="59.21" y="74.62" stroke="#988BAD" fill="#0000FF" class="color_Democratic"/>
          <use xlink:href="#img-8a1b8f26-21" x="65.58" y="82.54" stroke="#988BAD" fill="#0000FF" class="color_Democratic"/>
          <use xlink:href="#img-8a1b8f26-21" x="71.94" y="59.77" stroke="#988BAD" fill="#0000FF" class="color_Democratic"/>
          <use xlink:href="#img-8a1b8f26-21" x="78.31" y="85.61" stroke="#988BAD" fill="#0000FF" class="color_Democratic"/>
          <use xlink:href="#img-8a1b8f26-21" x="84.67" y="98.79" stroke="#988BAD" fill="#0000FF" class="color_Democratic"/>
          <use xlink:href="#img-8a1b8f26-21" x="91.04" y="76.83" stroke="#988BAD" fill="#0000FF" class="color_Democratic"/>
          <use xlink:href="#img-8a1b8f26-21" x="97.41" y="57.78" stroke="#988BAD" fill="#0000FF" class="color_Democratic"/>
          <use xlink:href="#img-8a1b8f26-21" x="103.77" y="46.88" stroke="#988BAD" fill="#0000FF" class="color_Democratic"/>
          <use xlink:href="#img-8a1b8f26-21" x="110.14" y="57.8" stroke="#988BAD" fill="#0000FF" class="color_Democratic"/>
          <use xlink:href="#img-8a1b8f26-21" x="116.51" y="62.48" stroke="#988BAD" fill="#0000FF" class="color_Democratic"/>
          <use xlink:href="#img-8a1b8f26-21" x="122.87" y="63.72" stroke="#988BAD" fill="#0000FF" class="color_Democratic"/>
          <use xlink:href="#img-8a1b8f26-21" x="129.24" y="77.26" stroke="#988BAD" fill="#0000FF" class="color_Democratic"/>
          <use xlink:href="#img-8a1b8f26-21" x="135.6" y="74.35" stroke="#988BAD" fill="#0000FF" class="color_Democratic"/>
          <use xlink:href="#img-8a1b8f26-21" x="141.97" y="68.39" stroke="#988BAD" fill="#0000FF" class="color_Democratic"/>
          <use xlink:href="#img-8a1b8f26-21" x="148.34" y="57.62" stroke="#988BAD" fill="#0000FF" class="color_Democratic"/>
          <use xlink:href="#img-8a1b8f26-21" x="154.7" y="75.68" stroke="#988BAD" fill="#0000FF" class="color_Democratic"/>
          <use xlink:href="#img-8a1b8f26-21" x="161.07" y="79.58" stroke="#988BAD" fill="#0000FF" class="color_Democratic"/>
          <use xlink:href="#img-8a1b8f26-21" x="167.43" y="71.71" stroke="#988BAD" fill="#0000FF" class="color_Democratic"/>
          <use xlink:href="#img-8a1b8f26-21" x="173.8" y="85.21" stroke="#988BAD" fill="#0000FF" class="color_Democratic"/>
          <use xlink:href="#img-8a1b8f26-21" x="180.17" y="79.23" stroke="#988BAD" fill="#0000FF" class="color_Democratic"/>
          <use xlink:href="#img-8a1b8f26-21" x="186.53" y="70.89" stroke="#988BAD" fill="#0000FF" class="color_Democratic"/>
          <use xlink:href="#img-8a1b8f26-21" x="192.9" y="79.8" stroke="#988BAD" fill="#0000FF" class="color_Democratic"/>
          <use xlink:href="#img-8a1b8f26-21" x="199.26" y="76.05" stroke="#988BAD" fill="#0000FF" class="color_Democratic"/>
          <use xlink:href="#img-8a1b8f26-21" x="205.63" y="84.24" stroke="#988BAD" fill="#0000FF" class="color_Democratic"/>
          <use xlink:href="#img-8a1b8f26-21" x="212" y="78.83" stroke="#988BAD" fill="#0000FF" class="color_Democratic"/>
          <use xlink:href="#img-8a1b8f26-21" x="218.36" y="69.93" stroke="#988BAD" fill="#0000FF" class="color_Democratic"/>
          <use xlink:href="#img-8a1b8f26-21" x="224.73" y="75.61" stroke="#988BAD" fill="#0000FF" class="color_Democratic"/>
        </g>
      </g>
      <g stroke-width="0.3" fill="#000000" fill-opacity="0.000" stroke-dasharray="none" id="img-8a1b8f26-22">
        <path fill="none" d="M33.75,77.56 L 40.11 35.79 46.48 58.16 52.84 83.8 59.21 74.62 65.58 82.54 71.94 59.77 78.31 85.61 84.67 98.79 91.04 76.83 97.41 57.78 103.77 46.88 110.14 57.8 116.51 62.48 122.87 63.72 129.24 77.26 135.6 74.35 141.97 68.39 148.34 57.62 154.7 75.68 161.07 79.58 167.43 71.71 173.8 85.21 180.17 79.23 186.53 70.89 192.9 79.8 199.26 76.05 205.63 84.24 212 78.83 218.36 69.93 224.73 75.61" stroke="#0000FF" class="geometry color_Democratic"/>
        <path fill="none" d="M33.75,74.79 L 40.11 98.45 46.48 77.55 52.84 62.56 59.21 70.07 65.58 94.83 71.94 79.87 78.31 55.35 84.67 74.73 91.04 58.22 97.41 81.43 103.77 90.25 110.14 77.16 116.51 72.21 122.87 74.06 129.24 57.17 135.6 59.51 141.97 65.79 148.34 76.75 154.7 66.31 161.07 58.68 167.43 63.98 173.8 59.83 180.17 56.03 186.53 64.78 192.9 82.41 199.26 73.06 205.63 58.15 212 57.5 218.36 67.46 224.73 61.42" stroke="#FF0000" class="geometry color_Republican"/>
      </g>
    </g>
  </g>
</g>
  <g class="guide ylabels" font-size="4.76" font-family="'PT Sans Caption','Helvetica Neue','Helvetica',sans-serif" fill="#A1A1A1" id="img-8a1b8f26-23">
    <text x="24.38" y="118.95" text-anchor="end" dy="0.35em">0</text>
    <text x="24.38" y="92.94" text-anchor="end" dy="0.35em">25</text>
    <text x="24.38" y="66.93" text-anchor="end" dy="0.35em">50</text>
    <text x="24.38" y="40.92" text-anchor="end" dy="0.35em">75</text>
    <text x="24.38" y="14.91" text-anchor="end" dy="0.35em">100</text>
  </g>
  <g font-size="6.35" font-family="'PT Sans','Helvetica Neue','Helvetica',sans-serif" fill="#A1A1A1" stroke="#000000" stroke-opacity="0.000" id="img-8a1b8f26-24">
    <text x="9.95" y="64.93" text-anchor="middle" dy="0.35em" transform="rotate(-90, 9.95, 66.93)">Popular Vote (%)</text>
  </g>
  <g font-size="6.35" font-family="'PT Sans','Helvetica Neue','Helvetica',sans-serif" fill="#A1A1A1" stroke="#000000" stroke-opacity="0.000" id="img-8a1b8f26-25">
    <text x="129.24" y="5" text-anchor="middle" dy="0.6em">Montana</text>
  </g>
</g>
<defs>
  <clipPath id="img-8a1b8f26-13">
  <path d="M25.38,12.91 L 233.1 12.91 233.1 120.95 25.38 120.95" />
</clipPath>
  <g id="img-8a1b8f26-21">
    <circle cx="0" cy="0" r="0.9"/>
  </g>
</defs>
</svg>
