<?xml version="1.0" encoding="UTF-8"?>
<svg xmlns="http://www.w3.org/2000/svg"
     xmlns:xlink="http://www.w3.org/1999/xlink"
     xmlns:gadfly="http://www.gadflyjl.org/ns"
     version="1.2"
     width="320mm" height="160mm" viewBox="0 0 320 160"
     stroke="none"
     fill="#000000"
     stroke-width="0.3"
     font-size="3.88"
>
<g class="plotroot xscalable yscalable" id="img-d5f36317-1">
  <g class="guide colorkey" id="img-d5f36317-2">
    <g class="color_Democratic" id="img-d5f36317-3">
      <g fill="#4C404B" font-size="4.76" font-family="'PT Sans','Helvetica Neue','Helvetica',sans-serif" id="img-d5f36317-4">
        <text x="57.56" y="150.05" dy="0.35em">Democratic</text>
      </g>
      <g fill="#0000FF" stroke="#000000" stroke-opacity="0.000" id="img-d5f36317-5">
        <rect x="53.84" y="148.69" width="2.72" height="2.72"/>
      </g>
    </g>
    <g class="color_Republican" id="img-d5f36317-6">
      <g fill="#4C404B" font-size="4.76" font-family="'PT Sans','Helvetica Neue','Helvetica',sans-serif" id="img-d5f36317-7">
        <text x="30.1" y="150.05" dy="0.35em">Republican</text>
      </g>
      <g fill="#FF0000" stroke="#000000" stroke-opacity="0.000" id="img-d5f36317-8">
        <rect x="26.38" y="148.69" width="2.72" height="2.72"/>
      </g>
    </g>
    <g fill="#362A35" font-size="6.35" font-family="'PT Sans','Helvetica Neue','Helvetica',sans-serif" stroke="#000000" stroke-opacity="0.000" id="img-d5f36317-9">
      <text x="26.38" y="145.57">Party</text>
    </g>
  </g>
  <g font-size="6.35" font-family="'PT Sans','Helvetica Neue','Helvetica',sans-serif" fill="#564A55" stroke="#000000" stroke-opacity="0.000" id="img-d5f36317-10">
    <text x="170.19" y="130.75" text-anchor="middle" dy="0.6em">Year</text>
  </g>
  <g class="guide xlabels" font-size="4.76" font-family="'PT Sans Caption','Helvetica Neue','Helvetica',sans-serif" fill="#6C606B" id="img-d5f36317-11">
    <text x="27.38" y="122.24" text-anchor="middle" dy="0.6em">1888</text>
    <text x="45.23" y="122.24" text-anchor="middle" dy="0.6em">1896</text>
    <text x="63.08" y="122.24" text-anchor="middle" dy="0.6em">1904</text>
    <text x="80.93" y="122.24" text-anchor="middle" dy="0.6em">1912</text>
    <text x="98.78" y="122.24" text-anchor="middle" dy="0.6em">1920</text>
    <text x="116.64" y="122.24" text-anchor="middle" dy="0.6em">1928</text>
    <text x="134.49" y="122.24" text-anchor="middle" dy="0.6em">1936</text>
    <text x="152.34" y="122.24" text-anchor="middle" dy="0.6em">1944</text>
    <text x="170.19" y="122.24" text-anchor="middle" dy="0.6em">1952</text>
    <text x="188.04" y="122.24" text-anchor="middle" dy="0.6em">1960</text>
    <text x="205.89" y="122.24" text-anchor="middle" dy="0.6em">1968</text>
    <text x="223.74" y="122.24" text-anchor="middle" dy="0.6em">1976</text>
    <text x="241.59" y="122.24" text-anchor="middle" dy="0.6em">1984</text>
    <text x="259.45" y="122.24" text-anchor="middle" dy="0.6em">1992</text>
    <text x="277.3" y="122.24" text-anchor="middle" dy="0.6em">2000</text>
    <text x="295.15" y="122.24" text-anchor="middle" dy="0.6em">2008</text>
    <text x="313" y="122.24" text-anchor="middle" dy="0.6em">2016</text>
  </g>
<g clip-path="url(#img-d5f36317-12)">
  <g id="img-d5f36317-13">
    <g pointer-events="visible" opacity="1" fill="#000000" fill-opacity="0.000" stroke="#000000" stroke-opacity="0.000" class="guide background" id="img-d5f36317-14">
      <rect x="25.38" y="14.91" width="289.62" height="106.33"/>
    </g>
    <g class="guide ygridlines xfixed" stroke-dasharray="0.5,0.5" stroke-width="0.26" stroke="#000000" id="img-d5f36317-15">
      <path fill="none" d="M25.38,119.24 L 315 119.24"/>
      <path fill="none" d="M25.38,93.66 L 315 93.66"/>
      <path fill="none" d="M25.38,68.07 L 315 68.07"/>
      <path fill="none" d="M25.38,42.49 L 315 42.49"/>
      <path fill="none" d="M25.38,16.91 L 315 16.91"/>
    </g>
    <g class="guide xgridlines yfixed" stroke-dasharray="0.5,0.5" stroke-width="0.26" stroke="#000000" id="img-d5f36317-16">
      <path fill="none" d="M27.38,14.91 L 27.38 121.24"/>
      <path fill="none" d="M45.23,14.91 L 45.23 121.24"/>
      <path fill="none" d="M63.08,14.91 L 63.08 121.24"/>
      <path fill="none" d="M80.93,14.91 L 80.93 121.24"/>
      <path fill="none" d="M98.78,14.91 L 98.78 121.24"/>
      <path fill="none" d="M116.64,14.91 L 116.64 121.24"/>
      <path fill="none" d="M134.49,14.91 L 134.49 121.24"/>
      <path fill="none" d="M152.34,14.91 L 152.34 121.24"/>
      <path fill="none" d="M170.19,14.91 L 170.19 121.24"/>
      <path fill="none" d="M188.04,14.91 L 188.04 121.24"/>
      <path fill="none" d="M205.89,14.91 L 205.89 121.24"/>
      <path fill="none" d="M223.74,14.91 L 223.74 121.24"/>
      <path fill="none" d="M241.59,14.91 L 241.59 121.24"/>
      <path fill="none" d="M259.45,14.91 L 259.45 121.24"/>
      <path fill="none" d="M277.3,14.91 L 277.3 121.24"/>
      <path fill="none" d="M295.15,14.91 L 295.15 121.24"/>
      <path fill="none" d="M313,14.91 L 313 121.24"/>
    </g>
    <g class="plotpanel" id="img-d5f36317-17">
      <g class="geometry" id="img-d5f36317-18">
        <g stroke-width="0.3" id="img-d5f36317-19">
          <use xlink:href="#img-d5f36317-20" x="36.31" y="75.81" class="color_Republican" fill="#FF0000" stroke="#FFFFFF"/>
          <use xlink:href="#img-d5f36317-20" x="45.23" y="99.07" class="color_Republican" fill="#FF0000" stroke="#FFFFFF"/>
          <use xlink:href="#img-d5f36317-20" x="54.16" y="78.52" class="color_Republican" fill="#FF0000" stroke="#FFFFFF"/>
          <use xlink:href="#img-d5f36317-20" x="63.08" y="63.77" class="color_Republican" fill="#FF0000" stroke="#FFFFFF"/>
          <use xlink:href="#img-d5f36317-20" x="72.01" y="71.16" class="color_Republican" fill="#FF0000" stroke="#FFFFFF"/>
          <use xlink:href="#img-d5f36317-20" x="80.93" y="95.51" class="color_Republican" fill="#FF0000" stroke="#FFFFFF"/>
          <use xlink:href="#img-d5f36317-20" x="89.86" y="80.8" class="color_Republican" fill="#FF0000" stroke="#FFFFFF"/>
          <use xlink:href="#img-d5f36317-20" x="98.78" y="56.68" class="color_Republican" fill="#FF0000" stroke="#FFFFFF"/>
          <use xlink:href="#img-d5f36317-20" x="107.71" y="75.74" class="color_Republican" fill="#FF0000" stroke="#FFFFFF"/>
          <use xlink:href="#img-d5f36317-20" x="116.64" y="59.51" class="color_Republican" fill="#FF0000" stroke="#FFFFFF"/>
          <use xlink:href="#img-d5f36317-20" x="125.56" y="82.33" class="color_Republican" fill="#FF0000" stroke="#FFFFFF"/>
          <use xlink:href="#img-d5f36317-20" x="134.49" y="91.01" class="color_Republican" fill="#FF0000" stroke="#FFFFFF"/>
          <use xlink:href="#img-d5f36317-20" x="143.41" y="78.13" class="color_Republican" fill="#FF0000" stroke="#FFFFFF"/>
          <use xlink:href="#img-d5f36317-20" x="152.34" y="73.26" class="color_Republican" fill="#FF0000" stroke="#FFFFFF"/>
          <use xlink:href="#img-d5f36317-20" x="161.26" y="75.09" class="color_Republican" fill="#FF0000" stroke="#FFFFFF"/>
          <use xlink:href="#img-d5f36317-20" x="170.19" y="58.47" class="color_Republican" fill="#FF0000" stroke="#FFFFFF"/>
          <use xlink:href="#img-d5f36317-20" x="179.12" y="60.77" class="color_Republican" fill="#FF0000" stroke="#FFFFFF"/>
          <use xlink:href="#img-d5f36317-20" x="188.04" y="66.95" class="color_Republican" fill="#FF0000" stroke="#FFFFFF"/>
          <use xlink:href="#img-d5f36317-20" x="196.97" y="77.73" class="color_Republican" fill="#FF0000" stroke="#FFFFFF"/>
          <use xlink:href="#img-d5f36317-20" x="205.89" y="67.47" class="color_Republican" fill="#FF0000" stroke="#FFFFFF"/>
          <use xlink:href="#img-d5f36317-20" x="214.82" y="59.96" class="color_Republican" fill="#FF0000" stroke="#FFFFFF"/>
          <use xlink:href="#img-d5f36317-20" x="223.74" y="65.17" class="color_Republican" fill="#FF0000" stroke="#FFFFFF"/>
          <use xlink:href="#img-d5f36317-20" x="232.67" y="61.09" class="color_Republican" fill="#FF0000" stroke="#FFFFFF"/>
          <use xlink:href="#img-d5f36317-20" x="241.59" y="57.36" class="color_Republican" fill="#FF0000" stroke="#FFFFFF"/>
          <use xlink:href="#img-d5f36317-20" x="250.52" y="65.95" class="color_Republican" fill="#FF0000" stroke="#FFFFFF"/>
          <use xlink:href="#img-d5f36317-20" x="259.45" y="83.3" class="color_Republican" fill="#FF0000" stroke="#FFFFFF"/>
          <use xlink:href="#img-d5f36317-20" x="268.37" y="74.1" class="color_Republican" fill="#FF0000" stroke="#FFFFFF"/>
          <use xlink:href="#img-d5f36317-20" x="277.3" y="59.44" class="color_Republican" fill="#FF0000" stroke="#FFFFFF"/>
          <use xlink:href="#img-d5f36317-20" x="286.22" y="58.8" class="color_Republican" fill="#FF0000" stroke="#FFFFFF"/>
          <use xlink:href="#img-d5f36317-20" x="295.15" y="68.59" class="color_Republican" fill="#FF0000" stroke="#FFFFFF"/>
          <use xlink:href="#img-d5f36317-20" x="304.07" y="62.65" class="color_Republican" fill="#FF0000" stroke="#FFFFFF"/>
          <use xlink:href="#img-d5f36317-20" x="36.31" y="78.52" class="color_Democratic" fill="#0000FF" stroke="#FFFFFF"/>
          <use xlink:href="#img-d5f36317-20" x="45.23" y="37.44" class="color_Democratic" fill="#0000FF" stroke="#FFFFFF"/>
          <use xlink:href="#img-d5f36317-20" x="54.16" y="59.45" class="color_Democratic" fill="#0000FF" stroke="#FFFFFF"/>
          <use xlink:href="#img-d5f36317-20" x="63.08" y="84.67" class="color_Democratic" fill="#0000FF" stroke="#FFFFFF"/>
          <use xlink:href="#img-d5f36317-20" x="72.01" y="75.63" class="color_Democratic" fill="#0000FF" stroke="#FFFFFF"/>
          <use xlink:href="#img-d5f36317-20" x="80.93" y="83.42" class="color_Democratic" fill="#0000FF" stroke="#FFFFFF"/>
          <use xlink:href="#img-d5f36317-20" x="89.86" y="61.03" class="color_Democratic" fill="#0000FF" stroke="#FFFFFF"/>
          <use xlink:href="#img-d5f36317-20" x="98.78" y="86.44" class="color_Democratic" fill="#0000FF" stroke="#FFFFFF"/>
          <use xlink:href="#img-d5f36317-20" x="107.71" y="99.41" class="color_Democratic" fill="#0000FF" stroke="#FFFFFF"/>
          <use xlink:href="#img-d5f36317-20" x="116.64" y="77.81" class="color_Democratic" fill="#0000FF" stroke="#FFFFFF"/>
          <use xlink:href="#img-d5f36317-20" x="125.56" y="59.07" class="color_Democratic" fill="#0000FF" stroke="#FFFFFF"/>
          <use xlink:href="#img-d5f36317-20" x="134.49" y="48.35" class="color_Democratic" fill="#0000FF" stroke="#FFFFFF"/>
          <use xlink:href="#img-d5f36317-20" x="143.41" y="59.09" class="color_Democratic" fill="#0000FF" stroke="#FFFFFF"/>
          <use xlink:href="#img-d5f36317-20" x="152.34" y="63.69" class="color_Democratic" fill="#0000FF" stroke="#FFFFFF"/>
          <use xlink:href="#img-d5f36317-20" x="161.26" y="64.91" class="color_Democratic" fill="#0000FF" stroke="#FFFFFF"/>
          <use xlink:href="#img-d5f36317-20" x="170.19" y="78.23" class="color_Democratic" fill="#0000FF" stroke="#FFFFFF"/>
          <use xlink:href="#img-d5f36317-20" x="179.12" y="75.38" class="color_Democratic" fill="#0000FF" stroke="#FFFFFF"/>
          <use xlink:href="#img-d5f36317-20" x="188.04" y="69.51" class="color_Democratic" fill="#0000FF" stroke="#FFFFFF"/>
          <use xlink:href="#img-d5f36317-20" x="196.97" y="58.92" class="color_Democratic" fill="#0000FF" stroke="#FFFFFF"/>
          <use xlink:href="#img-d5f36317-20" x="205.89" y="76.68" class="color_Democratic" fill="#0000FF" stroke="#FFFFFF"/>
          <use xlink:href="#img-d5f36317-20" x="214.82" y="80.51" class="color_Democratic" fill="#0000FF" stroke="#FFFFFF"/>
          <use xlink:href="#img-d5f36317-20" x="223.74" y="72.78" class="color_Democratic" fill="#0000FF" stroke="#FFFFFF"/>
          <use xlink:href="#img-d5f36317-20" x="232.67" y="86.05" class="color_Democratic" fill="#0000FF" stroke="#FFFFFF"/>
          <use xlink:href="#img-d5f36317-20" x="241.59" y="80.17" class="color_Democratic" fill="#0000FF" stroke="#FFFFFF"/>
          <use xlink:href="#img-d5f36317-20" x="250.52" y="71.96" class="color_Democratic" fill="#0000FF" stroke="#FFFFFF"/>
          <use xlink:href="#img-d5f36317-20" x="259.45" y="80.73" class="color_Democratic" fill="#0000FF" stroke="#FFFFFF"/>
          <use xlink:href="#img-d5f36317-20" x="268.37" y="77.05" class="color_Democratic" fill="#0000FF" stroke="#FFFFFF"/>
          <use xlink:href="#img-d5f36317-20" x="277.3" y="85.1" class="color_Democratic" fill="#0000FF" stroke="#FFFFFF"/>
          <use xlink:href="#img-d5f36317-20" x="286.22" y="79.78" class="color_Democratic" fill="#0000FF" stroke="#FFFFFF"/>
          <use xlink:href="#img-d5f36317-20" x="295.15" y="71.03" class="color_Democratic" fill="#0000FF" stroke="#FFFFFF"/>
          <use xlink:href="#img-d5f36317-20" x="304.07" y="76.61" class="color_Democratic" fill="#0000FF" stroke="#FFFFFF"/>
        </g>
      </g>
      <g stroke-width="0.53" fill="#000000" fill-opacity="0.000" stroke-dasharray="none" id="img-d5f36317-21">
        <path fill="none" d="M36.31,78.52 L 45.23 37.44 54.16 59.45 63.08 84.67 72.01 75.63 80.93 83.42 89.86 61.03 98.78 86.44 107.71 99.41 116.64 77.81 125.56 59.07 134.49 48.35 143.41 59.09 152.34 63.69 161.26 64.91 170.19 78.23 179.12 75.38 188.04 69.51 196.97 58.92 205.89 76.68 214.82 80.51 223.74 72.78 232.67 86.05 241.59 80.17 250.52 71.96 259.45 80.73 268.37 77.05 277.3 85.1 286.22 79.78 295.15 71.03 304.07 76.61" class="geometry color_Democratic" stroke="#0000FF"/>
        <path fill="none" d="M36.31,75.81 L 45.23 99.07 54.16 78.52 63.08 63.77 72.01 71.16 80.93 95.51 89.86 80.8 98.78 56.68 107.71 75.74 116.64 59.51 125.56 82.33 134.49 91.01 143.41 78.13 152.34 73.26 161.26 75.09 170.19 58.47 179.12 60.77 188.04 66.95 196.97 77.73 205.89 67.47 214.82 59.96 223.74 65.17 232.67 61.09 241.59 57.36 250.52 65.95 259.45 83.3 268.37 74.1 277.3 59.44 286.22 58.8 295.15 68.59 304.07 62.65" class="geometry color_Republican" stroke="#FF0000"/>
      </g>
    </g>
  </g>
</g>
  <g class="guide ylabels" font-size="4.76" font-family="'PT Sans Caption','Helvetica Neue','Helvetica',sans-serif" fill="#6C606B" id="img-d5f36317-22">
    <text x="24.38" y="119.24" text-anchor="end" dy="0.35em">0</text>
    <text x="24.38" y="93.66" text-anchor="end" dy="0.35em">25</text>
    <text x="24.38" y="68.07" text-anchor="end" dy="0.35em">50</text>
    <text x="24.38" y="42.49" text-anchor="end" dy="0.35em">75</text>
    <text x="24.38" y="16.91" text-anchor="end" dy="0.35em">100</text>
  </g>
  <g font-size="6.35" font-family="'PT Sans','Helvetica Neue','Helvetica',sans-serif" fill="#564A55" stroke="#000000" stroke-opacity="0.000" id="img-d5f36317-23">
    <text x="9.95" y="66.07" text-anchor="middle" dy="0.35em" transform="rotate(-90, 9.95, 68.07)">Popular Vote (%)</text>
  </g>
  <g font-size="6.35" font-family="'PT Sans','Helvetica Neue','Helvetica',sans-serif" fill="#564A55" stroke="#000000" stroke-opacity="0.000" id="img-d5f36317-24">
    <text x="170.19" y="12.91" text-anchor="middle">Montana</text>
  </g>
</g>
<defs>
  <clipPath id="img-d5f36317-12">
  <path d="M25.38,14.91 L 315 14.91 315 121.24 25.38 121.24" />
</clipPath>
  <g id="img-d5f36317-20">
    <circle cx="0" cy="0" r="0.9"/>
  </g>
</defs>
</svg>
