<?xml version="1.0" encoding="UTF-8"?>
<svg xmlns="http://www.w3.org/2000/svg"
     xmlns:xlink="http://www.w3.org/1999/xlink"
     xmlns:gadfly="http://www.gadflyjl.org/ns"
     version="1.2"
     width="320mm" height="160mm" viewBox="0 0 320 160"
     stroke="none"
     fill="#000000"
     stroke-width="0.3"
     font-size="3.88"
>
<g class="plotroot xscalable yscalable" id="img-a560cdd0-1">
  <g class="guide colorkey" id="img-a560cdd0-2">
    <g class="color_Democratic" id="img-a560cdd0-3">
      <g fill="#4C404B" font-size="4.76" font-family="'PT Sans','Helvetica Neue','Helvetica',sans-serif" id="img-a560cdd0-4">
        <text x="57.56" y="150.05" dy="0.35em">Democratic</text>
      </g>
      <g fill="#0000FF" stroke="#000000" stroke-opacity="0.000" id="img-a560cdd0-5">
        <rect x="53.84" y="148.69" width="2.72" height="2.72"/>
      </g>
    </g>
    <g class="color_Republican" id="img-a560cdd0-6">
      <g fill="#4C404B" font-size="4.76" font-family="'PT Sans','Helvetica Neue','Helvetica',sans-serif" id="img-a560cdd0-7">
        <text x="30.1" y="150.05" dy="0.35em">Republican</text>
      </g>
      <g fill="#FF0000" stroke="#000000" stroke-opacity="0.000" id="img-a560cdd0-8">
        <rect x="26.38" y="148.69" width="2.72" height="2.72"/>
      </g>
    </g>
    <g fill="#362A35" font-size="6.35" font-family="'PT Sans','Helvetica Neue','Helvetica',sans-serif" stroke="#000000" stroke-opacity="0.000" id="img-a560cdd0-9">
      <text x="26.38" y="145.57">Party</text>
    </g>
  </g>
  <g font-size="6.35" font-family="'PT Sans','Helvetica Neue','Helvetica',sans-serif" fill="#564A55" stroke="#000000" stroke-opacity="0.000" id="img-a560cdd0-10">
    <text x="170.19" y="130.75" text-anchor="middle" dy="0.6em">Year</text>
  </g>
  <g class="guide xlabels" font-size="4.76" font-family="'PT Sans Caption','Helvetica Neue','Helvetica',sans-serif" fill="#6C606B" id="img-a560cdd0-11">
    <text x="27.38" y="122.24" text-anchor="middle" dy="0.6em">1824</text>
    <text x="45.23" y="122.24" text-anchor="middle" dy="0.6em">1836</text>
    <text x="63.08" y="122.24" text-anchor="middle" dy="0.6em">1848</text>
    <text x="80.93" y="122.24" text-anchor="middle" dy="0.6em">1860</text>
    <text x="98.78" y="122.24" text-anchor="middle" dy="0.6em">1872</text>
    <text x="116.64" y="122.24" text-anchor="middle" dy="0.6em">1884</text>
    <text x="134.49" y="122.24" text-anchor="middle" dy="0.6em">1896</text>
    <text x="152.34" y="122.24" text-anchor="middle" dy="0.6em">1908</text>
    <text x="170.19" y="122.24" text-anchor="middle" dy="0.6em">1920</text>
    <text x="188.04" y="122.24" text-anchor="middle" dy="0.6em">1932</text>
    <text x="205.89" y="122.24" text-anchor="middle" dy="0.6em">1944</text>
    <text x="223.74" y="122.24" text-anchor="middle" dy="0.6em">1956</text>
    <text x="241.59" y="122.24" text-anchor="middle" dy="0.6em">1968</text>
    <text x="259.45" y="122.24" text-anchor="middle" dy="0.6em">1980</text>
    <text x="277.3" y="122.24" text-anchor="middle" dy="0.6em">1992</text>
    <text x="295.15" y="122.24" text-anchor="middle" dy="0.6em">2004</text>
    <text x="313" y="122.24" text-anchor="middle" dy="0.6em">2016</text>
  </g>
<g clip-path="url(#img-a560cdd0-12)">
  <g id="img-a560cdd0-13">
    <g pointer-events="visible" opacity="1" fill="#000000" fill-opacity="0.000" stroke="#000000" stroke-opacity="0.000" class="guide background" id="img-a560cdd0-14">
      <rect x="25.38" y="14.91" width="289.62" height="106.33"/>
    </g>
    <g class="guide ygridlines xfixed" stroke-dasharray="0.5,0.5" stroke-width="0.26" stroke="#000000" id="img-a560cdd0-15">
      <path fill="none" d="M25.38,119.24 L 315 119.24"/>
      <path fill="none" d="M25.38,93.66 L 315 93.66"/>
      <path fill="none" d="M25.38,68.07 L 315 68.07"/>
      <path fill="none" d="M25.38,42.49 L 315 42.49"/>
      <path fill="none" d="M25.38,16.91 L 315 16.91"/>
    </g>
    <g class="guide xgridlines yfixed" stroke-dasharray="0.5,0.5" stroke-width="0.26" stroke="#000000" id="img-a560cdd0-16">
      <path fill="none" d="M27.38,14.91 L 27.38 121.24"/>
      <path fill="none" d="M45.23,14.91 L 45.23 121.24"/>
      <path fill="none" d="M63.08,14.91 L 63.08 121.24"/>
      <path fill="none" d="M80.93,14.91 L 80.93 121.24"/>
      <path fill="none" d="M98.78,14.91 L 98.78 121.24"/>
      <path fill="none" d="M116.64,14.91 L 116.64 121.24"/>
      <path fill="none" d="M134.49,14.91 L 134.49 121.24"/>
      <path fill="none" d="M152.34,14.91 L 152.34 121.24"/>
      <path fill="none" d="M170.19,14.91 L 170.19 121.24"/>
      <path fill="none" d="M188.04,14.91 L 188.04 121.24"/>
      <path fill="none" d="M205.89,14.91 L 205.89 121.24"/>
      <path fill="none" d="M223.74,14.91 L 223.74 121.24"/>
      <path fill="none" d="M241.59,14.91 L 241.59 121.24"/>
      <path fill="none" d="M259.45,14.91 L 259.45 121.24"/>
      <path fill="none" d="M277.3,14.91 L 277.3 121.24"/>
      <path fill="none" d="M295.15,14.91 L 295.15 121.24"/>
      <path fill="none" d="M313,14.91 L 313 121.24"/>
    </g>
    <g class="plotpanel" id="img-a560cdd0-17">
      <g class="geometry" id="img-a560cdd0-18">
        <g stroke-width="0.3" id="img-a560cdd0-19">
          <use xlink:href="#img-a560cdd0-20" x="80.93" y="119.24" class="color_Republican" fill="#FF0000" stroke="#FFFFFF"/>
          <use xlink:href="#img-a560cdd0-20" x="92.83" y="64.58" class="color_Republican" fill="#FF0000" stroke="#FFFFFF"/>
          <use xlink:href="#img-a560cdd0-20" x="98.78" y="60.52" class="color_Republican" fill="#FF0000" stroke="#FFFFFF"/>
          <use xlink:href="#img-a560cdd0-20" x="104.74" y="71.78" class="color_Republican" fill="#FF0000" stroke="#FFFFFF"/>
          <use xlink:href="#img-a560cdd0-20" x="110.69" y="70.14" class="color_Republican" fill="#FF0000" stroke="#FFFFFF"/>
          <use xlink:href="#img-a560cdd0-20" x="116.64" y="71.57" class="color_Republican" fill="#FF0000" stroke="#FFFFFF"/>
          <use xlink:href="#img-a560cdd0-20" x="122.59" y="70.94" class="color_Republican" fill="#FF0000" stroke="#FFFFFF"/>
          <use xlink:href="#img-a560cdd0-20" x="128.54" y="82.6" class="color_Republican" fill="#FF0000" stroke="#FFFFFF"/>
          <use xlink:href="#img-a560cdd0-20" x="134.49" y="71.33" class="color_Republican" fill="#FF0000" stroke="#FFFFFF"/>
          <use xlink:href="#img-a560cdd0-20" x="140.44" y="72.71" class="color_Republican" fill="#FF0000" stroke="#FFFFFF"/>
          <use xlink:href="#img-a560cdd0-20" x="146.39" y="78.64" class="color_Republican" fill="#FF0000" stroke="#FFFFFF"/>
          <use xlink:href="#img-a560cdd0-20" x="152.34" y="72.69" class="color_Republican" fill="#FF0000" stroke="#FFFFFF"/>
          <use xlink:href="#img-a560cdd0-20" x="158.29" y="107.01" class="color_Republican" fill="#FF0000" stroke="#FFFFFF"/>
          <use xlink:href="#img-a560cdd0-20" x="164.24" y="76.56" class="color_Republican" fill="#FF0000" stroke="#FFFFFF"/>
          <use xlink:href="#img-a560cdd0-20" x="170.19" y="75.01" class="color_Republican" fill="#FF0000" stroke="#FFFFFF"/>
          <use xlink:href="#img-a560cdd0-20" x="176.14" y="78.59" class="color_Republican" fill="#FF0000" stroke="#FFFFFF"/>
          <use xlink:href="#img-a560cdd0-20" x="182.09" y="63.02" class="color_Republican" fill="#FF0000" stroke="#FFFFFF"/>
          <use xlink:href="#img-a560cdd0-20" x="188.04" y="89.27" class="color_Republican" fill="#FF0000" stroke="#FFFFFF"/>
          <use xlink:href="#img-a560cdd0-20" x="193.99" y="92.02" class="color_Republican" fill="#FF0000" stroke="#FFFFFF"/>
          <use xlink:href="#img-a560cdd0-20" x="199.94" y="92.66" class="color_Republican" fill="#FF0000" stroke="#FFFFFF"/>
          <use xlink:href="#img-a560cdd0-20" x="205.89" y="85.18" class="color_Republican" fill="#FF0000" stroke="#FFFFFF"/>
          <use xlink:href="#img-a560cdd0-20" x="211.84" y="85.8" class="color_Republican" fill="#FF0000" stroke="#FFFFFF"/>
          <use xlink:href="#img-a560cdd0-20" x="217.79" y="72.08" class="color_Republican" fill="#FF0000" stroke="#FFFFFF"/>
          <use xlink:href="#img-a560cdd0-20" x="223.74" y="68.75" class="color_Republican" fill="#FF0000" stroke="#FFFFFF"/>
          <use xlink:href="#img-a560cdd0-20" x="229.69" y="70.23" class="color_Republican" fill="#FF0000" stroke="#FFFFFF"/>
          <use xlink:href="#img-a560cdd0-20" x="235.64" y="74.37" class="color_Republican" fill="#FF0000" stroke="#FFFFFF"/>
          <use xlink:href="#img-a560cdd0-20" x="241.59" y="78.81" class="color_Republican" fill="#FF0000" stroke="#FFFFFF"/>
          <use xlink:href="#img-a560cdd0-20" x="247.55" y="48.16" class="color_Republican" fill="#FF0000" stroke="#FFFFFF"/>
          <use xlink:href="#img-a560cdd0-20" x="253.5" y="73.99" class="color_Republican" fill="#FF0000" stroke="#FFFFFF"/>
          <use xlink:href="#img-a560cdd0-20" x="259.45" y="68.79" class="color_Republican" fill="#FF0000" stroke="#FFFFFF"/>
          <use xlink:href="#img-a560cdd0-20" x="265.4" y="55.9" class="color_Republican" fill="#FF0000" stroke="#FFFFFF"/>
          <use xlink:href="#img-a560cdd0-20" x="271.35" y="59.92" class="color_Republican" fill="#FF0000" stroke="#FFFFFF"/>
          <use xlink:href="#img-a560cdd0-20" x="277.3" y="74.78" class="color_Republican" fill="#FF0000" stroke="#FFFFFF"/>
          <use xlink:href="#img-a560cdd0-20" x="283.25" y="69.37" class="color_Republican" fill="#FF0000" stroke="#FFFFFF"/>
          <use xlink:href="#img-a560cdd0-20" x="289.2" y="61.9" class="color_Republican" fill="#FF0000" stroke="#FFFFFF"/>
          <use xlink:href="#img-a560cdd0-20" x="295.15" y="61.92" class="color_Republican" fill="#FF0000" stroke="#FFFFFF"/>
          <use xlink:href="#img-a560cdd0-20" x="301.1" y="68.71" class="color_Republican" fill="#FF0000" stroke="#FFFFFF"/>
          <use xlink:href="#img-a560cdd0-20" x="307.05" y="67.67" class="color_Republican" fill="#FF0000" stroke="#FFFFFF"/>
          <use xlink:href="#img-a560cdd0-20" x="33.33" y="44.46" class="color_Democratic" fill="#0000FF" stroke="#FFFFFF"/>
          <use xlink:href="#img-a560cdd0-20" x="39.28" y="32.49" class="color_Democratic" fill="#0000FF" stroke="#FFFFFF"/>
          <use xlink:href="#img-a560cdd0-20" x="45.23" y="64.9" class="color_Democratic" fill="#0000FF" stroke="#FFFFFF"/>
          <use xlink:href="#img-a560cdd0-20" x="51.18" y="75.93" class="color_Democratic" fill="#0000FF" stroke="#FFFFFF"/>
          <use xlink:href="#img-a560cdd0-20" x="57.13" y="70.52" class="color_Democratic" fill="#0000FF" stroke="#FFFFFF"/>
          <use xlink:href="#img-a560cdd0-20" x="63.08" y="73.4" class="color_Democratic" fill="#0000FF" stroke="#FFFFFF"/>
          <use xlink:href="#img-a560cdd0-20" x="69.03" y="67.63" class="color_Democratic" fill="#0000FF" stroke="#FFFFFF"/>
          <use xlink:href="#img-a560cdd0-20" x="74.98" y="61.13" class="color_Democratic" fill="#0000FF" stroke="#FFFFFF"/>
          <use xlink:href="#img-a560cdd0-20" x="80.93" y="116.34" class="color_Democratic" fill="#0000FF" stroke="#FFFFFF"/>
          <use xlink:href="#img-a560cdd0-20" x="92.83" y="71.56" class="color_Democratic" fill="#0000FF" stroke="#FFFFFF"/>
          <use xlink:href="#img-a560cdd0-20" x="98.78" y="75.79" class="color_Democratic" fill="#0000FF" stroke="#FFFFFF"/>
          <use xlink:href="#img-a560cdd0-20" x="104.74" y="64.37" class="color_Democratic" fill="#0000FF" stroke="#FFFFFF"/>
          <use xlink:href="#img-a560cdd0-20" x="110.69" y="66.49" class="color_Democratic" fill="#0000FF" stroke="#FFFFFF"/>
          <use xlink:href="#img-a560cdd0-20" x="116.64" y="64.75" class="color_Democratic" fill="#0000FF" stroke="#FFFFFF"/>
          <use xlink:href="#img-a560cdd0-20" x="122.59" y="66.24" class="color_Democratic" fill="#0000FF" stroke="#FFFFFF"/>
          <use xlink:href="#img-a560cdd0-20" x="128.54" y="70.7" class="color_Democratic" fill="#0000FF" stroke="#FFFFFF"/>
          <use xlink:href="#img-a560cdd0-20" x="134.49" y="65.37" class="color_Democratic" fill="#0000FF" stroke="#FFFFFF"/>
          <use xlink:href="#img-a560cdd0-20" x="140.44" y="64.06" class="color_Democratic" fill="#0000FF" stroke="#FFFFFF"/>
          <use xlink:href="#img-a560cdd0-20" x="146.39" y="58.14" class="color_Democratic" fill="#0000FF" stroke="#FFFFFF"/>
          <use xlink:href="#img-a560cdd0-20" x="152.34" y="63.76" class="color_Democratic" fill="#0000FF" stroke="#FFFFFF"/>
          <use xlink:href="#img-a560cdd0-20" x="158.29" y="58.61" class="color_Democratic" fill="#0000FF" stroke="#FFFFFF"/>
          <use xlink:href="#img-a560cdd0-20" x="164.24" y="59.79" class="color_Democratic" fill="#0000FF" stroke="#FFFFFF"/>
          <use xlink:href="#img-a560cdd0-20" x="170.19" y="61.22" class="color_Democratic" fill="#0000FF" stroke="#FFFFFF"/>
          <use xlink:href="#img-a560cdd0-20" x="176.14" y="58.97" class="color_Democratic" fill="#0000FF" stroke="#FFFFFF"/>
          <use xlink:href="#img-a560cdd0-20" x="182.09" y="73.12" class="color_Democratic" fill="#0000FF" stroke="#FFFFFF"/>
          <use xlink:href="#img-a560cdd0-20" x="188.04" y="47.68" class="color_Democratic" fill="#0000FF" stroke="#FFFFFF"/>
          <use xlink:href="#img-a560cdd0-20" x="193.99" y="44.13" class="color_Democratic" fill="#0000FF" stroke="#FFFFFF"/>
          <use xlink:href="#img-a560cdd0-20" x="199.94" y="43.48" class="color_Democratic" fill="#0000FF" stroke="#FFFFFF"/>
          <use xlink:href="#img-a560cdd0-20" x="205.89" y="50.97" class="color_Democratic" fill="#0000FF" stroke="#FFFFFF"/>
          <use xlink:href="#img-a560cdd0-20" x="211.84" y="59.87" class="color_Democratic" fill="#0000FF" stroke="#FFFFFF"/>
          <use xlink:href="#img-a560cdd0-20" x="217.79" y="64.07" class="color_Democratic" fill="#0000FF" stroke="#FFFFFF"/>
          <use xlink:href="#img-a560cdd0-20" x="223.74" y="67.4" class="color_Democratic" fill="#0000FF" stroke="#FFFFFF"/>
          <use xlink:href="#img-a560cdd0-20" x="229.69" y="65.92" class="color_Democratic" fill="#0000FF" stroke="#FFFFFF"/>
          <use xlink:href="#img-a560cdd0-20" x="235.64" y="61.78" class="color_Democratic" fill="#0000FF" stroke="#FFFFFF"/>
          <use xlink:href="#img-a560cdd0-20" x="241.59" y="89.32" class="color_Democratic" fill="#0000FF" stroke="#FFFFFF"/>
          <use xlink:href="#img-a560cdd0-20" x="247.55" y="89.68" class="color_Democratic" fill="#0000FF" stroke="#FFFFFF"/>
          <use xlink:href="#img-a560cdd0-20" x="253.5" y="62.68" class="color_Democratic" fill="#0000FF" stroke="#FFFFFF"/>
          <use xlink:href="#img-a560cdd0-20" x="259.45" y="70.96" class="color_Democratic" fill="#0000FF" stroke="#FFFFFF"/>
          <use xlink:href="#img-a560cdd0-20" x="265.4" y="80.46" class="color_Democratic" fill="#0000FF" stroke="#FFFFFF"/>
          <use xlink:href="#img-a560cdd0-20" x="271.35" y="76.56" class="color_Democratic" fill="#0000FF" stroke="#FFFFFF"/>
          <use xlink:href="#img-a560cdd0-20" x="277.3" y="75.59" class="color_Democratic" fill="#0000FF" stroke="#FFFFFF"/>
          <use xlink:href="#img-a560cdd0-20" x="283.25" y="74.18" class="color_Democratic" fill="#0000FF" stroke="#FFFFFF"/>
          <use xlink:href="#img-a560cdd0-20" x="289.2" y="75.03" class="color_Democratic" fill="#0000FF" stroke="#FFFFFF"/>
          <use xlink:href="#img-a560cdd0-20" x="295.15" y="74.64" class="color_Democratic" fill="#0000FF" stroke="#FFFFFF"/>
          <use xlink:href="#img-a560cdd0-20" x="301.1" y="68.38" class="color_Democratic" fill="#0000FF" stroke="#FFFFFF"/>
          <use xlink:href="#img-a560cdd0-20" x="307.05" y="69.76" class="color_Democratic" fill="#0000FF" stroke="#FFFFFF"/>
        </g>
      </g>
      <g stroke-width="0.53" fill="#000000" fill-opacity="0.000" stroke-dasharray="none" id="img-a560cdd0-21">
        <path fill="none" d="M33.33,44.46 L 39.28 32.49 45.23 64.9 51.18 75.93 57.13 70.52 63.08 73.4 69.03 67.63 74.98 61.13 80.93 116.34 92.83 71.56 98.78 75.79 104.74 64.37 110.69 66.49 116.64 64.75 122.59 66.24 128.54 70.7 134.49 65.37 140.44 64.06 146.39 58.14 152.34 63.76 158.29 58.61 164.24 59.79 170.19 61.22 176.14 58.97 182.09 73.12 188.04 47.68 193.99 44.13 199.94 43.48 205.89 50.97 211.84 59.87 217.79 64.07 223.74 67.4 229.69 65.92 235.64 61.78 241.59 89.32 247.55 89.68 253.5 62.68 259.45 70.96 265.4 80.46 271.35 76.56 277.3 75.59 283.25 74.18 289.2 75.03 295.15 74.64 301.1 68.38 307.05 69.76" class="geometry color_Democratic" stroke="#0000FF"/>
        <path fill="none" d="M80.93,119.24 L 92.83 64.58 98.78 60.52 104.74 71.78 110.69 70.14 116.64 71.57 122.59 70.94 128.54 82.6 134.49 71.33 140.44 72.71 146.39 78.64 152.34 72.69 158.29 107.01 164.24 76.56 170.19 75.01 176.14 78.59 182.09 63.02 188.04 89.27 193.99 92.02 199.94 92.66 205.89 85.18 211.84 85.8 217.79 72.08 223.74 68.75 229.69 70.23 235.64 74.37 241.59 78.81 247.55 48.16 253.5 73.99 259.45 68.79 265.4 55.9 271.35 59.92 277.3 74.78 283.25 69.37 289.2 61.9 295.15 61.92 301.1 68.71 307.05 67.67" class="geometry color_Republican" stroke="#FF0000"/>
      </g>
    </g>
  </g>
</g>
  <g class="guide ylabels" font-size="4.76" font-family="'PT Sans Caption','Helvetica Neue','Helvetica',sans-serif" fill="#6C606B" id="img-a560cdd0-22">
    <text x="24.38" y="119.24" text-anchor="end" dy="0.35em">0</text>
    <text x="24.38" y="93.66" text-anchor="end" dy="0.35em">25</text>
    <text x="24.38" y="68.07" text-anchor="end" dy="0.35em">50</text>
    <text x="24.38" y="42.49" text-anchor="end" dy="0.35em">75</text>
    <text x="24.38" y="16.91" text-anchor="end" dy="0.35em">100</text>
  </g>
  <g font-size="6.35" font-family="'PT Sans','Helvetica Neue','Helvetica',sans-serif" fill="#564A55" stroke="#000000" stroke-opacity="0.000" id="img-a560cdd0-23">
    <text x="9.95" y="66.07" text-anchor="middle" dy="0.35em" transform="rotate(-90, 9.95, 68.07)">Popular Vote (%)</text>
  </g>
  <g font-size="6.35" font-family="'PT Sans','Helvetica Neue','Helvetica',sans-serif" fill="#564A55" stroke="#000000" stroke-opacity="0.000" id="img-a560cdd0-24">
    <text x="170.19" y="12.91" text-anchor="middle">North Carolina</text>
  </g>
</g>
<defs>
  <clipPath id="img-a560cdd0-12">
  <path d="M25.38,14.91 L 315 14.91 315 121.24 25.38 121.24" />
</clipPath>
  <g id="img-a560cdd0-20">
    <circle cx="0" cy="0" r="0.9"/>
  </g>
</defs>
</svg>
