<svg xmlns="http://www.w3.org/2000/svg" xmlns:xlink="http://www.w3.org/1999/xlink" version="1.2" width="238.1mm" height="599.924" viewBox="0 0 238.1 158.73" stroke-width=".3" font-size="3.88"><path d="M0 0h238.1v158.73H0z" stroke="#000" stroke-opacity="0" fill="#222831"/><g class="plotroot xscalable yscalable"><g class="guide colorkey"><g class="color_Democratic"><text x="51.52" y="148.78" dy=".35em" fill="#A1A1A1" font-size="3.7" font-family="'PT Sans','Helvetica Neue','Helvetica',sans-serif">Democratic</text><path d="M48.29 147.66h2.22v2.22h-2.22z" fill="#00F" stroke="#000" stroke-opacity="0"/></g><g class="color_Republican"><text x="29.6" y="148.78" dy=".35em" fill="#A1A1A1" font-size="3.7" font-family="'PT Sans','Helvetica Neue','Helvetica',sans-serif">Republican</text><path d="M26.38 147.66h2.22v2.22h-2.22z" fill="#F00" stroke="#000" stroke-opacity="0"/></g><text x="26.38" y="145.28" fill="#A1A1A1" font-size="6.35" font-family="'PT Sans','Helvetica Neue','Helvetica',sans-serif" stroke="#000" stroke-opacity="0">Party</text></g><text x="129.24" y="130.46" text-anchor="middle" dy=".6em" font-size="6.35" font-family="'PT Sans','Helvetica Neue','Helvetica',sans-serif" fill="#A1A1A1" stroke="#000" stroke-opacity="0">Year</text><g class="guide xlabels" font-size="4.76" font-family="'PT Sans Caption','Helvetica Neue','Helvetica',sans-serif" fill="#A1A1A1" text-anchor="middle"><text x="27.38" y="121.95" dy=".6em">1888</text><text x="40.11" y="121.95" dy=".6em">1896</text><text x="52.84" y="121.95" dy=".6em">1904</text><text x="65.58" y="121.95" dy=".6em">1912</text><text x="78.31" y="121.95" dy=".6em">1920</text><text x="91.04" y="121.95" dy=".6em">1928</text><text x="103.77" y="121.95" dy=".6em">1936</text><text x="116.51" y="121.95" dy=".6em">1944</text><text x="129.24" y="121.95" dy=".6em">1952</text><text x="141.97" y="121.95" dy=".6em">1960</text><text x="154.7" y="121.95" dy=".6em">1968</text><text x="167.43" y="121.95" dy=".6em">1976</text><text x="180.17" y="121.95" dy=".6em">1984</text><text x="192.9" y="121.95" dy=".6em">1992</text><text x="205.63" y="121.95" dy=".6em">2000</text><text x="218.36" y="121.95" dy=".6em">2008</text><text x="231.1" y="121.95" dy=".6em">2016</text></g><g clip-path="url(#a)"><path d="M25.38 12.91H233.1v108.04H25.38z" pointer-events="visible" fill="#222831" stroke="#000" stroke-opacity="0" class="guide background"/><g class="guide ygridlines xfixed" stroke-dasharray="0.5,0.5" stroke-width=".2" stroke="#575757" fill="none"><path d="M25.38 118.95H233.1M25.38 92.94H233.1M25.38 66.93H233.1M25.38 40.92H233.1M25.38 14.91H233.1"/></g><g class="guide xgridlines yfixed" stroke-dasharray="0.5,0.5" stroke-width=".2" stroke="#575757" fill="none"><path d="M27.38 12.91v108.04M40.11 12.91v108.04M52.84 12.91v108.04M65.58 12.91v108.04M78.31 12.91v108.04M91.04 12.91v108.04M103.77 12.91v108.04M116.51 12.91v108.04M129.24 12.91v108.04M141.97 12.91v108.04M154.7 12.91v108.04M167.43 12.91v108.04M180.17 12.91v108.04M192.9 12.91v108.04M205.63 12.91v108.04M218.36 12.91v108.04M231.1 12.91v108.04"/></g><g class="plotpanel"><g class="geometry"><use xlink:href="#b" x="33.75" y="68.49" stroke="#B3867B" fill="#F00" class="color_Republican"/><use xlink:href="#b" x="40.11" y="61.14" stroke="#B3867B" fill="#F00" class="color_Republican"/><use xlink:href="#b" x="46.48" y="54.32" stroke="#B3867B" fill="#F00" class="color_Republican"/><use xlink:href="#b" x="52.84" y="40.79" stroke="#B3867B" fill="#F00" class="color_Republican"/><use xlink:href="#b" x="59.21" y="55.46" stroke="#B3867B" fill="#F00" class="color_Republican"/><use xlink:href="#b" x="65.58" y="91.21" stroke="#B3867B" fill="#F00" class="color_Republican"/><use xlink:href="#b" x="71.94" y="70.74" stroke="#B3867B" fill="#F00" class="color_Republican"/><use xlink:href="#b" x="78.31" y="38.02" stroke="#B3867B" fill="#F00" class="color_Republican"/><use xlink:href="#b" x="84.67" y="69.34" stroke="#B3867B" fill="#F00" class="color_Republican"/><use xlink:href="#b" x="91.04" y="61.94" stroke="#B3867B" fill="#F00" class="color_Republican"/><use xlink:href="#b" x="97.41" y="89.82" stroke="#B3867B" fill="#F00" class="color_Republican"/><use xlink:href="#b" x="103.77" y="91.3" stroke="#B3867B" fill="#F00" class="color_Republican"/><use xlink:href="#b" x="110.14" y="61.67" stroke="#B3867B" fill="#F00" class="color_Republican"/><use xlink:href="#b" x="116.51" y="62.94" stroke="#B3867B" fill="#F00" class="color_Republican"/><use xlink:href="#b" x="122.87" y="64.68" stroke="#B3867B" fill="#F00" class="color_Republican"/><use xlink:href="#b" x="129.24" y="45.11" stroke="#B3867B" fill="#F00" class="color_Republican"/><use xlink:href="#b" x="135.6" y="54.74" stroke="#B3867B" fill="#F00" class="color_Republican"/><use xlink:href="#b" x="141.97" y="61.29" stroke="#B3867B" fill="#F00" class="color_Republican"/><use xlink:href="#b" x="148.34" y="75.38" stroke="#B3867B" fill="#F00" class="color_Republican"/><use xlink:href="#b" x="154.7" y="60.75" stroke="#B3867B" fill="#F00" class="color_Republican"/><use xlink:href="#b" x="161.07" y="54.38" stroke="#B3867B" fill="#F00" class="color_Republican"/><use xlink:href="#b" x="167.43" y="65.21" stroke="#B3867B" fill="#F00" class="color_Republican"/><use xlink:href="#b" x="173.8" y="52.12" stroke="#B3867B" fill="#F00" class="color_Republican"/><use xlink:href="#b" x="180.17" y="51.49" stroke="#B3867B" fill="#F00" class="color_Republican"/><use xlink:href="#b" x="186.53" y="60.66" stroke="#B3867B" fill="#F00" class="color_Republican"/><use xlink:href="#b" x="192.9" y="72.95" stroke="#B3867B" fill="#F00" class="color_Republican"/><use xlink:href="#b" x="199.26" y="70.12" stroke="#B3867B" fill="#F00" class="color_Republican"/><use xlink:href="#b" x="205.63" y="55.84" stroke="#B3867B" fill="#F00" class="color_Republican"/><use xlink:href="#b" x="212" y="53.55" stroke="#B3867B" fill="#F00" class="color_Republican"/><use xlink:href="#b" x="218.36" y="63.65" stroke="#B3867B" fill="#F00" class="color_Republican"/><use xlink:href="#b" x="224.73" y="58.27" stroke="#B3867B" fill="#F00" class="color_Republican"/><use xlink:href="#b" x="33.75" y="118.95" stroke="#988BAD" fill="#00F" class="color_Democratic"/><use xlink:href="#b" x="40.11" y="73.54" stroke="#988BAD" fill="#00F" class="color_Democratic"/><use xlink:href="#b" x="46.48" y="81.99" stroke="#988BAD" fill="#00F" class="color_Democratic"/><use xlink:href="#b" x="52.84" y="97.74" stroke="#988BAD" fill="#00F" class="color_Democratic"/><use xlink:href="#b" x="59.21" y="82.76" stroke="#988BAD" fill="#00F" class="color_Democratic"/><use xlink:href="#b" x="65.58" y="83.44" stroke="#988BAD" fill="#00F" class="color_Democratic"/><use xlink:href="#b" x="71.94" y="69.18" stroke="#988BAD" fill="#00F" class="color_Democratic"/><use xlink:href="#b" x="78.31" y="100.03" stroke="#988BAD" fill="#00F" class="color_Democratic"/><use xlink:href="#b" x="84.67" y="111.71" stroke="#988BAD" fill="#00F" class="color_Democratic"/><use xlink:href="#b" x="91.04" y="72.69" stroke="#988BAD" fill="#00F" class="color_Democratic"/><use xlink:href="#b" x="97.41" y="46.55" stroke="#988BAD" fill="#00F" class="color_Democratic"/><use xlink:href="#b" x="103.77" y="56.94" stroke="#988BAD" fill="#00F" class="color_Democratic"/><use xlink:href="#b" x="110.14" y="72.99" stroke="#988BAD" fill="#00F" class="color_Democratic"/><use xlink:href="#b" x="116.51" y="71.63" stroke="#988BAD" fill="#00F" class="color_Democratic"/><use xlink:href="#b" x="122.87" y="73.79" stroke="#988BAD" fill="#00F" class="color_Democratic"/><use xlink:href="#b" x="129.24" y="89.41" stroke="#988BAD" fill="#00F" class="color_Democratic"/><use xlink:href="#b" x="135.6" y="79.32" stroke="#988BAD" fill="#00F" class="color_Democratic"/><use xlink:href="#b" x="141.97" y="72.63" stroke="#988BAD" fill="#00F" class="color_Democratic"/><use xlink:href="#b" x="148.34" y="58.64" stroke="#988BAD" fill="#00F" class="color_Democratic"/><use xlink:href="#b" x="154.7" y="79.18" stroke="#988BAD" fill="#00F" class="color_Democratic"/><use xlink:href="#b" x="161.07" y="81.72" stroke="#988BAD" fill="#00F" class="color_Democratic"/><use xlink:href="#b" x="167.43" y="71.3" stroke="#988BAD" fill="#00F" class="color_Democratic"/><use xlink:href="#b" x="173.8" y="91.63" stroke="#988BAD" fill="#00F" class="color_Democratic"/><use xlink:href="#b" x="180.17" y="83.79" stroke="#988BAD" fill="#00F" class="color_Democratic"/><use xlink:href="#b" x="186.53" y="74.24" stroke="#988BAD" fill="#00F" class="color_Democratic"/><use xlink:href="#b" x="192.9" y="85.47" stroke="#988BAD" fill="#00F" class="color_Democratic"/><use xlink:href="#b" x="199.26" y="77.2" stroke="#988BAD" fill="#00F" class="color_Democratic"/><use xlink:href="#b" x="205.63" y="84.56" stroke="#988BAD" fill="#00F" class="color_Democratic"/><use xlink:href="#b" x="212" y="82.02" stroke="#988BAD" fill="#00F" class="color_Democratic"/><use xlink:href="#b" x="218.36" y="72.65" stroke="#988BAD" fill="#00F" class="color_Democratic"/><use xlink:href="#b" x="224.73" y="78.7" stroke="#988BAD" fill="#00F" class="color_Democratic"/></g><g fill-opacity="0"><path fill="none" d="M33.75 118.95l6.36-45.41 6.37 8.45 6.36 15.75 6.37-14.98 6.37.68 6.36-14.26 6.37 30.85 6.36 11.68 6.37-39.02 6.37-26.14 6.36 10.39 6.37 16.05 6.37-1.36 6.36 2.16 6.37 15.62 6.36-10.09 6.37-6.69 6.37-13.99 6.36 20.54 6.37 2.54 6.36-10.42 6.37 20.33 6.37-7.84 6.36-9.55 6.37 11.23 6.36-8.27 6.37 7.36 6.37-2.54 6.36-9.37 6.37 6.05" stroke="#00F" class="geometry color_Democratic"/><path fill="none" d="M33.75 68.49l6.36-7.35 6.37-6.82 6.36-13.53 6.37 14.67 6.37 35.75 6.36-20.47 6.37-32.72 6.36 31.32 6.37-7.4 6.37 27.88 6.36 1.48 6.37-29.63 6.37 1.27 6.36 1.74 6.37-19.57 6.36 9.63 6.37 6.55 6.37 14.09 6.36-14.63 6.37-6.37 6.36 10.83 6.37-13.09 6.37-.63 6.36 9.17 6.37 12.29 6.36-2.83 6.37-14.28 6.37-2.29 6.36 10.1 6.37-5.38" stroke="#F00" class="geometry color_Republican"/></g></g></g><g class="guide ylabels" font-size="4.76" font-family="'PT Sans Caption','Helvetica Neue','Helvetica',sans-serif" fill="#A1A1A1" text-anchor="end"><text x="24.38" y="118.95" dy=".35em">0</text><text x="24.38" y="92.94" dy=".35em">25</text><text x="24.38" y="66.93" dy=".35em">50</text><text x="24.38" y="40.92" dy=".35em">75</text><text x="24.38" y="14.91" dy=".35em">100</text></g><text x="9.95" y="64.93" text-anchor="middle" dy=".35em" transform="rotate(-90 9.95 66.93)" font-size="6.35" font-family="'PT Sans','Helvetica Neue','Helvetica',sans-serif" fill="#A1A1A1" stroke="#000" stroke-opacity="0">Popular Vote (%)</text><text x="129.24" y="5" text-anchor="middle" dy=".6em" font-size="6.35" font-family="'PT Sans','Helvetica Neue','Helvetica',sans-serif" fill="#A1A1A1" stroke="#000" stroke-opacity="0">North Dakota</text></g><defs><clipPath id="a"><path d="M25.38 12.91H233.1v108.04H25.38"/></clipPath><circle r=".9" id="b"/></defs></svg>