<svg xmlns="http://www.w3.org/2000/svg" xmlns:xlink="http://www.w3.org/1999/xlink" version="1.2" width="238.1mm" height="599.924" viewBox="0 0 238.1 158.73" stroke-width=".3" font-size="3.88"><path d="M0 0h238.1v158.73H0z" stroke="#000" stroke-opacity="0" fill="#222831"/><g class="plotroot xscalable yscalable"><g class="guide colorkey"><g class="color_Democratic"><text x="41.05" y="148.78" dy=".35em" fill="#A1A1A1" font-size="3.7" font-family="'PT Sans','Helvetica Neue','Helvetica',sans-serif">Democratic</text><path d="M37.82 147.66h2.22v2.22h-2.22z" fill="#00F" stroke="#000" stroke-opacity="0"/></g><g class="color_Republican"><text x="19.13" y="148.78" dy=".35em" fill="#A1A1A1" font-size="3.7" font-family="'PT Sans','Helvetica Neue','Helvetica',sans-serif">Republican</text><path d="M15.91 147.66h2.22v2.22h-2.22z" fill="#F00" stroke="#000" stroke-opacity="0"/></g><text x="15.91" y="145.28" fill="#A1A1A1" font-size="6.35" font-family="'PT Sans','Helvetica Neue','Helvetica',sans-serif" stroke="#000" stroke-opacity="0">Party</text></g><text x="124" y="130.46" text-anchor="middle" dy=".6em" font-size="6.35" font-family="'PT Sans','Helvetica Neue','Helvetica',sans-serif" fill="#A1A1A1" stroke="#000" stroke-opacity="0">Year</text><g class="plotpanel" clip-path="url(#a)"><g class="guide xlabels" font-size="4.76" font-family="'PT Sans Caption','Helvetica Neue','Helvetica',sans-serif" fill="#A1A1A1" text-anchor="middle"><text x="37.29" y="121.95" dy=".6em">1824</text><text x="49.28" y="121.95" dy=".6em">1836</text><text x="61.26" y="121.95" dy=".6em">1848</text><text x="73.25" y="121.95" dy=".6em">1860</text><text x="85.24" y="121.95" dy=".6em">1872</text><text x="97.23" y="121.95" dy=".6em">1884</text><text x="109.22" y="121.95" dy=".6em">1896</text><text x="121.2" y="121.95" dy=".6em">1908</text><text x="133.19" y="121.95" dy=".6em">1920</text><text x="145.18" y="121.95" dy=".6em">1932</text><text x="157.17" y="121.95" dy=".6em">1944</text><text x="169.16" y="121.95" dy=".6em">1956</text><text x="181.14" y="121.95" dy=".6em">1968</text><text x="193.13" y="121.95" dy=".6em">1980</text><text x="205.12" y="121.95" dy=".6em">1992</text><text x="217.11" y="121.95" dy=".6em">2004</text><text x="229.1" y="121.95" dy=".6em">2016</text></g><g clip-path="url(#b)"><path d="M35.29 64.98H231.1v55.98H35.29z" pointer-events="visible" fill="#222831" stroke="#000" stroke-opacity="0" class="guide background"/><g class="guide ygridlines xfixed" stroke-dasharray="0.5,0.5" stroke-width=".2" stroke="#575757" fill="none"><path d="M35.29 118.95H231.1M35.29 92.97H231.1M35.29 66.98H231.1"/></g><g class="guide xgridlines yfixed" stroke-dasharray="0.5,0.5" stroke-width=".2" stroke="#575757" fill="none"><path d="M37.29 64.98v55.97M49.28 64.98v55.97M61.26 64.98v55.97M73.25 64.98v55.97M85.24 64.98v55.97M97.23 64.98v55.97M109.22 64.98v55.97M121.2 64.98v55.97M133.19 64.98v55.97M145.18 64.98v55.97M157.17 64.98v55.97M169.16 64.98v55.97M181.14 64.98v55.97M193.13 64.98v55.97M205.12 64.98v55.97M217.11 64.98v55.97M229.1 64.98v55.97"/></g><g class="plotpanel"><g fill-opacity="0"><path fill="none" d="M41.28 89.77l4 .57 4 2.17 3.99 2.11 4-1.44 3.99 3.67 4-4.41 4 2.95 3.99 8.22 4-8.02 3.99-1.24 4 1.78 4-3.69 3.99 1.42 4-.31 3.99.11 4 1.32 4-.34 3.99.65 4 4.07 3.99-2.85 4 .65 4-3.87 3.99 7.85 4 2.75 3.99-6.2 4-8.71 4-1.72 3.99 3.11 4 .71 3.99 2.04 4 2.68 4 1.26 3.99-4.14 4-5.85 3.99 9.6 4 2.7 4-6.71 3.99 4.91 4 .16 3.99-2.62 4 1.41 4-3.27 3.99.5 4 .04 3.99-2.47 4 .99" stroke="#00F" class="geometry color_Democratic"/><path fill="none" d="M69.26 101.74l3.99-3.4 4-8 3.99 1.24 4-1.6 4 4.03 3.99-.21 4 .05 3.99.24 4 2.46 4-4.16 3.99-.3 4-2.53 3.99 2.51 4 14.81 4-11.96 3.99-7.47 4 3.27 3.99-2.1 4 9.63 4 1.65 3.99-4.34 4-.56 3.99.46 4-5.33 4-1.1 3.99 3.98 4 5.85 3.99-2.55 4-9.01 4 6.45 3.99-1.25 4-4.3 3.99 2.87 4 8.35 4-1.72 3.99-3.68 4-1.51 3.99 2.61 4-.79" stroke="#F00" class="geometry color_Republican"/></g><g class="geometry"><use xlink:href="#c" x="69.26" y="101.74" stroke="#B3867B" fill="#F00" class="color_Republican"/><use xlink:href="#c" x="73.25" y="98.34" stroke="#B3867B" fill="#F00" class="color_Republican"/><use xlink:href="#c" x="77.25" y="90.34" stroke="#B3867B" fill="#F00" class="color_Republican"/><use xlink:href="#c" x="81.24" y="91.58" stroke="#B3867B" fill="#F00" class="color_Republican"/><use xlink:href="#c" x="85.24" y="89.98" stroke="#B3867B" fill="#F00" class="color_Republican"/><use xlink:href="#c" x="89.24" y="94.01" stroke="#B3867B" fill="#F00" class="color_Republican"/><use xlink:href="#c" x="93.23" y="93.8" stroke="#B3867B" fill="#F00" class="color_Republican"/><use xlink:href="#c" x="97.23" y="93.85" stroke="#B3867B" fill="#F00" class="color_Republican"/><use xlink:href="#c" x="101.22" y="94.09" stroke="#B3867B" fill="#F00" class="color_Republican"/><use xlink:href="#c" x="105.22" y="96.55" stroke="#B3867B" fill="#F00" class="color_Republican"/><use xlink:href="#c" x="109.22" y="92.39" stroke="#B3867B" fill="#F00" class="color_Republican"/><use xlink:href="#c" x="113.21" y="92.09" stroke="#B3867B" fill="#F00" class="color_Republican"/><use xlink:href="#c" x="117.21" y="89.56" stroke="#B3867B" fill="#F00" class="color_Republican"/><use xlink:href="#c" x="121.2" y="92.07" stroke="#B3867B" fill="#F00" class="color_Republican"/><use xlink:href="#c" x="125.2" y="106.88" stroke="#B3867B" fill="#F00" class="color_Republican"/><use xlink:href="#c" x="129.2" y="94.92" stroke="#B3867B" fill="#F00" class="color_Republican"/><use xlink:href="#c" x="133.19" y="87.45" stroke="#B3867B" fill="#F00" class="color_Republican"/><use xlink:href="#c" x="137.19" y="90.72" stroke="#B3867B" fill="#F00" class="color_Republican"/><use xlink:href="#c" x="141.18" y="88.62" stroke="#B3867B" fill="#F00" class="color_Republican"/><use xlink:href="#c" x="145.18" y="98.25" stroke="#B3867B" fill="#F00" class="color_Republican"/><use xlink:href="#c" x="149.18" y="99.9" stroke="#B3867B" fill="#F00" class="color_Republican"/><use xlink:href="#c" x="153.17" y="95.56" stroke="#B3867B" fill="#F00" class="color_Republican"/><use xlink:href="#c" x="157.17" y="95" stroke="#B3867B" fill="#F00" class="color_Republican"/><use xlink:href="#c" x="161.16" y="95.46" stroke="#B3867B" fill="#F00" class="color_Republican"/><use xlink:href="#c" x="165.16" y="90.13" stroke="#B3867B" fill="#F00" class="color_Republican"/><use xlink:href="#c" x="169.16" y="89.03" stroke="#B3867B" fill="#F00" class="color_Republican"/><use xlink:href="#c" x="173.15" y="93.01" stroke="#B3867B" fill="#F00" class="color_Republican"/><use xlink:href="#c" x="177.15" y="98.86" stroke="#B3867B" fill="#F00" class="color_Republican"/><use xlink:href="#c" x="181.14" y="96.31" stroke="#B3867B" fill="#F00" class="color_Republican"/><use xlink:href="#c" x="185.14" y="87.3" stroke="#B3867B" fill="#F00" class="color_Republican"/><use xlink:href="#c" x="189.14" y="93.75" stroke="#B3867B" fill="#F00" class="color_Republican"/><use xlink:href="#c" x="193.13" y="92.5" stroke="#B3867B" fill="#F00" class="color_Republican"/><use xlink:href="#c" x="197.13" y="88.2" stroke="#B3867B" fill="#F00" class="color_Republican"/><use xlink:href="#c" x="201.12" y="91.07" stroke="#B3867B" fill="#F00" class="color_Republican"/><use xlink:href="#c" x="205.12" y="99.42" stroke="#B3867B" fill="#F00" class="color_Republican"/><use xlink:href="#c" x="209.12" y="97.7" stroke="#B3867B" fill="#F00" class="color_Republican"/><use xlink:href="#c" x="213.11" y="94.02" stroke="#B3867B" fill="#F00" class="color_Republican"/><use xlink:href="#c" x="217.11" y="92.51" stroke="#B3867B" fill="#F00" class="color_Republican"/><use xlink:href="#c" x="221.1" y="95.12" stroke="#B3867B" fill="#F00" class="color_Republican"/><use xlink:href="#c" x="225.1" y="94.33" stroke="#B3867B" fill="#F00" class="color_Republican"/><use xlink:href="#c" x="41.28" y="89.77" stroke="#988BAD" fill="#00F" class="color_Democratic"/><use xlink:href="#c" x="45.28" y="90.34" stroke="#988BAD" fill="#00F" class="color_Democratic"/><use xlink:href="#c" x="49.28" y="92.51" stroke="#988BAD" fill="#00F" class="color_Democratic"/><use xlink:href="#c" x="53.27" y="94.62" stroke="#988BAD" fill="#00F" class="color_Democratic"/><use xlink:href="#c" x="57.27" y="93.18" stroke="#988BAD" fill="#00F" class="color_Democratic"/><use xlink:href="#c" x="61.26" y="96.85" stroke="#988BAD" fill="#00F" class="color_Democratic"/><use xlink:href="#c" x="65.26" y="92.44" stroke="#988BAD" fill="#00F" class="color_Democratic"/><use xlink:href="#c" x="69.26" y="95.39" stroke="#988BAD" fill="#00F" class="color_Democratic"/><use xlink:href="#c" x="73.25" y="103.61" stroke="#988BAD" fill="#00F" class="color_Democratic"/><use xlink:href="#c" x="77.25" y="95.59" stroke="#988BAD" fill="#00F" class="color_Democratic"/><use xlink:href="#c" x="81.24" y="94.35" stroke="#988BAD" fill="#00F" class="color_Democratic"/><use xlink:href="#c" x="85.24" y="96.13" stroke="#988BAD" fill="#00F" class="color_Democratic"/><use xlink:href="#c" x="89.24" y="92.44" stroke="#988BAD" fill="#00F" class="color_Democratic"/><use xlink:href="#c" x="93.23" y="93.86" stroke="#988BAD" fill="#00F" class="color_Democratic"/><use xlink:href="#c" x="97.23" y="93.55" stroke="#988BAD" fill="#00F" class="color_Democratic"/><use xlink:href="#c" x="101.22" y="93.66" stroke="#988BAD" fill="#00F" class="color_Democratic"/><use xlink:href="#c" x="105.22" y="94.98" stroke="#988BAD" fill="#00F" class="color_Democratic"/><use xlink:href="#c" x="109.22" y="94.64" stroke="#988BAD" fill="#00F" class="color_Democratic"/><use xlink:href="#c" x="113.21" y="95.29" stroke="#988BAD" fill="#00F" class="color_Democratic"/><use xlink:href="#c" x="117.21" y="99.36" stroke="#988BAD" fill="#00F" class="color_Democratic"/><use xlink:href="#c" x="121.2" y="96.51" stroke="#988BAD" fill="#00F" class="color_Democratic"/><use xlink:href="#c" x="125.2" y="97.16" stroke="#988BAD" fill="#00F" class="color_Democratic"/><use xlink:href="#c" x="129.2" y="93.29" stroke="#988BAD" fill="#00F" class="color_Democratic"/><use xlink:href="#c" x="133.19" y="101.14" stroke="#988BAD" fill="#00F" class="color_Democratic"/><use xlink:href="#c" x="137.19" y="103.89" stroke="#988BAD" fill="#00F" class="color_Democratic"/><use xlink:href="#c" x="141.18" y="97.69" stroke="#988BAD" fill="#00F" class="color_Democratic"/><use xlink:href="#c" x="145.18" y="88.98" stroke="#988BAD" fill="#00F" class="color_Democratic"/><use xlink:href="#c" x="149.18" y="87.26" stroke="#988BAD" fill="#00F" class="color_Democratic"/><use xlink:href="#c" x="153.17" y="90.37" stroke="#988BAD" fill="#00F" class="color_Democratic"/><use xlink:href="#c" x="157.17" y="91.08" stroke="#988BAD" fill="#00F" class="color_Democratic"/><use xlink:href="#c" x="161.16" y="93.12" stroke="#988BAD" fill="#00F" class="color_Democratic"/><use xlink:href="#c" x="165.16" y="95.8" stroke="#988BAD" fill="#00F" class="color_Democratic"/><use xlink:href="#c" x="169.16" y="97.06" stroke="#988BAD" fill="#00F" class="color_Democratic"/><use xlink:href="#c" x="173.15" y="92.92" stroke="#988BAD" fill="#00F" class="color_Democratic"/><use xlink:href="#c" x="177.15" y="87.07" stroke="#988BAD" fill="#00F" class="color_Democratic"/><use xlink:href="#c" x="181.14" y="96.67" stroke="#988BAD" fill="#00F" class="color_Democratic"/><use xlink:href="#c" x="185.14" y="99.37" stroke="#988BAD" fill="#00F" class="color_Democratic"/><use xlink:href="#c" x="189.14" y="92.66" stroke="#988BAD" fill="#00F" class="color_Democratic"/><use xlink:href="#c" x="193.13" y="97.57" stroke="#988BAD" fill="#00F" class="color_Democratic"/><use xlink:href="#c" x="197.13" y="97.73" stroke="#988BAD" fill="#00F" class="color_Democratic"/><use xlink:href="#c" x="201.12" y="95.11" stroke="#988BAD" fill="#00F" class="color_Democratic"/><use xlink:href="#c" x="205.12" y="96.52" stroke="#988BAD" fill="#00F" class="color_Democratic"/><use xlink:href="#c" x="209.12" y="93.25" stroke="#988BAD" fill="#00F" class="color_Democratic"/><use xlink:href="#c" x="213.11" y="93.75" stroke="#988BAD" fill="#00F" class="color_Democratic"/><use xlink:href="#c" x="217.11" y="93.79" stroke="#988BAD" fill="#00F" class="color_Democratic"/><use xlink:href="#c" x="221.1" y="91.32" stroke="#988BAD" fill="#00F" class="color_Democratic"/><use xlink:href="#c" x="225.1" y="92.31" stroke="#988BAD" fill="#00F" class="color_Democratic"/></g></g></g><g class="guide ylabels" font-size="4.76" font-family="'PT Sans Caption','Helvetica Neue','Helvetica',sans-serif" fill="#A1A1A1" text-anchor="end"><text x="34.29" y="118.95" dy=".35em">0</text><text x="34.29" y="92.97" dy=".35em">50</text><text x="34.29" y="66.98" dy=".35em">100</text></g><text x="19.86" y="90.97" text-anchor="middle" dy=".35em" transform="rotate(-90 19.86 92.97)" font-size="6.35" font-family="'PT Sans','Helvetica Neue','Helvetica',sans-serif" fill="#A1A1A1" stroke="#000" stroke-opacity="0">Popular</text><g clip-path="url(#d)"><path d="M35.29 7H231.1v53.98H35.29z" pointer-events="visible" fill="#222831" stroke="#000" stroke-opacity="0" class="guide background"/><g class="guide ygridlines xfixed" stroke-dasharray="0.5,0.5" stroke-width=".2" stroke="#575757" fill="none"><path d="M35.29 58.98H231.1M35.29 33.99H231.1M35.29 9H231.1"/></g><g class="guide xgridlines yfixed" stroke-dasharray="0.5,0.5" stroke-width=".2" stroke="#575757" fill="none"><path d="M37.29 7v53.98M49.28 7v53.98M61.26 7v53.98M73.25 7v53.98M85.24 7v53.98M97.23 7v53.98M109.22 7v53.98M121.2 7v53.98M133.19 7v53.98M145.18 7v53.98M157.17 7v53.98M169.16 7v53.98M181.14 7v53.98M193.13 7v53.98M205.12 7v53.98M217.11 7v53.98M229.1 7v53.98"/></g><g class="plotpanel"><g fill-opacity="0"><path fill="none" d="M41.28 24.89l4-4.18 4 9.37 3.99 18.7 4-20.7 3.99 9.01 4-21 4 13.51L73.25 57l4-2.53 3.99-9.09 4 4.23 4-15.55 3.99 3.92 4-6.3 3.99 6.36 4-10.24 4 11.5 3.99 2.35 4 2.63 3.99-2.07 4-24.17 4 14.87 3.99 14.11 4-.84 3.99 4.61 4-36.24 4-4.8 3.99 6.97 4 1.6 3.99 12.14 4 20.14 4 1.49 3.99-22.12 4-16.14 3.99 27.4 4 16.17 4-26.06 3.99 23.09 4 3.34 3.99-9.12 4-24.04 4-.84 3.99 10.45 4 1.4 3.99-10.55 4 3.07" stroke="#00F" class="geometry color_Democratic"/><path fill="none" d="M69.26 39.73l3.99-10.44 4-15.79 3.99 9.1 4-4.23 4 15.55 3.99-3.93 4 6.3 3.99-6.35 4 12.72 4-13.98 3.99-2.35 4-2.63 3.99 2.06 4 32.46 4-23.15 3.99-14.12 4 2.07 3.99-5.83 4 36.23 4 4.8 3.99-6.96 4-1.6 3.99-8.47 4-23.81 4-1.5 3.99 22.13 4 16.14 3.99-23.13 4-20.35 4 25.97 3.99-23.09 4-3.34 3.99 9.12 4 24.04 4 .84 3.99-10.45 4-1.4 3.99 10.55 4-3.07" stroke="#F00" class="geometry color_Republican"/></g><g class="geometry"><use xlink:href="#e" x="69.26" y="39.73" stroke="#B3867B" fill="#F00" class="color_Republican"/><use xlink:href="#e" x="73.25" y="29.29" stroke="#B3867B" fill="#F00" class="color_Republican"/><use xlink:href="#e" x="77.25" y="13.5" stroke="#B3867B" fill="#F00" class="color_Republican"/><use xlink:href="#e" x="81.24" y="22.6" stroke="#B3867B" fill="#F00" class="color_Republican"/><use xlink:href="#e" x="85.24" y="18.37" stroke="#B3867B" fill="#F00" class="color_Republican"/><use xlink:href="#e" x="89.24" y="33.92" stroke="#B3867B" fill="#F00" class="color_Republican"/><use xlink:href="#e" x="93.23" y="29.99" stroke="#B3867B" fill="#F00" class="color_Republican"/><use xlink:href="#e" x="97.23" y="36.29" stroke="#B3867B" fill="#F00" class="color_Republican"/><use xlink:href="#e" x="101.22" y="29.94" stroke="#B3867B" fill="#F00" class="color_Republican"/><use xlink:href="#e" x="105.22" y="42.66" stroke="#B3867B" fill="#F00" class="color_Republican"/><use xlink:href="#e" x="109.22" y="28.68" stroke="#B3867B" fill="#F00" class="color_Republican"/><use xlink:href="#e" x="113.21" y="26.33" stroke="#B3867B" fill="#F00" class="color_Republican"/><use xlink:href="#e" x="117.21" y="23.7" stroke="#B3867B" fill="#F00" class="color_Republican"/><use xlink:href="#e" x="121.2" y="25.76" stroke="#B3867B" fill="#F00" class="color_Republican"/><use xlink:href="#e" x="125.2" y="58.22" stroke="#B3867B" fill="#F00" class="color_Republican"/><use xlink:href="#e" x="129.2" y="35.07" stroke="#B3867B" fill="#F00" class="color_Republican"/><use xlink:href="#e" x="133.19" y="20.95" stroke="#B3867B" fill="#F00" class="color_Republican"/><use xlink:href="#e" x="137.19" y="23.02" stroke="#B3867B" fill="#F00" class="color_Republican"/><use xlink:href="#e" x="141.18" y="17.19" stroke="#B3867B" fill="#F00" class="color_Republican"/><use xlink:href="#e" x="145.18" y="53.42" stroke="#B3867B" fill="#F00" class="color_Republican"/><use xlink:href="#e" x="149.18" y="58.22" stroke="#B3867B" fill="#F00" class="color_Republican"/><use xlink:href="#e" x="153.17" y="51.26" stroke="#B3867B" fill="#F00" class="color_Republican"/><use xlink:href="#e" x="157.17" y="49.66" stroke="#B3867B" fill="#F00" class="color_Republican"/><use xlink:href="#e" x="161.16" y="41.19" stroke="#B3867B" fill="#F00" class="color_Republican"/><use xlink:href="#e" x="165.16" y="17.38" stroke="#B3867B" fill="#F00" class="color_Republican"/><use xlink:href="#e" x="169.16" y="15.88" stroke="#B3867B" fill="#F00" class="color_Republican"/><use xlink:href="#e" x="173.15" y="38.01" stroke="#B3867B" fill="#F00" class="color_Republican"/><use xlink:href="#e" x="177.15" y="54.15" stroke="#B3867B" fill="#F00" class="color_Republican"/><use xlink:href="#e" x="181.14" y="31.02" stroke="#B3867B" fill="#F00" class="color_Republican"/><use xlink:href="#e" x="185.14" y="10.67" stroke="#B3867B" fill="#F00" class="color_Republican"/><use xlink:href="#e" x="189.14" y="36.64" stroke="#B3867B" fill="#F00" class="color_Republican"/><use xlink:href="#e" x="193.13" y="13.55" stroke="#B3867B" fill="#F00" class="color_Republican"/><use xlink:href="#e" x="197.13" y="10.21" stroke="#B3867B" fill="#F00" class="color_Republican"/><use xlink:href="#e" x="201.12" y="19.33" stroke="#B3867B" fill="#F00" class="color_Republican"/><use xlink:href="#e" x="205.12" y="43.37" stroke="#B3867B" fill="#F00" class="color_Republican"/><use xlink:href="#e" x="209.12" y="44.21" stroke="#B3867B" fill="#F00" class="color_Republican"/><use xlink:href="#e" x="213.11" y="33.76" stroke="#B3867B" fill="#F00" class="color_Republican"/><use xlink:href="#e" x="217.11" y="32.36" stroke="#B3867B" fill="#F00" class="color_Republican"/><use xlink:href="#e" x="221.1" y="42.91" stroke="#B3867B" fill="#F00" class="color_Republican"/><use xlink:href="#e" x="225.1" y="39.84" stroke="#B3867B" fill="#F00" class="color_Republican"/><use xlink:href="#e" x="41.28" y="24.89" stroke="#988BAD" fill="#00F" class="color_Democratic"/><use xlink:href="#e" x="45.28" y="20.71" stroke="#988BAD" fill="#00F" class="color_Democratic"/><use xlink:href="#e" x="49.28" y="30.08" stroke="#988BAD" fill="#00F" class="color_Democratic"/><use xlink:href="#e" x="53.27" y="48.78" stroke="#988BAD" fill="#00F" class="color_Democratic"/><use xlink:href="#e" x="57.27" y="28.08" stroke="#988BAD" fill="#00F" class="color_Democratic"/><use xlink:href="#e" x="61.26" y="37.09" stroke="#988BAD" fill="#00F" class="color_Democratic"/><use xlink:href="#e" x="65.26" y="16.09" stroke="#988BAD" fill="#00F" class="color_Democratic"/><use xlink:href="#e" x="69.26" y="29.6" stroke="#988BAD" fill="#00F" class="color_Democratic"/><use xlink:href="#e" x="73.25" y="57" stroke="#988BAD" fill="#00F" class="color_Democratic"/><use xlink:href="#e" x="77.25" y="54.47" stroke="#988BAD" fill="#00F" class="color_Democratic"/><use xlink:href="#e" x="81.24" y="45.38" stroke="#988BAD" fill="#00F" class="color_Democratic"/><use xlink:href="#e" x="85.24" y="49.61" stroke="#988BAD" fill="#00F" class="color_Democratic"/><use xlink:href="#e" x="89.24" y="34.06" stroke="#988BAD" fill="#00F" class="color_Democratic"/><use xlink:href="#e" x="93.23" y="37.98" stroke="#988BAD" fill="#00F" class="color_Democratic"/><use xlink:href="#e" x="97.23" y="31.68" stroke="#988BAD" fill="#00F" class="color_Democratic"/><use xlink:href="#e" x="101.22" y="38.04" stroke="#988BAD" fill="#00F" class="color_Democratic"/><use xlink:href="#e" x="105.22" y="27.8" stroke="#988BAD" fill="#00F" class="color_Democratic"/><use xlink:href="#e" x="109.22" y="39.3" stroke="#988BAD" fill="#00F" class="color_Democratic"/><use xlink:href="#e" x="113.21" y="41.65" stroke="#988BAD" fill="#00F" class="color_Democratic"/><use xlink:href="#e" x="117.21" y="44.28" stroke="#988BAD" fill="#00F" class="color_Democratic"/><use xlink:href="#e" x="121.2" y="42.21" stroke="#988BAD" fill="#00F" class="color_Democratic"/><use xlink:href="#e" x="125.2" y="18.04" stroke="#988BAD" fill="#00F" class="color_Democratic"/><use xlink:href="#e" x="129.2" y="32.91" stroke="#988BAD" fill="#00F" class="color_Democratic"/><use xlink:href="#e" x="133.19" y="47.02" stroke="#988BAD" fill="#00F" class="color_Democratic"/><use xlink:href="#e" x="137.19" y="46.18" stroke="#988BAD" fill="#00F" class="color_Democratic"/><use xlink:href="#e" x="141.18" y="50.79" stroke="#988BAD" fill="#00F" class="color_Democratic"/><use xlink:href="#e" x="145.18" y="14.55" stroke="#988BAD" fill="#00F" class="color_Democratic"/><use xlink:href="#e" x="149.18" y="9.75" stroke="#988BAD" fill="#00F" class="color_Democratic"/><use xlink:href="#e" x="153.17" y="16.72" stroke="#988BAD" fill="#00F" class="color_Democratic"/><use xlink:href="#e" x="157.17" y="18.32" stroke="#988BAD" fill="#00F" class="color_Democratic"/><use xlink:href="#e" x="161.16" y="30.46" stroke="#988BAD" fill="#00F" class="color_Democratic"/><use xlink:href="#e" x="165.16" y="50.6" stroke="#988BAD" fill="#00F" class="color_Democratic"/><use xlink:href="#e" x="169.16" y="52.09" stroke="#988BAD" fill="#00F" class="color_Democratic"/><use xlink:href="#e" x="173.15" y="29.97" stroke="#988BAD" fill="#00F" class="color_Democratic"/><use xlink:href="#e" x="177.15" y="13.83" stroke="#988BAD" fill="#00F" class="color_Democratic"/><use xlink:href="#e" x="181.14" y="41.23" stroke="#988BAD" fill="#00F" class="color_Democratic"/><use xlink:href="#e" x="185.14" y="57.4" stroke="#988BAD" fill="#00F" class="color_Democratic"/><use xlink:href="#e" x="189.14" y="31.34" stroke="#988BAD" fill="#00F" class="color_Democratic"/><use xlink:href="#e" x="193.13" y="54.43" stroke="#988BAD" fill="#00F" class="color_Democratic"/><use xlink:href="#e" x="197.13" y="57.77" stroke="#988BAD" fill="#00F" class="color_Democratic"/><use xlink:href="#e" x="201.12" y="48.65" stroke="#988BAD" fill="#00F" class="color_Democratic"/><use xlink:href="#e" x="205.12" y="24.61" stroke="#988BAD" fill="#00F" class="color_Democratic"/><use xlink:href="#e" x="209.12" y="23.77" stroke="#988BAD" fill="#00F" class="color_Democratic"/><use xlink:href="#e" x="213.11" y="34.22" stroke="#988BAD" fill="#00F" class="color_Democratic"/><use xlink:href="#e" x="217.11" y="35.62" stroke="#988BAD" fill="#00F" class="color_Democratic"/><use xlink:href="#e" x="221.1" y="25.07" stroke="#988BAD" fill="#00F" class="color_Democratic"/><use xlink:href="#e" x="225.1" y="28.14" stroke="#988BAD" fill="#00F" class="color_Democratic"/></g></g></g><g class="guide ylabels" font-size="4.76" font-family="'PT Sans Caption','Helvetica Neue','Helvetica',sans-serif" fill="#A1A1A1" text-anchor="end"><text x="34.29" y="58.98" dy=".35em">0</text><text x="34.29" y="33.99" dy=".35em">50</text><text x="34.29" y="9" dy=".35em">100</text></g><text x="19.86" y="31.99" text-anchor="middle" dy=".35em" transform="rotate(-90 19.86 33.99)" font-size="6.35" font-family="'PT Sans','Helvetica Neue','Helvetica',sans-serif" fill="#A1A1A1" stroke="#000" stroke-opacity="0">Electoral</text></g><text x="9.95" y="64.23" text-anchor="middle" dy=".35em" transform="rotate(-90 9.95 66.23)" font-size="6.35" font-family="'PT Sans','Helvetica Neue','Helvetica',sans-serif" fill="#A1A1A1" stroke="#000" stroke-opacity="0">Percent <tspan font-style="italic" dominant-baseline="inherit"><tspan font-weight="bold" dominant-baseline="inherit">by</tspan></tspan> Category</text></g><defs><clipPath id="b"><path d="M35.29 64.98H231.1v55.97H35.29"/></clipPath><clipPath id="a"><path d="M14.91 5H233.1v122.46H14.91"/></clipPath><clipPath id="d"><path d="M35.29 7H231.1v53.98H35.29"/></clipPath><circle r=".9" id="c"/><circle r=".9" id="e"/></defs></svg>