<?xml version="1.0" encoding="UTF-8"?>
<svg xmlns="http://www.w3.org/2000/svg"
     xmlns:xlink="http://www.w3.org/1999/xlink"
     xmlns:gadfly="http://www.gadflyjl.org/ns"
     version="1.2"
     width="238.1mm" height="158.73mm" viewBox="0 0 238.1 158.73"
     stroke="none"
     fill="#000000"
     stroke-width="0.3"
     font-size="3.88"
>
<g stroke="#000000" stroke-opacity="0.000" fill="#222831" id="img-cf90682d-1">
  <rect x="0" y="0" width="238.1" height="158.73"/>
</g>
<g class="plotroot xscalable yscalable" id="img-cf90682d-2">
  <g class="guide colorkey" id="img-cf90682d-3">
    <g class="color_Democratic" id="img-cf90682d-4">
      <g fill="#A1A1A1" font-size="3.7" font-family="'PT Sans','Helvetica Neue','Helvetica',sans-serif" id="img-cf90682d-5">
        <text x="51.52" y="148.78" dy="0.35em">Democratic</text>
      </g>
      <g fill="#0000FF" stroke="#000000" stroke-opacity="0.000" id="img-cf90682d-6">
        <rect x="48.29" y="147.66" width="2.22" height="2.22"/>
      </g>
    </g>
    <g class="color_Republican" id="img-cf90682d-7">
      <g fill="#A1A1A1" font-size="3.7" font-family="'PT Sans','Helvetica Neue','Helvetica',sans-serif" id="img-cf90682d-8">
        <text x="29.6" y="148.78" dy="0.35em">Republican</text>
      </g>
      <g fill="#FF0000" stroke="#000000" stroke-opacity="0.000" id="img-cf90682d-9">
        <rect x="26.38" y="147.66" width="2.22" height="2.22"/>
      </g>
    </g>
    <g fill="#A1A1A1" font-size="6.35" font-family="'PT Sans','Helvetica Neue','Helvetica',sans-serif" stroke="#000000" stroke-opacity="0.000" id="img-cf90682d-10">
      <text x="26.38" y="145.28">Party</text>
    </g>
  </g>
  <g font-size="6.35" font-family="'PT Sans','Helvetica Neue','Helvetica',sans-serif" fill="#A1A1A1" stroke="#000000" stroke-opacity="0.000" id="img-cf90682d-11">
    <text x="129.24" y="130.46" text-anchor="middle" dy="0.6em">Year</text>
  </g>
  <g class="guide xlabels" font-size="4.76" font-family="'PT Sans Caption','Helvetica Neue','Helvetica',sans-serif" fill="#A1A1A1" id="img-cf90682d-12">
    <text x="27.38" y="121.95" text-anchor="middle" dy="0.6em">1824</text>
    <text x="40.11" y="121.95" text-anchor="middle" dy="0.6em">1836</text>
    <text x="52.84" y="121.95" text-anchor="middle" dy="0.6em">1848</text>
    <text x="65.58" y="121.95" text-anchor="middle" dy="0.6em">1860</text>
    <text x="78.31" y="121.95" text-anchor="middle" dy="0.6em">1872</text>
    <text x="91.04" y="121.95" text-anchor="middle" dy="0.6em">1884</text>
    <text x="103.77" y="121.95" text-anchor="middle" dy="0.6em">1896</text>
    <text x="116.51" y="121.95" text-anchor="middle" dy="0.6em">1908</text>
    <text x="129.24" y="121.95" text-anchor="middle" dy="0.6em">1920</text>
    <text x="141.97" y="121.95" text-anchor="middle" dy="0.6em">1932</text>
    <text x="154.7" y="121.95" text-anchor="middle" dy="0.6em">1944</text>
    <text x="167.43" y="121.95" text-anchor="middle" dy="0.6em">1956</text>
    <text x="180.17" y="121.95" text-anchor="middle" dy="0.6em">1968</text>
    <text x="192.9" y="121.95" text-anchor="middle" dy="0.6em">1980</text>
    <text x="205.63" y="121.95" text-anchor="middle" dy="0.6em">1992</text>
    <text x="218.36" y="121.95" text-anchor="middle" dy="0.6em">2004</text>
    <text x="231.1" y="121.95" text-anchor="middle" dy="0.6em">2016</text>
  </g>
<g clip-path="url(#img-cf90682d-13)">
  <g id="img-cf90682d-14">
    <g pointer-events="visible" opacity="1" fill="#222831" stroke="#000000" stroke-opacity="0.000" class="guide background" id="img-cf90682d-15">
      <rect x="25.38" y="12.91" width="207.72" height="108.04"/>
    </g>
    <g class="guide ygridlines xfixed" stroke-dasharray="0.5,0.5" stroke-width="0.2" stroke="#575757" id="img-cf90682d-16">
      <path fill="none" d="M25.38,118.95 L 233.1 118.95"/>
      <path fill="none" d="M25.38,92.94 L 233.1 92.94"/>
      <path fill="none" d="M25.38,66.93 L 233.1 66.93"/>
      <path fill="none" d="M25.38,40.92 L 233.1 40.92"/>
      <path fill="none" d="M25.38,14.91 L 233.1 14.91"/>
    </g>
    <g class="guide xgridlines yfixed" stroke-dasharray="0.5,0.5" stroke-width="0.2" stroke="#575757" id="img-cf90682d-17">
      <path fill="none" d="M27.38,12.91 L 27.38 120.95"/>
      <path fill="none" d="M40.11,12.91 L 40.11 120.95"/>
      <path fill="none" d="M52.84,12.91 L 52.84 120.95"/>
      <path fill="none" d="M65.58,12.91 L 65.58 120.95"/>
      <path fill="none" d="M78.31,12.91 L 78.31 120.95"/>
      <path fill="none" d="M91.04,12.91 L 91.04 120.95"/>
      <path fill="none" d="M103.77,12.91 L 103.77 120.95"/>
      <path fill="none" d="M116.51,12.91 L 116.51 120.95"/>
      <path fill="none" d="M129.24,12.91 L 129.24 120.95"/>
      <path fill="none" d="M141.97,12.91 L 141.97 120.95"/>
      <path fill="none" d="M154.7,12.91 L 154.7 120.95"/>
      <path fill="none" d="M167.43,12.91 L 167.43 120.95"/>
      <path fill="none" d="M180.17,12.91 L 180.17 120.95"/>
      <path fill="none" d="M192.9,12.91 L 192.9 120.95"/>
      <path fill="none" d="M205.63,12.91 L 205.63 120.95"/>
      <path fill="none" d="M218.36,12.91 L 218.36 120.95"/>
      <path fill="none" d="M231.1,12.91 L 231.1 120.95"/>
    </g>
    <g class="plotpanel" id="img-cf90682d-18">
      <g class="geometry" id="img-cf90682d-19">
        <g stroke-width="0.3" id="img-cf90682d-20">
          <use xlink:href="#img-cf90682d-21" x="65.58" y="59.76" stroke="#B3867B" fill="#FF0000" class="color_Republican"/>
          <use xlink:href="#img-cf90682d-21" x="69.82" y="64.27" stroke="#B3867B" fill="#FF0000" class="color_Republican"/>
          <use xlink:href="#img-cf90682d-21" x="74.06" y="61.5" stroke="#B3867B" fill="#FF0000" class="color_Republican"/>
          <use xlink:href="#img-cf90682d-21" x="78.31" y="62.83" stroke="#B3867B" fill="#FF0000" class="color_Republican"/>
          <use xlink:href="#img-cf90682d-21" x="82.55" y="65.02" stroke="#B3867B" fill="#FF0000" class="color_Republican"/>
          <use xlink:href="#img-cf90682d-21" x="86.8" y="64.91" stroke="#B3867B" fill="#FF0000" class="color_Republican"/>
          <use xlink:href="#img-cf90682d-21" x="91.04" y="65.75" stroke="#B3867B" fill="#FF0000" class="color_Republican"/>
          <use xlink:href="#img-cf90682d-21" x="95.28" y="66.58" stroke="#B3867B" fill="#FF0000" class="color_Republican"/>
          <use xlink:href="#img-cf90682d-21" x="99.53" y="65.77" stroke="#B3867B" fill="#FF0000" class="color_Republican"/>
          <use xlink:href="#img-cf90682d-21" x="103.77" y="47.52" stroke="#B3867B" fill="#FF0000" class="color_Republican"/>
          <use xlink:href="#img-cf90682d-21" x="108.02" y="57.22" stroke="#B3867B" fill="#FF0000" class="color_Republican"/>
          <use xlink:href="#img-cf90682d-21" x="112.26" y="56.45" stroke="#B3867B" fill="#FF0000" class="color_Republican"/>
          <use xlink:href="#img-cf90682d-21" x="116.51" y="57.24" stroke="#B3867B" fill="#FF0000" class="color_Republican"/>
          <use xlink:href="#img-cf90682d-21" x="120.75" y="80.01" stroke="#B3867B" fill="#FF0000" class="color_Republican"/>
          <use xlink:href="#img-cf90682d-21" x="124.99" y="67.91" stroke="#B3867B" fill="#FF0000" class="color_Republican"/>
          <use xlink:href="#img-cf90682d-21" x="129.24" y="56.7" stroke="#B3867B" fill="#FF0000" class="color_Republican"/>
          <use xlink:href="#img-cf90682d-21" x="133.48" y="56.71" stroke="#B3867B" fill="#FF0000" class="color_Republican"/>
          <use xlink:href="#img-cf90682d-21" x="137.73" y="57.93" stroke="#B3867B" fill="#FF0000" class="color_Republican"/>
          <use xlink:href="#img-cf90682d-21" x="141.97" y="66.49" stroke="#B3867B" fill="#FF0000" class="color_Republican"/>
          <use xlink:href="#img-cf90682d-21" x="146.21" y="69.04" stroke="#B3867B" fill="#FF0000" class="color_Republican"/>
          <use xlink:href="#img-cf90682d-21" x="150.46" y="70.28" stroke="#B3867B" fill="#FF0000" class="color_Republican"/>
          <use xlink:href="#img-cf90682d-21" x="154.7" y="69.15" stroke="#B3867B" fill="#FF0000" class="color_Republican"/>
          <use xlink:href="#img-cf90682d-21" x="158.95" y="64.42" stroke="#B3867B" fill="#FF0000" class="color_Republican"/>
          <use xlink:href="#img-cf90682d-21" x="163.19" y="55.57" stroke="#B3867B" fill="#FF0000" class="color_Republican"/>
          <use xlink:href="#img-cf90682d-21" x="167.43" y="50.17" stroke="#B3867B" fill="#FF0000" class="color_Republican"/>
          <use xlink:href="#img-cf90682d-21" x="171.68" y="63.38" stroke="#B3867B" fill="#FF0000" class="color_Republican"/>
          <use xlink:href="#img-cf90682d-21" x="175.92" y="81.38" stroke="#B3867B" fill="#FF0000" class="color_Republican"/>
          <use xlink:href="#img-cf90682d-21" x="180.17" y="64.74" stroke="#B3867B" fill="#FF0000" class="color_Republican"/>
          <use xlink:href="#img-cf90682d-21" x="184.41" y="52.39" stroke="#B3867B" fill="#FF0000" class="color_Republican"/>
          <use xlink:href="#img-cf90682d-21" x="188.65" y="61.99" stroke="#B3867B" fill="#FF0000" class="color_Republican"/>
          <use xlink:href="#img-cf90682d-21" x="192.9" y="58.88" stroke="#B3867B" fill="#FF0000" class="color_Republican"/>
          <use xlink:href="#img-cf90682d-21" x="197.14" y="47.52" stroke="#B3867B" fill="#FF0000" class="color_Republican"/>
          <use xlink:href="#img-cf90682d-21" x="201.39" y="53.94" stroke="#B3867B" fill="#FF0000" class="color_Republican"/>
          <use xlink:href="#img-cf90682d-21" x="205.63" y="79.79" stroke="#B3867B" fill="#FF0000" class="color_Republican"/>
          <use xlink:href="#img-cf90682d-21" x="209.87" y="77.99" stroke="#B3867B" fill="#FF0000" class="color_Republican"/>
          <use xlink:href="#img-cf90682d-21" x="214.12" y="68.94" stroke="#B3867B" fill="#FF0000" class="color_Republican"/>
          <use xlink:href="#img-cf90682d-21" x="218.36" y="68.1" stroke="#B3867B" fill="#FF0000" class="color_Republican"/>
          <use xlink:href="#img-cf90682d-21" x="222.61" y="72.63" stroke="#B3867B" fill="#FF0000" class="color_Republican"/>
          <use xlink:href="#img-cf90682d-21" x="226.85" y="70.67" stroke="#B3867B" fill="#FF0000" class="color_Republican"/>
          <use xlink:href="#img-cf90682d-21" x="31.62" y="71.2" stroke="#988BAD" fill="#0000FF" class="color_Democratic"/>
          <use xlink:href="#img-cf90682d-21" x="35.87" y="59.9" stroke="#988BAD" fill="#0000FF" class="color_Democratic"/>
          <use xlink:href="#img-cf90682d-21" x="40.11" y="40.91" stroke="#988BAD" fill="#0000FF" class="color_Democratic"/>
          <use xlink:href="#img-cf90682d-21" x="44.36" y="62.08" stroke="#988BAD" fill="#0000FF" class="color_Democratic"/>
          <use xlink:href="#img-cf90682d-21" x="48.6" y="61.5" stroke="#988BAD" fill="#0000FF" class="color_Democratic"/>
          <use xlink:href="#img-cf90682d-21" x="52.84" y="61.3" stroke="#988BAD" fill="#0000FF" class="color_Democratic"/>
          <use xlink:href="#img-cf90682d-21" x="57.09" y="60.27" stroke="#988BAD" fill="#0000FF" class="color_Democratic"/>
          <use xlink:href="#img-cf90682d-21" x="61.33" y="71.4" stroke="#988BAD" fill="#0000FF" class="color_Democratic"/>
          <use xlink:href="#img-cf90682d-21" x="65.58" y="78.11" stroke="#988BAD" fill="#0000FF" class="color_Democratic"/>
          <use xlink:href="#img-cf90682d-21" x="69.82" y="69.59" stroke="#988BAD" fill="#0000FF" class="color_Democratic"/>
          <use xlink:href="#img-cf90682d-21" x="74.06" y="72.38" stroke="#988BAD" fill="#0000FF" class="color_Democratic"/>
          <use xlink:href="#img-cf90682d-21" x="78.31" y="71.5" stroke="#988BAD" fill="#0000FF" class="color_Democratic"/>
          <use xlink:href="#img-cf90682d-21" x="82.55" y="68.96" stroke="#988BAD" fill="#0000FF" class="color_Democratic"/>
          <use xlink:href="#img-cf90682d-21" x="86.8" y="69.8" stroke="#988BAD" fill="#0000FF" class="color_Democratic"/>
          <use xlink:href="#img-cf90682d-21" x="91.04" y="70.74" stroke="#988BAD" fill="#0000FF" class="color_Democratic"/>
          <use xlink:href="#img-cf90682d-21" x="95.28" y="69.18" stroke="#988BAD" fill="#0000FF" class="color_Democratic"/>
          <use xlink:href="#img-cf90682d-21" x="99.53" y="69.94" stroke="#988BAD" fill="#0000FF" class="color_Democratic"/>
          <use xlink:href="#img-cf90682d-21" x="103.77" y="92.03" stroke="#988BAD" fill="#0000FF" class="color_Democratic"/>
          <use xlink:href="#img-cf90682d-21" x="108.02" y="78.98" stroke="#988BAD" fill="#0000FF" class="color_Democratic"/>
          <use xlink:href="#img-cf90682d-21" x="112.26" y="79.63" stroke="#988BAD" fill="#0000FF" class="color_Democratic"/>
          <use xlink:href="#img-cf90682d-21" x="116.51" y="79.87" stroke="#988BAD" fill="#0000FF" class="color_Democratic"/>
          <use xlink:href="#img-cf90682d-21" x="120.75" y="77.88" stroke="#988BAD" fill="#0000FF" class="color_Democratic"/>
          <use xlink:href="#img-cf90682d-21" x="124.99" y="67.85" stroke="#988BAD" fill="#0000FF" class="color_Democratic"/>
          <use xlink:href="#img-cf90682d-21" x="129.24" y="77.97" stroke="#988BAD" fill="#0000FF" class="color_Democratic"/>
          <use xlink:href="#img-cf90682d-21" x="133.48" y="82.83" stroke="#988BAD" fill="#0000FF" class="color_Democratic"/>
          <use xlink:href="#img-cf90682d-21" x="137.73" y="76.27" stroke="#988BAD" fill="#0000FF" class="color_Democratic"/>
          <use xlink:href="#img-cf90682d-21" x="141.97" y="67.98" stroke="#988BAD" fill="#0000FF" class="color_Democratic"/>
          <use xlink:href="#img-cf90682d-21" x="146.21" y="67.22" stroke="#988BAD" fill="#0000FF" class="color_Democratic"/>
          <use xlink:href="#img-cf90682d-21" x="150.46" y="63.58" stroke="#988BAD" fill="#0000FF" class="color_Democratic"/>
          <use xlink:href="#img-cf90682d-21" x="154.7" y="64.73" stroke="#988BAD" fill="#0000FF" class="color_Democratic"/>
          <use xlink:href="#img-cf90682d-21" x="158.95" y="70.4" stroke="#988BAD" fill="#0000FF" class="color_Democratic"/>
          <use xlink:href="#img-cf90682d-21" x="163.19" y="78.3" stroke="#988BAD" fill="#0000FF" class="color_Democratic"/>
          <use xlink:href="#img-cf90682d-21" x="167.43" y="83.74" stroke="#988BAD" fill="#0000FF" class="color_Democratic"/>
          <use xlink:href="#img-cf90682d-21" x="171.68" y="70.49" stroke="#988BAD" fill="#0000FF" class="color_Democratic"/>
          <use xlink:href="#img-cf90682d-21" x="175.92" y="52.48" stroke="#988BAD" fill="#0000FF" class="color_Democratic"/>
          <use xlink:href="#img-cf90682d-21" x="180.17" y="73.25" stroke="#988BAD" fill="#0000FF" class="color_Democratic"/>
          <use xlink:href="#img-cf90682d-21" x="184.41" y="82.69" stroke="#988BAD" fill="#0000FF" class="color_Democratic"/>
          <use xlink:href="#img-cf90682d-21" x="188.65" y="73.72" stroke="#988BAD" fill="#0000FF" class="color_Democratic"/>
          <use xlink:href="#img-cf90682d-21" x="192.9" y="89.46" stroke="#988BAD" fill="#0000FF" class="color_Democratic"/>
          <use xlink:href="#img-cf90682d-21" x="197.14" y="86.75" stroke="#988BAD" fill="#0000FF" class="color_Democratic"/>
          <use xlink:href="#img-cf90682d-21" x="201.39" y="81.15" stroke="#988BAD" fill="#0000FF" class="color_Democratic"/>
          <use xlink:href="#img-cf90682d-21" x="205.63" y="78.52" stroke="#988BAD" fill="#0000FF" class="color_Democratic"/>
          <use xlink:href="#img-cf90682d-21" x="209.87" y="67.63" stroke="#988BAD" fill="#0000FF" class="color_Democratic"/>
          <use xlink:href="#img-cf90682d-21" x="214.12" y="70.26" stroke="#988BAD" fill="#0000FF" class="color_Democratic"/>
          <use xlink:href="#img-cf90682d-21" x="218.36" y="66.68" stroke="#988BAD" fill="#0000FF" class="color_Democratic"/>
          <use xlink:href="#img-cf90682d-21" x="222.61" y="62.64" stroke="#988BAD" fill="#0000FF" class="color_Democratic"/>
          <use xlink:href="#img-cf90682d-21" x="226.85" y="64.87" stroke="#988BAD" fill="#0000FF" class="color_Democratic"/>
        </g>
      </g>
      <g stroke-width="0.3" fill="#000000" fill-opacity="0.000" stroke-dasharray="none" id="img-cf90682d-22">
        <path fill="none" d="M31.62,71.2 L 35.87 59.9 40.11 40.91 44.36 62.08 48.6 61.5 52.84 61.3 57.09 60.27 61.33 71.4 65.58 78.11 69.82 69.59 74.06 72.38 78.31 71.5 82.55 68.96 86.8 69.8 91.04 70.74 95.28 69.18 99.53 69.94 103.77 92.03 108.02 78.98 112.26 79.63 116.51 79.87 120.75 77.88 124.99 67.85 129.24 77.97 133.48 82.83 137.73 76.27 141.97 67.98 146.21 67.22 150.46 63.58 154.7 64.73 158.95 70.4 163.19 78.3 167.43 83.74 171.68 70.49 175.92 52.48 180.17 73.25 184.41 82.69 188.65 73.72 192.9 89.46 197.14 86.75 201.39 81.15 205.63 78.52 209.87 67.63 214.12 70.26 218.36 66.68 222.61 62.64 226.85 64.87" stroke="#0000FF" class="geometry color_Democratic"/>
        <path fill="none" d="M65.58,59.76 L 69.82 64.27 74.06 61.5 78.31 62.83 82.55 65.02 86.8 64.91 91.04 65.75 95.28 66.58 99.53 65.77 103.77 47.52 108.02 57.22 112.26 56.45 116.51 57.24 120.75 80.01 124.99 67.91 129.24 56.7 133.48 56.71 137.73 57.93 141.97 66.49 146.21 69.04 150.46 70.28 154.7 69.15 158.95 64.42 163.19 55.57 167.43 50.17 171.68 63.38 175.92 81.38 180.17 64.74 184.41 52.39 188.65 61.99 192.9 58.88 197.14 47.52 201.39 53.94 205.63 79.79 209.87 77.99 214.12 68.94 218.36 68.1 222.61 72.63 226.85 70.67" stroke="#FF0000" class="geometry color_Republican"/>
      </g>
    </g>
  </g>
</g>
  <g class="guide ylabels" font-size="4.76" font-family="'PT Sans Caption','Helvetica Neue','Helvetica',sans-serif" fill="#A1A1A1" id="img-cf90682d-23">
    <text x="24.38" y="118.95" text-anchor="end" dy="0.35em">0</text>
    <text x="24.38" y="92.94" text-anchor="end" dy="0.35em">25</text>
    <text x="24.38" y="66.93" text-anchor="end" dy="0.35em">50</text>
    <text x="24.38" y="40.92" text-anchor="end" dy="0.35em">75</text>
    <text x="24.38" y="14.91" text-anchor="end" dy="0.35em">100</text>
  </g>
  <g font-size="6.35" font-family="'PT Sans','Helvetica Neue','Helvetica',sans-serif" fill="#A1A1A1" stroke="#000000" stroke-opacity="0.000" id="img-cf90682d-24">
    <text x="9.95" y="64.93" text-anchor="middle" dy="0.35em" transform="rotate(-90, 9.95, 66.93)">Popular Vote (%)</text>
  </g>
  <g font-size="6.35" font-family="'PT Sans','Helvetica Neue','Helvetica',sans-serif" fill="#A1A1A1" stroke="#000000" stroke-opacity="0.000" id="img-cf90682d-25">
    <text x="129.24" y="5" text-anchor="middle" dy="0.6em">New Hampshire</text>
  </g>
</g>
<defs>
  <clipPath id="img-cf90682d-13">
  <path d="M25.38,12.91 L 233.1 12.91 233.1 120.95 25.38 120.95" />
</clipPath>
  <g id="img-cf90682d-21">
    <circle cx="0" cy="0" r="0.9"/>
  </g>
</defs>
</svg>
