<?xml version="1.0" encoding="UTF-8"?>
<svg xmlns="http://www.w3.org/2000/svg"
     xmlns:xlink="http://www.w3.org/1999/xlink"
     xmlns:gadfly="http://www.gadflyjl.org/ns"
     version="1.2"
     width="238.1mm" height="158.73mm" viewBox="0 0 238.1 158.73"
     stroke="none"
     fill="#000000"
     stroke-width="0.3"
     font-size="3.88"
>
<g stroke="#000000" stroke-opacity="0.000" fill="#222831" id="img-79e8ca24-1">
  <rect x="0" y="0" width="238.1" height="158.73"/>
</g>
<g class="plotroot xscalable yscalable" id="img-79e8ca24-2">
  <g class="guide colorkey" id="img-79e8ca24-3">
    <g class="color_Democratic" id="img-79e8ca24-4">
      <g fill="#A1A1A1" font-size="3.7" font-family="'PT Sans','Helvetica Neue','Helvetica',sans-serif" id="img-79e8ca24-5">
        <text x="51.52" y="148.78" dy="0.35em">Democratic</text>
      </g>
      <g fill="#0000FF" stroke="#000000" stroke-opacity="0.000" id="img-79e8ca24-6">
        <rect x="48.29" y="147.66" width="2.22" height="2.22"/>
      </g>
    </g>
    <g class="color_Republican" id="img-79e8ca24-7">
      <g fill="#A1A1A1" font-size="3.7" font-family="'PT Sans','Helvetica Neue','Helvetica',sans-serif" id="img-79e8ca24-8">
        <text x="29.6" y="148.78" dy="0.35em">Republican</text>
      </g>
      <g fill="#FF0000" stroke="#000000" stroke-opacity="0.000" id="img-79e8ca24-9">
        <rect x="26.38" y="147.66" width="2.22" height="2.22"/>
      </g>
    </g>
    <g fill="#A1A1A1" font-size="6.35" font-family="'PT Sans','Helvetica Neue','Helvetica',sans-serif" stroke="#000000" stroke-opacity="0.000" id="img-79e8ca24-10">
      <text x="26.38" y="145.28">Party</text>
    </g>
  </g>
  <g font-size="6.35" font-family="'PT Sans','Helvetica Neue','Helvetica',sans-serif" fill="#A1A1A1" stroke="#000000" stroke-opacity="0.000" id="img-79e8ca24-11">
    <text x="129.24" y="130.46" text-anchor="middle" dy="0.6em">Year</text>
  </g>
  <g class="guide xlabels" font-size="4.76" font-family="'PT Sans Caption','Helvetica Neue','Helvetica',sans-serif" fill="#A1A1A1" id="img-79e8ca24-12">
    <text x="27.38" y="121.95" text-anchor="middle" dy="0.6em">1824</text>
    <text x="40.11" y="121.95" text-anchor="middle" dy="0.6em">1836</text>
    <text x="52.84" y="121.95" text-anchor="middle" dy="0.6em">1848</text>
    <text x="65.58" y="121.95" text-anchor="middle" dy="0.6em">1860</text>
    <text x="78.31" y="121.95" text-anchor="middle" dy="0.6em">1872</text>
    <text x="91.04" y="121.95" text-anchor="middle" dy="0.6em">1884</text>
    <text x="103.77" y="121.95" text-anchor="middle" dy="0.6em">1896</text>
    <text x="116.51" y="121.95" text-anchor="middle" dy="0.6em">1908</text>
    <text x="129.24" y="121.95" text-anchor="middle" dy="0.6em">1920</text>
    <text x="141.97" y="121.95" text-anchor="middle" dy="0.6em">1932</text>
    <text x="154.7" y="121.95" text-anchor="middle" dy="0.6em">1944</text>
    <text x="167.43" y="121.95" text-anchor="middle" dy="0.6em">1956</text>
    <text x="180.17" y="121.95" text-anchor="middle" dy="0.6em">1968</text>
    <text x="192.9" y="121.95" text-anchor="middle" dy="0.6em">1980</text>
    <text x="205.63" y="121.95" text-anchor="middle" dy="0.6em">1992</text>
    <text x="218.36" y="121.95" text-anchor="middle" dy="0.6em">2004</text>
    <text x="231.1" y="121.95" text-anchor="middle" dy="0.6em">2016</text>
  </g>
<g clip-path="url(#img-79e8ca24-13)">
  <g id="img-79e8ca24-14">
    <g pointer-events="visible" opacity="1" fill="#222831" stroke="#000000" stroke-opacity="0.000" class="guide background" id="img-79e8ca24-15">
      <rect x="25.38" y="12.91" width="207.72" height="108.04"/>
    </g>
    <g class="guide ygridlines xfixed" stroke-dasharray="0.5,0.5" stroke-width="0.2" stroke="#575757" id="img-79e8ca24-16">
      <path fill="none" d="M25.38,118.95 L 233.1 118.95"/>
      <path fill="none" d="M25.38,92.94 L 233.1 92.94"/>
      <path fill="none" d="M25.38,66.93 L 233.1 66.93"/>
      <path fill="none" d="M25.38,40.92 L 233.1 40.92"/>
      <path fill="none" d="M25.38,14.91 L 233.1 14.91"/>
    </g>
    <g class="guide xgridlines yfixed" stroke-dasharray="0.5,0.5" stroke-width="0.2" stroke="#575757" id="img-79e8ca24-17">
      <path fill="none" d="M27.38,12.91 L 27.38 120.95"/>
      <path fill="none" d="M40.11,12.91 L 40.11 120.95"/>
      <path fill="none" d="M52.84,12.91 L 52.84 120.95"/>
      <path fill="none" d="M65.58,12.91 L 65.58 120.95"/>
      <path fill="none" d="M78.31,12.91 L 78.31 120.95"/>
      <path fill="none" d="M91.04,12.91 L 91.04 120.95"/>
      <path fill="none" d="M103.77,12.91 L 103.77 120.95"/>
      <path fill="none" d="M116.51,12.91 L 116.51 120.95"/>
      <path fill="none" d="M129.24,12.91 L 129.24 120.95"/>
      <path fill="none" d="M141.97,12.91 L 141.97 120.95"/>
      <path fill="none" d="M154.7,12.91 L 154.7 120.95"/>
      <path fill="none" d="M167.43,12.91 L 167.43 120.95"/>
      <path fill="none" d="M180.17,12.91 L 180.17 120.95"/>
      <path fill="none" d="M192.9,12.91 L 192.9 120.95"/>
      <path fill="none" d="M205.63,12.91 L 205.63 120.95"/>
      <path fill="none" d="M218.36,12.91 L 218.36 120.95"/>
      <path fill="none" d="M231.1,12.91 L 231.1 120.95"/>
    </g>
    <g class="plotpanel" id="img-79e8ca24-18">
      <g class="geometry" id="img-79e8ca24-19">
        <g stroke-width="0.3" id="img-79e8ca24-20">
          <use xlink:href="#img-79e8ca24-21" x="65.58" y="118.95" stroke="#B3867B" fill="#FF0000" class="color_Republican"/>
          <use xlink:href="#img-79e8ca24-21" x="74.06" y="63.38" stroke="#B3867B" fill="#FF0000" class="color_Republican"/>
          <use xlink:href="#img-79e8ca24-21" x="78.31" y="59.25" stroke="#B3867B" fill="#FF0000" class="color_Republican"/>
          <use xlink:href="#img-79e8ca24-21" x="82.55" y="70.7" stroke="#B3867B" fill="#FF0000" class="color_Republican"/>
          <use xlink:href="#img-79e8ca24-21" x="86.8" y="69.03" stroke="#B3867B" fill="#FF0000" class="color_Republican"/>
          <use xlink:href="#img-79e8ca24-21" x="91.04" y="70.48" stroke="#B3867B" fill="#FF0000" class="color_Republican"/>
          <use xlink:href="#img-79e8ca24-21" x="95.28" y="69.85" stroke="#B3867B" fill="#FF0000" class="color_Republican"/>
          <use xlink:href="#img-79e8ca24-21" x="99.53" y="81.7" stroke="#B3867B" fill="#FF0000" class="color_Republican"/>
          <use xlink:href="#img-79e8ca24-21" x="103.77" y="70.24" stroke="#B3867B" fill="#FF0000" class="color_Republican"/>
          <use xlink:href="#img-79e8ca24-21" x="108.02" y="71.65" stroke="#B3867B" fill="#FF0000" class="color_Republican"/>
          <use xlink:href="#img-79e8ca24-21" x="112.26" y="77.68" stroke="#B3867B" fill="#FF0000" class="color_Republican"/>
          <use xlink:href="#img-79e8ca24-21" x="116.51" y="71.62" stroke="#B3867B" fill="#FF0000" class="color_Republican"/>
          <use xlink:href="#img-79e8ca24-21" x="120.75" y="106.52" stroke="#B3867B" fill="#FF0000" class="color_Republican"/>
          <use xlink:href="#img-79e8ca24-21" x="124.99" y="75.56" stroke="#B3867B" fill="#FF0000" class="color_Republican"/>
          <use xlink:href="#img-79e8ca24-21" x="129.24" y="73.99" stroke="#B3867B" fill="#FF0000" class="color_Republican"/>
          <use xlink:href="#img-79e8ca24-21" x="133.48" y="77.62" stroke="#B3867B" fill="#FF0000" class="color_Republican"/>
          <use xlink:href="#img-79e8ca24-21" x="137.73" y="61.8" stroke="#B3867B" fill="#FF0000" class="color_Republican"/>
          <use xlink:href="#img-79e8ca24-21" x="141.97" y="88.49" stroke="#B3867B" fill="#FF0000" class="color_Republican"/>
          <use xlink:href="#img-79e8ca24-21" x="146.21" y="91.28" stroke="#B3867B" fill="#FF0000" class="color_Republican"/>
          <use xlink:href="#img-79e8ca24-21" x="150.46" y="91.93" stroke="#B3867B" fill="#FF0000" class="color_Republican"/>
          <use xlink:href="#img-79e8ca24-21" x="154.7" y="84.32" stroke="#B3867B" fill="#FF0000" class="color_Republican"/>
          <use xlink:href="#img-79e8ca24-21" x="158.95" y="84.95" stroke="#B3867B" fill="#FF0000" class="color_Republican"/>
          <use xlink:href="#img-79e8ca24-21" x="163.19" y="71" stroke="#B3867B" fill="#FF0000" class="color_Republican"/>
          <use xlink:href="#img-79e8ca24-21" x="167.43" y="67.62" stroke="#B3867B" fill="#FF0000" class="color_Republican"/>
          <use xlink:href="#img-79e8ca24-21" x="171.68" y="69.13" stroke="#B3867B" fill="#FF0000" class="color_Republican"/>
          <use xlink:href="#img-79e8ca24-21" x="175.92" y="73.33" stroke="#B3867B" fill="#FF0000" class="color_Republican"/>
          <use xlink:href="#img-79e8ca24-21" x="180.17" y="77.85" stroke="#B3867B" fill="#FF0000" class="color_Republican"/>
          <use xlink:href="#img-79e8ca24-21" x="184.41" y="46.68" stroke="#B3867B" fill="#FF0000" class="color_Republican"/>
          <use xlink:href="#img-79e8ca24-21" x="188.65" y="72.95" stroke="#B3867B" fill="#FF0000" class="color_Republican"/>
          <use xlink:href="#img-79e8ca24-21" x="192.9" y="67.65" stroke="#B3867B" fill="#FF0000" class="color_Republican"/>
          <use xlink:href="#img-79e8ca24-21" x="197.14" y="54.55" stroke="#B3867B" fill="#FF0000" class="color_Republican"/>
          <use xlink:href="#img-79e8ca24-21" x="201.39" y="58.64" stroke="#B3867B" fill="#FF0000" class="color_Republican"/>
          <use xlink:href="#img-79e8ca24-21" x="205.63" y="73.75" stroke="#B3867B" fill="#FF0000" class="color_Republican"/>
          <use xlink:href="#img-79e8ca24-21" x="209.87" y="68.25" stroke="#B3867B" fill="#FF0000" class="color_Republican"/>
          <use xlink:href="#img-79e8ca24-21" x="214.12" y="60.66" stroke="#B3867B" fill="#FF0000" class="color_Republican"/>
          <use xlink:href="#img-79e8ca24-21" x="218.36" y="60.67" stroke="#B3867B" fill="#FF0000" class="color_Republican"/>
          <use xlink:href="#img-79e8ca24-21" x="222.61" y="67.58" stroke="#B3867B" fill="#FF0000" class="color_Republican"/>
          <use xlink:href="#img-79e8ca24-21" x="226.85" y="66.52" stroke="#B3867B" fill="#FF0000" class="color_Republican"/>
          <use xlink:href="#img-79e8ca24-21" x="31.62" y="42.92" stroke="#988BAD" fill="#0000FF" class="color_Democratic"/>
          <use xlink:href="#img-79e8ca24-21" x="35.87" y="30.75" stroke="#988BAD" fill="#0000FF" class="color_Democratic"/>
          <use xlink:href="#img-79e8ca24-21" x="40.11" y="63.71" stroke="#988BAD" fill="#0000FF" class="color_Democratic"/>
          <use xlink:href="#img-79e8ca24-21" x="44.36" y="74.92" stroke="#988BAD" fill="#0000FF" class="color_Democratic"/>
          <use xlink:href="#img-79e8ca24-21" x="48.6" y="69.42" stroke="#988BAD" fill="#0000FF" class="color_Democratic"/>
          <use xlink:href="#img-79e8ca24-21" x="52.84" y="72.34" stroke="#988BAD" fill="#0000FF" class="color_Democratic"/>
          <use xlink:href="#img-79e8ca24-21" x="57.09" y="66.48" stroke="#988BAD" fill="#0000FF" class="color_Democratic"/>
          <use xlink:href="#img-79e8ca24-21" x="61.33" y="59.88" stroke="#988BAD" fill="#0000FF" class="color_Democratic"/>
          <use xlink:href="#img-79e8ca24-21" x="65.58" y="116.01" stroke="#988BAD" fill="#0000FF" class="color_Democratic"/>
          <use xlink:href="#img-79e8ca24-21" x="74.06" y="70.48" stroke="#988BAD" fill="#0000FF" class="color_Democratic"/>
          <use xlink:href="#img-79e8ca24-21" x="78.31" y="74.78" stroke="#988BAD" fill="#0000FF" class="color_Democratic"/>
          <use xlink:href="#img-79e8ca24-21" x="82.55" y="63.16" stroke="#988BAD" fill="#0000FF" class="color_Democratic"/>
          <use xlink:href="#img-79e8ca24-21" x="86.8" y="65.32" stroke="#988BAD" fill="#0000FF" class="color_Democratic"/>
          <use xlink:href="#img-79e8ca24-21" x="91.04" y="63.55" stroke="#988BAD" fill="#0000FF" class="color_Democratic"/>
          <use xlink:href="#img-79e8ca24-21" x="95.28" y="65.07" stroke="#988BAD" fill="#0000FF" class="color_Democratic"/>
          <use xlink:href="#img-79e8ca24-21" x="99.53" y="69.6" stroke="#988BAD" fill="#0000FF" class="color_Democratic"/>
          <use xlink:href="#img-79e8ca24-21" x="103.77" y="64.19" stroke="#988BAD" fill="#0000FF" class="color_Democratic"/>
          <use xlink:href="#img-79e8ca24-21" x="108.02" y="62.85" stroke="#988BAD" fill="#0000FF" class="color_Democratic"/>
          <use xlink:href="#img-79e8ca24-21" x="112.26" y="56.83" stroke="#988BAD" fill="#0000FF" class="color_Democratic"/>
          <use xlink:href="#img-79e8ca24-21" x="116.51" y="62.54" stroke="#988BAD" fill="#0000FF" class="color_Democratic"/>
          <use xlink:href="#img-79e8ca24-21" x="120.75" y="57.31" stroke="#988BAD" fill="#0000FF" class="color_Democratic"/>
          <use xlink:href="#img-79e8ca24-21" x="124.99" y="58.51" stroke="#988BAD" fill="#0000FF" class="color_Democratic"/>
          <use xlink:href="#img-79e8ca24-21" x="129.24" y="59.97" stroke="#988BAD" fill="#0000FF" class="color_Democratic"/>
          <use xlink:href="#img-79e8ca24-21" x="133.48" y="57.68" stroke="#988BAD" fill="#0000FF" class="color_Democratic"/>
          <use xlink:href="#img-79e8ca24-21" x="137.73" y="72.07" stroke="#988BAD" fill="#0000FF" class="color_Democratic"/>
          <use xlink:href="#img-79e8ca24-21" x="141.97" y="46.19" stroke="#988BAD" fill="#0000FF" class="color_Democratic"/>
          <use xlink:href="#img-79e8ca24-21" x="146.21" y="42.59" stroke="#988BAD" fill="#0000FF" class="color_Democratic"/>
          <use xlink:href="#img-79e8ca24-21" x="150.46" y="41.93" stroke="#988BAD" fill="#0000FF" class="color_Democratic"/>
          <use xlink:href="#img-79e8ca24-21" x="154.7" y="49.54" stroke="#988BAD" fill="#0000FF" class="color_Democratic"/>
          <use xlink:href="#img-79e8ca24-21" x="158.95" y="58.59" stroke="#988BAD" fill="#0000FF" class="color_Democratic"/>
          <use xlink:href="#img-79e8ca24-21" x="163.19" y="62.86" stroke="#988BAD" fill="#0000FF" class="color_Democratic"/>
          <use xlink:href="#img-79e8ca24-21" x="167.43" y="66.24" stroke="#988BAD" fill="#0000FF" class="color_Democratic"/>
          <use xlink:href="#img-79e8ca24-21" x="171.68" y="64.74" stroke="#988BAD" fill="#0000FF" class="color_Democratic"/>
          <use xlink:href="#img-79e8ca24-21" x="175.92" y="60.53" stroke="#988BAD" fill="#0000FF" class="color_Democratic"/>
          <use xlink:href="#img-79e8ca24-21" x="180.17" y="88.54" stroke="#988BAD" fill="#0000FF" class="color_Democratic"/>
          <use xlink:href="#img-79e8ca24-21" x="184.41" y="88.9" stroke="#988BAD" fill="#0000FF" class="color_Democratic"/>
          <use xlink:href="#img-79e8ca24-21" x="188.65" y="61.45" stroke="#988BAD" fill="#0000FF" class="color_Democratic"/>
          <use xlink:href="#img-79e8ca24-21" x="192.9" y="69.86" stroke="#988BAD" fill="#0000FF" class="color_Democratic"/>
          <use xlink:href="#img-79e8ca24-21" x="197.14" y="79.53" stroke="#988BAD" fill="#0000FF" class="color_Democratic"/>
          <use xlink:href="#img-79e8ca24-21" x="201.39" y="75.56" stroke="#988BAD" fill="#0000FF" class="color_Democratic"/>
          <use xlink:href="#img-79e8ca24-21" x="205.63" y="74.58" stroke="#988BAD" fill="#0000FF" class="color_Democratic"/>
          <use xlink:href="#img-79e8ca24-21" x="209.87" y="73.14" stroke="#988BAD" fill="#0000FF" class="color_Democratic"/>
          <use xlink:href="#img-79e8ca24-21" x="214.12" y="74.01" stroke="#988BAD" fill="#0000FF" class="color_Democratic"/>
          <use xlink:href="#img-79e8ca24-21" x="218.36" y="73.61" stroke="#988BAD" fill="#0000FF" class="color_Democratic"/>
          <use xlink:href="#img-79e8ca24-21" x="222.61" y="67.24" stroke="#988BAD" fill="#0000FF" class="color_Democratic"/>
          <use xlink:href="#img-79e8ca24-21" x="226.85" y="68.65" stroke="#988BAD" fill="#0000FF" class="color_Democratic"/>
        </g>
      </g>
      <g stroke-width="0.3" fill="#000000" fill-opacity="0.000" stroke-dasharray="none" id="img-79e8ca24-22">
        <path fill="none" d="M31.62,42.92 L 35.87 30.75 40.11 63.71 44.36 74.92 48.6 69.42 52.84 72.34 57.09 66.48 61.33 59.88 65.58 116.01 74.06 70.48 78.31 74.78 82.55 63.16 86.8 65.32 91.04 63.55 95.28 65.07 99.53 69.6 103.77 64.19 108.02 62.85 112.26 56.83 116.51 62.54 120.75 57.31 124.99 58.51 129.24 59.97 133.48 57.68 137.73 72.07 141.97 46.19 146.21 42.59 150.46 41.93 154.7 49.54 158.95 58.59 163.19 62.86 167.43 66.24 171.68 64.74 175.92 60.53 180.17 88.54 184.41 88.9 188.65 61.45 192.9 69.86 197.14 79.53 201.39 75.56 205.63 74.58 209.87 73.14 214.12 74.01 218.36 73.61 222.61 67.24 226.85 68.65" stroke="#0000FF" class="geometry color_Democratic"/>
        <path fill="none" d="M65.58,118.95 L 74.06 63.38 78.31 59.25 82.55 70.7 86.8 69.03 91.04 70.48 95.28 69.85 99.53 81.7 103.77 70.24 108.02 71.65 112.26 77.68 116.51 71.62 120.75 106.52 124.99 75.56 129.24 73.99 133.48 77.62 137.73 61.8 141.97 88.49 146.21 91.28 150.46 91.93 154.7 84.32 158.95 84.95 163.19 71 167.43 67.62 171.68 69.13 175.92 73.33 180.17 77.85 184.41 46.68 188.65 72.95 192.9 67.65 197.14 54.55 201.39 58.64 205.63 73.75 209.87 68.25 214.12 60.66 218.36 60.67 222.61 67.58 226.85 66.52" stroke="#FF0000" class="geometry color_Republican"/>
      </g>
    </g>
  </g>
</g>
  <g class="guide ylabels" font-size="4.76" font-family="'PT Sans Caption','Helvetica Neue','Helvetica',sans-serif" fill="#A1A1A1" id="img-79e8ca24-23">
    <text x="24.38" y="118.95" text-anchor="end" dy="0.35em">0</text>
    <text x="24.38" y="92.94" text-anchor="end" dy="0.35em">25</text>
    <text x="24.38" y="66.93" text-anchor="end" dy="0.35em">50</text>
    <text x="24.38" y="40.92" text-anchor="end" dy="0.35em">75</text>
    <text x="24.38" y="14.91" text-anchor="end" dy="0.35em">100</text>
  </g>
  <g font-size="6.35" font-family="'PT Sans','Helvetica Neue','Helvetica',sans-serif" fill="#A1A1A1" stroke="#000000" stroke-opacity="0.000" id="img-79e8ca24-24">
    <text x="9.95" y="64.93" text-anchor="middle" dy="0.35em" transform="rotate(-90, 9.95, 66.93)">Popular Vote (%)</text>
  </g>
  <g font-size="6.35" font-family="'PT Sans','Helvetica Neue','Helvetica',sans-serif" fill="#A1A1A1" stroke="#000000" stroke-opacity="0.000" id="img-79e8ca24-25">
    <text x="129.24" y="5" text-anchor="middle" dy="0.6em">North Carolina</text>
  </g>
</g>
<defs>
  <clipPath id="img-79e8ca24-13">
  <path d="M25.38,12.91 L 233.1 12.91 233.1 120.95 25.38 120.95" />
</clipPath>
  <g id="img-79e8ca24-21">
    <circle cx="0" cy="0" r="0.9"/>
  </g>
</defs>
</svg>
