<?xml version="1.0" encoding="UTF-8"?>
<svg xmlns="http://www.w3.org/2000/svg"
     xmlns:xlink="http://www.w3.org/1999/xlink"
     xmlns:gadfly="http://www.gadflyjl.org/ns"
     version="1.2"
     width="320mm" height="160mm" viewBox="0 0 320 160"
     stroke="none"
     fill="#000000"
     stroke-width="0.3"
     font-size="3.88"
>
<g class="plotroot xscalable yscalable" id="img-baa616ee-1">
  <g class="guide colorkey" id="img-baa616ee-2">
    <g class="color_Democratic" id="img-baa616ee-3">
      <g fill="#4C404B" font-size="4.76" font-family="'PT Sans','Helvetica Neue','Helvetica',sans-serif" id="img-baa616ee-4">
        <text x="57.56" y="150.05" dy="0.35em">Democratic</text>
      </g>
      <g fill="#0000FF" stroke="#000000" stroke-opacity="0.000" id="img-baa616ee-5">
        <rect x="53.84" y="148.69" width="2.72" height="2.72"/>
      </g>
    </g>
    <g class="color_Republican" id="img-baa616ee-6">
      <g fill="#4C404B" font-size="4.76" font-family="'PT Sans','Helvetica Neue','Helvetica',sans-serif" id="img-baa616ee-7">
        <text x="30.1" y="150.05" dy="0.35em">Republican</text>
      </g>
      <g fill="#FF0000" stroke="#000000" stroke-opacity="0.000" id="img-baa616ee-8">
        <rect x="26.38" y="148.69" width="2.72" height="2.72"/>
      </g>
    </g>
    <g fill="#362A35" font-size="6.35" font-family="'PT Sans','Helvetica Neue','Helvetica',sans-serif" stroke="#000000" stroke-opacity="0.000" id="img-baa616ee-9">
      <text x="26.38" y="145.57">Party</text>
    </g>
  </g>
  <g font-size="6.35" font-family="'PT Sans','Helvetica Neue','Helvetica',sans-serif" fill="#564A55" stroke="#000000" stroke-opacity="0.000" id="img-baa616ee-10">
    <text x="170.19" y="130.75" text-anchor="middle" dy="0.6em">Year</text>
  </g>
  <g class="guide xlabels" font-size="4.76" font-family="'PT Sans Caption','Helvetica Neue','Helvetica',sans-serif" fill="#6C606B" id="img-baa616ee-11">
    <text x="27.38" y="122.24" text-anchor="middle" dy="0.6em">1908</text>
    <text x="48.54" y="122.24" text-anchor="middle" dy="0.6em">1916</text>
    <text x="69.69" y="122.24" text-anchor="middle" dy="0.6em">1924</text>
    <text x="90.85" y="122.24" text-anchor="middle" dy="0.6em">1932</text>
    <text x="112.01" y="122.24" text-anchor="middle" dy="0.6em">1940</text>
    <text x="133.16" y="122.24" text-anchor="middle" dy="0.6em">1948</text>
    <text x="154.32" y="122.24" text-anchor="middle" dy="0.6em">1956</text>
    <text x="175.48" y="122.24" text-anchor="middle" dy="0.6em">1964</text>
    <text x="196.64" y="122.24" text-anchor="middle" dy="0.6em">1972</text>
    <text x="217.79" y="122.24" text-anchor="middle" dy="0.6em">1980</text>
    <text x="238.95" y="122.24" text-anchor="middle" dy="0.6em">1988</text>
    <text x="260.11" y="122.24" text-anchor="middle" dy="0.6em">1996</text>
    <text x="281.26" y="122.24" text-anchor="middle" dy="0.6em">2004</text>
    <text x="302.42" y="122.24" text-anchor="middle" dy="0.6em">2012</text>
  </g>
<g clip-path="url(#img-baa616ee-12)">
  <g id="img-baa616ee-13">
    <g pointer-events="visible" opacity="1" fill="#000000" fill-opacity="0.000" stroke="#000000" stroke-opacity="0.000" class="guide background" id="img-baa616ee-14">
      <rect x="25.38" y="14.91" width="289.62" height="106.33"/>
    </g>
    <g class="guide ygridlines xfixed" stroke-dasharray="0.5,0.5" stroke-width="0.26" stroke="#000000" id="img-baa616ee-15">
      <path fill="none" d="M25.38,119.24 L 315 119.24"/>
      <path fill="none" d="M25.38,93.66 L 315 93.66"/>
      <path fill="none" d="M25.38,68.07 L 315 68.07"/>
      <path fill="none" d="M25.38,42.49 L 315 42.49"/>
      <path fill="none" d="M25.38,16.91 L 315 16.91"/>
    </g>
    <g class="guide xgridlines yfixed" stroke-dasharray="0.5,0.5" stroke-width="0.26" stroke="#000000" id="img-baa616ee-16">
      <path fill="none" d="M27.38,14.91 L 27.38 121.24"/>
      <path fill="none" d="M48.54,14.91 L 48.54 121.24"/>
      <path fill="none" d="M69.69,14.91 L 69.69 121.24"/>
      <path fill="none" d="M90.85,14.91 L 90.85 121.24"/>
      <path fill="none" d="M112.01,14.91 L 112.01 121.24"/>
      <path fill="none" d="M133.16,14.91 L 133.16 121.24"/>
      <path fill="none" d="M154.32,14.91 L 154.32 121.24"/>
      <path fill="none" d="M175.48,14.91 L 175.48 121.24"/>
      <path fill="none" d="M196.64,14.91 L 196.64 121.24"/>
      <path fill="none" d="M217.79,14.91 L 217.79 121.24"/>
      <path fill="none" d="M238.95,14.91 L 238.95 121.24"/>
      <path fill="none" d="M260.11,14.91 L 260.11 121.24"/>
      <path fill="none" d="M281.26,14.91 L 281.26 121.24"/>
      <path fill="none" d="M302.42,14.91 L 302.42 121.24"/>
    </g>
    <g class="plotpanel" id="img-baa616ee-17">
      <g class="geometry" id="img-baa616ee-18">
        <g stroke-width="0.3" id="img-baa616ee-19">
          <use xlink:href="#img-baa616ee-20" x="37.96" y="82.49" class="color_Republican" fill="#FF0000" stroke="#FFFFFF"/>
          <use xlink:href="#img-baa616ee-20" x="48.54" y="71.51" class="color_Republican" fill="#FF0000" stroke="#FFFFFF"/>
          <use xlink:href="#img-baa616ee-20" x="59.12" y="63.29" class="color_Republican" fill="#FF0000" stroke="#FFFFFF"/>
          <use xlink:href="#img-baa616ee-20" x="69.69" y="69.59" class="color_Republican" fill="#FF0000" stroke="#FFFFFF"/>
          <use xlink:href="#img-baa616ee-20" x="80.27" y="58.85" class="color_Republican" fill="#FF0000" stroke="#FFFFFF"/>
          <use xlink:href="#img-baa616ee-20" x="90.85" y="82.64" class="color_Republican" fill="#FF0000" stroke="#FFFFFF"/>
          <use xlink:href="#img-baa616ee-20" x="101.43" y="81.89" class="color_Republican" fill="#FF0000" stroke="#FFFFFF"/>
          <use xlink:href="#img-baa616ee-20" x="112.01" y="74.95" class="color_Republican" fill="#FF0000" stroke="#FFFFFF"/>
          <use xlink:href="#img-baa616ee-20" x="122.59" y="71.72" class="color_Republican" fill="#FF0000" stroke="#FFFFFF"/>
          <use xlink:href="#img-baa616ee-20" x="133.16" y="75.31" class="color_Republican" fill="#FF0000" stroke="#FFFFFF"/>
          <use xlink:href="#img-baa616ee-20" x="143.74" y="62.56" class="color_Republican" fill="#FF0000" stroke="#FFFFFF"/>
          <use xlink:href="#img-baa616ee-20" x="154.32" y="60.08" class="color_Republican" fill="#FF0000" stroke="#FFFFFF"/>
          <use xlink:href="#img-baa616ee-20" x="164.9" y="68.67" class="color_Republican" fill="#FF0000" stroke="#FFFFFF"/>
          <use xlink:href="#img-baa616ee-20" x="175.48" y="78.06" class="color_Republican" fill="#FF0000" stroke="#FFFFFF"/>
          <use xlink:href="#img-baa616ee-20" x="186.06" y="66.18" class="color_Republican" fill="#FF0000" stroke="#FFFFFF"/>
          <use xlink:href="#img-baa616ee-20" x="196.64" y="56.77" class="color_Republican" fill="#FF0000" stroke="#FFFFFF"/>
          <use xlink:href="#img-baa616ee-20" x="207.21" y="67.31" class="color_Republican" fill="#FF0000" stroke="#FFFFFF"/>
          <use xlink:href="#img-baa616ee-20" x="217.79" y="62.99" class="color_Republican" fill="#FF0000" stroke="#FFFFFF"/>
          <use xlink:href="#img-baa616ee-20" x="228.37" y="58.14" class="color_Republican" fill="#FF0000" stroke="#FFFFFF"/>
          <use xlink:href="#img-baa616ee-20" x="238.95" y="66.17" class="color_Republican" fill="#FF0000" stroke="#FFFFFF"/>
          <use xlink:href="#img-baa616ee-20" x="249.53" y="81.03" class="color_Republican" fill="#FF0000" stroke="#FFFFFF"/>
          <use xlink:href="#img-baa616ee-20" x="260.11" y="76.41" class="color_Republican" fill="#FF0000" stroke="#FFFFFF"/>
          <use xlink:href="#img-baa616ee-20" x="270.69" y="70.28" class="color_Republican" fill="#FF0000" stroke="#FFFFFF"/>
          <use xlink:href="#img-baa616ee-20" x="281.26" y="68.24" class="color_Republican" fill="#FF0000" stroke="#FFFFFF"/>
          <use xlink:href="#img-baa616ee-20" x="291.84" y="76.49" class="color_Republican" fill="#FF0000" stroke="#FFFFFF"/>
          <use xlink:href="#img-baa616ee-20" x="302.42" y="75.4" class="color_Republican" fill="#FF0000" stroke="#FFFFFF"/>
          <use xlink:href="#img-baa616ee-20" x="37.96" y="76.88" class="color_Democratic" fill="#0000FF" stroke="#FFFFFF"/>
          <use xlink:href="#img-baa616ee-20" x="48.54" y="67.87" class="color_Democratic" fill="#0000FF" stroke="#FFFFFF"/>
          <use xlink:href="#img-baa616ee-20" x="59.12" y="73.93" class="color_Democratic" fill="#0000FF" stroke="#FFFFFF"/>
          <use xlink:href="#img-baa616ee-20" x="69.69" y="75.21" class="color_Democratic" fill="#0000FF" stroke="#FFFFFF"/>
          <use xlink:href="#img-baa616ee-20" x="80.27" y="77.44" class="color_Democratic" fill="#0000FF" stroke="#FFFFFF"/>
          <use xlink:href="#img-baa616ee-20" x="90.85" y="55.06" class="color_Democratic" fill="#0000FF" stroke="#FFFFFF"/>
          <use xlink:href="#img-baa616ee-20" x="101.43" y="55.09" class="color_Democratic" fill="#0000FF" stroke="#FFFFFF"/>
          <use xlink:href="#img-baa616ee-20" x="112.01" y="61.33" class="color_Democratic" fill="#0000FF" stroke="#FFFFFF"/>
          <use xlink:href="#img-baa616ee-20" x="122.59" y="64.53" class="color_Democratic" fill="#0000FF" stroke="#FFFFFF"/>
          <use xlink:href="#img-baa616ee-20" x="133.16" y="61.55" class="color_Democratic" fill="#0000FF" stroke="#FFFFFF"/>
          <use xlink:href="#img-baa616ee-20" x="143.74" y="73.92" class="color_Democratic" fill="#0000FF" stroke="#FFFFFF"/>
          <use xlink:href="#img-baa616ee-20" x="154.32" y="76.48" class="color_Democratic" fill="#0000FF" stroke="#FFFFFF"/>
          <use xlink:href="#img-baa616ee-20" x="164.9" y="67.92" class="color_Democratic" fill="#0000FF" stroke="#FFFFFF"/>
          <use xlink:href="#img-baa616ee-20" x="175.48" y="58.64" class="color_Democratic" fill="#0000FF" stroke="#FFFFFF"/>
          <use xlink:href="#img-baa616ee-20" x="186.06" y="78.57" class="color_Democratic" fill="#0000FF" stroke="#FFFFFF"/>
          <use xlink:href="#img-baa616ee-20" x="196.64" y="81.83" class="color_Democratic" fill="#0000FF" stroke="#FFFFFF"/>
          <use xlink:href="#img-baa616ee-20" x="207.21" y="69.83" class="color_Democratic" fill="#0000FF" stroke="#FFFFFF"/>
          <use xlink:href="#img-baa616ee-20" x="217.79" y="81.6" class="color_Democratic" fill="#0000FF" stroke="#FFFFFF"/>
          <use xlink:href="#img-baa616ee-20" x="228.37" y="79.1" class="color_Democratic" fill="#0000FF" stroke="#FFFFFF"/>
          <use xlink:href="#img-baa616ee-20" x="238.95" y="71.24" class="color_Democratic" fill="#0000FF" stroke="#FFFFFF"/>
          <use xlink:href="#img-baa616ee-20" x="249.53" y="72.27" class="color_Democratic" fill="#0000FF" stroke="#FFFFFF"/>
          <use xlink:href="#img-baa616ee-20" x="260.11" y="68.91" class="color_Democratic" fill="#0000FF" stroke="#FFFFFF"/>
          <use xlink:href="#img-baa616ee-20" x="270.69" y="70.21" class="color_Democratic" fill="#0000FF" stroke="#FFFFFF"/>
          <use xlink:href="#img-baa616ee-20" x="281.26" y="69.05" class="color_Democratic" fill="#0000FF" stroke="#FFFFFF"/>
          <use xlink:href="#img-baa616ee-20" x="291.84" y="61.01" class="color_Democratic" fill="#0000FF" stroke="#FFFFFF"/>
          <use xlink:href="#img-baa616ee-20" x="302.42" y="65.01" class="color_Democratic" fill="#0000FF" stroke="#FFFFFF"/>
        </g>
      </g>
      <g stroke-width="0.53" fill="#000000" fill-opacity="0.000" stroke-dasharray="none" id="img-baa616ee-21">
        <path fill="none" d="M37.96,76.88 L 48.54 67.87 59.12 73.93 69.69 75.21 80.27 77.44 90.85 55.06 101.43 55.09 112.01 61.33 122.59 64.53 133.16 61.55 143.74 73.92 154.32 76.48 164.9 67.92 175.48 58.64 186.06 78.57 196.64 81.83 207.21 69.83 217.79 81.6 228.37 79.1 238.95 71.24 249.53 72.27 260.11 68.91 270.69 70.21 281.26 69.05 291.84 61.01 302.42 65.01" class="geometry color_Democratic" stroke="#0000FF"/>
        <path fill="none" d="M37.96,82.49 L 48.54 71.51 59.12 63.29 69.69 69.59 80.27 58.85 90.85 82.64 101.43 81.89 112.01 74.95 122.59 71.72 133.16 75.31 143.74 62.56 154.32 60.08 164.9 68.67 175.48 78.06 186.06 66.18 196.64 56.77 207.21 67.31 217.79 62.99 228.37 58.14 238.95 66.17 249.53 81.03 260.11 76.41 270.69 70.28 281.26 68.24 291.84 76.49 302.42 75.4" class="geometry color_Republican" stroke="#FF0000"/>
      </g>
    </g>
  </g>
</g>
  <g class="guide ylabels" font-size="4.76" font-family="'PT Sans Caption','Helvetica Neue','Helvetica',sans-serif" fill="#6C606B" id="img-baa616ee-22">
    <text x="24.38" y="119.24" text-anchor="end" dy="0.35em">0</text>
    <text x="24.38" y="93.66" text-anchor="end" dy="0.35em">25</text>
    <text x="24.38" y="68.07" text-anchor="end" dy="0.35em">50</text>
    <text x="24.38" y="42.49" text-anchor="end" dy="0.35em">75</text>
    <text x="24.38" y="16.91" text-anchor="end" dy="0.35em">100</text>
  </g>
  <g font-size="6.35" font-family="'PT Sans','Helvetica Neue','Helvetica',sans-serif" fill="#564A55" stroke="#000000" stroke-opacity="0.000" id="img-baa616ee-23">
    <text x="9.95" y="66.07" text-anchor="middle" dy="0.35em" transform="rotate(-90, 9.95, 68.07)">Popular Vote (%)</text>
  </g>
  <g font-size="6.35" font-family="'PT Sans','Helvetica Neue','Helvetica',sans-serif" fill="#564A55" stroke="#000000" stroke-opacity="0.000" id="img-baa616ee-24">
    <text x="170.19" y="12.91" text-anchor="middle">New Mexico</text>
  </g>
</g>
<defs>
  <clipPath id="img-baa616ee-12">
  <path d="M25.38,14.91 L 315 14.91 315 121.24 25.38 121.24" />
</clipPath>
  <g id="img-baa616ee-20">
    <circle cx="0" cy="0" r="0.9"/>
  </g>
</defs>
</svg>
