<?xml version="1.0" encoding="UTF-8"?>
<svg xmlns="http://www.w3.org/2000/svg"
     xmlns:xlink="http://www.w3.org/1999/xlink"
     xmlns:gadfly="http://www.gadflyjl.org/ns"
     version="1.2"
     width="320mm" height="160mm" viewBox="0 0 320 160"
     stroke="none"
     fill="#000000"
     stroke-width="0.3"
     font-size="3.88"
>
<g class="plotroot xscalable yscalable" id="img-4a2afcea-1">
  <g class="guide colorkey" id="img-4a2afcea-2">
    <g class="color_Democratic" id="img-4a2afcea-3">
      <g fill="#4C404B" font-size="4.76" font-family="'PT Sans','Helvetica Neue','Helvetica',sans-serif" id="img-4a2afcea-4">
        <text x="57.56" y="150.05" dy="0.35em">Democratic</text>
      </g>
      <g fill="#0000FF" stroke="#000000" stroke-opacity="0.000" id="img-4a2afcea-5">
        <rect x="53.84" y="148.69" width="2.72" height="2.72"/>
      </g>
    </g>
    <g class="color_Republican" id="img-4a2afcea-6">
      <g fill="#4C404B" font-size="4.76" font-family="'PT Sans','Helvetica Neue','Helvetica',sans-serif" id="img-4a2afcea-7">
        <text x="30.1" y="150.05" dy="0.35em">Republican</text>
      </g>
      <g fill="#FF0000" stroke="#000000" stroke-opacity="0.000" id="img-4a2afcea-8">
        <rect x="26.38" y="148.69" width="2.72" height="2.72"/>
      </g>
    </g>
    <g fill="#362A35" font-size="6.35" font-family="'PT Sans','Helvetica Neue','Helvetica',sans-serif" stroke="#000000" stroke-opacity="0.000" id="img-4a2afcea-9">
      <text x="26.38" y="145.57">Party</text>
    </g>
  </g>
  <g font-size="6.35" font-family="'PT Sans','Helvetica Neue','Helvetica',sans-serif" fill="#564A55" stroke="#000000" stroke-opacity="0.000" id="img-4a2afcea-10">
    <text x="170.19" y="130.75" text-anchor="middle" dy="0.6em">Year</text>
  </g>
  <g class="guide xlabels" font-size="4.76" font-family="'PT Sans Caption','Helvetica Neue','Helvetica',sans-serif" fill="#6C606B" id="img-4a2afcea-11">
    <text x="27.38" y="122.24" text-anchor="middle" dy="0.6em">1888</text>
    <text x="45.23" y="122.24" text-anchor="middle" dy="0.6em">1896</text>
    <text x="63.08" y="122.24" text-anchor="middle" dy="0.6em">1904</text>
    <text x="80.93" y="122.24" text-anchor="middle" dy="0.6em">1912</text>
    <text x="98.78" y="122.24" text-anchor="middle" dy="0.6em">1920</text>
    <text x="116.64" y="122.24" text-anchor="middle" dy="0.6em">1928</text>
    <text x="134.49" y="122.24" text-anchor="middle" dy="0.6em">1936</text>
    <text x="152.34" y="122.24" text-anchor="middle" dy="0.6em">1944</text>
    <text x="170.19" y="122.24" text-anchor="middle" dy="0.6em">1952</text>
    <text x="188.04" y="122.24" text-anchor="middle" dy="0.6em">1960</text>
    <text x="205.89" y="122.24" text-anchor="middle" dy="0.6em">1968</text>
    <text x="223.74" y="122.24" text-anchor="middle" dy="0.6em">1976</text>
    <text x="241.59" y="122.24" text-anchor="middle" dy="0.6em">1984</text>
    <text x="259.45" y="122.24" text-anchor="middle" dy="0.6em">1992</text>
    <text x="277.3" y="122.24" text-anchor="middle" dy="0.6em">2000</text>
    <text x="295.15" y="122.24" text-anchor="middle" dy="0.6em">2008</text>
    <text x="313" y="122.24" text-anchor="middle" dy="0.6em">2016</text>
  </g>
<g clip-path="url(#img-4a2afcea-12)">
  <g id="img-4a2afcea-13">
    <g pointer-events="visible" opacity="1" fill="#000000" fill-opacity="0.000" stroke="#000000" stroke-opacity="0.000" class="guide background" id="img-4a2afcea-14">
      <rect x="25.38" y="14.91" width="289.62" height="106.33"/>
    </g>
    <g class="guide ygridlines xfixed" stroke-dasharray="0.5,0.5" stroke-width="0.26" stroke="#000000" id="img-4a2afcea-15">
      <path fill="none" d="M25.38,119.24 L 315 119.24"/>
      <path fill="none" d="M25.38,93.66 L 315 93.66"/>
      <path fill="none" d="M25.38,68.07 L 315 68.07"/>
      <path fill="none" d="M25.38,42.49 L 315 42.49"/>
      <path fill="none" d="M25.38,16.91 L 315 16.91"/>
    </g>
    <g class="guide xgridlines yfixed" stroke-dasharray="0.5,0.5" stroke-width="0.26" stroke="#000000" id="img-4a2afcea-16">
      <path fill="none" d="M27.38,14.91 L 27.38 121.24"/>
      <path fill="none" d="M45.23,14.91 L 45.23 121.24"/>
      <path fill="none" d="M63.08,14.91 L 63.08 121.24"/>
      <path fill="none" d="M80.93,14.91 L 80.93 121.24"/>
      <path fill="none" d="M98.78,14.91 L 98.78 121.24"/>
      <path fill="none" d="M116.64,14.91 L 116.64 121.24"/>
      <path fill="none" d="M134.49,14.91 L 134.49 121.24"/>
      <path fill="none" d="M152.34,14.91 L 152.34 121.24"/>
      <path fill="none" d="M170.19,14.91 L 170.19 121.24"/>
      <path fill="none" d="M188.04,14.91 L 188.04 121.24"/>
      <path fill="none" d="M205.89,14.91 L 205.89 121.24"/>
      <path fill="none" d="M223.74,14.91 L 223.74 121.24"/>
      <path fill="none" d="M241.59,14.91 L 241.59 121.24"/>
      <path fill="none" d="M259.45,14.91 L 259.45 121.24"/>
      <path fill="none" d="M277.3,14.91 L 277.3 121.24"/>
      <path fill="none" d="M295.15,14.91 L 295.15 121.24"/>
      <path fill="none" d="M313,14.91 L 313 121.24"/>
    </g>
    <g class="plotpanel" id="img-4a2afcea-17">
      <g class="geometry" id="img-4a2afcea-18">
        <g stroke-width="0.3" id="img-4a2afcea-19">
          <use xlink:href="#img-4a2afcea-20" x="36.31" y="69.6" class="color_Republican" fill="#FF0000" stroke="#FFFFFF"/>
          <use xlink:href="#img-4a2afcea-20" x="45.23" y="62.37" class="color_Republican" fill="#FF0000" stroke="#FFFFFF"/>
          <use xlink:href="#img-4a2afcea-20" x="54.16" y="55.67" class="color_Republican" fill="#FF0000" stroke="#FFFFFF"/>
          <use xlink:href="#img-4a2afcea-20" x="63.08" y="42.37" class="color_Republican" fill="#FF0000" stroke="#FFFFFF"/>
          <use xlink:href="#img-4a2afcea-20" x="72.01" y="56.8" class="color_Republican" fill="#FF0000" stroke="#FFFFFF"/>
          <use xlink:href="#img-4a2afcea-20" x="80.93" y="91.95" class="color_Republican" fill="#FF0000" stroke="#FFFFFF"/>
          <use xlink:href="#img-4a2afcea-20" x="89.86" y="71.82" class="color_Republican" fill="#FF0000" stroke="#FFFFFF"/>
          <use xlink:href="#img-4a2afcea-20" x="98.78" y="39.64" class="color_Republican" fill="#FF0000" stroke="#FFFFFF"/>
          <use xlink:href="#img-4a2afcea-20" x="107.71" y="70.44" class="color_Republican" fill="#FF0000" stroke="#FFFFFF"/>
          <use xlink:href="#img-4a2afcea-20" x="116.64" y="63.16" class="color_Republican" fill="#FF0000" stroke="#FFFFFF"/>
          <use xlink:href="#img-4a2afcea-20" x="125.56" y="90.58" class="color_Republican" fill="#FF0000" stroke="#FFFFFF"/>
          <use xlink:href="#img-4a2afcea-20" x="134.49" y="92.04" class="color_Republican" fill="#FF0000" stroke="#FFFFFF"/>
          <use xlink:href="#img-4a2afcea-20" x="143.41" y="62.9" class="color_Republican" fill="#FF0000" stroke="#FFFFFF"/>
          <use xlink:href="#img-4a2afcea-20" x="152.34" y="64.15" class="color_Republican" fill="#FF0000" stroke="#FFFFFF"/>
          <use xlink:href="#img-4a2afcea-20" x="161.26" y="65.86" class="color_Republican" fill="#FF0000" stroke="#FFFFFF"/>
          <use xlink:href="#img-4a2afcea-20" x="170.19" y="46.61" class="color_Republican" fill="#FF0000" stroke="#FFFFFF"/>
          <use xlink:href="#img-4a2afcea-20" x="179.12" y="56.08" class="color_Republican" fill="#FF0000" stroke="#FFFFFF"/>
          <use xlink:href="#img-4a2afcea-20" x="188.04" y="62.53" class="color_Republican" fill="#FF0000" stroke="#FFFFFF"/>
          <use xlink:href="#img-4a2afcea-20" x="196.97" y="76.39" class="color_Republican" fill="#FF0000" stroke="#FFFFFF"/>
          <use xlink:href="#img-4a2afcea-20" x="205.89" y="61.99" class="color_Republican" fill="#FF0000" stroke="#FFFFFF"/>
          <use xlink:href="#img-4a2afcea-20" x="214.82" y="55.73" class="color_Republican" fill="#FF0000" stroke="#FFFFFF"/>
          <use xlink:href="#img-4a2afcea-20" x="223.74" y="66.38" class="color_Republican" fill="#FF0000" stroke="#FFFFFF"/>
          <use xlink:href="#img-4a2afcea-20" x="232.67" y="53.51" class="color_Republican" fill="#FF0000" stroke="#FFFFFF"/>
          <use xlink:href="#img-4a2afcea-20" x="241.59" y="52.89" class="color_Republican" fill="#FF0000" stroke="#FFFFFF"/>
          <use xlink:href="#img-4a2afcea-20" x="250.52" y="61.9" class="color_Republican" fill="#FF0000" stroke="#FFFFFF"/>
          <use xlink:href="#img-4a2afcea-20" x="259.45" y="73.99" class="color_Republican" fill="#FF0000" stroke="#FFFFFF"/>
          <use xlink:href="#img-4a2afcea-20" x="268.37" y="71.21" class="color_Republican" fill="#FF0000" stroke="#FFFFFF"/>
          <use xlink:href="#img-4a2afcea-20" x="277.3" y="57.17" class="color_Republican" fill="#FF0000" stroke="#FFFFFF"/>
          <use xlink:href="#img-4a2afcea-20" x="286.22" y="54.91" class="color_Republican" fill="#FF0000" stroke="#FFFFFF"/>
          <use xlink:href="#img-4a2afcea-20" x="295.15" y="64.85" class="color_Republican" fill="#FF0000" stroke="#FFFFFF"/>
          <use xlink:href="#img-4a2afcea-20" x="304.07" y="59.56" class="color_Republican" fill="#FF0000" stroke="#FFFFFF"/>
          <use xlink:href="#img-4a2afcea-20" x="36.31" y="119.24" class="color_Democratic" fill="#0000FF" stroke="#FFFFFF"/>
          <use xlink:href="#img-4a2afcea-20" x="45.23" y="74.57" class="color_Democratic" fill="#0000FF" stroke="#FFFFFF"/>
          <use xlink:href="#img-4a2afcea-20" x="54.16" y="82.88" class="color_Democratic" fill="#0000FF" stroke="#FFFFFF"/>
          <use xlink:href="#img-4a2afcea-20" x="63.08" y="98.38" class="color_Democratic" fill="#0000FF" stroke="#FFFFFF"/>
          <use xlink:href="#img-4a2afcea-20" x="72.01" y="83.64" class="color_Democratic" fill="#0000FF" stroke="#FFFFFF"/>
          <use xlink:href="#img-4a2afcea-20" x="80.93" y="84.31" class="color_Democratic" fill="#0000FF" stroke="#FFFFFF"/>
          <use xlink:href="#img-4a2afcea-20" x="89.86" y="70.28" class="color_Democratic" fill="#0000FF" stroke="#FFFFFF"/>
          <use xlink:href="#img-4a2afcea-20" x="98.78" y="100.63" class="color_Democratic" fill="#0000FF" stroke="#FFFFFF"/>
          <use xlink:href="#img-4a2afcea-20" x="107.71" y="112.12" class="color_Democratic" fill="#0000FF" stroke="#FFFFFF"/>
          <use xlink:href="#img-4a2afcea-20" x="116.64" y="73.74" class="color_Democratic" fill="#0000FF" stroke="#FFFFFF"/>
          <use xlink:href="#img-4a2afcea-20" x="125.56" y="48.03" class="color_Democratic" fill="#0000FF" stroke="#FFFFFF"/>
          <use xlink:href="#img-4a2afcea-20" x="134.49" y="58.25" class="color_Democratic" fill="#0000FF" stroke="#FFFFFF"/>
          <use xlink:href="#img-4a2afcea-20" x="143.41" y="74.03" class="color_Democratic" fill="#0000FF" stroke="#FFFFFF"/>
          <use xlink:href="#img-4a2afcea-20" x="152.34" y="72.69" class="color_Democratic" fill="#0000FF" stroke="#FFFFFF"/>
          <use xlink:href="#img-4a2afcea-20" x="161.26" y="74.82" class="color_Democratic" fill="#0000FF" stroke="#FFFFFF"/>
          <use xlink:href="#img-4a2afcea-20" x="170.19" y="90.19" class="color_Democratic" fill="#0000FF" stroke="#FFFFFF"/>
          <use xlink:href="#img-4a2afcea-20" x="179.12" y="80.26" class="color_Democratic" fill="#0000FF" stroke="#FFFFFF"/>
          <use xlink:href="#img-4a2afcea-20" x="188.04" y="73.68" class="color_Democratic" fill="#0000FF" stroke="#FFFFFF"/>
          <use xlink:href="#img-4a2afcea-20" x="196.97" y="59.92" class="color_Democratic" fill="#0000FF" stroke="#FFFFFF"/>
          <use xlink:href="#img-4a2afcea-20" x="205.89" y="80.12" class="color_Democratic" fill="#0000FF" stroke="#FFFFFF"/>
          <use xlink:href="#img-4a2afcea-20" x="214.82" y="82.62" class="color_Democratic" fill="#0000FF" stroke="#FFFFFF"/>
          <use xlink:href="#img-4a2afcea-20" x="223.74" y="72.37" class="color_Democratic" fill="#0000FF" stroke="#FFFFFF"/>
          <use xlink:href="#img-4a2afcea-20" x="232.67" y="92.37" class="color_Democratic" fill="#0000FF" stroke="#FFFFFF"/>
          <use xlink:href="#img-4a2afcea-20" x="241.59" y="84.65" class="color_Democratic" fill="#0000FF" stroke="#FFFFFF"/>
          <use xlink:href="#img-4a2afcea-20" x="250.52" y="75.27" class="color_Democratic" fill="#0000FF" stroke="#FFFFFF"/>
          <use xlink:href="#img-4a2afcea-20" x="259.45" y="86.31" class="color_Democratic" fill="#0000FF" stroke="#FFFFFF"/>
          <use xlink:href="#img-4a2afcea-20" x="268.37" y="78.18" class="color_Democratic" fill="#0000FF" stroke="#FFFFFF"/>
          <use xlink:href="#img-4a2afcea-20" x="277.3" y="85.41" class="color_Democratic" fill="#0000FF" stroke="#FFFFFF"/>
          <use xlink:href="#img-4a2afcea-20" x="286.22" y="82.91" class="color_Democratic" fill="#0000FF" stroke="#FFFFFF"/>
          <use xlink:href="#img-4a2afcea-20" x="295.15" y="73.7" class="color_Democratic" fill="#0000FF" stroke="#FFFFFF"/>
          <use xlink:href="#img-4a2afcea-20" x="304.07" y="79.65" class="color_Democratic" fill="#0000FF" stroke="#FFFFFF"/>
        </g>
      </g>
      <g stroke-width="0.53" fill="#000000" fill-opacity="0.000" stroke-dasharray="none" id="img-4a2afcea-21">
        <path fill="none" d="M36.31,119.24 L 45.23 74.57 54.16 82.88 63.08 98.38 72.01 83.64 80.93 84.31 89.86 70.28 98.78 100.63 107.71 112.12 116.64 73.74 125.56 48.03 134.49 58.25 143.41 74.03 152.34 72.69 161.26 74.82 170.19 90.19 179.12 80.26 188.04 73.68 196.97 59.92 205.89 80.12 214.82 82.62 223.74 72.37 232.67 92.37 241.59 84.65 250.52 75.27 259.45 86.31 268.37 78.18 277.3 85.41 286.22 82.91 295.15 73.7 304.07 79.65" class="geometry color_Democratic" stroke="#0000FF"/>
        <path fill="none" d="M36.31,69.6 L 45.23 62.37 54.16 55.67 63.08 42.37 72.01 56.8 80.93 91.95 89.86 71.82 98.78 39.64 107.71 70.44 116.64 63.16 125.56 90.58 134.49 92.04 143.41 62.9 152.34 64.15 161.26 65.86 170.19 46.61 179.12 56.08 188.04 62.53 196.97 76.39 205.89 61.99 214.82 55.73 223.74 66.38 232.67 53.51 241.59 52.89 250.52 61.9 259.45 73.99 268.37 71.21 277.3 57.17 286.22 54.91 295.15 64.85 304.07 59.56" class="geometry color_Republican" stroke="#FF0000"/>
      </g>
    </g>
  </g>
</g>
  <g class="guide ylabels" font-size="4.76" font-family="'PT Sans Caption','Helvetica Neue','Helvetica',sans-serif" fill="#6C606B" id="img-4a2afcea-22">
    <text x="24.38" y="119.24" text-anchor="end" dy="0.35em">0</text>
    <text x="24.38" y="93.66" text-anchor="end" dy="0.35em">25</text>
    <text x="24.38" y="68.07" text-anchor="end" dy="0.35em">50</text>
    <text x="24.38" y="42.49" text-anchor="end" dy="0.35em">75</text>
    <text x="24.38" y="16.91" text-anchor="end" dy="0.35em">100</text>
  </g>
  <g font-size="6.35" font-family="'PT Sans','Helvetica Neue','Helvetica',sans-serif" fill="#564A55" stroke="#000000" stroke-opacity="0.000" id="img-4a2afcea-23">
    <text x="9.95" y="66.07" text-anchor="middle" dy="0.35em" transform="rotate(-90, 9.95, 68.07)">Popular Vote (%)</text>
  </g>
  <g font-size="6.35" font-family="'PT Sans','Helvetica Neue','Helvetica',sans-serif" fill="#564A55" stroke="#000000" stroke-opacity="0.000" id="img-4a2afcea-24">
    <text x="170.19" y="12.91" text-anchor="middle">North Dakota</text>
  </g>
</g>
<defs>
  <clipPath id="img-4a2afcea-12">
  <path d="M25.38,14.91 L 315 14.91 315 121.24 25.38 121.24" />
</clipPath>
  <g id="img-4a2afcea-20">
    <circle cx="0" cy="0" r="0.9"/>
  </g>
</defs>
</svg>
