<?xml version="1.0" encoding="UTF-8"?>
<svg xmlns="http://www.w3.org/2000/svg"
     xmlns:xlink="http://www.w3.org/1999/xlink"
     xmlns:gadfly="http://www.gadflyjl.org/ns"
     version="1.2"
     width="320mm" height="160mm" viewBox="0 0 320 160"
     stroke="none"
     fill="#000000"
     stroke-width="0.3"
     font-size="3.88"
>
<g class="plotroot xscalable yscalable" id="img-a3145b02-1">
  <g class="guide colorkey" id="img-a3145b02-2">
    <g class="color_Democratic" id="img-a3145b02-3">
      <g fill="#FFFFFF" font-size="4.76" font-family="'PT Sans','Helvetica Neue','Helvetica',sans-serif" id="img-a3145b02-4">
        <text x="48.93" y="149.82" dy="0.35em">Democratic</text>
      </g>
      <g fill="#0000FF" stroke="#000000" stroke-opacity="0.000" id="img-a3145b02-5">
        <rect x="44.96" y="148.34" width="2.97" height="2.97"/>
      </g>
    </g>
    <g class="color_Republican" id="img-a3145b02-6">
      <g fill="#FFFFFF" font-size="4.76" font-family="'PT Sans','Helvetica Neue','Helvetica',sans-serif" id="img-a3145b02-7">
        <text x="20.32" y="149.82" dy="0.35em">Republican</text>
      </g>
      <g fill="#FF0000" stroke="#000000" stroke-opacity="0.000" id="img-a3145b02-8">
        <rect x="16.35" y="148.34" width="2.97" height="2.97"/>
      </g>
    </g>
    <g fill="#FFFFFF" font-size="6.35" font-family="'PT Sans','Helvetica Neue','Helvetica',sans-serif" stroke="#000000" stroke-opacity="0.000" id="img-a3145b02-9">
      <text x="16.35" y="145.06">Party</text>
    </g>
  </g>
  <g font-size="6.35" font-family="'PT Sans','Helvetica Neue','Helvetica',sans-serif" fill="#FFFFFF" stroke="#000000" stroke-opacity="0.000" id="img-a3145b02-10">
    <text x="165.18" y="130.77" text-anchor="middle" dy="0.6em">Year</text>
  </g>
<g clip-path="url(#img-a3145b02-11)">
  <g id="img-a3145b02-12">
    <g class="plotpanel" id="img-a3145b02-13">
      <g class="guide xlabels" font-size="4.76" font-family="'PT Sans Caption','Helvetica Neue','Helvetica',sans-serif" fill="#FFFFFF" id="img-a3145b02-14">
        <text x="37.11" y="122.89" text-anchor="middle" dy="0.6em">1824</text>
        <text x="54.23" y="122.89" text-anchor="middle" dy="0.6em">1836</text>
        <text x="71.34" y="122.89" text-anchor="middle" dy="0.6em">1848</text>
        <text x="88.46" y="122.89" text-anchor="middle" dy="0.6em">1860</text>
        <text x="105.58" y="122.89" text-anchor="middle" dy="0.6em">1872</text>
        <text x="122.7" y="122.89" text-anchor="middle" dy="0.6em">1884</text>
        <text x="139.82" y="122.89" text-anchor="middle" dy="0.6em">1896</text>
        <text x="156.94" y="122.89" text-anchor="middle" dy="0.6em">1908</text>
        <text x="174.05" y="122.89" text-anchor="middle" dy="0.6em">1920</text>
        <text x="191.17" y="122.89" text-anchor="middle" dy="0.6em">1932</text>
        <text x="208.29" y="122.89" text-anchor="middle" dy="0.6em">1944</text>
        <text x="225.41" y="122.89" text-anchor="middle" dy="0.6em">1956</text>
        <text x="242.53" y="122.89" text-anchor="middle" dy="0.6em">1968</text>
        <text x="259.65" y="122.89" text-anchor="middle" dy="0.6em">1980</text>
        <text x="276.76" y="122.89" text-anchor="middle" dy="0.6em">1992</text>
        <text x="293.88" y="122.89" text-anchor="middle" dy="0.6em">2004</text>
        <text x="311" y="122.89" text-anchor="middle" dy="0.6em">2016</text>
      </g>
<g clip-path="url(#img-a3145b02-15)">
      <g id="img-a3145b02-16">
        <g pointer-events="visible" opacity="1" fill="#000000" fill-opacity="0.000" stroke="#000000" stroke-opacity="0.000" class="guide background" id="img-a3145b02-17">
          <rect x="35.11" y="65.45" width="277.89" height="56.45"/>
        </g>
        <g class="guide ygridlines xfixed" stroke-dasharray="0.5,0.5" stroke-width="0.26" stroke="#FFFFFF" id="img-a3145b02-18">
          <path fill="none" d="M35.11,119.89 L 313 119.89"/>
          <path fill="none" d="M35.11,93.67 L 313 93.67"/>
          <path fill="none" d="M35.11,67.45 L 313 67.45"/>
        </g>
        <g class="guide xgridlines yfixed" stroke-dasharray="0.5,0.5" stroke-width="0.26" stroke="#FFFFFF" id="img-a3145b02-19">
          <path fill="none" d="M37.11,65.45 L 37.11 121.89"/>
          <path fill="none" d="M54.23,65.45 L 54.23 121.89"/>
          <path fill="none" d="M71.34,65.45 L 71.34 121.89"/>
          <path fill="none" d="M88.46,65.45 L 88.46 121.89"/>
          <path fill="none" d="M105.58,65.45 L 105.58 121.89"/>
          <path fill="none" d="M122.7,65.45 L 122.7 121.89"/>
          <path fill="none" d="M139.82,65.45 L 139.82 121.89"/>
          <path fill="none" d="M156.94,65.45 L 156.94 121.89"/>
          <path fill="none" d="M174.05,65.45 L 174.05 121.89"/>
          <path fill="none" d="M191.17,65.45 L 191.17 121.89"/>
          <path fill="none" d="M208.29,65.45 L 208.29 121.89"/>
          <path fill="none" d="M225.41,65.45 L 225.41 121.89"/>
          <path fill="none" d="M242.53,65.45 L 242.53 121.89"/>
          <path fill="none" d="M259.65,65.45 L 259.65 121.89"/>
          <path fill="none" d="M276.76,65.45 L 276.76 121.89"/>
          <path fill="none" d="M293.88,65.45 L 293.88 121.89"/>
          <path fill="none" d="M311,65.45 L 311 121.89"/>
        </g>
        <g class="plotpanel" id="img-a3145b02-20">
          <g stroke-width="0.53" fill="#000000" fill-opacity="0.000" stroke-dasharray="none" id="img-a3145b02-21">
            <path fill="none" d="M42.81,90.44 L 48.52 91.02 54.23 93.21 59.93 95.34 65.64 93.89 71.34 97.59 77.05 93.14 82.76 96.12 88.46 104.41 94.17 96.31 99.88 95.07 105.58 96.87 111.29 93.14 116.99 94.57 122.7 94.26 128.41 94.37 134.11 95.7 139.82 95.36 145.52 96.01 151.23 100.13 156.94 97.25 162.64 97.9 168.35 94 174.05 101.92 179.76 104.7 185.47 98.44 191.17 89.65 196.88 87.91 202.58 91.05 208.29 91.77 214 93.82 219.7 96.53 225.41 97.8 231.11 93.63 236.82 87.72 242.53 97.41 248.23 100.14 253.94 93.36 259.65 98.32 265.35 98.48 271.06 95.83 276.76 97.25 282.47 93.96 288.18 94.46 293.88 94.5 299.59 92.01 305.29 93.01" stroke="#0000FF" class="geometry color_Democratic"/>
            <path fill="none" d="M82.76,102.52 L 88.46 99.1 94.17 91.02 99.88 92.27 105.58 90.66 111.29 94.72 116.99 94.52 122.7 94.56 128.41 94.81 134.11 97.28 139.82 93.09 145.52 92.78 151.23 90.23 156.94 92.76 162.64 107.71 168.35 95.64 174.05 88.11 179.76 91.4 185.47 89.28 191.17 99 196.88 100.67 202.58 96.29 208.29 95.72 214 96.18 219.7 90.81 225.41 89.7 231.11 93.71 236.82 99.62 242.53 97.04 248.23 87.95 253.94 94.46 259.65 93.2 265.35 88.86 271.06 91.76 276.76 100.18 282.47 98.44 288.18 94.73 293.88 93.21 299.59 95.84 305.29 95.04" stroke="#FF0000" class="geometry color_Republican"/>
          </g>
          <g class="geometry" id="img-a3145b02-22">
            <g stroke-width="0.3" id="img-a3145b02-23">
              <use xlink:href="#img-a3145b02-24" x="82.76" y="102.52" stroke="#FFFFFF" fill="#FF0000" class="color_Republican"/>
              <use xlink:href="#img-a3145b02-24" x="88.46" y="99.1" stroke="#FFFFFF" fill="#FF0000" class="color_Republican"/>
              <use xlink:href="#img-a3145b02-24" x="94.17" y="91.02" stroke="#FFFFFF" fill="#FF0000" class="color_Republican"/>
              <use xlink:href="#img-a3145b02-24" x="99.88" y="92.27" stroke="#FFFFFF" fill="#FF0000" class="color_Republican"/>
              <use xlink:href="#img-a3145b02-24" x="105.58" y="90.66" stroke="#FFFFFF" fill="#FF0000" class="color_Republican"/>
              <use xlink:href="#img-a3145b02-24" x="111.29" y="94.72" stroke="#FFFFFF" fill="#FF0000" class="color_Republican"/>
              <use xlink:href="#img-a3145b02-24" x="116.99" y="94.52" stroke="#FFFFFF" fill="#FF0000" class="color_Republican"/>
              <use xlink:href="#img-a3145b02-24" x="122.7" y="94.56" stroke="#FFFFFF" fill="#FF0000" class="color_Republican"/>
              <use xlink:href="#img-a3145b02-24" x="128.41" y="94.81" stroke="#FFFFFF" fill="#FF0000" class="color_Republican"/>
              <use xlink:href="#img-a3145b02-24" x="134.11" y="97.28" stroke="#FFFFFF" fill="#FF0000" class="color_Republican"/>
              <use xlink:href="#img-a3145b02-24" x="139.82" y="93.09" stroke="#FFFFFF" fill="#FF0000" class="color_Republican"/>
              <use xlink:href="#img-a3145b02-24" x="145.52" y="92.78" stroke="#FFFFFF" fill="#FF0000" class="color_Republican"/>
              <use xlink:href="#img-a3145b02-24" x="151.23" y="90.23" stroke="#FFFFFF" fill="#FF0000" class="color_Republican"/>
              <use xlink:href="#img-a3145b02-24" x="156.94" y="92.76" stroke="#FFFFFF" fill="#FF0000" class="color_Republican"/>
              <use xlink:href="#img-a3145b02-24" x="162.64" y="107.71" stroke="#FFFFFF" fill="#FF0000" class="color_Republican"/>
              <use xlink:href="#img-a3145b02-24" x="168.35" y="95.64" stroke="#FFFFFF" fill="#FF0000" class="color_Republican"/>
              <use xlink:href="#img-a3145b02-24" x="174.05" y="88.11" stroke="#FFFFFF" fill="#FF0000" class="color_Republican"/>
              <use xlink:href="#img-a3145b02-24" x="179.76" y="91.4" stroke="#FFFFFF" fill="#FF0000" class="color_Republican"/>
              <use xlink:href="#img-a3145b02-24" x="185.47" y="89.28" stroke="#FFFFFF" fill="#FF0000" class="color_Republican"/>
              <use xlink:href="#img-a3145b02-24" x="191.17" y="99" stroke="#FFFFFF" fill="#FF0000" class="color_Republican"/>
              <use xlink:href="#img-a3145b02-24" x="196.88" y="100.67" stroke="#FFFFFF" fill="#FF0000" class="color_Republican"/>
              <use xlink:href="#img-a3145b02-24" x="202.58" y="96.29" stroke="#FFFFFF" fill="#FF0000" class="color_Republican"/>
              <use xlink:href="#img-a3145b02-24" x="208.29" y="95.72" stroke="#FFFFFF" fill="#FF0000" class="color_Republican"/>
              <use xlink:href="#img-a3145b02-24" x="214" y="96.18" stroke="#FFFFFF" fill="#FF0000" class="color_Republican"/>
              <use xlink:href="#img-a3145b02-24" x="219.7" y="90.81" stroke="#FFFFFF" fill="#FF0000" class="color_Republican"/>
              <use xlink:href="#img-a3145b02-24" x="225.41" y="89.7" stroke="#FFFFFF" fill="#FF0000" class="color_Republican"/>
              <use xlink:href="#img-a3145b02-24" x="231.11" y="93.71" stroke="#FFFFFF" fill="#FF0000" class="color_Republican"/>
              <use xlink:href="#img-a3145b02-24" x="236.82" y="99.62" stroke="#FFFFFF" fill="#FF0000" class="color_Republican"/>
              <use xlink:href="#img-a3145b02-24" x="242.53" y="97.04" stroke="#FFFFFF" fill="#FF0000" class="color_Republican"/>
              <use xlink:href="#img-a3145b02-24" x="248.23" y="87.95" stroke="#FFFFFF" fill="#FF0000" class="color_Republican"/>
              <use xlink:href="#img-a3145b02-24" x="253.94" y="94.46" stroke="#FFFFFF" fill="#FF0000" class="color_Republican"/>
              <use xlink:href="#img-a3145b02-24" x="259.65" y="93.2" stroke="#FFFFFF" fill="#FF0000" class="color_Republican"/>
              <use xlink:href="#img-a3145b02-24" x="265.35" y="88.86" stroke="#FFFFFF" fill="#FF0000" class="color_Republican"/>
              <use xlink:href="#img-a3145b02-24" x="271.06" y="91.76" stroke="#FFFFFF" fill="#FF0000" class="color_Republican"/>
              <use xlink:href="#img-a3145b02-24" x="276.76" y="100.18" stroke="#FFFFFF" fill="#FF0000" class="color_Republican"/>
              <use xlink:href="#img-a3145b02-24" x="282.47" y="98.44" stroke="#FFFFFF" fill="#FF0000" class="color_Republican"/>
              <use xlink:href="#img-a3145b02-24" x="288.18" y="94.73" stroke="#FFFFFF" fill="#FF0000" class="color_Republican"/>
              <use xlink:href="#img-a3145b02-24" x="293.88" y="93.21" stroke="#FFFFFF" fill="#FF0000" class="color_Republican"/>
              <use xlink:href="#img-a3145b02-24" x="299.59" y="95.84" stroke="#FFFFFF" fill="#FF0000" class="color_Republican"/>
              <use xlink:href="#img-a3145b02-24" x="305.29" y="95.04" stroke="#FFFFFF" fill="#FF0000" class="color_Republican"/>
              <use xlink:href="#img-a3145b02-24" x="42.81" y="90.44" stroke="#FFFFFF" fill="#0000FF" class="color_Democratic"/>
              <use xlink:href="#img-a3145b02-24" x="48.52" y="91.02" stroke="#FFFFFF" fill="#0000FF" class="color_Democratic"/>
              <use xlink:href="#img-a3145b02-24" x="54.23" y="93.21" stroke="#FFFFFF" fill="#0000FF" class="color_Democratic"/>
              <use xlink:href="#img-a3145b02-24" x="59.93" y="95.34" stroke="#FFFFFF" fill="#0000FF" class="color_Democratic"/>
              <use xlink:href="#img-a3145b02-24" x="65.64" y="93.89" stroke="#FFFFFF" fill="#0000FF" class="color_Democratic"/>
              <use xlink:href="#img-a3145b02-24" x="71.34" y="97.59" stroke="#FFFFFF" fill="#0000FF" class="color_Democratic"/>
              <use xlink:href="#img-a3145b02-24" x="77.05" y="93.14" stroke="#FFFFFF" fill="#0000FF" class="color_Democratic"/>
              <use xlink:href="#img-a3145b02-24" x="82.76" y="96.12" stroke="#FFFFFF" fill="#0000FF" class="color_Democratic"/>
              <use xlink:href="#img-a3145b02-24" x="88.46" y="104.41" stroke="#FFFFFF" fill="#0000FF" class="color_Democratic"/>
              <use xlink:href="#img-a3145b02-24" x="94.17" y="96.31" stroke="#FFFFFF" fill="#0000FF" class="color_Democratic"/>
              <use xlink:href="#img-a3145b02-24" x="99.88" y="95.07" stroke="#FFFFFF" fill="#0000FF" class="color_Democratic"/>
              <use xlink:href="#img-a3145b02-24" x="105.58" y="96.87" stroke="#FFFFFF" fill="#0000FF" class="color_Democratic"/>
              <use xlink:href="#img-a3145b02-24" x="111.29" y="93.14" stroke="#FFFFFF" fill="#0000FF" class="color_Democratic"/>
              <use xlink:href="#img-a3145b02-24" x="116.99" y="94.57" stroke="#FFFFFF" fill="#0000FF" class="color_Democratic"/>
              <use xlink:href="#img-a3145b02-24" x="122.7" y="94.26" stroke="#FFFFFF" fill="#0000FF" class="color_Democratic"/>
              <use xlink:href="#img-a3145b02-24" x="128.41" y="94.37" stroke="#FFFFFF" fill="#0000FF" class="color_Democratic"/>
              <use xlink:href="#img-a3145b02-24" x="134.11" y="95.7" stroke="#FFFFFF" fill="#0000FF" class="color_Democratic"/>
              <use xlink:href="#img-a3145b02-24" x="139.82" y="95.36" stroke="#FFFFFF" fill="#0000FF" class="color_Democratic"/>
              <use xlink:href="#img-a3145b02-24" x="145.52" y="96.01" stroke="#FFFFFF" fill="#0000FF" class="color_Democratic"/>
              <use xlink:href="#img-a3145b02-24" x="151.23" y="100.13" stroke="#FFFFFF" fill="#0000FF" class="color_Democratic"/>
              <use xlink:href="#img-a3145b02-24" x="156.94" y="97.25" stroke="#FFFFFF" fill="#0000FF" class="color_Democratic"/>
              <use xlink:href="#img-a3145b02-24" x="162.64" y="97.9" stroke="#FFFFFF" fill="#0000FF" class="color_Democratic"/>
              <use xlink:href="#img-a3145b02-24" x="168.35" y="94" stroke="#FFFFFF" fill="#0000FF" class="color_Democratic"/>
              <use xlink:href="#img-a3145b02-24" x="174.05" y="101.92" stroke="#FFFFFF" fill="#0000FF" class="color_Democratic"/>
              <use xlink:href="#img-a3145b02-24" x="179.76" y="104.7" stroke="#FFFFFF" fill="#0000FF" class="color_Democratic"/>
              <use xlink:href="#img-a3145b02-24" x="185.47" y="98.44" stroke="#FFFFFF" fill="#0000FF" class="color_Democratic"/>
              <use xlink:href="#img-a3145b02-24" x="191.17" y="89.65" stroke="#FFFFFF" fill="#0000FF" class="color_Democratic"/>
              <use xlink:href="#img-a3145b02-24" x="196.88" y="87.91" stroke="#FFFFFF" fill="#0000FF" class="color_Democratic"/>
              <use xlink:href="#img-a3145b02-24" x="202.58" y="91.05" stroke="#FFFFFF" fill="#0000FF" class="color_Democratic"/>
              <use xlink:href="#img-a3145b02-24" x="208.29" y="91.77" stroke="#FFFFFF" fill="#0000FF" class="color_Democratic"/>
              <use xlink:href="#img-a3145b02-24" x="214" y="93.82" stroke="#FFFFFF" fill="#0000FF" class="color_Democratic"/>
              <use xlink:href="#img-a3145b02-24" x="219.7" y="96.53" stroke="#FFFFFF" fill="#0000FF" class="color_Democratic"/>
              <use xlink:href="#img-a3145b02-24" x="225.41" y="97.8" stroke="#FFFFFF" fill="#0000FF" class="color_Democratic"/>
              <use xlink:href="#img-a3145b02-24" x="231.11" y="93.63" stroke="#FFFFFF" fill="#0000FF" class="color_Democratic"/>
              <use xlink:href="#img-a3145b02-24" x="236.82" y="87.72" stroke="#FFFFFF" fill="#0000FF" class="color_Democratic"/>
              <use xlink:href="#img-a3145b02-24" x="242.53" y="97.41" stroke="#FFFFFF" fill="#0000FF" class="color_Democratic"/>
              <use xlink:href="#img-a3145b02-24" x="248.23" y="100.14" stroke="#FFFFFF" fill="#0000FF" class="color_Democratic"/>
              <use xlink:href="#img-a3145b02-24" x="253.94" y="93.36" stroke="#FFFFFF" fill="#0000FF" class="color_Democratic"/>
              <use xlink:href="#img-a3145b02-24" x="259.65" y="98.32" stroke="#FFFFFF" fill="#0000FF" class="color_Democratic"/>
              <use xlink:href="#img-a3145b02-24" x="265.35" y="98.48" stroke="#FFFFFF" fill="#0000FF" class="color_Democratic"/>
              <use xlink:href="#img-a3145b02-24" x="271.06" y="95.83" stroke="#FFFFFF" fill="#0000FF" class="color_Democratic"/>
              <use xlink:href="#img-a3145b02-24" x="276.76" y="97.25" stroke="#FFFFFF" fill="#0000FF" class="color_Democratic"/>
              <use xlink:href="#img-a3145b02-24" x="282.47" y="93.96" stroke="#FFFFFF" fill="#0000FF" class="color_Democratic"/>
              <use xlink:href="#img-a3145b02-24" x="288.18" y="94.46" stroke="#FFFFFF" fill="#0000FF" class="color_Democratic"/>
              <use xlink:href="#img-a3145b02-24" x="293.88" y="94.5" stroke="#FFFFFF" fill="#0000FF" class="color_Democratic"/>
              <use xlink:href="#img-a3145b02-24" x="299.59" y="92.01" stroke="#FFFFFF" fill="#0000FF" class="color_Democratic"/>
              <use xlink:href="#img-a3145b02-24" x="305.29" y="93.01" stroke="#FFFFFF" fill="#0000FF" class="color_Democratic"/>
            </g>
          </g>
        </g>
      </g>
</g>
      <g class="guide ylabels" font-size="4.76" font-family="'PT Sans Caption','Helvetica Neue','Helvetica',sans-serif" fill="#FFFFFF" id="img-a3145b02-25">
        <text x="34.11" y="119.89" text-anchor="end" dy="0.35em">0</text>
        <text x="34.11" y="93.67" text-anchor="end" dy="0.35em">50</text>
        <text x="34.11" y="67.45" text-anchor="end" dy="0.35em">100</text>
      </g>
      <g font-size="6.35" font-family="'PT Sans','Helvetica Neue','Helvetica',sans-serif" fill="#FFFFFF" stroke="#000000" stroke-opacity="0.000" id="img-a3145b02-26">
        <text x="20.53" y="91.67" text-anchor="middle" dy="0.35em" transform="rotate(-90, 20.53, 93.67)">Popular</text>
      </g>
<g clip-path="url(#img-a3145b02-27)">
      <g id="img-a3145b02-28">
        <g pointer-events="visible" opacity="1" fill="#000000" fill-opacity="0.000" stroke="#000000" stroke-opacity="0.000" class="guide background" id="img-a3145b02-29">
          <rect x="35.11" y="7" width="277.89" height="54.45"/>
        </g>
        <g class="guide ygridlines xfixed" stroke-dasharray="0.5,0.5" stroke-width="0.26" stroke="#FFFFFF" id="img-a3145b02-30">
          <path fill="none" d="M35.11,59.45 L 313 59.45"/>
          <path fill="none" d="M35.11,34.22 L 313 34.22"/>
          <path fill="none" d="M35.11,9 L 313 9"/>
        </g>
        <g class="guide xgridlines yfixed" stroke-dasharray="0.5,0.5" stroke-width="0.26" stroke="#FFFFFF" id="img-a3145b02-31">
          <path fill="none" d="M37.11,7 L 37.11 61.45"/>
          <path fill="none" d="M54.23,7 L 54.23 61.45"/>
          <path fill="none" d="M71.34,7 L 71.34 61.45"/>
          <path fill="none" d="M88.46,7 L 88.46 61.45"/>
          <path fill="none" d="M105.58,7 L 105.58 61.45"/>
          <path fill="none" d="M122.7,7 L 122.7 61.45"/>
          <path fill="none" d="M139.82,7 L 139.82 61.45"/>
          <path fill="none" d="M156.94,7 L 156.94 61.45"/>
          <path fill="none" d="M174.05,7 L 174.05 61.45"/>
          <path fill="none" d="M191.17,7 L 191.17 61.45"/>
          <path fill="none" d="M208.29,7 L 208.29 61.45"/>
          <path fill="none" d="M225.41,7 L 225.41 61.45"/>
          <path fill="none" d="M242.53,7 L 242.53 61.45"/>
          <path fill="none" d="M259.65,7 L 259.65 61.45"/>
          <path fill="none" d="M276.76,7 L 276.76 61.45"/>
          <path fill="none" d="M293.88,7 L 293.88 61.45"/>
          <path fill="none" d="M311,7 L 311 61.45"/>
        </g>
        <g class="plotpanel" id="img-a3145b02-32">
          <g stroke-width="0.53" fill="#000000" fill-opacity="0.000" stroke-dasharray="none" id="img-a3145b02-33">
            <path fill="none" d="M42.81,25.04 L 48.52 20.82 54.23 30.28 59.93 49.15 65.64 28.26 71.34 37.35 77.05 16.16 82.76 29.79 88.46 57.45 94.17 54.9 99.88 45.72 105.58 49.99 111.29 34.29 116.99 38.26 122.7 31.9 128.41 38.31 134.11 27.97 139.82 39.58 145.52 41.95 151.23 44.61 156.94 42.53 162.64 18.12 168.35 33.13 174.05 47.38 179.76 46.53 185.47 51.18 191.17 14.61 196.88 9.76 202.58 16.79 208.29 18.41 214 30.66 219.7 50.99 225.41 52.5 231.11 30.16 236.82 13.88 242.53 41.54 248.23 57.85 253.94 31.55 259.65 54.85 265.35 58.23 271.06 49.02 276.76 24.75 282.47 23.91 288.18 34.46 293.88 35.87 299.59 25.22 305.29 28.32" stroke="#0000FF" class="geometry color_Democratic"/>
            <path fill="none" d="M82.76,40.02 L 88.46 29.48 94.17 13.55 99.88 22.73 105.58 18.46 111.29 34.15 116.99 30.19 122.7 36.55 128.41 30.13 134.11 42.97 139.82 28.86 145.52 26.49 151.23 23.84 156.94 25.92 162.64 58.69 168.35 35.32 174.05 21.07 179.76 23.16 185.47 17.27 191.17 53.84 196.88 58.69 202.58 51.66 208.29 50.04 214 41.49 219.7 17.46 225.41 15.95 231.11 38.28 236.82 54.57 242.53 31.22 248.23 10.69 253.94 36.9 259.65 13.59 265.35 10.22 271.06 19.43 276.76 43.69 282.47 44.54 288.18 33.99 293.88 32.58 299.59 43.22 305.29 40.13" stroke="#FF0000" class="geometry color_Republican"/>
          </g>
          <g class="geometry" id="img-a3145b02-34">
            <g stroke-width="0.3" id="img-a3145b02-35">
              <use xlink:href="#img-a3145b02-36" x="82.76" y="40.02" stroke="#FFFFFF" fill="#FF0000" class="color_Republican"/>
              <use xlink:href="#img-a3145b02-36" x="88.46" y="29.48" stroke="#FFFFFF" fill="#FF0000" class="color_Republican"/>
              <use xlink:href="#img-a3145b02-36" x="94.17" y="13.55" stroke="#FFFFFF" fill="#FF0000" class="color_Republican"/>
              <use xlink:href="#img-a3145b02-36" x="99.88" y="22.73" stroke="#FFFFFF" fill="#FF0000" class="color_Republican"/>
              <use xlink:href="#img-a3145b02-36" x="105.58" y="18.46" stroke="#FFFFFF" fill="#FF0000" class="color_Republican"/>
              <use xlink:href="#img-a3145b02-36" x="111.29" y="34.15" stroke="#FFFFFF" fill="#FF0000" class="color_Republican"/>
              <use xlink:href="#img-a3145b02-36" x="116.99" y="30.19" stroke="#FFFFFF" fill="#FF0000" class="color_Republican"/>
              <use xlink:href="#img-a3145b02-36" x="122.7" y="36.55" stroke="#FFFFFF" fill="#FF0000" class="color_Republican"/>
              <use xlink:href="#img-a3145b02-36" x="128.41" y="30.13" stroke="#FFFFFF" fill="#FF0000" class="color_Republican"/>
              <use xlink:href="#img-a3145b02-36" x="134.11" y="42.97" stroke="#FFFFFF" fill="#FF0000" class="color_Republican"/>
              <use xlink:href="#img-a3145b02-36" x="139.82" y="28.86" stroke="#FFFFFF" fill="#FF0000" class="color_Republican"/>
              <use xlink:href="#img-a3145b02-36" x="145.52" y="26.49" stroke="#FFFFFF" fill="#FF0000" class="color_Republican"/>
              <use xlink:href="#img-a3145b02-36" x="151.23" y="23.84" stroke="#FFFFFF" fill="#FF0000" class="color_Republican"/>
              <use xlink:href="#img-a3145b02-36" x="156.94" y="25.92" stroke="#FFFFFF" fill="#FF0000" class="color_Republican"/>
              <use xlink:href="#img-a3145b02-36" x="162.64" y="58.69" stroke="#FFFFFF" fill="#FF0000" class="color_Republican"/>
              <use xlink:href="#img-a3145b02-36" x="168.35" y="35.32" stroke="#FFFFFF" fill="#FF0000" class="color_Republican"/>
              <use xlink:href="#img-a3145b02-36" x="174.05" y="21.07" stroke="#FFFFFF" fill="#FF0000" class="color_Republican"/>
              <use xlink:href="#img-a3145b02-36" x="179.76" y="23.16" stroke="#FFFFFF" fill="#FF0000" class="color_Republican"/>
              <use xlink:href="#img-a3145b02-36" x="185.47" y="17.27" stroke="#FFFFFF" fill="#FF0000" class="color_Republican"/>
              <use xlink:href="#img-a3145b02-36" x="191.17" y="53.84" stroke="#FFFFFF" fill="#FF0000" class="color_Republican"/>
              <use xlink:href="#img-a3145b02-36" x="196.88" y="58.69" stroke="#FFFFFF" fill="#FF0000" class="color_Republican"/>
              <use xlink:href="#img-a3145b02-36" x="202.58" y="51.66" stroke="#FFFFFF" fill="#FF0000" class="color_Republican"/>
              <use xlink:href="#img-a3145b02-36" x="208.29" y="50.04" stroke="#FFFFFF" fill="#FF0000" class="color_Republican"/>
              <use xlink:href="#img-a3145b02-36" x="214" y="41.49" stroke="#FFFFFF" fill="#FF0000" class="color_Republican"/>
              <use xlink:href="#img-a3145b02-36" x="219.7" y="17.46" stroke="#FFFFFF" fill="#FF0000" class="color_Republican"/>
              <use xlink:href="#img-a3145b02-36" x="225.41" y="15.95" stroke="#FFFFFF" fill="#FF0000" class="color_Republican"/>
              <use xlink:href="#img-a3145b02-36" x="231.11" y="38.28" stroke="#FFFFFF" fill="#FF0000" class="color_Republican"/>
              <use xlink:href="#img-a3145b02-36" x="236.82" y="54.57" stroke="#FFFFFF" fill="#FF0000" class="color_Republican"/>
              <use xlink:href="#img-a3145b02-36" x="242.53" y="31.22" stroke="#FFFFFF" fill="#FF0000" class="color_Republican"/>
              <use xlink:href="#img-a3145b02-36" x="248.23" y="10.69" stroke="#FFFFFF" fill="#FF0000" class="color_Republican"/>
              <use xlink:href="#img-a3145b02-36" x="253.94" y="36.9" stroke="#FFFFFF" fill="#FF0000" class="color_Republican"/>
              <use xlink:href="#img-a3145b02-36" x="259.65" y="13.59" stroke="#FFFFFF" fill="#FF0000" class="color_Republican"/>
              <use xlink:href="#img-a3145b02-36" x="265.35" y="10.22" stroke="#FFFFFF" fill="#FF0000" class="color_Republican"/>
              <use xlink:href="#img-a3145b02-36" x="271.06" y="19.43" stroke="#FFFFFF" fill="#FF0000" class="color_Republican"/>
              <use xlink:href="#img-a3145b02-36" x="276.76" y="43.69" stroke="#FFFFFF" fill="#FF0000" class="color_Republican"/>
              <use xlink:href="#img-a3145b02-36" x="282.47" y="44.54" stroke="#FFFFFF" fill="#FF0000" class="color_Republican"/>
              <use xlink:href="#img-a3145b02-36" x="288.18" y="33.99" stroke="#FFFFFF" fill="#FF0000" class="color_Republican"/>
              <use xlink:href="#img-a3145b02-36" x="293.88" y="32.58" stroke="#FFFFFF" fill="#FF0000" class="color_Republican"/>
              <use xlink:href="#img-a3145b02-36" x="299.59" y="43.22" stroke="#FFFFFF" fill="#FF0000" class="color_Republican"/>
              <use xlink:href="#img-a3145b02-36" x="305.29" y="40.13" stroke="#FFFFFF" fill="#FF0000" class="color_Republican"/>
              <use xlink:href="#img-a3145b02-36" x="42.81" y="25.04" stroke="#FFFFFF" fill="#0000FF" class="color_Democratic"/>
              <use xlink:href="#img-a3145b02-36" x="48.52" y="20.82" stroke="#FFFFFF" fill="#0000FF" class="color_Democratic"/>
              <use xlink:href="#img-a3145b02-36" x="54.23" y="30.28" stroke="#FFFFFF" fill="#0000FF" class="color_Democratic"/>
              <use xlink:href="#img-a3145b02-36" x="59.93" y="49.15" stroke="#FFFFFF" fill="#0000FF" class="color_Democratic"/>
              <use xlink:href="#img-a3145b02-36" x="65.64" y="28.26" stroke="#FFFFFF" fill="#0000FF" class="color_Democratic"/>
              <use xlink:href="#img-a3145b02-36" x="71.34" y="37.35" stroke="#FFFFFF" fill="#0000FF" class="color_Democratic"/>
              <use xlink:href="#img-a3145b02-36" x="77.05" y="16.16" stroke="#FFFFFF" fill="#0000FF" class="color_Democratic"/>
              <use xlink:href="#img-a3145b02-36" x="82.76" y="29.79" stroke="#FFFFFF" fill="#0000FF" class="color_Democratic"/>
              <use xlink:href="#img-a3145b02-36" x="88.46" y="57.45" stroke="#FFFFFF" fill="#0000FF" class="color_Democratic"/>
              <use xlink:href="#img-a3145b02-36" x="94.17" y="54.9" stroke="#FFFFFF" fill="#0000FF" class="color_Democratic"/>
              <use xlink:href="#img-a3145b02-36" x="99.88" y="45.72" stroke="#FFFFFF" fill="#0000FF" class="color_Democratic"/>
              <use xlink:href="#img-a3145b02-36" x="105.58" y="49.99" stroke="#FFFFFF" fill="#0000FF" class="color_Democratic"/>
              <use xlink:href="#img-a3145b02-36" x="111.29" y="34.29" stroke="#FFFFFF" fill="#0000FF" class="color_Democratic"/>
              <use xlink:href="#img-a3145b02-36" x="116.99" y="38.26" stroke="#FFFFFF" fill="#0000FF" class="color_Democratic"/>
              <use xlink:href="#img-a3145b02-36" x="122.7" y="31.9" stroke="#FFFFFF" fill="#0000FF" class="color_Democratic"/>
              <use xlink:href="#img-a3145b02-36" x="128.41" y="38.31" stroke="#FFFFFF" fill="#0000FF" class="color_Democratic"/>
              <use xlink:href="#img-a3145b02-36" x="134.11" y="27.97" stroke="#FFFFFF" fill="#0000FF" class="color_Democratic"/>
              <use xlink:href="#img-a3145b02-36" x="139.82" y="39.58" stroke="#FFFFFF" fill="#0000FF" class="color_Democratic"/>
              <use xlink:href="#img-a3145b02-36" x="145.52" y="41.95" stroke="#FFFFFF" fill="#0000FF" class="color_Democratic"/>
              <use xlink:href="#img-a3145b02-36" x="151.23" y="44.61" stroke="#FFFFFF" fill="#0000FF" class="color_Democratic"/>
              <use xlink:href="#img-a3145b02-36" x="156.94" y="42.53" stroke="#FFFFFF" fill="#0000FF" class="color_Democratic"/>
              <use xlink:href="#img-a3145b02-36" x="162.64" y="18.12" stroke="#FFFFFF" fill="#0000FF" class="color_Democratic"/>
              <use xlink:href="#img-a3145b02-36" x="168.35" y="33.13" stroke="#FFFFFF" fill="#0000FF" class="color_Democratic"/>
              <use xlink:href="#img-a3145b02-36" x="174.05" y="47.38" stroke="#FFFFFF" fill="#0000FF" class="color_Democratic"/>
              <use xlink:href="#img-a3145b02-36" x="179.76" y="46.53" stroke="#FFFFFF" fill="#0000FF" class="color_Democratic"/>
              <use xlink:href="#img-a3145b02-36" x="185.47" y="51.18" stroke="#FFFFFF" fill="#0000FF" class="color_Democratic"/>
              <use xlink:href="#img-a3145b02-36" x="191.17" y="14.61" stroke="#FFFFFF" fill="#0000FF" class="color_Democratic"/>
              <use xlink:href="#img-a3145b02-36" x="196.88" y="9.76" stroke="#FFFFFF" fill="#0000FF" class="color_Democratic"/>
              <use xlink:href="#img-a3145b02-36" x="202.58" y="16.79" stroke="#FFFFFF" fill="#0000FF" class="color_Democratic"/>
              <use xlink:href="#img-a3145b02-36" x="208.29" y="18.41" stroke="#FFFFFF" fill="#0000FF" class="color_Democratic"/>
              <use xlink:href="#img-a3145b02-36" x="214" y="30.66" stroke="#FFFFFF" fill="#0000FF" class="color_Democratic"/>
              <use xlink:href="#img-a3145b02-36" x="219.7" y="50.99" stroke="#FFFFFF" fill="#0000FF" class="color_Democratic"/>
              <use xlink:href="#img-a3145b02-36" x="225.41" y="52.5" stroke="#FFFFFF" fill="#0000FF" class="color_Democratic"/>
              <use xlink:href="#img-a3145b02-36" x="231.11" y="30.16" stroke="#FFFFFF" fill="#0000FF" class="color_Democratic"/>
              <use xlink:href="#img-a3145b02-36" x="236.82" y="13.88" stroke="#FFFFFF" fill="#0000FF" class="color_Democratic"/>
              <use xlink:href="#img-a3145b02-36" x="242.53" y="41.54" stroke="#FFFFFF" fill="#0000FF" class="color_Democratic"/>
              <use xlink:href="#img-a3145b02-36" x="248.23" y="57.85" stroke="#FFFFFF" fill="#0000FF" class="color_Democratic"/>
              <use xlink:href="#img-a3145b02-36" x="253.94" y="31.55" stroke="#FFFFFF" fill="#0000FF" class="color_Democratic"/>
              <use xlink:href="#img-a3145b02-36" x="259.65" y="54.85" stroke="#FFFFFF" fill="#0000FF" class="color_Democratic"/>
              <use xlink:href="#img-a3145b02-36" x="265.35" y="58.23" stroke="#FFFFFF" fill="#0000FF" class="color_Democratic"/>
              <use xlink:href="#img-a3145b02-36" x="271.06" y="49.02" stroke="#FFFFFF" fill="#0000FF" class="color_Democratic"/>
              <use xlink:href="#img-a3145b02-36" x="276.76" y="24.75" stroke="#FFFFFF" fill="#0000FF" class="color_Democratic"/>
              <use xlink:href="#img-a3145b02-36" x="282.47" y="23.91" stroke="#FFFFFF" fill="#0000FF" class="color_Democratic"/>
              <use xlink:href="#img-a3145b02-36" x="288.18" y="34.46" stroke="#FFFFFF" fill="#0000FF" class="color_Democratic"/>
              <use xlink:href="#img-a3145b02-36" x="293.88" y="35.87" stroke="#FFFFFF" fill="#0000FF" class="color_Democratic"/>
              <use xlink:href="#img-a3145b02-36" x="299.59" y="25.22" stroke="#FFFFFF" fill="#0000FF" class="color_Democratic"/>
              <use xlink:href="#img-a3145b02-36" x="305.29" y="28.32" stroke="#FFFFFF" fill="#0000FF" class="color_Democratic"/>
            </g>
          </g>
        </g>
      </g>
</g>
      <g class="guide ylabels" font-size="4.76" font-family="'PT Sans Caption','Helvetica Neue','Helvetica',sans-serif" fill="#FFFFFF" id="img-a3145b02-37">
        <text x="34.11" y="59.45" text-anchor="end" dy="0.35em">0</text>
        <text x="34.11" y="34.22" text-anchor="end" dy="0.35em">50</text>
        <text x="34.11" y="9" text-anchor="end" dy="0.35em">100</text>
      </g>
      <g font-size="6.35" font-family="'PT Sans','Helvetica Neue','Helvetica',sans-serif" fill="#FFFFFF" stroke="#000000" stroke-opacity="0.000" id="img-a3145b02-38">
        <text x="20.53" y="32.22" text-anchor="middle" dy="0.35em" transform="rotate(-90, 20.53, 34.22)">Electoral</text>
      </g>
    </g>
  </g>
</g>
  <g font-size="6.35" font-family="'PT Sans','Helvetica Neue','Helvetica',sans-serif" fill="#FFFFFF" stroke="#000000" stroke-opacity="0.000" id="img-a3145b02-39">
    <text x="10.18" y="64.39" text-anchor="middle" dy="0.35em" transform="rotate(-90, 10.18, 66.39)">Percent <tspan style="dominant-baseline:inherit" font-style="italic" font-weight="700">by</tspan> Category</text>
  </g>
</g>
<defs>
  <clipPath id="img-a3145b02-27">
  <path d="M35.11,7 L 313 7 313 61.45 35.11 61.45" />
</clipPath>
  <clipPath id="img-a3145b02-11">
  <path d="M15.35,5 L 315 5 315 127.77 15.35 127.77" />
</clipPath>
  <clipPath id="img-a3145b02-15">
  <path d="M35.11,65.45 L 313 65.45 313 121.89 35.11 121.89" />
</clipPath>
  <g id="img-a3145b02-24">
    <circle cx="0" cy="0" r="0.9"/>
  </g>
  <g id="img-a3145b02-36">
    <circle cx="0" cy="0" r="0.9"/>
  </g>
</defs>
</svg>
