<?xml version="1.0" encoding="UTF-8"?>
<svg xmlns="http://www.w3.org/2000/svg"
     xmlns:xlink="http://www.w3.org/1999/xlink"
     xmlns:gadfly="http://www.gadflyjl.org/ns"
     version="1.2"
     width="320mm" height="160mm" viewBox="0 0 320 160"
     stroke="none"
     fill="#000000"
     stroke-width="0.3"
     font-size="3.88"
>
<g class="plotroot xscalable yscalable" id="img-2ae0e1a5-1">
  <g class="guide colorkey" id="img-2ae0e1a5-2">
    <g class="color_Democratic" id="img-2ae0e1a5-3">
      <g fill="#4C404B" font-size="4.76" font-family="'PT Sans','Helvetica Neue','Helvetica',sans-serif" id="img-2ae0e1a5-4">
        <text x="57.56" y="150.05" dy="0.35em">Democratic</text>
      </g>
      <g fill="#0000FF" stroke="#000000" stroke-opacity="0.000" id="img-2ae0e1a5-5">
        <rect x="53.84" y="148.69" width="2.72" height="2.72"/>
      </g>
    </g>
    <g class="color_Republican" id="img-2ae0e1a5-6">
      <g fill="#4C404B" font-size="4.76" font-family="'PT Sans','Helvetica Neue','Helvetica',sans-serif" id="img-2ae0e1a5-7">
        <text x="30.1" y="150.05" dy="0.35em">Republican</text>
      </g>
      <g fill="#FF0000" stroke="#000000" stroke-opacity="0.000" id="img-2ae0e1a5-8">
        <rect x="26.38" y="148.69" width="2.72" height="2.72"/>
      </g>
    </g>
    <g fill="#362A35" font-size="6.35" font-family="'PT Sans','Helvetica Neue','Helvetica',sans-serif" stroke="#000000" stroke-opacity="0.000" id="img-2ae0e1a5-9">
      <text x="26.38" y="145.57">Party</text>
    </g>
  </g>
  <g font-size="6.35" font-family="'PT Sans','Helvetica Neue','Helvetica',sans-serif" fill="#564A55" stroke="#000000" stroke-opacity="0.000" id="img-2ae0e1a5-10">
    <text x="170.19" y="130.75" text-anchor="middle" dy="0.6em">Year</text>
  </g>
  <g class="guide xlabels" font-size="4.76" font-family="'PT Sans Caption','Helvetica Neue','Helvetica',sans-serif" fill="#6C606B" id="img-2ae0e1a5-11">
    <text x="27.38" y="122.24" text-anchor="middle" dy="0.6em">1824</text>
    <text x="45.23" y="122.24" text-anchor="middle" dy="0.6em">1836</text>
    <text x="63.08" y="122.24" text-anchor="middle" dy="0.6em">1848</text>
    <text x="80.93" y="122.24" text-anchor="middle" dy="0.6em">1860</text>
    <text x="98.78" y="122.24" text-anchor="middle" dy="0.6em">1872</text>
    <text x="116.64" y="122.24" text-anchor="middle" dy="0.6em">1884</text>
    <text x="134.49" y="122.24" text-anchor="middle" dy="0.6em">1896</text>
    <text x="152.34" y="122.24" text-anchor="middle" dy="0.6em">1908</text>
    <text x="170.19" y="122.24" text-anchor="middle" dy="0.6em">1920</text>
    <text x="188.04" y="122.24" text-anchor="middle" dy="0.6em">1932</text>
    <text x="205.89" y="122.24" text-anchor="middle" dy="0.6em">1944</text>
    <text x="223.74" y="122.24" text-anchor="middle" dy="0.6em">1956</text>
    <text x="241.59" y="122.24" text-anchor="middle" dy="0.6em">1968</text>
    <text x="259.45" y="122.24" text-anchor="middle" dy="0.6em">1980</text>
    <text x="277.3" y="122.24" text-anchor="middle" dy="0.6em">1992</text>
    <text x="295.15" y="122.24" text-anchor="middle" dy="0.6em">2004</text>
    <text x="313" y="122.24" text-anchor="middle" dy="0.6em">2016</text>
  </g>
<g clip-path="url(#img-2ae0e1a5-12)">
  <g id="img-2ae0e1a5-13">
    <g pointer-events="visible" opacity="1" fill="#000000" fill-opacity="0.000" stroke="#000000" stroke-opacity="0.000" class="guide background" id="img-2ae0e1a5-14">
      <rect x="25.38" y="14.91" width="289.62" height="106.33"/>
    </g>
    <g class="guide ygridlines xfixed" stroke-dasharray="0.5,0.5" stroke-width="0.26" stroke="#000000" id="img-2ae0e1a5-15">
      <path fill="none" d="M25.38,119.24 L 315 119.24"/>
      <path fill="none" d="M25.38,93.66 L 315 93.66"/>
      <path fill="none" d="M25.38,68.07 L 315 68.07"/>
      <path fill="none" d="M25.38,42.49 L 315 42.49"/>
      <path fill="none" d="M25.38,16.91 L 315 16.91"/>
    </g>
    <g class="guide xgridlines yfixed" stroke-dasharray="0.5,0.5" stroke-width="0.26" stroke="#000000" id="img-2ae0e1a5-16">
      <path fill="none" d="M27.38,14.91 L 27.38 121.24"/>
      <path fill="none" d="M45.23,14.91 L 45.23 121.24"/>
      <path fill="none" d="M63.08,14.91 L 63.08 121.24"/>
      <path fill="none" d="M80.93,14.91 L 80.93 121.24"/>
      <path fill="none" d="M98.78,14.91 L 98.78 121.24"/>
      <path fill="none" d="M116.64,14.91 L 116.64 121.24"/>
      <path fill="none" d="M134.49,14.91 L 134.49 121.24"/>
      <path fill="none" d="M152.34,14.91 L 152.34 121.24"/>
      <path fill="none" d="M170.19,14.91 L 170.19 121.24"/>
      <path fill="none" d="M188.04,14.91 L 188.04 121.24"/>
      <path fill="none" d="M205.89,14.91 L 205.89 121.24"/>
      <path fill="none" d="M223.74,14.91 L 223.74 121.24"/>
      <path fill="none" d="M241.59,14.91 L 241.59 121.24"/>
      <path fill="none" d="M259.45,14.91 L 259.45 121.24"/>
      <path fill="none" d="M277.3,14.91 L 277.3 121.24"/>
      <path fill="none" d="M295.15,14.91 L 295.15 121.24"/>
      <path fill="none" d="M313,14.91 L 313 121.24"/>
    </g>
    <g class="plotpanel" id="img-2ae0e1a5-17">
      <g class="geometry" id="img-2ae0e1a5-18">
        <g stroke-width="0.3" id="img-2ae0e1a5-19">
          <use xlink:href="#img-2ae0e1a5-20" x="80.93" y="61.02" class="color_Republican" fill="#FF0000" stroke="#FFFFFF"/>
          <use xlink:href="#img-2ae0e1a5-20" x="86.88" y="65.46" class="color_Republican" fill="#FF0000" stroke="#FFFFFF"/>
          <use xlink:href="#img-2ae0e1a5-20" x="92.83" y="62.73" class="color_Republican" fill="#FF0000" stroke="#FFFFFF"/>
          <use xlink:href="#img-2ae0e1a5-20" x="98.78" y="64.04" class="color_Republican" fill="#FF0000" stroke="#FFFFFF"/>
          <use xlink:href="#img-2ae0e1a5-20" x="104.74" y="66.2" class="color_Republican" fill="#FF0000" stroke="#FFFFFF"/>
          <use xlink:href="#img-2ae0e1a5-20" x="110.69" y="66.09" class="color_Republican" fill="#FF0000" stroke="#FFFFFF"/>
          <use xlink:href="#img-2ae0e1a5-20" x="116.64" y="66.91" class="color_Republican" fill="#FF0000" stroke="#FFFFFF"/>
          <use xlink:href="#img-2ae0e1a5-20" x="122.59" y="67.72" class="color_Republican" fill="#FF0000" stroke="#FFFFFF"/>
          <use xlink:href="#img-2ae0e1a5-20" x="128.54" y="66.94" class="color_Republican" fill="#FF0000" stroke="#FFFFFF"/>
          <use xlink:href="#img-2ae0e1a5-20" x="134.49" y="48.98" class="color_Republican" fill="#FF0000" stroke="#FFFFFF"/>
          <use xlink:href="#img-2ae0e1a5-20" x="140.44" y="58.53" class="color_Republican" fill="#FF0000" stroke="#FFFFFF"/>
          <use xlink:href="#img-2ae0e1a5-20" x="146.39" y="57.77" class="color_Republican" fill="#FF0000" stroke="#FFFFFF"/>
          <use xlink:href="#img-2ae0e1a5-20" x="152.34" y="58.54" class="color_Republican" fill="#FF0000" stroke="#FFFFFF"/>
          <use xlink:href="#img-2ae0e1a5-20" x="158.29" y="80.93" class="color_Republican" fill="#FF0000" stroke="#FFFFFF"/>
          <use xlink:href="#img-2ae0e1a5-20" x="164.24" y="69.04" class="color_Republican" fill="#FF0000" stroke="#FFFFFF"/>
          <use xlink:href="#img-2ae0e1a5-20" x="170.19" y="58.01" class="color_Republican" fill="#FF0000" stroke="#FFFFFF"/>
          <use xlink:href="#img-2ae0e1a5-20" x="176.14" y="58.02" class="color_Republican" fill="#FF0000" stroke="#FFFFFF"/>
          <use xlink:href="#img-2ae0e1a5-20" x="182.09" y="59.22" class="color_Republican" fill="#FF0000" stroke="#FFFFFF"/>
          <use xlink:href="#img-2ae0e1a5-20" x="188.04" y="67.64" class="color_Republican" fill="#FF0000" stroke="#FFFFFF"/>
          <use xlink:href="#img-2ae0e1a5-20" x="193.99" y="70.15" class="color_Republican" fill="#FF0000" stroke="#FFFFFF"/>
          <use xlink:href="#img-2ae0e1a5-20" x="199.94" y="71.37" class="color_Republican" fill="#FF0000" stroke="#FFFFFF"/>
          <use xlink:href="#img-2ae0e1a5-20" x="205.89" y="70.26" class="color_Republican" fill="#FF0000" stroke="#FFFFFF"/>
          <use xlink:href="#img-2ae0e1a5-20" x="211.84" y="65.61" class="color_Republican" fill="#FF0000" stroke="#FFFFFF"/>
          <use xlink:href="#img-2ae0e1a5-20" x="217.79" y="56.9" class="color_Republican" fill="#FF0000" stroke="#FFFFFF"/>
          <use xlink:href="#img-2ae0e1a5-20" x="223.74" y="51.59" class="color_Republican" fill="#FF0000" stroke="#FFFFFF"/>
          <use xlink:href="#img-2ae0e1a5-20" x="229.69" y="64.58" class="color_Republican" fill="#FF0000" stroke="#FFFFFF"/>
          <use xlink:href="#img-2ae0e1a5-20" x="235.64" y="82.29" class="color_Republican" fill="#FF0000" stroke="#FFFFFF"/>
          <use xlink:href="#img-2ae0e1a5-20" x="241.59" y="65.92" class="color_Republican" fill="#FF0000" stroke="#FFFFFF"/>
          <use xlink:href="#img-2ae0e1a5-20" x="247.55" y="53.77" class="color_Republican" fill="#FF0000" stroke="#FFFFFF"/>
          <use xlink:href="#img-2ae0e1a5-20" x="253.5" y="63.22" class="color_Republican" fill="#FF0000" stroke="#FFFFFF"/>
          <use xlink:href="#img-2ae0e1a5-20" x="259.45" y="60.16" class="color_Republican" fill="#FF0000" stroke="#FFFFFF"/>
          <use xlink:href="#img-2ae0e1a5-20" x="265.4" y="48.98" class="color_Republican" fill="#FF0000" stroke="#FFFFFF"/>
          <use xlink:href="#img-2ae0e1a5-20" x="271.35" y="55.29" class="color_Republican" fill="#FF0000" stroke="#FFFFFF"/>
          <use xlink:href="#img-2ae0e1a5-20" x="277.3" y="80.72" class="color_Republican" fill="#FF0000" stroke="#FFFFFF"/>
          <use xlink:href="#img-2ae0e1a5-20" x="283.25" y="78.95" class="color_Republican" fill="#FF0000" stroke="#FFFFFF"/>
          <use xlink:href="#img-2ae0e1a5-20" x="289.2" y="70.05" class="color_Republican" fill="#FF0000" stroke="#FFFFFF"/>
          <use xlink:href="#img-2ae0e1a5-20" x="295.15" y="69.23" class="color_Republican" fill="#FF0000" stroke="#FFFFFF"/>
          <use xlink:href="#img-2ae0e1a5-20" x="301.1" y="73.68" class="color_Republican" fill="#FF0000" stroke="#FFFFFF"/>
          <use xlink:href="#img-2ae0e1a5-20" x="307.05" y="71.75" class="color_Republican" fill="#FF0000" stroke="#FFFFFF"/>
          <use xlink:href="#img-2ae0e1a5-20" x="33.33" y="72.27" class="color_Democratic" fill="#0000FF" stroke="#FFFFFF"/>
          <use xlink:href="#img-2ae0e1a5-20" x="39.28" y="61.16" class="color_Democratic" fill="#0000FF" stroke="#FFFFFF"/>
          <use xlink:href="#img-2ae0e1a5-20" x="45.23" y="42.48" class="color_Democratic" fill="#0000FF" stroke="#FFFFFF"/>
          <use xlink:href="#img-2ae0e1a5-20" x="51.18" y="63.3" class="color_Democratic" fill="#0000FF" stroke="#FFFFFF"/>
          <use xlink:href="#img-2ae0e1a5-20" x="57.13" y="62.73" class="color_Democratic" fill="#0000FF" stroke="#FFFFFF"/>
          <use xlink:href="#img-2ae0e1a5-20" x="63.08" y="62.54" class="color_Democratic" fill="#0000FF" stroke="#FFFFFF"/>
          <use xlink:href="#img-2ae0e1a5-20" x="69.03" y="61.52" class="color_Democratic" fill="#0000FF" stroke="#FFFFFF"/>
          <use xlink:href="#img-2ae0e1a5-20" x="74.98" y="72.47" class="color_Democratic" fill="#0000FF" stroke="#FFFFFF"/>
          <use xlink:href="#img-2ae0e1a5-20" x="80.93" y="79.07" class="color_Democratic" fill="#0000FF" stroke="#FFFFFF"/>
          <use xlink:href="#img-2ae0e1a5-20" x="86.88" y="70.69" class="color_Democratic" fill="#0000FF" stroke="#FFFFFF"/>
          <use xlink:href="#img-2ae0e1a5-20" x="92.83" y="73.43" class="color_Democratic" fill="#0000FF" stroke="#FFFFFF"/>
          <use xlink:href="#img-2ae0e1a5-20" x="98.78" y="72.57" class="color_Democratic" fill="#0000FF" stroke="#FFFFFF"/>
          <use xlink:href="#img-2ae0e1a5-20" x="104.74" y="70.07" class="color_Democratic" fill="#0000FF" stroke="#FFFFFF"/>
          <use xlink:href="#img-2ae0e1a5-20" x="110.69" y="70.9" class="color_Democratic" fill="#0000FF" stroke="#FFFFFF"/>
          <use xlink:href="#img-2ae0e1a5-20" x="116.64" y="71.82" class="color_Democratic" fill="#0000FF" stroke="#FFFFFF"/>
          <use xlink:href="#img-2ae0e1a5-20" x="122.59" y="70.28" class="color_Democratic" fill="#0000FF" stroke="#FFFFFF"/>
          <use xlink:href="#img-2ae0e1a5-20" x="128.54" y="71.03" class="color_Democratic" fill="#0000FF" stroke="#FFFFFF"/>
          <use xlink:href="#img-2ae0e1a5-20" x="134.49" y="92.76" class="color_Democratic" fill="#0000FF" stroke="#FFFFFF"/>
          <use xlink:href="#img-2ae0e1a5-20" x="140.44" y="79.92" class="color_Democratic" fill="#0000FF" stroke="#FFFFFF"/>
          <use xlink:href="#img-2ae0e1a5-20" x="146.39" y="80.57" class="color_Democratic" fill="#0000FF" stroke="#FFFFFF"/>
          <use xlink:href="#img-2ae0e1a5-20" x="152.34" y="80.8" class="color_Democratic" fill="#0000FF" stroke="#FFFFFF"/>
          <use xlink:href="#img-2ae0e1a5-20" x="158.29" y="78.84" class="color_Democratic" fill="#0000FF" stroke="#FFFFFF"/>
          <use xlink:href="#img-2ae0e1a5-20" x="164.24" y="68.97" class="color_Democratic" fill="#0000FF" stroke="#FFFFFF"/>
          <use xlink:href="#img-2ae0e1a5-20" x="170.19" y="78.93" class="color_Democratic" fill="#0000FF" stroke="#FFFFFF"/>
          <use xlink:href="#img-2ae0e1a5-20" x="176.14" y="83.71" class="color_Democratic" fill="#0000FF" stroke="#FFFFFF"/>
          <use xlink:href="#img-2ae0e1a5-20" x="182.09" y="77.26" class="color_Democratic" fill="#0000FF" stroke="#FFFFFF"/>
          <use xlink:href="#img-2ae0e1a5-20" x="188.04" y="69.11" class="color_Democratic" fill="#0000FF" stroke="#FFFFFF"/>
          <use xlink:href="#img-2ae0e1a5-20" x="193.99" y="68.35" class="color_Democratic" fill="#0000FF" stroke="#FFFFFF"/>
          <use xlink:href="#img-2ae0e1a5-20" x="199.94" y="64.78" class="color_Democratic" fill="#0000FF" stroke="#FFFFFF"/>
          <use xlink:href="#img-2ae0e1a5-20" x="205.89" y="65.91" class="color_Democratic" fill="#0000FF" stroke="#FFFFFF"/>
          <use xlink:href="#img-2ae0e1a5-20" x="211.84" y="71.49" class="color_Democratic" fill="#0000FF" stroke="#FFFFFF"/>
          <use xlink:href="#img-2ae0e1a5-20" x="217.79" y="79.25" class="color_Democratic" fill="#0000FF" stroke="#FFFFFF"/>
          <use xlink:href="#img-2ae0e1a5-20" x="223.74" y="84.61" class="color_Democratic" fill="#0000FF" stroke="#FFFFFF"/>
          <use xlink:href="#img-2ae0e1a5-20" x="229.69" y="71.57" class="color_Democratic" fill="#0000FF" stroke="#FFFFFF"/>
          <use xlink:href="#img-2ae0e1a5-20" x="235.64" y="53.86" class="color_Democratic" fill="#0000FF" stroke="#FFFFFF"/>
          <use xlink:href="#img-2ae0e1a5-20" x="241.59" y="74.29" class="color_Democratic" fill="#0000FF" stroke="#FFFFFF"/>
          <use xlink:href="#img-2ae0e1a5-20" x="247.55" y="83.57" class="color_Democratic" fill="#0000FF" stroke="#FFFFFF"/>
          <use xlink:href="#img-2ae0e1a5-20" x="253.5" y="74.76" class="color_Democratic" fill="#0000FF" stroke="#FFFFFF"/>
          <use xlink:href="#img-2ae0e1a5-20" x="259.45" y="90.23" class="color_Democratic" fill="#0000FF" stroke="#FFFFFF"/>
          <use xlink:href="#img-2ae0e1a5-20" x="265.4" y="87.56" class="color_Democratic" fill="#0000FF" stroke="#FFFFFF"/>
          <use xlink:href="#img-2ae0e1a5-20" x="271.35" y="82.06" class="color_Democratic" fill="#0000FF" stroke="#FFFFFF"/>
          <use xlink:href="#img-2ae0e1a5-20" x="277.3" y="79.47" class="color_Democratic" fill="#0000FF" stroke="#FFFFFF"/>
          <use xlink:href="#img-2ae0e1a5-20" x="283.25" y="68.77" class="color_Democratic" fill="#0000FF" stroke="#FFFFFF"/>
          <use xlink:href="#img-2ae0e1a5-20" x="289.2" y="71.35" class="color_Democratic" fill="#0000FF" stroke="#FFFFFF"/>
          <use xlink:href="#img-2ae0e1a5-20" x="295.15" y="67.83" class="color_Democratic" fill="#0000FF" stroke="#FFFFFF"/>
          <use xlink:href="#img-2ae0e1a5-20" x="301.1" y="63.85" class="color_Democratic" fill="#0000FF" stroke="#FFFFFF"/>
          <use xlink:href="#img-2ae0e1a5-20" x="307.05" y="66.05" class="color_Democratic" fill="#0000FF" stroke="#FFFFFF"/>
        </g>
      </g>
      <g stroke-width="0.53" fill="#000000" fill-opacity="0.000" stroke-dasharray="none" id="img-2ae0e1a5-21">
        <path fill="none" d="M33.33,72.27 L 39.28 61.16 45.23 42.48 51.18 63.3 57.13 62.73 63.08 62.54 69.03 61.52 74.98 72.47 80.93 79.07 86.88 70.69 92.83 73.43 98.78 72.57 104.74 70.07 110.69 70.9 116.64 71.82 122.59 70.28 128.54 71.03 134.49 92.76 140.44 79.92 146.39 80.57 152.34 80.8 158.29 78.84 164.24 68.97 170.19 78.93 176.14 83.71 182.09 77.26 188.04 69.11 193.99 68.35 199.94 64.78 205.89 65.91 211.84 71.49 217.79 79.25 223.74 84.61 229.69 71.57 235.64 53.86 241.59 74.29 247.55 83.57 253.5 74.76 259.45 90.23 265.4 87.56 271.35 82.06 277.3 79.47 283.25 68.77 289.2 71.35 295.15 67.83 301.1 63.85 307.05 66.05" class="geometry color_Democratic" stroke="#0000FF"/>
        <path fill="none" d="M80.93,61.02 L 86.88 65.46 92.83 62.73 98.78 64.04 104.74 66.2 110.69 66.09 116.64 66.91 122.59 67.72 128.54 66.94 134.49 48.98 140.44 58.53 146.39 57.77 152.34 58.54 158.29 80.93 164.24 69.04 170.19 58.01 176.14 58.02 182.09 59.22 188.04 67.64 193.99 70.15 199.94 71.37 205.89 70.26 211.84 65.61 217.79 56.9 223.74 51.59 229.69 64.58 235.64 82.29 241.59 65.92 247.55 53.77 253.5 63.22 259.45 60.16 265.4 48.98 271.35 55.29 277.3 80.72 283.25 78.95 289.2 70.05 295.15 69.23 301.1 73.68 307.05 71.75" class="geometry color_Republican" stroke="#FF0000"/>
      </g>
    </g>
  </g>
</g>
  <g class="guide ylabels" font-size="4.76" font-family="'PT Sans Caption','Helvetica Neue','Helvetica',sans-serif" fill="#6C606B" id="img-2ae0e1a5-22">
    <text x="24.38" y="119.24" text-anchor="end" dy="0.35em">0</text>
    <text x="24.38" y="93.66" text-anchor="end" dy="0.35em">25</text>
    <text x="24.38" y="68.07" text-anchor="end" dy="0.35em">50</text>
    <text x="24.38" y="42.49" text-anchor="end" dy="0.35em">75</text>
    <text x="24.38" y="16.91" text-anchor="end" dy="0.35em">100</text>
  </g>
  <g font-size="6.35" font-family="'PT Sans','Helvetica Neue','Helvetica',sans-serif" fill="#564A55" stroke="#000000" stroke-opacity="0.000" id="img-2ae0e1a5-23">
    <text x="9.95" y="66.07" text-anchor="middle" dy="0.35em" transform="rotate(-90, 9.95, 68.07)">Popular Vote (%)</text>
  </g>
  <g font-size="6.35" font-family="'PT Sans','Helvetica Neue','Helvetica',sans-serif" fill="#564A55" stroke="#000000" stroke-opacity="0.000" id="img-2ae0e1a5-24">
    <text x="170.19" y="12.91" text-anchor="middle">New Hampshire</text>
  </g>
</g>
<defs>
  <clipPath id="img-2ae0e1a5-12">
  <path d="M25.38,14.91 L 315 14.91 315 121.24 25.38 121.24" />
</clipPath>
  <g id="img-2ae0e1a5-20">
    <circle cx="0" cy="0" r="0.9"/>
  </g>
</defs>
</svg>
