<svg xmlns="http://www.w3.org/2000/svg" xmlns:xlink="http://www.w3.org/1999/xlink" version="1.2" width="238.1mm" height="599.924" viewBox="0 0 238.1 158.73" stroke-width=".3" font-size="3.88"><path d="M0 0h238.1v158.73H0z" stroke="#000" stroke-opacity="0" fill="#222831"/><g class="plotroot xscalable yscalable"><g class="guide colorkey"><g class="color_Democratic"><text x="51.52" y="148.78" dy=".35em" fill="#A1A1A1" font-size="3.7" font-family="'PT Sans','Helvetica Neue','Helvetica',sans-serif">Democratic</text><path d="M48.29 147.66h2.22v2.22h-2.22z" fill="#00F" stroke="#000" stroke-opacity="0"/></g><g class="color_Republican"><text x="29.6" y="148.78" dy=".35em" fill="#A1A1A1" font-size="3.7" font-family="'PT Sans','Helvetica Neue','Helvetica',sans-serif">Republican</text><path d="M26.38 147.66h2.22v2.22h-2.22z" fill="#F00" stroke="#000" stroke-opacity="0"/></g><text x="26.38" y="145.28" fill="#A1A1A1" font-size="6.35" font-family="'PT Sans','Helvetica Neue','Helvetica',sans-serif" stroke="#000" stroke-opacity="0">Party</text></g><text x="129.24" y="130.46" text-anchor="middle" dy=".6em" font-size="6.35" font-family="'PT Sans','Helvetica Neue','Helvetica',sans-serif" fill="#A1A1A1" stroke="#000" stroke-opacity="0">Year</text><g class="guide xlabels" font-size="4.76" font-family="'PT Sans Caption','Helvetica Neue','Helvetica',sans-serif" fill="#A1A1A1" text-anchor="middle"><text x="27.38" y="121.95" dy=".6em">1824</text><text x="40.11" y="121.95" dy=".6em">1836</text><text x="52.84" y="121.95" dy=".6em">1848</text><text x="65.58" y="121.95" dy=".6em">1860</text><text x="78.31" y="121.95" dy=".6em">1872</text><text x="91.04" y="121.95" dy=".6em">1884</text><text x="103.77" y="121.95" dy=".6em">1896</text><text x="116.51" y="121.95" dy=".6em">1908</text><text x="129.24" y="121.95" dy=".6em">1920</text><text x="141.97" y="121.95" dy=".6em">1932</text><text x="154.7" y="121.95" dy=".6em">1944</text><text x="167.43" y="121.95" dy=".6em">1956</text><text x="180.17" y="121.95" dy=".6em">1968</text><text x="192.9" y="121.95" dy=".6em">1980</text><text x="205.63" y="121.95" dy=".6em">1992</text><text x="218.36" y="121.95" dy=".6em">2004</text><text x="231.1" y="121.95" dy=".6em">2016</text></g><g clip-path="url(#a)"><path d="M25.38 12.91H233.1v108.04H25.38z" pointer-events="visible" fill="#222831" stroke="#000" stroke-opacity="0" class="guide background"/><g class="guide ygridlines xfixed" stroke-dasharray="0.5,0.5" stroke-width=".2" stroke="#575757" fill="none"><path d="M25.38 118.95H233.1M25.38 92.94H233.1M25.38 66.93H233.1M25.38 40.92H233.1M25.38 14.91H233.1"/></g><g class="guide xgridlines yfixed" stroke-dasharray="0.5,0.5" stroke-width=".2" stroke="#575757" fill="none"><path d="M27.38 12.91v108.04M40.11 12.91v108.04M52.84 12.91v108.04M65.58 12.91v108.04M78.31 12.91v108.04M91.04 12.91v108.04M103.77 12.91v108.04M116.51 12.91v108.04M129.24 12.91v108.04M141.97 12.91v108.04M154.7 12.91v108.04M167.43 12.91v108.04M180.17 12.91v108.04M192.9 12.91v108.04M205.63 12.91v108.04M218.36 12.91v108.04M231.1 12.91v108.04"/></g><g class="plotpanel"><g class="geometry"><use xlink:href="#b" x="65.58" y="63.07" stroke="#B3867B" fill="#F00" class="color_Republican"/><use xlink:href="#b" x="69.82" y="66.45" stroke="#B3867B" fill="#F00" class="color_Republican"/><use xlink:href="#b" x="74.06" y="67.54" stroke="#B3867B" fill="#F00" class="color_Republican"/><use xlink:href="#b" x="78.31" y="63.57" stroke="#B3867B" fill="#F00" class="color_Republican"/><use xlink:href="#b" x="82.55" y="68.83" stroke="#B3867B" fill="#F00" class="color_Republican"/><use xlink:href="#b" x="86.8" y="66.59" stroke="#B3867B" fill="#F00" class="color_Republican"/><use xlink:href="#b" x="91.04" y="68.86" stroke="#B3867B" fill="#F00" class="color_Republican"/><use xlink:href="#b" x="95.28" y="67.68" stroke="#B3867B" fill="#F00" class="color_Republican"/><use xlink:href="#b" x="99.53" y="71.53" stroke="#B3867B" fill="#F00" class="color_Republican"/><use xlink:href="#b" x="103.77" y="59.05" stroke="#B3867B" fill="#F00" class="color_Republican"/><use xlink:href="#b" x="108.02" y="63.71" stroke="#B3867B" fill="#F00" class="color_Republican"/><use xlink:href="#b" x="112.26" y="63.67" stroke="#B3867B" fill="#F00" class="color_Republican"/><use xlink:href="#b" x="116.51" y="63.7" stroke="#B3867B" fill="#F00" class="color_Republican"/><use xlink:href="#b" x="120.75" y="89.12" stroke="#B3867B" fill="#F00" class="color_Republican"/><use xlink:href="#b" x="124.99" y="65.34" stroke="#B3867B" fill="#F00" class="color_Republican"/><use xlink:href="#b" x="129.24" y="51.79" stroke="#B3867B" fill="#F00" class="color_Republican"/><use xlink:href="#b" x="133.48" y="60.94" stroke="#B3867B" fill="#F00" class="color_Republican"/><use xlink:href="#b" x="137.73" y="67.16" stroke="#B3867B" fill="#F00" class="color_Republican"/><use xlink:href="#b" x="141.97" y="75.95" stroke="#B3867B" fill="#F00" class="color_Republican"/><use xlink:href="#b" x="146.21" y="78.41" stroke="#B3867B" fill="#F00" class="color_Republican"/><use xlink:href="#b" x="150.46" y="69.07" stroke="#B3867B" fill="#F00" class="color_Republican"/><use xlink:href="#b" x="154.7" y="69.74" stroke="#B3867B" fill="#F00" class="color_Republican"/><use xlink:href="#b" x="158.95" y="71.11" stroke="#B3867B" fill="#F00" class="color_Republican"/><use xlink:href="#b" x="163.19" y="61.26" stroke="#B3867B" fill="#F00" class="color_Republican"/><use xlink:href="#b" x="167.43" y="55.29" stroke="#B3867B" fill="#F00" class="color_Republican"/><use xlink:href="#b" x="171.68" y="69.77" stroke="#B3867B" fill="#F00" class="color_Republican"/><use xlink:href="#b" x="175.92" y="86.38" stroke="#B3867B" fill="#F00" class="color_Republican"/><use xlink:href="#b" x="180.17" y="72.86" stroke="#B3867B" fill="#F00" class="color_Republican"/><use xlink:href="#b" x="184.41" y="58.04" stroke="#B3867B" fill="#F00" class="color_Republican"/><use xlink:href="#b" x="188.65" y="69.58" stroke="#B3867B" fill="#F00" class="color_Republican"/><use xlink:href="#b" x="192.9" y="70.41" stroke="#B3867B" fill="#F00" class="color_Republican"/><use xlink:href="#b" x="197.14" y="62.94" stroke="#B3867B" fill="#F00" class="color_Republican"/><use xlink:href="#b" x="201.39" y="69.51" stroke="#B3867B" fill="#F00" class="color_Republican"/><use xlink:href="#b" x="205.63" y="83.71" stroke="#B3867B" fill="#F00" class="color_Republican"/><use xlink:href="#b" x="209.87" y="87.1" stroke="#B3867B" fill="#F00" class="color_Republican"/><use xlink:href="#b" x="214.12" y="82.31" stroke="#B3867B" fill="#F00" class="color_Republican"/><use xlink:href="#b" x="218.36" y="77.25" stroke="#B3867B" fill="#F00" class="color_Republican"/><use xlink:href="#b" x="222.61" y="81.47" stroke="#B3867B" fill="#F00" class="color_Republican"/><use xlink:href="#b" x="226.85" y="82.36" stroke="#B3867B" fill="#F00" class="color_Republican"/><use xlink:href="#b" x="31.62" y="65.42" stroke="#988BAD" fill="#00F" class="color_Democratic"/><use xlink:href="#b" x="35.87" y="64.74" stroke="#988BAD" fill="#00F" class="color_Democratic"/><use xlink:href="#b" x="40.11" y="62.12" stroke="#988BAD" fill="#00F" class="color_Democratic"/><use xlink:href="#b" x="44.36" y="68.83" stroke="#988BAD" fill="#00F" class="color_Democratic"/><use xlink:href="#b" x="48.6" y="68.08" stroke="#988BAD" fill="#00F" class="color_Democratic"/><use xlink:href="#b" x="52.84" y="92.87" stroke="#988BAD" fill="#00F" class="color_Democratic"/><use xlink:href="#b" x="57.09" y="66.75" stroke="#988BAD" fill="#00F" class="color_Democratic"/><use xlink:href="#b" x="61.33" y="84.79" stroke="#988BAD" fill="#00F" class="color_Democratic"/><use xlink:href="#b" x="65.58" y="70.79" stroke="#988BAD" fill="#00F" class="color_Democratic"/><use xlink:href="#b" x="69.82" y="67.41" stroke="#988BAD" fill="#00F" class="color_Democratic"/><use xlink:href="#b" x="74.06" y="66.32" stroke="#988BAD" fill="#00F" class="color_Democratic"/><use xlink:href="#b" x="78.31" y="70.29" stroke="#988BAD" fill="#00F" class="color_Democratic"/><use xlink:href="#b" x="82.55" y="65.48" stroke="#988BAD" fill="#00F" class="color_Democratic"/><use xlink:href="#b" x="86.8" y="68.58" stroke="#988BAD" fill="#00F" class="color_Democratic"/><use xlink:href="#b" x="91.04" y="68.75" stroke="#988BAD" fill="#00F" class="color_Democratic"/><use xlink:href="#b" x="95.28" y="68.82" stroke="#988BAD" fill="#00F" class="color_Democratic"/><use xlink:href="#b" x="99.53" y="67.98" stroke="#988BAD" fill="#00F" class="color_Democratic"/><use xlink:href="#b" x="103.77" y="78.66" stroke="#988BAD" fill="#00F" class="color_Democratic"/><use xlink:href="#b" x="108.02" y="73.35" stroke="#988BAD" fill="#00F" class="color_Democratic"/><use xlink:href="#b" x="112.26" y="74.96" stroke="#988BAD" fill="#00F" class="color_Democratic"/><use xlink:href="#b" x="116.51" y="76.57" stroke="#988BAD" fill="#00F" class="color_Democratic"/><use xlink:href="#b" x="120.75" y="76.01" stroke="#988BAD" fill="#00F" class="color_Democratic"/><use xlink:href="#b" x="124.99" y="72.65" stroke="#988BAD" fill="#00F" class="color_Democratic"/><use xlink:href="#b" x="129.24" y="90.91" stroke="#988BAD" fill="#00F" class="color_Democratic"/><use xlink:href="#b" x="133.48" y="88.65" stroke="#988BAD" fill="#00F" class="color_Democratic"/><use xlink:href="#b" x="137.73" y="69.6" stroke="#988BAD" fill="#00F" class="color_Democratic"/><use xlink:href="#b" x="141.97" y="62.7" stroke="#988BAD" fill="#00F" class="color_Democratic"/><use xlink:href="#b" x="146.21" y="57.73" stroke="#988BAD" fill="#00F" class="color_Democratic"/><use xlink:href="#b" x="150.46" y="65.37" stroke="#988BAD" fill="#00F" class="color_Democratic"/><use xlink:href="#b" x="154.7" y="64.53" stroke="#988BAD" fill="#00F" class="color_Democratic"/><use xlink:href="#b" x="158.95" y="72.14" stroke="#988BAD" fill="#00F" class="color_Democratic"/><use xlink:href="#b" x="163.19" y="73.64" stroke="#988BAD" fill="#00F" class="color_Democratic"/><use xlink:href="#b" x="167.43" y="78.61" stroke="#988BAD" fill="#00F" class="color_Democratic"/><use xlink:href="#b" x="171.68" y="64.3" stroke="#988BAD" fill="#00F" class="color_Democratic"/><use xlink:href="#b" x="175.92" y="47.62" stroke="#988BAD" fill="#00F" class="color_Democratic"/><use xlink:href="#b" x="180.17" y="67.19" stroke="#988BAD" fill="#00F" class="color_Democratic"/><use xlink:href="#b" x="184.41" y="76.08" stroke="#988BAD" fill="#00F" class="color_Democratic"/><use xlink:href="#b" x="188.65" y="64.98" stroke="#988BAD" fill="#00F" class="color_Democratic"/><use xlink:href="#b" x="192.9" y="73.18" stroke="#988BAD" fill="#00F" class="color_Democratic"/><use xlink:href="#b" x="197.14" y="71.27" stroke="#988BAD" fill="#00F" class="color_Democratic"/><use xlink:href="#b" x="201.39" y="65.25" stroke="#988BAD" fill="#00F" class="color_Democratic"/><use xlink:href="#b" x="205.63" y="67.22" stroke="#988BAD" fill="#00F" class="color_Democratic"/><use xlink:href="#b" x="209.87" y="57.08" stroke="#988BAD" fill="#00F" class="color_Democratic"/><use xlink:href="#b" x="214.12" y="56.3" stroke="#988BAD" fill="#00F" class="color_Democratic"/><use xlink:href="#b" x="218.36" y="58.23" stroke="#988BAD" fill="#00F" class="color_Democratic"/><use xlink:href="#b" x="222.61" y="53.53" stroke="#988BAD" fill="#00F" class="color_Democratic"/><use xlink:href="#b" x="226.85" y="53.05" stroke="#988BAD" fill="#00F" class="color_Democratic"/></g><g fill-opacity="0"><path fill="none" d="M31.62 65.42l4.25-.68 4.24-2.62 4.25 6.71 4.24-.75 4.24 24.79 4.25-26.12 4.24 18.04 4.25-14 4.24-3.38 4.24-1.09 4.25 3.97 4.24-4.81 4.25 3.1 4.24.17 4.24.07 4.25-.84 4.24 10.68 4.25-5.31 4.24 1.61 4.25 1.61 4.24-.56 4.24-3.36 4.25 18.26 4.24-2.26 4.25-19.05 4.24-6.9 4.24-4.97 4.25 7.64 4.24-.84 4.25 7.61 4.24 1.5 4.24 4.97 4.25-14.31 4.24-16.68 4.25 19.57 4.24 8.89 4.24-11.1 4.25 8.2 4.24-1.91 4.25-6.02 4.24 1.97 4.24-10.14 4.25-.78 4.24 1.93 4.25-4.7 4.24-.48" stroke="#00F" class="geometry color_Democratic"/><path fill="none" d="M65.58 63.07l4.24 3.38 4.24 1.09 4.25-3.97 4.24 5.26 4.25-2.24 4.24 2.27 4.24-1.18 4.25 3.85 4.24-12.48 4.25 4.66 4.24-.04 4.25.03 4.24 25.42 4.24-23.78 4.25-13.55 4.24 9.15 4.25 6.22 4.24 8.79 4.24 2.46 4.25-9.34 4.24.67 4.25 1.37 4.24-9.85 4.24-5.97 4.25 14.48 4.24 16.61 4.25-13.52 4.24-14.82 4.24 11.54 4.25.83 4.24-7.47 4.25 6.57 4.24 14.2 4.24 3.39 4.25-4.79 4.24-5.06 4.25 4.22 4.24.89" stroke="#F00" class="geometry color_Republican"/></g></g></g><g class="guide ylabels" font-size="4.76" font-family="'PT Sans Caption','Helvetica Neue','Helvetica',sans-serif" fill="#A1A1A1" text-anchor="end"><text x="24.38" y="118.95" dy=".35em">0</text><text x="24.38" y="92.94" dy=".35em">25</text><text x="24.38" y="66.93" dy=".35em">50</text><text x="24.38" y="40.92" dy=".35em">75</text><text x="24.38" y="14.91" dy=".35em">100</text></g><text x="9.95" y="64.93" text-anchor="middle" dy=".35em" transform="rotate(-90 9.95 66.93)" font-size="6.35" font-family="'PT Sans','Helvetica Neue','Helvetica',sans-serif" fill="#A1A1A1" stroke="#000" stroke-opacity="0">Popular Vote (%)</text><text x="129.24" y="5" text-anchor="middle" dy=".6em" font-size="6.35" font-family="'PT Sans','Helvetica Neue','Helvetica',sans-serif" fill="#A1A1A1" stroke="#000" stroke-opacity="0">New York</text></g><defs><clipPath id="a"><path d="M25.38 12.91H233.1v108.04H25.38"/></clipPath><circle r=".9" id="b"/></defs></svg>