<svg xmlns="http://www.w3.org/2000/svg" xmlns:xlink="http://www.w3.org/1999/xlink" version="1.2" width="238.1mm" height="599.924" viewBox="0 0 238.1 158.73" stroke-width=".3" font-size="3.88"><path d="M0 0h238.1v158.73H0z" stroke="#000" stroke-opacity="0" fill="#222831"/><g class="plotroot xscalable yscalable"><g class="guide colorkey"><g class="color_Democratic"><text x="51.52" y="148.78" dy=".35em" fill="#A1A1A1" font-size="3.7" font-family="'PT Sans','Helvetica Neue','Helvetica',sans-serif">Democratic</text><path d="M48.29 147.66h2.22v2.22h-2.22z" fill="#00F" stroke="#000" stroke-opacity="0"/></g><g class="color_Republican"><text x="29.6" y="148.78" dy=".35em" fill="#A1A1A1" font-size="3.7" font-family="'PT Sans','Helvetica Neue','Helvetica',sans-serif">Republican</text><path d="M26.38 147.66h2.22v2.22h-2.22z" fill="#F00" stroke="#000" stroke-opacity="0"/></g><text x="26.38" y="145.28" fill="#A1A1A1" font-size="6.35" font-family="'PT Sans','Helvetica Neue','Helvetica',sans-serif" stroke="#000" stroke-opacity="0">Party</text></g><text x="129.24" y="130.46" text-anchor="middle" dy=".6em" font-size="6.35" font-family="'PT Sans','Helvetica Neue','Helvetica',sans-serif" fill="#A1A1A1" stroke="#000" stroke-opacity="0">Year</text><g class="guide xlabels" font-size="4.76" font-family="'PT Sans Caption','Helvetica Neue','Helvetica',sans-serif" fill="#A1A1A1" text-anchor="middle"><text x="27.38" y="121.95" dy=".6em">1908</text><text x="42.47" y="121.95" dy=".6em">1916</text><text x="57.56" y="121.95" dy=".6em">1924</text><text x="72.65" y="121.95" dy=".6em">1932</text><text x="87.74" y="121.95" dy=".6em">1940</text><text x="102.83" y="121.95" dy=".6em">1948</text><text x="117.92" y="121.95" dy=".6em">1956</text><text x="133.01" y="121.95" dy=".6em">1964</text><text x="148.1" y="121.95" dy=".6em">1972</text><text x="163.19" y="121.95" dy=".6em">1980</text><text x="178.28" y="121.95" dy=".6em">1988</text><text x="193.37" y="121.95" dy=".6em">1996</text><text x="208.46" y="121.95" dy=".6em">2004</text><text x="223.55" y="121.95" dy=".6em">2012</text></g><g clip-path="url(#a)"><path d="M25.38 12.91H233.1v108.04H25.38z" pointer-events="visible" fill="#222831" stroke="#000" stroke-opacity="0" class="guide background"/><g class="guide ygridlines xfixed" stroke-dasharray="0.5,0.5" stroke-width=".2" stroke="#575757" fill="none"><path d="M25.38 118.95H233.1M25.38 92.94H233.1M25.38 66.93H233.1M25.38 40.92H233.1M25.38 14.91H233.1"/></g><g class="guide xgridlines yfixed" stroke-dasharray="0.5,0.5" stroke-width=".2" stroke="#575757" fill="none"><path d="M27.38 12.91v108.04M42.47 12.91v108.04M57.56 12.91v108.04M72.65 12.91v108.04M87.74 12.91v108.04M102.83 12.91v108.04M117.92 12.91v108.04M133.01 12.91v108.04M148.1 12.91v108.04M163.19 12.91v108.04M178.28 12.91v108.04M193.37 12.91v108.04M208.46 12.91v108.04M223.55 12.91v108.04"/></g><g class="plotpanel"><g class="geometry"><use xlink:href="#b" x="34.92" y="81.59" stroke="#B3867B" fill="#F00" class="color_Republican"/><use xlink:href="#b" x="42.47" y="70.42" stroke="#B3867B" fill="#F00" class="color_Republican"/><use xlink:href="#b" x="50.01" y="62.06" stroke="#B3867B" fill="#F00" class="color_Republican"/><use xlink:href="#b" x="57.56" y="68.47" stroke="#B3867B" fill="#F00" class="color_Republican"/><use xlink:href="#b" x="65.1" y="57.55" stroke="#B3867B" fill="#F00" class="color_Republican"/><use xlink:href="#b" x="72.65" y="81.75" stroke="#B3867B" fill="#F00" class="color_Republican"/><use xlink:href="#b" x="80.19" y="80.98" stroke="#B3867B" fill="#F00" class="color_Republican"/><use xlink:href="#b" x="87.74" y="73.92" stroke="#B3867B" fill="#F00" class="color_Republican"/><use xlink:href="#b" x="95.28" y="70.64" stroke="#B3867B" fill="#F00" class="color_Republican"/><use xlink:href="#b" x="102.83" y="74.29" stroke="#B3867B" fill="#F00" class="color_Republican"/><use xlink:href="#b" x="110.37" y="61.32" stroke="#B3867B" fill="#F00" class="color_Republican"/><use xlink:href="#b" x="117.92" y="58.81" stroke="#B3867B" fill="#F00" class="color_Republican"/><use xlink:href="#b" x="125.46" y="67.54" stroke="#B3867B" fill="#F00" class="color_Republican"/><use xlink:href="#b" x="133.01" y="77.08" stroke="#B3867B" fill="#F00" class="color_Republican"/><use xlink:href="#b" x="140.55" y="65.01" stroke="#B3867B" fill="#F00" class="color_Republican"/><use xlink:href="#b" x="148.1" y="55.44" stroke="#B3867B" fill="#F00" class="color_Republican"/><use xlink:href="#b" x="155.64" y="66.15" stroke="#B3867B" fill="#F00" class="color_Republican"/><use xlink:href="#b" x="163.19" y="61.76" stroke="#B3867B" fill="#F00" class="color_Republican"/><use xlink:href="#b" x="170.74" y="56.83" stroke="#B3867B" fill="#F00" class="color_Republican"/><use xlink:href="#b" x="178.28" y="65" stroke="#B3867B" fill="#F00" class="color_Republican"/><use xlink:href="#b" x="185.83" y="80.11" stroke="#B3867B" fill="#F00" class="color_Republican"/><use xlink:href="#b" x="193.37" y="75.4" stroke="#B3867B" fill="#F00" class="color_Republican"/><use xlink:href="#b" x="200.92" y="69.17" stroke="#B3867B" fill="#F00" class="color_Republican"/><use xlink:href="#b" x="208.46" y="67.1" stroke="#B3867B" fill="#F00" class="color_Republican"/><use xlink:href="#b" x="216.01" y="75.49" stroke="#B3867B" fill="#F00" class="color_Republican"/><use xlink:href="#b" x="223.55" y="74.38" stroke="#B3867B" fill="#F00" class="color_Republican"/><use xlink:href="#b" x="34.92" y="75.89" stroke="#988BAD" fill="#00F" class="color_Democratic"/><use xlink:href="#b" x="42.47" y="66.72" stroke="#988BAD" fill="#00F" class="color_Democratic"/><use xlink:href="#b" x="50.01" y="72.89" stroke="#988BAD" fill="#00F" class="color_Democratic"/><use xlink:href="#b" x="57.56" y="74.19" stroke="#988BAD" fill="#00F" class="color_Democratic"/><use xlink:href="#b" x="65.1" y="76.45" stroke="#988BAD" fill="#00F" class="color_Democratic"/><use xlink:href="#b" x="72.65" y="53.7" stroke="#988BAD" fill="#00F" class="color_Democratic"/><use xlink:href="#b" x="80.19" y="53.72" stroke="#988BAD" fill="#00F" class="color_Democratic"/><use xlink:href="#b" x="87.74" y="60.08" stroke="#988BAD" fill="#00F" class="color_Democratic"/><use xlink:href="#b" x="95.28" y="63.33" stroke="#988BAD" fill="#00F" class="color_Democratic"/><use xlink:href="#b" x="102.83" y="60.29" stroke="#988BAD" fill="#00F" class="color_Democratic"/><use xlink:href="#b" x="110.37" y="72.88" stroke="#988BAD" fill="#00F" class="color_Democratic"/><use xlink:href="#b" x="117.92" y="75.48" stroke="#988BAD" fill="#00F" class="color_Democratic"/><use xlink:href="#b" x="125.46" y="66.77" stroke="#988BAD" fill="#00F" class="color_Democratic"/><use xlink:href="#b" x="133.01" y="57.34" stroke="#988BAD" fill="#00F" class="color_Democratic"/><use xlink:href="#b" x="140.55" y="77.6" stroke="#988BAD" fill="#00F" class="color_Democratic"/><use xlink:href="#b" x="148.1" y="80.92" stroke="#988BAD" fill="#00F" class="color_Democratic"/><use xlink:href="#b" x="155.64" y="68.72" stroke="#988BAD" fill="#00F" class="color_Democratic"/><use xlink:href="#b" x="163.19" y="80.68" stroke="#988BAD" fill="#00F" class="color_Democratic"/><use xlink:href="#b" x="170.74" y="78.14" stroke="#988BAD" fill="#00F" class="color_Democratic"/><use xlink:href="#b" x="178.28" y="70.15" stroke="#988BAD" fill="#00F" class="color_Democratic"/><use xlink:href="#b" x="185.83" y="71.2" stroke="#988BAD" fill="#00F" class="color_Democratic"/><use xlink:href="#b" x="193.37" y="67.78" stroke="#988BAD" fill="#00F" class="color_Democratic"/><use xlink:href="#b" x="200.92" y="69.11" stroke="#988BAD" fill="#00F" class="color_Democratic"/><use xlink:href="#b" x="208.46" y="67.92" stroke="#988BAD" fill="#00F" class="color_Democratic"/><use xlink:href="#b" x="216.01" y="59.74" stroke="#988BAD" fill="#00F" class="color_Democratic"/><use xlink:href="#b" x="223.55" y="63.82" stroke="#988BAD" fill="#00F" class="color_Democratic"/></g><g fill-opacity="0"><path fill="none" d="M34.92 75.89l7.55-9.17 7.54 6.17 7.55 1.3 7.54 2.26 7.55-22.75 7.54.02 7.55 6.36 7.54 3.25 7.55-3.04 7.54 12.59 7.55 2.6 7.54-8.71 7.55-9.43 7.54 20.26 7.55 3.32 7.54-12.2 7.55 11.96 7.55-2.54 7.54-7.99 7.55 1.05 7.54-3.42 7.55 1.33 7.54-1.19 7.55-8.18 7.54 4.08" stroke="#00F" class="geometry color_Democratic"/><path fill="none" d="M34.92 81.59l7.55-11.17 7.54-8.36 7.55 6.41 7.54-10.92 7.55 24.2 7.54-.77 7.55-7.06 7.54-3.28 7.55 3.65 7.54-12.97 7.55-2.51 7.54 8.73 7.55 9.54 7.54-12.07 7.55-9.57 7.54 10.71 7.55-4.39 7.55-4.93 7.54 8.17 7.55 15.11 7.54-4.71 7.55-6.23 7.54-2.07 7.55 8.39 7.54-1.11" stroke="#F00" class="geometry color_Republican"/></g></g></g><g class="guide ylabels" font-size="4.76" font-family="'PT Sans Caption','Helvetica Neue','Helvetica',sans-serif" fill="#A1A1A1" text-anchor="end"><text x="24.38" y="118.95" dy=".35em">0</text><text x="24.38" y="92.94" dy=".35em">25</text><text x="24.38" y="66.93" dy=".35em">50</text><text x="24.38" y="40.92" dy=".35em">75</text><text x="24.38" y="14.91" dy=".35em">100</text></g><text x="9.95" y="64.93" text-anchor="middle" dy=".35em" transform="rotate(-90 9.95 66.93)" font-size="6.35" font-family="'PT Sans','Helvetica Neue','Helvetica',sans-serif" fill="#A1A1A1" stroke="#000" stroke-opacity="0">Popular Vote (%)</text><text x="129.24" y="5" text-anchor="middle" dy=".6em" font-size="6.35" font-family="'PT Sans','Helvetica Neue','Helvetica',sans-serif" fill="#A1A1A1" stroke="#000" stroke-opacity="0">New Mexico</text></g><defs><clipPath id="a"><path d="M25.38 12.91H233.1v108.04H25.38"/></clipPath><circle r=".9" id="b"/></defs></svg>