<?xml version="1.0" encoding="UTF-8"?>
<svg xmlns="http://www.w3.org/2000/svg"
     xmlns:xlink="http://www.w3.org/1999/xlink"
     xmlns:gadfly="http://www.gadflyjl.org/ns"
     version="1.2"
     width="320mm" height="160mm" viewBox="0 0 320 160"
     stroke="none"
     fill="#000000"
     stroke-width="0.3"
     font-size="3.88"
>
<g class="plotroot xscalable yscalable" id="img-95a2a9aa-1">
  <g class="guide colorkey" id="img-95a2a9aa-2">
    <g class="color_Democratic" id="img-95a2a9aa-3">
      <g fill="#4C404B" font-size="4.76" font-family="'PT Sans','Helvetica Neue','Helvetica',sans-serif" id="img-95a2a9aa-4">
        <text x="61.86" y="150" dy="0.35em">Democratic</text>
      </g>
      <g fill="#0000FF" stroke="#000000" stroke-opacity="0.000" id="img-95a2a9aa-5">
        <rect x="57.89" y="148.52" width="2.97" height="2.97"/>
      </g>
    </g>
    <g class="color_Republican" id="img-95a2a9aa-6">
      <g fill="#4C404B" font-size="4.76" font-family="'PT Sans','Helvetica Neue','Helvetica',sans-serif" id="img-95a2a9aa-7">
        <text x="30.79" y="150" dy="0.35em">Republican</text>
      </g>
      <g fill="#FF0000" stroke="#000000" stroke-opacity="0.000" id="img-95a2a9aa-8">
        <rect x="26.82" y="148.52" width="2.97" height="2.97"/>
      </g>
    </g>
    <g fill="#362A35" font-size="6.35" font-family="'PT Sans','Helvetica Neue','Helvetica',sans-serif" stroke="#000000" stroke-opacity="0.000" id="img-95a2a9aa-9">
      <text x="26.82" y="145.06">Party</text>
    </g>
  </g>
  <g font-size="6.35" font-family="'PT Sans','Helvetica Neue','Helvetica',sans-serif" fill="#564A55" stroke="#000000" stroke-opacity="0.000" id="img-95a2a9aa-10">
    <text x="170.41" y="131.48" text-anchor="middle" dy="0.6em">Year</text>
  </g>
  <g class="guide xlabels" font-size="4.76" font-family="'PT Sans Caption','Helvetica Neue','Helvetica',sans-serif" fill="#6C606B" id="img-95a2a9aa-11">
    <text x="27.82" y="123.95" text-anchor="middle" dy="0.6em">1860</text>
    <text x="42.44" y="123.95" text-anchor="middle" dy="0.6em">1868</text>
    <text x="57.07" y="123.95" text-anchor="middle" dy="0.6em">1876</text>
    <text x="71.69" y="123.95" text-anchor="middle" dy="0.6em">1884</text>
    <text x="86.32" y="123.95" text-anchor="middle" dy="0.6em">1892</text>
    <text x="100.94" y="123.95" text-anchor="middle" dy="0.6em">1900</text>
    <text x="115.57" y="123.95" text-anchor="middle" dy="0.6em">1908</text>
    <text x="130.19" y="123.95" text-anchor="middle" dy="0.6em">1916</text>
    <text x="144.81" y="123.95" text-anchor="middle" dy="0.6em">1924</text>
    <text x="159.44" y="123.95" text-anchor="middle" dy="0.6em">1932</text>
    <text x="174.06" y="123.95" text-anchor="middle" dy="0.6em">1940</text>
    <text x="188.69" y="123.95" text-anchor="middle" dy="0.6em">1948</text>
    <text x="203.31" y="123.95" text-anchor="middle" dy="0.6em">1956</text>
    <text x="217.94" y="123.95" text-anchor="middle" dy="0.6em">1964</text>
    <text x="232.56" y="123.95" text-anchor="middle" dy="0.6em">1972</text>
    <text x="247.19" y="123.95" text-anchor="middle" dy="0.6em">1980</text>
    <text x="261.81" y="123.95" text-anchor="middle" dy="0.6em">1988</text>
    <text x="276.44" y="123.95" text-anchor="middle" dy="0.6em">1996</text>
    <text x="291.06" y="123.95" text-anchor="middle" dy="0.6em">2004</text>
    <text x="305.69" y="123.95" text-anchor="middle" dy="0.6em">2012</text>
  </g>
<g clip-path="url(#img-95a2a9aa-12)">
  <g id="img-95a2a9aa-13">
    <g pointer-events="visible" opacity="1" fill="#000000" fill-opacity="0.000" stroke="#000000" stroke-opacity="0.000" class="guide background" id="img-95a2a9aa-14">
      <rect x="25.82" y="13.94" width="289.18" height="109.01"/>
    </g>
    <g class="guide ygridlines xfixed" stroke-dasharray="0.5,0.5" stroke-width="0.26" stroke="#000000" id="img-95a2a9aa-15">
      <path fill="none" d="M25.82,120.95 L 315 120.95"/>
      <path fill="none" d="M25.82,94.7 L 315 94.7"/>
      <path fill="none" d="M25.82,68.44 L 315 68.44"/>
      <path fill="none" d="M25.82,42.19 L 315 42.19"/>
      <path fill="none" d="M25.82,15.94 L 315 15.94"/>
    </g>
    <g class="guide xgridlines yfixed" stroke-dasharray="0.5,0.5" stroke-width="0.26" stroke="#000000" id="img-95a2a9aa-16">
      <path fill="none" d="M27.82,13.94 L 27.82 122.95"/>
      <path fill="none" d="M42.44,13.94 L 42.44 122.95"/>
      <path fill="none" d="M57.07,13.94 L 57.07 122.95"/>
      <path fill="none" d="M71.69,13.94 L 71.69 122.95"/>
      <path fill="none" d="M86.32,13.94 L 86.32 122.95"/>
      <path fill="none" d="M100.94,13.94 L 100.94 122.95"/>
      <path fill="none" d="M115.57,13.94 L 115.57 122.95"/>
      <path fill="none" d="M130.19,13.94 L 130.19 122.95"/>
      <path fill="none" d="M144.81,13.94 L 144.81 122.95"/>
      <path fill="none" d="M159.44,13.94 L 159.44 122.95"/>
      <path fill="none" d="M174.06,13.94 L 174.06 122.95"/>
      <path fill="none" d="M188.69,13.94 L 188.69 122.95"/>
      <path fill="none" d="M203.31,13.94 L 203.31 122.95"/>
      <path fill="none" d="M217.94,13.94 L 217.94 122.95"/>
      <path fill="none" d="M232.56,13.94 L 232.56 122.95"/>
      <path fill="none" d="M247.19,13.94 L 247.19 122.95"/>
      <path fill="none" d="M261.81,13.94 L 261.81 122.95"/>
      <path fill="none" d="M276.44,13.94 L 276.44 122.95"/>
      <path fill="none" d="M291.06,13.94 L 291.06 122.95"/>
      <path fill="none" d="M305.69,13.94 L 305.69 122.95"/>
    </g>
    <g class="plotpanel" id="img-95a2a9aa-17">
      <g class="geometry" id="img-95a2a9aa-18">
        <g stroke-width="0.3" id="img-95a2a9aa-19">
          <use xlink:href="#img-95a2a9aa-20" x="35.13" y="58.11" fill="#FF0000" class="color_Republican" stroke="#FFFFFF"/>
          <use xlink:href="#img-95a2a9aa-20" x="42.44" y="62.78" fill="#FF0000" class="color_Republican" stroke="#FFFFFF"/>
          <use xlink:href="#img-95a2a9aa-20" x="49.75" y="60.64" fill="#FF0000" class="color_Republican" stroke="#FFFFFF"/>
          <use xlink:href="#img-95a2a9aa-20" x="57.07" y="65.58" fill="#FF0000" class="color_Republican" stroke="#FFFFFF"/>
          <use xlink:href="#img-95a2a9aa-20" x="64.38" y="70.97" fill="#FF0000" class="color_Republican" stroke="#FFFFFF"/>
          <use xlink:href="#img-95a2a9aa-20" x="71.69" y="61.92" fill="#FF0000" class="color_Republican" stroke="#FFFFFF"/>
          <use xlink:href="#img-95a2a9aa-20" x="79" y="60.33" fill="#FF0000" class="color_Republican" stroke="#FFFFFF"/>
          <use xlink:href="#img-95a2a9aa-20" x="86.32" y="93.81" fill="#FF0000" class="color_Republican" stroke="#FFFFFF"/>
          <use xlink:href="#img-95a2a9aa-20" x="93.63" y="101.22" fill="#FF0000" class="color_Republican" stroke="#FFFFFF"/>
          <use xlink:href="#img-95a2a9aa-20" x="100.94" y="81.31" fill="#FF0000" class="color_Republican" stroke="#FFFFFF"/>
          <use xlink:href="#img-95a2a9aa-20" x="108.25" y="61.45" fill="#FF0000" class="color_Republican" stroke="#FFFFFF"/>
          <use xlink:href="#img-95a2a9aa-20" x="115.57" y="74.82" fill="#FF0000" class="color_Republican" stroke="#FFFFFF"/>
          <use xlink:href="#img-95a2a9aa-20" x="122.88" y="104.27" fill="#FF0000" class="color_Republican" stroke="#FFFFFF"/>
          <use xlink:href="#img-95a2a9aa-20" x="130.19" y="82.73" fill="#FF0000" class="color_Republican" stroke="#FFFFFF"/>
          <use xlink:href="#img-95a2a9aa-20" x="137.5" y="61.18" fill="#FF0000" class="color_Republican" stroke="#FFFFFF"/>
          <use xlink:href="#img-95a2a9aa-20" x="144.81" y="77.09" fill="#FF0000" class="color_Republican" stroke="#FFFFFF"/>
          <use xlink:href="#img-95a2a9aa-20" x="152.13" y="61.58" fill="#FF0000" class="color_Republican" stroke="#FFFFFF"/>
          <use xlink:href="#img-95a2a9aa-20" x="159.44" y="88.83" fill="#FF0000" class="color_Republican" stroke="#FFFFFF"/>
          <use xlink:href="#img-95a2a9aa-20" x="166.75" y="92.4" fill="#FF0000" class="color_Republican" stroke="#FFFFFF"/>
          <use xlink:href="#img-95a2a9aa-20" x="174.06" y="79.03" fill="#FF0000" class="color_Republican" stroke="#FFFFFF"/>
          <use xlink:href="#img-95a2a9aa-20" x="181.38" y="73.3" fill="#FF0000" class="color_Republican" stroke="#FFFFFF"/>
          <use xlink:href="#img-95a2a9aa-20" x="188.69" y="71.32" fill="#FF0000" class="color_Republican" stroke="#FFFFFF"/>
          <use xlink:href="#img-95a2a9aa-20" x="196" y="56.43" fill="#FF0000" class="color_Republican" stroke="#FFFFFF"/>
          <use xlink:href="#img-95a2a9aa-20" x="203.31" y="60.08" fill="#FF0000" class="color_Republican" stroke="#FFFFFF"/>
          <use xlink:href="#img-95a2a9aa-20" x="210.63" y="69.66" fill="#FF0000" class="color_Republican" stroke="#FFFFFF"/>
          <use xlink:href="#img-95a2a9aa-20" x="217.94" y="77.46" fill="#FF0000" class="color_Republican" stroke="#FFFFFF"/>
          <use xlink:href="#img-95a2a9aa-20" x="225.25" y="71.11" fill="#FF0000" class="color_Republican" stroke="#FFFFFF"/>
          <use xlink:href="#img-95a2a9aa-20" x="232.56" y="54.08" fill="#FF0000" class="color_Republican" stroke="#FFFFFF"/>
          <use xlink:href="#img-95a2a9aa-20" x="239.88" y="68.27" fill="#FF0000" class="color_Republican" stroke="#FFFFFF"/>
          <use xlink:href="#img-95a2a9aa-20" x="247.19" y="55.28" fill="#FF0000" class="color_Republican" stroke="#FFFFFF"/>
          <use xlink:href="#img-95a2a9aa-20" x="254.5" y="51.8" fill="#FF0000" class="color_Republican" stroke="#FFFFFF"/>
          <use xlink:href="#img-95a2a9aa-20" x="261.81" y="59.14" fill="#FF0000" class="color_Republican" stroke="#FFFFFF"/>
          <use xlink:href="#img-95a2a9aa-20" x="269.13" y="84.48" fill="#FF0000" class="color_Republican" stroke="#FFFFFF"/>
          <use xlink:href="#img-95a2a9aa-20" x="276.44" y="75.88" fill="#FF0000" class="color_Republican" stroke="#FFFFFF"/>
          <use xlink:href="#img-95a2a9aa-20" x="283.75" y="68.95" fill="#FF0000" class="color_Republican" stroke="#FFFFFF"/>
          <use xlink:href="#img-95a2a9aa-20" x="291.06" y="67.95" fill="#FF0000" class="color_Republican" stroke="#FFFFFF"/>
          <use xlink:href="#img-95a2a9aa-20" x="298.38" y="76.16" fill="#FF0000" class="color_Republican" stroke="#FFFFFF"/>
          <use xlink:href="#img-95a2a9aa-20" x="305.69" y="72.99" fill="#FF0000" class="color_Republican" stroke="#FFFFFF"/>
          <use xlink:href="#img-95a2a9aa-20" x="35.13" y="78.78" fill="#0000FF" class="color_Democratic" stroke="#FFFFFF"/>
          <use xlink:href="#img-95a2a9aa-20" x="42.44" y="74.11" fill="#0000FF" class="color_Democratic" stroke="#FFFFFF"/>
          <use xlink:href="#img-95a2a9aa-20" x="49.75" y="76.25" fill="#0000FF" class="color_Democratic" stroke="#FFFFFF"/>
          <use xlink:href="#img-95a2a9aa-20" x="57.07" y="71.31" fill="#0000FF" class="color_Democratic" stroke="#FFFFFF"/>
          <use xlink:href="#img-95a2a9aa-20" x="64.38" y="65.92" fill="#0000FF" class="color_Democratic" stroke="#FFFFFF"/>
          <use xlink:href="#img-95a2a9aa-20" x="71.69" y="75.18" fill="#0000FF" class="color_Democratic" stroke="#FFFFFF"/>
          <use xlink:href="#img-95a2a9aa-20" x="79" y="76.91" fill="#0000FF" class="color_Democratic" stroke="#FFFFFF"/>
          <use xlink:href="#img-95a2a9aa-20" x="86.32" y="114.06" fill="#0000FF" class="color_Democratic" stroke="#FFFFFF"/>
          <use xlink:href="#img-95a2a9aa-20" x="93.63" y="35.67" fill="#0000FF" class="color_Democratic" stroke="#FFFFFF"/>
          <use xlink:href="#img-95a2a9aa-20" x="100.94" y="55.58" fill="#0000FF" class="color_Democratic" stroke="#FFFFFF"/>
          <use xlink:href="#img-95a2a9aa-20" x="108.25" y="86.43" fill="#0000FF" class="color_Democratic" stroke="#FFFFFF"/>
          <use xlink:href="#img-95a2a9aa-20" x="115.57" y="72.94" fill="#0000FF" class="color_Democratic" stroke="#FFFFFF"/>
          <use xlink:href="#img-95a2a9aa-20" x="122.88" y="79.26" fill="#0000FF" class="color_Democratic" stroke="#FFFFFF"/>
          <use xlink:href="#img-95a2a9aa-20" x="130.19" y="64.92" fill="#0000FF" class="color_Democratic" stroke="#FFFFFF"/>
          <use xlink:href="#img-95a2a9aa-20" x="137.5" y="82.91" fill="#0000FF" class="color_Democratic" stroke="#FFFFFF"/>
          <use xlink:href="#img-95a2a9aa-20" x="144.81" y="97.9" fill="#0000FF" class="color_Democratic" stroke="#FFFFFF"/>
          <use xlink:href="#img-95a2a9aa-20" x="152.13" y="75.31" fill="#0000FF" class="color_Democratic" stroke="#FFFFFF"/>
          <use xlink:href="#img-95a2a9aa-20" x="159.44" y="48.06" fill="#0000FF" class="color_Democratic" stroke="#FFFFFF"/>
          <use xlink:href="#img-95a2a9aa-20" x="166.75" y="44.49" fill="#0000FF" class="color_Democratic" stroke="#FFFFFF"/>
          <use xlink:href="#img-95a2a9aa-20" x="174.06" y="57.86" fill="#0000FF" class="color_Democratic" stroke="#FFFFFF"/>
          <use xlink:href="#img-95a2a9aa-20" x="181.38" y="63.59" fill="#0000FF" class="color_Democratic" stroke="#FFFFFF"/>
          <use xlink:href="#img-95a2a9aa-20" x="188.69" y="68.05" fill="#0000FF" class="color_Democratic" stroke="#FFFFFF"/>
          <use xlink:href="#img-95a2a9aa-20" x="196" y="80.46" fill="#0000FF" class="color_Democratic" stroke="#FFFFFF"/>
          <use xlink:href="#img-95a2a9aa-20" x="203.31" y="76.81" fill="#0000FF" class="color_Democratic" stroke="#FFFFFF"/>
          <use xlink:href="#img-95a2a9aa-20" x="210.63" y="67.22" fill="#0000FF" class="color_Democratic" stroke="#FFFFFF"/>
          <use xlink:href="#img-95a2a9aa-20" x="217.94" y="59.43" fill="#0000FF" class="color_Democratic" stroke="#FFFFFF"/>
          <use xlink:href="#img-95a2a9aa-20" x="225.25" y="79.69" fill="#0000FF" class="color_Democratic" stroke="#FFFFFF"/>
          <use xlink:href="#img-95a2a9aa-20" x="232.56" y="82.81" fill="#0000FF" class="color_Democratic" stroke="#FFFFFF"/>
          <use xlink:href="#img-95a2a9aa-20" x="239.88" y="72.84" fill="#0000FF" class="color_Democratic" stroke="#FFFFFF"/>
          <use xlink:href="#img-95a2a9aa-20" x="247.19" y="92.71" fill="#0000FF" class="color_Democratic" stroke="#FFFFFF"/>
          <use xlink:href="#img-95a2a9aa-20" x="254.5" y="87.38" fill="#0000FF" class="color_Democratic" stroke="#FFFFFF"/>
          <use xlink:href="#img-95a2a9aa-20" x="261.81" y="81.13" fill="#0000FF" class="color_Democratic" stroke="#FFFFFF"/>
          <use xlink:href="#img-95a2a9aa-20" x="269.13" y="81.72" fill="#0000FF" class="color_Democratic" stroke="#FFFFFF"/>
          <use xlink:href="#img-95a2a9aa-20" x="276.44" y="74.81" fill="#0000FF" class="color_Democratic" stroke="#FFFFFF"/>
          <use xlink:href="#img-95a2a9aa-20" x="283.75" y="72.67" fill="#0000FF" class="color_Democratic" stroke="#FFFFFF"/>
          <use xlink:href="#img-95a2a9aa-20" x="291.06" y="70.67" fill="#0000FF" class="color_Democratic" stroke="#FFFFFF"/>
          <use xlink:href="#img-95a2a9aa-20" x="298.38" y="63.04" fill="#0000FF" class="color_Democratic" stroke="#FFFFFF"/>
          <use xlink:href="#img-95a2a9aa-20" x="305.69" y="65.97" fill="#0000FF" class="color_Democratic" stroke="#FFFFFF"/>
        </g>
      </g>
      <g stroke-width="0.53" fill="#000000" fill-opacity="0.000" stroke-dasharray="none" id="img-95a2a9aa-21">
        <path fill="none" d="M35.13,78.78 L 42.44 74.11 49.75 76.25 57.07 71.31 64.38 65.92 71.69 75.18 79 76.91 86.32 114.06 93.63 35.67 100.94 55.58 108.25 86.43 115.57 72.94 122.88 79.26 130.19 64.92 137.5 82.91 144.81 97.9 152.13 75.31 159.44 48.06 166.75 44.49 174.06 57.86 181.38 63.59 188.69 68.05 196 80.46 203.31 76.81 210.63 67.22 217.94 59.43 225.25 79.69 232.56 82.81 239.88 72.84 247.19 92.71 254.5 87.38 261.81 81.13 269.13 81.72 276.44 74.81 283.75 72.67 291.06 70.67 298.38 63.04 305.69 65.97" class="geometry color_Democratic" stroke="#0000FF"/>
        <path fill="none" d="M35.13,58.11 L 42.44 62.78 49.75 60.64 57.07 65.58 64.38 70.97 71.69 61.92 79 60.33 86.32 93.81 93.63 101.22 100.94 81.31 108.25 61.45 115.57 74.82 122.88 104.27 130.19 82.73 137.5 61.18 144.81 77.09 152.13 61.58 159.44 88.83 166.75 92.4 174.06 79.03 181.38 73.3 188.69 71.32 196 56.43 203.31 60.08 210.63 69.66 217.94 77.46 225.25 71.11 232.56 54.08 239.88 68.27 247.19 55.28 254.5 51.8 261.81 59.14 269.13 84.48 276.44 75.88 283.75 68.95 291.06 67.95 298.38 76.16 305.69 72.99" class="geometry color_Republican" stroke="#FF0000"/>
      </g>
    </g>
  </g>
</g>
  <g class="guide ylabels" font-size="4.76" font-family="'PT Sans Caption','Helvetica Neue','Helvetica',sans-serif" fill="#6C606B" id="img-95a2a9aa-22">
    <text x="24.82" y="120.95" text-anchor="end" dy="0.35em">0</text>
    <text x="24.82" y="94.7" text-anchor="end" dy="0.35em">25</text>
    <text x="24.82" y="68.44" text-anchor="end" dy="0.35em">50</text>
    <text x="24.82" y="42.19" text-anchor="end" dy="0.35em">75</text>
    <text x="24.82" y="15.94" text-anchor="end" dy="0.35em">100</text>
  </g>
  <g font-size="6.35" font-family="'PT Sans','Helvetica Neue','Helvetica',sans-serif" fill="#564A55" stroke="#000000" stroke-opacity="0.000" id="img-95a2a9aa-23">
    <text x="10.18" y="66.44" text-anchor="middle" dy="0.35em" transform="rotate(-90, 10.18, 68.44)">Popular Vote (%)</text>
  </g>
  <g font-size="6.35" font-family="'PT Sans','Helvetica Neue','Helvetica',sans-serif" fill="#564A55" stroke="#000000" stroke-opacity="0.000" id="img-95a2a9aa-24">
    <text x="170.41" y="11.94" text-anchor="middle">Nevada</text>
  </g>
</g>
<defs>
  <clipPath id="img-95a2a9aa-12">
  <path d="M25.82,13.94 L 315 13.94 315 122.95 25.82 122.95" />
</clipPath>
  <g id="img-95a2a9aa-20">
    <circle cx="0" cy="0" r="0.9"/>
  </g>
</defs>
</svg>
