<?xml version="1.0" encoding="UTF-8"?>
<svg xmlns="http://www.w3.org/2000/svg"
     xmlns:xlink="http://www.w3.org/1999/xlink"
     xmlns:gadfly="http://www.gadflyjl.org/ns"
     version="1.2"
     width="238.1mm" height="158.73mm" viewBox="0 0 238.1 158.73"
     stroke="none"
     fill="#000000"
     stroke-width="0.3"
     font-size="3.88"
>
<g stroke="#000000" stroke-opacity="0.000" fill="#222831" id="img-de62187a-1">
  <rect x="0" y="0" width="238.1" height="158.73"/>
</g>
<g class="plotroot xscalable yscalable" id="img-de62187a-2">
  <g class="guide colorkey" id="img-de62187a-3">
    <g class="color_Democratic" id="img-de62187a-4">
      <g fill="#A1A1A1" font-size="3.7" font-family="'PT Sans','Helvetica Neue','Helvetica',sans-serif" id="img-de62187a-5">
        <text x="51.52" y="148.78" dy="0.35em">Democratic</text>
      </g>
      <g fill="#0000FF" stroke="#000000" stroke-opacity="0.000" id="img-de62187a-6">
        <rect x="48.29" y="147.66" width="2.22" height="2.22"/>
      </g>
    </g>
    <g class="color_Republican" id="img-de62187a-7">
      <g fill="#A1A1A1" font-size="3.7" font-family="'PT Sans','Helvetica Neue','Helvetica',sans-serif" id="img-de62187a-8">
        <text x="29.6" y="148.78" dy="0.35em">Republican</text>
      </g>
      <g fill="#FF0000" stroke="#000000" stroke-opacity="0.000" id="img-de62187a-9">
        <rect x="26.38" y="147.66" width="2.22" height="2.22"/>
      </g>
    </g>
    <g fill="#A1A1A1" font-size="6.35" font-family="'PT Sans','Helvetica Neue','Helvetica',sans-serif" stroke="#000000" stroke-opacity="0.000" id="img-de62187a-10">
      <text x="26.38" y="145.28">Party</text>
    </g>
  </g>
  <g font-size="6.35" font-family="'PT Sans','Helvetica Neue','Helvetica',sans-serif" fill="#A1A1A1" stroke="#000000" stroke-opacity="0.000" id="img-de62187a-11">
    <text x="129.24" y="130.46" text-anchor="middle" dy="0.6em">Year</text>
  </g>
  <g class="guide xlabels" font-size="4.76" font-family="'PT Sans Caption','Helvetica Neue','Helvetica',sans-serif" fill="#A1A1A1" id="img-de62187a-12">
    <text x="27.38" y="115.17" text-anchor="end" dy="0.35em" transform="rotate(-90, 27.38, 115.17)">1860</text>
    <text x="37.83" y="115.17" text-anchor="end" dy="0.35em" transform="rotate(-90, 37.83, 115.17)">1868</text>
    <text x="48.27" y="115.17" text-anchor="end" dy="0.35em" transform="rotate(-90, 48.27, 115.17)">1876</text>
    <text x="58.72" y="115.17" text-anchor="end" dy="0.35em" transform="rotate(-90, 58.72, 115.17)">1884</text>
    <text x="69.17" y="115.17" text-anchor="end" dy="0.35em" transform="rotate(-90, 69.17, 115.17)">1892</text>
    <text x="79.61" y="115.17" text-anchor="end" dy="0.35em" transform="rotate(-90, 79.61, 115.17)">1900</text>
    <text x="90.06" y="115.17" text-anchor="end" dy="0.35em" transform="rotate(-90, 90.06, 115.17)">1908</text>
    <text x="100.51" y="115.17" text-anchor="end" dy="0.35em" transform="rotate(-90, 100.51, 115.17)">1916</text>
    <text x="110.96" y="115.17" text-anchor="end" dy="0.35em" transform="rotate(-90, 110.96, 115.17)">1924</text>
    <text x="121.4" y="115.17" text-anchor="end" dy="0.35em" transform="rotate(-90, 121.4, 115.17)">1932</text>
    <text x="131.85" y="115.17" text-anchor="end" dy="0.35em" transform="rotate(-90, 131.85, 115.17)">1940</text>
    <text x="142.3" y="115.17" text-anchor="end" dy="0.35em" transform="rotate(-90, 142.3, 115.17)">1948</text>
    <text x="152.74" y="115.17" text-anchor="end" dy="0.35em" transform="rotate(-90, 152.74, 115.17)">1956</text>
    <text x="163.19" y="115.17" text-anchor="end" dy="0.35em" transform="rotate(-90, 163.19, 115.17)">1964</text>
    <text x="173.64" y="115.17" text-anchor="end" dy="0.35em" transform="rotate(-90, 173.64, 115.17)">1972</text>
    <text x="184.08" y="115.17" text-anchor="end" dy="0.35em" transform="rotate(-90, 184.08, 115.17)">1980</text>
    <text x="194.53" y="115.17" text-anchor="end" dy="0.35em" transform="rotate(-90, 194.53, 115.17)">1988</text>
    <text x="204.98" y="115.17" text-anchor="end" dy="0.35em" transform="rotate(-90, 204.98, 115.17)">1996</text>
    <text x="215.42" y="115.17" text-anchor="end" dy="0.35em" transform="rotate(-90, 215.42, 115.17)">2004</text>
    <text x="225.87" y="115.17" text-anchor="end" dy="0.35em" transform="rotate(-90, 225.87, 115.17)">2012</text>
  </g>
<g clip-path="url(#img-de62187a-13)">
  <g id="img-de62187a-14">
    <g pointer-events="visible" opacity="1" fill="#222831" stroke="#000000" stroke-opacity="0.000" class="guide background" id="img-de62187a-15">
      <rect x="25.38" y="12.91" width="207.72" height="101.26"/>
    </g>
    <g class="guide ygridlines xfixed" stroke-dasharray="0.5,0.5" stroke-width="0.2" stroke="#575757" id="img-de62187a-16">
      <path fill="none" d="M25.38,112.17 L 233.1 112.17"/>
      <path fill="none" d="M25.38,87.86 L 233.1 87.86"/>
      <path fill="none" d="M25.38,63.54 L 233.1 63.54"/>
      <path fill="none" d="M25.38,39.22 L 233.1 39.22"/>
      <path fill="none" d="M25.38,14.91 L 233.1 14.91"/>
    </g>
    <g class="guide xgridlines yfixed" stroke-dasharray="0.5,0.5" stroke-width="0.2" stroke="#575757" id="img-de62187a-17">
      <path fill="none" d="M27.38,12.91 L 27.38 114.17"/>
      <path fill="none" d="M37.83,12.91 L 37.83 114.17"/>
      <path fill="none" d="M48.27,12.91 L 48.27 114.17"/>
      <path fill="none" d="M58.72,12.91 L 58.72 114.17"/>
      <path fill="none" d="M69.17,12.91 L 69.17 114.17"/>
      <path fill="none" d="M79.61,12.91 L 79.61 114.17"/>
      <path fill="none" d="M90.06,12.91 L 90.06 114.17"/>
      <path fill="none" d="M100.51,12.91 L 100.51 114.17"/>
      <path fill="none" d="M110.96,12.91 L 110.96 114.17"/>
      <path fill="none" d="M121.4,12.91 L 121.4 114.17"/>
      <path fill="none" d="M131.85,12.91 L 131.85 114.17"/>
      <path fill="none" d="M142.3,12.91 L 142.3 114.17"/>
      <path fill="none" d="M152.74,12.91 L 152.74 114.17"/>
      <path fill="none" d="M163.19,12.91 L 163.19 114.17"/>
      <path fill="none" d="M173.64,12.91 L 173.64 114.17"/>
      <path fill="none" d="M184.08,12.91 L 184.08 114.17"/>
      <path fill="none" d="M194.53,12.91 L 194.53 114.17"/>
      <path fill="none" d="M204.98,12.91 L 204.98 114.17"/>
      <path fill="none" d="M215.42,12.91 L 215.42 114.17"/>
      <path fill="none" d="M225.87,12.91 L 225.87 114.17"/>
    </g>
    <g class="plotpanel" id="img-de62187a-18">
      <g class="geometry" id="img-de62187a-19">
        <g stroke-width="0.3" id="img-de62187a-20">
          <use xlink:href="#img-de62187a-21" x="32.6" y="53.97" stroke="#B3867B" fill="#FF0000" class="color_Republican"/>
          <use xlink:href="#img-de62187a-21" x="37.83" y="58.29" stroke="#B3867B" fill="#FF0000" class="color_Republican"/>
          <use xlink:href="#img-de62187a-21" x="43.05" y="56.31" stroke="#B3867B" fill="#FF0000" class="color_Republican"/>
          <use xlink:href="#img-de62187a-21" x="48.27" y="60.89" stroke="#B3867B" fill="#FF0000" class="color_Republican"/>
          <use xlink:href="#img-de62187a-21" x="53.5" y="65.88" stroke="#B3867B" fill="#FF0000" class="color_Republican"/>
          <use xlink:href="#img-de62187a-21" x="58.72" y="57.5" stroke="#B3867B" fill="#FF0000" class="color_Republican"/>
          <use xlink:href="#img-de62187a-21" x="63.94" y="56.02" stroke="#B3867B" fill="#FF0000" class="color_Republican"/>
          <use xlink:href="#img-de62187a-21" x="69.17" y="87.04" stroke="#B3867B" fill="#FF0000" class="color_Republican"/>
          <use xlink:href="#img-de62187a-21" x="74.39" y="93.9" stroke="#B3867B" fill="#FF0000" class="color_Republican"/>
          <use xlink:href="#img-de62187a-21" x="79.61" y="75.45" stroke="#B3867B" fill="#FF0000" class="color_Republican"/>
          <use xlink:href="#img-de62187a-21" x="84.84" y="57.07" stroke="#B3867B" fill="#FF0000" class="color_Republican"/>
          <use xlink:href="#img-de62187a-21" x="90.06" y="69.44" stroke="#B3867B" fill="#FF0000" class="color_Republican"/>
          <use xlink:href="#img-de62187a-21" x="95.28" y="96.72" stroke="#B3867B" fill="#FF0000" class="color_Republican"/>
          <use xlink:href="#img-de62187a-21" x="100.51" y="76.77" stroke="#B3867B" fill="#FF0000" class="color_Republican"/>
          <use xlink:href="#img-de62187a-21" x="105.73" y="56.81" stroke="#B3867B" fill="#FF0000" class="color_Republican"/>
          <use xlink:href="#img-de62187a-21" x="110.96" y="71.55" stroke="#B3867B" fill="#FF0000" class="color_Republican"/>
          <use xlink:href="#img-de62187a-21" x="116.18" y="57.18" stroke="#B3867B" fill="#FF0000" class="color_Republican"/>
          <use xlink:href="#img-de62187a-21" x="121.4" y="82.42" stroke="#B3867B" fill="#FF0000" class="color_Republican"/>
          <use xlink:href="#img-de62187a-21" x="126.63" y="85.72" stroke="#B3867B" fill="#FF0000" class="color_Republican"/>
          <use xlink:href="#img-de62187a-21" x="131.85" y="73.34" stroke="#B3867B" fill="#FF0000" class="color_Republican"/>
          <use xlink:href="#img-de62187a-21" x="137.07" y="68.03" stroke="#B3867B" fill="#FF0000" class="color_Republican"/>
          <use xlink:href="#img-de62187a-21" x="142.3" y="66.2" stroke="#B3867B" fill="#FF0000" class="color_Republican"/>
          <use xlink:href="#img-de62187a-21" x="147.52" y="52.41" stroke="#B3867B" fill="#FF0000" class="color_Republican"/>
          <use xlink:href="#img-de62187a-21" x="152.74" y="55.79" stroke="#B3867B" fill="#FF0000" class="color_Republican"/>
          <use xlink:href="#img-de62187a-21" x="157.97" y="64.67" stroke="#B3867B" fill="#FF0000" class="color_Republican"/>
          <use xlink:href="#img-de62187a-21" x="163.19" y="71.89" stroke="#B3867B" fill="#FF0000" class="color_Republican"/>
          <use xlink:href="#img-de62187a-21" x="168.41" y="66.01" stroke="#B3867B" fill="#FF0000" class="color_Republican"/>
          <use xlink:href="#img-de62187a-21" x="173.64" y="50.23" stroke="#B3867B" fill="#FF0000" class="color_Republican"/>
          <use xlink:href="#img-de62187a-21" x="178.86" y="63.38" stroke="#B3867B" fill="#FF0000" class="color_Republican"/>
          <use xlink:href="#img-de62187a-21" x="184.08" y="51.35" stroke="#B3867B" fill="#FF0000" class="color_Republican"/>
          <use xlink:href="#img-de62187a-21" x="189.31" y="48.12" stroke="#B3867B" fill="#FF0000" class="color_Republican"/>
          <use xlink:href="#img-de62187a-21" x="194.53" y="54.93" stroke="#B3867B" fill="#FF0000" class="color_Republican"/>
          <use xlink:href="#img-de62187a-21" x="199.75" y="78.4" stroke="#B3867B" fill="#FF0000" class="color_Republican"/>
          <use xlink:href="#img-de62187a-21" x="204.98" y="70.43" stroke="#B3867B" fill="#FF0000" class="color_Republican"/>
          <use xlink:href="#img-de62187a-21" x="210.2" y="64" stroke="#B3867B" fill="#FF0000" class="color_Republican"/>
          <use xlink:href="#img-de62187a-21" x="215.42" y="63.08" stroke="#B3867B" fill="#FF0000" class="color_Republican"/>
          <use xlink:href="#img-de62187a-21" x="220.65" y="70.68" stroke="#B3867B" fill="#FF0000" class="color_Republican"/>
          <use xlink:href="#img-de62187a-21" x="225.87" y="67.75" stroke="#B3867B" fill="#FF0000" class="color_Republican"/>
          <use xlink:href="#img-de62187a-21" x="32.6" y="73.11" stroke="#988BAD" fill="#0000FF" class="color_Democratic"/>
          <use xlink:href="#img-de62187a-21" x="37.83" y="68.79" stroke="#988BAD" fill="#0000FF" class="color_Democratic"/>
          <use xlink:href="#img-de62187a-21" x="43.05" y="70.77" stroke="#988BAD" fill="#0000FF" class="color_Democratic"/>
          <use xlink:href="#img-de62187a-21" x="48.27" y="66.2" stroke="#988BAD" fill="#0000FF" class="color_Democratic"/>
          <use xlink:href="#img-de62187a-21" x="53.5" y="61.2" stroke="#988BAD" fill="#0000FF" class="color_Democratic"/>
          <use xlink:href="#img-de62187a-21" x="58.72" y="69.78" stroke="#988BAD" fill="#0000FF" class="color_Democratic"/>
          <use xlink:href="#img-de62187a-21" x="63.94" y="71.38" stroke="#988BAD" fill="#0000FF" class="color_Democratic"/>
          <use xlink:href="#img-de62187a-21" x="69.17" y="105.79" stroke="#988BAD" fill="#0000FF" class="color_Democratic"/>
          <use xlink:href="#img-de62187a-21" x="74.39" y="33.18" stroke="#988BAD" fill="#0000FF" class="color_Democratic"/>
          <use xlink:href="#img-de62187a-21" x="79.61" y="51.63" stroke="#988BAD" fill="#0000FF" class="color_Democratic"/>
          <use xlink:href="#img-de62187a-21" x="84.84" y="80.2" stroke="#988BAD" fill="#0000FF" class="color_Democratic"/>
          <use xlink:href="#img-de62187a-21" x="90.06" y="67.71" stroke="#988BAD" fill="#0000FF" class="color_Democratic"/>
          <use xlink:href="#img-de62187a-21" x="95.28" y="73.56" stroke="#988BAD" fill="#0000FF" class="color_Democratic"/>
          <use xlink:href="#img-de62187a-21" x="100.51" y="60.28" stroke="#988BAD" fill="#0000FF" class="color_Democratic"/>
          <use xlink:href="#img-de62187a-21" x="105.73" y="76.94" stroke="#988BAD" fill="#0000FF" class="color_Democratic"/>
          <use xlink:href="#img-de62187a-21" x="110.96" y="90.82" stroke="#988BAD" fill="#0000FF" class="color_Democratic"/>
          <use xlink:href="#img-de62187a-21" x="116.18" y="69.9" stroke="#988BAD" fill="#0000FF" class="color_Democratic"/>
          <use xlink:href="#img-de62187a-21" x="121.4" y="44.66" stroke="#988BAD" fill="#0000FF" class="color_Democratic"/>
          <use xlink:href="#img-de62187a-21" x="126.63" y="41.36" stroke="#988BAD" fill="#0000FF" class="color_Democratic"/>
          <use xlink:href="#img-de62187a-21" x="131.85" y="53.74" stroke="#988BAD" fill="#0000FF" class="color_Democratic"/>
          <use xlink:href="#img-de62187a-21" x="137.07" y="59.05" stroke="#988BAD" fill="#0000FF" class="color_Democratic"/>
          <use xlink:href="#img-de62187a-21" x="142.3" y="63.18" stroke="#988BAD" fill="#0000FF" class="color_Democratic"/>
          <use xlink:href="#img-de62187a-21" x="147.52" y="74.67" stroke="#988BAD" fill="#0000FF" class="color_Democratic"/>
          <use xlink:href="#img-de62187a-21" x="152.74" y="71.29" stroke="#988BAD" fill="#0000FF" class="color_Democratic"/>
          <use xlink:href="#img-de62187a-21" x="157.97" y="62.41" stroke="#988BAD" fill="#0000FF" class="color_Democratic"/>
          <use xlink:href="#img-de62187a-21" x="163.19" y="55.19" stroke="#988BAD" fill="#0000FF" class="color_Democratic"/>
          <use xlink:href="#img-de62187a-21" x="168.41" y="73.95" stroke="#988BAD" fill="#0000FF" class="color_Democratic"/>
          <use xlink:href="#img-de62187a-21" x="173.64" y="76.85" stroke="#988BAD" fill="#0000FF" class="color_Democratic"/>
          <use xlink:href="#img-de62187a-21" x="178.86" y="67.62" stroke="#988BAD" fill="#0000FF" class="color_Democratic"/>
          <use xlink:href="#img-de62187a-21" x="184.08" y="86.01" stroke="#988BAD" fill="#0000FF" class="color_Democratic"/>
          <use xlink:href="#img-de62187a-21" x="189.31" y="81.07" stroke="#988BAD" fill="#0000FF" class="color_Democratic"/>
          <use xlink:href="#img-de62187a-21" x="194.53" y="75.29" stroke="#988BAD" fill="#0000FF" class="color_Democratic"/>
          <use xlink:href="#img-de62187a-21" x="199.75" y="75.84" stroke="#988BAD" fill="#0000FF" class="color_Democratic"/>
          <use xlink:href="#img-de62187a-21" x="204.98" y="69.44" stroke="#988BAD" fill="#0000FF" class="color_Democratic"/>
          <use xlink:href="#img-de62187a-21" x="210.2" y="67.45" stroke="#988BAD" fill="#0000FF" class="color_Democratic"/>
          <use xlink:href="#img-de62187a-21" x="215.42" y="65.6" stroke="#988BAD" fill="#0000FF" class="color_Democratic"/>
          <use xlink:href="#img-de62187a-21" x="220.65" y="58.53" stroke="#988BAD" fill="#0000FF" class="color_Democratic"/>
          <use xlink:href="#img-de62187a-21" x="225.87" y="61.25" stroke="#988BAD" fill="#0000FF" class="color_Democratic"/>
        </g>
      </g>
      <g stroke-width="0.3" fill="#000000" fill-opacity="0.000" stroke-dasharray="none" id="img-de62187a-22">
        <path fill="none" d="M32.6,73.11 L 37.83 68.79 43.05 70.77 48.27 66.2 53.5 61.2 58.72 69.78 63.94 71.38 69.17 105.79 74.39 33.18 79.61 51.63 84.84 80.2 90.06 67.71 95.28 73.56 100.51 60.28 105.73 76.94 110.96 90.82 116.18 69.9 121.4 44.66 126.63 41.36 131.85 53.74 137.07 59.05 142.3 63.18 147.52 74.67 152.74 71.29 157.97 62.41 163.19 55.19 168.41 73.95 173.64 76.85 178.86 67.62 184.08 86.01 189.31 81.07 194.53 75.29 199.75 75.84 204.98 69.44 210.2 67.45 215.42 65.6 220.65 58.53 225.87 61.25" stroke="#0000FF" class="geometry color_Democratic"/>
        <path fill="none" d="M32.6,53.97 L 37.83 58.29 43.05 56.31 48.27 60.89 53.5 65.88 58.72 57.5 63.94 56.02 69.17 87.04 74.39 93.9 79.61 75.45 84.84 57.07 90.06 69.44 95.28 96.72 100.51 76.77 105.73 56.81 110.96 71.55 116.18 57.18 121.4 82.42 126.63 85.72 131.85 73.34 137.07 68.03 142.3 66.2 147.52 52.41 152.74 55.79 157.97 64.67 163.19 71.89 168.41 66.01 173.64 50.23 178.86 63.38 184.08 51.35 189.31 48.12 194.53 54.93 199.75 78.4 204.98 70.43 210.2 64 215.42 63.08 220.65 70.68 225.87 67.75" stroke="#FF0000" class="geometry color_Republican"/>
      </g>
    </g>
  </g>
</g>
  <g class="guide ylabels" font-size="4.76" font-family="'PT Sans Caption','Helvetica Neue','Helvetica',sans-serif" fill="#A1A1A1" id="img-de62187a-23">
    <text x="24.38" y="112.17" text-anchor="end" dy="0.35em">0</text>
    <text x="24.38" y="87.86" text-anchor="end" dy="0.35em">25</text>
    <text x="24.38" y="63.54" text-anchor="end" dy="0.35em">50</text>
    <text x="24.38" y="39.22" text-anchor="end" dy="0.35em">75</text>
    <text x="24.38" y="14.91" text-anchor="end" dy="0.35em">100</text>
  </g>
  <g font-size="6.35" font-family="'PT Sans','Helvetica Neue','Helvetica',sans-serif" fill="#A1A1A1" stroke="#000000" stroke-opacity="0.000" id="img-de62187a-24">
    <text x="9.95" y="61.54" text-anchor="middle" dy="0.35em" transform="rotate(-90, 9.95, 63.54)">Popular Vote (%)</text>
  </g>
  <g font-size="6.35" font-family="'PT Sans','Helvetica Neue','Helvetica',sans-serif" fill="#A1A1A1" stroke="#000000" stroke-opacity="0.000" id="img-de62187a-25">
    <text x="129.24" y="5" text-anchor="middle" dy="0.6em">Nevada</text>
  </g>
</g>
<defs>
  <clipPath id="img-de62187a-13">
  <path d="M25.38,12.91 L 233.1 12.91 233.1 114.17 25.38 114.17" />
</clipPath>
  <g id="img-de62187a-21">
    <circle cx="0" cy="0" r="0.9"/>
  </g>
</defs>
</svg>
