<svg xmlns="http://www.w3.org/2000/svg" xmlns:xlink="http://www.w3.org/1999/xlink" version="1.2" width="238.1mm" height="599.924" viewBox="0 0 238.1 158.73" stroke-width=".3" font-size="3.88"><path d="M0 0h238.1v158.73H0z" stroke="#000" stroke-opacity="0" fill="#222831"/><g class="plotroot xscalable yscalable"><g class="guide colorkey"><g class="color_Democratic"><text x="51.52" y="148.78" dy=".35em" fill="#A1A1A1" font-size="3.7" font-family="'PT Sans','Helvetica Neue','Helvetica',sans-serif">Democratic</text><path d="M48.29 147.66h2.22v2.22h-2.22z" fill="#00F" stroke="#000" stroke-opacity="0"/></g><g class="color_Republican"><text x="29.6" y="148.78" dy=".35em" fill="#A1A1A1" font-size="3.7" font-family="'PT Sans','Helvetica Neue','Helvetica',sans-serif">Republican</text><path d="M26.38 147.66h2.22v2.22h-2.22z" fill="#F00" stroke="#000" stroke-opacity="0"/></g><text x="26.38" y="145.28" fill="#A1A1A1" font-size="6.35" font-family="'PT Sans','Helvetica Neue','Helvetica',sans-serif" stroke="#000" stroke-opacity="0">Party</text></g><text x="129.24" y="130.46" text-anchor="middle" dy=".6em" font-size="6.35" font-family="'PT Sans','Helvetica Neue','Helvetica',sans-serif" fill="#A1A1A1" stroke="#000" stroke-opacity="0">Year</text><g class="guide xlabels" font-size="4.76" font-family="'PT Sans Caption','Helvetica Neue','Helvetica',sans-serif" fill="#A1A1A1" text-anchor="middle"><text x="27.38" y="121.95" dy=".6em">1824</text><text x="40.11" y="121.95" dy=".6em">1836</text><text x="52.84" y="121.95" dy=".6em">1848</text><text x="65.58" y="121.95" dy=".6em">1860</text><text x="78.31" y="121.95" dy=".6em">1872</text><text x="91.04" y="121.95" dy=".6em">1884</text><text x="103.77" y="121.95" dy=".6em">1896</text><text x="116.51" y="121.95" dy=".6em">1908</text><text x="129.24" y="121.95" dy=".6em">1920</text><text x="141.97" y="121.95" dy=".6em">1932</text><text x="154.7" y="121.95" dy=".6em">1944</text><text x="167.43" y="121.95" dy=".6em">1956</text><text x="180.17" y="121.95" dy=".6em">1968</text><text x="192.9" y="121.95" dy=".6em">1980</text><text x="205.63" y="121.95" dy=".6em">1992</text><text x="218.36" y="121.95" dy=".6em">2004</text><text x="231.1" y="121.95" dy=".6em">2016</text></g><g clip-path="url(#a)"><path d="M25.38 12.91H233.1v108.04H25.38z" pointer-events="visible" fill="#222831" stroke="#000" stroke-opacity="0" class="guide background"/><g class="guide ygridlines xfixed" stroke-dasharray="0.5,0.5" stroke-width=".2" stroke="#575757" fill="none"><path d="M25.38 118.95H233.1M25.38 92.94H233.1M25.38 66.93H233.1M25.38 40.92H233.1M25.38 14.91H233.1"/></g><g class="guide xgridlines yfixed" stroke-dasharray="0.5,0.5" stroke-width=".2" stroke="#575757" fill="none"><path d="M27.38 12.91v108.04M40.11 12.91v108.04M52.84 12.91v108.04M65.58 12.91v108.04M78.31 12.91v108.04M91.04 12.91v108.04M103.77 12.91v108.04M116.51 12.91v108.04M129.24 12.91v108.04M141.97 12.91v108.04M154.7 12.91v108.04M167.43 12.91v108.04M180.17 12.91v108.04M192.9 12.91v108.04M205.63 12.91v108.04M218.36 12.91v108.04M231.1 12.91v108.04"/></g><g class="plotpanel"><g class="geometry"><use xlink:href="#b" x="65.58" y="59.76" stroke="#B3867B" fill="#F00" class="color_Republican"/><use xlink:href="#b" x="69.82" y="64.27" stroke="#B3867B" fill="#F00" class="color_Republican"/><use xlink:href="#b" x="74.06" y="61.5" stroke="#B3867B" fill="#F00" class="color_Republican"/><use xlink:href="#b" x="78.31" y="62.83" stroke="#B3867B" fill="#F00" class="color_Republican"/><use xlink:href="#b" x="82.55" y="65.02" stroke="#B3867B" fill="#F00" class="color_Republican"/><use xlink:href="#b" x="86.8" y="64.91" stroke="#B3867B" fill="#F00" class="color_Republican"/><use xlink:href="#b" x="91.04" y="65.75" stroke="#B3867B" fill="#F00" class="color_Republican"/><use xlink:href="#b" x="95.28" y="66.58" stroke="#B3867B" fill="#F00" class="color_Republican"/><use xlink:href="#b" x="99.53" y="65.77" stroke="#B3867B" fill="#F00" class="color_Republican"/><use xlink:href="#b" x="103.77" y="47.52" stroke="#B3867B" fill="#F00" class="color_Republican"/><use xlink:href="#b" x="108.02" y="57.22" stroke="#B3867B" fill="#F00" class="color_Republican"/><use xlink:href="#b" x="112.26" y="56.45" stroke="#B3867B" fill="#F00" class="color_Republican"/><use xlink:href="#b" x="116.51" y="57.24" stroke="#B3867B" fill="#F00" class="color_Republican"/><use xlink:href="#b" x="120.75" y="80.01" stroke="#B3867B" fill="#F00" class="color_Republican"/><use xlink:href="#b" x="124.99" y="67.91" stroke="#B3867B" fill="#F00" class="color_Republican"/><use xlink:href="#b" x="129.24" y="56.7" stroke="#B3867B" fill="#F00" class="color_Republican"/><use xlink:href="#b" x="133.48" y="56.71" stroke="#B3867B" fill="#F00" class="color_Republican"/><use xlink:href="#b" x="137.73" y="57.93" stroke="#B3867B" fill="#F00" class="color_Republican"/><use xlink:href="#b" x="141.97" y="66.49" stroke="#B3867B" fill="#F00" class="color_Republican"/><use xlink:href="#b" x="146.21" y="69.04" stroke="#B3867B" fill="#F00" class="color_Republican"/><use xlink:href="#b" x="150.46" y="70.28" stroke="#B3867B" fill="#F00" class="color_Republican"/><use xlink:href="#b" x="154.7" y="69.15" stroke="#B3867B" fill="#F00" class="color_Republican"/><use xlink:href="#b" x="158.95" y="64.42" stroke="#B3867B" fill="#F00" class="color_Republican"/><use xlink:href="#b" x="163.19" y="55.57" stroke="#B3867B" fill="#F00" class="color_Republican"/><use xlink:href="#b" x="167.43" y="50.17" stroke="#B3867B" fill="#F00" class="color_Republican"/><use xlink:href="#b" x="171.68" y="63.38" stroke="#B3867B" fill="#F00" class="color_Republican"/><use xlink:href="#b" x="175.92" y="81.38" stroke="#B3867B" fill="#F00" class="color_Republican"/><use xlink:href="#b" x="180.17" y="64.74" stroke="#B3867B" fill="#F00" class="color_Republican"/><use xlink:href="#b" x="184.41" y="52.39" stroke="#B3867B" fill="#F00" class="color_Republican"/><use xlink:href="#b" x="188.65" y="61.99" stroke="#B3867B" fill="#F00" class="color_Republican"/><use xlink:href="#b" x="192.9" y="58.88" stroke="#B3867B" fill="#F00" class="color_Republican"/><use xlink:href="#b" x="197.14" y="47.52" stroke="#B3867B" fill="#F00" class="color_Republican"/><use xlink:href="#b" x="201.39" y="53.94" stroke="#B3867B" fill="#F00" class="color_Republican"/><use xlink:href="#b" x="205.63" y="79.79" stroke="#B3867B" fill="#F00" class="color_Republican"/><use xlink:href="#b" x="209.87" y="77.99" stroke="#B3867B" fill="#F00" class="color_Republican"/><use xlink:href="#b" x="214.12" y="68.94" stroke="#B3867B" fill="#F00" class="color_Republican"/><use xlink:href="#b" x="218.36" y="68.1" stroke="#B3867B" fill="#F00" class="color_Republican"/><use xlink:href="#b" x="222.61" y="72.63" stroke="#B3867B" fill="#F00" class="color_Republican"/><use xlink:href="#b" x="226.85" y="70.67" stroke="#B3867B" fill="#F00" class="color_Republican"/><use xlink:href="#b" x="31.62" y="71.2" stroke="#988BAD" fill="#00F" class="color_Democratic"/><use xlink:href="#b" x="35.87" y="59.9" stroke="#988BAD" fill="#00F" class="color_Democratic"/><use xlink:href="#b" x="40.11" y="40.91" stroke="#988BAD" fill="#00F" class="color_Democratic"/><use xlink:href="#b" x="44.36" y="62.08" stroke="#988BAD" fill="#00F" class="color_Democratic"/><use xlink:href="#b" x="48.6" y="61.5" stroke="#988BAD" fill="#00F" class="color_Democratic"/><use xlink:href="#b" x="52.84" y="61.3" stroke="#988BAD" fill="#00F" class="color_Democratic"/><use xlink:href="#b" x="57.09" y="60.27" stroke="#988BAD" fill="#00F" class="color_Democratic"/><use xlink:href="#b" x="61.33" y="71.4" stroke="#988BAD" fill="#00F" class="color_Democratic"/><use xlink:href="#b" x="65.58" y="78.11" stroke="#988BAD" fill="#00F" class="color_Democratic"/><use xlink:href="#b" x="69.82" y="69.59" stroke="#988BAD" fill="#00F" class="color_Democratic"/><use xlink:href="#b" x="74.06" y="72.38" stroke="#988BAD" fill="#00F" class="color_Democratic"/><use xlink:href="#b" x="78.31" y="71.5" stroke="#988BAD" fill="#00F" class="color_Democratic"/><use xlink:href="#b" x="82.55" y="68.96" stroke="#988BAD" fill="#00F" class="color_Democratic"/><use xlink:href="#b" x="86.8" y="69.8" stroke="#988BAD" fill="#00F" class="color_Democratic"/><use xlink:href="#b" x="91.04" y="70.74" stroke="#988BAD" fill="#00F" class="color_Democratic"/><use xlink:href="#b" x="95.28" y="69.18" stroke="#988BAD" fill="#00F" class="color_Democratic"/><use xlink:href="#b" x="99.53" y="69.94" stroke="#988BAD" fill="#00F" class="color_Democratic"/><use xlink:href="#b" x="103.77" y="92.03" stroke="#988BAD" fill="#00F" class="color_Democratic"/><use xlink:href="#b" x="108.02" y="78.98" stroke="#988BAD" fill="#00F" class="color_Democratic"/><use xlink:href="#b" x="112.26" y="79.63" stroke="#988BAD" fill="#00F" class="color_Democratic"/><use xlink:href="#b" x="116.51" y="79.87" stroke="#988BAD" fill="#00F" class="color_Democratic"/><use xlink:href="#b" x="120.75" y="77.88" stroke="#988BAD" fill="#00F" class="color_Democratic"/><use xlink:href="#b" x="124.99" y="67.85" stroke="#988BAD" fill="#00F" class="color_Democratic"/><use xlink:href="#b" x="129.24" y="77.97" stroke="#988BAD" fill="#00F" class="color_Democratic"/><use xlink:href="#b" x="133.48" y="82.83" stroke="#988BAD" fill="#00F" class="color_Democratic"/><use xlink:href="#b" x="137.73" y="76.27" stroke="#988BAD" fill="#00F" class="color_Democratic"/><use xlink:href="#b" x="141.97" y="67.98" stroke="#988BAD" fill="#00F" class="color_Democratic"/><use xlink:href="#b" x="146.21" y="67.22" stroke="#988BAD" fill="#00F" class="color_Democratic"/><use xlink:href="#b" x="150.46" y="63.58" stroke="#988BAD" fill="#00F" class="color_Democratic"/><use xlink:href="#b" x="154.7" y="64.73" stroke="#988BAD" fill="#00F" class="color_Democratic"/><use xlink:href="#b" x="158.95" y="70.4" stroke="#988BAD" fill="#00F" class="color_Democratic"/><use xlink:href="#b" x="163.19" y="78.3" stroke="#988BAD" fill="#00F" class="color_Democratic"/><use xlink:href="#b" x="167.43" y="83.74" stroke="#988BAD" fill="#00F" class="color_Democratic"/><use xlink:href="#b" x="171.68" y="70.49" stroke="#988BAD" fill="#00F" class="color_Democratic"/><use xlink:href="#b" x="175.92" y="52.48" stroke="#988BAD" fill="#00F" class="color_Democratic"/><use xlink:href="#b" x="180.17" y="73.25" stroke="#988BAD" fill="#00F" class="color_Democratic"/><use xlink:href="#b" x="184.41" y="82.69" stroke="#988BAD" fill="#00F" class="color_Democratic"/><use xlink:href="#b" x="188.65" y="73.72" stroke="#988BAD" fill="#00F" class="color_Democratic"/><use xlink:href="#b" x="192.9" y="89.46" stroke="#988BAD" fill="#00F" class="color_Democratic"/><use xlink:href="#b" x="197.14" y="86.75" stroke="#988BAD" fill="#00F" class="color_Democratic"/><use xlink:href="#b" x="201.39" y="81.15" stroke="#988BAD" fill="#00F" class="color_Democratic"/><use xlink:href="#b" x="205.63" y="78.52" stroke="#988BAD" fill="#00F" class="color_Democratic"/><use xlink:href="#b" x="209.87" y="67.63" stroke="#988BAD" fill="#00F" class="color_Democratic"/><use xlink:href="#b" x="214.12" y="70.26" stroke="#988BAD" fill="#00F" class="color_Democratic"/><use xlink:href="#b" x="218.36" y="66.68" stroke="#988BAD" fill="#00F" class="color_Democratic"/><use xlink:href="#b" x="222.61" y="62.64" stroke="#988BAD" fill="#00F" class="color_Democratic"/><use xlink:href="#b" x="226.85" y="64.87" stroke="#988BAD" fill="#00F" class="color_Democratic"/></g><g fill-opacity="0"><path fill="none" d="M31.62 71.2l4.25-11.3 4.24-18.99 4.25 21.17 4.24-.58 4.24-.2 4.25-1.03 4.24 11.13 4.25 6.71 4.24-8.52 4.24 2.79 4.25-.88 4.24-2.54 4.25.84 4.24.94 4.24-1.56 4.25.76 4.24 22.09 4.25-13.05 4.24.65 4.25.24 4.24-1.99 4.24-10.03 4.25 10.12 4.24 4.86 4.25-6.56 4.24-8.29 4.24-.76 4.25-3.64 4.24 1.15 4.25 5.67 4.24 7.9 4.24 5.44 4.25-13.25 4.24-18.01 4.25 20.77 4.24 9.44 4.24-8.97 4.25 15.74 4.24-2.71 4.25-5.6 4.24-2.63 4.24-10.89 4.25 2.63 4.24-3.58 4.25-4.04 4.24 2.23" stroke="#00F" class="geometry color_Democratic"/><path fill="none" d="M65.58 59.76l4.24 4.51 4.24-2.77 4.25 1.33 4.24 2.19 4.25-.11 4.24.84 4.24.83 4.25-.81 4.24-18.25 4.25 9.7 4.24-.77 4.25.79 4.24 22.77 4.24-12.1 4.25-11.21 4.24.01 4.25 1.22 4.24 8.56 4.24 2.55 4.25 1.24 4.24-1.13 4.25-4.73 4.24-8.85 4.24-5.4 4.25 13.21 4.24 18 4.25-16.64 4.24-12.35 4.24 9.6 4.25-3.11 4.24-11.36 4.25 6.42 4.24 25.85 4.24-1.8 4.25-9.05 4.24-.84 4.25 4.53 4.24-1.96" stroke="#F00" class="geometry color_Republican"/></g></g></g><g class="guide ylabels" font-size="4.76" font-family="'PT Sans Caption','Helvetica Neue','Helvetica',sans-serif" fill="#A1A1A1" text-anchor="end"><text x="24.38" y="118.95" dy=".35em">0</text><text x="24.38" y="92.94" dy=".35em">25</text><text x="24.38" y="66.93" dy=".35em">50</text><text x="24.38" y="40.92" dy=".35em">75</text><text x="24.38" y="14.91" dy=".35em">100</text></g><text x="9.95" y="64.93" text-anchor="middle" dy=".35em" transform="rotate(-90 9.95 66.93)" font-size="6.35" font-family="'PT Sans','Helvetica Neue','Helvetica',sans-serif" fill="#A1A1A1" stroke="#000" stroke-opacity="0">Popular Vote (%)</text><text x="129.24" y="5" text-anchor="middle" dy=".6em" font-size="6.35" font-family="'PT Sans','Helvetica Neue','Helvetica',sans-serif" fill="#A1A1A1" stroke="#000" stroke-opacity="0">New Hampshire</text></g><defs><clipPath id="a"><path d="M25.38 12.91H233.1v108.04H25.38"/></clipPath><circle r=".9" id="b"/></defs></svg>