<svg xmlns="http://www.w3.org/2000/svg" xmlns:xlink="http://www.w3.org/1999/xlink" version="1.2" width="238.1mm" height="599.924" viewBox="0 0 238.1 158.73" stroke-width=".3" font-size="3.88"><path d="M0 0h238.1v158.73H0z" stroke="#000" stroke-opacity="0" fill="#222831"/><g class="plotroot xscalable yscalable"><g class="guide colorkey"><g class="color_Democratic"><text x="51.52" y="148.78" dy=".35em" fill="#A1A1A1" font-size="3.7" font-family="'PT Sans','Helvetica Neue','Helvetica',sans-serif">Democratic</text><path d="M48.29 147.66h2.22v2.22h-2.22z" fill="#00F" stroke="#000" stroke-opacity="0"/></g><g class="color_Republican"><text x="29.6" y="148.78" dy=".35em" fill="#A1A1A1" font-size="3.7" font-family="'PT Sans','Helvetica Neue','Helvetica',sans-serif">Republican</text><path d="M26.38 147.66h2.22v2.22h-2.22z" fill="#F00" stroke="#000" stroke-opacity="0"/></g><text x="26.38" y="145.28" fill="#A1A1A1" font-size="6.35" font-family="'PT Sans','Helvetica Neue','Helvetica',sans-serif" stroke="#000" stroke-opacity="0">Party</text></g><text x="129.24" y="130.46" text-anchor="middle" dy=".6em" font-size="6.35" font-family="'PT Sans','Helvetica Neue','Helvetica',sans-serif" fill="#A1A1A1" stroke="#000" stroke-opacity="0">Year</text><g class="guide xlabels" font-size="4.76" font-family="'PT Sans Caption','Helvetica Neue','Helvetica',sans-serif" fill="#A1A1A1" text-anchor="middle"><text x="27.38" y="121.95" dy=".6em">1824</text><text x="40.11" y="121.95" dy=".6em">1836</text><text x="52.84" y="121.95" dy=".6em">1848</text><text x="65.58" y="121.95" dy=".6em">1860</text><text x="78.31" y="121.95" dy=".6em">1872</text><text x="91.04" y="121.95" dy=".6em">1884</text><text x="103.77" y="121.95" dy=".6em">1896</text><text x="116.51" y="121.95" dy=".6em">1908</text><text x="129.24" y="121.95" dy=".6em">1920</text><text x="141.97" y="121.95" dy=".6em">1932</text><text x="154.7" y="121.95" dy=".6em">1944</text><text x="167.43" y="121.95" dy=".6em">1956</text><text x="180.17" y="121.95" dy=".6em">1968</text><text x="192.9" y="121.95" dy=".6em">1980</text><text x="205.63" y="121.95" dy=".6em">1992</text><text x="218.36" y="121.95" dy=".6em">2004</text><text x="231.1" y="121.95" dy=".6em">2016</text></g><g clip-path="url(#a)"><path d="M25.38 12.91H233.1v108.04H25.38z" pointer-events="visible" fill="#222831" stroke="#000" stroke-opacity="0" class="guide background"/><g class="guide ygridlines xfixed" stroke-dasharray="0.5,0.5" stroke-width=".2" stroke="#575757" fill="none"><path d="M25.38 118.95H233.1M25.38 92.94H233.1M25.38 66.93H233.1M25.38 40.92H233.1M25.38 14.91H233.1"/></g><g class="guide xgridlines yfixed" stroke-dasharray="0.5,0.5" stroke-width=".2" stroke="#575757" fill="none"><path d="M27.38 12.91v108.04M40.11 12.91v108.04M52.84 12.91v108.04M65.58 12.91v108.04M78.31 12.91v108.04M91.04 12.91v108.04M103.77 12.91v108.04M116.51 12.91v108.04M129.24 12.91v108.04M141.97 12.91v108.04M154.7 12.91v108.04M167.43 12.91v108.04M180.17 12.91v108.04M192.9 12.91v108.04M205.63 12.91v108.04M218.36 12.91v108.04M231.1 12.91v108.04"/></g><g class="plotpanel"><g class="geometry"><use xlink:href="#b" x="65.58" y="118.95" stroke="#B3867B" fill="#F00" class="color_Republican"/><use xlink:href="#b" x="74.06" y="63.38" stroke="#B3867B" fill="#F00" class="color_Republican"/><use xlink:href="#b" x="78.31" y="59.25" stroke="#B3867B" fill="#F00" class="color_Republican"/><use xlink:href="#b" x="82.55" y="70.7" stroke="#B3867B" fill="#F00" class="color_Republican"/><use xlink:href="#b" x="86.8" y="69.03" stroke="#B3867B" fill="#F00" class="color_Republican"/><use xlink:href="#b" x="91.04" y="70.48" stroke="#B3867B" fill="#F00" class="color_Republican"/><use xlink:href="#b" x="95.28" y="69.85" stroke="#B3867B" fill="#F00" class="color_Republican"/><use xlink:href="#b" x="99.53" y="81.7" stroke="#B3867B" fill="#F00" class="color_Republican"/><use xlink:href="#b" x="103.77" y="70.24" stroke="#B3867B" fill="#F00" class="color_Republican"/><use xlink:href="#b" x="108.02" y="71.65" stroke="#B3867B" fill="#F00" class="color_Republican"/><use xlink:href="#b" x="112.26" y="77.68" stroke="#B3867B" fill="#F00" class="color_Republican"/><use xlink:href="#b" x="116.51" y="71.62" stroke="#B3867B" fill="#F00" class="color_Republican"/><use xlink:href="#b" x="120.75" y="106.52" stroke="#B3867B" fill="#F00" class="color_Republican"/><use xlink:href="#b" x="124.99" y="75.56" stroke="#B3867B" fill="#F00" class="color_Republican"/><use xlink:href="#b" x="129.24" y="73.99" stroke="#B3867B" fill="#F00" class="color_Republican"/><use xlink:href="#b" x="133.48" y="77.62" stroke="#B3867B" fill="#F00" class="color_Republican"/><use xlink:href="#b" x="137.73" y="61.8" stroke="#B3867B" fill="#F00" class="color_Republican"/><use xlink:href="#b" x="141.97" y="88.49" stroke="#B3867B" fill="#F00" class="color_Republican"/><use xlink:href="#b" x="146.21" y="91.28" stroke="#B3867B" fill="#F00" class="color_Republican"/><use xlink:href="#b" x="150.46" y="91.93" stroke="#B3867B" fill="#F00" class="color_Republican"/><use xlink:href="#b" x="154.7" y="84.32" stroke="#B3867B" fill="#F00" class="color_Republican"/><use xlink:href="#b" x="158.95" y="84.95" stroke="#B3867B" fill="#F00" class="color_Republican"/><use xlink:href="#b" x="163.19" y="71" stroke="#B3867B" fill="#F00" class="color_Republican"/><use xlink:href="#b" x="167.43" y="67.62" stroke="#B3867B" fill="#F00" class="color_Republican"/><use xlink:href="#b" x="171.68" y="69.13" stroke="#B3867B" fill="#F00" class="color_Republican"/><use xlink:href="#b" x="175.92" y="73.33" stroke="#B3867B" fill="#F00" class="color_Republican"/><use xlink:href="#b" x="180.17" y="77.85" stroke="#B3867B" fill="#F00" class="color_Republican"/><use xlink:href="#b" x="184.41" y="46.68" stroke="#B3867B" fill="#F00" class="color_Republican"/><use xlink:href="#b" x="188.65" y="72.95" stroke="#B3867B" fill="#F00" class="color_Republican"/><use xlink:href="#b" x="192.9" y="67.65" stroke="#B3867B" fill="#F00" class="color_Republican"/><use xlink:href="#b" x="197.14" y="54.55" stroke="#B3867B" fill="#F00" class="color_Republican"/><use xlink:href="#b" x="201.39" y="58.64" stroke="#B3867B" fill="#F00" class="color_Republican"/><use xlink:href="#b" x="205.63" y="73.75" stroke="#B3867B" fill="#F00" class="color_Republican"/><use xlink:href="#b" x="209.87" y="68.25" stroke="#B3867B" fill="#F00" class="color_Republican"/><use xlink:href="#b" x="214.12" y="60.66" stroke="#B3867B" fill="#F00" class="color_Republican"/><use xlink:href="#b" x="218.36" y="60.67" stroke="#B3867B" fill="#F00" class="color_Republican"/><use xlink:href="#b" x="222.61" y="67.58" stroke="#B3867B" fill="#F00" class="color_Republican"/><use xlink:href="#b" x="226.85" y="66.52" stroke="#B3867B" fill="#F00" class="color_Republican"/><use xlink:href="#b" x="31.62" y="42.92" stroke="#988BAD" fill="#00F" class="color_Democratic"/><use xlink:href="#b" x="35.87" y="30.75" stroke="#988BAD" fill="#00F" class="color_Democratic"/><use xlink:href="#b" x="40.11" y="63.71" stroke="#988BAD" fill="#00F" class="color_Democratic"/><use xlink:href="#b" x="44.36" y="74.92" stroke="#988BAD" fill="#00F" class="color_Democratic"/><use xlink:href="#b" x="48.6" y="69.42" stroke="#988BAD" fill="#00F" class="color_Democratic"/><use xlink:href="#b" x="52.84" y="72.34" stroke="#988BAD" fill="#00F" class="color_Democratic"/><use xlink:href="#b" x="57.09" y="66.48" stroke="#988BAD" fill="#00F" class="color_Democratic"/><use xlink:href="#b" x="61.33" y="59.88" stroke="#988BAD" fill="#00F" class="color_Democratic"/><use xlink:href="#b" x="65.58" y="116.01" stroke="#988BAD" fill="#00F" class="color_Democratic"/><use xlink:href="#b" x="74.06" y="70.48" stroke="#988BAD" fill="#00F" class="color_Democratic"/><use xlink:href="#b" x="78.31" y="74.78" stroke="#988BAD" fill="#00F" class="color_Democratic"/><use xlink:href="#b" x="82.55" y="63.16" stroke="#988BAD" fill="#00F" class="color_Democratic"/><use xlink:href="#b" x="86.8" y="65.32" stroke="#988BAD" fill="#00F" class="color_Democratic"/><use xlink:href="#b" x="91.04" y="63.55" stroke="#988BAD" fill="#00F" class="color_Democratic"/><use xlink:href="#b" x="95.28" y="65.07" stroke="#988BAD" fill="#00F" class="color_Democratic"/><use xlink:href="#b" x="99.53" y="69.6" stroke="#988BAD" fill="#00F" class="color_Democratic"/><use xlink:href="#b" x="103.77" y="64.19" stroke="#988BAD" fill="#00F" class="color_Democratic"/><use xlink:href="#b" x="108.02" y="62.85" stroke="#988BAD" fill="#00F" class="color_Democratic"/><use xlink:href="#b" x="112.26" y="56.83" stroke="#988BAD" fill="#00F" class="color_Democratic"/><use xlink:href="#b" x="116.51" y="62.54" stroke="#988BAD" fill="#00F" class="color_Democratic"/><use xlink:href="#b" x="120.75" y="57.31" stroke="#988BAD" fill="#00F" class="color_Democratic"/><use xlink:href="#b" x="124.99" y="58.51" stroke="#988BAD" fill="#00F" class="color_Democratic"/><use xlink:href="#b" x="129.24" y="59.97" stroke="#988BAD" fill="#00F" class="color_Democratic"/><use xlink:href="#b" x="133.48" y="57.68" stroke="#988BAD" fill="#00F" class="color_Democratic"/><use xlink:href="#b" x="137.73" y="72.07" stroke="#988BAD" fill="#00F" class="color_Democratic"/><use xlink:href="#b" x="141.97" y="46.19" stroke="#988BAD" fill="#00F" class="color_Democratic"/><use xlink:href="#b" x="146.21" y="42.59" stroke="#988BAD" fill="#00F" class="color_Democratic"/><use xlink:href="#b" x="150.46" y="41.93" stroke="#988BAD" fill="#00F" class="color_Democratic"/><use xlink:href="#b" x="154.7" y="49.54" stroke="#988BAD" fill="#00F" class="color_Democratic"/><use xlink:href="#b" x="158.95" y="58.59" stroke="#988BAD" fill="#00F" class="color_Democratic"/><use xlink:href="#b" x="163.19" y="62.86" stroke="#988BAD" fill="#00F" class="color_Democratic"/><use xlink:href="#b" x="167.43" y="66.24" stroke="#988BAD" fill="#00F" class="color_Democratic"/><use xlink:href="#b" x="171.68" y="64.74" stroke="#988BAD" fill="#00F" class="color_Democratic"/><use xlink:href="#b" x="175.92" y="60.53" stroke="#988BAD" fill="#00F" class="color_Democratic"/><use xlink:href="#b" x="180.17" y="88.54" stroke="#988BAD" fill="#00F" class="color_Democratic"/><use xlink:href="#b" x="184.41" y="88.9" stroke="#988BAD" fill="#00F" class="color_Democratic"/><use xlink:href="#b" x="188.65" y="61.45" stroke="#988BAD" fill="#00F" class="color_Democratic"/><use xlink:href="#b" x="192.9" y="69.86" stroke="#988BAD" fill="#00F" class="color_Democratic"/><use xlink:href="#b" x="197.14" y="79.53" stroke="#988BAD" fill="#00F" class="color_Democratic"/><use xlink:href="#b" x="201.39" y="75.56" stroke="#988BAD" fill="#00F" class="color_Democratic"/><use xlink:href="#b" x="205.63" y="74.58" stroke="#988BAD" fill="#00F" class="color_Democratic"/><use xlink:href="#b" x="209.87" y="73.14" stroke="#988BAD" fill="#00F" class="color_Democratic"/><use xlink:href="#b" x="214.12" y="74.01" stroke="#988BAD" fill="#00F" class="color_Democratic"/><use xlink:href="#b" x="218.36" y="73.61" stroke="#988BAD" fill="#00F" class="color_Democratic"/><use xlink:href="#b" x="222.61" y="67.24" stroke="#988BAD" fill="#00F" class="color_Democratic"/><use xlink:href="#b" x="226.85" y="68.65" stroke="#988BAD" fill="#00F" class="color_Democratic"/></g><g fill-opacity="0"><path fill="none" d="M31.62 42.92l4.25-12.17 4.24 32.96 4.25 11.21 4.24-5.5 4.24 2.92 4.25-5.86 4.24-6.6 4.25 56.13 8.48-45.53 4.25 4.3 4.24-11.62 4.25 2.16 4.24-1.77 4.24 1.52 4.25 4.53 4.24-5.41 4.25-1.34 4.24-6.02 4.25 5.71 4.24-5.23 4.24 1.2 4.25 1.46 4.24-2.29 4.25 14.39 4.24-25.88 4.24-3.6 4.25-.66 4.24 7.61 4.25 9.05 4.24 4.27 4.24 3.38 4.25-1.5 4.24-4.21 4.25 28.01 4.24.36 4.24-27.45 4.25 8.41 4.24 9.67 4.25-3.97 4.24-.98 4.24-1.44 4.25.87 4.24-.4 4.25-6.37 4.24 1.41" stroke="#00F" class="geometry color_Democratic"/><path fill="none" d="M65.58 118.95l8.48-55.57 4.25-4.13 4.24 11.45 4.25-1.67 4.24 1.45 4.24-.63 4.25 11.85 4.24-11.46 4.25 1.41 4.24 6.03 4.25-6.06 4.24 34.9 4.24-30.96 4.25-1.57 4.24 3.63 4.25-15.82 4.24 26.69 4.24 2.79 4.25.65 4.24-7.61 4.25.63L163.19 71l4.24-3.38 4.25 1.51 4.24 4.2 4.25 4.52 4.24-31.17 4.24 26.27 4.25-5.3 4.24-13.1 4.25 4.09 4.24 15.11 4.24-5.5 4.25-7.59 4.24.01 4.25 6.91 4.24-1.06" stroke="#F00" class="geometry color_Republican"/></g></g></g><g class="guide ylabels" font-size="4.76" font-family="'PT Sans Caption','Helvetica Neue','Helvetica',sans-serif" fill="#A1A1A1" text-anchor="end"><text x="24.38" y="118.95" dy=".35em">0</text><text x="24.38" y="92.94" dy=".35em">25</text><text x="24.38" y="66.93" dy=".35em">50</text><text x="24.38" y="40.92" dy=".35em">75</text><text x="24.38" y="14.91" dy=".35em">100</text></g><text x="9.95" y="64.93" text-anchor="middle" dy=".35em" transform="rotate(-90 9.95 66.93)" font-size="6.35" font-family="'PT Sans','Helvetica Neue','Helvetica',sans-serif" fill="#A1A1A1" stroke="#000" stroke-opacity="0">Popular Vote (%)</text><text x="129.24" y="5" text-anchor="middle" dy=".6em" font-size="6.35" font-family="'PT Sans','Helvetica Neue','Helvetica',sans-serif" fill="#A1A1A1" stroke="#000" stroke-opacity="0">North Carolina</text></g><defs><clipPath id="a"><path d="M25.38 12.91H233.1v108.04H25.38"/></clipPath><circle r=".9" id="b"/></defs></svg>