<?xml version="1.0" encoding="UTF-8"?>
<svg xmlns="http://www.w3.org/2000/svg"
     xmlns:xlink="http://www.w3.org/1999/xlink"
     xmlns:gadfly="http://www.gadflyjl.org/ns"
     version="1.2"
     width="238.1mm" height="158.73mm" viewBox="0 0 238.1 158.73"
     stroke="none"
     fill="#000000"
     stroke-width="0.3"
     font-size="3.88"
>
<g stroke="#000000" stroke-opacity="0.000" fill="#222831" id="img-ca79ccb5-1">
  <rect x="0" y="0" width="238.1" height="158.73"/>
</g>
<g class="plotroot xscalable yscalable" id="img-ca79ccb5-2">
  <g class="guide colorkey" id="img-ca79ccb5-3">
    <g class="color_Democratic" id="img-ca79ccb5-4">
      <g fill="#A1A1A1" font-size="3.7" font-family="'PT Sans','Helvetica Neue','Helvetica',sans-serif" id="img-ca79ccb5-5">
        <text x="51.52" y="148.78" dy="0.35em">Democratic</text>
      </g>
      <g fill="#0000FF" stroke="#000000" stroke-opacity="0.000" id="img-ca79ccb5-6">
        <rect x="48.29" y="147.66" width="2.22" height="2.22"/>
      </g>
    </g>
    <g class="color_Republican" id="img-ca79ccb5-7">
      <g fill="#A1A1A1" font-size="3.7" font-family="'PT Sans','Helvetica Neue','Helvetica',sans-serif" id="img-ca79ccb5-8">
        <text x="29.6" y="148.78" dy="0.35em">Republican</text>
      </g>
      <g fill="#FF0000" stroke="#000000" stroke-opacity="0.000" id="img-ca79ccb5-9">
        <rect x="26.38" y="147.66" width="2.22" height="2.22"/>
      </g>
    </g>
    <g fill="#A1A1A1" font-size="6.35" font-family="'PT Sans','Helvetica Neue','Helvetica',sans-serif" stroke="#000000" stroke-opacity="0.000" id="img-ca79ccb5-10">
      <text x="26.38" y="145.28">Party</text>
    </g>
  </g>
  <g font-size="6.35" font-family="'PT Sans','Helvetica Neue','Helvetica',sans-serif" fill="#A1A1A1" stroke="#000000" stroke-opacity="0.000" id="img-ca79ccb5-11">
    <text x="129.24" y="130.46" text-anchor="middle" dy="0.6em">Year</text>
  </g>
  <g class="guide xlabels" font-size="4.76" font-family="'PT Sans Caption','Helvetica Neue','Helvetica',sans-serif" fill="#A1A1A1" id="img-ca79ccb5-12">
    <text x="27.38" y="121.95" text-anchor="middle" dy="0.6em">1908</text>
    <text x="42.47" y="121.95" text-anchor="middle" dy="0.6em">1916</text>
    <text x="57.56" y="121.95" text-anchor="middle" dy="0.6em">1924</text>
    <text x="72.65" y="121.95" text-anchor="middle" dy="0.6em">1932</text>
    <text x="87.74" y="121.95" text-anchor="middle" dy="0.6em">1940</text>
    <text x="102.83" y="121.95" text-anchor="middle" dy="0.6em">1948</text>
    <text x="117.92" y="121.95" text-anchor="middle" dy="0.6em">1956</text>
    <text x="133.01" y="121.95" text-anchor="middle" dy="0.6em">1964</text>
    <text x="148.1" y="121.95" text-anchor="middle" dy="0.6em">1972</text>
    <text x="163.19" y="121.95" text-anchor="middle" dy="0.6em">1980</text>
    <text x="178.28" y="121.95" text-anchor="middle" dy="0.6em">1988</text>
    <text x="193.37" y="121.95" text-anchor="middle" dy="0.6em">1996</text>
    <text x="208.46" y="121.95" text-anchor="middle" dy="0.6em">2004</text>
    <text x="223.55" y="121.95" text-anchor="middle" dy="0.6em">2012</text>
  </g>
<g clip-path="url(#img-ca79ccb5-13)">
  <g id="img-ca79ccb5-14">
    <g pointer-events="visible" opacity="1" fill="#222831" stroke="#000000" stroke-opacity="0.000" class="guide background" id="img-ca79ccb5-15">
      <rect x="25.38" y="12.91" width="207.72" height="108.04"/>
    </g>
    <g class="guide ygridlines xfixed" stroke-dasharray="0.5,0.5" stroke-width="0.2" stroke="#575757" id="img-ca79ccb5-16">
      <path fill="none" d="M25.38,118.95 L 233.1 118.95"/>
      <path fill="none" d="M25.38,92.94 L 233.1 92.94"/>
      <path fill="none" d="M25.38,66.93 L 233.1 66.93"/>
      <path fill="none" d="M25.38,40.92 L 233.1 40.92"/>
      <path fill="none" d="M25.38,14.91 L 233.1 14.91"/>
    </g>
    <g class="guide xgridlines yfixed" stroke-dasharray="0.5,0.5" stroke-width="0.2" stroke="#575757" id="img-ca79ccb5-17">
      <path fill="none" d="M27.38,12.91 L 27.38 120.95"/>
      <path fill="none" d="M42.47,12.91 L 42.47 120.95"/>
      <path fill="none" d="M57.56,12.91 L 57.56 120.95"/>
      <path fill="none" d="M72.65,12.91 L 72.65 120.95"/>
      <path fill="none" d="M87.74,12.91 L 87.74 120.95"/>
      <path fill="none" d="M102.83,12.91 L 102.83 120.95"/>
      <path fill="none" d="M117.92,12.91 L 117.92 120.95"/>
      <path fill="none" d="M133.01,12.91 L 133.01 120.95"/>
      <path fill="none" d="M148.1,12.91 L 148.1 120.95"/>
      <path fill="none" d="M163.19,12.91 L 163.19 120.95"/>
      <path fill="none" d="M178.28,12.91 L 178.28 120.95"/>
      <path fill="none" d="M193.37,12.91 L 193.37 120.95"/>
      <path fill="none" d="M208.46,12.91 L 208.46 120.95"/>
      <path fill="none" d="M223.55,12.91 L 223.55 120.95"/>
    </g>
    <g class="plotpanel" id="img-ca79ccb5-18">
      <g class="geometry" id="img-ca79ccb5-19">
        <g stroke-width="0.3" id="img-ca79ccb5-20">
          <use xlink:href="#img-ca79ccb5-21" x="34.92" y="81.59" stroke="#B3867B" fill="#FF0000" class="color_Republican"/>
          <use xlink:href="#img-ca79ccb5-21" x="42.47" y="70.42" stroke="#B3867B" fill="#FF0000" class="color_Republican"/>
          <use xlink:href="#img-ca79ccb5-21" x="50.01" y="62.06" stroke="#B3867B" fill="#FF0000" class="color_Republican"/>
          <use xlink:href="#img-ca79ccb5-21" x="57.56" y="68.47" stroke="#B3867B" fill="#FF0000" class="color_Republican"/>
          <use xlink:href="#img-ca79ccb5-21" x="65.1" y="57.55" stroke="#B3867B" fill="#FF0000" class="color_Republican"/>
          <use xlink:href="#img-ca79ccb5-21" x="72.65" y="81.75" stroke="#B3867B" fill="#FF0000" class="color_Republican"/>
          <use xlink:href="#img-ca79ccb5-21" x="80.19" y="80.98" stroke="#B3867B" fill="#FF0000" class="color_Republican"/>
          <use xlink:href="#img-ca79ccb5-21" x="87.74" y="73.92" stroke="#B3867B" fill="#FF0000" class="color_Republican"/>
          <use xlink:href="#img-ca79ccb5-21" x="95.28" y="70.64" stroke="#B3867B" fill="#FF0000" class="color_Republican"/>
          <use xlink:href="#img-ca79ccb5-21" x="102.83" y="74.29" stroke="#B3867B" fill="#FF0000" class="color_Republican"/>
          <use xlink:href="#img-ca79ccb5-21" x="110.37" y="61.32" stroke="#B3867B" fill="#FF0000" class="color_Republican"/>
          <use xlink:href="#img-ca79ccb5-21" x="117.92" y="58.81" stroke="#B3867B" fill="#FF0000" class="color_Republican"/>
          <use xlink:href="#img-ca79ccb5-21" x="125.46" y="67.54" stroke="#B3867B" fill="#FF0000" class="color_Republican"/>
          <use xlink:href="#img-ca79ccb5-21" x="133.01" y="77.08" stroke="#B3867B" fill="#FF0000" class="color_Republican"/>
          <use xlink:href="#img-ca79ccb5-21" x="140.55" y="65.01" stroke="#B3867B" fill="#FF0000" class="color_Republican"/>
          <use xlink:href="#img-ca79ccb5-21" x="148.1" y="55.44" stroke="#B3867B" fill="#FF0000" class="color_Republican"/>
          <use xlink:href="#img-ca79ccb5-21" x="155.64" y="66.15" stroke="#B3867B" fill="#FF0000" class="color_Republican"/>
          <use xlink:href="#img-ca79ccb5-21" x="163.19" y="61.76" stroke="#B3867B" fill="#FF0000" class="color_Republican"/>
          <use xlink:href="#img-ca79ccb5-21" x="170.74" y="56.83" stroke="#B3867B" fill="#FF0000" class="color_Republican"/>
          <use xlink:href="#img-ca79ccb5-21" x="178.28" y="65" stroke="#B3867B" fill="#FF0000" class="color_Republican"/>
          <use xlink:href="#img-ca79ccb5-21" x="185.83" y="80.11" stroke="#B3867B" fill="#FF0000" class="color_Republican"/>
          <use xlink:href="#img-ca79ccb5-21" x="193.37" y="75.4" stroke="#B3867B" fill="#FF0000" class="color_Republican"/>
          <use xlink:href="#img-ca79ccb5-21" x="200.92" y="69.17" stroke="#B3867B" fill="#FF0000" class="color_Republican"/>
          <use xlink:href="#img-ca79ccb5-21" x="208.46" y="67.1" stroke="#B3867B" fill="#FF0000" class="color_Republican"/>
          <use xlink:href="#img-ca79ccb5-21" x="216.01" y="75.49" stroke="#B3867B" fill="#FF0000" class="color_Republican"/>
          <use xlink:href="#img-ca79ccb5-21" x="223.55" y="74.38" stroke="#B3867B" fill="#FF0000" class="color_Republican"/>
          <use xlink:href="#img-ca79ccb5-21" x="34.92" y="75.89" stroke="#988BAD" fill="#0000FF" class="color_Democratic"/>
          <use xlink:href="#img-ca79ccb5-21" x="42.47" y="66.72" stroke="#988BAD" fill="#0000FF" class="color_Democratic"/>
          <use xlink:href="#img-ca79ccb5-21" x="50.01" y="72.89" stroke="#988BAD" fill="#0000FF" class="color_Democratic"/>
          <use xlink:href="#img-ca79ccb5-21" x="57.56" y="74.19" stroke="#988BAD" fill="#0000FF" class="color_Democratic"/>
          <use xlink:href="#img-ca79ccb5-21" x="65.1" y="76.45" stroke="#988BAD" fill="#0000FF" class="color_Democratic"/>
          <use xlink:href="#img-ca79ccb5-21" x="72.65" y="53.7" stroke="#988BAD" fill="#0000FF" class="color_Democratic"/>
          <use xlink:href="#img-ca79ccb5-21" x="80.19" y="53.72" stroke="#988BAD" fill="#0000FF" class="color_Democratic"/>
          <use xlink:href="#img-ca79ccb5-21" x="87.74" y="60.08" stroke="#988BAD" fill="#0000FF" class="color_Democratic"/>
          <use xlink:href="#img-ca79ccb5-21" x="95.28" y="63.33" stroke="#988BAD" fill="#0000FF" class="color_Democratic"/>
          <use xlink:href="#img-ca79ccb5-21" x="102.83" y="60.29" stroke="#988BAD" fill="#0000FF" class="color_Democratic"/>
          <use xlink:href="#img-ca79ccb5-21" x="110.37" y="72.88" stroke="#988BAD" fill="#0000FF" class="color_Democratic"/>
          <use xlink:href="#img-ca79ccb5-21" x="117.92" y="75.48" stroke="#988BAD" fill="#0000FF" class="color_Democratic"/>
          <use xlink:href="#img-ca79ccb5-21" x="125.46" y="66.77" stroke="#988BAD" fill="#0000FF" class="color_Democratic"/>
          <use xlink:href="#img-ca79ccb5-21" x="133.01" y="57.34" stroke="#988BAD" fill="#0000FF" class="color_Democratic"/>
          <use xlink:href="#img-ca79ccb5-21" x="140.55" y="77.6" stroke="#988BAD" fill="#0000FF" class="color_Democratic"/>
          <use xlink:href="#img-ca79ccb5-21" x="148.1" y="80.92" stroke="#988BAD" fill="#0000FF" class="color_Democratic"/>
          <use xlink:href="#img-ca79ccb5-21" x="155.64" y="68.72" stroke="#988BAD" fill="#0000FF" class="color_Democratic"/>
          <use xlink:href="#img-ca79ccb5-21" x="163.19" y="80.68" stroke="#988BAD" fill="#0000FF" class="color_Democratic"/>
          <use xlink:href="#img-ca79ccb5-21" x="170.74" y="78.14" stroke="#988BAD" fill="#0000FF" class="color_Democratic"/>
          <use xlink:href="#img-ca79ccb5-21" x="178.28" y="70.15" stroke="#988BAD" fill="#0000FF" class="color_Democratic"/>
          <use xlink:href="#img-ca79ccb5-21" x="185.83" y="71.2" stroke="#988BAD" fill="#0000FF" class="color_Democratic"/>
          <use xlink:href="#img-ca79ccb5-21" x="193.37" y="67.78" stroke="#988BAD" fill="#0000FF" class="color_Democratic"/>
          <use xlink:href="#img-ca79ccb5-21" x="200.92" y="69.11" stroke="#988BAD" fill="#0000FF" class="color_Democratic"/>
          <use xlink:href="#img-ca79ccb5-21" x="208.46" y="67.92" stroke="#988BAD" fill="#0000FF" class="color_Democratic"/>
          <use xlink:href="#img-ca79ccb5-21" x="216.01" y="59.74" stroke="#988BAD" fill="#0000FF" class="color_Democratic"/>
          <use xlink:href="#img-ca79ccb5-21" x="223.55" y="63.82" stroke="#988BAD" fill="#0000FF" class="color_Democratic"/>
        </g>
      </g>
      <g stroke-width="0.3" fill="#000000" fill-opacity="0.000" stroke-dasharray="none" id="img-ca79ccb5-22">
        <path fill="none" d="M34.92,75.89 L 42.47 66.72 50.01 72.89 57.56 74.19 65.1 76.45 72.65 53.7 80.19 53.72 87.74 60.08 95.28 63.33 102.83 60.29 110.37 72.88 117.92 75.48 125.46 66.77 133.01 57.34 140.55 77.6 148.1 80.92 155.64 68.72 163.19 80.68 170.74 78.14 178.28 70.15 185.83 71.2 193.37 67.78 200.92 69.11 208.46 67.92 216.01 59.74 223.55 63.82" stroke="#0000FF" class="geometry color_Democratic"/>
        <path fill="none" d="M34.92,81.59 L 42.47 70.42 50.01 62.06 57.56 68.47 65.1 57.55 72.65 81.75 80.19 80.98 87.74 73.92 95.28 70.64 102.83 74.29 110.37 61.32 117.92 58.81 125.46 67.54 133.01 77.08 140.55 65.01 148.1 55.44 155.64 66.15 163.19 61.76 170.74 56.83 178.28 65 185.83 80.11 193.37 75.4 200.92 69.17 208.46 67.1 216.01 75.49 223.55 74.38" stroke="#FF0000" class="geometry color_Republican"/>
      </g>
    </g>
  </g>
</g>
  <g class="guide ylabels" font-size="4.76" font-family="'PT Sans Caption','Helvetica Neue','Helvetica',sans-serif" fill="#A1A1A1" id="img-ca79ccb5-23">
    <text x="24.38" y="118.95" text-anchor="end" dy="0.35em">0</text>
    <text x="24.38" y="92.94" text-anchor="end" dy="0.35em">25</text>
    <text x="24.38" y="66.93" text-anchor="end" dy="0.35em">50</text>
    <text x="24.38" y="40.92" text-anchor="end" dy="0.35em">75</text>
    <text x="24.38" y="14.91" text-anchor="end" dy="0.35em">100</text>
  </g>
  <g font-size="6.35" font-family="'PT Sans','Helvetica Neue','Helvetica',sans-serif" fill="#A1A1A1" stroke="#000000" stroke-opacity="0.000" id="img-ca79ccb5-24">
    <text x="9.95" y="64.93" text-anchor="middle" dy="0.35em" transform="rotate(-90, 9.95, 66.93)">Popular Vote (%)</text>
  </g>
  <g font-size="6.35" font-family="'PT Sans','Helvetica Neue','Helvetica',sans-serif" fill="#A1A1A1" stroke="#000000" stroke-opacity="0.000" id="img-ca79ccb5-25">
    <text x="129.24" y="5" text-anchor="middle" dy="0.6em">New Mexico</text>
  </g>
</g>
<defs>
  <clipPath id="img-ca79ccb5-13">
  <path d="M25.38,12.91 L 233.1 12.91 233.1 120.95 25.38 120.95" />
</clipPath>
  <g id="img-ca79ccb5-21">
    <circle cx="0" cy="0" r="0.9"/>
  </g>
</defs>
</svg>
