<?xml version="1.0" encoding="UTF-8"?>
<svg xmlns="http://www.w3.org/2000/svg"
     xmlns:xlink="http://www.w3.org/1999/xlink"
     xmlns:gadfly="http://www.gadflyjl.org/ns"
     version="1.2"
     width="238.1mm" height="158.73mm" viewBox="0 0 238.1 158.73"
     stroke="none"
     fill="#000000"
     stroke-width="0.3"
     font-size="3.88"
>
<g stroke="#000000" stroke-opacity="0.000" fill="#222831" id="img-0da3a281-1">
  <rect x="0" y="0" width="238.1" height="158.73"/>
</g>
<g class="plotroot xscalable yscalable" id="img-0da3a281-2">
  <g class="guide colorkey" id="img-0da3a281-3">
    <g class="color_Democratic" id="img-0da3a281-4">
      <g fill="#A1A1A1" font-size="3.7" font-family="'PT Sans','Helvetica Neue','Helvetica',sans-serif" id="img-0da3a281-5">
        <text x="51.52" y="148.78" dy="0.35em">Democratic</text>
      </g>
      <g fill="#0000FF" stroke="#000000" stroke-opacity="0.000" id="img-0da3a281-6">
        <rect x="48.29" y="147.66" width="2.22" height="2.22"/>
      </g>
    </g>
    <g class="color_Republican" id="img-0da3a281-7">
      <g fill="#A1A1A1" font-size="3.7" font-family="'PT Sans','Helvetica Neue','Helvetica',sans-serif" id="img-0da3a281-8">
        <text x="29.6" y="148.78" dy="0.35em">Republican</text>
      </g>
      <g fill="#FF0000" stroke="#000000" stroke-opacity="0.000" id="img-0da3a281-9">
        <rect x="26.38" y="147.66" width="2.22" height="2.22"/>
      </g>
    </g>
    <g fill="#A1A1A1" font-size="6.35" font-family="'PT Sans','Helvetica Neue','Helvetica',sans-serif" stroke="#000000" stroke-opacity="0.000" id="img-0da3a281-10">
      <text x="26.38" y="145.28">Party</text>
    </g>
  </g>
  <g font-size="6.35" font-family="'PT Sans','Helvetica Neue','Helvetica',sans-serif" fill="#A1A1A1" stroke="#000000" stroke-opacity="0.000" id="img-0da3a281-11">
    <text x="129.24" y="130.46" text-anchor="middle" dy="0.6em">Year</text>
  </g>
  <g class="guide xlabels" font-size="4.76" font-family="'PT Sans Caption','Helvetica Neue','Helvetica',sans-serif" fill="#A1A1A1" id="img-0da3a281-12">
    <text x="27.38" y="115.17" text-anchor="end" dy="0.35em" transform="rotate(-90, 27.38, 115.17)">1864</text>
    <text x="38.1" y="115.17" text-anchor="end" dy="0.35em" transform="rotate(-90, 38.1, 115.17)">1872</text>
    <text x="48.82" y="115.17" text-anchor="end" dy="0.35em" transform="rotate(-90, 48.82, 115.17)">1880</text>
    <text x="59.55" y="115.17" text-anchor="end" dy="0.35em" transform="rotate(-90, 59.55, 115.17)">1888</text>
    <text x="70.27" y="115.17" text-anchor="end" dy="0.35em" transform="rotate(-90, 70.27, 115.17)">1896</text>
    <text x="80.99" y="115.17" text-anchor="end" dy="0.35em" transform="rotate(-90, 80.99, 115.17)">1904</text>
    <text x="91.71" y="115.17" text-anchor="end" dy="0.35em" transform="rotate(-90, 91.71, 115.17)">1912</text>
    <text x="102.43" y="115.17" text-anchor="end" dy="0.35em" transform="rotate(-90, 102.43, 115.17)">1920</text>
    <text x="113.15" y="115.17" text-anchor="end" dy="0.35em" transform="rotate(-90, 113.15, 115.17)">1928</text>
    <text x="123.88" y="115.17" text-anchor="end" dy="0.35em" transform="rotate(-90, 123.88, 115.17)">1936</text>
    <text x="134.6" y="115.17" text-anchor="end" dy="0.35em" transform="rotate(-90, 134.6, 115.17)">1944</text>
    <text x="145.32" y="115.17" text-anchor="end" dy="0.35em" transform="rotate(-90, 145.32, 115.17)">1952</text>
    <text x="156.04" y="115.17" text-anchor="end" dy="0.35em" transform="rotate(-90, 156.04, 115.17)">1960</text>
    <text x="166.76" y="115.17" text-anchor="end" dy="0.35em" transform="rotate(-90, 166.76, 115.17)">1968</text>
    <text x="177.49" y="115.17" text-anchor="end" dy="0.35em" transform="rotate(-90, 177.49, 115.17)">1976</text>
    <text x="188.21" y="115.17" text-anchor="end" dy="0.35em" transform="rotate(-90, 188.21, 115.17)">1984</text>
    <text x="198.93" y="115.17" text-anchor="end" dy="0.35em" transform="rotate(-90, 198.93, 115.17)">1992</text>
    <text x="209.65" y="115.17" text-anchor="end" dy="0.35em" transform="rotate(-90, 209.65, 115.17)">2000</text>
    <text x="220.37" y="115.17" text-anchor="end" dy="0.35em" transform="rotate(-90, 220.37, 115.17)">2008</text>
    <text x="231.1" y="115.17" text-anchor="end" dy="0.35em" transform="rotate(-90, 231.1, 115.17)">2016</text>
  </g>
<g clip-path="url(#img-0da3a281-13)">
  <g id="img-0da3a281-14">
    <g pointer-events="visible" opacity="1" fill="#222831" stroke="#000000" stroke-opacity="0.000" class="guide background" id="img-0da3a281-15">
      <rect x="25.38" y="12.91" width="207.72" height="101.26"/>
    </g>
    <g class="guide ygridlines xfixed" stroke-dasharray="0.5,0.5" stroke-width="0.2" stroke="#575757" id="img-0da3a281-16">
      <path fill="none" d="M25.38,112.17 L 233.1 112.17"/>
      <path fill="none" d="M25.38,87.86 L 233.1 87.86"/>
      <path fill="none" d="M25.38,63.54 L 233.1 63.54"/>
      <path fill="none" d="M25.38,39.22 L 233.1 39.22"/>
      <path fill="none" d="M25.38,14.91 L 233.1 14.91"/>
    </g>
    <g class="guide xgridlines yfixed" stroke-dasharray="0.5,0.5" stroke-width="0.2" stroke="#575757" id="img-0da3a281-17">
      <path fill="none" d="M27.38,12.91 L 27.38 114.17"/>
      <path fill="none" d="M38.1,12.91 L 38.1 114.17"/>
      <path fill="none" d="M48.82,12.91 L 48.82 114.17"/>
      <path fill="none" d="M59.55,12.91 L 59.55 114.17"/>
      <path fill="none" d="M70.27,12.91 L 70.27 114.17"/>
      <path fill="none" d="M80.99,12.91 L 80.99 114.17"/>
      <path fill="none" d="M91.71,12.91 L 91.71 114.17"/>
      <path fill="none" d="M102.43,12.91 L 102.43 114.17"/>
      <path fill="none" d="M113.15,12.91 L 113.15 114.17"/>
      <path fill="none" d="M123.88,12.91 L 123.88 114.17"/>
      <path fill="none" d="M134.6,12.91 L 134.6 114.17"/>
      <path fill="none" d="M145.32,12.91 L 145.32 114.17"/>
      <path fill="none" d="M156.04,12.91 L 156.04 114.17"/>
      <path fill="none" d="M166.76,12.91 L 166.76 114.17"/>
      <path fill="none" d="M177.49,12.91 L 177.49 114.17"/>
      <path fill="none" d="M188.21,12.91 L 188.21 114.17"/>
      <path fill="none" d="M198.93,12.91 L 198.93 114.17"/>
      <path fill="none" d="M209.65,12.91 L 209.65 114.17"/>
      <path fill="none" d="M220.37,12.91 L 220.37 114.17"/>
      <path fill="none" d="M231.1,12.91 L 231.1 114.17"/>
    </g>
    <g class="plotpanel" id="img-0da3a281-18">
      <g class="geometry" id="img-0da3a281-19">
        <g stroke-width="0.3" id="img-0da3a281-20">
          <use xlink:href="#img-0da3a281-21" x="32.74" y="50.01" stroke="#B3867B" fill="#FF0000" class="color_Republican"/>
          <use xlink:href="#img-0da3a281-21" x="38.1" y="43.43" stroke="#B3867B" fill="#FF0000" class="color_Republican"/>
          <use xlink:href="#img-0da3a281-21" x="43.46" y="49.24" stroke="#B3867B" fill="#FF0000" class="color_Republican"/>
          <use xlink:href="#img-0da3a281-21" x="48.82" y="51.02" stroke="#B3867B" fill="#FF0000" class="color_Republican"/>
          <use xlink:href="#img-0da3a281-21" x="54.18" y="56.43" stroke="#B3867B" fill="#FF0000" class="color_Republican"/>
          <use xlink:href="#img-0da3a281-21" x="59.55" y="60.13" stroke="#B3867B" fill="#FF0000" class="color_Republican"/>
          <use xlink:href="#img-0da3a281-21" x="64.91" y="69.8" stroke="#B3867B" fill="#FF0000" class="color_Republican"/>
          <use xlink:href="#img-0da3a281-21" x="70.27" y="67.26" stroke="#B3867B" fill="#FF0000" class="color_Republican"/>
          <use xlink:href="#img-0da3a281-21" x="75.63" y="63.09" stroke="#B3867B" fill="#FF0000" class="color_Republican"/>
          <use xlink:href="#img-0da3a281-21" x="80.99" y="52.47" stroke="#B3867B" fill="#FF0000" class="color_Republican"/>
          <use xlink:href="#img-0da3a281-21" x="86.35" y="65.87" stroke="#B3867B" fill="#FF0000" class="color_Republican"/>
          <use xlink:href="#img-0da3a281-21" x="91.71" y="91.03" stroke="#B3867B" fill="#FF0000" class="color_Republican"/>
          <use xlink:href="#img-0da3a281-21" x="97.07" y="72.3" stroke="#B3867B" fill="#FF0000" class="color_Republican"/>
          <use xlink:href="#img-0da3a281-21" x="102.43" y="49.28" stroke="#B3867B" fill="#FF0000" class="color_Republican"/>
          <use xlink:href="#img-0da3a281-21" x="107.79" y="66.37" stroke="#B3867B" fill="#FF0000" class="color_Republican"/>
          <use xlink:href="#img-0da3a281-21" x="113.15" y="50.71" stroke="#B3867B" fill="#FF0000" class="color_Republican"/>
          <use xlink:href="#img-0da3a281-21" x="118.52" y="77.85" stroke="#B3867B" fill="#FF0000" class="color_Republican"/>
          <use xlink:href="#img-0da3a281-21" x="123.88" y="72.54" stroke="#B3867B" fill="#FF0000" class="color_Republican"/>
          <use xlink:href="#img-0da3a281-21" x="129.24" y="56.55" stroke="#B3867B" fill="#FF0000" class="color_Republican"/>
          <use xlink:href="#img-0da3a281-21" x="134.6" y="55.19" stroke="#B3867B" fill="#FF0000" class="color_Republican"/>
          <use xlink:href="#img-0da3a281-21" x="139.96" y="59.5" stroke="#B3867B" fill="#FF0000" class="color_Republican"/>
          <use xlink:href="#img-0da3a281-21" x="145.32" y="44.91" stroke="#B3867B" fill="#FF0000" class="color_Republican"/>
          <use xlink:href="#img-0da3a281-21" x="150.68" y="48.45" stroke="#B3867B" fill="#FF0000" class="color_Republican"/>
          <use xlink:href="#img-0da3a281-21" x="156.04" y="51.8" stroke="#B3867B" fill="#FF0000" class="color_Republican"/>
          <use xlink:href="#img-0da3a281-21" x="161.4" y="66.08" stroke="#B3867B" fill="#FF0000" class="color_Republican"/>
          <use xlink:href="#img-0da3a281-21" x="166.76" y="53.99" stroke="#B3867B" fill="#FF0000" class="color_Republican"/>
          <use xlink:href="#img-0da3a281-21" x="172.12" y="43.6" stroke="#B3867B" fill="#FF0000" class="color_Republican"/>
          <use xlink:href="#img-0da3a281-21" x="177.49" y="54.6" stroke="#B3867B" fill="#FF0000" class="color_Republican"/>
          <use xlink:href="#img-0da3a281-21" x="182.85" y="48.44" stroke="#B3867B" fill="#FF0000" class="color_Republican"/>
          <use xlink:href="#img-0da3a281-21" x="188.21" y="43.55" stroke="#B3867B" fill="#FF0000" class="color_Republican"/>
          <use xlink:href="#img-0da3a281-21" x="193.57" y="53.66" stroke="#B3867B" fill="#FF0000" class="color_Republican"/>
          <use xlink:href="#img-0da3a281-21" x="198.93" y="66.87" stroke="#B3867B" fill="#FF0000" class="color_Republican"/>
          <use xlink:href="#img-0da3a281-21" x="204.29" y="59.99" stroke="#B3867B" fill="#FF0000" class="color_Republican"/>
          <use xlink:href="#img-0da3a281-21" x="209.65" y="51.63" stroke="#B3867B" fill="#FF0000" class="color_Republican"/>
          <use xlink:href="#img-0da3a281-21" x="215.01" y="48.08" stroke="#B3867B" fill="#FF0000" class="color_Republican"/>
          <use xlink:href="#img-0da3a281-21" x="220.37" y="57.19" stroke="#B3867B" fill="#FF0000" class="color_Republican"/>
          <use xlink:href="#img-0da3a281-21" x="225.73" y="54.01" stroke="#B3867B" fill="#FF0000" class="color_Republican"/>
          <use xlink:href="#img-0da3a281-21" x="32.74" y="77.07" stroke="#988BAD" fill="#0000FF" class="color_Democratic"/>
          <use xlink:href="#img-0da3a281-21" x="38.1" y="83.65" stroke="#988BAD" fill="#0000FF" class="color_Democratic"/>
          <use xlink:href="#img-0da3a281-21" x="43.46" y="77.84" stroke="#988BAD" fill="#0000FF" class="color_Democratic"/>
          <use xlink:href="#img-0da3a281-21" x="48.82" y="80.45" stroke="#988BAD" fill="#0000FF" class="color_Democratic"/>
          <use xlink:href="#img-0da3a281-21" x="54.18" y="72.75" stroke="#988BAD" fill="#0000FF" class="color_Democratic"/>
          <use xlink:href="#img-0da3a281-21" x="59.55" y="73.51" stroke="#988BAD" fill="#0000FF" class="color_Democratic"/>
          <use xlink:href="#img-0da3a281-21" x="64.91" y="100.05" stroke="#988BAD" fill="#0000FF" class="color_Democratic"/>
          <use xlink:href="#img-0da3a281-21" x="70.27" y="62.05" stroke="#988BAD" fill="#0000FF" class="color_Democratic"/>
          <use xlink:href="#img-0da3a281-21" x="75.63" y="66.24" stroke="#988BAD" fill="#0000FF" class="color_Democratic"/>
          <use xlink:href="#img-0da3a281-21" x="80.99" y="89.37" stroke="#988BAD" fill="#0000FF" class="color_Democratic"/>
          <use xlink:href="#img-0da3a281-21" x="86.35" y="64.38" stroke="#988BAD" fill="#0000FF" class="color_Democratic"/>
          <use xlink:href="#img-0da3a281-21" x="91.71" y="69.67" stroke="#988BAD" fill="#0000FF" class="color_Democratic"/>
          <use xlink:href="#img-0da3a281-21" x="97.07" y="58.4" stroke="#988BAD" fill="#0000FF" class="color_Democratic"/>
          <use xlink:href="#img-0da3a281-21" x="102.43" y="81.78" stroke="#988BAD" fill="#0000FF" class="color_Democratic"/>
          <use xlink:href="#img-0da3a281-21" x="107.79" y="83.4" stroke="#988BAD" fill="#0000FF" class="color_Democratic"/>
          <use xlink:href="#img-0da3a281-21" x="113.15" y="76.98" stroke="#988BAD" fill="#0000FF" class="color_Democratic"/>
          <use xlink:href="#img-0da3a281-21" x="118.52" y="50.91" stroke="#988BAD" fill="#0000FF" class="color_Democratic"/>
          <use xlink:href="#img-0da3a281-21" x="123.88" y="56.59" stroke="#988BAD" fill="#0000FF" class="color_Democratic"/>
          <use xlink:href="#img-0da3a281-21" x="129.24" y="70.53" stroke="#988BAD" fill="#0000FF" class="color_Democratic"/>
          <use xlink:href="#img-0da3a281-21" x="134.6" y="71.89" stroke="#988BAD" fill="#0000FF" class="color_Democratic"/>
          <use xlink:href="#img-0da3a281-21" x="139.96" y="67.58" stroke="#988BAD" fill="#0000FF" class="color_Democratic"/>
          <use xlink:href="#img-0da3a281-21" x="145.32" y="82.17" stroke="#988BAD" fill="#0000FF" class="color_Democratic"/>
          <use xlink:href="#img-0da3a281-21" x="150.68" y="78.63" stroke="#988BAD" fill="#0000FF" class="color_Democratic"/>
          <use xlink:href="#img-0da3a281-21" x="156.04" y="75.28" stroke="#988BAD" fill="#0000FF" class="color_Democratic"/>
          <use xlink:href="#img-0da3a281-21" x="161.4" y="61" stroke="#988BAD" fill="#0000FF" class="color_Democratic"/>
          <use xlink:href="#img-0da3a281-21" x="166.76" y="81.23" stroke="#988BAD" fill="#0000FF" class="color_Democratic"/>
          <use xlink:href="#img-0da3a281-21" x="172.12" y="83.48" stroke="#988BAD" fill="#0000FF" class="color_Democratic"/>
          <use xlink:href="#img-0da3a281-21" x="177.49" y="74.77" stroke="#988BAD" fill="#0000FF" class="color_Democratic"/>
          <use xlink:href="#img-0da3a281-21" x="182.85" y="86.85" stroke="#988BAD" fill="#0000FF" class="color_Democratic"/>
          <use xlink:href="#img-0da3a281-21" x="188.21" y="84.15" stroke="#988BAD" fill="#0000FF" class="color_Democratic"/>
          <use xlink:href="#img-0da3a281-21" x="193.57" y="74.04" stroke="#988BAD" fill="#0000FF" class="color_Democratic"/>
          <use xlink:href="#img-0da3a281-21" x="198.93" y="83.58" stroke="#988BAD" fill="#0000FF" class="color_Democratic"/>
          <use xlink:href="#img-0da3a281-21" x="204.29" y="78.18" stroke="#988BAD" fill="#0000FF" class="color_Democratic"/>
          <use xlink:href="#img-0da3a281-21" x="209.65" y="79.83" stroke="#988BAD" fill="#0000FF" class="color_Democratic"/>
          <use xlink:href="#img-0da3a281-21" x="215.01" y="80.38" stroke="#988BAD" fill="#0000FF" class="color_Democratic"/>
          <use xlink:href="#img-0da3a281-21" x="220.37" y="71.71" stroke="#988BAD" fill="#0000FF" class="color_Democratic"/>
          <use xlink:href="#img-0da3a281-21" x="225.73" y="75.18" stroke="#988BAD" fill="#0000FF" class="color_Democratic"/>
        </g>
      </g>
      <g stroke-width="0.3" fill="#000000" fill-opacity="0.000" stroke-dasharray="none" id="img-0da3a281-22">
        <path fill="none" d="M32.74,77.07 L 38.1 83.65 43.46 77.84 48.82 80.45 54.18 72.75 59.55 73.51 64.91 100.05 70.27 62.05 75.63 66.24 80.99 89.37 86.35 64.38 91.71 69.67 97.07 58.4 102.43 81.78 107.79 83.4 113.15 76.98 118.52 50.91 123.88 56.59 129.24 70.53 134.6 71.89 139.96 67.58 145.32 82.17 150.68 78.63 156.04 75.28 161.4 61 166.76 81.23 172.12 83.48 177.49 74.77 182.85 86.85 188.21 84.15 193.57 74.04 198.93 83.58 204.29 78.18 209.65 79.83 215.01 80.38 220.37 71.71 225.73 75.18" stroke="#0000FF" class="geometry color_Democratic"/>
        <path fill="none" d="M32.74,50.01 L 38.1 43.43 43.46 49.24 48.82 51.02 54.18 56.43 59.55 60.13 64.91 69.8 70.27 67.26 75.63 63.09 80.99 52.47 86.35 65.87 91.71 91.03 97.07 72.3 102.43 49.28 107.79 66.37 113.15 50.71 118.52 77.85 123.88 72.54 129.24 56.55 134.6 55.19 139.96 59.5 145.32 44.91 150.68 48.45 156.04 51.8 161.4 66.08 166.76 53.99 172.12 43.6 177.49 54.6 182.85 48.44 188.21 43.55 193.57 53.66 198.93 66.87 204.29 59.99 209.65 51.63 215.01 48.08 220.37 57.19 225.73 54.01" stroke="#FF0000" class="geometry color_Republican"/>
      </g>
    </g>
  </g>
</g>
  <g class="guide ylabels" font-size="4.76" font-family="'PT Sans Caption','Helvetica Neue','Helvetica',sans-serif" fill="#A1A1A1" id="img-0da3a281-23">
    <text x="24.38" y="112.17" text-anchor="end" dy="0.35em">0</text>
    <text x="24.38" y="87.86" text-anchor="end" dy="0.35em">25</text>
    <text x="24.38" y="63.54" text-anchor="end" dy="0.35em">50</text>
    <text x="24.38" y="39.22" text-anchor="end" dy="0.35em">75</text>
    <text x="24.38" y="14.91" text-anchor="end" dy="0.35em">100</text>
  </g>
  <g font-size="6.35" font-family="'PT Sans','Helvetica Neue','Helvetica',sans-serif" fill="#A1A1A1" stroke="#000000" stroke-opacity="0.000" id="img-0da3a281-24">
    <text x="9.95" y="61.54" text-anchor="middle" dy="0.35em" transform="rotate(-90, 9.95, 63.54)">Popular Vote (%)</text>
  </g>
  <g font-size="6.35" font-family="'PT Sans','Helvetica Neue','Helvetica',sans-serif" fill="#A1A1A1" stroke="#000000" stroke-opacity="0.000" id="img-0da3a281-25">
    <text x="129.24" y="5" text-anchor="middle" dy="0.6em">Nebraska</text>
  </g>
</g>
<defs>
  <clipPath id="img-0da3a281-13">
  <path d="M25.38,12.91 L 233.1 12.91 233.1 114.17 25.38 114.17" />
</clipPath>
  <g id="img-0da3a281-21">
    <circle cx="0" cy="0" r="0.9"/>
  </g>
</defs>
</svg>
