<svg xmlns="http://www.w3.org/2000/svg" xmlns:xlink="http://www.w3.org/1999/xlink" version="1.2" width="238.1mm" height="599.924" viewBox="0 0 238.1 158.73" stroke-width=".3" font-size="3.88"><path d="M0 0h238.1v158.73H0z" stroke="#000" stroke-opacity="0" fill="#222831"/><g class="plotroot xscalable yscalable"><g class="guide colorkey"><g class="color_Democratic"><text x="51.52" y="148.78" dy=".35em" fill="#A1A1A1" font-size="3.7" font-family="'PT Sans','Helvetica Neue','Helvetica',sans-serif">Democratic</text><path d="M48.29 147.66h2.22v2.22h-2.22z" fill="#00F" stroke="#000" stroke-opacity="0"/></g><g class="color_Republican"><text x="29.6" y="148.78" dy=".35em" fill="#A1A1A1" font-size="3.7" font-family="'PT Sans','Helvetica Neue','Helvetica',sans-serif">Republican</text><path d="M26.38 147.66h2.22v2.22h-2.22z" fill="#F00" stroke="#000" stroke-opacity="0"/></g><text x="26.38" y="145.28" fill="#A1A1A1" font-size="6.35" font-family="'PT Sans','Helvetica Neue','Helvetica',sans-serif" stroke="#000" stroke-opacity="0">Party</text></g><text x="129.24" y="130.46" text-anchor="middle" dy=".6em" font-size="6.35" font-family="'PT Sans','Helvetica Neue','Helvetica',sans-serif" fill="#A1A1A1" stroke="#000" stroke-opacity="0">Year</text><g class="guide xlabels" font-size="4.76" font-family="'PT Sans Caption','Helvetica Neue','Helvetica',sans-serif" fill="#A1A1A1" text-anchor="middle"><text x="27.38" y="121.95" dy=".6em">1856</text><text x="42.66" y="121.95" dy=".6em">1868</text><text x="57.94" y="121.95" dy=".6em">1880</text><text x="73.22" y="121.95" dy=".6em">1892</text><text x="88.49" y="121.95" dy=".6em">1904</text><text x="103.77" y="121.95" dy=".6em">1916</text><text x="119.05" y="121.95" dy=".6em">1928</text><text x="134.33" y="121.95" dy=".6em">1940</text><text x="149.61" y="121.95" dy=".6em">1952</text><text x="164.89" y="121.95" dy=".6em">1964</text><text x="180.17" y="121.95" dy=".6em">1976</text><text x="195.44" y="121.95" dy=".6em">1988</text><text x="210.72" y="121.95" dy=".6em">2000</text><text x="226" y="121.95" dy=".6em">2012</text></g><g clip-path="url(#a)"><path d="M25.38 12.91H233.1v108.04H25.38z" pointer-events="visible" fill="#222831" stroke="#000" stroke-opacity="0" class="guide background"/><g class="guide ygridlines xfixed" stroke-dasharray="0.5,0.5" stroke-width=".2" stroke="#575757" fill="none"><path d="M25.38 118.95H233.1M25.38 92.94H233.1M25.38 66.93H233.1M25.38 40.92H233.1M25.38 14.91H233.1"/></g><g class="guide xgridlines yfixed" stroke-dasharray="0.5,0.5" stroke-width=".2" stroke="#575757" fill="none"><path d="M27.38 12.91v108.04M42.66 12.91v108.04M57.94 12.91v108.04M73.22 12.91v108.04M88.49 12.91v108.04M103.77 12.91v108.04M119.05 12.91v108.04M134.33 12.91v108.04M149.61 12.91v108.04M164.89 12.91v108.04M180.17 12.91v108.04M195.44 12.91v108.04M210.72 12.91v108.04M226 12.91v108.04"/></g><g class="plotpanel"><g class="geometry"><use xlink:href="#b" x="32.47" y="81.29" stroke="#B3867B" fill="#F00" class="color_Republican"/><use xlink:href="#b" x="37.57" y="62.87" stroke="#B3867B" fill="#F00" class="color_Republican"/><use xlink:href="#b" x="42.66" y="67.32" stroke="#B3867B" fill="#F00" class="color_Republican"/><use xlink:href="#b" x="47.75" y="57.92" stroke="#B3867B" fill="#F00" class="color_Republican"/><use xlink:href="#b" x="52.84" y="65.98" stroke="#B3867B" fill="#F00" class="color_Republican"/><use xlink:href="#b" x="57.94" y="66.4" stroke="#B3867B" fill="#F00" class="color_Republican"/><use xlink:href="#b" x="63.03" y="65.91" stroke="#B3867B" fill="#F00" class="color_Republican"/><use xlink:href="#b" x="68.12" y="62.95" stroke="#B3867B" fill="#F00" class="color_Republican"/><use xlink:href="#b" x="73.22" y="72.56" stroke="#B3867B" fill="#F00" class="color_Republican"/><use xlink:href="#b" x="78.31" y="66.85" stroke="#B3867B" fill="#F00" class="color_Republican"/><use xlink:href="#b" x="83.4" y="61.25" stroke="#B3867B" fill="#F00" class="color_Republican"/><use xlink:href="#b" x="88.49" y="49.18" stroke="#B3867B" fill="#F00" class="color_Republican"/><use xlink:href="#b" x="93.59" y="60.28" stroke="#B3867B" fill="#F00" class="color_Republican"/><use xlink:href="#b" x="98.68" y="92.63" stroke="#B3867B" fill="#F00" class="color_Republican"/><use xlink:href="#b" x="103.77" y="68.53" stroke="#B3867B" fill="#F00" class="color_Republican"/><use xlink:href="#b" x="108.87" y="56.32" stroke="#B3867B" fill="#F00" class="color_Republican"/><use xlink:href="#b" x="113.96" y="65.88" stroke="#B3867B" fill="#F00" class="color_Republican"/><use xlink:href="#b" x="119.05" y="52.18" stroke="#B3867B" fill="#F00" class="color_Republican"/><use xlink:href="#b" x="124.14" y="80.58" stroke="#B3867B" fill="#F00" class="color_Republican"/><use xlink:href="#b" x="129.24" y="88.12" stroke="#B3867B" fill="#F00" class="color_Republican"/><use xlink:href="#b" x="134.33" y="71.49" stroke="#B3867B" fill="#F00" class="color_Republican"/><use xlink:href="#b" x="139.42" y="70.12" stroke="#B3867B" fill="#F00" class="color_Republican"/><use xlink:href="#b" x="144.52" y="67.16" stroke="#B3867B" fill="#F00" class="color_Republican"/><use xlink:href="#b" x="149.61" y="55.96" stroke="#B3867B" fill="#F00" class="color_Republican"/><use xlink:href="#b" x="154.7" y="61.47" stroke="#B3867B" fill="#F00" class="color_Republican"/><use xlink:href="#b" x="159.79" y="64.27" stroke="#B3867B" fill="#F00" class="color_Republican"/><use xlink:href="#b" x="164.89" y="81.54" stroke="#B3867B" fill="#F00" class="color_Republican"/><use xlink:href="#b" x="169.98" y="67.11" stroke="#B3867B" fill="#F00" class="color_Republican"/><use xlink:href="#b" x="175.07" y="64.38" stroke="#B3867B" fill="#F00" class="color_Republican"/><use xlink:href="#b" x="180.17" y="69.24" stroke="#B3867B" fill="#F00" class="color_Republican"/><use xlink:href="#b" x="185.26" y="68.67" stroke="#B3867B" fill="#F00" class="color_Republican"/><use xlink:href="#b" x="190.35" y="60.79" stroke="#B3867B" fill="#F00" class="color_Republican"/><use xlink:href="#b" x="195.44" y="70.46" stroke="#B3867B" fill="#F00" class="color_Republican"/><use xlink:href="#b" x="200.54" y="85.11" stroke="#B3867B" fill="#F00" class="color_Republican"/><use xlink:href="#b" x="205.63" y="78.31" stroke="#B3867B" fill="#F00" class="color_Republican"/><use xlink:href="#b" x="210.72" y="70.55" stroke="#B3867B" fill="#F00" class="color_Republican"/><use xlink:href="#b" x="215.82" y="69.85" stroke="#B3867B" fill="#F00" class="color_Republican"/><use xlink:href="#b" x="220.91" y="76.92" stroke="#B3867B" fill="#F00" class="color_Republican"/><use xlink:href="#b" x="226" y="75.1" stroke="#B3867B" fill="#F00" class="color_Republican"/><use xlink:href="#b" x="32.47" y="89.84" stroke="#988BAD" fill="#00F" class="color_Democratic"/><use xlink:href="#b" x="37.57" y="70.99" stroke="#988BAD" fill="#00F" class="color_Democratic"/><use xlink:href="#b" x="42.66" y="66.55" stroke="#988BAD" fill="#00F" class="color_Democratic"/><use xlink:href="#b" x="47.75" y="78.97" stroke="#988BAD" fill="#00F" class="color_Democratic"/><use xlink:href="#b" x="52.84" y="69.66" stroke="#988BAD" fill="#00F" class="color_Democratic"/><use xlink:href="#b" x="57.94" y="68.1" stroke="#988BAD" fill="#00F" class="color_Democratic"/><use xlink:href="#b" x="63.03" y="70.36" stroke="#988BAD" fill="#00F" class="color_Democratic"/><use xlink:href="#b" x="68.12" y="74.34" stroke="#988BAD" fill="#00F" class="color_Democratic"/><use xlink:href="#b" x="73.22" y="100.07" stroke="#988BAD" fill="#00F" class="color_Democratic"/><use xlink:href="#b" x="78.31" y="69.03" stroke="#988BAD" fill="#00F" class="color_Democratic"/><use xlink:href="#b" x="83.4" y="77.95" stroke="#988BAD" fill="#00F" class="color_Democratic"/><use xlink:href="#b" x="88.49" y="98.73" stroke="#988BAD" fill="#00F" class="color_Democratic"/><use xlink:href="#b" x="93.59" y="83.25" stroke="#988BAD" fill="#00F" class="color_Democratic"/><use xlink:href="#b" x="98.68" y="83.22" stroke="#988BAD" fill="#00F" class="color_Democratic"/><use xlink:href="#b" x="103.77" y="71.2" stroke="#988BAD" fill="#00F" class="color_Democratic"/><use xlink:href="#b" x="108.87" y="84.05" stroke="#988BAD" fill="#00F" class="color_Democratic"/><use xlink:href="#b" x="113.96" y="93.79" stroke="#988BAD" fill="#00F" class="color_Democratic"/><use xlink:href="#b" x="119.05" y="83.43" stroke="#988BAD" fill="#00F" class="color_Democratic"/><use xlink:href="#b" x="124.14" y="58.62" stroke="#988BAD" fill="#00F" class="color_Democratic"/><use xlink:href="#b" x="129.24" y="51.92" stroke="#988BAD" fill="#00F" class="color_Democratic"/><use xlink:href="#b" x="134.33" y="63.08" stroke="#988BAD" fill="#00F" class="color_Democratic"/><use xlink:href="#b" x="139.42" y="65.08" stroke="#988BAD" fill="#00F" class="color_Democratic"/><use xlink:href="#b" x="144.52" y="70.68" stroke="#988BAD" fill="#00F" class="color_Democratic"/><use xlink:href="#b" x="149.61" y="78.45" stroke="#988BAD" fill="#00F" class="color_Democratic"/><use xlink:href="#b" x="154.7" y="72.39" stroke="#988BAD" fill="#00F" class="color_Democratic"/><use xlink:href="#b" x="159.79" y="69.72" stroke="#988BAD" fill="#00F" class="color_Democratic"/><use xlink:href="#b" x="164.89" y="52.66" stroke="#988BAD" fill="#00F" class="color_Democratic"/><use xlink:href="#b" x="169.98" y="73.4" stroke="#988BAD" fill="#00F" class="color_Democratic"/><use xlink:href="#b" x="175.07" y="74.92" stroke="#988BAD" fill="#00F" class="color_Democratic"/><use xlink:href="#b" x="180.17" y="69.41" stroke="#988BAD" fill="#00F" class="color_Democratic"/><use xlink:href="#b" x="185.26" y="78.72" stroke="#988BAD" fill="#00F" class="color_Democratic"/><use xlink:href="#b" x="190.35" y="73.45" stroke="#988BAD" fill="#00F" class="color_Democratic"/><use xlink:href="#b" x="195.44" y="65.6" stroke="#988BAD" fill="#00F" class="color_Democratic"/><use xlink:href="#b" x="200.54" y="74.76" stroke="#988BAD" fill="#00F" class="color_Democratic"/><use xlink:href="#b" x="205.63" y="69.89" stroke="#988BAD" fill="#00F" class="color_Democratic"/><use xlink:href="#b" x="210.72" y="70.1" stroke="#988BAD" fill="#00F" class="color_Democratic"/><use xlink:href="#b" x="215.82" y="65.53" stroke="#988BAD" fill="#00F" class="color_Democratic"/><use xlink:href="#b" x="220.91" y="59.91" stroke="#988BAD" fill="#00F" class="color_Democratic"/><use xlink:href="#b" x="226" y="62.52" stroke="#988BAD" fill="#00F" class="color_Democratic"/></g><g fill-opacity="0"><path fill="none" d="M32.47 89.84l5.1-18.85 5.09-4.44 5.09 12.42 5.09-9.31 5.1-1.56 5.09 2.26 5.09 3.98 5.1 25.73 5.09-31.04 5.09 8.92 5.09 20.78 5.1-15.48 5.09-.03 5.09-12.02 5.1 12.85 5.09 9.74 5.09-10.36 5.09-24.81 5.1-6.7 5.09 11.16 5.09 2 5.1 5.6 5.09 7.77 5.09-6.06 5.09-2.67 5.1-17.06 5.09 20.74 5.09 1.52 5.1-5.51 5.09 9.31 5.09-5.27 5.09-7.85 5.1 9.16 5.09-4.87 5.09.21 5.1-4.57 5.09-5.62 5.09 2.61" stroke="#00F" class="geometry color_Democratic"/><path fill="none" d="M32.47 81.29l5.1-18.42 5.09 4.45 5.09-9.4 5.09 8.06 5.1.42 5.09-.49 5.09-2.96 5.1 9.61 5.09-5.71 5.09-5.6 5.09-12.07 5.1 11.1 5.09 32.35 5.09-24.1 5.1-12.21 5.09 9.56 5.09-13.7 5.09 28.4 5.1 7.54 5.09-16.63 5.09-1.37 5.1-2.96 5.09-11.2 5.09 5.51 5.09 2.8 5.1 17.27 5.09-14.43 5.09-2.73 5.1 4.86 5.09-.57 5.09-7.88 5.09 9.67 5.1 14.65 5.09-6.8 5.09-7.76 5.1-.7 5.09 7.07L226 75.1" stroke="#F00" class="geometry color_Republican"/></g></g></g><g class="guide ylabels" font-size="4.76" font-family="'PT Sans Caption','Helvetica Neue','Helvetica',sans-serif" fill="#A1A1A1" text-anchor="end"><text x="24.38" y="118.95" dy=".35em">0</text><text x="24.38" y="92.94" dy=".35em">25</text><text x="24.38" y="66.93" dy=".35em">50</text><text x="24.38" y="40.92" dy=".35em">75</text><text x="24.38" y="14.91" dy=".35em">100</text></g><text x="9.95" y="64.93" text-anchor="middle" dy=".35em" transform="rotate(-90 9.95 66.93)" font-size="6.35" font-family="'PT Sans','Helvetica Neue','Helvetica',sans-serif" fill="#A1A1A1" stroke="#000" stroke-opacity="0">Popular Vote (%)</text><text x="129.24" y="5" text-anchor="middle" dy=".6em" font-size="6.35" font-family="'PT Sans','Helvetica Neue','Helvetica',sans-serif" fill="#A1A1A1" stroke="#000" stroke-opacity="0">Oregon</text></g><defs><clipPath id="a"><path d="M25.38 12.91H233.1v108.04H25.38"/></clipPath><circle r=".9" id="b"/></defs></svg>