<?xml version="1.0" encoding="UTF-8"?>
<svg xmlns="http://www.w3.org/2000/svg"
     xmlns:xlink="http://www.w3.org/1999/xlink"
     xmlns:gadfly="http://www.gadflyjl.org/ns"
     version="1.2"
     width="320mm" height="160mm" viewBox="0 0 320 160"
     stroke="none"
     fill="#000000"
     stroke-width="0.3"
     font-size="3.88"
>
<g class="plotroot xscalable yscalable" id="img-613791e6-1">
  <g class="guide colorkey" id="img-613791e6-2">
    <g class="color_Democratic" id="img-613791e6-3">
      <g fill="#FFFFFF" font-size="4.76" font-family="'PT Sans','Helvetica Neue','Helvetica',sans-serif" id="img-613791e6-4">
        <text x="58.33" y="149.82" dy="0.35em">Democratic</text>
      </g>
      <g fill="#0000FF" stroke="#000000" stroke-opacity="0.000" id="img-613791e6-5">
        <rect x="54.36" y="148.34" width="2.97" height="2.97"/>
      </g>
    </g>
    <g class="color_Republican" id="img-613791e6-6">
      <g fill="#FFFFFF" font-size="4.76" font-family="'PT Sans','Helvetica Neue','Helvetica',sans-serif" id="img-613791e6-7">
        <text x="29.73" y="149.82" dy="0.35em">Republican</text>
      </g>
      <g fill="#FF0000" stroke="#000000" stroke-opacity="0.000" id="img-613791e6-8">
        <rect x="25.76" y="148.34" width="2.97" height="2.97"/>
      </g>
    </g>
    <g fill="#FFFFFF" font-size="6.35" font-family="'PT Sans','Helvetica Neue','Helvetica',sans-serif" stroke="#000000" stroke-opacity="0.000" id="img-613791e6-9">
      <text x="25.76" y="145.06">Party</text>
    </g>
  </g>
  <g font-size="6.35" font-family="'PT Sans','Helvetica Neue','Helvetica',sans-serif" fill="#FFFFFF" stroke="#000000" stroke-opacity="0.000" id="img-613791e6-10">
    <text x="169.88" y="130.77" text-anchor="middle" dy="0.6em">Year</text>
  </g>
  <g class="guide xlabels" font-size="4.76" font-family="'PT Sans Caption','Helvetica Neue','Helvetica',sans-serif" fill="#FFFFFF" id="img-613791e6-11">
    <text x="26.76" y="122.89" text-anchor="middle" dy="0.6em">1856</text>
    <text x="48.23" y="122.89" text-anchor="middle" dy="0.6em">1868</text>
    <text x="69.69" y="122.89" text-anchor="middle" dy="0.6em">1880</text>
    <text x="91.16" y="122.89" text-anchor="middle" dy="0.6em">1892</text>
    <text x="112.63" y="122.89" text-anchor="middle" dy="0.6em">1904</text>
    <text x="134.1" y="122.89" text-anchor="middle" dy="0.6em">1916</text>
    <text x="155.57" y="122.89" text-anchor="middle" dy="0.6em">1928</text>
    <text x="177.04" y="122.89" text-anchor="middle" dy="0.6em">1940</text>
    <text x="198.5" y="122.89" text-anchor="middle" dy="0.6em">1952</text>
    <text x="219.97" y="122.89" text-anchor="middle" dy="0.6em">1964</text>
    <text x="241.44" y="122.89" text-anchor="middle" dy="0.6em">1976</text>
    <text x="262.91" y="122.89" text-anchor="middle" dy="0.6em">1988</text>
    <text x="284.38" y="122.89" text-anchor="middle" dy="0.6em">2000</text>
    <text x="305.84" y="122.89" text-anchor="middle" dy="0.6em">2012</text>
  </g>
<g clip-path="url(#img-613791e6-12)">
  <g id="img-613791e6-13">
    <g pointer-events="visible" opacity="1" fill="#000000" fill-opacity="0.000" stroke="#000000" stroke-opacity="0.000" class="guide background" id="img-613791e6-14">
      <rect x="24.76" y="15.35" width="290.24" height="106.54"/>
    </g>
    <g class="guide ygridlines xfixed" stroke-dasharray="0.5,0.5" stroke-width="0.26" stroke="#FFFFFF" id="img-613791e6-15">
      <path fill="none" d="M24.76,119.89 L 315 119.89"/>
      <path fill="none" d="M24.76,94.26 L 315 94.26"/>
      <path fill="none" d="M24.76,68.62 L 315 68.62"/>
      <path fill="none" d="M24.76,42.99 L 315 42.99"/>
      <path fill="none" d="M24.76,17.35 L 315 17.35"/>
    </g>
    <g class="guide xgridlines yfixed" stroke-dasharray="0.5,0.5" stroke-width="0.26" stroke="#FFFFFF" id="img-613791e6-16">
      <path fill="none" d="M26.76,15.35 L 26.76 121.89"/>
      <path fill="none" d="M48.23,15.35 L 48.23 121.89"/>
      <path fill="none" d="M69.69,15.35 L 69.69 121.89"/>
      <path fill="none" d="M91.16,15.35 L 91.16 121.89"/>
      <path fill="none" d="M112.63,15.35 L 112.63 121.89"/>
      <path fill="none" d="M134.1,15.35 L 134.1 121.89"/>
      <path fill="none" d="M155.57,15.35 L 155.57 121.89"/>
      <path fill="none" d="M177.04,15.35 L 177.04 121.89"/>
      <path fill="none" d="M198.5,15.35 L 198.5 121.89"/>
      <path fill="none" d="M219.97,15.35 L 219.97 121.89"/>
      <path fill="none" d="M241.44,15.35 L 241.44 121.89"/>
      <path fill="none" d="M262.91,15.35 L 262.91 121.89"/>
      <path fill="none" d="M284.38,15.35 L 284.38 121.89"/>
      <path fill="none" d="M305.84,15.35 L 305.84 121.89"/>
    </g>
    <g class="plotpanel" id="img-613791e6-17">
      <g class="geometry" id="img-613791e6-18">
        <g stroke-width="0.3" id="img-613791e6-19">
          <use xlink:href="#img-613791e6-20" x="33.91" y="82.77" stroke="#FFFFFF" fill="#FF0000" class="color_Republican"/>
          <use xlink:href="#img-613791e6-20" x="41.07" y="64.62" stroke="#FFFFFF" fill="#FF0000" class="color_Republican"/>
          <use xlink:href="#img-613791e6-20" x="48.23" y="69" stroke="#FFFFFF" fill="#FF0000" class="color_Republican"/>
          <use xlink:href="#img-613791e6-20" x="55.38" y="59.74" stroke="#FFFFFF" fill="#FF0000" class="color_Republican"/>
          <use xlink:href="#img-613791e6-20" x="62.54" y="67.68" stroke="#FFFFFF" fill="#FF0000" class="color_Republican"/>
          <use xlink:href="#img-613791e6-20" x="69.69" y="68.1" stroke="#FFFFFF" fill="#FF0000" class="color_Republican"/>
          <use xlink:href="#img-613791e6-20" x="76.85" y="67.61" stroke="#FFFFFF" fill="#FF0000" class="color_Republican"/>
          <use xlink:href="#img-613791e6-20" x="84.01" y="64.7" stroke="#FFFFFF" fill="#FF0000" class="color_Republican"/>
          <use xlink:href="#img-613791e6-20" x="91.16" y="74.16" stroke="#FFFFFF" fill="#FF0000" class="color_Republican"/>
          <use xlink:href="#img-613791e6-20" x="98.32" y="68.55" stroke="#FFFFFF" fill="#FF0000" class="color_Republican"/>
          <use xlink:href="#img-613791e6-20" x="105.47" y="63.02" stroke="#FFFFFF" fill="#FF0000" class="color_Republican"/>
          <use xlink:href="#img-613791e6-20" x="112.63" y="51.13" stroke="#FFFFFF" fill="#FF0000" class="color_Republican"/>
          <use xlink:href="#img-613791e6-20" x="119.79" y="62.07" stroke="#FFFFFF" fill="#FF0000" class="color_Republican"/>
          <use xlink:href="#img-613791e6-20" x="126.94" y="93.95" stroke="#FFFFFF" fill="#FF0000" class="color_Republican"/>
          <use xlink:href="#img-613791e6-20" x="134.1" y="70.19" stroke="#FFFFFF" fill="#FF0000" class="color_Republican"/>
          <use xlink:href="#img-613791e6-20" x="141.25" y="58.16" stroke="#FFFFFF" fill="#FF0000" class="color_Republican"/>
          <use xlink:href="#img-613791e6-20" x="148.41" y="67.58" stroke="#FFFFFF" fill="#FF0000" class="color_Republican"/>
          <use xlink:href="#img-613791e6-20" x="155.57" y="54.08" stroke="#FFFFFF" fill="#FF0000" class="color_Republican"/>
          <use xlink:href="#img-613791e6-20" x="162.72" y="82.07" stroke="#FFFFFF" fill="#FF0000" class="color_Republican"/>
          <use xlink:href="#img-613791e6-20" x="169.88" y="89.5" stroke="#FFFFFF" fill="#FF0000" class="color_Republican"/>
          <use xlink:href="#img-613791e6-20" x="177.04" y="73.11" stroke="#FFFFFF" fill="#FF0000" class="color_Republican"/>
          <use xlink:href="#img-613791e6-20" x="184.19" y="71.76" stroke="#FFFFFF" fill="#FF0000" class="color_Republican"/>
          <use xlink:href="#img-613791e6-20" x="191.35" y="68.84" stroke="#FFFFFF" fill="#FF0000" class="color_Republican"/>
          <use xlink:href="#img-613791e6-20" x="198.5" y="57.81" stroke="#FFFFFF" fill="#FF0000" class="color_Republican"/>
          <use xlink:href="#img-613791e6-20" x="205.66" y="63.24" stroke="#FFFFFF" fill="#FF0000" class="color_Republican"/>
          <use xlink:href="#img-613791e6-20" x="212.82" y="66" stroke="#FFFFFF" fill="#FF0000" class="color_Republican"/>
          <use xlink:href="#img-613791e6-20" x="219.97" y="83.01" stroke="#FFFFFF" fill="#FF0000" class="color_Republican"/>
          <use xlink:href="#img-613791e6-20" x="227.13" y="68.79" stroke="#FFFFFF" fill="#FF0000" class="color_Republican"/>
          <use xlink:href="#img-613791e6-20" x="234.28" y="66.11" stroke="#FFFFFF" fill="#FF0000" class="color_Republican"/>
          <use xlink:href="#img-613791e6-20" x="241.44" y="70.89" stroke="#FFFFFF" fill="#FF0000" class="color_Republican"/>
          <use xlink:href="#img-613791e6-20" x="248.6" y="70.33" stroke="#FFFFFF" fill="#FF0000" class="color_Republican"/>
          <use xlink:href="#img-613791e6-20" x="255.75" y="62.56" stroke="#FFFFFF" fill="#FF0000" class="color_Republican"/>
          <use xlink:href="#img-613791e6-20" x="262.91" y="72.1" stroke="#FFFFFF" fill="#FF0000" class="color_Republican"/>
          <use xlink:href="#img-613791e6-20" x="270.06" y="86.54" stroke="#FFFFFF" fill="#FF0000" class="color_Republican"/>
          <use xlink:href="#img-613791e6-20" x="277.22" y="79.84" stroke="#FFFFFF" fill="#FF0000" class="color_Republican"/>
          <use xlink:href="#img-613791e6-20" x="284.38" y="72.19" stroke="#FFFFFF" fill="#FF0000" class="color_Republican"/>
          <use xlink:href="#img-613791e6-20" x="291.53" y="71.5" stroke="#FFFFFF" fill="#FF0000" class="color_Republican"/>
          <use xlink:href="#img-613791e6-20" x="298.69" y="78.46" stroke="#FFFFFF" fill="#FF0000" class="color_Republican"/>
          <use xlink:href="#img-613791e6-20" x="305.84" y="76.67" stroke="#FFFFFF" fill="#FF0000" class="color_Republican"/>
          <use xlink:href="#img-613791e6-20" x="33.91" y="91.19" stroke="#FFFFFF" fill="#0000FF" class="color_Democratic"/>
          <use xlink:href="#img-613791e6-20" x="41.07" y="72.62" stroke="#FFFFFF" fill="#0000FF" class="color_Democratic"/>
          <use xlink:href="#img-613791e6-20" x="48.23" y="68.24" stroke="#FFFFFF" fill="#0000FF" class="color_Democratic"/>
          <use xlink:href="#img-613791e6-20" x="55.38" y="80.49" stroke="#FFFFFF" fill="#0000FF" class="color_Democratic"/>
          <use xlink:href="#img-613791e6-20" x="62.54" y="71.31" stroke="#FFFFFF" fill="#0000FF" class="color_Democratic"/>
          <use xlink:href="#img-613791e6-20" x="69.69" y="69.77" stroke="#FFFFFF" fill="#0000FF" class="color_Democratic"/>
          <use xlink:href="#img-613791e6-20" x="76.85" y="72" stroke="#FFFFFF" fill="#0000FF" class="color_Democratic"/>
          <use xlink:href="#img-613791e6-20" x="84.01" y="75.92" stroke="#FFFFFF" fill="#0000FF" class="color_Democratic"/>
          <use xlink:href="#img-613791e6-20" x="91.16" y="101.28" stroke="#FFFFFF" fill="#0000FF" class="color_Democratic"/>
          <use xlink:href="#img-613791e6-20" x="98.32" y="70.69" stroke="#FFFFFF" fill="#0000FF" class="color_Democratic"/>
          <use xlink:href="#img-613791e6-20" x="105.47" y="79.48" stroke="#FFFFFF" fill="#0000FF" class="color_Democratic"/>
          <use xlink:href="#img-613791e6-20" x="112.63" y="99.96" stroke="#FFFFFF" fill="#0000FF" class="color_Democratic"/>
          <use xlink:href="#img-613791e6-20" x="119.79" y="84.71" stroke="#FFFFFF" fill="#0000FF" class="color_Democratic"/>
          <use xlink:href="#img-613791e6-20" x="126.94" y="84.68" stroke="#FFFFFF" fill="#0000FF" class="color_Democratic"/>
          <use xlink:href="#img-613791e6-20" x="134.1" y="72.83" stroke="#FFFFFF" fill="#0000FF" class="color_Democratic"/>
          <use xlink:href="#img-613791e6-20" x="141.25" y="85.49" stroke="#FFFFFF" fill="#0000FF" class="color_Democratic"/>
          <use xlink:href="#img-613791e6-20" x="148.41" y="95.09" stroke="#FFFFFF" fill="#0000FF" class="color_Democratic"/>
          <use xlink:href="#img-613791e6-20" x="155.57" y="84.89" stroke="#FFFFFF" fill="#0000FF" class="color_Democratic"/>
          <use xlink:href="#img-613791e6-20" x="162.72" y="60.43" stroke="#FFFFFF" fill="#0000FF" class="color_Democratic"/>
          <use xlink:href="#img-613791e6-20" x="169.88" y="53.83" stroke="#FFFFFF" fill="#0000FF" class="color_Democratic"/>
          <use xlink:href="#img-613791e6-20" x="177.04" y="64.83" stroke="#FFFFFF" fill="#0000FF" class="color_Democratic"/>
          <use xlink:href="#img-613791e6-20" x="184.19" y="66.79" stroke="#FFFFFF" fill="#0000FF" class="color_Democratic"/>
          <use xlink:href="#img-613791e6-20" x="191.35" y="72.32" stroke="#FFFFFF" fill="#0000FF" class="color_Democratic"/>
          <use xlink:href="#img-613791e6-20" x="198.5" y="79.97" stroke="#FFFFFF" fill="#0000FF" class="color_Democratic"/>
          <use xlink:href="#img-613791e6-20" x="205.66" y="74" stroke="#FFFFFF" fill="#0000FF" class="color_Democratic"/>
          <use xlink:href="#img-613791e6-20" x="212.82" y="71.37" stroke="#FFFFFF" fill="#0000FF" class="color_Democratic"/>
          <use xlink:href="#img-613791e6-20" x="219.97" y="54.55" stroke="#FFFFFF" fill="#0000FF" class="color_Democratic"/>
          <use xlink:href="#img-613791e6-20" x="227.13" y="74.99" stroke="#FFFFFF" fill="#0000FF" class="color_Democratic"/>
          <use xlink:href="#img-613791e6-20" x="234.28" y="76.49" stroke="#FFFFFF" fill="#0000FF" class="color_Democratic"/>
          <use xlink:href="#img-613791e6-20" x="241.44" y="71.06" stroke="#FFFFFF" fill="#0000FF" class="color_Democratic"/>
          <use xlink:href="#img-613791e6-20" x="248.6" y="80.24" stroke="#FFFFFF" fill="#0000FF" class="color_Democratic"/>
          <use xlink:href="#img-613791e6-20" x="255.75" y="75.04" stroke="#FFFFFF" fill="#0000FF" class="color_Democratic"/>
          <use xlink:href="#img-613791e6-20" x="262.91" y="67.31" stroke="#FFFFFF" fill="#0000FF" class="color_Democratic"/>
          <use xlink:href="#img-613791e6-20" x="270.06" y="76.33" stroke="#FFFFFF" fill="#0000FF" class="color_Democratic"/>
          <use xlink:href="#img-613791e6-20" x="277.22" y="71.54" stroke="#FFFFFF" fill="#0000FF" class="color_Democratic"/>
          <use xlink:href="#img-613791e6-20" x="284.38" y="71.74" stroke="#FFFFFF" fill="#0000FF" class="color_Democratic"/>
          <use xlink:href="#img-613791e6-20" x="291.53" y="67.24" stroke="#FFFFFF" fill="#0000FF" class="color_Democratic"/>
          <use xlink:href="#img-613791e6-20" x="298.69" y="61.7" stroke="#FFFFFF" fill="#0000FF" class="color_Democratic"/>
          <use xlink:href="#img-613791e6-20" x="305.84" y="64.27" stroke="#FFFFFF" fill="#0000FF" class="color_Democratic"/>
        </g>
      </g>
      <g stroke-width="0.53" fill="#000000" fill-opacity="0.000" stroke-dasharray="none" id="img-613791e6-21">
        <path fill="none" d="M33.91,91.19 L 41.07 72.62 48.23 68.24 55.38 80.49 62.54 71.31 69.69 69.77 76.85 72 84.01 75.92 91.16 101.28 98.32 70.69 105.47 79.48 112.63 99.96 119.79 84.71 126.94 84.68 134.1 72.83 141.25 85.49 148.41 95.09 155.57 84.89 162.72 60.43 169.88 53.83 177.04 64.83 184.19 66.79 191.35 72.32 198.5 79.97 205.66 74 212.82 71.37 219.97 54.55 227.13 74.99 234.28 76.49 241.44 71.06 248.6 80.24 255.75 75.04 262.91 67.31 270.06 76.33 277.22 71.54 284.38 71.74 291.53 67.24 298.69 61.7 305.84 64.27" stroke="#0000FF" class="geometry color_Democratic"/>
        <path fill="none" d="M33.91,82.77 L 41.07 64.62 48.23 69 55.38 59.74 62.54 67.68 69.69 68.1 76.85 67.61 84.01 64.7 91.16 74.16 98.32 68.55 105.47 63.02 112.63 51.13 119.79 62.07 126.94 93.95 134.1 70.19 141.25 58.16 148.41 67.58 155.57 54.08 162.72 82.07 169.88 89.5 177.04 73.11 184.19 71.76 191.35 68.84 198.5 57.81 205.66 63.24 212.82 66 219.97 83.01 227.13 68.79 234.28 66.11 241.44 70.89 248.6 70.33 255.75 62.56 262.91 72.1 270.06 86.54 277.22 79.84 284.38 72.19 291.53 71.5 298.69 78.46 305.84 76.67" stroke="#FF0000" class="geometry color_Republican"/>
      </g>
    </g>
  </g>
</g>
  <g class="guide ylabels" font-size="4.76" font-family="'PT Sans Caption','Helvetica Neue','Helvetica',sans-serif" fill="#FFFFFF" id="img-613791e6-22">
    <text x="23.76" y="119.89" text-anchor="end" dy="0.35em">0</text>
    <text x="23.76" y="94.26" text-anchor="end" dy="0.35em">25</text>
    <text x="23.76" y="68.62" text-anchor="end" dy="0.35em">50</text>
    <text x="23.76" y="42.99" text-anchor="end" dy="0.35em">75</text>
    <text x="23.76" y="17.35" text-anchor="end" dy="0.35em">100</text>
  </g>
  <g font-size="6.35" font-family="'PT Sans','Helvetica Neue','Helvetica',sans-serif" fill="#FFFFFF" stroke="#000000" stroke-opacity="0.000" id="img-613791e6-23">
    <text x="10.18" y="66.62" text-anchor="middle" dy="0.35em" transform="rotate(-90, 10.18, 68.62)">Popular Vote (%)</text>
  </g>
  <g font-size="6.35" font-family="'PT Sans','Helvetica Neue','Helvetica',sans-serif" fill="#FFFFFF" stroke="#000000" stroke-opacity="0.000" id="img-613791e6-24">
    <text x="169.88" y="13.35" text-anchor="middle">Oregon</text>
  </g>
</g>
<defs>
  <clipPath id="img-613791e6-12">
  <path d="M24.76,15.35 L 315 15.35 315 121.89 24.76 121.89" />
</clipPath>
  <g id="img-613791e6-20">
    <circle cx="0" cy="0" r="0.9"/>
  </g>
</defs>
</svg>
