<?xml version="1.0" encoding="UTF-8"?>
<svg xmlns="http://www.w3.org/2000/svg"
     xmlns:xlink="http://www.w3.org/1999/xlink"
     xmlns:gadfly="http://www.gadflyjl.org/ns"
     version="1.2"
     width="238.1mm" height="158.73mm" viewBox="0 0 238.1 158.73"
     stroke="none"
     fill="#000000"
     stroke-width="0.3"
     font-size="3.88"
>
<g stroke="#000000" stroke-opacity="0.000" fill="#222831" id="img-35f95015-1">
  <rect x="0" y="0" width="238.1" height="158.73"/>
</g>
<g class="plotroot xscalable yscalable" id="img-35f95015-2">
  <g class="guide colorkey" id="img-35f95015-3">
    <g class="color_Democratic" id="img-35f95015-4">
      <g fill="#A1A1A1" font-size="3.7" font-family="'PT Sans','Helvetica Neue','Helvetica',sans-serif" id="img-35f95015-5">
        <text x="51.52" y="148.78" dy="0.35em">Democratic</text>
      </g>
      <g fill="#0000FF" stroke="#000000" stroke-opacity="0.000" id="img-35f95015-6">
        <rect x="48.29" y="147.66" width="2.22" height="2.22"/>
      </g>
    </g>
    <g class="color_Republican" id="img-35f95015-7">
      <g fill="#A1A1A1" font-size="3.7" font-family="'PT Sans','Helvetica Neue','Helvetica',sans-serif" id="img-35f95015-8">
        <text x="29.6" y="148.78" dy="0.35em">Republican</text>
      </g>
      <g fill="#FF0000" stroke="#000000" stroke-opacity="0.000" id="img-35f95015-9">
        <rect x="26.38" y="147.66" width="2.22" height="2.22"/>
      </g>
    </g>
    <g fill="#A1A1A1" font-size="6.35" font-family="'PT Sans','Helvetica Neue','Helvetica',sans-serif" stroke="#000000" stroke-opacity="0.000" id="img-35f95015-10">
      <text x="26.38" y="145.28">Party</text>
    </g>
  </g>
  <g font-size="6.35" font-family="'PT Sans','Helvetica Neue','Helvetica',sans-serif" fill="#A1A1A1" stroke="#000000" stroke-opacity="0.000" id="img-35f95015-11">
    <text x="129.24" y="130.46" text-anchor="middle" dy="0.6em">Year</text>
  </g>
  <g class="guide xlabels" font-size="4.76" font-family="'PT Sans Caption','Helvetica Neue','Helvetica',sans-serif" fill="#A1A1A1" id="img-35f95015-12">
    <text x="27.38" y="121.95" text-anchor="middle" dy="0.6em">1824</text>
    <text x="40.11" y="121.95" text-anchor="middle" dy="0.6em">1836</text>
    <text x="52.84" y="121.95" text-anchor="middle" dy="0.6em">1848</text>
    <text x="65.58" y="121.95" text-anchor="middle" dy="0.6em">1860</text>
    <text x="78.31" y="121.95" text-anchor="middle" dy="0.6em">1872</text>
    <text x="91.04" y="121.95" text-anchor="middle" dy="0.6em">1884</text>
    <text x="103.77" y="121.95" text-anchor="middle" dy="0.6em">1896</text>
    <text x="116.51" y="121.95" text-anchor="middle" dy="0.6em">1908</text>
    <text x="129.24" y="121.95" text-anchor="middle" dy="0.6em">1920</text>
    <text x="141.97" y="121.95" text-anchor="middle" dy="0.6em">1932</text>
    <text x="154.7" y="121.95" text-anchor="middle" dy="0.6em">1944</text>
    <text x="167.43" y="121.95" text-anchor="middle" dy="0.6em">1956</text>
    <text x="180.17" y="121.95" text-anchor="middle" dy="0.6em">1968</text>
    <text x="192.9" y="121.95" text-anchor="middle" dy="0.6em">1980</text>
    <text x="205.63" y="121.95" text-anchor="middle" dy="0.6em">1992</text>
    <text x="218.36" y="121.95" text-anchor="middle" dy="0.6em">2004</text>
    <text x="231.1" y="121.95" text-anchor="middle" dy="0.6em">2016</text>
  </g>
<g clip-path="url(#img-35f95015-13)">
  <g id="img-35f95015-14">
    <g pointer-events="visible" opacity="1" fill="#222831" stroke="#000000" stroke-opacity="0.000" class="guide background" id="img-35f95015-15">
      <rect x="25.38" y="12.91" width="207.72" height="108.04"/>
    </g>
    <g class="guide ygridlines xfixed" stroke-dasharray="0.5,0.5" stroke-width="0.2" stroke="#575757" id="img-35f95015-16">
      <path fill="none" d="M25.38,118.95 L 233.1 118.95"/>
      <path fill="none" d="M25.38,92.94 L 233.1 92.94"/>
      <path fill="none" d="M25.38,66.93 L 233.1 66.93"/>
      <path fill="none" d="M25.38,40.92 L 233.1 40.92"/>
      <path fill="none" d="M25.38,14.91 L 233.1 14.91"/>
    </g>
    <g class="guide xgridlines yfixed" stroke-dasharray="0.5,0.5" stroke-width="0.2" stroke="#575757" id="img-35f95015-17">
      <path fill="none" d="M27.38,12.91 L 27.38 120.95"/>
      <path fill="none" d="M40.11,12.91 L 40.11 120.95"/>
      <path fill="none" d="M52.84,12.91 L 52.84 120.95"/>
      <path fill="none" d="M65.58,12.91 L 65.58 120.95"/>
      <path fill="none" d="M78.31,12.91 L 78.31 120.95"/>
      <path fill="none" d="M91.04,12.91 L 91.04 120.95"/>
      <path fill="none" d="M103.77,12.91 L 103.77 120.95"/>
      <path fill="none" d="M116.51,12.91 L 116.51 120.95"/>
      <path fill="none" d="M129.24,12.91 L 129.24 120.95"/>
      <path fill="none" d="M141.97,12.91 L 141.97 120.95"/>
      <path fill="none" d="M154.7,12.91 L 154.7 120.95"/>
      <path fill="none" d="M167.43,12.91 L 167.43 120.95"/>
      <path fill="none" d="M180.17,12.91 L 180.17 120.95"/>
      <path fill="none" d="M192.9,12.91 L 192.9 120.95"/>
      <path fill="none" d="M205.63,12.91 L 205.63 120.95"/>
      <path fill="none" d="M218.36,12.91 L 218.36 120.95"/>
      <path fill="none" d="M231.1,12.91 L 231.1 120.95"/>
    </g>
    <g class="plotpanel" id="img-35f95015-18">
      <g class="geometry" id="img-35f95015-19">
        <g stroke-width="0.3" id="img-35f95015-20">
          <use xlink:href="#img-35f95015-21" x="65.58" y="65.64" stroke="#B3867B" fill="#FF0000" class="color_Republican"/>
          <use xlink:href="#img-35f95015-21" x="69.82" y="60.3" stroke="#B3867B" fill="#FF0000" class="color_Republican"/>
          <use xlink:href="#img-35f95015-21" x="74.06" y="62.77" stroke="#B3867B" fill="#FF0000" class="color_Republican"/>
          <use xlink:href="#img-35f95015-21" x="78.31" y="63.56" stroke="#B3867B" fill="#FF0000" class="color_Republican"/>
          <use xlink:href="#img-35f95015-21" x="82.55" y="66.71" stroke="#B3867B" fill="#FF0000" class="color_Republican"/>
          <use xlink:href="#img-35f95015-21" x="86.8" y="65.13" stroke="#B3867B" fill="#FF0000" class="color_Republican"/>
          <use xlink:href="#img-35f95015-21" x="91.04" y="65.9" stroke="#B3867B" fill="#FF0000" class="color_Republican"/>
          <use xlink:href="#img-35f95015-21" x="95.28" y="67.44" stroke="#B3867B" fill="#FF0000" class="color_Republican"/>
          <use xlink:href="#img-35f95015-21" x="99.53" y="69.37" stroke="#B3867B" fill="#FF0000" class="color_Republican"/>
          <use xlink:href="#img-35f95015-21" x="103.77" y="65" stroke="#B3867B" fill="#FF0000" class="color_Republican"/>
          <use xlink:href="#img-35f95015-21" x="108.02" y="64.54" stroke="#B3867B" fill="#FF0000" class="color_Republican"/>
          <use xlink:href="#img-35f95015-21" x="112.26" y="56.79" stroke="#B3867B" fill="#FF0000" class="color_Republican"/>
          <use xlink:href="#img-35f95015-21" x="116.51" y="65.86" stroke="#B3867B" fill="#FF0000" class="color_Republican"/>
          <use xlink:href="#img-35f95015-21" x="120.75" y="91.05" stroke="#B3867B" fill="#FF0000" class="color_Republican"/>
          <use xlink:href="#img-35f95015-21" x="124.99" y="72.99" stroke="#B3867B" fill="#FF0000" class="color_Republican"/>
          <use xlink:href="#img-35f95015-21" x="129.24" y="58.12" stroke="#B3867B" fill="#FF0000" class="color_Republican"/>
          <use xlink:href="#img-35f95015-21" x="133.48" y="58.26" stroke="#B3867B" fill="#FF0000" class="color_Republican"/>
          <use xlink:href="#img-35f95015-21" x="137.73" y="51.44" stroke="#B3867B" fill="#FF0000" class="color_Republican"/>
          <use xlink:href="#img-35f95015-21" x="141.97" y="70.02" stroke="#B3867B" fill="#FF0000" class="color_Republican"/>
          <use xlink:href="#img-35f95015-21" x="146.21" y="80" stroke="#B3867B" fill="#FF0000" class="color_Republican"/>
          <use xlink:href="#img-35f95015-21" x="150.46" y="69.23" stroke="#B3867B" fill="#FF0000" class="color_Republican"/>
          <use xlink:href="#img-35f95015-21" x="154.7" y="66.74" stroke="#B3867B" fill="#FF0000" class="color_Republican"/>
          <use xlink:href="#img-35f95015-21" x="158.95" y="67.72" stroke="#B3867B" fill="#FF0000" class="color_Republican"/>
          <use xlink:href="#img-35f95015-21" x="163.19" y="59.9" stroke="#B3867B" fill="#FF0000" class="color_Republican"/>
          <use xlink:href="#img-35f95015-21" x="167.43" y="55.37" stroke="#B3867B" fill="#FF0000" class="color_Republican"/>
          <use xlink:href="#img-35f95015-21" x="171.68" y="63.51" stroke="#B3867B" fill="#FF0000" class="color_Republican"/>
          <use xlink:href="#img-35f95015-21" x="175.92" y="80.4" stroke="#B3867B" fill="#FF0000" class="color_Republican"/>
          <use xlink:href="#img-35f95015-21" x="180.17" y="71.89" stroke="#B3867B" fill="#FF0000" class="color_Republican"/>
          <use xlink:href="#img-35f95015-21" x="184.41" y="56.91" stroke="#B3867B" fill="#FF0000" class="color_Republican"/>
          <use xlink:href="#img-35f95015-21" x="188.65" y="68.33" stroke="#B3867B" fill="#FF0000" class="color_Republican"/>
          <use xlink:href="#img-35f95015-21" x="192.9" y="65.36" stroke="#B3867B" fill="#FF0000" class="color_Republican"/>
          <use xlink:href="#img-35f95015-21" x="197.14" y="57.67" stroke="#B3867B" fill="#FF0000" class="color_Republican"/>
          <use xlink:href="#img-35f95015-21" x="201.39" y="61.73" stroke="#B3867B" fill="#FF0000" class="color_Republican"/>
          <use xlink:href="#img-35f95015-21" x="205.63" y="79.06" stroke="#B3867B" fill="#FF0000" class="color_Republican"/>
          <use xlink:href="#img-35f95015-21" x="209.87" y="76.28" stroke="#B3867B" fill="#FF0000" class="color_Republican"/>
          <use xlink:href="#img-35f95015-21" x="214.12" y="66.97" stroke="#B3867B" fill="#FF0000" class="color_Republican"/>
          <use xlink:href="#img-35f95015-21" x="218.36" y="66.08" stroke="#B3867B" fill="#FF0000" class="color_Republican"/>
          <use xlink:href="#img-35f95015-21" x="222.61" y="70.26" stroke="#B3867B" fill="#FF0000" class="color_Republican"/>
          <use xlink:href="#img-35f95015-21" x="226.85" y="69.43" stroke="#B3867B" fill="#FF0000" class="color_Republican"/>
          <use xlink:href="#img-35f95015-21" x="31.62" y="65.26" stroke="#988BAD" fill="#0000FF" class="color_Democratic"/>
          <use xlink:href="#img-35f95015-21" x="35.87" y="65.55" stroke="#988BAD" fill="#0000FF" class="color_Democratic"/>
          <use xlink:href="#img-35f95015-21" x="40.11" y="69.47" stroke="#988BAD" fill="#0000FF" class="color_Democratic"/>
          <use xlink:href="#img-35f95015-21" x="44.36" y="71.54" stroke="#988BAD" fill="#0000FF" class="color_Democratic"/>
          <use xlink:href="#img-35f95015-21" x="48.6" y="69.28" stroke="#988BAD" fill="#0000FF" class="color_Democratic"/>
          <use xlink:href="#img-35f95015-21" x="52.84" y="69.93" stroke="#988BAD" fill="#0000FF" class="color_Democratic"/>
          <use xlink:href="#img-35f95015-21" x="57.09" y="69.19" stroke="#988BAD" fill="#0000FF" class="color_Democratic"/>
          <use xlink:href="#img-35f95015-21" x="61.33" y="72.95" stroke="#988BAD" fill="#0000FF" class="color_Democratic"/>
          <use xlink:href="#img-35f95015-21" x="65.58" y="73.9" stroke="#988BAD" fill="#0000FF" class="color_Democratic"/>
          <use xlink:href="#img-35f95015-21" x="69.82" y="73.56" stroke="#988BAD" fill="#0000FF" class="color_Democratic"/>
          <use xlink:href="#img-35f95015-21" x="74.06" y="71.1" stroke="#988BAD" fill="#0000FF" class="color_Democratic"/>
          <use xlink:href="#img-35f95015-21" x="78.31" y="70.94" stroke="#988BAD" fill="#0000FF" class="color_Democratic"/>
          <use xlink:href="#img-35f95015-21" x="82.55" y="67.9" stroke="#988BAD" fill="#0000FF" class="color_Democratic"/>
          <use xlink:href="#img-35f95015-21" x="86.8" y="70.04" stroke="#988BAD" fill="#0000FF" class="color_Democratic"/>
          <use xlink:href="#img-35f95015-21" x="91.04" y="70.12" stroke="#988BAD" fill="#0000FF" class="color_Democratic"/>
          <use xlink:href="#img-35f95015-21" x="95.28" y="69.87" stroke="#988BAD" fill="#0000FF" class="color_Democratic"/>
          <use xlink:href="#img-35f95015-21" x="99.53" y="69.5" stroke="#988BAD" fill="#0000FF" class="color_Democratic"/>
          <use xlink:href="#img-35f95015-21" x="103.77" y="69.97" stroke="#988BAD" fill="#0000FF" class="color_Democratic"/>
          <use xlink:href="#img-35f95015-21" x="108.02" y="71.45" stroke="#988BAD" fill="#0000FF" class="color_Democratic"/>
          <use xlink:href="#img-35f95015-21" x="112.26" y="83.25" stroke="#988BAD" fill="#0000FF" class="color_Democratic"/>
          <use xlink:href="#img-35f95015-21" x="116.51" y="72.32" stroke="#988BAD" fill="#0000FF" class="color_Democratic"/>
          <use xlink:href="#img-35f95015-21" x="120.75" y="76.33" stroke="#988BAD" fill="#0000FF" class="color_Democratic"/>
          <use xlink:href="#img-35f95015-21" x="124.99" y="65" stroke="#988BAD" fill="#0000FF" class="color_Democratic"/>
          <use xlink:href="#img-35f95015-21" x="129.24" y="78.81" stroke="#988BAD" fill="#0000FF" class="color_Democratic"/>
          <use xlink:href="#img-35f95015-21" x="133.48" y="94.29" stroke="#988BAD" fill="#0000FF" class="color_Democratic"/>
          <use xlink:href="#img-35f95015-21" x="137.73" y="83.11" stroke="#988BAD" fill="#0000FF" class="color_Democratic"/>
          <use xlink:href="#img-35f95015-21" x="141.97" y="67.06" stroke="#988BAD" fill="#0000FF" class="color_Democratic"/>
          <use xlink:href="#img-35f95015-21" x="146.21" y="58.61" stroke="#988BAD" fill="#0000FF" class="color_Democratic"/>
          <use xlink:href="#img-35f95015-21" x="150.46" y="64.64" stroke="#988BAD" fill="#0000FF" class="color_Democratic"/>
          <use xlink:href="#img-35f95015-21" x="154.7" y="67.12" stroke="#988BAD" fill="#0000FF" class="color_Democratic"/>
          <use xlink:href="#img-35f95015-21" x="158.95" y="67.47" stroke="#988BAD" fill="#0000FF" class="color_Democratic"/>
          <use xlink:href="#img-35f95015-21" x="163.19" y="73.96" stroke="#988BAD" fill="#0000FF" class="color_Democratic"/>
          <use xlink:href="#img-35f95015-21" x="167.43" y="78.5" stroke="#988BAD" fill="#0000FF" class="color_Democratic"/>
          <use xlink:href="#img-35f95015-21" x="171.68" y="70.35" stroke="#988BAD" fill="#0000FF" class="color_Democratic"/>
          <use xlink:href="#img-35f95015-21" x="175.92" y="53.47" stroke="#988BAD" fill="#0000FF" class="color_Democratic"/>
          <use xlink:href="#img-35f95015-21" x="180.17" y="74.27" stroke="#988BAD" fill="#0000FF" class="color_Democratic"/>
          <use xlink:href="#img-35f95015-21" x="184.41" y="79.34" stroke="#988BAD" fill="#0000FF" class="color_Democratic"/>
          <use xlink:href="#img-35f95015-21" x="188.65" y="68.05" stroke="#988BAD" fill="#0000FF" class="color_Democratic"/>
          <use xlink:href="#img-35f95015-21" x="192.9" y="76.39" stroke="#988BAD" fill="#0000FF" class="color_Democratic"/>
          <use xlink:href="#img-35f95015-21" x="197.14" y="77.19" stroke="#988BAD" fill="#0000FF" class="color_Democratic"/>
          <use xlink:href="#img-35f95015-21" x="201.39" y="73.02" stroke="#988BAD" fill="#0000FF" class="color_Democratic"/>
          <use xlink:href="#img-35f95015-21" x="205.63" y="77.15" stroke="#988BAD" fill="#0000FF" class="color_Democratic"/>
          <use xlink:href="#img-35f95015-21" x="209.87" y="69.66" stroke="#988BAD" fill="#0000FF" class="color_Democratic"/>
          <use xlink:href="#img-35f95015-21" x="214.12" y="70.61" stroke="#988BAD" fill="#0000FF" class="color_Democratic"/>
          <use xlink:href="#img-35f95015-21" x="218.36" y="68.28" stroke="#988BAD" fill="#0000FF" class="color_Democratic"/>
          <use xlink:href="#img-35f95015-21" x="222.61" y="65.49" stroke="#988BAD" fill="#0000FF" class="color_Democratic"/>
          <use xlink:href="#img-35f95015-21" x="226.85" y="66.33" stroke="#988BAD" fill="#0000FF" class="color_Democratic"/>
        </g>
      </g>
      <g stroke-width="0.3" fill="#000000" fill-opacity="0.000" stroke-dasharray="none" id="img-35f95015-22">
        <path fill="none" d="M31.62,65.26 L 35.87 65.55 40.11 69.47 44.36 71.54 48.6 69.28 52.84 69.93 57.09 69.19 61.33 72.95 65.58 73.9 69.82 73.56 74.06 71.1 78.31 70.94 82.55 67.9 86.8 70.04 91.04 70.12 95.28 69.87 99.53 69.5 103.77 69.97 108.02 71.45 112.26 83.25 116.51 72.32 120.75 76.33 124.99 65 129.24 78.81 133.48 94.29 137.73 83.11 141.97 67.06 146.21 58.61 150.46 64.64 154.7 67.12 158.95 67.47 163.19 73.96 167.43 78.5 171.68 70.35 175.92 53.47 180.17 74.27 184.41 79.34 188.65 68.05 192.9 76.39 197.14 77.19 201.39 73.02 205.63 77.15 209.87 69.66 214.12 70.61 218.36 68.28 222.61 65.49 226.85 66.33" stroke="#0000FF" class="geometry color_Democratic"/>
        <path fill="none" d="M65.58,65.64 L 69.82 60.3 74.06 62.77 78.31 63.56 82.55 66.71 86.8 65.13 91.04 65.9 95.28 67.44 99.53 69.37 103.77 65 108.02 64.54 112.26 56.79 116.51 65.86 120.75 91.05 124.99 72.99 129.24 58.12 133.48 58.26 137.73 51.44 141.97 70.02 146.21 80 150.46 69.23 154.7 66.74 158.95 67.72 163.19 59.9 167.43 55.37 171.68 63.51 175.92 80.4 180.17 71.89 184.41 56.91 188.65 68.33 192.9 65.36 197.14 57.67 201.39 61.73 205.63 79.06 209.87 76.28 214.12 66.97 218.36 66.08 222.61 70.26 226.85 69.43" stroke="#FF0000" class="geometry color_Republican"/>
      </g>
    </g>
  </g>
</g>
  <g class="guide ylabels" font-size="4.76" font-family="'PT Sans Caption','Helvetica Neue','Helvetica',sans-serif" fill="#A1A1A1" id="img-35f95015-23">
    <text x="24.38" y="118.95" text-anchor="end" dy="0.35em">0</text>
    <text x="24.38" y="92.94" text-anchor="end" dy="0.35em">25</text>
    <text x="24.38" y="66.93" text-anchor="end" dy="0.35em">50</text>
    <text x="24.38" y="40.92" text-anchor="end" dy="0.35em">75</text>
    <text x="24.38" y="14.91" text-anchor="end" dy="0.35em">100</text>
  </g>
  <g font-size="6.35" font-family="'PT Sans','Helvetica Neue','Helvetica',sans-serif" fill="#A1A1A1" stroke="#000000" stroke-opacity="0.000" id="img-35f95015-24">
    <text x="9.95" y="64.93" text-anchor="middle" dy="0.35em" transform="rotate(-90, 9.95, 66.93)">Popular Vote (%)</text>
  </g>
  <g font-size="6.35" font-family="'PT Sans','Helvetica Neue','Helvetica',sans-serif" fill="#A1A1A1" stroke="#000000" stroke-opacity="0.000" id="img-35f95015-25">
    <text x="129.24" y="5" text-anchor="middle" dy="0.6em">Ohio</text>
  </g>
</g>
<defs>
  <clipPath id="img-35f95015-13">
  <path d="M25.38,12.91 L 233.1 12.91 233.1 120.95 25.38 120.95" />
</clipPath>
  <g id="img-35f95015-21">
    <circle cx="0" cy="0" r="0.9"/>
  </g>
</defs>
</svg>
