<?xml version="1.0" encoding="UTF-8"?>
<svg xmlns="http://www.w3.org/2000/svg"
     xmlns:xlink="http://www.w3.org/1999/xlink"
     xmlns:gadfly="http://www.gadflyjl.org/ns"
     version="1.2"
     width="320mm" height="160mm" viewBox="0 0 320 160"
     stroke="none"
     fill="#000000"
     stroke-width="0.3"
     font-size="3.88"
>
<g class="plotroot xscalable yscalable" id="img-22597c8f-1">
  <g class="guide colorkey" id="img-22597c8f-2">
    <g class="color_Democratic" id="img-22597c8f-3">
      <g fill="#4C404B" font-size="4.76" font-family="'PT Sans','Helvetica Neue','Helvetica',sans-serif" id="img-22597c8f-4">
        <text x="61.86" y="150" dy="0.35em">Democratic</text>
      </g>
      <g fill="#0000FF" stroke="#000000" stroke-opacity="0.000" id="img-22597c8f-5">
        <rect x="57.89" y="148.52" width="2.97" height="2.97"/>
      </g>
    </g>
    <g class="color_Republican" id="img-22597c8f-6">
      <g fill="#4C404B" font-size="4.76" font-family="'PT Sans','Helvetica Neue','Helvetica',sans-serif" id="img-22597c8f-7">
        <text x="30.79" y="150" dy="0.35em">Republican</text>
      </g>
      <g fill="#FF0000" stroke="#000000" stroke-opacity="0.000" id="img-22597c8f-8">
        <rect x="26.82" y="148.52" width="2.97" height="2.97"/>
      </g>
    </g>
    <g fill="#362A35" font-size="6.35" font-family="'PT Sans','Helvetica Neue','Helvetica',sans-serif" stroke="#000000" stroke-opacity="0.000" id="img-22597c8f-9">
      <text x="26.82" y="145.06">Party</text>
    </g>
  </g>
  <g font-size="6.35" font-family="'PT Sans','Helvetica Neue','Helvetica',sans-serif" fill="#564A55" stroke="#000000" stroke-opacity="0.000" id="img-22597c8f-10">
    <text x="170.41" y="131.48" text-anchor="middle" dy="0.6em">Year</text>
  </g>
  <g class="guide xlabels" font-size="4.76" font-family="'PT Sans Caption','Helvetica Neue','Helvetica',sans-serif" fill="#6C606B" id="img-22597c8f-11">
    <text x="27.82" y="123.95" text-anchor="middle" dy="0.6em">1856</text>
    <text x="49.21" y="123.95" text-anchor="middle" dy="0.6em">1868</text>
    <text x="70.59" y="123.95" text-anchor="middle" dy="0.6em">1880</text>
    <text x="91.98" y="123.95" text-anchor="middle" dy="0.6em">1892</text>
    <text x="113.37" y="123.95" text-anchor="middle" dy="0.6em">1904</text>
    <text x="134.76" y="123.95" text-anchor="middle" dy="0.6em">1916</text>
    <text x="156.15" y="123.95" text-anchor="middle" dy="0.6em">1928</text>
    <text x="177.54" y="123.95" text-anchor="middle" dy="0.6em">1940</text>
    <text x="198.93" y="123.95" text-anchor="middle" dy="0.6em">1952</text>
    <text x="220.32" y="123.95" text-anchor="middle" dy="0.6em">1964</text>
    <text x="241.7" y="123.95" text-anchor="middle" dy="0.6em">1976</text>
    <text x="263.09" y="123.95" text-anchor="middle" dy="0.6em">1988</text>
    <text x="284.48" y="123.95" text-anchor="middle" dy="0.6em">2000</text>
    <text x="305.87" y="123.95" text-anchor="middle" dy="0.6em">2012</text>
  </g>
<g clip-path="url(#img-22597c8f-12)">
  <g id="img-22597c8f-13">
    <g pointer-events="visible" opacity="1" fill="#000000" fill-opacity="0.000" stroke="#000000" stroke-opacity="0.000" class="guide background" id="img-22597c8f-14">
      <rect x="25.82" y="15" width="289.18" height="107.95"/>
    </g>
    <g class="guide ygridlines xfixed" stroke-dasharray="0.5,0.5" stroke-width="0.26" stroke="#000000" id="img-22597c8f-15">
      <path fill="none" d="M25.82,120.95 L 315 120.95"/>
      <path fill="none" d="M25.82,94.96 L 315 94.96"/>
      <path fill="none" d="M25.82,68.97 L 315 68.97"/>
      <path fill="none" d="M25.82,42.99 L 315 42.99"/>
      <path fill="none" d="M25.82,17 L 315 17"/>
    </g>
    <g class="guide xgridlines yfixed" stroke-dasharray="0.5,0.5" stroke-width="0.26" stroke="#000000" id="img-22597c8f-16">
      <path fill="none" d="M27.82,15 L 27.82 122.95"/>
      <path fill="none" d="M49.21,15 L 49.21 122.95"/>
      <path fill="none" d="M70.59,15 L 70.59 122.95"/>
      <path fill="none" d="M91.98,15 L 91.98 122.95"/>
      <path fill="none" d="M113.37,15 L 113.37 122.95"/>
      <path fill="none" d="M134.76,15 L 134.76 122.95"/>
      <path fill="none" d="M156.15,15 L 156.15 122.95"/>
      <path fill="none" d="M177.54,15 L 177.54 122.95"/>
      <path fill="none" d="M198.93,15 L 198.93 122.95"/>
      <path fill="none" d="M220.32,15 L 220.32 122.95"/>
      <path fill="none" d="M241.7,15 L 241.7 122.95"/>
      <path fill="none" d="M263.09,15 L 263.09 122.95"/>
      <path fill="none" d="M284.48,15 L 284.48 122.95"/>
      <path fill="none" d="M305.87,15 L 305.87 122.95"/>
    </g>
    <g class="plotpanel" id="img-22597c8f-17">
      <g class="geometry" id="img-22597c8f-18">
        <g stroke-width="0.3" id="img-22597c8f-19">
          <use xlink:href="#img-22597c8f-20" x="34.95" y="83.32" fill="#FF0000" class="color_Republican" stroke="#FFFFFF"/>
          <use xlink:href="#img-22597c8f-20" x="42.08" y="64.92" fill="#FF0000" class="color_Republican" stroke="#FFFFFF"/>
          <use xlink:href="#img-22597c8f-20" x="49.21" y="69.36" fill="#FF0000" class="color_Republican" stroke="#FFFFFF"/>
          <use xlink:href="#img-22597c8f-20" x="56.33" y="59.97" fill="#FF0000" class="color_Republican" stroke="#FFFFFF"/>
          <use xlink:href="#img-22597c8f-20" x="63.46" y="68.02" fill="#FF0000" class="color_Republican" stroke="#FFFFFF"/>
          <use xlink:href="#img-22597c8f-20" x="70.59" y="68.45" fill="#FF0000" class="color_Republican" stroke="#FFFFFF"/>
          <use xlink:href="#img-22597c8f-20" x="77.72" y="67.95" fill="#FF0000" class="color_Republican" stroke="#FFFFFF"/>
          <use xlink:href="#img-22597c8f-20" x="84.85" y="65" fill="#FF0000" class="color_Republican" stroke="#FFFFFF"/>
          <use xlink:href="#img-22597c8f-20" x="91.98" y="74.59" fill="#FF0000" class="color_Republican" stroke="#FFFFFF"/>
          <use xlink:href="#img-22597c8f-20" x="99.11" y="68.9" fill="#FF0000" class="color_Republican" stroke="#FFFFFF"/>
          <use xlink:href="#img-22597c8f-20" x="106.24" y="63.3" fill="#FF0000" class="color_Republican" stroke="#FFFFFF"/>
          <use xlink:href="#img-22597c8f-20" x="113.37" y="51.24" fill="#FF0000" class="color_Republican" stroke="#FFFFFF"/>
          <use xlink:href="#img-22597c8f-20" x="120.5" y="62.33" fill="#FF0000" class="color_Republican" stroke="#FFFFFF"/>
          <use xlink:href="#img-22597c8f-20" x="127.63" y="94.65" fill="#FF0000" class="color_Republican" stroke="#FFFFFF"/>
          <use xlink:href="#img-22597c8f-20" x="134.76" y="70.57" fill="#FF0000" class="color_Republican" stroke="#FFFFFF"/>
          <use xlink:href="#img-22597c8f-20" x="141.89" y="58.37" fill="#FF0000" class="color_Republican" stroke="#FFFFFF"/>
          <use xlink:href="#img-22597c8f-20" x="149.02" y="67.92" fill="#FF0000" class="color_Republican" stroke="#FFFFFF"/>
          <use xlink:href="#img-22597c8f-20" x="156.15" y="54.23" fill="#FF0000" class="color_Republican" stroke="#FFFFFF"/>
          <use xlink:href="#img-22597c8f-20" x="163.28" y="82.61" fill="#FF0000" class="color_Republican" stroke="#FFFFFF"/>
          <use xlink:href="#img-22597c8f-20" x="170.41" y="90.14" fill="#FF0000" class="color_Republican" stroke="#FFFFFF"/>
          <use xlink:href="#img-22597c8f-20" x="177.54" y="73.52" fill="#FF0000" class="color_Republican" stroke="#FFFFFF"/>
          <use xlink:href="#img-22597c8f-20" x="184.67" y="72.16" fill="#FF0000" class="color_Republican" stroke="#FFFFFF"/>
          <use xlink:href="#img-22597c8f-20" x="191.8" y="69.2" fill="#FF0000" class="color_Republican" stroke="#FFFFFF"/>
          <use xlink:href="#img-22597c8f-20" x="198.93" y="58.01" fill="#FF0000" class="color_Republican" stroke="#FFFFFF"/>
          <use xlink:href="#img-22597c8f-20" x="206.06" y="63.52" fill="#FF0000" class="color_Republican" stroke="#FFFFFF"/>
          <use xlink:href="#img-22597c8f-20" x="213.19" y="66.32" fill="#FF0000" class="color_Republican" stroke="#FFFFFF"/>
          <use xlink:href="#img-22597c8f-20" x="220.32" y="83.57" fill="#FF0000" class="color_Republican" stroke="#FFFFFF"/>
          <use xlink:href="#img-22597c8f-20" x="227.44" y="69.15" fill="#FF0000" class="color_Republican" stroke="#FFFFFF"/>
          <use xlink:href="#img-22597c8f-20" x="234.57" y="66.43" fill="#FF0000" class="color_Republican" stroke="#FFFFFF"/>
          <use xlink:href="#img-22597c8f-20" x="241.7" y="71.28" fill="#FF0000" class="color_Republican" stroke="#FFFFFF"/>
          <use xlink:href="#img-22597c8f-20" x="248.83" y="70.71" fill="#FF0000" class="color_Republican" stroke="#FFFFFF"/>
          <use xlink:href="#img-22597c8f-20" x="255.96" y="62.83" fill="#FF0000" class="color_Republican" stroke="#FFFFFF"/>
          <use xlink:href="#img-22597c8f-20" x="263.09" y="72.5" fill="#FF0000" class="color_Republican" stroke="#FFFFFF"/>
          <use xlink:href="#img-22597c8f-20" x="270.22" y="87.14" fill="#FF0000" class="color_Republican" stroke="#FFFFFF"/>
          <use xlink:href="#img-22597c8f-20" x="277.35" y="80.35" fill="#FF0000" class="color_Republican" stroke="#FFFFFF"/>
          <use xlink:href="#img-22597c8f-20" x="284.48" y="72.59" fill="#FF0000" class="color_Republican" stroke="#FFFFFF"/>
          <use xlink:href="#img-22597c8f-20" x="291.61" y="71.89" fill="#FF0000" class="color_Republican" stroke="#FFFFFF"/>
          <use xlink:href="#img-22597c8f-20" x="298.74" y="78.95" fill="#FF0000" class="color_Republican" stroke="#FFFFFF"/>
          <use xlink:href="#img-22597c8f-20" x="305.87" y="77.13" fill="#FF0000" class="color_Republican" stroke="#FFFFFF"/>
          <use xlink:href="#img-22597c8f-20" x="34.95" y="91.86" fill="#0000FF" class="color_Democratic" stroke="#FFFFFF"/>
          <use xlink:href="#img-22597c8f-20" x="42.08" y="73.03" fill="#0000FF" class="color_Democratic" stroke="#FFFFFF"/>
          <use xlink:href="#img-22597c8f-20" x="49.21" y="68.59" fill="#0000FF" class="color_Democratic" stroke="#FFFFFF"/>
          <use xlink:href="#img-22597c8f-20" x="56.33" y="81" fill="#0000FF" class="color_Democratic" stroke="#FFFFFF"/>
          <use xlink:href="#img-22597c8f-20" x="63.46" y="71.7" fill="#0000FF" class="color_Democratic" stroke="#FFFFFF"/>
          <use xlink:href="#img-22597c8f-20" x="70.59" y="70.14" fill="#0000FF" class="color_Democratic" stroke="#FFFFFF"/>
          <use xlink:href="#img-22597c8f-20" x="77.72" y="72.4" fill="#0000FF" class="color_Democratic" stroke="#FFFFFF"/>
          <use xlink:href="#img-22597c8f-20" x="84.85" y="76.38" fill="#0000FF" class="color_Democratic" stroke="#FFFFFF"/>
          <use xlink:href="#img-22597c8f-20" x="91.98" y="102.09" fill="#0000FF" class="color_Democratic" stroke="#FFFFFF"/>
          <use xlink:href="#img-22597c8f-20" x="99.11" y="71.07" fill="#0000FF" class="color_Democratic" stroke="#FFFFFF"/>
          <use xlink:href="#img-22597c8f-20" x="106.24" y="79.98" fill="#0000FF" class="color_Democratic" stroke="#FFFFFF"/>
          <use xlink:href="#img-22597c8f-20" x="113.37" y="100.75" fill="#0000FF" class="color_Democratic" stroke="#FFFFFF"/>
          <use xlink:href="#img-22597c8f-20" x="120.5" y="85.28" fill="#0000FF" class="color_Democratic" stroke="#FFFFFF"/>
          <use xlink:href="#img-22597c8f-20" x="127.63" y="85.25" fill="#0000FF" class="color_Democratic" stroke="#FFFFFF"/>
          <use xlink:href="#img-22597c8f-20" x="134.76" y="73.24" fill="#0000FF" class="color_Democratic" stroke="#FFFFFF"/>
          <use xlink:href="#img-22597c8f-20" x="141.89" y="86.08" fill="#0000FF" class="color_Democratic" stroke="#FFFFFF"/>
          <use xlink:href="#img-22597c8f-20" x="149.02" y="95.81" fill="#0000FF" class="color_Democratic" stroke="#FFFFFF"/>
          <use xlink:href="#img-22597c8f-20" x="156.15" y="85.46" fill="#0000FF" class="color_Democratic" stroke="#FFFFFF"/>
          <use xlink:href="#img-22597c8f-20" x="163.28" y="60.67" fill="#0000FF" class="color_Democratic" stroke="#FFFFFF"/>
          <use xlink:href="#img-22597c8f-20" x="170.41" y="53.98" fill="#0000FF" class="color_Democratic" stroke="#FFFFFF"/>
          <use xlink:href="#img-22597c8f-20" x="177.54" y="65.13" fill="#0000FF" class="color_Democratic" stroke="#FFFFFF"/>
          <use xlink:href="#img-22597c8f-20" x="184.67" y="67.12" fill="#0000FF" class="color_Democratic" stroke="#FFFFFF"/>
          <use xlink:href="#img-22597c8f-20" x="191.8" y="72.72" fill="#0000FF" class="color_Democratic" stroke="#FFFFFF"/>
          <use xlink:href="#img-22597c8f-20" x="198.93" y="80.48" fill="#0000FF" class="color_Democratic" stroke="#FFFFFF"/>
          <use xlink:href="#img-22597c8f-20" x="206.06" y="74.43" fill="#0000FF" class="color_Democratic" stroke="#FFFFFF"/>
          <use xlink:href="#img-22597c8f-20" x="213.19" y="71.76" fill="#0000FF" class="color_Democratic" stroke="#FFFFFF"/>
          <use xlink:href="#img-22597c8f-20" x="220.32" y="54.71" fill="#0000FF" class="color_Democratic" stroke="#FFFFFF"/>
          <use xlink:href="#img-22597c8f-20" x="227.44" y="75.43" fill="#0000FF" class="color_Democratic" stroke="#FFFFFF"/>
          <use xlink:href="#img-22597c8f-20" x="234.57" y="76.95" fill="#0000FF" class="color_Democratic" stroke="#FFFFFF"/>
          <use xlink:href="#img-22597c8f-20" x="241.7" y="71.45" fill="#0000FF" class="color_Democratic" stroke="#FFFFFF"/>
          <use xlink:href="#img-22597c8f-20" x="248.83" y="80.75" fill="#0000FF" class="color_Democratic" stroke="#FFFFFF"/>
          <use xlink:href="#img-22597c8f-20" x="255.96" y="75.48" fill="#0000FF" class="color_Democratic" stroke="#FFFFFF"/>
          <use xlink:href="#img-22597c8f-20" x="263.09" y="67.64" fill="#0000FF" class="color_Democratic" stroke="#FFFFFF"/>
          <use xlink:href="#img-22597c8f-20" x="270.22" y="76.79" fill="#0000FF" class="color_Democratic" stroke="#FFFFFF"/>
          <use xlink:href="#img-22597c8f-20" x="277.35" y="71.93" fill="#0000FF" class="color_Democratic" stroke="#FFFFFF"/>
          <use xlink:href="#img-22597c8f-20" x="284.48" y="72.13" fill="#0000FF" class="color_Democratic" stroke="#FFFFFF"/>
          <use xlink:href="#img-22597c8f-20" x="291.61" y="67.57" fill="#0000FF" class="color_Democratic" stroke="#FFFFFF"/>
          <use xlink:href="#img-22597c8f-20" x="298.74" y="61.96" fill="#0000FF" class="color_Democratic" stroke="#FFFFFF"/>
          <use xlink:href="#img-22597c8f-20" x="305.87" y="64.57" fill="#0000FF" class="color_Democratic" stroke="#FFFFFF"/>
        </g>
      </g>
      <g stroke-width="0.53" fill="#000000" fill-opacity="0.000" stroke-dasharray="none" id="img-22597c8f-21">
        <path fill="none" d="M34.95,91.86 L 42.08 73.03 49.21 68.59 56.33 81 63.46 71.7 70.59 70.14 77.72 72.4 84.85 76.38 91.98 102.09 99.11 71.07 106.24 79.98 113.37 100.75 120.5 85.28 127.63 85.25 134.76 73.24 141.89 86.08 149.02 95.81 156.15 85.46 163.28 60.67 170.41 53.98 177.54 65.13 184.67 67.12 191.8 72.72 198.93 80.48 206.06 74.43 213.19 71.76 220.32 54.71 227.44 75.43 234.57 76.95 241.7 71.45 248.83 80.75 255.96 75.48 263.09 67.64 270.22 76.79 277.35 71.93 284.48 72.13 291.61 67.57 298.74 61.96 305.87 64.57" class="geometry color_Democratic" stroke="#0000FF"/>
        <path fill="none" d="M34.95,83.32 L 42.08 64.92 49.21 69.36 56.33 59.97 63.46 68.02 70.59 68.45 77.72 67.95 84.85 65 91.98 74.59 99.11 68.9 106.24 63.3 113.37 51.24 120.5 62.33 127.63 94.65 134.76 70.57 141.89 58.37 149.02 67.92 156.15 54.23 163.28 82.61 170.41 90.14 177.54 73.52 184.67 72.16 191.8 69.2 198.93 58.01 206.06 63.52 213.19 66.32 220.32 83.57 227.44 69.15 234.57 66.43 241.7 71.28 248.83 70.71 255.96 62.83 263.09 72.5 270.22 87.14 277.35 80.35 284.48 72.59 291.61 71.89 298.74 78.95 305.87 77.13" class="geometry color_Republican" stroke="#FF0000"/>
      </g>
    </g>
  </g>
</g>
  <g class="guide ylabels" font-size="4.76" font-family="'PT Sans Caption','Helvetica Neue','Helvetica',sans-serif" fill="#6C606B" id="img-22597c8f-22">
    <text x="24.82" y="120.95" text-anchor="end" dy="0.35em">0</text>
    <text x="24.82" y="94.96" text-anchor="end" dy="0.35em">25</text>
    <text x="24.82" y="68.97" text-anchor="end" dy="0.35em">50</text>
    <text x="24.82" y="42.99" text-anchor="end" dy="0.35em">75</text>
    <text x="24.82" y="17" text-anchor="end" dy="0.35em">100</text>
  </g>
  <g font-size="6.35" font-family="'PT Sans','Helvetica Neue','Helvetica',sans-serif" fill="#564A55" stroke="#000000" stroke-opacity="0.000" id="img-22597c8f-23">
    <text x="10.18" y="66.97" text-anchor="middle" dy="0.35em" transform="rotate(-90, 10.18, 68.97)">Popular Vote (%)</text>
  </g>
  <g font-size="6.35" font-family="'PT Sans','Helvetica Neue','Helvetica',sans-serif" fill="#564A55" stroke="#000000" stroke-opacity="0.000" id="img-22597c8f-24">
    <text x="170.41" y="13" text-anchor="middle">Oregon</text>
  </g>
</g>
<defs>
  <clipPath id="img-22597c8f-12">
  <path d="M25.82,15 L 315 15 315 122.95 25.82 122.95" />
</clipPath>
  <g id="img-22597c8f-20">
    <circle cx="0" cy="0" r="0.9"/>
  </g>
</defs>
</svg>
