<svg xmlns="http://www.w3.org/2000/svg" xmlns:xlink="http://www.w3.org/1999/xlink" version="1.2" width="238.1mm" height="599.924" viewBox="0 0 238.1 158.73" stroke-width=".3" font-size="3.88"><path d="M0 0h238.1v158.73H0z" stroke="#000" stroke-opacity="0" fill="#222831"/><g class="plotroot xscalable yscalable"><g class="guide colorkey"><g class="color_Democratic"><text x="51.52" y="148.78" dy=".35em" fill="#A1A1A1" font-size="3.7" font-family="'PT Sans','Helvetica Neue','Helvetica',sans-serif">Democratic</text><path d="M48.29 147.66h2.22v2.22h-2.22z" fill="#00F" stroke="#000" stroke-opacity="0"/></g><g class="color_Republican"><text x="29.6" y="148.78" dy=".35em" fill="#A1A1A1" font-size="3.7" font-family="'PT Sans','Helvetica Neue','Helvetica',sans-serif">Republican</text><path d="M26.38 147.66h2.22v2.22h-2.22z" fill="#F00" stroke="#000" stroke-opacity="0"/></g><text x="26.38" y="145.28" fill="#A1A1A1" font-size="6.35" font-family="'PT Sans','Helvetica Neue','Helvetica',sans-serif" stroke="#000" stroke-opacity="0">Party</text></g><text x="129.24" y="130.46" text-anchor="middle" dy=".6em" font-size="6.35" font-family="'PT Sans','Helvetica Neue','Helvetica',sans-serif" fill="#A1A1A1" stroke="#000" stroke-opacity="0">Year</text><g class="guide xlabels" font-size="4.76" font-family="'PT Sans Caption','Helvetica Neue','Helvetica',sans-serif" fill="#A1A1A1" text-anchor="middle"><text x="27.38" y="121.95" dy=".6em">1904</text><text x="41.93" y="121.95" dy=".6em">1912</text><text x="56.48" y="121.95" dy=".6em">1920</text><text x="71.03" y="121.95" dy=".6em">1928</text><text x="85.58" y="121.95" dy=".6em">1936</text><text x="100.14" y="121.95" dy=".6em">1944</text><text x="114.69" y="121.95" dy=".6em">1952</text><text x="129.24" y="121.95" dy=".6em">1960</text><text x="143.79" y="121.95" dy=".6em">1968</text><text x="158.34" y="121.95" dy=".6em">1976</text><text x="172.89" y="121.95" dy=".6em">1984</text><text x="187.44" y="121.95" dy=".6em">1992</text><text x="201.99" y="121.95" dy=".6em">2000</text><text x="216.54" y="121.95" dy=".6em">2008</text><text x="231.1" y="121.95" dy=".6em">2016</text></g><g clip-path="url(#a)"><path d="M25.38 12.91H233.1v108.04H25.38z" pointer-events="visible" fill="#222831" stroke="#000" stroke-opacity="0" class="guide background"/><g class="guide ygridlines xfixed" stroke-dasharray="0.5,0.5" stroke-width=".2" stroke="#575757" fill="none"><path d="M25.38 118.95H233.1M25.38 92.94H233.1M25.38 66.93H233.1M25.38 40.92H233.1M25.38 14.91H233.1"/></g><g class="guide xgridlines yfixed" stroke-dasharray="0.5,0.5" stroke-width=".2" stroke="#575757" fill="none"><path d="M27.38 12.91v108.04M41.93 12.91v108.04M56.48 12.91v108.04M71.03 12.91v108.04M85.58 12.91v108.04M100.14 12.91v108.04M114.69 12.91v108.04M129.24 12.91v108.04M143.79 12.91v108.04M158.34 12.91v108.04M172.89 12.91v108.04M187.44 12.91v108.04M201.99 12.91v108.04M216.54 12.91v108.04M231.1 12.91v108.04"/></g><g class="plotpanel"><g class="geometry"><use xlink:href="#b" x="34.66" y="73.88" stroke="#B3867B" fill="#F00" class="color_Republican"/><use xlink:href="#b" x="41.93" y="81.74" stroke="#B3867B" fill="#F00" class="color_Republican"/><use xlink:href="#b" x="49.21" y="84.36" stroke="#B3867B" fill="#F00" class="color_Republican"/><use xlink:href="#b" x="56.48" y="66.82" stroke="#B3867B" fill="#F00" class="color_Republican"/><use xlink:href="#b" x="63.76" y="74.41" stroke="#B3867B" fill="#F00" class="color_Republican"/><use xlink:href="#b" x="71.03" y="52.66" stroke="#B3867B" fill="#F00" class="color_Republican"/><use xlink:href="#b" x="78.31" y="91.17" stroke="#B3867B" fill="#F00" class="color_Republican"/><use xlink:href="#b" x="85.58" y="84.94" stroke="#B3867B" fill="#F00" class="color_Republican"/><use xlink:href="#b" x="92.86" y="75.02" stroke="#B3867B" fill="#F00" class="color_Republican"/><use xlink:href="#b" x="100.14" y="72.96" stroke="#B3867B" fill="#F00" class="color_Republican"/><use xlink:href="#b" x="107.41" y="80.19" stroke="#B3867B" fill="#F00" class="color_Republican"/><use xlink:href="#b" x="114.69" y="62.16" stroke="#B3867B" fill="#F00" class="color_Republican"/><use xlink:href="#b" x="121.96" y="61.59" stroke="#B3867B" fill="#F00" class="color_Republican"/><use xlink:href="#b" x="129.24" y="57.55" stroke="#B3867B" fill="#F00" class="color_Republican"/><use xlink:href="#b" x="136.51" y="72.91" stroke="#B3867B" fill="#F00" class="color_Republican"/><use xlink:href="#b" x="143.79" y="69.34" stroke="#B3867B" fill="#F00" class="color_Republican"/><use xlink:href="#b" x="151.06" y="42.27" stroke="#B3867B" fill="#F00" class="color_Republican"/><use xlink:href="#b" x="158.34" y="66.97" stroke="#B3867B" fill="#F00" class="color_Republican"/><use xlink:href="#b" x="165.62" y="56.01" stroke="#B3867B" fill="#F00" class="color_Republican"/><use xlink:href="#b" x="172.89" y="47.57" stroke="#B3867B" fill="#F00" class="color_Republican"/><use xlink:href="#b" x="180.17" y="58.68" stroke="#B3867B" fill="#F00" class="color_Republican"/><use xlink:href="#b" x="187.44" y="74.58" stroke="#B3867B" fill="#F00" class="color_Republican"/><use xlink:href="#b" x="194.72" y="68.75" stroke="#B3867B" fill="#F00" class="color_Republican"/><use xlink:href="#b" x="201.99" y="56.21" stroke="#B3867B" fill="#F00" class="color_Republican"/><use xlink:href="#b" x="209.27" y="50.73" stroke="#B3867B" fill="#F00" class="color_Republican"/><use xlink:href="#b" x="216.54" y="50.65" stroke="#B3867B" fill="#F00" class="color_Republican"/><use xlink:href="#b" x="223.82" y="49.48" stroke="#B3867B" fill="#F00" class="color_Republican"/><use xlink:href="#b" x="34.66" y="69.02" stroke="#988BAD" fill="#00F" class="color_Democratic"/><use xlink:href="#b" x="41.93" y="70.11" stroke="#988BAD" fill="#00F" class="color_Democratic"/><use xlink:href="#b" x="49.21" y="66.25" stroke="#988BAD" fill="#00F" class="color_Democratic"/><use xlink:href="#b" x="56.48" y="72.54" stroke="#988BAD" fill="#00F" class="color_Democratic"/><use xlink:href="#b" x="63.76" y="68.59" stroke="#988BAD" fill="#00F" class="color_Democratic"/><use xlink:href="#b" x="71.03" y="82.08" stroke="#988BAD" fill="#00F" class="color_Democratic"/><use xlink:href="#b" x="78.31" y="42.69" stroke="#988BAD" fill="#00F" class="color_Democratic"/><use xlink:href="#b" x="85.58" y="49.42" stroke="#988BAD" fill="#00F" class="color_Democratic"/><use xlink:href="#b" x="92.86" y="59.22" stroke="#988BAD" fill="#00F" class="color_Democratic"/><use xlink:href="#b" x="100.14" y="61.14" stroke="#988BAD" fill="#00F" class="color_Democratic"/><use xlink:href="#b" x="107.41" y="53.67" stroke="#988BAD" fill="#00F" class="color_Democratic"/><use xlink:href="#b" x="114.69" y="71.71" stroke="#988BAD" fill="#00F" class="color_Democratic"/><use xlink:href="#b" x="121.96" y="72.27" stroke="#988BAD" fill="#00F" class="color_Democratic"/><use xlink:href="#b" x="129.24" y="76.32" stroke="#988BAD" fill="#00F" class="color_Democratic"/><use xlink:href="#b" x="136.51" y="60.95" stroke="#988BAD" fill="#00F" class="color_Democratic"/><use xlink:href="#b" x="143.79" y="85.67" stroke="#988BAD" fill="#00F" class="color_Democratic"/><use xlink:href="#b" x="151.06" y="93.99" stroke="#988BAD" fill="#00F" class="color_Democratic"/><use xlink:href="#b" x="158.34" y="68.24" stroke="#988BAD" fill="#00F" class="color_Democratic"/><use xlink:href="#b" x="165.62" y="82.57" stroke="#988BAD" fill="#00F" class="color_Democratic"/><use xlink:href="#b" x="172.89" y="87.05" stroke="#988BAD" fill="#00F" class="color_Democratic"/><use xlink:href="#b" x="180.17" y="76" stroke="#988BAD" fill="#00F" class="color_Democratic"/><use xlink:href="#b" x="187.44" y="83.55" stroke="#988BAD" fill="#00F" class="color_Democratic"/><use xlink:href="#b" x="194.72" y="76.87" stroke="#988BAD" fill="#00F" class="color_Democratic"/><use xlink:href="#b" x="201.99" y="78.97" stroke="#988BAD" fill="#00F" class="color_Democratic"/><use xlink:href="#b" x="209.27" y="83.13" stroke="#988BAD" fill="#00F" class="color_Democratic"/><use xlink:href="#b" x="216.54" y="83.21" stroke="#988BAD" fill="#00F" class="color_Democratic"/><use xlink:href="#b" x="223.82" y="84.38" stroke="#988BAD" fill="#00F" class="color_Democratic"/></g><g fill-opacity="0"><path fill="none" d="M34.66 69.02l7.27 1.09 7.28-3.86 7.27 6.29 7.28-3.95 7.27 13.49 7.28-39.39 7.27 6.73 7.28 9.8 7.28 1.92 7.27-7.47 7.28 18.04 7.27.56 7.28 4.05 7.27-15.37 7.28 24.72 7.27 8.32 7.28-25.75 7.28 14.33 7.27 4.48L180.17 76l7.27 7.55 7.28-6.68 7.27 2.1 7.28 4.16 7.27.08 7.28 1.17" stroke="#00F" class="geometry color_Democratic"/><path fill="none" d="M34.66 73.88l7.27 7.86 7.28 2.62 7.27-17.54 7.28 7.59 7.27-21.75 7.28 38.51 7.27-6.23 7.28-9.92 7.28-2.06 7.27 7.23 7.28-18.03 7.27-.57 7.28-4.04 7.27 15.36 7.28-3.57 7.27-27.07 7.28 24.7 7.28-10.96 7.27-8.44 7.28 11.11 7.27 15.9 7.28-5.83 7.27-12.54 7.28-5.48 7.27-.08 7.28-1.17" stroke="#F00" class="geometry color_Republican"/></g></g></g><g class="guide ylabels" font-size="4.76" font-family="'PT Sans Caption','Helvetica Neue','Helvetica',sans-serif" fill="#A1A1A1" text-anchor="end"><text x="24.38" y="118.95" dy=".35em">0</text><text x="24.38" y="92.94" dy=".35em">25</text><text x="24.38" y="66.93" dy=".35em">50</text><text x="24.38" y="40.92" dy=".35em">75</text><text x="24.38" y="14.91" dy=".35em">100</text></g><text x="9.95" y="64.93" text-anchor="middle" dy=".35em" transform="rotate(-90 9.95 66.93)" font-size="6.35" font-family="'PT Sans','Helvetica Neue','Helvetica',sans-serif" fill="#A1A1A1" stroke="#000" stroke-opacity="0">Popular Vote (%)</text><text x="129.24" y="5" text-anchor="middle" dy=".6em" font-size="6.35" font-family="'PT Sans','Helvetica Neue','Helvetica',sans-serif" fill="#A1A1A1" stroke="#000" stroke-opacity="0">Oklahoma</text></g><defs><clipPath id="a"><path d="M25.38 12.91H233.1v108.04H25.38"/></clipPath><circle r=".9" id="b"/></defs></svg>