<?xml version="1.0" encoding="UTF-8"?>
<svg xmlns="http://www.w3.org/2000/svg"
     xmlns:xlink="http://www.w3.org/1999/xlink"
     xmlns:gadfly="http://www.gadflyjl.org/ns"
     version="1.2"
     width="320mm" height="160mm" viewBox="0 0 320 160"
     stroke="none"
     fill="#000000"
     stroke-width="0.3"
     font-size="3.88"
>
<g class="plotroot xscalable yscalable" id="img-d9b4ab54-1">
  <g class="guide colorkey" id="img-d9b4ab54-2">
    <g class="color_Democratic" id="img-d9b4ab54-3">
      <g fill="#FFFFFF" font-size="4.76" font-family="'PT Sans','Helvetica Neue','Helvetica',sans-serif" id="img-d9b4ab54-4">
        <text x="58.33" y="149.82" dy="0.35em">Democratic</text>
      </g>
      <g fill="#0000FF" stroke="#000000" stroke-opacity="0.000" id="img-d9b4ab54-5">
        <rect x="54.36" y="148.34" width="2.97" height="2.97"/>
      </g>
    </g>
    <g class="color_Republican" id="img-d9b4ab54-6">
      <g fill="#FFFFFF" font-size="4.76" font-family="'PT Sans','Helvetica Neue','Helvetica',sans-serif" id="img-d9b4ab54-7">
        <text x="29.73" y="149.82" dy="0.35em">Republican</text>
      </g>
      <g fill="#FF0000" stroke="#000000" stroke-opacity="0.000" id="img-d9b4ab54-8">
        <rect x="25.76" y="148.34" width="2.97" height="2.97"/>
      </g>
    </g>
    <g fill="#FFFFFF" font-size="6.35" font-family="'PT Sans','Helvetica Neue','Helvetica',sans-serif" stroke="#000000" stroke-opacity="0.000" id="img-d9b4ab54-9">
      <text x="25.76" y="145.06">Party</text>
    </g>
  </g>
  <g font-size="6.35" font-family="'PT Sans','Helvetica Neue','Helvetica',sans-serif" fill="#FFFFFF" stroke="#000000" stroke-opacity="0.000" id="img-d9b4ab54-10">
    <text x="169.88" y="130.77" text-anchor="middle" dy="0.6em">Year</text>
  </g>
  <g class="guide xlabels" font-size="4.76" font-family="'PT Sans Caption','Helvetica Neue','Helvetica',sans-serif" fill="#FFFFFF" id="img-d9b4ab54-11">
    <text x="26.76" y="122.89" text-anchor="middle" dy="0.6em">1824</text>
    <text x="44.65" y="122.89" text-anchor="middle" dy="0.6em">1836</text>
    <text x="62.54" y="122.89" text-anchor="middle" dy="0.6em">1848</text>
    <text x="80.43" y="122.89" text-anchor="middle" dy="0.6em">1860</text>
    <text x="98.32" y="122.89" text-anchor="middle" dy="0.6em">1872</text>
    <text x="116.21" y="122.89" text-anchor="middle" dy="0.6em">1884</text>
    <text x="134.1" y="122.89" text-anchor="middle" dy="0.6em">1896</text>
    <text x="151.99" y="122.89" text-anchor="middle" dy="0.6em">1908</text>
    <text x="169.88" y="122.89" text-anchor="middle" dy="0.6em">1920</text>
    <text x="187.77" y="122.89" text-anchor="middle" dy="0.6em">1932</text>
    <text x="205.66" y="122.89" text-anchor="middle" dy="0.6em">1944</text>
    <text x="223.55" y="122.89" text-anchor="middle" dy="0.6em">1956</text>
    <text x="241.44" y="122.89" text-anchor="middle" dy="0.6em">1968</text>
    <text x="259.33" y="122.89" text-anchor="middle" dy="0.6em">1980</text>
    <text x="277.22" y="122.89" text-anchor="middle" dy="0.6em">1992</text>
    <text x="295.11" y="122.89" text-anchor="middle" dy="0.6em">2004</text>
    <text x="313" y="122.89" text-anchor="middle" dy="0.6em">2016</text>
  </g>
<g clip-path="url(#img-d9b4ab54-12)">
  <g id="img-d9b4ab54-13">
    <g pointer-events="visible" opacity="1" fill="#000000" fill-opacity="0.000" stroke="#000000" stroke-opacity="0.000" class="guide background" id="img-d9b4ab54-14">
      <rect x="24.76" y="15.35" width="290.24" height="106.54"/>
    </g>
    <g class="guide ygridlines xfixed" stroke-dasharray="0.5,0.5" stroke-width="0.26" stroke="#FFFFFF" id="img-d9b4ab54-15">
      <path fill="none" d="M24.76,119.89 L 315 119.89"/>
      <path fill="none" d="M24.76,94.26 L 315 94.26"/>
      <path fill="none" d="M24.76,68.62 L 315 68.62"/>
      <path fill="none" d="M24.76,42.99 L 315 42.99"/>
      <path fill="none" d="M24.76,17.35 L 315 17.35"/>
    </g>
    <g class="guide xgridlines yfixed" stroke-dasharray="0.5,0.5" stroke-width="0.26" stroke="#FFFFFF" id="img-d9b4ab54-16">
      <path fill="none" d="M26.76,15.35 L 26.76 121.89"/>
      <path fill="none" d="M44.65,15.35 L 44.65 121.89"/>
      <path fill="none" d="M62.54,15.35 L 62.54 121.89"/>
      <path fill="none" d="M80.43,15.35 L 80.43 121.89"/>
      <path fill="none" d="M98.32,15.35 L 98.32 121.89"/>
      <path fill="none" d="M116.21,15.35 L 116.21 121.89"/>
      <path fill="none" d="M134.1,15.35 L 134.1 121.89"/>
      <path fill="none" d="M151.99,15.35 L 151.99 121.89"/>
      <path fill="none" d="M169.88,15.35 L 169.88 121.89"/>
      <path fill="none" d="M187.77,15.35 L 187.77 121.89"/>
      <path fill="none" d="M205.66,15.35 L 205.66 121.89"/>
      <path fill="none" d="M223.55,15.35 L 223.55 121.89"/>
      <path fill="none" d="M241.44,15.35 L 241.44 121.89"/>
      <path fill="none" d="M259.33,15.35 L 259.33 121.89"/>
      <path fill="none" d="M277.22,15.35 L 277.22 121.89"/>
      <path fill="none" d="M295.11,15.35 L 295.11 121.89"/>
      <path fill="none" d="M313,15.35 L 313 121.89"/>
    </g>
    <g class="plotpanel" id="img-d9b4ab54-17">
      <g class="geometry" id="img-d9b4ab54-18">
        <g stroke-width="0.3" id="img-d9b4ab54-19">
          <use xlink:href="#img-d9b4ab54-20" x="80.43" y="62.21" stroke="#FFFFFF" fill="#FF0000" class="color_Republican"/>
          <use xlink:href="#img-d9b4ab54-20" x="86.39" y="66.82" stroke="#FFFFFF" fill="#FF0000" class="color_Republican"/>
          <use xlink:href="#img-d9b4ab54-20" x="92.36" y="66.36" stroke="#FFFFFF" fill="#FF0000" class="color_Republican"/>
          <use xlink:href="#img-d9b4ab54-20" x="98.32" y="56.25" stroke="#FFFFFF" fill="#FF0000" class="color_Republican"/>
          <use xlink:href="#img-d9b4ab54-20" x="104.28" y="67.99" stroke="#FFFFFF" fill="#FF0000" class="color_Republican"/>
          <use xlink:href="#img-d9b4ab54-20" x="110.25" y="67.76" stroke="#FFFFFF" fill="#FF0000" class="color_Republican"/>
          <use xlink:href="#img-d9b4ab54-20" x="116.21" y="65.57" stroke="#FFFFFF" fill="#FF0000" class="color_Republican"/>
          <use xlink:href="#img-d9b4ab54-20" x="122.17" y="65.81" stroke="#FFFFFF" fill="#FF0000" class="color_Republican"/>
          <use xlink:href="#img-d9b4ab54-20" x="128.14" y="67.14" stroke="#FFFFFF" fill="#FF0000" class="color_Republican"/>
          <use xlink:href="#img-d9b4ab54-20" x="134.1" y="57.36" stroke="#FFFFFF" fill="#FF0000" class="color_Republican"/>
          <use xlink:href="#img-d9b4ab54-20" x="140.06" y="57.6" stroke="#FFFFFF" fill="#FF0000" class="color_Republican"/>
          <use xlink:href="#img-d9b4ab54-20" x="146.03" y="50.17" stroke="#FFFFFF" fill="#FF0000" class="color_Republican"/>
          <use xlink:href="#img-d9b4ab54-20" x="151.99" y="59.56" stroke="#FFFFFF" fill="#FF0000" class="color_Republican"/>
          <use xlink:href="#img-d9b4ab54-20" x="157.95" y="96.87" stroke="#FFFFFF" fill="#FF0000" class="color_Republican"/>
          <use xlink:href="#img-d9b4ab54-20" x="163.92" y="64.26" stroke="#FFFFFF" fill="#FF0000" class="color_Republican"/>
          <use xlink:href="#img-d9b4ab54-20" x="169.88" y="52.46" stroke="#FFFFFF" fill="#FF0000" class="color_Republican"/>
          <use xlink:href="#img-d9b4ab54-20" x="175.84" y="52.89" stroke="#FFFFFF" fill="#FF0000" class="color_Republican"/>
          <use xlink:href="#img-d9b4ab54-20" x="181.81" y="53" stroke="#FFFFFF" fill="#FF0000" class="color_Republican"/>
          <use xlink:href="#img-d9b4ab54-20" x="187.77" y="67.76" stroke="#FFFFFF" fill="#FF0000" class="color_Republican"/>
          <use xlink:href="#img-d9b4ab54-20" x="193.73" y="78.01" stroke="#FFFFFF" fill="#FF0000" class="color_Republican"/>
          <use xlink:href="#img-d9b4ab54-20" x="199.7" y="72.38" stroke="#FFFFFF" fill="#FF0000" class="color_Republican"/>
          <use xlink:href="#img-d9b4ab54-20" x="205.66" y="70.31" stroke="#FFFFFF" fill="#FF0000" class="color_Republican"/>
          <use xlink:href="#img-d9b4ab54-20" x="211.62" y="67.67" stroke="#FFFFFF" fill="#FF0000" class="color_Republican"/>
          <use xlink:href="#img-d9b4ab54-20" x="217.59" y="65.82" stroke="#FFFFFF" fill="#FF0000" class="color_Republican"/>
          <use xlink:href="#img-d9b4ab54-20" x="223.55" y="61.97" stroke="#FFFFFF" fill="#FF0000" class="color_Republican"/>
          <use xlink:href="#img-d9b4ab54-20" x="229.51" y="69.92" stroke="#FFFFFF" fill="#FF0000" class="color_Republican"/>
          <use xlink:href="#img-d9b4ab54-20" x="235.48" y="84.31" stroke="#FFFFFF" fill="#FF0000" class="color_Republican"/>
          <use xlink:href="#img-d9b4ab54-20" x="241.44" y="74.75" stroke="#FFFFFF" fill="#FF0000" class="color_Republican"/>
          <use xlink:href="#img-d9b4ab54-20" x="247.4" y="59.28" stroke="#FFFFFF" fill="#FF0000" class="color_Republican"/>
          <use xlink:href="#img-d9b4ab54-20" x="253.37" y="70.95" stroke="#FFFFFF" fill="#FF0000" class="color_Republican"/>
          <use xlink:href="#img-d9b4ab54-20" x="259.33" y="69.05" stroke="#FFFFFF" fill="#FF0000" class="color_Republican"/>
          <use xlink:href="#img-d9b4ab54-20" x="265.29" y="65.19" stroke="#FFFFFF" fill="#FF0000" class="color_Republican"/>
          <use xlink:href="#img-d9b4ab54-20" x="271.26" y="67.9" stroke="#FFFFFF" fill="#FF0000" class="color_Republican"/>
          <use xlink:href="#img-d9b4ab54-20" x="277.22" y="82.85" stroke="#FFFFFF" fill="#FF0000" class="color_Republican"/>
          <use xlink:href="#img-d9b4ab54-20" x="283.18" y="78.9" stroke="#FFFFFF" fill="#FF0000" class="color_Republican"/>
          <use xlink:href="#img-d9b4ab54-20" x="289.15" y="72.28" stroke="#FFFFFF" fill="#FF0000" class="color_Republican"/>
          <use xlink:href="#img-d9b4ab54-20" x="295.11" y="70.24" stroke="#FFFFFF" fill="#FF0000" class="color_Republican"/>
          <use xlink:href="#img-d9b4ab54-20" x="301.07" y="74.62" stroke="#FFFFFF" fill="#FF0000" class="color_Republican"/>
          <use xlink:href="#img-d9b4ab54-20" x="307.04" y="72.14" stroke="#FFFFFF" fill="#FF0000" class="color_Republican"/>
          <use xlink:href="#img-d9b4ab54-20" x="32.72" y="51.54" stroke="#FFFFFF" fill="#0000FF" class="color_Democratic"/>
          <use xlink:href="#img-d9b4ab54-20" x="38.69" y="60.46" stroke="#FFFFFF" fill="#0000FF" class="color_Democratic"/>
          <use xlink:href="#img-d9b4ab54-20" x="44.65" y="67.41" stroke="#FFFFFF" fill="#0000FF" class="color_Democratic"/>
          <use xlink:href="#img-d9b4ab54-20" x="50.61" y="68.74" stroke="#FFFFFF" fill="#0000FF" class="color_Democratic"/>
          <use xlink:href="#img-d9b4ab54-20" x="56.58" y="68.11" stroke="#FFFFFF" fill="#0000FF" class="color_Democratic"/>
          <use xlink:href="#img-d9b4ab54-20" x="62.54" y="72.04" stroke="#FFFFFF" fill="#0000FF" class="color_Democratic"/>
          <use xlink:href="#img-d9b4ab54-20" x="68.5" y="67.39" stroke="#FFFFFF" fill="#0000FF" class="color_Democratic"/>
          <use xlink:href="#img-d9b4ab54-20" x="74.47" y="68.49" stroke="#FFFFFF" fill="#0000FF" class="color_Democratic"/>
          <use xlink:href="#img-d9b4ab54-20" x="80.43" y="116.28" stroke="#FFFFFF" fill="#0000FF" class="color_Democratic"/>
          <use xlink:href="#img-d9b4ab54-20" x="86.39" y="70.42" stroke="#FFFFFF" fill="#0000FF" class="color_Democratic"/>
          <use xlink:href="#img-d9b4ab54-20" x="92.36" y="70.88" stroke="#FFFFFF" fill="#0000FF" class="color_Democratic"/>
          <use xlink:href="#img-d9b4ab54-20" x="98.32" y="81.29" stroke="#FFFFFF" fill="#0000FF" class="color_Democratic"/>
          <use xlink:href="#img-d9b4ab54-20" x="104.28" y="70.42" stroke="#FFFFFF" fill="#0000FF" class="color_Democratic"/>
          <use xlink:href="#img-d9b4ab54-20" x="110.25" y="72.13" stroke="#FFFFFF" fill="#0000FF" class="color_Democratic"/>
          <use xlink:href="#img-d9b4ab54-20" x="116.21" y="75.33" stroke="#FFFFFF" fill="#0000FF" class="color_Democratic"/>
          <use xlink:href="#img-d9b4ab54-20" x="122.17" y="73.98" stroke="#FFFFFF" fill="#0000FF" class="color_Democratic"/>
          <use xlink:href="#img-d9b4ab54-20" x="128.14" y="73.65" stroke="#FFFFFF" fill="#0000FF" class="color_Democratic"/>
          <use xlink:href="#img-d9b4ab54-20" x="134.1" y="82.7" stroke="#FFFFFF" fill="#0000FF" class="color_Democratic"/>
          <use xlink:href="#img-d9b4ab54-20" x="140.06" y="82.81" stroke="#FFFFFF" fill="#0000FF" class="color_Democratic"/>
          <use xlink:href="#img-d9b4ab54-20" x="146.03" y="91.87" stroke="#FFFFFF" fill="#0000FF" class="color_Democratic"/>
          <use xlink:href="#img-d9b4ab54-20" x="151.99" y="83.58" stroke="#FFFFFF" fill="#0000FF" class="color_Democratic"/>
          <use xlink:href="#img-d9b4ab54-20" x="157.95" y="86.58" stroke="#FFFFFF" fill="#0000FF" class="color_Democratic"/>
          <use xlink:href="#img-d9b4ab54-20" x="163.92" y="78.65" stroke="#FFFFFF" fill="#0000FF" class="color_Democratic"/>
          <use xlink:href="#img-d9b4ab54-20" x="169.88" y="92" stroke="#FFFFFF" fill="#0000FF" class="color_Democratic"/>
          <use xlink:href="#img-d9b4ab54-20" x="175.84" y="100.33" stroke="#FFFFFF" fill="#0000FF" class="color_Democratic"/>
          <use xlink:href="#img-d9b4ab54-20" x="181.81" y="85.15" stroke="#FFFFFF" fill="#0000FF" class="color_Democratic"/>
          <use xlink:href="#img-d9b4ab54-20" x="187.77" y="73.41" stroke="#FFFFFF" fill="#0000FF" class="color_Democratic"/>
          <use xlink:href="#img-d9b4ab54-20" x="193.73" y="61.56" stroke="#FFFFFF" fill="#0000FF" class="color_Democratic"/>
          <use xlink:href="#img-d9b4ab54-20" x="199.7" y="65.31" stroke="#FFFFFF" fill="#0000FF" class="color_Democratic"/>
          <use xlink:href="#img-d9b4ab54-20" x="205.66" y="67.46" stroke="#FFFFFF" fill="#0000FF" class="color_Democratic"/>
          <use xlink:href="#img-d9b4ab54-20" x="211.62" y="71.78" stroke="#FFFFFF" fill="#0000FF" class="color_Democratic"/>
          <use xlink:href="#img-d9b4ab54-20" x="217.59" y="71.85" stroke="#FFFFFF" fill="#0000FF" class="color_Democratic"/>
          <use xlink:href="#img-d9b4ab54-20" x="223.55" y="75.49" stroke="#FFFFFF" fill="#0000FF" class="color_Democratic"/>
          <use xlink:href="#img-d9b4ab54-20" x="229.51" y="67.54" stroke="#FFFFFF" fill="#0000FF" class="color_Democratic"/>
          <use xlink:href="#img-d9b4ab54-20" x="235.48" y="53.32" stroke="#FFFFFF" fill="#0000FF" class="color_Democratic"/>
          <use xlink:href="#img-d9b4ab54-20" x="241.44" y="71.09" stroke="#FFFFFF" fill="#0000FF" class="color_Democratic"/>
          <use xlink:href="#img-d9b4ab54-20" x="247.4" y="79.77" stroke="#FFFFFF" fill="#0000FF" class="color_Democratic"/>
          <use xlink:href="#img-d9b4ab54-20" x="253.37" y="68.22" stroke="#FFFFFF" fill="#0000FF" class="color_Democratic"/>
          <use xlink:href="#img-d9b4ab54-20" x="259.33" y="76.34" stroke="#FFFFFF" fill="#0000FF" class="color_Democratic"/>
          <use xlink:href="#img-d9b4ab54-20" x="265.29" y="72.73" stroke="#FFFFFF" fill="#0000FF" class="color_Democratic"/>
          <use xlink:href="#img-d9b4ab54-20" x="271.26" y="70.28" stroke="#FFFFFF" fill="#0000FF" class="color_Democratic"/>
          <use xlink:href="#img-d9b4ab54-20" x="277.22" y="73.6" stroke="#FFFFFF" fill="#0000FF" class="color_Democratic"/>
          <use xlink:href="#img-d9b4ab54-20" x="283.18" y="69.47" stroke="#FFFFFF" fill="#0000FF" class="color_Democratic"/>
          <use xlink:href="#img-d9b4ab54-20" x="289.15" y="68.01" stroke="#FFFFFF" fill="#0000FF" class="color_Democratic"/>
          <use xlink:href="#img-d9b4ab54-20" x="295.11" y="67.67" stroke="#FFFFFF" fill="#0000FF" class="color_Democratic"/>
          <use xlink:href="#img-d9b4ab54-20" x="301.07" y="64.04" stroke="#FFFFFF" fill="#0000FF" class="color_Democratic"/>
          <use xlink:href="#img-d9b4ab54-20" x="307.04" y="66.62" stroke="#FFFFFF" fill="#0000FF" class="color_Democratic"/>
        </g>
      </g>
      <g stroke-width="0.53" fill="#000000" fill-opacity="0.000" stroke-dasharray="none" id="img-d9b4ab54-21">
        <path fill="none" d="M32.72,51.54 L 38.69 60.46 44.65 67.41 50.61 68.74 56.58 68.11 62.54 72.04 68.5 67.39 74.47 68.49 80.43 116.28 86.39 70.42 92.36 70.88 98.32 81.29 104.28 70.42 110.25 72.13 116.21 75.33 122.17 73.98 128.14 73.65 134.1 82.7 140.06 82.81 146.03 91.87 151.99 83.58 157.95 86.58 163.92 78.65 169.88 92 175.84 100.33 181.81 85.15 187.77 73.41 193.73 61.56 199.7 65.31 205.66 67.46 211.62 71.78 217.59 71.85 223.55 75.49 229.51 67.54 235.48 53.32 241.44 71.09 247.4 79.77 253.37 68.22 259.33 76.34 265.29 72.73 271.26 70.28 277.22 73.6 283.18 69.47 289.15 68.01 295.11 67.67 301.07 64.04 307.04 66.62" stroke="#0000FF" class="geometry color_Democratic"/>
        <path fill="none" d="M80.43,62.21 L 86.39 66.82 92.36 66.36 98.32 56.25 104.28 67.99 110.25 67.76 116.21 65.57 122.17 65.81 128.14 67.14 134.1 57.36 140.06 57.6 146.03 50.17 151.99 59.56 157.95 96.87 163.92 64.26 169.88 52.46 175.84 52.89 181.81 53 187.77 67.76 193.73 78.01 199.7 72.38 205.66 70.31 211.62 67.67 217.59 65.82 223.55 61.97 229.51 69.92 235.48 84.31 241.44 74.75 247.4 59.28 253.37 70.95 259.33 69.05 265.29 65.19 271.26 67.9 277.22 82.85 283.18 78.9 289.15 72.28 295.11 70.24 301.07 74.62 307.04 72.14" stroke="#FF0000" class="geometry color_Republican"/>
      </g>
    </g>
  </g>
</g>
  <g class="guide ylabels" font-size="4.76" font-family="'PT Sans Caption','Helvetica Neue','Helvetica',sans-serif" fill="#FFFFFF" id="img-d9b4ab54-22">
    <text x="23.76" y="119.89" text-anchor="end" dy="0.35em">0</text>
    <text x="23.76" y="94.26" text-anchor="end" dy="0.35em">25</text>
    <text x="23.76" y="68.62" text-anchor="end" dy="0.35em">50</text>
    <text x="23.76" y="42.99" text-anchor="end" dy="0.35em">75</text>
    <text x="23.76" y="17.35" text-anchor="end" dy="0.35em">100</text>
  </g>
  <g font-size="6.35" font-family="'PT Sans','Helvetica Neue','Helvetica',sans-serif" fill="#FFFFFF" stroke="#000000" stroke-opacity="0.000" id="img-d9b4ab54-23">
    <text x="10.18" y="66.62" text-anchor="middle" dy="0.35em" transform="rotate(-90, 10.18, 68.62)">Popular Vote (%)</text>
  </g>
  <g font-size="6.35" font-family="'PT Sans','Helvetica Neue','Helvetica',sans-serif" fill="#FFFFFF" stroke="#000000" stroke-opacity="0.000" id="img-d9b4ab54-24">
    <text x="169.88" y="13.35" text-anchor="middle">Pennsylvania</text>
  </g>
</g>
<defs>
  <clipPath id="img-d9b4ab54-12">
  <path d="M24.76,15.35 L 315 15.35 315 121.89 24.76 121.89" />
</clipPath>
  <g id="img-d9b4ab54-20">
    <circle cx="0" cy="0" r="0.9"/>
  </g>
</defs>
</svg>
