<svg xmlns="http://www.w3.org/2000/svg" xmlns:xlink="http://www.w3.org/1999/xlink" version="1.2" width="238.1mm" height="599.924" viewBox="0 0 238.1 158.73" stroke-width=".3" font-size="3.88"><path d="M0 0h238.1v158.73H0z" stroke="#000" stroke-opacity="0" fill="#222831"/><g class="plotroot xscalable yscalable"><g class="guide colorkey"><g class="color_Democratic"><text x="51.52" y="148.78" dy=".35em" fill="#A1A1A1" font-size="3.7" font-family="'PT Sans','Helvetica Neue','Helvetica',sans-serif">Democratic</text><path d="M48.29 147.66h2.22v2.22h-2.22z" fill="#00F" stroke="#000" stroke-opacity="0"/></g><g class="color_Republican"><text x="29.6" y="148.78" dy=".35em" fill="#A1A1A1" font-size="3.7" font-family="'PT Sans','Helvetica Neue','Helvetica',sans-serif">Republican</text><path d="M26.38 147.66h2.22v2.22h-2.22z" fill="#F00" stroke="#000" stroke-opacity="0"/></g><text x="26.38" y="145.28" fill="#A1A1A1" font-size="6.35" font-family="'PT Sans','Helvetica Neue','Helvetica',sans-serif" stroke="#000" stroke-opacity="0">Party</text></g><text x="129.24" y="130.46" text-anchor="middle" dy=".6em" font-size="6.35" font-family="'PT Sans','Helvetica Neue','Helvetica',sans-serif" fill="#A1A1A1" stroke="#000" stroke-opacity="0">Year</text><g class="guide xlabels" font-size="4.76" font-family="'PT Sans Caption','Helvetica Neue','Helvetica',sans-serif" fill="#A1A1A1" text-anchor="middle"><text x="27.38" y="121.95" dy=".6em">1824</text><text x="40.11" y="121.95" dy=".6em">1836</text><text x="52.84" y="121.95" dy=".6em">1848</text><text x="65.58" y="121.95" dy=".6em">1860</text><text x="78.31" y="121.95" dy=".6em">1872</text><text x="91.04" y="121.95" dy=".6em">1884</text><text x="103.77" y="121.95" dy=".6em">1896</text><text x="116.51" y="121.95" dy=".6em">1908</text><text x="129.24" y="121.95" dy=".6em">1920</text><text x="141.97" y="121.95" dy=".6em">1932</text><text x="154.7" y="121.95" dy=".6em">1944</text><text x="167.43" y="121.95" dy=".6em">1956</text><text x="180.17" y="121.95" dy=".6em">1968</text><text x="192.9" y="121.95" dy=".6em">1980</text><text x="205.63" y="121.95" dy=".6em">1992</text><text x="218.36" y="121.95" dy=".6em">2004</text><text x="231.1" y="121.95" dy=".6em">2016</text></g><g clip-path="url(#a)"><path d="M25.38 12.91H233.1v108.04H25.38z" pointer-events="visible" fill="#222831" stroke="#000" stroke-opacity="0" class="guide background"/><g class="guide ygridlines xfixed" stroke-dasharray="0.5,0.5" stroke-width=".2" stroke="#575757" fill="none"><path d="M25.38 118.95H233.1M25.38 92.94H233.1M25.38 66.93H233.1M25.38 40.92H233.1M25.38 14.91H233.1"/></g><g class="guide xgridlines yfixed" stroke-dasharray="0.5,0.5" stroke-width=".2" stroke="#575757" fill="none"><path d="M27.38 12.91v108.04M40.11 12.91v108.04M52.84 12.91v108.04M65.58 12.91v108.04M78.31 12.91v108.04M91.04 12.91v108.04M103.77 12.91v108.04M116.51 12.91v108.04M129.24 12.91v108.04M141.97 12.91v108.04M154.7 12.91v108.04M167.43 12.91v108.04M180.17 12.91v108.04M192.9 12.91v108.04M205.63 12.91v108.04M218.36 12.91v108.04M231.1 12.91v108.04"/></g><g class="plotpanel"><g class="geometry"><use xlink:href="#b" x="65.58" y="60.42" stroke="#B3867B" fill="#F00" class="color_Republican"/><use xlink:href="#b" x="69.82" y="65.11" stroke="#B3867B" fill="#F00" class="color_Republican"/><use xlink:href="#b" x="74.06" y="64.64" stroke="#B3867B" fill="#F00" class="color_Republican"/><use xlink:href="#b" x="78.31" y="54.38" stroke="#B3867B" fill="#F00" class="color_Republican"/><use xlink:href="#b" x="82.55" y="66.29" stroke="#B3867B" fill="#F00" class="color_Republican"/><use xlink:href="#b" x="86.8" y="66.06" stroke="#B3867B" fill="#F00" class="color_Republican"/><use xlink:href="#b" x="91.04" y="63.84" stroke="#B3867B" fill="#F00" class="color_Republican"/><use xlink:href="#b" x="95.28" y="64.08" stroke="#B3867B" fill="#F00" class="color_Republican"/><use xlink:href="#b" x="99.53" y="65.43" stroke="#B3867B" fill="#F00" class="color_Republican"/><use xlink:href="#b" x="103.77" y="55.51" stroke="#B3867B" fill="#F00" class="color_Republican"/><use xlink:href="#b" x="108.02" y="55.75" stroke="#B3867B" fill="#F00" class="color_Republican"/><use xlink:href="#b" x="112.26" y="48.21" stroke="#B3867B" fill="#F00" class="color_Republican"/><use xlink:href="#b" x="116.51" y="57.73" stroke="#B3867B" fill="#F00" class="color_Republican"/><use xlink:href="#b" x="120.75" y="95.6" stroke="#B3867B" fill="#F00" class="color_Republican"/><use xlink:href="#b" x="124.99" y="62.51" stroke="#B3867B" fill="#F00" class="color_Republican"/><use xlink:href="#b" x="129.24" y="50.54" stroke="#B3867B" fill="#F00" class="color_Republican"/><use xlink:href="#b" x="133.48" y="50.97" stroke="#B3867B" fill="#F00" class="color_Republican"/><use xlink:href="#b" x="137.73" y="51.08" stroke="#B3867B" fill="#F00" class="color_Republican"/><use xlink:href="#b" x="141.97" y="66.06" stroke="#B3867B" fill="#F00" class="color_Republican"/><use xlink:href="#b" x="146.21" y="76.46" stroke="#B3867B" fill="#F00" class="color_Republican"/><use xlink:href="#b" x="150.46" y="70.75" stroke="#B3867B" fill="#F00" class="color_Republican"/><use xlink:href="#b" x="154.7" y="68.64" stroke="#B3867B" fill="#F00" class="color_Republican"/><use xlink:href="#b" x="158.95" y="65.97" stroke="#B3867B" fill="#F00" class="color_Republican"/><use xlink:href="#b" x="163.19" y="64.09" stroke="#B3867B" fill="#F00" class="color_Republican"/><use xlink:href="#b" x="167.43" y="60.18" stroke="#B3867B" fill="#F00" class="color_Republican"/><use xlink:href="#b" x="171.68" y="68.25" stroke="#B3867B" fill="#F00" class="color_Republican"/><use xlink:href="#b" x="175.92" y="82.85" stroke="#B3867B" fill="#F00" class="color_Republican"/><use xlink:href="#b" x="180.17" y="73.15" stroke="#B3867B" fill="#F00" class="color_Republican"/><use xlink:href="#b" x="184.41" y="57.45" stroke="#B3867B" fill="#F00" class="color_Republican"/><use xlink:href="#b" x="188.65" y="69.29" stroke="#B3867B" fill="#F00" class="color_Republican"/><use xlink:href="#b" x="192.9" y="67.36" stroke="#B3867B" fill="#F00" class="color_Republican"/><use xlink:href="#b" x="197.14" y="63.46" stroke="#B3867B" fill="#F00" class="color_Republican"/><use xlink:href="#b" x="201.39" y="66.2" stroke="#B3867B" fill="#F00" class="color_Republican"/><use xlink:href="#b" x="205.63" y="81.37" stroke="#B3867B" fill="#F00" class="color_Republican"/><use xlink:href="#b" x="209.87" y="77.37" stroke="#B3867B" fill="#F00" class="color_Republican"/><use xlink:href="#b" x="214.12" y="70.65" stroke="#B3867B" fill="#F00" class="color_Republican"/><use xlink:href="#b" x="218.36" y="68.57" stroke="#B3867B" fill="#F00" class="color_Republican"/><use xlink:href="#b" x="222.61" y="73.02" stroke="#B3867B" fill="#F00" class="color_Republican"/><use xlink:href="#b" x="226.85" y="70.5" stroke="#B3867B" fill="#F00" class="color_Republican"/><use xlink:href="#b" x="31.62" y="49.6" stroke="#988BAD" fill="#00F" class="color_Democratic"/><use xlink:href="#b" x="35.87" y="58.65" stroke="#988BAD" fill="#00F" class="color_Democratic"/><use xlink:href="#b" x="40.11" y="65.7" stroke="#988BAD" fill="#00F" class="color_Democratic"/><use xlink:href="#b" x="44.36" y="67.05" stroke="#988BAD" fill="#00F" class="color_Democratic"/><use xlink:href="#b" x="48.6" y="66.41" stroke="#988BAD" fill="#00F" class="color_Democratic"/><use xlink:href="#b" x="52.84" y="70.4" stroke="#988BAD" fill="#00F" class="color_Democratic"/><use xlink:href="#b" x="57.09" y="65.69" stroke="#988BAD" fill="#00F" class="color_Democratic"/><use xlink:href="#b" x="61.33" y="66.79" stroke="#988BAD" fill="#00F" class="color_Democratic"/><use xlink:href="#b" x="65.58" y="115.29" stroke="#988BAD" fill="#00F" class="color_Democratic"/><use xlink:href="#b" x="69.82" y="68.76" stroke="#988BAD" fill="#00F" class="color_Democratic"/><use xlink:href="#b" x="74.06" y="69.22" stroke="#988BAD" fill="#00F" class="color_Democratic"/><use xlink:href="#b" x="78.31" y="79.79" stroke="#988BAD" fill="#00F" class="color_Democratic"/><use xlink:href="#b" x="82.55" y="68.75" stroke="#988BAD" fill="#00F" class="color_Democratic"/><use xlink:href="#b" x="86.8" y="70.5" stroke="#988BAD" fill="#00F" class="color_Democratic"/><use xlink:href="#b" x="91.04" y="73.74" stroke="#988BAD" fill="#00F" class="color_Democratic"/><use xlink:href="#b" x="95.28" y="72.37" stroke="#988BAD" fill="#00F" class="color_Democratic"/><use xlink:href="#b" x="99.53" y="72.04" stroke="#988BAD" fill="#00F" class="color_Democratic"/><use xlink:href="#b" x="103.77" y="81.21" stroke="#988BAD" fill="#00F" class="color_Democratic"/><use xlink:href="#b" x="108.02" y="81.33" stroke="#988BAD" fill="#00F" class="color_Democratic"/><use xlink:href="#b" x="112.26" y="90.52" stroke="#988BAD" fill="#00F" class="color_Democratic"/><use xlink:href="#b" x="116.51" y="82.11" stroke="#988BAD" fill="#00F" class="color_Democratic"/><use xlink:href="#b" x="120.75" y="85.15" stroke="#988BAD" fill="#00F" class="color_Democratic"/><use xlink:href="#b" x="124.99" y="77.11" stroke="#988BAD" fill="#00F" class="color_Democratic"/><use xlink:href="#b" x="129.24" y="90.66" stroke="#988BAD" fill="#00F" class="color_Democratic"/><use xlink:href="#b" x="133.48" y="99.1" stroke="#988BAD" fill="#00F" class="color_Democratic"/><use xlink:href="#b" x="137.73" y="83.7" stroke="#988BAD" fill="#00F" class="color_Democratic"/><use xlink:href="#b" x="141.97" y="71.79" stroke="#988BAD" fill="#00F" class="color_Democratic"/><use xlink:href="#b" x="146.21" y="59.77" stroke="#988BAD" fill="#00F" class="color_Democratic"/><use xlink:href="#b" x="150.46" y="63.57" stroke="#988BAD" fill="#00F" class="color_Democratic"/><use xlink:href="#b" x="154.7" y="65.75" stroke="#988BAD" fill="#00F" class="color_Democratic"/><use xlink:href="#b" x="158.95" y="70.14" stroke="#988BAD" fill="#00F" class="color_Democratic"/><use xlink:href="#b" x="163.19" y="70.21" stroke="#988BAD" fill="#00F" class="color_Democratic"/><use xlink:href="#b" x="167.43" y="73.9" stroke="#988BAD" fill="#00F" class="color_Democratic"/><use xlink:href="#b" x="171.68" y="65.83" stroke="#988BAD" fill="#00F" class="color_Democratic"/><use xlink:href="#b" x="175.92" y="51.41" stroke="#988BAD" fill="#00F" class="color_Democratic"/><use xlink:href="#b" x="180.17" y="69.44" stroke="#988BAD" fill="#00F" class="color_Democratic"/><use xlink:href="#b" x="184.41" y="78.24" stroke="#988BAD" fill="#00F" class="color_Democratic"/><use xlink:href="#b" x="188.65" y="66.52" stroke="#988BAD" fill="#00F" class="color_Democratic"/><use xlink:href="#b" x="192.9" y="74.76" stroke="#988BAD" fill="#00F" class="color_Democratic"/><use xlink:href="#b" x="197.14" y="71.1" stroke="#988BAD" fill="#00F" class="color_Democratic"/><use xlink:href="#b" x="201.39" y="68.61" stroke="#988BAD" fill="#00F" class="color_Democratic"/><use xlink:href="#b" x="205.63" y="71.98" stroke="#988BAD" fill="#00F" class="color_Democratic"/><use xlink:href="#b" x="209.87" y="67.79" stroke="#988BAD" fill="#00F" class="color_Democratic"/><use xlink:href="#b" x="214.12" y="66.31" stroke="#988BAD" fill="#00F" class="color_Democratic"/><use xlink:href="#b" x="218.36" y="65.97" stroke="#988BAD" fill="#00F" class="color_Democratic"/><use xlink:href="#b" x="222.61" y="62.29" stroke="#988BAD" fill="#00F" class="color_Democratic"/><use xlink:href="#b" x="226.85" y="64.9" stroke="#988BAD" fill="#00F" class="color_Democratic"/></g><g fill-opacity="0"><path fill="none" d="M31.62 49.6l4.25 9.05 4.24 7.05 4.25 1.35 4.24-.64 4.24 3.99 4.25-4.71 4.24 1.1 4.25 48.5 4.24-46.53 4.24.46 4.25 10.57 4.24-11.04 4.25 1.75 4.24 3.24 4.24-1.37 4.25-.33 4.24 9.17 4.25.12 4.24 9.19 4.25-8.41 4.24 3.04 4.24-8.04 4.25 13.55 4.24 8.44 4.25-15.4 4.24-11.91 4.24-12.02 4.25 3.8 4.24 2.18 4.25 4.39 4.24.07 4.24 3.69 4.25-8.07 4.24-14.42 4.25 18.03 4.24 8.8 4.24-11.72 4.25 8.24 4.24-3.66 4.25-2.49 4.24 3.37 4.24-4.19 4.25-1.48 4.24-.34 4.25-3.68 4.24 2.61" stroke="#00F" class="geometry color_Democratic"/><path fill="none" d="M65.58 60.42l4.24 4.69 4.24-.47 4.25-10.26 4.24 11.91 4.25-.23 4.24-2.22 4.24.24 4.25 1.35 4.24-9.92 4.25.24 4.24-7.54 4.25 9.52 4.24 37.87 4.24-33.09 4.25-11.97 4.24.43 4.25.11 4.24 14.98 4.24 10.4 4.25-5.71 4.24-2.11 4.25-2.67 4.24-1.88 4.24-3.91 4.25 8.07 4.24 14.6 4.25-9.7 4.24-15.7 4.24 11.84 4.25-1.93 4.24-3.9 4.25 2.74 4.24 15.17 4.24-4 4.25-6.72 4.24-2.08 4.25 4.45 4.24-2.52" stroke="#F00" class="geometry color_Republican"/></g></g></g><g class="guide ylabels" font-size="4.76" font-family="'PT Sans Caption','Helvetica Neue','Helvetica',sans-serif" fill="#A1A1A1" text-anchor="end"><text x="24.38" y="118.95" dy=".35em">0</text><text x="24.38" y="92.94" dy=".35em">25</text><text x="24.38" y="66.93" dy=".35em">50</text><text x="24.38" y="40.92" dy=".35em">75</text><text x="24.38" y="14.91" dy=".35em">100</text></g><text x="9.95" y="64.93" text-anchor="middle" dy=".35em" transform="rotate(-90 9.95 66.93)" font-size="6.35" font-family="'PT Sans','Helvetica Neue','Helvetica',sans-serif" fill="#A1A1A1" stroke="#000" stroke-opacity="0">Popular Vote (%)</text><text x="129.24" y="5" text-anchor="middle" dy=".6em" font-size="6.35" font-family="'PT Sans','Helvetica Neue','Helvetica',sans-serif" fill="#A1A1A1" stroke="#000" stroke-opacity="0">Pennsylvania</text></g><defs><clipPath id="a"><path d="M25.38 12.91H233.1v108.04H25.38"/></clipPath><circle r=".9" id="b"/></defs></svg>