<?xml version="1.0" encoding="UTF-8"?>
<svg xmlns="http://www.w3.org/2000/svg"
     xmlns:xlink="http://www.w3.org/1999/xlink"
     xmlns:gadfly="http://www.gadflyjl.org/ns"
     version="1.2"
     width="320mm" height="160mm" viewBox="0 0 320 160"
     stroke="none"
     fill="#000000"
     stroke-width="0.3"
     font-size="3.88"
>
<g class="plotroot xscalable yscalable" id="img-d62b03e9-1">
  <g class="guide colorkey" id="img-d62b03e9-2">
    <g class="color_Democratic" id="img-d62b03e9-3">
      <g fill="#FFFFFF" font-size="4.76" font-family="'PT Sans','Helvetica Neue','Helvetica',sans-serif" id="img-d62b03e9-4">
        <text x="58.33" y="149.82" dy="0.35em">Democratic</text>
      </g>
      <g fill="#0000FF" stroke="#000000" stroke-opacity="0.000" id="img-d62b03e9-5">
        <rect x="54.36" y="148.34" width="2.97" height="2.97"/>
      </g>
    </g>
    <g class="color_Republican" id="img-d62b03e9-6">
      <g fill="#FFFFFF" font-size="4.76" font-family="'PT Sans','Helvetica Neue','Helvetica',sans-serif" id="img-d62b03e9-7">
        <text x="29.73" y="149.82" dy="0.35em">Republican</text>
      </g>
      <g fill="#FF0000" stroke="#000000" stroke-opacity="0.000" id="img-d62b03e9-8">
        <rect x="25.76" y="148.34" width="2.97" height="2.97"/>
      </g>
    </g>
    <g fill="#FFFFFF" font-size="6.35" font-family="'PT Sans','Helvetica Neue','Helvetica',sans-serif" stroke="#000000" stroke-opacity="0.000" id="img-d62b03e9-9">
      <text x="25.76" y="145.06">Party</text>
    </g>
  </g>
  <g font-size="6.35" font-family="'PT Sans','Helvetica Neue','Helvetica',sans-serif" fill="#FFFFFF" stroke="#000000" stroke-opacity="0.000" id="img-d62b03e9-10">
    <text x="169.88" y="129.36" text-anchor="middle" dy="0.6em">Popular Vote (%)</text>
  </g>
  <g class="guide xlabels" font-size="4.76" font-family="'PT Sans Caption','Helvetica Neue','Helvetica',sans-serif" fill="#FFFFFF" id="img-d62b03e9-11">
    <text x="26.76" y="121.48" text-anchor="middle" dy="0.6em">0</text>
    <text x="98.32" y="121.48" text-anchor="middle" dy="0.6em">25</text>
    <text x="169.88" y="121.48" text-anchor="middle" dy="0.6em">50</text>
    <text x="241.44" y="121.48" text-anchor="middle" dy="0.6em">75</text>
    <text x="313" y="121.48" text-anchor="middle" dy="0.6em">100</text>
  </g>
<g clip-path="url(#img-d62b03e9-12)">
  <g id="img-d62b03e9-13">
    <g pointer-events="visible" opacity="1" fill="#000000" fill-opacity="0.000" stroke="#000000" stroke-opacity="0.000" class="guide background" id="img-d62b03e9-14">
      <rect x="24.76" y="5" width="290.24" height="115.48"/>
    </g>
    <g class="guide ygridlines xfixed" stroke-dasharray="0.5,0.5" stroke-width="0.26" stroke="#FFFFFF" id="img-d62b03e9-15">
      <path fill="none" d="M24.76,118.48 L 315 118.48"/>
      <path fill="none" d="M24.76,90.61 L 315 90.61"/>
      <path fill="none" d="M24.76,62.74 L 315 62.74"/>
      <path fill="none" d="M24.76,34.87 L 315 34.87"/>
      <path fill="none" d="M24.76,7 L 315 7"/>
    </g>
    <g class="guide xgridlines yfixed" stroke-dasharray="0.5,0.5" stroke-width="0.26" stroke="#FFFFFF" id="img-d62b03e9-16">
      <path fill="none" d="M26.76,5 L 26.76 120.48"/>
      <path fill="none" d="M98.32,5 L 98.32 120.48"/>
      <path fill="none" d="M169.88,5 L 169.88 120.48"/>
      <path fill="none" d="M241.44,5 L 241.44 120.48"/>
      <path fill="none" d="M313,5 L 313 120.48"/>
    </g>
    <g class="plotpanel" id="img-d62b03e9-17">
      <g stroke-width="0.3" fill="#000000" fill-opacity="0.000" stroke-dasharray="none" id="img-d62b03e9-18">
        <path fill="none" d="M109.7,124.71 L 109.82 124.57 109.94 124.42 110.07 124.28 110.19 124.14 110.31 124 110.44 123.86 110.56 123.72 110.68 123.58 110.81 123.44 110.93 123.3 111.05 123.16 111.18 123.01 111.3 122.87 111.43 122.73 111.55 122.59 111.67 122.45 111.8 122.31 111.92 122.17 112.04 122.03 112.17 121.89 112.29 121.75 112.41 121.61 112.54 121.46 112.66 121.32 112.78 121.18 112.91 121.04 113.03 120.9 113.15 120.76 113.28 120.62 113.4 120.48 113.53 120.34 113.65 120.2 113.77 120.06 113.9 119.91 114.02 119.77 114.14 119.63 114.27 119.49 114.39 119.35 114.51 119.21 114.64 119.07 114.76 118.93 114.88 118.79 115.01 118.65 115.13 118.5 115.26 118.36 115.38 118.22 115.5 118.08 115.63 117.94 115.75 117.8 115.87 117.66 116 117.52 116.12 117.38 116.24 117.24 116.37 117.1 116.49 116.95 116.61 116.81 116.74 116.67 116.86 116.53 116.98 116.39 117.11 116.25 117.23 116.11 117.36 115.97 117.48 115.83 117.6 115.69 117.73 115.54 117.85 115.4 117.97 115.26 118.1 115.12 118.22 114.98 118.34 114.84 118.47 114.7 118.59 114.56 118.71 114.42 118.84 114.28 118.96 114.14 119.09 113.99 119.21 113.85 119.33 113.71 119.46 113.57 119.58 113.43 119.7 113.29 119.83 113.15 119.95 113.01 120.07 112.87 120.2 112.73 120.32 112.58 120.44 112.44 120.57 112.3 120.69 112.16 120.81 112.02 120.94 111.88 121.06 111.74 121.19 111.6 121.31 111.46 121.43 111.32 121.56 111.18 121.68 111.03 121.8 110.89 121.93 110.75 122.05 110.61 122.17 110.47 122.3 110.33 122.42 110.19 122.54 110.05 122.67 109.91 122.79 109.77 122.92 109.63 123.04 109.48 123.16 109.34 123.29 109.2 123.41 109.06 123.53 108.92 123.66 108.78 123.78 108.64 123.9 108.5 124.03 108.36 124.15 108.22 124.27 108.07 124.4 107.93 124.52 107.79 124.64 107.65 124.77 107.51 124.89 107.37 125.02 107.23 125.14 107.09 125.26 106.95 125.39 106.81 125.51 106.67 125.63 106.52 125.76 106.38 125.88 106.24 126 106.1 126.13 105.96 126.25 105.82 126.37 105.68 126.5 105.54 126.62 105.4 126.75 105.26 126.87 105.11 126.99 104.97 127.12 104.83 127.24 104.69 127.36 104.55 127.49 104.41 127.61 104.27 127.73 104.13 127.86 103.99 127.98 103.85 128.1 103.71 128.23 103.56 128.35 103.42 128.47 103.28 128.6 103.14 128.72 103 128.85 102.86 128.97 102.72 129.09 102.58 129.22 102.44 129.34 102.3 129.46 102.15 129.59 102.01 129.71 101.87 129.83 101.73 129.96 101.59 130.08 101.45 130.2 101.31 130.33 101.17 130.45 101.03 130.58 100.89 130.7 100.75 130.82 100.6 130.95 100.46 131.07 100.32 131.19 100.18 131.32 100.04 131.44 99.9 131.56 99.76 131.69 99.62 131.81 99.48 131.93 99.34 132.06 99.2 132.18 99.05 132.3 98.91 132.43 98.77 132.55 98.63 132.68 98.49 132.8 98.35 132.92 98.21 133.05 98.07 133.17 97.93 133.29 97.79 133.42 97.64 133.54 97.5 133.66 97.36 133.79 97.22 133.91 97.08 134.03 96.94 134.16 96.8 134.28 96.66 134.41 96.52 134.53 96.38 134.65 96.24 134.78 96.09 134.9 95.95 135.02 95.81 135.15 95.67 135.27 95.53 135.39 95.39 135.52 95.25 135.64 95.11 135.76 94.97 135.89 94.83 136.01 94.68 136.13 94.54 136.26 94.4 136.38 94.26 136.51 94.12 136.63 93.98 136.75 93.84 136.88 93.7 137 93.56 137.12 93.42 137.25 93.28 137.37 93.13 137.49 92.99 137.62 92.85 137.74 92.71 137.86 92.57 137.99 92.43 138.11 92.29 138.24 92.15 138.36 92.01 138.48 91.87 138.61 91.72 138.73 91.58 138.85 91.44 138.98 91.3 139.1 91.16 139.22 91.02 139.35 90.88 139.47 90.74 139.59 90.6 139.72 90.46 139.84 90.32 139.96 90.17 140.09 90.03 140.21 89.89 140.34 89.75 140.46 89.61 140.58 89.47 140.71 89.33 140.83 89.19 140.95 89.05 141.08 88.91 141.2 88.76 141.32 88.62 141.45 88.48 141.57 88.34 141.69 88.2 141.82 88.06 141.94 87.92 142.07 87.78 142.19 87.64 142.31 87.5 142.44 87.36 142.56 87.21 142.68 87.07 142.81 86.93 142.93 86.79 143.05 86.65 143.18 86.51 143.3 86.37 143.42 86.23 143.55 86.09 143.67 85.95 143.79 85.81 143.92 85.66 144.04 85.52 144.17 85.38 144.29 85.24 144.41 85.1 144.54 84.96 144.66 84.82 144.78 84.68 144.91 84.54 145.03 84.4 145.15 84.25 145.28 84.11 145.4 83.97 145.52 83.83 145.65 83.69 145.77 83.55 145.9 83.41 146.02 83.27 146.14 83.13 146.27 82.99 146.39 82.85 146.51 82.7 146.64 82.56 146.76 82.42 146.88 82.28 147.01 82.14 147.13 82 147.25 81.86 147.38 81.72 147.5 81.58 147.62 81.44 147.75 81.29 147.87 81.15 148 81.01 148.12 80.87 148.24 80.73 148.37 80.59 148.49 80.45 148.61 80.31 148.74 80.17 148.86 80.03 148.98 79.89 149.11 79.74 149.23 79.6 149.35 79.46 149.48 79.32 149.6 79.18 149.73 79.04 149.85 78.9 149.97 78.76 150.1 78.62 150.22 78.48 150.34 78.33 150.47 78.19 150.59 78.05 150.71 77.91 150.84 77.77 150.96 77.63 151.08 77.49 151.21 77.35 151.33 77.21 151.45 77.07 151.58 76.93 151.7 76.78 151.83 76.64 151.95 76.5 152.07 76.36 152.2 76.22 152.32 76.08 152.44 75.94 152.57 75.8 152.69 75.66 152.81 75.52 152.94 75.38 153.06 75.23 153.18 75.09 153.31 74.95 153.43 74.81 153.56 74.67 153.68 74.53 153.8 74.39 153.93 74.25 154.05 74.11 154.17 73.97 154.3 73.82 154.42 73.68 154.54 73.54 154.67 73.4 154.79 73.26 154.91 73.12 155.04 72.98 155.16 72.84 155.28 72.7 155.41 72.56 155.53 72.42 155.66 72.27 155.78 72.13 155.9 71.99 156.03 71.85 156.15 71.71 156.27 71.57 156.4 71.43 156.52 71.29 156.64 71.15 156.77 71.01 156.89 70.86 157.01 70.72 157.14 70.58 157.26 70.44 157.39 70.3 157.51 70.16 157.63 70.02 157.76 69.88 157.88 69.74 158 69.6 158.13 69.46 158.25 69.31 158.37 69.17 158.5 69.03 158.62 68.89 158.74 68.75 158.87 68.61 158.99 68.47 159.11 68.33 159.24 68.19 159.36 68.05 159.49 67.9 159.61 67.76 159.73 67.62 159.86 67.48 159.98 67.34 160.1 67.2 160.23 67.06 160.35 66.92 160.47 66.78 160.6 66.64 160.72 66.5 160.84 66.35 160.97 66.21 161.09 66.07 161.22 65.93 161.34 65.79 161.46 65.65 161.59 65.51 161.71 65.37 161.83 65.23 161.96 65.09 162.08 64.95 162.2 64.8 162.33 64.66 162.45 64.52 162.57 64.38 162.7 64.24 162.82 64.1 162.94 63.96 163.07 63.82 163.19 63.68 163.32 63.54 163.44 63.39 163.56 63.25 163.69 63.11 163.81 62.97 163.93 62.83 164.06 62.69 164.18 62.55 164.3 62.41 164.43 62.27 164.55 62.13 164.67 61.99 164.8 61.84 164.92 61.7 165.05 61.56 165.17 61.42 165.29 61.28 165.42 61.14 165.54 61 165.66 60.86 165.79 60.72 165.91 60.58 166.03 60.43 166.16 60.29 166.28 60.15 166.4 60.01 166.53 59.87 166.65 59.73 166.77 59.59 166.9 59.45 167.02 59.31 167.15 59.17 167.27 59.03 167.39 58.88 167.52 58.74 167.64 58.6 167.76 58.46 167.89 58.32 168.01 58.18 168.13 58.04 168.26 57.9 168.38 57.76 168.5 57.62 168.63 57.47 168.75 57.33 168.88 57.19 169 57.05 169.12 56.91 169.25 56.77 169.37 56.63 169.49 56.49 169.62 56.35 169.74 56.21 169.86 56.07 169.99 55.92 170.11 55.78 170.23 55.64 170.36 55.5 170.48 55.36 170.6 55.22 170.73 55.08 170.85 54.94 170.98 54.8 171.1 54.66 171.22 54.51 171.35 54.37 171.47 54.23 171.59 54.09 171.72 53.95 171.84 53.81 171.96 53.67 172.09 53.53 172.21 53.39 172.33 53.25 172.46 53.11 172.58 52.96 172.71 52.82 172.83 52.68 172.95 52.54 173.08 52.4 173.2 52.26 173.32 52.12 173.45 51.98 173.57 51.84 173.69 51.7 173.82 51.56 173.94 51.41 174.06 51.27 174.19 51.13 174.31 50.99 174.43 50.85 174.56 50.71 174.68 50.57 174.81 50.43 174.93 50.29 175.05 50.15 175.18 50 175.3 49.86 175.42 49.72 175.55 49.58 175.67 49.44 175.79 49.3 175.92 49.16 176.04 49.02 176.16 48.88 176.29 48.74 176.41 48.6 176.53 48.45 176.66 48.31 176.78 48.17 176.91 48.03 177.03 47.89 177.15 47.75 177.28 47.61 177.4 47.47 177.52 47.33 177.65 47.19 177.77 47.04 177.89 46.9 178.02 46.76 178.14 46.62 178.26 46.48 178.39 46.34 178.51 46.2 178.64 46.06 178.76 45.92 178.88 45.78 179.01 45.64 179.13 45.49 179.25 45.35 179.38 45.21 179.5 45.07 179.62 44.93 179.75 44.79 179.87 44.65 179.99 44.51 180.12 44.37 180.24 44.23 180.36 44.08 180.49 43.94 180.61 43.8 180.74 43.66 180.86 43.52 180.98 43.38 181.11 43.24 181.23 43.1 181.35 42.96 181.48 42.82 181.6 42.68 181.72 42.53 181.85 42.39 181.97 42.25 182.09 42.11 182.22 41.97 182.34 41.83 182.47 41.69 182.59 41.55 182.71 41.41 182.84 41.27 182.96 41.13 183.08 40.98 183.21 40.84 183.33 40.7 183.45 40.56 183.58 40.42 183.7 40.28 183.82 40.14 183.95 40 184.07 39.86 184.19 39.72 184.32 39.57 184.44 39.43 184.57 39.29 184.69 39.15 184.81 39.01 184.94 38.87 185.06 38.73 185.18 38.59 185.31 38.45 185.43 38.31 185.55 38.17 185.68 38.02 185.8 37.88 185.92 37.74 186.05 37.6 186.17 37.46 186.3 37.32 186.42 37.18 186.54 37.04 186.67 36.9 186.79 36.76 186.91 36.61 187.04 36.47 187.16 36.33 187.28 36.19 187.41 36.05 187.53 35.91 187.65 35.77 187.78 35.63 187.9 35.49 188.02 35.35 188.15 35.21 188.27 35.06 188.4 34.92 188.52 34.78 188.64 34.64 188.77 34.5 188.89 34.36 189.01 34.22 189.14 34.08 189.26 33.94 189.38 33.8 189.51 33.65 189.63 33.51 189.75 33.37 189.88 33.23 190 33.09 190.13 32.95 190.25 32.81 190.37 32.67 190.5 32.53 190.62 32.39 190.74 32.25 190.87 32.1 190.99 31.96 191.11 31.82 191.24 31.68 191.36 31.54 191.48 31.4 191.61 31.26 191.73 31.12 191.85 30.98 191.98 30.84 192.1 30.7 192.23 30.55 192.35 30.41 192.47 30.27 192.6 30.13 192.72 29.99 192.84 29.85 192.97 29.71 193.09 29.57 193.21 29.43 193.34 29.29 193.46 29.14 193.58 29 193.71 28.86 193.83 28.72 193.96 28.58 194.08 28.44 194.2 28.3 194.33 28.16 194.45 28.02 194.57 27.88 194.7 27.74 194.82 27.59 194.94 27.45 195.07 27.31 195.19 27.17 195.31 27.03 195.44 26.89 195.56 26.75 195.68 26.61 195.81 26.47 195.93 26.33 196.06 26.18 196.18 26.04 196.3 25.9 196.43 25.76 196.55 25.62 196.67 25.48 196.8 25.34 196.92 25.2 197.04 25.06 197.17 24.92 197.29 24.78 197.41 24.63 197.54 24.49 197.66 24.35 197.79 24.21 197.91 24.07 198.03 23.93 198.16 23.79 198.28 23.65 198.4 23.51 198.53 23.37 198.65 23.22 198.77 23.08 198.9 22.94 199.02 22.8 199.14 22.66 199.27 22.52 199.39 22.38 199.51 22.24 199.64 22.1 199.76 21.96 199.89 21.82 200.01 21.67 200.13 21.53 200.26 21.39 200.38 21.25 200.5 21.11 200.63 20.97 200.75 20.83 200.87 20.69 201 20.55 201.12 20.41 201.24 20.26 201.37 20.12 201.49 19.98 201.62 19.84 201.74 19.7 201.86 19.56 201.99 19.42 202.11 19.28 202.23 19.14" stroke="#0000FF" class="geometry color_Democratic"/>
        <path fill="none" d="M93.27,137.67 L 93.41 137.51 93.55 137.35 93.7 137.2 93.84 137.04 93.99 136.88 94.13 136.72 94.27 136.56 94.42 136.4 94.56 136.25 94.7 136.09 94.85 135.93 94.99 135.77 95.14 135.61 95.28 135.45 95.42 135.3 95.57 135.14 95.71 134.98 95.85 134.82 96 134.66 96.14 134.5 96.29 134.34 96.43 134.19 96.57 134.03 96.72 133.87 96.86 133.71 97.01 133.55 97.15 133.39 97.29 133.24 97.44 133.08 97.58 132.92 97.72 132.76 97.87 132.6 98.01 132.44 98.16 132.29 98.3 132.13 98.44 131.97 98.59 131.81 98.73 131.65 98.87 131.49 99.02 131.33 99.16 131.18 99.31 131.02 99.45 130.86 99.59 130.7 99.74 130.54 99.88 130.38 100.02 130.23 100.17 130.07 100.31 129.91 100.46 129.75 100.6 129.59 100.74 129.43 100.89 129.28 101.03 129.12 101.17 128.96 101.32 128.8 101.46 128.64 101.61 128.48 101.75 128.32 101.89 128.17 102.04 128.01 102.18 127.85 102.32 127.69 102.47 127.53 102.61 127.37 102.76 127.22 102.9 127.06 103.04 126.9 103.19 126.74 103.33 126.58 103.47 126.42 103.62 126.27 103.76 126.11 103.91 125.95 104.05 125.79 104.19 125.63 104.34 125.47 104.48 125.31 104.62 125.16 104.77 125 104.91 124.84 105.06 124.68 105.2 124.52 105.34 124.36 105.49 124.21 105.63 124.05 105.78 123.89 105.92 123.73 106.06 123.57 106.21 123.41 106.35 123.26 106.49 123.1 106.64 122.94 106.78 122.78 106.93 122.62 107.07 122.46 107.21 122.31 107.36 122.15 107.5 121.99 107.64 121.83 107.79 121.67 107.93 121.51 108.08 121.35 108.22 121.2 108.36 121.04 108.51 120.88 108.65 120.72 108.79 120.56 108.94 120.4 109.08 120.25 109.23 120.09 109.37 119.93 109.51 119.77 109.66 119.61 109.8 119.45 109.94 119.3 110.09 119.14 110.23 118.98 110.38 118.82 110.52 118.66 110.66 118.5 110.81 118.34 110.95 118.19 111.09 118.03 111.24 117.87 111.38 117.71 111.53 117.55 111.67 117.39 111.81 117.24 111.96 117.08 112.1 116.92 112.24 116.76 112.39 116.6 112.53 116.44 112.68 116.29 112.82 116.13 112.96 115.97 113.11 115.81 113.25 115.65 113.39 115.49 113.54 115.33 113.68 115.18 113.83 115.02 113.97 114.86 114.11 114.7 114.26 114.54 114.4 114.38 114.55 114.23 114.69 114.07 114.83 113.91 114.98 113.75 115.12 113.59 115.26 113.43 115.41 113.28 115.55 113.12 115.7 112.96 115.84 112.8 115.98 112.64 116.13 112.48 116.27 112.33 116.41 112.17 116.56 112.01 116.7 111.85 116.85 111.69 116.99 111.53 117.13 111.37 117.28 111.22 117.42 111.06 117.56 110.9 117.71 110.74 117.85 110.58 118 110.42 118.14 110.27 118.28 110.11 118.43 109.95 118.57 109.79 118.71 109.63 118.86 109.47 119 109.32 119.15 109.16 119.29 109 119.43 108.84 119.58 108.68 119.72 108.52 119.86 108.36 120.01 108.21 120.15 108.05 120.3 107.89 120.44 107.73 120.58 107.57 120.73 107.41 120.87 107.26 121.01 107.1 121.16 106.94 121.3 106.78 121.45 106.62 121.59 106.46 121.73 106.31 121.88 106.15 122.02 105.99 122.16 105.83 122.31 105.67 122.45 105.51 122.6 105.35 122.74 105.2 122.88 105.04 123.03 104.88 123.17 104.72 123.32 104.56 123.46 104.4 123.6 104.25 123.75 104.09 123.89 103.93 124.03 103.77 124.18 103.61 124.32 103.45 124.47 103.3 124.61 103.14 124.75 102.98 124.9 102.82 125.04 102.66 125.18 102.5 125.33 102.34 125.47 102.19 125.62 102.03 125.76 101.87 125.9 101.71 126.05 101.55 126.19 101.39 126.33 101.24 126.48 101.08 126.62 100.92 126.77 100.76 126.91 100.6 127.05 100.44 127.2 100.29 127.34 100.13 127.48 99.97 127.63 99.81 127.77 99.65 127.92 99.49 128.06 99.34 128.2 99.18 128.35 99.02 128.49 98.86 128.63 98.7 128.78 98.54 128.92 98.38 129.07 98.23 129.21 98.07 129.35 97.91 129.5 97.75 129.64 97.59 129.78 97.43 129.93 97.28 130.07 97.12 130.22 96.96 130.36 96.8 130.5 96.64 130.65 96.48 130.79 96.33 130.93 96.17 131.08 96.01 131.22 95.85 131.37 95.69 131.51 95.53 131.65 95.37 131.8 95.22 131.94 95.06 132.09 94.9 132.23 94.74 132.37 94.58 132.52 94.42 132.66 94.27 132.8 94.11 132.95 93.95 133.09 93.79 133.24 93.63 133.38 93.47 133.52 93.32 133.67 93.16 133.81 93 133.95 92.84 134.1 92.68 134.24 92.52 134.39 92.36 134.53 92.21 134.67 92.05 134.82 91.89 134.96 91.73 135.1 91.57 135.25 91.41 135.39 91.26 135.54 91.1 135.68 90.94 135.82 90.78 135.97 90.62 136.11 90.46 136.25 90.31 136.4 90.15 136.54 89.99 136.69 89.83 136.83 89.67 136.97 89.51 137.12 89.36 137.26 89.2 137.4 89.04 137.55 88.88 137.69 88.72 137.84 88.56 137.98 88.4 138.12 88.25 138.27 88.09 138.41 87.93 138.55 87.77 138.7 87.61 138.84 87.45 138.99 87.3 139.13 87.14 139.27 86.98 139.42 86.82 139.56 86.66 139.7 86.5 139.85 86.35 139.99 86.19 140.14 86.03 140.28 85.87 140.42 85.71 140.57 85.55 140.71 85.39 140.85 85.24 141 85.08 141.14 84.92 141.29 84.76 141.43 84.6 141.57 84.44 141.72 84.29 141.86 84.13 142.01 83.97 142.15 83.81 142.29 83.65 142.44 83.49 142.58 83.34 142.72 83.18 142.87 83.02 143.01 82.86 143.16 82.7 143.3 82.54 143.44 82.38 143.59 82.23 143.73 82.07 143.87 81.91 144.02 81.75 144.16 81.59 144.31 81.43 144.45 81.28 144.59 81.12 144.74 80.96 144.88 80.8 145.02 80.64 145.17 80.48 145.31 80.33 145.46 80.17 145.6 80.01 145.74 79.85 145.89 79.69 146.03 79.53 146.17 79.37 146.32 79.22 146.46 79.06 146.61 78.9 146.75 78.74 146.89 78.58 147.04 78.42 147.18 78.27 147.32 78.11 147.47 77.95 147.61 77.79 147.76 77.63 147.9 77.47 148.04 77.32 148.19 77.16 148.33 77 148.47 76.84 148.62 76.68 148.76 76.52 148.91 76.37 149.05 76.21 149.19 76.05 149.34 75.89 149.48 75.73 149.62 75.57 149.77 75.41 149.91 75.26 150.06 75.1 150.2 74.94 150.34 74.78 150.49 74.62 150.63 74.46 150.78 74.31 150.92 74.15 151.06 73.99 151.21 73.83 151.35 73.67 151.49 73.51 151.64 73.36 151.78 73.2 151.93 73.04 152.07 72.88 152.21 72.72 152.36 72.56 152.5 72.4 152.64 72.25 152.79 72.09 152.93 71.93 153.08 71.77 153.22 71.61 153.36 71.45 153.51 71.3 153.65 71.14 153.79 70.98 153.94 70.82 154.08 70.66 154.23 70.5 154.37 70.35 154.51 70.19 154.66 70.03 154.8 69.87 154.94 69.71 155.09 69.55 155.23 69.39 155.38 69.24 155.52 69.08 155.66 68.92 155.81 68.76 155.95 68.6 156.09 68.44 156.24 68.29 156.38 68.13 156.53 67.97 156.67 67.81 156.81 67.65 156.96 67.49 157.1 67.34 157.24 67.18 157.39 67.02 157.53 66.86 157.68 66.7 157.82 66.54 157.96 66.39 158.11 66.23 158.25 66.07 158.39 65.91 158.54 65.75 158.68 65.59 158.83 65.43 158.97 65.28 159.11 65.12 159.26 64.96 159.4 64.8 159.55 64.64 159.69 64.48 159.83 64.33 159.98 64.17 160.12 64.01 160.26 63.85 160.41 63.69 160.55 63.53 160.7 63.38 160.84 63.22 160.98 63.06 161.13 62.9 161.27 62.74 161.41 62.58 161.56 62.42 161.7 62.27 161.85 62.11 161.99 61.95 162.13 61.79 162.28 61.63 162.42 61.47 162.56 61.32 162.71 61.16 162.85 61 163 60.84 163.14 60.68 163.28 60.52 163.43 60.37 163.57 60.21 163.71 60.05 163.86 59.89 164 59.73 164.15 59.57 164.29 59.41 164.43 59.26 164.58 59.1 164.72 58.94 164.86 58.78 165.01 58.62 165.15 58.46 165.3 58.31 165.44 58.15 165.58 57.99 165.73 57.83 165.87 57.67 166.01 57.51 166.16 57.36 166.3 57.2 166.45 57.04 166.59 56.88 166.73 56.72 166.88 56.56 167.02 56.4 167.16 56.25 167.31 56.09 167.45 55.93 167.6 55.77 167.74 55.61 167.88 55.45 168.03 55.3 168.17 55.14 168.32 54.98 168.46 54.82 168.6 54.66 168.75 54.5 168.89 54.35 169.03 54.19 169.18 54.03 169.32 53.87 169.47 53.71 169.61 53.55 169.75 53.4 169.9 53.24 170.04 53.08 170.18 52.92 170.33 52.76 170.47 52.6 170.62 52.44 170.76 52.29 170.9 52.13 171.05 51.97 171.19 51.81 171.33 51.65 171.48 51.49 171.62 51.34 171.77 51.18 171.91 51.02 172.05 50.86 172.2 50.7 172.34 50.54 172.48 50.39 172.63 50.23 172.77 50.07 172.92 49.91 173.06 49.75 173.2 49.59 173.35 49.43 173.49 49.28 173.63 49.12 173.78 48.96 173.92 48.8 174.07 48.64 174.21 48.48 174.35 48.33 174.5 48.17 174.64 48.01 174.78 47.85 174.93 47.69 175.07 47.53 175.22 47.38 175.36 47.22 175.5 47.06 175.65 46.9 175.79 46.74 175.93 46.58 176.08 46.42 176.22 46.27 176.37 46.11 176.51 45.95 176.65 45.79 176.8 45.63 176.94 45.47 177.09 45.32 177.23 45.16 177.37 45 177.52 44.84 177.66 44.68 177.8 44.52 177.95 44.37 178.09 44.21 178.24 44.05 178.38 43.89 178.52 43.73 178.67 43.57 178.81 43.42 178.95 43.26 179.1 43.1 179.24 42.94 179.39 42.78 179.53 42.62 179.67 42.46 179.82 42.31 179.96 42.15 180.1 41.99 180.25 41.83 180.39 41.67 180.54 41.51 180.68 41.36 180.82 41.2 180.97 41.04 181.11 40.88 181.25 40.72 181.4 40.56 181.54 40.41 181.69 40.25 181.83 40.09 181.97 39.93 182.12 39.77 182.26 39.61 182.4 39.45 182.55 39.3 182.69 39.14 182.84 38.98 182.98 38.82 183.12 38.66 183.27 38.5 183.41 38.35 183.55 38.19 183.7 38.03 183.84 37.87 183.99 37.71 184.13 37.55 184.27 37.4 184.42 37.24 184.56 37.08 184.7 36.92 184.85 36.76 184.99 36.6 185.14 36.44 185.28 36.29 185.42 36.13 185.57 35.97 185.71 35.81 185.85 35.65 186 35.49 186.14 35.34 186.29 35.18 186.43 35.02 186.57 34.86 186.72 34.7 186.86 34.54 187.01 34.39 187.15 34.23 187.29 34.07 187.44 33.91 187.58 33.75 187.72 33.59 187.87 33.43 188.01 33.28 188.16 33.12 188.3 32.96 188.44 32.8 188.59 32.64 188.73 32.48 188.87 32.33 189.02 32.17 189.16 32.01 189.31 31.85 189.45 31.69 189.59 31.53 189.74 31.38 189.88 31.22 190.02 31.06 190.17 30.9 190.31 30.74 190.46 30.58 190.6 30.43 190.74 30.27 190.89 30.11 191.03 29.95 191.17 29.79 191.32 29.63 191.46 29.47 191.61 29.32 191.75 29.16 191.89 29 192.04 28.84 192.18 28.68 192.32 28.52 192.47 28.37 192.61 28.21 192.76 28.05 192.9 27.89 193.04 27.73 193.19 27.57 193.33 27.42 193.47 27.26 193.62 27.1 193.76 26.94 193.91 26.78 194.05 26.62 194.19 26.46 194.34 26.31 194.48 26.15 194.62 25.99 194.77 25.83 194.91 25.67 195.06 25.51 195.2 25.36 195.34 25.2 195.49 25.04 195.63 24.88 195.78 24.72 195.92 24.56 196.06 24.41 196.21 24.25 196.35 24.09 196.49 23.93 196.64 23.77 196.78 23.61 196.93 23.45 197.07 23.3 197.21 23.14 197.36 22.98 197.5 22.82 197.64 22.66 197.79 22.5 197.93 22.35 198.08 22.19 198.22 22.03 198.36 21.87 198.51 21.71 198.65 21.55 198.79 21.4 198.94 21.24 199.08 21.08 199.23 20.92 199.37 20.76 199.51 20.6 199.66 20.45 199.8 20.29 199.94 20.13 200.09 19.97 200.23 19.81 200.38 19.65 200.52 19.49 200.66 19.34 200.81 19.18 200.95 19.02" stroke="#FF0000" class="geometry color_Republican"/>
      </g>
      <g class="geometry" id="img-d62b03e9-19">
        <g stroke-width="0.3" id="img-d62b03e9-20">
          <use xlink:href="#img-d62b03e9-21" x="121.55" y="75.55" stroke="#FFFFFF" fill="#FF0000" class="color_Republican"/>
          <use xlink:href="#img-d62b03e9-21" x="140.26" y="52.25" stroke="#FFFFFF" fill="#FF0000" class="color_Republican"/>
          <use xlink:href="#img-d62b03e9-21" x="184.31" y="17.05" stroke="#FFFFFF" fill="#FF0000" class="color_Republican"/>
          <use xlink:href="#img-d62b03e9-21" x="177.5" y="37.33" stroke="#FFFFFF" fill="#FF0000" class="color_Republican"/>
          <use xlink:href="#img-d62b03e9-21" x="186.3" y="27.9" stroke="#FFFFFF" fill="#FF0000" class="color_Republican"/>
          <use xlink:href="#img-d62b03e9-21" x="164.15" y="62.59" stroke="#FFFFFF" fill="#FF0000" class="color_Republican"/>
          <use xlink:href="#img-d62b03e9-21" x="165.26" y="53.83" stroke="#FFFFFF" fill="#FF0000" class="color_Republican"/>
          <use xlink:href="#img-d62b03e9-21" x="165" y="67.88" stroke="#FFFFFF" fill="#FF0000" class="color_Republican"/>
          <use xlink:href="#img-d62b03e9-21" x="163.67" y="53.71" stroke="#FFFFFF" fill="#FF0000" class="color_Republican"/>
          <use xlink:href="#img-d62b03e9-21" x="150.14" y="82.07" stroke="#FFFFFF" fill="#FF0000" class="color_Republican"/>
          <use xlink:href="#img-d62b03e9-21" x="173.03" y="50.89" stroke="#FFFFFF" fill="#FF0000" class="color_Republican"/>
          <use xlink:href="#img-d62b03e9-21" x="174.72" y="45.66" stroke="#FFFFFF" fill="#FF0000" class="color_Republican"/>
          <use xlink:href="#img-d62b03e9-21" x="188.66" y="39.79" stroke="#FFFFFF" fill="#FF0000" class="color_Republican"/>
          <use xlink:href="#img-d62b03e9-21" x="174.81" y="44.39" stroke="#FFFFFF" fill="#FF0000" class="color_Republican"/>
          <use xlink:href="#img-d62b03e9-21" x="93.27" y="116.8" stroke="#FFFFFF" fill="#FF0000" class="color_Republican"/>
          <use xlink:href="#img-d62b03e9-21" x="159.1" y="65.15" stroke="#FFFFFF" fill="#FF0000" class="color_Republican"/>
          <use xlink:href="#img-d62b03e9-21" x="200.23" y="33.66" stroke="#FFFFFF" fill="#FF0000" class="color_Republican"/>
          <use xlink:href="#img-d62b03e9-21" x="182.25" y="38.28" stroke="#FFFFFF" fill="#FF0000" class="color_Republican"/>
          <use xlink:href="#img-d62b03e9-21" x="193.84" y="25.27" stroke="#FFFFFF" fill="#FF0000" class="color_Republican"/>
          <use xlink:href="#img-d62b03e9-21" x="140.77" y="106.09" stroke="#FFFFFF" fill="#FF0000" class="color_Republican"/>
          <use xlink:href="#img-d62b03e9-21" x="131.67" y="116.8" stroke="#FFFFFF" fill="#FF0000" class="color_Republican"/>
          <use xlink:href="#img-d62b03e9-21" x="155.57" y="101.27" stroke="#FFFFFF" fill="#FF0000" class="color_Republican"/>
          <use xlink:href="#img-d62b03e9-21" x="158.7" y="97.7" stroke="#FFFFFF" fill="#FF0000" class="color_Republican"/>
          <use xlink:href="#img-d62b03e9-21" x="156.17" y="78.8" stroke="#FFFFFF" fill="#FF0000" class="color_Republican"/>
          <use xlink:href="#img-d62b03e9-21" x="185.48" y="25.69" stroke="#FFFFFF" fill="#FF0000" class="color_Republican"/>
          <use xlink:href="#img-d62b03e9-21" x="191.54" y="22.35" stroke="#FFFFFF" fill="#FF0000" class="color_Republican"/>
          <use xlink:href="#img-d62b03e9-21" x="169.64" y="71.71" stroke="#FFFFFF" fill="#FF0000" class="color_Republican"/>
          <use xlink:href="#img-d62b03e9-21" x="137.4" y="107.71" stroke="#FFFFFF" fill="#FF0000" class="color_Republican"/>
          <use xlink:href="#img-d62b03e9-21" x="151.46" y="56.11" stroke="#FFFFFF" fill="#FF0000" class="color_Republican"/>
          <use xlink:href="#img-d62b03e9-21" x="201.09" y="10.73" stroke="#FFFFFF" fill="#FF0000" class="color_Republican"/>
          <use xlink:href="#img-d62b03e9-21" x="165.57" y="68.66" stroke="#FFFFFF" fill="#FF0000" class="color_Republican"/>
          <use xlink:href="#img-d62b03e9-21" x="172.45" y="17.15" stroke="#FFFFFF" fill="#FF0000" class="color_Republican"/>
          <use xlink:href="#img-d62b03e9-21" x="196.13" y="9.69" stroke="#FFFFFF" fill="#FF0000" class="color_Republican"/>
          <use xlink:href="#img-d62b03e9-21" x="180.32" y="30.04" stroke="#FFFFFF" fill="#FF0000" class="color_Republican"/>
          <use xlink:href="#img-d62b03e9-21" x="134.34" y="83.67" stroke="#FFFFFF" fill="#FF0000" class="color_Republican"/>
          <use xlink:href="#img-d62b03e9-21" x="143.81" y="85.53" stroke="#FFFFFF" fill="#FF0000" class="color_Republican"/>
          <use xlink:href="#img-d62b03e9-21" x="164.08" y="62.22" stroke="#FFFFFF" fill="#FF0000" class="color_Republican"/>
          <use xlink:href="#img-d62b03e9-21" x="172.4" y="59.11" stroke="#FFFFFF" fill="#FF0000" class="color_Republican"/>
          <use xlink:href="#img-d62b03e9-21" x="158.04" y="82.63" stroke="#FFFFFF" fill="#FF0000" class="color_Republican"/>
          <use xlink:href="#img-d62b03e9-21" x="162.39" y="75.79" stroke="#FFFFFF" fill="#FF0000" class="color_Republican"/>
          <use xlink:href="#img-d62b03e9-21" x="187.49" y="42.45" stroke="#FFFFFF" fill="#0000FF" class="color_Democratic"/>
          <use xlink:href="#img-d62b03e9-21" x="184.32" y="33.12" stroke="#FFFFFF" fill="#0000FF" class="color_Democratic"/>
          <use xlink:href="#img-d62b03e9-21" x="172.37" y="54.02" stroke="#FFFFFF" fill="#0000FF" class="color_Democratic"/>
          <use xlink:href="#img-d62b03e9-21" x="160.78" y="95.73" stroke="#FFFFFF" fill="#0000FF" class="color_Democratic"/>
          <use xlink:href="#img-d62b03e9-21" x="168.68" y="49.57" stroke="#FFFFFF" fill="#0000FF" class="color_Democratic"/>
          <use xlink:href="#img-d62b03e9-21" x="148.5" y="69.66" stroke="#FFFFFF" fill="#0000FF" class="color_Democratic"/>
          <use xlink:href="#img-d62b03e9-21" x="172.78" y="22.82" stroke="#FFFFFF" fill="#0000FF" class="color_Democratic"/>
          <use xlink:href="#img-d62b03e9-21" x="156.51" y="52.95" stroke="#FFFFFF" fill="#0000FF" class="color_Democratic"/>
          <use xlink:href="#img-d62b03e9-21" x="111.27" y="114.07" stroke="#FFFFFF" fill="#0000FF" class="color_Democratic"/>
          <use xlink:href="#img-d62b03e9-21" x="155.45" y="108.43" stroke="#FFFFFF" fill="#0000FF" class="color_Democratic"/>
          <use xlink:href="#img-d62b03e9-21" x="162.26" y="88.15" stroke="#FFFFFF" fill="#0000FF" class="color_Democratic"/>
          <use xlink:href="#img-d62b03e9-21" x="152.43" y="97.58" stroke="#FFFFFF" fill="#0000FF" class="color_Democratic"/>
          <use xlink:href="#img-d62b03e9-21" x="172.76" y="62.89" stroke="#FFFFFF" fill="#0000FF" class="color_Democratic"/>
          <use xlink:href="#img-d62b03e9-21" x="164.98" y="71.65" stroke="#FFFFFF" fill="#0000FF" class="color_Democratic"/>
          <use xlink:href="#img-d62b03e9-21" x="166.64" y="57.6" stroke="#FFFFFF" fill="#0000FF" class="color_Democratic"/>
          <use xlink:href="#img-d62b03e9-21" x="166.05" y="71.78" stroke="#FFFFFF" fill="#0000FF" class="color_Democratic"/>
          <use xlink:href="#img-d62b03e9-21" x="158.77" y="48.93" stroke="#FFFFFF" fill="#0000FF" class="color_Democratic"/>
          <use xlink:href="#img-d62b03e9-21" x="160.66" y="74.59" stroke="#FFFFFF" fill="#0000FF" class="color_Democratic"/>
          <use xlink:href="#img-d62b03e9-21" x="157.09" y="79.82" stroke="#FFFFFF" fill="#0000FF" class="color_Democratic"/>
          <use xlink:href="#img-d62b03e9-21" x="134.64" y="85.69" stroke="#FFFFFF" fill="#0000FF" class="color_Democratic"/>
          <use xlink:href="#img-d62b03e9-21" x="150.34" y="81.09" stroke="#FFFFFF" fill="#0000FF" class="color_Democratic"/>
          <use xlink:href="#img-d62b03e9-21" x="146.78" y="27.15" stroke="#FFFFFF" fill="#0000FF" class="color_Democratic"/>
          <use xlink:href="#img-d62b03e9-21" x="168.1" y="60.33" stroke="#FFFFFF" fill="#0000FF" class="color_Democratic"/>
          <use xlink:href="#img-d62b03e9-21" x="124.84" y="91.82" stroke="#FFFFFF" fill="#0000FF" class="color_Democratic"/>
          <use xlink:href="#img-d62b03e9-21" x="109.69" y="89.93" stroke="#FFFFFF" fill="#0000FF" class="color_Democratic"/>
          <use xlink:href="#img-d62b03e9-21" x="143.84" y="100.22" stroke="#FFFFFF" fill="#0000FF" class="color_Democratic"/>
          <use xlink:href="#img-d62b03e9-21" x="191.84" y="19.39" stroke="#FFFFFF" fill="#0000FF" class="color_Democratic"/>
          <use xlink:href="#img-d62b03e9-21" x="201.3" y="8.68" stroke="#FFFFFF" fill="#0000FF" class="color_Democratic"/>
          <use xlink:href="#img-d62b03e9-21" x="184.19" y="24.22" stroke="#FFFFFF" fill="#0000FF" class="color_Democratic"/>
          <use xlink:href="#img-d62b03e9-21" x="180.24" y="27.78" stroke="#FFFFFF" fill="#0000FF" class="color_Democratic"/>
          <use xlink:href="#img-d62b03e9-21" x="169.04" y="54.87" stroke="#FFFFFF" fill="#0000FF" class="color_Democratic"/>
          <use xlink:href="#img-d62b03e9-21" x="154.27" y="99.8" stroke="#FFFFFF" fill="#0000FF" class="color_Democratic"/>
          <use xlink:href="#img-d62b03e9-21" x="147.31" y="103.13" stroke="#FFFFFF" fill="#0000FF" class="color_Democratic"/>
          <use xlink:href="#img-d62b03e9-21" x="170.12" y="53.77" stroke="#FFFFFF" fill="#0000FF" class="color_Democratic"/>
          <use xlink:href="#img-d62b03e9-21" x="202.36" y="17.78" stroke="#FFFFFF" fill="#0000FF" class="color_Democratic"/>
          <use xlink:href="#img-d62b03e9-21" x="149.45" y="78.9" stroke="#FFFFFF" fill="#0000FF" class="color_Democratic"/>
          <use xlink:href="#img-d62b03e9-21" x="134.58" y="114.96" stroke="#FFFFFF" fill="#0000FF" class="color_Democratic"/>
          <use xlink:href="#img-d62b03e9-21" x="171.54" y="56.82" stroke="#FFFFFF" fill="#0000FF" class="color_Democratic"/>
          <use xlink:href="#img-d62b03e9-21" x="144.5" y="108.33" stroke="#FFFFFF" fill="#0000FF" class="color_Democratic"/>
          <use xlink:href="#img-d62b03e9-21" x="143.63" y="115.79" stroke="#FFFFFF" fill="#0000FF" class="color_Democratic"/>
          <use xlink:href="#img-d62b03e9-21" x="158.09" y="95.44" stroke="#FFFFFF" fill="#0000FF" class="color_Democratic"/>
          <use xlink:href="#img-d62b03e9-21" x="150.31" y="41.81" stroke="#FFFFFF" fill="#0000FF" class="color_Democratic"/>
          <use xlink:href="#img-d62b03e9-21" x="168.3" y="39.95" stroke="#FFFFFF" fill="#0000FF" class="color_Democratic"/>
          <use xlink:href="#img-d62b03e9-21" x="165.57" y="63.26" stroke="#FFFFFF" fill="#0000FF" class="color_Democratic"/>
          <use xlink:href="#img-d62b03e9-21" x="165.33" y="66.37" stroke="#FFFFFF" fill="#0000FF" class="color_Democratic"/>
          <use xlink:href="#img-d62b03e9-21" x="178.95" y="42.85" stroke="#FFFFFF" fill="#0000FF" class="color_Democratic"/>
          <use xlink:href="#img-d62b03e9-21" x="173.48" y="49.69" stroke="#FFFFFF" fill="#0000FF" class="color_Democratic"/>
        </g>
      </g>
    </g>
  </g>
</g>
  <g class="guide ylabels" font-size="4.76" font-family="'PT Sans Caption','Helvetica Neue','Helvetica',sans-serif" fill="#FFFFFF" id="img-d62b03e9-22">
    <text x="23.76" y="118.48" text-anchor="end" dy="0.35em">0</text>
    <text x="23.76" y="90.61" text-anchor="end" dy="0.35em">25</text>
    <text x="23.76" y="62.74" text-anchor="end" dy="0.35em">50</text>
    <text x="23.76" y="34.87" text-anchor="end" dy="0.35em">75</text>
    <text x="23.76" y="7" text-anchor="end" dy="0.35em">100</text>
  </g>
  <g font-size="6.35" font-family="'PT Sans','Helvetica Neue','Helvetica',sans-serif" fill="#FFFFFF" stroke="#000000" stroke-opacity="0.000" id="img-d62b03e9-23">
    <text x="10.18" y="60.74" text-anchor="middle" dy="0.35em" transform="rotate(-90, 10.18, 62.74)">Electoral Vote (%)</text>
  </g>
</g>
<defs>
  <clipPath id="img-d62b03e9-12">
  <path d="M24.76,5 L 315 5 315 120.48 24.76 120.48" />
</clipPath>
  <g id="img-d62b03e9-21">
    <circle cx="0" cy="0" r="1.32"/>
  </g>
</defs>
</svg>
