<svg xmlns="http://www.w3.org/2000/svg" xmlns:xlink="http://www.w3.org/1999/xlink" version="1.2" width="799.899" height="599.924" viewBox="0 0 211.64 158.73" stroke-width=".3" font-size="3.88"><path d="M0 0h211.64v158.73H0z" stroke="#000" stroke-opacity="0" fill="#222831"/><g class="plotroot xscalable yscalable"><text x="115.88" y="145.81" text-anchor="middle" dy=".6em" font-size="5.29" font-family="'PT Sans','Helvetica Neue','Helvetica',sans-serif" fill="#A1A1A1" stroke="#000" stroke-opacity="0">Popular Difference (%)</text><g class="guide xlabels" font-size="4.23" font-family="'PT Sans Caption','Helvetica Neue','Helvetica',sans-serif" fill="#A1A1A1" text-anchor="middle"><text x="27.12" y="137.8" dy=".6em">-30</text><text x="56.71" y="137.8" dy=".6em">-20</text><text x="86.3" y="137.8" dy=".6em">-10</text><text x="115.88" y="137.8" dy=".6em">0</text><text x="145.47" y="137.8" dy=".6em">10</text><text x="175.05" y="137.8" dy=".6em">20</text><text x="204.64" y="137.8" dy=".6em">30</text></g><g clip-path="url(#a)"><path d="M25.12 5h181.52v131.8H25.12z" pointer-events="visible" fill="#222831" stroke="#000" stroke-opacity="0" class="guide background"/><g class="guide ygridlines xfixed" stroke-dasharray="0.5,0.5" stroke-width=".2" stroke="#575757" fill="none"><path d="M25.12 134.8h181.52M25.12 102.85h181.52M25.12 70.9h181.52M25.12 38.95h181.52M25.12 7h181.52"/></g><g class="guide xgridlines yfixed" stroke-dasharray="0.5,0.5" stroke-width=".2" stroke="#575757" fill="none"><path d="M27.12 5v131.8M56.71 5v131.8M86.3 5v131.8M115.88 5v131.8M145.47 5v131.8M175.05 5v131.8M204.64 5v131.8"/></g><g class="plotpanel"><g class="geometry" stroke="#000" stroke-opacity="0" fill="#A1A1A1" font-size="3.7" font-family="'PT Sans Caption','Helvetica Neue','Helvetica',sans-serif" text-anchor="middle"><text x="151.24" y="36.4" dy=".35em">1860</text><text x="151.11" y="19.33" dy=".35em">1864</text><text x="137.03" y="41.81" dy=".35em">1868</text><text x="154.15" y="28.21" dy=".35em">1872</text><text x="101.6" y="69.41" dy=".35em">1876</text><text x="121.57" y="61.37" dy=".35em">1880</text><text x="118.06" y="74.04" dy=".35em">1884</text><text x="108.03" y="60.99" dy=".35em">1888</text><text x="112.35" y="90.89" dy=".35em">1892</text><text x="134.06" y="58.31" dy=".35em">1896</text><text x="128.71" y="51.09" dy=".35em">1900</text><text x="166.32" y="45.31" dy=".35em">1904</text><text x="146.57" y="48.69" dy=".35em">1908</text><text x="64.11" y="125.04" dy=".35em">1912</text><text x="103.24" y="76.42" dy=".35em">1916</text><text x="189.98" y="34.81" dy=".35em">1920</text><text x="194.87" y="44.05" dy=".35em">1924</text><text x="170.83" y="30.69" dy=".35em">1928</text><text x="68.49" y="119.25" dy=".35em">1932</text><text x="41.15" y="135.63" dy=".35em">1936</text><text x="82.62" y="117.82" dy=".35em">1940</text><text x="96.92" y="113.72" dy=".35em">1944</text><text x="97.18" y="84.38" dy=".35em">1948</text><text x="142.75" y="28.69" dy=".35em">1952</text><text x="167" y="24.68" dy=".35em">1956</text><text x="120.79" y="81.46" dy=".35em">1960</text><text x="46.04" y="119.69" dy=".35em">1964</text><text x="115.06" y="55.08" dy=".35em">1968</text><text x="190.02" y="11.3" dy=".35em">1972</text><text x="104.32" y="78.24" dy=".35em">1976</text><text x="139.38" y="18.38" dy=".35em">1980</text><text x="173.86" y="12.84" dy=".35em">1984</text><text x="135.14" y="36.17" dy=".35em">1988</text><text x="102.15" y="97.64" dy=".35em">1992</text><text x="86.63" y="99.78" dy=".35em">1996</text><text x="117.15" y="67.55" dy=".35em">2000</text><text x="128.58" y="68.01" dy=".35em">2004</text><text x="97.43" y="90.95" dy=".35em">2008</text><text x="109.81" y="84.5" dy=".35em">2012</text></g><path fill="none" d="M43.91 131.71l.2-.17.2-.17.2-.17.2-.17.2-.17.2-.17.2-.17.2-.17.2-.17.2-.17.2-.17.2-.17.2-.17.2-.17.2-.17.2-.17.2-.17.2-.17.2-.16.2-.17.2-.17.2-.17.2-.17.2-.17.2-.17.2-.17.2-.17.2-.17.2-.17.2-.17.2-.17.2-.17.2-.17.2-.17.2-.17.2-.17.19-.17.2-.17.2-.17.2-.17.2-.17.2-.17.2-.17.2-.17.2-.17.2-.17.2-.17.2-.17.2-.17.2-.17.2-.17.2-.17.2-.17.2-.17.2-.17.2-.17.2-.17.2-.17.2-.16.2-.17.2-.17.2-.17.2-.17.2-.17.2-.17.2-.17.2-.17.2-.17.2-.17.2-.17.2-.17.2-.17.2-.17.2-.17.2-.17.2-.17.2-.17.2-.17.2-.17.2-.17.2-.17.2-.17.2-.17.2-.17.2-.17.2-.17.2-.17.2-.17.2-.17.2-.17.2-.17.2-.17.2-.17.2-.17.2-.17.2-.17.2-.17.2-.17.2-.17.2-.16.2-.17.2-.17.2-.17.2-.17.2-.17.2-.17.2-.17.2-.17.2-.17.2-.17.2-.17.19-.17.2-.17.2-.17.2-.17.2-.17.2-.17.2-.17.2-.17.2-.17.2-.17.2-.17.2-.17.2-.17.2-.17.2-.17.2-.17.2-.17.2-.17.2-.17.2-.17.2-.17.2-.17.2-.17.2-.17.2-.17.2-.17.2-.17.2-.17.2-.16.2-.17.2-.17.2-.17.2-.17.2-.17.2-.17.2-.17.2-.17.2-.17.2-.17.2-.17.2-.17.2-.17.2-.17.2-.17.2-.17.2-.17.2-.17.2-.17.2-.17.2-.17.2-.17.2-.17.2-.17.2-.17.2-.17.2-.17.2-.17.2-.17.2-.17.2-.17.2-.17.2-.17.2-.17.2-.17.2-.17.2-.17.2-.17.2-.17.2-.16.2-.17.2-.17.2-.17.2-.17.2-.17.2-.17.2-.17.19-.17.2-.17.2-.17.2-.17.2-.17.2-.17.2-.17.2-.17.2-.17.2-.17.2-.17.2-.17.2-.17.2-.17.2-.17.2-.17.2-.17.2-.17.2-.17.2-.17.2-.17.2-.17.2-.17.2-.17.2-.17.2-.17.2-.17.2-.17.2-.17.2-.17.2-.17.2-.17.2-.16.2-.17.2-.17.2-.17.2-.17.2-.17.2-.17.2-.17.2-.17.2-.17.2-.17.2-.17.2-.17.2-.17.2-.17.2-.17.2-.17.2-.17.2-.17.2-.17.2-.17.2-.17.2-.17.2-.17.2-.17.2-.17.2-.17.2-.17.2-.17.2-.17.2-.17.2-.17.2-.17.2-.17.2-.17.2-.17.2-.17.2-.17.2-.17.2-.17.2-.17.2-.16.2-.17.19-.17.2-.17.2-.17.2-.17.2-.17.2-.17.2-.17.2-.17.2-.17.2-.17.2-.17.2-.17.2-.17.2-.17.2-.17.2-.17.2-.17.2-.17.2-.17.2-.17.2-.17.2-.17.2-.17.2-.17.2-.17.2-.17.2-.17.2-.17.2-.17.2-.17.2-.17.2-.17.2-.17.2-.17.2-.17.2-.17.2-.17.2-.17.2-.16.2-.17.2-.17.2-.17.2-.17.2-.17.2-.17.2-.17.2-.17.2-.17.2-.17.2-.17.2-.17.2-.17.2-.17.2-.17.2-.17.2-.17.2-.17.2-.17.2-.17.2-.17.2-.17.2-.17.2-.17.2-.17.2-.17.2-.17.2-.17.2-.17.2-.17.2-.17.2-.17.2-.17.2-.17.2-.17.2-.17.2-.17.19-.17.2-.17.2-.16.2-.17.2-.17.2-.17.2-.17.2-.17.2-.17.2-.17.2-.17.2-.17.2-.17.2-.17.2-.17.2-.17.2-.17.2-.17.2-.17.2-.17.2-.17.2-.17.2-.17.2-.17.2-.17.2-.17.2-.17.2-.17.2-.17.2-.17.2-.17.2-.17.2-.17.2-.17.2-.17.2-.17.2-.17.2-.17.2-.17.2-.17.2-.17.2-.17.2-.16.2-.17.2-.17.2-.17.2-.17.2-.17.2-.17.2-.17.2-.17.2-.17.2-.17.2-.17.2-.17.2-.17.2-.17.2-.17.2-.17.2-.17.2-.17.2-.17.2-.17.2-.17.2-.17.2-.17.2-.17.2-.17.2-.17.2-.17.2-.17.2-.17.2-.17.2-.17.2-.17.19-.17.2-.17.2-.17.2-.17.2-.17.2-.17.2-.17.2-.17.2-.16.2-.17.2-.17.2-.17.2-.17.2-.17.2-.17.2-.17.2-.17.2-.17.2-.17.2-.17.2-.17.2-.17.2-.17.2-.17.2-.17.2-.17.2-.17.2-.17.2-.17.2-.17.2-.17.2-.17.2-.17.2-.17.2-.17.2-.17.2-.17.2-.17.2-.17.2-.17.2-.17.2-.17.2-.17.2-.17.2-.17.2-.17.2-.17.2-.17.2-.16.2-.17.2-.17.2-.17.2-.17.2-.17.2-.17.2-.17.2-.17.2-.17.2-.17.2-.17.2-.17.2-.17.2-.17.2-.17.2-.17.2-.17.2-.17.2-.17.2-.17.2-.17.2-.17.2-.17.2-.17.2-.17.2-.17.2-.17.19-.17.2-.17.2-.17.2-.17.2-.17.2-.17.2-.17.2-.17.2-.17.2-.17.2-.17.2-.17.2-.16.2-.17.2-.17.2-.17.2-.17.2-.17.2-.17.2-.17.2-.17.2-.17.2-.17.2-.17.2-.17.2-.17.2-.17.2-.17.2-.17.2-.17.2-.17.2-.17.2-.17.2-.17.2-.17.2-.17.2-.17.2-.17.2-.17.2-.17.2-.17.2-.17.2-.17.2-.17.2-.17.2-.17.2-.17.2-.17.2-.17.2-.17.2-.17.2-.17.2-.16.2-.17.2-.17.2-.17.2-.17.2-.17.2-.17.2-.17.2-.17.2-.17.2-.17.2-.17.2-.17.2-.17.2-.17.2-.17.2-.17.2-.17.2-.17.2-.17.2-.17.2-.17.2-.17.19-.17.2-.17.2-.17.2-.17.2-.17.2-.17.2-.17.2-.17.2-.17.2-.17.2-.17.2-.17.2-.17.2-.17.2-.17.2-.17.2-.17.2-.17.2-.16.2-.17.2-.17.2-.17.2-.17.2-.17.2-.17.2-.17.2-.17.2-.17.2-.17.2-.17.2-.17.2-.17.2-.17.2-.17.2-.17.2-.17.2-.17.2-.17.2-.17.2-.17.2-.17.2-.17.2-.17.2-.17.2-.17.2-.17.2-.17.2-.17.2-.17.2-.17.2-.17.2-.17.2-.17.2-.17.2-.17.2-.17.2-.17.2-.17.2-.16.2-.17.2-.17.2-.17.2-.17.2-.17.2-.17.2-.17.2-.17.2-.17.2-.17.2-.17.2-.17.2-.17.2-.17.2-.17.2-.17.2-.17.19-.17.2-.17.2-.17.2-.17.2-.17.2-.17.2-.17.2-.17.2-.17.2-.17.2-.17.2-.17.2-.17.2-.17.2-.17.2-.17.2-.17.2-.17.2-.17.2-.17.2-.17.2-.17.2-.16.2-.17.2-.17.2-.17.2-.17.2-.17.2-.17.2-.17.2-.17.2-.17.2-.17.2-.17.2-.17.2-.17.2-.17.2-.17.2-.17.2-.17.2-.17.2-.17.2-.17.2-.17.2-.17.2-.17.2-.17.2-.17.2-.17.2-.17.2-.17.2-.17.2-.17.2-.17.2-.17.2-.17.2-.17.2-.17.2-.17.2-.17.2-.17.2-.17.2-.17.2-.16.2-.17.2-.17.2-.17.2-.17.2-.17.2-.17.2-.17.2-.17.2-.17.2-.17.2-.17.2-.17.19-.17.2-.17.2-.17.2-.17.2-.17.2-.17.2-.17.2-.17.2-.17.2-.17.2-.17.2-.17.2-.17.2-.17.2-.17.2-.17.2-.17.2-.17.2-.17.2-.17.2-.17.2-.17.2-.17.2-.17.2-.17.2-.17.2-.17.2-.16.2-.17.2-.17.2-.17.2-.17.2-.17" fill-opacity="0" class="geometry" stroke="#FE4365"/><g class="geometry color_RGBA{Float32}(0.9960785f0,0.2627451f0,0.39607847f0,1.0f0)" stroke="#B58486" fill="#FE4365"><use xlink:href="#b" x="145.85" y="35.47"/><use xlink:href="#b" x="145.71" y="18.52"/><use xlink:href="#b" x="131.64" y="41.77"/><use xlink:href="#b" x="150.89" y="30.96"/><use xlink:href="#b" x="106.99" y="70.72"/><use xlink:href="#b" x="116.17" y="60.68"/><use xlink:href="#b" x="114.19" y="76.79"/><use xlink:href="#b" x="113.42" y="60.54"/><use xlink:href="#b" x="106.96" y="89.89"/><use xlink:href="#b" x="128.66" y="57.32"/><use xlink:href="#b" x="134.11" y="51.31"/><use xlink:href="#b" x="171.72" y="44.59"/><use xlink:href="#b" x="141.18" y="49.86"/><use xlink:href="#b" x="60.57" y="122.28"/><use xlink:href="#b" x="106.58" y="73.67"/><use xlink:href="#b" x="193.81" y="37.57"/><use xlink:href="#b" x="190.87" y="41.3"/><use xlink:href="#b" x="167.56" y="27.94"/><use xlink:href="#b" x="63.1" y="120.6"/><use xlink:href="#b" x="43.91" y="132.87"/><use xlink:href="#b" x="86.3" y="115.06"/><use xlink:href="#b" x="93.61" y="110.97"/><use xlink:href="#b" x="102.57" y="84.62"/><use xlink:href="#b" x="148.14" y="28.42"/><use xlink:href="#b" x="161.6" y="24.6"/><use xlink:href="#b" x="115.39" y="81.18"/><use xlink:href="#b" x="48.75" y="122.44"/><use xlink:href="#b" x="117.96" y="57.83"/><use xlink:href="#b" x="184.63" y="11.16"/><use xlink:href="#b" x="109.71" y="77.68"/><use xlink:href="#b" x="144.77" y="18.64"/><use xlink:href="#b" x="170.14" y="10.09"/><use xlink:href="#b" x="138.86" y="33.42"/><use xlink:href="#b" x="99.37" y="94.89"/><use xlink:href="#b" x="90.57" y="97.03"/><use xlink:href="#b" x="114.34" y="70.3"/><use xlink:href="#b" x="123.19" y="66.73"/><use xlink:href="#b" x="94.27" y="93.7"/><use xlink:href="#b" x="104.41" y="85.86"/></g></g></g><g class="guide ylabels" font-size="4.23" font-family="'PT Sans Caption','Helvetica Neue','Helvetica',sans-serif" fill="#A1A1A1" text-anchor="end"><text x="24.12" y="134.8" dy=".35em">-100</text><text x="24.12" y="102.85" dy=".35em">-50</text><text x="24.12" y="70.9" dy=".35em">0</text><text x="24.12" y="38.95" dy=".35em">50</text><text x="24.12" y="7" dy=".35em">100</text></g><text x="9.46" y="68.9" text-anchor="middle" dy=".35em" transform="rotate(-90 9.46 70.9)" font-size="5.29" font-family="'PT Sans','Helvetica Neue','Helvetica',sans-serif" fill="#A1A1A1" stroke="#000" stroke-opacity="0">Electoral Difference (%)</text></g><defs><clipPath id="a"><path d="M25.12 5h181.52v131.8H25.12"/></clipPath><circle r=".9" id="b"/></defs></svg>