<?xml version="1.0" encoding="UTF-8"?>
<svg xmlns="http://www.w3.org/2000/svg"
     xmlns:xlink="http://www.w3.org/1999/xlink"
     xmlns:gadfly="http://www.gadflyjl.org/ns"
     version="1.2"
     width="238.1mm" height="158.73mm" viewBox="0 0 238.1 158.73"
     stroke="none"
     fill="#000000"
     stroke-width="0.3"
     font-size="3.88"
>
<g stroke="#000000" stroke-opacity="0.000" fill="#222831" id="img-2e2c2c5a-1">
  <rect x="0" y="0" width="238.1" height="158.73"/>
</g>
<g class="plotroot xscalable yscalable" id="img-2e2c2c5a-2">
  <g class="guide colorkey" id="img-2e2c2c5a-3">
    <g class="color_Democratic" id="img-2e2c2c5a-4">
      <g fill="#A1A1A1" font-size="3.7" font-family="'PT Sans','Helvetica Neue','Helvetica',sans-serif" id="img-2e2c2c5a-5">
        <text x="51.52" y="148.78" dy="0.35em">Democratic</text>
      </g>
      <g fill="#0000FF" stroke="#000000" stroke-opacity="0.000" id="img-2e2c2c5a-6">
        <rect x="48.29" y="147.66" width="2.22" height="2.22"/>
      </g>
    </g>
    <g class="color_Republican" id="img-2e2c2c5a-7">
      <g fill="#A1A1A1" font-size="3.7" font-family="'PT Sans','Helvetica Neue','Helvetica',sans-serif" id="img-2e2c2c5a-8">
        <text x="29.6" y="148.78" dy="0.35em">Republican</text>
      </g>
      <g fill="#FF0000" stroke="#000000" stroke-opacity="0.000" id="img-2e2c2c5a-9">
        <rect x="26.38" y="147.66" width="2.22" height="2.22"/>
      </g>
    </g>
    <g fill="#A1A1A1" font-size="6.35" font-family="'PT Sans','Helvetica Neue','Helvetica',sans-serif" stroke="#000000" stroke-opacity="0.000" id="img-2e2c2c5a-10">
      <text x="26.38" y="145.28">Party</text>
    </g>
  </g>
  <g font-size="6.35" font-family="'PT Sans','Helvetica Neue','Helvetica',sans-serif" fill="#A1A1A1" stroke="#000000" stroke-opacity="0.000" id="img-2e2c2c5a-11">
    <text x="129.24" y="130.46" text-anchor="middle" dy="0.6em">Year</text>
  </g>
  <g class="guide xlabels" font-size="4.76" font-family="'PT Sans Caption','Helvetica Neue','Helvetica',sans-serif" fill="#A1A1A1" id="img-2e2c2c5a-12">
    <text x="27.38" y="121.95" text-anchor="middle" dy="0.6em">1824</text>
    <text x="40.11" y="121.95" text-anchor="middle" dy="0.6em">1836</text>
    <text x="52.84" y="121.95" text-anchor="middle" dy="0.6em">1848</text>
    <text x="65.58" y="121.95" text-anchor="middle" dy="0.6em">1860</text>
    <text x="78.31" y="121.95" text-anchor="middle" dy="0.6em">1872</text>
    <text x="91.04" y="121.95" text-anchor="middle" dy="0.6em">1884</text>
    <text x="103.77" y="121.95" text-anchor="middle" dy="0.6em">1896</text>
    <text x="116.51" y="121.95" text-anchor="middle" dy="0.6em">1908</text>
    <text x="129.24" y="121.95" text-anchor="middle" dy="0.6em">1920</text>
    <text x="141.97" y="121.95" text-anchor="middle" dy="0.6em">1932</text>
    <text x="154.7" y="121.95" text-anchor="middle" dy="0.6em">1944</text>
    <text x="167.43" y="121.95" text-anchor="middle" dy="0.6em">1956</text>
    <text x="180.17" y="121.95" text-anchor="middle" dy="0.6em">1968</text>
    <text x="192.9" y="121.95" text-anchor="middle" dy="0.6em">1980</text>
    <text x="205.63" y="121.95" text-anchor="middle" dy="0.6em">1992</text>
    <text x="218.36" y="121.95" text-anchor="middle" dy="0.6em">2004</text>
    <text x="231.1" y="121.95" text-anchor="middle" dy="0.6em">2016</text>
  </g>
<g clip-path="url(#img-2e2c2c5a-13)">
  <g id="img-2e2c2c5a-14">
    <g pointer-events="visible" opacity="1" fill="#222831" stroke="#000000" stroke-opacity="0.000" class="guide background" id="img-2e2c2c5a-15">
      <rect x="25.38" y="12.91" width="207.72" height="108.04"/>
    </g>
    <g class="guide ygridlines xfixed" stroke-dasharray="0.5,0.5" stroke-width="0.2" stroke="#575757" id="img-2e2c2c5a-16">
      <path fill="none" d="M25.38,118.95 L 233.1 118.95"/>
      <path fill="none" d="M25.38,92.94 L 233.1 92.94"/>
      <path fill="none" d="M25.38,66.93 L 233.1 66.93"/>
      <path fill="none" d="M25.38,40.92 L 233.1 40.92"/>
      <path fill="none" d="M25.38,14.91 L 233.1 14.91"/>
    </g>
    <g class="guide xgridlines yfixed" stroke-dasharray="0.5,0.5" stroke-width="0.2" stroke="#575757" id="img-2e2c2c5a-17">
      <path fill="none" d="M27.38,12.91 L 27.38 120.95"/>
      <path fill="none" d="M40.11,12.91 L 40.11 120.95"/>
      <path fill="none" d="M52.84,12.91 L 52.84 120.95"/>
      <path fill="none" d="M65.58,12.91 L 65.58 120.95"/>
      <path fill="none" d="M78.31,12.91 L 78.31 120.95"/>
      <path fill="none" d="M91.04,12.91 L 91.04 120.95"/>
      <path fill="none" d="M103.77,12.91 L 103.77 120.95"/>
      <path fill="none" d="M116.51,12.91 L 116.51 120.95"/>
      <path fill="none" d="M129.24,12.91 L 129.24 120.95"/>
      <path fill="none" d="M141.97,12.91 L 141.97 120.95"/>
      <path fill="none" d="M154.7,12.91 L 154.7 120.95"/>
      <path fill="none" d="M167.43,12.91 L 167.43 120.95"/>
      <path fill="none" d="M180.17,12.91 L 180.17 120.95"/>
      <path fill="none" d="M192.9,12.91 L 192.9 120.95"/>
      <path fill="none" d="M205.63,12.91 L 205.63 120.95"/>
      <path fill="none" d="M218.36,12.91 L 218.36 120.95"/>
      <path fill="none" d="M231.1,12.91 L 231.1 120.95"/>
    </g>
    <g class="plotpanel" id="img-2e2c2c5a-18">
      <g class="geometry" id="img-2e2c2c5a-19">
        <g stroke-width="0.3" id="img-2e2c2c5a-20">
          <use xlink:href="#img-2e2c2c5a-21" x="65.58" y="60.42" stroke="#B3867B" fill="#FF0000" class="color_Republican"/>
          <use xlink:href="#img-2e2c2c5a-21" x="69.82" y="65.11" stroke="#B3867B" fill="#FF0000" class="color_Republican"/>
          <use xlink:href="#img-2e2c2c5a-21" x="74.06" y="64.64" stroke="#B3867B" fill="#FF0000" class="color_Republican"/>
          <use xlink:href="#img-2e2c2c5a-21" x="78.31" y="54.38" stroke="#B3867B" fill="#FF0000" class="color_Republican"/>
          <use xlink:href="#img-2e2c2c5a-21" x="82.55" y="66.29" stroke="#B3867B" fill="#FF0000" class="color_Republican"/>
          <use xlink:href="#img-2e2c2c5a-21" x="86.8" y="66.06" stroke="#B3867B" fill="#FF0000" class="color_Republican"/>
          <use xlink:href="#img-2e2c2c5a-21" x="91.04" y="63.84" stroke="#B3867B" fill="#FF0000" class="color_Republican"/>
          <use xlink:href="#img-2e2c2c5a-21" x="95.28" y="64.08" stroke="#B3867B" fill="#FF0000" class="color_Republican"/>
          <use xlink:href="#img-2e2c2c5a-21" x="99.53" y="65.43" stroke="#B3867B" fill="#FF0000" class="color_Republican"/>
          <use xlink:href="#img-2e2c2c5a-21" x="103.77" y="55.51" stroke="#B3867B" fill="#FF0000" class="color_Republican"/>
          <use xlink:href="#img-2e2c2c5a-21" x="108.02" y="55.75" stroke="#B3867B" fill="#FF0000" class="color_Republican"/>
          <use xlink:href="#img-2e2c2c5a-21" x="112.26" y="48.21" stroke="#B3867B" fill="#FF0000" class="color_Republican"/>
          <use xlink:href="#img-2e2c2c5a-21" x="116.51" y="57.73" stroke="#B3867B" fill="#FF0000" class="color_Republican"/>
          <use xlink:href="#img-2e2c2c5a-21" x="120.75" y="95.6" stroke="#B3867B" fill="#FF0000" class="color_Republican"/>
          <use xlink:href="#img-2e2c2c5a-21" x="124.99" y="62.51" stroke="#B3867B" fill="#FF0000" class="color_Republican"/>
          <use xlink:href="#img-2e2c2c5a-21" x="129.24" y="50.54" stroke="#B3867B" fill="#FF0000" class="color_Republican"/>
          <use xlink:href="#img-2e2c2c5a-21" x="133.48" y="50.97" stroke="#B3867B" fill="#FF0000" class="color_Republican"/>
          <use xlink:href="#img-2e2c2c5a-21" x="137.73" y="51.08" stroke="#B3867B" fill="#FF0000" class="color_Republican"/>
          <use xlink:href="#img-2e2c2c5a-21" x="141.97" y="66.06" stroke="#B3867B" fill="#FF0000" class="color_Republican"/>
          <use xlink:href="#img-2e2c2c5a-21" x="146.21" y="76.46" stroke="#B3867B" fill="#FF0000" class="color_Republican"/>
          <use xlink:href="#img-2e2c2c5a-21" x="150.46" y="70.75" stroke="#B3867B" fill="#FF0000" class="color_Republican"/>
          <use xlink:href="#img-2e2c2c5a-21" x="154.7" y="68.64" stroke="#B3867B" fill="#FF0000" class="color_Republican"/>
          <use xlink:href="#img-2e2c2c5a-21" x="158.95" y="65.97" stroke="#B3867B" fill="#FF0000" class="color_Republican"/>
          <use xlink:href="#img-2e2c2c5a-21" x="163.19" y="64.09" stroke="#B3867B" fill="#FF0000" class="color_Republican"/>
          <use xlink:href="#img-2e2c2c5a-21" x="167.43" y="60.18" stroke="#B3867B" fill="#FF0000" class="color_Republican"/>
          <use xlink:href="#img-2e2c2c5a-21" x="171.68" y="68.25" stroke="#B3867B" fill="#FF0000" class="color_Republican"/>
          <use xlink:href="#img-2e2c2c5a-21" x="175.92" y="82.85" stroke="#B3867B" fill="#FF0000" class="color_Republican"/>
          <use xlink:href="#img-2e2c2c5a-21" x="180.17" y="73.15" stroke="#B3867B" fill="#FF0000" class="color_Republican"/>
          <use xlink:href="#img-2e2c2c5a-21" x="184.41" y="57.45" stroke="#B3867B" fill="#FF0000" class="color_Republican"/>
          <use xlink:href="#img-2e2c2c5a-21" x="188.65" y="69.29" stroke="#B3867B" fill="#FF0000" class="color_Republican"/>
          <use xlink:href="#img-2e2c2c5a-21" x="192.9" y="67.36" stroke="#B3867B" fill="#FF0000" class="color_Republican"/>
          <use xlink:href="#img-2e2c2c5a-21" x="197.14" y="63.46" stroke="#B3867B" fill="#FF0000" class="color_Republican"/>
          <use xlink:href="#img-2e2c2c5a-21" x="201.39" y="66.2" stroke="#B3867B" fill="#FF0000" class="color_Republican"/>
          <use xlink:href="#img-2e2c2c5a-21" x="205.63" y="81.37" stroke="#B3867B" fill="#FF0000" class="color_Republican"/>
          <use xlink:href="#img-2e2c2c5a-21" x="209.87" y="77.37" stroke="#B3867B" fill="#FF0000" class="color_Republican"/>
          <use xlink:href="#img-2e2c2c5a-21" x="214.12" y="70.65" stroke="#B3867B" fill="#FF0000" class="color_Republican"/>
          <use xlink:href="#img-2e2c2c5a-21" x="218.36" y="68.57" stroke="#B3867B" fill="#FF0000" class="color_Republican"/>
          <use xlink:href="#img-2e2c2c5a-21" x="222.61" y="73.02" stroke="#B3867B" fill="#FF0000" class="color_Republican"/>
          <use xlink:href="#img-2e2c2c5a-21" x="226.85" y="70.5" stroke="#B3867B" fill="#FF0000" class="color_Republican"/>
          <use xlink:href="#img-2e2c2c5a-21" x="31.62" y="49.6" stroke="#988BAD" fill="#0000FF" class="color_Democratic"/>
          <use xlink:href="#img-2e2c2c5a-21" x="35.87" y="58.65" stroke="#988BAD" fill="#0000FF" class="color_Democratic"/>
          <use xlink:href="#img-2e2c2c5a-21" x="40.11" y="65.7" stroke="#988BAD" fill="#0000FF" class="color_Democratic"/>
          <use xlink:href="#img-2e2c2c5a-21" x="44.36" y="67.05" stroke="#988BAD" fill="#0000FF" class="color_Democratic"/>
          <use xlink:href="#img-2e2c2c5a-21" x="48.6" y="66.41" stroke="#988BAD" fill="#0000FF" class="color_Democratic"/>
          <use xlink:href="#img-2e2c2c5a-21" x="52.84" y="70.4" stroke="#988BAD" fill="#0000FF" class="color_Democratic"/>
          <use xlink:href="#img-2e2c2c5a-21" x="57.09" y="65.69" stroke="#988BAD" fill="#0000FF" class="color_Democratic"/>
          <use xlink:href="#img-2e2c2c5a-21" x="61.33" y="66.79" stroke="#988BAD" fill="#0000FF" class="color_Democratic"/>
          <use xlink:href="#img-2e2c2c5a-21" x="65.58" y="115.29" stroke="#988BAD" fill="#0000FF" class="color_Democratic"/>
          <use xlink:href="#img-2e2c2c5a-21" x="69.82" y="68.76" stroke="#988BAD" fill="#0000FF" class="color_Democratic"/>
          <use xlink:href="#img-2e2c2c5a-21" x="74.06" y="69.22" stroke="#988BAD" fill="#0000FF" class="color_Democratic"/>
          <use xlink:href="#img-2e2c2c5a-21" x="78.31" y="79.79" stroke="#988BAD" fill="#0000FF" class="color_Democratic"/>
          <use xlink:href="#img-2e2c2c5a-21" x="82.55" y="68.75" stroke="#988BAD" fill="#0000FF" class="color_Democratic"/>
          <use xlink:href="#img-2e2c2c5a-21" x="86.8" y="70.5" stroke="#988BAD" fill="#0000FF" class="color_Democratic"/>
          <use xlink:href="#img-2e2c2c5a-21" x="91.04" y="73.74" stroke="#988BAD" fill="#0000FF" class="color_Democratic"/>
          <use xlink:href="#img-2e2c2c5a-21" x="95.28" y="72.37" stroke="#988BAD" fill="#0000FF" class="color_Democratic"/>
          <use xlink:href="#img-2e2c2c5a-21" x="99.53" y="72.04" stroke="#988BAD" fill="#0000FF" class="color_Democratic"/>
          <use xlink:href="#img-2e2c2c5a-21" x="103.77" y="81.21" stroke="#988BAD" fill="#0000FF" class="color_Democratic"/>
          <use xlink:href="#img-2e2c2c5a-21" x="108.02" y="81.33" stroke="#988BAD" fill="#0000FF" class="color_Democratic"/>
          <use xlink:href="#img-2e2c2c5a-21" x="112.26" y="90.52" stroke="#988BAD" fill="#0000FF" class="color_Democratic"/>
          <use xlink:href="#img-2e2c2c5a-21" x="116.51" y="82.11" stroke="#988BAD" fill="#0000FF" class="color_Democratic"/>
          <use xlink:href="#img-2e2c2c5a-21" x="120.75" y="85.15" stroke="#988BAD" fill="#0000FF" class="color_Democratic"/>
          <use xlink:href="#img-2e2c2c5a-21" x="124.99" y="77.11" stroke="#988BAD" fill="#0000FF" class="color_Democratic"/>
          <use xlink:href="#img-2e2c2c5a-21" x="129.24" y="90.66" stroke="#988BAD" fill="#0000FF" class="color_Democratic"/>
          <use xlink:href="#img-2e2c2c5a-21" x="133.48" y="99.1" stroke="#988BAD" fill="#0000FF" class="color_Democratic"/>
          <use xlink:href="#img-2e2c2c5a-21" x="137.73" y="83.7" stroke="#988BAD" fill="#0000FF" class="color_Democratic"/>
          <use xlink:href="#img-2e2c2c5a-21" x="141.97" y="71.79" stroke="#988BAD" fill="#0000FF" class="color_Democratic"/>
          <use xlink:href="#img-2e2c2c5a-21" x="146.21" y="59.77" stroke="#988BAD" fill="#0000FF" class="color_Democratic"/>
          <use xlink:href="#img-2e2c2c5a-21" x="150.46" y="63.57" stroke="#988BAD" fill="#0000FF" class="color_Democratic"/>
          <use xlink:href="#img-2e2c2c5a-21" x="154.7" y="65.75" stroke="#988BAD" fill="#0000FF" class="color_Democratic"/>
          <use xlink:href="#img-2e2c2c5a-21" x="158.95" y="70.14" stroke="#988BAD" fill="#0000FF" class="color_Democratic"/>
          <use xlink:href="#img-2e2c2c5a-21" x="163.19" y="70.21" stroke="#988BAD" fill="#0000FF" class="color_Democratic"/>
          <use xlink:href="#img-2e2c2c5a-21" x="167.43" y="73.9" stroke="#988BAD" fill="#0000FF" class="color_Democratic"/>
          <use xlink:href="#img-2e2c2c5a-21" x="171.68" y="65.83" stroke="#988BAD" fill="#0000FF" class="color_Democratic"/>
          <use xlink:href="#img-2e2c2c5a-21" x="175.92" y="51.41" stroke="#988BAD" fill="#0000FF" class="color_Democratic"/>
          <use xlink:href="#img-2e2c2c5a-21" x="180.17" y="69.44" stroke="#988BAD" fill="#0000FF" class="color_Democratic"/>
          <use xlink:href="#img-2e2c2c5a-21" x="184.41" y="78.24" stroke="#988BAD" fill="#0000FF" class="color_Democratic"/>
          <use xlink:href="#img-2e2c2c5a-21" x="188.65" y="66.52" stroke="#988BAD" fill="#0000FF" class="color_Democratic"/>
          <use xlink:href="#img-2e2c2c5a-21" x="192.9" y="74.76" stroke="#988BAD" fill="#0000FF" class="color_Democratic"/>
          <use xlink:href="#img-2e2c2c5a-21" x="197.14" y="71.1" stroke="#988BAD" fill="#0000FF" class="color_Democratic"/>
          <use xlink:href="#img-2e2c2c5a-21" x="201.39" y="68.61" stroke="#988BAD" fill="#0000FF" class="color_Democratic"/>
          <use xlink:href="#img-2e2c2c5a-21" x="205.63" y="71.98" stroke="#988BAD" fill="#0000FF" class="color_Democratic"/>
          <use xlink:href="#img-2e2c2c5a-21" x="209.87" y="67.79" stroke="#988BAD" fill="#0000FF" class="color_Democratic"/>
          <use xlink:href="#img-2e2c2c5a-21" x="214.12" y="66.31" stroke="#988BAD" fill="#0000FF" class="color_Democratic"/>
          <use xlink:href="#img-2e2c2c5a-21" x="218.36" y="65.97" stroke="#988BAD" fill="#0000FF" class="color_Democratic"/>
          <use xlink:href="#img-2e2c2c5a-21" x="222.61" y="62.29" stroke="#988BAD" fill="#0000FF" class="color_Democratic"/>
          <use xlink:href="#img-2e2c2c5a-21" x="226.85" y="64.9" stroke="#988BAD" fill="#0000FF" class="color_Democratic"/>
        </g>
      </g>
      <g stroke-width="0.3" fill="#000000" fill-opacity="0.000" stroke-dasharray="none" id="img-2e2c2c5a-22">
        <path fill="none" d="M31.62,49.6 L 35.87 58.65 40.11 65.7 44.36 67.05 48.6 66.41 52.84 70.4 57.09 65.69 61.33 66.79 65.58 115.29 69.82 68.76 74.06 69.22 78.31 79.79 82.55 68.75 86.8 70.5 91.04 73.74 95.28 72.37 99.53 72.04 103.77 81.21 108.02 81.33 112.26 90.52 116.51 82.11 120.75 85.15 124.99 77.11 129.24 90.66 133.48 99.1 137.73 83.7 141.97 71.79 146.21 59.77 150.46 63.57 154.7 65.75 158.95 70.14 163.19 70.21 167.43 73.9 171.68 65.83 175.92 51.41 180.17 69.44 184.41 78.24 188.65 66.52 192.9 74.76 197.14 71.1 201.39 68.61 205.63 71.98 209.87 67.79 214.12 66.31 218.36 65.97 222.61 62.29 226.85 64.9" stroke="#0000FF" class="geometry color_Democratic"/>
        <path fill="none" d="M65.58,60.42 L 69.82 65.11 74.06 64.64 78.31 54.38 82.55 66.29 86.8 66.06 91.04 63.84 95.28 64.08 99.53 65.43 103.77 55.51 108.02 55.75 112.26 48.21 116.51 57.73 120.75 95.6 124.99 62.51 129.24 50.54 133.48 50.97 137.73 51.08 141.97 66.06 146.21 76.46 150.46 70.75 154.7 68.64 158.95 65.97 163.19 64.09 167.43 60.18 171.68 68.25 175.92 82.85 180.17 73.15 184.41 57.45 188.65 69.29 192.9 67.36 197.14 63.46 201.39 66.2 205.63 81.37 209.87 77.37 214.12 70.65 218.36 68.57 222.61 73.02 226.85 70.5" stroke="#FF0000" class="geometry color_Republican"/>
      </g>
    </g>
  </g>
</g>
  <g class="guide ylabels" font-size="4.76" font-family="'PT Sans Caption','Helvetica Neue','Helvetica',sans-serif" fill="#A1A1A1" id="img-2e2c2c5a-23">
    <text x="24.38" y="118.95" text-anchor="end" dy="0.35em">0</text>
    <text x="24.38" y="92.94" text-anchor="end" dy="0.35em">25</text>
    <text x="24.38" y="66.93" text-anchor="end" dy="0.35em">50</text>
    <text x="24.38" y="40.92" text-anchor="end" dy="0.35em">75</text>
    <text x="24.38" y="14.91" text-anchor="end" dy="0.35em">100</text>
  </g>
  <g font-size="6.35" font-family="'PT Sans','Helvetica Neue','Helvetica',sans-serif" fill="#A1A1A1" stroke="#000000" stroke-opacity="0.000" id="img-2e2c2c5a-24">
    <text x="9.95" y="64.93" text-anchor="middle" dy="0.35em" transform="rotate(-90, 9.95, 66.93)">Popular Vote (%)</text>
  </g>
  <g font-size="6.35" font-family="'PT Sans','Helvetica Neue','Helvetica',sans-serif" fill="#A1A1A1" stroke="#000000" stroke-opacity="0.000" id="img-2e2c2c5a-25">
    <text x="129.24" y="5" text-anchor="middle" dy="0.6em">Pennsylvania</text>
  </g>
</g>
<defs>
  <clipPath id="img-2e2c2c5a-13">
  <path d="M25.38,12.91 L 233.1 12.91 233.1 120.95 25.38 120.95" />
</clipPath>
  <g id="img-2e2c2c5a-21">
    <circle cx="0" cy="0" r="0.9"/>
  </g>
</defs>
</svg>
