<?xml version="1.0" encoding="UTF-8"?>
<svg xmlns="http://www.w3.org/2000/svg"
     xmlns:xlink="http://www.w3.org/1999/xlink"
     xmlns:gadfly="http://www.gadflyjl.org/ns"
     version="1.2"
     width="200mm" height="160mm" viewBox="0 0 200 160"
     stroke="none"
     fill="#000000"
     stroke-width="0.3"
     font-size="3.88"
>
<g class="plotroot xscalable yscalable" id="img-608b2e03-1">
  <g font-size="5.29" font-family="'PT Sans','Helvetica Neue','Helvetica',sans-serif" fill="#564A55" stroke="#000000" stroke-opacity="0.000" id="img-608b2e03-2">
    <text x="110.06" y="147.08" text-anchor="middle" dy="0.6em">Popular Difference (%)</text>
  </g>
  <g class="guide xlabels" font-size="4.23" font-family="'PT Sans Caption','Helvetica Neue','Helvetica',sans-serif" fill="#6C606B" id="img-608b2e03-3">
    <text x="27.12" y="139.07" text-anchor="middle" dy="0.6em">-30</text>
    <text x="54.77" y="139.07" text-anchor="middle" dy="0.6em">-20</text>
    <text x="82.42" y="139.07" text-anchor="middle" dy="0.6em">-10</text>
    <text x="110.06" y="139.07" text-anchor="middle" dy="0.6em">0</text>
    <text x="137.71" y="139.07" text-anchor="middle" dy="0.6em">10</text>
    <text x="165.35" y="139.07" text-anchor="middle" dy="0.6em">20</text>
    <text x="193" y="139.07" text-anchor="middle" dy="0.6em">30</text>
  </g>
<g clip-path="url(#img-608b2e03-4)">
  <g id="img-608b2e03-5">
    <g pointer-events="visible" opacity="1" fill="#000000" fill-opacity="0.000" stroke="#000000" stroke-opacity="0.000" class="guide background" id="img-608b2e03-6">
      <rect x="25.12" y="5" width="169.88" height="133.07"/>
    </g>
    <g class="guide ygridlines xfixed" stroke-dasharray="0.5,0.5" stroke-width="0.26" stroke="#000000" id="img-608b2e03-7">
      <path fill="none" d="M25.12,136.07 L 195 136.07"/>
      <path fill="none" d="M25.12,103.8 L 195 103.8"/>
      <path fill="none" d="M25.12,71.53 L 195 71.53"/>
      <path fill="none" d="M25.12,39.27 L 195 39.27"/>
      <path fill="none" d="M25.12,7 L 195 7"/>
    </g>
    <g class="guide xgridlines yfixed" stroke-dasharray="0.5,0.5" stroke-width="0.26" stroke="#000000" id="img-608b2e03-8">
      <path fill="none" d="M27.12,5 L 27.12 138.07"/>
      <path fill="none" d="M54.77,5 L 54.77 138.07"/>
      <path fill="none" d="M82.42,5 L 82.42 138.07"/>
      <path fill="none" d="M110.06,5 L 110.06 138.07"/>
      <path fill="none" d="M137.71,5 L 137.71 138.07"/>
      <path fill="none" d="M165.35,5 L 165.35 138.07"/>
      <path fill="none" d="M193,5 L 193 138.07"/>
    </g>
    <g class="plotpanel" id="img-608b2e03-9">
      <g class="geometry" stroke="#000000" stroke-opacity="0.000" fill="#4C404B" font-size="3.44" font-family="'PT Sans Caption','Helvetica Neue','Helvetica',sans-serif" id="img-608b2e03-10">
        <text x="141.54" y="38.38" text-anchor="middle" dy="0.35em" visibility="visible">1860.0</text>
        <text x="144.45" y="19.38" text-anchor="middle" dy="0.35em" visibility="visible">1864.0</text>
        <text x="118.28" y="43.11" text-anchor="middle" dy="0.35em" visibility="visible">1868.0</text>
        <text x="149.28" y="30.91" text-anchor="middle" dy="0.35em" visibility="visible">1872.0</text>
        <text x="98.12" y="68.73" text-anchor="middle" dy="0.35em" visibility="visible">1876.0</text>
        <text x="115.15" y="63.84" text-anchor="middle" dy="0.35em" visibility="visible">1880.0</text>
        <text x="114.99" y="77.13" text-anchor="middle" dy="0.35em" visibility="visible">1884.0</text>
        <text x="101.26" y="62.06" text-anchor="middle" dy="0.35em" visibility="visible">1888.0</text>
        <text x="108.23" y="91.67" text-anchor="middle" dy="0.35em" visibility="visible">1892.0</text>
        <text x="126.47" y="55.19" text-anchor="middle" dy="0.35em" visibility="visible">1896.0</text>
        <text x="122.77" y="49.13" text-anchor="middle" dy="0.35em" visibility="visible">1900.0</text>
        <text x="158.62" y="42.33" text-anchor="middle" dy="0.35em" visibility="visible">1904.0</text>
        <text x="140.21" y="50.35" text-anchor="middle" dy="0.35em" visibility="visible">1908.0</text>
        <text x="61.88" y="126.06" text-anchor="middle" dy="0.35em" visibility="visible">1912.0</text>
        <text x="94.87" y="74.86" text-anchor="middle" dy="0.35em" visibility="visible">1916.0</text>
        <text x="189.39" y="37.35" text-anchor="middle" dy="0.35em" visibility="visible">1920.0</text>
        <text x="176.87" y="44.27" text-anchor="middle" dy="0.35em" visibility="visible">1924.0</text>
        <text x="164.86" y="28.26" text-anchor="middle" dy="0.35em" visibility="visible">1928.0</text>
        <text x="64.66" y="119.1" text-anchor="middle" dy="0.35em" visibility="visible">1932.0</text>
        <text x="49.32" y="133.79" text-anchor="middle" dy="0.35em" visibility="visible">1936.0</text>
        <text x="88.92" y="116.92" text-anchor="middle" dy="0.35em" visibility="visible">1940.0</text>
        <text x="82.75" y="110.95" text-anchor="middle" dy="0.35em" visibility="visible">1944.0</text>
        <text x="92.81" y="82.76" text-anchor="middle" dy="0.35em" visibility="visible">1948.0</text>
        <text x="135.52" y="26" text-anchor="middle" dy="0.35em" visibility="visible">1952.0</text>
        <text x="157.64" y="22.15" text-anchor="middle" dy="0.35em" visibility="visible">1956.0</text>
        <text x="116.11" y="82.59" text-anchor="middle" dy="0.35em" visibility="visible">1960.0</text>
        <text x="40.82" y="122.82" text-anchor="middle" dy="0.35em" visibility="visible">1964.0</text>
        <text x="107.58" y="55.71" text-anchor="middle" dy="0.35em" visibility="visible">1968.0</text>
        <text x="180.81" y="10.12" text-anchor="middle" dy="0.35em" visibility="visible">1972.0</text>
        <text x="100.18" y="81.01" text-anchor="middle" dy="0.35em" visibility="visible">1976.0</text>
        <text x="130.55" y="18.29" text-anchor="middle" dy="0.35em" visibility="visible">1980.0</text>
        <text x="167.27" y="10.39" text-anchor="middle" dy="0.35em" visibility="visible">1984.0</text>
        <text x="125.02" y="32.94" text-anchor="middle" dy="0.35em" visibility="visible">1988.0</text>
        <text x="99.2" y="98.39" text-anchor="middle" dy="0.35em" visibility="visible">1992.0</text>
        <text x="82.69" y="100.55" text-anchor="middle" dy="0.35em" visibility="visible">1996.0</text>
        <text x="115.13" y="70.84" text-anchor="middle" dy="0.35em" visibility="visible">2000.0</text>
        <text x="121.14" y="64.7" text-anchor="middle" dy="0.35em" visibility="visible">2004.0</text>
        <text x="83.36" y="94.74" text-anchor="middle" dy="0.35em" visibility="visible">2008.0</text>
        <text x="94.71" y="89.28" text-anchor="middle" dy="0.35em" visibility="visible">2012.0</text>
      </g>
      <g stroke-width="0.3" fill="#000000" fill-opacity="0.000" class="geometry" stroke-dasharray="none" stroke="#00BFFF" id="img-608b2e03-11">
        <path fill="none" d="M42.81,132.95 L 43 132.78 43.18 132.61 43.37 132.44 43.56 132.26 43.74 132.09 43.93 131.92 44.12 131.75 44.3 131.58 44.49 131.41 44.68 131.24 44.86 131.06 45.05 130.89 45.24 130.72 45.42 130.55 45.61 130.38 45.8 130.21 45.98 130.04 46.17 129.86 46.36 129.69 46.54 129.52 46.73 129.35 46.92 129.18 47.1 129.01 47.29 128.84 47.48 128.66 47.66 128.49 47.85 128.32 48.04 128.15 48.23 127.98 48.41 127.81 48.6 127.63 48.79 127.46 48.97 127.29 49.16 127.12 49.35 126.95 49.53 126.78 49.72 126.61 49.91 126.43 50.09 126.26 50.28 126.09 50.47 125.92 50.65 125.75 50.84 125.58 51.03 125.41 51.21 125.23 51.4 125.06 51.59 124.89 51.77 124.72 51.96 124.55 52.15 124.38 52.33 124.21 52.52 124.03 52.71 123.86 52.89 123.69 53.08 123.52 53.27 123.35 53.45 123.18 53.64 123.01 53.83 122.83 54.01 122.66 54.2 122.49 54.39 122.32 54.58 122.15 54.76 121.98 54.95 121.81 55.14 121.63 55.32 121.46 55.51 121.29 55.7 121.12 55.88 120.95 56.07 120.78 56.26 120.61 56.44 120.43 56.63 120.26 56.82 120.09 57 119.92 57.19 119.75 57.38 119.58 57.56 119.41 57.75 119.23 57.94 119.06 58.12 118.89 58.31 118.72 58.5 118.55 58.68 118.38 58.87 118.21 59.06 118.03 59.24 117.86 59.43 117.69 59.62 117.52 59.8 117.35 59.99 117.18 60.18 117.01 60.36 116.83 60.55 116.66 60.74 116.49 60.92 116.32 61.11 116.15 61.3 115.98 61.49 115.81 61.67 115.63 61.86 115.46 62.05 115.29 62.23 115.12 62.42 114.95 62.61 114.78 62.79 114.61 62.98 114.43 63.17 114.26 63.35 114.09 63.54 113.92 63.73 113.75 63.91 113.58 64.1 113.41 64.29 113.23 64.47 113.06 64.66 112.89 64.85 112.72 65.03 112.55 65.22 112.38 65.41 112.21 65.59 112.03 65.78 111.86 65.97 111.69 66.15 111.52 66.34 111.35 66.53 111.18 66.71 111.01 66.9 110.83 67.09 110.66 67.27 110.49 67.46 110.32 67.65 110.15 67.84 109.98 68.02 109.81 68.21 109.63 68.4 109.46 68.58 109.29 68.77 109.12 68.96 108.95 69.14 108.78 69.33 108.61 69.52 108.43 69.7 108.26 69.89 108.09 70.08 107.92 70.26 107.75 70.45 107.58 70.64 107.41 70.82 107.23 71.01 107.06 71.2 106.89 71.38 106.72 71.57 106.55 71.76 106.38 71.94 106.21 72.13 106.03 72.32 105.86 72.5 105.69 72.69 105.52 72.88 105.35 73.06 105.18 73.25 105.01 73.44 104.83 73.62 104.66 73.81 104.49 74 104.32 74.19 104.15 74.37 103.98 74.56 103.81 74.75 103.63 74.93 103.46 75.12 103.29 75.31 103.12 75.49 102.95 75.68 102.78 75.87 102.6 76.05 102.43 76.24 102.26 76.43 102.09 76.61 101.92 76.8 101.75 76.99 101.58 77.17 101.4 77.36 101.23 77.55 101.06 77.73 100.89 77.92 100.72 78.11 100.55 78.29 100.38 78.48 100.2 78.67 100.03 78.85 99.86 79.04 99.69 79.23 99.52 79.41 99.35 79.6 99.18 79.79 99 79.97 98.83 80.16 98.66 80.35 98.49 80.53 98.32 80.72 98.15 80.91 97.98 81.1 97.8 81.28 97.63 81.47 97.46 81.66 97.29 81.84 97.12 82.03 96.95 82.22 96.78 82.4 96.6 82.59 96.43 82.78 96.26 82.96 96.09 83.15 95.92 83.34 95.75 83.52 95.58 83.71 95.4 83.9 95.23 84.08 95.06 84.27 94.89 84.46 94.72 84.64 94.55 84.83 94.38 85.02 94.2 85.2 94.03 85.39 93.86 85.58 93.69 85.76 93.52 85.95 93.35 86.14 93.18 86.32 93 86.51 92.83 86.7 92.66 86.88 92.49 87.07 92.32 87.26 92.15 87.45 91.98 87.63 91.8 87.82 91.63 88.01 91.46 88.19 91.29 88.38 91.12 88.57 90.95 88.75 90.78 88.94 90.6 89.13 90.43 89.31 90.26 89.5 90.09 89.69 89.92 89.87 89.75 90.06 89.58 90.25 89.4 90.43 89.23 90.62 89.06 90.81 88.89 90.99 88.72 91.18 88.55 91.37 88.38 91.55 88.2 91.74 88.03 91.93 87.86 92.11 87.69 92.3 87.52 92.49 87.35 92.67 87.18 92.86 87 93.05 86.83 93.23 86.66 93.42 86.49 93.61 86.32 93.8 86.15 93.98 85.98 94.17 85.8 94.36 85.63 94.54 85.46 94.73 85.29 94.92 85.12 95.1 84.95 95.29 84.78 95.48 84.6 95.66 84.43 95.85 84.26 96.04 84.09 96.22 83.92 96.41 83.75 96.6 83.58 96.78 83.4 96.97 83.23 97.16 83.06 97.34 82.89 97.53 82.72 97.72 82.55 97.9 82.38 98.09 82.2 98.28 82.03 98.46 81.86 98.65 81.69 98.84 81.52 99.02 81.35 99.21 81.18 99.4 81 99.58 80.83 99.77 80.66 99.96 80.49 100.14 80.32 100.33 80.15 100.52 79.98 100.71 79.8 100.89 79.63 101.08 79.46 101.27 79.29 101.45 79.12 101.64 78.95 101.83 78.78 102.01 78.6 102.2 78.43 102.39 78.26 102.57 78.09 102.76 77.92 102.95 77.75 103.13 77.57 103.32 77.4 103.51 77.23 103.69 77.06 103.88 76.89 104.07 76.72 104.25 76.55 104.44 76.37 104.63 76.2 104.81 76.03 105 75.86 105.19 75.69 105.37 75.52 105.56 75.35 105.75 75.17 105.93 75 106.12 74.83 106.31 74.66 106.49 74.49 106.68 74.32 106.87 74.15 107.06 73.97 107.24 73.8 107.43 73.63 107.62 73.46 107.8 73.29 107.99 73.12 108.18 72.95 108.36 72.77 108.55 72.6 108.74 72.43 108.92 72.26 109.11 72.09 109.3 71.92 109.48 71.75 109.67 71.57 109.86 71.4 110.04 71.23 110.23 71.06 110.42 70.89 110.6 70.72 110.79 70.55 110.98 70.37 111.16 70.2 111.35 70.03 111.54 69.86 111.72 69.69 111.91 69.52 112.1 69.35 112.28 69.17 112.47 69 112.66 68.83 112.84 68.66 113.03 68.49 113.22 68.32 113.41 68.15 113.59 67.97 113.78 67.8 113.97 67.63 114.15 67.46 114.34 67.29 114.53 67.12 114.71 66.95 114.9 66.77 115.09 66.6 115.27 66.43 115.46 66.26 115.65 66.09 115.83 65.92 116.02 65.75 116.21 65.57 116.39 65.4 116.58 65.23 116.77 65.06 116.95 64.89 117.14 64.72 117.33 64.55 117.51 64.37 117.7 64.2 117.89 64.03 118.07 63.86 118.26 63.69 118.45 63.52 118.63 63.35 118.82 63.17 119.01 63 119.19 62.83 119.38 62.66 119.57 62.49 119.75 62.32 119.94 62.15 120.13 61.97 120.32 61.8 120.5 61.63 120.69 61.46 120.88 61.29 121.06 61.12 121.25 60.95 121.44 60.77 121.62 60.6 121.81 60.43 122 60.26 122.18 60.09 122.37 59.92 122.56 59.75 122.74 59.57 122.93 59.4 123.12 59.23 123.3 59.06 123.49 58.89 123.68 58.72 123.86 58.55 124.05 58.37 124.24 58.2 124.42 58.03 124.61 57.86 124.8 57.69 124.98 57.52 125.17 57.35 125.36 57.17 125.54 57 125.73 56.83 125.92 56.66 126.1 56.49 126.29 56.32 126.48 56.15 126.67 55.97 126.85 55.8 127.04 55.63 127.23 55.46 127.41 55.29 127.6 55.12 127.79 54.95 127.97 54.77 128.16 54.6 128.35 54.43 128.53 54.26 128.72 54.09 128.91 53.92 129.09 53.75 129.28 53.57 129.47 53.4 129.65 53.23 129.84 53.06 130.03 52.89 130.21 52.72 130.4 52.54 130.59 52.37 130.77 52.2 130.96 52.03 131.15 51.86 131.33 51.69 131.52 51.52 131.71 51.34 131.89 51.17 132.08 51 132.27 50.83 132.45 50.66 132.64 50.49 132.83 50.32 133.02 50.14 133.2 49.97 133.39 49.8 133.58 49.63 133.76 49.46 133.95 49.29 134.14 49.12 134.32 48.94 134.51 48.77 134.7 48.6 134.88 48.43 135.07 48.26 135.26 48.09 135.44 47.92 135.63 47.74 135.82 47.57 136 47.4 136.19 47.23 136.38 47.06 136.56 46.89 136.75 46.72 136.94 46.54 137.12 46.37 137.31 46.2 137.5 46.03 137.68 45.86 137.87 45.69 138.06 45.52 138.24 45.34 138.43 45.17 138.62 45 138.8 44.83 138.99 44.66 139.18 44.49 139.36 44.32 139.55 44.14 139.74 43.97 139.93 43.8 140.11 43.63 140.3 43.46 140.49 43.29 140.67 43.12 140.86 42.94 141.05 42.77 141.23 42.6 141.42 42.43 141.61 42.26 141.79 42.09 141.98 41.92 142.17 41.74 142.35 41.57 142.54 41.4 142.73 41.23 142.91 41.06 143.1 40.89 143.29 40.72 143.47 40.54 143.66 40.37 143.85 40.2 144.03 40.03 144.22 39.86 144.41 39.69 144.59 39.52 144.78 39.34 144.97 39.17 145.15 39 145.34 38.83 145.53 38.66 145.71 38.49 145.9 38.32 146.09 38.14 146.28 37.97 146.46 37.8 146.65 37.63 146.84 37.46 147.02 37.29 147.21 37.12 147.4 36.94 147.58 36.77 147.77 36.6 147.96 36.43 148.14 36.26 148.33 36.09 148.52 35.92 148.7 35.74 148.89 35.57 149.08 35.4 149.26 35.23 149.45 35.06 149.64 34.89 149.82 34.72 150.01 34.54 150.2 34.37 150.38 34.2 150.57 34.03 150.76 33.86 150.94 33.69 151.13 33.52 151.32 33.34 151.5 33.17 151.69 33 151.88 32.83 152.06 32.66 152.25 32.49 152.44 32.32 152.63 32.14 152.81 31.97 153 31.8 153.19 31.63 153.37 31.46 153.56 31.29 153.75 31.12 153.93 30.94 154.12 30.77 154.31 30.6 154.49 30.43 154.68 30.26 154.87 30.09 155.05 29.92 155.24 29.74 155.43 29.57 155.61 29.4 155.8 29.23 155.99 29.06 156.17 28.89 156.36 28.72 156.55 28.54 156.73 28.37 156.92 28.2 157.11 28.03 157.29 27.86 157.48 27.69 157.67 27.51 157.85 27.34 158.04 27.17 158.23 27 158.41 26.83 158.6 26.66 158.79 26.49 158.97 26.31 159.16 26.14 159.35 25.97 159.54 25.8 159.72 25.63 159.91 25.46 160.1 25.29 160.28 25.11 160.47 24.94 160.66 24.77 160.84 24.6 161.03 24.43 161.22 24.26 161.4 24.09 161.59 23.91 161.78 23.74 161.96 23.57 162.15 23.4 162.34 23.23 162.52 23.06 162.71 22.89 162.9 22.71 163.08 22.54 163.27 22.37 163.46 22.2 163.64 22.03 163.83 21.86 164.02 21.69 164.2 21.51 164.39 21.34 164.58 21.17 164.76 21 164.95 20.83 165.14 20.66 165.32 20.49 165.51 20.31 165.7 20.14 165.89 19.97 166.07 19.8 166.26 19.63 166.45 19.46 166.63 19.29 166.82 19.11 167.01 18.94 167.19 18.77 167.38 18.6 167.57 18.43 167.75 18.26 167.94 18.09 168.13 17.91 168.31 17.74 168.5 17.57 168.69 17.4 168.87 17.23 169.06 17.06 169.25 16.89 169.43 16.71 169.62 16.54 169.81 16.37 169.99 16.2 170.18 16.03 170.37 15.86 170.55 15.69 170.74 15.51 170.93 15.34 171.11 15.17 171.3 15 171.49 14.83 171.67 14.66 171.86 14.49 172.05 14.31 172.24 14.14 172.42 13.97 172.61 13.8 172.8 13.63 172.98 13.46 173.17 13.29 173.36 13.11 173.54 12.94 173.73 12.77 173.92 12.6 174.1 12.43 174.29 12.26 174.48 12.09 174.66 11.91 174.85 11.74 175.04 11.57 175.22 11.4 175.41 11.23 175.6 11.06 175.78 10.89 175.97 10.71 176.16 10.54 176.34 10.37 176.53 10.2 176.72 10.03 176.9 9.86 177.09 9.69 177.28 9.51 177.46 9.34 177.65 9.17 177.84 9 178.02 8.83 178.21 8.66 178.4 8.49 178.58 8.31 178.77 8.14 178.96 7.97 179.15 7.8 179.33 7.63 179.52 7.46 179.71 7.29 179.89 7.11 180.08 6.94 180.27 6.77 180.45 6.6 180.64 6.43 180.83 6.26 181.01 6.09 181.2 5.91 181.39 5.74 181.57 5.57 181.76 5.4 181.95 5.23 182.13 5.06 182.32 4.89 182.51 4.71 182.69 4.54"/>
      </g>
      <g class="geometry" id="img-608b2e03-12">
        <g class="color_RGBA{Float32}(0.0f0,0.74736935f0,1.0f0,1.0f0)" stroke="#FFFFFF" stroke-width="0.3" fill="#00BFFF" id="img-608b2e03-13">
          <use xlink:href="#img-608b2e03-14" x="138.06" y="35.75"/>
          <use xlink:href="#img-608b2e03-14" x="137.94" y="18.63"/>
          <use xlink:href="#img-608b2e03-14" x="124.79" y="42.12"/>
          <use xlink:href="#img-608b2e03-14" x="142.78" y="31.2"/>
          <use xlink:href="#img-608b2e03-14" x="101.75" y="71.36"/>
          <use xlink:href="#img-608b2e03-14" x="110.33" y="61.21"/>
          <use xlink:href="#img-608b2e03-14" x="108.48" y="77.49"/>
          <use xlink:href="#img-608b2e03-14" x="107.77" y="61.07"/>
          <use xlink:href="#img-608b2e03-14" x="101.73" y="90.72"/>
          <use xlink:href="#img-608b2e03-14" x="122.01" y="57.82"/>
          <use xlink:href="#img-608b2e03-14" x="127.09" y="51.75"/>
          <use xlink:href="#img-608b2e03-14" x="162.24" y="44.96"/>
          <use xlink:href="#img-608b2e03-14" x="133.7" y="50.29"/>
          <use xlink:href="#img-608b2e03-14" x="58.38" y="123.43"/>
          <use xlink:href="#img-608b2e03-14" x="101.37" y="74.33"/>
          <use xlink:href="#img-608b2e03-14" x="182.88" y="37.87"/>
          <use xlink:href="#img-608b2e03-14" x="180.14" y="41.64"/>
          <use xlink:href="#img-608b2e03-14" x="158.35" y="28.15"/>
          <use xlink:href="#img-608b2e03-14" x="60.74" y="121.73"/>
          <use xlink:href="#img-608b2e03-14" x="42.81" y="134.12"/>
          <use xlink:href="#img-608b2e03-14" x="82.42" y="116.14"/>
          <use xlink:href="#img-608b2e03-14" x="89.25" y="112"/>
          <use xlink:href="#img-608b2e03-14" x="97.63" y="85.39"/>
          <use xlink:href="#img-608b2e03-14" x="140.21" y="28.63"/>
          <use xlink:href="#img-608b2e03-14" x="152.79" y="24.78"/>
          <use xlink:href="#img-608b2e03-14" x="109.61" y="81.92"/>
          <use xlink:href="#img-608b2e03-14" x="47.33" y="123.59"/>
          <use xlink:href="#img-608b2e03-14" x="112" y="58.34"/>
          <use xlink:href="#img-608b2e03-14" x="174.3" y="11.2"/>
          <use xlink:href="#img-608b2e03-14" x="104.3" y="78.38"/>
          <use xlink:href="#img-608b2e03-14" x="137.06" y="18.76"/>
          <use xlink:href="#img-608b2e03-14" x="160.76" y="10.12"/>
          <use xlink:href="#img-608b2e03-14" x="131.53" y="33.68"/>
          <use xlink:href="#img-608b2e03-14" x="94.64" y="95.76"/>
          <use xlink:href="#img-608b2e03-14" x="86.41" y="97.92"/>
          <use xlink:href="#img-608b2e03-14" x="108.62" y="70.93"/>
          <use xlink:href="#img-608b2e03-14" x="116.89" y="67.33"/>
          <use xlink:href="#img-608b2e03-14" x="89.86" y="94.56"/>
          <use xlink:href="#img-608b2e03-14" x="99.35" y="86.65"/>
        </g>
      </g>
    </g>
  </g>
</g>
  <g class="guide ylabels" font-size="4.23" font-family="'PT Sans Caption','Helvetica Neue','Helvetica',sans-serif" fill="#6C606B" id="img-608b2e03-15">
    <text x="24.12" y="136.07" text-anchor="end" dy="0.35em">-100</text>
    <text x="24.12" y="103.8" text-anchor="end" dy="0.35em">-50</text>
    <text x="24.12" y="71.53" text-anchor="end" dy="0.35em">0</text>
    <text x="24.12" y="39.27" text-anchor="end" dy="0.35em">50</text>
    <text x="24.12" y="7" text-anchor="end" dy="0.35em">100</text>
  </g>
  <g font-size="5.29" font-family="'PT Sans','Helvetica Neue','Helvetica',sans-serif" fill="#564A55" stroke="#000000" stroke-opacity="0.000" id="img-608b2e03-16">
    <text x="9.46" y="69.53" text-anchor="middle" dy="0.35em" transform="rotate(-90, 9.46, 71.53)">Electoral Difference (%)</text>
  </g>
</g>
<defs>
  <clipPath id="img-608b2e03-4">
  <path d="M25.12,5 L 195 5 195 138.07 25.12 138.07" />
</clipPath>
  <g id="img-608b2e03-14">
    <circle cx="0" cy="0" r="1.32"/>
  </g>
</defs>
</svg>
