<?xml version="1.0" encoding="UTF-8"?>
<svg xmlns="http://www.w3.org/2000/svg"
     xmlns:xlink="http://www.w3.org/1999/xlink"
     xmlns:gadfly="http://www.gadflyjl.org/ns"
     version="1.2"
     width="200mm" height="160mm" viewBox="0 0 200 160"
     stroke="none"
     fill="#000000"
     stroke-width="0.3"
     font-size="3.88"
>
<g class="plotroot xscalable yscalable" id="img-aa33765b-1">
  <g font-size="5.29" font-family="'PT Sans','Helvetica Neue','Helvetica',sans-serif" fill="#FFFFFF" stroke="#000000" stroke-opacity="0.000" id="img-aa33765b-2">
    <text x="109.88" y="147.06" text-anchor="middle" dy="0.6em">Popular Difference (%)</text>
  </g>
  <g class="guide xlabels" font-size="4.23" font-family="'PT Sans Caption','Helvetica Neue','Helvetica',sans-serif" fill="#FFFFFF" id="img-aa33765b-3">
    <text x="26.76" y="139.89" text-anchor="middle" dy="0.6em">-30</text>
    <text x="54.47" y="139.89" text-anchor="middle" dy="0.6em">-20</text>
    <text x="82.17" y="139.89" text-anchor="middle" dy="0.6em">-10</text>
    <text x="109.88" y="139.89" text-anchor="middle" dy="0.6em">0</text>
    <text x="137.59" y="139.89" text-anchor="middle" dy="0.6em">10</text>
    <text x="165.29" y="139.89" text-anchor="middle" dy="0.6em">20</text>
    <text x="193" y="139.89" text-anchor="middle" dy="0.6em">30</text>
  </g>
<g clip-path="url(#img-aa33765b-4)">
  <g id="img-aa33765b-5">
    <g pointer-events="visible" opacity="1" fill="#000000" fill-opacity="0.000" stroke="#000000" stroke-opacity="0.000" class="guide background" id="img-aa33765b-6">
      <rect x="24.76" y="5" width="170.24" height="133.89"/>
    </g>
    <g class="guide ygridlines xfixed" stroke-dasharray="0.5,0.5" stroke-width="0.26" stroke="#FFFFFF" id="img-aa33765b-7">
      <path fill="none" d="M24.76,136.89 L 195 136.89"/>
      <path fill="none" d="M24.76,104.41 L 195 104.41"/>
      <path fill="none" d="M24.76,71.94 L 195 71.94"/>
      <path fill="none" d="M24.76,39.47 L 195 39.47"/>
      <path fill="none" d="M24.76,7 L 195 7"/>
    </g>
    <g class="guide xgridlines yfixed" stroke-dasharray="0.5,0.5" stroke-width="0.26" stroke="#FFFFFF" id="img-aa33765b-8">
      <path fill="none" d="M26.76,5 L 26.76 138.89"/>
      <path fill="none" d="M54.47,5 L 54.47 138.89"/>
      <path fill="none" d="M82.17,5 L 82.17 138.89"/>
      <path fill="none" d="M109.88,5 L 109.88 138.89"/>
      <path fill="none" d="M137.59,5 L 137.59 138.89"/>
      <path fill="none" d="M165.29,5 L 165.29 138.89"/>
      <path fill="none" d="M193,5 L 193 138.89"/>
    </g>
    <g class="plotpanel" id="img-aa33765b-9">
      <g class="geometry" stroke="#000000" stroke-opacity="0.000" fill="#4C404B" font-size="3.44" font-family="'PT Sans Caption','Helvetica Neue','Helvetica',sans-serif" id="img-aa33765b-10">
        <text x="142.48" y="38.35" text-anchor="middle" dy="0.35em" visibility="visible">1860.0</text>
        <text x="144.28" y="18.05" text-anchor="middle" dy="0.35em" visibility="visible">1864.0</text>
        <text x="118.17" y="42.83" text-anchor="middle" dy="0.35em" visibility="visible">1868.0</text>
        <text x="149.13" y="31.49" text-anchor="middle" dy="0.35em" visibility="visible">1872.0</text>
        <text x="98.14" y="69.36" text-anchor="middle" dy="0.35em" visibility="visible">1876.0</text>
        <text x="116.62" y="61.73" text-anchor="middle" dy="0.35em" visibility="visible">1880.0</text>
        <text x="114.76" y="77.07" text-anchor="middle" dy="0.35em" visibility="visible">1884.0</text>
        <text x="101.11" y="62.4" text-anchor="middle" dy="0.35em" visibility="visible">1888.0</text>
        <text x="105.02" y="93.66" text-anchor="middle" dy="0.35em" visibility="visible">1892.0</text>
        <text x="126.47" y="55.73" text-anchor="middle" dy="0.35em" visibility="visible">1896.0</text>
        <text x="123.51" y="49.63" text-anchor="middle" dy="0.35em" visibility="visible">1900.0</text>
        <text x="165.82" y="47.61" text-anchor="middle" dy="0.35em" visibility="visible">1904.0</text>
        <text x="140.04" y="50.14" text-anchor="middle" dy="0.35em" visibility="visible">1908.0</text>
        <text x="62.02" y="126.58" text-anchor="middle" dy="0.35em" visibility="visible">1912.0</text>
        <text x="94.7" y="75.7" text-anchor="middle" dy="0.35em" visibility="visible">1916.0</text>
        <text x="179.06" y="35.65" text-anchor="middle" dy="0.35em" visibility="visible">1920.0</text>
        <text x="186.58" y="41.68" text-anchor="middle" dy="0.35em" visibility="visible">1924.0</text>
        <text x="162.4" y="30.69" text-anchor="middle" dy="0.35em" visibility="visible">1928.0</text>
        <text x="66.91" y="121.64" text-anchor="middle" dy="0.35em" visibility="visible">1932.0</text>
        <text x="48.95" y="135.06" text-anchor="middle" dy="0.35em" visibility="visible">1936.0</text>
        <text x="88.64" y="117.07" text-anchor="middle" dy="0.35em" visibility="visible">1940.0</text>
        <text x="95.49" y="111.77" text-anchor="middle" dy="0.35em" visibility="visible">1944.0</text>
        <text x="90.95" y="86.49" text-anchor="middle" dy="0.35em" visibility="visible">1948.0</text>
        <text x="133.62" y="28.41" text-anchor="middle" dy="0.35em" visibility="visible">1952.0</text>
        <text x="159.17" y="23.74" text-anchor="middle" dy="0.35em" visibility="visible">1956.0</text>
        <text x="115.89" y="82.39" text-anchor="middle" dy="0.35em" visibility="visible">1960.0</text>
        <text x="43.11" y="126.74" text-anchor="middle" dy="0.35em" visibility="visible">1964.0</text>
        <text x="107.19" y="56.25" text-anchor="middle" dy="0.35em" visibility="visible">1968.0</text>
        <text x="167.79" y="11.92" text-anchor="middle" dy="0.35em" visibility="visible">1972.0</text>
        <text x="100.16" y="81.25" text-anchor="middle" dy="0.35em" visibility="visible">1976.0</text>
        <text x="130.47" y="18.51" text-anchor="middle" dy="0.35em" visibility="visible">1980.0</text>
        <text x="154.22" y="10.57" text-anchor="middle" dy="0.35em" visibility="visible">1984.0</text>
        <text x="124.93" y="34.99" text-anchor="middle" dy="0.35em" visibility="visible">1988.0</text>
        <text x="98.5" y="98.74" text-anchor="middle" dy="0.35em" visibility="visible">1992.0</text>
        <text x="79.71" y="98.02" text-anchor="middle" dy="0.35em" visibility="visible">1996.0</text>
        <text x="115.08" y="71.68" text-anchor="middle" dy="0.35em" visibility="visible">2000.0</text>
        <text x="123.37" y="66.82" text-anchor="middle" dy="0.35em" visibility="visible">2004.0</text>
        <text x="85.35" y="92.71" text-anchor="middle" dy="0.35em" visibility="visible">2008.0</text>
        <text x="105.79" y="87.86" text-anchor="middle" dy="0.35em" visibility="visible">2012.0</text>
      </g>
      <g stroke-width="0.3" fill="#000000" fill-opacity="0.000" class="geometry" stroke-dasharray="none" stroke="#00BFFF" id="img-aa33765b-11">
        <path fill="none" d="M42.48,133.75 L 42.67 133.58 42.85 133.4 43.04 133.23 43.23 133.06 43.41 132.89 43.6 132.71 43.79 132.54 43.98 132.37 44.16 132.2 44.35 132.02 44.54 131.85 44.72 131.68 44.91 131.51 45.1 131.33 45.29 131.16 45.47 130.99 45.66 130.82 45.85 130.64 46.03 130.47 46.22 130.3 46.41 130.13 46.6 129.95 46.78 129.78 46.97 129.61 47.16 129.44 47.35 129.26 47.53 129.09 47.72 128.92 47.91 128.75 48.09 128.57 48.28 128.4 48.47 128.23 48.66 128.06 48.84 127.88 49.03 127.71 49.22 127.54 49.4 127.37 49.59 127.19 49.78 127.02 49.97 126.85 50.15 126.68 50.34 126.5 50.53 126.33 50.71 126.16 50.9 125.99 51.09 125.81 51.28 125.64 51.46 125.47 51.65 125.3 51.84 125.12 52.02 124.95 52.21 124.78 52.4 124.61 52.59 124.43 52.77 124.26 52.96 124.09 53.15 123.92 53.33 123.74 53.52 123.57 53.71 123.4 53.9 123.23 54.08 123.05 54.27 122.88 54.46 122.71 54.64 122.54 54.83 122.36 55.02 122.19 55.21 122.02 55.39 121.85 55.58 121.67 55.77 121.5 55.96 121.33 56.14 121.16 56.33 120.98 56.52 120.81 56.7 120.64 56.89 120.47 57.08 120.29 57.27 120.12 57.45 119.95 57.64 119.78 57.83 119.6 58.01 119.43 58.2 119.26 58.39 119.08 58.58 118.91 58.76 118.74 58.95 118.57 59.14 118.39 59.32 118.22 59.51 118.05 59.7 117.88 59.89 117.7 60.07 117.53 60.26 117.36 60.45 117.19 60.63 117.01 60.82 116.84 61.01 116.67 61.2 116.5 61.38 116.32 61.57 116.15 61.76 115.98 61.94 115.81 62.13 115.63 62.32 115.46 62.51 115.29 62.69 115.12 62.88 114.94 63.07 114.77 63.25 114.6 63.44 114.43 63.63 114.25 63.82 114.08 64 113.91 64.19 113.74 64.38 113.56 64.57 113.39 64.75 113.22 64.94 113.05 65.13 112.87 65.31 112.7 65.5 112.53 65.69 112.36 65.88 112.18 66.06 112.01 66.25 111.84 66.44 111.67 66.62 111.49 66.81 111.32 67 111.15 67.19 110.98 67.37 110.8 67.56 110.63 67.75 110.46 67.93 110.29 68.12 110.11 68.31 109.94 68.5 109.77 68.68 109.6 68.87 109.42 69.06 109.25 69.24 109.08 69.43 108.91 69.62 108.73 69.81 108.56 69.99 108.39 70.18 108.22 70.37 108.04 70.55 107.87 70.74 107.7 70.93 107.53 71.12 107.35 71.3 107.18 71.49 107.01 71.68 106.84 71.86 106.66 72.05 106.49 72.24 106.32 72.43 106.15 72.61 105.97 72.8 105.8 72.99 105.63 73.17 105.46 73.36 105.28 73.55 105.11 73.74 104.94 73.92 104.77 74.11 104.59 74.3 104.42 74.49 104.25 74.67 104.08 74.86 103.9 75.05 103.73 75.23 103.56 75.42 103.38 75.61 103.21 75.8 103.04 75.98 102.87 76.17 102.69 76.36 102.52 76.54 102.35 76.73 102.18 76.92 102 77.11 101.83 77.29 101.66 77.48 101.49 77.67 101.31 77.85 101.14 78.04 100.97 78.23 100.8 78.42 100.62 78.6 100.45 78.79 100.28 78.98 100.11 79.16 99.93 79.35 99.76 79.54 99.59 79.73 99.42 79.91 99.24 80.1 99.07 80.29 98.9 80.47 98.73 80.66 98.55 80.85 98.38 81.04 98.21 81.22 98.04 81.41 97.86 81.6 97.69 81.78 97.52 81.97 97.35 82.16 97.17 82.35 97 82.53 96.83 82.72 96.66 82.91 96.48 83.1 96.31 83.28 96.14 83.47 95.97 83.66 95.79 83.84 95.62 84.03 95.45 84.22 95.28 84.41 95.1 84.59 94.93 84.78 94.76 84.97 94.59 85.15 94.41 85.34 94.24 85.53 94.07 85.72 93.9 85.9 93.72 86.09 93.55 86.28 93.38 86.46 93.21 86.65 93.03 86.84 92.86 87.03 92.69 87.21 92.52 87.4 92.34 87.59 92.17 87.77 92 87.96 91.83 88.15 91.65 88.34 91.48 88.52 91.31 88.71 91.14 88.9 90.96 89.08 90.79 89.27 90.62 89.46 90.45 89.65 90.27 89.83 90.1 90.02 89.93 90.21 89.76 90.39 89.58 90.58 89.41 90.77 89.24 90.96 89.07 91.14 88.89 91.33 88.72 91.52 88.55 91.71 88.38 91.89 88.2 92.08 88.03 92.27 87.86 92.45 87.68 92.64 87.51 92.83 87.34 93.02 87.17 93.2 86.99 93.39 86.82 93.58 86.65 93.76 86.48 93.95 86.3 94.14 86.13 94.33 85.96 94.51 85.79 94.7 85.61 94.89 85.44 95.07 85.27 95.26 85.1 95.45 84.92 95.64 84.75 95.82 84.58 96.01 84.41 96.2 84.23 96.38 84.06 96.57 83.89 96.76 83.72 96.95 83.54 97.13 83.37 97.32 83.2 97.51 83.03 97.69 82.85 97.88 82.68 98.07 82.51 98.26 82.34 98.44 82.16 98.63 81.99 98.82 81.82 99 81.65 99.19 81.47 99.38 81.3 99.57 81.13 99.75 80.96 99.94 80.78 100.13 80.61 100.32 80.44 100.5 80.27 100.69 80.09 100.88 79.92 101.06 79.75 101.25 79.58 101.44 79.4 101.63 79.23 101.81 79.06 102 78.89 102.19 78.71 102.37 78.54 102.56 78.37 102.75 78.2 102.94 78.02 103.12 77.85 103.31 77.68 103.5 77.51 103.68 77.33 103.87 77.16 104.06 76.99 104.25 76.82 104.43 76.64 104.62 76.47 104.81 76.3 104.99 76.13 105.18 75.95 105.37 75.78 105.56 75.61 105.74 75.44 105.93 75.26 106.12 75.09 106.3 74.92 106.49 74.75 106.68 74.57 106.87 74.4 107.05 74.23 107.24 74.06 107.43 73.88 107.61 73.71 107.8 73.54 107.99 73.37 108.18 73.19 108.36 73.02 108.55 72.85 108.74 72.68 108.92 72.5 109.11 72.33 109.3 72.16 109.49 71.98 109.67 71.81 109.86 71.64 110.05 71.47 110.24 71.29 110.42 71.12 110.61 70.95 110.8 70.78 110.98 70.6 111.17 70.43 111.36 70.26 111.55 70.09 111.73 69.91 111.92 69.74 112.11 69.57 112.29 69.4 112.48 69.22 112.67 69.05 112.86 68.88 113.04 68.71 113.23 68.53 113.42 68.36 113.6 68.19 113.79 68.02 113.98 67.84 114.17 67.67 114.35 67.5 114.54 67.33 114.73 67.15 114.91 66.98 115.1 66.81 115.29 66.64 115.48 66.46 115.66 66.29 115.85 66.12 116.04 65.95 116.22 65.77 116.41 65.6 116.6 65.43 116.79 65.26 116.97 65.08 117.16 64.91 117.35 64.74 117.53 64.57 117.72 64.39 117.91 64.22 118.1 64.05 118.28 63.88 118.47 63.7 118.66 63.53 118.85 63.36 119.03 63.19 119.22 63.01 119.41 62.84 119.59 62.67 119.78 62.5 119.97 62.32 120.16 62.15 120.34 61.98 120.53 61.81 120.72 61.63 120.9 61.46 121.09 61.29 121.28 61.12 121.47 60.94 121.65 60.77 121.84 60.6 122.03 60.43 122.21 60.25 122.4 60.08 122.59 59.91 122.78 59.74 122.96 59.56 123.15 59.39 123.34 59.22 123.52 59.05 123.71 58.87 123.9 58.7 124.09 58.53 124.27 58.36 124.46 58.18 124.65 58.01 124.83 57.84 125.02 57.67 125.21 57.49 125.4 57.32 125.58 57.15 125.77 56.98 125.96 56.8 126.14 56.63 126.33 56.46 126.52 56.28 126.71 56.11 126.89 55.94 127.08 55.77 127.27 55.59 127.46 55.42 127.64 55.25 127.83 55.08 128.02 54.9 128.2 54.73 128.39 54.56 128.58 54.39 128.77 54.21 128.95 54.04 129.14 53.87 129.33 53.7 129.51 53.52 129.7 53.35 129.89 53.18 130.08 53.01 130.26 52.83 130.45 52.66 130.64 52.49 130.82 52.32 131.01 52.14 131.2 51.97 131.39 51.8 131.57 51.63 131.76 51.45 131.95 51.28 132.13 51.11 132.32 50.94 132.51 50.76 132.7 50.59 132.88 50.42 133.07 50.25 133.26 50.07 133.44 49.9 133.63 49.73 133.82 49.56 134.01 49.38 134.19 49.21 134.38 49.04 134.57 48.87 134.75 48.69 134.94 48.52 135.13 48.35 135.32 48.18 135.5 48 135.69 47.83 135.88 47.66 136.06 47.49 136.25 47.31 136.44 47.14 136.63 46.97 136.81 46.8 137 46.62 137.19 46.45 137.38 46.28 137.56 46.11 137.75 45.93 137.94 45.76 138.12 45.59 138.31 45.42 138.5 45.24 138.69 45.07 138.87 44.9 139.06 44.73 139.25 44.55 139.43 44.38 139.62 44.21 139.81 44.04 140 43.86 140.18 43.69 140.37 43.52 140.56 43.35 140.74 43.17 140.93 43 141.12 42.83 141.31 42.66 141.49 42.48 141.68 42.31 141.87 42.14 142.05 41.97 142.24 41.79 142.43 41.62 142.62 41.45 142.8 41.27 142.99 41.1 143.18 40.93 143.36 40.76 143.55 40.58 143.74 40.41 143.93 40.24 144.11 40.07 144.3 39.89 144.49 39.72 144.67 39.55 144.86 39.38 145.05 39.2 145.24 39.03 145.42 38.86 145.61 38.69 145.8 38.51 145.99 38.34 146.17 38.17 146.36 38 146.55 37.82 146.73 37.65 146.92 37.48 147.11 37.31 147.3 37.13 147.48 36.96 147.67 36.79 147.86 36.62 148.04 36.44 148.23 36.27 148.42 36.1 148.61 35.93 148.79 35.75 148.98 35.58 149.17 35.41 149.35 35.24 149.54 35.06 149.73 34.89 149.92 34.72 150.1 34.55 150.29 34.37 150.48 34.2 150.66 34.03 150.85 33.86 151.04 33.68 151.23 33.51 151.41 33.34 151.6 33.17 151.79 32.99 151.97 32.82 152.16 32.65 152.35 32.48 152.54 32.3 152.72 32.13 152.91 31.96 153.1 31.79 153.28 31.61 153.47 31.44 153.66 31.27 153.85 31.1 154.03 30.92 154.22 30.75 154.41 30.58 154.6 30.41 154.78 30.23 154.97 30.06 155.16 29.89 155.34 29.72 155.53 29.54 155.72 29.37 155.91 29.2 156.09 29.03 156.28 28.85 156.47 28.68 156.65 28.51 156.84 28.34 157.03 28.16 157.22 27.99 157.4 27.82 157.59 27.65 157.78 27.47 157.96 27.3 158.15 27.13 158.34 26.96 158.53 26.78 158.71 26.61 158.9 26.44 159.09 26.27 159.27 26.09 159.46 25.92 159.65 25.75 159.84 25.57 160.02 25.4 160.21 25.23 160.4 25.06 160.58 24.88 160.77 24.71 160.96 24.54 161.15 24.37 161.33 24.19 161.52 24.02 161.71 23.85 161.89 23.68 162.08 23.5 162.27 23.33 162.46 23.16 162.64 22.99 162.83 22.81 163.02 22.64 163.21 22.47 163.39 22.3 163.58 22.12 163.77 21.95 163.95 21.78 164.14 21.61 164.33 21.43 164.52 21.26 164.7 21.09 164.89 20.92 165.08 20.74 165.26 20.57 165.45 20.4 165.64 20.23 165.83 20.05 166.01 19.88 166.2 19.71 166.39 19.54 166.57 19.36 166.76 19.19 166.95 19.02 167.14 18.85 167.32 18.67 167.51 18.5 167.7 18.33 167.88 18.16 168.07 17.98 168.26 17.81 168.45 17.64 168.63 17.47 168.82 17.29 169.01 17.12 169.19 16.95 169.38 16.78 169.57 16.6 169.76 16.43 169.94 16.26 170.13 16.09 170.32 15.91 170.5 15.74 170.69 15.57 170.88 15.4 171.07 15.22 171.25 15.05 171.44 14.88 171.63 14.71 171.81 14.53 172 14.36 172.19 14.19 172.38 14.02 172.56 13.84 172.75 13.67 172.94 13.5 173.13 13.33 173.31 13.15 173.5 12.98 173.69 12.81 173.87 12.64 174.06 12.46 174.25 12.29 174.44 12.12 174.62 11.95 174.81 11.77 175 11.6 175.18 11.43 175.37 11.26 175.56 11.08 175.75 10.91 175.93 10.74 176.12 10.57 176.31 10.39 176.49 10.22 176.68 10.05 176.87 9.87 177.06 9.7 177.24 9.53 177.43 9.36 177.62 9.18 177.8 9.01 177.99 8.84 178.18 8.67 178.37 8.49 178.55 8.32 178.74 8.15 178.93 7.98 179.11 7.8 179.3 7.63 179.49 7.46 179.68 7.29 179.86 7.11 180.05 6.94 180.24 6.77 180.42 6.6 180.61 6.42 180.8 6.25 180.99 6.08 181.17 5.91 181.36 5.73 181.55 5.56 181.74 5.39 181.92 5.22 182.11 5.04 182.3 4.87 182.48 4.7 182.67 4.53"/>
      </g>
      <g class="geometry" id="img-aa33765b-12">
        <g class="color_RGBA{Float32}(0.0f0,0.74736935f0,1.0f0,1.0f0)" stroke="#FFFFFF" stroke-width="0.3" fill="#00BFFF" id="img-aa33765b-13">
          <use xlink:href="#img-aa33765b-14" x="137.94" y="35.94"/>
          <use xlink:href="#img-aa33765b-14" x="137.82" y="18.71"/>
          <use xlink:href="#img-aa33765b-14" x="124.64" y="42.34"/>
          <use xlink:href="#img-aa33765b-14" x="142.66" y="31.35"/>
          <use xlink:href="#img-aa33765b-14" x="101.55" y="71.77"/>
          <use xlink:href="#img-aa33765b-14" x="110.15" y="61.56"/>
          <use xlink:href="#img-aa33765b-14" x="108.29" y="77.94"/>
          <use xlink:href="#img-aa33765b-14" x="107.58" y="61.42"/>
          <use xlink:href="#img-aa33765b-14" x="101.52" y="91.25"/>
          <use xlink:href="#img-aa33765b-14" x="121.85" y="58.14"/>
          <use xlink:href="#img-aa33765b-14" x="126.95" y="52.04"/>
          <use xlink:href="#img-aa33765b-14" x="162.17" y="45.2"/>
          <use xlink:href="#img-aa33765b-14" x="133.57" y="50.56"/>
          <use xlink:href="#img-aa33765b-14" x="58.08" y="124.17"/>
          <use xlink:href="#img-aa33765b-14" x="101.17" y="74.76"/>
          <use xlink:href="#img-aa33765b-14" x="182.86" y="38.07"/>
          <use xlink:href="#img-aa33765b-14" x="180.11" y="41.86"/>
          <use xlink:href="#img-aa33765b-14" x="158.28" y="28.28"/>
          <use xlink:href="#img-aa33765b-14" x="60.45" y="122.45"/>
          <use xlink:href="#img-aa33765b-14" x="42.48" y="134.93"/>
          <use xlink:href="#img-aa33765b-14" x="82.17" y="116.83"/>
          <use xlink:href="#img-aa33765b-14" x="89.03" y="112.67"/>
          <use xlink:href="#img-aa33765b-14" x="97.42" y="85.89"/>
          <use xlink:href="#img-aa33765b-14" x="140.09" y="28.77"/>
          <use xlink:href="#img-aa33765b-14" x="152.7" y="24.89"/>
          <use xlink:href="#img-aa33765b-14" x="109.42" y="82.39"/>
          <use xlink:href="#img-aa33765b-14" x="47.01" y="124.33"/>
          <use xlink:href="#img-aa33765b-14" x="111.82" y="58.66"/>
          <use xlink:href="#img-aa33765b-14" x="174.26" y="11.22"/>
          <use xlink:href="#img-aa33765b-14" x="104.1" y="78.84"/>
          <use xlink:href="#img-aa33765b-14" x="136.94" y="18.83"/>
          <use xlink:href="#img-aa33765b-14" x="160.69" y="10.14"/>
          <use xlink:href="#img-aa33765b-14" x="131.4" y="33.85"/>
          <use xlink:href="#img-aa33765b-14" x="94.42" y="96.33"/>
          <use xlink:href="#img-aa33765b-14" x="86.17" y="98.5"/>
          <use xlink:href="#img-aa33765b-14" x="108.44" y="71.34"/>
          <use xlink:href="#img-aa33765b-14" x="116.72" y="67.71"/>
          <use xlink:href="#img-aa33765b-14" x="89.64" y="95.12"/>
          <use xlink:href="#img-aa33765b-14" x="99.14" y="87.15"/>
        </g>
      </g>
    </g>
  </g>
</g>
  <g class="guide ylabels" font-size="4.23" font-family="'PT Sans Caption','Helvetica Neue','Helvetica',sans-serif" fill="#FFFFFF" id="img-aa33765b-15">
    <text x="23.76" y="136.89" text-anchor="end" dy="0.35em">-100</text>
    <text x="23.76" y="104.41" text-anchor="end" dy="0.35em">-50</text>
    <text x="23.76" y="71.94" text-anchor="end" dy="0.35em">0</text>
    <text x="23.76" y="39.47" text-anchor="end" dy="0.35em">50</text>
    <text x="23.76" y="7" text-anchor="end" dy="0.35em">100</text>
  </g>
  <g font-size="5.29" font-family="'PT Sans','Helvetica Neue','Helvetica',sans-serif" fill="#FFFFFF" stroke="#000000" stroke-opacity="0.000" id="img-aa33765b-16">
    <text x="9.47" y="69.94" text-anchor="middle" dy="0.35em" transform="rotate(-90, 9.47, 71.94)">Electoral Difference (%)</text>
  </g>
</g>
<defs>
  <clipPath id="img-aa33765b-4">
  <path d="M24.76,5 L 195 5 195 138.89 24.76 138.89" />
</clipPath>
  <g id="img-aa33765b-14">
    <circle cx="0" cy="0" r="1.32"/>
  </g>
</defs>
</svg>
