<?xml version="1.0" encoding="UTF-8"?>
<svg xmlns="http://www.w3.org/2000/svg"
     xmlns:xlink="http://www.w3.org/1999/xlink"
     xmlns:gadfly="http://www.gadflyjl.org/ns"
     version="1.2"
     width="238.1mm" height="158.73mm" viewBox="0 0 238.1 158.73"
     stroke="none"
     fill="#000000"
     stroke-width="0.3"
     font-size="3.88"
>
<g stroke="#000000" stroke-opacity="0.000" fill="#222831" id="img-48e636aa-1">
  <rect x="0" y="0" width="238.1" height="158.73"/>
</g>
<g class="plotroot xscalable yscalable" id="img-48e636aa-2">
  <g class="guide colorkey" id="img-48e636aa-3">
    <g class="color_Democratic" id="img-48e636aa-4">
      <g fill="#A1A1A1" font-size="3.7" font-family="'PT Sans','Helvetica Neue','Helvetica',sans-serif" id="img-48e636aa-5">
        <text x="51.52" y="148.78" dy="0.35em">Democratic</text>
      </g>
      <g fill="#0000FF" stroke="#000000" stroke-opacity="0.000" id="img-48e636aa-6">
        <rect x="48.29" y="147.66" width="2.22" height="2.22"/>
      </g>
    </g>
    <g class="color_Republican" id="img-48e636aa-7">
      <g fill="#A1A1A1" font-size="3.7" font-family="'PT Sans','Helvetica Neue','Helvetica',sans-serif" id="img-48e636aa-8">
        <text x="29.6" y="148.78" dy="0.35em">Republican</text>
      </g>
      <g fill="#FF0000" stroke="#000000" stroke-opacity="0.000" id="img-48e636aa-9">
        <rect x="26.38" y="147.66" width="2.22" height="2.22"/>
      </g>
    </g>
    <g fill="#A1A1A1" font-size="6.35" font-family="'PT Sans','Helvetica Neue','Helvetica',sans-serif" stroke="#000000" stroke-opacity="0.000" id="img-48e636aa-10">
      <text x="26.38" y="145.28">Party</text>
    </g>
  </g>
  <g font-size="6.35" font-family="'PT Sans','Helvetica Neue','Helvetica',sans-serif" fill="#A1A1A1" stroke="#000000" stroke-opacity="0.000" id="img-48e636aa-11">
    <text x="129.24" y="130.46" text-anchor="middle" dy="0.6em">Year</text>
  </g>
  <g class="guide xlabels" font-size="4.76" font-family="'PT Sans Caption','Helvetica Neue','Helvetica',sans-serif" fill="#A1A1A1" id="img-48e636aa-12">
    <text x="27.38" y="121.95" text-anchor="middle" dy="0.6em">1824</text>
    <text x="40.11" y="121.95" text-anchor="middle" dy="0.6em">1836</text>
    <text x="52.84" y="121.95" text-anchor="middle" dy="0.6em">1848</text>
    <text x="65.58" y="121.95" text-anchor="middle" dy="0.6em">1860</text>
    <text x="78.31" y="121.95" text-anchor="middle" dy="0.6em">1872</text>
    <text x="91.04" y="121.95" text-anchor="middle" dy="0.6em">1884</text>
    <text x="103.77" y="121.95" text-anchor="middle" dy="0.6em">1896</text>
    <text x="116.51" y="121.95" text-anchor="middle" dy="0.6em">1908</text>
    <text x="129.24" y="121.95" text-anchor="middle" dy="0.6em">1920</text>
    <text x="141.97" y="121.95" text-anchor="middle" dy="0.6em">1932</text>
    <text x="154.7" y="121.95" text-anchor="middle" dy="0.6em">1944</text>
    <text x="167.43" y="121.95" text-anchor="middle" dy="0.6em">1956</text>
    <text x="180.17" y="121.95" text-anchor="middle" dy="0.6em">1968</text>
    <text x="192.9" y="121.95" text-anchor="middle" dy="0.6em">1980</text>
    <text x="205.63" y="121.95" text-anchor="middle" dy="0.6em">1992</text>
    <text x="218.36" y="121.95" text-anchor="middle" dy="0.6em">2004</text>
    <text x="231.1" y="121.95" text-anchor="middle" dy="0.6em">2016</text>
  </g>
<g clip-path="url(#img-48e636aa-13)">
  <g id="img-48e636aa-14">
    <g pointer-events="visible" opacity="1" fill="#222831" stroke="#000000" stroke-opacity="0.000" class="guide background" id="img-48e636aa-15">
      <rect x="25.38" y="12.91" width="207.72" height="108.04"/>
    </g>
    <g class="guide ygridlines xfixed" stroke-dasharray="0.5,0.5" stroke-width="0.2" stroke="#575757" id="img-48e636aa-16">
      <path fill="none" d="M25.38,118.95 L 233.1 118.95"/>
      <path fill="none" d="M25.38,92.94 L 233.1 92.94"/>
      <path fill="none" d="M25.38,66.93 L 233.1 66.93"/>
      <path fill="none" d="M25.38,40.92 L 233.1 40.92"/>
      <path fill="none" d="M25.38,14.91 L 233.1 14.91"/>
    </g>
    <g class="guide xgridlines yfixed" stroke-dasharray="0.5,0.5" stroke-width="0.2" stroke="#575757" id="img-48e636aa-17">
      <path fill="none" d="M27.38,12.91 L 27.38 120.95"/>
      <path fill="none" d="M40.11,12.91 L 40.11 120.95"/>
      <path fill="none" d="M52.84,12.91 L 52.84 120.95"/>
      <path fill="none" d="M65.58,12.91 L 65.58 120.95"/>
      <path fill="none" d="M78.31,12.91 L 78.31 120.95"/>
      <path fill="none" d="M91.04,12.91 L 91.04 120.95"/>
      <path fill="none" d="M103.77,12.91 L 103.77 120.95"/>
      <path fill="none" d="M116.51,12.91 L 116.51 120.95"/>
      <path fill="none" d="M129.24,12.91 L 129.24 120.95"/>
      <path fill="none" d="M141.97,12.91 L 141.97 120.95"/>
      <path fill="none" d="M154.7,12.91 L 154.7 120.95"/>
      <path fill="none" d="M167.43,12.91 L 167.43 120.95"/>
      <path fill="none" d="M180.17,12.91 L 180.17 120.95"/>
      <path fill="none" d="M192.9,12.91 L 192.9 120.95"/>
      <path fill="none" d="M205.63,12.91 L 205.63 120.95"/>
      <path fill="none" d="M218.36,12.91 L 218.36 120.95"/>
      <path fill="none" d="M231.1,12.91 L 231.1 120.95"/>
    </g>
    <g class="plotpanel" id="img-48e636aa-18">
      <g class="geometry" id="img-48e636aa-19">
        <g stroke-width="0.3" id="img-48e636aa-20">
          <use xlink:href="#img-48e636aa-21" x="65.58" y="55.1" stroke="#B3867B" fill="#FF0000" class="color_Republican"/>
          <use xlink:href="#img-48e636aa-21" x="69.82" y="54.2" stroke="#B3867B" fill="#FF0000" class="color_Republican"/>
          <use xlink:href="#img-48e636aa-21" x="74.06" y="49.77" stroke="#B3867B" fill="#FF0000" class="color_Republican"/>
          <use xlink:href="#img-48e636aa-21" x="78.31" y="44.1" stroke="#B3867B" fill="#FF0000" class="color_Republican"/>
          <use xlink:href="#img-48e636aa-21" x="82.55" y="57.27" stroke="#B3867B" fill="#FF0000" class="color_Republican"/>
          <use xlink:href="#img-48e636aa-21" x="86.8" y="54.2" stroke="#B3867B" fill="#FF0000" class="color_Republican"/>
          <use xlink:href="#img-48e636aa-21" x="91.04" y="58.54" stroke="#B3867B" fill="#FF0000" class="color_Republican"/>
          <use xlink:href="#img-48e636aa-21" x="95.28" y="62.9" stroke="#B3867B" fill="#FF0000" class="color_Republican"/>
          <use xlink:href="#img-48e636aa-21" x="99.53" y="66.19" stroke="#B3867B" fill="#FF0000" class="color_Republican"/>
          <use xlink:href="#img-48e636aa-21" x="103.77" y="47.86" stroke="#B3867B" fill="#FF0000" class="color_Republican"/>
          <use xlink:href="#img-48e636aa-21" x="108.02" y="56.79" stroke="#B3867B" fill="#FF0000" class="color_Republican"/>
          <use xlink:href="#img-48e636aa-21" x="112.26" y="55.9" stroke="#B3867B" fill="#FF0000" class="color_Republican"/>
          <use xlink:href="#img-48e636aa-21" x="116.51" y="55.73" stroke="#B3867B" fill="#FF0000" class="color_Republican"/>
          <use xlink:href="#img-48e636aa-21" x="120.75" y="81.95" stroke="#B3867B" fill="#FF0000" class="color_Republican"/>
          <use xlink:href="#img-48e636aa-21" x="124.99" y="65.81" stroke="#B3867B" fill="#FF0000" class="color_Republican"/>
          <use xlink:href="#img-48e636aa-21" x="129.24" y="52.39" stroke="#B3867B" fill="#FF0000" class="color_Republican"/>
          <use xlink:href="#img-48e636aa-21" x="133.48" y="56.91" stroke="#B3867B" fill="#FF0000" class="color_Republican"/>
          <use xlink:href="#img-48e636aa-21" x="137.73" y="67.4" stroke="#B3867B" fill="#FF0000" class="color_Republican"/>
          <use xlink:href="#img-48e636aa-21" x="141.97" y="73.9" stroke="#B3867B" fill="#FF0000" class="color_Republican"/>
          <use xlink:href="#img-48e636aa-21" x="146.21" y="77.15" stroke="#B3867B" fill="#FF0000" class="color_Republican"/>
          <use xlink:href="#img-48e636aa-21" x="150.46" y="74.03" stroke="#B3867B" fill="#FF0000" class="color_Republican"/>
          <use xlink:href="#img-48e636aa-21" x="154.7" y="76.02" stroke="#B3867B" fill="#FF0000" class="color_Republican"/>
          <use xlink:href="#img-48e636aa-21" x="158.95" y="75.84" stroke="#B3867B" fill="#FF0000" class="color_Republican"/>
          <use xlink:href="#img-48e636aa-21" x="163.19" y="66.01" stroke="#B3867B" fill="#FF0000" class="color_Republican"/>
          <use xlink:href="#img-48e636aa-21" x="167.43" y="58.34" stroke="#B3867B" fill="#FF0000" class="color_Republican"/>
          <use xlink:href="#img-48e636aa-21" x="171.68" y="81.11" stroke="#B3867B" fill="#FF0000" class="color_Republican"/>
          <use xlink:href="#img-48e636aa-21" x="175.92" y="99.05" stroke="#B3867B" fill="#FF0000" class="color_Republican"/>
          <use xlink:href="#img-48e636aa-21" x="180.17" y="85.89" stroke="#B3867B" fill="#FF0000" class="color_Republican"/>
          <use xlink:href="#img-48e636aa-21" x="184.41" y="63.81" stroke="#B3867B" fill="#FF0000" class="color_Republican"/>
          <use xlink:href="#img-48e636aa-21" x="188.65" y="73.09" stroke="#B3867B" fill="#FF0000" class="color_Republican"/>
          <use xlink:href="#img-48e636aa-21" x="192.9" y="80.25" stroke="#B3867B" fill="#FF0000" class="color_Republican"/>
          <use xlink:href="#img-48e636aa-21" x="197.14" y="65.2" stroke="#B3867B" fill="#FF0000" class="color_Republican"/>
          <use xlink:href="#img-48e636aa-21" x="201.39" y="73.24" stroke="#B3867B" fill="#FF0000" class="color_Republican"/>
          <use xlink:href="#img-48e636aa-21" x="205.63" y="88.76" stroke="#B3867B" fill="#FF0000" class="color_Republican"/>
          <use xlink:href="#img-48e636aa-21" x="209.87" y="91.05" stroke="#B3867B" fill="#FF0000" class="color_Republican"/>
          <use xlink:href="#img-48e636aa-21" x="214.12" y="85.75" stroke="#B3867B" fill="#FF0000" class="color_Republican"/>
          <use xlink:href="#img-48e636aa-21" x="218.36" y="78.72" stroke="#B3867B" fill="#FF0000" class="color_Republican"/>
          <use xlink:href="#img-48e636aa-21" x="222.61" y="82.48" stroke="#B3867B" fill="#FF0000" class="color_Republican"/>
          <use xlink:href="#img-48e636aa-21" x="226.85" y="82.28" stroke="#B3867B" fill="#FF0000" class="color_Republican"/>
          <use xlink:href="#img-48e636aa-21" x="31.62" y="95.06" stroke="#988BAD" fill="#0000FF" class="color_Democratic"/>
          <use xlink:href="#img-48e636aa-21" x="35.87" y="74.14" stroke="#988BAD" fill="#0000FF" class="color_Democratic"/>
          <use xlink:href="#img-48e636aa-21" x="40.11" y="64.6" stroke="#988BAD" fill="#0000FF" class="color_Democratic"/>
          <use xlink:href="#img-48e636aa-21" x="44.36" y="79.11" stroke="#988BAD" fill="#0000FF" class="color_Democratic"/>
          <use xlink:href="#img-48e636aa-21" x="48.6" y="77.77" stroke="#988BAD" fill="#0000FF" class="color_Democratic"/>
          <use xlink:href="#img-48e636aa-21" x="52.84" y="84.95" stroke="#988BAD" fill="#0000FF" class="color_Democratic"/>
          <use xlink:href="#img-48e636aa-21" x="57.09" y="65.51" stroke="#988BAD" fill="#0000FF" class="color_Democratic"/>
          <use xlink:href="#img-48e636aa-21" x="61.33" y="83.89" stroke="#988BAD" fill="#0000FF" class="color_Democratic"/>
          <use xlink:href="#img-48e636aa-21" x="65.58" y="78.76" stroke="#988BAD" fill="#0000FF" class="color_Democratic"/>
          <use xlink:href="#img-48e636aa-21" x="69.82" y="79.67" stroke="#988BAD" fill="#0000FF" class="color_Democratic"/>
          <use xlink:href="#img-48e636aa-21" x="74.06" y="84.09" stroke="#988BAD" fill="#0000FF" class="color_Democratic"/>
          <use xlink:href="#img-48e636aa-21" x="78.31" y="89.76" stroke="#988BAD" fill="#0000FF" class="color_Democratic"/>
          <use xlink:href="#img-48e636aa-21" x="82.55" y="77.1" stroke="#988BAD" fill="#0000FF" class="color_Democratic"/>
          <use xlink:href="#img-48e636aa-21" x="86.8" y="80.59" stroke="#988BAD" fill="#0000FF" class="color_Democratic"/>
          <use xlink:href="#img-48e636aa-21" x="91.04" y="79.61" stroke="#988BAD" fill="#0000FF" class="color_Democratic"/>
          <use xlink:href="#img-48e636aa-21" x="95.28" y="74.22" stroke="#988BAD" fill="#0000FF" class="color_Democratic"/>
          <use xlink:href="#img-48e636aa-21" x="99.53" y="71.36" stroke="#988BAD" fill="#0000FF" class="color_Democratic"/>
          <use xlink:href="#img-48e636aa-21" x="103.77" y="91.49" stroke="#988BAD" fill="#0000FF" class="color_Democratic"/>
          <use xlink:href="#img-48e636aa-21" x="108.02" y="82.5" stroke="#988BAD" fill="#0000FF" class="color_Democratic"/>
          <use xlink:href="#img-48e636aa-21" x="112.26" y="81.31" stroke="#988BAD" fill="#0000FF" class="color_Democratic"/>
          <use xlink:href="#img-48e636aa-21" x="116.51" y="83.41" stroke="#988BAD" fill="#0000FF" class="color_Democratic"/>
          <use xlink:href="#img-48e636aa-21" x="120.75" y="78.33" stroke="#988BAD" fill="#0000FF" class="color_Democratic"/>
          <use xlink:href="#img-48e636aa-21" x="124.99" y="71.09" stroke="#988BAD" fill="#0000FF" class="color_Democratic"/>
          <use xlink:href="#img-48e636aa-21" x="129.24" y="84.85" stroke="#988BAD" fill="#0000FF" class="color_Democratic"/>
          <use xlink:href="#img-48e636aa-21" x="133.48" y="81.02" stroke="#988BAD" fill="#0000FF" class="color_Democratic"/>
          <use xlink:href="#img-48e636aa-21" x="137.73" y="66.77" stroke="#988BAD" fill="#0000FF" class="color_Democratic"/>
          <use xlink:href="#img-48e636aa-21" x="141.97" y="61.65" stroke="#988BAD" fill="#0000FF" class="color_Democratic"/>
          <use xlink:href="#img-48e636aa-21" x="146.21" y="63.71" stroke="#988BAD" fill="#0000FF" class="color_Democratic"/>
          <use xlink:href="#img-48e636aa-21" x="150.46" y="59.93" stroke="#988BAD" fill="#0000FF" class="color_Democratic"/>
          <use xlink:href="#img-48e636aa-21" x="154.7" y="57.99" stroke="#988BAD" fill="#0000FF" class="color_Democratic"/>
          <use xlink:href="#img-48e636aa-21" x="158.95" y="59.03" stroke="#988BAD" fill="#0000FF" class="color_Democratic"/>
          <use xlink:href="#img-48e636aa-21" x="163.19" y="67.92" stroke="#988BAD" fill="#0000FF" class="color_Democratic"/>
          <use xlink:href="#img-48e636aa-21" x="167.43" y="75.53" stroke="#988BAD" fill="#0000FF" class="color_Democratic"/>
          <use xlink:href="#img-48e636aa-21" x="171.68" y="52.75" stroke="#988BAD" fill="#0000FF" class="color_Democratic"/>
          <use xlink:href="#img-48e636aa-21" x="175.92" y="34.81" stroke="#988BAD" fill="#0000FF" class="color_Democratic"/>
          <use xlink:href="#img-48e636aa-21" x="180.17" y="52.33" stroke="#988BAD" fill="#0000FF" class="color_Democratic"/>
          <use xlink:href="#img-48e636aa-21" x="184.41" y="70.25" stroke="#988BAD" fill="#0000FF" class="color_Democratic"/>
          <use xlink:href="#img-48e636aa-21" x="188.65" y="61.35" stroke="#988BAD" fill="#0000FF" class="color_Democratic"/>
          <use xlink:href="#img-48e636aa-21" x="192.9" y="69.36" stroke="#988BAD" fill="#0000FF" class="color_Democratic"/>
          <use xlink:href="#img-48e636aa-21" x="197.14" y="68.99" stroke="#988BAD" fill="#0000FF" class="color_Democratic"/>
          <use xlink:href="#img-48e636aa-21" x="201.39" y="61.07" stroke="#988BAD" fill="#0000FF" class="color_Democratic"/>
          <use xlink:href="#img-48e636aa-21" x="205.63" y="70.02" stroke="#988BAD" fill="#0000FF" class="color_Democratic"/>
          <use xlink:href="#img-48e636aa-21" x="209.87" y="56.83" stroke="#988BAD" fill="#0000FF" class="color_Democratic"/>
          <use xlink:href="#img-48e636aa-21" x="214.12" y="55.5" stroke="#988BAD" fill="#0000FF" class="color_Democratic"/>
          <use xlink:href="#img-48e636aa-21" x="218.36" y="57.13" stroke="#988BAD" fill="#0000FF" class="color_Democratic"/>
          <use xlink:href="#img-48e636aa-21" x="222.61" y="53.55" stroke="#988BAD" fill="#0000FF" class="color_Democratic"/>
          <use xlink:href="#img-48e636aa-21" x="226.85" y="53.72" stroke="#988BAD" fill="#0000FF" class="color_Democratic"/>
        </g>
      </g>
      <g stroke-width="0.3" fill="#000000" fill-opacity="0.000" stroke-dasharray="none" id="img-48e636aa-22">
        <path fill="none" d="M31.62,95.06 L 35.87 74.14 40.11 64.6 44.36 79.11 48.6 77.77 52.84 84.95 57.09 65.51 61.33 83.89 65.58 78.76 69.82 79.67 74.06 84.09 78.31 89.76 82.55 77.1 86.8 80.59 91.04 79.61 95.28 74.22 99.53 71.36 103.77 91.49 108.02 82.5 112.26 81.31 116.51 83.41 120.75 78.33 124.99 71.09 129.24 84.85 133.48 81.02 137.73 66.77 141.97 61.65 146.21 63.71 150.46 59.93 154.7 57.99 158.95 59.03 163.19 67.92 167.43 75.53 171.68 52.75 175.92 34.81 180.17 52.33 184.41 70.25 188.65 61.35 192.9 69.36 197.14 68.99 201.39 61.07 205.63 70.02 209.87 56.83 214.12 55.5 218.36 57.13 222.61 53.55 226.85 53.72" stroke="#0000FF" class="geometry color_Democratic"/>
        <path fill="none" d="M65.58,55.1 L 69.82 54.2 74.06 49.77 78.31 44.1 82.55 57.27 86.8 54.2 91.04 58.54 95.28 62.9 99.53 66.19 103.77 47.86 108.02 56.79 112.26 55.9 116.51 55.73 120.75 81.95 124.99 65.81 129.24 52.39 133.48 56.91 137.73 67.4 141.97 73.9 146.21 77.15 150.46 74.03 154.7 76.02 158.95 75.84 163.19 66.01 167.43 58.34 171.68 81.11 175.92 99.05 180.17 85.89 184.41 63.81 188.65 73.09 192.9 80.25 197.14 65.2 201.39 73.24 205.63 88.76 209.87 91.05 214.12 85.75 218.36 78.72 222.61 82.48 226.85 82.28" stroke="#FF0000" class="geometry color_Republican"/>
      </g>
    </g>
  </g>
</g>
  <g class="guide ylabels" font-size="4.76" font-family="'PT Sans Caption','Helvetica Neue','Helvetica',sans-serif" fill="#A1A1A1" id="img-48e636aa-23">
    <text x="24.38" y="118.95" text-anchor="end" dy="0.35em">0</text>
    <text x="24.38" y="92.94" text-anchor="end" dy="0.35em">25</text>
    <text x="24.38" y="66.93" text-anchor="end" dy="0.35em">50</text>
    <text x="24.38" y="40.92" text-anchor="end" dy="0.35em">75</text>
    <text x="24.38" y="14.91" text-anchor="end" dy="0.35em">100</text>
  </g>
  <g font-size="6.35" font-family="'PT Sans','Helvetica Neue','Helvetica',sans-serif" fill="#A1A1A1" stroke="#000000" stroke-opacity="0.000" id="img-48e636aa-24">
    <text x="9.95" y="64.93" text-anchor="middle" dy="0.35em" transform="rotate(-90, 9.95, 66.93)">Popular Vote (%)</text>
  </g>
  <g font-size="6.35" font-family="'PT Sans','Helvetica Neue','Helvetica',sans-serif" fill="#A1A1A1" stroke="#000000" stroke-opacity="0.000" id="img-48e636aa-25">
    <text x="129.24" y="5" text-anchor="middle" dy="0.6em">Rhode Island</text>
  </g>
</g>
<defs>
  <clipPath id="img-48e636aa-13">
  <path d="M25.38,12.91 L 233.1 12.91 233.1 120.95 25.38 120.95" />
</clipPath>
  <g id="img-48e636aa-21">
    <circle cx="0" cy="0" r="0.9"/>
  </g>
</defs>
</svg>
