<?xml version="1.0" encoding="UTF-8"?>
<svg xmlns="http://www.w3.org/2000/svg"
     xmlns:xlink="http://www.w3.org/1999/xlink"
     xmlns:gadfly="http://www.gadflyjl.org/ns"
     version="1.2"
     width="320mm" height="160mm" viewBox="0 0 320 160"
     stroke="none"
     fill="#000000"
     stroke-width="0.3"
     font-size="3.88"
>
<g class="plotroot xscalable yscalable" id="img-d4d4cb85-1">
  <g class="guide colorkey" id="img-d4d4cb85-2">
    <g class="color_Democratic" id="img-d4d4cb85-3">
      <g fill="#4C404B" font-size="4.76" font-family="'PT Sans','Helvetica Neue','Helvetica',sans-serif" id="img-d4d4cb85-4">
        <text x="57.56" y="150.05" dy="0.35em">Democratic</text>
      </g>
      <g fill="#0000FF" stroke="#000000" stroke-opacity="0.000" id="img-d4d4cb85-5">
        <rect x="53.84" y="148.69" width="2.72" height="2.72"/>
      </g>
    </g>
    <g class="color_Republican" id="img-d4d4cb85-6">
      <g fill="#4C404B" font-size="4.76" font-family="'PT Sans','Helvetica Neue','Helvetica',sans-serif" id="img-d4d4cb85-7">
        <text x="30.1" y="150.05" dy="0.35em">Republican</text>
      </g>
      <g fill="#FF0000" stroke="#000000" stroke-opacity="0.000" id="img-d4d4cb85-8">
        <rect x="26.38" y="148.69" width="2.72" height="2.72"/>
      </g>
    </g>
    <g fill="#362A35" font-size="6.35" font-family="'PT Sans','Helvetica Neue','Helvetica',sans-serif" stroke="#000000" stroke-opacity="0.000" id="img-d4d4cb85-9">
      <text x="26.38" y="145.57">Party</text>
    </g>
  </g>
  <g font-size="6.35" font-family="'PT Sans','Helvetica Neue','Helvetica',sans-serif" fill="#564A55" stroke="#000000" stroke-opacity="0.000" id="img-d4d4cb85-10">
    <text x="170.19" y="130.75" text-anchor="middle" dy="0.6em">Year</text>
  </g>
  <g class="guide xlabels" font-size="4.76" font-family="'PT Sans Caption','Helvetica Neue','Helvetica',sans-serif" fill="#6C606B" id="img-d4d4cb85-11">
    <text x="27.38" y="122.24" text-anchor="middle" dy="0.6em">1888</text>
    <text x="45.23" y="122.24" text-anchor="middle" dy="0.6em">1896</text>
    <text x="63.08" y="122.24" text-anchor="middle" dy="0.6em">1904</text>
    <text x="80.93" y="122.24" text-anchor="middle" dy="0.6em">1912</text>
    <text x="98.78" y="122.24" text-anchor="middle" dy="0.6em">1920</text>
    <text x="116.64" y="122.24" text-anchor="middle" dy="0.6em">1928</text>
    <text x="134.49" y="122.24" text-anchor="middle" dy="0.6em">1936</text>
    <text x="152.34" y="122.24" text-anchor="middle" dy="0.6em">1944</text>
    <text x="170.19" y="122.24" text-anchor="middle" dy="0.6em">1952</text>
    <text x="188.04" y="122.24" text-anchor="middle" dy="0.6em">1960</text>
    <text x="205.89" y="122.24" text-anchor="middle" dy="0.6em">1968</text>
    <text x="223.74" y="122.24" text-anchor="middle" dy="0.6em">1976</text>
    <text x="241.59" y="122.24" text-anchor="middle" dy="0.6em">1984</text>
    <text x="259.45" y="122.24" text-anchor="middle" dy="0.6em">1992</text>
    <text x="277.3" y="122.24" text-anchor="middle" dy="0.6em">2000</text>
    <text x="295.15" y="122.24" text-anchor="middle" dy="0.6em">2008</text>
    <text x="313" y="122.24" text-anchor="middle" dy="0.6em">2016</text>
  </g>
<g clip-path="url(#img-d4d4cb85-12)">
  <g id="img-d4d4cb85-13">
    <g pointer-events="visible" opacity="1" fill="#000000" fill-opacity="0.000" stroke="#000000" stroke-opacity="0.000" class="guide background" id="img-d4d4cb85-14">
      <rect x="25.38" y="14.91" width="289.62" height="106.33"/>
    </g>
    <g class="guide ygridlines xfixed" stroke-dasharray="0.5,0.5" stroke-width="0.26" stroke="#000000" id="img-d4d4cb85-15">
      <path fill="none" d="M25.38,119.24 L 315 119.24"/>
      <path fill="none" d="M25.38,93.66 L 315 93.66"/>
      <path fill="none" d="M25.38,68.07 L 315 68.07"/>
      <path fill="none" d="M25.38,42.49 L 315 42.49"/>
      <path fill="none" d="M25.38,16.91 L 315 16.91"/>
    </g>
    <g class="guide xgridlines yfixed" stroke-dasharray="0.5,0.5" stroke-width="0.26" stroke="#000000" id="img-d4d4cb85-16">
      <path fill="none" d="M27.38,14.91 L 27.38 121.24"/>
      <path fill="none" d="M45.23,14.91 L 45.23 121.24"/>
      <path fill="none" d="M63.08,14.91 L 63.08 121.24"/>
      <path fill="none" d="M80.93,14.91 L 80.93 121.24"/>
      <path fill="none" d="M98.78,14.91 L 98.78 121.24"/>
      <path fill="none" d="M116.64,14.91 L 116.64 121.24"/>
      <path fill="none" d="M134.49,14.91 L 134.49 121.24"/>
      <path fill="none" d="M152.34,14.91 L 152.34 121.24"/>
      <path fill="none" d="M170.19,14.91 L 170.19 121.24"/>
      <path fill="none" d="M188.04,14.91 L 188.04 121.24"/>
      <path fill="none" d="M205.89,14.91 L 205.89 121.24"/>
      <path fill="none" d="M223.74,14.91 L 223.74 121.24"/>
      <path fill="none" d="M241.59,14.91 L 241.59 121.24"/>
      <path fill="none" d="M259.45,14.91 L 259.45 121.24"/>
      <path fill="none" d="M277.3,14.91 L 277.3 121.24"/>
      <path fill="none" d="M295.15,14.91 L 295.15 121.24"/>
      <path fill="none" d="M313,14.91 L 313 121.24"/>
    </g>
    <g class="plotpanel" id="img-d4d4cb85-17">
      <g class="geometry" id="img-d4d4cb85-18">
        <g stroke-width="0.3" id="img-d4d4cb85-19">
          <use xlink:href="#img-d4d4cb85-20" x="36.31" y="68.61" class="color_Republican" fill="#FF0000" stroke="#FFFFFF"/>
          <use xlink:href="#img-d4d4cb85-20" x="45.23" y="68.61" class="color_Republican" fill="#FF0000" stroke="#FFFFFF"/>
          <use xlink:href="#img-d4d4cb85-20" x="54.16" y="61.19" class="color_Republican" fill="#FF0000" stroke="#FFFFFF"/>
          <use xlink:href="#img-d4d4cb85-20" x="63.08" y="46.49" class="color_Republican" fill="#FF0000" stroke="#FFFFFF"/>
          <use xlink:href="#img-d4d4cb85-20" x="72.01" y="59.03" class="color_Republican" fill="#FF0000" stroke="#FFFFFF"/>
          <use xlink:href="#img-d4d4cb85-20" x="80.93" y="119.24" class="color_Republican" fill="#FF0000" stroke="#FFFFFF"/>
          <use xlink:href="#img-d4d4cb85-20" x="89.86" y="68.28" class="color_Republican" fill="#FF0000" stroke="#FFFFFF"/>
          <use xlink:href="#img-d4d4cb85-20" x="98.78" y="57.08" class="color_Republican" fill="#FF0000" stroke="#FFFFFF"/>
          <use xlink:href="#img-d4d4cb85-20" x="107.71" y="68.39" class="color_Republican" fill="#FF0000" stroke="#FFFFFF"/>
          <use xlink:href="#img-d4d4cb85-20" x="116.64" y="57.65" class="color_Republican" fill="#FF0000" stroke="#FFFFFF"/>
          <use xlink:href="#img-d4d4cb85-20" x="125.56" y="84.04" class="color_Republican" fill="#FF0000" stroke="#FFFFFF"/>
          <use xlink:href="#img-d4d4cb85-20" x="134.49" y="75.75" class="color_Republican" fill="#FF0000" stroke="#FFFFFF"/>
          <use xlink:href="#img-d4d4cb85-20" x="143.41" y="60.49" class="color_Republican" fill="#FF0000" stroke="#FFFFFF"/>
          <use xlink:href="#img-d4d4cb85-20" x="152.34" y="59.55" class="color_Republican" fill="#FF0000" stroke="#FFFFFF"/>
          <use xlink:href="#img-d4d4cb85-20" x="161.26" y="66.19" class="color_Republican" fill="#FF0000" stroke="#FFFFFF"/>
          <use xlink:href="#img-d4d4cb85-20" x="170.19" y="48.35" class="color_Republican" fill="#FF0000" stroke="#FFFFFF"/>
          <use xlink:href="#img-d4d4cb85-20" x="179.12" y="59.49" class="color_Republican" fill="#FF0000" stroke="#FFFFFF"/>
          <use xlink:href="#img-d4d4cb85-20" x="188.04" y="59.67" class="color_Republican" fill="#FF0000" stroke="#FFFFFF"/>
          <use xlink:href="#img-d4d4cb85-20" x="196.97" y="73.82" class="color_Republican" fill="#FF0000" stroke="#FFFFFF"/>
          <use xlink:href="#img-d4d4cb85-20" x="205.89" y="64.72" class="color_Republican" fill="#FF0000" stroke="#FFFFFF"/>
          <use xlink:href="#img-d4d4cb85-20" x="214.82" y="63.82" class="color_Republican" fill="#FF0000" stroke="#FFFFFF"/>
          <use xlink:href="#img-d4d4cb85-20" x="223.74" y="67.68" class="color_Republican" fill="#FF0000" stroke="#FFFFFF"/>
          <use xlink:href="#img-d4d4cb85-20" x="232.67" y="57.3" class="color_Republican" fill="#FF0000" stroke="#FFFFFF"/>
          <use xlink:href="#img-d4d4cb85-20" x="241.59" y="54.77" class="color_Republican" fill="#FF0000" stroke="#FFFFFF"/>
          <use xlink:href="#img-d4d4cb85-20" x="250.52" y="65.16" class="color_Republican" fill="#FF0000" stroke="#FFFFFF"/>
          <use xlink:href="#img-d4d4cb85-20" x="259.45" y="77.63" class="color_Republican" fill="#FF0000" stroke="#FFFFFF"/>
          <use xlink:href="#img-d4d4cb85-20" x="268.37" y="71.67" class="color_Republican" fill="#FF0000" stroke="#FFFFFF"/>
          <use xlink:href="#img-d4d4cb85-20" x="277.3" y="57.54" class="color_Republican" fill="#FF0000" stroke="#FFFFFF"/>
          <use xlink:href="#img-d4d4cb85-20" x="286.22" y="57.93" class="color_Republican" fill="#FF0000" stroke="#FFFFFF"/>
          <use xlink:href="#img-d4d4cb85-20" x="295.15" y="64.84" class="color_Republican" fill="#FF0000" stroke="#FFFFFF"/>
          <use xlink:href="#img-d4d4cb85-20" x="304.07" y="60" class="color_Republican" fill="#FF0000" stroke="#FFFFFF"/>
          <use xlink:href="#img-d4d4cb85-20" x="36.31" y="106.06" class="color_Democratic" fill="#0000FF" stroke="#FFFFFF"/>
          <use xlink:href="#img-d4d4cb85-20" x="45.23" y="68.38" class="color_Democratic" fill="#0000FF" stroke="#FFFFFF"/>
          <use xlink:href="#img-d4d4cb85-20" x="54.16" y="77.14" class="color_Democratic" fill="#0000FF" stroke="#FFFFFF"/>
          <use xlink:href="#img-d4d4cb85-20" x="63.08" y="97.07" class="color_Democratic" fill="#0000FF" stroke="#FFFFFF"/>
          <use xlink:href="#img-d4d4cb85-20" x="72.01" y="83.34" class="color_Democratic" fill="#0000FF" stroke="#FFFFFF"/>
          <use xlink:href="#img-d4d4cb85-20" x="80.93" y="76.19" class="color_Democratic" fill="#0000FF" stroke="#FFFFFF"/>
          <use xlink:href="#img-d4d4cb85-20" x="89.86" y="72.26" class="color_Democratic" fill="#0000FF" stroke="#FFFFFF"/>
          <use xlink:href="#img-d4d4cb85-20" x="98.78" y="99.06" class="color_Democratic" fill="#0000FF" stroke="#FFFFFF"/>
          <use xlink:href="#img-d4d4cb85-20" x="107.71" y="105.58" class="color_Democratic" fill="#0000FF" stroke="#FFFFFF"/>
          <use xlink:href="#img-d4d4cb85-20" x="116.64" y="79.12" class="color_Democratic" fill="#0000FF" stroke="#FFFFFF"/>
          <use xlink:href="#img-d4d4cb85-20" x="125.56" y="54.13" class="color_Democratic" fill="#0000FF" stroke="#FFFFFF"/>
          <use xlink:href="#img-d4d4cb85-20" x="134.49" y="63.96" class="color_Democratic" fill="#0000FF" stroke="#FFFFFF"/>
          <use xlink:href="#img-d4d4cb85-20" x="143.41" y="75.66" class="color_Democratic" fill="#0000FF" stroke="#FFFFFF"/>
          <use xlink:href="#img-d4d4cb85-20" x="152.34" y="76.6" class="color_Democratic" fill="#0000FF" stroke="#FFFFFF"/>
          <use xlink:href="#img-d4d4cb85-20" x="161.26" y="71.1" class="color_Democratic" fill="#0000FF" stroke="#FFFFFF"/>
          <use xlink:href="#img-d4d4cb85-20" x="170.19" y="87.8" class="color_Democratic" fill="#0000FF" stroke="#FFFFFF"/>
          <use xlink:href="#img-d4d4cb85-20" x="179.12" y="76.65" class="color_Democratic" fill="#0000FF" stroke="#FFFFFF"/>
          <use xlink:href="#img-d4d4cb85-20" x="188.04" y="76.48" class="color_Democratic" fill="#0000FF" stroke="#FFFFFF"/>
          <use xlink:href="#img-d4d4cb85-20" x="196.97" y="62.33" class="color_Democratic" fill="#0000FF" stroke="#FFFFFF"/>
          <use xlink:href="#img-d4d4cb85-20" x="205.89" y="76.3" class="color_Democratic" fill="#0000FF" stroke="#FFFFFF"/>
          <use xlink:href="#img-d4d4cb85-20" x="214.82" y="72.66" class="color_Democratic" fill="#0000FF" stroke="#FFFFFF"/>
          <use xlink:href="#img-d4d4cb85-20" x="223.74" y="69.19" class="color_Democratic" fill="#0000FF" stroke="#FFFFFF"/>
          <use xlink:href="#img-d4d4cb85-20" x="232.67" y="86.81" class="color_Democratic" fill="#0000FF" stroke="#FFFFFF"/>
          <use xlink:href="#img-d4d4cb85-20" x="241.59" y="81.86" class="color_Democratic" fill="#0000FF" stroke="#FFFFFF"/>
          <use xlink:href="#img-d4d4cb85-20" x="250.52" y="71.65" class="color_Democratic" fill="#0000FF" stroke="#FFFFFF"/>
          <use xlink:href="#img-d4d4cb85-20" x="259.45" y="81.23" class="color_Democratic" fill="#0000FF" stroke="#FFFFFF"/>
          <use xlink:href="#img-d4d4cb85-20" x="268.37" y="75.21" class="color_Democratic" fill="#0000FF" stroke="#FFFFFF"/>
          <use xlink:href="#img-d4d4cb85-20" x="277.3" y="80.8" class="color_Democratic" fill="#0000FF" stroke="#FFFFFF"/>
          <use xlink:href="#img-d4d4cb85-20" x="286.22" y="79.9" class="color_Democratic" fill="#0000FF" stroke="#FFFFFF"/>
          <use xlink:href="#img-d4d4cb85-20" x="295.15" y="73.45" class="color_Democratic" fill="#0000FF" stroke="#FFFFFF"/>
          <use xlink:href="#img-d4d4cb85-20" x="304.07" y="78.44" class="color_Democratic" fill="#0000FF" stroke="#FFFFFF"/>
        </g>
      </g>
      <g stroke-width="0.53" fill="#000000" fill-opacity="0.000" stroke-dasharray="none" id="img-d4d4cb85-21">
        <path fill="none" d="M36.31,106.06 L 45.23 68.38 54.16 77.14 63.08 97.07 72.01 83.34 80.93 76.19 89.86 72.26 98.78 99.06 107.71 105.58 116.64 79.12 125.56 54.13 134.49 63.96 143.41 75.66 152.34 76.6 161.26 71.1 170.19 87.8 179.12 76.65 188.04 76.48 196.97 62.33 205.89 76.3 214.82 72.66 223.74 69.19 232.67 86.81 241.59 81.86 250.52 71.65 259.45 81.23 268.37 75.21 277.3 80.8 286.22 79.9 295.15 73.45 304.07 78.44" class="geometry color_Democratic" stroke="#0000FF"/>
        <path fill="none" d="M36.31,68.61 L 45.23 68.61 54.16 61.19 63.08 46.49 72.01 59.03 80.93 119.24 89.86 68.28 98.78 57.08 107.71 68.39 116.64 57.65 125.56 84.04 134.49 75.75 143.41 60.49 152.34 59.55 161.26 66.19 170.19 48.35 179.12 59.49 188.04 59.67 196.97 73.82 205.89 64.72 214.82 63.82 223.74 67.68 232.67 57.3 241.59 54.77 250.52 65.16 259.45 77.63 268.37 71.67 277.3 57.54 286.22 57.93 295.15 64.84 304.07 60" class="geometry color_Republican" stroke="#FF0000"/>
      </g>
    </g>
  </g>
</g>
  <g class="guide ylabels" font-size="4.76" font-family="'PT Sans Caption','Helvetica Neue','Helvetica',sans-serif" fill="#6C606B" id="img-d4d4cb85-22">
    <text x="24.38" y="119.24" text-anchor="end" dy="0.35em">0</text>
    <text x="24.38" y="93.66" text-anchor="end" dy="0.35em">25</text>
    <text x="24.38" y="68.07" text-anchor="end" dy="0.35em">50</text>
    <text x="24.38" y="42.49" text-anchor="end" dy="0.35em">75</text>
    <text x="24.38" y="16.91" text-anchor="end" dy="0.35em">100</text>
  </g>
  <g font-size="6.35" font-family="'PT Sans','Helvetica Neue','Helvetica',sans-serif" fill="#564A55" stroke="#000000" stroke-opacity="0.000" id="img-d4d4cb85-23">
    <text x="9.95" y="66.07" text-anchor="middle" dy="0.35em" transform="rotate(-90, 9.95, 68.07)">Popular Vote (%)</text>
  </g>
  <g font-size="6.35" font-family="'PT Sans','Helvetica Neue','Helvetica',sans-serif" fill="#564A55" stroke="#000000" stroke-opacity="0.000" id="img-d4d4cb85-24">
    <text x="170.19" y="12.91" text-anchor="middle">South Dakota</text>
  </g>
</g>
<defs>
  <clipPath id="img-d4d4cb85-12">
  <path d="M25.38,14.91 L 315 14.91 315 121.24 25.38 121.24" />
</clipPath>
  <g id="img-d4d4cb85-20">
    <circle cx="0" cy="0" r="0.9"/>
  </g>
</defs>
</svg>
