<svg xmlns="http://www.w3.org/2000/svg" xmlns:xlink="http://www.w3.org/1999/xlink" version="1.2" width="238.1mm" height="599.924" viewBox="0 0 238.1 158.73" stroke-width=".3" font-size="3.88"><path d="M0 0h238.1v158.73H0z" stroke="#000" stroke-opacity="0" fill="#222831"/><g class="plotroot xscalable yscalable"><g class="guide colorkey"><g class="color_Democratic"><text x="51.52" y="148.78" dy=".35em" fill="#A1A1A1" font-size="3.7" font-family="'PT Sans','Helvetica Neue','Helvetica',sans-serif">Democratic</text><path d="M48.29 147.66h2.22v2.22h-2.22z" fill="#00F" stroke="#000" stroke-opacity="0"/></g><g class="color_Republican"><text x="29.6" y="148.78" dy=".35em" fill="#A1A1A1" font-size="3.7" font-family="'PT Sans','Helvetica Neue','Helvetica',sans-serif">Republican</text><path d="M26.38 147.66h2.22v2.22h-2.22z" fill="#F00" stroke="#000" stroke-opacity="0"/></g><text x="26.38" y="145.28" fill="#A1A1A1" font-size="6.35" font-family="'PT Sans','Helvetica Neue','Helvetica',sans-serif" stroke="#000" stroke-opacity="0">Party</text></g><text x="129.24" y="130.46" text-anchor="middle" dy=".6em" font-size="6.35" font-family="'PT Sans','Helvetica Neue','Helvetica',sans-serif" fill="#A1A1A1" stroke="#000" stroke-opacity="0">Year</text><g class="guide xlabels" font-size="4.76" font-family="'PT Sans Caption','Helvetica Neue','Helvetica',sans-serif" fill="#A1A1A1" text-anchor="middle"><text x="27.38" y="121.95" dy=".6em">1888</text><text x="40.11" y="121.95" dy=".6em">1896</text><text x="52.84" y="121.95" dy=".6em">1904</text><text x="65.58" y="121.95" dy=".6em">1912</text><text x="78.31" y="121.95" dy=".6em">1920</text><text x="91.04" y="121.95" dy=".6em">1928</text><text x="103.77" y="121.95" dy=".6em">1936</text><text x="116.51" y="121.95" dy=".6em">1944</text><text x="129.24" y="121.95" dy=".6em">1952</text><text x="141.97" y="121.95" dy=".6em">1960</text><text x="154.7" y="121.95" dy=".6em">1968</text><text x="167.43" y="121.95" dy=".6em">1976</text><text x="180.17" y="121.95" dy=".6em">1984</text><text x="192.9" y="121.95" dy=".6em">1992</text><text x="205.63" y="121.95" dy=".6em">2000</text><text x="218.36" y="121.95" dy=".6em">2008</text><text x="231.1" y="121.95" dy=".6em">2016</text></g><g clip-path="url(#a)"><path d="M25.38 12.91H233.1v108.04H25.38z" pointer-events="visible" fill="#222831" stroke="#000" stroke-opacity="0" class="guide background"/><g class="guide ygridlines xfixed" stroke-dasharray="0.5,0.5" stroke-width=".2" stroke="#575757" fill="none"><path d="M25.38 118.95H233.1M25.38 92.94H233.1M25.38 66.93H233.1M25.38 40.92H233.1M25.38 14.91H233.1"/></g><g class="guide xgridlines yfixed" stroke-dasharray="0.5,0.5" stroke-width=".2" stroke="#575757" fill="none"><path d="M27.38 12.91v108.04M40.11 12.91v108.04M52.84 12.91v108.04M65.58 12.91v108.04M78.31 12.91v108.04M91.04 12.91v108.04M103.77 12.91v108.04M116.51 12.91v108.04M129.24 12.91v108.04M141.97 12.91v108.04M154.7 12.91v108.04M167.43 12.91v108.04M180.17 12.91v108.04M192.9 12.91v108.04M205.63 12.91v108.04M218.36 12.91v108.04M231.1 12.91v108.04"/></g><g class="plotpanel"><g class="geometry"><use xlink:href="#b" x="33.75" y="67.48" stroke="#B3867B" fill="#F00" class="color_Republican"/><use xlink:href="#b" x="40.11" y="67.47" stroke="#B3867B" fill="#F00" class="color_Republican"/><use xlink:href="#b" x="46.48" y="59.93" stroke="#B3867B" fill="#F00" class="color_Republican"/><use xlink:href="#b" x="52.84" y="44.99" stroke="#B3867B" fill="#F00" class="color_Republican"/><use xlink:href="#b" x="59.21" y="57.73" stroke="#B3867B" fill="#F00" class="color_Republican"/><use xlink:href="#b" x="65.58" y="118.95" stroke="#B3867B" fill="#F00" class="color_Republican"/><use xlink:href="#b" x="71.94" y="67.14" stroke="#B3867B" fill="#F00" class="color_Republican"/><use xlink:href="#b" x="78.31" y="55.76" stroke="#B3867B" fill="#F00" class="color_Republican"/><use xlink:href="#b" x="84.67" y="67.26" stroke="#B3867B" fill="#F00" class="color_Republican"/><use xlink:href="#b" x="91.04" y="56.33" stroke="#B3867B" fill="#F00" class="color_Republican"/><use xlink:href="#b" x="97.41" y="83.17" stroke="#B3867B" fill="#F00" class="color_Republican"/><use xlink:href="#b" x="103.77" y="74.74" stroke="#B3867B" fill="#F00" class="color_Republican"/><use xlink:href="#b" x="110.14" y="59.22" stroke="#B3867B" fill="#F00" class="color_Republican"/><use xlink:href="#b" x="116.51" y="58.27" stroke="#B3867B" fill="#F00" class="color_Republican"/><use xlink:href="#b" x="122.87" y="65.02" stroke="#B3867B" fill="#F00" class="color_Republican"/><use xlink:href="#b" x="129.24" y="46.88" stroke="#B3867B" fill="#F00" class="color_Republican"/><use xlink:href="#b" x="135.6" y="58.21" stroke="#B3867B" fill="#F00" class="color_Republican"/><use xlink:href="#b" x="141.97" y="58.39" stroke="#B3867B" fill="#F00" class="color_Republican"/><use xlink:href="#b" x="148.34" y="72.77" stroke="#B3867B" fill="#F00" class="color_Republican"/><use xlink:href="#b" x="154.7" y="63.52" stroke="#B3867B" fill="#F00" class="color_Republican"/><use xlink:href="#b" x="161.07" y="62.61" stroke="#B3867B" fill="#F00" class="color_Republican"/><use xlink:href="#b" x="167.43" y="66.53" stroke="#B3867B" fill="#F00" class="color_Republican"/><use xlink:href="#b" x="173.8" y="55.98" stroke="#B3867B" fill="#F00" class="color_Republican"/><use xlink:href="#b" x="180.17" y="53.4" stroke="#B3867B" fill="#F00" class="color_Republican"/><use xlink:href="#b" x="186.53" y="63.97" stroke="#B3867B" fill="#F00" class="color_Republican"/><use xlink:href="#b" x="192.9" y="76.65" stroke="#B3867B" fill="#F00" class="color_Republican"/><use xlink:href="#b" x="199.26" y="70.58" stroke="#B3867B" fill="#F00" class="color_Republican"/><use xlink:href="#b" x="205.63" y="56.22" stroke="#B3867B" fill="#F00" class="color_Republican"/><use xlink:href="#b" x="212" y="56.62" stroke="#B3867B" fill="#F00" class="color_Republican"/><use xlink:href="#b" x="218.36" y="63.64" stroke="#B3867B" fill="#F00" class="color_Republican"/><use xlink:href="#b" x="224.73" y="58.72" stroke="#B3867B" fill="#F00" class="color_Republican"/><use xlink:href="#b" x="33.75" y="105.55" stroke="#988BAD" fill="#00F" class="color_Democratic"/><use xlink:href="#b" x="40.11" y="67.25" stroke="#988BAD" fill="#00F" class="color_Democratic"/><use xlink:href="#b" x="46.48" y="76.15" stroke="#988BAD" fill="#00F" class="color_Democratic"/><use xlink:href="#b" x="52.84" y="96.41" stroke="#988BAD" fill="#00F" class="color_Democratic"/><use xlink:href="#b" x="59.21" y="82.45" stroke="#988BAD" fill="#00F" class="color_Democratic"/><use xlink:href="#b" x="65.58" y="75.18" stroke="#988BAD" fill="#00F" class="color_Democratic"/><use xlink:href="#b" x="71.94" y="71.19" stroke="#988BAD" fill="#00F" class="color_Democratic"/><use xlink:href="#b" x="78.31" y="98.44" stroke="#988BAD" fill="#00F" class="color_Democratic"/><use xlink:href="#b" x="84.67" y="105.07" stroke="#988BAD" fill="#00F" class="color_Democratic"/><use xlink:href="#b" x="91.04" y="78.16" stroke="#988BAD" fill="#00F" class="color_Democratic"/><use xlink:href="#b" x="97.41" y="52.76" stroke="#988BAD" fill="#00F" class="color_Democratic"/><use xlink:href="#b" x="103.77" y="62.75" stroke="#988BAD" fill="#00F" class="color_Democratic"/><use xlink:href="#b" x="110.14" y="74.64" stroke="#988BAD" fill="#00F" class="color_Democratic"/><use xlink:href="#b" x="116.51" y="75.6" stroke="#988BAD" fill="#00F" class="color_Democratic"/><use xlink:href="#b" x="122.87" y="70.01" stroke="#988BAD" fill="#00F" class="color_Democratic"/><use xlink:href="#b" x="129.24" y="86.98" stroke="#988BAD" fill="#00F" class="color_Democratic"/><use xlink:href="#b" x="135.6" y="75.66" stroke="#988BAD" fill="#00F" class="color_Democratic"/><use xlink:href="#b" x="141.97" y="75.48" stroke="#988BAD" fill="#00F" class="color_Democratic"/><use xlink:href="#b" x="148.34" y="61.09" stroke="#988BAD" fill="#00F" class="color_Democratic"/><use xlink:href="#b" x="154.7" y="75.3" stroke="#988BAD" fill="#00F" class="color_Democratic"/><use xlink:href="#b" x="161.07" y="71.59" stroke="#988BAD" fill="#00F" class="color_Democratic"/><use xlink:href="#b" x="167.43" y="68.06" stroke="#988BAD" fill="#00F" class="color_Democratic"/><use xlink:href="#b" x="173.8" y="85.98" stroke="#988BAD" fill="#00F" class="color_Democratic"/><use xlink:href="#b" x="180.17" y="80.95" stroke="#988BAD" fill="#00F" class="color_Democratic"/><use xlink:href="#b" x="186.53" y="70.57" stroke="#988BAD" fill="#00F" class="color_Democratic"/><use xlink:href="#b" x="192.9" y="80.31" stroke="#988BAD" fill="#00F" class="color_Democratic"/><use xlink:href="#b" x="199.26" y="74.19" stroke="#988BAD" fill="#00F" class="color_Democratic"/><use xlink:href="#b" x="205.63" y="79.87" stroke="#988BAD" fill="#00F" class="color_Democratic"/><use xlink:href="#b" x="212" y="78.96" stroke="#988BAD" fill="#00F" class="color_Democratic"/><use xlink:href="#b" x="218.36" y="72.4" stroke="#988BAD" fill="#00F" class="color_Democratic"/><use xlink:href="#b" x="224.73" y="77.48" stroke="#988BAD" fill="#00F" class="color_Democratic"/></g><g fill-opacity="0"><path fill="none" d="M33.75 105.55l6.36-38.3 6.37 8.9 6.36 20.26 6.37-13.96 6.37-7.27 6.36-3.99 6.37 27.25 6.36 6.63 6.37-26.91 6.37-25.4 6.36 9.99 6.37 11.89 6.37.96 6.36-5.59 6.37 16.97 6.36-11.32 6.37-.18 6.37-14.39 6.36 14.21 6.37-3.71 6.36-3.53 6.37 17.92 6.37-5.03 6.36-10.38 6.37 9.74 6.36-6.12 6.37 5.68 6.37-.91 6.36-6.56 6.37 5.08" stroke="#00F" class="geometry color_Democratic"/><path fill="none" d="M33.75 67.48l6.36-.01 6.37-7.54 6.36-14.94 6.37 12.74 6.37 61.22 6.36-51.81 6.37-11.38 6.36 11.5 6.37-10.93 6.37 26.84 6.36-8.43 6.37-15.52 6.37-.95 6.36 6.75 6.37-18.14 6.36 11.33 6.37.18 6.37 14.38 6.36-9.25 6.37-.91 6.36 3.92 6.37-10.55 6.37-2.58 6.36 10.57 6.37 12.68 6.36-6.07 6.37-14.36 6.37.4 6.36 7.02 6.37-4.92" stroke="#F00" class="geometry color_Republican"/></g></g></g><g class="guide ylabels" font-size="4.76" font-family="'PT Sans Caption','Helvetica Neue','Helvetica',sans-serif" fill="#A1A1A1" text-anchor="end"><text x="24.38" y="118.95" dy=".35em">0</text><text x="24.38" y="92.94" dy=".35em">25</text><text x="24.38" y="66.93" dy=".35em">50</text><text x="24.38" y="40.92" dy=".35em">75</text><text x="24.38" y="14.91" dy=".35em">100</text></g><text x="9.95" y="64.93" text-anchor="middle" dy=".35em" transform="rotate(-90 9.95 66.93)" font-size="6.35" font-family="'PT Sans','Helvetica Neue','Helvetica',sans-serif" fill="#A1A1A1" stroke="#000" stroke-opacity="0">Popular Vote (%)</text><text x="129.24" y="5" text-anchor="middle" dy=".6em" font-size="6.35" font-family="'PT Sans','Helvetica Neue','Helvetica',sans-serif" fill="#A1A1A1" stroke="#000" stroke-opacity="0">South Dakota</text></g><defs><clipPath id="a"><path d="M25.38 12.91H233.1v108.04H25.38"/></clipPath><circle r=".9" id="b"/></defs></svg>