<?xml version="1.0" encoding="UTF-8"?>
<svg xmlns="http://www.w3.org/2000/svg"
     xmlns:xlink="http://www.w3.org/1999/xlink"
     xmlns:gadfly="http://www.gadflyjl.org/ns"
     version="1.2"
     width="238.1mm" height="158.73mm" viewBox="0 0 238.1 158.73"
     stroke="none"
     fill="#000000"
     stroke-width="0.3"
     font-size="3.88"
>
<g stroke="#000000" stroke-opacity="0.000" fill="#222831" id="img-b771051c-1">
  <rect x="0" y="0" width="238.1" height="158.73"/>
</g>
<g class="plotroot xscalable yscalable" id="img-b771051c-2">
  <g class="guide colorkey" id="img-b771051c-3">
    <g class="color_Democratic" id="img-b771051c-4">
      <g fill="#A1A1A1" font-size="3.7" font-family="'PT Sans','Helvetica Neue','Helvetica',sans-serif" id="img-b771051c-5">
        <text x="51.52" y="148.78" dy="0.35em">Democratic</text>
      </g>
      <g fill="#0000FF" stroke="#000000" stroke-opacity="0.000" id="img-b771051c-6">
        <rect x="48.29" y="147.66" width="2.22" height="2.22"/>
      </g>
    </g>
    <g class="color_Republican" id="img-b771051c-7">
      <g fill="#A1A1A1" font-size="3.7" font-family="'PT Sans','Helvetica Neue','Helvetica',sans-serif" id="img-b771051c-8">
        <text x="29.6" y="148.78" dy="0.35em">Republican</text>
      </g>
      <g fill="#FF0000" stroke="#000000" stroke-opacity="0.000" id="img-b771051c-9">
        <rect x="26.38" y="147.66" width="2.22" height="2.22"/>
      </g>
    </g>
    <g fill="#A1A1A1" font-size="6.35" font-family="'PT Sans','Helvetica Neue','Helvetica',sans-serif" stroke="#000000" stroke-opacity="0.000" id="img-b771051c-10">
      <text x="26.38" y="145.28">Party</text>
    </g>
  </g>
  <g font-size="6.35" font-family="'PT Sans','Helvetica Neue','Helvetica',sans-serif" fill="#A1A1A1" stroke="#000000" stroke-opacity="0.000" id="img-b771051c-11">
    <text x="129.24" y="130.46" text-anchor="middle" dy="0.6em">Year</text>
  </g>
  <g class="guide xlabels" font-size="4.76" font-family="'PT Sans Caption','Helvetica Neue','Helvetica',sans-serif" fill="#A1A1A1" id="img-b771051c-12">
    <text x="27.38" y="121.95" text-anchor="middle" dy="0.6em">1888</text>
    <text x="40.11" y="121.95" text-anchor="middle" dy="0.6em">1896</text>
    <text x="52.84" y="121.95" text-anchor="middle" dy="0.6em">1904</text>
    <text x="65.58" y="121.95" text-anchor="middle" dy="0.6em">1912</text>
    <text x="78.31" y="121.95" text-anchor="middle" dy="0.6em">1920</text>
    <text x="91.04" y="121.95" text-anchor="middle" dy="0.6em">1928</text>
    <text x="103.77" y="121.95" text-anchor="middle" dy="0.6em">1936</text>
    <text x="116.51" y="121.95" text-anchor="middle" dy="0.6em">1944</text>
    <text x="129.24" y="121.95" text-anchor="middle" dy="0.6em">1952</text>
    <text x="141.97" y="121.95" text-anchor="middle" dy="0.6em">1960</text>
    <text x="154.7" y="121.95" text-anchor="middle" dy="0.6em">1968</text>
    <text x="167.43" y="121.95" text-anchor="middle" dy="0.6em">1976</text>
    <text x="180.17" y="121.95" text-anchor="middle" dy="0.6em">1984</text>
    <text x="192.9" y="121.95" text-anchor="middle" dy="0.6em">1992</text>
    <text x="205.63" y="121.95" text-anchor="middle" dy="0.6em">2000</text>
    <text x="218.36" y="121.95" text-anchor="middle" dy="0.6em">2008</text>
    <text x="231.1" y="121.95" text-anchor="middle" dy="0.6em">2016</text>
  </g>
<g clip-path="url(#img-b771051c-13)">
  <g id="img-b771051c-14">
    <g pointer-events="visible" opacity="1" fill="#222831" stroke="#000000" stroke-opacity="0.000" class="guide background" id="img-b771051c-15">
      <rect x="25.38" y="12.91" width="207.72" height="108.04"/>
    </g>
    <g class="guide ygridlines xfixed" stroke-dasharray="0.5,0.5" stroke-width="0.2" stroke="#575757" id="img-b771051c-16">
      <path fill="none" d="M25.38,118.95 L 233.1 118.95"/>
      <path fill="none" d="M25.38,92.94 L 233.1 92.94"/>
      <path fill="none" d="M25.38,66.93 L 233.1 66.93"/>
      <path fill="none" d="M25.38,40.92 L 233.1 40.92"/>
      <path fill="none" d="M25.38,14.91 L 233.1 14.91"/>
    </g>
    <g class="guide xgridlines yfixed" stroke-dasharray="0.5,0.5" stroke-width="0.2" stroke="#575757" id="img-b771051c-17">
      <path fill="none" d="M27.38,12.91 L 27.38 120.95"/>
      <path fill="none" d="M40.11,12.91 L 40.11 120.95"/>
      <path fill="none" d="M52.84,12.91 L 52.84 120.95"/>
      <path fill="none" d="M65.58,12.91 L 65.58 120.95"/>
      <path fill="none" d="M78.31,12.91 L 78.31 120.95"/>
      <path fill="none" d="M91.04,12.91 L 91.04 120.95"/>
      <path fill="none" d="M103.77,12.91 L 103.77 120.95"/>
      <path fill="none" d="M116.51,12.91 L 116.51 120.95"/>
      <path fill="none" d="M129.24,12.91 L 129.24 120.95"/>
      <path fill="none" d="M141.97,12.91 L 141.97 120.95"/>
      <path fill="none" d="M154.7,12.91 L 154.7 120.95"/>
      <path fill="none" d="M167.43,12.91 L 167.43 120.95"/>
      <path fill="none" d="M180.17,12.91 L 180.17 120.95"/>
      <path fill="none" d="M192.9,12.91 L 192.9 120.95"/>
      <path fill="none" d="M205.63,12.91 L 205.63 120.95"/>
      <path fill="none" d="M218.36,12.91 L 218.36 120.95"/>
      <path fill="none" d="M231.1,12.91 L 231.1 120.95"/>
    </g>
    <g class="plotpanel" id="img-b771051c-18">
      <g class="geometry" id="img-b771051c-19">
        <g stroke-width="0.3" id="img-b771051c-20">
          <use xlink:href="#img-b771051c-21" x="33.75" y="67.48" stroke="#B3867B" fill="#FF0000" class="color_Republican"/>
          <use xlink:href="#img-b771051c-21" x="40.11" y="67.47" stroke="#B3867B" fill="#FF0000" class="color_Republican"/>
          <use xlink:href="#img-b771051c-21" x="46.48" y="59.93" stroke="#B3867B" fill="#FF0000" class="color_Republican"/>
          <use xlink:href="#img-b771051c-21" x="52.84" y="44.99" stroke="#B3867B" fill="#FF0000" class="color_Republican"/>
          <use xlink:href="#img-b771051c-21" x="59.21" y="57.73" stroke="#B3867B" fill="#FF0000" class="color_Republican"/>
          <use xlink:href="#img-b771051c-21" x="65.58" y="118.95" stroke="#B3867B" fill="#FF0000" class="color_Republican"/>
          <use xlink:href="#img-b771051c-21" x="71.94" y="67.14" stroke="#B3867B" fill="#FF0000" class="color_Republican"/>
          <use xlink:href="#img-b771051c-21" x="78.31" y="55.76" stroke="#B3867B" fill="#FF0000" class="color_Republican"/>
          <use xlink:href="#img-b771051c-21" x="84.67" y="67.26" stroke="#B3867B" fill="#FF0000" class="color_Republican"/>
          <use xlink:href="#img-b771051c-21" x="91.04" y="56.33" stroke="#B3867B" fill="#FF0000" class="color_Republican"/>
          <use xlink:href="#img-b771051c-21" x="97.41" y="83.17" stroke="#B3867B" fill="#FF0000" class="color_Republican"/>
          <use xlink:href="#img-b771051c-21" x="103.77" y="74.74" stroke="#B3867B" fill="#FF0000" class="color_Republican"/>
          <use xlink:href="#img-b771051c-21" x="110.14" y="59.22" stroke="#B3867B" fill="#FF0000" class="color_Republican"/>
          <use xlink:href="#img-b771051c-21" x="116.51" y="58.27" stroke="#B3867B" fill="#FF0000" class="color_Republican"/>
          <use xlink:href="#img-b771051c-21" x="122.87" y="65.02" stroke="#B3867B" fill="#FF0000" class="color_Republican"/>
          <use xlink:href="#img-b771051c-21" x="129.24" y="46.88" stroke="#B3867B" fill="#FF0000" class="color_Republican"/>
          <use xlink:href="#img-b771051c-21" x="135.6" y="58.21" stroke="#B3867B" fill="#FF0000" class="color_Republican"/>
          <use xlink:href="#img-b771051c-21" x="141.97" y="58.39" stroke="#B3867B" fill="#FF0000" class="color_Republican"/>
          <use xlink:href="#img-b771051c-21" x="148.34" y="72.77" stroke="#B3867B" fill="#FF0000" class="color_Republican"/>
          <use xlink:href="#img-b771051c-21" x="154.7" y="63.52" stroke="#B3867B" fill="#FF0000" class="color_Republican"/>
          <use xlink:href="#img-b771051c-21" x="161.07" y="62.61" stroke="#B3867B" fill="#FF0000" class="color_Republican"/>
          <use xlink:href="#img-b771051c-21" x="167.43" y="66.53" stroke="#B3867B" fill="#FF0000" class="color_Republican"/>
          <use xlink:href="#img-b771051c-21" x="173.8" y="55.98" stroke="#B3867B" fill="#FF0000" class="color_Republican"/>
          <use xlink:href="#img-b771051c-21" x="180.17" y="53.4" stroke="#B3867B" fill="#FF0000" class="color_Republican"/>
          <use xlink:href="#img-b771051c-21" x="186.53" y="63.97" stroke="#B3867B" fill="#FF0000" class="color_Republican"/>
          <use xlink:href="#img-b771051c-21" x="192.9" y="76.65" stroke="#B3867B" fill="#FF0000" class="color_Republican"/>
          <use xlink:href="#img-b771051c-21" x="199.26" y="70.58" stroke="#B3867B" fill="#FF0000" class="color_Republican"/>
          <use xlink:href="#img-b771051c-21" x="205.63" y="56.22" stroke="#B3867B" fill="#FF0000" class="color_Republican"/>
          <use xlink:href="#img-b771051c-21" x="212" y="56.62" stroke="#B3867B" fill="#FF0000" class="color_Republican"/>
          <use xlink:href="#img-b771051c-21" x="218.36" y="63.64" stroke="#B3867B" fill="#FF0000" class="color_Republican"/>
          <use xlink:href="#img-b771051c-21" x="224.73" y="58.72" stroke="#B3867B" fill="#FF0000" class="color_Republican"/>
          <use xlink:href="#img-b771051c-21" x="33.75" y="105.55" stroke="#988BAD" fill="#0000FF" class="color_Democratic"/>
          <use xlink:href="#img-b771051c-21" x="40.11" y="67.25" stroke="#988BAD" fill="#0000FF" class="color_Democratic"/>
          <use xlink:href="#img-b771051c-21" x="46.48" y="76.15" stroke="#988BAD" fill="#0000FF" class="color_Democratic"/>
          <use xlink:href="#img-b771051c-21" x="52.84" y="96.41" stroke="#988BAD" fill="#0000FF" class="color_Democratic"/>
          <use xlink:href="#img-b771051c-21" x="59.21" y="82.45" stroke="#988BAD" fill="#0000FF" class="color_Democratic"/>
          <use xlink:href="#img-b771051c-21" x="65.58" y="75.18" stroke="#988BAD" fill="#0000FF" class="color_Democratic"/>
          <use xlink:href="#img-b771051c-21" x="71.94" y="71.19" stroke="#988BAD" fill="#0000FF" class="color_Democratic"/>
          <use xlink:href="#img-b771051c-21" x="78.31" y="98.44" stroke="#988BAD" fill="#0000FF" class="color_Democratic"/>
          <use xlink:href="#img-b771051c-21" x="84.67" y="105.07" stroke="#988BAD" fill="#0000FF" class="color_Democratic"/>
          <use xlink:href="#img-b771051c-21" x="91.04" y="78.16" stroke="#988BAD" fill="#0000FF" class="color_Democratic"/>
          <use xlink:href="#img-b771051c-21" x="97.41" y="52.76" stroke="#988BAD" fill="#0000FF" class="color_Democratic"/>
          <use xlink:href="#img-b771051c-21" x="103.77" y="62.75" stroke="#988BAD" fill="#0000FF" class="color_Democratic"/>
          <use xlink:href="#img-b771051c-21" x="110.14" y="74.64" stroke="#988BAD" fill="#0000FF" class="color_Democratic"/>
          <use xlink:href="#img-b771051c-21" x="116.51" y="75.6" stroke="#988BAD" fill="#0000FF" class="color_Democratic"/>
          <use xlink:href="#img-b771051c-21" x="122.87" y="70.01" stroke="#988BAD" fill="#0000FF" class="color_Democratic"/>
          <use xlink:href="#img-b771051c-21" x="129.24" y="86.98" stroke="#988BAD" fill="#0000FF" class="color_Democratic"/>
          <use xlink:href="#img-b771051c-21" x="135.6" y="75.66" stroke="#988BAD" fill="#0000FF" class="color_Democratic"/>
          <use xlink:href="#img-b771051c-21" x="141.97" y="75.48" stroke="#988BAD" fill="#0000FF" class="color_Democratic"/>
          <use xlink:href="#img-b771051c-21" x="148.34" y="61.09" stroke="#988BAD" fill="#0000FF" class="color_Democratic"/>
          <use xlink:href="#img-b771051c-21" x="154.7" y="75.3" stroke="#988BAD" fill="#0000FF" class="color_Democratic"/>
          <use xlink:href="#img-b771051c-21" x="161.07" y="71.59" stroke="#988BAD" fill="#0000FF" class="color_Democratic"/>
          <use xlink:href="#img-b771051c-21" x="167.43" y="68.06" stroke="#988BAD" fill="#0000FF" class="color_Democratic"/>
          <use xlink:href="#img-b771051c-21" x="173.8" y="85.98" stroke="#988BAD" fill="#0000FF" class="color_Democratic"/>
          <use xlink:href="#img-b771051c-21" x="180.17" y="80.95" stroke="#988BAD" fill="#0000FF" class="color_Democratic"/>
          <use xlink:href="#img-b771051c-21" x="186.53" y="70.57" stroke="#988BAD" fill="#0000FF" class="color_Democratic"/>
          <use xlink:href="#img-b771051c-21" x="192.9" y="80.31" stroke="#988BAD" fill="#0000FF" class="color_Democratic"/>
          <use xlink:href="#img-b771051c-21" x="199.26" y="74.19" stroke="#988BAD" fill="#0000FF" class="color_Democratic"/>
          <use xlink:href="#img-b771051c-21" x="205.63" y="79.87" stroke="#988BAD" fill="#0000FF" class="color_Democratic"/>
          <use xlink:href="#img-b771051c-21" x="212" y="78.96" stroke="#988BAD" fill="#0000FF" class="color_Democratic"/>
          <use xlink:href="#img-b771051c-21" x="218.36" y="72.4" stroke="#988BAD" fill="#0000FF" class="color_Democratic"/>
          <use xlink:href="#img-b771051c-21" x="224.73" y="77.48" stroke="#988BAD" fill="#0000FF" class="color_Democratic"/>
        </g>
      </g>
      <g stroke-width="0.3" fill="#000000" fill-opacity="0.000" stroke-dasharray="none" id="img-b771051c-22">
        <path fill="none" d="M33.75,105.55 L 40.11 67.25 46.48 76.15 52.84 96.41 59.21 82.45 65.58 75.18 71.94 71.19 78.31 98.44 84.67 105.07 91.04 78.16 97.41 52.76 103.77 62.75 110.14 74.64 116.51 75.6 122.87 70.01 129.24 86.98 135.6 75.66 141.97 75.48 148.34 61.09 154.7 75.3 161.07 71.59 167.43 68.06 173.8 85.98 180.17 80.95 186.53 70.57 192.9 80.31 199.26 74.19 205.63 79.87 212 78.96 218.36 72.4 224.73 77.48" stroke="#0000FF" class="geometry color_Democratic"/>
        <path fill="none" d="M33.75,67.48 L 40.11 67.47 46.48 59.93 52.84 44.99 59.21 57.73 65.58 118.95 71.94 67.14 78.31 55.76 84.67 67.26 91.04 56.33 97.41 83.17 103.77 74.74 110.14 59.22 116.51 58.27 122.87 65.02 129.24 46.88 135.6 58.21 141.97 58.39 148.34 72.77 154.7 63.52 161.07 62.61 167.43 66.53 173.8 55.98 180.17 53.4 186.53 63.97 192.9 76.65 199.26 70.58 205.63 56.22 212 56.62 218.36 63.64 224.73 58.72" stroke="#FF0000" class="geometry color_Republican"/>
      </g>
    </g>
  </g>
</g>
  <g class="guide ylabels" font-size="4.76" font-family="'PT Sans Caption','Helvetica Neue','Helvetica',sans-serif" fill="#A1A1A1" id="img-b771051c-23">
    <text x="24.38" y="118.95" text-anchor="end" dy="0.35em">0</text>
    <text x="24.38" y="92.94" text-anchor="end" dy="0.35em">25</text>
    <text x="24.38" y="66.93" text-anchor="end" dy="0.35em">50</text>
    <text x="24.38" y="40.92" text-anchor="end" dy="0.35em">75</text>
    <text x="24.38" y="14.91" text-anchor="end" dy="0.35em">100</text>
  </g>
  <g font-size="6.35" font-family="'PT Sans','Helvetica Neue','Helvetica',sans-serif" fill="#A1A1A1" stroke="#000000" stroke-opacity="0.000" id="img-b771051c-24">
    <text x="9.95" y="64.93" text-anchor="middle" dy="0.35em" transform="rotate(-90, 9.95, 66.93)">Popular Vote (%)</text>
  </g>
  <g font-size="6.35" font-family="'PT Sans','Helvetica Neue','Helvetica',sans-serif" fill="#A1A1A1" stroke="#000000" stroke-opacity="0.000" id="img-b771051c-25">
    <text x="129.24" y="5" text-anchor="middle" dy="0.6em">South Dakota</text>
  </g>
</g>
<defs>
  <clipPath id="img-b771051c-13">
  <path d="M25.38,12.91 L 233.1 12.91 233.1 120.95 25.38 120.95" />
</clipPath>
  <g id="img-b771051c-21">
    <circle cx="0" cy="0" r="0.9"/>
  </g>
</defs>
</svg>
