<svg xmlns="http://www.w3.org/2000/svg" xmlns:xlink="http://www.w3.org/1999/xlink" version="1.2" width="238.1mm" height="599.924" viewBox="0 0 238.1 158.73" stroke-width=".3" font-size="3.88"><path d="M0 0h238.1v158.73H0z" stroke="#000" stroke-opacity="0" fill="#222831"/><g class="plotroot xscalable yscalable"><g class="guide colorkey"><g class="color_Democratic"><text x="51.52" y="148.78" dy=".35em" fill="#A1A1A1" font-size="3.7" font-family="'PT Sans','Helvetica Neue','Helvetica',sans-serif">Democratic</text><path d="M48.29 147.66h2.22v2.22h-2.22z" fill="#00F" stroke="#000" stroke-opacity="0"/></g><g class="color_Republican"><text x="29.6" y="148.78" dy=".35em" fill="#A1A1A1" font-size="3.7" font-family="'PT Sans','Helvetica Neue','Helvetica',sans-serif">Republican</text><path d="M26.38 147.66h2.22v2.22h-2.22z" fill="#F00" stroke="#000" stroke-opacity="0"/></g><text x="26.38" y="145.28" fill="#A1A1A1" font-size="6.35" font-family="'PT Sans','Helvetica Neue','Helvetica',sans-serif" stroke="#000" stroke-opacity="0">Party</text></g><text x="129.24" y="130.46" text-anchor="middle" dy=".6em" font-size="6.35" font-family="'PT Sans','Helvetica Neue','Helvetica',sans-serif" fill="#A1A1A1" stroke="#000" stroke-opacity="0">Year</text><g class="guide xlabels" font-size="4.76" font-family="'PT Sans Caption','Helvetica Neue','Helvetica',sans-serif" fill="#A1A1A1" text-anchor="middle"><text x="27.38" y="121.95" dy=".6em">1844</text><text x="41.59" y="121.95" dy=".6em">1856</text><text x="55.8" y="121.95" dy=".6em">1868</text><text x="70.02" y="121.95" dy=".6em">1880</text><text x="84.23" y="121.95" dy=".6em">1892</text><text x="98.44" y="121.95" dy=".6em">1904</text><text x="112.66" y="121.95" dy=".6em">1916</text><text x="126.87" y="121.95" dy=".6em">1928</text><text x="141.08" y="121.95" dy=".6em">1940</text><text x="155.29" y="121.95" dy=".6em">1952</text><text x="169.51" y="121.95" dy=".6em">1964</text><text x="183.72" y="121.95" dy=".6em">1976</text><text x="197.93" y="121.95" dy=".6em">1988</text><text x="212.14" y="121.95" dy=".6em">2000</text><text x="226.36" y="121.95" dy=".6em">2012</text></g><g clip-path="url(#a)"><path d="M25.38 12.91H233.1v108.04H25.38z" pointer-events="visible" fill="#222831" stroke="#000" stroke-opacity="0" class="guide background"/><g class="guide ygridlines xfixed" stroke-dasharray="0.5,0.5" stroke-width=".2" stroke="#575757" fill="none"><path d="M25.38 118.95H233.1M25.38 92.94H233.1M25.38 66.93H233.1M25.38 40.92H233.1M25.38 14.91H233.1"/></g><g class="guide xgridlines yfixed" stroke-dasharray="0.5,0.5" stroke-width=".2" stroke="#575757" fill="none"><path d="M27.38 12.91v108.04M41.59 12.91v108.04M55.8 12.91v108.04M70.02 12.91v108.04M84.23 12.91v108.04M98.44 12.91v108.04M112.66 12.91v108.04M126.87 12.91v108.04M141.08 12.91v108.04M155.29 12.91v108.04M169.51 12.91v108.04M183.72 12.91v108.04M197.93 12.91v108.04M212.14 12.91v108.04M226.36 12.91v108.04"/></g><g class="plotpanel"><g class="geometry"><use xlink:href="#b" x="46.33" y="118.95" stroke="#B3867B" fill="#F00" class="color_Republican"/><use xlink:href="#b" x="60.54" y="76.6" stroke="#B3867B" fill="#F00" class="color_Republican"/><use xlink:href="#b" x="65.28" y="87.79" stroke="#B3867B" fill="#F00" class="color_Republican"/><use xlink:href="#b" x="70.02" y="94.04" stroke="#B3867B" fill="#F00" class="color_Republican"/><use xlink:href="#b" x="74.76" y="89.16" stroke="#B3867B" fill="#F00" class="color_Republican"/><use xlink:href="#b" x="79.49" y="93.22" stroke="#B3867B" fill="#F00" class="color_Republican"/><use xlink:href="#b" x="84.23" y="98.95" stroke="#B3867B" fill="#F00" class="color_Republican"/><use xlink:href="#b" x="88.97" y="86.96" stroke="#B3867B" fill="#F00" class="color_Republican"/><use xlink:href="#b" x="93.71" y="86.87" stroke="#B3867B" fill="#F00" class="color_Republican"/><use xlink:href="#b" x="98.44" y="96.17" stroke="#B3867B" fill="#F00" class="color_Republican"/><use xlink:href="#b" x="103.18" y="95.7" stroke="#B3867B" fill="#F00" class="color_Republican"/><use xlink:href="#b" x="107.92" y="109.12" stroke="#B3867B" fill="#F00" class="color_Republican"/><use xlink:href="#b" x="112.66" y="100.8" stroke="#B3867B" fill="#F00" class="color_Republican"/><use xlink:href="#b" x="117.39" y="94.47" stroke="#B3867B" fill="#F00" class="color_Republican"/><use xlink:href="#b" x="122.13" y="98.38" stroke="#B3867B" fill="#F00" class="color_Republican"/><use xlink:href="#b" x="126.87" y="65.09" stroke="#B3867B" fill="#F00" class="color_Republican"/><use xlink:href="#b" x="131.61" y="107.15" stroke="#B3867B" fill="#F00" class="color_Republican"/><use xlink:href="#b" x="136.34" y="106.14" stroke="#B3867B" fill="#F00" class="color_Republican"/><use xlink:href="#b" x="141.08" y="99.28" stroke="#B3867B" fill="#F00" class="color_Republican"/><use xlink:href="#b" x="145.82" y="101.64" stroke="#B3867B" fill="#F00" class="color_Republican"/><use xlink:href="#b" x="150.56" y="93.69" stroke="#B3867B" fill="#F00" class="color_Republican"/><use xlink:href="#b" x="155.29" y="63.68" stroke="#B3867B" fill="#F00" class="color_Republican"/><use xlink:href="#b" x="160.03" y="61.46" stroke="#B3867B" fill="#F00" class="color_Republican"/><use xlink:href="#b" x="164.77" y="68.47" stroke="#B3867B" fill="#F00" class="color_Republican"/><use xlink:href="#b" x="169.51" y="80.99" stroke="#B3867B" fill="#F00" class="color_Republican"/><use xlink:href="#b" x="174.24" y="77.47" stroke="#B3867B" fill="#F00" class="color_Republican"/><use xlink:href="#b" x="178.98" y="50.08" stroke="#B3867B" fill="#F00" class="color_Republican"/><use xlink:href="#b" x="183.72" y="69.04" stroke="#B3867B" fill="#F00" class="color_Republican"/><use xlink:href="#b" x="188.46" y="61.44" stroke="#B3867B" fill="#F00" class="color_Republican"/><use xlink:href="#b" x="193.19" y="52.77" stroke="#B3867B" fill="#F00" class="color_Republican"/><use xlink:href="#b" x="197.93" y="60.74" stroke="#B3867B" fill="#F00" class="color_Republican"/><use xlink:href="#b" x="202.67" y="76.75" stroke="#B3867B" fill="#F00" class="color_Republican"/><use xlink:href="#b" x="207.41" y="68.22" stroke="#B3867B" fill="#F00" class="color_Republican"/><use xlink:href="#b" x="212.14" y="57.26" stroke="#B3867B" fill="#F00" class="color_Republican"/><use xlink:href="#b" x="216.88" y="55.4" stroke="#B3867B" fill="#F00" class="color_Republican"/><use xlink:href="#b" x="221.62" y="61.33" stroke="#B3867B" fill="#F00" class="color_Republican"/><use xlink:href="#b" x="226.36" y="59.52" stroke="#B3867B" fill="#F00" class="color_Republican"/><use xlink:href="#b" x="32.12" y="45.82" stroke="#988BAD" fill="#00F" class="color_Democratic"/><use xlink:href="#b" x="36.85" y="42.93" stroke="#988BAD" fill="#00F" class="color_Democratic"/><use xlink:href="#b" x="41.59" y="49.67" stroke="#988BAD" fill="#00F" class="color_Democratic"/><use xlink:href="#b" x="46.33" y="118.95" stroke="#988BAD" fill="#00F" class="color_Democratic"/><use xlink:href="#b" x="60.54" y="59.57" stroke="#988BAD" fill="#00F" class="color_Democratic"/><use xlink:href="#b" x="65.28" y="46.08" stroke="#988BAD" fill="#00F" class="color_Democratic"/><use xlink:href="#b" x="70.02" y="51.62" stroke="#988BAD" fill="#00F" class="color_Democratic"/><use xlink:href="#b" x="74.76" y="46.89" stroke="#988BAD" fill="#00F" class="color_Democratic"/><use xlink:href="#b" x="79.49" y="50.6" stroke="#988BAD" fill="#00F" class="color_Democratic"/><use xlink:href="#b" x="84.23" y="60.01" stroke="#988BAD" fill="#00F" class="color_Democratic"/><use xlink:href="#b" x="88.97" y="48.21" stroke="#988BAD" fill="#00F" class="color_Democratic"/><use xlink:href="#b" x="93.71" y="53.28" stroke="#988BAD" fill="#00F" class="color_Democratic"/><use xlink:href="#b" x="98.44" y="44.61" stroke="#988BAD" fill="#00F" class="color_Democratic"/><use xlink:href="#b" x="103.18" y="41.99" stroke="#988BAD" fill="#00F" class="color_Democratic"/><use xlink:href="#b" x="107.92" y="43.28" stroke="#988BAD" fill="#00F" class="color_Democratic"/><use xlink:href="#b" x="112.66" y="38.92" stroke="#988BAD" fill="#00F" class="color_Democratic"/><use xlink:href="#b" x="117.39" y="57.22" stroke="#988BAD" fill="#00F" class="color_Democratic"/><use xlink:href="#b" x="122.13" y="42.27" stroke="#988BAD" fill="#00F" class="color_Democratic"/><use xlink:href="#b" x="126.87" y="68.91" stroke="#988BAD" fill="#00F" class="color_Democratic"/><use xlink:href="#b" x="131.61" y="27.33" stroke="#988BAD" fill="#00F" class="color_Democratic"/><use xlink:href="#b" x="136.34" y="28.35" stroke="#988BAD" fill="#00F" class="color_Democratic"/><use xlink:href="#b" x="141.08" y="34.76" stroke="#988BAD" fill="#00F" class="color_Democratic"/><use xlink:href="#b" x="145.82" y="44.64" stroke="#988BAD" fill="#00F" class="color_Democratic"/><use xlink:href="#b" x="150.56" y="50.32" stroke="#988BAD" fill="#00F" class="color_Democratic"/><use xlink:href="#b" x="155.29" y="70.38" stroke="#988BAD" fill="#00F" class="color_Democratic"/><use xlink:href="#b" x="160.03" y="73.2" stroke="#988BAD" fill="#00F" class="color_Democratic"/><use xlink:href="#b" x="164.77" y="66.39" stroke="#988BAD" fill="#00F" class="color_Democratic"/><use xlink:href="#b" x="169.51" y="53.08" stroke="#988BAD" fill="#00F" class="color_Democratic"/><use xlink:href="#b" x="174.24" y="76.15" stroke="#988BAD" fill="#00F" class="color_Democratic"/><use xlink:href="#b" x="178.98" y="84.37" stroke="#988BAD" fill="#00F" class="color_Democratic"/><use xlink:href="#b" x="183.72" y="65.75" stroke="#988BAD" fill="#00F" class="color_Democratic"/><use xlink:href="#b" x="188.46" y="75.86" stroke="#988BAD" fill="#00F" class="color_Democratic"/><use xlink:href="#b" x="193.19" y="81.38" stroke="#988BAD" fill="#00F" class="color_Democratic"/><use xlink:href="#b" x="197.93" y="73.85" stroke="#988BAD" fill="#00F" class="color_Democratic"/><use xlink:href="#b" x="202.67" y="80.38" stroke="#988BAD" fill="#00F" class="color_Democratic"/><use xlink:href="#b" x="207.41" y="73.35" stroke="#988BAD" fill="#00F" class="color_Democratic"/><use xlink:href="#b" x="212.14" y="79.44" stroke="#988BAD" fill="#00F" class="color_Democratic"/><use xlink:href="#b" x="216.88" y="79.18" stroke="#988BAD" fill="#00F" class="color_Democratic"/><use xlink:href="#b" x="221.62" y="73.56" stroke="#988BAD" fill="#00F" class="color_Democratic"/><use xlink:href="#b" x="226.36" y="75.93" stroke="#988BAD" fill="#00F" class="color_Democratic"/></g><g fill-opacity="0"><path fill="none" d="M32.12 45.82l4.73-2.89 4.74 6.74 4.74 69.28 14.21-59.38 4.74-13.49 4.74 5.54 4.74-4.73 4.73 3.71 4.74 9.41 4.74-11.8 4.74 5.07 4.73-8.67 4.74-2.62 4.74 1.29 4.74-4.36 4.73 18.3 4.74-14.95 4.74 26.64 4.74-41.58 4.73 1.02 4.74 6.41 4.74 9.88 4.74 5.68 4.73 20.06 4.74 2.82 4.74-6.81 4.74-13.31 4.73 23.07 4.74 8.22 4.74-18.62 4.74 10.11 4.73 5.52 4.74-7.53 4.74 6.53 4.74-7.03 4.73 6.09 4.74-.26 4.74-5.62 4.74 2.37" stroke="#00F" class="geometry color_Democratic"/><path fill="none" d="M46.33 118.95L60.54 76.6l4.74 11.19 4.74 6.25 4.74-4.88 4.73 4.06 4.74 5.73 4.74-11.99 4.74-.09 4.73 9.3 4.74-.47 4.74 13.42 4.74-8.32 4.73-6.33 4.74 3.91 4.74-33.29 4.74 42.06 4.73-1.01 4.74-6.86 4.74 2.36 4.74-7.95 4.73-30.01 4.74-2.22 4.74 7.01 4.74 12.52 4.73-3.52 4.74-27.39 4.74 18.96 4.74-7.6 4.73-8.67 4.74 7.97 4.74 16.01 4.74-8.53 4.73-10.96 4.74-1.86 4.74 5.93 4.74-1.81" stroke="#F00" class="geometry color_Republican"/></g></g></g><g class="guide ylabels" font-size="4.76" font-family="'PT Sans Caption','Helvetica Neue','Helvetica',sans-serif" fill="#A1A1A1" text-anchor="end"><text x="24.38" y="118.95" dy=".35em">0</text><text x="24.38" y="92.94" dy=".35em">25</text><text x="24.38" y="66.93" dy=".35em">50</text><text x="24.38" y="40.92" dy=".35em">75</text><text x="24.38" y="14.91" dy=".35em">100</text></g><text x="9.95" y="64.93" text-anchor="middle" dy=".35em" transform="rotate(-90 9.95 66.93)" font-size="6.35" font-family="'PT Sans','Helvetica Neue','Helvetica',sans-serif" fill="#A1A1A1" stroke="#000" stroke-opacity="0">Popular Vote (%)</text><text x="129.24" y="5" text-anchor="middle" dy=".6em" font-size="6.35" font-family="'PT Sans','Helvetica Neue','Helvetica',sans-serif" fill="#A1A1A1" stroke="#000" stroke-opacity="0">Texas</text></g><defs><clipPath id="a"><path d="M25.38 12.91H233.1v108.04H25.38"/></clipPath><circle r=".9" id="b"/></defs></svg>