<?xml version="1.0" encoding="UTF-8"?>
<svg xmlns="http://www.w3.org/2000/svg"
     xmlns:xlink="http://www.w3.org/1999/xlink"
     xmlns:gadfly="http://www.gadflyjl.org/ns"
     version="1.2"
     width="320mm" height="160mm" viewBox="0 0 320 160"
     stroke="none"
     fill="#000000"
     stroke-width="0.3"
     font-size="3.88"
>
<g class="plotroot xscalable yscalable" id="img-5471f4bb-1">
  <g class="guide colorkey" id="img-5471f4bb-2">
    <g class="color_Democratic" id="img-5471f4bb-3">
      <g fill="#4C404B" font-size="4.76" font-family="'PT Sans','Helvetica Neue','Helvetica',sans-serif" id="img-5471f4bb-4">
        <text x="57.56" y="150.05" dy="0.35em">Democratic</text>
      </g>
      <g fill="#0000FF" stroke="#000000" stroke-opacity="0.000" id="img-5471f4bb-5">
        <rect x="53.84" y="148.69" width="2.72" height="2.72"/>
      </g>
    </g>
    <g class="color_Republican" id="img-5471f4bb-6">
      <g fill="#4C404B" font-size="4.76" font-family="'PT Sans','Helvetica Neue','Helvetica',sans-serif" id="img-5471f4bb-7">
        <text x="30.1" y="150.05" dy="0.35em">Republican</text>
      </g>
      <g fill="#FF0000" stroke="#000000" stroke-opacity="0.000" id="img-5471f4bb-8">
        <rect x="26.38" y="148.69" width="2.72" height="2.72"/>
      </g>
    </g>
    <g fill="#362A35" font-size="6.35" font-family="'PT Sans','Helvetica Neue','Helvetica',sans-serif" stroke="#000000" stroke-opacity="0.000" id="img-5471f4bb-9">
      <text x="26.38" y="145.57">Party</text>
    </g>
  </g>
  <g font-size="6.35" font-family="'PT Sans','Helvetica Neue','Helvetica',sans-serif" fill="#564A55" stroke="#000000" stroke-opacity="0.000" id="img-5471f4bb-10">
    <text x="170.19" y="130.75" text-anchor="middle" dy="0.6em">Year</text>
  </g>
  <g class="guide xlabels" font-size="4.76" font-family="'PT Sans Caption','Helvetica Neue','Helvetica',sans-serif" fill="#6C606B" id="img-5471f4bb-11">
    <text x="27.38" y="122.24" text-anchor="middle" dy="0.6em">1844</text>
    <text x="47.31" y="122.24" text-anchor="middle" dy="0.6em">1856</text>
    <text x="67.23" y="122.24" text-anchor="middle" dy="0.6em">1868</text>
    <text x="87.16" y="122.24" text-anchor="middle" dy="0.6em">1880</text>
    <text x="107.09" y="122.24" text-anchor="middle" dy="0.6em">1892</text>
    <text x="127.01" y="122.24" text-anchor="middle" dy="0.6em">1904</text>
    <text x="146.94" y="122.24" text-anchor="middle" dy="0.6em">1916</text>
    <text x="166.87" y="122.24" text-anchor="middle" dy="0.6em">1928</text>
    <text x="186.8" y="122.24" text-anchor="middle" dy="0.6em">1940</text>
    <text x="206.72" y="122.24" text-anchor="middle" dy="0.6em">1952</text>
    <text x="226.65" y="122.24" text-anchor="middle" dy="0.6em">1964</text>
    <text x="246.58" y="122.24" text-anchor="middle" dy="0.6em">1976</text>
    <text x="266.5" y="122.24" text-anchor="middle" dy="0.6em">1988</text>
    <text x="286.43" y="122.24" text-anchor="middle" dy="0.6em">2000</text>
    <text x="306.36" y="122.24" text-anchor="middle" dy="0.6em">2012</text>
  </g>
<g clip-path="url(#img-5471f4bb-12)">
  <g id="img-5471f4bb-13">
    <g pointer-events="visible" opacity="1" fill="#000000" fill-opacity="0.000" stroke="#000000" stroke-opacity="0.000" class="guide background" id="img-5471f4bb-14">
      <rect x="25.38" y="14.91" width="289.62" height="106.33"/>
    </g>
    <g class="guide ygridlines xfixed" stroke-dasharray="0.5,0.5" stroke-width="0.26" stroke="#000000" id="img-5471f4bb-15">
      <path fill="none" d="M25.38,119.24 L 315 119.24"/>
      <path fill="none" d="M25.38,93.66 L 315 93.66"/>
      <path fill="none" d="M25.38,68.07 L 315 68.07"/>
      <path fill="none" d="M25.38,42.49 L 315 42.49"/>
      <path fill="none" d="M25.38,16.91 L 315 16.91"/>
    </g>
    <g class="guide xgridlines yfixed" stroke-dasharray="0.5,0.5" stroke-width="0.26" stroke="#000000" id="img-5471f4bb-16">
      <path fill="none" d="M27.38,14.91 L 27.38 121.24"/>
      <path fill="none" d="M47.31,14.91 L 47.31 121.24"/>
      <path fill="none" d="M67.23,14.91 L 67.23 121.24"/>
      <path fill="none" d="M87.16,14.91 L 87.16 121.24"/>
      <path fill="none" d="M107.09,14.91 L 107.09 121.24"/>
      <path fill="none" d="M127.01,14.91 L 127.01 121.24"/>
      <path fill="none" d="M146.94,14.91 L 146.94 121.24"/>
      <path fill="none" d="M166.87,14.91 L 166.87 121.24"/>
      <path fill="none" d="M186.8,14.91 L 186.8 121.24"/>
      <path fill="none" d="M206.72,14.91 L 206.72 121.24"/>
      <path fill="none" d="M226.65,14.91 L 226.65 121.24"/>
      <path fill="none" d="M246.58,14.91 L 246.58 121.24"/>
      <path fill="none" d="M266.5,14.91 L 266.5 121.24"/>
      <path fill="none" d="M286.43,14.91 L 286.43 121.24"/>
      <path fill="none" d="M306.36,14.91 L 306.36 121.24"/>
    </g>
    <g class="plotpanel" id="img-5471f4bb-17">
      <g class="geometry" id="img-5471f4bb-18">
        <g stroke-width="0.3" id="img-5471f4bb-19">
          <use xlink:href="#img-5471f4bb-20" x="53.95" y="119.24" class="color_Republican" fill="#FF0000" stroke="#FFFFFF"/>
          <use xlink:href="#img-5471f4bb-20" x="73.88" y="77.58" class="color_Republican" fill="#FF0000" stroke="#FFFFFF"/>
          <use xlink:href="#img-5471f4bb-20" x="80.52" y="88.59" class="color_Republican" fill="#FF0000" stroke="#FFFFFF"/>
          <use xlink:href="#img-5471f4bb-20" x="87.16" y="94.73" class="color_Republican" fill="#FF0000" stroke="#FFFFFF"/>
          <use xlink:href="#img-5471f4bb-20" x="93.8" y="89.94" class="color_Republican" fill="#FF0000" stroke="#FFFFFF"/>
          <use xlink:href="#img-5471f4bb-20" x="100.45" y="93.93" class="color_Republican" fill="#FF0000" stroke="#FFFFFF"/>
          <use xlink:href="#img-5471f4bb-20" x="107.09" y="99.57" class="color_Republican" fill="#FF0000" stroke="#FFFFFF"/>
          <use xlink:href="#img-5471f4bb-20" x="113.73" y="87.77" class="color_Republican" fill="#FF0000" stroke="#FFFFFF"/>
          <use xlink:href="#img-5471f4bb-20" x="120.37" y="87.69" class="color_Republican" fill="#FF0000" stroke="#FFFFFF"/>
          <use xlink:href="#img-5471f4bb-20" x="127.01" y="96.83" class="color_Republican" fill="#FF0000" stroke="#FFFFFF"/>
          <use xlink:href="#img-5471f4bb-20" x="133.66" y="96.36" class="color_Republican" fill="#FF0000" stroke="#FFFFFF"/>
          <use xlink:href="#img-5471f4bb-20" x="140.3" y="109.56" class="color_Republican" fill="#FF0000" stroke="#FFFFFF"/>
          <use xlink:href="#img-5471f4bb-20" x="146.94" y="101.38" class="color_Republican" fill="#FF0000" stroke="#FFFFFF"/>
          <use xlink:href="#img-5471f4bb-20" x="153.58" y="95.15" class="color_Republican" fill="#FF0000" stroke="#FFFFFF"/>
          <use xlink:href="#img-5471f4bb-20" x="160.23" y="99" class="color_Republican" fill="#FF0000" stroke="#FFFFFF"/>
          <use xlink:href="#img-5471f4bb-20" x="166.87" y="66.26" class="color_Republican" fill="#FF0000" stroke="#FFFFFF"/>
          <use xlink:href="#img-5471f4bb-20" x="173.51" y="107.63" class="color_Republican" fill="#FF0000" stroke="#FFFFFF"/>
          <use xlink:href="#img-5471f4bb-20" x="180.15" y="106.64" class="color_Republican" fill="#FF0000" stroke="#FFFFFF"/>
          <use xlink:href="#img-5471f4bb-20" x="186.8" y="99.88" class="color_Republican" fill="#FF0000" stroke="#FFFFFF"/>
          <use xlink:href="#img-5471f4bb-20" x="193.44" y="102.21" class="color_Republican" fill="#FF0000" stroke="#FFFFFF"/>
          <use xlink:href="#img-5471f4bb-20" x="200.08" y="94.39" class="color_Republican" fill="#FF0000" stroke="#FFFFFF"/>
          <use xlink:href="#img-5471f4bb-20" x="206.72" y="64.87" class="color_Republican" fill="#FF0000" stroke="#FFFFFF"/>
          <use xlink:href="#img-5471f4bb-20" x="213.36" y="62.69" class="color_Republican" fill="#FF0000" stroke="#FFFFFF"/>
          <use xlink:href="#img-5471f4bb-20" x="220.01" y="69.59" class="color_Republican" fill="#FF0000" stroke="#FFFFFF"/>
          <use xlink:href="#img-5471f4bb-20" x="226.65" y="81.9" class="color_Republican" fill="#FF0000" stroke="#FFFFFF"/>
          <use xlink:href="#img-5471f4bb-20" x="233.29" y="78.44" class="color_Republican" fill="#FF0000" stroke="#FFFFFF"/>
          <use xlink:href="#img-5471f4bb-20" x="239.93" y="51.5" class="color_Republican" fill="#FF0000" stroke="#FFFFFF"/>
          <use xlink:href="#img-5471f4bb-20" x="246.58" y="70.15" class="color_Republican" fill="#FF0000" stroke="#FFFFFF"/>
          <use xlink:href="#img-5471f4bb-20" x="253.22" y="62.67" class="color_Republican" fill="#FF0000" stroke="#FFFFFF"/>
          <use xlink:href="#img-5471f4bb-20" x="259.86" y="54.15" class="color_Republican" fill="#FF0000" stroke="#FFFFFF"/>
          <use xlink:href="#img-5471f4bb-20" x="266.5" y="61.98" class="color_Republican" fill="#FF0000" stroke="#FFFFFF"/>
          <use xlink:href="#img-5471f4bb-20" x="273.15" y="77.73" class="color_Republican" fill="#FF0000" stroke="#FFFFFF"/>
          <use xlink:href="#img-5471f4bb-20" x="279.79" y="69.34" class="color_Republican" fill="#FF0000" stroke="#FFFFFF"/>
          <use xlink:href="#img-5471f4bb-20" x="286.43" y="58.56" class="color_Republican" fill="#FF0000" stroke="#FFFFFF"/>
          <use xlink:href="#img-5471f4bb-20" x="293.07" y="56.73" class="color_Republican" fill="#FF0000" stroke="#FFFFFF"/>
          <use xlink:href="#img-5471f4bb-20" x="299.72" y="62.56" class="color_Republican" fill="#FF0000" stroke="#FFFFFF"/>
          <use xlink:href="#img-5471f4bb-20" x="306.36" y="60.78" class="color_Republican" fill="#FF0000" stroke="#FFFFFF"/>
          <use xlink:href="#img-5471f4bb-20" x="34.02" y="47.31" class="color_Democratic" fill="#0000FF" stroke="#FFFFFF"/>
          <use xlink:href="#img-5471f4bb-20" x="40.66" y="44.47" class="color_Democratic" fill="#0000FF" stroke="#FFFFFF"/>
          <use xlink:href="#img-5471f4bb-20" x="47.31" y="51.1" class="color_Democratic" fill="#0000FF" stroke="#FFFFFF"/>
          <use xlink:href="#img-5471f4bb-20" x="53.95" y="119.24" class="color_Democratic" fill="#0000FF" stroke="#FFFFFF"/>
          <use xlink:href="#img-5471f4bb-20" x="73.88" y="60.83" class="color_Democratic" fill="#0000FF" stroke="#FFFFFF"/>
          <use xlink:href="#img-5471f4bb-20" x="80.52" y="47.56" class="color_Democratic" fill="#0000FF" stroke="#FFFFFF"/>
          <use xlink:href="#img-5471f4bb-20" x="87.16" y="53.02" class="color_Democratic" fill="#0000FF" stroke="#FFFFFF"/>
          <use xlink:href="#img-5471f4bb-20" x="93.8" y="48.36" class="color_Democratic" fill="#0000FF" stroke="#FFFFFF"/>
          <use xlink:href="#img-5471f4bb-20" x="100.45" y="52.01" class="color_Democratic" fill="#0000FF" stroke="#FFFFFF"/>
          <use xlink:href="#img-5471f4bb-20" x="107.09" y="61.27" class="color_Democratic" fill="#0000FF" stroke="#FFFFFF"/>
          <use xlink:href="#img-5471f4bb-20" x="113.73" y="49.66" class="color_Democratic" fill="#0000FF" stroke="#FFFFFF"/>
          <use xlink:href="#img-5471f4bb-20" x="120.37" y="54.65" class="color_Democratic" fill="#0000FF" stroke="#FFFFFF"/>
          <use xlink:href="#img-5471f4bb-20" x="127.01" y="46.12" class="color_Democratic" fill="#0000FF" stroke="#FFFFFF"/>
          <use xlink:href="#img-5471f4bb-20" x="133.66" y="43.54" class="color_Democratic" fill="#0000FF" stroke="#FFFFFF"/>
          <use xlink:href="#img-5471f4bb-20" x="140.3" y="44.81" class="color_Democratic" fill="#0000FF" stroke="#FFFFFF"/>
          <use xlink:href="#img-5471f4bb-20" x="146.94" y="40.52" class="color_Democratic" fill="#0000FF" stroke="#FFFFFF"/>
          <use xlink:href="#img-5471f4bb-20" x="153.58" y="58.52" class="color_Democratic" fill="#0000FF" stroke="#FFFFFF"/>
          <use xlink:href="#img-5471f4bb-20" x="160.23" y="43.82" class="color_Democratic" fill="#0000FF" stroke="#FFFFFF"/>
          <use xlink:href="#img-5471f4bb-20" x="166.87" y="70.02" class="color_Democratic" fill="#0000FF" stroke="#FFFFFF"/>
          <use xlink:href="#img-5471f4bb-20" x="173.51" y="29.13" class="color_Democratic" fill="#0000FF" stroke="#FFFFFF"/>
          <use xlink:href="#img-5471f4bb-20" x="180.15" y="30.13" class="color_Democratic" fill="#0000FF" stroke="#FFFFFF"/>
          <use xlink:href="#img-5471f4bb-20" x="186.8" y="36.43" class="color_Democratic" fill="#0000FF" stroke="#FFFFFF"/>
          <use xlink:href="#img-5471f4bb-20" x="193.44" y="46.15" class="color_Democratic" fill="#0000FF" stroke="#FFFFFF"/>
          <use xlink:href="#img-5471f4bb-20" x="200.08" y="51.74" class="color_Democratic" fill="#0000FF" stroke="#FFFFFF"/>
          <use xlink:href="#img-5471f4bb-20" x="206.72" y="71.46" class="color_Democratic" fill="#0000FF" stroke="#FFFFFF"/>
          <use xlink:href="#img-5471f4bb-20" x="213.36" y="74.24" class="color_Democratic" fill="#0000FF" stroke="#FFFFFF"/>
          <use xlink:href="#img-5471f4bb-20" x="220.01" y="67.54" class="color_Democratic" fill="#0000FF" stroke="#FFFFFF"/>
          <use xlink:href="#img-5471f4bb-20" x="226.65" y="54.45" class="color_Democratic" fill="#0000FF" stroke="#FFFFFF"/>
          <use xlink:href="#img-5471f4bb-20" x="233.29" y="77.14" class="color_Democratic" fill="#0000FF" stroke="#FFFFFF"/>
          <use xlink:href="#img-5471f4bb-20" x="239.93" y="85.23" class="color_Democratic" fill="#0000FF" stroke="#FFFFFF"/>
          <use xlink:href="#img-5471f4bb-20" x="246.58" y="66.91" class="color_Democratic" fill="#0000FF" stroke="#FFFFFF"/>
          <use xlink:href="#img-5471f4bb-20" x="253.22" y="76.85" class="color_Democratic" fill="#0000FF" stroke="#FFFFFF"/>
          <use xlink:href="#img-5471f4bb-20" x="259.86" y="82.28" class="color_Democratic" fill="#0000FF" stroke="#FFFFFF"/>
          <use xlink:href="#img-5471f4bb-20" x="266.5" y="74.88" class="color_Democratic" fill="#0000FF" stroke="#FFFFFF"/>
          <use xlink:href="#img-5471f4bb-20" x="273.15" y="81.3" class="color_Democratic" fill="#0000FF" stroke="#FFFFFF"/>
          <use xlink:href="#img-5471f4bb-20" x="279.79" y="74.39" class="color_Democratic" fill="#0000FF" stroke="#FFFFFF"/>
          <use xlink:href="#img-5471f4bb-20" x="286.43" y="80.37" class="color_Democratic" fill="#0000FF" stroke="#FFFFFF"/>
          <use xlink:href="#img-5471f4bb-20" x="293.07" y="80.12" class="color_Democratic" fill="#0000FF" stroke="#FFFFFF"/>
          <use xlink:href="#img-5471f4bb-20" x="299.72" y="74.59" class="color_Democratic" fill="#0000FF" stroke="#FFFFFF"/>
          <use xlink:href="#img-5471f4bb-20" x="306.36" y="76.92" class="color_Democratic" fill="#0000FF" stroke="#FFFFFF"/>
        </g>
      </g>
      <g stroke-width="0.53" fill="#000000" fill-opacity="0.000" stroke-dasharray="none" id="img-5471f4bb-21">
        <path fill="none" d="M34.02,47.31 L 40.66 44.47 47.31 51.1 53.95 119.24 73.88 60.83 80.52 47.56 87.16 53.02 93.8 48.36 100.45 52.01 107.09 61.27 113.73 49.66 120.37 54.65 127.01 46.12 133.66 43.54 140.3 44.81 146.94 40.52 153.58 58.52 160.23 43.82 166.87 70.02 173.51 29.13 180.15 30.13 186.8 36.43 193.44 46.15 200.08 51.74 206.72 71.46 213.36 74.24 220.01 67.54 226.65 54.45 233.29 77.14 239.93 85.23 246.58 66.91 253.22 76.85 259.86 82.28 266.5 74.88 273.15 81.3 279.79 74.39 286.43 80.37 293.07 80.12 299.72 74.59 306.36 76.92" class="geometry color_Democratic" stroke="#0000FF"/>
        <path fill="none" d="M53.95,119.24 L 73.88 77.58 80.52 88.59 87.16 94.73 93.8 89.94 100.45 93.93 107.09 99.57 113.73 87.77 120.37 87.69 127.01 96.83 133.66 96.36 140.3 109.56 146.94 101.38 153.58 95.15 160.23 99 166.87 66.26 173.51 107.63 180.15 106.64 186.8 99.88 193.44 102.21 200.08 94.39 206.72 64.87 213.36 62.69 220.01 69.59 226.65 81.9 233.29 78.44 239.93 51.5 246.58 70.15 253.22 62.67 259.86 54.15 266.5 61.98 273.15 77.73 279.79 69.34 286.43 58.56 293.07 56.73 299.72 62.56 306.36 60.78" class="geometry color_Republican" stroke="#FF0000"/>
      </g>
    </g>
  </g>
</g>
  <g class="guide ylabels" font-size="4.76" font-family="'PT Sans Caption','Helvetica Neue','Helvetica',sans-serif" fill="#6C606B" id="img-5471f4bb-22">
    <text x="24.38" y="119.24" text-anchor="end" dy="0.35em">0</text>
    <text x="24.38" y="93.66" text-anchor="end" dy="0.35em">25</text>
    <text x="24.38" y="68.07" text-anchor="end" dy="0.35em">50</text>
    <text x="24.38" y="42.49" text-anchor="end" dy="0.35em">75</text>
    <text x="24.38" y="16.91" text-anchor="end" dy="0.35em">100</text>
  </g>
  <g font-size="6.35" font-family="'PT Sans','Helvetica Neue','Helvetica',sans-serif" fill="#564A55" stroke="#000000" stroke-opacity="0.000" id="img-5471f4bb-23">
    <text x="9.95" y="66.07" text-anchor="middle" dy="0.35em" transform="rotate(-90, 9.95, 68.07)">Popular Vote (%)</text>
  </g>
  <g font-size="6.35" font-family="'PT Sans','Helvetica Neue','Helvetica',sans-serif" fill="#564A55" stroke="#000000" stroke-opacity="0.000" id="img-5471f4bb-24">
    <text x="170.19" y="12.91" text-anchor="middle">Texas</text>
  </g>
</g>
<defs>
  <clipPath id="img-5471f4bb-12">
  <path d="M25.38,14.91 L 315 14.91 315 121.24 25.38 121.24" />
</clipPath>
  <g id="img-5471f4bb-20">
    <circle cx="0" cy="0" r="0.9"/>
  </g>
</defs>
</svg>
