<svg xmlns="http://www.w3.org/2000/svg" xmlns:xlink="http://www.w3.org/1999/xlink" version="1.2" width="238.1mm" height="599.924" viewBox="0 0 238.1 158.73" stroke-width=".3" font-size="3.88"><path d="M0 0h238.1v158.73H0z" stroke="#000" stroke-opacity="0" fill="#222831"/><g class="plotroot xscalable yscalable"><text x="124" y="144.82" text-anchor="middle" dy=".6em" font-size="6.35" font-family="'PT Sans','Helvetica Neue','Helvetica',sans-serif" fill="#A1A1A1" stroke="#000" stroke-opacity="0">Year</text><g class="plotpanel" clip-path="url(#a)"><g class="guide xlabels" font-size="4.76" font-family="'PT Sans Caption','Helvetica Neue','Helvetica',sans-serif" fill="#A1A1A1" text-anchor="middle"><text x="-1.07" y="136.31" dy=".6em">1824</text><text x="13.31" y="136.31" dy=".6em">1836</text><text x="27.7" y="136.31" dy=".6em">1848</text><text x="42.08" y="136.31" dy=".6em">1860</text><text x="56.47" y="136.31" dy=".6em">1872</text><text x="70.85" y="136.31" dy=".6em">1884</text><text x="85.24" y="136.31" dy=".6em">1896</text><text x="99.63" y="136.31" dy=".6em">1908</text><text x="114.01" y="136.31" dy=".6em">1920</text><text x="128.4" y="136.31" dy=".6em">1932</text><text x="142.78" y="136.31" dy=".6em">1944</text><text x="157.17" y="136.31" dy=".6em">1956</text><text x="171.55" y="136.31" dy=".6em">1968</text><text x="185.94" y="136.31" dy=".6em">1980</text><text x="200.32" y="136.31" dy=".6em">1992</text><text x="214.71" y="136.31" dy=".6em">2004</text><text x="229.1" y="136.31" dy=".6em">2016</text></g><g clip-path="url(#b)"><path d="M35.29 72.16H231.1v63.16H35.29z" pointer-events="visible" fill="#222831" stroke="#000" stroke-opacity="0" class="guide background"/><g class="guide ygridlines xfixed" stroke-dasharray="0.5,0.5" stroke-width=".2" stroke="#575757" fill="none"><path d="M35.29 133.31H231.1M35.29 118.52H231.1M35.29 103.73H231.1M35.29 88.94H231.1M35.29 74.16H231.1"/></g><g class="guide xgridlines yfixed" stroke-dasharray="0.5,0.5" stroke-width=".2" stroke="#575757" fill="none"><path d="M-1.07 72.16v63.15M13.31 72.16v63.15M27.7 72.16v63.15M42.08 72.16v63.15M56.47 72.16v63.15M70.85 72.16v63.15M85.24 72.16v63.15M99.63 72.16v63.15M114.01 72.16v63.15M128.4 72.16v63.15M142.78 72.16v63.15M157.17 72.16v63.15M171.55 72.16v63.15M185.94 72.16v63.15M200.32 72.16v63.15M214.71 72.16v63.15M229.1 72.16v63.15"/></g><g class="plotpanel"><path fill="none" d="M42.08 92.39l4.8-18.23h4.79l4.8.21 4.79.37 4.8 1.38 4.79-.29 4.8.4 4.8 4.3 4.79-5.12 4.8.39 4.79 1.76 4.8-.39 4.79 17.59 4.8-18.01 4.79.44 4.8 6.85 4.79-9.45 4.8 1.04 4.79-.07 4.8-1.4 4.79.16 4.8 2.84 4.79-3 4.8.18 4.79-.18h4.8l4.79 8.02 4.8-7.18 4.79-.3 4.8 4.17 4.79-4.71 4.8.28 4.79 11.11 4.8-5.68 4.79-3.62 4.8-1.68 4.79.16 4.8.23" fill-opacity="0" class="geometry" stroke="#FE4365"/><g class="geometry color_RGBA{Float32}(0.9960785f0,0.2627451f0,0.39607847f0,1.0f0)" stroke="#B58486" fill="#FE4365"><use xlink:href="#c" x="42.08" y="92.39"/><use xlink:href="#c" x="46.88" y="74.16"/><use xlink:href="#c" x="51.67" y="74.16"/><use xlink:href="#c" x="56.47" y="74.37"/><use xlink:href="#c" x="61.26" y="74.74"/><use xlink:href="#c" x="66.06" y="76.12"/><use xlink:href="#c" x="70.85" y="75.83"/><use xlink:href="#c" x="75.65" y="76.23"/><use xlink:href="#c" x="80.45" y="80.53"/><use xlink:href="#c" x="85.24" y="75.41"/><use xlink:href="#c" x="90.04" y="75.8"/><use xlink:href="#c" x="94.83" y="77.56"/><use xlink:href="#c" x="99.63" y="77.17"/><use xlink:href="#c" x="104.42" y="94.76"/><use xlink:href="#c" x="109.22" y="76.75"/><use xlink:href="#c" x="114.01" y="77.19"/><use xlink:href="#c" x="118.81" y="84.04"/><use xlink:href="#c" x="123.6" y="74.59"/><use xlink:href="#c" x="128.4" y="75.63"/><use xlink:href="#c" x="133.19" y="75.56"/><use xlink:href="#c" x="137.99" y="74.16"/><use xlink:href="#c" x="142.78" y="74.32"/><use xlink:href="#c" x="147.58" y="77.16"/><use xlink:href="#c" x="152.37" y="74.16"/><use xlink:href="#c" x="157.17" y="74.34"/><use xlink:href="#c" x="161.96" y="74.16"/><use xlink:href="#c" x="166.76" y="74.16"/><use xlink:href="#c" x="171.55" y="82.18"/><use xlink:href="#c" x="176.35" y="75"/><use xlink:href="#c" x="181.14" y="74.7"/><use xlink:href="#c" x="185.94" y="78.87"/><use xlink:href="#c" x="190.73" y="74.16"/><use xlink:href="#c" x="195.53" y="74.44"/><use xlink:href="#c" x="200.32" y="85.55"/><use xlink:href="#c" x="205.12" y="79.87"/><use xlink:href="#c" x="209.91" y="76.25"/><use xlink:href="#c" x="214.71" y="74.57"/><use xlink:href="#c" x="219.5" y="74.73"/><use xlink:href="#c" x="224.3" y="74.96"/></g></g></g><g class="guide ylabels" font-size="4.76" font-family="'PT Sans Caption','Helvetica Neue','Helvetica',sans-serif" fill="#A1A1A1" text-anchor="end"><text x="34.29" y="133.31" dy=".35em">0</text><text x="34.29" y="118.52" dy=".35em">25</text><text x="34.29" y="103.73" dy=".35em">50</text><text x="34.29" y="88.94" dy=".35em">75</text><text x="34.29" y="74.16" dy=".35em">100</text></g><text x="19.86" y="101.73" text-anchor="middle" dy=".35em" transform="rotate(-90 19.86 103.73)" font-size="6.35" font-family="'PT Sans','Helvetica Neue','Helvetica',sans-serif" fill="#A1A1A1" stroke="#000" stroke-opacity="0">Popular</text><g clip-path="url(#d)"><path d="M35.29 7H231.1v61.16H35.29z" pointer-events="visible" fill="#222831" stroke="#000" stroke-opacity="0" class="guide background"/><g class="guide ygridlines xfixed" stroke-dasharray="0.5,0.5" stroke-width=".2" stroke="#575757" fill="none"><path d="M35.29 66.16H231.1M35.29 51.87H231.1M35.29 37.58H231.1M35.29 23.29H231.1M35.29 9H231.1"/></g><g class="guide xgridlines yfixed" stroke-dasharray="0.5,0.5" stroke-width=".2" stroke="#575757" fill="none"><path d="M-1.07 7v61.16M13.31 7v61.16M27.7 7v61.16M42.08 7v61.16M56.47 7v61.16M70.85 7v61.16M85.24 7v61.16M99.63 7v61.16M114.01 7v61.16M128.4 7v61.16M142.78 7v61.16M157.17 7v61.16M171.55 7v61.16M185.94 7v61.16M200.32 7v61.16M214.71 7v61.16M229.1 7v61.16"/></g><g class="plotpanel"><path fill="none" d="M42.08 29.94L46.88 9h28.77l4.8 2.83L85.24 9h14.39l4.79 9.47 4.8-9.47h4.79l4.8 1.4L123.6 9h19.18l4.8 4.2 4.79-4.2h14.39l4.79 4.89 4.8-4.78 4.79-.11h43.16" fill-opacity="0" class="geometry" stroke="#FE4365"/><g class="geometry color_RGBA{Float32}(0.9960785f0,0.2627451f0,0.39607847f0,1.0f0)" stroke="#B58486" fill="#FE4365"><use xlink:href="#e" x="42.08" y="29.94"/><use xlink:href="#e" x="46.88" y="9"/><use xlink:href="#e" x="51.67" y="9"/><use xlink:href="#e" x="56.47" y="9"/><use xlink:href="#e" x="61.26" y="9"/><use xlink:href="#e" x="66.06" y="9"/><use xlink:href="#e" x="70.85" y="9"/><use xlink:href="#e" x="75.65" y="9"/><use xlink:href="#e" x="80.45" y="11.83"/><use xlink:href="#e" x="85.24" y="9"/><use xlink:href="#e" x="90.04" y="9"/><use xlink:href="#e" x="94.83" y="9"/><use xlink:href="#e" x="99.63" y="9"/><use xlink:href="#e" x="104.42" y="18.47"/><use xlink:href="#e" x="109.22" y="9"/><use xlink:href="#e" x="114.01" y="9"/><use xlink:href="#e" x="118.81" y="10.4"/><use xlink:href="#e" x="123.6" y="9"/><use xlink:href="#e" x="128.4" y="9"/><use xlink:href="#e" x="133.19" y="9"/><use xlink:href="#e" x="137.99" y="9"/><use xlink:href="#e" x="142.78" y="9"/><use xlink:href="#e" x="147.58" y="13.2"/><use xlink:href="#e" x="152.37" y="9"/><use xlink:href="#e" x="157.17" y="9"/><use xlink:href="#e" x="161.96" y="9"/><use xlink:href="#e" x="166.76" y="9"/><use xlink:href="#e" x="171.55" y="13.89"/><use xlink:href="#e" x="176.35" y="9.11"/><use xlink:href="#e" x="181.14" y="9"/><use xlink:href="#e" x="185.94" y="9"/><use xlink:href="#e" x="190.73" y="9"/><use xlink:href="#e" x="195.53" y="9"/><use xlink:href="#e" x="200.32" y="9"/><use xlink:href="#e" x="205.12" y="9"/><use xlink:href="#e" x="209.91" y="9"/><use xlink:href="#e" x="214.71" y="9"/><use xlink:href="#e" x="219.5" y="9"/><use xlink:href="#e" x="224.3" y="9"/></g></g></g><g class="guide ylabels" font-size="4.76" font-family="'PT Sans Caption','Helvetica Neue','Helvetica',sans-serif" fill="#A1A1A1" text-anchor="end"><text x="34.29" y="66.16" dy=".35em">0</text><text x="34.29" y="51.87" dy=".35em">25</text><text x="34.29" y="37.58" dy=".35em">50</text><text x="34.29" y="23.29" dy=".35em">75</text><text x="34.29" y="9" dy=".35em">100</text></g><text x="19.86" y="35.58" text-anchor="middle" dy=".35em" transform="rotate(-90 19.86 37.58)" font-size="6.35" font-family="'PT Sans','Helvetica Neue','Helvetica',sans-serif" fill="#A1A1A1" stroke="#000" stroke-opacity="0">Electoral</text></g><text x="9.95" y="71.41" text-anchor="middle" dy=".35em" transform="rotate(-90 9.95 73.41)" font-size="6.35" font-family="'PT Sans','Helvetica Neue','Helvetica',sans-serif" fill="#A1A1A1" stroke="#000" stroke-opacity="0">Percent <tspan font-style="italic" dominant-baseline="inherit"><tspan font-weight="bold" dominant-baseline="inherit">by</tspan></tspan> Category</text></g><defs><clipPath id="b"><path d="M35.29 72.16H231.1v63.15H35.29"/></clipPath><clipPath id="d"><path d="M35.29 7H231.1v61.16H35.29"/></clipPath><clipPath id="a"><path d="M14.91 5H233.1v136.82H14.91"/></clipPath><circle r=".9" id="c"/><circle r=".9" id="e"/></defs></svg>