<?xml version="1.0" encoding="UTF-8"?>
<svg xmlns="http://www.w3.org/2000/svg"
     xmlns:xlink="http://www.w3.org/1999/xlink"
     xmlns:gadfly="http://www.gadflyjl.org/ns"
     version="1.2"
     width="238.1mm" height="158.73mm" viewBox="0 0 238.1 158.73"
     stroke="none"
     fill="#000000"
     stroke-width="0.3"
     font-size="3.88"
>
<g stroke="#000000" stroke-opacity="0.000" fill="#222831" id="img-66da0956-1">
  <rect x="0" y="0" width="238.1" height="158.73"/>
</g>
<g class="plotroot xscalable yscalable" id="img-66da0956-2">
  <g class="guide colorkey" id="img-66da0956-3">
    <g class="color_Democratic" id="img-66da0956-4">
      <g fill="#A1A1A1" font-size="3.7" font-family="'PT Sans','Helvetica Neue','Helvetica',sans-serif" id="img-66da0956-5">
        <text x="51.52" y="148.78" dy="0.35em">Democratic</text>
      </g>
      <g fill="#0000FF" stroke="#000000" stroke-opacity="0.000" id="img-66da0956-6">
        <rect x="48.29" y="147.66" width="2.22" height="2.22"/>
      </g>
    </g>
    <g class="color_Republican" id="img-66da0956-7">
      <g fill="#A1A1A1" font-size="3.7" font-family="'PT Sans','Helvetica Neue','Helvetica',sans-serif" id="img-66da0956-8">
        <text x="29.6" y="148.78" dy="0.35em">Republican</text>
      </g>
      <g fill="#FF0000" stroke="#000000" stroke-opacity="0.000" id="img-66da0956-9">
        <rect x="26.38" y="147.66" width="2.22" height="2.22"/>
      </g>
    </g>
    <g fill="#A1A1A1" font-size="6.35" font-family="'PT Sans','Helvetica Neue','Helvetica',sans-serif" stroke="#000000" stroke-opacity="0.000" id="img-66da0956-10">
      <text x="26.38" y="145.28">Party</text>
    </g>
  </g>
  <g font-size="6.35" font-family="'PT Sans','Helvetica Neue','Helvetica',sans-serif" fill="#A1A1A1" stroke="#000000" stroke-opacity="0.000" id="img-66da0956-11">
    <text x="129.24" y="130.46" text-anchor="middle" dy="0.6em">Year</text>
  </g>
  <g class="guide xlabels" font-size="4.76" font-family="'PT Sans Caption','Helvetica Neue','Helvetica',sans-serif" fill="#A1A1A1" id="img-66da0956-12">
    <text x="27.38" y="121.95" text-anchor="middle" dy="0.6em">1844</text>
    <text x="41.59" y="121.95" text-anchor="middle" dy="0.6em">1856</text>
    <text x="55.8" y="121.95" text-anchor="middle" dy="0.6em">1868</text>
    <text x="70.02" y="121.95" text-anchor="middle" dy="0.6em">1880</text>
    <text x="84.23" y="121.95" text-anchor="middle" dy="0.6em">1892</text>
    <text x="98.44" y="121.95" text-anchor="middle" dy="0.6em">1904</text>
    <text x="112.66" y="121.95" text-anchor="middle" dy="0.6em">1916</text>
    <text x="126.87" y="121.95" text-anchor="middle" dy="0.6em">1928</text>
    <text x="141.08" y="121.95" text-anchor="middle" dy="0.6em">1940</text>
    <text x="155.29" y="121.95" text-anchor="middle" dy="0.6em">1952</text>
    <text x="169.51" y="121.95" text-anchor="middle" dy="0.6em">1964</text>
    <text x="183.72" y="121.95" text-anchor="middle" dy="0.6em">1976</text>
    <text x="197.93" y="121.95" text-anchor="middle" dy="0.6em">1988</text>
    <text x="212.14" y="121.95" text-anchor="middle" dy="0.6em">2000</text>
    <text x="226.36" y="121.95" text-anchor="middle" dy="0.6em">2012</text>
  </g>
<g clip-path="url(#img-66da0956-13)">
  <g id="img-66da0956-14">
    <g pointer-events="visible" opacity="1" fill="#222831" stroke="#000000" stroke-opacity="0.000" class="guide background" id="img-66da0956-15">
      <rect x="25.38" y="12.91" width="207.72" height="108.04"/>
    </g>
    <g class="guide ygridlines xfixed" stroke-dasharray="0.5,0.5" stroke-width="0.2" stroke="#575757" id="img-66da0956-16">
      <path fill="none" d="M25.38,118.95 L 233.1 118.95"/>
      <path fill="none" d="M25.38,92.94 L 233.1 92.94"/>
      <path fill="none" d="M25.38,66.93 L 233.1 66.93"/>
      <path fill="none" d="M25.38,40.92 L 233.1 40.92"/>
      <path fill="none" d="M25.38,14.91 L 233.1 14.91"/>
    </g>
    <g class="guide xgridlines yfixed" stroke-dasharray="0.5,0.5" stroke-width="0.2" stroke="#575757" id="img-66da0956-17">
      <path fill="none" d="M27.38,12.91 L 27.38 120.95"/>
      <path fill="none" d="M41.59,12.91 L 41.59 120.95"/>
      <path fill="none" d="M55.8,12.91 L 55.8 120.95"/>
      <path fill="none" d="M70.02,12.91 L 70.02 120.95"/>
      <path fill="none" d="M84.23,12.91 L 84.23 120.95"/>
      <path fill="none" d="M98.44,12.91 L 98.44 120.95"/>
      <path fill="none" d="M112.66,12.91 L 112.66 120.95"/>
      <path fill="none" d="M126.87,12.91 L 126.87 120.95"/>
      <path fill="none" d="M141.08,12.91 L 141.08 120.95"/>
      <path fill="none" d="M155.29,12.91 L 155.29 120.95"/>
      <path fill="none" d="M169.51,12.91 L 169.51 120.95"/>
      <path fill="none" d="M183.72,12.91 L 183.72 120.95"/>
      <path fill="none" d="M197.93,12.91 L 197.93 120.95"/>
      <path fill="none" d="M212.14,12.91 L 212.14 120.95"/>
      <path fill="none" d="M226.36,12.91 L 226.36 120.95"/>
    </g>
    <g class="plotpanel" id="img-66da0956-18">
      <g class="geometry" id="img-66da0956-19">
        <g stroke-width="0.3" id="img-66da0956-20">
          <use xlink:href="#img-66da0956-21" x="46.33" y="118.95" stroke="#B3867B" fill="#FF0000" class="color_Republican"/>
          <use xlink:href="#img-66da0956-21" x="60.54" y="76.6" stroke="#B3867B" fill="#FF0000" class="color_Republican"/>
          <use xlink:href="#img-66da0956-21" x="65.28" y="87.79" stroke="#B3867B" fill="#FF0000" class="color_Republican"/>
          <use xlink:href="#img-66da0956-21" x="70.02" y="94.04" stroke="#B3867B" fill="#FF0000" class="color_Republican"/>
          <use xlink:href="#img-66da0956-21" x="74.76" y="89.16" stroke="#B3867B" fill="#FF0000" class="color_Republican"/>
          <use xlink:href="#img-66da0956-21" x="79.49" y="93.22" stroke="#B3867B" fill="#FF0000" class="color_Republican"/>
          <use xlink:href="#img-66da0956-21" x="84.23" y="98.95" stroke="#B3867B" fill="#FF0000" class="color_Republican"/>
          <use xlink:href="#img-66da0956-21" x="88.97" y="86.96" stroke="#B3867B" fill="#FF0000" class="color_Republican"/>
          <use xlink:href="#img-66da0956-21" x="93.71" y="86.87" stroke="#B3867B" fill="#FF0000" class="color_Republican"/>
          <use xlink:href="#img-66da0956-21" x="98.44" y="96.17" stroke="#B3867B" fill="#FF0000" class="color_Republican"/>
          <use xlink:href="#img-66da0956-21" x="103.18" y="95.7" stroke="#B3867B" fill="#FF0000" class="color_Republican"/>
          <use xlink:href="#img-66da0956-21" x="107.92" y="109.12" stroke="#B3867B" fill="#FF0000" class="color_Republican"/>
          <use xlink:href="#img-66da0956-21" x="112.66" y="100.8" stroke="#B3867B" fill="#FF0000" class="color_Republican"/>
          <use xlink:href="#img-66da0956-21" x="117.39" y="94.47" stroke="#B3867B" fill="#FF0000" class="color_Republican"/>
          <use xlink:href="#img-66da0956-21" x="122.13" y="98.38" stroke="#B3867B" fill="#FF0000" class="color_Republican"/>
          <use xlink:href="#img-66da0956-21" x="126.87" y="65.09" stroke="#B3867B" fill="#FF0000" class="color_Republican"/>
          <use xlink:href="#img-66da0956-21" x="131.61" y="107.15" stroke="#B3867B" fill="#FF0000" class="color_Republican"/>
          <use xlink:href="#img-66da0956-21" x="136.34" y="106.14" stroke="#B3867B" fill="#FF0000" class="color_Republican"/>
          <use xlink:href="#img-66da0956-21" x="141.08" y="99.28" stroke="#B3867B" fill="#FF0000" class="color_Republican"/>
          <use xlink:href="#img-66da0956-21" x="145.82" y="101.64" stroke="#B3867B" fill="#FF0000" class="color_Republican"/>
          <use xlink:href="#img-66da0956-21" x="150.56" y="93.69" stroke="#B3867B" fill="#FF0000" class="color_Republican"/>
          <use xlink:href="#img-66da0956-21" x="155.29" y="63.68" stroke="#B3867B" fill="#FF0000" class="color_Republican"/>
          <use xlink:href="#img-66da0956-21" x="160.03" y="61.46" stroke="#B3867B" fill="#FF0000" class="color_Republican"/>
          <use xlink:href="#img-66da0956-21" x="164.77" y="68.47" stroke="#B3867B" fill="#FF0000" class="color_Republican"/>
          <use xlink:href="#img-66da0956-21" x="169.51" y="80.99" stroke="#B3867B" fill="#FF0000" class="color_Republican"/>
          <use xlink:href="#img-66da0956-21" x="174.24" y="77.47" stroke="#B3867B" fill="#FF0000" class="color_Republican"/>
          <use xlink:href="#img-66da0956-21" x="178.98" y="50.08" stroke="#B3867B" fill="#FF0000" class="color_Republican"/>
          <use xlink:href="#img-66da0956-21" x="183.72" y="69.04" stroke="#B3867B" fill="#FF0000" class="color_Republican"/>
          <use xlink:href="#img-66da0956-21" x="188.46" y="61.44" stroke="#B3867B" fill="#FF0000" class="color_Republican"/>
          <use xlink:href="#img-66da0956-21" x="193.19" y="52.77" stroke="#B3867B" fill="#FF0000" class="color_Republican"/>
          <use xlink:href="#img-66da0956-21" x="197.93" y="60.74" stroke="#B3867B" fill="#FF0000" class="color_Republican"/>
          <use xlink:href="#img-66da0956-21" x="202.67" y="76.75" stroke="#B3867B" fill="#FF0000" class="color_Republican"/>
          <use xlink:href="#img-66da0956-21" x="207.41" y="68.22" stroke="#B3867B" fill="#FF0000" class="color_Republican"/>
          <use xlink:href="#img-66da0956-21" x="212.14" y="57.26" stroke="#B3867B" fill="#FF0000" class="color_Republican"/>
          <use xlink:href="#img-66da0956-21" x="216.88" y="55.4" stroke="#B3867B" fill="#FF0000" class="color_Republican"/>
          <use xlink:href="#img-66da0956-21" x="221.62" y="61.33" stroke="#B3867B" fill="#FF0000" class="color_Republican"/>
          <use xlink:href="#img-66da0956-21" x="226.36" y="59.52" stroke="#B3867B" fill="#FF0000" class="color_Republican"/>
          <use xlink:href="#img-66da0956-21" x="32.12" y="45.82" stroke="#988BAD" fill="#0000FF" class="color_Democratic"/>
          <use xlink:href="#img-66da0956-21" x="36.85" y="42.93" stroke="#988BAD" fill="#0000FF" class="color_Democratic"/>
          <use xlink:href="#img-66da0956-21" x="41.59" y="49.67" stroke="#988BAD" fill="#0000FF" class="color_Democratic"/>
          <use xlink:href="#img-66da0956-21" x="46.33" y="118.95" stroke="#988BAD" fill="#0000FF" class="color_Democratic"/>
          <use xlink:href="#img-66da0956-21" x="60.54" y="59.57" stroke="#988BAD" fill="#0000FF" class="color_Democratic"/>
          <use xlink:href="#img-66da0956-21" x="65.28" y="46.08" stroke="#988BAD" fill="#0000FF" class="color_Democratic"/>
          <use xlink:href="#img-66da0956-21" x="70.02" y="51.62" stroke="#988BAD" fill="#0000FF" class="color_Democratic"/>
          <use xlink:href="#img-66da0956-21" x="74.76" y="46.89" stroke="#988BAD" fill="#0000FF" class="color_Democratic"/>
          <use xlink:href="#img-66da0956-21" x="79.49" y="50.6" stroke="#988BAD" fill="#0000FF" class="color_Democratic"/>
          <use xlink:href="#img-66da0956-21" x="84.23" y="60.01" stroke="#988BAD" fill="#0000FF" class="color_Democratic"/>
          <use xlink:href="#img-66da0956-21" x="88.97" y="48.21" stroke="#988BAD" fill="#0000FF" class="color_Democratic"/>
          <use xlink:href="#img-66da0956-21" x="93.71" y="53.28" stroke="#988BAD" fill="#0000FF" class="color_Democratic"/>
          <use xlink:href="#img-66da0956-21" x="98.44" y="44.61" stroke="#988BAD" fill="#0000FF" class="color_Democratic"/>
          <use xlink:href="#img-66da0956-21" x="103.18" y="41.99" stroke="#988BAD" fill="#0000FF" class="color_Democratic"/>
          <use xlink:href="#img-66da0956-21" x="107.92" y="43.28" stroke="#988BAD" fill="#0000FF" class="color_Democratic"/>
          <use xlink:href="#img-66da0956-21" x="112.66" y="38.92" stroke="#988BAD" fill="#0000FF" class="color_Democratic"/>
          <use xlink:href="#img-66da0956-21" x="117.39" y="57.22" stroke="#988BAD" fill="#0000FF" class="color_Democratic"/>
          <use xlink:href="#img-66da0956-21" x="122.13" y="42.27" stroke="#988BAD" fill="#0000FF" class="color_Democratic"/>
          <use xlink:href="#img-66da0956-21" x="126.87" y="68.91" stroke="#988BAD" fill="#0000FF" class="color_Democratic"/>
          <use xlink:href="#img-66da0956-21" x="131.61" y="27.33" stroke="#988BAD" fill="#0000FF" class="color_Democratic"/>
          <use xlink:href="#img-66da0956-21" x="136.34" y="28.35" stroke="#988BAD" fill="#0000FF" class="color_Democratic"/>
          <use xlink:href="#img-66da0956-21" x="141.08" y="34.76" stroke="#988BAD" fill="#0000FF" class="color_Democratic"/>
          <use xlink:href="#img-66da0956-21" x="145.82" y="44.64" stroke="#988BAD" fill="#0000FF" class="color_Democratic"/>
          <use xlink:href="#img-66da0956-21" x="150.56" y="50.32" stroke="#988BAD" fill="#0000FF" class="color_Democratic"/>
          <use xlink:href="#img-66da0956-21" x="155.29" y="70.38" stroke="#988BAD" fill="#0000FF" class="color_Democratic"/>
          <use xlink:href="#img-66da0956-21" x="160.03" y="73.2" stroke="#988BAD" fill="#0000FF" class="color_Democratic"/>
          <use xlink:href="#img-66da0956-21" x="164.77" y="66.39" stroke="#988BAD" fill="#0000FF" class="color_Democratic"/>
          <use xlink:href="#img-66da0956-21" x="169.51" y="53.08" stroke="#988BAD" fill="#0000FF" class="color_Democratic"/>
          <use xlink:href="#img-66da0956-21" x="174.24" y="76.15" stroke="#988BAD" fill="#0000FF" class="color_Democratic"/>
          <use xlink:href="#img-66da0956-21" x="178.98" y="84.37" stroke="#988BAD" fill="#0000FF" class="color_Democratic"/>
          <use xlink:href="#img-66da0956-21" x="183.72" y="65.75" stroke="#988BAD" fill="#0000FF" class="color_Democratic"/>
          <use xlink:href="#img-66da0956-21" x="188.46" y="75.86" stroke="#988BAD" fill="#0000FF" class="color_Democratic"/>
          <use xlink:href="#img-66da0956-21" x="193.19" y="81.38" stroke="#988BAD" fill="#0000FF" class="color_Democratic"/>
          <use xlink:href="#img-66da0956-21" x="197.93" y="73.85" stroke="#988BAD" fill="#0000FF" class="color_Democratic"/>
          <use xlink:href="#img-66da0956-21" x="202.67" y="80.38" stroke="#988BAD" fill="#0000FF" class="color_Democratic"/>
          <use xlink:href="#img-66da0956-21" x="207.41" y="73.35" stroke="#988BAD" fill="#0000FF" class="color_Democratic"/>
          <use xlink:href="#img-66da0956-21" x="212.14" y="79.44" stroke="#988BAD" fill="#0000FF" class="color_Democratic"/>
          <use xlink:href="#img-66da0956-21" x="216.88" y="79.18" stroke="#988BAD" fill="#0000FF" class="color_Democratic"/>
          <use xlink:href="#img-66da0956-21" x="221.62" y="73.56" stroke="#988BAD" fill="#0000FF" class="color_Democratic"/>
          <use xlink:href="#img-66da0956-21" x="226.36" y="75.93" stroke="#988BAD" fill="#0000FF" class="color_Democratic"/>
        </g>
      </g>
      <g stroke-width="0.3" fill="#000000" fill-opacity="0.000" stroke-dasharray="none" id="img-66da0956-22">
        <path fill="none" d="M32.12,45.82 L 36.85 42.93 41.59 49.67 46.33 118.95 60.54 59.57 65.28 46.08 70.02 51.62 74.76 46.89 79.49 50.6 84.23 60.01 88.97 48.21 93.71 53.28 98.44 44.61 103.18 41.99 107.92 43.28 112.66 38.92 117.39 57.22 122.13 42.27 126.87 68.91 131.61 27.33 136.34 28.35 141.08 34.76 145.82 44.64 150.56 50.32 155.29 70.38 160.03 73.2 164.77 66.39 169.51 53.08 174.24 76.15 178.98 84.37 183.72 65.75 188.46 75.86 193.19 81.38 197.93 73.85 202.67 80.38 207.41 73.35 212.14 79.44 216.88 79.18 221.62 73.56 226.36 75.93" stroke="#0000FF" class="geometry color_Democratic"/>
        <path fill="none" d="M46.33,118.95 L 60.54 76.6 65.28 87.79 70.02 94.04 74.76 89.16 79.49 93.22 84.23 98.95 88.97 86.96 93.71 86.87 98.44 96.17 103.18 95.7 107.92 109.12 112.66 100.8 117.39 94.47 122.13 98.38 126.87 65.09 131.61 107.15 136.34 106.14 141.08 99.28 145.82 101.64 150.56 93.69 155.29 63.68 160.03 61.46 164.77 68.47 169.51 80.99 174.24 77.47 178.98 50.08 183.72 69.04 188.46 61.44 193.19 52.77 197.93 60.74 202.67 76.75 207.41 68.22 212.14 57.26 216.88 55.4 221.62 61.33 226.36 59.52" stroke="#FF0000" class="geometry color_Republican"/>
      </g>
    </g>
  </g>
</g>
  <g class="guide ylabels" font-size="4.76" font-family="'PT Sans Caption','Helvetica Neue','Helvetica',sans-serif" fill="#A1A1A1" id="img-66da0956-23">
    <text x="24.38" y="118.95" text-anchor="end" dy="0.35em">0</text>
    <text x="24.38" y="92.94" text-anchor="end" dy="0.35em">25</text>
    <text x="24.38" y="66.93" text-anchor="end" dy="0.35em">50</text>
    <text x="24.38" y="40.92" text-anchor="end" dy="0.35em">75</text>
    <text x="24.38" y="14.91" text-anchor="end" dy="0.35em">100</text>
  </g>
  <g font-size="6.35" font-family="'PT Sans','Helvetica Neue','Helvetica',sans-serif" fill="#A1A1A1" stroke="#000000" stroke-opacity="0.000" id="img-66da0956-24">
    <text x="9.95" y="64.93" text-anchor="middle" dy="0.35em" transform="rotate(-90, 9.95, 66.93)">Popular Vote (%)</text>
  </g>
  <g font-size="6.35" font-family="'PT Sans','Helvetica Neue','Helvetica',sans-serif" fill="#A1A1A1" stroke="#000000" stroke-opacity="0.000" id="img-66da0956-25">
    <text x="129.24" y="5" text-anchor="middle" dy="0.6em">Texas</text>
  </g>
</g>
<defs>
  <clipPath id="img-66da0956-13">
  <path d="M25.38,12.91 L 233.1 12.91 233.1 120.95 25.38 120.95" />
</clipPath>
  <g id="img-66da0956-21">
    <circle cx="0" cy="0" r="0.9"/>
  </g>
</defs>
</svg>
