<?xml version="1.0" encoding="UTF-8"?>
<svg xmlns="http://www.w3.org/2000/svg"
     xmlns:xlink="http://www.w3.org/1999/xlink"
     xmlns:gadfly="http://www.gadflyjl.org/ns"
     version="1.2"
     width="320mm" height="160mm" viewBox="0 0 320 160"
     stroke="none"
     fill="#000000"
     stroke-width="0.3"
     font-size="3.88"
>
<g class="plotroot xscalable yscalable" id="img-115d7dc4-1">
  <g class="guide colorkey" id="img-115d7dc4-2">
    <g class="color_Democratic" id="img-115d7dc4-3">
      <g fill="#4C404B" font-size="4.76" font-family="'PT Sans','Helvetica Neue','Helvetica',sans-serif" id="img-115d7dc4-4">
        <text x="61.86" y="150" dy="0.35em">Democratic</text>
      </g>
      <g fill="#0000FF" stroke="#000000" stroke-opacity="0.000" id="img-115d7dc4-5">
        <rect x="57.89" y="148.52" width="2.97" height="2.97"/>
      </g>
    </g>
    <g class="color_Republican" id="img-115d7dc4-6">
      <g fill="#4C404B" font-size="4.76" font-family="'PT Sans','Helvetica Neue','Helvetica',sans-serif" id="img-115d7dc4-7">
        <text x="30.79" y="150" dy="0.35em">Republican</text>
      </g>
      <g fill="#FF0000" stroke="#000000" stroke-opacity="0.000" id="img-115d7dc4-8">
        <rect x="26.82" y="148.52" width="2.97" height="2.97"/>
      </g>
    </g>
    <g fill="#362A35" font-size="6.35" font-family="'PT Sans','Helvetica Neue','Helvetica',sans-serif" stroke="#000000" stroke-opacity="0.000" id="img-115d7dc4-9">
      <text x="26.82" y="145.06">Party</text>
    </g>
  </g>
  <g font-size="6.35" font-family="'PT Sans','Helvetica Neue','Helvetica',sans-serif" fill="#564A55" stroke="#000000" stroke-opacity="0.000" id="img-115d7dc4-10">
    <text x="170.41" y="131.48" text-anchor="middle" dy="0.6em">Year</text>
  </g>
  <g class="guide xlabels" font-size="4.76" font-family="'PT Sans Caption','Helvetica Neue','Helvetica',sans-serif" fill="#6C606B" id="img-115d7dc4-11">
    <text x="27.82" y="123.95" text-anchor="middle" dy="0.6em">1844</text>
    <text x="47.71" y="123.95" text-anchor="middle" dy="0.6em">1856</text>
    <text x="67.61" y="123.95" text-anchor="middle" dy="0.6em">1868</text>
    <text x="87.51" y="123.95" text-anchor="middle" dy="0.6em">1880</text>
    <text x="107.4" y="123.95" text-anchor="middle" dy="0.6em">1892</text>
    <text x="127.3" y="123.95" text-anchor="middle" dy="0.6em">1904</text>
    <text x="147.2" y="123.95" text-anchor="middle" dy="0.6em">1916</text>
    <text x="167.09" y="123.95" text-anchor="middle" dy="0.6em">1928</text>
    <text x="186.99" y="123.95" text-anchor="middle" dy="0.6em">1940</text>
    <text x="206.89" y="123.95" text-anchor="middle" dy="0.6em">1952</text>
    <text x="226.78" y="123.95" text-anchor="middle" dy="0.6em">1964</text>
    <text x="246.68" y="123.95" text-anchor="middle" dy="0.6em">1976</text>
    <text x="266.57" y="123.95" text-anchor="middle" dy="0.6em">1988</text>
    <text x="286.47" y="123.95" text-anchor="middle" dy="0.6em">2000</text>
    <text x="306.37" y="123.95" text-anchor="middle" dy="0.6em">2012</text>
  </g>
<g clip-path="url(#img-115d7dc4-12)">
  <g id="img-115d7dc4-13">
    <g pointer-events="visible" opacity="1" fill="#000000" fill-opacity="0.000" stroke="#000000" stroke-opacity="0.000" class="guide background" id="img-115d7dc4-14">
      <rect x="25.82" y="13.59" width="289.18" height="109.36"/>
    </g>
    <g class="guide ygridlines xfixed" stroke-dasharray="0.5,0.5" stroke-width="0.26" stroke="#000000" id="img-115d7dc4-15">
      <path fill="none" d="M25.82,120.95 L 315 120.95"/>
      <path fill="none" d="M25.82,94.61 L 315 94.61"/>
      <path fill="none" d="M25.82,68.27 L 315 68.27"/>
      <path fill="none" d="M25.82,41.93 L 315 41.93"/>
      <path fill="none" d="M25.82,15.59 L 315 15.59"/>
    </g>
    <g class="guide xgridlines yfixed" stroke-dasharray="0.5,0.5" stroke-width="0.26" stroke="#000000" id="img-115d7dc4-16">
      <path fill="none" d="M27.82,13.59 L 27.82 122.95"/>
      <path fill="none" d="M47.71,13.59 L 47.71 122.95"/>
      <path fill="none" d="M67.61,13.59 L 67.61 122.95"/>
      <path fill="none" d="M87.51,13.59 L 87.51 122.95"/>
      <path fill="none" d="M107.4,13.59 L 107.4 122.95"/>
      <path fill="none" d="M127.3,13.59 L 127.3 122.95"/>
      <path fill="none" d="M147.2,13.59 L 147.2 122.95"/>
      <path fill="none" d="M167.09,13.59 L 167.09 122.95"/>
      <path fill="none" d="M186.99,13.59 L 186.99 122.95"/>
      <path fill="none" d="M206.89,13.59 L 206.89 122.95"/>
      <path fill="none" d="M226.78,13.59 L 226.78 122.95"/>
      <path fill="none" d="M246.68,13.59 L 246.68 122.95"/>
      <path fill="none" d="M266.57,13.59 L 266.57 122.95"/>
      <path fill="none" d="M286.47,13.59 L 286.47 122.95"/>
      <path fill="none" d="M306.37,13.59 L 306.37 122.95"/>
    </g>
    <g class="plotpanel" id="img-115d7dc4-17">
      <g class="geometry" id="img-115d7dc4-18">
        <g stroke-width="0.3" id="img-115d7dc4-19">
          <use xlink:href="#img-115d7dc4-20" x="54.35" y="120.95" fill="#FF0000" class="color_Republican" stroke="#FFFFFF"/>
          <use xlink:href="#img-115d7dc4-20" x="74.24" y="78.05" fill="#FF0000" class="color_Republican" stroke="#FFFFFF"/>
          <use xlink:href="#img-115d7dc4-20" x="80.87" y="89.39" fill="#FF0000" class="color_Republican" stroke="#FFFFFF"/>
          <use xlink:href="#img-115d7dc4-20" x="87.51" y="95.72" fill="#FF0000" class="color_Republican" stroke="#FFFFFF"/>
          <use xlink:href="#img-115d7dc4-20" x="94.14" y="90.78" fill="#FF0000" class="color_Republican" stroke="#FFFFFF"/>
          <use xlink:href="#img-115d7dc4-20" x="100.77" y="94.89" fill="#FF0000" class="color_Republican" stroke="#FFFFFF"/>
          <use xlink:href="#img-115d7dc4-20" x="107.4" y="100.7" fill="#FF0000" class="color_Republican" stroke="#FFFFFF"/>
          <use xlink:href="#img-115d7dc4-20" x="114.03" y="88.55" fill="#FF0000" class="color_Republican" stroke="#FFFFFF"/>
          <use xlink:href="#img-115d7dc4-20" x="120.67" y="88.46" fill="#FF0000" class="color_Republican" stroke="#FFFFFF"/>
          <use xlink:href="#img-115d7dc4-20" x="127.3" y="97.88" fill="#FF0000" class="color_Republican" stroke="#FFFFFF"/>
          <use xlink:href="#img-115d7dc4-20" x="133.93" y="97.4" fill="#FF0000" class="color_Republican" stroke="#FFFFFF"/>
          <use xlink:href="#img-115d7dc4-20" x="140.56" y="110.99" fill="#FF0000" class="color_Republican" stroke="#FFFFFF"/>
          <use xlink:href="#img-115d7dc4-20" x="147.2" y="102.56" fill="#FF0000" class="color_Republican" stroke="#FFFFFF"/>
          <use xlink:href="#img-115d7dc4-20" x="153.83" y="96.15" fill="#FF0000" class="color_Republican" stroke="#FFFFFF"/>
          <use xlink:href="#img-115d7dc4-20" x="160.46" y="100.11" fill="#FF0000" class="color_Republican" stroke="#FFFFFF"/>
          <use xlink:href="#img-115d7dc4-20" x="167.09" y="66.41" fill="#FF0000" class="color_Republican" stroke="#FFFFFF"/>
          <use xlink:href="#img-115d7dc4-20" x="173.72" y="109" fill="#FF0000" class="color_Republican" stroke="#FFFFFF"/>
          <use xlink:href="#img-115d7dc4-20" x="180.36" y="107.97" fill="#FF0000" class="color_Republican" stroke="#FFFFFF"/>
          <use xlink:href="#img-115d7dc4-20" x="186.99" y="101.02" fill="#FF0000" class="color_Republican" stroke="#FFFFFF"/>
          <use xlink:href="#img-115d7dc4-20" x="193.62" y="103.42" fill="#FF0000" class="color_Republican" stroke="#FFFFFF"/>
          <use xlink:href="#img-115d7dc4-20" x="200.25" y="95.36" fill="#FF0000" class="color_Republican" stroke="#FFFFFF"/>
          <use xlink:href="#img-115d7dc4-20" x="206.89" y="64.97" fill="#FF0000" class="color_Republican" stroke="#FFFFFF"/>
          <use xlink:href="#img-115d7dc4-20" x="213.52" y="62.73" fill="#FF0000" class="color_Republican" stroke="#FFFFFF"/>
          <use xlink:href="#img-115d7dc4-20" x="220.15" y="69.83" fill="#FF0000" class="color_Republican" stroke="#FFFFFF"/>
          <use xlink:href="#img-115d7dc4-20" x="226.78" y="82.5" fill="#FF0000" class="color_Republican" stroke="#FFFFFF"/>
          <use xlink:href="#img-115d7dc4-20" x="233.41" y="78.94" fill="#FF0000" class="color_Republican" stroke="#FFFFFF"/>
          <use xlink:href="#img-115d7dc4-20" x="240.05" y="51.2" fill="#FF0000" class="color_Republican" stroke="#FFFFFF"/>
          <use xlink:href="#img-115d7dc4-20" x="246.68" y="70.41" fill="#FF0000" class="color_Republican" stroke="#FFFFFF"/>
          <use xlink:href="#img-115d7dc4-20" x="253.31" y="62.7" fill="#FF0000" class="color_Republican" stroke="#FFFFFF"/>
          <use xlink:href="#img-115d7dc4-20" x="259.94" y="53.93" fill="#FF0000" class="color_Republican" stroke="#FFFFFF"/>
          <use xlink:href="#img-115d7dc4-20" x="266.57" y="62" fill="#FF0000" class="color_Republican" stroke="#FFFFFF"/>
          <use xlink:href="#img-115d7dc4-20" x="273.21" y="78.21" fill="#FF0000" class="color_Republican" stroke="#FFFFFF"/>
          <use xlink:href="#img-115d7dc4-20" x="279.84" y="69.58" fill="#FF0000" class="color_Republican" stroke="#FFFFFF"/>
          <use xlink:href="#img-115d7dc4-20" x="286.47" y="58.47" fill="#FF0000" class="color_Republican" stroke="#FFFFFF"/>
          <use xlink:href="#img-115d7dc4-20" x="293.1" y="56.59" fill="#FF0000" class="color_Republican" stroke="#FFFFFF"/>
          <use xlink:href="#img-115d7dc4-20" x="299.74" y="62.6" fill="#FF0000" class="color_Republican" stroke="#FFFFFF"/>
          <use xlink:href="#img-115d7dc4-20" x="306.37" y="60.76" fill="#FF0000" class="color_Republican" stroke="#FFFFFF"/>
          <use xlink:href="#img-115d7dc4-20" x="34.45" y="46.89" fill="#0000FF" class="color_Democratic" stroke="#FFFFFF"/>
          <use xlink:href="#img-115d7dc4-20" x="41.08" y="43.96" fill="#0000FF" class="color_Democratic" stroke="#FFFFFF"/>
          <use xlink:href="#img-115d7dc4-20" x="47.71" y="50.79" fill="#0000FF" class="color_Democratic" stroke="#FFFFFF"/>
          <use xlink:href="#img-115d7dc4-20" x="54.35" y="120.95" fill="#0000FF" class="color_Democratic" stroke="#FFFFFF"/>
          <use xlink:href="#img-115d7dc4-20" x="74.24" y="60.81" fill="#0000FF" class="color_Democratic" stroke="#FFFFFF"/>
          <use xlink:href="#img-115d7dc4-20" x="80.87" y="47.15" fill="#0000FF" class="color_Democratic" stroke="#FFFFFF"/>
          <use xlink:href="#img-115d7dc4-20" x="87.51" y="52.77" fill="#0000FF" class="color_Democratic" stroke="#FFFFFF"/>
          <use xlink:href="#img-115d7dc4-20" x="94.14" y="47.97" fill="#0000FF" class="color_Democratic" stroke="#FFFFFF"/>
          <use xlink:href="#img-115d7dc4-20" x="100.77" y="51.73" fill="#0000FF" class="color_Democratic" stroke="#FFFFFF"/>
          <use xlink:href="#img-115d7dc4-20" x="107.4" y="61.26" fill="#0000FF" class="color_Democratic" stroke="#FFFFFF"/>
          <use xlink:href="#img-115d7dc4-20" x="114.03" y="49.31" fill="#0000FF" class="color_Democratic" stroke="#FFFFFF"/>
          <use xlink:href="#img-115d7dc4-20" x="120.67" y="54.45" fill="#0000FF" class="color_Democratic" stroke="#FFFFFF"/>
          <use xlink:href="#img-115d7dc4-20" x="127.3" y="45.67" fill="#0000FF" class="color_Democratic" stroke="#FFFFFF"/>
          <use xlink:href="#img-115d7dc4-20" x="133.93" y="43.01" fill="#0000FF" class="color_Democratic" stroke="#FFFFFF"/>
          <use xlink:href="#img-115d7dc4-20" x="140.56" y="44.32" fill="#0000FF" class="color_Democratic" stroke="#FFFFFF"/>
          <use xlink:href="#img-115d7dc4-20" x="147.2" y="39.9" fill="#0000FF" class="color_Democratic" stroke="#FFFFFF"/>
          <use xlink:href="#img-115d7dc4-20" x="153.83" y="58.43" fill="#0000FF" class="color_Democratic" stroke="#FFFFFF"/>
          <use xlink:href="#img-115d7dc4-20" x="160.46" y="43.29" fill="#0000FF" class="color_Democratic" stroke="#FFFFFF"/>
          <use xlink:href="#img-115d7dc4-20" x="167.09" y="70.27" fill="#0000FF" class="color_Democratic" stroke="#FFFFFF"/>
          <use xlink:href="#img-115d7dc4-20" x="173.72" y="28.16" fill="#0000FF" class="color_Democratic" stroke="#FFFFFF"/>
          <use xlink:href="#img-115d7dc4-20" x="180.36" y="29.2" fill="#0000FF" class="color_Democratic" stroke="#FFFFFF"/>
          <use xlink:href="#img-115d7dc4-20" x="186.99" y="35.69" fill="#0000FF" class="color_Democratic" stroke="#FFFFFF"/>
          <use xlink:href="#img-115d7dc4-20" x="193.62" y="45.7" fill="#0000FF" class="color_Democratic" stroke="#FFFFFF"/>
          <use xlink:href="#img-115d7dc4-20" x="200.25" y="51.45" fill="#0000FF" class="color_Democratic" stroke="#FFFFFF"/>
          <use xlink:href="#img-115d7dc4-20" x="206.89" y="71.76" fill="#0000FF" class="color_Democratic" stroke="#FFFFFF"/>
          <use xlink:href="#img-115d7dc4-20" x="213.52" y="74.62" fill="#0000FF" class="color_Democratic" stroke="#FFFFFF"/>
          <use xlink:href="#img-115d7dc4-20" x="220.15" y="67.72" fill="#0000FF" class="color_Democratic" stroke="#FFFFFF"/>
          <use xlink:href="#img-115d7dc4-20" x="226.78" y="54.24" fill="#0000FF" class="color_Democratic" stroke="#FFFFFF"/>
          <use xlink:href="#img-115d7dc4-20" x="233.41" y="77.61" fill="#0000FF" class="color_Democratic" stroke="#FFFFFF"/>
          <use xlink:href="#img-115d7dc4-20" x="240.05" y="85.93" fill="#0000FF" class="color_Democratic" stroke="#FFFFFF"/>
          <use xlink:href="#img-115d7dc4-20" x="246.68" y="67.07" fill="#0000FF" class="color_Democratic" stroke="#FFFFFF"/>
          <use xlink:href="#img-115d7dc4-20" x="253.31" y="77.31" fill="#0000FF" class="color_Democratic" stroke="#FFFFFF"/>
          <use xlink:href="#img-115d7dc4-20" x="259.94" y="82.9" fill="#0000FF" class="color_Democratic" stroke="#FFFFFF"/>
          <use xlink:href="#img-115d7dc4-20" x="266.57" y="75.28" fill="#0000FF" class="color_Democratic" stroke="#FFFFFF"/>
          <use xlink:href="#img-115d7dc4-20" x="273.21" y="81.88" fill="#0000FF" class="color_Democratic" stroke="#FFFFFF"/>
          <use xlink:href="#img-115d7dc4-20" x="279.84" y="74.77" fill="#0000FF" class="color_Democratic" stroke="#FFFFFF"/>
          <use xlink:href="#img-115d7dc4-20" x="286.47" y="80.93" fill="#0000FF" class="color_Democratic" stroke="#FFFFFF"/>
          <use xlink:href="#img-115d7dc4-20" x="293.1" y="80.68" fill="#0000FF" class="color_Democratic" stroke="#FFFFFF"/>
          <use xlink:href="#img-115d7dc4-20" x="299.74" y="74.98" fill="#0000FF" class="color_Democratic" stroke="#FFFFFF"/>
          <use xlink:href="#img-115d7dc4-20" x="306.37" y="77.38" fill="#0000FF" class="color_Democratic" stroke="#FFFFFF"/>
        </g>
      </g>
      <g stroke-width="0.53" fill="#000000" fill-opacity="0.000" stroke-dasharray="none" id="img-115d7dc4-21">
        <path fill="none" d="M34.45,46.89 L 41.08 43.96 47.71 50.79 54.35 120.95 74.24 60.81 80.87 47.15 87.51 52.77 94.14 47.97 100.77 51.73 107.4 61.26 114.03 49.31 120.67 54.45 127.3 45.67 133.93 43.01 140.56 44.32 147.2 39.9 153.83 58.43 160.46 43.29 167.09 70.27 173.72 28.16 180.36 29.2 186.99 35.69 193.62 45.7 200.25 51.45 206.89 71.76 213.52 74.62 220.15 67.72 226.78 54.24 233.41 77.61 240.05 85.93 246.68 67.07 253.31 77.31 259.94 82.9 266.57 75.28 273.21 81.88 279.84 74.77 286.47 80.93 293.1 80.68 299.74 74.98 306.37 77.38" class="geometry color_Democratic" stroke="#0000FF"/>
        <path fill="none" d="M54.35,120.95 L 74.24 78.05 80.87 89.39 87.51 95.72 94.14 90.78 100.77 94.89 107.4 100.7 114.03 88.55 120.67 88.46 127.3 97.88 133.93 97.4 140.56 110.99 147.2 102.56 153.83 96.15 160.46 100.11 167.09 66.41 173.72 109 180.36 107.97 186.99 101.02 193.62 103.42 200.25 95.36 206.89 64.97 213.52 62.73 220.15 69.83 226.78 82.5 233.41 78.94 240.05 51.2 246.68 70.41 253.31 62.7 259.94 53.93 266.57 62 273.21 78.21 279.84 69.58 286.47 58.47 293.1 56.59 299.74 62.6 306.37 60.76" class="geometry color_Republican" stroke="#FF0000"/>
      </g>
    </g>
  </g>
</g>
  <g class="guide ylabels" font-size="4.76" font-family="'PT Sans Caption','Helvetica Neue','Helvetica',sans-serif" fill="#6C606B" id="img-115d7dc4-22">
    <text x="24.82" y="120.95" text-anchor="end" dy="0.35em">0</text>
    <text x="24.82" y="94.61" text-anchor="end" dy="0.35em">25</text>
    <text x="24.82" y="68.27" text-anchor="end" dy="0.35em">50</text>
    <text x="24.82" y="41.93" text-anchor="end" dy="0.35em">75</text>
    <text x="24.82" y="15.59" text-anchor="end" dy="0.35em">100</text>
  </g>
  <g font-size="6.35" font-family="'PT Sans','Helvetica Neue','Helvetica',sans-serif" fill="#564A55" stroke="#000000" stroke-opacity="0.000" id="img-115d7dc4-23">
    <text x="10.18" y="66.27" text-anchor="middle" dy="0.35em" transform="rotate(-90, 10.18, 68.27)">Popular Vote (%)</text>
  </g>
  <g font-size="6.35" font-family="'PT Sans','Helvetica Neue','Helvetica',sans-serif" fill="#564A55" stroke="#000000" stroke-opacity="0.000" id="img-115d7dc4-24">
    <text x="170.41" y="11.59" text-anchor="middle">Texas</text>
  </g>
</g>
<defs>
  <clipPath id="img-115d7dc4-12">
  <path d="M25.82,13.59 L 315 13.59 315 122.95 25.82 122.95" />
</clipPath>
  <g id="img-115d7dc4-20">
    <circle cx="0" cy="0" r="0.9"/>
  </g>
</defs>
</svg>
