<?xml version="1.0" encoding="UTF-8"?>
<svg xmlns="http://www.w3.org/2000/svg"
     xmlns:xlink="http://www.w3.org/1999/xlink"
     xmlns:gadfly="http://www.gadflyjl.org/ns"
     version="1.2"
     width="238.1mm" height="158.73mm" viewBox="0 0 238.1 158.73"
     stroke="none"
     fill="#000000"
     stroke-width="0.3"
     font-size="3.88"
>
<g stroke="#000000" stroke-opacity="0.000" fill="#222831" id="img-0b2e2761-1">
  <rect x="0" y="0" width="238.1" height="158.73"/>
</g>
<g class="plotroot xscalable yscalable" id="img-0b2e2761-2">
  <g font-size="6.35" font-family="'PT Sans','Helvetica Neue','Helvetica',sans-serif" fill="#A1A1A1" stroke="#000000" stroke-opacity="0.000" id="img-0b2e2761-3">
    <text x="124" y="144.82" text-anchor="middle" dy="0.6em">Year</text>
  </g>
<g clip-path="url(#img-0b2e2761-4)">
  <g id="img-0b2e2761-5">
    <g class="plotpanel" id="img-0b2e2761-6">
      <g class="guide xlabels" font-size="4.76" font-family="'PT Sans Caption','Helvetica Neue','Helvetica',sans-serif" fill="#A1A1A1" id="img-0b2e2761-7">
        <text x="-1.07" y="136.31" text-anchor="middle" dy="0.6em">1824</text>
        <text x="13.31" y="136.31" text-anchor="middle" dy="0.6em">1836</text>
        <text x="27.7" y="136.31" text-anchor="middle" dy="0.6em">1848</text>
        <text x="42.08" y="136.31" text-anchor="middle" dy="0.6em">1860</text>
        <text x="56.47" y="136.31" text-anchor="middle" dy="0.6em">1872</text>
        <text x="70.85" y="136.31" text-anchor="middle" dy="0.6em">1884</text>
        <text x="85.24" y="136.31" text-anchor="middle" dy="0.6em">1896</text>
        <text x="99.63" y="136.31" text-anchor="middle" dy="0.6em">1908</text>
        <text x="114.01" y="136.31" text-anchor="middle" dy="0.6em">1920</text>
        <text x="128.4" y="136.31" text-anchor="middle" dy="0.6em">1932</text>
        <text x="142.78" y="136.31" text-anchor="middle" dy="0.6em">1944</text>
        <text x="157.17" y="136.31" text-anchor="middle" dy="0.6em">1956</text>
        <text x="171.55" y="136.31" text-anchor="middle" dy="0.6em">1968</text>
        <text x="185.94" y="136.31" text-anchor="middle" dy="0.6em">1980</text>
        <text x="200.32" y="136.31" text-anchor="middle" dy="0.6em">1992</text>
        <text x="214.71" y="136.31" text-anchor="middle" dy="0.6em">2004</text>
        <text x="229.1" y="136.31" text-anchor="middle" dy="0.6em">2016</text>
      </g>
<g clip-path="url(#img-0b2e2761-8)">
      <g id="img-0b2e2761-9">
        <g pointer-events="visible" opacity="1" fill="#222831" stroke="#000000" stroke-opacity="0.000" class="guide background" id="img-0b2e2761-10">
          <rect x="35.29" y="72.16" width="195.81" height="63.16"/>
        </g>
        <g class="guide ygridlines xfixed" stroke-dasharray="0.5,0.5" stroke-width="0.2" stroke="#575757" id="img-0b2e2761-11">
          <path fill="none" d="M35.29,133.31 L 231.1 133.31"/>
          <path fill="none" d="M35.29,118.52 L 231.1 118.52"/>
          <path fill="none" d="M35.29,103.73 L 231.1 103.73"/>
          <path fill="none" d="M35.29,88.94 L 231.1 88.94"/>
          <path fill="none" d="M35.29,74.16 L 231.1 74.16"/>
        </g>
        <g class="guide xgridlines yfixed" stroke-dasharray="0.5,0.5" stroke-width="0.2" stroke="#575757" id="img-0b2e2761-12">
          <path fill="none" d="M-1.07,72.16 L -1.07 135.31"/>
          <path fill="none" d="M13.31,72.16 L 13.31 135.31"/>
          <path fill="none" d="M27.7,72.16 L 27.7 135.31"/>
          <path fill="none" d="M42.08,72.16 L 42.08 135.31"/>
          <path fill="none" d="M56.47,72.16 L 56.47 135.31"/>
          <path fill="none" d="M70.85,72.16 L 70.85 135.31"/>
          <path fill="none" d="M85.24,72.16 L 85.24 135.31"/>
          <path fill="none" d="M99.63,72.16 L 99.63 135.31"/>
          <path fill="none" d="M114.01,72.16 L 114.01 135.31"/>
          <path fill="none" d="M128.4,72.16 L 128.4 135.31"/>
          <path fill="none" d="M142.78,72.16 L 142.78 135.31"/>
          <path fill="none" d="M157.17,72.16 L 157.17 135.31"/>
          <path fill="none" d="M171.55,72.16 L 171.55 135.31"/>
          <path fill="none" d="M185.94,72.16 L 185.94 135.31"/>
          <path fill="none" d="M200.32,72.16 L 200.32 135.31"/>
          <path fill="none" d="M214.71,72.16 L 214.71 135.31"/>
          <path fill="none" d="M229.1,72.16 L 229.1 135.31"/>
        </g>
        <g class="plotpanel" id="img-0b2e2761-13">
          <g stroke-width="0.3" fill="#000000" fill-opacity="0.000" class="geometry" stroke-dasharray="none" stroke="#FE4365" id="img-0b2e2761-14">
            <path fill="none" d="M42.08,92.39 L 46.88 74.16 51.67 74.16 56.47 74.37 61.26 74.74 66.06 76.12 70.85 75.83 75.65 76.23 80.45 80.53 85.24 75.41 90.04 75.8 94.83 77.56 99.63 77.17 104.42 94.76 109.22 76.75 114.01 77.19 118.81 84.04 123.6 74.59 128.4 75.63 133.19 75.56 137.99 74.16 142.78 74.32 147.58 77.16 152.37 74.16 157.17 74.34 161.96 74.16 166.76 74.16 171.55 82.18 176.35 75 181.14 74.7 185.94 78.87 190.73 74.16 195.53 74.44 200.32 85.55 205.12 79.87 209.91 76.25 214.71 74.57 219.5 74.73 224.3 74.96"/>
          </g>
          <g class="geometry" id="img-0b2e2761-15">
            <g class="color_RGBA{Float32}(0.9960785f0,0.2627451f0,0.39607847f0,1.0f0)" stroke="#B58486" stroke-width="0.3" fill="#FE4365" id="img-0b2e2761-16">
              <use xlink:href="#img-0b2e2761-17" x="42.08" y="92.39"/>
              <use xlink:href="#img-0b2e2761-17" x="46.88" y="74.16"/>
              <use xlink:href="#img-0b2e2761-17" x="51.67" y="74.16"/>
              <use xlink:href="#img-0b2e2761-17" x="56.47" y="74.37"/>
              <use xlink:href="#img-0b2e2761-17" x="61.26" y="74.74"/>
              <use xlink:href="#img-0b2e2761-17" x="66.06" y="76.12"/>
              <use xlink:href="#img-0b2e2761-17" x="70.85" y="75.83"/>
              <use xlink:href="#img-0b2e2761-17" x="75.65" y="76.23"/>
              <use xlink:href="#img-0b2e2761-17" x="80.45" y="80.53"/>
              <use xlink:href="#img-0b2e2761-17" x="85.24" y="75.41"/>
              <use xlink:href="#img-0b2e2761-17" x="90.04" y="75.8"/>
              <use xlink:href="#img-0b2e2761-17" x="94.83" y="77.56"/>
              <use xlink:href="#img-0b2e2761-17" x="99.63" y="77.17"/>
              <use xlink:href="#img-0b2e2761-17" x="104.42" y="94.76"/>
              <use xlink:href="#img-0b2e2761-17" x="109.22" y="76.75"/>
              <use xlink:href="#img-0b2e2761-17" x="114.01" y="77.19"/>
              <use xlink:href="#img-0b2e2761-17" x="118.81" y="84.04"/>
              <use xlink:href="#img-0b2e2761-17" x="123.6" y="74.59"/>
              <use xlink:href="#img-0b2e2761-17" x="128.4" y="75.63"/>
              <use xlink:href="#img-0b2e2761-17" x="133.19" y="75.56"/>
              <use xlink:href="#img-0b2e2761-17" x="137.99" y="74.16"/>
              <use xlink:href="#img-0b2e2761-17" x="142.78" y="74.32"/>
              <use xlink:href="#img-0b2e2761-17" x="147.58" y="77.16"/>
              <use xlink:href="#img-0b2e2761-17" x="152.37" y="74.16"/>
              <use xlink:href="#img-0b2e2761-17" x="157.17" y="74.34"/>
              <use xlink:href="#img-0b2e2761-17" x="161.96" y="74.16"/>
              <use xlink:href="#img-0b2e2761-17" x="166.76" y="74.16"/>
              <use xlink:href="#img-0b2e2761-17" x="171.55" y="82.18"/>
              <use xlink:href="#img-0b2e2761-17" x="176.35" y="75"/>
              <use xlink:href="#img-0b2e2761-17" x="181.14" y="74.7"/>
              <use xlink:href="#img-0b2e2761-17" x="185.94" y="78.87"/>
              <use xlink:href="#img-0b2e2761-17" x="190.73" y="74.16"/>
              <use xlink:href="#img-0b2e2761-17" x="195.53" y="74.44"/>
              <use xlink:href="#img-0b2e2761-17" x="200.32" y="85.55"/>
              <use xlink:href="#img-0b2e2761-17" x="205.12" y="79.87"/>
              <use xlink:href="#img-0b2e2761-17" x="209.91" y="76.25"/>
              <use xlink:href="#img-0b2e2761-17" x="214.71" y="74.57"/>
              <use xlink:href="#img-0b2e2761-17" x="219.5" y="74.73"/>
              <use xlink:href="#img-0b2e2761-17" x="224.3" y="74.96"/>
            </g>
          </g>
        </g>
      </g>
</g>
      <g class="guide ylabels" font-size="4.76" font-family="'PT Sans Caption','Helvetica Neue','Helvetica',sans-serif" fill="#A1A1A1" id="img-0b2e2761-18">
        <text x="34.29" y="133.31" text-anchor="end" dy="0.35em">0</text>
        <text x="34.29" y="118.52" text-anchor="end" dy="0.35em">25</text>
        <text x="34.29" y="103.73" text-anchor="end" dy="0.35em">50</text>
        <text x="34.29" y="88.94" text-anchor="end" dy="0.35em">75</text>
        <text x="34.29" y="74.16" text-anchor="end" dy="0.35em">100</text>
      </g>
      <g font-size="6.35" font-family="'PT Sans','Helvetica Neue','Helvetica',sans-serif" fill="#A1A1A1" stroke="#000000" stroke-opacity="0.000" id="img-0b2e2761-19">
        <text x="19.86" y="101.73" text-anchor="middle" dy="0.35em" transform="rotate(-90, 19.86, 103.73)">Popular</text>
      </g>
<g clip-path="url(#img-0b2e2761-20)">
      <g id="img-0b2e2761-21">
        <g pointer-events="visible" opacity="1" fill="#222831" stroke="#000000" stroke-opacity="0.000" class="guide background" id="img-0b2e2761-22">
          <rect x="35.29" y="7" width="195.81" height="61.16"/>
        </g>
        <g class="guide ygridlines xfixed" stroke-dasharray="0.5,0.5" stroke-width="0.2" stroke="#575757" id="img-0b2e2761-23">
          <path fill="none" d="M35.29,66.16 L 231.1 66.16"/>
          <path fill="none" d="M35.29,51.87 L 231.1 51.87"/>
          <path fill="none" d="M35.29,37.58 L 231.1 37.58"/>
          <path fill="none" d="M35.29,23.29 L 231.1 23.29"/>
          <path fill="none" d="M35.29,9 L 231.1 9"/>
        </g>
        <g class="guide xgridlines yfixed" stroke-dasharray="0.5,0.5" stroke-width="0.2" stroke="#575757" id="img-0b2e2761-24">
          <path fill="none" d="M-1.07,7 L -1.07 68.16"/>
          <path fill="none" d="M13.31,7 L 13.31 68.16"/>
          <path fill="none" d="M27.7,7 L 27.7 68.16"/>
          <path fill="none" d="M42.08,7 L 42.08 68.16"/>
          <path fill="none" d="M56.47,7 L 56.47 68.16"/>
          <path fill="none" d="M70.85,7 L 70.85 68.16"/>
          <path fill="none" d="M85.24,7 L 85.24 68.16"/>
          <path fill="none" d="M99.63,7 L 99.63 68.16"/>
          <path fill="none" d="M114.01,7 L 114.01 68.16"/>
          <path fill="none" d="M128.4,7 L 128.4 68.16"/>
          <path fill="none" d="M142.78,7 L 142.78 68.16"/>
          <path fill="none" d="M157.17,7 L 157.17 68.16"/>
          <path fill="none" d="M171.55,7 L 171.55 68.16"/>
          <path fill="none" d="M185.94,7 L 185.94 68.16"/>
          <path fill="none" d="M200.32,7 L 200.32 68.16"/>
          <path fill="none" d="M214.71,7 L 214.71 68.16"/>
          <path fill="none" d="M229.1,7 L 229.1 68.16"/>
        </g>
        <g class="plotpanel" id="img-0b2e2761-25">
          <g stroke-width="0.3" fill="#000000" fill-opacity="0.000" class="geometry" stroke-dasharray="none" stroke="#FE4365" id="img-0b2e2761-26">
            <path fill="none" d="M42.08,29.94 L 46.88 9 51.67 9 56.47 9 61.26 9 66.06 9 70.85 9 75.65 9 80.45 11.83 85.24 9 90.04 9 94.83 9 99.63 9 104.42 18.47 109.22 9 114.01 9 118.81 10.4 123.6 9 128.4 9 133.19 9 137.99 9 142.78 9 147.58 13.2 152.37 9 157.17 9 161.96 9 166.76 9 171.55 13.89 176.35 9.11 181.14 9 185.94 9 190.73 9 195.53 9 200.32 9 205.12 9 209.91 9 214.71 9 219.5 9 224.3 9"/>
          </g>
          <g class="geometry" id="img-0b2e2761-27">
            <g class="color_RGBA{Float32}(0.9960785f0,0.2627451f0,0.39607847f0,1.0f0)" stroke="#B58486" stroke-width="0.3" fill="#FE4365" id="img-0b2e2761-28">
              <use xlink:href="#img-0b2e2761-29" x="42.08" y="29.94"/>
              <use xlink:href="#img-0b2e2761-29" x="46.88" y="9"/>
              <use xlink:href="#img-0b2e2761-29" x="51.67" y="9"/>
              <use xlink:href="#img-0b2e2761-29" x="56.47" y="9"/>
              <use xlink:href="#img-0b2e2761-29" x="61.26" y="9"/>
              <use xlink:href="#img-0b2e2761-29" x="66.06" y="9"/>
              <use xlink:href="#img-0b2e2761-29" x="70.85" y="9"/>
              <use xlink:href="#img-0b2e2761-29" x="75.65" y="9"/>
              <use xlink:href="#img-0b2e2761-29" x="80.45" y="11.83"/>
              <use xlink:href="#img-0b2e2761-29" x="85.24" y="9"/>
              <use xlink:href="#img-0b2e2761-29" x="90.04" y="9"/>
              <use xlink:href="#img-0b2e2761-29" x="94.83" y="9"/>
              <use xlink:href="#img-0b2e2761-29" x="99.63" y="9"/>
              <use xlink:href="#img-0b2e2761-29" x="104.42" y="18.47"/>
              <use xlink:href="#img-0b2e2761-29" x="109.22" y="9"/>
              <use xlink:href="#img-0b2e2761-29" x="114.01" y="9"/>
              <use xlink:href="#img-0b2e2761-29" x="118.81" y="10.4"/>
              <use xlink:href="#img-0b2e2761-29" x="123.6" y="9"/>
              <use xlink:href="#img-0b2e2761-29" x="128.4" y="9"/>
              <use xlink:href="#img-0b2e2761-29" x="133.19" y="9"/>
              <use xlink:href="#img-0b2e2761-29" x="137.99" y="9"/>
              <use xlink:href="#img-0b2e2761-29" x="142.78" y="9"/>
              <use xlink:href="#img-0b2e2761-29" x="147.58" y="13.2"/>
              <use xlink:href="#img-0b2e2761-29" x="152.37" y="9"/>
              <use xlink:href="#img-0b2e2761-29" x="157.17" y="9"/>
              <use xlink:href="#img-0b2e2761-29" x="161.96" y="9"/>
              <use xlink:href="#img-0b2e2761-29" x="166.76" y="9"/>
              <use xlink:href="#img-0b2e2761-29" x="171.55" y="13.89"/>
              <use xlink:href="#img-0b2e2761-29" x="176.35" y="9.11"/>
              <use xlink:href="#img-0b2e2761-29" x="181.14" y="9"/>
              <use xlink:href="#img-0b2e2761-29" x="185.94" y="9"/>
              <use xlink:href="#img-0b2e2761-29" x="190.73" y="9"/>
              <use xlink:href="#img-0b2e2761-29" x="195.53" y="9"/>
              <use xlink:href="#img-0b2e2761-29" x="200.32" y="9"/>
              <use xlink:href="#img-0b2e2761-29" x="205.12" y="9"/>
              <use xlink:href="#img-0b2e2761-29" x="209.91" y="9"/>
              <use xlink:href="#img-0b2e2761-29" x="214.71" y="9"/>
              <use xlink:href="#img-0b2e2761-29" x="219.5" y="9"/>
              <use xlink:href="#img-0b2e2761-29" x="224.3" y="9"/>
            </g>
          </g>
        </g>
      </g>
</g>
      <g class="guide ylabels" font-size="4.76" font-family="'PT Sans Caption','Helvetica Neue','Helvetica',sans-serif" fill="#A1A1A1" id="img-0b2e2761-30">
        <text x="34.29" y="66.16" text-anchor="end" dy="0.35em">0</text>
        <text x="34.29" y="51.87" text-anchor="end" dy="0.35em">25</text>
        <text x="34.29" y="37.58" text-anchor="end" dy="0.35em">50</text>
        <text x="34.29" y="23.29" text-anchor="end" dy="0.35em">75</text>
        <text x="34.29" y="9" text-anchor="end" dy="0.35em">100</text>
      </g>
      <g font-size="6.35" font-family="'PT Sans','Helvetica Neue','Helvetica',sans-serif" fill="#A1A1A1" stroke="#000000" stroke-opacity="0.000" id="img-0b2e2761-31">
        <text x="19.86" y="35.58" text-anchor="middle" dy="0.35em" transform="rotate(-90, 19.86, 37.58)">Electoral</text>
      </g>
    </g>
  </g>
</g>
  <g font-size="6.35" font-family="'PT Sans','Helvetica Neue','Helvetica',sans-serif" fill="#A1A1A1" stroke="#000000" stroke-opacity="0.000" id="img-0b2e2761-32">
    <text x="9.95" y="71.41" text-anchor="middle" dy="0.35em" transform="rotate(-90, 9.95, 73.41)">Percent <tspan style="dominant-baseline:inherit" font-style="italic"><tspan style="dominant-baseline:inherit" font-weight="bold">by</tspan></tspan> Category</text>
  </g>
</g>
<defs>
  <clipPath id="img-0b2e2761-8">
  <path d="M35.29,72.16 L 231.1 72.16 231.1 135.31 35.29 135.31" />
</clipPath>
  <clipPath id="img-0b2e2761-20">
  <path d="M35.29,7 L 231.1 7 231.1 68.16 35.29 68.16" />
</clipPath>
  <clipPath id="img-0b2e2761-4">
  <path d="M14.91,5 L 233.1 5 233.1 141.82 14.91 141.82" />
</clipPath>
  <g id="img-0b2e2761-17">
    <circle cx="0" cy="0" r="0.9"/>
  </g>
  <g id="img-0b2e2761-29">
    <circle cx="0" cy="0" r="0.9"/>
  </g>
</defs>
</svg>
