<?xml version="1.0" encoding="UTF-8"?>
<svg xmlns="http://www.w3.org/2000/svg"
     xmlns:xlink="http://www.w3.org/1999/xlink"
     xmlns:gadfly="http://www.gadflyjl.org/ns"
     version="1.2"
     width="320mm" height="160mm" viewBox="0 0 320 160"
     stroke="none"
     fill="#000000"
     stroke-width="0.3"
     font-size="3.88"
>
<g class="plotroot xscalable yscalable" id="img-a3bd31ae-1">
  <g class="guide colorkey" id="img-a3bd31ae-2">
    <g class="color_Democratic" id="img-a3bd31ae-3">
      <g fill="#4C404B" font-size="4.76" font-family="'PT Sans','Helvetica Neue','Helvetica',sans-serif" id="img-a3bd31ae-4">
        <text x="61.86" y="150" dy="0.35em">Democratic</text>
      </g>
      <g fill="#0000FF" stroke="#000000" stroke-opacity="0.000" id="img-a3bd31ae-5">
        <rect x="57.89" y="148.52" width="2.97" height="2.97"/>
      </g>
    </g>
    <g class="color_Republican" id="img-a3bd31ae-6">
      <g fill="#4C404B" font-size="4.76" font-family="'PT Sans','Helvetica Neue','Helvetica',sans-serif" id="img-a3bd31ae-7">
        <text x="30.79" y="150" dy="0.35em">Republican</text>
      </g>
      <g fill="#FF0000" stroke="#000000" stroke-opacity="0.000" id="img-a3bd31ae-8">
        <rect x="26.82" y="148.52" width="2.97" height="2.97"/>
      </g>
    </g>
    <g fill="#362A35" font-size="6.35" font-family="'PT Sans','Helvetica Neue','Helvetica',sans-serif" stroke="#000000" stroke-opacity="0.000" id="img-a3bd31ae-9">
      <text x="26.82" y="145.06">Party</text>
    </g>
  </g>
  <g font-size="6.35" font-family="'PT Sans','Helvetica Neue','Helvetica',sans-serif" fill="#564A55" stroke="#000000" stroke-opacity="0.000" id="img-a3bd31ae-10">
    <text x="170.41" y="131.48" text-anchor="middle" dy="0.6em">Year</text>
  </g>
  <g class="guide xlabels" font-size="4.76" font-family="'PT Sans Caption','Helvetica Neue','Helvetica',sans-serif" fill="#6C606B" id="img-a3bd31ae-11">
    <text x="27.82" y="123.95" text-anchor="middle" dy="0.6em">1824</text>
    <text x="45.64" y="123.95" text-anchor="middle" dy="0.6em">1836</text>
    <text x="63.46" y="123.95" text-anchor="middle" dy="0.6em">1848</text>
    <text x="81.29" y="123.95" text-anchor="middle" dy="0.6em">1860</text>
    <text x="99.11" y="123.95" text-anchor="middle" dy="0.6em">1872</text>
    <text x="116.94" y="123.95" text-anchor="middle" dy="0.6em">1884</text>
    <text x="134.76" y="123.95" text-anchor="middle" dy="0.6em">1896</text>
    <text x="152.58" y="123.95" text-anchor="middle" dy="0.6em">1908</text>
    <text x="170.41" y="123.95" text-anchor="middle" dy="0.6em">1920</text>
    <text x="188.23" y="123.95" text-anchor="middle" dy="0.6em">1932</text>
    <text x="206.06" y="123.95" text-anchor="middle" dy="0.6em">1944</text>
    <text x="223.88" y="123.95" text-anchor="middle" dy="0.6em">1956</text>
    <text x="241.7" y="123.95" text-anchor="middle" dy="0.6em">1968</text>
    <text x="259.53" y="123.95" text-anchor="middle" dy="0.6em">1980</text>
    <text x="277.35" y="123.95" text-anchor="middle" dy="0.6em">1992</text>
    <text x="295.18" y="123.95" text-anchor="middle" dy="0.6em">2004</text>
    <text x="313" y="123.95" text-anchor="middle" dy="0.6em">2016</text>
  </g>
<g clip-path="url(#img-a3bd31ae-12)">
  <g id="img-a3bd31ae-13">
    <g pointer-events="visible" opacity="1" fill="#000000" fill-opacity="0.000" stroke="#000000" stroke-opacity="0.000" class="guide background" id="img-a3bd31ae-14">
      <rect x="25.82" y="13.59" width="289.18" height="109.36"/>
    </g>
    <g class="guide ygridlines xfixed" stroke-dasharray="0.5,0.5" stroke-width="0.26" stroke="#000000" id="img-a3bd31ae-15">
      <path fill="none" d="M25.82,120.95 L 315 120.95"/>
      <path fill="none" d="M25.82,94.61 L 315 94.61"/>
      <path fill="none" d="M25.82,68.27 L 315 68.27"/>
      <path fill="none" d="M25.82,41.93 L 315 41.93"/>
      <path fill="none" d="M25.82,15.59 L 315 15.59"/>
    </g>
    <g class="guide xgridlines yfixed" stroke-dasharray="0.5,0.5" stroke-width="0.26" stroke="#000000" id="img-a3bd31ae-16">
      <path fill="none" d="M27.82,13.59 L 27.82 122.95"/>
      <path fill="none" d="M45.64,13.59 L 45.64 122.95"/>
      <path fill="none" d="M63.46,13.59 L 63.46 122.95"/>
      <path fill="none" d="M81.29,13.59 L 81.29 122.95"/>
      <path fill="none" d="M99.11,13.59 L 99.11 122.95"/>
      <path fill="none" d="M116.94,13.59 L 116.94 122.95"/>
      <path fill="none" d="M134.76,13.59 L 134.76 122.95"/>
      <path fill="none" d="M152.58,13.59 L 152.58 122.95"/>
      <path fill="none" d="M170.41,13.59 L 170.41 122.95"/>
      <path fill="none" d="M188.23,13.59 L 188.23 122.95"/>
      <path fill="none" d="M206.06,13.59 L 206.06 122.95"/>
      <path fill="none" d="M223.88,13.59 L 223.88 122.95"/>
      <path fill="none" d="M241.7,13.59 L 241.7 122.95"/>
      <path fill="none" d="M259.53,13.59 L 259.53 122.95"/>
      <path fill="none" d="M277.35,13.59 L 277.35 122.95"/>
      <path fill="none" d="M295.18,13.59 L 295.18 122.95"/>
      <path fill="none" d="M313,13.59 L 313 122.95"/>
    </g>
    <g class="plotpanel" id="img-a3bd31ae-17">
      <g class="geometry" id="img-a3bd31ae-18">
        <g stroke-width="0.3" id="img-a3bd31ae-19">
          <use xlink:href="#img-a3bd31ae-20" x="81.29" y="120.95" fill="#FF0000" class="color_Republican" stroke="#FFFFFF"/>
          <use xlink:href="#img-a3bd31ae-20" x="93.17" y="48.85" fill="#FF0000" class="color_Republican" stroke="#FFFFFF"/>
          <use xlink:href="#img-a3bd31ae-20" x="99.11" y="70.54" fill="#FF0000" class="color_Republican" stroke="#FFFFFF"/>
          <use xlink:href="#img-a3bd31ae-20" x="105.05" y="78.58" fill="#FF0000" class="color_Republican" stroke="#FFFFFF"/>
          <use xlink:href="#img-a3bd31ae-20" x="111" y="74.31" fill="#FF0000" class="color_Republican" stroke="#FFFFFF"/>
          <use xlink:href="#img-a3bd31ae-20" x="116.94" y="70.65" fill="#FF0000" class="color_Republican" stroke="#FFFFFF"/>
          <use xlink:href="#img-a3bd31ae-20" x="122.88" y="72.73" fill="#FF0000" class="color_Republican" stroke="#FFFFFF"/>
          <use xlink:href="#img-a3bd31ae-20" x="128.82" y="81.09" fill="#FF0000" class="color_Republican" stroke="#FFFFFF"/>
          <use xlink:href="#img-a3bd31ae-20" x="134.76" y="72.13" fill="#FF0000" class="color_Republican" stroke="#FFFFFF"/>
          <use xlink:href="#img-a3bd31ae-20" x="140.7" y="73.59" fill="#FF0000" class="color_Republican" stroke="#FFFFFF"/>
          <use xlink:href="#img-a3bd31ae-20" x="146.64" y="75.22" fill="#FF0000" class="color_Republican" stroke="#FFFFFF"/>
          <use xlink:href="#img-a3bd31ae-20" x="152.58" y="72.62" fill="#FF0000" class="color_Republican" stroke="#FFFFFF"/>
          <use xlink:href="#img-a3bd31ae-20" x="158.53" y="95.66" fill="#FF0000" class="color_Republican" stroke="#FFFFFF"/>
          <use xlink:href="#img-a3bd31ae-20" x="164.47" y="75.96" fill="#FF0000" class="color_Republican" stroke="#FFFFFF"/>
          <use xlink:href="#img-a3bd31ae-20" x="170.41" y="66.91" fill="#FF0000" class="color_Republican" stroke="#FFFFFF"/>
          <use xlink:href="#img-a3bd31ae-20" x="176.35" y="75.07" fill="#FF0000" class="color_Republican" stroke="#FFFFFF"/>
          <use xlink:href="#img-a3bd31ae-20" x="182.29" y="64.31" fill="#FF0000" class="color_Republican" stroke="#FFFFFF"/>
          <use xlink:href="#img-a3bd31ae-20" x="188.23" y="86.73" fill="#FF0000" class="color_Republican" stroke="#FFFFFF"/>
          <use xlink:href="#img-a3bd31ae-20" x="194.17" y="88.49" fill="#FF0000" class="color_Republican" stroke="#FFFFFF"/>
          <use xlink:href="#img-a3bd31ae-20" x="200.11" y="86.86" fill="#FF0000" class="color_Republican" stroke="#FFFFFF"/>
          <use xlink:href="#img-a3bd31ae-20" x="206.06" y="79.62" fill="#FF0000" class="color_Republican" stroke="#FFFFFF"/>
          <use xlink:href="#img-a3bd31ae-20" x="212" y="82.1" fill="#FF0000" class="color_Republican" stroke="#FFFFFF"/>
          <use xlink:href="#img-a3bd31ae-20" x="217.94" y="68.28" fill="#FF0000" class="color_Republican" stroke="#FFFFFF"/>
          <use xlink:href="#img-a3bd31ae-20" x="223.88" y="69.1" fill="#FF0000" class="color_Republican" stroke="#FFFFFF"/>
          <use xlink:href="#img-a3bd31ae-20" x="229.82" y="65.19" fill="#FF0000" class="color_Republican" stroke="#FFFFFF"/>
          <use xlink:href="#img-a3bd31ae-20" x="235.76" y="74.07" fill="#FF0000" class="color_Republican" stroke="#FFFFFF"/>
          <use xlink:href="#img-a3bd31ae-20" x="241.7" y="81.07" fill="#FF0000" class="color_Republican" stroke="#FFFFFF"/>
          <use xlink:href="#img-a3bd31ae-20" x="247.65" y="49.62" fill="#FF0000" class="color_Republican" stroke="#FFFFFF"/>
          <use xlink:href="#img-a3bd31ae-20" x="253.59" y="75.7" fill="#FF0000" class="color_Republican" stroke="#FFFFFF"/>
          <use xlink:href="#img-a3bd31ae-20" x="259.53" y="69.64" fill="#FF0000" class="color_Republican" stroke="#FFFFFF"/>
          <use xlink:href="#img-a3bd31ae-20" x="265.47" y="60.01" fill="#FF0000" class="color_Republican" stroke="#FFFFFF"/>
          <use xlink:href="#img-a3bd31ae-20" x="271.41" y="59.95" fill="#FF0000" class="color_Republican" stroke="#FFFFFF"/>
          <use xlink:href="#img-a3bd31ae-20" x="277.35" y="76.24" fill="#FF0000" class="color_Republican" stroke="#FFFFFF"/>
          <use xlink:href="#img-a3bd31ae-20" x="283.29" y="72.91" fill="#FF0000" class="color_Republican" stroke="#FFFFFF"/>
          <use xlink:href="#img-a3bd31ae-20" x="289.23" y="67.06" fill="#FF0000" class="color_Republican" stroke="#FFFFFF"/>
          <use xlink:href="#img-a3bd31ae-20" x="295.18" y="61.09" fill="#FF0000" class="color_Republican" stroke="#FFFFFF"/>
          <use xlink:href="#img-a3bd31ae-20" x="301.12" y="61.05" fill="#FF0000" class="color_Republican" stroke="#FFFFFF"/>
          <use xlink:href="#img-a3bd31ae-20" x="307.06" y="58.34" fill="#FF0000" class="color_Republican" stroke="#FFFFFF"/>
          <use xlink:href="#img-a3bd31ae-20" x="33.76" y="20.66" fill="#0000FF" class="color_Democratic" stroke="#FFFFFF"/>
          <use xlink:href="#img-a3bd31ae-20" x="39.7" y="20.41" fill="#0000FF" class="color_Democratic" stroke="#FFFFFF"/>
          <use xlink:href="#img-a3bd31ae-20" x="45.64" y="76.62" fill="#0000FF" class="color_Democratic" stroke="#FFFFFF"/>
          <use xlink:href="#img-a3bd31ae-20" x="51.58" y="74.23" fill="#0000FF" class="color_Democratic" stroke="#FFFFFF"/>
          <use xlink:href="#img-a3bd31ae-20" x="57.52" y="68.32" fill="#0000FF" class="color_Democratic" stroke="#FFFFFF"/>
          <use xlink:href="#img-a3bd31ae-20" x="63.46" y="70.93" fill="#0000FF" class="color_Democratic" stroke="#FFFFFF"/>
          <use xlink:href="#img-a3bd31ae-20" x="69.41" y="69.04" fill="#0000FF" class="color_Democratic" stroke="#FFFFFF"/>
          <use xlink:href="#img-a3bd31ae-20" x="75.35" y="65.97" fill="#0000FF" class="color_Democratic" stroke="#FFFFFF"/>
          <use xlink:href="#img-a3bd31ae-20" x="81.29" y="112.81" fill="#0000FF" class="color_Democratic" stroke="#FFFFFF"/>
          <use xlink:href="#img-a3bd31ae-20" x="93.17" y="87.68" fill="#0000FF" class="color_Democratic" stroke="#FFFFFF"/>
          <use xlink:href="#img-a3bd31ae-20" x="99.11" y="65.99" fill="#0000FF" class="color_Democratic" stroke="#FFFFFF"/>
          <use xlink:href="#img-a3bd31ae-20" x="105.05" y="57.95" fill="#0000FF" class="color_Democratic" stroke="#FFFFFF"/>
          <use xlink:href="#img-a3bd31ae-20" x="111" y="64.83" fill="#0000FF" class="color_Democratic" stroke="#FFFFFF"/>
          <use xlink:href="#img-a3bd31ae-20" x="116.94" y="66.74" fill="#0000FF" class="color_Democratic" stroke="#FFFFFF"/>
          <use xlink:href="#img-a3bd31ae-20" x="122.88" y="65.89" fill="#0000FF" class="color_Democratic" stroke="#FFFFFF"/>
          <use xlink:href="#img-a3bd31ae-20" x="128.82" y="66.84" fill="#0000FF" class="color_Democratic" stroke="#FFFFFF"/>
          <use xlink:href="#img-a3bd31ae-20" x="134.76" y="66.06" fill="#0000FF" class="color_Democratic" stroke="#FFFFFF"/>
          <use xlink:href="#img-a3bd31ae-20" x="140.7" y="65.07" fill="#0000FF" class="color_Democratic" stroke="#FFFFFF"/>
          <use xlink:href="#img-a3bd31ae-20" x="146.64" y="63.81" fill="#0000FF" class="color_Democratic" stroke="#FFFFFF"/>
          <use xlink:href="#img-a3bd31ae-20" x="152.58" y="65.39" fill="#0000FF" class="color_Democratic" stroke="#FFFFFF"/>
          <use xlink:href="#img-a3bd31ae-20" x="158.53" y="65.32" fill="#0000FF" class="color_Democratic" stroke="#FFFFFF"/>
          <use xlink:href="#img-a3bd31ae-20" x="164.47" y="61.62" fill="#0000FF" class="color_Democratic" stroke="#FFFFFF"/>
          <use xlink:href="#img-a3bd31ae-20" x="170.41" y="70.17" fill="#0000FF" class="color_Democratic" stroke="#FFFFFF"/>
          <use xlink:href="#img-a3bd31ae-20" x="176.35" y="65.26" fill="#0000FF" class="color_Democratic" stroke="#FFFFFF"/>
          <use xlink:href="#img-a3bd31ae-20" x="182.29" y="72.44" fill="#0000FF" class="color_Democratic" stroke="#FFFFFF"/>
          <use xlink:href="#img-a3bd31ae-20" x="188.23" y="50.9" fill="#0000FF" class="color_Democratic" stroke="#FFFFFF"/>
          <use xlink:href="#img-a3bd31ae-20" x="194.17" y="48.48" fill="#0000FF" class="color_Democratic" stroke="#FFFFFF"/>
          <use xlink:href="#img-a3bd31ae-20" x="200.11" y="50.09" fill="#0000FF" class="color_Democratic" stroke="#FFFFFF"/>
          <use xlink:href="#img-a3bd31ae-20" x="206.06" y="57.26" fill="#0000FF" class="color_Democratic" stroke="#FFFFFF"/>
          <use xlink:href="#img-a3bd31ae-20" x="212" y="69.18" fill="#0000FF" class="color_Democratic" stroke="#FFFFFF"/>
          <use xlink:href="#img-a3bd31ae-20" x="217.94" y="68.57" fill="#0000FF" class="color_Democratic" stroke="#FFFFFF"/>
          <use xlink:href="#img-a3bd31ae-20" x="223.88" y="69.75" fill="#0000FF" class="color_Democratic" stroke="#FFFFFF"/>
          <use xlink:href="#img-a3bd31ae-20" x="229.82" y="72.72" fill="#0000FF" class="color_Democratic" stroke="#FFFFFF"/>
          <use xlink:href="#img-a3bd31ae-20" x="235.76" y="62.47" fill="#0000FF" class="color_Democratic" stroke="#FFFFFF"/>
          <use xlink:href="#img-a3bd31ae-20" x="241.7" y="91.31" fill="#0000FF" class="color_Democratic" stroke="#FFFFFF"/>
          <use xlink:href="#img-a3bd31ae-20" x="247.65" y="89.61" fill="#0000FF" class="color_Democratic" stroke="#FFFFFF"/>
          <use xlink:href="#img-a3bd31ae-20" x="253.59" y="62.01" fill="#0000FF" class="color_Democratic" stroke="#FFFFFF"/>
          <use xlink:href="#img-a3bd31ae-20" x="259.53" y="69.95" fill="#0000FF" class="color_Democratic" stroke="#FFFFFF"/>
          <use xlink:href="#img-a3bd31ae-20" x="265.47" y="77.15" fill="#0000FF" class="color_Democratic" stroke="#FFFFFF"/>
          <use xlink:href="#img-a3bd31ae-20" x="271.41" y="77.18" fill="#0000FF" class="color_Democratic" stroke="#FFFFFF"/>
          <use xlink:href="#img-a3bd31ae-20" x="277.35" y="71.34" fill="#0000FF" class="color_Democratic" stroke="#FFFFFF"/>
          <use xlink:href="#img-a3bd31ae-20" x="283.29" y="70.38" fill="#0000FF" class="color_Democratic" stroke="#FFFFFF"/>
          <use xlink:href="#img-a3bd31ae-20" x="289.23" y="71.13" fill="#0000FF" class="color_Democratic" stroke="#FFFFFF"/>
          <use xlink:href="#img-a3bd31ae-20" x="295.18" y="76.16" fill="#0000FF" class="color_Democratic" stroke="#FFFFFF"/>
          <use xlink:href="#img-a3bd31ae-20" x="301.12" y="76.92" fill="#0000FF" class="color_Democratic" stroke="#FFFFFF"/>
          <use xlink:href="#img-a3bd31ae-20" x="307.06" y="79.82" fill="#0000FF" class="color_Democratic" stroke="#FFFFFF"/>
        </g>
      </g>
      <g stroke-width="0.53" fill="#000000" fill-opacity="0.000" stroke-dasharray="none" id="img-a3bd31ae-21">
        <path fill="none" d="M33.76,20.66 L 39.7 20.41 45.64 76.62 51.58 74.23 57.52 68.32 63.46 70.93 69.41 69.04 75.35 65.97 81.29 112.81 93.17 87.68 99.11 65.99 105.05 57.95 111 64.83 116.94 66.74 122.88 65.89 128.82 66.84 134.76 66.06 140.7 65.07 146.64 63.81 152.58 65.39 158.53 65.32 164.47 61.62 170.41 70.17 176.35 65.26 182.29 72.44 188.23 50.9 194.17 48.48 200.11 50.09 206.06 57.26 212 69.18 217.94 68.57 223.88 69.75 229.82 72.72 235.76 62.47 241.7 91.31 247.65 89.61 253.59 62.01 259.53 69.95 265.47 77.15 271.41 77.18 277.35 71.34 283.29 70.38 289.23 71.13 295.18 76.16 301.12 76.92 307.06 79.82" class="geometry color_Democratic" stroke="#0000FF"/>
        <path fill="none" d="M81.29,120.95 L 93.17 48.85 99.11 70.54 105.05 78.58 111 74.31 116.94 70.65 122.88 72.73 128.82 81.09 134.76 72.13 140.7 73.59 146.64 75.22 152.58 72.62 158.53 95.66 164.47 75.96 170.41 66.91 176.35 75.07 182.29 64.31 188.23 86.73 194.17 88.49 200.11 86.86 206.06 79.62 212 82.1 217.94 68.28 223.88 69.1 229.82 65.19 235.76 74.07 241.7 81.07 247.65 49.62 253.59 75.7 259.53 69.64 265.47 60.01 271.41 59.95 277.35 76.24 283.29 72.91 289.23 67.06 295.18 61.09 301.12 61.05 307.06 58.34" class="geometry color_Republican" stroke="#FF0000"/>
      </g>
    </g>
  </g>
</g>
  <g class="guide ylabels" font-size="4.76" font-family="'PT Sans Caption','Helvetica Neue','Helvetica',sans-serif" fill="#6C606B" id="img-a3bd31ae-22">
    <text x="24.82" y="120.95" text-anchor="end" dy="0.35em">0</text>
    <text x="24.82" y="94.61" text-anchor="end" dy="0.35em">25</text>
    <text x="24.82" y="68.27" text-anchor="end" dy="0.35em">50</text>
    <text x="24.82" y="41.93" text-anchor="end" dy="0.35em">75</text>
    <text x="24.82" y="15.59" text-anchor="end" dy="0.35em">100</text>
  </g>
  <g font-size="6.35" font-family="'PT Sans','Helvetica Neue','Helvetica',sans-serif" fill="#564A55" stroke="#000000" stroke-opacity="0.000" id="img-a3bd31ae-23">
    <text x="10.18" y="66.27" text-anchor="middle" dy="0.35em" transform="rotate(-90, 10.18, 68.27)">Popular Vote (%)</text>
  </g>
  <g font-size="6.35" font-family="'PT Sans','Helvetica Neue','Helvetica',sans-serif" fill="#564A55" stroke="#000000" stroke-opacity="0.000" id="img-a3bd31ae-24">
    <text x="170.41" y="11.59" text-anchor="middle">Tennessee</text>
  </g>
</g>
<defs>
  <clipPath id="img-a3bd31ae-12">
  <path d="M25.82,13.59 L 315 13.59 315 122.95 25.82 122.95" />
</clipPath>
  <g id="img-a3bd31ae-20">
    <circle cx="0" cy="0" r="0.9"/>
  </g>
</defs>
</svg>
