<?xml version="1.0" encoding="UTF-8"?>
<svg xmlns="http://www.w3.org/2000/svg"
     xmlns:xlink="http://www.w3.org/1999/xlink"
     xmlns:gadfly="http://www.gadflyjl.org/ns"
     version="1.2"
     width="320mm" height="160mm" viewBox="0 0 320 160"
     stroke="none"
     fill="#000000"
     stroke-width="0.3"
     font-size="3.88"
>
<g class="plotroot xscalable yscalable" id="img-e84e6b8e-1">
  <g font-size="6.35" font-family="'PT Sans','Helvetica Neue','Helvetica',sans-serif" fill="#564A55" stroke="#000000" stroke-opacity="0.000" id="img-e84e6b8e-2">
    <text x="165.18" y="147.06" text-anchor="middle" dy="0.6em">Year</text>
  </g>
<g clip-path="url(#img-e84e6b8e-3)">
  <g id="img-e84e6b8e-4">
    <g class="plotpanel" id="img-e84e6b8e-5">
      <g class="guide xlabels" font-size="4.76" font-family="'PT Sans Caption','Helvetica Neue','Helvetica',sans-serif" fill="#6C606B" id="img-e84e6b8e-6">
        <text x="-17.67" y="139.18" text-anchor="middle" dy="0.6em">1824</text>
        <text x="2.87" y="139.18" text-anchor="middle" dy="0.6em">1836</text>
        <text x="23.41" y="139.18" text-anchor="middle" dy="0.6em">1848</text>
        <text x="43.96" y="139.18" text-anchor="middle" dy="0.6em">1860</text>
        <text x="64.5" y="139.18" text-anchor="middle" dy="0.6em">1872</text>
        <text x="85.04" y="139.18" text-anchor="middle" dy="0.6em">1884</text>
        <text x="105.58" y="139.18" text-anchor="middle" dy="0.6em">1896</text>
        <text x="126.12" y="139.18" text-anchor="middle" dy="0.6em">1908</text>
        <text x="146.66" y="139.18" text-anchor="middle" dy="0.6em">1920</text>
        <text x="167.21" y="139.18" text-anchor="middle" dy="0.6em">1932</text>
        <text x="187.75" y="139.18" text-anchor="middle" dy="0.6em">1944</text>
        <text x="208.29" y="139.18" text-anchor="middle" dy="0.6em">1956</text>
        <text x="228.83" y="139.18" text-anchor="middle" dy="0.6em">1968</text>
        <text x="249.37" y="139.18" text-anchor="middle" dy="0.6em">1980</text>
        <text x="269.92" y="139.18" text-anchor="middle" dy="0.6em">1992</text>
        <text x="290.46" y="139.18" text-anchor="middle" dy="0.6em">2004</text>
        <text x="311" y="139.18" text-anchor="middle" dy="0.6em">2016</text>
      </g>
<g clip-path="url(#img-e84e6b8e-7)">
      <g id="img-e84e6b8e-8">
        <g pointer-events="visible" opacity="1" fill="#000000" fill-opacity="0.000" stroke="#000000" stroke-opacity="0.000" class="guide background" id="img-e84e6b8e-9">
          <rect x="35.11" y="73.59" width="277.89" height="64.59"/>
        </g>
        <g class="guide ygridlines xfixed" stroke-dasharray="0.5,0.5" stroke-width="0.26" stroke="#FFFFFF" id="img-e84e6b8e-10">
          <path fill="none" d="M35.11,136.18 L 313 136.18"/>
          <path fill="none" d="M35.11,121.03 L 313 121.03"/>
          <path fill="none" d="M35.11,105.89 L 313 105.89"/>
          <path fill="none" d="M35.11,90.74 L 313 90.74"/>
          <path fill="none" d="M35.11,75.59 L 313 75.59"/>
        </g>
        <g class="guide xgridlines yfixed" stroke-dasharray="0.5,0.5" stroke-width="0.26" stroke="#FFFFFF" id="img-e84e6b8e-11">
          <path fill="none" d="M-17.67,73.59 L -17.67 138.18"/>
          <path fill="none" d="M2.87,73.59 L 2.87 138.18"/>
          <path fill="none" d="M23.41,73.59 L 23.41 138.18"/>
          <path fill="none" d="M43.96,73.59 L 43.96 138.18"/>
          <path fill="none" d="M64.5,73.59 L 64.5 138.18"/>
          <path fill="none" d="M85.04,73.59 L 85.04 138.18"/>
          <path fill="none" d="M105.58,73.59 L 105.58 138.18"/>
          <path fill="none" d="M126.12,73.59 L 126.12 138.18"/>
          <path fill="none" d="M146.66,73.59 L 146.66 138.18"/>
          <path fill="none" d="M167.21,73.59 L 167.21 138.18"/>
          <path fill="none" d="M187.75,73.59 L 187.75 138.18"/>
          <path fill="none" d="M208.29,73.59 L 208.29 138.18"/>
          <path fill="none" d="M228.83,73.59 L 228.83 138.18"/>
          <path fill="none" d="M249.37,73.59 L 249.37 138.18"/>
          <path fill="none" d="M269.92,73.59 L 269.92 138.18"/>
          <path fill="none" d="M290.46,73.59 L 290.46 138.18"/>
          <path fill="none" d="M311,73.59 L 311 138.18"/>
        </g>
        <g class="plotpanel" id="img-e84e6b8e-12">
          <g stroke-width="0.53" fill="#000000" fill-opacity="0.000" class="geometry" stroke-dasharray="none" stroke="#00BFFF" id="img-e84e6b8e-13">
            <path fill="none" d="M43.96,94.27 L 50.8 75.59 57.65 75.59 64.5 75.81 71.34 76.19 78.19 77.61 85.04 77.31 91.89 77.72 98.73 82.12 105.58 76.87 112.43 77.27 119.28 79.08 126.12 78.68 132.97 96.7 139.82 78.25 146.66 78.7 153.51 85.71 160.36 76.03 167.21 77.1 174.05 77.03 180.9 75.59 187.75 75.76 194.6 78.67 201.44 75.59 208.29 75.78 215.14 75.59 221.99 75.59 228.83 83.81 235.68 76.45 242.53 76.15 249.37 80.42 256.22 75.59 263.07 75.88 269.92 87.26 276.76 81.44 283.61 77.73 290.46 76.02 297.31 76.18 304.15 76.41"/>
          </g>
          <g class="geometry" id="img-e84e6b8e-14">
            <g class="color_RGBA{Float32}(0.0f0,0.74736935f0,1.0f0,1.0f0)" stroke="#FFFFFF" stroke-width="0.3" fill="#00BFFF" id="img-e84e6b8e-15">
              <use xlink:href="#img-e84e6b8e-16" x="43.96" y="94.27"/>
              <use xlink:href="#img-e84e6b8e-16" x="50.8" y="75.59"/>
              <use xlink:href="#img-e84e6b8e-16" x="57.65" y="75.59"/>
              <use xlink:href="#img-e84e6b8e-16" x="64.5" y="75.81"/>
              <use xlink:href="#img-e84e6b8e-16" x="71.34" y="76.19"/>
              <use xlink:href="#img-e84e6b8e-16" x="78.19" y="77.61"/>
              <use xlink:href="#img-e84e6b8e-16" x="85.04" y="77.31"/>
              <use xlink:href="#img-e84e6b8e-16" x="91.89" y="77.72"/>
              <use xlink:href="#img-e84e6b8e-16" x="98.73" y="82.12"/>
              <use xlink:href="#img-e84e6b8e-16" x="105.58" y="76.87"/>
              <use xlink:href="#img-e84e6b8e-16" x="112.43" y="77.27"/>
              <use xlink:href="#img-e84e6b8e-16" x="119.28" y="79.08"/>
              <use xlink:href="#img-e84e6b8e-16" x="126.12" y="78.68"/>
              <use xlink:href="#img-e84e6b8e-16" x="132.97" y="96.7"/>
              <use xlink:href="#img-e84e6b8e-16" x="139.82" y="78.25"/>
              <use xlink:href="#img-e84e6b8e-16" x="146.66" y="78.7"/>
              <use xlink:href="#img-e84e6b8e-16" x="153.51" y="85.71"/>
              <use xlink:href="#img-e84e6b8e-16" x="160.36" y="76.03"/>
              <use xlink:href="#img-e84e6b8e-16" x="167.21" y="77.1"/>
              <use xlink:href="#img-e84e6b8e-16" x="174.05" y="77.03"/>
              <use xlink:href="#img-e84e6b8e-16" x="180.9" y="75.59"/>
              <use xlink:href="#img-e84e6b8e-16" x="187.75" y="75.76"/>
              <use xlink:href="#img-e84e6b8e-16" x="194.6" y="78.67"/>
              <use xlink:href="#img-e84e6b8e-16" x="201.44" y="75.59"/>
              <use xlink:href="#img-e84e6b8e-16" x="208.29" y="75.78"/>
              <use xlink:href="#img-e84e6b8e-16" x="215.14" y="75.59"/>
              <use xlink:href="#img-e84e6b8e-16" x="221.99" y="75.59"/>
              <use xlink:href="#img-e84e6b8e-16" x="228.83" y="83.81"/>
              <use xlink:href="#img-e84e6b8e-16" x="235.68" y="76.45"/>
              <use xlink:href="#img-e84e6b8e-16" x="242.53" y="76.15"/>
              <use xlink:href="#img-e84e6b8e-16" x="249.37" y="80.42"/>
              <use xlink:href="#img-e84e6b8e-16" x="256.22" y="75.59"/>
              <use xlink:href="#img-e84e6b8e-16" x="263.07" y="75.88"/>
              <use xlink:href="#img-e84e6b8e-16" x="269.92" y="87.26"/>
              <use xlink:href="#img-e84e6b8e-16" x="276.76" y="81.44"/>
              <use xlink:href="#img-e84e6b8e-16" x="283.61" y="77.73"/>
              <use xlink:href="#img-e84e6b8e-16" x="290.46" y="76.02"/>
              <use xlink:href="#img-e84e6b8e-16" x="297.31" y="76.18"/>
              <use xlink:href="#img-e84e6b8e-16" x="304.15" y="76.41"/>
            </g>
          </g>
        </g>
      </g>
</g>
      <g class="guide ylabels" font-size="4.76" font-family="'PT Sans Caption','Helvetica Neue','Helvetica',sans-serif" fill="#6C606B" id="img-e84e6b8e-17">
        <text x="34.11" y="136.18" text-anchor="end" dy="0.35em">0</text>
        <text x="34.11" y="121.03" text-anchor="end" dy="0.35em">25</text>
        <text x="34.11" y="105.89" text-anchor="end" dy="0.35em">50</text>
        <text x="34.11" y="90.74" text-anchor="end" dy="0.35em">75</text>
        <text x="34.11" y="75.59" text-anchor="end" dy="0.35em">100</text>
      </g>
      <g font-size="6.35" font-family="'PT Sans','Helvetica Neue','Helvetica',sans-serif" fill="#564A55" stroke="#000000" stroke-opacity="0.000" id="img-e84e6b8e-18">
        <text x="20.53" y="103.89" text-anchor="middle" dy="0.35em" transform="rotate(-90, 20.53, 105.89)">Popular</text>
      </g>
<g clip-path="url(#img-e84e6b8e-19)">
      <g id="img-e84e6b8e-20">
        <g pointer-events="visible" opacity="1" fill="#000000" fill-opacity="0.000" stroke="#000000" stroke-opacity="0.000" class="guide background" id="img-e84e6b8e-21">
          <rect x="35.11" y="7" width="277.89" height="62.59"/>
        </g>
        <g class="guide ygridlines xfixed" stroke-dasharray="0.5,0.5" stroke-width="0.26" stroke="#FFFFFF" id="img-e84e6b8e-22">
          <path fill="none" d="M35.11,67.59 L 313 67.59"/>
          <path fill="none" d="M35.11,52.94 L 313 52.94"/>
          <path fill="none" d="M35.11,38.3 L 313 38.3"/>
          <path fill="none" d="M35.11,23.65 L 313 23.65"/>
          <path fill="none" d="M35.11,9 L 313 9"/>
        </g>
        <g class="guide xgridlines yfixed" stroke-dasharray="0.5,0.5" stroke-width="0.26" stroke="#FFFFFF" id="img-e84e6b8e-23">
          <path fill="none" d="M-17.67,7 L -17.67 69.59"/>
          <path fill="none" d="M2.87,7 L 2.87 69.59"/>
          <path fill="none" d="M23.41,7 L 23.41 69.59"/>
          <path fill="none" d="M43.96,7 L 43.96 69.59"/>
          <path fill="none" d="M64.5,7 L 64.5 69.59"/>
          <path fill="none" d="M85.04,7 L 85.04 69.59"/>
          <path fill="none" d="M105.58,7 L 105.58 69.59"/>
          <path fill="none" d="M126.12,7 L 126.12 69.59"/>
          <path fill="none" d="M146.66,7 L 146.66 69.59"/>
          <path fill="none" d="M167.21,7 L 167.21 69.59"/>
          <path fill="none" d="M187.75,7 L 187.75 69.59"/>
          <path fill="none" d="M208.29,7 L 208.29 69.59"/>
          <path fill="none" d="M228.83,7 L 228.83 69.59"/>
          <path fill="none" d="M249.37,7 L 249.37 69.59"/>
          <path fill="none" d="M269.92,7 L 269.92 69.59"/>
          <path fill="none" d="M290.46,7 L 290.46 69.59"/>
          <path fill="none" d="M311,7 L 311 69.59"/>
        </g>
        <g class="plotpanel" id="img-e84e6b8e-24">
          <g stroke-width="0.53" fill="#000000" fill-opacity="0.000" class="geometry" stroke-dasharray="none" stroke="#00BFFF" id="img-e84e6b8e-25">
            <path fill="none" d="M43.96,30.46 L 50.8 9 57.65 9 64.5 9 71.34 9 78.19 9 85.04 9 91.89 9 98.73 11.9 105.58 9 112.43 9 119.28 9 126.12 9 132.97 18.71 139.82 9 146.66 9 153.51 10.43 160.36 9 167.21 9 174.05 9 180.9 9 187.75 9 194.6 13.3 201.44 9 208.29 9 215.14 9 221.99 9 228.83 14.01 235.68 9.11 242.53 9 249.37 9 256.22 9 263.07 9 269.92 9 276.76 9 283.61 9 290.46 9 297.31 9 304.15 9"/>
          </g>
          <g class="geometry" id="img-e84e6b8e-26">
            <g class="color_RGBA{Float32}(0.0f0,0.74736935f0,1.0f0,1.0f0)" stroke="#FFFFFF" stroke-width="0.3" fill="#00BFFF" id="img-e84e6b8e-27">
              <use xlink:href="#img-e84e6b8e-28" x="43.96" y="30.46"/>
              <use xlink:href="#img-e84e6b8e-28" x="50.8" y="9"/>
              <use xlink:href="#img-e84e6b8e-28" x="57.65" y="9"/>
              <use xlink:href="#img-e84e6b8e-28" x="64.5" y="9"/>
              <use xlink:href="#img-e84e6b8e-28" x="71.34" y="9"/>
              <use xlink:href="#img-e84e6b8e-28" x="78.19" y="9"/>
              <use xlink:href="#img-e84e6b8e-28" x="85.04" y="9"/>
              <use xlink:href="#img-e84e6b8e-28" x="91.89" y="9"/>
              <use xlink:href="#img-e84e6b8e-28" x="98.73" y="11.9"/>
              <use xlink:href="#img-e84e6b8e-28" x="105.58" y="9"/>
              <use xlink:href="#img-e84e6b8e-28" x="112.43" y="9"/>
              <use xlink:href="#img-e84e6b8e-28" x="119.28" y="9"/>
              <use xlink:href="#img-e84e6b8e-28" x="126.12" y="9"/>
              <use xlink:href="#img-e84e6b8e-28" x="132.97" y="18.71"/>
              <use xlink:href="#img-e84e6b8e-28" x="139.82" y="9"/>
              <use xlink:href="#img-e84e6b8e-28" x="146.66" y="9"/>
              <use xlink:href="#img-e84e6b8e-28" x="153.51" y="10.43"/>
              <use xlink:href="#img-e84e6b8e-28" x="160.36" y="9"/>
              <use xlink:href="#img-e84e6b8e-28" x="167.21" y="9"/>
              <use xlink:href="#img-e84e6b8e-28" x="174.05" y="9"/>
              <use xlink:href="#img-e84e6b8e-28" x="180.9" y="9"/>
              <use xlink:href="#img-e84e6b8e-28" x="187.75" y="9"/>
              <use xlink:href="#img-e84e6b8e-28" x="194.6" y="13.3"/>
              <use xlink:href="#img-e84e6b8e-28" x="201.44" y="9"/>
              <use xlink:href="#img-e84e6b8e-28" x="208.29" y="9"/>
              <use xlink:href="#img-e84e6b8e-28" x="215.14" y="9"/>
              <use xlink:href="#img-e84e6b8e-28" x="221.99" y="9"/>
              <use xlink:href="#img-e84e6b8e-28" x="228.83" y="14.01"/>
              <use xlink:href="#img-e84e6b8e-28" x="235.68" y="9.11"/>
              <use xlink:href="#img-e84e6b8e-28" x="242.53" y="9"/>
              <use xlink:href="#img-e84e6b8e-28" x="249.37" y="9"/>
              <use xlink:href="#img-e84e6b8e-28" x="256.22" y="9"/>
              <use xlink:href="#img-e84e6b8e-28" x="263.07" y="9"/>
              <use xlink:href="#img-e84e6b8e-28" x="269.92" y="9"/>
              <use xlink:href="#img-e84e6b8e-28" x="276.76" y="9"/>
              <use xlink:href="#img-e84e6b8e-28" x="283.61" y="9"/>
              <use xlink:href="#img-e84e6b8e-28" x="290.46" y="9"/>
              <use xlink:href="#img-e84e6b8e-28" x="297.31" y="9"/>
              <use xlink:href="#img-e84e6b8e-28" x="304.15" y="9"/>
            </g>
          </g>
        </g>
      </g>
</g>
      <g class="guide ylabels" font-size="4.76" font-family="'PT Sans Caption','Helvetica Neue','Helvetica',sans-serif" fill="#6C606B" id="img-e84e6b8e-29">
        <text x="34.11" y="67.59" text-anchor="end" dy="0.35em">0</text>
        <text x="34.11" y="52.94" text-anchor="end" dy="0.35em">25</text>
        <text x="34.11" y="38.3" text-anchor="end" dy="0.35em">50</text>
        <text x="34.11" y="23.65" text-anchor="end" dy="0.35em">75</text>
        <text x="34.11" y="9" text-anchor="end" dy="0.35em">100</text>
      </g>
      <g font-size="6.35" font-family="'PT Sans','Helvetica Neue','Helvetica',sans-serif" fill="#564A55" stroke="#000000" stroke-opacity="0.000" id="img-e84e6b8e-30">
        <text x="20.53" y="36.3" text-anchor="middle" dy="0.35em" transform="rotate(-90, 20.53, 38.3)">Electoral</text>
      </g>
    </g>
  </g>
</g>
  <g font-size="6.35" font-family="'PT Sans','Helvetica Neue','Helvetica',sans-serif" fill="#564A55" stroke="#000000" stroke-opacity="0.000" id="img-e84e6b8e-31">
    <text x="10.18" y="72.53" text-anchor="middle" dy="0.35em" transform="rotate(-90, 10.18, 74.53)">Percent <tspan style="dominant-baseline:inherit" font-style="italic" font-weight="700">by</tspan> Category</text>
  </g>
</g>
<defs>
  <clipPath id="img-e84e6b8e-7">
  <path d="M35.11,73.59 L 313 73.59 313 138.18 35.11 138.18" />
</clipPath>
  <clipPath id="img-e84e6b8e-3">
  <path d="M15.35,5 L 315 5 315 144.06 15.35 144.06" />
</clipPath>
  <clipPath id="img-e84e6b8e-19">
  <path d="M35.11,7 L 313 7 313 69.59 35.11 69.59" />
</clipPath>
  <g id="img-e84e6b8e-16">
    <circle cx="0" cy="0" r="0.9"/>
  </g>
  <g id="img-e84e6b8e-28">
    <circle cx="0" cy="0" r="0.9"/>
  </g>
</defs>
</svg>
