<?xml version="1.0" encoding="UTF-8"?>
<svg xmlns="http://www.w3.org/2000/svg"
     xmlns:xlink="http://www.w3.org/1999/xlink"
     xmlns:gadfly="http://www.gadflyjl.org/ns"
     version="1.2"
     width="320mm" height="160mm" viewBox="0 0 320 160"
     stroke="none"
     fill="#000000"
     stroke-width="0.3"
     font-size="3.88"
>
<g class="plotroot xscalable yscalable" id="img-6f2cdd28-1">
  <g class="guide colorkey" id="img-6f2cdd28-2">
    <g class="color_Democratic" id="img-6f2cdd28-3">
      <g fill="#4C404B" font-size="4.76" font-family="'PT Sans','Helvetica Neue','Helvetica',sans-serif" id="img-6f2cdd28-4">
        <text x="57.56" y="150.05" dy="0.35em">Democratic</text>
      </g>
      <g fill="#0000FF" stroke="#000000" stroke-opacity="0.000" id="img-6f2cdd28-5">
        <rect x="53.84" y="148.69" width="2.72" height="2.72"/>
      </g>
    </g>
    <g class="color_Republican" id="img-6f2cdd28-6">
      <g fill="#4C404B" font-size="4.76" font-family="'PT Sans','Helvetica Neue','Helvetica',sans-serif" id="img-6f2cdd28-7">
        <text x="30.1" y="150.05" dy="0.35em">Republican</text>
      </g>
      <g fill="#FF0000" stroke="#000000" stroke-opacity="0.000" id="img-6f2cdd28-8">
        <rect x="26.38" y="148.69" width="2.72" height="2.72"/>
      </g>
    </g>
    <g fill="#362A35" font-size="6.35" font-family="'PT Sans','Helvetica Neue','Helvetica',sans-serif" stroke="#000000" stroke-opacity="0.000" id="img-6f2cdd28-9">
      <text x="26.38" y="145.57">Party</text>
    </g>
  </g>
  <g font-size="6.35" font-family="'PT Sans','Helvetica Neue','Helvetica',sans-serif" fill="#564A55" stroke="#000000" stroke-opacity="0.000" id="img-6f2cdd28-10">
    <text x="170.19" y="130.75" text-anchor="middle" dy="0.6em">Year</text>
  </g>
  <g class="guide xlabels" font-size="4.76" font-family="'PT Sans Caption','Helvetica Neue','Helvetica',sans-serif" fill="#6C606B" id="img-6f2cdd28-11">
    <text x="27.38" y="122.24" text-anchor="middle" dy="0.6em">1824</text>
    <text x="45.23" y="122.24" text-anchor="middle" dy="0.6em">1836</text>
    <text x="63.08" y="122.24" text-anchor="middle" dy="0.6em">1848</text>
    <text x="80.93" y="122.24" text-anchor="middle" dy="0.6em">1860</text>
    <text x="98.78" y="122.24" text-anchor="middle" dy="0.6em">1872</text>
    <text x="116.64" y="122.24" text-anchor="middle" dy="0.6em">1884</text>
    <text x="134.49" y="122.24" text-anchor="middle" dy="0.6em">1896</text>
    <text x="152.34" y="122.24" text-anchor="middle" dy="0.6em">1908</text>
    <text x="170.19" y="122.24" text-anchor="middle" dy="0.6em">1920</text>
    <text x="188.04" y="122.24" text-anchor="middle" dy="0.6em">1932</text>
    <text x="205.89" y="122.24" text-anchor="middle" dy="0.6em">1944</text>
    <text x="223.74" y="122.24" text-anchor="middle" dy="0.6em">1956</text>
    <text x="241.59" y="122.24" text-anchor="middle" dy="0.6em">1968</text>
    <text x="259.45" y="122.24" text-anchor="middle" dy="0.6em">1980</text>
    <text x="277.3" y="122.24" text-anchor="middle" dy="0.6em">1992</text>
    <text x="295.15" y="122.24" text-anchor="middle" dy="0.6em">2004</text>
    <text x="313" y="122.24" text-anchor="middle" dy="0.6em">2016</text>
  </g>
<g clip-path="url(#img-6f2cdd28-12)">
  <g id="img-6f2cdd28-13">
    <g pointer-events="visible" opacity="1" fill="#000000" fill-opacity="0.000" stroke="#000000" stroke-opacity="0.000" class="guide background" id="img-6f2cdd28-14">
      <rect x="25.38" y="14.91" width="289.62" height="106.33"/>
    </g>
    <g class="guide ygridlines xfixed" stroke-dasharray="0.5,0.5" stroke-width="0.26" stroke="#000000" id="img-6f2cdd28-15">
      <path fill="none" d="M25.38,119.24 L 315 119.24"/>
      <path fill="none" d="M25.38,93.66 L 315 93.66"/>
      <path fill="none" d="M25.38,68.07 L 315 68.07"/>
      <path fill="none" d="M25.38,42.49 L 315 42.49"/>
      <path fill="none" d="M25.38,16.91 L 315 16.91"/>
    </g>
    <g class="guide xgridlines yfixed" stroke-dasharray="0.5,0.5" stroke-width="0.26" stroke="#000000" id="img-6f2cdd28-16">
      <path fill="none" d="M27.38,14.91 L 27.38 121.24"/>
      <path fill="none" d="M45.23,14.91 L 45.23 121.24"/>
      <path fill="none" d="M63.08,14.91 L 63.08 121.24"/>
      <path fill="none" d="M80.93,14.91 L 80.93 121.24"/>
      <path fill="none" d="M98.78,14.91 L 98.78 121.24"/>
      <path fill="none" d="M116.64,14.91 L 116.64 121.24"/>
      <path fill="none" d="M134.49,14.91 L 134.49 121.24"/>
      <path fill="none" d="M152.34,14.91 L 152.34 121.24"/>
      <path fill="none" d="M170.19,14.91 L 170.19 121.24"/>
      <path fill="none" d="M188.04,14.91 L 188.04 121.24"/>
      <path fill="none" d="M205.89,14.91 L 205.89 121.24"/>
      <path fill="none" d="M223.74,14.91 L 223.74 121.24"/>
      <path fill="none" d="M241.59,14.91 L 241.59 121.24"/>
      <path fill="none" d="M259.45,14.91 L 259.45 121.24"/>
      <path fill="none" d="M277.3,14.91 L 277.3 121.24"/>
      <path fill="none" d="M295.15,14.91 L 295.15 121.24"/>
      <path fill="none" d="M313,14.91 L 313 121.24"/>
    </g>
    <g class="plotpanel" id="img-6f2cdd28-17">
      <g class="geometry" id="img-6f2cdd28-18">
        <g stroke-width="0.3" id="img-6f2cdd28-19">
          <use xlink:href="#img-6f2cdd28-20" x="80.93" y="119.24" class="color_Republican" fill="#FF0000" stroke="#FFFFFF"/>
          <use xlink:href="#img-6f2cdd28-20" x="92.83" y="49.22" class="color_Republican" fill="#FF0000" stroke="#FFFFFF"/>
          <use xlink:href="#img-6f2cdd28-20" x="98.78" y="70.28" class="color_Republican" fill="#FF0000" stroke="#FFFFFF"/>
          <use xlink:href="#img-6f2cdd28-20" x="104.74" y="78.09" class="color_Republican" fill="#FF0000" stroke="#FFFFFF"/>
          <use xlink:href="#img-6f2cdd28-20" x="110.69" y="73.94" class="color_Republican" fill="#FF0000" stroke="#FFFFFF"/>
          <use xlink:href="#img-6f2cdd28-20" x="116.64" y="70.39" class="color_Republican" fill="#FF0000" stroke="#FFFFFF"/>
          <use xlink:href="#img-6f2cdd28-20" x="122.59" y="72.41" class="color_Republican" fill="#FF0000" stroke="#FFFFFF"/>
          <use xlink:href="#img-6f2cdd28-20" x="128.54" y="80.52" class="color_Republican" fill="#FF0000" stroke="#FFFFFF"/>
          <use xlink:href="#img-6f2cdd28-20" x="134.49" y="71.83" class="color_Republican" fill="#FF0000" stroke="#FFFFFF"/>
          <use xlink:href="#img-6f2cdd28-20" x="140.44" y="73.24" class="color_Republican" fill="#FF0000" stroke="#FFFFFF"/>
          <use xlink:href="#img-6f2cdd28-20" x="146.39" y="74.82" class="color_Republican" fill="#FF0000" stroke="#FFFFFF"/>
          <use xlink:href="#img-6f2cdd28-20" x="152.34" y="72.3" class="color_Republican" fill="#FF0000" stroke="#FFFFFF"/>
          <use xlink:href="#img-6f2cdd28-20" x="158.29" y="94.68" class="color_Republican" fill="#FF0000" stroke="#FFFFFF"/>
          <use xlink:href="#img-6f2cdd28-20" x="164.24" y="75.54" class="color_Republican" fill="#FF0000" stroke="#FFFFFF"/>
          <use xlink:href="#img-6f2cdd28-20" x="170.19" y="66.76" class="color_Republican" fill="#FF0000" stroke="#FFFFFF"/>
          <use xlink:href="#img-6f2cdd28-20" x="176.14" y="74.68" class="color_Republican" fill="#FF0000" stroke="#FFFFFF"/>
          <use xlink:href="#img-6f2cdd28-20" x="182.09" y="64.23" class="color_Republican" fill="#FF0000" stroke="#FFFFFF"/>
          <use xlink:href="#img-6f2cdd28-20" x="188.04" y="86" class="color_Republican" fill="#FF0000" stroke="#FFFFFF"/>
          <use xlink:href="#img-6f2cdd28-20" x="193.99" y="87.71" class="color_Republican" fill="#FF0000" stroke="#FFFFFF"/>
          <use xlink:href="#img-6f2cdd28-20" x="199.94" y="86.13" class="color_Republican" fill="#FF0000" stroke="#FFFFFF"/>
          <use xlink:href="#img-6f2cdd28-20" x="205.89" y="79.1" class="color_Republican" fill="#FF0000" stroke="#FFFFFF"/>
          <use xlink:href="#img-6f2cdd28-20" x="211.84" y="81.51" class="color_Republican" fill="#FF0000" stroke="#FFFFFF"/>
          <use xlink:href="#img-6f2cdd28-20" x="217.79" y="68.09" class="color_Republican" fill="#FF0000" stroke="#FFFFFF"/>
          <use xlink:href="#img-6f2cdd28-20" x="223.74" y="68.88" class="color_Republican" fill="#FF0000" stroke="#FFFFFF"/>
          <use xlink:href="#img-6f2cdd28-20" x="229.69" y="65.09" class="color_Republican" fill="#FF0000" stroke="#FFFFFF"/>
          <use xlink:href="#img-6f2cdd28-20" x="235.64" y="73.71" class="color_Republican" fill="#FF0000" stroke="#FFFFFF"/>
          <use xlink:href="#img-6f2cdd28-20" x="241.59" y="80.51" class="color_Republican" fill="#FF0000" stroke="#FFFFFF"/>
          <use xlink:href="#img-6f2cdd28-20" x="247.55" y="49.97" class="color_Republican" fill="#FF0000" stroke="#FFFFFF"/>
          <use xlink:href="#img-6f2cdd28-20" x="253.5" y="75.3" class="color_Republican" fill="#FF0000" stroke="#FFFFFF"/>
          <use xlink:href="#img-6f2cdd28-20" x="259.45" y="69.41" class="color_Republican" fill="#FF0000" stroke="#FFFFFF"/>
          <use xlink:href="#img-6f2cdd28-20" x="265.4" y="60.05" class="color_Republican" fill="#FF0000" stroke="#FFFFFF"/>
          <use xlink:href="#img-6f2cdd28-20" x="271.35" y="60" class="color_Republican" fill="#FF0000" stroke="#FFFFFF"/>
          <use xlink:href="#img-6f2cdd28-20" x="277.3" y="75.82" class="color_Republican" fill="#FF0000" stroke="#FFFFFF"/>
          <use xlink:href="#img-6f2cdd28-20" x="283.25" y="72.59" class="color_Republican" fill="#FF0000" stroke="#FFFFFF"/>
          <use xlink:href="#img-6f2cdd28-20" x="289.2" y="66.9" class="color_Republican" fill="#FF0000" stroke="#FFFFFF"/>
          <use xlink:href="#img-6f2cdd28-20" x="295.15" y="61.1" class="color_Republican" fill="#FF0000" stroke="#FFFFFF"/>
          <use xlink:href="#img-6f2cdd28-20" x="301.1" y="61.07" class="color_Republican" fill="#FF0000" stroke="#FFFFFF"/>
          <use xlink:href="#img-6f2cdd28-20" x="307.05" y="58.43" class="color_Republican" fill="#FF0000" stroke="#FFFFFF"/>
          <use xlink:href="#img-6f2cdd28-20" x="33.33" y="21.84" class="color_Democratic" fill="#0000FF" stroke="#FFFFFF"/>
          <use xlink:href="#img-6f2cdd28-20" x="39.28" y="21.59" class="color_Democratic" fill="#0000FF" stroke="#FFFFFF"/>
          <use xlink:href="#img-6f2cdd28-20" x="45.23" y="76.18" class="color_Democratic" fill="#0000FF" stroke="#FFFFFF"/>
          <use xlink:href="#img-6f2cdd28-20" x="51.18" y="73.87" class="color_Democratic" fill="#0000FF" stroke="#FFFFFF"/>
          <use xlink:href="#img-6f2cdd28-20" x="57.13" y="68.13" class="color_Democratic" fill="#0000FF" stroke="#FFFFFF"/>
          <use xlink:href="#img-6f2cdd28-20" x="63.08" y="70.66" class="color_Democratic" fill="#0000FF" stroke="#FFFFFF"/>
          <use xlink:href="#img-6f2cdd28-20" x="69.03" y="68.82" class="color_Democratic" fill="#0000FF" stroke="#FFFFFF"/>
          <use xlink:href="#img-6f2cdd28-20" x="74.98" y="65.84" class="color_Democratic" fill="#0000FF" stroke="#FFFFFF"/>
          <use xlink:href="#img-6f2cdd28-20" x="80.93" y="111.34" class="color_Democratic" fill="#0000FF" stroke="#FFFFFF"/>
          <use xlink:href="#img-6f2cdd28-20" x="92.83" y="86.93" class="color_Democratic" fill="#0000FF" stroke="#FFFFFF"/>
          <use xlink:href="#img-6f2cdd28-20" x="98.78" y="65.86" class="color_Democratic" fill="#0000FF" stroke="#FFFFFF"/>
          <use xlink:href="#img-6f2cdd28-20" x="104.74" y="58.06" class="color_Democratic" fill="#0000FF" stroke="#FFFFFF"/>
          <use xlink:href="#img-6f2cdd28-20" x="110.69" y="64.74" class="color_Democratic" fill="#0000FF" stroke="#FFFFFF"/>
          <use xlink:href="#img-6f2cdd28-20" x="116.64" y="66.59" class="color_Democratic" fill="#0000FF" stroke="#FFFFFF"/>
          <use xlink:href="#img-6f2cdd28-20" x="122.59" y="65.77" class="color_Democratic" fill="#0000FF" stroke="#FFFFFF"/>
          <use xlink:href="#img-6f2cdd28-20" x="128.54" y="66.69" class="color_Democratic" fill="#0000FF" stroke="#FFFFFF"/>
          <use xlink:href="#img-6f2cdd28-20" x="134.49" y="65.93" class="color_Democratic" fill="#0000FF" stroke="#FFFFFF"/>
          <use xlink:href="#img-6f2cdd28-20" x="140.44" y="64.97" class="color_Democratic" fill="#0000FF" stroke="#FFFFFF"/>
          <use xlink:href="#img-6f2cdd28-20" x="146.39" y="63.74" class="color_Democratic" fill="#0000FF" stroke="#FFFFFF"/>
          <use xlink:href="#img-6f2cdd28-20" x="152.34" y="65.28" class="color_Democratic" fill="#0000FF" stroke="#FFFFFF"/>
          <use xlink:href="#img-6f2cdd28-20" x="158.29" y="65.21" class="color_Democratic" fill="#0000FF" stroke="#FFFFFF"/>
          <use xlink:href="#img-6f2cdd28-20" x="164.24" y="61.61" class="color_Democratic" fill="#0000FF" stroke="#FFFFFF"/>
          <use xlink:href="#img-6f2cdd28-20" x="170.19" y="69.93" class="color_Democratic" fill="#0000FF" stroke="#FFFFFF"/>
          <use xlink:href="#img-6f2cdd28-20" x="176.14" y="65.15" class="color_Democratic" fill="#0000FF" stroke="#FFFFFF"/>
          <use xlink:href="#img-6f2cdd28-20" x="182.09" y="72.13" class="color_Democratic" fill="#0000FF" stroke="#FFFFFF"/>
          <use xlink:href="#img-6f2cdd28-20" x="188.04" y="51.2" class="color_Democratic" fill="#0000FF" stroke="#FFFFFF"/>
          <use xlink:href="#img-6f2cdd28-20" x="193.99" y="48.85" class="color_Democratic" fill="#0000FF" stroke="#FFFFFF"/>
          <use xlink:href="#img-6f2cdd28-20" x="199.94" y="50.42" class="color_Democratic" fill="#0000FF" stroke="#FFFFFF"/>
          <use xlink:href="#img-6f2cdd28-20" x="205.89" y="57.38" class="color_Democratic" fill="#0000FF" stroke="#FFFFFF"/>
          <use xlink:href="#img-6f2cdd28-20" x="211.84" y="68.96" class="color_Democratic" fill="#0000FF" stroke="#FFFFFF"/>
          <use xlink:href="#img-6f2cdd28-20" x="217.79" y="68.37" class="color_Democratic" fill="#0000FF" stroke="#FFFFFF"/>
          <use xlink:href="#img-6f2cdd28-20" x="223.74" y="69.51" class="color_Democratic" fill="#0000FF" stroke="#FFFFFF"/>
          <use xlink:href="#img-6f2cdd28-20" x="229.69" y="72.4" class="color_Democratic" fill="#0000FF" stroke="#FFFFFF"/>
          <use xlink:href="#img-6f2cdd28-20" x="235.64" y="62.44" class="color_Democratic" fill="#0000FF" stroke="#FFFFFF"/>
          <use xlink:href="#img-6f2cdd28-20" x="241.59" y="90.45" class="color_Democratic" fill="#0000FF" stroke="#FFFFFF"/>
          <use xlink:href="#img-6f2cdd28-20" x="247.55" y="88.8" class="color_Democratic" fill="#0000FF" stroke="#FFFFFF"/>
          <use xlink:href="#img-6f2cdd28-20" x="253.5" y="61.99" class="color_Democratic" fill="#0000FF" stroke="#FFFFFF"/>
          <use xlink:href="#img-6f2cdd28-20" x="259.45" y="69.7" class="color_Democratic" fill="#0000FF" stroke="#FFFFFF"/>
          <use xlink:href="#img-6f2cdd28-20" x="265.4" y="76.7" class="color_Democratic" fill="#0000FF" stroke="#FFFFFF"/>
          <use xlink:href="#img-6f2cdd28-20" x="271.35" y="76.73" class="color_Democratic" fill="#0000FF" stroke="#FFFFFF"/>
          <use xlink:href="#img-6f2cdd28-20" x="277.3" y="71.06" class="color_Democratic" fill="#0000FF" stroke="#FFFFFF"/>
          <use xlink:href="#img-6f2cdd28-20" x="283.25" y="70.12" class="color_Democratic" fill="#0000FF" stroke="#FFFFFF"/>
          <use xlink:href="#img-6f2cdd28-20" x="289.2" y="70.85" class="color_Democratic" fill="#0000FF" stroke="#FFFFFF"/>
          <use xlink:href="#img-6f2cdd28-20" x="295.15" y="75.74" class="color_Democratic" fill="#0000FF" stroke="#FFFFFF"/>
          <use xlink:href="#img-6f2cdd28-20" x="301.1" y="76.47" class="color_Democratic" fill="#0000FF" stroke="#FFFFFF"/>
          <use xlink:href="#img-6f2cdd28-20" x="307.05" y="79.29" class="color_Democratic" fill="#0000FF" stroke="#FFFFFF"/>
        </g>
      </g>
      <g stroke-width="0.53" fill="#000000" fill-opacity="0.000" stroke-dasharray="none" id="img-6f2cdd28-21">
        <path fill="none" d="M33.33,21.84 L 39.28 21.59 45.23 76.18 51.18 73.87 57.13 68.13 63.08 70.66 69.03 68.82 74.98 65.84 80.93 111.34 92.83 86.93 98.78 65.86 104.74 58.06 110.69 64.74 116.64 66.59 122.59 65.77 128.54 66.69 134.49 65.93 140.44 64.97 146.39 63.74 152.34 65.28 158.29 65.21 164.24 61.61 170.19 69.93 176.14 65.15 182.09 72.13 188.04 51.2 193.99 48.85 199.94 50.42 205.89 57.38 211.84 68.96 217.79 68.37 223.74 69.51 229.69 72.4 235.64 62.44 241.59 90.45 247.55 88.8 253.5 61.99 259.45 69.7 265.4 76.7 271.35 76.73 277.3 71.06 283.25 70.12 289.2 70.85 295.15 75.74 301.1 76.47 307.05 79.29" class="geometry color_Democratic" stroke="#0000FF"/>
        <path fill="none" d="M80.93,119.24 L 92.83 49.22 98.78 70.28 104.74 78.09 110.69 73.94 116.64 70.39 122.59 72.41 128.54 80.52 134.49 71.83 140.44 73.24 146.39 74.82 152.34 72.3 158.29 94.68 164.24 75.54 170.19 66.76 176.14 74.68 182.09 64.23 188.04 86 193.99 87.71 199.94 86.13 205.89 79.1 211.84 81.51 217.79 68.09 223.74 68.88 229.69 65.09 235.64 73.71 241.59 80.51 247.55 49.97 253.5 75.3 259.45 69.41 265.4 60.05 271.35 60 277.3 75.82 283.25 72.59 289.2 66.9 295.15 61.1 301.1 61.07 307.05 58.43" class="geometry color_Republican" stroke="#FF0000"/>
      </g>
    </g>
  </g>
</g>
  <g class="guide ylabels" font-size="4.76" font-family="'PT Sans Caption','Helvetica Neue','Helvetica',sans-serif" fill="#6C606B" id="img-6f2cdd28-22">
    <text x="24.38" y="119.24" text-anchor="end" dy="0.35em">0</text>
    <text x="24.38" y="93.66" text-anchor="end" dy="0.35em">25</text>
    <text x="24.38" y="68.07" text-anchor="end" dy="0.35em">50</text>
    <text x="24.38" y="42.49" text-anchor="end" dy="0.35em">75</text>
    <text x="24.38" y="16.91" text-anchor="end" dy="0.35em">100</text>
  </g>
  <g font-size="6.35" font-family="'PT Sans','Helvetica Neue','Helvetica',sans-serif" fill="#564A55" stroke="#000000" stroke-opacity="0.000" id="img-6f2cdd28-23">
    <text x="9.95" y="66.07" text-anchor="middle" dy="0.35em" transform="rotate(-90, 9.95, 68.07)">Popular Vote (%)</text>
  </g>
  <g font-size="6.35" font-family="'PT Sans','Helvetica Neue','Helvetica',sans-serif" fill="#564A55" stroke="#000000" stroke-opacity="0.000" id="img-6f2cdd28-24">
    <text x="170.19" y="12.91" text-anchor="middle">Tennessee</text>
  </g>
</g>
<defs>
  <clipPath id="img-6f2cdd28-12">
  <path d="M25.38,14.91 L 315 14.91 315 121.24 25.38 121.24" />
</clipPath>
  <g id="img-6f2cdd28-20">
    <circle cx="0" cy="0" r="0.9"/>
  </g>
</defs>
</svg>
