<?xml version="1.0" encoding="UTF-8"?>
<svg xmlns="http://www.w3.org/2000/svg"
     xmlns:xlink="http://www.w3.org/1999/xlink"
     xmlns:gadfly="http://www.gadflyjl.org/ns"
     version="1.2"
     width="320mm" height="160mm" viewBox="0 0 320 160"
     stroke="none"
     fill="#000000"
     stroke-width="0.3"
     font-size="3.88"
>
<g class="plotroot xscalable yscalable" id="img-b7eb702d-1">
  <g class="guide colorkey" id="img-b7eb702d-2">
    <g class="color_Democratic" id="img-b7eb702d-3">
      <g fill="#4C404B" font-size="4.76" font-family="'PT Sans','Helvetica Neue','Helvetica',sans-serif" id="img-b7eb702d-4">
        <text x="57.56" y="150.05" dy="0.35em">Democratic</text>
      </g>
      <g fill="#0000FF" stroke="#000000" stroke-opacity="0.000" id="img-b7eb702d-5">
        <rect x="53.84" y="148.69" width="2.72" height="2.72"/>
      </g>
    </g>
    <g class="color_Republican" id="img-b7eb702d-6">
      <g fill="#4C404B" font-size="4.76" font-family="'PT Sans','Helvetica Neue','Helvetica',sans-serif" id="img-b7eb702d-7">
        <text x="30.1" y="150.05" dy="0.35em">Republican</text>
      </g>
      <g fill="#FF0000" stroke="#000000" stroke-opacity="0.000" id="img-b7eb702d-8">
        <rect x="26.38" y="148.69" width="2.72" height="2.72"/>
      </g>
    </g>
    <g fill="#362A35" font-size="6.35" font-family="'PT Sans','Helvetica Neue','Helvetica',sans-serif" stroke="#000000" stroke-opacity="0.000" id="img-b7eb702d-9">
      <text x="26.38" y="145.57">Party</text>
    </g>
  </g>
  <g font-size="6.35" font-family="'PT Sans','Helvetica Neue','Helvetica',sans-serif" fill="#564A55" stroke="#000000" stroke-opacity="0.000" id="img-b7eb702d-10">
    <text x="170.19" y="130.75" text-anchor="middle" dy="0.6em">Year</text>
  </g>
  <g class="guide xlabels" font-size="4.76" font-family="'PT Sans Caption','Helvetica Neue','Helvetica',sans-serif" fill="#6C606B" id="img-b7eb702d-11">
    <text x="27.38" y="122.24" text-anchor="middle" dy="0.6em">1892</text>
    <text x="45.81" y="122.24" text-anchor="middle" dy="0.6em">1900</text>
    <text x="64.23" y="122.24" text-anchor="middle" dy="0.6em">1908</text>
    <text x="82.66" y="122.24" text-anchor="middle" dy="0.6em">1916</text>
    <text x="101.09" y="122.24" text-anchor="middle" dy="0.6em">1924</text>
    <text x="119.52" y="122.24" text-anchor="middle" dy="0.6em">1932</text>
    <text x="137.94" y="122.24" text-anchor="middle" dy="0.6em">1940</text>
    <text x="156.37" y="122.24" text-anchor="middle" dy="0.6em">1948</text>
    <text x="174.8" y="122.24" text-anchor="middle" dy="0.6em">1956</text>
    <text x="193.22" y="122.24" text-anchor="middle" dy="0.6em">1964</text>
    <text x="211.65" y="122.24" text-anchor="middle" dy="0.6em">1972</text>
    <text x="230.08" y="122.24" text-anchor="middle" dy="0.6em">1980</text>
    <text x="248.51" y="122.24" text-anchor="middle" dy="0.6em">1988</text>
    <text x="266.93" y="122.24" text-anchor="middle" dy="0.6em">1996</text>
    <text x="285.36" y="122.24" text-anchor="middle" dy="0.6em">2004</text>
    <text x="303.79" y="122.24" text-anchor="middle" dy="0.6em">2012</text>
  </g>
<g clip-path="url(#img-b7eb702d-12)">
  <g id="img-b7eb702d-13">
    <g pointer-events="visible" opacity="1" fill="#000000" fill-opacity="0.000" stroke="#000000" stroke-opacity="0.000" class="guide background" id="img-b7eb702d-14">
      <rect x="25.38" y="14.91" width="289.62" height="106.33"/>
    </g>
    <g class="guide ygridlines xfixed" stroke-dasharray="0.5,0.5" stroke-width="0.26" stroke="#000000" id="img-b7eb702d-15">
      <path fill="none" d="M25.38,119.24 L 315 119.24"/>
      <path fill="none" d="M25.38,93.66 L 315 93.66"/>
      <path fill="none" d="M25.38,68.07 L 315 68.07"/>
      <path fill="none" d="M25.38,42.49 L 315 42.49"/>
      <path fill="none" d="M25.38,16.91 L 315 16.91"/>
    </g>
    <g class="guide xgridlines yfixed" stroke-dasharray="0.5,0.5" stroke-width="0.26" stroke="#000000" id="img-b7eb702d-16">
      <path fill="none" d="M27.38,14.91 L 27.38 121.24"/>
      <path fill="none" d="M45.81,14.91 L 45.81 121.24"/>
      <path fill="none" d="M64.23,14.91 L 64.23 121.24"/>
      <path fill="none" d="M82.66,14.91 L 82.66 121.24"/>
      <path fill="none" d="M101.09,14.91 L 101.09 121.24"/>
      <path fill="none" d="M119.52,14.91 L 119.52 121.24"/>
      <path fill="none" d="M137.94,14.91 L 137.94 121.24"/>
      <path fill="none" d="M156.37,14.91 L 156.37 121.24"/>
      <path fill="none" d="M174.8,14.91 L 174.8 121.24"/>
      <path fill="none" d="M193.22,14.91 L 193.22 121.24"/>
      <path fill="none" d="M211.65,14.91 L 211.65 121.24"/>
      <path fill="none" d="M230.08,14.91 L 230.08 121.24"/>
      <path fill="none" d="M248.51,14.91 L 248.51 121.24"/>
      <path fill="none" d="M266.93,14.91 L 266.93 121.24"/>
      <path fill="none" d="M285.36,14.91 L 285.36 121.24"/>
      <path fill="none" d="M303.79,14.91 L 303.79 121.24"/>
    </g>
    <g class="plotpanel" id="img-b7eb702d-17">
      <g class="geometry" id="img-b7eb702d-18">
        <g stroke-width="0.3" id="img-b7eb702d-19">
          <use xlink:href="#img-b7eb702d-20" x="36.59" y="101.57" class="color_Republican" fill="#FF0000" stroke="#FFFFFF"/>
          <use xlink:href="#img-b7eb702d-20" x="45.81" y="67.48" class="color_Republican" fill="#FF0000" stroke="#FFFFFF"/>
          <use xlink:href="#img-b7eb702d-20" x="55.02" y="56.39" class="color_Republican" fill="#FF0000" stroke="#FFFFFF"/>
          <use xlink:href="#img-b7eb702d-20" x="64.23" y="61.74" class="color_Republican" fill="#FF0000" stroke="#FFFFFF"/>
          <use xlink:href="#img-b7eb702d-20" x="73.45" y="80.91" class="color_Republican" fill="#FF0000" stroke="#FFFFFF"/>
          <use xlink:href="#img-b7eb702d-20" x="82.66" y="80.54" class="color_Republican" fill="#FF0000" stroke="#FFFFFF"/>
          <use xlink:href="#img-b7eb702d-20" x="91.87" y="62.01" class="color_Republican" fill="#FF0000" stroke="#FFFFFF"/>
          <use xlink:href="#img-b7eb702d-20" x="101.09" y="68.84" class="color_Republican" fill="#FF0000" stroke="#FFFFFF"/>
          <use xlink:href="#img-b7eb702d-20" x="110.3" y="64.41" class="color_Republican" fill="#FF0000" stroke="#FFFFFF"/>
          <use xlink:href="#img-b7eb702d-20" x="119.52" y="77.24" class="color_Republican" fill="#FF0000" stroke="#FFFFFF"/>
          <use xlink:href="#img-b7eb702d-20" x="128.73" y="88.75" class="color_Republican" fill="#FF0000" stroke="#FFFFFF"/>
          <use xlink:href="#img-b7eb702d-20" x="137.94" y="80.77" class="color_Republican" fill="#FF0000" stroke="#FFFFFF"/>
          <use xlink:href="#img-b7eb702d-20" x="147.16" y="78.9" class="color_Republican" fill="#FF0000" stroke="#FFFFFF"/>
          <use xlink:href="#img-b7eb702d-20" x="156.37" y="73.17" class="color_Republican" fill="#FF0000" stroke="#FFFFFF"/>
          <use xlink:href="#img-b7eb702d-20" x="165.58" y="58.94" class="color_Republican" fill="#FF0000" stroke="#FFFFFF"/>
          <use xlink:href="#img-b7eb702d-20" x="174.8" y="53.17" class="color_Republican" fill="#FF0000" stroke="#FFFFFF"/>
          <use xlink:href="#img-b7eb702d-20" x="184.01" y="63.16" class="color_Republican" fill="#FF0000" stroke="#FFFFFF"/>
          <use xlink:href="#img-b7eb702d-20" x="193.22" y="73.05" class="color_Republican" fill="#FF0000" stroke="#FFFFFF"/>
          <use xlink:href="#img-b7eb702d-20" x="202.44" y="61.43" class="color_Republican" fill="#FF0000" stroke="#FFFFFF"/>
          <use xlink:href="#img-b7eb702d-20" x="211.65" y="50.02" class="color_Republican" fill="#FF0000" stroke="#FFFFFF"/>
          <use xlink:href="#img-b7eb702d-20" x="220.86" y="55.35" class="color_Republican" fill="#FF0000" stroke="#FFFFFF"/>
          <use xlink:href="#img-b7eb702d-20" x="230.08" y="44.77" class="color_Republican" fill="#FF0000" stroke="#FFFFFF"/>
          <use xlink:href="#img-b7eb702d-20" x="239.29" y="43" class="color_Republican" fill="#FF0000" stroke="#FFFFFF"/>
          <use xlink:href="#img-b7eb702d-20" x="248.51" y="51.48" class="color_Republican" fill="#FF0000" stroke="#FFFFFF"/>
          <use xlink:href="#img-b7eb702d-20" x="257.72" y="74.87" class="color_Republican" fill="#FF0000" stroke="#FFFFFF"/>
          <use xlink:href="#img-b7eb702d-20" x="266.93" y="63.6" class="color_Republican" fill="#FF0000" stroke="#FFFFFF"/>
          <use xlink:href="#img-b7eb702d-20" x="276.15" y="50.85" class="color_Republican" fill="#FF0000" stroke="#FFFFFF"/>
          <use xlink:href="#img-b7eb702d-20" x="285.36" y="46.04" class="color_Republican" fill="#FF0000" stroke="#FFFFFF"/>
          <use xlink:href="#img-b7eb702d-20" x="294.57" y="55.64" class="color_Republican" fill="#FF0000" stroke="#FFFFFF"/>
          <use xlink:href="#img-b7eb702d-20" x="303.79" y="45" class="color_Republican" fill="#FF0000" stroke="#FFFFFF"/>
          <use xlink:href="#img-b7eb702d-20" x="36.59" y="34.61" class="color_Democratic" fill="#0000FF" stroke="#FFFFFF"/>
          <use xlink:href="#img-b7eb702d-20" x="45.81" y="69.82" class="color_Democratic" fill="#0000FF" stroke="#FFFFFF"/>
          <use xlink:href="#img-b7eb702d-20" x="55.02" y="85.61" class="color_Democratic" fill="#0000FF" stroke="#FFFFFF"/>
          <use xlink:href="#img-b7eb702d-20" x="64.23" y="79.1" class="color_Democratic" fill="#0000FF" stroke="#FFFFFF"/>
          <use xlink:href="#img-b7eb702d-20" x="73.45" y="85.93" class="color_Democratic" fill="#0000FF" stroke="#FFFFFF"/>
          <use xlink:href="#img-b7eb702d-20" x="82.66" y="59.09" class="color_Democratic" fill="#0000FF" stroke="#FFFFFF"/>
          <use xlink:href="#img-b7eb702d-20" x="91.87" y="79.49" class="color_Democratic" fill="#0000FF" stroke="#FFFFFF"/>
          <use xlink:href="#img-b7eb702d-20" x="101.09" y="88.6" class="color_Democratic" fill="#0000FF" stroke="#FFFFFF"/>
          <use xlink:href="#img-b7eb702d-20" x="110.3" y="72.31" class="color_Democratic" fill="#0000FF" stroke="#FFFFFF"/>
          <use xlink:href="#img-b7eb702d-20" x="119.52" y="61.41" class="color_Democratic" fill="#0000FF" stroke="#FFFFFF"/>
          <use xlink:href="#img-b7eb702d-20" x="128.73" y="48.28" class="color_Democratic" fill="#0000FF" stroke="#FFFFFF"/>
          <use xlink:href="#img-b7eb702d-20" x="137.94" y="55.53" class="color_Democratic" fill="#0000FF" stroke="#FFFFFF"/>
          <use xlink:href="#img-b7eb702d-20" x="147.16" y="57.39" class="color_Democratic" fill="#0000FF" stroke="#FFFFFF"/>
          <use xlink:href="#img-b7eb702d-20" x="156.37" y="64" class="color_Democratic" fill="#0000FF" stroke="#FFFFFF"/>
          <use xlink:href="#img-b7eb702d-20" x="165.58" y="77.21" class="color_Democratic" fill="#0000FF" stroke="#FFFFFF"/>
          <use xlink:href="#img-b7eb702d-20" x="174.8" y="82.97" class="color_Democratic" fill="#0000FF" stroke="#FFFFFF"/>
          <use xlink:href="#img-b7eb702d-20" x="184.01" y="73.02" class="color_Democratic" fill="#0000FF" stroke="#FFFFFF"/>
          <use xlink:href="#img-b7eb702d-20" x="193.22" y="63.1" class="color_Democratic" fill="#0000FF" stroke="#FFFFFF"/>
          <use xlink:href="#img-b7eb702d-20" x="202.44" y="81.3" class="color_Democratic" fill="#0000FF" stroke="#FFFFFF"/>
          <use xlink:href="#img-b7eb702d-20" x="211.65" y="92.23" class="color_Democratic" fill="#0000FF" stroke="#FFFFFF"/>
          <use xlink:href="#img-b7eb702d-20" x="220.86" y="84.81" class="color_Democratic" fill="#0000FF" stroke="#FFFFFF"/>
          <use xlink:href="#img-b7eb702d-20" x="230.08" y="98.19" class="color_Democratic" fill="#0000FF" stroke="#FFFFFF"/>
          <use xlink:href="#img-b7eb702d-20" x="239.29" y="93.99" class="color_Democratic" fill="#0000FF" stroke="#FFFFFF"/>
          <use xlink:href="#img-b7eb702d-20" x="248.51" y="86.45" class="color_Democratic" fill="#0000FF" stroke="#FFFFFF"/>
          <use xlink:href="#img-b7eb702d-20" x="257.72" y="94.01" class="color_Democratic" fill="#0000FF" stroke="#FFFFFF"/>
          <use xlink:href="#img-b7eb702d-20" x="266.93" y="85.17" class="color_Democratic" fill="#0000FF" stroke="#FFFFFF"/>
          <use xlink:href="#img-b7eb702d-20" x="276.15" y="92.28" class="color_Democratic" fill="#0000FF" stroke="#FFFFFF"/>
          <use xlink:href="#img-b7eb702d-20" x="285.36" y="92.64" class="color_Democratic" fill="#0000FF" stroke="#FFFFFF"/>
          <use xlink:href="#img-b7eb702d-20" x="294.57" y="84.27" class="color_Democratic" fill="#0000FF" stroke="#FFFFFF"/>
          <use xlink:href="#img-b7eb702d-20" x="303.79" y="94" class="color_Democratic" fill="#0000FF" stroke="#FFFFFF"/>
        </g>
      </g>
      <g stroke-width="0.53" fill="#000000" fill-opacity="0.000" stroke-dasharray="none" id="img-b7eb702d-21">
        <path fill="none" d="M36.59,34.61 L 45.81 69.82 55.02 85.61 64.23 79.1 73.45 85.93 82.66 59.09 91.87 79.49 101.09 88.6 110.3 72.31 119.52 61.41 128.73 48.28 137.94 55.53 147.16 57.39 156.37 64 165.58 77.21 174.8 82.97 184.01 73.02 193.22 63.1 202.44 81.3 211.65 92.23 220.86 84.81 230.08 98.19 239.29 93.99 248.51 86.45 257.72 94.01 266.93 85.17 276.15 92.28 285.36 92.64 294.57 84.27 303.79 94" class="geometry color_Democratic" stroke="#0000FF"/>
        <path fill="none" d="M36.59,101.57 L 45.81 67.48 55.02 56.39 64.23 61.74 73.45 80.91 82.66 80.54 91.87 62.01 101.09 68.84 110.3 64.41 119.52 77.24 128.73 88.75 137.94 80.77 147.16 78.9 156.37 73.17 165.58 58.94 174.8 53.17 184.01 63.16 193.22 73.05 202.44 61.43 211.65 50.02 220.86 55.35 230.08 44.77 239.29 43 248.51 51.48 257.72 74.87 266.93 63.6 276.15 50.85 285.36 46.04 294.57 55.64 303.79 45" class="geometry color_Republican" stroke="#FF0000"/>
      </g>
    </g>
  </g>
</g>
  <g class="guide ylabels" font-size="4.76" font-family="'PT Sans Caption','Helvetica Neue','Helvetica',sans-serif" fill="#6C606B" id="img-b7eb702d-22">
    <text x="24.38" y="119.24" text-anchor="end" dy="0.35em">0</text>
    <text x="24.38" y="93.66" text-anchor="end" dy="0.35em">25</text>
    <text x="24.38" y="68.07" text-anchor="end" dy="0.35em">50</text>
    <text x="24.38" y="42.49" text-anchor="end" dy="0.35em">75</text>
    <text x="24.38" y="16.91" text-anchor="end" dy="0.35em">100</text>
  </g>
  <g font-size="6.35" font-family="'PT Sans','Helvetica Neue','Helvetica',sans-serif" fill="#564A55" stroke="#000000" stroke-opacity="0.000" id="img-b7eb702d-23">
    <text x="9.95" y="66.07" text-anchor="middle" dy="0.35em" transform="rotate(-90, 9.95, 68.07)">Popular Vote (%)</text>
  </g>
  <g font-size="6.35" font-family="'PT Sans','Helvetica Neue','Helvetica',sans-serif" fill="#564A55" stroke="#000000" stroke-opacity="0.000" id="img-b7eb702d-24">
    <text x="170.19" y="12.91" text-anchor="middle">Utah</text>
  </g>
</g>
<defs>
  <clipPath id="img-b7eb702d-12">
  <path d="M25.38,14.91 L 315 14.91 315 121.24 25.38 121.24" />
</clipPath>
  <g id="img-b7eb702d-20">
    <circle cx="0" cy="0" r="0.9"/>
  </g>
</defs>
</svg>
