<svg xmlns="http://www.w3.org/2000/svg" xmlns:xlink="http://www.w3.org/1999/xlink" version="1.2" width="238.1mm" height="599.924" viewBox="0 0 238.1 158.73" stroke-width=".3" font-size="3.88"><path d="M0 0h238.1v158.73H0z" stroke="#000" stroke-opacity="0" fill="#222831"/><g class="plotroot xscalable yscalable"><g class="guide colorkey"><g class="color_Democratic"><text x="51.52" y="148.78" dy=".35em" fill="#A1A1A1" font-size="3.7" font-family="'PT Sans','Helvetica Neue','Helvetica',sans-serif">Democratic</text><path d="M48.29 147.66h2.22v2.22h-2.22z" fill="#00F" stroke="#000" stroke-opacity="0"/></g><g class="color_Republican"><text x="29.6" y="148.78" dy=".35em" fill="#A1A1A1" font-size="3.7" font-family="'PT Sans','Helvetica Neue','Helvetica',sans-serif">Republican</text><path d="M26.38 147.66h2.22v2.22h-2.22z" fill="#F00" stroke="#000" stroke-opacity="0"/></g><text x="26.38" y="145.28" fill="#A1A1A1" font-size="6.35" font-family="'PT Sans','Helvetica Neue','Helvetica',sans-serif" stroke="#000" stroke-opacity="0">Party</text></g><text x="129.24" y="130.46" text-anchor="middle" dy=".6em" font-size="6.35" font-family="'PT Sans','Helvetica Neue','Helvetica',sans-serif" fill="#A1A1A1" stroke="#000" stroke-opacity="0">Year</text><g class="guide xlabels" font-size="4.76" font-family="'PT Sans Caption','Helvetica Neue','Helvetica',sans-serif" fill="#A1A1A1" text-anchor="middle"><text x="27.38" y="121.95" dy=".6em">1892</text><text x="40.52" y="121.95" dy=".6em">1900</text><text x="53.67" y="121.95" dy=".6em">1908</text><text x="66.81" y="121.95" dy=".6em">1916</text><text x="79.95" y="121.95" dy=".6em">1924</text><text x="93.09" y="121.95" dy=".6em">1932</text><text x="106.24" y="121.95" dy=".6em">1940</text><text x="119.38" y="121.95" dy=".6em">1948</text><text x="132.52" y="121.95" dy=".6em">1956</text><text x="145.67" y="121.95" dy=".6em">1964</text><text x="158.81" y="121.95" dy=".6em">1972</text><text x="171.95" y="121.95" dy=".6em">1980</text><text x="185.09" y="121.95" dy=".6em">1988</text><text x="198.24" y="121.95" dy=".6em">1996</text><text x="211.38" y="121.95" dy=".6em">2004</text><text x="224.52" y="121.95" dy=".6em">2012</text></g><g clip-path="url(#a)"><path d="M25.38 12.91H233.1v108.04H25.38z" pointer-events="visible" fill="#222831" stroke="#000" stroke-opacity="0" class="guide background"/><g class="guide ygridlines xfixed" stroke-dasharray="0.5,0.5" stroke-width=".2" stroke="#575757" fill="none"><path d="M25.38 118.95H233.1M25.38 92.94H233.1M25.38 66.93H233.1M25.38 40.92H233.1M25.38 14.91H233.1"/></g><g class="guide xgridlines yfixed" stroke-dasharray="0.5,0.5" stroke-width=".2" stroke="#575757" fill="none"><path d="M27.38 12.91v108.04M40.52 12.91v108.04M53.67 12.91v108.04M66.81 12.91v108.04M79.95 12.91v108.04M93.09 12.91v108.04M106.24 12.91v108.04M119.38 12.91v108.04M132.52 12.91v108.04M145.67 12.91v108.04M158.81 12.91v108.04M171.95 12.91v108.04M185.09 12.91v108.04M198.24 12.91v108.04M211.38 12.91v108.04M224.52 12.91v108.04"/></g><g class="plotpanel"><g class="geometry"><use xlink:href="#b" x="33.95" y="100.99" stroke="#B3867B" fill="#F00" class="color_Republican"/><use xlink:href="#b" x="40.52" y="66.32" stroke="#B3867B" fill="#F00" class="color_Republican"/><use xlink:href="#b" x="47.09" y="55.05" stroke="#B3867B" fill="#F00" class="color_Republican"/><use xlink:href="#b" x="53.67" y="60.49" stroke="#B3867B" fill="#F00" class="color_Republican"/><use xlink:href="#b" x="60.24" y="79.98" stroke="#B3867B" fill="#F00" class="color_Republican"/><use xlink:href="#b" x="66.81" y="79.6" stroke="#B3867B" fill="#F00" class="color_Republican"/><use xlink:href="#b" x="73.38" y="60.77" stroke="#B3867B" fill="#F00" class="color_Republican"/><use xlink:href="#b" x="79.95" y="67.71" stroke="#B3867B" fill="#F00" class="color_Republican"/><use xlink:href="#b" x="86.52" y="63.21" stroke="#B3867B" fill="#F00" class="color_Republican"/><use xlink:href="#b" x="93.09" y="76.25" stroke="#B3867B" fill="#F00" class="color_Republican"/><use xlink:href="#b" x="99.67" y="87.96" stroke="#B3867B" fill="#F00" class="color_Republican"/><use xlink:href="#b" x="106.24" y="79.85" stroke="#B3867B" fill="#F00" class="color_Republican"/><use xlink:href="#b" x="112.81" y="77.94" stroke="#B3867B" fill="#F00" class="color_Republican"/><use xlink:href="#b" x="119.38" y="72.11" stroke="#B3867B" fill="#F00" class="color_Republican"/><use xlink:href="#b" x="125.95" y="57.65" stroke="#B3867B" fill="#F00" class="color_Republican"/><use xlink:href="#b" x="132.52" y="51.78" stroke="#B3867B" fill="#F00" class="color_Republican"/><use xlink:href="#b" x="139.09" y="61.93" stroke="#B3867B" fill="#F00" class="color_Republican"/><use xlink:href="#b" x="145.67" y="71.99" stroke="#B3867B" fill="#F00" class="color_Republican"/><use xlink:href="#b" x="152.24" y="60.17" stroke="#B3867B" fill="#F00" class="color_Republican"/><use xlink:href="#b" x="158.81" y="48.58" stroke="#B3867B" fill="#F00" class="color_Republican"/><use xlink:href="#b" x="165.38" y="53.99" stroke="#B3867B" fill="#F00" class="color_Republican"/><use xlink:href="#b" x="171.95" y="43.24" stroke="#B3867B" fill="#F00" class="color_Republican"/><use xlink:href="#b" x="178.52" y="41.44" stroke="#B3867B" fill="#F00" class="color_Republican"/><use xlink:href="#b" x="185.09" y="50.06" stroke="#B3867B" fill="#F00" class="color_Republican"/><use xlink:href="#b" x="191.67" y="73.84" stroke="#B3867B" fill="#F00" class="color_Republican"/><use xlink:href="#b" x="198.24" y="62.38" stroke="#B3867B" fill="#F00" class="color_Republican"/><use xlink:href="#b" x="204.81" y="49.42" stroke="#B3867B" fill="#F00" class="color_Republican"/><use xlink:href="#b" x="211.38" y="44.52" stroke="#B3867B" fill="#F00" class="color_Republican"/><use xlink:href="#b" x="217.95" y="54.29" stroke="#B3867B" fill="#F00" class="color_Republican"/><use xlink:href="#b" x="224.52" y="43.47" stroke="#B3867B" fill="#F00" class="color_Republican"/><use xlink:href="#b" x="33.95" y="32.91" stroke="#988BAD" fill="#00F" class="color_Democratic"/><use xlink:href="#b" x="40.52" y="68.71" stroke="#988BAD" fill="#00F" class="color_Democratic"/><use xlink:href="#b" x="47.09" y="84.76" stroke="#988BAD" fill="#00F" class="color_Democratic"/><use xlink:href="#b" x="53.67" y="78.14" stroke="#988BAD" fill="#00F" class="color_Democratic"/><use xlink:href="#b" x="60.24" y="85.09" stroke="#988BAD" fill="#00F" class="color_Democratic"/><use xlink:href="#b" x="66.81" y="57.79" stroke="#988BAD" fill="#00F" class="color_Democratic"/><use xlink:href="#b" x="73.38" y="78.54" stroke="#988BAD" fill="#00F" class="color_Democratic"/><use xlink:href="#b" x="79.95" y="87.8" stroke="#988BAD" fill="#00F" class="color_Democratic"/><use xlink:href="#b" x="86.52" y="71.24" stroke="#988BAD" fill="#00F" class="color_Democratic"/><use xlink:href="#b" x="93.09" y="60.15" stroke="#988BAD" fill="#00F" class="color_Democratic"/><use xlink:href="#b" x="99.67" y="46.81" stroke="#988BAD" fill="#00F" class="color_Democratic"/><use xlink:href="#b" x="106.24" y="54.18" stroke="#988BAD" fill="#00F" class="color_Democratic"/><use xlink:href="#b" x="112.81" y="56.07" stroke="#988BAD" fill="#00F" class="color_Democratic"/><use xlink:href="#b" x="119.38" y="62.79" stroke="#988BAD" fill="#00F" class="color_Democratic"/><use xlink:href="#b" x="125.95" y="76.22" stroke="#988BAD" fill="#00F" class="color_Democratic"/><use xlink:href="#b" x="132.52" y="82.08" stroke="#988BAD" fill="#00F" class="color_Democratic"/><use xlink:href="#b" x="139.09" y="71.96" stroke="#988BAD" fill="#00F" class="color_Democratic"/><use xlink:href="#b" x="145.67" y="61.87" stroke="#988BAD" fill="#00F" class="color_Democratic"/><use xlink:href="#b" x="152.24" y="80.38" stroke="#988BAD" fill="#00F" class="color_Democratic"/><use xlink:href="#b" x="158.81" y="91.49" stroke="#988BAD" fill="#00F" class="color_Democratic"/><use xlink:href="#b" x="165.38" y="83.94" stroke="#988BAD" fill="#00F" class="color_Democratic"/><use xlink:href="#b" x="171.95" y="97.56" stroke="#988BAD" fill="#00F" class="color_Democratic"/><use xlink:href="#b" x="178.52" y="93.28" stroke="#988BAD" fill="#00F" class="color_Democratic"/><use xlink:href="#b" x="185.09" y="85.61" stroke="#988BAD" fill="#00F" class="color_Democratic"/><use xlink:href="#b" x="191.67" y="93.3" stroke="#988BAD" fill="#00F" class="color_Democratic"/><use xlink:href="#b" x="198.24" y="84.31" stroke="#988BAD" fill="#00F" class="color_Democratic"/><use xlink:href="#b" x="204.81" y="91.54" stroke="#988BAD" fill="#00F" class="color_Democratic"/><use xlink:href="#b" x="211.38" y="91.91" stroke="#988BAD" fill="#00F" class="color_Democratic"/><use xlink:href="#b" x="217.95" y="83.4" stroke="#988BAD" fill="#00F" class="color_Democratic"/><use xlink:href="#b" x="224.52" y="93.29" stroke="#988BAD" fill="#00F" class="color_Democratic"/></g><g fill-opacity="0"><path fill="none" d="M33.95 32.91l6.57 35.8 6.57 16.05 6.58-6.62 6.57 6.95 6.57-27.3 6.57 20.75 6.57 9.26 6.57-16.56 6.57-11.09 6.58-13.34 6.57 7.37 6.57 1.89 6.57 6.72 6.57 13.43 6.57 5.86 6.57-10.12 6.58-10.09 6.57 18.51 6.57 11.11 6.57-7.55 6.57 13.62 6.57-4.28 6.57-7.67 6.58 7.69 6.57-8.99 6.57 7.23 6.57.37 6.57-8.51 6.57 9.89" stroke="#00F" class="geometry color_Democratic"/><path fill="none" d="M33.95 100.99l6.57-34.67 6.57-11.27 6.58 5.44 6.57 19.49 6.57-.38 6.57-18.83 6.57 6.94 6.57-4.5 6.57 13.04 6.58 11.71 6.57-8.11 6.57-1.91 6.57-5.83 6.57-14.46 6.57-5.87 6.57 10.15 6.58 10.06 6.57-11.82 6.57-11.59 6.57 5.41 6.57-10.75 6.57-1.8 6.57 8.62 6.58 23.78 6.57-11.46 6.57-12.96 6.57-4.9 6.57 9.77 6.57-10.82" stroke="#F00" class="geometry color_Republican"/></g></g></g><g class="guide ylabels" font-size="4.76" font-family="'PT Sans Caption','Helvetica Neue','Helvetica',sans-serif" fill="#A1A1A1" text-anchor="end"><text x="24.38" y="118.95" dy=".35em">0</text><text x="24.38" y="92.94" dy=".35em">25</text><text x="24.38" y="66.93" dy=".35em">50</text><text x="24.38" y="40.92" dy=".35em">75</text><text x="24.38" y="14.91" dy=".35em">100</text></g><text x="9.95" y="64.93" text-anchor="middle" dy=".35em" transform="rotate(-90 9.95 66.93)" font-size="6.35" font-family="'PT Sans','Helvetica Neue','Helvetica',sans-serif" fill="#A1A1A1" stroke="#000" stroke-opacity="0">Popular Vote (%)</text><text x="129.24" y="5" text-anchor="middle" dy=".6em" font-size="6.35" font-family="'PT Sans','Helvetica Neue','Helvetica',sans-serif" fill="#A1A1A1" stroke="#000" stroke-opacity="0">Utah</text></g><defs><clipPath id="a"><path d="M25.38 12.91H233.1v108.04H25.38"/></clipPath><circle r=".9" id="b"/></defs></svg>