<?xml version="1.0" encoding="UTF-8"?>
<svg xmlns="http://www.w3.org/2000/svg"
     xmlns:xlink="http://www.w3.org/1999/xlink"
     xmlns:gadfly="http://www.gadflyjl.org/ns"
     version="1.2"
     width="320mm" height="160mm" viewBox="0 0 320 160"
     stroke="none"
     fill="#000000"
     stroke-width="0.3"
     font-size="3.88"
>
<g class="plotroot xscalable yscalable" id="img-7679149a-1">
  <g class="guide colorkey" id="img-7679149a-2">
    <g class="color_Democratic" id="img-7679149a-3">
      <g fill="#4C404B" font-size="4.76" font-family="'PT Sans','Helvetica Neue','Helvetica',sans-serif" id="img-7679149a-4">
        <text x="61.86" y="150" dy="0.35em">Democratic</text>
      </g>
      <g fill="#0000FF" stroke="#000000" stroke-opacity="0.000" id="img-7679149a-5">
        <rect x="57.89" y="148.52" width="2.97" height="2.97"/>
      </g>
    </g>
    <g class="color_Republican" id="img-7679149a-6">
      <g fill="#4C404B" font-size="4.76" font-family="'PT Sans','Helvetica Neue','Helvetica',sans-serif" id="img-7679149a-7">
        <text x="30.79" y="150" dy="0.35em">Republican</text>
      </g>
      <g fill="#FF0000" stroke="#000000" stroke-opacity="0.000" id="img-7679149a-8">
        <rect x="26.82" y="148.52" width="2.97" height="2.97"/>
      </g>
    </g>
    <g fill="#362A35" font-size="6.35" font-family="'PT Sans','Helvetica Neue','Helvetica',sans-serif" stroke="#000000" stroke-opacity="0.000" id="img-7679149a-9">
      <text x="26.82" y="145.06">Party</text>
    </g>
  </g>
  <g font-size="6.35" font-family="'PT Sans','Helvetica Neue','Helvetica',sans-serif" fill="#564A55" stroke="#000000" stroke-opacity="0.000" id="img-7679149a-10">
    <text x="170.41" y="131.48" text-anchor="middle" dy="0.6em">Year</text>
  </g>
  <g class="guide xlabels" font-size="4.76" font-family="'PT Sans Caption','Helvetica Neue','Helvetica',sans-serif" fill="#6C606B" id="img-7679149a-11">
    <text x="27.82" y="123.95" text-anchor="middle" dy="0.6em">1892</text>
    <text x="46.22" y="123.95" text-anchor="middle" dy="0.6em">1900</text>
    <text x="64.61" y="123.95" text-anchor="middle" dy="0.6em">1908</text>
    <text x="83.01" y="123.95" text-anchor="middle" dy="0.6em">1916</text>
    <text x="101.41" y="123.95" text-anchor="middle" dy="0.6em">1924</text>
    <text x="119.81" y="123.95" text-anchor="middle" dy="0.6em">1932</text>
    <text x="138.21" y="123.95" text-anchor="middle" dy="0.6em">1940</text>
    <text x="156.61" y="123.95" text-anchor="middle" dy="0.6em">1948</text>
    <text x="175.01" y="123.95" text-anchor="middle" dy="0.6em">1956</text>
    <text x="193.41" y="123.95" text-anchor="middle" dy="0.6em">1964</text>
    <text x="211.81" y="123.95" text-anchor="middle" dy="0.6em">1972</text>
    <text x="230.2" y="123.95" text-anchor="middle" dy="0.6em">1980</text>
    <text x="248.6" y="123.95" text-anchor="middle" dy="0.6em">1988</text>
    <text x="267" y="123.95" text-anchor="middle" dy="0.6em">1996</text>
    <text x="285.4" y="123.95" text-anchor="middle" dy="0.6em">2004</text>
    <text x="303.8" y="123.95" text-anchor="middle" dy="0.6em">2012</text>
  </g>
<g clip-path="url(#img-7679149a-12)">
  <g id="img-7679149a-13">
    <g pointer-events="visible" opacity="1" fill="#000000" fill-opacity="0.000" stroke="#000000" stroke-opacity="0.000" class="guide background" id="img-7679149a-14">
      <rect x="25.82" y="13.94" width="289.18" height="109.01"/>
    </g>
    <g class="guide ygridlines xfixed" stroke-dasharray="0.5,0.5" stroke-width="0.26" stroke="#000000" id="img-7679149a-15">
      <path fill="none" d="M25.82,120.95 L 315 120.95"/>
      <path fill="none" d="M25.82,94.7 L 315 94.7"/>
      <path fill="none" d="M25.82,68.44 L 315 68.44"/>
      <path fill="none" d="M25.82,42.19 L 315 42.19"/>
      <path fill="none" d="M25.82,15.94 L 315 15.94"/>
    </g>
    <g class="guide xgridlines yfixed" stroke-dasharray="0.5,0.5" stroke-width="0.26" stroke="#000000" id="img-7679149a-16">
      <path fill="none" d="M27.82,13.94 L 27.82 122.95"/>
      <path fill="none" d="M46.22,13.94 L 46.22 122.95"/>
      <path fill="none" d="M64.61,13.94 L 64.61 122.95"/>
      <path fill="none" d="M83.01,13.94 L 83.01 122.95"/>
      <path fill="none" d="M101.41,13.94 L 101.41 122.95"/>
      <path fill="none" d="M119.81,13.94 L 119.81 122.95"/>
      <path fill="none" d="M138.21,13.94 L 138.21 122.95"/>
      <path fill="none" d="M156.61,13.94 L 156.61 122.95"/>
      <path fill="none" d="M175.01,13.94 L 175.01 122.95"/>
      <path fill="none" d="M193.41,13.94 L 193.41 122.95"/>
      <path fill="none" d="M211.81,13.94 L 211.81 122.95"/>
      <path fill="none" d="M230.2,13.94 L 230.2 122.95"/>
      <path fill="none" d="M248.6,13.94 L 248.6 122.95"/>
      <path fill="none" d="M267,13.94 L 267 122.95"/>
      <path fill="none" d="M285.4,13.94 L 285.4 122.95"/>
      <path fill="none" d="M303.8,13.94 L 303.8 122.95"/>
    </g>
    <g class="plotpanel" id="img-7679149a-17">
      <g class="geometry" id="img-7679149a-18">
        <g stroke-width="0.3" id="img-7679149a-19">
          <use xlink:href="#img-7679149a-20" x="37.02" y="102.81" fill="#FF0000" class="color_Republican" stroke="#FFFFFF"/>
          <use xlink:href="#img-7679149a-20" x="46.22" y="67.83" fill="#FF0000" class="color_Republican" stroke="#FFFFFF"/>
          <use xlink:href="#img-7679149a-20" x="55.42" y="56.45" fill="#FF0000" class="color_Republican" stroke="#FFFFFF"/>
          <use xlink:href="#img-7679149a-20" x="64.61" y="61.95" fill="#FF0000" class="color_Republican" stroke="#FFFFFF"/>
          <use xlink:href="#img-7679149a-20" x="73.81" y="81.61" fill="#FF0000" class="color_Republican" stroke="#FFFFFF"/>
          <use xlink:href="#img-7679149a-20" x="83.01" y="81.24" fill="#FF0000" class="color_Republican" stroke="#FFFFFF"/>
          <use xlink:href="#img-7679149a-20" x="92.21" y="62.22" fill="#FF0000" class="color_Republican" stroke="#FFFFFF"/>
          <use xlink:href="#img-7679149a-20" x="101.41" y="69.23" fill="#FF0000" class="color_Republican" stroke="#FFFFFF"/>
          <use xlink:href="#img-7679149a-20" x="110.61" y="64.69" fill="#FF0000" class="color_Republican" stroke="#FFFFFF"/>
          <use xlink:href="#img-7679149a-20" x="119.81" y="77.85" fill="#FF0000" class="color_Republican" stroke="#FFFFFF"/>
          <use xlink:href="#img-7679149a-20" x="129.01" y="89.66" fill="#FF0000" class="color_Republican" stroke="#FFFFFF"/>
          <use xlink:href="#img-7679149a-20" x="138.21" y="81.48" fill="#FF0000" class="color_Republican" stroke="#FFFFFF"/>
          <use xlink:href="#img-7679149a-20" x="147.41" y="79.55" fill="#FF0000" class="color_Republican" stroke="#FFFFFF"/>
          <use xlink:href="#img-7679149a-20" x="156.61" y="73.67" fill="#FF0000" class="color_Republican" stroke="#FFFFFF"/>
          <use xlink:href="#img-7679149a-20" x="165.81" y="59.07" fill="#FF0000" class="color_Republican" stroke="#FFFFFF"/>
          <use xlink:href="#img-7679149a-20" x="175.01" y="53.15" fill="#FF0000" class="color_Republican" stroke="#FFFFFF"/>
          <use xlink:href="#img-7679149a-20" x="184.21" y="63.4" fill="#FF0000" class="color_Republican" stroke="#FFFFFF"/>
          <use xlink:href="#img-7679149a-20" x="193.41" y="73.55" fill="#FF0000" class="color_Republican" stroke="#FFFFFF"/>
          <use xlink:href="#img-7679149a-20" x="202.61" y="61.62" fill="#FF0000" class="color_Republican" stroke="#FFFFFF"/>
          <use xlink:href="#img-7679149a-20" x="211.81" y="49.92" fill="#FF0000" class="color_Republican" stroke="#FFFFFF"/>
          <use xlink:href="#img-7679149a-20" x="221.01" y="55.38" fill="#FF0000" class="color_Republican" stroke="#FFFFFF"/>
          <use xlink:href="#img-7679149a-20" x="230.2" y="44.53" fill="#FF0000" class="color_Republican" stroke="#FFFFFF"/>
          <use xlink:href="#img-7679149a-20" x="239.4" y="42.71" fill="#FF0000" class="color_Republican" stroke="#FFFFFF"/>
          <use xlink:href="#img-7679149a-20" x="248.6" y="51.41" fill="#FF0000" class="color_Republican" stroke="#FFFFFF"/>
          <use xlink:href="#img-7679149a-20" x="257.8" y="75.42" fill="#FF0000" class="color_Republican" stroke="#FFFFFF"/>
          <use xlink:href="#img-7679149a-20" x="267" y="63.85" fill="#FF0000" class="color_Republican" stroke="#FFFFFF"/>
          <use xlink:href="#img-7679149a-20" x="276.2" y="50.77" fill="#FF0000" class="color_Republican" stroke="#FFFFFF"/>
          <use xlink:href="#img-7679149a-20" x="285.4" y="45.83" fill="#FF0000" class="color_Republican" stroke="#FFFFFF"/>
          <use xlink:href="#img-7679149a-20" x="294.6" y="55.68" fill="#FF0000" class="color_Republican" stroke="#FFFFFF"/>
          <use xlink:href="#img-7679149a-20" x="303.8" y="44.77" fill="#FF0000" class="color_Republican" stroke="#FFFFFF"/>
          <use xlink:href="#img-7679149a-20" x="37.02" y="34.1" fill="#0000FF" class="color_Democratic" stroke="#FFFFFF"/>
          <use xlink:href="#img-7679149a-20" x="46.22" y="70.23" fill="#0000FF" class="color_Democratic" stroke="#FFFFFF"/>
          <use xlink:href="#img-7679149a-20" x="55.42" y="86.44" fill="#0000FF" class="color_Democratic" stroke="#FFFFFF"/>
          <use xlink:href="#img-7679149a-20" x="64.61" y="79.76" fill="#0000FF" class="color_Democratic" stroke="#FFFFFF"/>
          <use xlink:href="#img-7679149a-20" x="73.81" y="86.77" fill="#0000FF" class="color_Democratic" stroke="#FFFFFF"/>
          <use xlink:href="#img-7679149a-20" x="83.01" y="59.22" fill="#0000FF" class="color_Democratic" stroke="#FFFFFF"/>
          <use xlink:href="#img-7679149a-20" x="92.21" y="80.16" fill="#0000FF" class="color_Democratic" stroke="#FFFFFF"/>
          <use xlink:href="#img-7679149a-20" x="101.41" y="89.51" fill="#0000FF" class="color_Democratic" stroke="#FFFFFF"/>
          <use xlink:href="#img-7679149a-20" x="110.61" y="72.79" fill="#0000FF" class="color_Democratic" stroke="#FFFFFF"/>
          <use xlink:href="#img-7679149a-20" x="119.81" y="61.6" fill="#0000FF" class="color_Democratic" stroke="#FFFFFF"/>
          <use xlink:href="#img-7679149a-20" x="129.01" y="48.13" fill="#0000FF" class="color_Democratic" stroke="#FFFFFF"/>
          <use xlink:href="#img-7679149a-20" x="138.21" y="55.58" fill="#0000FF" class="color_Democratic" stroke="#FFFFFF"/>
          <use xlink:href="#img-7679149a-20" x="147.41" y="57.48" fill="#0000FF" class="color_Democratic" stroke="#FFFFFF"/>
          <use xlink:href="#img-7679149a-20" x="156.61" y="64.26" fill="#0000FF" class="color_Democratic" stroke="#FFFFFF"/>
          <use xlink:href="#img-7679149a-20" x="165.81" y="77.82" fill="#0000FF" class="color_Democratic" stroke="#FFFFFF"/>
          <use xlink:href="#img-7679149a-20" x="175.01" y="83.74" fill="#0000FF" class="color_Democratic" stroke="#FFFFFF"/>
          <use xlink:href="#img-7679149a-20" x="184.21" y="73.52" fill="#0000FF" class="color_Democratic" stroke="#FFFFFF"/>
          <use xlink:href="#img-7679149a-20" x="193.41" y="63.34" fill="#0000FF" class="color_Democratic" stroke="#FFFFFF"/>
          <use xlink:href="#img-7679149a-20" x="202.61" y="82.02" fill="#0000FF" class="color_Democratic" stroke="#FFFFFF"/>
          <use xlink:href="#img-7679149a-20" x="211.81" y="93.23" fill="#0000FF" class="color_Democratic" stroke="#FFFFFF"/>
          <use xlink:href="#img-7679149a-20" x="221.01" y="85.61" fill="#0000FF" class="color_Democratic" stroke="#FFFFFF"/>
          <use xlink:href="#img-7679149a-20" x="230.2" y="99.35" fill="#0000FF" class="color_Democratic" stroke="#FFFFFF"/>
          <use xlink:href="#img-7679149a-20" x="239.4" y="95.04" fill="#0000FF" class="color_Democratic" stroke="#FFFFFF"/>
          <use xlink:href="#img-7679149a-20" x="248.6" y="87.3" fill="#0000FF" class="color_Democratic" stroke="#FFFFFF"/>
          <use xlink:href="#img-7679149a-20" x="257.8" y="95.06" fill="#0000FF" class="color_Democratic" stroke="#FFFFFF"/>
          <use xlink:href="#img-7679149a-20" x="267" y="85.98" fill="#0000FF" class="color_Democratic" stroke="#FFFFFF"/>
          <use xlink:href="#img-7679149a-20" x="276.2" y="93.29" fill="#0000FF" class="color_Democratic" stroke="#FFFFFF"/>
          <use xlink:href="#img-7679149a-20" x="285.4" y="93.65" fill="#0000FF" class="color_Democratic" stroke="#FFFFFF"/>
          <use xlink:href="#img-7679149a-20" x="294.6" y="85.07" fill="#0000FF" class="color_Democratic" stroke="#FFFFFF"/>
          <use xlink:href="#img-7679149a-20" x="303.8" y="95.05" fill="#0000FF" class="color_Democratic" stroke="#FFFFFF"/>
        </g>
      </g>
      <g stroke-width="0.53" fill="#000000" fill-opacity="0.000" stroke-dasharray="none" id="img-7679149a-21">
        <path fill="none" d="M37.02,34.1 L 46.22 70.23 55.42 86.44 64.61 79.76 73.81 86.77 83.01 59.22 92.21 80.16 101.41 89.51 110.61 72.79 119.81 61.6 129.01 48.13 138.21 55.58 147.41 57.48 156.61 64.26 165.81 77.82 175.01 83.74 184.21 73.52 193.41 63.34 202.61 82.02 211.81 93.23 221.01 85.61 230.2 99.35 239.4 95.04 248.6 87.3 257.8 95.06 267 85.98 276.2 93.29 285.4 93.65 294.6 85.07 303.8 95.05" class="geometry color_Democratic" stroke="#0000FF"/>
        <path fill="none" d="M37.02,102.81 L 46.22 67.83 55.42 56.45 64.61 61.95 73.81 81.61 83.01 81.24 92.21 62.22 101.41 69.23 110.61 64.69 119.81 77.85 129.01 89.66 138.21 81.48 147.41 79.55 156.61 73.67 165.81 59.07 175.01 53.15 184.21 63.4 193.41 73.55 202.61 61.62 211.81 49.92 221.01 55.38 230.2 44.53 239.4 42.71 248.6 51.41 257.8 75.42 267 63.85 276.2 50.77 285.4 45.83 294.6 55.68 303.8 44.77" class="geometry color_Republican" stroke="#FF0000"/>
      </g>
    </g>
  </g>
</g>
  <g class="guide ylabels" font-size="4.76" font-family="'PT Sans Caption','Helvetica Neue','Helvetica',sans-serif" fill="#6C606B" id="img-7679149a-22">
    <text x="24.82" y="120.95" text-anchor="end" dy="0.35em">0</text>
    <text x="24.82" y="94.7" text-anchor="end" dy="0.35em">25</text>
    <text x="24.82" y="68.44" text-anchor="end" dy="0.35em">50</text>
    <text x="24.82" y="42.19" text-anchor="end" dy="0.35em">75</text>
    <text x="24.82" y="15.94" text-anchor="end" dy="0.35em">100</text>
  </g>
  <g font-size="6.35" font-family="'PT Sans','Helvetica Neue','Helvetica',sans-serif" fill="#564A55" stroke="#000000" stroke-opacity="0.000" id="img-7679149a-23">
    <text x="10.18" y="66.44" text-anchor="middle" dy="0.35em" transform="rotate(-90, 10.18, 68.44)">Popular Vote (%)</text>
  </g>
  <g font-size="6.35" font-family="'PT Sans','Helvetica Neue','Helvetica',sans-serif" fill="#564A55" stroke="#000000" stroke-opacity="0.000" id="img-7679149a-24">
    <text x="170.41" y="11.94" text-anchor="middle">Utah</text>
  </g>
</g>
<defs>
  <clipPath id="img-7679149a-12">
  <path d="M25.82,13.94 L 315 13.94 315 122.95 25.82 122.95" />
</clipPath>
  <g id="img-7679149a-20">
    <circle cx="0" cy="0" r="0.9"/>
  </g>
</defs>
</svg>
