<?xml version="1.0" encoding="UTF-8"?>
<svg xmlns="http://www.w3.org/2000/svg"
     xmlns:xlink="http://www.w3.org/1999/xlink"
     xmlns:gadfly="http://www.gadflyjl.org/ns"
     version="1.2"
     width="238.1mm" height="158.73mm" viewBox="0 0 238.1 158.73"
     stroke="none"
     fill="#000000"
     stroke-width="0.3"
     font-size="3.88"
>
<g stroke="#000000" stroke-opacity="0.000" fill="#222831" id="img-0a012e41-1">
  <rect x="0" y="0" width="238.1" height="158.73"/>
</g>
<g class="plotroot xscalable yscalable" id="img-0a012e41-2">
  <g class="guide colorkey" id="img-0a012e41-3">
    <g class="color_Democratic" id="img-0a012e41-4">
      <g fill="#A1A1A1" font-size="3.7" font-family="'PT Sans','Helvetica Neue','Helvetica',sans-serif" id="img-0a012e41-5">
        <text x="51.52" y="148.78" dy="0.35em">Democratic</text>
      </g>
      <g fill="#0000FF" stroke="#000000" stroke-opacity="0.000" id="img-0a012e41-6">
        <rect x="48.29" y="147.66" width="2.22" height="2.22"/>
      </g>
    </g>
    <g class="color_Republican" id="img-0a012e41-7">
      <g fill="#A1A1A1" font-size="3.7" font-family="'PT Sans','Helvetica Neue','Helvetica',sans-serif" id="img-0a012e41-8">
        <text x="29.6" y="148.78" dy="0.35em">Republican</text>
      </g>
      <g fill="#FF0000" stroke="#000000" stroke-opacity="0.000" id="img-0a012e41-9">
        <rect x="26.38" y="147.66" width="2.22" height="2.22"/>
      </g>
    </g>
    <g fill="#A1A1A1" font-size="6.35" font-family="'PT Sans','Helvetica Neue','Helvetica',sans-serif" stroke="#000000" stroke-opacity="0.000" id="img-0a012e41-10">
      <text x="26.38" y="145.28">Party</text>
    </g>
  </g>
  <g font-size="6.35" font-family="'PT Sans','Helvetica Neue','Helvetica',sans-serif" fill="#A1A1A1" stroke="#000000" stroke-opacity="0.000" id="img-0a012e41-11">
    <text x="129.24" y="130.46" text-anchor="middle" dy="0.6em">Year</text>
  </g>
  <g class="guide xlabels" font-size="4.76" font-family="'PT Sans Caption','Helvetica Neue','Helvetica',sans-serif" fill="#A1A1A1" id="img-0a012e41-12">
    <text x="27.38" y="121.95" text-anchor="middle" dy="0.6em">1824</text>
    <text x="40.11" y="121.95" text-anchor="middle" dy="0.6em">1836</text>
    <text x="52.84" y="121.95" text-anchor="middle" dy="0.6em">1848</text>
    <text x="65.58" y="121.95" text-anchor="middle" dy="0.6em">1860</text>
    <text x="78.31" y="121.95" text-anchor="middle" dy="0.6em">1872</text>
    <text x="91.04" y="121.95" text-anchor="middle" dy="0.6em">1884</text>
    <text x="103.77" y="121.95" text-anchor="middle" dy="0.6em">1896</text>
    <text x="116.51" y="121.95" text-anchor="middle" dy="0.6em">1908</text>
    <text x="129.24" y="121.95" text-anchor="middle" dy="0.6em">1920</text>
    <text x="141.97" y="121.95" text-anchor="middle" dy="0.6em">1932</text>
    <text x="154.7" y="121.95" text-anchor="middle" dy="0.6em">1944</text>
    <text x="167.43" y="121.95" text-anchor="middle" dy="0.6em">1956</text>
    <text x="180.17" y="121.95" text-anchor="middle" dy="0.6em">1968</text>
    <text x="192.9" y="121.95" text-anchor="middle" dy="0.6em">1980</text>
    <text x="205.63" y="121.95" text-anchor="middle" dy="0.6em">1992</text>
    <text x="218.36" y="121.95" text-anchor="middle" dy="0.6em">2004</text>
    <text x="231.1" y="121.95" text-anchor="middle" dy="0.6em">2016</text>
  </g>
<g clip-path="url(#img-0a012e41-13)">
  <g id="img-0a012e41-14">
    <g pointer-events="visible" opacity="1" fill="#222831" stroke="#000000" stroke-opacity="0.000" class="guide background" id="img-0a012e41-15">
      <rect x="25.38" y="12.91" width="207.72" height="108.04"/>
    </g>
    <g class="guide ygridlines xfixed" stroke-dasharray="0.5,0.5" stroke-width="0.2" stroke="#575757" id="img-0a012e41-16">
      <path fill="none" d="M25.38,118.95 L 233.1 118.95"/>
      <path fill="none" d="M25.38,92.94 L 233.1 92.94"/>
      <path fill="none" d="M25.38,66.93 L 233.1 66.93"/>
      <path fill="none" d="M25.38,40.92 L 233.1 40.92"/>
      <path fill="none" d="M25.38,14.91 L 233.1 14.91"/>
    </g>
    <g class="guide xgridlines yfixed" stroke-dasharray="0.5,0.5" stroke-width="0.2" stroke="#575757" id="img-0a012e41-17">
      <path fill="none" d="M27.38,12.91 L 27.38 120.95"/>
      <path fill="none" d="M40.11,12.91 L 40.11 120.95"/>
      <path fill="none" d="M52.84,12.91 L 52.84 120.95"/>
      <path fill="none" d="M65.58,12.91 L 65.58 120.95"/>
      <path fill="none" d="M78.31,12.91 L 78.31 120.95"/>
      <path fill="none" d="M91.04,12.91 L 91.04 120.95"/>
      <path fill="none" d="M103.77,12.91 L 103.77 120.95"/>
      <path fill="none" d="M116.51,12.91 L 116.51 120.95"/>
      <path fill="none" d="M129.24,12.91 L 129.24 120.95"/>
      <path fill="none" d="M141.97,12.91 L 141.97 120.95"/>
      <path fill="none" d="M154.7,12.91 L 154.7 120.95"/>
      <path fill="none" d="M167.43,12.91 L 167.43 120.95"/>
      <path fill="none" d="M180.17,12.91 L 180.17 120.95"/>
      <path fill="none" d="M192.9,12.91 L 192.9 120.95"/>
      <path fill="none" d="M205.63,12.91 L 205.63 120.95"/>
      <path fill="none" d="M218.36,12.91 L 218.36 120.95"/>
      <path fill="none" d="M231.1,12.91 L 231.1 120.95"/>
    </g>
    <g class="plotpanel" id="img-0a012e41-18">
      <g class="geometry" id="img-0a012e41-19">
        <g stroke-width="0.3" id="img-0a012e41-20">
          <use xlink:href="#img-0a012e41-21" x="65.58" y="117.78" stroke="#B3867B" fill="#FF0000" class="color_Republican"/>
          <use xlink:href="#img-0a012e41-21" x="78.31" y="66.45" stroke="#B3867B" fill="#FF0000" class="color_Republican"/>
          <use xlink:href="#img-0a012e41-21" x="82.55" y="76.89" stroke="#B3867B" fill="#FF0000" class="color_Republican"/>
          <use xlink:href="#img-0a012e41-21" x="86.8" y="77.88" stroke="#B3867B" fill="#FF0000" class="color_Republican"/>
          <use xlink:href="#img-0a012e41-21" x="91.04" y="68.08" stroke="#B3867B" fill="#FF0000" class="color_Republican"/>
          <use xlink:href="#img-0a012e41-21" x="95.28" y="67.49" stroke="#B3867B" fill="#FF0000" class="color_Republican"/>
          <use xlink:href="#img-0a012e41-21" x="99.53" y="78.69" stroke="#B3867B" fill="#FF0000" class="color_Republican"/>
          <use xlink:href="#img-0a012e41-21" x="103.77" y="71.15" stroke="#B3867B" fill="#FF0000" class="color_Republican"/>
          <use xlink:href="#img-0a012e41-21" x="108.02" y="73.36" stroke="#B3867B" fill="#FF0000" class="color_Republican"/>
          <use xlink:href="#img-0a012e41-21" x="112.26" y="80.51" stroke="#B3867B" fill="#FF0000" class="color_Republican"/>
          <use xlink:href="#img-0a012e41-21" x="116.51" y="79.05" stroke="#B3867B" fill="#FF0000" class="color_Republican"/>
          <use xlink:href="#img-0a012e41-21" x="120.75" y="101.26" stroke="#B3867B" fill="#FF0000" class="color_Republican"/>
          <use xlink:href="#img-0a012e41-21" x="124.99" y="85.61" stroke="#B3867B" fill="#FF0000" class="color_Republican"/>
          <use xlink:href="#img-0a012e41-21" x="129.24" y="79.56" stroke="#B3867B" fill="#FF0000" class="color_Republican"/>
          <use xlink:href="#img-0a012e41-21" x="133.48" y="84.84" stroke="#B3867B" fill="#FF0000" class="color_Republican"/>
          <use xlink:href="#img-0a012e41-21" x="137.73" y="62.87" stroke="#B3867B" fill="#FF0000" class="color_Republican"/>
          <use xlink:href="#img-0a012e41-21" x="141.97" y="87.65" stroke="#B3867B" fill="#FF0000" class="color_Republican"/>
          <use xlink:href="#img-0a012e41-21" x="146.21" y="88.38" stroke="#B3867B" fill="#FF0000" class="color_Republican"/>
          <use xlink:href="#img-0a012e41-21" x="150.46" y="86.13" stroke="#B3867B" fill="#FF0000" class="color_Republican"/>
          <use xlink:href="#img-0a012e41-21" x="154.7" y="80.05" stroke="#B3867B" fill="#FF0000" class="color_Republican"/>
          <use xlink:href="#img-0a012e41-21" x="158.95" y="76.25" stroke="#B3867B" fill="#FF0000" class="color_Republican"/>
          <use xlink:href="#img-0a012e41-21" x="163.19" y="60.35" stroke="#B3867B" fill="#FF0000" class="color_Republican"/>
          <use xlink:href="#img-0a012e41-21" x="167.43" y="61.35" stroke="#B3867B" fill="#FF0000" class="color_Republican"/>
          <use xlink:href="#img-0a012e41-21" x="171.68" y="64.4" stroke="#B3867B" fill="#FF0000" class="color_Republican"/>
          <use xlink:href="#img-0a012e41-21" x="175.92" y="70.9" stroke="#B3867B" fill="#FF0000" class="color_Republican"/>
          <use xlink:href="#img-0a012e41-21" x="180.17" y="73.84" stroke="#B3867B" fill="#FF0000" class="color_Republican"/>
          <use xlink:href="#img-0a012e41-21" x="184.41" y="48.37" stroke="#B3867B" fill="#FF0000" class="color_Republican"/>
          <use xlink:href="#img-0a012e41-21" x="188.65" y="67.67" stroke="#B3867B" fill="#FF0000" class="color_Republican"/>
          <use xlink:href="#img-0a012e41-21" x="192.9" y="63.78" stroke="#B3867B" fill="#FF0000" class="color_Republican"/>
          <use xlink:href="#img-0a012e41-21" x="197.14" y="54.15" stroke="#B3867B" fill="#FF0000" class="color_Republican"/>
          <use xlink:href="#img-0a012e41-21" x="201.39" y="56.8" stroke="#B3867B" fill="#FF0000" class="color_Republican"/>
          <use xlink:href="#img-0a012e41-21" x="205.63" y="72.17" stroke="#B3867B" fill="#FF0000" class="color_Republican"/>
          <use xlink:href="#img-0a012e41-21" x="209.87" y="69.94" stroke="#B3867B" fill="#FF0000" class="color_Republican"/>
          <use xlink:href="#img-0a012e41-21" x="214.12" y="64.36" stroke="#B3867B" fill="#FF0000" class="color_Republican"/>
          <use xlink:href="#img-0a012e41-21" x="218.36" y="63.1" stroke="#B3867B" fill="#FF0000" class="color_Republican"/>
          <use xlink:href="#img-0a012e41-21" x="222.61" y="70.75" stroke="#B3867B" fill="#FF0000" class="color_Republican"/>
          <use xlink:href="#img-0a012e41-21" x="226.85" y="69.76" stroke="#B3867B" fill="#FF0000" class="color_Republican"/>
          <use xlink:href="#img-0a012e41-21" x="31.62" y="47.17" stroke="#988BAD" fill="#0000FF" class="color_Democratic"/>
          <use xlink:href="#img-0a012e41-21" x="35.87" y="40.96" stroke="#988BAD" fill="#0000FF" class="color_Democratic"/>
          <use xlink:href="#img-0a012e41-21" x="40.11" y="60.02" stroke="#988BAD" fill="#0000FF" class="color_Democratic"/>
          <use xlink:href="#img-0a012e41-21" x="44.36" y="66.26" stroke="#988BAD" fill="#0000FF" class="color_Democratic"/>
          <use xlink:href="#img-0a012e41-21" x="48.6" y="63.76" stroke="#988BAD" fill="#0000FF" class="color_Democratic"/>
          <use xlink:href="#img-0a012e41-21" x="52.84" y="66.1" stroke="#988BAD" fill="#0000FF" class="color_Democratic"/>
          <use xlink:href="#img-0a012e41-21" x="57.09" y="60.99" stroke="#988BAD" fill="#0000FF" class="color_Democratic"/>
          <use xlink:href="#img-0a012e41-21" x="61.33" y="56.57" stroke="#988BAD" fill="#0000FF" class="color_Democratic"/>
          <use xlink:href="#img-0a012e41-21" x="65.58" y="108.86" stroke="#988BAD" fill="#0000FF" class="color_Democratic"/>
          <use xlink:href="#img-0a012e41-21" x="78.31" y="67.47" stroke="#988BAD" fill="#0000FF" class="color_Democratic"/>
          <use xlink:href="#img-0a012e41-21" x="82.55" y="56.97" stroke="#988BAD" fill="#0000FF" class="color_Democratic"/>
          <use xlink:href="#img-0a012e41-21" x="86.8" y="55.98" stroke="#988BAD" fill="#0000FF" class="color_Democratic"/>
          <use xlink:href="#img-0a012e41-21" x="91.04" y="65.84" stroke="#988BAD" fill="#0000FF" class="color_Democratic"/>
          <use xlink:href="#img-0a012e41-21" x="95.28" y="66.95" stroke="#988BAD" fill="#0000FF" class="color_Democratic"/>
          <use xlink:href="#img-0a012e41-21" x="99.53" y="60.52" stroke="#988BAD" fill="#0000FF" class="color_Democratic"/>
          <use xlink:href="#img-0a012e41-21" x="103.77" y="64.33" stroke="#988BAD" fill="#0000FF" class="color_Democratic"/>
          <use xlink:href="#img-0a012e41-21" x="108.02" y="61.43" stroke="#988BAD" fill="#0000FF" class="color_Democratic"/>
          <use xlink:href="#img-0a012e41-21" x="112.26" y="54.61" stroke="#988BAD" fill="#0000FF" class="color_Democratic"/>
          <use xlink:href="#img-0a012e41-21" x="116.51" y="55.99" stroke="#988BAD" fill="#0000FF" class="color_Democratic"/>
          <use xlink:href="#img-0a012e41-21" x="120.75" y="50.34" stroke="#988BAD" fill="#0000FF" class="color_Democratic"/>
          <use xlink:href="#img-0a012e41-21" x="124.99" y="49.48" stroke="#988BAD" fill="#0000FF" class="color_Democratic"/>
          <use xlink:href="#img-0a012e41-21" x="129.24" y="55.14" stroke="#988BAD" fill="#0000FF" class="color_Democratic"/>
          <use xlink:href="#img-0a012e41-21" x="133.48" y="53.94" stroke="#988BAD" fill="#0000FF" class="color_Democratic"/>
          <use xlink:href="#img-0a012e41-21" x="137.73" y="71.2" stroke="#988BAD" fill="#0000FF" class="color_Democratic"/>
          <use xlink:href="#img-0a012e41-21" x="141.97" y="47.72" stroke="#988BAD" fill="#0000FF" class="color_Democratic"/>
          <use xlink:href="#img-0a012e41-21" x="146.21" y="45.88" stroke="#988BAD" fill="#0000FF" class="color_Democratic"/>
          <use xlink:href="#img-0a012e41-21" x="150.46" y="48.12" stroke="#988BAD" fill="#0000FF" class="color_Democratic"/>
          <use xlink:href="#img-0a012e41-21" x="154.7" y="54.07" stroke="#988BAD" fill="#0000FF" class="color_Democratic"/>
          <use xlink:href="#img-0a012e41-21" x="158.95" y="69.13" stroke="#988BAD" fill="#0000FF" class="color_Democratic"/>
          <use xlink:href="#img-0a012e41-21" x="163.19" y="73.84" stroke="#988BAD" fill="#0000FF" class="color_Democratic"/>
          <use xlink:href="#img-0a012e41-21" x="167.43" y="79.04" stroke="#988BAD" fill="#0000FF" class="color_Democratic"/>
          <use xlink:href="#img-0a012e41-21" x="171.68" y="70.09" stroke="#988BAD" fill="#0000FF" class="color_Democratic"/>
          <use xlink:href="#img-0a012e41-21" x="175.92" y="63.25" stroke="#988BAD" fill="#0000FF" class="color_Democratic"/>
          <use xlink:href="#img-0a012e41-21" x="180.17" y="85.15" stroke="#988BAD" fill="#0000FF" class="color_Democratic"/>
          <use xlink:href="#img-0a012e41-21" x="184.41" y="87.61" stroke="#988BAD" fill="#0000FF" class="color_Democratic"/>
          <use xlink:href="#img-0a012e41-21" x="188.65" y="69.06" stroke="#988BAD" fill="#0000FF" class="color_Democratic"/>
          <use xlink:href="#img-0a012e41-21" x="192.9" y="77.01" stroke="#988BAD" fill="#0000FF" class="color_Democratic"/>
          <use xlink:href="#img-0a012e41-21" x="197.14" y="80.36" stroke="#988BAD" fill="#0000FF" class="color_Democratic"/>
          <use xlink:href="#img-0a012e41-21" x="201.39" y="78.14" stroke="#988BAD" fill="#0000FF" class="color_Democratic"/>
          <use xlink:href="#img-0a012e41-21" x="205.63" y="76.72" stroke="#988BAD" fill="#0000FF" class="color_Democratic"/>
          <use xlink:href="#img-0a012e41-21" x="209.87" y="71.98" stroke="#988BAD" fill="#0000FF" class="color_Democratic"/>
          <use xlink:href="#img-0a012e41-21" x="214.12" y="72.72" stroke="#988BAD" fill="#0000FF" class="color_Democratic"/>
          <use xlink:href="#img-0a012e41-21" x="218.36" y="71.63" stroke="#988BAD" fill="#0000FF" class="color_Democratic"/>
          <use xlink:href="#img-0a012e41-21" x="222.61" y="64.2" stroke="#988BAD" fill="#0000FF" class="color_Democratic"/>
          <use xlink:href="#img-0a012e41-21" x="226.85" y="65.73" stroke="#988BAD" fill="#0000FF" class="color_Democratic"/>
        </g>
      </g>
      <g stroke-width="0.3" fill="#000000" fill-opacity="0.000" stroke-dasharray="none" id="img-0a012e41-22">
        <path fill="none" d="M31.62,47.17 L 35.87 40.96 40.11 60.02 44.36 66.26 48.6 63.76 52.84 66.1 57.09 60.99 61.33 56.57 65.58 108.86 78.31 67.47 82.55 56.97 86.8 55.98 91.04 65.84 95.28 66.95 99.53 60.52 103.77 64.33 108.02 61.43 112.26 54.61 116.51 55.99 120.75 50.34 124.99 49.48 129.24 55.14 133.48 53.94 137.73 71.2 141.97 47.72 146.21 45.88 150.46 48.12 154.7 54.07 158.95 69.13 163.19 73.84 167.43 79.04 171.68 70.09 175.92 63.25 180.17 85.15 184.41 87.61 188.65 69.06 192.9 77.01 197.14 80.36 201.39 78.14 205.63 76.72 209.87 71.98 214.12 72.72 218.36 71.63 222.61 64.2 226.85 65.73" stroke="#0000FF" class="geometry color_Democratic"/>
        <path fill="none" d="M65.58,117.78 L 78.31 66.45 82.55 76.89 86.8 77.88 91.04 68.08 95.28 67.49 99.53 78.69 103.77 71.15 108.02 73.36 112.26 80.51 116.51 79.05 120.75 101.26 124.99 85.61 129.24 79.56 133.48 84.84 137.73 62.87 141.97 87.65 146.21 88.38 150.46 86.13 154.7 80.05 158.95 76.25 163.19 60.35 167.43 61.35 171.68 64.4 175.92 70.9 180.17 73.84 184.41 48.37 188.65 67.67 192.9 63.78 197.14 54.15 201.39 56.8 205.63 72.17 209.87 69.94 214.12 64.36 218.36 63.1 222.61 70.75 226.85 69.76" stroke="#FF0000" class="geometry color_Republican"/>
      </g>
    </g>
  </g>
</g>
  <g class="guide ylabels" font-size="4.76" font-family="'PT Sans Caption','Helvetica Neue','Helvetica',sans-serif" fill="#A1A1A1" id="img-0a012e41-23">
    <text x="24.38" y="118.95" text-anchor="end" dy="0.35em">0</text>
    <text x="24.38" y="92.94" text-anchor="end" dy="0.35em">25</text>
    <text x="24.38" y="66.93" text-anchor="end" dy="0.35em">50</text>
    <text x="24.38" y="40.92" text-anchor="end" dy="0.35em">75</text>
    <text x="24.38" y="14.91" text-anchor="end" dy="0.35em">100</text>
  </g>
  <g font-size="6.35" font-family="'PT Sans','Helvetica Neue','Helvetica',sans-serif" fill="#A1A1A1" stroke="#000000" stroke-opacity="0.000" id="img-0a012e41-24">
    <text x="9.95" y="64.93" text-anchor="middle" dy="0.35em" transform="rotate(-90, 9.95, 66.93)">Popular Vote (%)</text>
  </g>
  <g font-size="6.35" font-family="'PT Sans','Helvetica Neue','Helvetica',sans-serif" fill="#A1A1A1" stroke="#000000" stroke-opacity="0.000" id="img-0a012e41-25">
    <text x="129.24" y="5" text-anchor="middle" dy="0.6em">Virginia</text>
  </g>
</g>
<defs>
  <clipPath id="img-0a012e41-13">
  <path d="M25.38,12.91 L 233.1 12.91 233.1 120.95 25.38 120.95" />
</clipPath>
  <g id="img-0a012e41-21">
    <circle cx="0" cy="0" r="0.9"/>
  </g>
</defs>
</svg>
