<svg xmlns="http://www.w3.org/2000/svg" xmlns:xlink="http://www.w3.org/1999/xlink" version="1.2" width="238.1mm" height="599.924" viewBox="0 0 238.1 158.73" stroke-width=".3" font-size="3.88"><path d="M0 0h238.1v158.73H0z" stroke="#000" stroke-opacity="0" fill="#222831"/><g class="plotroot xscalable yscalable"><g class="guide colorkey"><g class="color_Democratic"><text x="51.52" y="148.78" dy=".35em" fill="#A1A1A1" font-size="3.7" font-family="'PT Sans','Helvetica Neue','Helvetica',sans-serif">Democratic</text><path d="M48.29 147.66h2.22v2.22h-2.22z" fill="#00F" stroke="#000" stroke-opacity="0"/></g><g class="color_Republican"><text x="29.6" y="148.78" dy=".35em" fill="#A1A1A1" font-size="3.7" font-family="'PT Sans','Helvetica Neue','Helvetica',sans-serif">Republican</text><path d="M26.38 147.66h2.22v2.22h-2.22z" fill="#F00" stroke="#000" stroke-opacity="0"/></g><text x="26.38" y="145.28" fill="#A1A1A1" font-size="6.35" font-family="'PT Sans','Helvetica Neue','Helvetica',sans-serif" stroke="#000" stroke-opacity="0">Party</text></g><text x="129.24" y="130.46" text-anchor="middle" dy=".6em" font-size="6.35" font-family="'PT Sans','Helvetica Neue','Helvetica',sans-serif" fill="#A1A1A1" stroke="#000" stroke-opacity="0">Year</text><g class="guide xlabels" font-size="4.76" font-family="'PT Sans Caption','Helvetica Neue','Helvetica',sans-serif" fill="#A1A1A1" text-anchor="middle"><text x="27.38" y="121.95" dy=".6em">1888</text><text x="40.11" y="121.95" dy=".6em">1896</text><text x="52.84" y="121.95" dy=".6em">1904</text><text x="65.58" y="121.95" dy=".6em">1912</text><text x="78.31" y="121.95" dy=".6em">1920</text><text x="91.04" y="121.95" dy=".6em">1928</text><text x="103.77" y="121.95" dy=".6em">1936</text><text x="116.51" y="121.95" dy=".6em">1944</text><text x="129.24" y="121.95" dy=".6em">1952</text><text x="141.97" y="121.95" dy=".6em">1960</text><text x="154.7" y="121.95" dy=".6em">1968</text><text x="167.43" y="121.95" dy=".6em">1976</text><text x="180.17" y="121.95" dy=".6em">1984</text><text x="192.9" y="121.95" dy=".6em">1992</text><text x="205.63" y="121.95" dy=".6em">2000</text><text x="218.36" y="121.95" dy=".6em">2008</text><text x="231.1" y="121.95" dy=".6em">2016</text></g><g clip-path="url(#a)"><path d="M25.38 12.91H233.1v108.04H25.38z" pointer-events="visible" fill="#222831" stroke="#000" stroke-opacity="0" class="guide background"/><g class="guide ygridlines xfixed" stroke-dasharray="0.5,0.5" stroke-width=".2" stroke="#575757" fill="none"><path d="M25.38 118.95H233.1M25.38 92.94H233.1M25.38 66.93H233.1M25.38 40.92H233.1M25.38 14.91H233.1"/></g><g class="guide xgridlines yfixed" stroke-dasharray="0.5,0.5" stroke-width=".2" stroke="#575757" fill="none"><path d="M27.38 12.91v108.04M40.11 12.91v108.04M52.84 12.91v108.04M65.58 12.91v108.04M78.31 12.91v108.04M91.04 12.91v108.04M103.77 12.91v108.04M116.51 12.91v108.04M129.24 12.91v108.04M141.97 12.91v108.04M154.7 12.91v108.04M167.43 12.91v108.04M180.17 12.91v108.04M192.9 12.91v108.04M205.63 12.91v108.04M218.36 12.91v108.04M231.1 12.91v108.04"/></g><g class="plotpanel"><g class="geometry"><use xlink:href="#b" x="33.75" y="75.83" stroke="#B3867B" fill="#F00" class="color_Republican"/><use xlink:href="#b" x="40.11" y="75.42" stroke="#B3867B" fill="#F00" class="color_Republican"/><use xlink:href="#b" x="46.48" y="63.36" stroke="#B3867B" fill="#F00" class="color_Republican"/><use xlink:href="#b" x="52.84" y="46.17" stroke="#B3867B" fill="#F00" class="color_Republican"/><use xlink:href="#b" x="59.21" y="58.94" stroke="#B3867B" fill="#F00" class="color_Republican"/><use xlink:href="#b" x="65.58" y="96.25" stroke="#B3867B" fill="#F00" class="color_Republican"/><use xlink:href="#b" x="71.94" y="73.29" stroke="#B3867B" fill="#F00" class="color_Republican"/><use xlink:href="#b" x="78.31" y="60.73" stroke="#B3867B" fill="#F00" class="color_Republican"/><use xlink:href="#b" x="84.67" y="64.6" stroke="#B3867B" fill="#F00" class="color_Republican"/><use xlink:href="#b" x="91.04" y="49.19" stroke="#B3867B" fill="#F00" class="color_Republican"/><use xlink:href="#b" x="97.41" y="83.65" stroke="#B3867B" fill="#F00" class="color_Republican"/><use xlink:href="#b" x="103.77" y="87.86" stroke="#B3867B" fill="#F00" class="color_Republican"/><use xlink:href="#b" x="110.14" y="76.73" stroke="#B3867B" fill="#F00" class="color_Republican"/><use xlink:href="#b" x="116.51" y="75.01" stroke="#B3867B" fill="#F00" class="color_Republican"/><use xlink:href="#b" x="122.87" y="74.54" stroke="#B3867B" fill="#F00" class="color_Republican"/><use xlink:href="#b" x="129.24" y="62.43" stroke="#B3867B" fill="#F00" class="color_Republican"/><use xlink:href="#b" x="135.6" y="62.86" stroke="#B3867B" fill="#F00" class="color_Republican"/><use xlink:href="#b" x="141.97" y="66.22" stroke="#B3867B" fill="#F00" class="color_Republican"/><use xlink:href="#b" x="148.34" y="80.07" stroke="#B3867B" fill="#F00" class="color_Republican"/><use xlink:href="#b" x="154.7" y="72.01" stroke="#B3867B" fill="#F00" class="color_Republican"/><use xlink:href="#b" x="161.07" y="59.74" stroke="#B3867B" fill="#F00" class="color_Republican"/><use xlink:href="#b" x="167.43" y="66.93" stroke="#B3867B" fill="#F00" class="color_Republican"/><use xlink:href="#b" x="173.8" y="67.29" stroke="#B3867B" fill="#F00" class="color_Republican"/><use xlink:href="#b" x="180.17" y="60.87" stroke="#B3867B" fill="#F00" class="color_Republican"/><use xlink:href="#b" x="186.53" y="68.54" stroke="#B3867B" fill="#F00" class="color_Republican"/><use xlink:href="#b" x="192.9" y="85.71" stroke="#B3867B" fill="#F00" class="color_Republican"/><use xlink:href="#b" x="199.26" y="80.14" stroke="#B3867B" fill="#F00" class="color_Republican"/><use xlink:href="#b" x="205.63" y="72.6" stroke="#B3867B" fill="#F00" class="color_Republican"/><use xlink:href="#b" x="212" y="71.51" stroke="#B3867B" fill="#F00" class="color_Republican"/><use xlink:href="#b" x="218.36" y="77.07" stroke="#B3867B" fill="#F00" class="color_Republican"/><use xlink:href="#b" x="224.73" y="76.27" stroke="#B3867B" fill="#F00" class="color_Republican"/><use xlink:href="#b" x="33.75" y="83.71" stroke="#988BAD" fill="#00F" class="color_Democratic"/><use xlink:href="#b" x="40.11" y="59.68" stroke="#988BAD" fill="#00F" class="color_Democratic"/><use xlink:href="#b" x="46.48" y="75.57" stroke="#988BAD" fill="#00F" class="color_Democratic"/><use xlink:href="#b" x="52.84" y="98.81" stroke="#988BAD" fill="#00F" class="color_Democratic"/><use xlink:href="#b" x="59.21" y="85.74" stroke="#988BAD" fill="#00F" class="color_Democratic"/><use xlink:href="#b" x="65.58" y="90.96" stroke="#988BAD" fill="#00F" class="color_Democratic"/><use xlink:href="#b" x="71.94" y="68.87" stroke="#988BAD" fill="#00F" class="color_Democratic"/><use xlink:href="#b" x="78.31" y="96.96" stroke="#988BAD" fill="#00F" class="color_Democratic"/><use xlink:href="#b" x="84.67" y="108.38" stroke="#988BAD" fill="#00F" class="color_Democratic"/><use xlink:href="#b" x="91.04" y="86.39" stroke="#988BAD" fill="#00F" class="color_Democratic"/><use xlink:href="#b" x="97.41" y="59.17" stroke="#988BAD" fill="#00F" class="color_Democratic"/><use xlink:href="#b" x="103.77" y="49.89" stroke="#988BAD" fill="#00F" class="color_Democratic"/><use xlink:href="#b" x="110.14" y="58.38" stroke="#988BAD" fill="#00F" class="color_Democratic"/><use xlink:href="#b" x="116.51" y="59.81" stroke="#988BAD" fill="#00F" class="color_Democratic"/><use xlink:href="#b" x="122.87" y="64.21" stroke="#988BAD" fill="#00F" class="color_Democratic"/><use xlink:href="#b" x="129.24" y="72.45" stroke="#988BAD" fill="#00F" class="color_Democratic"/><use xlink:href="#b" x="135.6" y="71.67" stroke="#988BAD" fill="#00F" class="color_Democratic"/><use xlink:href="#b" x="141.97" y="68.73" stroke="#988BAD" fill="#00F" class="color_Democratic"/><use xlink:href="#b" x="148.34" y="54.48" stroke="#988BAD" fill="#00F" class="color_Democratic"/><use xlink:href="#b" x="154.7" y="69.81" stroke="#988BAD" fill="#00F" class="color_Democratic"/><use xlink:href="#b" x="161.07" y="78.75" stroke="#988BAD" fill="#00F" class="color_Democratic"/><use xlink:href="#b" x="167.43" y="70.97" stroke="#988BAD" fill="#00F" class="color_Democratic"/><use xlink:href="#b" x="173.8" y="80.13" stroke="#988BAD" fill="#00F" class="color_Democratic"/><use xlink:href="#b" x="180.17" y="74.37" stroke="#988BAD" fill="#00F" class="color_Democratic"/><use xlink:href="#b" x="186.53" y="66.88" stroke="#988BAD" fill="#00F" class="color_Democratic"/><use xlink:href="#b" x="192.9" y="73.8" stroke="#988BAD" fill="#00F" class="color_Democratic"/><use xlink:href="#b" x="199.26" y="67.1" stroke="#988BAD" fill="#00F" class="color_Democratic"/><use xlink:href="#b" x="205.63" y="66.79" stroke="#988BAD" fill="#00F" class="color_Democratic"/><use xlink:href="#b" x="212" y="64.05" stroke="#988BAD" fill="#00F" class="color_Democratic"/><use xlink:href="#b" x="218.36" y="59.29" stroke="#988BAD" fill="#00F" class="color_Democratic"/><use xlink:href="#b" x="224.73" y="60.9" stroke="#988BAD" fill="#00F" class="color_Democratic"/></g><g fill-opacity="0"><path fill="none" d="M33.75 83.71l6.36-24.03 6.37 15.89 6.36 23.24 6.37-13.07 6.37 5.22 6.36-22.09 6.37 28.09 6.36 11.42 6.37-21.99 6.37-27.22 6.36-9.28 6.37 8.49 6.37 1.43 6.36 4.4 6.37 8.24 6.36-.78 6.37-2.94 6.37-14.25 6.36 15.33 6.37 8.94 6.36-7.78 6.37 9.16 6.37-5.76 6.36-7.49 6.37 6.92 6.36-6.7 6.37-.31 6.37-2.74 6.36-4.76 6.37 1.61" stroke="#00F" class="geometry color_Democratic"/><path fill="none" d="M33.75 75.83l6.36-.41 6.37-12.06 6.36-17.19 6.37 12.77 6.37 37.31 6.36-22.96 6.37-12.56 6.36 3.87 6.37-15.41 6.37 34.46 6.36 4.21 6.37-11.13 6.37-1.72 6.36-.47 6.37-12.11 6.36.43 6.37 3.36 6.37 13.85 6.36-8.06 6.37-12.27 6.36 7.19 6.37.36 6.37-6.42 6.36 7.67 6.37 17.17 6.36-5.57 6.37-7.54 6.37-1.09 6.36 5.56 6.37-.8" stroke="#F00" class="geometry color_Republican"/></g></g></g><g class="guide ylabels" font-size="4.76" font-family="'PT Sans Caption','Helvetica Neue','Helvetica',sans-serif" fill="#A1A1A1" text-anchor="end"><text x="24.38" y="118.95" dy=".35em">0</text><text x="24.38" y="92.94" dy=".35em">25</text><text x="24.38" y="66.93" dy=".35em">50</text><text x="24.38" y="40.92" dy=".35em">75</text><text x="24.38" y="14.91" dy=".35em">100</text></g><text x="9.95" y="64.93" text-anchor="middle" dy=".35em" transform="rotate(-90 9.95 66.93)" font-size="6.35" font-family="'PT Sans','Helvetica Neue','Helvetica',sans-serif" fill="#A1A1A1" stroke="#000" stroke-opacity="0">Popular Vote (%)</text><text x="129.24" y="5" text-anchor="middle" dy=".6em" font-size="6.35" font-family="'PT Sans','Helvetica Neue','Helvetica',sans-serif" fill="#A1A1A1" stroke="#000" stroke-opacity="0">Washington</text></g><defs><clipPath id="a"><path d="M25.38 12.91H233.1v108.04H25.38"/></clipPath><circle r=".9" id="b"/></defs></svg>