<?xml version="1.0" encoding="UTF-8"?>
<svg xmlns="http://www.w3.org/2000/svg"
     xmlns:xlink="http://www.w3.org/1999/xlink"
     xmlns:gadfly="http://www.gadflyjl.org/ns"
     version="1.2"
     width="238.1mm" height="158.73mm" viewBox="0 0 238.1 158.73"
     stroke="none"
     fill="#000000"
     stroke-width="0.3"
     font-size="3.88"
>
<g stroke="#000000" stroke-opacity="0.000" fill="#222831" id="img-b3776324-1">
  <rect x="0" y="0" width="238.1" height="158.73"/>
</g>
<g class="plotroot xscalable yscalable" id="img-b3776324-2">
  <g class="guide colorkey" id="img-b3776324-3">
    <g class="color_Democratic" id="img-b3776324-4">
      <g fill="#A1A1A1" font-size="3.7" font-family="'PT Sans','Helvetica Neue','Helvetica',sans-serif" id="img-b3776324-5">
        <text x="51.52" y="148.78" dy="0.35em">Democratic</text>
      </g>
      <g fill="#0000FF" stroke="#000000" stroke-opacity="0.000" id="img-b3776324-6">
        <rect x="48.29" y="147.66" width="2.22" height="2.22"/>
      </g>
    </g>
    <g class="color_Republican" id="img-b3776324-7">
      <g fill="#A1A1A1" font-size="3.7" font-family="'PT Sans','Helvetica Neue','Helvetica',sans-serif" id="img-b3776324-8">
        <text x="29.6" y="148.78" dy="0.35em">Republican</text>
      </g>
      <g fill="#FF0000" stroke="#000000" stroke-opacity="0.000" id="img-b3776324-9">
        <rect x="26.38" y="147.66" width="2.22" height="2.22"/>
      </g>
    </g>
    <g fill="#A1A1A1" font-size="6.35" font-family="'PT Sans','Helvetica Neue','Helvetica',sans-serif" stroke="#000000" stroke-opacity="0.000" id="img-b3776324-10">
      <text x="26.38" y="145.28">Party</text>
    </g>
  </g>
  <g font-size="6.35" font-family="'PT Sans','Helvetica Neue','Helvetica',sans-serif" fill="#A1A1A1" stroke="#000000" stroke-opacity="0.000" id="img-b3776324-11">
    <text x="129.24" y="130.46" text-anchor="middle" dy="0.6em">Year</text>
  </g>
  <g class="guide xlabels" font-size="4.76" font-family="'PT Sans Caption','Helvetica Neue','Helvetica',sans-serif" fill="#A1A1A1" id="img-b3776324-12">
    <text x="27.38" y="121.95" text-anchor="middle" dy="0.6em">1888</text>
    <text x="40.11" y="121.95" text-anchor="middle" dy="0.6em">1896</text>
    <text x="52.84" y="121.95" text-anchor="middle" dy="0.6em">1904</text>
    <text x="65.58" y="121.95" text-anchor="middle" dy="0.6em">1912</text>
    <text x="78.31" y="121.95" text-anchor="middle" dy="0.6em">1920</text>
    <text x="91.04" y="121.95" text-anchor="middle" dy="0.6em">1928</text>
    <text x="103.77" y="121.95" text-anchor="middle" dy="0.6em">1936</text>
    <text x="116.51" y="121.95" text-anchor="middle" dy="0.6em">1944</text>
    <text x="129.24" y="121.95" text-anchor="middle" dy="0.6em">1952</text>
    <text x="141.97" y="121.95" text-anchor="middle" dy="0.6em">1960</text>
    <text x="154.7" y="121.95" text-anchor="middle" dy="0.6em">1968</text>
    <text x="167.43" y="121.95" text-anchor="middle" dy="0.6em">1976</text>
    <text x="180.17" y="121.95" text-anchor="middle" dy="0.6em">1984</text>
    <text x="192.9" y="121.95" text-anchor="middle" dy="0.6em">1992</text>
    <text x="205.63" y="121.95" text-anchor="middle" dy="0.6em">2000</text>
    <text x="218.36" y="121.95" text-anchor="middle" dy="0.6em">2008</text>
    <text x="231.1" y="121.95" text-anchor="middle" dy="0.6em">2016</text>
  </g>
<g clip-path="url(#img-b3776324-13)">
  <g id="img-b3776324-14">
    <g pointer-events="visible" opacity="1" fill="#222831" stroke="#000000" stroke-opacity="0.000" class="guide background" id="img-b3776324-15">
      <rect x="25.38" y="12.91" width="207.72" height="108.04"/>
    </g>
    <g class="guide ygridlines xfixed" stroke-dasharray="0.5,0.5" stroke-width="0.2" stroke="#575757" id="img-b3776324-16">
      <path fill="none" d="M25.38,118.95 L 233.1 118.95"/>
      <path fill="none" d="M25.38,92.94 L 233.1 92.94"/>
      <path fill="none" d="M25.38,66.93 L 233.1 66.93"/>
      <path fill="none" d="M25.38,40.92 L 233.1 40.92"/>
      <path fill="none" d="M25.38,14.91 L 233.1 14.91"/>
    </g>
    <g class="guide xgridlines yfixed" stroke-dasharray="0.5,0.5" stroke-width="0.2" stroke="#575757" id="img-b3776324-17">
      <path fill="none" d="M27.38,12.91 L 27.38 120.95"/>
      <path fill="none" d="M40.11,12.91 L 40.11 120.95"/>
      <path fill="none" d="M52.84,12.91 L 52.84 120.95"/>
      <path fill="none" d="M65.58,12.91 L 65.58 120.95"/>
      <path fill="none" d="M78.31,12.91 L 78.31 120.95"/>
      <path fill="none" d="M91.04,12.91 L 91.04 120.95"/>
      <path fill="none" d="M103.77,12.91 L 103.77 120.95"/>
      <path fill="none" d="M116.51,12.91 L 116.51 120.95"/>
      <path fill="none" d="M129.24,12.91 L 129.24 120.95"/>
      <path fill="none" d="M141.97,12.91 L 141.97 120.95"/>
      <path fill="none" d="M154.7,12.91 L 154.7 120.95"/>
      <path fill="none" d="M167.43,12.91 L 167.43 120.95"/>
      <path fill="none" d="M180.17,12.91 L 180.17 120.95"/>
      <path fill="none" d="M192.9,12.91 L 192.9 120.95"/>
      <path fill="none" d="M205.63,12.91 L 205.63 120.95"/>
      <path fill="none" d="M218.36,12.91 L 218.36 120.95"/>
      <path fill="none" d="M231.1,12.91 L 231.1 120.95"/>
    </g>
    <g class="plotpanel" id="img-b3776324-18">
      <g class="geometry" id="img-b3776324-19">
        <g stroke-width="0.3" id="img-b3776324-20">
          <use xlink:href="#img-b3776324-21" x="33.75" y="75.83" stroke="#B3867B" fill="#FF0000" class="color_Republican"/>
          <use xlink:href="#img-b3776324-21" x="40.11" y="75.42" stroke="#B3867B" fill="#FF0000" class="color_Republican"/>
          <use xlink:href="#img-b3776324-21" x="46.48" y="63.36" stroke="#B3867B" fill="#FF0000" class="color_Republican"/>
          <use xlink:href="#img-b3776324-21" x="52.84" y="46.17" stroke="#B3867B" fill="#FF0000" class="color_Republican"/>
          <use xlink:href="#img-b3776324-21" x="59.21" y="58.94" stroke="#B3867B" fill="#FF0000" class="color_Republican"/>
          <use xlink:href="#img-b3776324-21" x="65.58" y="96.25" stroke="#B3867B" fill="#FF0000" class="color_Republican"/>
          <use xlink:href="#img-b3776324-21" x="71.94" y="73.29" stroke="#B3867B" fill="#FF0000" class="color_Republican"/>
          <use xlink:href="#img-b3776324-21" x="78.31" y="60.73" stroke="#B3867B" fill="#FF0000" class="color_Republican"/>
          <use xlink:href="#img-b3776324-21" x="84.67" y="64.6" stroke="#B3867B" fill="#FF0000" class="color_Republican"/>
          <use xlink:href="#img-b3776324-21" x="91.04" y="49.19" stroke="#B3867B" fill="#FF0000" class="color_Republican"/>
          <use xlink:href="#img-b3776324-21" x="97.41" y="83.65" stroke="#B3867B" fill="#FF0000" class="color_Republican"/>
          <use xlink:href="#img-b3776324-21" x="103.77" y="87.86" stroke="#B3867B" fill="#FF0000" class="color_Republican"/>
          <use xlink:href="#img-b3776324-21" x="110.14" y="76.73" stroke="#B3867B" fill="#FF0000" class="color_Republican"/>
          <use xlink:href="#img-b3776324-21" x="116.51" y="75.01" stroke="#B3867B" fill="#FF0000" class="color_Republican"/>
          <use xlink:href="#img-b3776324-21" x="122.87" y="74.54" stroke="#B3867B" fill="#FF0000" class="color_Republican"/>
          <use xlink:href="#img-b3776324-21" x="129.24" y="62.43" stroke="#B3867B" fill="#FF0000" class="color_Republican"/>
          <use xlink:href="#img-b3776324-21" x="135.6" y="62.86" stroke="#B3867B" fill="#FF0000" class="color_Republican"/>
          <use xlink:href="#img-b3776324-21" x="141.97" y="66.22" stroke="#B3867B" fill="#FF0000" class="color_Republican"/>
          <use xlink:href="#img-b3776324-21" x="148.34" y="80.07" stroke="#B3867B" fill="#FF0000" class="color_Republican"/>
          <use xlink:href="#img-b3776324-21" x="154.7" y="72.01" stroke="#B3867B" fill="#FF0000" class="color_Republican"/>
          <use xlink:href="#img-b3776324-21" x="161.07" y="59.74" stroke="#B3867B" fill="#FF0000" class="color_Republican"/>
          <use xlink:href="#img-b3776324-21" x="167.43" y="66.93" stroke="#B3867B" fill="#FF0000" class="color_Republican"/>
          <use xlink:href="#img-b3776324-21" x="173.8" y="67.29" stroke="#B3867B" fill="#FF0000" class="color_Republican"/>
          <use xlink:href="#img-b3776324-21" x="180.17" y="60.87" stroke="#B3867B" fill="#FF0000" class="color_Republican"/>
          <use xlink:href="#img-b3776324-21" x="186.53" y="68.54" stroke="#B3867B" fill="#FF0000" class="color_Republican"/>
          <use xlink:href="#img-b3776324-21" x="192.9" y="85.71" stroke="#B3867B" fill="#FF0000" class="color_Republican"/>
          <use xlink:href="#img-b3776324-21" x="199.26" y="80.14" stroke="#B3867B" fill="#FF0000" class="color_Republican"/>
          <use xlink:href="#img-b3776324-21" x="205.63" y="72.6" stroke="#B3867B" fill="#FF0000" class="color_Republican"/>
          <use xlink:href="#img-b3776324-21" x="212" y="71.51" stroke="#B3867B" fill="#FF0000" class="color_Republican"/>
          <use xlink:href="#img-b3776324-21" x="218.36" y="77.07" stroke="#B3867B" fill="#FF0000" class="color_Republican"/>
          <use xlink:href="#img-b3776324-21" x="224.73" y="76.27" stroke="#B3867B" fill="#FF0000" class="color_Republican"/>
          <use xlink:href="#img-b3776324-21" x="33.75" y="83.71" stroke="#988BAD" fill="#0000FF" class="color_Democratic"/>
          <use xlink:href="#img-b3776324-21" x="40.11" y="59.68" stroke="#988BAD" fill="#0000FF" class="color_Democratic"/>
          <use xlink:href="#img-b3776324-21" x="46.48" y="75.57" stroke="#988BAD" fill="#0000FF" class="color_Democratic"/>
          <use xlink:href="#img-b3776324-21" x="52.84" y="98.81" stroke="#988BAD" fill="#0000FF" class="color_Democratic"/>
          <use xlink:href="#img-b3776324-21" x="59.21" y="85.74" stroke="#988BAD" fill="#0000FF" class="color_Democratic"/>
          <use xlink:href="#img-b3776324-21" x="65.58" y="90.96" stroke="#988BAD" fill="#0000FF" class="color_Democratic"/>
          <use xlink:href="#img-b3776324-21" x="71.94" y="68.87" stroke="#988BAD" fill="#0000FF" class="color_Democratic"/>
          <use xlink:href="#img-b3776324-21" x="78.31" y="96.96" stroke="#988BAD" fill="#0000FF" class="color_Democratic"/>
          <use xlink:href="#img-b3776324-21" x="84.67" y="108.38" stroke="#988BAD" fill="#0000FF" class="color_Democratic"/>
          <use xlink:href="#img-b3776324-21" x="91.04" y="86.39" stroke="#988BAD" fill="#0000FF" class="color_Democratic"/>
          <use xlink:href="#img-b3776324-21" x="97.41" y="59.17" stroke="#988BAD" fill="#0000FF" class="color_Democratic"/>
          <use xlink:href="#img-b3776324-21" x="103.77" y="49.89" stroke="#988BAD" fill="#0000FF" class="color_Democratic"/>
          <use xlink:href="#img-b3776324-21" x="110.14" y="58.38" stroke="#988BAD" fill="#0000FF" class="color_Democratic"/>
          <use xlink:href="#img-b3776324-21" x="116.51" y="59.81" stroke="#988BAD" fill="#0000FF" class="color_Democratic"/>
          <use xlink:href="#img-b3776324-21" x="122.87" y="64.21" stroke="#988BAD" fill="#0000FF" class="color_Democratic"/>
          <use xlink:href="#img-b3776324-21" x="129.24" y="72.45" stroke="#988BAD" fill="#0000FF" class="color_Democratic"/>
          <use xlink:href="#img-b3776324-21" x="135.6" y="71.67" stroke="#988BAD" fill="#0000FF" class="color_Democratic"/>
          <use xlink:href="#img-b3776324-21" x="141.97" y="68.73" stroke="#988BAD" fill="#0000FF" class="color_Democratic"/>
          <use xlink:href="#img-b3776324-21" x="148.34" y="54.48" stroke="#988BAD" fill="#0000FF" class="color_Democratic"/>
          <use xlink:href="#img-b3776324-21" x="154.7" y="69.81" stroke="#988BAD" fill="#0000FF" class="color_Democratic"/>
          <use xlink:href="#img-b3776324-21" x="161.07" y="78.75" stroke="#988BAD" fill="#0000FF" class="color_Democratic"/>
          <use xlink:href="#img-b3776324-21" x="167.43" y="70.97" stroke="#988BAD" fill="#0000FF" class="color_Democratic"/>
          <use xlink:href="#img-b3776324-21" x="173.8" y="80.13" stroke="#988BAD" fill="#0000FF" class="color_Democratic"/>
          <use xlink:href="#img-b3776324-21" x="180.17" y="74.37" stroke="#988BAD" fill="#0000FF" class="color_Democratic"/>
          <use xlink:href="#img-b3776324-21" x="186.53" y="66.88" stroke="#988BAD" fill="#0000FF" class="color_Democratic"/>
          <use xlink:href="#img-b3776324-21" x="192.9" y="73.8" stroke="#988BAD" fill="#0000FF" class="color_Democratic"/>
          <use xlink:href="#img-b3776324-21" x="199.26" y="67.1" stroke="#988BAD" fill="#0000FF" class="color_Democratic"/>
          <use xlink:href="#img-b3776324-21" x="205.63" y="66.79" stroke="#988BAD" fill="#0000FF" class="color_Democratic"/>
          <use xlink:href="#img-b3776324-21" x="212" y="64.05" stroke="#988BAD" fill="#0000FF" class="color_Democratic"/>
          <use xlink:href="#img-b3776324-21" x="218.36" y="59.29" stroke="#988BAD" fill="#0000FF" class="color_Democratic"/>
          <use xlink:href="#img-b3776324-21" x="224.73" y="60.9" stroke="#988BAD" fill="#0000FF" class="color_Democratic"/>
        </g>
      </g>
      <g stroke-width="0.3" fill="#000000" fill-opacity="0.000" stroke-dasharray="none" id="img-b3776324-22">
        <path fill="none" d="M33.75,83.71 L 40.11 59.68 46.48 75.57 52.84 98.81 59.21 85.74 65.58 90.96 71.94 68.87 78.31 96.96 84.67 108.38 91.04 86.39 97.41 59.17 103.77 49.89 110.14 58.38 116.51 59.81 122.87 64.21 129.24 72.45 135.6 71.67 141.97 68.73 148.34 54.48 154.7 69.81 161.07 78.75 167.43 70.97 173.8 80.13 180.17 74.37 186.53 66.88 192.9 73.8 199.26 67.1 205.63 66.79 212 64.05 218.36 59.29 224.73 60.9" stroke="#0000FF" class="geometry color_Democratic"/>
        <path fill="none" d="M33.75,75.83 L 40.11 75.42 46.48 63.36 52.84 46.17 59.21 58.94 65.58 96.25 71.94 73.29 78.31 60.73 84.67 64.6 91.04 49.19 97.41 83.65 103.77 87.86 110.14 76.73 116.51 75.01 122.87 74.54 129.24 62.43 135.6 62.86 141.97 66.22 148.34 80.07 154.7 72.01 161.07 59.74 167.43 66.93 173.8 67.29 180.17 60.87 186.53 68.54 192.9 85.71 199.26 80.14 205.63 72.6 212 71.51 218.36 77.07 224.73 76.27" stroke="#FF0000" class="geometry color_Republican"/>
      </g>
    </g>
  </g>
</g>
  <g class="guide ylabels" font-size="4.76" font-family="'PT Sans Caption','Helvetica Neue','Helvetica',sans-serif" fill="#A1A1A1" id="img-b3776324-23">
    <text x="24.38" y="118.95" text-anchor="end" dy="0.35em">0</text>
    <text x="24.38" y="92.94" text-anchor="end" dy="0.35em">25</text>
    <text x="24.38" y="66.93" text-anchor="end" dy="0.35em">50</text>
    <text x="24.38" y="40.92" text-anchor="end" dy="0.35em">75</text>
    <text x="24.38" y="14.91" text-anchor="end" dy="0.35em">100</text>
  </g>
  <g font-size="6.35" font-family="'PT Sans','Helvetica Neue','Helvetica',sans-serif" fill="#A1A1A1" stroke="#000000" stroke-opacity="0.000" id="img-b3776324-24">
    <text x="9.95" y="64.93" text-anchor="middle" dy="0.35em" transform="rotate(-90, 9.95, 66.93)">Popular Vote (%)</text>
  </g>
  <g font-size="6.35" font-family="'PT Sans','Helvetica Neue','Helvetica',sans-serif" fill="#A1A1A1" stroke="#000000" stroke-opacity="0.000" id="img-b3776324-25">
    <text x="129.24" y="5" text-anchor="middle" dy="0.6em">Washington</text>
  </g>
</g>
<defs>
  <clipPath id="img-b3776324-13">
  <path d="M25.38,12.91 L 233.1 12.91 233.1 120.95 25.38 120.95" />
</clipPath>
  <g id="img-b3776324-21">
    <circle cx="0" cy="0" r="0.9"/>
  </g>
</defs>
</svg>
