<?xml version="1.0" encoding="UTF-8"?>
<svg xmlns="http://www.w3.org/2000/svg"
     xmlns:xlink="http://www.w3.org/1999/xlink"
     xmlns:gadfly="http://www.gadflyjl.org/ns"
     version="1.2"
     width="320mm" height="160mm" viewBox="0 0 320 160"
     stroke="none"
     fill="#000000"
     stroke-width="0.3"
     font-size="3.88"
>
<g class="plotroot xscalable yscalable" id="img-c7f3baa3-1">
  <g class="guide colorkey" id="img-c7f3baa3-2">
    <g class="color_Democratic" id="img-c7f3baa3-3">
      <g fill="#FFFFFF" font-size="4.76" font-family="'PT Sans','Helvetica Neue','Helvetica',sans-serif" id="img-c7f3baa3-4">
        <text x="58.33" y="149.82" dy="0.35em">Democratic</text>
      </g>
      <g fill="#0000FF" stroke="#000000" stroke-opacity="0.000" id="img-c7f3baa3-5">
        <rect x="54.36" y="148.34" width="2.97" height="2.97"/>
      </g>
    </g>
    <g class="color_Republican" id="img-c7f3baa3-6">
      <g fill="#FFFFFF" font-size="4.76" font-family="'PT Sans','Helvetica Neue','Helvetica',sans-serif" id="img-c7f3baa3-7">
        <text x="29.73" y="149.82" dy="0.35em">Republican</text>
      </g>
      <g fill="#FF0000" stroke="#000000" stroke-opacity="0.000" id="img-c7f3baa3-8">
        <rect x="25.76" y="148.34" width="2.97" height="2.97"/>
      </g>
    </g>
    <g fill="#FFFFFF" font-size="6.35" font-family="'PT Sans','Helvetica Neue','Helvetica',sans-serif" stroke="#000000" stroke-opacity="0.000" id="img-c7f3baa3-9">
      <text x="25.76" y="145.06">Party</text>
    </g>
  </g>
  <g font-size="6.35" font-family="'PT Sans','Helvetica Neue','Helvetica',sans-serif" fill="#FFFFFF" stroke="#000000" stroke-opacity="0.000" id="img-c7f3baa3-10">
    <text x="169.88" y="130.77" text-anchor="middle" dy="0.6em">Year</text>
  </g>
  <g class="guide xlabels" font-size="4.76" font-family="'PT Sans Caption','Helvetica Neue','Helvetica',sans-serif" fill="#FFFFFF" id="img-c7f3baa3-11">
    <text x="26.76" y="122.89" text-anchor="middle" dy="0.6em">1860</text>
    <text x="41.44" y="122.89" text-anchor="middle" dy="0.6em">1868</text>
    <text x="56.12" y="122.89" text-anchor="middle" dy="0.6em">1876</text>
    <text x="70.8" y="122.89" text-anchor="middle" dy="0.6em">1884</text>
    <text x="85.47" y="122.89" text-anchor="middle" dy="0.6em">1892</text>
    <text x="100.15" y="122.89" text-anchor="middle" dy="0.6em">1900</text>
    <text x="114.83" y="122.89" text-anchor="middle" dy="0.6em">1908</text>
    <text x="129.51" y="122.89" text-anchor="middle" dy="0.6em">1916</text>
    <text x="144.19" y="122.89" text-anchor="middle" dy="0.6em">1924</text>
    <text x="158.87" y="122.89" text-anchor="middle" dy="0.6em">1932</text>
    <text x="173.55" y="122.89" text-anchor="middle" dy="0.6em">1940</text>
    <text x="188.23" y="122.89" text-anchor="middle" dy="0.6em">1948</text>
    <text x="202.91" y="122.89" text-anchor="middle" dy="0.6em">1956</text>
    <text x="217.59" y="122.89" text-anchor="middle" dy="0.6em">1964</text>
    <text x="232.27" y="122.89" text-anchor="middle" dy="0.6em">1972</text>
    <text x="246.94" y="122.89" text-anchor="middle" dy="0.6em">1980</text>
    <text x="261.62" y="122.89" text-anchor="middle" dy="0.6em">1988</text>
    <text x="276.3" y="122.89" text-anchor="middle" dy="0.6em">1996</text>
    <text x="290.98" y="122.89" text-anchor="middle" dy="0.6em">2004</text>
    <text x="305.66" y="122.89" text-anchor="middle" dy="0.6em">2012</text>
  </g>
<g clip-path="url(#img-c7f3baa3-12)">
  <g id="img-c7f3baa3-13">
    <g pointer-events="visible" opacity="1" fill="#000000" fill-opacity="0.000" stroke="#000000" stroke-opacity="0.000" class="guide background" id="img-c7f3baa3-14">
      <rect x="24.76" y="15.35" width="290.24" height="106.54"/>
    </g>
    <g class="guide ygridlines xfixed" stroke-dasharray="0.5,0.5" stroke-width="0.26" stroke="#FFFFFF" id="img-c7f3baa3-15">
      <path fill="none" d="M24.76,119.89 L 315 119.89"/>
      <path fill="none" d="M24.76,94.26 L 315 94.26"/>
      <path fill="none" d="M24.76,68.62 L 315 68.62"/>
      <path fill="none" d="M24.76,42.99 L 315 42.99"/>
      <path fill="none" d="M24.76,17.35 L 315 17.35"/>
    </g>
    <g class="guide xgridlines yfixed" stroke-dasharray="0.5,0.5" stroke-width="0.26" stroke="#FFFFFF" id="img-c7f3baa3-16">
      <path fill="none" d="M26.76,15.35 L 26.76 121.89"/>
      <path fill="none" d="M41.44,15.35 L 41.44 121.89"/>
      <path fill="none" d="M56.12,15.35 L 56.12 121.89"/>
      <path fill="none" d="M70.8,15.35 L 70.8 121.89"/>
      <path fill="none" d="M85.47,15.35 L 85.47 121.89"/>
      <path fill="none" d="M100.15,15.35 L 100.15 121.89"/>
      <path fill="none" d="M114.83,15.35 L 114.83 121.89"/>
      <path fill="none" d="M129.51,15.35 L 129.51 121.89"/>
      <path fill="none" d="M144.19,15.35 L 144.19 121.89"/>
      <path fill="none" d="M158.87,15.35 L 158.87 121.89"/>
      <path fill="none" d="M173.55,15.35 L 173.55 121.89"/>
      <path fill="none" d="M188.23,15.35 L 188.23 121.89"/>
      <path fill="none" d="M202.91,15.35 L 202.91 121.89"/>
      <path fill="none" d="M217.59,15.35 L 217.59 121.89"/>
      <path fill="none" d="M232.27,15.35 L 232.27 121.89"/>
      <path fill="none" d="M246.94,15.35 L 246.94 121.89"/>
      <path fill="none" d="M261.62,15.35 L 261.62 121.89"/>
      <path fill="none" d="M276.3,15.35 L 276.3 121.89"/>
      <path fill="none" d="M290.98,15.35 L 290.98 121.89"/>
      <path fill="none" d="M305.66,15.35 L 305.66 121.89"/>
    </g>
    <g class="plotpanel" id="img-c7f3baa3-17">
      <g class="geometry" id="img-c7f3baa3-18">
        <g stroke-width="0.3" id="img-c7f3baa3-19">
          <use xlink:href="#img-c7f3baa3-20" x="34.1" y="49.92" stroke="#FFFFFF" fill="#FF0000" class="color_Republican"/>
          <use xlink:href="#img-c7f3baa3-20" x="41.44" y="59.57" stroke="#FFFFFF" fill="#FF0000" class="color_Republican"/>
          <use xlink:href="#img-c7f3baa3-20" x="48.78" y="66.84" stroke="#FFFFFF" fill="#FF0000" class="color_Republican"/>
          <use xlink:href="#img-c7f3baa3-20" x="56.12" y="76.67" stroke="#FFFFFF" fill="#FF0000" class="color_Republican"/>
          <use xlink:href="#img-c7f3baa3-20" x="63.46" y="77.79" stroke="#FFFFFF" fill="#FF0000" class="color_Republican"/>
          <use xlink:href="#img-c7f3baa3-20" x="70.8" y="70.93" stroke="#FFFFFF" fill="#FF0000" class="color_Republican"/>
          <use xlink:href="#img-c7f3baa3-20" x="78.14" y="69.62" stroke="#FFFFFF" fill="#FF0000" class="color_Republican"/>
          <use xlink:href="#img-c7f3baa3-20" x="85.47" y="71.77" stroke="#FFFFFF" fill="#FF0000" class="color_Republican"/>
          <use xlink:href="#img-c7f3baa3-20" x="92.81" y="66.33" stroke="#FFFFFF" fill="#FF0000" class="color_Republican"/>
          <use xlink:href="#img-c7f3baa3-20" x="100.15" y="64.24" stroke="#FFFFFF" fill="#FF0000" class="color_Republican"/>
          <use xlink:href="#img-c7f3baa3-20" x="107.49" y="63.23" stroke="#FFFFFF" fill="#FF0000" class="color_Republican"/>
          <use xlink:href="#img-c7f3baa3-20" x="114.83" y="65.12" stroke="#FFFFFF" fill="#FF0000" class="color_Republican"/>
          <use xlink:href="#img-c7f3baa3-20" x="122.17" y="98.24" stroke="#FFFFFF" fill="#FF0000" class="color_Republican"/>
          <use xlink:href="#img-c7f3baa3-20" x="129.51" y="69.26" stroke="#FFFFFF" fill="#FF0000" class="color_Republican"/>
          <use xlink:href="#img-c7f3baa3-20" x="136.85" y="63.18" stroke="#FFFFFF" fill="#FF0000" class="color_Republican"/>
          <use xlink:href="#img-c7f3baa3-20" x="144.19" y="69.18" stroke="#FFFFFF" fill="#FF0000" class="color_Republican"/>
          <use xlink:href="#img-c7f3baa3-20" x="151.53" y="59.98" stroke="#FFFFFF" fill="#FF0000" class="color_Republican"/>
          <use xlink:href="#img-c7f3baa3-20" x="158.87" y="74.29" stroke="#FFFFFF" fill="#FF0000" class="color_Republican"/>
          <use xlink:href="#img-c7f3baa3-20" x="166.21" y="79.69" stroke="#FFFFFF" fill="#FF0000" class="color_Republican"/>
          <use xlink:href="#img-c7f3baa3-20" x="173.55" y="75.9" stroke="#FFFFFF" fill="#FF0000" class="color_Republican"/>
          <use xlink:href="#img-c7f3baa3-20" x="180.89" y="73.63" stroke="#FFFFFF" fill="#FF0000" class="color_Republican"/>
          <use xlink:href="#img-c7f3baa3-20" x="188.23" y="76.58" stroke="#FFFFFF" fill="#FF0000" class="color_Republican"/>
          <use xlink:href="#img-c7f3baa3-20" x="195.57" y="70.59" stroke="#FFFFFF" fill="#FF0000" class="color_Republican"/>
          <use xlink:href="#img-c7f3baa3-20" x="202.91" y="64.44" stroke="#FFFFFF" fill="#FF0000" class="color_Republican"/>
          <use xlink:href="#img-c7f3baa3-20" x="210.25" y="71.42" stroke="#FFFFFF" fill="#FF0000" class="color_Republican"/>
          <use xlink:href="#img-c7f3baa3-20" x="217.59" y="87.01" stroke="#FFFFFF" fill="#FF0000" class="color_Republican"/>
          <use xlink:href="#img-c7f3baa3-20" x="224.93" y="78.08" stroke="#FFFFFF" fill="#FF0000" class="color_Republican"/>
          <use xlink:href="#img-c7f3baa3-20" x="232.27" y="54.66" stroke="#FFFFFF" fill="#FF0000" class="color_Republican"/>
          <use xlink:href="#img-c7f3baa3-20" x="239.6" y="76.9" stroke="#FFFFFF" fill="#FF0000" class="color_Republican"/>
          <use xlink:href="#img-c7f3baa3-20" x="246.94" y="73.44" stroke="#FFFFFF" fill="#FF0000" class="color_Republican"/>
          <use xlink:href="#img-c7f3baa3-20" x="254.28" y="63.38" stroke="#FFFFFF" fill="#FF0000" class="color_Republican"/>
          <use xlink:href="#img-c7f3baa3-20" x="261.62" y="71.22" stroke="#FFFFFF" fill="#FF0000" class="color_Republican"/>
          <use xlink:href="#img-c7f3baa3-20" x="268.96" y="83.6" stroke="#FFFFFF" fill="#FF0000" class="color_Republican"/>
          <use xlink:href="#img-c7f3baa3-20" x="276.3" y="82.2" stroke="#FFFFFF" fill="#FF0000" class="color_Republican"/>
          <use xlink:href="#img-c7f3baa3-20" x="283.64" y="66.66" stroke="#FFFFFF" fill="#FF0000" class="color_Republican"/>
          <use xlink:href="#img-c7f3baa3-20" x="290.98" y="62.4" stroke="#FFFFFF" fill="#FF0000" class="color_Republican"/>
          <use xlink:href="#img-c7f3baa3-20" x="298.32" y="62.9" stroke="#FFFFFF" fill="#FF0000" class="color_Republican"/>
          <use xlink:href="#img-c7f3baa3-20" x="305.66" y="56.17" stroke="#FFFFFF" fill="#FF0000" class="color_Republican"/>
          <use xlink:href="#img-c7f3baa3-20" x="34.1" y="87.32" stroke="#FFFFFF" fill="#0000FF" class="color_Democratic"/>
          <use xlink:href="#img-c7f3baa3-20" x="41.44" y="77.67" stroke="#FFFFFF" fill="#0000FF" class="color_Democratic"/>
          <use xlink:href="#img-c7f3baa3-20" x="48.78" y="71.41" stroke="#FFFFFF" fill="#0000FF" class="color_Democratic"/>
          <use xlink:href="#img-c7f3baa3-20" x="56.12" y="61.7" stroke="#FFFFFF" fill="#0000FF" class="color_Democratic"/>
          <use xlink:href="#img-c7f3baa3-20" x="63.46" y="67.65" stroke="#FFFFFF" fill="#0000FF" class="color_Democratic"/>
          <use xlink:href="#img-c7f3baa3-20" x="70.8" y="67.66" stroke="#FFFFFF" fill="#0000FF" class="color_Democratic"/>
          <use xlink:href="#img-c7f3baa3-20" x="78.14" y="69.29" stroke="#FFFFFF" fill="#0000FF" class="color_Democratic"/>
          <use xlink:href="#img-c7f3baa3-20" x="85.47" y="69.26" stroke="#FFFFFF" fill="#0000FF" class="color_Democratic"/>
          <use xlink:href="#img-c7f3baa3-20" x="92.81" y="71.87" stroke="#FFFFFF" fill="#0000FF" class="color_Democratic"/>
          <use xlink:href="#img-c7f3baa3-20" x="100.15" y="74" stroke="#FFFFFF" fill="#0000FF" class="color_Democratic"/>
          <use xlink:href="#img-c7f3baa3-20" x="107.49" y="76.8" stroke="#FFFFFF" fill="#0000FF" class="color_Democratic"/>
          <use xlink:href="#img-c7f3baa3-20" x="114.83" y="75.63" stroke="#FFFFFF" fill="#0000FF" class="color_Democratic"/>
          <use xlink:href="#img-c7f3baa3-20" x="122.17" y="76.71" stroke="#FFFFFF" fill="#0000FF" class="color_Democratic"/>
          <use xlink:href="#img-c7f3baa3-20" x="129.51" y="70.22" stroke="#FFFFFF" fill="#0000FF" class="color_Democratic"/>
          <use xlink:href="#img-c7f3baa3-20" x="136.85" y="75.49" stroke="#FFFFFF" fill="#0000FF" class="color_Democratic"/>
          <use xlink:href="#img-c7f3baa3-20" x="144.19" y="74.7" stroke="#FFFFFF" fill="#0000FF" class="color_Democratic"/>
          <use xlink:href="#img-c7f3baa3-20" x="151.53" y="77.81" stroke="#FFFFFF" fill="#0000FF" class="color_Democratic"/>
          <use xlink:href="#img-c7f3baa3-20" x="158.87" y="64.04" stroke="#FFFFFF" fill="#0000FF" class="color_Democratic"/>
          <use xlink:href="#img-c7f3baa3-20" x="166.21" y="57.8" stroke="#FFFFFF" fill="#0000FF" class="color_Democratic"/>
          <use xlink:href="#img-c7f3baa3-20" x="173.55" y="61.34" stroke="#FFFFFF" fill="#0000FF" class="color_Democratic"/>
          <use xlink:href="#img-c7f3baa3-20" x="180.89" y="63.61" stroke="#FFFFFF" fill="#0000FF" class="color_Democratic"/>
          <use xlink:href="#img-c7f3baa3-20" x="188.23" y="61.11" stroke="#FFFFFF" fill="#0000FF" class="color_Democratic"/>
          <use xlink:href="#img-c7f3baa3-20" x="195.57" y="66.65" stroke="#FFFFFF" fill="#0000FF" class="color_Democratic"/>
          <use xlink:href="#img-c7f3baa3-20" x="202.91" y="72.8" stroke="#FFFFFF" fill="#0000FF" class="color_Democratic"/>
          <use xlink:href="#img-c7f3baa3-20" x="210.25" y="65.82" stroke="#FFFFFF" fill="#0000FF" class="color_Democratic"/>
          <use xlink:href="#img-c7f3baa3-20" x="217.59" y="50.23" stroke="#FFFFFF" fill="#0000FF" class="color_Democratic"/>
          <use xlink:href="#img-c7f3baa3-20" x="224.93" y="69.03" stroke="#FFFFFF" fill="#0000FF" class="color_Democratic"/>
          <use xlink:href="#img-c7f3baa3-20" x="232.27" y="82.58" stroke="#FFFFFF" fill="#0000FF" class="color_Democratic"/>
          <use xlink:href="#img-c7f3baa3-20" x="239.6" y="60.35" stroke="#FFFFFF" fill="#0000FF" class="color_Democratic"/>
          <use xlink:href="#img-c7f3baa3-20" x="246.94" y="68.81" stroke="#FFFFFF" fill="#0000FF" class="color_Democratic"/>
          <use xlink:href="#img-c7f3baa3-20" x="254.28" y="74.16" stroke="#FFFFFF" fill="#0000FF" class="color_Democratic"/>
          <use xlink:href="#img-c7f3baa3-20" x="261.62" y="66.37" stroke="#FFFFFF" fill="#0000FF" class="color_Democratic"/>
          <use xlink:href="#img-c7f3baa3-20" x="268.96" y="70.25" stroke="#FFFFFF" fill="#0000FF" class="color_Democratic"/>
          <use xlink:href="#img-c7f3baa3-20" x="276.3" y="67.08" stroke="#FFFFFF" fill="#0000FF" class="color_Democratic"/>
          <use xlink:href="#img-c7f3baa3-20" x="283.64" y="73.14" stroke="#FFFFFF" fill="#0000FF" class="color_Democratic"/>
          <use xlink:href="#img-c7f3baa3-20" x="290.98" y="75.59" stroke="#FFFFFF" fill="#0000FF" class="color_Democratic"/>
          <use xlink:href="#img-c7f3baa3-20" x="298.32" y="76.32" stroke="#FFFFFF" fill="#0000FF" class="color_Democratic"/>
          <use xlink:href="#img-c7f3baa3-20" x="305.66" y="83.54" stroke="#FFFFFF" fill="#0000FF" class="color_Democratic"/>
        </g>
      </g>
      <g stroke-width="0.53" fill="#000000" fill-opacity="0.000" stroke-dasharray="none" id="img-c7f3baa3-21">
        <path fill="none" d="M34.1,87.32 L 41.44 77.67 48.78 71.41 56.12 61.7 63.46 67.65 70.8 67.66 78.14 69.29 85.47 69.26 92.81 71.87 100.15 74 107.49 76.8 114.83 75.63 122.17 76.71 129.51 70.22 136.85 75.49 144.19 74.7 151.53 77.81 158.87 64.04 166.21 57.8 173.55 61.34 180.89 63.61 188.23 61.11 195.57 66.65 202.91 72.8 210.25 65.82 217.59 50.23 224.93 69.03 232.27 82.58 239.6 60.35 246.94 68.81 254.28 74.16 261.62 66.37 268.96 70.25 276.3 67.08 283.64 73.14 290.98 75.59 298.32 76.32 305.66 83.54" stroke="#0000FF" class="geometry color_Democratic"/>
        <path fill="none" d="M34.1,49.92 L 41.44 59.57 48.78 66.84 56.12 76.67 63.46 77.79 70.8 70.93 78.14 69.62 85.47 71.77 92.81 66.33 100.15 64.24 107.49 63.23 114.83 65.12 122.17 98.24 129.51 69.26 136.85 63.18 144.19 69.18 151.53 59.98 158.87 74.29 166.21 79.69 173.55 75.9 180.89 73.63 188.23 76.58 195.57 70.59 202.91 64.44 210.25 71.42 217.59 87.01 224.93 78.08 232.27 54.66 239.6 76.9 246.94 73.44 254.28 63.38 261.62 71.22 268.96 83.6 276.3 82.2 283.64 66.66 290.98 62.4 298.32 62.9 305.66 56.17" stroke="#FF0000" class="geometry color_Republican"/>
      </g>
    </g>
  </g>
</g>
  <g class="guide ylabels" font-size="4.76" font-family="'PT Sans Caption','Helvetica Neue','Helvetica',sans-serif" fill="#FFFFFF" id="img-c7f3baa3-22">
    <text x="23.76" y="119.89" text-anchor="end" dy="0.35em">0</text>
    <text x="23.76" y="94.26" text-anchor="end" dy="0.35em">25</text>
    <text x="23.76" y="68.62" text-anchor="end" dy="0.35em">50</text>
    <text x="23.76" y="42.99" text-anchor="end" dy="0.35em">75</text>
    <text x="23.76" y="17.35" text-anchor="end" dy="0.35em">100</text>
  </g>
  <g font-size="6.35" font-family="'PT Sans','Helvetica Neue','Helvetica',sans-serif" fill="#FFFFFF" stroke="#000000" stroke-opacity="0.000" id="img-c7f3baa3-23">
    <text x="10.18" y="66.62" text-anchor="middle" dy="0.35em" transform="rotate(-90, 10.18, 68.62)">Popular Vote (%)</text>
  </g>
  <g font-size="6.35" font-family="'PT Sans','Helvetica Neue','Helvetica',sans-serif" fill="#FFFFFF" stroke="#000000" stroke-opacity="0.000" id="img-c7f3baa3-24">
    <text x="169.88" y="13.35" text-anchor="middle">West Virginia</text>
  </g>
</g>
<defs>
  <clipPath id="img-c7f3baa3-12">
  <path d="M24.76,15.35 L 315 15.35 315 121.89 24.76 121.89" />
</clipPath>
  <g id="img-c7f3baa3-20">
    <circle cx="0" cy="0" r="0.9"/>
  </g>
</defs>
</svg>
