<?xml version="1.0" encoding="UTF-8"?>
<svg xmlns="http://www.w3.org/2000/svg"
     xmlns:xlink="http://www.w3.org/1999/xlink"
     xmlns:gadfly="http://www.gadflyjl.org/ns"
     version="1.2"
     width="238.1mm" height="158.73mm" viewBox="0 0 238.1 158.73"
     stroke="none"
     fill="#000000"
     stroke-width="0.3"
     font-size="3.88"
>
<g stroke="#000000" stroke-opacity="0.000" fill="#222831" id="img-3e606292-1">
  <rect x="0" y="0" width="238.1" height="158.73"/>
</g>
<g class="plotroot xscalable yscalable" id="img-3e606292-2">
  <g class="guide colorkey" id="img-3e606292-3">
    <g class="color_Democratic" id="img-3e606292-4">
      <g fill="#A1A1A1" font-size="3.7" font-family="'PT Sans','Helvetica Neue','Helvetica',sans-serif" id="img-3e606292-5">
        <text x="51.52" y="148.78" dy="0.35em">Democratic</text>
      </g>
      <g fill="#0000FF" stroke="#000000" stroke-opacity="0.000" id="img-3e606292-6">
        <rect x="48.29" y="147.66" width="2.22" height="2.22"/>
      </g>
    </g>
    <g class="color_Republican" id="img-3e606292-7">
      <g fill="#A1A1A1" font-size="3.7" font-family="'PT Sans','Helvetica Neue','Helvetica',sans-serif" id="img-3e606292-8">
        <text x="29.6" y="148.78" dy="0.35em">Republican</text>
      </g>
      <g fill="#FF0000" stroke="#000000" stroke-opacity="0.000" id="img-3e606292-9">
        <rect x="26.38" y="147.66" width="2.22" height="2.22"/>
      </g>
    </g>
    <g fill="#A1A1A1" font-size="6.35" font-family="'PT Sans','Helvetica Neue','Helvetica',sans-serif" stroke="#000000" stroke-opacity="0.000" id="img-3e606292-10">
      <text x="26.38" y="145.28">Party</text>
    </g>
  </g>
  <g font-size="6.35" font-family="'PT Sans','Helvetica Neue','Helvetica',sans-serif" fill="#A1A1A1" stroke="#000000" stroke-opacity="0.000" id="img-3e606292-11">
    <text x="129.24" y="130.46" text-anchor="middle" dy="0.6em">Year</text>
  </g>
  <g class="guide xlabels" font-size="4.76" font-family="'PT Sans Caption','Helvetica Neue','Helvetica',sans-serif" fill="#A1A1A1" id="img-3e606292-12">
    <text x="27.38" y="121.95" text-anchor="middle" dy="0.6em">1844</text>
    <text x="41.59" y="121.95" text-anchor="middle" dy="0.6em">1856</text>
    <text x="55.8" y="121.95" text-anchor="middle" dy="0.6em">1868</text>
    <text x="70.02" y="121.95" text-anchor="middle" dy="0.6em">1880</text>
    <text x="84.23" y="121.95" text-anchor="middle" dy="0.6em">1892</text>
    <text x="98.44" y="121.95" text-anchor="middle" dy="0.6em">1904</text>
    <text x="112.66" y="121.95" text-anchor="middle" dy="0.6em">1916</text>
    <text x="126.87" y="121.95" text-anchor="middle" dy="0.6em">1928</text>
    <text x="141.08" y="121.95" text-anchor="middle" dy="0.6em">1940</text>
    <text x="155.29" y="121.95" text-anchor="middle" dy="0.6em">1952</text>
    <text x="169.51" y="121.95" text-anchor="middle" dy="0.6em">1964</text>
    <text x="183.72" y="121.95" text-anchor="middle" dy="0.6em">1976</text>
    <text x="197.93" y="121.95" text-anchor="middle" dy="0.6em">1988</text>
    <text x="212.14" y="121.95" text-anchor="middle" dy="0.6em">2000</text>
    <text x="226.36" y="121.95" text-anchor="middle" dy="0.6em">2012</text>
  </g>
<g clip-path="url(#img-3e606292-13)">
  <g id="img-3e606292-14">
    <g pointer-events="visible" opacity="1" fill="#222831" stroke="#000000" stroke-opacity="0.000" class="guide background" id="img-3e606292-15">
      <rect x="25.38" y="12.91" width="207.72" height="108.04"/>
    </g>
    <g class="guide ygridlines xfixed" stroke-dasharray="0.5,0.5" stroke-width="0.2" stroke="#575757" id="img-3e606292-16">
      <path fill="none" d="M25.38,118.95 L 233.1 118.95"/>
      <path fill="none" d="M25.38,92.94 L 233.1 92.94"/>
      <path fill="none" d="M25.38,66.93 L 233.1 66.93"/>
      <path fill="none" d="M25.38,40.92 L 233.1 40.92"/>
      <path fill="none" d="M25.38,14.91 L 233.1 14.91"/>
    </g>
    <g class="guide xgridlines yfixed" stroke-dasharray="0.5,0.5" stroke-width="0.2" stroke="#575757" id="img-3e606292-17">
      <path fill="none" d="M27.38,12.91 L 27.38 120.95"/>
      <path fill="none" d="M41.59,12.91 L 41.59 120.95"/>
      <path fill="none" d="M55.8,12.91 L 55.8 120.95"/>
      <path fill="none" d="M70.02,12.91 L 70.02 120.95"/>
      <path fill="none" d="M84.23,12.91 L 84.23 120.95"/>
      <path fill="none" d="M98.44,12.91 L 98.44 120.95"/>
      <path fill="none" d="M112.66,12.91 L 112.66 120.95"/>
      <path fill="none" d="M126.87,12.91 L 126.87 120.95"/>
      <path fill="none" d="M141.08,12.91 L 141.08 120.95"/>
      <path fill="none" d="M155.29,12.91 L 155.29 120.95"/>
      <path fill="none" d="M169.51,12.91 L 169.51 120.95"/>
      <path fill="none" d="M183.72,12.91 L 183.72 120.95"/>
      <path fill="none" d="M197.93,12.91 L 197.93 120.95"/>
      <path fill="none" d="M212.14,12.91 L 212.14 120.95"/>
      <path fill="none" d="M226.36,12.91 L 226.36 120.95"/>
    </g>
    <g class="plotpanel" id="img-3e606292-18">
      <g class="geometry" id="img-3e606292-19">
        <g stroke-width="0.3" id="img-3e606292-20">
          <use xlink:href="#img-3e606292-21" x="46.33" y="60.08" stroke="#B3867B" fill="#FF0000" class="color_Republican"/>
          <use xlink:href="#img-3e606292-21" x="51.07" y="60.81" stroke="#B3867B" fill="#FF0000" class="color_Republican"/>
          <use xlink:href="#img-3e606292-21" x="55.8" y="60.43" stroke="#B3867B" fill="#FF0000" class="color_Republican"/>
          <use xlink:href="#img-3e606292-21" x="60.54" y="62.15" stroke="#B3867B" fill="#FF0000" class="color_Republican"/>
          <use xlink:href="#img-3e606292-21" x="65.28" y="66.33" stroke="#B3867B" fill="#FF0000" class="color_Republican"/>
          <use xlink:href="#img-3e606292-21" x="70.02" y="62.72" stroke="#B3867B" fill="#FF0000" class="color_Republican"/>
          <use xlink:href="#img-3e606292-21" x="74.76" y="66.54" stroke="#B3867B" fill="#FF0000" class="color_Republican"/>
          <use xlink:href="#img-3e606292-21" x="79.49" y="67.15" stroke="#B3867B" fill="#FF0000" class="color_Republican"/>
          <use xlink:href="#img-3e606292-21" x="84.23" y="71.04" stroke="#B3867B" fill="#FF0000" class="color_Republican"/>
          <use xlink:href="#img-3e606292-21" x="88.97" y="56.6" stroke="#B3867B" fill="#FF0000" class="color_Republican"/>
          <use xlink:href="#img-3e606292-21" x="93.71" y="56.47" stroke="#B3867B" fill="#FF0000" class="color_Republican"/>
          <use xlink:href="#img-3e606292-21" x="98.44" y="53.18" stroke="#B3867B" fill="#FF0000" class="color_Republican"/>
          <use xlink:href="#img-3e606292-21" x="103.18" y="62.23" stroke="#B3867B" fill="#FF0000" class="color_Republican"/>
          <use xlink:href="#img-3e606292-21" x="107.92" y="84.98" stroke="#B3867B" fill="#FF0000" class="color_Republican"/>
          <use xlink:href="#img-3e606292-21" x="112.66" y="67.57" stroke="#B3867B" fill="#FF0000" class="color_Republican"/>
          <use xlink:href="#img-3e606292-21" x="117.39" y="44.98" stroke="#B3867B" fill="#FF0000" class="color_Republican"/>
          <use xlink:href="#img-3e606292-21" x="122.13" y="80.39" stroke="#B3867B" fill="#FF0000" class="color_Republican"/>
          <use xlink:href="#img-3e606292-21" x="126.87" y="63.27" stroke="#B3867B" fill="#FF0000" class="color_Republican"/>
          <use xlink:href="#img-3e606292-21" x="131.61" y="86.5" stroke="#B3867B" fill="#FF0000" class="color_Republican"/>
          <use xlink:href="#img-3e606292-21" x="136.34" y="87.47" stroke="#B3867B" fill="#FF0000" class="color_Republican"/>
          <use xlink:href="#img-3e606292-21" x="141.08" y="68.68" stroke="#B3867B" fill="#FF0000" class="color_Republican"/>
          <use xlink:href="#img-3e606292-21" x="145.82" y="66.55" stroke="#B3867B" fill="#FF0000" class="color_Republican"/>
          <use xlink:href="#img-3e606292-21" x="150.56" y="70.8" stroke="#B3867B" fill="#FF0000" class="color_Republican"/>
          <use xlink:href="#img-3e606292-21" x="155.29" y="55.54" stroke="#B3867B" fill="#FF0000" class="color_Republican"/>
          <use xlink:href="#img-3e606292-21" x="160.03" y="54.88" stroke="#B3867B" fill="#FF0000" class="color_Republican"/>
          <use xlink:href="#img-3e606292-21" x="164.77" y="65.09" stroke="#B3867B" fill="#FF0000" class="color_Republican"/>
          <use xlink:href="#img-3e606292-21" x="169.51" y="79.69" stroke="#B3867B" fill="#FF0000" class="color_Republican"/>
          <use xlink:href="#img-3e606292-21" x="174.24" y="69.13" stroke="#B3867B" fill="#FF0000" class="color_Republican"/>
          <use xlink:href="#img-3e606292-21" x="178.98" y="63.39" stroke="#B3867B" fill="#FF0000" class="color_Republican"/>
          <use xlink:href="#img-3e606292-21" x="183.72" y="69.19" stroke="#B3867B" fill="#FF0000" class="color_Republican"/>
          <use xlink:href="#img-3e606292-21" x="188.46" y="69.12" stroke="#B3867B" fill="#FF0000" class="color_Republican"/>
          <use xlink:href="#img-3e606292-21" x="193.19" y="62.57" stroke="#B3867B" fill="#FF0000" class="color_Republican"/>
          <use xlink:href="#img-3e606292-21" x="197.93" y="69.22" stroke="#B3867B" fill="#FF0000" class="color_Republican"/>
          <use xlink:href="#img-3e606292-21" x="202.67" y="80.69" stroke="#B3867B" fill="#FF0000" class="color_Republican"/>
          <use xlink:href="#img-3e606292-21" x="207.41" y="78.92" stroke="#B3867B" fill="#FF0000" class="color_Republican"/>
          <use xlink:href="#img-3e606292-21" x="212.14" y="69.41" stroke="#B3867B" fill="#FF0000" class="color_Republican"/>
          <use xlink:href="#img-3e606292-21" x="216.88" y="67.64" stroke="#B3867B" fill="#FF0000" class="color_Republican"/>
          <use xlink:href="#img-3e606292-21" x="221.62" y="74.93" stroke="#B3867B" fill="#FF0000" class="color_Republican"/>
          <use xlink:href="#img-3e606292-21" x="226.36" y="71.21" stroke="#B3867B" fill="#FF0000" class="color_Republican"/>
          <use xlink:href="#img-3e606292-21" x="32.12" y="79.1" stroke="#988BAD" fill="#0000FF" class="color_Democratic"/>
          <use xlink:href="#img-3e606292-21" x="36.85" y="64.81" stroke="#988BAD" fill="#0000FF" class="color_Democratic"/>
          <use xlink:href="#img-3e606292-21" x="41.59" y="72.95" stroke="#988BAD" fill="#0000FF" class="color_Democratic"/>
          <use xlink:href="#img-3e606292-21" x="46.33" y="74.5" stroke="#988BAD" fill="#0000FF" class="color_Democratic"/>
          <use xlink:href="#img-3e606292-21" x="51.07" y="73.05" stroke="#988BAD" fill="#0000FF" class="color_Democratic"/>
          <use xlink:href="#img-3e606292-21" x="55.8" y="73.43" stroke="#988BAD" fill="#0000FF" class="color_Democratic"/>
          <use xlink:href="#img-3e606292-21" x="60.54" y="72.17" stroke="#988BAD" fill="#0000FF" class="color_Democratic"/>
          <use xlink:href="#img-3e606292-21" x="65.28" y="68.82" stroke="#988BAD" fill="#0000FF" class="color_Democratic"/>
          <use xlink:href="#img-3e606292-21" x="70.02" y="74.31" stroke="#988BAD" fill="#0000FF" class="color_Democratic"/>
          <use xlink:href="#img-3e606292-21" x="74.76" y="71.31" stroke="#988BAD" fill="#0000FF" class="color_Democratic"/>
          <use xlink:href="#img-3e606292-21" x="79.49" y="73.41" stroke="#988BAD" fill="#0000FF" class="color_Democratic"/>
          <use xlink:href="#img-3e606292-21" x="84.23" y="69.3" stroke="#988BAD" fill="#0000FF" class="color_Democratic"/>
          <use xlink:href="#img-3e606292-21" x="88.97" y="80.46" stroke="#988BAD" fill="#0000FF" class="color_Democratic"/>
          <use xlink:href="#img-3e606292-21" x="93.71" y="81.53" stroke="#988BAD" fill="#0000FF" class="color_Democratic"/>
          <use xlink:href="#img-3e606292-21" x="98.44" y="89.81" stroke="#988BAD" fill="#0000FF" class="color_Democratic"/>
          <use xlink:href="#img-3e606292-21" x="103.18" y="80.8" stroke="#988BAD" fill="#0000FF" class="color_Democratic"/>
          <use xlink:href="#img-3e606292-21" x="107.92" y="76.23" stroke="#988BAD" fill="#0000FF" class="color_Democratic"/>
          <use xlink:href="#img-3e606292-21" x="112.66" y="74.43" stroke="#988BAD" fill="#0000FF" class="color_Democratic"/>
          <use xlink:href="#img-3e606292-21" x="117.39" y="102.13" stroke="#988BAD" fill="#0000FF" class="color_Democratic"/>
          <use xlink:href="#img-3e606292-21" x="122.13" y="110.53" stroke="#988BAD" fill="#0000FF" class="color_Democratic"/>
          <use xlink:href="#img-3e606292-21" x="126.87" y="72.88" stroke="#988BAD" fill="#0000FF" class="color_Democratic"/>
          <use xlink:href="#img-3e606292-21" x="131.61" y="52.93" stroke="#988BAD" fill="#0000FF" class="color_Democratic"/>
          <use xlink:href="#img-3e606292-21" x="136.34" y="52.57" stroke="#988BAD" fill="#0000FF" class="color_Democratic"/>
          <use xlink:href="#img-3e606292-21" x="141.08" y="66.78" stroke="#988BAD" fill="#0000FF" class="color_Democratic"/>
          <use xlink:href="#img-3e606292-21" x="145.82" y="68.42" stroke="#988BAD" fill="#0000FF" class="color_Democratic"/>
          <use xlink:href="#img-3e606292-21" x="150.56" y="66.21" stroke="#988BAD" fill="#0000FF" class="color_Democratic"/>
          <use xlink:href="#img-3e606292-21" x="155.29" y="78.68" stroke="#988BAD" fill="#0000FF" class="color_Democratic"/>
          <use xlink:href="#img-3e606292-21" x="160.03" y="79.58" stroke="#988BAD" fill="#0000FF" class="color_Democratic"/>
          <use xlink:href="#img-3e606292-21" x="164.77" y="68.96" stroke="#988BAD" fill="#0000FF" class="color_Democratic"/>
          <use xlink:href="#img-3e606292-21" x="169.51" y="54.35" stroke="#988BAD" fill="#0000FF" class="color_Democratic"/>
          <use xlink:href="#img-3e606292-21" x="174.24" y="72.9" stroke="#988BAD" fill="#0000FF" class="color_Democratic"/>
          <use xlink:href="#img-3e606292-21" x="178.98" y="73.46" stroke="#988BAD" fill="#0000FF" class="color_Democratic"/>
          <use xlink:href="#img-3e606292-21" x="183.72" y="67.45" stroke="#988BAD" fill="#0000FF" class="color_Democratic"/>
          <use xlink:href="#img-3e606292-21" x="188.46" y="74.03" stroke="#988BAD" fill="#0000FF" class="color_Democratic"/>
          <use xlink:href="#img-3e606292-21" x="193.19" y="72.11" stroke="#988BAD" fill="#0000FF" class="color_Democratic"/>
          <use xlink:href="#img-3e606292-21" x="197.93" y="65.46" stroke="#988BAD" fill="#0000FF" class="color_Democratic"/>
          <use xlink:href="#img-3e606292-21" x="202.67" y="76.16" stroke="#988BAD" fill="#0000FF" class="color_Democratic"/>
          <use xlink:href="#img-3e606292-21" x="207.41" y="68.17" stroke="#988BAD" fill="#0000FF" class="color_Democratic"/>
          <use xlink:href="#img-3e606292-21" x="212.14" y="69.19" stroke="#988BAD" fill="#0000FF" class="color_Democratic"/>
          <use xlink:href="#img-3e606292-21" x="216.88" y="67.24" stroke="#988BAD" fill="#0000FF" class="color_Democratic"/>
          <use xlink:href="#img-3e606292-21" x="221.62" y="60.46" stroke="#988BAD" fill="#0000FF" class="color_Democratic"/>
          <use xlink:href="#img-3e606292-21" x="226.36" y="63.99" stroke="#988BAD" fill="#0000FF" class="color_Democratic"/>
        </g>
      </g>
      <g stroke-width="0.3" fill="#000000" fill-opacity="0.000" stroke-dasharray="none" id="img-3e606292-22">
        <path fill="none" d="M32.12,79.1 L 36.85 64.81 41.59 72.95 46.33 74.5 51.07 73.05 55.8 73.43 60.54 72.17 65.28 68.82 70.02 74.31 74.76 71.31 79.49 73.41 84.23 69.3 88.97 80.46 93.71 81.53 98.44 89.81 103.18 80.8 107.92 76.23 112.66 74.43 117.39 102.13 122.13 110.53 126.87 72.88 131.61 52.93 136.34 52.57 141.08 66.78 145.82 68.42 150.56 66.21 155.29 78.68 160.03 79.58 164.77 68.96 169.51 54.35 174.24 72.9 178.98 73.46 183.72 67.45 188.46 74.03 193.19 72.11 197.93 65.46 202.67 76.16 207.41 68.17 212.14 69.19 216.88 67.24 221.62 60.46 226.36 63.99" stroke="#0000FF" class="geometry color_Democratic"/>
        <path fill="none" d="M46.33,60.08 L 51.07 60.81 55.8 60.43 60.54 62.15 65.28 66.33 70.02 62.72 74.76 66.54 79.49 67.15 84.23 71.04 88.97 56.6 93.71 56.47 98.44 53.18 103.18 62.23 107.92 84.98 112.66 67.57 117.39 44.98 122.13 80.39 126.87 63.27 131.61 86.5 136.34 87.47 141.08 68.68 145.82 66.55 150.56 70.8 155.29 55.54 160.03 54.88 164.77 65.09 169.51 79.69 174.24 69.13 178.98 63.39 183.72 69.19 188.46 69.12 193.19 62.57 197.93 69.22 202.67 80.69 207.41 78.92 212.14 69.41 216.88 67.64 221.62 74.93 226.36 71.21" stroke="#FF0000" class="geometry color_Republican"/>
      </g>
    </g>
  </g>
</g>
  <g class="guide ylabels" font-size="4.76" font-family="'PT Sans Caption','Helvetica Neue','Helvetica',sans-serif" fill="#A1A1A1" id="img-3e606292-23">
    <text x="24.38" y="118.95" text-anchor="end" dy="0.35em">0</text>
    <text x="24.38" y="92.94" text-anchor="end" dy="0.35em">25</text>
    <text x="24.38" y="66.93" text-anchor="end" dy="0.35em">50</text>
    <text x="24.38" y="40.92" text-anchor="end" dy="0.35em">75</text>
    <text x="24.38" y="14.91" text-anchor="end" dy="0.35em">100</text>
  </g>
  <g font-size="6.35" font-family="'PT Sans','Helvetica Neue','Helvetica',sans-serif" fill="#A1A1A1" stroke="#000000" stroke-opacity="0.000" id="img-3e606292-24">
    <text x="9.95" y="64.93" text-anchor="middle" dy="0.35em" transform="rotate(-90, 9.95, 66.93)">Popular Vote (%)</text>
  </g>
  <g font-size="6.35" font-family="'PT Sans','Helvetica Neue','Helvetica',sans-serif" fill="#A1A1A1" stroke="#000000" stroke-opacity="0.000" id="img-3e606292-25">
    <text x="129.24" y="5" text-anchor="middle" dy="0.6em">Wisconsin</text>
  </g>
</g>
<defs>
  <clipPath id="img-3e606292-13">
  <path d="M25.38,12.91 L 233.1 12.91 233.1 120.95 25.38 120.95" />
</clipPath>
  <g id="img-3e606292-21">
    <circle cx="0" cy="0" r="0.9"/>
  </g>
</defs>
</svg>
