<svg xmlns="http://www.w3.org/2000/svg" xmlns:xlink="http://www.w3.org/1999/xlink" version="1.2" width="238.1mm" height="599.924" viewBox="0 0 238.1 158.73" stroke-width=".3" font-size="3.88"><path d="M0 0h238.1v158.73H0z" stroke="#000" stroke-opacity="0" fill="#222831"/><g class="plotroot xscalable yscalable"><g class="guide colorkey"><g class="color_Democratic"><text x="51.52" y="148.78" dy=".35em" fill="#A1A1A1" font-size="3.7" font-family="'PT Sans','Helvetica Neue','Helvetica',sans-serif">Democratic</text><path d="M48.29 147.66h2.22v2.22h-2.22z" fill="#00F" stroke="#000" stroke-opacity="0"/></g><g class="color_Republican"><text x="29.6" y="148.78" dy=".35em" fill="#A1A1A1" font-size="3.7" font-family="'PT Sans','Helvetica Neue','Helvetica',sans-serif">Republican</text><path d="M26.38 147.66h2.22v2.22h-2.22z" fill="#F00" stroke="#000" stroke-opacity="0"/></g><text x="26.38" y="145.28" fill="#A1A1A1" font-size="6.35" font-family="'PT Sans','Helvetica Neue','Helvetica',sans-serif" stroke="#000" stroke-opacity="0">Party</text></g><text x="129.24" y="130.46" text-anchor="middle" dy=".6em" font-size="6.35" font-family="'PT Sans','Helvetica Neue','Helvetica',sans-serif" fill="#A1A1A1" stroke="#000" stroke-opacity="0">Year</text><g class="guide xlabels" font-size="4.76" font-family="'PT Sans Caption','Helvetica Neue','Helvetica',sans-serif" fill="#A1A1A1" text-anchor="middle"><text x="27.38" y="121.95" dy=".6em">1844</text><text x="41.59" y="121.95" dy=".6em">1856</text><text x="55.8" y="121.95" dy=".6em">1868</text><text x="70.02" y="121.95" dy=".6em">1880</text><text x="84.23" y="121.95" dy=".6em">1892</text><text x="98.44" y="121.95" dy=".6em">1904</text><text x="112.66" y="121.95" dy=".6em">1916</text><text x="126.87" y="121.95" dy=".6em">1928</text><text x="141.08" y="121.95" dy=".6em">1940</text><text x="155.29" y="121.95" dy=".6em">1952</text><text x="169.51" y="121.95" dy=".6em">1964</text><text x="183.72" y="121.95" dy=".6em">1976</text><text x="197.93" y="121.95" dy=".6em">1988</text><text x="212.14" y="121.95" dy=".6em">2000</text><text x="226.36" y="121.95" dy=".6em">2012</text></g><g clip-path="url(#a)"><path d="M25.38 12.91H233.1v108.04H25.38z" pointer-events="visible" fill="#222831" stroke="#000" stroke-opacity="0" class="guide background"/><g class="guide ygridlines xfixed" stroke-dasharray="0.5,0.5" stroke-width=".2" stroke="#575757" fill="none"><path d="M25.38 118.95H233.1M25.38 92.94H233.1M25.38 66.93H233.1M25.38 40.92H233.1M25.38 14.91H233.1"/></g><g class="guide xgridlines yfixed" stroke-dasharray="0.5,0.5" stroke-width=".2" stroke="#575757" fill="none"><path d="M27.38 12.91v108.04M41.59 12.91v108.04M55.8 12.91v108.04M70.02 12.91v108.04M84.23 12.91v108.04M98.44 12.91v108.04M112.66 12.91v108.04M126.87 12.91v108.04M141.08 12.91v108.04M155.29 12.91v108.04M169.51 12.91v108.04M183.72 12.91v108.04M197.93 12.91v108.04M212.14 12.91v108.04M226.36 12.91v108.04"/></g><g class="plotpanel"><g class="geometry"><use xlink:href="#b" x="46.33" y="60.08" stroke="#B3867B" fill="#F00" class="color_Republican"/><use xlink:href="#b" x="51.07" y="60.81" stroke="#B3867B" fill="#F00" class="color_Republican"/><use xlink:href="#b" x="55.8" y="60.43" stroke="#B3867B" fill="#F00" class="color_Republican"/><use xlink:href="#b" x="60.54" y="62.15" stroke="#B3867B" fill="#F00" class="color_Republican"/><use xlink:href="#b" x="65.28" y="66.33" stroke="#B3867B" fill="#F00" class="color_Republican"/><use xlink:href="#b" x="70.02" y="62.72" stroke="#B3867B" fill="#F00" class="color_Republican"/><use xlink:href="#b" x="74.76" y="66.54" stroke="#B3867B" fill="#F00" class="color_Republican"/><use xlink:href="#b" x="79.49" y="67.15" stroke="#B3867B" fill="#F00" class="color_Republican"/><use xlink:href="#b" x="84.23" y="71.04" stroke="#B3867B" fill="#F00" class="color_Republican"/><use xlink:href="#b" x="88.97" y="56.6" stroke="#B3867B" fill="#F00" class="color_Republican"/><use xlink:href="#b" x="93.71" y="56.47" stroke="#B3867B" fill="#F00" class="color_Republican"/><use xlink:href="#b" x="98.44" y="53.18" stroke="#B3867B" fill="#F00" class="color_Republican"/><use xlink:href="#b" x="103.18" y="62.23" stroke="#B3867B" fill="#F00" class="color_Republican"/><use xlink:href="#b" x="107.92" y="84.98" stroke="#B3867B" fill="#F00" class="color_Republican"/><use xlink:href="#b" x="112.66" y="67.57" stroke="#B3867B" fill="#F00" class="color_Republican"/><use xlink:href="#b" x="117.39" y="44.98" stroke="#B3867B" fill="#F00" class="color_Republican"/><use xlink:href="#b" x="122.13" y="80.39" stroke="#B3867B" fill="#F00" class="color_Republican"/><use xlink:href="#b" x="126.87" y="63.27" stroke="#B3867B" fill="#F00" class="color_Republican"/><use xlink:href="#b" x="131.61" y="86.5" stroke="#B3867B" fill="#F00" class="color_Republican"/><use xlink:href="#b" x="136.34" y="87.47" stroke="#B3867B" fill="#F00" class="color_Republican"/><use xlink:href="#b" x="141.08" y="68.68" stroke="#B3867B" fill="#F00" class="color_Republican"/><use xlink:href="#b" x="145.82" y="66.55" stroke="#B3867B" fill="#F00" class="color_Republican"/><use xlink:href="#b" x="150.56" y="70.8" stroke="#B3867B" fill="#F00" class="color_Republican"/><use xlink:href="#b" x="155.29" y="55.54" stroke="#B3867B" fill="#F00" class="color_Republican"/><use xlink:href="#b" x="160.03" y="54.88" stroke="#B3867B" fill="#F00" class="color_Republican"/><use xlink:href="#b" x="164.77" y="65.09" stroke="#B3867B" fill="#F00" class="color_Republican"/><use xlink:href="#b" x="169.51" y="79.69" stroke="#B3867B" fill="#F00" class="color_Republican"/><use xlink:href="#b" x="174.24" y="69.13" stroke="#B3867B" fill="#F00" class="color_Republican"/><use xlink:href="#b" x="178.98" y="63.39" stroke="#B3867B" fill="#F00" class="color_Republican"/><use xlink:href="#b" x="183.72" y="69.19" stroke="#B3867B" fill="#F00" class="color_Republican"/><use xlink:href="#b" x="188.46" y="69.12" stroke="#B3867B" fill="#F00" class="color_Republican"/><use xlink:href="#b" x="193.19" y="62.57" stroke="#B3867B" fill="#F00" class="color_Republican"/><use xlink:href="#b" x="197.93" y="69.22" stroke="#B3867B" fill="#F00" class="color_Republican"/><use xlink:href="#b" x="202.67" y="80.69" stroke="#B3867B" fill="#F00" class="color_Republican"/><use xlink:href="#b" x="207.41" y="78.92" stroke="#B3867B" fill="#F00" class="color_Republican"/><use xlink:href="#b" x="212.14" y="69.41" stroke="#B3867B" fill="#F00" class="color_Republican"/><use xlink:href="#b" x="216.88" y="67.64" stroke="#B3867B" fill="#F00" class="color_Republican"/><use xlink:href="#b" x="221.62" y="74.93" stroke="#B3867B" fill="#F00" class="color_Republican"/><use xlink:href="#b" x="226.36" y="71.21" stroke="#B3867B" fill="#F00" class="color_Republican"/><use xlink:href="#b" x="32.12" y="79.1" stroke="#988BAD" fill="#00F" class="color_Democratic"/><use xlink:href="#b" x="36.85" y="64.81" stroke="#988BAD" fill="#00F" class="color_Democratic"/><use xlink:href="#b" x="41.59" y="72.95" stroke="#988BAD" fill="#00F" class="color_Democratic"/><use xlink:href="#b" x="46.33" y="74.5" stroke="#988BAD" fill="#00F" class="color_Democratic"/><use xlink:href="#b" x="51.07" y="73.05" stroke="#988BAD" fill="#00F" class="color_Democratic"/><use xlink:href="#b" x="55.8" y="73.43" stroke="#988BAD" fill="#00F" class="color_Democratic"/><use xlink:href="#b" x="60.54" y="72.17" stroke="#988BAD" fill="#00F" class="color_Democratic"/><use xlink:href="#b" x="65.28" y="68.82" stroke="#988BAD" fill="#00F" class="color_Democratic"/><use xlink:href="#b" x="70.02" y="74.31" stroke="#988BAD" fill="#00F" class="color_Democratic"/><use xlink:href="#b" x="74.76" y="71.31" stroke="#988BAD" fill="#00F" class="color_Democratic"/><use xlink:href="#b" x="79.49" y="73.41" stroke="#988BAD" fill="#00F" class="color_Democratic"/><use xlink:href="#b" x="84.23" y="69.3" stroke="#988BAD" fill="#00F" class="color_Democratic"/><use xlink:href="#b" x="88.97" y="80.46" stroke="#988BAD" fill="#00F" class="color_Democratic"/><use xlink:href="#b" x="93.71" y="81.53" stroke="#988BAD" fill="#00F" class="color_Democratic"/><use xlink:href="#b" x="98.44" y="89.81" stroke="#988BAD" fill="#00F" class="color_Democratic"/><use xlink:href="#b" x="103.18" y="80.8" stroke="#988BAD" fill="#00F" class="color_Democratic"/><use xlink:href="#b" x="107.92" y="76.23" stroke="#988BAD" fill="#00F" class="color_Democratic"/><use xlink:href="#b" x="112.66" y="74.43" stroke="#988BAD" fill="#00F" class="color_Democratic"/><use xlink:href="#b" x="117.39" y="102.13" stroke="#988BAD" fill="#00F" class="color_Democratic"/><use xlink:href="#b" x="122.13" y="110.53" stroke="#988BAD" fill="#00F" class="color_Democratic"/><use xlink:href="#b" x="126.87" y="72.88" stroke="#988BAD" fill="#00F" class="color_Democratic"/><use xlink:href="#b" x="131.61" y="52.93" stroke="#988BAD" fill="#00F" class="color_Democratic"/><use xlink:href="#b" x="136.34" y="52.57" stroke="#988BAD" fill="#00F" class="color_Democratic"/><use xlink:href="#b" x="141.08" y="66.78" stroke="#988BAD" fill="#00F" class="color_Democratic"/><use xlink:href="#b" x="145.82" y="68.42" stroke="#988BAD" fill="#00F" class="color_Democratic"/><use xlink:href="#b" x="150.56" y="66.21" stroke="#988BAD" fill="#00F" class="color_Democratic"/><use xlink:href="#b" x="155.29" y="78.68" stroke="#988BAD" fill="#00F" class="color_Democratic"/><use xlink:href="#b" x="160.03" y="79.58" stroke="#988BAD" fill="#00F" class="color_Democratic"/><use xlink:href="#b" x="164.77" y="68.96" stroke="#988BAD" fill="#00F" class="color_Democratic"/><use xlink:href="#b" x="169.51" y="54.35" stroke="#988BAD" fill="#00F" class="color_Democratic"/><use xlink:href="#b" x="174.24" y="72.9" stroke="#988BAD" fill="#00F" class="color_Democratic"/><use xlink:href="#b" x="178.98" y="73.46" stroke="#988BAD" fill="#00F" class="color_Democratic"/><use xlink:href="#b" x="183.72" y="67.45" stroke="#988BAD" fill="#00F" class="color_Democratic"/><use xlink:href="#b" x="188.46" y="74.03" stroke="#988BAD" fill="#00F" class="color_Democratic"/><use xlink:href="#b" x="193.19" y="72.11" stroke="#988BAD" fill="#00F" class="color_Democratic"/><use xlink:href="#b" x="197.93" y="65.46" stroke="#988BAD" fill="#00F" class="color_Democratic"/><use xlink:href="#b" x="202.67" y="76.16" stroke="#988BAD" fill="#00F" class="color_Democratic"/><use xlink:href="#b" x="207.41" y="68.17" stroke="#988BAD" fill="#00F" class="color_Democratic"/><use xlink:href="#b" x="212.14" y="69.19" stroke="#988BAD" fill="#00F" class="color_Democratic"/><use xlink:href="#b" x="216.88" y="67.24" stroke="#988BAD" fill="#00F" class="color_Democratic"/><use xlink:href="#b" x="221.62" y="60.46" stroke="#988BAD" fill="#00F" class="color_Democratic"/><use xlink:href="#b" x="226.36" y="63.99" stroke="#988BAD" fill="#00F" class="color_Democratic"/></g><g fill-opacity="0"><path fill="none" d="M32.12 79.1l4.73-14.29 4.74 8.14 4.74 1.55 4.74-1.45 4.73.38 4.74-1.26 4.74-3.35 4.74 5.49 4.74-3 4.73 2.1 4.74-4.11 4.74 11.16 4.74 1.07 4.73 8.28 4.74-9.01 4.74-4.57 4.74-1.8 4.73 27.7 4.74 8.4 4.74-37.65 4.74-19.95 4.73-.36 4.74 14.21 4.74 1.64 4.74-2.21 4.73 12.47 4.74.9 4.74-10.62 4.74-14.61 4.73 18.55 4.74.56 4.74-6.01 4.74 6.58 4.73-1.92 4.74-6.65 4.74 10.7 4.74-7.99 4.73 1.02 4.74-1.95 4.74-6.78 4.74 3.53" stroke="#00F" class="geometry color_Democratic"/><path fill="none" d="M46.33 60.08l4.74.73 4.73-.38 4.74 1.72 4.74 4.18 4.74-3.61 4.74 3.82 4.73.61 4.74 3.89 4.74-14.44 4.74-.13 4.73-3.29 4.74 9.05 4.74 22.75 4.74-17.41 4.73-22.59 4.74 35.41 4.74-17.12 4.74 23.23 4.73.97 4.74-18.79 4.74-2.13 4.74 4.25 4.73-15.26 4.74-.66 4.74 10.21 4.74 14.6 4.73-10.56 4.74-5.74 4.74 5.8 4.74-.07 4.73-6.55 4.74 6.65 4.74 11.47 4.74-1.77 4.73-9.51 4.74-1.77 4.74 7.29 4.74-3.72" stroke="#F00" class="geometry color_Republican"/></g></g></g><g class="guide ylabels" font-size="4.76" font-family="'PT Sans Caption','Helvetica Neue','Helvetica',sans-serif" fill="#A1A1A1" text-anchor="end"><text x="24.38" y="118.95" dy=".35em">0</text><text x="24.38" y="92.94" dy=".35em">25</text><text x="24.38" y="66.93" dy=".35em">50</text><text x="24.38" y="40.92" dy=".35em">75</text><text x="24.38" y="14.91" dy=".35em">100</text></g><text x="9.95" y="64.93" text-anchor="middle" dy=".35em" transform="rotate(-90 9.95 66.93)" font-size="6.35" font-family="'PT Sans','Helvetica Neue','Helvetica',sans-serif" fill="#A1A1A1" stroke="#000" stroke-opacity="0">Popular Vote (%)</text><text x="129.24" y="5" text-anchor="middle" dy=".6em" font-size="6.35" font-family="'PT Sans','Helvetica Neue','Helvetica',sans-serif" fill="#A1A1A1" stroke="#000" stroke-opacity="0">Wisconsin</text></g><defs><clipPath id="a"><path d="M25.38 12.91H233.1v108.04H25.38"/></clipPath><circle r=".9" id="b"/></defs></svg>