<?xml version="1.0" encoding="UTF-8"?>
<svg xmlns="http://www.w3.org/2000/svg"
     xmlns:xlink="http://www.w3.org/1999/xlink"
     xmlns:gadfly="http://www.gadflyjl.org/ns"
     version="1.2"
     width="320mm" height="160mm" viewBox="0 0 320 160"
     stroke="none"
     fill="#000000"
     stroke-width="0.3"
     font-size="3.88"
>
<g class="plotroot xscalable yscalable" id="img-85a7ce51-1">
  <g class="guide colorkey" id="img-85a7ce51-2">
    <g class="color_Democratic" id="img-85a7ce51-3">
      <g fill="#FFFFFF" font-size="4.76" font-family="'PT Sans','Helvetica Neue','Helvetica',sans-serif" id="img-85a7ce51-4">
        <text x="58.33" y="149.82" dy="0.35em">Democratic</text>
      </g>
      <g fill="#0000FF" stroke="#000000" stroke-opacity="0.000" id="img-85a7ce51-5">
        <rect x="54.36" y="148.34" width="2.97" height="2.97"/>
      </g>
    </g>
    <g class="color_Republican" id="img-85a7ce51-6">
      <g fill="#FFFFFF" font-size="4.76" font-family="'PT Sans','Helvetica Neue','Helvetica',sans-serif" id="img-85a7ce51-7">
        <text x="29.73" y="149.82" dy="0.35em">Republican</text>
      </g>
      <g fill="#FF0000" stroke="#000000" stroke-opacity="0.000" id="img-85a7ce51-8">
        <rect x="25.76" y="148.34" width="2.97" height="2.97"/>
      </g>
    </g>
    <g fill="#FFFFFF" font-size="6.35" font-family="'PT Sans','Helvetica Neue','Helvetica',sans-serif" stroke="#000000" stroke-opacity="0.000" id="img-85a7ce51-9">
      <text x="25.76" y="145.06">Party</text>
    </g>
  </g>
  <g font-size="6.35" font-family="'PT Sans','Helvetica Neue','Helvetica',sans-serif" fill="#FFFFFF" stroke="#000000" stroke-opacity="0.000" id="img-85a7ce51-10">
    <text x="169.88" y="130.77" text-anchor="middle" dy="0.6em">Year</text>
  </g>
  <g class="guide xlabels" font-size="4.76" font-family="'PT Sans Caption','Helvetica Neue','Helvetica',sans-serif" fill="#FFFFFF" id="img-85a7ce51-11">
    <text x="26.76" y="122.89" text-anchor="middle" dy="0.6em">1888</text>
    <text x="44.65" y="122.89" text-anchor="middle" dy="0.6em">1896</text>
    <text x="62.54" y="122.89" text-anchor="middle" dy="0.6em">1904</text>
    <text x="80.43" y="122.89" text-anchor="middle" dy="0.6em">1912</text>
    <text x="98.32" y="122.89" text-anchor="middle" dy="0.6em">1920</text>
    <text x="116.21" y="122.89" text-anchor="middle" dy="0.6em">1928</text>
    <text x="134.1" y="122.89" text-anchor="middle" dy="0.6em">1936</text>
    <text x="151.99" y="122.89" text-anchor="middle" dy="0.6em">1944</text>
    <text x="169.88" y="122.89" text-anchor="middle" dy="0.6em">1952</text>
    <text x="187.77" y="122.89" text-anchor="middle" dy="0.6em">1960</text>
    <text x="205.66" y="122.89" text-anchor="middle" dy="0.6em">1968</text>
    <text x="223.55" y="122.89" text-anchor="middle" dy="0.6em">1976</text>
    <text x="241.44" y="122.89" text-anchor="middle" dy="0.6em">1984</text>
    <text x="259.33" y="122.89" text-anchor="middle" dy="0.6em">1992</text>
    <text x="277.22" y="122.89" text-anchor="middle" dy="0.6em">2000</text>
    <text x="295.11" y="122.89" text-anchor="middle" dy="0.6em">2008</text>
    <text x="313" y="122.89" text-anchor="middle" dy="0.6em">2016</text>
  </g>
<g clip-path="url(#img-85a7ce51-12)">
  <g id="img-85a7ce51-13">
    <g pointer-events="visible" opacity="1" fill="#000000" fill-opacity="0.000" stroke="#000000" stroke-opacity="0.000" class="guide background" id="img-85a7ce51-14">
      <rect x="24.76" y="15.35" width="290.24" height="106.54"/>
    </g>
    <g class="guide ygridlines xfixed" stroke-dasharray="0.5,0.5" stroke-width="0.26" stroke="#FFFFFF" id="img-85a7ce51-15">
      <path fill="none" d="M24.76,119.89 L 315 119.89"/>
      <path fill="none" d="M24.76,94.26 L 315 94.26"/>
      <path fill="none" d="M24.76,68.62 L 315 68.62"/>
      <path fill="none" d="M24.76,42.99 L 315 42.99"/>
      <path fill="none" d="M24.76,17.35 L 315 17.35"/>
    </g>
    <g class="guide xgridlines yfixed" stroke-dasharray="0.5,0.5" stroke-width="0.26" stroke="#FFFFFF" id="img-85a7ce51-16">
      <path fill="none" d="M26.76,15.35 L 26.76 121.89"/>
      <path fill="none" d="M44.65,15.35 L 44.65 121.89"/>
      <path fill="none" d="M62.54,15.35 L 62.54 121.89"/>
      <path fill="none" d="M80.43,15.35 L 80.43 121.89"/>
      <path fill="none" d="M98.32,15.35 L 98.32 121.89"/>
      <path fill="none" d="M116.21,15.35 L 116.21 121.89"/>
      <path fill="none" d="M134.1,15.35 L 134.1 121.89"/>
      <path fill="none" d="M151.99,15.35 L 151.99 121.89"/>
      <path fill="none" d="M169.88,15.35 L 169.88 121.89"/>
      <path fill="none" d="M187.77,15.35 L 187.77 121.89"/>
      <path fill="none" d="M205.66,15.35 L 205.66 121.89"/>
      <path fill="none" d="M223.55,15.35 L 223.55 121.89"/>
      <path fill="none" d="M241.44,15.35 L 241.44 121.89"/>
      <path fill="none" d="M259.33,15.35 L 259.33 121.89"/>
      <path fill="none" d="M277.22,15.35 L 277.22 121.89"/>
      <path fill="none" d="M295.11,15.35 L 295.11 121.89"/>
      <path fill="none" d="M313,15.35 L 313 121.89"/>
    </g>
    <g class="plotpanel" id="img-85a7ce51-17">
      <g class="geometry" id="img-85a7ce51-18">
        <g stroke-width="0.3" id="img-85a7ce51-19">
          <use xlink:href="#img-85a7ce51-20" x="35.7" y="77.39" stroke="#FFFFFF" fill="#FF0000" class="color_Republican"/>
          <use xlink:href="#img-85a7ce51-20" x="44.65" y="76.99" stroke="#FFFFFF" fill="#FF0000" class="color_Republican"/>
          <use xlink:href="#img-85a7ce51-20" x="53.59" y="65.1" stroke="#FFFFFF" fill="#FF0000" class="color_Republican"/>
          <use xlink:href="#img-85a7ce51-20" x="62.54" y="48.16" stroke="#FFFFFF" fill="#FF0000" class="color_Republican"/>
          <use xlink:href="#img-85a7ce51-20" x="71.48" y="60.75" stroke="#FFFFFF" fill="#FF0000" class="color_Republican"/>
          <use xlink:href="#img-85a7ce51-20" x="80.43" y="97.51" stroke="#FFFFFF" fill="#FF0000" class="color_Republican"/>
          <use xlink:href="#img-85a7ce51-20" x="89.37" y="74.89" stroke="#FFFFFF" fill="#FF0000" class="color_Republican"/>
          <use xlink:href="#img-85a7ce51-20" x="98.32" y="62.51" stroke="#FFFFFF" fill="#FF0000" class="color_Republican"/>
          <use xlink:href="#img-85a7ce51-20" x="107.26" y="66.32" stroke="#FFFFFF" fill="#FF0000" class="color_Republican"/>
          <use xlink:href="#img-85a7ce51-20" x="116.21" y="51.13" stroke="#FFFFFF" fill="#FF0000" class="color_Republican"/>
          <use xlink:href="#img-85a7ce51-20" x="125.15" y="85.09" stroke="#FFFFFF" fill="#FF0000" class="color_Republican"/>
          <use xlink:href="#img-85a7ce51-20" x="134.1" y="89.25" stroke="#FFFFFF" fill="#FF0000" class="color_Republican"/>
          <use xlink:href="#img-85a7ce51-20" x="143.04" y="78.28" stroke="#FFFFFF" fill="#FF0000" class="color_Republican"/>
          <use xlink:href="#img-85a7ce51-20" x="151.99" y="76.58" stroke="#FFFFFF" fill="#FF0000" class="color_Republican"/>
          <use xlink:href="#img-85a7ce51-20" x="160.93" y="76.12" stroke="#FFFFFF" fill="#FF0000" class="color_Republican"/>
          <use xlink:href="#img-85a7ce51-20" x="169.88" y="64.18" stroke="#FFFFFF" fill="#FF0000" class="color_Republican"/>
          <use xlink:href="#img-85a7ce51-20" x="178.82" y="64.61" stroke="#FFFFFF" fill="#FF0000" class="color_Republican"/>
          <use xlink:href="#img-85a7ce51-20" x="187.77" y="67.92" stroke="#FFFFFF" fill="#FF0000" class="color_Republican"/>
          <use xlink:href="#img-85a7ce51-20" x="196.71" y="81.57" stroke="#FFFFFF" fill="#FF0000" class="color_Republican"/>
          <use xlink:href="#img-85a7ce51-20" x="205.66" y="73.62" stroke="#FFFFFF" fill="#FF0000" class="color_Republican"/>
          <use xlink:href="#img-85a7ce51-20" x="214.6" y="61.53" stroke="#FFFFFF" fill="#FF0000" class="color_Republican"/>
          <use xlink:href="#img-85a7ce51-20" x="223.55" y="68.62" stroke="#FFFFFF" fill="#FF0000" class="color_Republican"/>
          <use xlink:href="#img-85a7ce51-20" x="232.49" y="68.97" stroke="#FFFFFF" fill="#FF0000" class="color_Republican"/>
          <use xlink:href="#img-85a7ce51-20" x="241.44" y="62.65" stroke="#FFFFFF" fill="#FF0000" class="color_Republican"/>
          <use xlink:href="#img-85a7ce51-20" x="250.38" y="70.2" stroke="#FFFFFF" fill="#FF0000" class="color_Republican"/>
          <use xlink:href="#img-85a7ce51-20" x="259.33" y="87.12" stroke="#FFFFFF" fill="#FF0000" class="color_Republican"/>
          <use xlink:href="#img-85a7ce51-20" x="268.27" y="81.64" stroke="#FFFFFF" fill="#FF0000" class="color_Republican"/>
          <use xlink:href="#img-85a7ce51-20" x="277.22" y="74.2" stroke="#FFFFFF" fill="#FF0000" class="color_Republican"/>
          <use xlink:href="#img-85a7ce51-20" x="286.16" y="73.13" stroke="#FFFFFF" fill="#FF0000" class="color_Republican"/>
          <use xlink:href="#img-85a7ce51-20" x="295.11" y="78.61" stroke="#FFFFFF" fill="#FF0000" class="color_Republican"/>
          <use xlink:href="#img-85a7ce51-20" x="304.05" y="77.82" stroke="#FFFFFF" fill="#FF0000" class="color_Republican"/>
          <use xlink:href="#img-85a7ce51-20" x="35.7" y="85.15" stroke="#FFFFFF" fill="#0000FF" class="color_Democratic"/>
          <use xlink:href="#img-85a7ce51-20" x="44.65" y="61.47" stroke="#FFFFFF" fill="#0000FF" class="color_Democratic"/>
          <use xlink:href="#img-85a7ce51-20" x="53.59" y="77.14" stroke="#FFFFFF" fill="#0000FF" class="color_Democratic"/>
          <use xlink:href="#img-85a7ce51-20" x="62.54" y="100.04" stroke="#FFFFFF" fill="#0000FF" class="color_Democratic"/>
          <use xlink:href="#img-85a7ce51-20" x="71.48" y="87.16" stroke="#FFFFFF" fill="#0000FF" class="color_Democratic"/>
          <use xlink:href="#img-85a7ce51-20" x="80.43" y="92.31" stroke="#FFFFFF" fill="#0000FF" class="color_Democratic"/>
          <use xlink:href="#img-85a7ce51-20" x="89.37" y="70.53" stroke="#FFFFFF" fill="#0000FF" class="color_Democratic"/>
          <use xlink:href="#img-85a7ce51-20" x="98.32" y="98.21" stroke="#FFFFFF" fill="#0000FF" class="color_Democratic"/>
          <use xlink:href="#img-85a7ce51-20" x="107.26" y="109.47" stroke="#FFFFFF" fill="#0000FF" class="color_Democratic"/>
          <use xlink:href="#img-85a7ce51-20" x="116.21" y="87.79" stroke="#FFFFFF" fill="#0000FF" class="color_Democratic"/>
          <use xlink:href="#img-85a7ce51-20" x="125.15" y="60.97" stroke="#FFFFFF" fill="#0000FF" class="color_Democratic"/>
          <use xlink:href="#img-85a7ce51-20" x="134.1" y="51.82" stroke="#FFFFFF" fill="#0000FF" class="color_Democratic"/>
          <use xlink:href="#img-85a7ce51-20" x="143.04" y="60.2" stroke="#FFFFFF" fill="#0000FF" class="color_Democratic"/>
          <use xlink:href="#img-85a7ce51-20" x="151.99" y="61.6" stroke="#FFFFFF" fill="#0000FF" class="color_Democratic"/>
          <use xlink:href="#img-85a7ce51-20" x="160.93" y="65.94" stroke="#FFFFFF" fill="#0000FF" class="color_Democratic"/>
          <use xlink:href="#img-85a7ce51-20" x="169.88" y="74.06" stroke="#FFFFFF" fill="#0000FF" class="color_Democratic"/>
          <use xlink:href="#img-85a7ce51-20" x="178.82" y="73.29" stroke="#FFFFFF" fill="#0000FF" class="color_Democratic"/>
          <use xlink:href="#img-85a7ce51-20" x="187.77" y="70.4" stroke="#FFFFFF" fill="#0000FF" class="color_Democratic"/>
          <use xlink:href="#img-85a7ce51-20" x="196.71" y="56.35" stroke="#FFFFFF" fill="#0000FF" class="color_Democratic"/>
          <use xlink:href="#img-85a7ce51-20" x="205.66" y="71.46" stroke="#FFFFFF" fill="#0000FF" class="color_Democratic"/>
          <use xlink:href="#img-85a7ce51-20" x="214.6" y="80.27" stroke="#FFFFFF" fill="#0000FF" class="color_Democratic"/>
          <use xlink:href="#img-85a7ce51-20" x="223.55" y="72.61" stroke="#FFFFFF" fill="#0000FF" class="color_Democratic"/>
          <use xlink:href="#img-85a7ce51-20" x="232.49" y="81.63" stroke="#FFFFFF" fill="#0000FF" class="color_Democratic"/>
          <use xlink:href="#img-85a7ce51-20" x="241.44" y="75.95" stroke="#FFFFFF" fill="#0000FF" class="color_Democratic"/>
          <use xlink:href="#img-85a7ce51-20" x="250.38" y="68.57" stroke="#FFFFFF" fill="#0000FF" class="color_Democratic"/>
          <use xlink:href="#img-85a7ce51-20" x="259.33" y="75.39" stroke="#FFFFFF" fill="#0000FF" class="color_Democratic"/>
          <use xlink:href="#img-85a7ce51-20" x="268.27" y="68.78" stroke="#FFFFFF" fill="#0000FF" class="color_Democratic"/>
          <use xlink:href="#img-85a7ce51-20" x="277.22" y="68.49" stroke="#FFFFFF" fill="#0000FF" class="color_Democratic"/>
          <use xlink:href="#img-85a7ce51-20" x="286.16" y="65.78" stroke="#FFFFFF" fill="#0000FF" class="color_Democratic"/>
          <use xlink:href="#img-85a7ce51-20" x="295.11" y="61.09" stroke="#FFFFFF" fill="#0000FF" class="color_Democratic"/>
          <use xlink:href="#img-85a7ce51-20" x="304.05" y="62.67" stroke="#FFFFFF" fill="#0000FF" class="color_Democratic"/>
        </g>
      </g>
      <g stroke-width="0.53" fill="#000000" fill-opacity="0.000" stroke-dasharray="none" id="img-85a7ce51-21">
        <path fill="none" d="M35.7,85.15 L 44.65 61.47 53.59 77.14 62.54 100.04 71.48 87.16 80.43 92.31 89.37 70.53 98.32 98.21 107.26 109.47 116.21 87.79 125.15 60.97 134.1 51.82 143.04 60.2 151.99 61.6 160.93 65.94 169.88 74.06 178.82 73.29 187.77 70.4 196.71 56.35 205.66 71.46 214.6 80.27 223.55 72.61 232.49 81.63 241.44 75.95 250.38 68.57 259.33 75.39 268.27 68.78 277.22 68.49 286.16 65.78 295.11 61.09 304.05 62.67" stroke="#0000FF" class="geometry color_Democratic"/>
        <path fill="none" d="M35.7,77.39 L 44.65 76.99 53.59 65.1 62.54 48.16 71.48 60.75 80.43 97.51 89.37 74.89 98.32 62.51 107.26 66.32 116.21 51.13 125.15 85.09 134.1 89.25 143.04 78.28 151.99 76.58 160.93 76.12 169.88 64.18 178.82 64.61 187.77 67.92 196.71 81.57 205.66 73.62 214.6 61.53 223.55 68.62 232.49 68.97 241.44 62.65 250.38 70.2 259.33 87.12 268.27 81.64 277.22 74.2 286.16 73.13 295.11 78.61 304.05 77.82" stroke="#FF0000" class="geometry color_Republican"/>
      </g>
    </g>
  </g>
</g>
  <g class="guide ylabels" font-size="4.76" font-family="'PT Sans Caption','Helvetica Neue','Helvetica',sans-serif" fill="#FFFFFF" id="img-85a7ce51-22">
    <text x="23.76" y="119.89" text-anchor="end" dy="0.35em">0</text>
    <text x="23.76" y="94.26" text-anchor="end" dy="0.35em">25</text>
    <text x="23.76" y="68.62" text-anchor="end" dy="0.35em">50</text>
    <text x="23.76" y="42.99" text-anchor="end" dy="0.35em">75</text>
    <text x="23.76" y="17.35" text-anchor="end" dy="0.35em">100</text>
  </g>
  <g font-size="6.35" font-family="'PT Sans','Helvetica Neue','Helvetica',sans-serif" fill="#FFFFFF" stroke="#000000" stroke-opacity="0.000" id="img-85a7ce51-23">
    <text x="10.18" y="66.62" text-anchor="middle" dy="0.35em" transform="rotate(-90, 10.18, 68.62)">Popular Vote (%)</text>
  </g>
  <g font-size="6.35" font-family="'PT Sans','Helvetica Neue','Helvetica',sans-serif" fill="#FFFFFF" stroke="#000000" stroke-opacity="0.000" id="img-85a7ce51-24">
    <text x="169.88" y="13.35" text-anchor="middle">Washington</text>
  </g>
</g>
<defs>
  <clipPath id="img-85a7ce51-12">
  <path d="M24.76,15.35 L 315 15.35 315 121.89 24.76 121.89" />
</clipPath>
  <g id="img-85a7ce51-20">
    <circle cx="0" cy="0" r="0.9"/>
  </g>
</defs>
</svg>
