<svg xmlns="http://www.w3.org/2000/svg" xmlns:xlink="http://www.w3.org/1999/xlink" width="118" height="118" version="1"><defs><linearGradient xlink:href="#a" id="d" gradientUnits="userSpaceOnUse" gradientTransform="matrix(-.39377 0 0 .39375 978.35 416.981)" x1="541.335" y1="104.507" x2="606.912" y2="303.14"/><linearGradient gradientUnits="userSpaceOnUse" id="a" y2="129.347" x2="112.499" y1="6.137" x1="112.499" gradientTransform="translate(287 -83)"><stop offset="0" stop-color="#fff" stop-opacity="0"/><stop offset="1" stop-color="#fff" stop-opacity=".275"/><midPointStop offset=".5" stop-color="#fff"/></linearGradient><linearGradient id="b"><stop offset="0" stop-color="#00bdec"/><stop offset="1" stop-color="#40bfde"/></linearGradient><linearGradient id="c"><stop offset="0" stop-color="#6e6e6e"/><stop offset="1" stop-color="#4d4d4d"/></linearGradient></defs><g fill-rule="evenodd"><path d="M59 0c-5.252 12.877-8.441 21.312-14.29 33.807 3.586 3.8 7.993 8.21 15.14 13.209-7.684-3.162-12.922-6.328-16.839-9.622C35.527 53.01 23.794 75.246 0 118c18.697-10.794 33.191-17.452 46.699-19.993a34.374 34.374 0 0 1-.865-8.009l.015-.59c.297-11.982 6.531-21.195 13.915-20.57 7.383.626 13.13 10.85 12.834 22.831a33.807 33.807 0 0 1-.764 6.439C85.197 100.723 99.554 107.35 118 118a6826.632 6826.632 0 0 1-9.996-18.48c-4.885-3.786-9.977-8.711-20.368-14.045 7.142 1.856 12.262 4.002 16.248 6.396C72.358 33.175 69.81 25.37 59 0z" fill="#1793d1"/><path d="M-29.987-41.96C-43.86-60.789-47.074-75.964-47.888-79.587c7.4 17.067 7.349 17.277 17.9 37.625z" fill="#fff" fill-opacity=".166"/><path d="M765.121 436.365c-1.068 2.626-2.075 5.186-3.061 7.608a2404.16 2404.16 0 0 1-3.155 7.7c-1.021 2.486-2.057 4.842-3.061 7.236-1.004 2.395-1.941 4.762-2.969 7.144-1.027 2.382-2.154 4.788-3.247 7.236a619.291 619.291 0 0 1-3.433 7.515c-1.199 2.593-2.456 5.348-3.803 8.164-.183.382-.371.82-.557 1.206 5.758 6.099 12.856 13.144 24.307 21.152-12.372-5.09-20.783-10.189-27.09-15.493-.329.671-.59 1.261-.928 1.948-1.247 2.585-2.584 5.145-3.99 7.979-.334.666-.582 1.267-.927 1.948-1.485 2.98-3.046 6.065-4.731 9.37-.335.65-.678 1.191-1.02 1.856-1.021 1.98-4.276 8.223-7.608 14.565-1.943 3.705-3.47 6.74-5.66 10.855-.62 1.182-1.898 3.548-2.226 4.174 24.12-13.577 50.143-33.299 97.412-16.42-2.367-4.484-4.636-8.665-6.68-12.618-2.043-3.953-3.896-7.632-5.659-11.132a866.36 866.36 0 0 1-4.917-9.927 671.282 671.282 0 0 1-4.267-8.906c-1.33-2.83-2.628-5.553-3.804-8.165a515.071 515.071 0 0 1-3.34-7.607c-1.066-2.471-2.063-4.92-3.061-7.329-.999-2.409-1.996-4.719-2.97-7.144-.423-1.055-.78-2.178-1.205-3.247-2.636-6.19-5.224-12.325-8.35-19.668z" fill="url(#d)" transform="translate(-305.6 -226.736) scale(.33684)"/></g></svg>