<svg xmlns="http://www.w3.org/2000/svg" width="100" height="75.347" version="1"><path fill="#9d0a0e" fill-rule="evenodd" d="M.2.2h99.6v74.946H.2z"/><g fill="#fff"><path d="M52.501 26.491c-.001.355-.11.713-.427.991-.317.279-.866.49-1.774.49h-1.828v-2.93h1.747c.814 0 1.392.165 1.755.423.361.26.525.6.527 1.026M51.02 22.981c.341-.245.505-.592.507-1.112-.001-.357-.103-.663-.36-.891-.258-.229-.695-.391-1.402-.391h-1.293v2.778h.887c.769 0 1.32-.137 1.662-.384"/><path d="M54.473 26.707c.005-1.355-.897-2.385-2.342-2.781.39-.2.699-.443.925-.74.301-.398.446-.886.444-1.455a2.593 2.593 0 0 0-.863-1.944c-.591-.533-1.487-.878-2.71-.877h-3.378V29.65h3.964c1.415 0 2.408-.383 3.047-.952.64-.565.914-1.308.913-1.992m3.766 5.026H42.39V16.819H58.24v14.914zM32.76 22.981c.339-.245.504-.592.506-1.112 0-.357-.103-.663-.36-.891-.258-.229-.696-.391-1.403-.391h-1.292v2.778h.888c.767 0 1.318-.137 1.66-.384M33.713 25.465c-.362-.258-.941-.424-1.755-.424H30.21v2.932h1.828c.909 0 1.456-.212 1.773-.49.318-.279.427-.637.428-.992a1.198 1.198 0 0 0-.527-1.026"/><path d="M36.213 26.707c.004-1.355-.9-2.385-2.342-2.781.39-.2.697-.443.923-.74.302-.398.446-.886.445-1.455 0-.698-.274-1.41-.864-1.944-.59-.533-1.486-.878-2.71-.877h-3.378V29.65H32.252c1.415 0 2.407-.383 3.046-.952.64-.565.916-1.308.915-1.992m3.765 5.026H24.13V16.819h15.848v14.914zM73.353 26.776l-.254.155c-1.227.75-2.562 1.151-3.775 1.15-2.595-.01-4.304-1.547-4.31-3.785.002-2.19 1.787-3.81 4.244-3.816 1.252 0 2.386.324 3.734 1.063l.247.136V19.68l-.106-.042c-1.52-.6-2.696-.866-3.858-.866-1.797 0-3.356.593-4.466 1.6-1.11 1.007-1.77 2.428-1.77 4.061.002 1.138.47 2.47 1.476 3.529 1.001 1.058 2.545 1.83 4.663 1.829h.007c1.756 0 2.974-.391 4.074-.934l.094-.046v-2.035zm3.147 4.957H60.652V16.819H76.5v14.914z"/></g><g fill="#fff"><path d="M28.232 40.022h2.396v17.611h-2.17L16.685 44.069v13.564h-2.37v-17.61h2.042L28.232 53.7V40.022zM35.171 40.022h9.985v2.243h-7.463v5.37h7.21v2.257h-7.21v5.472h7.702v2.244H35.17V40.022zM72.065 40.022h2.514L67.458 57.71h-.554l-5.758-14.321-5.818 14.321h-.541l-7.098-17.687h2.54l4.853 12.14 4.886-12.14h2.384l4.908 12.14 4.805-12.14zM81.41 50.254l-1.915-1.164c-1.202-.734-2.058-1.456-2.566-2.166s-.763-1.528-.763-2.452c0-1.387.481-2.513 1.444-3.378.962-.866 2.212-1.3 3.75-1.3 1.47 0 2.82.414 4.048 1.24v2.861c-1.27-1.22-2.636-1.831-4.098-1.831-.824 0-1.5.19-2.03.572-.53.38-.795.868-.795 1.463 0 .526.196 1.021.586 1.48.39.462 1.017.945 1.881 1.45l1.927 1.14c2.148 1.284 3.221 2.918 3.221 4.9 0 1.413-.472 2.56-1.417 3.442-.946.883-2.176 1.323-3.688 1.323-1.74 0-3.324-.533-4.753-1.603v-3.203c1.361 1.726 2.937 2.588 4.728 2.588.79 0 1.447-.22 1.973-.66.525-.44.788-.99.788-1.651 0-1.072-.774-2.088-2.32-3.05"/></g></svg>