<svg xmlns="http://www.w3.org/2000/svg" width="239.935" height="240.425" viewBox="0 0 239.93462 240.42529"><path d="M99.695 30.465c-5.194-5.573.175-14.762 2.376-20.359.593-1.2.9-.94.44-2.365-.447-1.383-.086-1.877-1.308-2.628C100.221 4.51 97.91.99 99.73.058c.72-.367 3.87 1.11 4.571 1.366 2.011.735 4.127 1.743 5.461 3.485 1.704 2.224.184 4.41.606 6.85.403 2.327.964 4.625 1.182 6.981.42 4.57-.898 7.833-4.604 10.538 2.96.033 5.325.78 8.091 1.68-1.184 2.455-3.582 3.125-3.28 6.143.227 2.291 2.354 8.681-2.012 8.681-2.188 0-1.868-5.372-2.022-6.823-1.424.445-2.39-.84-3.703-1.027-2.072-.31-4.934.787-6.292-1.433-1.439-2.359.02-4.514 1.967-6.034zm-20.248 67.42c-.738-1.024.492-2.363 1.06-2.984.723-.792-.184-1.218 1.103-1.218 1.143 0 1.912-.55 2.983-.908-.955-.4-.99-1.273-1.218-2.138-.367-1.4-.345-.86.448-1.643 3.553-1.716 6.986-2.08 10.824-2.523 3.454-.4 6.991-1.113 10.438-1.354-2.749-.649-5.558-1.068-8.388-.998-3.359.083-5.414 1.572-8.47 2.522-1.592.494-3.99-.57-2.352-2.459.738-.85 1.76-1.8 2.738-2.4.96-.588 2.49-.664 2.842-1.507 6.824.132 12.636.431 19.257 2.214.831.223 2.596.615 4.396 1.193-.005-.018-.013-.027-.016-.044-.164-.766-.242-1.556-.469-2.308-.673-.164-1.226-.625-1.604-1.19-1.292-1.938-1.364-4.728-1.437-6.968-.152-4.623.243-9.118 1.346-13.592-5.02.563-10.262.534-15.192 1.687-2.626.615-5.343 2.053-8.026 1.935-.083-5.655 5.457-5.22 9.705-5.878 1.621-.76 3.498-.94 5.263-1.026 2.042-.097 3.926-.727 5.994-.76 2.038-.033 3.617.003 5.587-.462-5.917-2.713-13.472-2.318-19.454-.23-2.79.976-6.36 2.536-9.382 1.876-3.005-.656-2.36-3.84-.239-5.194-.533-.389-.712-1.413-.967-2.165-.35-1.035 2.28-1.592 3.141-1.97 4.163-1.83 9.308-2.22 13.792-2.162 4.247.055 9.364 1.14 13.447 2.336 1.202.353 6.482 2.883 4.206 4.65 1.311.938 1.246 3.435 1.488 4.885.294 1.773-2.25 1.684-2.708 2.906-1.083 2.896-.65 6.826-.788 9.83-.12 2.624-.197 5.173-.112 7.797.06 1.885.656 5.777-1.165 6.978 1.611.757 2.865 1.715 2.865 2.931.151.221-.164.785 0 .993a37.84 37.84 0 0 1 3.271 1.068c1.084.412 2.437.798 3.312 1.597 1.53 1.398 3.167 2.428 5.015 3.38 7.6 3.913 15.02 8.115 21.662 13.531 6.775 5.524 12.997 11.807 18.96 18.188 5.28 5.646 10.264 11.681 13.857 18.56 3.277 6.275 6.124 14.21 6.031 21.355-5.683 0-5.227-7.59-6.53-11.672-2.72-8.506-7.436-15.693-13.405-22.268 4.178 6.794 6.813 14.12 6.904 22.151.02 1.76-.244 5.837-2.98 5.497-.959-.119-1.918-.242-2.876-.36-.145-.018-.244-3.746-.329-4.152-.744-3.6-2.716-6.807-4.48-9.979-2.272-4.11-4.59-8.19-7.113-12.153-5.073-7.965-11.039-15.37-18.457-21.278-2.104-1.676-4.327-3.124-6.61-4.532-1.92-1.185-4.666-2.18-4.399-4.925.35-3.617 9.955 3.432 11.124 4.256 14.56 10.278 23.14 25.562 31.316 40.91-2.223-12.112-11.113-23.026-19.655-31.436-4.676-4.604-9.799-8.783-15.33-12.322-2.78-1.778-5.446-3.814-8.363-5.362-2.71-1.437-5.948-1.71-9.037-2.275 1.234.418 2.461.87 3.69 1.331.785.296 3.553.816 4.03 1.518.266.391 0 1.824 0 2.312 0 .588-1.14-.333-1.023.743-3-.529-5.748-1.62-8.62-2.59-3.562-1.204-7.388-1.649-11.13-1.734-.127-.003-2.309.16-2.309-.198 0-.474-.263-1.92 0-2.296.286-.407 1.33-.775 2.232-1.04a157.32 157.32 0 0 0-7.249-.24c-4.554-.049-10.009-.268-14.292 1.628-.884.392-1.515 1.101-2.385 1.502-.968.445-2.026.784-3.08.941-.202.032-2.528-.085-2.688-.309zm22.078-7.48c.791-.014 1.581-.02 2.373-.02 1.904 0 3.81.04 5.711.133-2.667-.3-5.41-.433-8.084-.113zm91.734 86.975c-.15-.048-.36-.11-.646-.198l.646.198zm0 0c.367.116.483.15 0 0zm-175.3 2.712c.243-2.605 1.683-4.698 3.616-6.39 4.681-4.096 11.107-6.173 16.97-7.9 2.228-.654 4.48-1.227 6.718-1.847.614-.17 4.99-1.076 4.99-1.328 0-1.127-.518-2.319.76-2.319 1.185 0 3.677-2.244 4.9-2.8 2-.917 4.088-1.615 6.17-2.317 2.975-.994 5.89-2.152 8.857-3.165 4.097-1.4 7.974-1.778 12.196-2.396 2.931-.428 5.65-1.022 8.654-1.004 5.101.038 10.26-1.233 15.31-.806 3.835.328 7.644-.142 11.526.227 4.254.41 8.521.551 12.77 1.058 8.975 1.063 17.824 3.015 26.487 5.576 14.706 4.343 30.572 9.126 43.463 17.607 3.061 2.014 6.508 4.28 8.637 7.322.952 1.36 1.696 2.861 2.725 4.17 1.256 1.596 3.15 2.798 4.266 4.472.243.358 1.105.031 1.105.371v2.502c0 .718-2.653.62-3.364.658-1.092-.218-1.218-.57-2.048-1.228-1.767-1.403-3.468-2.688-5.512-3.673-4.358-2.096-9.066-3.323-13.645-4.83-9.595-3.163-19.335-6.25-29.156-8.632-9.694-2.35-19.566-3.943-29.487-4.94-9.243-.929-18.514-.623-27.785-.56-18.625.128-37.535.782-55.444 6.318-2.559.79-8.684 4.21-10.682.745-1.36-2.354 4.453-4.714 5.874-5.249 3.59-1.35 7.401-1.79 11.076-2.816 1.473-.412 2.94-.88 4.465-1.05 2.047-.228 3.91-1.237 6.047-1.4 1.77-.137 3.468-1.026 5.287-1.25 1.314-.16 2.626-.16 3.937-.337 2.743-.37 5.376-.875 8.106-1.215 2.01-.255 3.997-.51 5.97-.906 2.318-.463 4.563-.104 6.887-.742-14.043.645-28.608 2.274-42.285 5.626-6.224 1.511-12.546 2.68-18.658 4.626-3.063.976-6.067 2.16-8.904 3.676-1.91 1.02-5.186 2.448-6.144 4.557 1.47.368 1.101 2.137.588 2.968-1.322-.168-5.383.103-5.244-1.379zm65.758-26.913c-4.594.51-9.042 1.807-13.404 3.292-4.424 1.504-9.362 2.64-13.479 4.846 2.047-.33 4.188-.858 6.245-.979 1.828-.106 3.546-.878 5.432-1 3.131-.208 6.104-1.089 9.255-1.089 6.286-.545 12.473-2.105 18.795-2.105 2.772 0 5.467-.142 8.193-.563 2.317-.358 4.727-.198 7.06-.129 2.222.072 4.28-.579 6.542-.469 4.08.194 8.143-.296 12.284-.18 5.715.164 11.368.327 17.047 1.08-12.89-3.569-26.469-4.293-39.792-4.293-8.085.001-16.15.693-24.178 1.59zm47.137 5.605c7.416.375 14.832.957 22.18 2.04-7.665-1.445-15.489-2.09-23.29-2.105 5.69.267 3.148.16 1.11.065zm-32.918 5.13c5.487.16 10.95-.142 16.438-.142 15.846 0 32.462 1.095 47.84 5.146 7.403 1.95 14.824 3.85 22.212 5.853-25.675-14.762-57.968-13.34-86.49-10.857zm93.184 12.804a189.454 189.454 0 0 1 16.046 5.753c-3.45-4.5-8.792-7.519-13.683-10.209-5.168-2.839-10.589-5.205-16.117-7.25 3.242 1.954 6.447 3.85 9.748 5.686 2.455 1.363 4.11 3.101 4.006 6.02zm0 0zm.31.095c.296.094.757.235 1.183.368l-1.183-.368zm38.491 63.612c-4.442-.089-8.284-3.112-12.222-5.035-7.982-3.899-17.335-6.13-25.868-8.469-18.702-5.126-37.877-7.319-57.225-7.999-19.35-.68-38.845-.44-58.18.551-13.42.688-26.774 2.237-40.146 3.506-1.773.166-3.534.355-5.303.575-1.276.157-2.552.268-3.83.425-1.519.19-4.288-2.067-3.998-3.723-2.375.633-7.2 1.14-8.678 3.38-.724 1.058.75 1.937-.195 3.015-.125.246.253-.074-.145-.074h-1.95c-.934 0-2.72-3.764-2.024-4.832.96-2.395 5.495-3.057 7.634-3.834 2.954-1.073 6.05-1.522 9.018-2.407 1.891-.563 3.786-.716 5.666-1.273 2.113-.626 4.531-.948 6.684-1.275 2.588-.39 5.224-1.249 7.81-1.425 1.843-.13 3.438-.816 5.298-.983 1.595-.142 3.15-.103 4.733-.342 23.451-3.55 47.06-5.552 70.794-4.847 25.576.762 49.937 7.667 74.545 13.895-26.859-16.587-59.263-18.358-89.936-19.099-17.49-.422-34.856.41-52.199 2.754-11.906 1.608-23.759 3.62-35.63 5.466.008 2.527.437 2.697-2.105 2.93-2.038.186-3.252-.802-5.26-.802 1.298-2.275 2.562-4.312 5.163-5.27 1.595-.59 3.304-.643 4.928-1.09 1.847-.507 3.79-.727 5.697-.855 6.616-.444 13.196-2.216 19.701-3.242 1.57-.248 3.167-.084 4.72-.352 1.286-.224 2.455-.743 3.764-.866 2.944-.276 5.905-.77 8.857-.755 1.766.013 3.658-.698 5.52-.698 1.021-.01 1.822-.035 2.813-.224 3.144-.598 6.69-.607 9.866-.466 2.596.116 5.2-.33 7.823-.227 2.898.116 5.946-.68 8.733-.312 5.483.721 11.113.16 16.641.402 13.098.57 26.097 1.307 39.02 3.735 14.58 2.744 29.296 7.122 42.085 14.781 5.515 3.298 10.956 6.621 16.246 10.271 4.613 3.181 11.493 8.783 11.135 15.09zM64.497 216.332c2.974-.62 6.115-.422 9.137-.4 3.163.022 6.453-.657 9.606-.853 4.305-.264 8.61.198 12.93-.006 3.245-.15 6.491-.17 9.74-.2 17.92.023 35.87-.14 53.706 1.868 21.265 2.392 42.892 7.813 62.552 16.33-2.407-3.44-5.255-3.044-8.74-4.397-3.479-1.35-6.95-2.722-10.453-4.009-5.024-1.85-10.144-3.443-15.23-5.107-6.689-2.19-14.23-2.934-21.183-3.849-7.383-.973-14.815-1.444-22.198-2.407-7.323-.957-15.026-.938-22.414-.976-18.49-.089-36.832.201-55.29 1.58-6.506.484-13 1.365-19.49 2.042-3.078.323-6.067 1.183-9.1 1.765-1.565.303-3.142.545-4.73.646-1.486.098-2.007.686-3.26 1.444 6.055-.013 12.355-1.12 18.42-1.709 5.218-.503 10.896-.696 15.997-1.762zm76.723-42.754c-3.366-1.104-7.098.072-8.65 3.35-1.35 2.844-1.417 6.27-1.172 9.354.151 1.888.306 2.228 2.18 2.72 3.51.918 8.156-.058 11.166 2.145 1.155.843 1.855 2.27 2.651 3.421.184-5.096.113-10.07-1.363-15.008-.762-2.555-2.118-5.098-4.812-5.982zm23.176 4.437c-2.963-.11-4.974 1.481-5.935 4.213-.74 2.097-2.36 10.294.365 11.291 3.102 1.137 7.452.192 10.042 2.257 1.251.997 1.913 2.741 2.698 4.088.167-5.306.186-10.549-1.21-15.726-.813-3.01-2.48-5.99-5.96-6.123zm24.438 7.467c-2.195-.809-4.582.028-5.757 2.008-2.025 3.411-1.828 8.23-1.443 12.047.35 3.458 8.432 1.02 10.111 4.248.375-.085 2.02-.236 2.025-.602a61.935 61.935 0 0 0-.055-3.927 43.654 43.654 0 0 0-1.095-8.02c-.522-2.213-1.445-4.892-3.786-5.754zm-65.663-50.89c-1.063 1.985-1.112 4.478-.809 6.661.19 1.37 1.043 1.325 2.343 1.57 2.683.504 6.036-.154 8.446 1.274.958.566 1.62 1.646 2.33 2.474.162-3.553.197-6.992-1.07-10.385-1.664-4.465-8.626-6.472-11.24-1.595zm23.438 3.256c-1.088 2.017-1.123 4.563-.867 6.787.146 1.266.537 1.344 1.75 1.643 2.351.576 5.982-.176 7.815 1.618.744.727 1.301 1.743 1.915 2.58.134-3.493.21-6.869-.763-10.274-1.202-4.198-7.125-7.399-9.85-2.354z" fill="#6999ee"/></svg>