<?xml version="1.0" encoding="UTF-8" standalone="no"?>
<svg
   xmlns:dc="http://purl.org/dc/elements/1.1/"
   xmlns:cc="http://creativecommons.org/ns#"
   xmlns:rdf="http://www.w3.org/1999/02/22-rdf-syntax-ns#"
   xmlns:svg="http://www.w3.org/2000/svg"
   xmlns="http://www.w3.org/2000/svg"
   xmlns:sodipodi="http://sodipodi.sourceforge.net/DTD/sodipodi-0.dtd"
   xmlns:inkscape="http://www.inkscape.org/namespaces/inkscape"
   version="1.1"
   width="239.93462"
   height="240.42529"
   viewBox="0 0 239.93462 240.42529"
   id="svg2"
   inkscape:version="0.91 r13725"
   sodipodi:docname="congressional-research-service.svg">
  <metadata
     id="metadata12">
    <rdf:RDF>
      <cc:Work
         rdf:about="">
        <dc:format>image/svg+xml</dc:format>
        <dc:type
           rdf:resource="http://purl.org/dc/dcmitype/StillImage" />
        <dc:title></dc:title>
      </cc:Work>
    </rdf:RDF>
  </metadata>
  <defs
     id="defs10" />
  <sodipodi:namedview
     pagecolor="#ffffff"
     bordercolor="#666666"
     borderopacity="1"
     objecttolerance="10"
     gridtolerance="10"
     guidetolerance="10"
     inkscape:pageopacity="0"
     inkscape:pageshadow="2"
     inkscape:window-width="717"
     inkscape:window-height="480"
     id="namedview8"
     showgrid="false"
     fit-margin-top="0"
     fit-margin-left="10"
     fit-margin-right="10"
     fit-margin-bottom="0"
     inkscape:zoom="0.642"
     inkscape:cx="286.60555"
     inkscape:cy="119.812"
     inkscape:window-x="789"
     inkscape:window-y="217"
     inkscape:window-maximized="0"
     inkscape:current-layer="svg2" />
  <path
     d="m 99.695186,30.465286 c -5.194,-5.573 0.175,-14.762 2.376004,-20.359 0.593,-1.2010004 0.9,-0.9410004 0.44,-2.3650004 -0.447,-1.383 -0.086,-1.877 -1.308,-2.628 -0.982,-0.603 -3.293004,-4.12399999 -1.473004,-5.05499999 0.719004,-0.367 3.869004,1.10899999 4.571004,1.36599999 2.011,0.735 4.127,1.743 5.461,3.485 1.704,2.224 0.184,4.409 0.606,6.8500004 0.403,2.327 0.964,4.625 1.182,6.981 0.42,4.569 -0.898,7.833 -4.604,10.538 2.959,0.033 5.325,0.78 8.091,1.68 -1.184,2.455 -3.582,3.125 -3.281,6.143 0.228,2.291 2.355,8.681 -2.011,8.681 -2.188,0 -1.868,-5.372 -2.022,-6.823 -1.424,0.445 -2.39,-0.84 -3.703,-1.027 -2.072,-0.31 -4.934004,0.787 -6.292004,-1.433 -1.439,-2.359 0.019,-4.514 1.967,-6.034 z m -20.248,67.419 c -0.738,-1.023 0.492,-2.362 1.059,-2.983 0.724,-0.792 -0.183,-1.218 1.104,-1.218 1.143,0 1.912,-0.551 2.983,-0.908 -0.955,-0.4 -0.99,-1.273 -1.218,-2.138 -0.367,-1.4 -0.345,-0.861 0.448,-1.643 3.553,-1.716 6.986,-2.08 10.824,-2.523 3.454,-0.4 6.991004,-1.113 10.438004,-1.354 -2.749,-0.649 -5.558004,-1.068 -8.388004,-0.998 -3.359,0.083 -5.414,1.572 -8.471,2.522 -1.591,0.494 -3.99,-0.57 -2.351,-2.459 0.738,-0.85 1.759,-1.801 2.738,-2.401 0.96,-0.587 2.489,-0.663 2.842,-1.506 6.824,0.132 12.636004,0.431 19.257004,2.214 0.831,0.223 2.596,0.615 4.396,1.193 -0.005,-0.018 -0.013,-0.027 -0.016,-0.044 -0.164,-0.766 -0.242,-1.556 -0.469,-2.308 -0.673,-0.164 -1.226,-0.625 -1.604,-1.191 -1.292,-1.937 -1.364,-4.727 -1.437,-6.967 -0.152,-4.623 0.243,-9.118 1.346,-13.592 -5.02,0.563 -10.262,0.534 -15.192004,1.687 -2.626,0.615 -5.343,2.053 -8.026,1.935 -0.083,-5.655 5.457,-5.221 9.705,-5.878 1.621004,-0.76 3.498004,-0.941 5.263004,-1.026 2.042,-0.097 3.926,-0.727 5.994,-0.76 2.038,-0.033 3.617,0.003 5.587,-0.462 -5.917,-2.713 -13.472,-2.318 -19.454004,-0.231 -2.79,0.977 -6.361,2.537 -9.382,1.877 -3.005,-0.656 -2.36,-3.841 -0.239,-5.194 -0.533,-0.389 -0.712,-1.413 -0.967,-2.165 -0.351,-1.035 2.28,-1.592 3.141,-1.97 4.163,-1.83 9.308,-2.22 13.792004,-2.162 4.247,0.055 9.364,1.139 13.447,2.336 1.202,0.353 6.482,2.883 4.206,4.65 1.311,0.938 1.246,3.435 1.488,4.885 0.294,1.773 -2.251,1.684 -2.708,2.906 -1.083,2.896 -0.651,6.826 -0.788,9.829 -0.12,2.625 -0.197,5.174 -0.112,7.798 0.06,1.885 0.656,5.777 -1.165,6.978 1.611,0.757 2.865,1.715 2.865,2.931 0.151,0.221 -0.164,0.785 0,0.993 1.106,0.308 2.198,0.661 3.271,1.068 1.084,0.412 2.437,0.798 3.312,1.597 1.529,1.398 3.167,2.428 5.015,3.379 7.6,3.914 15.019,8.116004 21.662,13.532004 6.775,5.524 12.997,11.807 18.96,18.188 5.279,5.646 10.264,11.681 13.857,18.56 3.277,6.275 6.124,14.209 6.031,21.355 -5.683,0 -5.227,-7.591 -6.531,-11.672 -2.72,-8.506 -7.435,-15.693 -13.404,-22.268 4.178,6.794 6.813,14.12 6.904,22.151 0.019,1.759 -0.244,5.837 -2.981,5.497 -0.958,-0.119 -1.917,-0.242 -2.875,-0.361 -0.145,-0.017 -0.244,-3.745 -0.329,-4.151 -0.744,-3.6 -2.716,-6.807 -4.481,-9.979 -2.271,-4.11 -4.59,-8.191 -7.112,-12.153 -5.073,-7.965 -11.039,-15.371 -18.457,-21.278 -2.104,-1.676 -4.327,-3.124 -6.61,-4.532 -1.92,-1.185 -4.666,-2.181 -4.399,-4.925 0.349,-3.617004 9.955,3.432 11.124,4.256 14.56,10.278 23.139,25.562 31.316,40.91 -2.223,-12.112 -11.113,-23.026 -19.655,-31.436 -4.676,-4.604 -9.799,-8.783 -15.33,-12.322 -2.78,-1.778 -5.446,-3.814 -8.363,-5.362004 -2.711,-1.437 -5.948,-1.71 -9.037,-2.275 1.234,0.418 2.461,0.869 3.69,1.331 0.785,0.296 3.553,0.816 4.03,1.518 0.266,0.391 0,1.824004 0,2.312004 0,0.588 -1.141,-0.333 -1.023,0.743 -3,-0.529 -5.748,-1.621 -8.621,-2.590004 -3.561,-1.204 -7.387,-1.649 -11.13,-1.734 -0.126,-0.003 -2.308,0.159 -2.308,-0.198 0,-0.474 -0.263,-1.921 0,-2.296 0.286,-0.407 1.33,-0.775 2.232,-1.04 -2.431,-0.14 -4.862,-0.214 -7.249,-0.241 -4.554004,-0.048 -10.009004,-0.267 -14.292004,1.629 -0.884,0.392 -1.515,1.101 -2.385,1.502 -0.968,0.445 -2.026,0.784 -3.081,0.941 -0.201,0.032 -2.527,-0.085 -2.687,-0.309 z m 22.078004,-7.479 c 0.791,-0.014 1.581,-0.021 2.373,-0.021 1.904,0 3.809,0.041 5.711,0.134 -2.667,-0.3 -5.411,-0.433 -8.084,-0.113 z m 91.734,86.975004 c -0.151,-0.048 -0.36,-0.11 -0.646,-0.198 0.246,0.075 0.471,0.144 0.646,0.198 z m 0,0 c 0.367,0.116 0.483,0.15 0,0 l 0,0 z m -175.301004,2.712 c 0.244,-2.605 1.684,-4.698 3.617,-6.391 4.681,-4.095 11.107,-6.172 16.97,-7.899 2.228,-0.654 4.479,-1.227 6.718,-1.847 0.614,-0.17 4.99,-1.076 4.99,-1.328 0,-1.127 -0.518,-2.319 0.76,-2.319 1.185,0 3.677,-2.244 4.9,-2.801 2,-0.916 4.088,-1.614 6.169,-2.316 2.976,-0.994 5.891,-2.152 8.858,-3.165 4.097,-1.4 7.974,-1.778 12.196,-2.396 2.931,-0.428 5.65,-1.022 8.654,-1.004 5.101,0.038 10.259004,-1.233 15.310004,-0.806 3.835,0.328 7.644,-0.142 11.526,0.227 4.254,0.409 8.521,0.551 12.77,1.058 8.975,1.063 17.824,3.015 26.487,5.576 14.706,4.343 30.572,9.126 43.463,17.607 3.061,2.014 6.508,4.279 8.637,7.322 0.952,1.359 1.696,2.861 2.725,4.17 1.256,1.596 3.149,2.798 4.266,4.472 0.243,0.358 1.105,0.031 1.105,0.371 0,0.834 0,1.668 0,2.502 0,0.718 -2.653,0.62 -3.364,0.658 -1.092,-0.218 -1.218,-0.57 -2.048,-1.228 -1.767,-1.403 -3.468,-2.688 -5.512,-3.673 -4.358,-2.096 -9.066,-3.323 -13.645,-4.83 -9.595,-3.163 -19.335,-6.25 -29.156,-8.632 -9.694,-2.351 -19.566,-3.943 -29.487,-4.94 -9.243,-0.929 -18.514,-0.623 -27.785,-0.561 -18.625004,0.129 -37.535004,0.783 -55.444004,6.319 -2.559,0.79 -8.684,4.21 -10.682,0.745 -1.361,-2.354 4.453,-4.714 5.874,-5.249 3.589,-1.35 7.401,-1.79 11.076,-2.816 1.473,-0.412 2.939,-0.881 4.465,-1.051 2.047,-0.227 3.91,-1.236 6.047,-1.4 1.77,-0.136 3.468,-1.025 5.287,-1.249 1.314,-0.161 2.626,-0.161 3.937,-0.337 2.743,-0.371 5.376,-0.875 8.106,-1.215 2.009,-0.255 3.997,-0.51 5.97,-0.906 2.318,-0.463 4.563,-0.104 6.887,-0.742 -14.043,0.645 -28.608,2.274 -42.285,5.626 -6.224,1.511 -12.546,2.679 -18.658,4.626 -3.063,0.976 -6.067,2.159 -8.904,3.676 -1.91,1.02 -5.186,2.448 -6.144,4.557 1.469,0.368 1.101,2.137 0.588,2.968 -1.322,-0.168 -5.383,0.103 -5.244,-1.379 z m 65.759,-26.913 c -4.594,0.51 -9.042,1.807 -13.404,3.292 -4.424,1.504 -9.362,2.64 -13.479,4.846 2.047,-0.33 4.188,-0.858 6.245,-0.979 1.828,-0.106 3.546,-0.878 5.432,-1 3.131,-0.208 6.104,-1.089 9.255,-1.089 6.286,-0.545 12.473,-2.105 18.795,-2.105 2.772,0 5.467004,-0.142 8.193004,-0.563 2.317,-0.358 4.727,-0.198 7.06,-0.129 2.222,0.072 4.28,-0.579 6.542,-0.469 4.08,0.194 8.143,-0.296 12.284,-0.18 5.715,0.164 11.368,0.327 17.047,1.079 -12.89,-3.568 -26.469,-4.292 -39.792,-4.292 -8.085004,10e-4 -16.150004,0.693 -24.178004,1.589 z m 47.137004,5.605 c 7.416,0.375 14.832,0.957 22.18,2.04 -7.665,-1.445 -15.489,-2.09 -23.291,-2.105 5.69,0.267 3.149,0.16 1.111,0.065 z m -32.918004,5.13 c 5.487004,0.16 10.950004,-0.142 16.438004,-0.142 15.846,0 32.462,1.095 47.84,5.146 7.403,1.95 14.824,3.849 22.212,5.853 -25.675,-14.762 -57.968,-13.341 -86.490004,-10.857 z m 93.184004,12.804 c 5.43,1.681 10.79,3.591 16.046,5.753 -3.451,-4.501 -8.792,-7.519 -13.683,-10.209 -5.168,-2.839 -10.589,-5.205 -16.117,-7.25 3.242,1.954 6.447,3.849 9.748,5.686 2.455,1.363 4.109,3.101 4.006,6.02 z m 0,0 c 0.118,0.038 0.202,0.063 0.31,0.095 -0.184,-0.056 -0.31,-0.095 -0.31,-0.095 z m 0.31,0.095 c 0.296,0.094 0.757,0.235 1.183,0.368 -0.303,-0.094 -0.701,-0.217 -1.183,-0.368 z m 38.491,63.612 c -4.442,-0.089 -8.284,-3.112 -12.222,-5.035 -7.982,-3.899 -17.335,-6.131 -25.868,-8.469 -18.702,-5.126 -37.877,-7.319 -57.225,-7.999 -19.35,-0.68 -38.845004,-0.44 -58.180004,0.551 -13.42,0.688 -26.774,2.237 -40.146,3.506 -1.773,0.166 -3.534,0.355 -5.303,0.575 -1.276,0.157 -2.552,0.268 -3.83,0.425 -1.519,0.189 -4.288,-2.067 -3.998,-3.723 -2.375,0.633 -7.2,1.14 -8.678,3.38 -0.724,1.058 0.749,1.937 -0.195,3.015 -0.125,0.246 0.253,-0.074 -0.145,-0.074 -0.65,0 -1.301,0 -1.951,0 -0.933,0 -2.7189999,-3.764 -2.023,-4.832 0.96,-2.395 5.495,-3.057 7.634,-3.834 2.954,-1.073 6.05,-1.522 9.018,-2.407 1.891,-0.563 3.786,-0.716 5.666,-1.273 2.113,-0.626 4.531,-0.948 6.684,-1.275 2.588,-0.391 5.224,-1.249 7.809,-1.425 1.844,-0.13 3.439,-0.816 5.299,-0.983 1.595,-0.142 3.15,-0.103 4.733,-0.342 23.451,-3.55 47.059004,-5.552 70.794004,-4.847 25.576,0.762 49.937,7.667 74.545,13.895 -26.859,-16.587 -59.263,-18.358 -89.936,-19.099 -17.490004,-0.422 -34.856004,0.409 -52.199004,2.754 -11.906,1.608 -23.759,3.619 -35.631,5.466 0.009,2.527 0.438,2.697 -2.104,2.93 -2.038,0.186 -3.252,-0.802 -5.26,-0.802 1.298,-2.275 2.562,-4.312 5.163,-5.271 1.595,-0.589 3.304,-0.642 4.928,-1.089 1.847,-0.507 3.789,-0.727 5.697,-0.855 6.616,-0.444 13.196,-2.216 19.701,-3.242 1.569,-0.248 3.167,-0.084 4.72,-0.352 1.286,-0.224 2.455,-0.743 3.764,-0.866 2.944,-0.276 5.905,-0.771 8.857,-0.755 1.766,0.013 3.658,-0.698 5.52,-0.698 1.021,-0.01 1.822,-0.035 2.813,-0.224 3.144,-0.598 6.689,-0.607 9.866,-0.466 2.596,0.116 5.199,-0.33 7.823,-0.227 2.898,0.116 5.946004,-0.68 8.733004,-0.312 5.483,0.721 11.113,0.16 16.641,0.402 13.098,0.57 26.097,1.307 39.02,3.735 14.58,2.744 29.296,7.122 42.085,14.781 5.515,3.298 10.956,6.621 16.246,10.271 4.613,3.181 11.493,8.783 11.135,15.09 z m -165.424004,-24.093 c 2.974,-0.62 6.115,-0.422 9.137,-0.4 3.163,0.022 6.453,-0.657 9.606,-0.853 4.305,-0.264 8.61,0.198 12.929,-0.006 3.246,-0.151 6.492004,-0.17 9.740004,-0.201 17.92,0.024 35.87,-0.139 53.707,1.869 21.265,2.392 42.892,7.813 62.552,16.329 -2.407,-3.439 -5.255,-3.043 -8.74,-4.396 -3.479,-1.35 -6.95,-2.722 -10.453,-4.009 -5.024,-1.851 -10.144,-3.443 -15.231,-5.107 -6.688,-2.19 -14.229,-2.934 -21.182,-3.849 -7.383,-0.973 -14.815,-1.444 -22.198,-2.407 -7.323,-0.957 -15.026,-0.938 -22.414,-0.976 -18.49,-0.089 -36.832004,0.201 -55.290004,1.579 -6.506,0.485 -13.001,1.366 -19.49,2.043 -3.078,0.323 -6.067,1.183 -9.101,1.765 -1.564,0.303 -3.141,0.545 -4.73,0.646 -1.485,0.098 -2.006,0.686 -3.26,1.444 6.056,-0.013 12.356,-1.12 18.42,-1.709 5.219,-0.503 10.897,-0.696 15.998,-1.762 z m 76.723004,-42.754 c -3.366,-1.104 -7.098,0.072 -8.651,3.349 -1.349,2.845 -1.416,6.271 -1.171,9.355 0.151,1.888 0.306,2.228 2.179,2.719 3.511,0.919 8.157,-0.057 11.167,2.146 1.155,0.843 1.855,2.269 2.651,3.421 0.184,-5.096 0.113,-10.07 -1.363,-15.008 -0.762,-2.555 -2.118,-5.098 -4.812,-5.982 z m 23.176,4.437 c -2.963,-0.11 -4.974,1.481 -5.935,4.213 -0.74,2.097 -2.36,10.294 0.365,11.291 3.102,1.137 7.452,0.192 10.042,2.257 1.251,0.997 1.913,2.741 2.698,4.088 0.167,-5.306 0.186,-10.549 -1.21,-15.726 -0.813,-3.01 -2.48,-5.991 -5.96,-6.123 z m 24.438,7.467 c -2.195,-0.809 -4.582,0.028 -5.757,2.008 -2.025,3.411 -1.828,8.229 -1.443,12.047 0.35,3.458 8.432,1.02 10.111,4.248 0.375,-0.085 2.019,-0.236 2.025,-0.602 0.025,-1.309 0.003,-2.621 -0.055,-3.927 -0.123,-2.697 -0.475,-5.391 -1.095,-8.021 -0.522,-2.212 -1.445,-4.891 -3.786,-5.753 z m -65.663,-50.891 c -1.063,1.986 -1.112,4.479 -0.809,6.662 0.19,1.369 1.043,1.325 2.343,1.57 2.683,0.504 6.036,-0.154 8.446,1.274 0.958,0.566 1.619,1.646 2.33,2.474 0.162,-3.553 0.197,-6.992 -1.07,-10.385 -1.664,-4.465 -8.626,-6.472 -11.24,-1.595 z m 23.438,3.257 c -1.088,2.017 -1.123,4.563 -0.867,6.787 0.146,1.266 0.537,1.344 1.75,1.643 2.351,0.576 5.982,-0.176 7.815,1.618 0.744,0.727 1.301,1.743 1.915,2.58 0.134,-3.493 0.21,-6.869 -0.763,-10.274 -1.202,-4.198 -7.125,-7.399 -9.85,-2.354 z"
     style="fill:#0f5790"
     id="path6"
     inkscape:connector-curvature="0" />
</svg>
