<svg xmlns="http://www.w3.org/2000/svg" version="1" width="1024" height="675" viewBox="0 0 159.2175 104.9925"><path d="M.004 104.993h159.21V65.06H.004v39.933z" fill="#231f20"/><path d="M0 65.056h159.217V0H0v65.056z" fill="#f03c1e"/><path d="M133.156 29.438v4.718h2.688l-.031 20.219h-2.438v4.938h20.063v-10.75h-5.22v5.78h-7.03V34.126h2.468v-4.688h-10.5zm-82.469.062v4.688h2.657v20.187h-2.469v4.938H61.25v-4.938h-2.531V34.187h2.468V29.5h-10.5zm13.22 0v4.688h2.687v20.187h-2.469v4.938h19.906v-10.5h-5.156v5.562h-6.938v-8.5h9v-4.5h-9v-7.188h6.938V38.5h5.156v-9H63.906zm26.906 0c-1.832 0-3.344 1.514-3.344 3.344v23.093c0 1.832 1.574 3.376 3.406 3.376h10.906A3.311 3.311 0 0 0 105.094 56V41.437l-9.844-.062v4.5h4.594v8.438h-7.156V34.218h6.874v4.437h5.532v-5.75c0-1.831-1.513-3.406-3.344-3.406H90.812zm18.25 0v4.688h2.687v20.187h-2.469v4.938h19.875v-10.5H124v5.562h-6.906v-8.5h9v-4.5h-9v-7.156h6.937L124 38.5h5.156v-9h-20.094zm-99.157.094a3.311 3.311 0 0 0-3.312 3.312v13.032h12.343v8.437h-7.125V49.25H6.595V56c0 1.831 1.481 3.375 3.312 3.375l10.969.031a3.364 3.364 0 0 0 3.344-3.343V41.5h-12.5v-7.219h6.969v4.438h5.53v-5.75c0-1.832-1.543-3.375-3.374-3.375H9.906zm17.625.093v4.688h2.688v20.188h-2.5V59.5h10.375v-4.938h-2.532V46.25h8.72c1.83 0 3.343-1.481 3.343-3.313v-9.906a3.364 3.364 0 0 0-3.344-3.343h-16.75zm8.094 4.688h6.844v7.25h-6.844v-7.25zM20.125 71.5C10.4 71.5 6.25 79.572 6.25 85.281c0 6.341 4.001 13.844 13.656 13.844 8.492 0 14.063-6.514 14.063-14.406 0-8.209-5.917-13.219-13.844-13.219zm20.563 0c-.283 0-.375.406-.376 1.781l-.03 20.188c0 3.206-.183 4.221-1.063 4.469-.529.174-1.155.218-1.438.218-.176 0-.281.046-.281.188 0 .246.21.281.563.281 1.584 0 3.057-.094 3.374-.094.317 0 1.712.094 3.72.094.423 0 .656-.07.656-.281 0-.141-.105-.188-.282-.188-.316 0-1.112-.044-1.781-.219-.951-.282-1.304-1.204-1.375-4.093l-.438-16.875c1.128 1.269 5.1 5.721 9.188 10.125 3.735 4.016 8.8 9.178 9.188 9.531 1.866 1.868 2.28 2.25 2.562 2.25.246 0 .344-.174.344-2.5l.062-20.656c0-2.114.15-2.878 1.313-3.125.422-.106.667-.094.844-.094.246 0 .374-.109.374-.25 0-.211-.237-.25-.624-.25-1.444 0-2.612.094-3 .094-.388 0-2.07-.094-3.657-.094-.422 0-.718.039-.718.25 0 .141.033.25.28.25.282 0 1.086.016 1.72.156 1.092.283 1.34 1.054 1.374 3.344l.407 17.906c-1.128-1.162-4.982-5.452-8.469-9.187-5.426-5.813-10.659-11.495-11.188-12.094-.352-.353-.968-1.125-1.25-1.125zm67.062 0c-.281 0-.375.406-.375 1.781l-.031 20.188c0 3.206-.183 4.221-1.063 4.469-.529.174-1.156.218-1.437.218-.176 0-.281.046-.281.188 0 .246.21.281.562.281 1.586 0 3.058-.094 3.375-.094.317 0 1.741.094 3.75.094.422 0 .625-.07.625-.281 0-.141-.105-.188-.281-.188a7.798 7.798 0 0 1-1.75-.219c-.951-.282-1.304-1.204-1.375-4.093L109 76.969c1.127 1.269 5.1 5.721 9.188 10.125 3.733 4.016 8.8 9.178 9.187 9.531 1.868 1.868 2.312 2.25 2.594 2.25.246 0 .312-.174.312-2.5l.063-20.656c0-2.114.15-2.878 1.312-3.125.423-.106.668-.094.844-.094.246 0 .375-.109.375-.25 0-.211-.238-.25-.625-.25-1.445 0-2.613.094-3 .094S127.179 72 125.594 72c-.424 0-.719.039-.719.25 0 .141.035.25.281.25.283 0 1.115.016 1.75.156 1.091.283 1.34 1.054 1.375 3.344l.375 17.906c-1.127-1.162-4.98-5.452-8.469-9.187-5.426-5.813-10.658-11.495-11.187-12.094-.353-.353-.968-1.125-1.25-1.125zm44.781.219c-.176 0-.323.152-.5.187-.282.072-.83.122-1.5.156-.811.035-7.815.032-8.062.032-.177 0-2.414-.094-4-.094-.388 0-.563.07-.563.281 0 .141.14.219.281.219.317 0 .938.024 1.22.094 1.162.247 1.43.801 1.5 2 .07 1.127.062 2.129.062 7.625v6.187c0 3.383.02 6.178-.156 7.656-.14 1.023-.327 1.797-1.032 1.938-.317.07-.746.156-1.062.156-.213 0-.282.081-.281.188 0 .211.175.281.562.281 1.058 0 3.293-.094 3.469-.094 1.022 0 3.367.219 8.687.219 1.375 0 1.66-.021 1.906-.938.177-.74.47-3.125.47-3.406 0-.246-.008-.531-.22-.531-.176 0-.242.144-.312.531-.246 1.444-.679 2.144-1.594 2.531-.916.388-2.46.407-3.375.407-3.454 0-3.987-.475-4.094-2.906-.035-.74 0-4.834 0-6.032v-3.094c0-.14.074-.25.25-.25.6 0 4.08.082 5.032.188 1.374.141 1.702.725 1.844 1.219.14.457.125.835.125 1.187 0 .176.073.313.25.313.246 0 .25-.407.25-.688 0-.246.084-1.545.156-2.25.105-1.162.281-1.757.281-1.969 0-.212-.081-.28-.188-.28-.14 0-.285.186-.53.468-.318.351-.812.399-1.657.469-.811.07-5.135.094-5.594.094-.176 0-.219-.13-.219-.376V73.72c0-.246.078-.344.22-.344.387 0 4.212.022 4.812.094 1.902.211 2.254.655 2.5 1.219.176.422.219 1.002.219 1.25 0 .28.068.468.28.468.14 0 .216-.23.25-.406.07-.422.153-1.96.188-2.313.105-.986.281-1.41.281-1.656 0-.176-.05-.312-.156-.312zM71.406 72c-.387 0-.562.07-.562.281 0 .141.14.219.281.219.316 0 .906.024 1.188.094 1.163.247 1.46.801 1.53 2 .072 1.127.063 2.129.063 7.625v6.187c0 3.383.02 6.178-.156 7.656-.141 1.023-.326 1.797-1.031 1.938-.316.07-.746.156-1.063.156-.212 0-.281.081-.281.188 0 .211.175.281.563.281 1.057 0 3.12-.094 3.437-.094 2.044 0 4.395.219 9.469.219 1.866 0 1.972-.159 2.219-.969.282-1.022.53-3.112.53-3.5 0-.387-.042-.531-.218-.531-.211 0-.277.155-.313.438-.105.668-.48 1.56-.937 2.124-.846 1.022-2.382 1.063-4.25 1.063-2.749 0-3.656-.249-4.219-.813-.635-.633-.781-2.882-.781-8.062v-6.281c0-5.496-.009-6.498.063-7.625.07-1.234.352-1.824 1.374-2 .423-.07.91-.094 1.157-.094.141 0 .281-.077.281-.219 0-.211-.175-.281-.563-.281-1.057 0-3.636.094-3.812.094-.175 0-2.383-.094-3.969-.094zm20.406 0c-.388 0-.562.07-.562.281 0 .141.14.219.281.219.248 0 .707.02 1.094.125.775.176 1.118.77 1.188 1.969.07 1.127.062 2.129.062 7.625v6.187c0 3.383.02 6.178-.156 7.656-.141 1.023-.326 1.797-1.031 1.938-.317.07-.747.156-1.063.156-.213 0-.281.081-.281.188 0 .211.175.281.562.281 1.058 0 3.293-.094 3.469-.094.176 0 2.375.094 4.313.094.388 0 .562-.105.562-.281 0-.106-.07-.188-.281-.188-.318 0-1.07-.086-1.563-.156-1.057-.141-1.269-.915-1.375-1.938-.176-1.478-.187-4.273-.187-7.656V82.22c0-5.496-.009-6.498.062-7.625.07-1.234.362-1.824 1.313-2 .422-.07.628-.094.875-.094.141 0 .281-.077.281-.219 0-.211-.175-.281-.563-.281-1.057 0-3.26.094-3.437.094-.176 0-2.4-.094-3.563-.094zm-71.937.719c5.567 0 10.719 4.543 10.719 13 0 10.252-6.58 12.062-9.75 12.062-6.343 0-11.25-5.29-11.25-13.5 0-7.716 4.397-11.562 10.281-11.562z" fill="#fff"/></svg>