<svg xmlns="http://www.w3.org/2000/svg" width="538.583" height="572.953"><path d="M3.543 3.61l531.496.016v500.438l-531.496-.016V3.611z" fill="#ffdb57"/><path d="M22.384 343.661v5.555c14.688 1.188 16.277 2.777 16.277 24.223v69.477c0 21.446-1.59 23.05-17.851 24.239v5.539h48.632c46.456 0 84.18-21.431 84.18-70.264 0-17.465-7.56-32.154-16.679-41.288-13.099-12.728-33.357-17.48-55.59-17.48h-58.97zm38.51 19.055c0-5.153 0-8.733 1.204-9.735 1.188-.988 6.34-1.775 12.898-1.775 31.768 0 53.2 14.689 53.2 57.164 0 32.987-17.05 56.208-50.021 56.208-15.29 0-17.28-3.795-17.28-22.048v-79.814zm132.38 21.045c-10.322 3.179-23.452 5.956-33.156 7.56v4.552c12.296 1.173 12.713 1.59 12.713 13.716v44.235c0 10.94-1.203 12.143-12.93 13.33v5.54l49.05.03v-5.57c-14.489-1.187-15.677-2.39-15.677-13.33v-40.069c4.367-8.748 8.934-11.124 12.297-11.124 3.179 0 6.357 1.589 9.134 4.35 1.204 1.22 3.58 1.605 5.755.803 4.583-1.805 8.147-7.545 8.147-12.513 0-5.554-5.154-11.51-12.297-11.51-9.751 0-17.682 12.529-22.45 20.058h-.586V383.76zm104.238 67.517c-7.745 5.971-14.102 8.332-20.86 8.332-14.889 0-30.564-10.322-30.163-35.348 21.631-.771 47.259-2.777 50.036-3.163 3.765-.802 4.166-1.188 4.166-8.547 0-14.288-12.914-28.374-29.578-28.374-26.213 0-44.682 24.408-44.265 49.234.37 23.205 15.66 41.689 41.689 41.689 5.554 0 20.443-3.981 31.753-20.46l-2.778-3.363zm-50.051-35.147c1.604-14.904 9.936-24.192 18.283-24.192 8.733 0 14.874 10.29 14.874 18.252 0 4.366-.772 5.539-3.564 5.539l-29.593.401zm107.2-29.577v5.554l5.153.602c3.765.586 2.778 2.793-.185 7.73-2.978 4.968-6.557 10.322-10.522 15.892l-11.526-17.28c-2.576-3.78-2.175-5.756 1.204-6.141l5.153-.803v-5.554h-43.895v5.554c10.738 1.188 12.127 1.99 18.684 12.112l18.453 28.59a1438.678 1438.678 0 0 1-16.478 21.832c-8.332 10.723-11.31 10.908-22.619 12.513v5.57h37.323v-5.57l-5.77-1.003c-3.164-.602-3.765-1.79-.587-7.144 3.765-6.357 8.131-12.898 12.513-19.255l12.899 19.64c2.576 3.997 2.391 6.574-1.188 6.975l-5.755.787v5.57h47.042v-5.57c-10.707-1.188-13.3-1.975-21.045-13.701l-20.057-30.364c6.974-9.535 12.513-16.494 14.688-19.271 8.362-10.137 10.723-10.523 23.251-11.71v-5.555h-36.736zm105.72 64.724c-7.715 5.971-14.072 8.332-20.83 8.332-14.904 0-30.565-10.322-30.194-35.348 21.662-.771 47.259-2.777 50.036-3.163 3.78-.802 4.181-1.188 4.181-8.547 0-14.288-12.914-28.374-29.593-28.374-26.198 0-44.651 24.408-44.265 49.234.4 23.236 15.69 41.689 41.689 41.689 5.57 0 20.443-3.981 31.768-20.46l-2.793-3.363zm-50.021-35.147c1.604-14.873 9.936-24.192 18.252-24.192 8.764 0 14.904 10.322 14.904 18.252 0 4.366-.787 5.539-3.564 5.539l-29.592.401zm87.127-84.38c-10.538 2.39-25.196 5.585-33.759 6.757v5.153c12.914 1.22 13.33 1.22 13.33 12.899v97.295c0 10.908-1.203 12.112-13.515 13.3v5.57h47.66v-5.57c-12.914-1.188-13.716-2.392-13.716-13.3V331.75z" fill="#006"/><path d="M67.203 528.64v21.647c0 6.743-.34 12.883-8.733 12.883s-8.733-6.14-8.733-12.883V528.64H41.19v24.98c0 10.584 7.622 15.722 17.28 15.722 9.659 0 17.28-5.138 17.28-15.722v-24.98h-8.547zM133.936 568.504v-39.853h-8.007v31.244l-.124.108-15.166-31.352H97.956v39.853h8.008v-33.018l.108-.123 15.737 33.141h12.127zM163.583 528.636h-8.563v39.853h8.563v-39.853zM196.598 568.504h9.319l14.688-39.853h-8.44l-10.43 31.414h-.107l-10.384-31.414h-9.35l14.704 39.853zM238.723 568.504h27.34v-6.619h-18.777v-10.661h17.003v-6.62h-17.003v-9.334h18.16v-6.619h-26.723v39.853zM295.468 552.447h9.057c2.808.093 3.363 3.163 3.58 5.354.4 3.61.77 7.175 1.48 10.708h9.458c-1.589-2.206-1.944-6.897-2.33-9.443-.71-5.508-.71-9.535-7.266-10.26v-.108c4.906-1.05 8.254-4.49 8.254-9.658 0-8.131-7.005-10.322-13.84-10.4H286.89v39.869h8.579v-16.062zm0-17.172h7.174c3.75.046 5.956 1.558 5.956 5.076 0 3.533-2.206 5.4-5.956 5.462h-7.174v-10.538zM368.073 540.01c0-8.007-6.017-12.173-13.747-12.173-8.193 0-16.57 3.996-16.57 13.13 0 7.082 7.621 9.612 13.191 10.97 3.426.88 9.134 1.219 9.134 5.924 0 4.228-4.551 5.308-7.977 5.308-4.458 0-7.004-2.993-6.665-7.406h-8.733c-.277 10.044 6.187 13.578 15.275 13.578 8.579 0 17.203-3.41 17.203-13.285 0-8.007-8.964-9.735-15.027-11.294-3.426-.802-7.283-1.311-7.283-5.631 0-3.487 3.194-5.138 6.341-5.138 4.135 0 6.295 2.006 6.635 6.017h8.223zM397.949 528.636h-8.579v39.853h8.579v-39.853zM416.347 535.277h11.896v33.233h8.548v-33.233h11.88v-6.635h-32.324v6.635zM477.861 568.504h8.548v-13.022l13.423-26.83h-8.78l-8.392 18.283-8.24-18.284h-9.967l13.408 26.831v13.022z" fill="#ffdb57"/><path d="M392.459 61.724c-8.764 1.203-16.602 6.465-21.338 14.596-4.259 7.9-5.94 19.363.231 27.031 3.086 3.595 6.881 6.48 11.634 6.696 12.806-1.435 21.09-14.827 33.419-17.928 8.054-2.639 14.703 1.913 20.397 6.465 4.258 2.622 10.198 1.897 14.24-.726-13.3 10.754-22.294 26.8-23.73 44.266-1.897-8.146-6.88-17.003-14.934-19.872-9.01-3.349-16.849 2.16-23.005 8.146-5.678 5.971-8.054 13.64-11.14 20.814 4.259-3.842 9.505-8.857 15.892-10.06 8.07-2.392 15.645.247 22.048 5.014 2.13 2.176 4.721 4.074 5.693 7.437-8.069 5.477-10.676 14.827-10.198 24.64-2.608-7.653-5.462-16.987-14.226-20.335-5.693-2.392-12.806-1.682-17.31 3.116-3.78 4.043-4.028 10.508-3.087 16.016 3.564 15.552 17.79 24.64 31.306 29.191 13.994 5.03 26.8 17.944 28.45 33.265 2.13-.494 5.694-2.175 7.576.216 2.145-7.159 5.462-16.494 14.01-18.87 6.156-2.406 12.559 0 17.296 4.29 4.983 5.523 7.344 12.682 5.94 20.35-.71 3.102-2.145 5.987-4.043 8.594.726-3.58 1.188-9.319-1.188-12.667-1.897-2.638-4.736-4.551-7.822-4.551-2.36-.247-4.027 1.203-5.215 3.1-2.608 11.727 12.08 14.844 12.544 25.844.262 5.987-2.114 11.495-7.33 14.118-5.677 2.391-11.849.247-15.89-4.073-2.13-1.898-3.781-4.305-4.738-6.697 4.259 2.16 12.097 4.32 16.602.247 2.13-1.913 3.086-4.304 3.086-7.174.463-4.305-2.855-7.915-5.694-10.291-2.607-1.913-5.446-3.117-8.763-3.61 1.882 3.841 1.65 9.118-.972 12.466-4.259 5.97-11.834 5.508-18.484 4.783-7.113 17.928-26.785 27.51-44.327 32.293l-12.806.94c8.053 5.046 16.586 8.872 25.118 12.93 4.52-8.13 10.908-17.218 20.644-19.132 7.113-.956 13.747 1.435 17.79 7.16 3.317 6.001 5.446 14.132 2.591 21.075l-3.085 5.74c1.42-5.261-.232-11.973-4.737-16.03-2.36-1.93-5.446-2.87-8.532-2.392-2.855.463-5.694 2.391-6.635 5.246-3.086 14.133 17.774 14.364 15.414 28.713-.479 3.842-2.145 6.927-5.462 9.566-4.968 4.088-13.994 4.551-19.903 1.45-3.811-1.45-7.129-4.551-10.214-7.174-4.737 2.623-12.097 2.854-16.34-.972-6.403-5.246-7.59-12.899-9.504-20.32-26.075-10.307-50.499-25.365-70.88-47.367-14.473-15.552-20.86-36.86-17.558-58.63 3.317-20.089 1.419-43.325-15.877-55.267-8.07-4.32-18.484-6.449-27.51-2.885-9.01 3.842-15.182 13.886-15.413 23.93.478 17.96 10.445 33.018 18.5 48.324 7.59 18.19 4.258 40.933-9.953 54.31-11.14 13.654-27.031 17.712-39.359 28.945-1.65 1.666-2.376 4.32-1.42 6.48 4.012 5.261 11.835 5.261 18.485 4.783 14.225-2.623 24.887-13.393 38.418-17.234 8.532-1.188 16.817 1.681 21.338 9.103 1.65 3.116 3.07 7.159 1.898 11-1.188 3.827-4.027 7.422-7.36 9.073-2.114.972-5.2.74-7.56.509 2.823-.972 6.372-3.132 7.329-6.959.71-3.1-.247-6.464-2.361-8.84-2.607-2.392-5.462-3.595-9.01-3.595 2.129 2.638 4.042 6.218 3.548 10.275-.956 6.234-5.215 12.205-11.386 13.902-3.07.956-6.157-.263-8.764-1.929-2.36-1.928-3.333-4.088-4.52-6.45 1.666 1.667 3.795 2.855 6.17 2.624 3.334-.463 5.694-2.392 6.882-5.508.71-2.145.71-5.03-.478-6.943-1.42-2.145-3.78-3.58-6.635-2.87-9.01 2.87-10.892 15.552-20.15 18.422-11.85.957-24.424-.463-36.751.247l-37.462.941c-2.145-.694-4.737-1.188-5.693-3.564-4.274-7.205 6.418-15.321-2.608-20.814-22.757-15.552-48.138-31.104-63.089-56.47-13.485-22.711-25.118-56.948-8.038-81.82 8.995-12.929 23.946-20.581 40.3-17.712 13.038 1.667 23.946 12.451 27.263 24.887l.725 4.305c-4.983-8.856-13.037-17.713-23.236-21.06.942 2.638.479 6.48 0 9.334-1.928-4.305-7.112-8.131-11.864-9.813 2.129 3.826 4.505 8.378 3.795 13.408-3.317-3.842-8.3-7.668-13.747-6.233 4.258 3.61 8.054 7.42 9.705 12.929-3.796-2.391-9.49-4.768-14.673-2.638 4.505 2.885 12.543 5.26 12.543 12.698-2.36-1.682-5.677-2.392-8.532-1.682l-3.548 1.682c3.548 1.435 8.532 2.623 11.124 6.449l2.145 3.826c-4.969-.463-10.184.232-13.732 4.074 5.446.94 11.124 1.666 14.688 6.696-4.737 1.203-9.72 3.81-11.386 9.072 4.505-2.376 11.386-2.376 15.66 1.203-5.23 2.901-10.692 8.363-9.242 15.321 4.49-3.58 10.893-6.696 17.064-3.826-6.65 2.854-10.908 9.566-11.155 16.262l.247 1.929c4.737-5.508 10.908-9.103 18.253-7.669-6.403 3.117-9.242 9.582-8.517 16.756 1.172-.725 2.114-2.391 3.533-3.363 4.52-2.855 9.026-5.724 14.24-5.971-3.563 4.783-8.562 11-6.402 17.944 3.317-6.234 9.458-12.93 16.586-13.64-3.549 4.799-4.752 10.77-4.752 17.003 4.983-6.958 12.343-15.09 20.644-18.19-2.855 5.26-5.462 14.102-2.36 20.582 2.36-7.9 7.328-16.046 13.253-21.308-1.173 6.712.956 12.93 6.171 17.481l.463-.493c-.231-8.625 3.101-16.031 7.344-22.496-.94 5.77 2.392 11.001 7.375 13.87l2.114.957c-2.36-5.97-4.027-12.914-2.839-20.32 4.29 4.537 10.446 10.045 17.311 9.104-10.198-9.104-20.397-19.163-24.655-31.846 4.027 4.32 10.43 7.206 17.311 6.712-12.806-9.103-24.424-24.872-25.612-41.396 2.855 6.712 9.242 11.957 15.892 14.349-9.026-13.408-18.484-28.945-13.531-47.12 1.203 8.61 6.171 18.175 15.182 20.814-4.984-9.35-11.618-18.9-10.199-30.874.479-7.406 2.855-14.596 7.113-20.567-3.07 6.697-3.564 17.235 2.623 23.437l.463.494c-1.898-18.67 5.215-37.091 21.354-45.7l6.14-3.364c-4.968 6.464-8.285 13.407-8.285 21.77 7.097-15.306 22.032-30.364 41.01-29.408 2.839-.246 5.446.232 8.07.71-7.823 3.595-17.543 9.581-18.5 19.379 12.806-11.726 30.812-18.175 48.37-11.726 4.027 1.666 8.517 3.826 11.155 7.19-6.187-3.364-13.269-.725-18.5 2.623-2.36 1.681-5.677 4.073-6.65 6.943 12.097-4.552 30.58-7.668 40.085 4.551l5.925 9.32c-6.403-4.305-13.994-7.885-22.295-6.219-1.42.479-2.839 1.22-4.258 2.407 13.284.463 26.306 6.928 31.752 19.364l1.667 7.421c-3.317-6.45-10.183-12.914-18.021-13.16 4.505 4.782 11.37 9.58 13.515 16.277 4.506 10.044 5.694 22.248 16.602 28.466a45.676 45.676 0 0 0 13.516 4.32c-16.355-6.711-22.295-26.337-23.468-43.556 4.027 5.03 9.242 9.566 14.92 11.958-2.839-3.595-5.678-5.987-8.763-9.798-9.49-11.479-15.167-26.568-11.618-41.874 2.607-9.813 9.241-17.96 15.644-26.06-5.2 10.03-6.156 24.625.232 34.438 3.086 4.798 7.375 8.84 11.633 11.958-8.3-11.017-12.096-27.294-7.128-41.396 7.113-19.364 27.047-29.655 46.24-31.105l4.506.247z" fill="#006"/><path d="M369.94 115.557c3.086 2.391 7.591 3.826 11.634 2.145.679-.232 1.404-.71 2.36-.942-3.548 3.827-7.36 11.711-13.994 10.045-5.693-4.305-3.548-13.161-4.042-19.626.247 3.348 1.666 5.986 4.042 8.378M350.97 228.72c4.737-.493 9.011-3.595 11.634-7.42 2.839 8.624 7.097 21.785 0 29.916-2.16 2.144-4.752 3.101-7.838 3.101-11.865-.71-17.064-13.16-20.382-23.205-2.391-6.943-2.391-14.596-3.332-22.249 3.564 8.363 9.489 20.089 19.919 19.857M421.871 329.924c2.145 2.16 3.317 4.52 2.854 7.668 0 2.607-2.391 5.23-4.536 6.202-4.952 2.176-10.893.463-15.166-1.913 4.042-4.073 6.418-8.84 7.128-14.118 3.548-.493 6.866.232 9.72 2.16M430.874 101.924c.463 2.638-.957 4.783-3.086 5.74-3.564.956-8.285.956-10.908-1.93-1.173-1.665-1.898-4.057-.478-5.723 3.564-4.305 11.849-3.348 14.472 1.913M391.044 330.875c-.231 2.16-1.882 4.058-4.027 4.552-2.854.231-3.549-2.392-4.258-4.552l-.263-3.332 8.548 3.332zM441.78 254.083c-.232 3.826-2.84 5.508-6.173 6.696 1.189-3.595 1.435-7.9.973-11.71 2.113.956 4.242 2.622 5.2 5.014" fill="#ffdb57"/></svg>