<svg xmlns="http://www.w3.org/2000/svg" viewBox="0 0 382.35129 602.80176" height="602.802" width="382.351"><rect width="381.348" height="601.798" x=".502" y=".502" rx="2.007" ry="2.006" fill="#fff" stroke="#f5f6ff" stroke-width="1.003" stroke-opacity=".941"/><path d="M.903 46.1h378.75M.903 78.6h378.75M.903 111.1h378.75M.903 143.6h378.75M.903 176.1h378.75M.903 208.6h378.75M.903 241.1h378.75M.903 273.6h378.75M.903 306.1h378.75M.903 338.6h378.75M.903 371.1h378.75M.903 403.6h378.75M.903 436.1h378.75M.903 468.6h378.75M.903 501.1h378.75M.903 533.6h378.75" fill="none" stroke="#e9e9e9" stroke-width="16.25" stroke-miterlimit="10"/><text transform="matrix(1.25 0 0 1.25 255.903 8.595)" style="-inkscape-font-specification:HaarlemmerMTPro-MediumIt" font-style="italic" font-weight="500" font-size="8.5" font-family="Haarlemmer MT Pro Medium" fill="#231f20"><tspan x="0" y="0">n</tspan></text><text transform="matrix(1.25 0 0 1.25 263.988 8.595)" style="-inkscape-font-specification:HaarlemmerMTPro-MediumIt" font-style="italic" font-weight="500" font-size="8.5" font-family="Haarlemmer MT Pro Medium" fill="#231f20"><tspan x="0 4.4115 11.033 15.47 19.2185" y="0">umber</tspan></text><text transform="matrix(1.25 0 0 1.25 330.905 8.595)" style="-inkscape-font-specification:HaarlemmerMTPro-MediumIt" font-style="italic" font-weight="500" font-size="8.5" font-family="Haarlemmer MT Pro Medium" fill="#231f20"><tspan x="0 4.6834998 8.4320002 11.6535 15.147 18.8785 23.375 26.2395 30.617001 34.714001 38.241501" y="0">Percentage</tspan></text><text transform="matrix(1.25 0 0 1.25 117.15 20.782)" style="-inkscape-font-specification:HaarlemmerMTPro-MediumIt" font-style="italic" font-weight="500" font-size="8.5" font-family="Haarlemmer MT Pro Medium" fill="#231f20"><tspan x="0" y="0">n</tspan></text><text transform="matrix(1.25 0 0 1.25 125.236 20.782)" style="-inkscape-font-specification:HaarlemmerMTPro-MediumIt" font-style="italic" font-weight="500" font-size="8.5" font-family="Haarlemmer MT Pro Medium" fill="#231f20"><tspan x="0 4.4115 11.033 15.47 19.2185" y="0">umber</tspan></text><text transform="matrix(1.25 0 0 1.25 188.402 20.782)" style="-inkscape-font-specification:HaarlemmerMTPro-MediumIt" font-style="italic" font-weight="500" font-size="8.5" font-family="Haarlemmer MT Pro Medium" fill="#231f20"><tspan x="0" y="0">t</tspan></text><text transform="matrix(1.25 0 0 1.25 194.405 20.782)" style="-inkscape-font-specification:HaarlemmerMTPro-MediumIt" font-style="italic" font-weight="500" font-size="8.5" font-family="Haarlemmer MT Pro Medium" fill="#231f20"><tspan x="0 4.4029999 7.2674999 11.5005" y="0">otal</tspan></text><text transform="matrix(1.25 0 0 1.25 255.903 20.782)" style="-inkscape-font-specification:HaarlemmerMTPro-MediumIt" font-style="italic" font-weight="500" font-size="8.5" font-family="Haarlemmer MT Pro Medium" fill="#231f20"><tspan x="0 4.3775001 6.8509998 8.3470001 14.7475 17.0765 20.8335 23.256001 25.525499 28.066999 32.299999 36.796501" y="0">of Civilians</tspan></text><text transform="matrix(1.25 0 0 1.25 330.905 20.782)" style="-inkscape-font-specification:HaarlemmerMTPro-MediumIt" font-style="italic" font-weight="500" font-size="8.5" font-family="Haarlemmer MT Pro Medium" fill="#231f20"><tspan x="0 4.2925 6.6810002 8.092 14.4075 16.651501 20.3235 22.660999 24.845501" y="0">of Civili</tspan></text><text transform="matrix(1.25 0 0 1.25 365.032 20.782)" style="-inkscape-font-specification:HaarlemmerMTPro-MediumIt" font-style="italic" font-weight="500" font-size="8.5" font-family="Haarlemmer MT Pro Medium" fill="#231f20"><tspan x="0 4.1479998 8.5594997 11.4325" y="0">ans </tspan><tspan x="-291.3035 -286.263 -281.673 -277.26151 -274.04001 -270.54651 -267.05301" y="9.75">Source/</tspan></text><text transform="matrix(1.25 0 0 1.25 34.85 32.969)" style="-inkscape-font-specification:HaarlemmerMTPro-MediumIt" font-style="italic" font-weight="500" font-size="8.5" font-family="Haarlemmer MT Pro Medium" fill="#231f20"><tspan x="0" y="0">y</tspan></text><text transform="matrix(1.25 0 0 1.25 41.065 32.969)" style="-inkscape-font-specification:HaarlemmerMTPro-MediumIt" font-style="italic" font-weight="500" font-size="8.5" font-family="Haarlemmer MT Pro Medium" fill="#231f20"><tspan x="0 3.6040001 7.8369999" y="0">ear</tspan></text><text transform="matrix(1.25 0 0 1.25 117.15 32.969)" style="-inkscape-font-specification:HaarlemmerMTPro-MediumIt" font-style="italic" font-weight="500" font-size="8.5" font-family="Haarlemmer MT Pro Medium" fill="#231f20"><tspan x="0 4.3775001 6.8509998 8.3470001 13.3875 16.1245 19.609501 22.040501 26.664499 30.268499" y="0">of Strikes</tspan></text><text transform="matrix(1.25 0 0 1.25 188.402 32.969)" style="-inkscape-font-specification:HaarlemmerMTPro-MediumIt" font-style="italic" font-weight="500" font-size="8.5" font-family="Haarlemmer MT Pro Medium" fill="#231f20"><tspan x="0 6.0009999 8.4235001 10.693 13.175 16.668501" y="0">Killed</tspan></text><text transform="matrix(1.25 0 0 1.25 255.903 32.969)" style="-inkscape-font-specification:HaarlemmerMTPro-MediumIt" font-style="italic" font-weight="500" font-size="8.5" font-family="Haarlemmer MT Pro Medium" fill="#231f20"><tspan x="0 6.0009999 8.4235001 10.693 13.175 16.668501" y="0">Killed</tspan></text><text transform="matrix(1.25 0 0 1.25 330.905 32.969)" style="-inkscape-font-specification:HaarlemmerMTPro-MediumIt" font-style="italic" font-weight="500" font-size="8.5" font-family="Haarlemmer MT Pro Medium" fill="#231f20"><tspan x="0 6.0009999 8.4235001 10.693 13.175 16.668501" y="0">Killed</tspan><tspan x="-264.0015 -259.3775 -255.1445 -250.7075 -248.37849 -245.37801 -242.5135 -238.2805" y="12.996">Pakistan</tspan></text><text transform="matrix(1.25 0 0 1.25 15.905 65.46)" style="-inkscape-font-specification:HaarlemmerMTPro-Regular" font-weight="400" font-size="8.5" font-family="Haarlemmer MT Pro" fill="#231f20"><tspan x="0 6.6215 12.818" y="0">NAF</tspan></text><text transform="matrix(1.25 0 0 1.25 116.63 65.46)" style="-inkscape-font-specification:HaarlemmerMTPro-Regular" font-weight="400" font-size="8.5" font-family="Haarlemmer MT Pro" fill="#231f20"><tspan x="0 4.6409998 9.2819996" y="0">340</tspan></text><text transform="matrix(1.25 0 0 1.25 187.18 65.46)" style="-inkscape-font-specification:HaarlemmerMTPro-Regular" font-weight="400" font-size="8.5" font-family="Haarlemmer MT Pro" fill="#231f20"><tspan x="0 4.6409998 6.5619998 11.203 15.844" y="0">2,572</tspan></text><text transform="matrix(1.25 0 0 1.25 255.382 65.46)" style="-inkscape-font-specification:HaarlemmerMTPro-Regular" font-weight="400" font-size="8.5" font-family="Haarlemmer MT Pro" fill="#231f20"><tspan x="0 4.6409998 9.2819996" y="0">175</tspan></text><text transform="matrix(1.25 0 0 1.25 336.313 65.46)" style="-inkscape-font-specification:HaarlemmerMTPro-Regular" font-weight="400" font-size="8.5" font-family="Haarlemmer MT Pro" fill="#231f20"><tspan x="0" y="0">7</tspan></text><text transform="matrix(1.25 0 0 1.25 16.245 81.705)" style="-inkscape-font-specification:HaarlemmerMTPro-Regular" font-weight="400" font-size="8.5" font-family="Haarlemmer MT Pro" fill="#231f20"><tspan x="0 4.6834998 9.3669996 14.0505 18.733999 22.9925 27.676001" y="0">2004–20</tspan></text><text transform="matrix(1.25 0 0 1.25 56.695 81.705)" style="-inkscape-font-specification:HaarlemmerMTPro-Regular" font-weight="400" font-size="8.5" font-family="Haarlemmer MT Pro" fill="#231f20"><tspan x="0 4.6834998" y="0">07</tspan></text><text transform="matrix(1.25 0 0 1.25 122.42 81.705)" style="-inkscape-font-specification:HaarlemmerMTPro-Regular" font-weight="400" font-size="8.5" font-family="Haarlemmer MT Pro" fill="#231f20"><tspan x="0 4.6409998" y="0">10</tspan></text><text transform="matrix(1.25 0 0 1.25 195.372 81.705)" style="-inkscape-font-specification:HaarlemmerMTPro-Regular" font-weight="400" font-size="8.5" font-family="Haarlemmer MT Pro" fill="#231f20"><tspan x="0 4.6409998 9.2819996" y="0">178</tspan></text><text transform="matrix(1.25 0 0 1.25 255.371 81.705)" style="-inkscape-font-specification:HaarlemmerMTPro-Regular" font-weight="400" font-size="8.5" font-family="Haarlemmer MT Pro" fill="#231f20"><tspan x="0 4.6409998 9.2819996" y="0">101</tspan></text><text transform="matrix(1.25 0 0 1.25 330.5 81.705)" style="-inkscape-font-specification:HaarlemmerMTPro-Regular" font-weight="400" font-size="8.5" font-family="Haarlemmer MT Pro" fill="#231f20"><tspan x="0 4.6409998" y="0">58</tspan></text><text transform="matrix(1.25 0 0 1.25 45.188 97.951)" style="-inkscape-font-specification:HaarlemmerMTPro-Regular" font-weight="400" font-size="8.5" font-family="Haarlemmer MT Pro" fill="#231f20"><tspan x="0 4.6409998 9.2819996 13.923" y="0">2008</tspan></text><text transform="matrix(1.25 0 0 1.25 122.41 97.951)" style="-inkscape-font-specification:HaarlemmerMTPro-Regular" font-weight="400" font-size="8.5" font-family="Haarlemmer MT Pro" fill="#231f20"><tspan x="0 4.6409998" y="0">36</tspan></text><text transform="matrix(1.25 0 0 1.25 195.361 97.951)" style="-inkscape-font-specification:HaarlemmerMTPro-Regular" font-weight="400" font-size="8.5" font-family="Haarlemmer MT Pro" fill="#231f20"><tspan x="0 4.6409998 9.2819996" y="0">282</tspan></text><text transform="matrix(1.25 0 0 1.25 261.162 97.951)" style="-inkscape-font-specification:HaarlemmerMTPro-Regular" font-weight="400" font-size="8.5" font-family="Haarlemmer MT Pro" fill="#231f20"><tspan x="0 4.6409998" y="0">25</tspan></text><text transform="matrix(1.25 0 0 1.25 330.49 97.951)" style="-inkscape-font-specification:HaarlemmerMTPro-Regular" font-weight="400" font-size="8.5" font-family="Haarlemmer MT Pro" fill="#231f20"><tspan x="0 4.6409998" y="0">10</tspan></text><text transform="matrix(1.25 0 0 1.25 45.177 114.197)" style="-inkscape-font-specification:HaarlemmerMTPro-Regular" font-weight="400" font-size="8.5" font-family="Haarlemmer MT Pro" fill="#231f20"><tspan x="0 4.6409998 9.2819996 13.923" y="0">2009</tspan></text><text transform="matrix(1.25 0 0 1.25 122.4 114.197)" style="-inkscape-font-specification:HaarlemmerMTPro-Regular" font-weight="400" font-size="8.5" font-family="Haarlemmer MT Pro" fill="#231f20"><tspan x="0 4.6409998" y="0">54</tspan></text><text transform="matrix(1.25 0 0 1.25 195.35 114.197)" style="-inkscape-font-specification:HaarlemmerMTPro-Regular" font-weight="400" font-size="8.5" font-family="Haarlemmer MT Pro" fill="#231f20"><tspan x="0 4.6409998 9.2819996" y="0">536</tspan></text><text transform="matrix(1.25 0 0 1.25 261.151 114.197)" style="-inkscape-font-specification:HaarlemmerMTPro-Regular" font-weight="400" font-size="8.5" font-family="Haarlemmer MT Pro" fill="#231f20"><tspan x="0 4.6409998" y="0">25</tspan></text><text transform="matrix(1.25 0 0 1.25 336.28 114.197)" style="-inkscape-font-specification:HaarlemmerMTPro-Regular" font-weight="400" font-size="8.5" font-family="Haarlemmer MT Pro" fill="#231f20"><tspan x="0" y="0">6</tspan></text><text transform="matrix(1.25 0 0 1.25 45.166 130.442)" style="-inkscape-font-specification:HaarlemmerMTPro-Regular" font-weight="400" font-size="8.5" font-family="Haarlemmer MT Pro" fill="#231f20"><tspan x="0 4.6409998 9.2819996 13.923" y="0">2010</tspan></text><text transform="matrix(1.25 0 0 1.25 116.588 130.442)" style="-inkscape-font-specification:HaarlemmerMTPro-Regular" font-weight="400" font-size="8.5" font-family="Haarlemmer MT Pro" fill="#231f20"><tspan x="0 4.6409998 9.2819996" y="0">122</tspan></text><text transform="matrix(1.25 0 0 1.25 195.34 130.442)" style="-inkscape-font-specification:HaarlemmerMTPro-Regular" font-weight="400" font-size="8.5" font-family="Haarlemmer MT Pro" fill="#231f20"><tspan x="0 4.6409998 9.2819996" y="0">818</tspan></text><text transform="matrix(1.25 0 0 1.25 261.14 130.442)" style="-inkscape-font-specification:HaarlemmerMTPro-Regular" font-weight="400" font-size="8.5" font-family="Haarlemmer MT Pro" fill="#231f20"><tspan x="0 4.6409998" y="0">14</tspan></text><text transform="matrix(1.25 0 0 1.25 336.27 130.442)" style="-inkscape-font-specification:HaarlemmerMTPro-Regular" font-weight="400" font-size="8.5" font-family="Haarlemmer MT Pro" fill="#231f20"><tspan x="0" y="0">2</tspan></text><text transform="matrix(1.25 0 0 1.25 45.156 146.688)" style="-inkscape-font-specification:HaarlemmerMTPro-Regular" font-weight="400" font-size="8.5" font-family="Haarlemmer MT Pro" fill="#231f20"><tspan x="0 4.6409998 9.2819996 13.923" y="0">2011</tspan></text><text transform="matrix(1.25 0 0 1.25 122.378 146.688)" style="-inkscape-font-specification:HaarlemmerMTPro-Regular" font-weight="400" font-size="8.5" font-family="Haarlemmer MT Pro" fill="#231f20"><tspan x="0 4.6409998" y="0">72</tspan></text><text transform="matrix(1.25 0 0 1.25 195.33 146.688)" style="-inkscape-font-specification:HaarlemmerMTPro-Regular" font-weight="400" font-size="8.5" font-family="Haarlemmer MT Pro" fill="#231f20"><tspan x="0 4.6409998 9.2819996" y="0">483</tspan></text><text transform="matrix(1.25 0 0 1.25 266.931 146.688)" style="-inkscape-font-specification:HaarlemmerMTPro-Regular" font-weight="400" font-size="8.5" font-family="Haarlemmer MT Pro" fill="#231f20"><tspan x="0" y="0">6</tspan></text><text transform="matrix(1.25 0 0 1.25 336.26 146.688)" style="-inkscape-font-specification:HaarlemmerMTPro-Regular" font-weight="400" font-size="8.5" font-family="Haarlemmer MT Pro" fill="#231f20"><tspan x="0" y="0">1</tspan></text><text transform="matrix(1.25 0 0 1.25 45.145 162.934)" style="-inkscape-font-specification:HaarlemmerMTPro-Regular" font-weight="400" font-size="8.5" font-family="Haarlemmer MT Pro" fill="#231f20"><tspan x="0 4.6409998 9.2819996 13.923" y="0">2012</tspan></text><text transform="matrix(1.25 0 0 1.25 122.368 162.934)" style="-inkscape-font-specification:HaarlemmerMTPro-Regular" font-weight="400" font-size="8.5" font-family="Haarlemmer MT Pro" fill="#231f20"><tspan x="0 4.6409998" y="0">46</tspan></text><text transform="matrix(1.25 0 0 1.25 195.319 162.934)" style="-inkscape-font-specification:HaarlemmerMTPro-Regular" font-weight="400" font-size="8.5" font-family="Haarlemmer MT Pro" fill="#231f20"><tspan x="0 4.6409998 9.2819996" y="0">277</tspan></text><text transform="matrix(1.25 0 0 1.25 266.92 162.934)" style="-inkscape-font-specification:HaarlemmerMTPro-Regular" font-weight="400" font-size="8.5" font-family="Haarlemmer MT Pro" fill="#231f20"><tspan x="0" y="0">5</tspan></text><text transform="matrix(1.25 0 0 1.25 336.249 162.934)" style="-inkscape-font-specification:HaarlemmerMTPro-Regular" font-weight="400" font-size="8.5" font-family="Haarlemmer MT Pro" fill="#231f20"><tspan x="0" y="0">2</tspan><tspan x="-256.32599 -251.88901 -243.39751" y="12.996">LWJ</tspan></text><text transform="matrix(1.25 0 0 1.25 116.566 179.18)" style="-inkscape-font-specification:HaarlemmerMTPro-Regular" font-weight="400" font-size="8.5" font-family="Haarlemmer MT Pro" fill="#231f20"><tspan x="0 4.6409998 9.2819996" y="0">325</tspan></text><text transform="matrix(1.25 0 0 1.25 187.116 179.18)" style="-inkscape-font-specification:HaarlemmerMTPro-Regular" font-weight="400" font-size="8.5" font-family="Haarlemmer MT Pro" fill="#231f20"><tspan x="0 4.6409998 6.5619998 11.203 15.844" y="0">2,592</tspan></text><text transform="matrix(1.25 0 0 1.25 255.318 179.18)" style="-inkscape-font-specification:HaarlemmerMTPro-Regular" font-weight="400" font-size="8.5" font-family="Haarlemmer MT Pro" fill="#231f20"><tspan x="0 4.6409998 9.2819996" y="0">142</tspan></text><text transform="matrix(1.25 0 0 1.25 336.249 179.18)" style="-inkscape-font-specification:HaarlemmerMTPro-Regular" font-weight="400" font-size="8.5" font-family="Haarlemmer MT Pro" fill="#231f20"><tspan x="0" y="0">5</tspan></text><text transform="matrix(1.25 0 0 1.25 45.135 195.425)" style="-inkscape-font-specification:HaarlemmerMTPro-Regular" font-weight="400" font-size="8.5" font-family="Haarlemmer MT Pro" fill="#231f20"><tspan x="0 4.6409998 9.2819996 13.923" y="0">2004</tspan></text><text transform="matrix(1.25 0 0 1.25 128.158 195.425)" style="-inkscape-font-specification:HaarlemmerMTPro-Regular" font-weight="400" font-size="8.5" font-family="Haarlemmer MT Pro" fill="#231f20"><tspan x="0" y="0">1</tspan></text><text transform="matrix(1.25 0 0 1.25 45.135 211.67)" style="-inkscape-font-specification:HaarlemmerMTPro-Regular" font-weight="400" font-size="8.5" font-family="Haarlemmer MT Pro" fill="#231f20"><tspan x="0 4.6409998 9.2819996 13.923" y="0">2005</tspan></text><text transform="matrix(1.25 0 0 1.25 128.158 211.67)" style="-inkscape-font-specification:HaarlemmerMTPro-Regular" font-weight="400" font-size="8.5" font-family="Haarlemmer MT Pro" fill="#231f20"><tspan x="0" y="0">1</tspan></text><text transform="matrix(1.25 0 0 1.25 45.135 227.916)" style="-inkscape-font-specification:HaarlemmerMTPro-Regular" font-weight="400" font-size="8.5" font-family="Haarlemmer MT Pro" fill="#231f20"><tspan x="0 4.6409998 9.2819996 13.923" y="0">2006</tspan></text><text transform="matrix(1.25 0 0 1.25 128.158 227.916)" style="-inkscape-font-specification:HaarlemmerMTPro-Regular" font-weight="400" font-size="8.5" font-family="Haarlemmer MT Pro" fill="#231f20"><tspan x="0" y="0">3</tspan></text><text transform="matrix(1.25 0 0 1.25 195.308 227.916)" style="-inkscape-font-specification:HaarlemmerMTPro-Regular" font-weight="400" font-size="8.5" font-family="Haarlemmer MT Pro" fill="#231f20"><tspan x="0 4.6409998 9.2819996" y="0">142</tspan></text><text transform="matrix(1.25 0 0 1.25 261.109 227.916)" style="-inkscape-font-specification:HaarlemmerMTPro-Regular" font-weight="400" font-size="8.5" font-family="Haarlemmer MT Pro" fill="#231f20"><tspan x="0 4.6409998" y="0">20</tspan></text><text transform="matrix(1.25 0 0 1.25 330.437 227.916)" style="-inkscape-font-specification:HaarlemmerMTPro-Regular" font-weight="400" font-size="8.5" font-family="Haarlemmer MT Pro" fill="#231f20"><tspan x="0 4.6409998" y="0">14</tspan></text><text transform="matrix(1.25 0 0 1.25 45.124 244.162)" style="-inkscape-font-specification:HaarlemmerMTPro-Regular" font-weight="400" font-size="8.5" font-family="Haarlemmer MT Pro" fill="#231f20"><tspan x="0 4.6409998 9.2819996 13.923" y="0">2007</tspan></text><text transform="matrix(1.25 0 0 1.25 128.148 244.162)" style="-inkscape-font-specification:HaarlemmerMTPro-Regular" font-weight="400" font-size="8.5" font-family="Haarlemmer MT Pro" fill="#231f20"><tspan x="0" y="0">5</tspan></text><text transform="matrix(1.25 0 0 1.25 201.099 244.162)" style="-inkscape-font-specification:HaarlemmerMTPro-Regular" font-weight="400" font-size="8.5" font-family="Haarlemmer MT Pro" fill="#231f20"><tspan x="0 4.6409998" y="0">73</tspan></text><text transform="matrix(1.25 0 0 1.25 266.9 244.162)" style="-inkscape-font-specification:HaarlemmerMTPro-Regular" font-weight="400" font-size="8.5" font-family="Haarlemmer MT Pro" fill="#231f20"><tspan x="0" y="0">0</tspan></text><text transform="matrix(1.25 0 0 1.25 336.228 244.162)" style="-inkscape-font-specification:HaarlemmerMTPro-Regular" font-weight="400" font-size="8.5" font-family="Haarlemmer MT Pro" fill="#231f20"><tspan x="0" y="0">0</tspan></text><text transform="matrix(1.25 0 0 1.25 45.113 260.407)" style="-inkscape-font-specification:HaarlemmerMTPro-Regular" font-weight="400" font-size="8.5" font-family="Haarlemmer MT Pro" fill="#231f20"><tspan x="0 4.6409998 9.2819996 13.923" y="0">2008</tspan></text><text transform="matrix(1.25 0 0 1.25 122.336 260.407)" style="-inkscape-font-specification:HaarlemmerMTPro-Regular" font-weight="400" font-size="8.5" font-family="Haarlemmer MT Pro" fill="#231f20"><tspan x="0 4.6409998" y="0">35</tspan></text><text transform="matrix(1.25 0 0 1.25 195.287 260.407)" style="-inkscape-font-specification:HaarlemmerMTPro-Regular" font-weight="400" font-size="8.5" font-family="Haarlemmer MT Pro" fill="#231f20"><tspan x="0 4.6409998 9.2819996" y="0">317</tspan></text><text transform="matrix(1.25 0 0 1.25 261.088 260.407)" style="-inkscape-font-specification:HaarlemmerMTPro-Regular" font-weight="400" font-size="8.5" font-family="Haarlemmer MT Pro" fill="#231f20"><tspan x="0 4.6409998" y="0">31</tspan></text><text transform="matrix(1.25 0 0 1.25 330.416 260.407)" style="-inkscape-font-specification:HaarlemmerMTPro-Regular" font-weight="400" font-size="8.5" font-family="Haarlemmer MT Pro" fill="#231f20"><tspan x="0 4.6409998" y="0">10</tspan></text><text transform="matrix(1.25 0 0 1.25 45.103 276.653)" style="-inkscape-font-specification:HaarlemmerMTPro-Regular" font-weight="400" font-size="8.5" font-family="Haarlemmer MT Pro" fill="#231f20"><tspan x="0 4.6409998 9.2819996 13.923" y="0">2009</tspan></text><text transform="matrix(1.25 0 0 1.25 122.325 276.653)" style="-inkscape-font-specification:HaarlemmerMTPro-Regular" font-weight="400" font-size="8.5" font-family="Haarlemmer MT Pro" fill="#231f20"><tspan x="0 4.6409998" y="0">53</tspan></text><text transform="matrix(1.25 0 0 1.25 195.276 276.653)" style="-inkscape-font-specification:HaarlemmerMTPro-Regular" font-weight="400" font-size="8.5" font-family="Haarlemmer MT Pro" fill="#231f20"><tspan x="0 4.6409998 9.2819996" y="0">506</tspan></text><text transform="matrix(1.25 0 0 1.25 261.077 276.653)" style="-inkscape-font-specification:HaarlemmerMTPro-Regular" font-weight="400" font-size="8.5" font-family="Haarlemmer MT Pro" fill="#231f20"><tspan x="0 4.6409998" y="0">43</tspan></text><text transform="matrix(1.25 0 0 1.25 336.206 276.653)" style="-inkscape-font-specification:HaarlemmerMTPro-Regular" font-weight="400" font-size="8.5" font-family="Haarlemmer MT Pro" fill="#231f20"><tspan x="0" y="0">9</tspan></text><text transform="matrix(1.25 0 0 1.25 45.092 292.899)" style="-inkscape-font-specification:HaarlemmerMTPro-Regular" font-weight="400" font-size="8.5" font-family="Haarlemmer MT Pro" fill="#231f20"><tspan x="0 4.6409998 9.2819996 13.923" y="0">2010</tspan></text><text transform="matrix(1.25 0 0 1.25 116.513 292.899)" style="-inkscape-font-specification:HaarlemmerMTPro-Regular" font-weight="400" font-size="8.5" font-family="Haarlemmer MT Pro" fill="#231f20"><tspan x="0 4.6409998 9.2819996" y="0">117</tspan></text><text transform="matrix(1.25 0 0 1.25 195.266 292.899)" style="-inkscape-font-specification:HaarlemmerMTPro-Regular" font-weight="400" font-size="8.5" font-family="Haarlemmer MT Pro" fill="#231f20"><tspan x="0 4.6409998 9.2819996" y="0">815</tspan></text><text transform="matrix(1.25 0 0 1.25 261.066 292.899)" style="-inkscape-font-specification:HaarlemmerMTPro-Regular" font-weight="400" font-size="8.5" font-family="Haarlemmer MT Pro" fill="#231f20"><tspan x="0 4.6409998" y="0">14</tspan></text><text transform="matrix(1.25 0 0 1.25 336.196 292.899)" style="-inkscape-font-specification:HaarlemmerMTPro-Regular" font-weight="400" font-size="8.5" font-family="Haarlemmer MT Pro" fill="#231f20"><tspan x="0" y="0">2</tspan></text><text transform="matrix(1.25 0 0 1.25 45.081 309.144)" style="-inkscape-font-specification:HaarlemmerMTPro-Regular" font-weight="400" font-size="8.5" font-family="Haarlemmer MT Pro" fill="#231f20"><tspan x="0 4.6409998 9.2819996 13.923" y="0">2011</tspan></text><text transform="matrix(1.25 0 0 1.25 122.304 309.144)" style="-inkscape-font-specification:HaarlemmerMTPro-Regular" font-weight="400" font-size="8.5" font-family="Haarlemmer MT Pro" fill="#231f20"><tspan x="0 4.6409998" y="0">64</tspan></text><text transform="matrix(1.25 0 0 1.25 195.255 309.144)" style="-inkscape-font-specification:HaarlemmerMTPro-Regular" font-weight="400" font-size="8.5" font-family="Haarlemmer MT Pro" fill="#231f20"><tspan x="0 4.6409998 9.2819996" y="0">435</tspan></text><text transform="matrix(1.25 0 0 1.25 261.056 309.144)" style="-inkscape-font-specification:HaarlemmerMTPro-Regular" font-weight="400" font-size="8.5" font-family="Haarlemmer MT Pro" fill="#231f20"><tspan x="0 4.6409998" y="0">30</tspan></text><text transform="matrix(1.25 0 0 1.25 336.185 309.144)" style="-inkscape-font-specification:HaarlemmerMTPro-Regular" font-weight="400" font-size="8.5" font-family="Haarlemmer MT Pro" fill="#231f20"><tspan x="0" y="0">7</tspan></text><text transform="matrix(1.25 0 0 1.25 45.07 325.39)" style="-inkscape-font-specification:HaarlemmerMTPro-Regular" font-weight="400" font-size="8.5" font-family="Haarlemmer MT Pro" fill="#231f20"><tspan x="0 4.6409998 9.2819996 13.923" y="0">2012</tspan></text><text transform="matrix(1.25 0 0 1.25 122.293 325.39)" style="-inkscape-font-specification:HaarlemmerMTPro-Regular" font-weight="400" font-size="8.5" font-family="Haarlemmer MT Pro" fill="#231f20"><tspan x="0 4.6409998" y="0">46</tspan></text><text transform="matrix(1.25 0 0 1.25 195.245 325.39)" style="-inkscape-font-specification:HaarlemmerMTPro-Regular" font-weight="400" font-size="8.5" font-family="Haarlemmer MT Pro" fill="#231f20"><tspan x="0 4.6409998 9.2819996" y="0">304</tspan></text><text transform="matrix(1.25 0 0 1.25 266.846 325.39)" style="-inkscape-font-specification:HaarlemmerMTPro-Regular" font-weight="400" font-size="8.5" font-family="Haarlemmer MT Pro" fill="#231f20"><tspan x="0" y="0">4</tspan></text><text transform="matrix(1.25 0 0 1.25 336.175 325.39)" style="-inkscape-font-specification:HaarlemmerMTPro-Regular" font-weight="400" font-size="8.5" font-family="Haarlemmer MT Pro" fill="#231f20"><tspan x="0" y="0">1</tspan><tspan x="-256.32599 -250.9285 -245.52251 -242.505" y="12.996">TBIJ</tspan></text><text transform="matrix(1.25 0 0 1.25 116.492 341.635)" style="-inkscape-font-specification:HaarlemmerMTPro-Regular" font-weight="400" font-size="8.5" font-family="Haarlemmer MT Pro" fill="#231f20"><tspan x="0 4.6409998 9.2819996" y="0">358</tspan></text><text transform="matrix(1.25 0 0 1.25 187.042 341.635)" style="-inkscape-font-specification:HaarlemmerMTPro-Regular" font-weight="400" font-size="8.5" font-family="Haarlemmer MT Pro" fill="#231f20"><tspan x="0 4.6409998 6.5619998 11.203 15.844" y="0">3,019</tspan></text><text transform="matrix(1.25 0 0 1.25 255.244 341.635)" style="-inkscape-font-specification:HaarlemmerMTPro-Regular" font-weight="400" font-size="8.5" font-family="Haarlemmer MT Pro" fill="#231f20"><tspan x="0 4.6409998 9.2819996" y="0">681</tspan></text><text transform="matrix(1.25 0 0 1.25 330.373 341.635)" style="-inkscape-font-specification:HaarlemmerMTPro-Regular" font-weight="400" font-size="8.5" font-family="Haarlemmer MT Pro" fill="#231f20"><tspan x="0 4.6409998" y="0">23</tspan></text><text transform="matrix(1.25 0 0 1.25 .765 357.881)" style="-inkscape-font-specification:HaarlemmerMTPro-MediumIt" font-style="italic" font-weight="500" font-size="8.5" font-family="Haarlemmer MT Pro Medium" fill="#231f20"><tspan x="0" y="0">y</tspan></text><text transform="matrix(1.25 0 0 1.25 6.98 357.881)" style="-inkscape-font-specification:HaarlemmerMTPro-MediumIt" font-style="italic" font-weight="500" font-size="8.5" font-family="Haarlemmer MT Pro Medium" fill="#231f20"><tspan x="0 3.7314999 10.5315 14.263" y="0">emen</tspan></text><text transform="matrix(1.25 0 0 1.25 15.767 374.127)" style="-inkscape-font-specification:HaarlemmerMTPro-Regular" font-weight="400" font-size="8.5" font-family="Haarlemmer MT Pro" fill="#231f20"><tspan x="0 6.6215 12.818" y="0">NAF</tspan></text><text transform="matrix(1.25 0 0 1.25 122.293 374.127)" style="-inkscape-font-specification:HaarlemmerMTPro-Regular" font-weight="400" font-size="8.5" font-family="Haarlemmer MT Pro" fill="#231f20"><tspan x="0 4.6409998" y="0">42</tspan></text><text transform="matrix(1.25 0 0 1.25 195.245 374.127)" style="-inkscape-font-specification:HaarlemmerMTPro-Regular" font-weight="400" font-size="8.5" font-family="Haarlemmer MT Pro" fill="#231f20"><tspan x="0 4.6409998 9.2819996" y="0">655</tspan></text><text transform="matrix(1.25 0 0 1.25 261.045 374.127)" style="-inkscape-font-specification:HaarlemmerMTPro-Regular" font-weight="400" font-size="8.5" font-family="Haarlemmer MT Pro" fill="#231f20"><tspan x="0 4.6409998" y="0">44</tspan></text><text transform="matrix(1.25 0 0 1.25 336.175 374.127)" style="-inkscape-font-specification:HaarlemmerMTPro-Regular" font-weight="400" font-size="8.5" font-family="Haarlemmer MT Pro" fill="#231f20"><tspan x="0" y="0">7</tspan><tspan x="-256.32599 -251.88901 -243.39751" y="12.996">LWJ</tspan></text><text transform="matrix(1.25 0 0 1.25 122.293 390.372)" style="-inkscape-font-specification:HaarlemmerMTPro-Regular" font-weight="400" font-size="8.5" font-family="Haarlemmer MT Pro" fill="#231f20"><tspan x="0 4.6409998" y="0">59</tspan></text><text transform="matrix(1.25 0 0 1.25 195.245 390.372)" style="-inkscape-font-specification:HaarlemmerMTPro-Regular" font-weight="400" font-size="8.5" font-family="Haarlemmer MT Pro" fill="#231f20"><tspan x="0 4.6409998 9.2819996" y="0">386</tspan></text><text transform="matrix(1.25 0 0 1.25 261.045 390.372)" style="-inkscape-font-specification:HaarlemmerMTPro-Regular" font-weight="400" font-size="8.5" font-family="Haarlemmer MT Pro" fill="#231f20"><tspan x="0 4.6409998" y="0">82</tspan></text><text transform="matrix(1.25 0 0 1.25 330.373 390.372)" style="-inkscape-font-specification:HaarlemmerMTPro-Regular" font-weight="400" font-size="8.5" font-family="Haarlemmer MT Pro" fill="#231f20"><tspan x="0 4.6409998" y="0">21</tspan></text><text transform="matrix(1.25 0 0 1.25 45.06 406.618)" style="-inkscape-font-specification:HaarlemmerMTPro-Regular" font-weight="400" font-size="8.5" font-family="Haarlemmer MT Pro" fill="#231f20"><tspan x="0 4.6409998 9.2819996 13.923" y="0">2002</tspan></text><text transform="matrix(1.25 0 0 1.25 128.084 406.618)" style="-inkscape-font-specification:HaarlemmerMTPro-Regular" font-weight="400" font-size="8.5" font-family="Haarlemmer MT Pro" fill="#231f20"><tspan x="0" y="0">1</tspan></text><text transform="matrix(1.25 0 0 1.25 206.836 406.618)" style="-inkscape-font-specification:HaarlemmerMTPro-Regular" font-weight="400" font-size="8.5" font-family="Haarlemmer MT Pro" fill="#231f20"><tspan x="0" y="0">6</tspan></text><text transform="matrix(1.25 0 0 1.25 266.836 406.618)" style="-inkscape-font-specification:HaarlemmerMTPro-Regular" font-weight="400" font-size="8.5" font-family="Haarlemmer MT Pro" fill="#231f20"><tspan x="0" y="0">0</tspan></text><text transform="matrix(1.25 0 0 1.25 336.164 406.618)" style="-inkscape-font-specification:HaarlemmerMTPro-Regular" font-weight="400" font-size="8.5" font-family="Haarlemmer MT Pro" fill="#231f20"><tspan x="0" y="0">0</tspan></text><text transform="matrix(1.25 0 0 1.25 45.05 422.864)" style="-inkscape-font-specification:HaarlemmerMTPro-Regular" font-weight="400" font-size="8.5" font-family="Haarlemmer MT Pro" fill="#231f20"><tspan x="0 4.6409998 9.2819996 13.923" y="0">2009</tspan></text><text transform="matrix(1.25 0 0 1.25 128.073 422.864)" style="-inkscape-font-specification:HaarlemmerMTPro-Regular" font-weight="400" font-size="8.5" font-family="Haarlemmer MT Pro" fill="#231f20"><tspan x="0" y="0">2</tspan></text><text transform="matrix(1.25 0 0 1.25 201.025 422.864)" style="-inkscape-font-specification:HaarlemmerMTPro-Regular" font-weight="400" font-size="8.5" font-family="Haarlemmer MT Pro" fill="#231f20"><tspan x="0 4.6409998" y="0">55</tspan></text><text transform="matrix(1.25 0 0 1.25 261.024 422.864)" style="-inkscape-font-specification:HaarlemmerMTPro-Regular" font-weight="400" font-size="8.5" font-family="Haarlemmer MT Pro" fill="#231f20"><tspan x="0 4.6409998" y="0">41</tspan></text><text transform="matrix(1.25 0 0 1.25 330.352 422.864)" style="-inkscape-font-specification:HaarlemmerMTPro-Regular" font-weight="400" font-size="8.5" font-family="Haarlemmer MT Pro" fill="#231f20"><tspan x="0 4.6409998" y="0">74</tspan></text><text transform="matrix(1.25 0 0 1.25 45.039 439.11)" style="-inkscape-font-specification:HaarlemmerMTPro-Regular" font-weight="400" font-size="8.5" font-family="Haarlemmer MT Pro" fill="#231f20"><tspan x="0 4.6409998 9.2819996 13.923" y="0">2010</tspan></text><text transform="matrix(1.25 0 0 1.25 128.063 439.11)" style="-inkscape-font-specification:HaarlemmerMTPro-Regular" font-weight="400" font-size="8.5" font-family="Haarlemmer MT Pro" fill="#231f20"><tspan x="0" y="0">4</tspan></text><text transform="matrix(1.25 0 0 1.25 201.014 439.11)" style="-inkscape-font-specification:HaarlemmerMTPro-Regular" font-weight="400" font-size="8.5" font-family="Haarlemmer MT Pro" fill="#231f20"><tspan x="0 4.6409998" y="0">16</tspan></text><text transform="matrix(1.25 0 0 1.25 266.815 439.11)" style="-inkscape-font-specification:HaarlemmerMTPro-Regular" font-weight="400" font-size="8.5" font-family="Haarlemmer MT Pro" fill="#231f20"><tspan x="0" y="0">6</tspan></text><text transform="matrix(1.25 0 0 1.25 330.341 439.11)" style="-inkscape-font-specification:HaarlemmerMTPro-Regular" font-weight="400" font-size="8.5" font-family="Haarlemmer MT Pro" fill="#231f20"><tspan x="0 4.6409998" y="0">37</tspan></text><text transform="matrix(1.25 0 0 1.25 45.028 455.355)" style="-inkscape-font-specification:HaarlemmerMTPro-Regular" font-weight="400" font-size="8.5" font-family="Haarlemmer MT Pro" fill="#231f20"><tspan x="0 4.6409998 9.2819996 13.923" y="0">2011</tspan></text><text transform="matrix(1.25 0 0 1.25 122.25 455.355)" style="-inkscape-font-specification:HaarlemmerMTPro-Regular" font-weight="400" font-size="8.5" font-family="Haarlemmer MT Pro" fill="#231f20"><tspan x="0 4.6409998" y="0">10</tspan></text><text transform="matrix(1.25 0 0 1.25 201.003 455.355)" style="-inkscape-font-specification:HaarlemmerMTPro-Regular" font-weight="400" font-size="8.5" font-family="Haarlemmer MT Pro" fill="#231f20"><tspan x="0 4.6409998" y="0">81</tspan></text><text transform="matrix(1.25 0 0 1.25 266.804 455.355)" style="-inkscape-font-specification:HaarlemmerMTPro-Regular" font-weight="400" font-size="8.5" font-family="Haarlemmer MT Pro" fill="#231f20"><tspan x="0" y="0">0</tspan></text><text transform="matrix(1.25 0 0 1.25 336.132 455.355)" style="-inkscape-font-specification:HaarlemmerMTPro-Regular" font-weight="400" font-size="8.5" font-family="Haarlemmer MT Pro" fill="#231f20"><tspan x="0" y="0">0</tspan></text><text transform="matrix(1.25 0 0 1.25 45.018 471.6)" style="-inkscape-font-specification:HaarlemmerMTPro-Regular" font-weight="400" font-size="8.5" font-family="Haarlemmer MT Pro" fill="#231f20"><tspan x="0 4.6409998 9.2819996 13.923" y="0">2012</tspan></text><text transform="matrix(1.25 0 0 1.25 122.24 471.6)" style="-inkscape-font-specification:HaarlemmerMTPro-Regular" font-weight="400" font-size="8.5" font-family="Haarlemmer MT Pro" fill="#231f20"><tspan x="0 4.6409998" y="0">42</tspan></text><text transform="matrix(1.25 0 0 1.25 195.191 471.6)" style="-inkscape-font-specification:HaarlemmerMTPro-Regular" font-weight="400" font-size="8.5" font-family="Haarlemmer MT Pro" fill="#231f20"><tspan x="0 4.6409998 9.2819996" y="0">228</tspan></text><text transform="matrix(1.25 0 0 1.25 260.992 471.6)" style="-inkscape-font-specification:HaarlemmerMTPro-Regular" font-weight="400" font-size="8.5" font-family="Haarlemmer MT Pro" fill="#231f20"><tspan x="0 4.6409998" y="0">35</tspan></text><text transform="matrix(1.25 0 0 1.25 330.32 471.6)" style="-inkscape-font-specification:HaarlemmerMTPro-Regular" font-weight="400" font-size="8.5" font-family="Haarlemmer MT Pro" fill="#231f20"><tspan x="0 4.6409998" y="0">16</tspan><tspan x="-251.685 -246.28751 -240.8815 -237.864" y="12.996">TBIJ</tspan></text><text transform="matrix(1.25 0 0 1.25 122.24 487.846)" style="-inkscape-font-specification:HaarlemmerMTPro-Regular" font-weight="400" font-size="8.5" font-family="Haarlemmer MT Pro" fill="#231f20"><tspan x="0 4.6409998" y="0">59</tspan></text><text transform="matrix(1.25 0 0 1.25 195.191 487.846)" style="-inkscape-font-specification:HaarlemmerMTPro-Regular" font-weight="400" font-size="8.5" font-family="Haarlemmer MT Pro" fill="#231f20"><tspan x="0 4.6409998 9.2819996" y="0">724</tspan></text><text transform="matrix(1.25 0 0 1.25 261.109 487.846)" style="-inkscape-font-specification:HaarlemmerMTPro-Regular" font-weight="400" font-size="8.5" font-family="Haarlemmer MT Pro" fill="#231f20"><tspan x="0 4.6409998" y="0">54</tspan></text><text transform="matrix(1.25 0 0 1.25 335.803 487.846)" style="-inkscape-font-specification:HaarlemmerMTPro-Regular" font-weight="400" font-size="8.5" font-family="Haarlemmer MT Pro" fill="#231f20"><tspan x="0" y="0">8</tspan></text><text transform="matrix(1.25 0 0 1.25 .711 504.092)" style="-inkscape-font-specification:HaarlemmerMTPro-MediumIt" font-style="italic" font-weight="500" font-size="8.5" font-family="Haarlemmer MT Pro Medium" fill="#231f20"><tspan x="0 5.0405002 9.6219997 16.4305 20.6635 22.933001 25.474501" y="0">Somalia</tspan></text><text transform="matrix(1.25 0 0 1.25 15.714 520.337)" style="-inkscape-font-specification:HaarlemmerMTPro-Regular" font-weight="400" font-size="8.5" font-family="Haarlemmer MT Pro" fill="#231f20"><tspan x="0 5.3975 10.8035 13.821" y="0">TBIJ</tspan></text><text transform="matrix(1.25 0 0 1.25 122.24 520.337)" style="-inkscape-font-specification:HaarlemmerMTPro-Regular" font-weight="400" font-size="8.5" font-family="Haarlemmer MT Pro" fill="#231f20"><tspan x="0 4.6409998" y="0">17</tspan></text><text transform="matrix(1.25 0 0 1.25 195.191 520.337)" style="-inkscape-font-specification:HaarlemmerMTPro-Regular" font-weight="400" font-size="8.5" font-family="Haarlemmer MT Pro" fill="#231f20"><tspan x="0 4.6409998 9.2819996" y="0">114</tspan></text><text transform="matrix(1.25 0 0 1.25 267.356 520.337)" style="-inkscape-font-specification:HaarlemmerMTPro-Regular" font-weight="400" font-size="8.5" font-family="Haarlemmer MT Pro" fill="#231f20"><tspan x="0" y="0">8</tspan></text><text transform="matrix(1.25 0 0 1.25 336.249 520.337)" style="-inkscape-font-specification:HaarlemmerMTPro-Regular" font-weight="400" font-size="8.5" font-family="Haarlemmer MT Pro" fill="#231f20"><tspan x="0" y="0">7</tspan></text><text transform="matrix(1.25 0 0 1.25 .711 536.583)" style="-inkscape-font-specification:HaarlemmerMTPro-Medium" font-weight="500" font-size="8.5" font-family="Haarlemmer MT Pro Medium" fill="#231f20"><tspan x="0 5.8309999 9.3839998 12.529 14.535 16.031 21.08 25.9335 29.0275 33.141499 35.5215" y="0">Est. Total*</tspan></text><text transform="matrix(1.25 0 0 1.25 115.153 536.583)" style="-inkscape-font-specification:HaarlemmerMTPro-Medium" font-weight="500" font-size="8.5" font-family="Haarlemmer MT Pro Medium" fill="#231f20"><tspan x="0 4.9809999 9.9619999" y="0">411</tspan></text><text transform="matrix(1.25 0 0 1.25 185.172 536.583)" style="-inkscape-font-specification:HaarlemmerMTPro-Medium" font-weight="500" font-size="8.5" font-family="Haarlemmer MT Pro Medium" fill="#231f20"><tspan x="0 4.9809999 6.987 11.968 16.948999" y="0">3,430</tspan></text><text transform="matrix(1.25 0 0 1.25 255.988 536.583)" style="-inkscape-font-specification:HaarlemmerMTPro-Medium" font-weight="500" font-size="8.5" font-family="Haarlemmer MT Pro Medium" fill="#231f20"><tspan x="0 4.9809999 9.9619999" y="0">401</tspan></text><text transform="matrix(1.25 0 0 1.25 330.894 536.583)" style="-inkscape-font-specification:HaarlemmerMTPro-Medium" font-weight="500" font-size="8.5" font-family="Haarlemmer MT Pro Medium" fill="#231f20"><tspan x="0 4.9809999" y="0">12</tspan></text><text transform="matrix(1.25 0 0 1.25 .903 561.101)" style="-inkscape-font-specification:HaarlemmerMTPro-Italic" font-style="italic" font-weight="400" font-size="7" font-family="Haarlemmer MT Pro" fill="#231f20"><tspan x="0 3.766 7.2870002 10.661 13.118 15.855 18.655001 20.790001 22.455999" y="0">Sources:</tspan></text><text transform="matrix(1.25 0 0 1.25 30.688 561.101)" style="-inkscape-font-specification:HaarlemmerMTPro-Regular" font-weight="400" font-size="7" font-family="Haarlemmer MT Pro" fill="#231f20"><tspan x="0 5.3829999 8.4139996 13.566 14.938 19.971001 25.725 28.84 31.598 33.375999 36.435001 39.535999 40.908001 44.688 48.418999 52.044998 55.832001 59.486 62.587002 64.771004 66.549004 70.195999 73.983002 75.355003 77.609001 82.991997 88.025002 91.805 94.058998 95.640999 97.013 101.241 104.888 108.675 112.077 113.449 119.966 123.067 125.699 127.071 129.22 132.951 136.577 139.33501 143.12199 146.22301 147.959 149.33099 151.58501 155.16901 162.092 164.241 166.495 168.077 169.44901 174.069 177.814 180.929 182.30099 186.683 190.30901 192.85001 195.965 199.06599 202.692 204.064 207.683 209.944 211.31599 213.451 217.056 220.129 223.244 225.96001 228.144 229.922 233.32401 236.425 238.60899 240.38699 243.46001 246.575 247.94701 250.09599 253.827 257.453 260.211 263.99799 267.099 268.83499 270.61301 273.32901 279.181" y="0">New America Foundation (NAF); Long War Journal (LWJ); The Bureau of Investigative Journalism </tspan><tspan x="-23.827999 -21.573999 -17.198999 -12.817 -10.402 -8.2530003" y="9.751">(TBIJ)</tspan><tspan x="-23.827999 -20.818001 -16.365999 -13.083 -10.297 -7.112 -3.388 -1.155 2.562 6.4190001 8.6520004 11.732 14.875 18.059999 20.761999 23.933001 27.237 30.422001 33.208 35.441002 40.662998 42.511002 44.764999 48.580002 50.428001 54.285 56.518002 58.771999 62.587002 65.772003 68.004997 70.707001 73.877998 77.735001 81.039001 84.223999 87.010002 89.242996 93.001999 95.606003 99.190002 102.564 104.412 108.136 111.321 115.045 117.278 120.841 124.215 126.448 128.702 132.517 135.702 137.935 141.645 144.347 147.819 150.99001 154.847 156.849 160.16701 163.338 165.592 167.44 171.157 175.01401 177.8 180.033 185.77299 189.49001 193.347 195.19501 197.37199 201.082 203.91 205.758 209.61501 213.08701 215.32001 218.505 221.67599 224.644 228.459 230.692 233.73 237.53101 241.22701 245.01401 247.26801 250.075 253.44901 255.68201 257.936 261.75101 264.35501 268.15601 271.85199 275.32401 279.16699" y="22.75">*Based on averages within the ranges provided by the organizations monitoring each country through </tspan><tspan x="-23.827999 -18.221001 -15.036 -11.998 -8.8129997 -2.9890001 0.79799998 3.983 6.6849999 7.9169998 11.018 14.959 17.563 20.664" y="32.501">December 2012.</tspan></text></svg>