<?xml version="1.0" encoding="UTF-8" standalone="no"?>
<svg
   xmlns:dc="http://purl.org/dc/elements/1.1/"
   xmlns:cc="http://creativecommons.org/ns#"
   xmlns:rdf="http://www.w3.org/1999/02/22-rdf-syntax-ns#"
   xmlns:svg="http://www.w3.org/2000/svg"
   xmlns="http://www.w3.org/2000/svg"
   xmlns:sodipodi="http://sodipodi.sourceforge.net/DTD/sodipodi-0.dtd"
   xmlns:inkscape="http://www.inkscape.org/namespaces/inkscape"
   viewBox="0 0 83.77221 104.56938"
   height="104.56938"
   width="83.772209"
   xml:space="preserve"
   version="1.1"
   id="svg2"
   inkscape:version="0.91 r13725"
   sodipodi:docname="greenpeace.svg"><sodipodi:namedview
     pagecolor="#ffffff"
     bordercolor="#666666"
     borderopacity="1"
     objecttolerance="10"
     gridtolerance="10"
     guidetolerance="10"
     inkscape:pageopacity="0"
     inkscape:pageshadow="2"
     inkscape:window-width="1920"
     inkscape:window-height="1057"
     id="namedview17"
     showgrid="false"
     fit-margin-top="0"
     fit-margin-left="0"
     fit-margin-right="0"
     fit-margin-bottom="0"
     inkscape:zoom="1.7018448"
     inkscape:cx="55.051831"
     inkscape:cy="52.863597"
     inkscape:window-x="0"
     inkscape:window-y="0"
     inkscape:window-maximized="1"
     inkscape:current-layer="g16" /><metadata
     id="metadata8"><rdf:RDF><cc:Work
         rdf:about=""><dc:format>image/svg+xml</dc:format><dc:type
           rdf:resource="http://purl.org/dc/dcmitype/StillImage" /><dc:title></dc:title></cc:Work></rdf:RDF></metadata><defs
     id="defs6"><clipPath
       id="clipPath18"
       clipPathUnits="userSpaceOnUse"><path
         id="path20"
         d="m 0,0 5415,0 0,836.555 -5415,0 L 0,0 Z"
         inkscape:connector-curvature="0" /></clipPath></defs><g
     id="g14"
     transform="matrix(0.125,0,0,-0.125,-313.61049,103.99328)"><g
       clip-path="url(#clipPath18)"
       id="g16"><path
         id="path22"
         style="fill:#73c82c;fill-opacity:1;fill-rule:evenodd;stroke:none"
         d="m 2666.3422,500.66769 c -0.559,-2.148 -4.629,-7.078 -6.059,-7.773 0,-3.367 -2.05,-6.562 -5.175,-8.641 0,-5.285 -8.957,-7.621 -10.082,-13.254 -1.028,-5.136 -3.231,-10 -7.204,-12.664 0,-4.757 -7.769,-6.574 -7.769,-11.234 -2.324,-1.18 -4.457,-8.641 -6.043,-8.641 0,-3.222 -3.527,-5.468 -4.328,-9.5 -1.84,-0.937 -4.321,-5.203 -4.321,-7.785 -4.085,-2.019 -2.789,-7.429 -6.9136,-9.488 0,-2.914 -3.457,-6.508 -3.457,-9.516 -1.5391,0 -5.1836,-15.839 -5.1836,-18.144 -3.3633,0 -2.1055,-28.934 -0.8711,-33.613 2.6015,-9.903 3.2226,-20.575 9.5117,-26.864 1.6446,-1.64 2.6566,-4.523 3.4566,-6.918 1.258,-0.61304 5.829,-5.125 6.911,-6.472 2.504,-3.125 19.007,-7.129 19.007,-8.211 8.325,-1.192 12.832,-6.047 19.871,-6.047 0,0.0392 23.532,-7.383 25.918,-7.774 0,-3.418 11.239,-2.273 11.239,-5.183 7.406,-0.754 14.808,-1.485 22.215,-2.227 7.445,-0.754 15.023,-5.336 22.711,-7.277 0,-2.871 16.019,-4.102 20.011,-3.621 9.555,1.14 17.114,-1.563 25.133,-1.563 12.93,0 24.82,-3.457 37.809,-3.457 0,-4.386 30.347,0.867 32.824,0.867 0,2.852 31.902,6.192 36.047,6.844 6.379,1.008 12.761,2.016 19.136,3.059 6.215,1.015 8.461,5.39 15.083,7.375 8.492,2.547 12.062,5.887 19.585,7.773 0,-0.10904 15.95,7.781 17.286,7.781 2.339,3.528 6.656,4.551 9.074,7.774 2.344,3.113 7.648,7.5 11.222,10.359 4.055,3.246 8.215,14.336 8.215,19.016 3.532,0 2.524,17.703 0,20.734 -4.761,1.582 -6.382,3.563 -11.519,3.172 -7.594,-0.586 -13.953,-1.828 -22.18,-2.305 0,-2.48 -18.141,-3.593 -18.141,-6.054 -5.261,0 -10.546,-0.86 -14.683,-0.86 0,-2.097 -9.457,-2.597 -12.102,-2.597 0,-2.727 -25.05,-2.032 -25.05,-4.317 -1.813,0 -10.379,-1.347 -10.379,-2.597 -3.121,-0.176 -18.137,-0.254 -18.137,-2.586 -6.07,0.398 -22.086,-2.59 -23.328,-2.59 0,-1.836 -56.16,-11.102 -60.629,-12.285 -5.66,-1.504 -7.883,0.84 -13.567,0.5 -4.91,-0.31296 -6.339,2.273 -9.617,2.273 -1.383,2.813 -2.066,0.64496 -3.449,3.465 -2.73,0 -3.48,2.609 -5.617,4.32 -3.539,2.821 -3.578,6.602 -6.484,9.5 -1.762,1.77 -4.293,12.961 -7.782,12.961 -1.297,3.914 -8.929,24.188 -11.222,24.188 0,4.258 -1.321,5.422 -0.051,9.933 1.133,4.032 1.781,8.875 1.781,12.102 0,1.457 1.645,9.082 2.59,9.082 0.305,5.934 1.723,13.473 1.723,18.141 3.089,0 3.121,18.144 7.785,18.144 0,2.539 1.019,5.684 3.453,6.906 1.359,5.379 4.133,7.821 7.344,12.102 3.265,4.352 12.093,6.141 17.132,8.199 2.325,0.957 16.125,1.231 16.125,2.168 3.45,0 25.063,2.481 25.063,5.176 5.391,0 11.973,1.191 18.426,1.445 5.422,0.21104 7.859,2.012 11.812,2.012 0,5.176 24.66,6.269 30.235,6.914 0,1.016 7.101,2.59 8.644,2.59 0,2.09 11.734,2.121 14.344,2.254 9.789,0.46104 15.711,4.66 24.535,4.66 8.57,0 14.473,3.359 23.902,3.836 7.489,0.39 14.985,0.77296 22.465,1.152 4.781,0.246 7.442,1.926 12.387,1.926 0,0.28504 25.789,3.445 28.512,3.445 0,-0.0192 11.789,2.774 13.863,3.5 6.242,2.145 14.215,3.414 19.832,3.414 0,0.0784 6.523,2.852 7.84,3.418 5.398,2.305 8.086,0.957 12.355,0.54704 4.817,-0.46104 9.93,0.46896 14.571,1.66 3.953,1.016 8.878,3.102 12.652,1.758 2.379,-0.848 15.648,0.426 15.648,-1.324 4.743,0 5.914,-1.731 10.371,-1.731 0,-0.468 17.372,-4.328 19.004,-4.328 0,-1.894 6.282,-1.55 7.785,-1.718 2.813,-1.954 5.622,-3.891 8.422,-5.84 3.516,-2.426 6.149,-6.621 7.125,-10.867 1.403,-6.028 3.871,-9.145 5.192,-14.407 3.644,-1.816 3.926,-7.605 7.765,-9.492 2.598,-7.715 6.063,-12.09 6.063,-19.883 2.355,0 2.891,-18.144 5.18,-18.144 0,-2.633 4.832,-17.274 6.043,-17.274 0.5109,-6.261 1.597,-11.316 3.21,-17.289 2.036,-7.539 -1.46,-15.828 -3.21,-23.152 -0.75,-3.152 -3,-8.973 -6.043,-10.535 0,-2.246 -1.926,-6.25 -3.457,-7.774 -1.684,-1.691 -5.188,-6.308 -5.188,-8.644 -0.883,0 -4.32,-7.207 -4.32,-8.633 -2.278,0 -2.664,-11.238 -5.176,-11.238 -0.57,-2.239 -3.32,-9.504 -5.191,-9.504 0,-6.043 -5.18,-12.988 -5.18,-20.731 -0.1091,0 -7.699,-15.597 -7.488,-17.851 0.941,-10.332 -3.309,-14.082 -4.618,-24.492 -0.664,-5.325 -2.589,-8.633 -2.589,-12.961 -1.032,0 -2.586,-5.469 -2.586,-6.914 -3.039,0 0.4409,-15.547 -2.59,-15.547 -1.145,-5.606 -2.731,-7.227 -3.457,-13.817 -0.367,-3.3 -3.629,-21.601 -5.188,-21.601 0,-1.672 -1.469,-9.504 -2.593,-9.504 0,-7.852 0.703,-12.91 0.214,-20.742 -0.332,-5.321 -1.937,-8.075 -1.937,-14.383 0,-1.977 -0.969,-9.817 -2.602,-9.817 0,-4.199 -1.554,-7.812 -0.23,-13.242 1.566,-6.484 1.969,-11.426 1.969,-17.851 3.207,0 1.718,-27.7347 1.718,-31.5433 0,-10.468705 -3.39,-18.457001 -4.097,-29.792905 -0.68,-10.8985 -8.043,-16.54297 -9.715,-25.07041 -4.66,-2.31248 -49.235,-26.6795996 -59.289,-23.7890396 -2.344,0.672 -1.02,2.18752 -3.789,2.18752 0,1.87503997 -4.828,2.62887997 -6.336,3.17575997 -2.973,1.07424003 -7.985,3.82816003 -9.211,6.33600003 -1.524,0 -19.02,6.7186396 -19.02,6.0468796 -1.804,0 -6.91,1.71872 -6.91,3.45696 -1.687,0 -4.644,1.1992 -6.055,2.58592 -4.324,4.29688 -13.898,6.35944 -13.187,14.49221 0.406,4.6211 1.832,7.4922 -0.6251,12.2969 -1.766,1.5508 -2.332,9.500004 -3.457,9.500004 0.5231,13.742201 2.594,24.218697 2.594,36.6328 0,13.027701 -0.868,26.765701 -0.868,38.534701 -0.464,0 4.571,27.157 3.457,31.114 -1.449,5.097 -1.593,15.261 -5.128,18.554 -4.02,3.75 -6.547,2.743 -12.153,2.176 0,-0.984 -13.511,-6.316 -16.418,-6.914 0,-1.797 -9.804,-3.191 -11.664,-3.445 -5.054,-0.69504 -8.394,-3.457 -12.519,-3.457 0,-3.574 -21.606,-1.25 -21.606,-6.067 -8.109,0 -14.304,-3.847 -21.89,-4.597 -9.258,-0.918 -12.582,-4.883 -21.883,-4.883 -7.629,0 -14.813,-2.734 -23.645,-2.336 -7.797,0.352 -13.324,3.516 -20.992,1.281 -8.398,-2.441 -14.074,1.055 -21.316,1.055 -5.297,1.133 -14.567,-1.75 -22.461,-1.75 0,-2.773 -57.836,6.055 -63.078,6.055 0,1.836 -21.594,3.507 -21.594,6.906 -11.047,1.402 -16.988,5.976 -29.375,6.914 -5.242,2.332 -11.988,6.922 -17.719,6.922 -1.73,0 -7.348,0.937 -7.348,2.597 -2.789,0 -16.4136,3.86 -16.4136,6.895 -6.5938,0 -13.0547,8.652 -19.8711,8.652 0,0.891 -11.3945,7.774 -13.8164,7.774 -3.375,3.664 -10.2813,8.574 -12.1055,12.09 -3.3437,0 -8.1836,6.035 -10.3594,8.64 -2.1836,0 -6.8554,4.262 -7.7812,6.047 -3.8399,3.098 -6.0469,5.391 -6.0469,9.512 -0.3125,0 -4.6562,7.051 -5.1914,8.633 -1.0898,0 -4.6406,7.031 -5.1758,8.64 -2.3008,6.907 -4.2422,14.641 -5.3555,21.106 -0.6679,3.906 -1.8476,7.734 -2.9257,11.543 -0.4063,1.457 -2.9649,5.371 -3.0235,5.871 -0.2031,1.687 -1.1523,18.504 -1.6562,18.504 0,10.136 -3.6836,107.14 -2.5977,107.14 0,2.711 1.6368,19.871 4.3243,19.871 0,1.352 4.3242,20.032 4.8984,26.778 0.25,3.008 3.7383,23.34 7.1992,23.34 0,6.953 7.6133,13.086 9.5039,20.722 6.4023,3.235 7.4414,13.664 12.9649,16.43 0,4.645 7.7656,6.461 7.7656,11.227 4.3554,2.902 4.7344,8.41 8.6484,10.371 0,2.91 5.1797,4.375 5.1797,7.777 4.5898,3.934 7.6602,7.34 11.2344,12.086 3.3281,1.672 4,6.504 7.7773,7.789 1.0547,3.195 2.6016,3.988 5.1875,6.043 0,1.519 1.4453,4.039 2.5899,5.184 2.7929,2.781 13.9144,21.597 16.4144,21.597 1.418,5.735 4.91,10.988 9.793,15.266 2.464,2.168 4.457,8.07 8.347,8.07 0.989,1.988 2.594,1.172 2.594,2.59 2.98,0 1.684,2.133 4.316,3.449 0,3.258 7.985,10.363 11.235,10.363 2.769,3.688 5.258,4.848 9.262,7.188 6.374,3.723 32.257,35.383 38.257,36.875 1.106,2.195 5.703,3.457 7.778,3.457 0,0.668 8.558,6.055 10.371,6.055 1.211,2.422 33.996,28.261 42.336,38.019 2.55,0 7.175,3.887 8.636,6.043 3.457,1.133 4.614,3.301 6.911,6.051 1.91,0 4.402,1.836 5.621,3.461 1.84,2.457 4.183,4.289 6.476,6.332 2.977,2.633 1.442,2.867 3.457,4.898 4.258,4.258 11.285,5.246 15.555,9.493 2.25,2.246 4.68,8.652 8.637,8.652 3.636,4.375 6.629,7.09 11.234,8.633 4.395,6.601 13.938,7.043 18.141,11.23 1.59,1.602 7.332,6.055 9.5,6.055 1.386,2.765 7.711,4.473 11.238,5.176 0,1.875 8.637,2.246 8.637,4.328 1.894,0.457 7.781,2.117 7.781,3.457 5.93,1.961 8.703,2.586 15.555,2.586 0,2.269 12.16,2.461 14.777,2.406 7.871,-0.199 15.75,-0.383 23.617,-0.578 4.406,-0.11 7.82,1.648 13.137,0.976 10.176,-1.3 16.894,-5.39 25.933,-5.39 1.688,0 9.793,-1.477 9.793,-2.598 4.414,-1.086 10.723,-2.57 15.032,-5.363 11.957,-7.723 20.574,-16.367 31.043,-26.317 6.492,-6.164 14.136,-14.035 16.132,-21.886 3.821,-1.922 7.243,-15.551 8.633,-15.551 0,-9.508 4.258,-18.941 5.192,-29.371 3.222,0 7.777,-17.422 7.777,-19.879 1.461,0 1.727,-17.277 5.184,-17.277 0,-5.637 1.828,-8.84 1.117,-14.582 -0.6989,-5.586 -3.707,-10.973 -3.707,-16.524 -0.907,0 -3.457,-5.508 -3.457,-6.91 -4.196,-3.176 -7.114,-7.238 -10.989,-10.746 -4.019,-3.641 -25.3,-7.031 -25.3,-10 -7.535,0 -13.539,-3.68 -22.164,-2.969 -4.071,0.344 -8.461,0.938 -12.266,2.492 -3.395,1.375 -4.266,5.145 -7.039,6.532 0,4.121 -6.047,5.429 -6.047,9.511 -2.852,1.391 -5.187,7.586 -5.187,10.352 -3.391,0 -3.84,14.941 -8.641,17.289 0,1.168 -6.527,15.555 -7.777,15.555 0,5.554 -9.321,13.25 -13.387,18.14 -3.25,3.899 -8.942,3.156 -10.797,6.906 -5.586,1.114 -9.691,3.188 -12.969,-1.718 -2.929,0 -6.058,-3.289 -9.066,-3.883 -4.813,-0.961 -7.563,-5.188 -12.106,-6.488 -1.476,-0.43 -8.203,-4.043 -8.203,-4.317 -3.047,0 -5.672,-2.176 -9.508,-3.453 0,-2.348 -9.203,-4.027 -11.226,-6.058 -3.528,-3.516 -8.688,-5.372 -12.961,-7.77 -2.91,0 -7.809,-4.359 -9.504,-6.914 -5.117,-1.262 -7.949,-5.18 -12.957,-5.18 0,-0.722 -6.441,-3.457 -7.773,-3.457 -3.094,-3.398 -9.661,-8.027 -11.239,-11.23 -10.258,-3.418 -19.386,-12.606 -25.926,-20.742 -5.664,-1.407 -9.488,-6.227 -13.644,-10.711 -4.375,-4.719 -8.656,-7.59 -13.129,-12.61 -2.984,-3.359 -7.117,-9.511 -11.234,-9.511 -3.028,-3.622 -13.828,-11.227 -13.828,-15.547 -3.508,-2.735 -9.504,-6.211 -9.504,-10.371 -2.746,-2.442 -8.711,-10.372 -12.094,-10.372 -0.985,-1.992 -2.586,-1.179 -2.586,-2.597 -3.16,-2.09 -2.164,-4.508 -5.191,-6.043 0,-4.699 -5.106,-5.656 -7.344,-8.645 -3.078,-4.082 -11.66,-9.011 -11.66,-13.816 -1.125,0 -2.922,-5.43 -4.328,-6.477 -3.34,-2.5 -6.629,-7.871 -7.766,-12.539 -3.817,-2.851 -8.238,-12.09 -12.961,-12.09"
         inkscape:connector-curvature="0" /></g></g></svg>