<?xml version="1.0" encoding="UTF-8" standalone="no"?>
<!-- Created with Inkscape (http://www.inkscape.org/) -->

<svg
   xmlns:dc="http://purl.org/dc/elements/1.1/"
   xmlns:cc="http://creativecommons.org/ns#"
   xmlns:rdf="http://www.w3.org/1999/02/22-rdf-syntax-ns#"
   xmlns:svg="http://www.w3.org/2000/svg"
   xmlns="http://www.w3.org/2000/svg"
   xmlns:sodipodi="http://sodipodi.sourceforge.net/DTD/sodipodi-0.dtd"
   xmlns:inkscape="http://www.inkscape.org/namespaces/inkscape"
   id="svg2"
   version="1.1"
   inkscape:version="0.91 r13725"
   xml:space="preserve"
   width="62.933777"
   height="40.5005"
   viewBox="0 0 62.933777 40.5005"
   sodipodi:docname="ibtimes.svg"><metadata
     id="metadata8"><rdf:RDF><cc:Work
         rdf:about=""><dc:format>image/svg+xml</dc:format><dc:type
           rdf:resource="http://purl.org/dc/dcmitype/StillImage" /><dc:title></dc:title></cc:Work></rdf:RDF></metadata><defs
     id="defs6" /><sodipodi:namedview
     pagecolor="#ffffff"
     bordercolor="#666666"
     borderopacity="1"
     objecttolerance="10"
     gridtolerance="10"
     guidetolerance="10"
     inkscape:pageopacity="0"
     inkscape:pageshadow="2"
     inkscape:window-width="1920"
     inkscape:window-height="1057"
     id="namedview4"
     showgrid="true"
     showguides="false"
     fit-margin-top="0"
     fit-margin-left="0"
     fit-margin-right="0"
     fit-margin-bottom="0"
     inkscape:zoom="8.2496765"
     inkscape:cx="29.836877"
     inkscape:cy="21.081901"
     inkscape:window-x="0"
     inkscape:window-y="0"
     inkscape:window-maximized="1"
     inkscape:current-layer="g10"><inkscape:grid
       type="xygrid"
       id="grid4221"
       originx="0"
       originy="0" /></sodipodi:namedview><g
     id="g10"
     inkscape:groupmode="layer"
     inkscape:label="ink_ext_XXXXXX"
     transform="matrix(1.25,0,0,-1.25,0,40.5005)"><g
       id="g4223"><path
         d="m 0,0 50.34702,0 0,32.4004 L 0,32.4004 0,0 Z"
         style="fill:#282726;fill-opacity:1;fill-rule:nonzero;stroke:none"
         id="path14"
         inkscape:connector-curvature="0" /><path
         d="m 11.449844,11.900721 c 0,-2.4223005 0.1504,-2.6019905 1.2922,-2.8051105 l 0.6871,-0.13086 c 0.1981,-0.15235 0.1719,-0.74531 -0.025,-0.89961 -1.3335,0.05117 -2.548,0.07422 -3.7084995,0.07422 -1.1856,0 -2.41919,-0.02305 -3.75552,-0.07422 -0.19687,0.1543 -0.19687,0.74726 0,0.89961 l 0.6957,0.13086 c 1.13008,0.20312 1.2836,0.38281 1.2836,2.8051105 l 0,9.4726 c 0,2.4215 -0.15352,2.5973 -1.2836,2.8047 l -0.6957,0.1309 c -0.19687,0.1574 -0.19687,0.7437 0,0.9011 1.33633,-0.0539 2.56992,-0.0812 3.75552,-0.0812 1.1604995,0 2.3999995,0.0273 3.7334995,0.0812 0.1981,-0.1574 0.1981,-0.7437 0,-0.9011 l -0.6871,-0.1309 c -1.1418,-0.2074 -1.2922,-0.3832 -1.2922,-2.8047 l 0,-9.4726"
         style="fill:#ffffff;fill-opacity:1;fill-rule:nonzero;stroke:none"
         id="path16"
         inkscape:connector-curvature="0" /><path
         d="m 21.469428,12.587494 c 0,-2.0082 0.249,-3.26601 2.177,-3.26601 1.826,0 2.786,1.46561 2.786,3.55431 0,2.2348 -1.229,3.8086 -3.601,3.8086 -1.362,0 -1.362,-0.027 -1.362,-1.0567 l 0,-3.0402 z m 0,5.9524 c 0,-0.6747 0.02,-0.729 1.306,-0.729 2.126,0 2.923,1.4188 2.923,2.9629 0,2.2364 -1.343,3.3481 -3.048,3.3481 -1.161,0 -1.181,-0.2074 -1.181,-1.3375 l 0,-4.2445 z m -3.409,2.4871 c 0,2.605 -0.053,2.8648 -1.09,3.0156 l -0.666,0.1031 c -0.221,0.1293 -0.273,0.9043 0.096,0.9258 1.879,0.1348 3.681,0.2355 6.153,0.2355 2.373,0 3.956,-0.2851 5.043,-0.9503 1.066,-0.6723 1.708,-1.7508 1.708,-3.2723 0,-2.1617 -1.758,-3.0149 -2.52,-3.2192 -0.248,-0.0543 -0.498,-0.1515 -0.498,-0.2824 0,-0.0781 0.129,-0.1574 0.345,-0.2043 1.953,-0.4386 3.614,-1.7793 3.637,-4.2773 0.024,-2.3688 -1.337,-3.75549 -2.894,-4.32267 -1.555,-0.56524 -3.411,-0.64258 -4.917,-0.64258 -0.893,0 -1.828,0.10039 -2.545,0.10039 -1.215,0 -2.423,-0.02305 -3.829,-0.07422 -0.196,0.1543 -0.196,0.82344 0,0.89961 l 0.709,0.15234 c 1.118,0.23633 1.268,0.41485 1.268,2.72973 l 0,9.0832"
         style="fill:#ffffff;fill-opacity:1;fill-rule:nonzero;stroke:none"
         id="path42"
         inkscape:connector-curvature="0" /><path
         d="m 36.495967,23.004774 c 0,0.6188 0,0.7469 -0.599,0.7469 l -1.526,0 c -1.803,0 -2.325,-1.0324 -3.066,-2.9082 -0.298,-0.1508 -0.771,-0.1074 -0.917,0.2355 0.522,1.7754 0.645,3.3727 0.817,4.3735 0.1,0.0746 0.222,0.1261 0.347,0.1261 0.123,0 0.244,-0.0234 0.344,-0.1015 0.123,-0.4356 0.199,-0.5422 2.077,-0.5422 l 9.194,0 c 1.63,0 2,0.0273 2.225,0.5715 0.098,0.0488 0.168,0.0722 0.322,0.0722 0.146,0 0.322,-0.1015 0.367,-0.1824 -0.242,-0.8695 -0.42,-2.9558 -0.367,-4.4242 -0.122,-0.2359 -0.788,-0.2793 -0.917,-0.0754 -0.417,1.6473 -0.764,2.8551 -2.619,2.8551 l -1.487,0 c -0.591,0 -0.663,-0.0754 -0.663,-0.7469 l 0,-11.3519 c 0,-2.3965205 0.148,-2.5980905 1.258,-2.7512105 l 0.99,-0.13086 c 0.175,-0.15235 0.175,-0.74531 0,-0.89961 -1.604,0.05117 -2.842,0.07422 -3.952,0.07422 -1.186,0 -2.474,-0.02305 -4.204,-0.07422 -0.197,0.1543 -0.197,0.74726 0,0.89961 l 1.113,0.13086 c 1.117,0.1289 1.263,0.35469 1.263,2.7512105 l 0,11.3519"
         style="fill:#ffffff;fill-opacity:1;fill-rule:nonzero;stroke:none"
         id="path58"
         inkscape:connector-curvature="0" /></g></g></svg>