<svg xmlns="http://www.w3.org/2000/svg" width="132.978" height="114.456" viewBox="0 0 132.97829 114.45627"><path d="M89.878.13c-.675-.337-1.227.004-1.227.759v92.824l40.645 20.323c2.025 1.012 3.682-.012 3.682-2.276V22.407c0-.445-.251-.852-.65-1.051L89.879.13" fill="#32fc8d"/><path d="M44.328 71.579L87.936.715A1.531 1.531 0 0 1 89.883.16l42.124 21.062a1 1 0 0 1 .405 1.418L88.655 93.743 44.328 71.579" fill="#0be370"/><path d="M4.91 2.001c-2.7-1.35-3.615-.351-2.033 2.22l41.45 67.358 44.328 22.164-44.04-71.567a1.918 1.918 0 0 0-.776-.71L4.909 2" fill="#14c767"/><path d="M44.328 111.79c0 2.264-1.657 3.288-3.683 2.275L2.455 94.97C1.105 94.295 0 92.508 0 90.998V2.29C0 .78 1.105.099 2.455.774L43.78 21.437a.99.99 0 0 1 .547.884v89.469" fill="#00ab6c"/></svg>