<svg xmlns="http://www.w3.org/2000/svg" viewBox="0 0 0.45097541 0.36112912" width="180.39" height="144.452"><defs><clipPath id="a"><path d="M238.113.5l-12.279 2.023-2.379 1.135-.922 1.242-1.455 3.088-1.137 1.35-2.52 1.808-.991.356-2.84.568-11.926-.568-8.41 1.49-4.899-.248-1.916-.887-1.81-1.703-1.951-.816-2.592.248-26.582 6.353-4.543 1.704-3.87 2.732-13.06 12.244-2.379 1.137-2.52.46-5.323.214-.213 19.875-.248 1.95-2.733 17.82-13.273 20.548-5.324 5.111-18.313 13.414-.32.782.781 20.799L80 145.73l-.105 3.55 2.164 6.105.355 2.838-1.385 2.84-1.455 1.384-.922 1.24-.355 1.35.46 4.791.25.781.78 1.135.356.25 1.916 2.022 1.029 1.492.46 1.703-.568 1.809-1.027 1.029-4.33 2.484-1.81 1.953-5.786 9.655-1.029 3.724-.46 1.242-1.704 4.543.105 1.954 1.278 2.271 14.978 20.656 1.916 1.951.71.108.78-.108H87.384l.709.674-.817 3.16v1.846l.356 1.703.568 1.56.887 1.386 1.703 7.488-.105 2.379-1.811 4.435-.105 1.49 1.81 2.272.674.676.355.886.78 2.733.816.924 1.137.318 1.135.248.994.569.816 1.597.461 2.485v4.543l-.71 2.271-2.022 4.082-.817 2.272-.107 4.33-.461 1.455-1.348 1.597-1.242.248-5.36-2.732-1.81-.356-1.598.461-1.56 1.704-.568.675-.248.567-.108 1.705-.353.922-2.024 3.158-1.81 3.869.107 1.49 1.242 1.916 5.57 5.785.782 1.03.248 1.384-.248 1.456v.46l-.781 1.811-1.028.816-1.242.569-1.242 1.242-.569 1.348-.568 7.062-.816 1.705-2.733 3.158-2.129 3.975-1.492 1.385-5.004-.569-3.3.887-5.999 2.38-1.242 1.028-.816 1.596-.213 1.918.32 1.703 1.03 2.52.673 2.484-.568 2.272-2.697 1.492-1.49-.108-1.598-.355-1.35.46-.674 2.024.108.569.46 1.029-.142.46-5.111 6.602-.567.569-1.35.426-.567.46-1.596 2.627-.32 2.272.568 2.271.994 2.59.354 1.492-.106 5.325-.46 1.843-1.706 3.16-2.838 8.518-1.242 2.627-2.059 1.455-5.68 1.492h-1.029l-.779-.46-.781-.569-.924-.318-.922-.143h-2.592l-.816.248-.887.569-.816.675-.674.676-1.137.108-6.459-.569.213 2.272-.105 5.254-.463 2.271-.319.568-.923 1.348-.213.213.213.707.355.107.32.213.354.569v1.244l-1.03 2.412-.353 1.244.14.78.427 1.243-.106.707-.46.424-1.456.71-.463.568v.886l1.598 20.444.213 2.377-.674 2.84-.569 1.027-1.703 1.812-.46 1.028v.816l.247 1.455v.817l-.71 3.511-.106 1.596.356 1.916.566 1.813 1.705 3.511.566 1.705v1.952l-.673 1.457-.922 1.382-.676 1.457-.248 1.493-.106 5.003-1.029 5.217-.676 6.033-.779 1.561-.248.709.14.318v.356l.674 1.027.89 2.377 2.058 2.272.674 1.136.248 1.243-.922 13.984.353 3.16 1.705 3.195 2.485 2.84 1.808 3.053-.213 3.512-.248.816v.46l-.318.106-1.705-.355h-.922l-.674.355-.213.89L8.13 560.41l-.106 1.137-.248.78-.675.923-.78 1.457-.355.566-.108.569.32 1.137.71.923 2.271 1.813.426.78-.318.816-.924.459-1.03.32-.992.459-2.166 3.053.32 2.98 1.135 3.16.356 3.512-.781 3.547-.248 1.812.355 1.596.674.889.674.46.923.213 1.03.141.426.424.248.816.213 3.87-.461.886-.995.676-1.49 1.385-1.03 1.812v1.703l.675 3.512-.108 1.705-1.808 5.36-.356 1.703-.674 3.728v5.112l18.739-1.813 12.847.676 11.004-1.244 9.334.459 4.862-.567.46-1.812-.46-.461-.106-.46-.213-.46-.463-.46-.46-.675.355-.568.674-.461.213-.567.355-.992 1.137-1.844.318-.888v-.676l-.568-1.277-.106-.567.354-.676.781-.212h.816l.676-.356 1.809-1.916 1.03-.924 1.454-.781-.105 1.137-.569 1.812.106 1.028.355 1.027.213.32.569.356h1.029l1.03.318.212.248h1.135l.924-.248 1.029-.318 2.838-1.596.889-.107h1.49l4.082-1.385 4.435-2.483 4.756-1.812 4.686 1.137.674-.25.46.142.569.213.568.461-6.957 1.027-.994.319-.46 1.812-1.136 1.385-1.703.887-1.81.816-1.135-.353-3.764 1.134-1.703.356h-3.406l-.781.318-.143.71.248.991-.105.924-1.278 1.244-1.242.676-1.35.248-1.595.108-1.137.353h-.674l-.248-.707-.428-.107-2.98 2.732-.318-1.244-.108-1.244-.568-.46-1.278 1.245-.568-.461-.426-.105-.568.105-.816.46 1.242.78.816.924 1.03.781 1.81.354 35.668-1.81 21.225 1.81 18.064 3.3 5.217.89 7.277 3.298 1.348.568 3.195 2.061 5.11 4.756 2.84 1.703 6.245 3.977 2.485 2.06 2.945 3.05 2.166 3.302 1.49 1.703 3.301 1.347 1.703 1.598 9.76 12.598.32.46 3.088 6.815.887.106 4.225-3.832 1.24-.924 6.248-3.3 3.3-1.028 2.839-2.483 1.81-.355-1.916 3.195-6.814 2.484-2.733 2.272v.816l.319.889.142.707-.46.568-.57-.248-1.702-1.244-.924-.355-1.03.709-.779 1.455-.463 1.953-.212 1.559.32 2.06.709 1.492.781 1.137.781 2.375 1.03 1.703 1.384 1.598 1.24 1.135 1.137.78.461.214 2.13-.782 1.952-1.134.887-.213 2.059-.143 1.35-.568 1.134-1.135.922-1.56 2.271-6.247h.463l.106 1.559-.106 1.137-1.597 4.543v1.492l.673 1.135 1.598.925 1.348.106 1.492-.356 1.348-.675.923-.78 1.03-2.52.781-.888h1.596l1.492.676 1.703 1.137 1.348 1.455.568 1.275.107.889-.212.568-.356.248h-.887l-.248-.355-.463-1.916-.212-.567-.922-.568-1.243-.461h-1.35l-1.028.46-.674.993-1.383 2.979-.781 1.136h-.569l-1.703-.923-3.195-.569-8.162-.355-.569.142-.673.569-1.385 1.455-.569.25-.212.779.107 1.813.674 1.81 1.703 1.137 2.627 2.412.355.424.319.924.46.46 9.3 3.16 4.898.249-.568-.676-.569-1.137-.105-1.027.318-.569 1.03.213.355.356.213.568.46.567 1.704.675 1.35-.212 1.134-1.276.924-2.023-.46-2.164 1.134-1.813 2.058-1.027 1.916.459.356-.46.568-.355.213-.424 1.49.424 1.243-.568 1.029-.992 1.35-.567-1.137 1.916-1.03 1.028-.992.459h-2.734l-1.242.213-1.135.677-.568 1.028-.143 1.347.143 1.385.32 1.135.674 1.244 2.058 1.705.674 1.027h-.568l-.887-.568h-1.277l-1.35.213-2.838 1.137-.568.355-.461.567-.568 1.244-.674.46-.676-.923-.248-.569-.213-.779-1.598.46-5.572.107-1.916.459-.46.992 1.81 7.523.355 3.832-.213 3.088.213.676.922.46 1.916-.46 1.137.568 1.135-.459.673-.107h.817l.213-.354v-1.56l.213-.356.923.569 2.272 2.484.568.924-1.597-.356-1.811-.213.461 1.245 1.242 3.3-1.03-.568-1.454-2.164-.922-.676-1.242-.46-1.385-.106-.992.459-.356.888.213 1.383.569.889.709.568.212.707.213 1.35.356 1.244 1.135 2.162.462 1.35.674 3.867 2.377 6.494 2.627 2.945.674 2.024-2.838-1.703.922 1.027 2.13 3.512.354 1.385 1.03 1.595 3.62 2.272v1.56l-.568-.32-.213-.105-.355-.143.816 3.549 2.272 3.16 7.701 7.275.568.354 2.166 2.273.674.887 1.81 1.953 1.136.424 1.134.355 1.03.46.675 1.027-.568-.354-1.137-.46-.566-.32 1.03 1.245 3.3 1.916 1.348 1.383h.568l-.105-.924.248-.568.673-.354.887.14-.887 2.026 1.03 2.059 1.916 1.596 1.597.568.674.424 1.137.924 1.242.923 1.24.108.924-1.028-.213-1.35-1.277-2.839 1.277.781.426.354.711-2.84h.426l-.108 1.457.108 1.383.14.32 1.137 1.596-.248.213-.463.142.143 2.944.674.46 1.81.106 1.242.46 1.03.888.673.107.249-1.812-.354-1.245-.781-1.027-.461-.889.46-1.134-.46-.71-.356-1.243-.105-1.137.213-.887 1.03-.355 1.028.46.78.213 1.029.106-.318 2.271v1.278l1.242-.356.46-.105-.247 1.135-1.137 1.916-.318 1.384-.143 1.559.356 1.137.673.816 1.385.568.318-.355.569-.461.248-.318 2.129.568 3.088-.248 2.379-.781.46-.78-1.134-.248h-.569l-.675.248v-1.136l.568-.46.676-.25.46-.423.675-1.135.46-1.705.108-2.164-.568-1.383-.924-1.347-.887-1.916 1.562.318.922.816.674.889.817.814-.567-1.595-.463-2.06-.105-2.024.105-1.703h.463l1.348 4.08.355 4.437 2.84-3.408.674-.248h.568l.674.105 1.03.143-5.467 6.103-1.596 3.55 1.951 2.376 1.598-.677 3.832-.141 1.597-.676 1.598-.32 2.059-.143 1.35-.566-.569-1.56 1.03-.356 1.134-.106 2.272 1.455 4.863.461 4.117-.888.213-2.84 1.03-3.195.318-3.409-.782-2.945-2.377-1.81 2.59-.25 1.278 2.164.32 3.052-.108 3.764.213 2.629.924 2.592.461.568 2.379-.213h2.625l.781-.25.569-.887v-1.029l-.782-2.84-.709-1.703-.994-1.705-.355-1.348-.106-3.974-.46-1.137.566-.355.463-.356.46-.566.213-.424.461.887.213 5.216.356 1.137.674 1.844.212-1.027v-1.706l.461-.675-.673-2.733.568-3.867 1.348-3.408.46-.676 1.137-1.385v2.522l-.107.887-1.916 5.005-.248 1.383v2.84l.105.32.817.676.213.46-.106.355-.46.568-.321 5.004.32 1.137 1.809.992 3.088.353 3.3-.213 2.592-.459 2.059-1.136-1.03-1.244-1.705-1.493.213-1.916-1.134-1.275-.887-2.484-1.598-8.163.108-1.275.46-.676 1.81-1.597-1.597-2.592-.994-1.383-1.029-.568-.816-.569-.32-1.455-.354-3.088-.676-3.052-.566-1.493-.782-.568-1.029-.568-.46-1.135-.108-1.457-.354-1.492.674.355.709.108.676-.108.779-.355.107.816.248.568.782.993 1.029-.993.781.106.248.678-.568 1.027-.922 1.137-.32 1.135.32 2.023 1.24 5.111 1.493 2.84 2.164 1.137 1.35.568.247 1.276-.355 1.347-.356.781-.674.924-.568.567-.318.781-.248 1.492.353 2.164.889 2.592 1.383 2.164 1.35.816-.57 1.348.106 1.492.711 1.348.887 1.027 1.953-.816 1.809.46 1.918.925 1.808.568-.318-.568-.107-.356 1.562.356.816.32 1.135.248.781-.46.461-.78.213-.817-1.134-1.244-2.946-5.89-.107-1.953.781-5.786-.674-1.027-1.457-.32-1.595.32-.817 1.244-.676-.889.356-.458.568-.461.319-.676-.106-.676-.32-.568-.71-.817-1.241-2.023-.32-1.137-.249-1.383 2.522 2.73.779 1.386.781 1.56.817-.32.32-.248.353.816 1.03.318h.781l-1.81-4.86-.922-1.386.355-.675-.213-2.024.426-1.275 1.03 1.844.247 1.347.569.106 1.56-2.164.356.709.46 1.812.32.887 1.704 1.953.461.887-.461-.213-.781-.106-.461-.248.248 1.276-.248 1.703-.461 1.457-.32.676-.922.707.353 1.35 1.35 2.27.248 4.33.568 2.024.887 1.953h.676l2.271-.568-.888-1.277-.461-1.455.213-1.385 1.136-.992-.32 1.56.46 1.276 1.138.888 1.56.356v-1.244l1.705.675 1.49-.675 2.272-2.63.566-1.347-.779-1.492-1.277-1.244-1.137-.815 2.166-.992-.215-2.732-1.951-2.84-2.59-1.385-1.492-.424-.78-1.275-.816-2.84-.568-.568-.568-.108-.32-.105-.354-.924.248-.108.426-.566.46-.781.108-.817.922 1.278 1.35 3.832.708.814 1.455 1.244.676.782.248.14h1.809l1.242-.566h.461l.355.78v2.27l.674 1.706 5.219 5.677 1.916 2.733.356.459 3.761-.567.569-.709.105-.779-.46-.568-2.272-.461-1.35-1.135-1.135-.46v-.78l-.568-.356v-.424l.781-.355.213-.568.143-.567.213-.355h1.595l.569-.213.46-.356.995 1.493 1.95.923 2.167.32 2.023.106 2.946 1.596 1.703.25.816-1.846h.568l.78.817.924-.106 1.029-.568.676-.569 1.455-1.595.248-.248-.248-.676-1.135-1.35v-.459l.707-1.027v-.889l-.248-.924-.213-1.136.213-.924.676-.676.46-.318.925-.71h.566l-1.596 3.868-.213 2.164 1.244 1.35-.353.923-.215.213 1.457 1.952.248.46-.355.887-.567.461-.568.356-.213.423.106 1.028h.675l1.03-.108 1.027.356-.459.213-.213.355-.25.213-.213.356 7.383.566 1.135.213 1.136 1.137 2.377.355 2.73-.143 1.813-.423-.568-.356-1.348-.213h-.923l.568-.924 1.027-.355 1.03.143.779.568 14.303-1.703h3.656l1.56-.25 2.84-1.455h1.596l3.408.424h7.168l4.756.568h3.656l.781-.108.78-.459 1.136-2.484.815-1.348 1.598-.923 1.347-1.245-.213-1.953-.816-.566-.889-.32-.816-.461-.46-1.135.249-.781.676-1.951.213-.46-.993-1.35-1.275-3.618-.424-.461-.355-.248-.924-.424-.889-1.137-.814-1.383-.569-1.136 1.383-.887-.353-1.953-2.164-3.977-1.137-1.455-4.543-4.33v-.459h.46l.46.567.781 1.029 1.027.78.924.46 1.028.354.677.675.887 1.813.461 1.385.106.105 1.953 1.137 2.271 1.596.676.992-.356 1.136 1.706.924.568.106-.32.816-.248.319 2.164 1.953 2.375.213 1.843-1.493.569-2.84h.568l-.459 2.84-.816 2.98.14 2.376 2.485.888 1.136-.212 1.596-.78.676-.25.46.356-.25.888-.318.817-.46.566-.354.782.566.248h.817l.46-.143 1.245.355 1.027.213.992-.423.707-1.276.108-.781-.568-1.244-.106-.817.213-.779.78-1.596.142-.779 1.135-1.492.78-.781.677-.248.816.142.566.424.108.355 1.455-1.35-.318-1.275-.248-1.136-.213-1.703.675-1.348 2.272-1.596.568-1.595 3.196-5.112 1.244-1.812.779-1.596 1.277-3.621.569-1.135 1.558-2.484.817-.817.888-.459 1.028-.213.924-.355.568-1.137 2.271-11.215-.105-.923-.71-2.06-.105-1.136.569-1.916 1.703-3.511.568-1.954v-1.703l-.32-1.56-.14-1.703.566-1.846 1.277-1.559 1.559-1.492 1.277-1.596.318-2.025-.886-2.271-1.492-1.596-1.917-1.492-1.705-1.596-1.027-2.129.676-1.135 1.348-1.136 1.492-1.844.46-2.024-.816-1.492-.888-1.244-.106-1.705.887-1.348 2.945-2.058 1.135-1.35 1.385-1.383 1.812.248 1.813.676 1.49-.248.213-.992.25-2.412.424-.569 1.382-.675 1.03-1.137 1.81-2.592 7.596-7.95 11.465-9.228 2.162-2.943 2.377-5.004 1.137-1.348 1.134-.568 1.03-.107 1.027.107 1.244-.107 2.375-1.383 2.522-4.863 2.482-1.596.461-.106 3.3-1.244 1.704-.924 1.348-1.244 1.953-3.656 1.244-.992 2.482-.568h3.973l1.027-.817 6.354-20.193 1.595-1.844 2.061.248 1.56.78 1.596.46 1.951-.78 20.444-17.284 1.916-1.137 1.135.248.677 1.348 1.244 6.14.924 1.706 1.703 1.242 2.272.781 21.473-.32.107-1.952.353-1.244.678-1.136 1.028-1.348.423-.459.569-.107.353-.248.461-6.354.676-3.16 1.027-2.979 1.244-2.377 1.598 1.952.46 4.082 1.456 1.244 2.162.676 5.785 3.087 6.922 2.592 2.733 1.813 1.383 3.3.78 3.868 1.596 3.62 2.733 2.628 7.701 1.492 2.84 2.129 1.596 3.408.355 3.975-.248 3.3.354 3.196 1.347 6.459 1.598 3.976 1.348 1.244 2.271.356 7.63-.781.462.107.887.568.675.106.461-.213.924-.816.318-.106h.926l1.81.46.925.107 2.025-.461 2.164-1.135 1.596-1.457.568-1.951.46-3.409 1.243-2.84 2.164-1.812 3.301-.355 2.272-1.245 2.023-2.73 2.377-5.537.568-2.272.248-2.273-.46-1.492-1.813-2.059-.567-1.244.46-2.273 1.56-2.024 5.111-4.683 4.791-3.053.319-.461.248-1.135.32-.32.46-.14.815.14.993-.248 1.277-.106.566-.107.676-1.492.213-.78 1.244-.816 3.55-3.16.888-.569 1.134-.353.924.105.782.356.675.105.817-.213.78-1.95-1.028-2.026-3.266-3.512-4.117-6.033-1.242-1.027-1.916-.32-.461-.46.676-.816 1.492-1.137 1.703-1.558 5.111-7.631 4.863-4.756 5.252-5.111 2.272-3.301 1.244-.924 1.03-.889.318-1.703-1.135-4.898-.107-1.81.212-1.813.569-1.703 2.98-5.36 8.27-11.465 3.195-3.298.461-1.245-.25-1.347-.566-2.06-.461-3.161v-3.3l.46-1.952 3.409-4.863.676-1.81v-1.598l-1.245-6.707-.212-3.868.675-3.62 1.813-2.628 1.81-.78 3.301.567 1.703-.248 1.03-.78.675-.925.569-.992.566-.814 2.522-1.813.779-.676-.108-2.377-.248-1.134-1.916-4.791-.675-1.137 2.271.676 1.137.248 1.244-.106 1.244-.568 1.027-.71 1.03-.565 1.455-.108 1.137.248 2.627 1.244 1.244.213 1.384-.213 8.518-4.543 1.455-1.595 1.137-2.733.816-2.271.569-1.028.992-.423h1.135l1.029.212h1.027l1.137-.46 1.81-2.485.924-3.512 1.916-15.687-.566-3.05v-3.41l1.703-3.974 3.867-6.814.569-1.49.212-1.49.143-3.266-.709-2.627-.78-1.598-2.374-.46-.356-.214.569-1.49.568-.426 4.896-2.271.676-.461.924-.924 2.377-3.053 1.135-.922 5.785-2.484 6.602-1.03 5.324-2.165 2.377-5.89.459-5.36 1.029-5.678.78-1.918.816-1.348.213-1.384-.924-1.916-2.485-2.52-.78-1.242-.142-1.916.569-1.705 2.058-3.086.356-1.918-.356-1.596-1.027-2.734v-1.703l1.492-2.84 2.733-.992 6.564-.711 1.598-.674 1.916-1.135 1.703-1.35 1.027-1.242 1.385-2.84.106-1.134-.106-.924-.568-1.703v-1.135l1.916-5.111 2.84-15.793 3.052-10.436 2.412-4.79 14.764-21.01.424-.89.568-1.382-.424-3.16.32-1.703.925-1.383 1.347-1.137 3.196-1.81 1.027-1.348 1.35-3.3 2.058-3.515 2.697-3.408 3.196-3.193 3.195-2.485h2.484l3.301.887 5.89 2.414 1.706.319 1.812-.461 1.844-.887 1.455-1.135 2.272-2.379 1.029-.355 2.271-.354.676-.213 7.383-6.814 1.596-.781 4.896-1.598 1.813-1.03 3.052-2.624 1.704-1.137 4.33-1.455 1.347-.816 1.03-1.456.923-2.058.676-2.024.213-1.703v-2.164l-.46-1.703-.888-1.385-1.384-1.35-.78-1.134-.355-.568-.568-.356h-1.456l-.355-.105-.78-1.03-.107-.673.424-.782 3.088-3.974.568-1.385 1.813-8.518.924-2.591.32-2.838v-.569l-.107-.923-1.596-3.62-.213-1.597 1.455-.922-.105-.889 1.382-6.033.569-.887.32-.568.248-.461 1.56-1.598-.107-.922-.318-.78-1.705-.214-1.135.569-1.137.318-.46-.318-.567-1.703-1.385-1.137-1.56-.922-1.703-1.137.779-.46.355-.106v-.569l-.924-.462-2.484-1.81-.568-.567-.14-.782.458-1.134-.318-.924-2.274-1.135-5.36-1.35-17.142-.46-1.242-.249-1.137-.673-.675-1.243-.143-1.029.568-2.484v-1.598l-.423-1.49-.143-.32-.105-6.495-9.407-44.293-38.047-52.244-20.691-.781-2.484.355-.815.569.14 1.455-1.382.922-3.3 3.053-.57.673-.423.924v.356l.424.566.142.426-.248.71-.568.106-.568-.105-.319.213-.816 1.134.105.356 1.278.213-1.598 1.916-1.951.71-2.272.427-2.273.921.355-.673.108-.817-.108-.674-.779-.107-.46.355-.677 1.35-.568-.355V29.1l-1.492.46h-1.49l-.993-.355.424-.78v-.462l-2.273.107-2.127.817-7.524 3.619-2.273.463-2.271-.463-.319 1.35h-.816l-.992-.426-1.385-.356v.569l.676.212.568.356.568.46.569.675-1.137.922-2.272 2.486-.107.213.107.709v.213l-.32.107-.676-.107h-.248l-.318.213-1.137.355-.248.354.354.994.568.568v.356l-1.135.105-.25-.318-.423-.569-.46-.355-.248.355h-.212l-.461 1.348-2.164 2.627-1.348.994-1.916.461-1.027.46-.569 1.917-.676.46-1.277-.318-.887-.568-.675-.709-.926-.676-.106 1.385-.105.426-.568.568-.569.461-.568.108-.356-.428-.353.32-3.053 2.84-.213 1.242-1.137 1.596-.566 1.242 1.348.461-.569 1.81-.46.924-.676.78-.569.142-1.916.32-.353.354-.676 4.438-.461.992-1.137.568-1.347-.318-1.596-.569-1.951-.248-2.274-.107-2.943-.105-1.348-.356-.816.461-.568-.46-.676-.675-.78-.463-.816.143-.568.32-.319.461-.355.213-.568-.107-.213-.319v-.46l-.356-.569-.887-.568-4.224-1.385-1.348.25-1.812 1.242-1.135.106-2.733.248-5.003-1.135-1.596-.817-3.87-2.945-11.57-6.922-9.191-3.762-25.234-6.246-40.532.248-15.226-1.703-7.95.569-42.802 9.086-3.512 1.347-15.793 8.73-1.492 1.386-.32.886-.356 2.059-.353.781-.992.709h-.461l-.924.32-1.596.922-2.695 2.592-14.338 16.61-.569.673-.992.781-.924.569-.568.248-1.705.107-17.709-1.953h-1.492l-4.543 1.28h-3.053l-24.205-2.735-2.943-.353-22.04-6.354-3.052-1.703-1.385-1.705-2.375-3.975-1.705-1.703-3.62-2.732-1.95-.889-2.274-.46h-.992l-2.058.212-.924.355-.992.461-.356.213h-.355l-.78-.355-.568-.426-8.412-7.38-2.024-2.522-1.136-.887-1.135-.568-2.52-.567-1.244-.568-2.732-2.166-2.377-1.49-1.916-1.81-.924-.675-2.271-.922-21.118-2.947-2.943.356-2.84 1.242-30.24 17.816-2.697.817h-2.98l-8.626-1.49-1.916.355-5.004 5.785-3.974 3.406-1.81.887h-.462l-1.49.25-6.248.105-2.697-.355-2.625-.887-2.627-2.058-3.053-2.733-5.004-5.537-2.023-3.654-6.707-12.246-13.63-14.551-11.712-10.897-5.573-3.087-5.998-1.348-1.703.355-4.79 2.59-.887.356-.461-.356-.569-.46-.781-.321-47.15-18.268L238.113.5zm142.412 779.086l-.34 1.363-.341.797-1.59 1.817-1.93 2.84-2.611 2.84-.797 1.587.797 1.024 2.838.226 7.383-1.475 1.134-.568 1.137-.68.795-.796.34-1.249v-1.363l.228-1.136.453-.909 1.024-.908-1.024-.455-3.86.455v-.006l-1.25-.568-1.249-2.157-1.137-.68zm14.536 2.842l-3.975 1.248-.91.457-.795 1.474.568 1.026 1.25.68 6.133.34 1.477-.114 4.087-1.476 1.364-.227 3.181.113 1.364-.34.795-.908.457-1.137-.797-.34-2.84.34v.002l-1.365.229-3.067.68-1.476.226-1.477-.34-2.953-1.591-1.021-.342z" fill="#70fee4"/></clipPath></defs><path d="M.3.02L.283.022.28.024.273.028.271.03V.03H.27L.27.032.269.032.262.04H.235L.226.035H.224V.035L.223.033H.222L.22.03H.215L.21.027V.025H.207V.024L.207.024H.206L.205.021H.202L.193.02.19.022.177.03H.17L.167.032.166.033H.157L.157.03.154.029V.027L.15.02v.334h.001V.35L.153.35V.348.358L.155.36h.004V.357L.156.357V.354H.155V.347H.154V.346H.153V.342H.152V.34h.001v.005l.001.001h.001v.001h.001V.35H.155v.003l.001.001v.002l.001.001h.005L.162.353V.35H.16V.346L.158.346.16.347V.35h.002V.345h.001v.001l.001.001V.35H.162v.004l.001.001v.001h.002V.352v.001h.002L.17.353V.347L.166.347.165.344H.164V.343l.001.001.001.001H.17v.002l.003.003.001.002h.002V.351H.174V.35H.172V.35h.001V.348h.002V.35h.007V.344v.006h.001v.001h.004L.19.354h.002H.19V.351H.2L.202.35H.211L.213.35.213.348V.344L.211.341H.21V.34H.21V.336H.208L.207.335H.21v.002H.21v.001h.002V.34h.001v.002h.002V.34h.001v.004h.002v.001H.22V.341h.001V.34h.002V.337h.001V.336L.227.334V.332L.228.33.229.329H.23L.231.322V.32L.232.32V.315L.235.312V.31H.231V.302L.234.3h.003V.298h.001V.297L.24.297.243.293.248.29.25.288.25.285h.002L.255.283V.282L.257.28h.002V.28H.26L.26.277.263.276h.001l.004-.01h.004L.28.259h.001l.001.003.001.001h.011V.261h.001V.257L.297.256.298.253l.001.003H.3v.001V.02zM.172.351v.002H.168v.002H.167v.001h.005L.175.355V.353h.001V.352H.173L.171.352zm.007.001H.176v.002h.008V.353H.177V.352zM.15.356v.003h.001V.355z" fill="#fff" stroke="#008751" stroke-width=".00108234"/><path transform="matrix(.0005 0 0 .0005 0 0)" d="M.5-17.045V801.29h333.334V-17.045H.5zm666.666 0V801.29H1000.5V-17.045H667.166z" clip-path="url(#a)" fill="#008751"/></svg>