<svg xmlns="http://www.w3.org/2000/svg" width="169.991" height="237.9" viewBox="0 0 127.49309 178.4252"><path d="M98.052.014c-1.581.076-3.119.478-4.6 1.425 6.1 1.22 13.25 2.04 17.1 7.6 1.93 2.05 1.33 5.2-.6 7-3.65 4.35-9.915 5.715-15.275 4.325-18.17-4.29-35.355-12.63-54.025-14.8-10-1.32-19.775 3.49-26.675 10.45-6.37 6.39-8.685 16.09-7.425 24.85 1.41 6.93 6.545 14.13 13.975 15.15-4.4-4.78-5.235-13.08-.675-18.05 2.58-3.2 7.165-3.64 10.975-3.05 14.47 2.69 28.57 7.045 43 9.975 8.08 2.2 16.065 4.825 24.325 6.325.15 9.87.15 19.73 0 29.6-5.33 3.98-10.42 8.265-15.65 12.375 5.09 3.81 10.34 7.38 15.6 10.95.34 13.96-.05 27.915.2 41.875-8.61 6.65-20.145 7.73-30.625 6.5-11.13-.62-21.01-7.25-28.3-15.3 12.22-6.52 24.675-12.67 37.175-18.65.44-22.01.08-44.03.2-66.05-15.62 6.55-31.08 13.45-46.65 20.1 4.5-11.51 13.655-20.835 24.575-26.375-2.85.17-5.84-.04-8.5 1.2-20.44 8.07-37.285 25.415-43.625 46.575-4.24 13.44-2.875 28.135 1.725 41.275 5.7 14.62 16.245 27.56 30.225 34.95 7.85 4.06 16.3 7.865 25.3 7.975 18.63 1.55 38.23-5.48 50.8-19.5 5.49-5.89 8.255-13.57 10.975-21 2.52-7.32 3.66-15.11 3.4-22.85-6.03 11.96-14.05 23.195-25 31.125.07-13.91-.025-27.815.025-41.725 4.76-3.63 9.54-7.255 14.15-11.075-4.73-4.19-9.43-8.375-14.15-12.575.02-9.78-.02-19.58 0-29.35 10.65-.56 22.905-6.18 25.775-17.35 2-7.29 3.045-15.925-1.425-22.525-4.11-4.68-9.44-8.745-15.7-9.875-3.465-.302-7.12-1.666-10.6-1.5zM48.227 67.089c-.04 21.2.125 42.4-.075 63.6-3.54 1.39-7.02 2.91-10.5 4.45-6.42-9.29-10.41-20.225-12.25-31.325-.5-9.37 1.24-18.86 4.5-27.65 6.16-2.93 12.185-6.095 18.325-9.075z"/></svg>