<svg xmlns="http://www.w3.org/2000/svg" width="52.403" height="52.404"><path d="M0 26.202C0 11.732 11.731 0 26.203 0c14.468 0 26.2 11.731 26.2 26.202 0 14.472-11.732 26.202-26.2 26.202C11.73 52.404 0 40.674 0 26.202" fill="#7cc242"/><path d="M37.17 39.66l.002-.022c0-3.961-2.114-7.426-5.275-9.332a10.9 10.9 0 0 0 5.148-8.608s0-.281-.357-.28c0 0-4.543-.01-4.886-.009-.344 0-.444.27-.444.27a5.23 5.23 0 1 1-10.354.144c-.02-.159-.022-.414-.576-.414l-4.584.008c-.48-.01-.495.231-.469.425a10.913 10.913 0 0 0 5.213 8.51 10.885 10.885 0 0 0-5.199 9.286l.001.023s-.034.417.553.419c.58.003 4.14-.024 4.706-.02.566.004.466-.424.466-.424-.002-.028-.005-.054-.005-.081a5.135 5.135 0 0 1 10.269 0c0 .027-.123.488.55.496.62.007 4.306.009 4.795.006.521-.004.446-.396.446-.396M15.791 20.41c.413.005 4.374-.013 4.831-.004.4.007.372-.227.372-.227.366-2.53 2.543-4.505 5.176-4.505 2.632 0 4.809 1.975 5.175 4.505 0 0-.021.254.457.248l4.873-.001c.356-.01.352-.256.352-.256-.456-5.58-5.125-9.967-10.822-9.967-5.695 0-10.365 4.388-10.821 9.967 0 0-.044.237.407.24" fill="#fff"/></svg>