<?xml version="1.0" encoding="UTF-8" standalone="no"?>
<svg
   xmlns:dc="http://purl.org/dc/elements/1.1/"
   xmlns:cc="http://creativecommons.org/ns#"
   xmlns:rdf="http://www.w3.org/1999/02/22-rdf-syntax-ns#"
   xmlns:svg="http://www.w3.org/2000/svg"
   xmlns="http://www.w3.org/2000/svg"
   xmlns:sodipodi="http://sodipodi.sourceforge.net/DTD/sodipodi-0.dtd"
   xmlns:inkscape="http://www.inkscape.org/namespaces/inkscape"
   version="1.0"
   width="31.819006pt"
   height="36.596512pt"
   viewBox="0 0 31.819006 36.596512"
   preserveAspectRatio="xMidYMid meet"
   id="svg2"
   inkscape:version="0.91 r13725"
   sodipodi:docname="pnas.svg">
  <defs
     id="defs18" />
  <sodipodi:namedview
     pagecolor="#ffffff"
     bordercolor="#666666"
     borderopacity="1"
     objecttolerance="10"
     gridtolerance="10"
     guidetolerance="10"
     inkscape:pageopacity="0"
     inkscape:pageshadow="2"
     inkscape:window-width="1920"
     inkscape:window-height="1057"
     id="namedview16"
     showgrid="true"
     fit-margin-top="0"
     fit-margin-left="0"
     fit-margin-right="0"
     fit-margin-bottom="0"
     inkscape:zoom="7.2965944"
     inkscape:cx="42.230312"
     inkscape:cy="37.583651"
     inkscape:window-x="0"
     inkscape:window-y="0"
     inkscape:window-maximized="1"
     inkscape:current-layer="svg2"
     inkscape:snap-grids="true"
     inkscape:snap-page="true">
    <inkscape:grid
       type="xygrid"
       id="grid4145"
       originx="0"
       originy="18.697382" />
  </sodipodi:namedview>
  <metadata
     id="metadata4">
Created by potrace 1.13, written by Peter Selinger 2001-2015
<rdf:RDF>
  <cc:Work
     rdf:about="">
    <dc:format>image/svg+xml</dc:format>
    <dc:type
       rdf:resource="http://purl.org/dc/dcmitype/StillImage" />
    <dc:title></dc:title>
  </cc:Work>
</rdf:RDF>
</metadata>
  <g
     id="g4147"
     transform="translate(0,-0.37670732)">
    <path
       d="m 8.5258262,18.872286 c -0.3498,0.1749 -0.309438,0.05382 -4.049606,10.117287 -1.049399,2.811853 -2.044984,5.354629 -2.219884,5.664067 -0.349799,0.605423 -0.780322,0.941769 -1.35883696,1.062853 -0.807231,0.188354 -0.861046,0.215262 -0.861046,0.551608 l 0,0.322892 2.75803696,0 2.758037,0 0,-0.336346 c 0,-0.363254 -0.05382,-0.403615 -0.834138,-0.538154 -0.645784,-0.10763 -0.914861,-0.376707 -0.914861,-0.928315 0,-0.242169 0.309438,-1.385745 0.672692,-2.542775 l 0.686146,-2.112253 2.717676,0 2.7311288,0 0.766869,2.340968 c 0.417069,1.291569 0.766869,2.435145 0.766869,2.542776 0,0.295984 -0.443977,0.618876 -1.022492,0.739961 -0.443977,0.08072 -0.538154,0.161446 -0.565061,0.470884 l -0.04036,0.363254 3.094383,0 3.107837,0 0,-0.322892 c 0,-0.336346 -0.215261,-0.484338 -0.713053,-0.484338 -0.511246,0 -1.143576,-0.497792 -1.479922,-1.170484 C 14.230254,34.02131 13.086678,30.76548 10.04611,21.832131 9.4675952,20.110039 8.9563492,18.697386 8.9159872,18.697386 c -0.04036,0 -0.215261,0.08072 -0.390161,0.1749 z m 0.565061,6.659651 c 0.565061,1.748999 1.0359458,3.269283 1.0359458,3.36346 0,0.134538 -0.5112458,0.161446 -2.2467908,0.134538 -2.179523,-0.04036 -2.260246,-0.05382 -2.219884,-0.309438 0.09418,-0.497792 2.219884,-6.390574 2.31406,-6.390574 0.04036,0 0.551608,1.439561 1.116669,3.202014 z"
       id="path8"
       inkscape:connector-curvature="0"
       style="fill:#000000;stroke:none" />
    <path
       d="m 22.760813,18.872285 c -1.768969,0.403615 -3.114595,1.372292 -3.825208,2.771491 -0.317506,0.605423 -0.393104,0.955223 -0.393104,1.843176 0,0.968677 0.06048,1.197392 0.483821,1.977715 0.574537,1.035945 1.76897,2.085345 3.190193,2.784944 3.704251,1.843176 4.581177,2.663861 4.671893,4.385952 0.0756,1.170484 -0.105839,1.722092 -0.801327,2.448599 -1.28515,1.33193 -3.794969,1.291569 -5.337148,-0.09418 -0.710611,-0.645784 -1.617775,-2.071891 -1.784089,-2.825306 -0.105839,-0.417069 -0.377984,-0.5247 -0.801328,-0.295985 -0.166313,0.09418 -0.151194,0.417069 0.136075,1.964261 0.181433,1.022492 0.362865,1.937353 0.408224,2.03153 0.120954,0.269076 1.330507,0.713053 2.585416,0.955222 3.553059,0.645785 6.833968,-0.793776 7.741131,-3.417275 0.544299,-1.574099 0.302388,-2.973299 -0.725731,-4.184144 -0.755969,-0.887954 -1.708492,-1.547192 -3.794968,-2.596591 -2.993641,-1.50683 -3.719371,-2.273699 -3.719371,-4.022698 0,-0.780323 0.0756,-1.130123 0.347746,-1.5741 0.952522,-1.61446 3.794968,-1.883537 5.185952,-0.470884 0.483821,0.484338 1.058358,1.50683 1.254911,2.20643 0.105839,0.403615 0.635014,0.524699 0.786208,0.188353 0.0756,-0.174896 -0.332627,-3.578718 -0.423343,-3.645987 -0.03024,-0.01345 -0.483821,-0.134539 -1.028119,-0.269077 -1.27003,-0.309438 -3.190192,-0.376707 -4.157834,-0.161446 z"
       id="path10"
       inkscape:connector-curvature="0"
       style="fill:#000000;stroke:none" />
    <path
       d="M 0.17489992,0.76686868 C 0.21526144,1.0897608 0.28253064,1.1435762 0.68614584,1.1839377 1.4530147,1.2512069 1.8700838,1.4664684 2.018076,1.9104451 c 0.094177,0.2690768 0.1479922,2.771491 0.1479922,7.2650736 0,7.6821423 0.013454,7.5206963 -0.9148611,7.7628653 -0.26907678,0.08072 -0.6457843,0.161446 -0.83413806,0.1749 -0.25562296,0.02691 -0.34979984,0.134539 -0.37670752,0.403615 L 0,17.893607 l 3.4307292,0 3.444183,0 0,-0.336346 c 0,-0.3498 -0.1076307,-0.403615 -1.1839379,-0.5247 C 4.9913746,16.965292 4.628121,16.669308 4.453221,16.023523 4.2648673,15.337377 4.2783211,10.359457 4.4666749,10.359457 c 0.080723,0 0.5246997,0.09418 0.9821303,0.215261 C 7.9512194,11.233956 10.641987,10.063472 11.718295,7.88395 12.256448,6.8076428 12.444802,5.5698896 12.269902,4.439767 11.973918,2.6100448 11.059056,1.493376 9.3235111,0.83413788 8.4355577,0.48433804 8.3548346,0.48433804 4.2783211,0.43052268 L 0.1345384,0.37670732 0.17489992,0.76686868 Z M 7.8974041,1.6144606 c 0.753415,0.3767075 1.4664685,1.1973918 1.762453,2.0718914 0.2690768,0.8072304 0.3094383,2.5562296 0.067269,3.4038215 -0.4708844,1.6413685 -1.7893607,2.6234988 -3.4979984,2.6234988 -0.5246997,0 -1.1704841,-0.067269 -1.4395609,-0.1614461 l -0.4708844,-0.1614461 0,-3.6056291 c 0,-3.9688828 0.040362,-4.2245058 0.7265074,-4.4397672 0.6457843,-0.2018076 2.1660682,-0.053815 2.8522141,0.2690768 z"
       id="path12"
       inkscape:connector-curvature="0"
       style="fill:#000000;stroke:none" />
    <path
       d="m 14.207926,0.76686868 c 0.04036,0.32289212 0.121084,0.39016132 0.618876,0.47088442 0.780323,0.1345384 1.264661,0.4439767 1.695184,1.1032149 l 0.363254,0.5516074 -0.04036,6.4578432 c -0.04036,5.8793284 -0.06727,6.4982044 -0.28253,6.8883664 -0.242169,0.45743 -0.834138,0.847592 -1.291569,0.847592 -0.470884,0 -0.686146,0.161446 -0.686146,0.484338 l 0,0.322892 2.959845,0 2.959845,0 0,-0.336346 c 0,-0.3498 -0.04036,-0.363254 -1.089761,-0.538154 -0.269077,-0.04036 -0.632331,-0.228715 -0.847592,-0.45743 -0.5247,-0.551608 -0.632331,-1.883538 -0.591969,-7.6552351 l 0.04036,-4.8702901 0.686146,0.9014073 C 27.688673,16.776938 28.724619,18.095415 29.11478,18.135776 l 0.376708,0.04036 0.05382,-7.77632 c 0.04036,-6.8749121 0.06727,-7.8301348 0.269077,-8.2741115 0.255623,-0.5650613 0.618877,-0.8072304 1.385746,-0.9014073 0.470884,-0.067269 0.538153,-0.1345384 0.578515,-0.45743052 l 0.04036,-0.36325368 -2.973298,0 -2.973299,0 0.04036,0.36325368 c 0.04036,0.33634602 0.10763,0.39016132 0.753415,0.47088442 1.43956,0.2152614 1.627914,0.5381536 1.78936,2.9867525 0.161446,2.5024142 0.147993,9.6598574 -0.01345,9.6060414 -0.06728,-0.02691 -2.206435,-2.70422 -4.735757,-5.9600488 -2.542776,-3.2558293 -4.883744,-6.2694894 -5.22009,-6.7000123 l -0.605423,-0.7668689 -1.85663,0 -1.85663,0 0.04036,0.36325368 z"
       id="path14"
       inkscape:connector-curvature="0"
       style="fill:#000000;stroke:none" />
  </g>
</svg>
