<svg xmlns="http://www.w3.org/2000/svg" version="1.2" width="534.501" height="100mm" viewBox="0 0 141.42 100" stroke-width=".3" font-size="3.88"><g class="plotroot xscalable yscalable"><text x="75.06" y="88.39" text-anchor="middle" dy=".6em" font-family="'PT Sans','Helvetica Neue','Helvetica',sans-serif" fill="#564A55" stroke="#000" stroke-opacity="0">x</text><g class="guide xlabels" font-size="2.82" font-family="'PT Sans Caption','Helvetica Neue','Helvetica',sans-serif" fill="#6C606B" text-anchor="middle"><text x="15.69" y="81.72" dy=".6em">0</text><text x="75.06" y="81.72" dy=".6em">500</text><text x="134.42" y="81.72" dy=".6em">1000</text></g><g clip-path="url(#a)"><path d="M13.69 5h122.73v75.72H13.69z" pointer-events="visible" fill-opacity="0" stroke="#000" stroke-opacity="0" class="guide background"/><g class="guide ygridlines xfixed" stroke-dasharray="0.5,0.5" stroke-width=".2" stroke="#D0D0E0" fill="none"><path d="M13.69 78.72h122.73M13.69 54.81h122.73M13.69 30.91h122.73M13.69 7h122.73"/></g><g class="guide xgridlines yfixed" stroke-dasharray="0.5,0.5" stroke-width=".2" stroke="#D0D0E0" fill="none"><path d="M15.69 5v75.72M75.06 5v75.72M134.42 5v75.72"/></g><g stroke="#000" stroke-opacity="0" fill="#00BFFF" class="plotpanel geometry" shape-rendering="crispEdges"><path d="M15.67 33.82h.17v44.89h-.17z"/><path d="M15.79 30.24h.17v48.48h-.17z"/><path d="M15.91 28.94h.17v49.77h-.17z"/><path d="M16.02 30.95h.17v47.76h-.17z"/><path d="M16.14 31h.17v47.71h-.17z"/><path d="M16.26 34.4h.17v44.32h-.17z"/><path d="M16.38 29.81h.17v48.91h-.17z"/><path d="M16.5 28.13h.17v50.58h-.17z"/><path d="M16.62 28.47h.17v50.25h-.17z"/><path d="M16.74 28.51h.17v50.2h-.17z"/><path d="M16.86 31.57h.17v47.14h-.17z"/><path d="M16.97 30.28h.17v48.43h-.17z"/><path d="M17.09 29.71h.17v49.01h-.17z"/><path d="M17.21 29.57h.17v49.15h-.17z"/><path d="M17.33 31.19h.17v47.52h-.17z"/><path d="M17.45 31.77h.17v46.95h-.17z"/><path d="M17.57 30.62h.17v48.1h-.17z"/><path d="M17.69 31.14h.17v47.57h-.17z"/><path d="M17.81 28.71h.17v50.01h-.17z"/><path d="M17.92 31.67h.17v47.05h-.17z"/><path d="M18.04 30.24h.17v48.48h-.17z"/><path d="M18.16 30.95h.17v47.76h-.17z"/><path d="M18.28 31.05h.17v47.67h-.17z"/><path d="M18.4 31.96h.17v46.76h-.17z"/><path d="M18.52 31.24h.17v47.48h-.17z"/><path d="M18.64 29.23h.17v49.48h-.17z"/><path d="M18.76 31.91h.17v46.81h-.17z"/><path d="M18.87 31.67h.17v47.05h-.17z"/><path d="M18.99 30h.17v48.72h-.17z"/><path d="M19.11 33.44h.17v45.28h-.17z"/><path d="M19.23 28.13h.17v50.58h-.17z"/><path d="M19.35 32.48h.17v46.23h-.17z"/><path d="M19.47 31h.17v47.71h-.17z"/><path d="M19.59 30.47h.17v48.24h-.17z"/><path d="M19.71 29.76h.17v48.96h-.17z"/><path d="M19.82 29.76h.17v48.96h-.17z"/><path d="M19.94 30.67h.17v48.05h-.17z"/><path d="M20.06 29.71h.17v49.01h-.17z"/><path d="M20.18 30.24h.17v48.48h-.17z"/><path d="M20.3 29.66h.17v49.05h-.17z"/><path d="M20.42 32.34h.17v46.38h-.17z"/><path d="M20.54 29.38h.17v49.34h-.17z"/><path d="M20.65 29.66h.17v49.05h-.17z"/><path d="M20.77 31.81h.17v46.9h-.17z"/><path d="M20.89 30.04h.17v48.67h-.17z"/><path d="M21.01 33.01h.17v45.71h-.17z"/><path d="M21.13 29.66h.17v49.05h-.17z"/><path d="M21.25 33.63h.17v45.08h-.17z"/><path d="M21.37 31.86h.17v46.85h-.17z"/><path d="M21.49 31.81h.17v46.9h-.17z"/><path d="M21.6 31.43h.17v47.28h-.17z"/><path d="M21.72 30.28h.17v48.43h-.17z"/><path d="M21.84 29.09h.17v49.63h-.17z"/><path d="M21.96 29.38h.17v49.34h-.17z"/><path d="M22.08 31.67h.17v47.05h-.17z"/><path d="M22.2 32.77h.17v45.95h-.17z"/><path d="M22.32 31.77h.17v46.95h-.17z"/><path d="M22.44 30.86h.17v47.86h-.17z"/><path d="M22.55 28.56h.17v50.15h-.17z"/><path d="M22.67 31.38h.17v47.33h-.17z"/><path d="M22.79 31.19h.17v47.52h-.17z"/><path d="M22.91 31.67h.17v47.05h-.17z"/><path d="M23.03 33.73h.17v44.99h-.17z"/><path d="M23.15 26.94h.17v51.78h-.17z"/><path d="M23.27 32.48h.17v46.23h-.17z"/><path d="M23.39 28.23h.17v50.49h-.17z"/><path d="M23.5 30.19h.17v48.53h-.17z"/><path d="M23.62 28.71h.17v50.01h-.17z"/><path d="M23.74 31.72h.17v47h-.17z"/><path d="M23.86 31.38h.17v47.33h-.17z"/><path d="M23.98 29.42h.17v49.29h-.17z"/><path d="M24.1 31.05h.17v47.67h-.17z"/><path d="M24.22 30.62h.17v48.1h-.17z"/><path d="M24.34 31.05h.17v47.67h-.17z"/><path d="M24.45 31.34h.17v47.38h-.17z"/><path d="M24.57 29.42h.17v49.29h-.17z"/><path d="M24.69 30.47h.17v48.24h-.17z"/><path d="M24.81 29.04h.17v49.67h-.17z"/><path d="M24.93 30.76h.17v47.95h-.17z"/><path d="M25.05 32.1h.17v46.61h-.17z"/><path d="M25.17 28.42h.17v50.3h-.17z"/><path d="M25.29 30.67h.17v48.05h-.17z"/><path d="M25.4 28.56h.17v50.15h-.17z"/><path d="M25.52 30.95h.17v47.76h-.17z"/><path d="M25.64 30.86h.17v47.86h-.17z"/><path d="M25.76 29.28h.17v49.44h-.17z"/><path d="M25.88 31.53h.17v47.19h-.17z"/><path d="M26 30.86h.17v47.86H26z"/><path d="M26.12 28.13h.17v50.58h-.17z"/><path d="M26.24 31.34h.17v47.38h-.17z"/><path d="M26.35 29.38h.17v49.34h-.17z"/><path d="M26.47 31.81h.17v46.9h-.17z"/><path d="M26.59 32.15h.17v46.57h-.17z"/><path d="M26.71 31.62h.17v47.09h-.17z"/><path d="M26.83 30.81H27v47.91h-.17z"/><path d="M26.95 31.48h.17v47.24h-.17z"/><path d="M27.07 29.57h.17v49.15h-.17z"/><path d="M27.18 30.81h.17v47.91h-.17z"/><path d="M27.3 28.71h.17v50.01h-.17z"/><path d="M27.42 27.37h.17v51.35h-.17z"/><path d="M27.54 34.16h.17v44.56h-.17z"/><path d="M27.66 31.1h.17v47.62h-.17z"/><path d="M27.78 30.52h.17v48.19h-.17z"/><path d="M27.9 28.04h.17v50.68h-.17z"/><path d="M28.02 29.81h.17v48.91h-.17z"/><path d="M28.13 29.76h.17v48.96h-.17z"/><path d="M28.25 29.71h.17v49.01h-.17z"/><path d="M28.37 29.38h.17v49.34h-.17z"/><path d="M28.49 29.18h.17v49.53h-.17z"/><path d="M28.61 31.91h.17v46.81h-.17z"/><path d="M28.73 31.05h.17v47.67h-.17z"/><path d="M28.85 31.62h.17v47.09h-.17z"/><path d="M28.97 29.52h.17v49.2h-.17z"/><path d="M29.08 32.24h.17v46.47h-.17z"/><path d="M29.2 27.99h.17v50.73h-.17z"/><path d="M29.32 31.72h.17v47h-.17z"/><path d="M29.44 30.62h.17v48.1h-.17z"/><path d="M29.56 27.89h.17v50.82h-.17z"/><path d="M29.68 30.43h.17v48.29h-.17z"/><path d="M29.8 33.1h.17v45.61h-.17z"/><path d="M29.92 30.71h.17v48h-.17z"/><path d="M30.03 28.23h.17v50.49h-.17z"/><path d="M30.15 31.19h.17v47.52h-.17z"/><path d="M30.27 29.18h.17v49.53h-.17z"/><path d="M30.39 31.43h.17v47.28h-.17z"/><path d="M30.51 30.28h.17v48.43h-.17z"/><path d="M30.63 29.52h.17v49.2h-.17z"/><path d="M30.75 29.85h.17v48.86h-.17z"/><path d="M30.87 31.86h.17v46.85h-.17z"/><path d="M30.98 31.62h.17v47.09h-.17z"/><path d="M31.1 29.47h.17v49.24h-.17z"/><path d="M31.22 32.87h.17v45.85h-.17z"/><path d="M31.34 29.71h.17v49.01h-.17z"/><path d="M31.46 27.65h.17v51.06h-.17z"/><path d="M31.58 33.06h.17v45.66h-.17z"/><path d="M31.7 31.62h.17v47.09h-.17z"/><path d="M31.82 32.67h.17v46.04h-.17z"/><path d="M31.93 32.1h.17v46.61h-.17z"/><path d="M32.05 32.43h.17v46.28h-.17z"/><path d="M32.17 29.52h.17v49.2h-.17z"/><path d="M32.29 29.57h.17v49.15h-.17z"/><path d="M32.41 29.76h.17v48.96h-.17z"/><path d="M32.53 32.05h.17v46.66h-.17z"/><path d="M32.65 30h.17v48.72h-.17z"/><path d="M32.77 34.68h.17v44.03h-.17z"/><path d="M32.88 29.33h.17v49.39h-.17z"/><path d="M33 29.57h.17v49.15H33z"/><path d="M33.12 30.19h.17v48.53h-.17z"/><path d="M33.24 29.18h.17v49.53h-.17z"/><path d="M33.36 28.51h.17v50.2h-.17z"/><path d="M33.48 30.67h.17v48.05h-.17z"/><path d="M33.6 30.62h.17v48.1h-.17z"/><path d="M33.71 33.34h.17v45.37h-.17z"/><path d="M33.83 31.34H34v47.38h-.17z"/><path d="M33.95 31.19h.17v47.52h-.17z"/><path d="M34.07 32.15h.17v46.57h-.17z"/><path d="M34.19 30.43h.17v48.29h-.17z"/><path d="M34.31 29.76h.17v48.96h-.17z"/><path d="M34.43 31.57h.17v47.14h-.17z"/><path d="M34.55 30.91h.17v47.81h-.17z"/><path d="M34.66 28.66h.17v50.06h-.17z"/><path d="M34.78 31.29h.17v47.43h-.17z"/><path d="M34.9 30.28h.17v48.43h-.17z"/><path d="M35.02 31.48h.17v47.24h-.17z"/><path d="M35.14 31.96h.17v46.76h-.17z"/><path d="M35.26 31.81h.17v46.9h-.17z"/><path d="M35.38 30.71h.17v48h-.17z"/><path d="M35.5 31.77h.17v46.95h-.17z"/><path d="M35.61 29.14h.17v49.58h-.17z"/><path d="M35.73 32.2h.17v46.52h-.17z"/><path d="M35.85 29.76h.17v48.96h-.17z"/><path d="M35.97 31.48h.17v47.24h-.17z"/><path d="M36.09 29.9h.17v48.81h-.17z"/><path d="M36.21 33.06h.17v45.66h-.17z"/><path d="M36.33 28.42h.17v50.3h-.17z"/><path d="M36.45 28.32h.17v50.39h-.17z"/><path d="M36.56 30.67h.17v48.05h-.17z"/><path d="M36.68 27.7h.17v51.01h-.17z"/><path d="M36.8 27.99h.17v50.73h-.17z"/><path d="M36.92 30h.17v48.72h-.17z"/><path d="M37.04 30.24h.17v48.48h-.17z"/><path d="M37.16 30.33h.17v48.38h-.17z"/><path d="M37.28 29.09h.17v49.63h-.17z"/><path d="M37.4 28.51h.17v50.2h-.17z"/><path d="M37.51 31.53h.17v47.19h-.17z"/><path d="M37.63 32.82h.17v45.9h-.17z"/><path d="M37.75 32.87h.17v45.85h-.17z"/><path d="M37.87 29.71h.17v49.01h-.17z"/><path d="M37.99 30.38h.17v48.34h-.17z"/><path d="M38.11 31.43h.17v47.28h-.17z"/><path d="M38.23 31.14h.17v47.57h-.17z"/><path d="M38.35 31.14h.17v47.57h-.17z"/><path d="M38.46 30.33h.17v48.38h-.17z"/><path d="M38.58 27.65h.17v51.06h-.17z"/><path d="M38.7 33.96h.17v44.75h-.17z"/><path d="M38.82 28.04h.17v50.68h-.17z"/><path d="M38.94 30.24h.17v48.48h-.17z"/><path d="M39.06 30.38h.17v48.34h-.17z"/><path d="M39.18 29.57h.17v49.15h-.17z"/><path d="M39.3 31.19h.17v47.52h-.17z"/><path d="M39.41 28.23h.17v50.49h-.17z"/><path d="M39.53 28.66h.17v50.06h-.17z"/><path d="M39.65 32.15h.17v46.57h-.17z"/><path d="M39.77 32.1h.17v46.61h-.17z"/><path d="M39.89 30.04h.17v48.67h-.17z"/><path d="M40.01 30.91h.17v47.81h-.17z"/><path d="M40.13 31.91h.17v46.81h-.17z"/><path d="M40.25 31.29h.17v47.43h-.17z"/><path d="M40.36 31.24h.17v47.48h-.17z"/><path d="M40.48 32.91h.17v45.8h-.17z"/><path d="M40.6 30.67h.17v48.05h-.17z"/><path d="M40.72 30.91h.17v47.81h-.17z"/><path d="M40.84 30.47h.17v48.24h-.17z"/><path d="M40.96 29.14h.17v49.58h-.17z"/><path d="M41.08 30.14h.17v48.57h-.17z"/><path d="M41.19 29.23h.17v49.48h-.17z"/><path d="M41.31 33.01h.17v45.71h-.17z"/><path d="M41.43 30.33h.17v48.38h-.17z"/><path d="M41.55 33.49h.17v45.23h-.17z"/><path d="M41.67 30.43h.17v48.29h-.17z"/><path d="M41.79 30.76h.17v47.95h-.17z"/><path d="M41.91 30.62h.17v48.1h-.17z"/><path d="M42.03 29.9h.17v48.81h-.17z"/><path d="M42.14 32.48h.17v46.23h-.17z"/><path d="M42.26 33.53h.17v45.18h-.17z"/><path d="M42.38 31.24h.17v47.48h-.17z"/><path d="M42.5 28.94h.17v49.77h-.17z"/><path d="M42.62 31.91h.17v46.81h-.17z"/><path d="M42.74 29.09h.17v49.63h-.17z"/><path d="M42.86 28.13h.17v50.58h-.17z"/><path d="M42.98 30.33h.17v48.38h-.17z"/><path d="M43.09 28.94h.17v49.77h-.17z"/><path d="M43.21 32.96h.17v45.75h-.17z"/><path d="M43.33 30.04h.17v48.67h-.17z"/><path d="M43.45 28.28h.17v50.44h-.17z"/><path d="M43.57 28.04h.17v50.68h-.17z"/><path d="M43.69 30.71h.17v48h-.17z"/><path d="M43.81 30.24h.17v48.48h-.17z"/><path d="M43.93 29.38h.17v49.34h-.17z"/><path d="M44.04 33.15h.17v45.56h-.17z"/><path d="M44.16 34.83h.17v43.89h-.17z"/><path d="M44.28 30.62h.17v48.1h-.17z"/><path d="M44.4 32.72h.17v45.99h-.17z"/><path d="M44.52 29.52h.17v49.2h-.17z"/><path d="M44.64 29.52h.17v49.2h-.17z"/><path d="M44.76 30.33h.17v48.38h-.17z"/><path d="M44.88 30.19h.17v48.53h-.17z"/><path d="M44.99 30.24h.17v48.48h-.17z"/><path d="M45.11 30.76h.17v47.95h-.17z"/><path d="M45.23 29.95h.17v48.77h-.17z"/><path d="M45.35 32.15h.17v46.57h-.17z"/><path d="M45.47 27.85h.17v50.87h-.17z"/><path d="M45.59 31.53h.17v47.19h-.17z"/><path d="M45.71 29.18h.17v49.53h-.17z"/><path d="M45.83 32.29H46v46.42h-.17z"/><path d="M45.94 28.28h.17v50.44h-.17z"/><path d="M46.06 29.71h.17v49.01h-.17z"/><path d="M46.18 28.66h.17v50.06h-.17z"/><path d="M46.3 30.86h.17v47.86h-.17z"/><path d="M46.42 27.75h.17v50.97h-.17z"/><path d="M46.54 29.09h.17v49.63h-.17z"/><path d="M46.66 28.94h.17v49.77h-.17z"/><path d="M46.78 31.86h.17v46.85h-.17z"/><path d="M46.89 29.42h.17v49.29h-.17z"/><path d="M47.01 30.43h.17v48.29h-.17z"/><path d="M47.13 27.7h.17v51.01h-.17z"/><path d="M47.25 31.34h.17v47.38h-.17z"/><path d="M47.37 26.75h.17v51.97h-.17z"/><path d="M47.49 30.71h.17v48h-.17z"/><path d="M47.61 31.29h.17v47.43h-.17z"/><path d="M47.72 31.38h.17v47.33h-.17z"/><path d="M47.84 28.42h.17v50.3h-.17z"/><path d="M47.96 31.72h.17v47h-.17z"/><path d="M48.08 30.14h.17v48.57h-.17z"/><path d="M48.2 33.3h.17v45.42h-.17z"/><path d="M48.32 31.81h.17v46.9h-.17z"/><path d="M48.44 28.51h.17v50.2h-.17z"/><path d="M48.56 28.75h.17v49.96h-.17z"/><path d="M48.67 32.63h.17v46.09h-.17z"/><path d="M48.79 29.23h.17v49.48h-.17z"/><path d="M48.91 30.33h.17v48.38h-.17z"/><path d="M49.03 29.76h.17v48.96h-.17z"/><path d="M49.15 28.71h.17v50.01h-.17z"/><path d="M49.27 30.81h.17v47.91h-.17z"/><path d="M49.39 32h.17v46.71h-.17z"/><path d="M49.51 29.42h.17v49.29h-.17z"/><path d="M49.62 31.67h.17v47.05h-.17z"/><path d="M49.74 28.85h.17v49.87h-.17z"/><path d="M49.86 30.52h.17v48.19h-.17z"/><path d="M49.98 33.63h.17v45.08h-.17z"/><path d="M50.1 32.05h.17v46.66h-.17z"/><path d="M50.22 30.28h.17v48.43h-.17z"/><path d="M50.34 30.91h.17v47.81h-.17z"/><path d="M50.46 29.66h.17v49.05h-.17z"/><path d="M50.57 31.86h.17v46.85h-.17z"/><path d="M50.69 30.57h.17v48.14h-.17z"/><path d="M50.81 28.94h.17v49.77h-.17z"/><path d="M50.93 29.9h.17v48.81h-.17z"/><path d="M51.05 27.85h.17v50.87h-.17z"/><path d="M51.17 31.53h.17v47.19h-.17z"/><path d="M51.29 29.18h.17v49.53h-.17z"/><path d="M51.41 35.93h.17v42.79h-.17z"/><path d="M51.52 31.14h.17v47.57h-.17z"/><path d="M51.64 29.18h.17v49.53h-.17z"/><path d="M51.76 30.81h.17v47.91h-.17z"/><path d="M51.88 32.43h.17v46.28h-.17z"/><path d="M52 29.61h.17v49.1H52z"/><path d="M52.12 29.33h.17v49.39h-.17z"/><path d="M52.24 30.81h.17v47.91h-.17z"/><path d="M52.36 31.34h.17v47.38h-.17z"/><path d="M52.47 30.24h.17v48.48h-.17z"/><path d="M52.59 30.86h.17v47.86h-.17z"/><path d="M52.71 31.53h.17v47.19h-.17z"/><path d="M52.83 28.8H53v49.91h-.17z"/><path d="M52.95 28.56h.17v50.15h-.17z"/><path d="M53.07 31.24h.17v47.48h-.17z"/><path d="M53.19 33.3h.17v45.42h-.17z"/><path d="M53.31 34.3h.17v44.42h-.17z"/><path d="M53.42 31.81h.17v46.9h-.17z"/><path d="M53.54 30.09h.17v48.62h-.17z"/><path d="M53.66 30.91h.17v47.81h-.17z"/><path d="M53.78 29.57h.17v49.15h-.17z"/><path d="M53.9 30.86h.17v47.86h-.17z"/><path d="M54.02 33.2h.17v45.52h-.17z"/><path d="M54.14 31.29h.17v47.43h-.17z"/><path d="M54.25 32.72h.17v45.99h-.17z"/><path d="M54.37 33.01h.17v45.71h-.17z"/><path d="M54.49 28.61h.17v50.1h-.17z"/><path d="M54.61 30.09h.17v48.62h-.17z"/><path d="M54.73 30.86h.17v47.86h-.17z"/><path d="M54.85 31.38h.17v47.33h-.17z"/><path d="M54.97 29.66h.17v49.05h-.17z"/><path d="M55.09 29.42h.17v49.29h-.17z"/><path d="M55.2 31h.17v47.71h-.17z"/><path d="M55.32 30.14h.17v48.57h-.17z"/><path d="M55.44 29.33h.17v49.39h-.17z"/><path d="M55.56 32.1h.17v46.61h-.17z"/><path d="M55.68 30.04h.17v48.67h-.17z"/><path d="M55.8 32.67h.17v46.04h-.17z"/><path d="M55.92 29.33h.17v49.39h-.17z"/><path d="M56.04 30.57h.17v48.14h-.17z"/><path d="M56.15 32.53h.17v46.18h-.17z"/><path d="M56.27 28.66h.17v50.06h-.17z"/><path d="M56.39 32.82h.17v45.9h-.17z"/><path d="M56.51 31.72h.17v47h-.17z"/><path d="M56.63 33.25h.17v45.47h-.17z"/><path d="M56.75 31.96h.17v46.76h-.17z"/><path d="M56.87 30.91h.17v47.81h-.17z"/><path d="M56.99 31.29h.17v47.43h-.17z"/><path d="M57.1 30.47h.17v48.24h-.17z"/><path d="M57.22 30.19h.17v48.53h-.17z"/><path d="M57.34 30.67h.17v48.05h-.17z"/><path d="M57.46 32.96h.17v45.75h-.17z"/><path d="M57.58 31.29h.17v47.43h-.17z"/><path d="M57.7 31h.17v47.71h-.17z"/><path d="M57.82 30h.17v48.72h-.17z"/><path d="M57.94 32.67h.17v46.04h-.17z"/><path d="M58.05 32.48h.17v46.23h-.17z"/><path d="M58.17 32.1h.17v46.61h-.17z"/><path d="M58.29 30.76h.17v47.95h-.17z"/><path d="M58.41 29.81h.17v48.91h-.17z"/><path d="M58.53 29.61h.17v49.1h-.17z"/><path d="M58.65 31.19h.17v47.52h-.17z"/><path d="M58.77 32.48h.17v46.23h-.17z"/><path d="M58.89 28.61h.17v50.1h-.17z"/><path d="M59 32.91h.17v45.8H59z"/><path d="M59.12 32.2h.17v46.52h-.17z"/><path d="M59.24 32h.17v46.71h-.17z"/><path d="M59.36 31.48h.17v47.24h-.17z"/><path d="M59.48 31.29h.17v47.43h-.17z"/><path d="M59.6 29.28h.17v49.44h-.17z"/><path d="M59.72 29.85h.17v48.86h-.17z"/><path d="M59.84 30.86h.17v47.86h-.17z"/><path d="M59.95 28.47h.17v50.25h-.17z"/><path d="M60.07 29.42h.17v49.29h-.17z"/><path d="M60.19 29.85h.17v48.86h-.17z"/><path d="M60.31 31.67h.17v47.05h-.17z"/><path d="M60.43 28.94h.17v49.77h-.17z"/><path d="M60.55 33.53h.17v45.18h-.17z"/><path d="M60.67 33.25h.17v45.47h-.17z"/><path d="M60.78 32.2h.17v46.52h-.17z"/><path d="M60.9 30.43h.17v48.29h-.17z"/><path d="M61.02 29.23h.17v49.48h-.17z"/><path d="M61.14 29.76h.17v48.96h-.17z"/><path d="M61.26 28.61h.17v50.1h-.17z"/><path d="M61.38 29.95h.17v48.77h-.17z"/><path d="M61.5 29.09h.17v49.63h-.17z"/><path d="M61.62 28.71h.17v50.01h-.17z"/><path d="M61.73 31.96h.17v46.76h-.17z"/><path d="M61.85 29.18h.17v49.53h-.17z"/><path d="M61.97 29.28h.17v49.44h-.17z"/><path d="M62.09 29.66h.17v49.05h-.17z"/><path d="M62.21 32.29h.17v46.42h-.17z"/><path d="M62.33 27.99h.17v50.73h-.17z"/><path d="M62.45 28.71h.17v50.01h-.17z"/><path d="M62.57 27.94h.17v50.77h-.17z"/><path d="M62.68 27.85h.17v50.87h-.17z"/><path d="M62.8 29.71h.17v49.01h-.17z"/><path d="M62.92 32.96h.17v45.75h-.17z"/><path d="M63.04 28.04h.17v50.68h-.17z"/><path d="M63.16 30.19h.17v48.53h-.17z"/><path d="M63.28 32.43h.17v46.28h-.17z"/><path d="M63.4 29.61h.17v49.1h-.17z"/><path d="M63.52 28.51h.17v50.2h-.17z"/><path d="M63.63 29.38h.17v49.34h-.17z"/><path d="M63.75 28.23h.17v50.49h-.17z"/><path d="M63.87 30.09h.17v48.62h-.17z"/><path d="M63.99 29.28h.17v49.44h-.17z"/><path d="M64.11 28.75h.17v49.96h-.17z"/><path d="M64.23 31.91h.17v46.81h-.17z"/><path d="M64.35 30.24h.17v48.48h-.17z"/><path d="M64.47 30.33h.17v48.38h-.17z"/><path d="M64.58 28.42h.17v50.3h-.17z"/><path d="M64.7 30.62h.17v48.1h-.17z"/><path d="M64.82 26.7h.17v52.02h-.17z"/><path d="M64.94 28.47h.17v50.25h-.17z"/><path d="M65.06 32.91h.17v45.8h-.17z"/><path d="M65.18 29.47h.17v49.24h-.17z"/><path d="M65.3 29.42h.17v49.29h-.17z"/><path d="M65.42 31.38h.17v47.33h-.17z"/><path d="M65.53 28.56h.17v50.15h-.17z"/><path d="M65.65 29.23h.17v49.48h-.17z"/><path d="M65.77 32.72h.17v45.99h-.17z"/><path d="M65.89 29.42h.17v49.29h-.17z"/><path d="M66.01 29.76h.17v48.96h-.17z"/><path d="M66.13 31.48h.17v47.24h-.17z"/><path d="M66.25 29.57h.17v49.15h-.17z"/><path d="M66.37 30.38h.17v48.34h-.17z"/><path d="M66.48 30.28h.17v48.43h-.17z"/><path d="M66.6 30.86h.17v47.86h-.17z"/><path d="M66.72 32h.17v46.71h-.17z"/><path d="M66.84 32.1h.17v46.61h-.17z"/><path d="M66.96 30.81h.17v47.91h-.17z"/><path d="M67.08 31.43h.17v47.28h-.17z"/><path d="M67.2 29.66h.17v49.05h-.17z"/><path d="M67.32 28.99h.17v49.72h-.17z"/><path d="M67.43 29.81h.17v48.91h-.17z"/><path d="M67.55 30.04h.17v48.67h-.17z"/><path d="M67.67 29.61h.17v49.1h-.17z"/><path d="M67.79 30.52h.17v48.19h-.17z"/><path d="M67.91 32.91h.17v45.8h-.17z"/><path d="M68.03 30.43h.17v48.29h-.17z"/><path d="M68.15 30.19h.17v48.53h-.17z"/><path d="M68.26 30.43h.17v48.29h-.17z"/><path d="M68.38 32.72h.17v45.99h-.17z"/><path d="M68.5 30.91h.17v47.81h-.17z"/><path d="M68.62 30.14h.17v48.57h-.17z"/><path d="M68.74 30.62h.17v48.1h-.17z"/><path d="M68.86 30.43h.17v48.29h-.17z"/><path d="M68.98 31.67h.17v47.05h-.17z"/><path d="M69.1 27.41h.17v51.3h-.17z"/><path d="M69.21 28.56h.17v50.15h-.17z"/><path d="M69.33 28.85h.17v49.87h-.17z"/><path d="M69.45 31.34h.17v47.38h-.17z"/><path d="M69.57 29.81h.17v48.91h-.17z"/><path d="M69.69 31.05h.17v47.67h-.17z"/><path d="M69.81 27.61h.17v51.11h-.17z"/><path d="M69.93 31.86h.17v46.85h-.17z"/><path d="M70.05 28.8h.17v49.91h-.17z"/><path d="M70.16 28.75h.17v49.96h-.17z"/><path d="M70.28 33.49h.17v45.23h-.17z"/><path d="M70.4 30.19h.17v48.53h-.17z"/><path d="M70.52 30.67h.17v48.05h-.17z"/><path d="M70.64 30.09h.17v48.62h-.17z"/><path d="M70.76 31.62h.17v47.09h-.17z"/><path d="M70.88 31.96h.17v46.76h-.17z"/><path d="M71 30.76h.17v47.95H71z"/><path d="M71.11 34.06h.17v44.65h-.17z"/><path d="M71.23 28.18h.17v50.54h-.17z"/><path d="M71.35 30.14h.17v48.57h-.17z"/><path d="M71.47 30.95h.17v47.76h-.17z"/><path d="M71.59 30.86h.17v47.86h-.17z"/><path d="M71.71 32.29h.17v46.42h-.17z"/><path d="M71.83 30.33H72v48.38h-.17z"/><path d="M71.95 32.43h.17v46.28h-.17z"/><path d="M72.06 32.82h.17v45.9h-.17z"/><path d="M72.18 31.14h.17v47.57h-.17z"/><path d="M72.3 30.28h.17v48.43h-.17z"/><path d="M72.42 29.18h.17v49.53h-.17z"/><path d="M72.54 29.14h.17v49.58h-.17z"/><path d="M72.66 30h.17v48.72h-.17z"/><path d="M72.78 30.47h.17v48.24h-.17z"/><path d="M72.9 30.04h.17v48.67h-.17z"/><path d="M73.01 30.47h.17v48.24h-.17z"/><path d="M73.13 30h.17v48.72h-.17z"/><path d="M73.25 27.61h.17v51.11h-.17z"/><path d="M73.37 31.1h.17v47.62h-.17z"/><path d="M73.49 29.33h.17v49.39h-.17z"/><path d="M73.61 31.43h.17v47.28h-.17z"/><path d="M73.73 28.94h.17v49.77h-.17z"/><path d="M73.85 28.18h.17v50.54h-.17z"/><path d="M73.96 29.81h.17v48.91h-.17z"/><path d="M74.08 30.14h.17v48.57h-.17z"/><path d="M74.2 29.76h.17v48.96h-.17z"/><path d="M74.32 30.67h.17v48.05h-.17z"/><path d="M74.44 31.81h.17v46.9h-.17z"/><path d="M74.56 31.67h.17v47.05h-.17z"/><path d="M74.68 30.62h.17v48.1h-.17z"/><path d="M74.79 29.95h.17v48.77h-.17z"/><path d="M74.91 29.85h.17v48.86h-.17z"/><path d="M75.03 29.52h.17v49.2h-.17z"/><path d="M75.15 32.43h.17v46.28h-.17z"/><path d="M75.27 26.94h.17v51.78h-.17z"/><path d="M75.39 31h.17v47.71h-.17z"/><path d="M75.51 31.24h.17v47.48h-.17z"/><path d="M75.63 31.86h.17v46.85h-.17z"/><path d="M75.74 32.82h.17v45.9h-.17z"/><path d="M75.86 28.18h.17v50.54h-.17z"/><path d="M75.98 30.19h.17v48.53h-.17z"/><path d="M76.1 28.08h.17v50.63h-.17z"/><path d="M76.22 32.63h.17v46.09h-.17z"/><path d="M76.34 30.71h.17v48h-.17z"/><path d="M76.46 30.38h.17v48.34h-.17z"/><path d="M76.58 30.04h.17v48.67h-.17z"/><path d="M76.69 33.92h.17v44.8h-.17z"/><path d="M76.81 29.38h.17v49.34h-.17z"/><path d="M76.93 30.33h.17v48.38h-.17z"/><path d="M77.05 30.57h.17v48.14h-.17z"/><path d="M77.17 30.24h.17v48.48h-.17z"/><path d="M77.29 33.2h.17v45.52h-.17z"/><path d="M77.41 28.66h.17v50.06h-.17z"/><path d="M77.53 31.91h.17v46.81h-.17z"/><path d="M77.64 28.66h.17v50.06h-.17z"/><path d="M77.76 30.62h.17v48.1h-.17z"/><path d="M77.88 30.67h.17v48.05h-.17z"/><path d="M78 31.24h.17v47.48H78z"/><path d="M78.12 29.47h.17v49.24h-.17z"/><path d="M78.24 32.53h.17v46.18h-.17z"/><path d="M78.36 31.34h.17v47.38h-.17z"/><path d="M78.48 28.66h.17v50.06h-.17z"/><path d="M78.59 27.99h.17v50.73h-.17z"/><path d="M78.71 31.53h.17v47.19h-.17z"/><path d="M78.83 29.04H79v49.67h-.17z"/><path d="M78.95 28.9h.17v49.82h-.17z"/><path d="M79.07 28.28h.17v50.44h-.17z"/><path d="M79.19 25.84h.17v52.88h-.17z"/><path d="M79.31 27.61h.17v51.11h-.17z"/><path d="M79.43 30.52h.17v48.19h-.17z"/><path d="M79.54 32h.17v46.71h-.17z"/><path d="M79.66 30.28h.17v48.43h-.17z"/><path d="M79.78 29.38h.17v49.34h-.17z"/><path d="M79.9 27.51h.17v51.2h-.17z"/><path d="M80.02 33.73h.17v44.99h-.17z"/><path d="M80.14 28.04h.17v50.68h-.17z"/><path d="M80.26 29.61h.17v49.1h-.17z"/><path d="M80.38 31.34h.17v47.38h-.17z"/><path d="M80.49 30.91h.17v47.81h-.17z"/><path d="M80.61 30.86h.17v47.86h-.17z"/><path d="M80.73 30.19h.17v48.53h-.17z"/><path d="M80.85 32.48h.17v46.23h-.17z"/><path d="M80.97 27.89h.17v50.82h-.17z"/><path d="M81.09 30.47h.17v48.24h-.17z"/><path d="M81.21 31.96h.17v46.76h-.17z"/><path d="M81.32 31.53h.17v47.19h-.17z"/><path d="M81.44 30.86h.17v47.86h-.17z"/><path d="M81.56 30.28h.17v48.43h-.17z"/><path d="M81.68 31.67h.17v47.05h-.17z"/><path d="M81.8 30.14h.17v48.57h-.17z"/><path d="M81.92 31.81h.17v46.9h-.17z"/><path d="M82.04 32.87h.17v45.85h-.17z"/><path d="M82.16 31.57h.17v47.14h-.17z"/><path d="M82.27 30.62h.17v48.1h-.17z"/><path d="M82.39 28.47h.17v50.25h-.17z"/><path d="M82.51 31.14h.17v47.57h-.17z"/><path d="M82.63 27.03h.17v51.68h-.17z"/><path d="M82.75 30.91h.17v47.81h-.17z"/><path d="M82.87 34.3h.17v44.42h-.17z"/><path d="M82.99 29.04h.17v49.67h-.17z"/><path d="M83.11 28.75h.17v49.96h-.17z"/><path d="M83.22 33.34h.17v45.37h-.17z"/><path d="M83.34 31.86h.17v46.85h-.17z"/><path d="M83.46 29.14h.17v49.58h-.17z"/><path d="M83.58 32.15h.17v46.57h-.17z"/><path d="M83.7 31.14h.17v47.57h-.17z"/><path d="M83.82 33.53h.17v45.18h-.17z"/><path d="M83.94 31.29h.17v47.43h-.17z"/><path d="M84.06 31.72h.17v47h-.17z"/><path d="M84.17 30.47h.17v48.24h-.17z"/><path d="M84.29 30.76h.17v47.95h-.17z"/><path d="M84.41 29.61h.17v49.1h-.17z"/><path d="M84.53 31.62h.17v47.09h-.17z"/><path d="M84.65 31.38h.17v47.33h-.17z"/><path d="M84.77 30h.17v48.72h-.17z"/><path d="M84.89 32.77h.17v45.95h-.17z"/><path d="M85.01 30.91h.17v47.81h-.17z"/><path d="M85.12 31.91h.17v46.81h-.17z"/><path d="M85.24 32.82h.17v45.9h-.17z"/><path d="M85.36 31.19h.17v47.52h-.17z"/><path d="M85.48 31.53h.17v47.19h-.17z"/><path d="M85.6 30.67h.17v48.05h-.17z"/><path d="M85.72 31.77h.17v46.95h-.17z"/><path d="M85.84 32.2h.17v46.52h-.17z"/><path d="M85.96 31.57h.17v47.14h-.17z"/><path d="M86.07 29.95h.17v48.77h-.17z"/><path d="M86.19 31.96h.17v46.76h-.17z"/><path d="M86.31 29.42h.17v49.29h-.17z"/><path d="M86.43 31.14h.17v47.57h-.17z"/><path d="M86.55 30.43h.17v48.29h-.17z"/><path d="M86.67 28.37h.17v50.34h-.17z"/><path d="M86.79 33.2h.17v45.52h-.17z"/><path d="M86.91 30.19h.17v48.53h-.17z"/><path d="M87.02 31.62h.17v47.09h-.17z"/><path d="M87.14 29.23h.17v49.48h-.17z"/><path d="M87.26 29.76h.17v48.96h-.17z"/><path d="M87.38 31.38h.17v47.33h-.17z"/><path d="M87.5 29.57h.17v49.15h-.17z"/><path d="M87.62 31.86h.17v46.85h-.17z"/><path d="M87.74 29.95h.17v48.77h-.17z"/><path d="M87.85 30.52h.17v48.19h-.17z"/><path d="M87.97 29.71h.17v49.01h-.17z"/><path d="M88.09 31.67h.17v47.05h-.17z"/><path d="M88.21 31.24h.17v47.48h-.17z"/><path d="M88.33 32.63h.17v46.09h-.17z"/><path d="M88.45 30.28h.17v48.43h-.17z"/><path d="M88.57 30.57h.17v48.14h-.17z"/><path d="M88.69 30.38h.17v48.34h-.17z"/><path d="M88.8 29.57h.17v49.15h-.17z"/><path d="M88.92 28.51h.17v50.2h-.17z"/><path d="M89.04 32.72h.17v45.99h-.17z"/><path d="M89.16 28.9h.17v49.82h-.17z"/><path d="M89.28 31.29h.17v47.43h-.17z"/><path d="M89.4 30.04h.17v48.67h-.17z"/><path d="M89.52 28.13h.17v50.58h-.17z"/><path d="M89.64 33.44h.17v45.28h-.17z"/><path d="M89.75 32.91h.17v45.8h-.17z"/><path d="M89.87 31.77h.17v46.95h-.17z"/><path d="M89.99 32.91h.17v45.8h-.17z"/><path d="M90.11 28.99h.17v49.72h-.17z"/><path d="M90.23 29.85h.17v48.86h-.17z"/><path d="M90.35 30.09h.17v48.62h-.17z"/><path d="M90.47 28.37h.17v50.34h-.17z"/><path d="M90.59 30h.17v48.72h-.17z"/><path d="M90.7 35.88h.17v42.84h-.17z"/><path d="M90.82 30.47h.17v48.24h-.17z"/><path d="M90.94 31.34h.17v47.38h-.17z"/><path d="M91.06 30.76h.17v47.95h-.17z"/><path d="M91.18 28.61h.17v50.1h-.17z"/><path d="M91.3 30.24h.17v48.48h-.17z"/><path d="M91.42 30.33h.17v48.38h-.17z"/><path d="M91.54 29.66h.17v49.05h-.17z"/><path d="M91.65 30.95h.17v47.76h-.17z"/><path d="M91.77 29.42h.17v49.29h-.17z"/><path d="M91.89 30.38h.17v48.34h-.17z"/><path d="M92.01 31.29h.17v47.43h-.17z"/><path d="M92.13 29.57h.17v49.15h-.17z"/><path d="M92.25 31.1h.17v47.62h-.17z"/><path d="M92.37 29.33h.17v49.39h-.17z"/><path d="M92.49 29.61h.17v49.1h-.17z"/><path d="M92.6 31.05h.17v47.67h-.17z"/><path d="M92.72 30.09h.17v48.62h-.17z"/><path d="M92.84 28.94h.17v49.77h-.17z"/><path d="M92.96 28.23h.17v50.49h-.17z"/><path d="M93.08 30.04h.17v48.67h-.17z"/><path d="M93.2 29.47h.17v49.24h-.17z"/><path d="M93.32 29.18h.17v49.53h-.17z"/><path d="M93.44 32.67h.17v46.04h-.17z"/><path d="M93.55 29.9h.17v48.81h-.17z"/><path d="M93.67 31.1h.17v47.62h-.17z"/><path d="M93.79 26.65h.17v52.07h-.17z"/><path d="M93.91 28.51h.17v50.2h-.17z"/><path d="M94.03 31.29h.17v47.43h-.17z"/><path d="M94.15 30.33h.17v48.38h-.17z"/><path d="M94.27 32.67h.17v46.04h-.17z"/><path d="M94.39 30.67h.17v48.05h-.17z"/><path d="M94.5 31.43h.17v47.28h-.17z"/><path d="M94.62 28.85h.17v49.87h-.17z"/><path d="M94.74 29.18h.17v49.53h-.17z"/><path d="M94.86 29.38h.17v49.34h-.17z"/><path d="M94.98 30.04h.17v48.67h-.17z"/><path d="M95.1 32.2h.17v46.52h-.17z"/><path d="M95.22 27.56h.17v51.16h-.17z"/><path d="M95.33 31.1h.17v47.62h-.17z"/><path d="M95.45 32.24h.17v46.47h-.17z"/><path d="M95.57 31.38h.17v47.33h-.17z"/><path d="M95.69 30.95h.17v47.76h-.17z"/><path d="M95.81 31.67h.17v47.05h-.17z"/><path d="M95.93 30.81h.17v47.91h-.17z"/><path d="M96.05 31.48h.17v47.24h-.17z"/><path d="M96.17 29.76h.17v48.96h-.17z"/><path d="M96.28 32.72h.17v45.99h-.17z"/><path d="M96.4 32.15h.17v46.57h-.17z"/><path d="M96.52 28.9h.17v49.82h-.17z"/><path d="M96.64 29.23h.17v49.48h-.17z"/><path d="M96.76 30.95h.17v47.76h-.17z"/><path d="M96.88 31.67h.17v47.05h-.17z"/><path d="M97 32.34h.17v46.38H97z"/><path d="M97.12 30.91h.17v47.81h-.17z"/><path d="M97.23 29.23h.17v49.48h-.17z"/><path d="M97.35 30.47h.17v48.24h-.17z"/><path d="M97.47 29.42h.17v49.29h-.17z"/><path d="M97.59 28.47h.17v50.25h-.17z"/><path d="M97.71 28.66h.17v50.06h-.17z"/><path d="M97.83 32.2H98v46.52h-.17z"/><path d="M97.95 29.04h.17v49.67h-.17z"/><path d="M98.07 29.14h.17v49.58h-.17z"/><path d="M98.18 29.42h.17v49.29h-.17z"/><path d="M98.3 33.15h.17v45.56h-.17z"/><path d="M98.42 28.66h.17v50.06h-.17z"/><path d="M98.54 31.72h.17v47h-.17z"/><path d="M98.66 31.19h.17v47.52h-.17z"/><path d="M98.78 30.86h.17v47.86h-.17z"/><path d="M98.9 30.47h.17v48.24h-.17z"/><path d="M99.02 27.37h.17v51.35h-.17z"/><path d="M99.13 30.19h.17v48.53h-.17z"/><path d="M99.25 30.91h.17v47.81h-.17z"/><path d="M99.37 31.34h.17v47.38h-.17z"/><path d="M99.49 31.19h.17v47.52h-.17z"/><path d="M99.61 30.95h.17v47.76h-.17z"/><path d="M99.73 27.51h.17v51.2h-.17z"/><path d="M99.85 28.28h.17v50.44h-.17z"/><path d="M99.97 31.19h.17v47.52h-.17z"/><path d="M100.08 28.56h.17v50.15h-.17z"/><path d="M100.2 34.3h.17v44.42h-.17z"/><path d="M100.32 31h.17v47.71h-.17z"/><path d="M100.44 31.53h.17v47.19h-.17z"/><path d="M100.56 27.85h.17v50.87h-.17z"/><path d="M100.68 30.86h.17v47.86h-.17z"/><path d="M100.8 30.33h.17v48.38h-.17z"/><path d="M100.92 31.62h.17v47.09h-.17z"/><path d="M101.03 30.95h.17v47.76h-.17z"/><path d="M101.15 27.18h.17v51.54h-.17z"/><path d="M101.27 27.18h.17v51.54h-.17z"/><path d="M101.39 32.96h.17v45.75h-.17z"/><path d="M101.51 32.39h.17v46.33h-.17z"/><path d="M101.63 35.93h.17v42.79h-.17z"/><path d="M101.75 32.77h.17v45.95h-.17z"/><path d="M101.86 27.99h.17v50.73h-.17z"/><path d="M101.98 31.48h.17v47.24h-.17z"/><path d="M102.1 30.38h.17v48.34h-.17z"/><path d="M102.22 30.95h.17v47.76h-.17z"/><path d="M102.34 29.85h.17v48.86h-.17z"/><path d="M102.46 32.43h.17v46.28h-.17z"/><path d="M102.58 30h.17v48.72h-.17z"/><path d="M102.7 29.9h.17v48.81h-.17z"/><path d="M102.81 32.05h.17v46.66h-.17z"/><path d="M102.93 29.52h.17v49.2h-.17z"/><path d="M103.05 31.91h.17v46.81h-.17z"/><path d="M103.17 31.77h.17v46.95h-.17z"/><path d="M103.29 31.77h.17v46.95h-.17z"/><path d="M103.41 28.99h.17v49.72h-.17z"/><path d="M103.53 29.9h.17v48.81h-.17z"/><path d="M103.65 32.1h.17v46.61h-.17z"/><path d="M103.76 30h.17v48.72h-.17z"/><path d="M103.88 30.71h.17v48h-.17z"/><path d="M104 31.67h.17v47.05H104z"/><path d="M104.12 30.86h.17v47.86h-.17z"/><path d="M104.24 31.29h.17v47.43h-.17z"/><path d="M104.36 30.71h.17v48h-.17z"/><path d="M104.48 28.71h.17v50.01h-.17z"/><path d="M104.6 29.61h.17v49.1h-.17z"/><path d="M104.71 30.81h.17v47.91h-.17z"/><path d="M104.83 31.29h.17v47.43h-.17z"/><path d="M104.95 30.38h.17v48.34h-.17z"/><path d="M105.07 29.23h.17v49.48h-.17z"/><path d="M105.19 33.1h.17v45.61h-.17z"/><path d="M105.31 30.71h.17v48h-.17z"/><path d="M105.43 31.86h.17v46.85h-.17z"/><path d="M105.55 29.66h.17v49.05h-.17z"/><path d="M105.66 30.95h.17v47.76h-.17z"/><path d="M105.78 32.53h.17v46.18h-.17z"/><path d="M105.9 31.05h.17v47.67h-.17z"/><path d="M106.02 33.73h.17v44.99h-.17z"/><path d="M106.14 31.57h.17v47.14h-.17z"/><path d="M106.26 31.24h.17v47.48h-.17z"/><path d="M106.38 31.62h.17v47.09h-.17z"/><path d="M106.5 31.53h.17v47.19h-.17z"/><path d="M106.61 30.67h.17v48.05h-.17z"/><path d="M106.73 28.94h.17v49.77h-.17z"/><path d="M106.85 30.76h.17v47.95h-.17z"/><path d="M106.97 30.04h.17v48.67h-.17z"/><path d="M107.09 31.34h.17v47.38h-.17z"/><path d="M107.21 33.06h.17v45.66h-.17z"/><path d="M107.33 32.05h.17v46.66h-.17z"/><path d="M107.45 34.11h.17v44.61h-.17z"/><path d="M107.56 32.72h.17v45.99h-.17z"/><path d="M107.68 32.43h.17v46.28h-.17z"/><path d="M107.8 32.67h.17v46.04h-.17z"/><path d="M107.92 34.01h.17v44.7h-.17z"/><path d="M108.04 30.43h.17v48.29h-.17z"/><path d="M108.16 35.06h.17v43.65h-.17z"/><path d="M108.28 31.38h.17v47.33h-.17z"/><path d="M108.39 29.81h.17v48.91h-.17z"/><path d="M108.51 28.51h.17v50.2h-.17z"/><path d="M108.63 32.1h.17v46.61h-.17z"/><path d="M108.75 30.09h.17v48.62h-.17z"/><path d="M108.87 33.34h.17v45.37h-.17z"/><path d="M108.99 34.4h.17v44.32h-.17z"/><path d="M109.11 34.2h.17v44.51h-.17z"/><path d="M109.23 33.58h.17v45.13h-.17z"/><path d="M109.34 32.43h.17v46.28h-.17z"/><path d="M109.46 31.96h.17v46.76h-.17z"/><path d="M109.58 33.2h.17v45.52h-.17z"/><path d="M109.7 32.77h.17v45.95h-.17z"/><path d="M109.82 30.91h.17v47.81h-.17z"/><path d="M109.94 30.47h.17v48.24h-.17z"/><path d="M110.06 32.2h.17v46.52h-.17z"/><path d="M110.18 30.38h.17v48.34h-.17z"/><path d="M110.29 33.06h.17v45.66h-.17z"/><path d="M110.41 31.24h.17v47.48h-.17z"/><path d="M110.53 29.47h.17v49.24h-.17z"/><path d="M110.65 29.71h.17v49.01h-.17z"/><path d="M110.77 31.29h.17v47.43h-.17z"/><path d="M110.89 30.67h.17v48.05h-.17z"/><path d="M111.01 30.09h.17v48.62h-.17z"/><path d="M111.13 32.34h.17v46.38h-.17z"/><path d="M111.24 32h.17v46.71h-.17z"/><path d="M111.36 33.53h.17v45.18h-.17z"/><path d="M111.48 33.25h.17v45.47h-.17z"/><path d="M111.6 32.34h.17v46.38h-.17z"/><path d="M111.72 33.34h.17v45.37h-.17z"/><path d="M111.84 30.33h.17v48.38h-.17z"/><path d="M111.96 32.67h.17v46.04h-.17z"/><path d="M112.08 32.77h.17v45.95h-.17z"/><path d="M112.19 29.66h.17v49.05h-.17z"/><path d="M112.31 32.67h.17v46.04h-.17z"/><path d="M112.43 34.11h.17v44.61h-.17z"/><path d="M112.55 31.05h.17v47.67h-.17z"/><path d="M112.67 32.63h.17v46.09h-.17z"/><path d="M112.79 32.2h.17v46.52h-.17z"/><path d="M112.91 31.29h.17v47.43h-.17z"/><path d="M113.03 33.01h.17v45.71h-.17z"/><path d="M113.14 32.72h.17v45.99h-.17z"/><path d="M113.26 33.34h.17v45.37h-.17z"/><path d="M113.38 33.25h.17v45.47h-.17z"/><path d="M113.5 32.58h.17v46.14h-.17z"/><path d="M113.62 31.34h.17v47.38h-.17z"/><path d="M113.74 31.77h.17v46.95h-.17z"/><path d="M113.86 32.91h.17v45.8h-.17z"/><path d="M113.98 32.15h.17v46.57h-.17z"/><path d="M114.09 32.91h.17v45.8h-.17z"/><path d="M114.21 27.61h.17v51.11h-.17z"/><path d="M114.33 30.57h.17v48.14h-.17z"/><path d="M114.45 31.72h.17v47h-.17z"/><path d="M114.57 33.73h.17v44.99h-.17z"/><path d="M114.69 31.67h.17v47.05h-.17z"/><path d="M114.81 29.76h.17v48.96h-.17z"/><path d="M114.92 33.01h.17v45.71h-.17z"/><path d="M115.04 34.54h.17v44.18h-.17z"/><path d="M115.16 32.24h.17v46.47h-.17z"/><path d="M115.28 32.43h.17v46.28h-.17z"/><path d="M115.4 32.34h.17v46.38h-.17z"/><path d="M115.52 30.33h.17v48.38h-.17z"/><path d="M115.64 27.7h.17v51.01h-.17z"/><path d="M115.76 33.2h.17v45.52h-.17z"/><path d="M115.87 33.53h.17v45.18h-.17z"/><path d="M115.99 29.81h.17v48.91h-.17z"/><path d="M116.11 33.87h.17v44.85h-.17z"/><path d="M116.23 32.72h.17v45.99h-.17z"/><path d="M116.35 34.16h.17v44.56h-.17z"/><path d="M116.47 29.61h.17v49.1h-.17z"/><path d="M116.59 33.1h.17v45.61h-.17z"/><path d="M116.71 31.19h.17v47.52h-.17z"/><path d="M116.82 32.29h.17v46.42h-.17z"/><path d="M116.94 34.4h.17v44.32h-.17z"/><path d="M117.06 32.77h.17v45.95h-.17z"/><path d="M117.18 34.92h.17v43.79h-.17z"/><path d="M117.3 37.12h.17v41.59h-.17z"/><path d="M117.42 31.53h.17v47.19h-.17z"/><path d="M117.54 29.28h.17v49.44h-.17z"/><path d="M117.66 32.1h.17v46.61h-.17z"/><path d="M117.77 32.91h.17v45.8h-.17z"/><path d="M117.89 29.33h.17v49.39h-.17z"/><path d="M118.01 32.24h.17v46.47h-.17z"/><path d="M118.13 30.28h.17v48.43h-.17z"/><path d="M118.25 32.77h.17v45.95h-.17z"/><path d="M118.37 31.72h.17v47h-.17z"/><path d="M118.49 35.54h.17v43.17h-.17z"/><path d="M118.61 30.14h.17v48.57h-.17z"/><path d="M118.72 32.39h.17v46.33h-.17z"/><path d="M118.84 31.1h.17v47.62h-.17z"/><path d="M118.96 31.19h.17v47.52h-.17z"/><path d="M119.08 31.53h.17v47.19h-.17z"/><path d="M119.2 33.39h.17v45.32h-.17z"/><path d="M119.32 32.1h.17v46.61h-.17z"/><path d="M119.44 29.66h.17v49.05h-.17z"/><path d="M119.56 32.87h.17v45.85h-.17z"/><path d="M119.67 31.43h.17v47.28h-.17z"/><path d="M119.79 33.68h.17v45.04h-.17z"/><path d="M119.91 32.48h.17v46.23h-.17z"/><path d="M120.03 30.91h.17v47.81h-.17z"/><path d="M120.15 32.48h.17v46.23h-.17z"/><path d="M120.27 32.15h.17v46.57h-.17z"/><path d="M120.39 32h.17v46.71h-.17z"/><path d="M120.51 30.09h.17v48.62h-.17z"/><path d="M120.62 30.71h.17v48h-.17z"/><path d="M120.74 32.29h.17v46.42h-.17z"/><path d="M120.86 33.77h.17v44.94h-.17z"/><path d="M120.98 32.24h.17v46.47h-.17z"/><path d="M121.1 32.63h.17v46.09h-.17z"/><path d="M121.22 30.76h.17v47.95h-.17z"/><path d="M121.34 32.96h.17v45.75h-.17z"/><path d="M121.46 30.57h.17v48.14h-.17z"/><path d="M121.57 31.62h.17v47.09h-.17z"/><path d="M121.69 34.49h.17v44.22h-.17z"/><path d="M121.81 31.67h.17v47.05h-.17z"/><path d="M121.93 30.28h.17v48.43h-.17z"/><path d="M122.05 29.61h.17v49.1h-.17z"/><path d="M122.17 29.61h.17v49.1h-.17z"/><path d="M122.29 32.96h.17v45.75h-.17z"/><path d="M122.4 31.62h.17v47.09h-.17z"/><path d="M122.52 32.29h.17v46.42h-.17z"/><path d="M122.64 31.53h.17v47.19h-.17z"/><path d="M122.76 33.1h.17v45.61h-.17z"/><path d="M122.88 33.1h.17v45.61h-.17z"/><path d="M123 32.34h.17v46.38H123z"/><path d="M123.12 33.15h.17v45.56h-.17z"/><path d="M123.24 30.81h.17v47.91h-.17z"/><path d="M123.35 30.76h.17v47.95h-.17z"/><path d="M123.47 33.3h.17v45.42h-.17z"/><path d="M123.59 32.82h.17v45.9h-.17z"/><path d="M123.71 31.14h.17v47.57h-.17z"/><path d="M123.83 32.24h.17v46.47h-.17z"/><path d="M123.95 33.06h.17v45.66h-.17z"/><path d="M124.07 29.71h.17v49.01h-.17z"/><path d="M124.19 30.24h.17v48.48h-.17z"/><path d="M124.3 32.48h.17v46.23h-.17z"/><path d="M124.42 32.53h.17v46.18h-.17z"/><path d="M124.54 33.2h.17v45.52h-.17z"/><path d="M124.66 32.29h.17v46.42h-.17z"/><path d="M124.78 33.34h.17v45.37h-.17z"/><path d="M124.9 30.81h.17v47.91h-.17z"/><path d="M125.02 31h.17v47.71h-.17z"/><path d="M125.14 33.49h.17v45.23h-.17z"/><path d="M125.25 31.48h.17v47.24h-.17z"/><path d="M125.37 32.39h.17v46.33h-.17z"/><path d="M125.49 33.44h.17v45.28h-.17z"/><path d="M125.61 31.1h.17v47.62h-.17z"/><path d="M125.73 28.85h.17v49.87h-.17z"/><path d="M125.85 29.95h.17v48.77h-.17z"/><path d="M125.97 34.44h.17v44.27h-.17z"/><path d="M126.09 32.43h.17v46.28h-.17z"/><path d="M126.2 33.25h.17v45.47h-.17z"/><path d="M126.32 31.77h.17v46.95h-.17z"/><path d="M126.44 34.16h.17v44.56h-.17z"/><path d="M126.56 31.24h.17v47.48h-.17z"/><path d="M126.68 33.25h.17v45.47h-.17z"/><path d="M126.8 32.58h.17v46.14h-.17z"/><path d="M126.92 31.62h.17v47.09h-.17z"/><path d="M127.04 33.87h.17v44.85h-.17z"/><path d="M127.15 33.53h.17v45.18h-.17z"/><path d="M127.27 31.19h.17v47.52h-.17z"/><path d="M127.39 33.44h.17v45.28h-.17z"/><path d="M127.51 31.57h.17v47.14h-.17z"/><path d="M127.63 33.15h.17v45.56h-.17z"/><path d="M127.75 34.25h.17v44.46h-.17z"/><path d="M127.87 32.39h.17v46.33h-.17z"/><path d="M127.99 32.67h.17v46.04h-.17z"/><path d="M128.1 32.15h.17v46.57h-.17z"/><path d="M128.22 37.02h.17v41.69h-.17z"/><path d="M128.34 32.96h.17v45.75h-.17z"/><path d="M128.46 31.29h.17v47.43h-.17z"/><path d="M128.58 30.76h.17v47.95h-.17z"/><path d="M128.7 31.14h.17v47.57h-.17z"/><path d="M128.82 34.01h.17v44.7h-.17z"/><path d="M128.93 31.72h.17v47h-.17z"/><path d="M129.05 31.19h.17v47.52h-.17z"/><path d="M129.17 31.77h.17v46.95h-.17z"/><path d="M129.29 32.39h.17v46.33h-.17z"/><path d="M129.41 29.81h.17v48.91h-.17z"/><path d="M129.53 31.48h.17v47.24h-.17z"/><path d="M129.65 31.91h.17v46.81h-.17z"/><path d="M129.77 33.44h.17v45.28h-.17z"/><path d="M129.88 27.37h.17v51.35h-.17z"/><path d="M130 33.53h.17v45.18H130z"/><path d="M130.12 30.43h.17v48.29h-.17z"/><path d="M130.24 33.25h.17v45.47h-.17z"/><path d="M130.36 30.76h.17v47.95h-.17z"/><path d="M130.48 29.81h.17v48.91h-.17z"/><path d="M130.6 31.96h.17v46.76h-.17z"/><path d="M130.72 29.9h.17v48.81h-.17z"/><path d="M130.83 31.67h.17v47.05h-.17z"/><path d="M130.95 30.24h.17v48.48h-.17z"/><path d="M131.07 32.43h.17v46.28h-.17z"/><path d="M131.19 33.82h.17v44.89h-.17z"/><path d="M131.31 31.86h.17v46.85h-.17z"/><path d="M131.43 30.14h.17v48.57h-.17z"/><path d="M131.55 32.34h.17v46.38h-.17z"/><path d="M131.67 32.2h.17v46.52h-.17z"/><path d="M131.78 28.94h.17v49.77h-.17z"/><path d="M131.9 31.34h.17v47.38h-.17z"/><path d="M132.02 31.53h.17v47.19h-.17z"/><path d="M132.14 31.86h.17v46.85h-.17z"/><path d="M132.26 33.15h.17v45.56h-.17z"/><path d="M132.38 30.71h.17v48h-.17z"/><path d="M132.5 34.25h.17v44.46h-.17z"/><path d="M132.62 34.06h.17v44.65h-.17z"/><path d="M132.73 32.72h.17v45.99h-.17z"/><path d="M132.85 35.35h.17v43.36h-.17z"/><path d="M132.97 33.73h.17v44.99h-.17z"/><path d="M133.09 31.05h.17v47.67h-.17z"/><path d="M133.21 31.77h.17v46.95h-.17z"/><path d="M133.33 33.63h.17v45.08h-.17z"/><path d="M133.45 30.43h.17v48.29h-.17z"/><path d="M133.57 33.73h.17v44.99h-.17z"/><path d="M133.68 32.96h.17v45.75h-.17z"/><path d="M133.8 32.34h.17v46.38h-.17z"/><path d="M133.92 31.43h.17v47.28h-.17z"/><path d="M134.04 31.1h.17v47.62h-.17z"/><path d="M134.16 32.58h.17v46.14h-.17z"/><path d="M134.28 32.15h.17v46.57h-.17z"/></g></g><g class="guide ylabels" font-size="2.82" font-family="'PT Sans Caption','Helvetica Neue','Helvetica',sans-serif" fill="#6C606B" text-anchor="end"><text x="12.69" y="78.72" dy=".35em">0</text><text x="12.69" y="54.81" dy=".35em">500</text><text x="12.69" y="30.91" dy=".35em">1000</text><text x="12.69" y="7" dy=".35em">1500</text></g></g><defs><clipPath id="a"><path d="M13.69 5h122.73v75.72H13.69"/></clipPath></defs></svg>