<svg xmlns="http://www.w3.org/2000/svg" width="116.929" height="116.929"><g transform="translate(0 -935.433)"><circle transform="matrix(.02267 0 0 .02267 -36.067 875.2)" r="2579" cy="5236" cx="4170" class="fil0 str0" fill="#007cc3" fill-rule="evenodd"/><circle class="fil0 str0" cx="4170" cy="5236" r="2579" transform="matrix(.01374 0 0 .01374 1.173 921.96)" fill="#204a87" fill-rule="evenodd"/><path d="M50.835 982.13s-.999-1.935-1.065-2.201c-.067-.267-.6-3.002-.6-3.002l.666-1.2 1.465-2.201 2.13-1.668.532-.2 5.125-1.934.466-.467-.533-.8-.732-.4-1.343-.345-3.366-.345-2.612.023-1.797.4-1.598-.6-1.996-.267-2.929-.067-1.464-.066-2.463.934-3.727 4.335-.466 1.667-.266 1.467-1.265 2.735-.799 2.6-.399 2.802v.6l-1.93 2.935-1.065 2.2v3.136l.333 6.469.599 2.334 1.198 2.134 1.53 1.401.666 2.735 2.53 5.602 2.995 3.601.2.2 1.064 5.403-3.66 6.67-.999 1.533-.932.6-1.464-.2-.865.334-.999-.066-.665.533-1.265-.333-1.264-.2-1.065.667-.267 1.134.733-.667 1.131-.2v1.067l1.797-.4.998.066 1.731.4s1.53.066 1.797.066c.266 0 1.864.333 1.864.333h1.198l.599.334.865-.134.865.534h1.331l.267-.867v-.467l.865.4.666.667.399.734.066-.867-.465-1.067s-.333-.6-.6-.6c-.266 0-1.264-.334-1.264-.334l-.732.2-.732-.4-.8.334-.665-.334-.266-.667-.466-.2.4-1.2 1.198-2.735 1.597-2.668 1.398-1.667.532-.667s.666-1 .666-1.267c0-.267.133-3.068.133-3.068l-.865-1.801-.4-1.467 7.721 1.867h.466l6.59 4.736.931 1.2.333 4.602-.133 1.067-.466.867-.533.534-.2.933-.266.467-1.264.2-1.198-.4-.732-.2h-1.398l-.666.534-.332.733.066.8.4-.733.465-.467.4-.066-.067.667.466.4 1.132-.333h.532l.067.733 1.597.2 1.132-.2.865.267 1.264.333.466-.066.4-.266.399 1.267.2-1.334-.333-1.6-.732-.601.266-1-.6-1.134.068-4.202 3.327 3.935 4.393 3.468s2.995 1.067 3.262 1.067c.266 0 2.33-.266 2.33-.266l1.33-2.201-.998-3.002.4-1-2.13-2.801-4.512-4.594-1.08-3.61.067-2.468-.998-2.6-1.132-2.068.666-2.068-.533-3-2.27-5.11.84-.142-1.408-2.436.914-.29-1.607-2.62.676-.364-1.205-1.978.393-.22-1.458-1.18.533-.277-3.794-2.658z"/><g stroke="none" fill="#fff"><path d="M33.276 985.498l-.105 13.847 2.03.41.205-4.786s2.441 4.273 2.645 4.68c.203.408 3.552-.1 3.552-.1s-4.48-6.954-4.061-6.925l2.943.204 1.422-1.831-.404-3.358-2.54-1.936-5.687-.205zm3.106 2.24h2.13l1.018 1.118-1.018 1.632-1.117.304-1.013-1.427v-1.626zM42.72 990.284c.204.407.102 9.164.102 9.164s3.76.407 3.556 0c-.203-.407 0-8.757 0-8.757zM42.924 988.044l2.133 1.222 1.22-1.731-.102-1.833-2.134-.305-1.523 1.12zM48.816 988.248l-.102 3.054 1.524 2.953.813 2.138-3.759.713s-.508 2.648.203 2.648c.711 0 4.368.101 4.368.101l2.134-2.24.101-2.443-1.727-2.851-.304-1.935 1.727-1.222.71 1.324 1.93.305-.202-4.887-3.556-.102-2.54 1.018zM57.552 986.415l-.101 13.033 9.762.306-.711-2.24-5.8-.204-.204-2.037 4.988-.101.102-2.24-3.566-.408-.406-3.97 4.987-.204-.406-2.24zM68.229 985.876l.61 12.524 3.555 1.324 2.844-.917.61-1.222.101 1.935s2.133.917 2.032 0c-.102-.916.305-13.746-.407-13.848-.71-.101-3.555.306-3.555.306l.813 7.738-1.22 1.528-1.625.407s-.914-1.731-.914-2.138c0-.408.203-7.637.203-7.637zM83.67 985.571c-.509 0-4.98.305-4.98.305 0 .61.509 13.952.509 13.952s3.276.233 2.87-.378c-.407-.61-.682-6.139-.682-6.139l2.996-.105 2.235-1.018 1.112-2.24-1.422-3.359s-2.131-1.018-2.639-1.018zm-1.412.971l.97 1.658 2.188-.472-1.353 1.569 1.243 2.246-2.356-1.065-1.8.587.441-1.768-1.254-.892 1.658-.178.263-1.685z"/></g><g fill="#d70000"><g fill-rule="evenodd"><path d="M49.885 1003.18h.672v.673h-.672zM49.885 1001.838h.672v.671h-.672z"/></g><path d="M43.167 1001.166v3.358h.671v-1.343h2.015v-2.015h-2.686zM52.57 1001.166v.672h-.336v.671h-.336v.672h-.336v.671h-.336v.672h.672v-.672h.336v-.671h.335v-.672h.336v-.671h.336v-.672h-.672zM54.584 1001.166v.672h-.336v.671h-.335v.672h-.336v.671h-.336v.672h.672v-.672h.335v-.671h.336v-.672h.336v-.671h.336v-.672h-.672zM66.002 1001.166v3.358H68.689v-.672h-2.015v-.671h1.343v-.672h-1.343v-.671h2.015v-.672H66.002zM59.286 1001.166v.672h1.007V1003.852h-1.007v.672h2.686v-.672h-1.007V1001.838h1.007v-.672h-2.686zM69.36 1001.166v3.358H72.047v-3.358h-.672v2.686h-1.343V1001.166h-.672zM76.079 1003.517h1.007v1.007h-1.007zM77.756 1001.166v3.358h.671v-1.343h.672v.671h.671v.672h.672v-3.358h-.672v1.343H79.1v-.671h-.672v-.672h-.671zM33.092 1001.166v3.358h.672v-1.343h1.343v1.343h.672v-3.358h-.672v1.343h-1.343v-1.343h-.672zM36.45 1001.166v.672h1.008V1004.524h.671v-2.686h1.008v-.672H36.45zM55.928 1001.166v3.358h.671v-1.343h.672v1.343h.671v-1.343h.672v-2.015H56.6zM39.808 1001.166v.672h1.008V1004.524h.671v-2.686h1.008v-.672H39.808zM46.525 1001.166v2.015h2.015v.671h-2.015v.672h2.686v-2.015h-2.015v-.671h2.015v-.672h-2.686zM62.644 1001.166v2.015h2.015v.671h-2.015v.672h2.686v-2.015H63.316v-.671H65.33v-.672H62.644zM72.718 1001.166v3.358h.672v-1.343h2.015v-2.015h-2.687zM81.114 1001.166v3.358H83.8v-.672h-2.015v-.671h1.344v-.672h-1.344v-.671H83.8v-.672h-2.686zM84.472 1001.166v.672H85.479V1004.524h.672v-2.686H87.158v-.672H84.472z" fill-rule="evenodd"/></g></g></svg>