<?xml version="1.0" encoding="UTF-8" standalone="no"?>
<svg
   xmlns:dc="http://purl.org/dc/elements/1.1/"
   xmlns:cc="http://creativecommons.org/ns#"
   xmlns:rdf="http://www.w3.org/1999/02/22-rdf-syntax-ns#"
   xmlns:svg="http://www.w3.org/2000/svg"
   xmlns="http://www.w3.org/2000/svg"
   xmlns:sodipodi="http://sodipodi.sourceforge.net/DTD/sodipodi-0.dtd"
   xmlns:inkscape="http://www.inkscape.org/namespaces/inkscape"
   width="86.580002"
   height="120.29"
   viewBox="25.55 20.29 86.580003 120.29001"
   id="svg2"
   version="1.1"
   inkscape:version="0.91 r13725"
   sodipodi:docname="the-guardian.svg">
  <metadata
     id="metadata12">
    <rdf:RDF>
      <cc:Work
         rdf:about="">
        <dc:format>image/svg+xml</dc:format>
        <dc:type
           rdf:resource="http://purl.org/dc/dcmitype/StillImage" />
        <dc:title></dc:title>
      </cc:Work>
    </rdf:RDF>
  </metadata>
  <defs
     id="defs10" />
  <sodipodi:namedview
     pagecolor="#ffffff"
     bordercolor="#666666"
     borderopacity="1"
     objecttolerance="10"
     gridtolerance="10"
     guidetolerance="10"
     inkscape:pageopacity="0"
     inkscape:pageshadow="2"
     inkscape:window-width="1920"
     inkscape:window-height="1046"
     id="namedview8"
     showgrid="false"
     fit-margin-top="0"
     fit-margin-left="0"
     fit-margin-right="0"
     fit-margin-bottom="0"
     inkscape:zoom="1.4130755"
     inkscape:cx="208.24"
     inkscape:cy="76.850002"
     inkscape:window-x="0"
     inkscape:window-y="0"
     inkscape:window-maximized="1"
     inkscape:current-layer="svg2" />
  <path
     d="m 67.329999,130.6 c -14.74,0 -19.8,-5.2 -19.8,-10.8 0,-3.9 1.04,-6.6 3.12,-9.1 l 28.53,0 c 6.67,0 9.7,2 9.7,6.2 0.02,8.4 -4.65,13.7 -21.55,13.7 z m 0.23,-100.799999 c 5.9,0 9.7,2.6 9.7,18.8 0,16.2 -3.81,17.89 -9.61,17.89 -5.8,0 -9.54,-1.35 -9.54,-17.87 0,-16.5 3.7,-18.8 9.58,-18.8 z m 17.9,56.3 -29,0 c -3.1,0 -5.7,-2.4 -5.7,-5.2 0,-2.2 1.6,-4.5 3.6,-6 4.4,1.3 8,1.7 13.4,1.7 20.9,0 35.200001,-9.5 35.200001,-27.2 0,-7.9 -3.300001,-12.4 -8.500001,-17 l 0,-0.6 13.400001,4.7 1.8,0.1 0,-16.31 -1.5,0 -20.630001,4.1 -1.15,0 c -5.14,-1.9 -12.3,-3.9 -18.8,-3.9 -20.9,0 -35.36,10.37 -35.36,27.98 0,10.73 5.4,18.72 13.47,23.14 l 0,0.85 c -4.66,3.28 -13.6,10.02 -13.6,18.65 0,6.3 4.16,12.529999 12.86,14.399999 l 0,0.87 c -9.15,1.9 -19.4,4.9 -19.4,15.4 0,10.8 15.65,18.8 41.16,18.8 31.7,0 45.420001,-12.2 45.420001,-31.5 0,-15.899999 -8.8,-23.299999 -26.700001,-23.299999 z"
     id="path6"
     inkscape:connector-curvature="0"
     style="fill:#0a5787"
     sodipodi:nodetypes="sscscscssscccsscssccccccccssccsccssscc" />
</svg>
