<svg xmlns="http://www.w3.org/2000/svg" height="722.803" width="1035.232" id="svg2"><defs id="defs4"><style id="style6">.land{fill:#ccc;fill-opacity:1;stroke:#fff;stroke-opacity:1;stroke-width:.5}</style></defs><g transform="translate(-56.579 -34.64)" id="g8"><path d="M191.8 495.91l2.87 8.43 3.02-2.96 9.45 2.36-.85 3.93 8.45 3.99 6.07-1.1 11.73 6.53 11.14 2.37 4.41 2.47 7.93-2.48 8.81 5.39 6.42 2.46-.29 61.92-.41 89.84 7.5.44 7.5 4.15 5.52 6.58 7.22 9.78 7.24-8.8 7.5-5.33 4.57 7.63 5.67 5.86 7.72 6.27 5.88 10.36 9.87 16.24 15.03 7.91 1.32 9.26-3.88 7.62-5.24-5.02-7.87-3.96-3.56-12.68-11.56-11.14-5.39-13.83-7.71-.46-12.67.3-9.46-4-16.5-15.44-7.41-2.87-13.37-5.62-10.64 1-14.65-7.75-8.54-7.13-8.59 2.6.69 10.76-4.31.62-9.17 2.34-7.32 4.4-8.95 2.21v-9.05l5.22-14.52 8.47-3.82-1.62-4.08-10.5 7.43-6.45 9.48-12.54 9.2 4.61 8.12-8.97 9.68-9.49 4.89-8.73 3.17-3.13 6.19-14.01 5.24-3.92 6.35-10.87 4.25-5.39-2.33-8.57 2.31-9.52 2.92-8.06 3.09-15.29.34-.64-2.74 10.79-4.25 9.15-2.37 10.61-5.76 10.46.68 5.31-5.08 12.97-6.42 2.37-2.58 6.88-4.06 3.48-10.97 5.58-8.06-9.78 2.83-1.99-3.05-5.29 4.55-3.47-8.58-3.22 4.87-1.26-8.01-9 4.19-4.71-1.12 1.45-8.95 2.67-5.11-3.54-6.46-10.41.39-4.4-8.61-4.04-4.93 2.31-8.42-3.72-7.91 5.2-7.81 8.05-6.82 4.58-7.12 5.87.36 4.11 3.66 7.39-6.02 4.68 2.52 6.33-3.59.34-7.37-3.13-3.67 6.35-4.88-4.14-.76-7.89 1.7-2.89 2.92-4.41-4.75-9.88-.77-8.65-6.44-.92-7.01-5.42-11.46 10.92-3.79 16.26-3.71 5.19 1.37-2.92 7.67 13.69 2.75-2.8-11.1-6.17-8.03-2.27-9.16-3.95-8.45-6.76-7.45 5.78-7.51 10.57 2.37 9.34-5.56 3.41-7.73 7.78-6.53 5.97-.64 12.31-5.24 4.93 2.18 10.31-7.58 7.85 5.07zM59.27 587.82l3.09 4.29 4.68-.11 4.08 5.78 6.04 4.18-1.08 1.46-6.17 1.5-4.07-4.97-1.64-3.58-6.21-1.19-1.13-1.88 2.41-5.48zm24.78 71.14l-5.19.99-4.04-4.16-3.25-5.32 7.96-.37 5.42 3-.9 5.86zm88.74 61.58l-8.89 4.49-3.56-4.44-.17-7.13 8.04-4.19 4.56-1.67 5.13 1.72 2.78 5.07-7.89 6.15z" class="land" id="US-AK" fill="#555" stroke="#fff"/><path d="M823.25 403.55l8.12 27.47 7.16 21.93 3.6 6.75 2.17 3.84-2.69 4.36-.21 7.34 1.56 4.14v4.07l-.08 3.78 1.58 2.75 1.29 2.56-39.93 4.54-11.09 2.37-.15 1.76 5 5.12-.61 4.59-1.14 3.26-17.79-.97-3.52-34.73.32-36.57.82-29.65-1.71-4.27 23.4-2.17z" class="land" id="US-AL" fill="#555" stroke="#fff"/><path d="M746.45 386.99l-.06 1.89-1.65 3.32-3.09 2.42-.46 3.8-2.74 3.17.65 6.58-1.99 2.25-.24 1.82-3.23 1.9.13 3.29-2.14 6.22-2.1 1.42-3.15 3.28-1.74 4.79-3.7 8.15-.15 5.41 2.51 5.85-.68 4.52-16.23.02-20.92 1.56-18.53.45.83-12.94h-4.41l-3.69.37-1.03-1.47.21-19.9.02-22.1-4.05-23.93 22.26-.16 20.24-.64 19.31-.89 20.91.17 1.71 2.7-1.91 2.57-1.9 2.58-.99 2.32z" class="land" id="US-AR" fill="#555" stroke="#fff"/><path d="M393.21 351.89l-18.39 127.43-38.39-5.86-40.98-23.7-26.48-16.65 2.63-3.92 2.5.55 3-4.03-2.68-3.76.03-3.48-.15-4.13 4.7-4.36 3.58-9.89 6.55-3.43-2.62-4.99-1.52-4.68-.71-4.21-.38-3.22.04-2.07 2.03-4.13.01-4.54.52-4.39 1-4.78-.98-3.38 1.81-2.48 3.79.78 3.14 2.29 2.28 1.38 1.88-3.15.93-.58 3.47-17.92 28.88 5.19 34.44 5.96z" class="land" id="US-AZ" fill="#555" stroke="#fff"/><path d="M227.74 202.25l-17.77 65.65 24.91 38.1 24.81 36.73 24.25 34.76-.04 2.07.38 3.22.71 4.21 1.52 4.68 2.62 4.99-6.55 3.43-3.58 9.89-4.7 4.36.15 4.13-.03 3.48 2.68 3.76-3 4.03-2.5-.55-24.4-2.83-21.77-3.21-.34-8.7-5.13-13.35-16.39-18.1-7.17-2.72-6.12-9.01-13.93-5.57-3.65-4.82 1.14-12.6-11.03-26.87-5.61-34.54 2.12-4.85-5.41-9.47-7.53-22.22 3.25-18.36-5.08-14.63 9.37-16.76 5.37-18.71z" class="land" id="US-CA" fill="#555" stroke="#fff"/><path d="M524.26 297.34l-2.15 34.87-2.23 33.22-17.45-1.33-21.7-1.85-30.77-3.09-28.54-3.44-28.21-3.83 12.84-89.85 17.07 2.36 17.08 2.18 34.23 3.78 17.15 1.61 34.23 2.66-1.51 21.98z" class="land" id="US-CO" fill="#555" stroke="#fff"/><path d="M1034.84 200.91l3.4 11.94-.13 3.48-7 3.07-9.34 3.62-11.66 8.5-1.27-2.54 3.08-3.06-1.78-1.54-3.33-17.07 12.66-2.83z" class="land" id="US-CT" fill="#555" stroke="#fff"/><path d="M963.72 293.35l-.19-1.32-1.85-1.6 1.18-1.36 2.69 1.83z" class="land" id="US-DC" fill="#555" stroke="#fff"/><path d="M986.93 264.85l-2 2.89 1.42 4.15 6.32 11.08 7.33 10.2-11.58 2.66-7.64-27.9.91-2.04 1.31-1.34z" class="land" id="US-DE" fill="#555" stroke="#fff"/><path d="M915.25 488.75l5.22 16.08 10.58 17.33 11.85 15.47 1.53 8.85 12.88 21.75 4.47 20.21-.81 20.57-8.06 5.55-10.75-1.06-4.94-9.52-8.74-4.01-13.99-17.99-12.52-15.19-3.46-10.7 1.41-14.38-6.48-12.06-14.86-11.8-12.45-7.11-21.1 12.35-5.32-5.84-19.83-8.17-22.05 5.1 1.14-3.26.61-4.59-5-5.12.15-1.76 11.09-2.37 39.93-4.54 3.72 5.75 19.85-1.5 32.27-1.17 2.06 3.73 2.22-2.42-1.17-7.86 2.23-1.14 4.13 1.06z" class="land" id="US-FL" fill="#555" stroke="#fff"/><path d="M870.54 397.61l-1.77 2.16-2.37 4.68 5.55 3.03 3.43.9 4.51 6.61 2.82 3.66 7.34 4.35 1.72 2.6 5.03 2.97 3.04 5.01 6.77 3.58 2.18 4.92 1.53 2.31-.39 1.76 3.95 1.88 2.58 3.91.67 4.29 1.9.54 3.48.61-5.65 17.89-1.61 13.48-4.19.24-4.13-1.06-2.23 1.14 1.17 7.86-2.22 2.42-2.06-3.73-32.27 1.17-19.85 1.5-3.72-5.75-1.29-2.56-1.58-2.75.08-3.78v-4.07l-1.56-4.14.21-7.34 2.69-4.36-2.17-3.84-3.6-6.75-7.16-21.93-8.12-27.47 14.34-1.5 9.87-1.48z" class="land" id="US-GA" fill="#555" stroke="#fff"/><path d="M443.39 612.09l-3.04.1-1.75-2.38-.9-4.35 2.24-.78 3.28.52 3.31 2.87-.17 1.63-2.97 2.39zm17.53 28.29l-.66 3.48-2.99-1.37-.62-2.43-1.04-.48-.48-.1-1.92-1.63 1.05-6.3 2.46 1.6 3.75.34-1 5.34 1.45 1.55zm11.44 17.19l-3.54-.18-5.86-6.16 2.14-1.41 7.26 7.75zm.39 3.51l.38 3.47 3.3 1.61 1.96 5.74-.91 1.33-2.35.03-5.18-3 1.42-4.08-1.82-1.98.38-3.08 1.6-.74 1.22.7zm-8.34 44.59l-3.3 1.32-2.68-4.91 3.87-5.3 2.25-8.02 6.97-1.6.83-3.42 1.47-1.3.87.25 6.34 12.29.27 3.33-1.3 2.37 1.01 1.2-.53 1.9.83 3.79-6.57.44-4.82-2.11-5.51-.23z" class="land" id="US-HI" fill="#555" stroke="#fff"/><path d="M708.74 219.26l.3 1.23 2.35 3.49-1.39 1.8.31 4.77.79 1.99 1.27 3.55 5.59 1.87 1.83 3.37 1.08 1.67 2.06 1.04.95 2.4 2.76 1.65 1.87 1.85-.52 6.15-2.82 5.33-1.04 1.7-3.81 1.54-5.79 1.45-1.32 3.98 2.22 1.65.92 3.47-2.03 4.05-.96 3.5-4.25 3.6-.14 4.15-2.46-1.77-3.48-3.52-18.87 1.26-19.89.74-15.5.3-15.53.1-1.15-4.11.48-4.06-.38-3.91-1.77-6.55-1.13-2.71-1.23-.74-.12-5.25-1.06-3.76-3.07-4.29.05-1.88-1.06-3.75-.74-2.27.03-2.08-2.7-2.54 1.37-3.72.89-3.64.41-2.47-2.11-3.03.06-5.55h2.2l18.11.02 22.51-.63 24.18-.87z" class="land" id="US-IA" fill="#555" stroke="#fff"/><path d="M384.7 178.06l.51.5-9.34 55.81-49.76-8.96-49.53-10.98 9.6-39.72 2.88-5.97-.61-3.2-2.63-2.2.88-3.54 3.42-4.51 4.44-3.59 3.92-6.66 3.44-5.24 2.25-2.54-.06-3.57-2.2-2.41-2.67-5.14 1.06-3.93-.62-3.73 6.88-31.2 6.67-28.62 14.56 3.32-4.08 23.87 2.66 6.84-.9 4.04 2.04 4.2 3.06 2.89 1.81 4.02 2.8 7.84 3.3 4.09 4.61 1.17-2.72 4.62-2.72 5.59.12 6.03-2.12 1.07-1.02 5.77 2.35 2.79 3.65-2.03 2.24-2.83 1.78 1 1.27 3.45.41 7.44 2.26 3.35-.13 6.05.65 1.82 3.14 1.18 1.35 3.63 1.74 6.36 3.54-2.56 5.11 1.79.83-2.13 8.81 3.02 3.81-.08 3.06-4.07 1.63.91 1.03 3.42z" class="land" id="US-ID" fill="#555" stroke="#fff"/><path d="M767.4 237.97v.06l.66 5.88 5.65 11.47 2.43 26.18 2.42 26.15-1.41 6.47 1.6 1.52 1.29 3.77.15 3.05-1.36 1.51-.94 3.86-3.24 5.26-1.96 6.29-.17 4.62.27 1.67-1.76 3.32 1.72 2-3.02 1.92-3.92 2.24 1.11 4.88-2.22 2.06-4.54-1.74-4.91-.85-1.06 2.29.96 3.37-3.48-3.27-1.91.73-2.72-5.39.42-3.44-1.73-5.38-1.86-.54-5.04-4.65-2.04.05-3.75-2.96-2.74-3.24.9-4.05 1.44-3.4.74-4.24-3.6-3.43-3.26 1.67-2.07-.83-.51-3.77-1.72-4.22-1.68-.94-4.22-2.82-3.55-3.67-3.14-4.51-1.89-6.7 1.23-5.71.14-4.15 4.25-3.6.96-3.5 2.03-4.05-.92-3.47-2.22-1.65 1.32-3.98 5.79-1.45 3.81-1.54 1.04-1.7 2.82-5.33.52-6.15-1.87-1.85-2.76-1.65-.95-2.4-2.06-1.04-1.08-1.67 17.13-1.1 17.51-1.29 12.92-.91-.01-.06z" class="land" id="US-IL" fill="#555" stroke="#fff"/><path d="M819.8 251.07l2.46 20.39 2.58 21.93 1.82 15.61-.87 1.19 1.99 4.42-.55 1.76-2.96.4-2.52 2.32-4.27-.32.13 4.37-2.3 1.94-1.89 4.14-2.44.99-3.17 7.14-3.83-1.54-1.41-2.64-2.63 4.82-1.72 2.72-4.11-2.26-3.9 2.56-1.14 2.33-5.84-2.91-3.61 2.83-4.77-1.33.04 2.51-2.37-.38.17-4.62 1.96-6.29 3.24-5.26.94-3.86 1.36-1.51-.15-3.05-1.29-3.77-1.6-1.52 1.41-6.47-2.42-26.15-2.43-26.18 1.7 1.38 5.75-.68 4.32-2.94 18.21-1.84 15.88-1.99z" class="land" id="US-IN" fill="#555" stroke="#fff"/><path d="M654.77 368.71l-15.96.19-32.74-.11-32.75-.75-18.18-.69-18.16-.9-17.1-1.02 2.23-33.22 2.15-34.87h.03l30.44 1.73 22.66.91 40.12.81h24.02l4.17 2.99 2.27-.07.54 3.28-2.42 4.23 1.36 2.14 2.23 4.74 4.67 2.08.18 24.29z" class="land" id="US-KS" fill="#555" stroke="#fff"/><path d="M868.09 319.18l.65 2.08.5 4.67 2.64 3.19 1.37 3.27 3.04 2.52 2.2 2.44 3.54-.12-6.14 7.77-5.21 3.46-.17 1.88-1.56 2.65-4.55 3.39-1.31 2.41-3.53 1.92-5.05 1.99-12.18 2.37-16.12 1.02-5.19.89-10.5.54-10.66.95-9.81.86-11.33 1.7-.68-.98-3.61.37.37 3.55-26.1 1.87 3.92-2.68 2.75-2.1-.62-3.53.4-2.31-.96-3.37 1.06-2.29 4.91.85 4.54 1.74 2.22-2.06-1.11-4.88 3.92-2.24 3.02-1.92-1.72-2 1.76-3.32-.27-1.67 2.37.38-.04-2.51 4.77 1.33 3.61-2.83 5.84 2.91 1.14-2.33 3.9-2.56 4.11 2.26 1.72-2.72 2.63-4.82 1.41 2.64 3.83 1.54 3.17-7.14 2.44-.99 1.89-4.14 2.3-1.94-.13-4.37 4.27.32 2.52-2.32 2.96-.4.55-1.76-1.99-4.42.87-1.19 6.07-.23 3.38 1.77 5.34 4.47 3.94 1.09 2.96 1.45 4.11-1.2 3.28.86 3.6-1.77 3.28-.87 1.86 2.94z" class="land" id="US-KY" fill="#555" stroke="#fff"/><path d="M722.62 457.07l1.44 1.23-1.57 3.38 3.04 4.53-.64 2.86 2.71 3.78-2.56 2.48-.66 4.35-3.57 3.75-1.51 4.87-1.5 5.59-2.27 2.67 1.07 5.66 17.38-.2 18.53-1.13-.3 3.83-1.05 3.83 1.45 2.8 2.78 2.47.97 3.73.53 2.24-1.63 9.68 7.22 13.29-27.62 2.71-17.33-3.78-11.79-4.2-15.34-2.4-17.36-.19-1.72-2.99 1.95-3.41 2.91-3.1-.06-4.57-1.49-1.49 1.59-5.51 1.2-2.51 1.68-8.41-1.83-3.07-2.4-5.14-1.8-5.25-1.17-3.5-3.25-2.5-1.71-24.35 18.53-.45 20.92-1.56z" class="land" id="US-LA" fill="#555" stroke="#fff"/><path d="M1045.63 177.8l3.14 11.64 8.69 10.04 6.92-1.42-4.03-7.46 6.3 3.41.52 6.61-10.02 6.74-8.01 1.81-1.39-3.21-3.28-1.79-2.81-5.4-6.82 2.14-15.37 3.57-12.66 2.83-.34-16.07 13.48-3.12 19.59-5.12 1.07-2.63 3-2.44z" class="land" id="US-MA" fill="#555" stroke="#fff"/><path d="M980.78 267.93l7.64 27.9 11.58-2.66 1.44 1.77-4.95 9.13-3.98 1.27-1.03 1.83-11.26-8.58-4.42-16.45-1.13 8.42 4.44 19.12-11.91-4.33-1.68-2.9-2.64 1.56-2.57-.73.95-5.36 2.53-2.71-.07-1.86 1.83-2.45-2.69-1.83-1.18 1.36-3.74-1.8-3.93-.58.77-2.65-2.63-1.2-2.69-.23-1.93-2.56-2.74-2.75-5.67-.7-2.98 2.33-1.56 2.02-5.26.09-1.86 2.77-3.26 1.53-2.49 3.12-2.29 2.49-1.93-11.35 15.97-2.99 5.44-1.11 12.16-2.55 14.67-2.99z" class="land" id="US-MD" fill="#555" stroke="#fff"/><path d="M1046.95 172.11l-1.63.7-1.61-2.84-3.87-2.41-.01-2.33-13.29-39.35 5.31-5.64 2.58-11.56-.35-18.46 6.5-20.01 6.72 4.26 8.84-6.83 8.63 4.2 9.52 29.73 13.99 9.03 3.24 9.15-12.86 11.77-13.59 9.85-13.99 18.47z" class="land" id="US-ME" fill="#555" stroke="#fff"/><path d="M810.31 140.6l5.32.03-1.7 2.51 9.03 8.01L809.3 155l-.54-.04-12.74-.9-11.87 5.92-10.61 3.16-8.01 15.38-.43-.12-.01.04-2.39-2.49.85-3.77-3.55.12.4-3.76.81-1.92-1.7-3.07-3.89-1.11-1.2-3.67-3.12-.03-4.49.34-9.47-3.39-14.14-3.12-1.54-4.03-2.52-.59-.02-.07-.95.53-.15-.11.14.1 11.76-6.62 12-8.35 13.09-8.73-3.95 12.49 9.13 2.13 11.89 7.63 13.42-6.53 15.16-3.76 4.06 5.97 4.91.32.68-2.35zm45.55 75.35l-.37.36-5.98 13.52-2.54 8.4-4.54 9.49-6.33 1.07-7.68 1.01-8.62 1.26-.23-1.76-15.88 1.99-18.21 1.84 3.1-3.48 5.66-11.73-1.15-14.96-6.97-13.41-.19-9.69 3.06-11.57 3.2-8.06 5.82-6.16 2.38 7.43 1.52-11.52 3.25-2.73 1.18-8.89 14.08 2.82 13 7.22 2.75 10.08-.03 10.5-7.71 10.26 1.6 5.57 3.28-.25 8.73-11.34 6.35 1.38 4.89 12.62 2.21 9.1.37-.37z" class="land" id="US-MI" fill="#555" stroke="#fff"/><path d="M728.42 114.75l-.01.01-15.26 8.59-10.53 9.78-10.16 10.17.1 3.36-4.1 1.45.69 12.82h-.5l-3.84 2.68-3.32 2.32-2.13 4.28 3.52 4.16-1.02 5.78.21 6.19-.32 5.03 4.91 4.21 1.95.13 5.41 3.02 1.9 1.46 1.26 2.4 4.31 3.72 5.72 3.09.63 1.85.33 5.47.57 2.54-21.73.57-24.18.87-22.51.63-18.11-.02.33-21.28-1.85-21.85-2.8-1.8-1.56-3.54.89-3.09 3.6-2.53.3-3.32.03-4.16-.97-3.48-1.3-3.72-.73-4.66-.15-5.22-.52-1.26-.58-6.73-.03-3.09-.28-2.75-.73-4.66-1.83-4.74-1.74-4.23-.21-4.18-.14-4.51.56-2.94.13-2.68-1.38-3.34-.19-2.27 31.43.09-.05-8.87 5.11-.18 2.86 12.64 4.81 3.83 10.7 1.18 15.73 3.17 15.19 6.5 12.28-3.65 19.29 4.76z" class="land" id="US-MN" fill="#555" stroke="#fff"/><path d="M708.97 290.51l-1.23 5.71 1.89 6.7 3.14 4.51 3.55 3.67 4.22 2.82 1.68.94 1.72 4.22.51 3.77 2.07.83 3.26-1.67 3.6 3.43-.74 4.24-1.44 3.4-.9 4.05 2.74 3.24 3.75 2.96 2.04-.05 5.04 4.65 1.86.54 1.73 5.38-.42 3.44 2.72 5.39 1.91-.73 3.48 3.27-.4 2.31.62 3.53-2.75 2.1-3.92 2.68-.32 2.22-.89 3.31-1.04 5.62-12 .79.99-2.32 1.9-2.58 1.91-2.57-1.71-2.7-20.91-.17-19.31.89-20.24.64-22.26.16.04-10.42h-.09l-.24-24.24-.18-24.29-4.67-2.08-2.23-4.74-1.36-2.14 2.42-4.23-.54-3.28-2.27.07-4.17-2.99-2.3-4.83-2.71-2.89-2.93-3.58-.35-1.87 15.53-.1 15.5-.3 19.89-.74 18.87-1.26 3.48 3.52z" class="land" id="US-MO" fill="#555" stroke="#fff"/><path d="M775.95 407.99l1.71 4.27-.82 29.65-.32 36.57 3.52 34.73-11.72 6.11-11.43.47-.53-2.24-.97-3.73-2.78-2.47-1.45-2.8 1.05-3.83.3-3.83-18.53 1.13-17.38.2-1.07-5.66 2.27-2.67 1.5-5.59 1.51-4.87 3.57-3.75.66-4.35 2.56-2.48-2.71-3.78.64-2.86-3.04-4.53 1.57-3.38-1.44-1.23.68-4.52-2.51-5.85.15-5.41 3.7-8.15 1.74-4.79 3.15-3.28 2.1-1.42 2.14-6.22-.13-3.29 3.23-1.9.24-1.82 18.36-1.28z" class="land" id="US-MS" fill="#555" stroke="#fff"/><path d="M501.84 159.67l-2.68 20.78-26.83-2.88-28.95-3.29-24.91-3.65-31.5-4.76-1.84 11.44-.43.75-1.54-1.53-1.03-3.42-1.63-.91-3.06 4.07-3.81.08-8.81-3.02-.83 2.13-5.11-1.79-3.54 2.56-1.74-6.36-1.35-3.63-3.14-1.18-.65-1.82.13-6.05-2.26-3.35-.41-7.44-1.27-3.45-1.78-1-2.24 2.83-3.65 2.03-2.35-2.79 1.02-5.77 2.12-1.07-.12-6.03 2.72-5.59 2.72-4.62-4.61-1.17-3.3-4.09-2.8-7.84-1.81-4.02-3.06-2.89-2.04-4.2.9-4.04-2.66-6.84 4.08-23.87 44.43 9.17 44.72 7.7 44.95 6.23 45.13 4.75-3.52 42.05z" class="land" id="US-MT" fill="#555" stroke="#fff"/><path d="M995.21 338.43l7.54 21.57-7.91 19.03-16.19 12.41-13.57 14.44-6.33 2.61-24.71-17.24-20.54 3.37-.39-2.62-3.52-3.31-1.61 1.79-.47-1.95-8.79.37-17.03 2.46-9.4 5.32-1.75.93-23.08 2.96-.21-4.82 3.73-1.93.95-2.58 2.25-3.08 3.65-1.1 4.18-1.63 3.92-2.53 1.53-2.24 3.23-2.3-.33-1.61 4.15-3.72 1.77 1.76 6.09-5.25 3.21-.04 2.21-4.2 3.54-1.55-.7-3.17.01-2.89 30.61-4.15 35.86-6.68 18.94-4.11z" class="land" id="US-NC" fill="#555" stroke="#fff"/><path d="M611.06 95.28l.19 2.27 1.38 3.34-.13 2.68-.56 2.94.14 4.51.21 4.18 1.74 4.23 1.83 4.74.73 4.66.28 2.75.03 3.09.58 6.73.52 1.26.15 5.22.73 4.66 1.3 3.72.97 3.48-.03 4.16-30.35.75-25.9-.98-32.65-1.73-30.38-2.27 1.66-27.79 3.52-42.05 52.43 3.74z" class="land" id="US-ND" fill="#555" stroke="#fff"/><path d="M622.06 244.34l.74 2.27 1.06 3.75-.05 1.88 3.07 4.29 1.06 3.76.12 5.25 1.23.74 1.13 2.71 1.77 6.55.38 3.91-.48 4.06 1.15 4.11.35 1.87 2.93 3.58 2.71 2.89 2.3 4.83h-24.02l-40.12-.81-22.66-.91-30.44-1.73h-.03l.04-.73 1.51-21.98-34.23-2.66 3.88-45.18 32.5 2.53 25 1.48 33.45 1.32 4.24 2.99 6.11 1.96 1.46-1.01 3.98.16 5.98-.13 4.29 2.98 4.58 1.94.75 1.9 1.44 1.1z" class="land" id="US-NE" fill="#555" stroke="#fff"/><path d="M1046.95 172.11l-1.32 5.69-2.02.13-3 2.44-1.07 2.63-19.59 5.12-1.9-1.94.52-3.19-1.14-5.87.13-1.51-.84-5.34.58-4.86.79-2.27.49-5.72-.59-3.64-.05-2.28 2.76-1.89 2.83-3.52-.13-2.9-2.03-2.83.18-6.49-.03-.01.05-5.85 4.97-2.13 13.29 39.35.01 2.33 3.87 2.41 1.61 2.84z" class="land" id="US-NH" fill="#555" stroke="#fff"/><path d="M1005.97 233.13l-3.12 12.14 4.45-.07.99 16.59-8.38 19.97-2.62-5.37-4.04-.26-5.45-4.83-1.45.59-1.42-4.15 2-2.89 3.02-2.83.9-1.66 3.34-3.87 1.61-2.92-6.67-4.46-.84-2.27-1.99-.26-.75-3.57 1.33-3.16-1.57-2.67 2.22-2.57 1.75-5.63 1.8-1.46z" class="land" id="US-NJ" fill="#555" stroke="#fff"/><path d="M502.43 364.1l-.84 11.22-4.58 59.31-3.3 42.72-17.98-1.48-34.84-3.4-17.39-1.96-.02 1.96 1.75 3.87-33.33-4.19-1.51 9.3-15.57-2.13 18.39-127.43 28.21 3.83 28.54 3.44 30.77 3.09z" class="land" id="US-NM" fill="#555" stroke="#fff"/><path d="M326.11 225.41l-22.29 111.18-3.47 17.92-.93.58-1.88 3.15-2.28-1.38-3.14-2.29-3.79-.78-1.81 2.48.98 3.38-1 4.78-.52 4.39-.01 4.54-2.03 4.13-24.25-34.76L234.88 306l-24.91-38.1 17.77-65.65 48.82 12.24.02-.06z" class="land" id="US-NV" fill="#555" stroke="#fff"/><path d="M1006.47 191.24l.34 16.07 3.33 17.07 1.78 1.54-3.08 3.06 1.27 2.54 22.78-9.06 6.03 2.83-21.62 12.72-10.67 2.73-.66-7.61-14.89-5.61-3.06-.92-3.19-.87-1.83-2.96-.13-2.54-2.44-1.54-4.4-2.64-22.47 4.97-24.17 5.01-25.96 4.92-1.1-6.06 11.73-15.95-.72-2.08-.01-.06-3.46-6.03 7.97-4.44 12.96-1.72 13.71-.93 10.56-9.98-2.87-8.44-2.59-3.06-.07-.02.01-.01.07.03 13.05-18.88 6.17-5.76 23.85-6.02.82 4.56.09 3.01 2.05 6.46 1.73 3.15-.44 4.97 2.93 5.4-.21 3.46.51.76 2.34-.42z" class="land" id="US-NY" fill="#555" stroke="#fff"/><path d="M895.99 263.59l-2.17 1.52 1.21 2.72.08 5.29-.78 6.12-.86 5.11.1 2.35-3.86 5.89-1.83 1.42-2.24 1.01-2.18-.16-3.27 4.47-.07 4.15-.2 2.27-1.42 1.13-.61-2.46-2.45-.18-1.72 5.24.48 5.01-1.82 3.46-4.29 1.23-3.61-1.67-1.86-2.94-3.28.87-3.6 1.77-3.28-.86-4.11 1.2-2.96-1.45-3.94-1.09-5.34-4.47-3.38-1.77-6.07.23-1.82-15.61-2.58-21.93-2.46-20.39 8.62-1.26 7.68-1.01 6.33-1.08v.01l11.07 3.17 8.59-.1 11.75-4.89 8.94-7.82 8.1-4.47z" class="land" id="US-OH" fill="#555" stroke="#fff"/><path d="M654.82 379.13l4.05 23.93-.02 22.1-.21 19.9-8.24-4.34-5.34-2.36-4.3 1.57-6.67-.21-3.95.04-3.25 1.85-3.18.94-2.78-1.13-6.35 1.19-2.84-3.82-3 3.25-5.16-1.54-5.25-3.62-5.74 2.16-2.36-5.53-8.82.31-5.59-1.39-6.28-1.83-2.63-4.81-5.01 1.33-2.99-1.98-4.38-2.63.96-21.66.97-22.21-18.3-.91-18.3-1.1-18.27-1.31.84-11.22 17.45 1.33 17.1 1.02 18.16.9 18.18.69 32.75.75 32.74.11 15.96-.19h.09z" class="land" id="US-OK" fill="#555" stroke="#fff"/><path d="M299.24 126.14l2.67 5.14 2.2 2.41.06 3.57-2.25 2.54-3.44 5.24-3.92 6.66-4.44 3.59-3.42 4.51-.88 3.54 2.63 2.2.61 3.2-2.88 5.97-9.6 39.72-.02.06-48.82-12.24-68.45-20.38-1.26-13.8 12.32-21.65 8.93-24.11 13.21-31.97 3.23.69 4.59 1.56 3.07 3.13 4.03 2.61 1.56 5.04-.71 3.79.21 3.41 3.3 1.9 3.8 1.06 6.63-.57 3.69.31 5.23 2.52 2.1 1.84 3.45.13 4.01-.8 6.88 2.21 6.39-.89 3.49-.99 3.68 2.01 6.14-.87z" class="land" id="US-OR" fill="#555" stroke="#fff"/><path d="M991.08 227.52l-1.8 1.46-1.75 5.63-2.22 2.57 1.57 2.67-1.33 3.16.75 3.57 1.99.26.84 2.27 6.67 4.46-1.61 2.92-3.34 3.87-.9 1.66-3.02 2.83-3.93-.3-1.31 1.34-.91 2.04-15.05 3.39-14.67 2.99-12.16 2.55-5.44 1.11-15.97 2.99-17.96 3.2-3.54-20.57-5.11-29.97 11.42-8.69.03-.04 1.1 6.06 25.96-4.92 24.17-5.01 22.47-4.97 4.4 2.64 2.44 1.54.13 2.54 1.83 2.96 3.19.87z" class="land" id="US-PA" fill="#555" stroke="#fff"/><path d="M1049.14 209.17l-11.03 7.16.13-3.48-3.4-11.94 6.82-2.14 2.81 5.4 3.28 1.79z" class="land" id="US-RI" fill="#555" stroke="#fff"/><path d="M958.75 408.49l-4.35 17.11-13.93 16.92-17.96 14.86-3.48-.61-1.9-.54-.67-4.29-2.58-3.91-3.95-1.88.39-1.76-1.53-2.31-2.18-4.92-6.77-3.58-3.04-5.01-5.03-2.97-1.72-2.6-7.34-4.35-2.82-3.66-4.51-6.61-3.43-.9-5.55-3.03 2.37-4.68 1.77-2.16 1.75-.93 9.4-5.32 17.03-2.46 8.79-.37.47 1.95 1.61-1.79 3.52 3.31.39 2.62 20.54-3.37z" class="land" id="US-SC" fill="#555" stroke="#fff"/><path d="M622.21 221.31h-2.2l-.06 5.55 2.11 3.03-.41 2.47-.89 3.64-1.37 3.72 2.7 2.54-.03 2.08-2.82-.33-1.44-1.1-.75-1.9-4.58-1.94-4.29-2.98-5.98.13-3.98-.16-1.46 1.01-6.11-1.96-4.24-2.99-33.45-1.32-25-1.48-32.5-2.53 3.7-46.34 2.68-20.78 30.38 2.27 32.65 1.73 25.9.98 30.35-.75-.3 3.32-3.6 2.53-.89 3.09 1.56 3.54 2.8 1.8 1.85 21.85z" class="land" id="US-SD" fill="#555" stroke="#fff"/><path d="M854.51 362.7l27.03-3.14 9.1-1.87-.01 2.89.7 3.17-3.54 1.55-2.21 4.2-3.21.04-6.09 5.25-1.77-1.76-4.15 3.72.33 1.61-3.23 2.3-1.53 2.24-3.92 2.53-4.18 1.63-3.65 1.1-2.25 3.08-.95 2.58-3.73 1.93.21 4.82-9.87 1.48-14.34 1.5-23.9 2.27-23.4 2.17-20.48 1.15-18.36 1.28 1.99-2.25-.65-6.58 2.74-3.17.46-3.8 3.09-2.42 1.65-3.32.06-1.89 1.04-5.62.89-3.31.32-2.22 26.1-1.87-.37-3.55 3.61-.37.68.98 11.33-1.7 9.81-.86 10.66-.95 10.5-.54 5.19-.89 16.12-1.02z" class="land" id="US-TN" fill="#555" stroke="#fff"/><path d="M658.64 445.06l1.03 1.47 3.69-.37h4.41l-.83 12.94 1.71 24.35 3.25 2.5 1.17 3.5 1.8 5.25 2.4 5.14 1.83 3.07-1.68 8.41-1.2 2.51-1.59 5.51 1.49 1.49.06 4.57-2.91 3.1-1.95 3.41 1.72 2.99-17.02 5.14-18.2 17.2-20.21 9.9-11.26 10.89-4.87 10.31-.44 15.94.87 11.13 3.87 7.95-8.2.57-14.78-5.41-16.09-7.66-5.45-11.07-3.93-16.33-11.54-13.64-6.39-13.8-9.29-16.24-13.58-9.95-16.35-.65-13.99 17.14-16.11-8.25-9.72-7.84-3.76-13.02-5.39-12.54-10.63-11.21-9.19-8.26-6.16-8.86-1.75-3.87.02-1.96 17.39 1.96 34.84 3.4 17.98 1.48 3.3-42.72 4.58-59.31 18.27 1.31 18.3 1.1 18.3.91-.97 22.21-.96 21.66 4.38 2.63 2.99 1.98 5.01-1.33 2.63 4.81 6.28 1.83 5.59 1.39 8.82-.31 2.36 5.53 5.74-2.16 5.25 3.62 5.16 1.54 3-3.25 2.84 3.82 6.35-1.19 2.78 1.13 3.18-.94 3.25-1.85 3.95-.04 6.67.21 4.3-1.57 5.34 2.36z" class="land" id="US-TX" fill="#555" stroke="#fff"/><path d="M406.05 262.04l-12.84 89.85-26.07-4.15-34.44-5.96-28.88-5.19 22.29-111.18 49.76 8.96-3.72 21.79z" class="land" id="US-UT" fill="#555" stroke="#fff"/><path d="M949.46 283.97l2.68.24 2.64 1.19-.78 2.65 3.93.58 3.75 1.8 1.84 1.6.19 1.32.07 1.86-2.52 2.71-.95 5.36 2.57.72 2.64-1.56 1.68 2.91 13.73 10.02 5.74 9.84.35.6 8.2 12.61-19.16 4.32-18.93 4.11-35.87 6.68-30.61 4.16-9.1 1.87-27.04 3.14 5.06-2 3.53-1.92 1.3-2.42 4.55-3.38 1.57-2.65.17-1.88 5.21-3.46 6.13-7.78 1.39 3.68 2.33 1.71 3.01 1.37 5.21-3.61 2.41 1.22 6.36-2.98.05-2.07 2.15.45 1.93-2.01 2.54-.11 2.53-2.22.03-2.11-.77-2.53 1.72-4.29 2.9-3.52.28-3.45 2.3-4.51.8-5.16 2.64 1.3 2.9 1.11 2.36-1.33.46-2.19 1.2-3.09 1.34-3.53 1.44.69 2.03-3.37 2.84-3.57 1.72-2.63.2-6.19 10.03 4.26 1.1-4.56zm39.35 39.49l1.81.52 5.88-19.91-3.99 1.27-1.03 1.82-2.67 16.3z" class="land" id="US-VA" fill="#555" stroke="#fff"/><path d="M1019.95 188.12l-13.48 3.12-3.96-18.35-2.34.42-.51-.76.21-3.46-2.93-5.4.44-4.97-1.73-3.15-2.05-6.46-.09-3.01-.82-4.56 28.83-7.68.03.01-.18 6.49 2.03 2.83.13 2.9-2.83 3.52-2.76 1.89.05 2.28.59 3.64-.49 5.72-.79 2.27-.58 4.86.84 5.34-.13 1.51 1.14 5.87-.52 3.19z" class="land" id="US-VT" fill="#555" stroke="#fff"/><path d="M313.23 58.66l-6.67 28.62-6.88 31.2.62 3.73-1.06 3.93-31.98-7.71-6.14.87-3.68-2.01-3.49.99-6.39.89-6.88-2.21-4.01.8-3.45-.13-2.1-1.84-5.23-2.52-3.69-.31-6.63.57-3.8-1.06-3.3-1.9-.21-3.41.71-3.79-1.56-5.04-4.03-2.61-3.07-3.13-4.59-1.56-3.23-.69 1.7-19.45 4.33-21.82 19.27 10.45 1.35 19.22 5.44-4.7 3.03-18.77-1.42-20.29 43.32 12.58z" class="land" id="US-WA" fill="#555" stroke="#fff"/><path d="M718.02 148.31l.15.11.94-.54.02.07 2.53.6 1.54 4.03 14.13 3.11 9.48 3.39 4.48-.33 3.12.03 1.2 3.67 3.9 1.11 1.7 3.07-.81 1.92-.4 3.76 3.55-.12-.85 3.77 2.39 2.49.01-.04.43.12-.13.23-5.59 8.77 2.44 2.49 10.48-15.75 2.41-.32-6.69 18.29-2.22 16.15-1.97 13.11 3.08 10.91.06 5.56h-.06l.01.06-12.92.91-17.51 1.29-17.13 1.1-1.83-3.37-5.59-1.87-1.27-3.55-.79-1.99-.31-4.77 1.39-1.8-2.35-3.49-.3-1.23-.57-2.54-.33-5.47-.63-1.85-5.72-3.09-4.31-3.72-1.26-2.4-1.9-1.46-5.41-3.02-1.95-.13-4.91-4.21.32-5.03-.21-6.19 1.02-5.78-3.52-4.16 2.13-4.28 3.32-2.32 3.84-2.68h.5l-.69-12.82 4.1-1.45 15.51-5.55z" class="land" id="US-WI" fill="#555" stroke="#fff"/><path d="M917.49 280.96l1.93 11.35 2.29-2.49 2.49-3.12 3.26-1.53 1.86-2.77 5.26-.09 1.56-2.02 2.98-2.33 5.67.7 2.74 2.75 1.93 2.56-1.09 4.57-10.03-4.26-.2 6.19-1.72 2.63-2.84 3.57-2.03 3.37-1.44-.69-1.35 3.52-1.2 3.1-.46 2.18-2.35 1.33-2.91-1.11-2.64-1.3-.8 5.16-2.3 4.51-.28 3.45-2.89 3.52-1.73 4.29.75 2.57-.03 2.11-2.52 2.22-2.54.11-1.93 2.01-2.15-.46-.05 2.07-6.36 2.98-2.41-1.23-5.21 3.61-3-1.37-2.34-1.71-1.38-3.68-3.54.12-2.2-2.44-3.04-2.52-1.37-3.27-2.64-3.19-.5-4.67-.65-2.08 4.29-1.23 1.82-3.46-.48-5.01 1.72-5.24 2.45.18.61 2.46 1.42-1.13.2-2.27.07-4.15 3.27-4.47 2.18.16 2.24-1.01 1.83-1.42 3.86-5.89-.1-2.35.86-5.11.78-6.12-.08-5.29-1.21-2.72 2.17-1.52 3.54 20.57z" class="land" id="US-WV" fill="#555" stroke="#fff"/><path d="M499.16 180.45l-3.7 46.34-3.88 45.18-17.15-1.61-34.23-3.78-17.08-2.18-17.07-2.36-33.9-5.88 3.72-21.79 9.34-55.81-.51-.5.43-.75 1.84-11.44 31.5 4.76 24.91 3.65 28.95 3.29z" class="land" id="US-WY" fill="#555" stroke="#fff"/></g></svg>