<svg xmlns="http://www.w3.org/2000/svg" height="70.785" width="82.418"><g fill="#231f20"><path d="M31.739 55.966l-9.407-8.121-7.173 8.121-9.745-8.392V34.311H3.519c-1.692 0-2.571 1.083-2.978 2.368H.338A10.753 10.753 0 0 1 0 34.108c0-1.76.474-6.361 5.414-6.361v-11.64c0-2.233-2.639-3.113-2.639-6.091C2.775 6.16 6.429 2.37 13.129 0l.271.203c-2.436 1.422-3.722 2.775-3.722 5.685 0 4.467 4.331 3.316 4.331 10.354v2.707l7.918-8.324 8.324 8.188 7.85-8.188 7.579 7.444v25.039zM7.58 46.492V32.214H3.79c-1.963 0-2.842 1.285-2.978 2.436l.067.068c.677-.744 1.354-1.15 2.91-1.15h2.368v13.67l8.933 7.715 1.015-1.219zm0-31.062c0-2.774-2.436-3.722-2.436-5.481 0-2.437.947-4.466 2.436-6.361l-.135-.067C5.415 5.078 3.52 7.582 3.52 10.017c0 2.437 2.639 3.587 2.639 5.753v11.978H7.58zm14.279 6.768l-5.143-5.008-2.707 2.774V43.92l6.158 5.211 1.692-1.895zm2.165 24.159V21.251l-5.752-5.685-1.083 1.083 5.414 5.21v25.242l9.136 7.918 1.083-1.016-3.889-3.38zm13.129-25.039l-4.263-4.061-2.436 2.504v24.092l6.632 5.819.067-.067zm2.165-.947l-4.94-4.805-1.015 1.083 4.534 4.331v28.287l1.421-1.354zM74.77 10.625l-9 9.678v-7.106h-.745v7.783l-1.488 1.624v-6.159l-6.361-5.818-6.834 7.24.472.475 1.356-1.356 2.773 2.504v7.31h-.404c-3.452 0-5.55 2.976-5.55 5.82 0 1.554.134 2.504.337 3.112h.203c.947-1.827 2.03-2.841 3.992-2.841h1.422v13.195c-4.398 1.489-6.97 5.346-7.443 10.557l.135.068c2.437-2.435 4.94-3.654 7.308-4.195v18.203l.137.066 7.85-7.24 2.707 2.435.136-.066V52.65c2.234.61 2.91 1.287 4.805 3.317l11.84-8.934V17.596l-7.649-6.971zm-21.042 4.672l3.383 3.111v8.39h-1.42v-7.646l-3.047-2.707 1.084-1.148zm17.73.066l4.602 4.264v31.195l-1.421 1.084V20.438l-4.264-3.924 1.084-1.15zm-1.556 1.692l3.992 3.654v28.22l-.068.067c-2.098-2.3-4.534-3.315-8.053-3.654v-23.82l4.13-4.467zm-4.873 5.21V64.36l-1.488-1.353V23.822l1.488-1.556zM53.391 30.59h3.72v37.084l-1.42 1.353v-36.88h-2.64c-1.624.201-2.436.675-3.248 2.029l-.067-.067c.067-1.895 1.083-3.52 3.655-3.52zm1.554 19.422v1.691c-2.3.542-4.059 1.286-5.955 2.91l-.066-.136c1.286-2.233 3.247-3.924 6.021-4.465zm10.828 0c3.18.407 4.805 1.622 6.43 3.652l-1.557 1.219c-1.624-1.894-2.572-2.57-4.873-3.112v-1.76z"/></g></svg>