<?xml version="1.0" encoding="UTF-8" standalone="no"?>
<!-- Created with Inkscape (http://www.inkscape.org/) -->

<svg
   xmlns:dc="http://purl.org/dc/elements/1.1/"
   xmlns:cc="http://creativecommons.org/ns#"
   xmlns:rdf="http://www.w3.org/1999/02/22-rdf-syntax-ns#"
   xmlns:svg="http://www.w3.org/2000/svg"
   xmlns="http://www.w3.org/2000/svg"
   xmlns:sodipodi="http://sodipodi.sourceforge.net/DTD/sodipodi-0.dtd"
   xmlns:inkscape="http://www.inkscape.org/namespaces/inkscape"
   width="155.785"
   height="158.63365"
   id="svg3006"
   sodipodi:version="0.32"
   inkscape:version="0.91 r13725"
   sodipodi:modified="true"
   version="1.0"
   sodipodi:docname="imf.svg"
   inkscape:output_extension="org.inkscape.output.svg.inkscape">
  <defs
     id="defs3008" />
  <sodipodi:namedview
     id="base"
     pagecolor="#ffffff"
     bordercolor="#666666"
     borderopacity="1.0"
     gridtolerance="10000"
     guidetolerance="10"
     objecttolerance="10"
     inkscape:pageopacity="0.0"
     inkscape:pageshadow="2"
     inkscape:zoom="1"
     inkscape:cx="192.42857"
     inkscape:cy="219.10953"
     inkscape:document-units="px"
     inkscape:current-layer="g4219"
     inkscape:window-width="1280"
     inkscape:window-height="750"
     inkscape:window-x="0"
     inkscape:window-y="0"
     showgrid="false"
     fit-margin-top="0"
     fit-margin-left="0"
     fit-margin-right="0"
     fit-margin-bottom="0"
     inkscape:window-maximized="0" />
  <metadata
     id="metadata3011">
    <rdf:RDF>
      <cc:Work
         rdf:about="">
        <dc:format>image/svg+xml</dc:format>
        <dc:type
           rdf:resource="http://purl.org/dc/dcmitype/StillImage" />
        <dc:title></dc:title>
      </cc:Work>
    </rdf:RDF>
  </metadata>
  <g
     inkscape:label="Layer 1"
     inkscape:groupmode="layer"
     id="layer1"
     transform="translate(-154.67893,-505.08651)">
    <g
       id="g4219">
      <g
         id="g4307"
         transform="matrix(0.4479348,0,0,0.4479348,85.392855,366.4168)">
        <path
           style="fill:#3a76bc;fill-opacity:1;fill-rule:nonzero;stroke:none;stroke-width:0.28;stroke-linecap:butt;stroke-linejoin:bevel"
           d="m 196.01567,486.84664 c 0,73.53167 59.62028,133.54944 133.54944,133.54944 73.53168,0 133.54942,-60.01777 133.54942,-133.54944 0,-73.5317 -60.01774,-133.54944 -133.54942,-133.54944 -73.92916,0 -133.54944,60.01774 -133.54944,133.54944 z m 3.57721,0 c 0,-71.54435 58.03042,-129.97223 129.97223,-129.97223 71.54433,0 129.57474,58.42788 129.57474,129.97223 0,71.54433 -58.03041,129.97222 -129.57474,129.97222 -71.94181,0 -129.97223,-58.42789 -129.97223,-129.97222 z"
           id="path2655"
           inkscape:connector-curvature="0" />
        <path
           style="fill:#3a76bc;fill-opacity:1;fill-rule:evenodd;stroke:none;stroke-width:0.28;stroke-linecap:butt;stroke-linejoin:bevel"
           d="m 215.88909,377.94025 c 0,7.94936 0,15.50128 0,23.05317 0,16.29622 0,32.59243 0,48.88864 0,14.30886 0,29.01521 0,43.72154 0,3.57722 0,6.75697 0,10.33419 0,9.14176 1.19241,17.88607 3.57721,26.63039 4.37217,16.29621 13.91141,31.40001 26.23294,43.32407 11.12911,11.12911 24.24559,19.87344 38.15697,27.02788 10.73166,5.56454 21.46331,9.93669 32.9899,13.51391 2.78228,1.19241 5.96202,1.98735 8.74431,2.78228 0.79493,0 1.58986,0.39748 2.38482,0.39748 6.35948,-1.19241 12.71898,-2.78229 19.07848,-4.76963 11.92406,-3.57722 23.84811,-8.34683 34.97722,-14.70633 13.91141,-7.15444 26.23294,-17.09115 36.56711,-29.01522 11.52659,-13.51391 19.0785,-30.20761 22.25824,-47.69622 2.38482,-11.92406 1.98735,-23.84811 2.38482,-36.16963 0,-15.89875 0,-32.19496 0.39746,-48.49117 0,-15.10381 0,-30.20762 0.39748,-45.70889 0,-4.37216 0,-8.74431 0,-13.11646 -4.37215,0 -8.74431,0 -13.11648,0 -11.12911,0 -22.65569,0 -33.78482,0 -15.50127,0 -30.60507,0 -45.70888,0 -16.69367,0 -32.98989,0 -49.68357,0 -15.1038,0 -29.81015,0 -44.51648,0 -10.73165,0 -21.06583,0 -31.40002,0 -3.57721,0 -6.75696,0 -9.93671,0 z m 153.02541,208.671 c -0.39748,0 -0.79496,0.39746 -1.58988,0.39746 -0.39746,0 -1.1924,0 -1.98734,0 -1.98735,0.79494 -3.57722,1.58987 -5.1671,2.38483 -1.58987,0.39746 -2.78227,1.58986 -3.97468,1.98732 -1.58987,0.39748 -3.17976,0.79494 -4.76963,1.19242 -2.78228,0.79493 -5.16709,1.58987 -7.94936,1.58987 -2.78229,0 -6.3595,-0.39746 -8.74431,-1.58987 -1.19242,-0.39748 -2.38481,-1.19242 -3.9747,-1.58988 -2.78226,-1.58986 -5.96202,-3.17975 -8.7443,-4.76962 -1.1924,-0.79494 -2.38481,-1.98735 -3.17974,-3.57722 -0.79494,-0.39746 -1.19241,-1.19239 -1.98735,-1.98735 -0.79494,-0.39746 -1.58987,-1.58987 -2.38481,-1.58987 -1.1924,0 -2.38482,0 -3.57721,0 -0.39748,0 -0.79494,-0.79494 -0.79494,-1.1924 -0.39748,-0.39747 -0.79494,-0.39747 -1.19241,-0.79494 -0.39748,-0.39746 -0.79494,-0.79494 -1.19242,-0.79494 -0.79493,-0.39746 -0.79493,-0.79494 -1.19238,-0.39746 0.79492,1.1924 1.58986,1.98734 2.3848,3.17974 0.39747,0.79493 0,1.58987 0.79493,1.58987 0.79494,0 1.98735,-0.39746 2.78229,-0.39746 3.17973,0.39746 4.76963,3.57723 5.96202,6.3595 0.39748,1.1924 0.79494,3.17975 0.79494,4.37215 0,0.79494 0,1.58988 0,1.98735 -0.39746,0.79494 -0.79494,1.58988 -0.79494,1.98733 0,0.39748 -0.39746,1.58989 -0.79493,1.58989 -0.79494,0.39746 -1.58988,0.79493 -2.38481,0.79493 -1.19242,0.39746 -2.78228,0 -3.9747,-0.39747 -1.58987,-0.39746 -2.78228,-1.19241 -3.97468,-2.3848 -0.39747,0 -1.58986,-0.79494 -1.98734,-1.19242 -0.39748,-0.79493 -0.79493,-1.58987 -1.19241,-2.78228 0,-0.39746 0,-1.19239 0,-1.58987 0,-0.79493 -0.39746,-1.98735 -0.39746,-2.38481 0.79494,-1.98735 1.19239,-3.17975 2.38481,-4.37215 0.39748,0.79494 0.79493,1.58988 1.1924,2.3848 0.39746,0.79494 0.79494,1.19242 1.58988,0.39746 0.79493,-0.79493 -0.39748,-1.58986 -0.79494,-1.98732 -0.39748,-0.39748 -0.39748,-0.79494 -0.39748,-1.19242 0,-0.39745 0,-0.79493 -0.39746,-1.19241 -0.79492,-0.79494 -1.1924,-1.19239 -1.98734,-1.98733 -0.39748,-0.39748 -1.58987,-1.19241 -1.58987,-1.58988 0,-0.39746 -0.39748,-2.38481 -1.19241,-1.1924 -0.79494,0.79494 0,1.1924 0.39747,2.3848 -1.58988,0 -2.78227,-0.79493 -4.37215,-1.1924 -1.19241,-0.39746 -2.38483,-0.79494 -3.97469,-1.1924 -2.38481,-0.79493 -4.76964,-1.98735 -7.15444,-2.78228 -2.78228,-1.19241 -5.56456,-1.98735 -8.34685,-2.78228 -0.39745,-0.39748 -0.79493,-0.39748 -1.58986,-0.39748 -0.39747,0 -1.58987,-0.39746 -2.38481,0 -0.39748,0 -1.19241,0.39748 -1.58987,0.39748 -0.79494,0 -1.58989,0 -1.98735,-0.79494 -2.3848,-1.58987 -2.3848,-4.37215 -3.97469,-6.75698 -1.58988,-1.98733 -3.57722,-4.37215 -5.96203,-5.56454 -0.79493,-0.39748 -2.3848,-1.58987 -2.78227,-2.38483 0,-0.79493 -0.39746,-1.58986 0.39747,-1.58986 1.19239,0 1.19239,0 1.98735,1.1924 0.79493,0.39746 2.3848,0.39746 3.17974,0.79494 1.19241,0.79493 2.78228,1.58987 3.97469,2.38481 2.38481,1.19241 4.37215,3.17975 6.75696,4.76962 1.98734,1.58988 4.37215,2.78229 7.15444,3.97469 2.3848,0.79494 4.37215,2.78227 7.15443,3.17975 1.19241,0 2.78228,0.39746 3.97468,1.19242 0.79493,0.39745 1.19241,0.39745 1.58989,0 0.39746,-0.79496 0.79493,-1.19242 0.79493,-1.98735 0.39745,0 0.39745,-0.39748 0.79493,-0.79494 0,0 -0.39748,-0.39748 -0.39748,-0.39748 -0.39745,-0.39746 -0.79492,-1.58987 -0.79492,-1.98734 0.39747,-0.79494 0.79492,-1.19239 1.1924,-1.98733 0.39746,-0.39748 0.79494,-0.79496 1.1924,-1.58989 0.79495,-0.79494 1.98735,-1.58988 3.17976,-1.98733 1.19241,-0.39747 2.3848,-0.79493 3.57722,-0.79493 1.19241,0 3.17973,-0.39748 3.97467,0 0.79495,0.39746 1.19241,0.79493 1.98735,0.79493 0.39748,0 1.58987,0 1.98735,0 0.79494,1.19239 1.1924,2.3848 0.79494,3.57722 -0.39746,1.58987 -0.79494,2.78227 -1.98736,3.97467 -0.39745,0.79494 -0.39745,1.58987 -0.79493,1.98735 -0.79494,0.39746 -1.58987,0.79494 -2.38481,1.19242 -1.58986,0.79493 -3.17976,1.19239 -4.76963,1.19239 -0.79493,0 -1.58987,0 -2.3848,0 -0.39748,-0.39746 -1.98735,-0.39746 -1.98735,-0.79494 -0.39746,-0.79493 0.79494,-1.19241 1.19242,-1.98735 0.39745,-0.39745 -0.39748,-1.58987 -0.79494,-1.98733 0,0 -0.39748,0.39746 -0.39748,0.39746 0,0.39748 0,0.79494 0,0.79494 -0.39746,0.79493 -1.19241,1.19241 -1.58987,1.58987 0,0 -0.39748,0.39748 -0.39748,0.39748 0,0.39748 0.39748,0.79493 0,1.19241 0,0.39746 -0.79494,0.79493 -0.79494,1.19239 1.19242,0.79493 2.38483,0 3.57723,0.39748 0.39748,0 1.19241,0.39745 1.58987,0.39745 1.19241,0 1.98734,0.39748 2.78228,0.39748 0.79493,0 1.58989,0 2.38483,0 0.39745,0 0.79492,-0.79493 1.58986,-0.79493 1.19241,0 2.38481,-0.79494 3.57722,-1.19241 0.39746,-0.39746 1.19242,-0.39746 1.58988,-0.79494 0.39746,-0.79493 0.79492,-1.19241 1.1924,-1.58987 1.19239,-1.19241 1.98733,-2.38481 2.78229,-3.17975 1.98733,-1.58988 4.37215,-3.17975 6.35948,-4.76962 2.78228,-1.58987 5.1671,-2.78228 7.94938,-3.97469 1.1924,-0.39746 2.78227,-0.39746 3.97468,-0.39746 1.19242,0 2.78228,0 3.97469,-0.39748 2.78227,0 5.16709,-0.39746 7.94938,0 1.58987,0.39748 3.17973,0.39748 4.76961,0.79494 1.19241,0.39747 2.38482,0.39747 3.97469,0.39747 1.58987,0 2.78228,0 3.97468,0 1.58988,0 2.78228,-0.39747 3.97469,-0.39747 1.19241,0 2.78229,0 3.97467,0.39747 0.39748,0.39746 3.57723,1.19242 1.98735,1.98735 -1.19239,0.79493 -2.38481,1.19239 -3.97467,1.58987 -1.19241,0 -2.38483,0.79493 -3.57722,1.58987 -1.19241,0.79494 -1.98734,1.58987 -3.17976,1.98735 -1.19239,0.79493 -2.38481,1.1924 -3.97468,1.58987 -2.38482,0.79493 -4.76963,1.98735 -7.5519,2.3848 -1.1924,0.39748 -2.78229,0.79494 -3.97469,1.19242 -0.79492,0.39748 -1.58988,0 -1.98734,0 -0.79493,0 -1.19241,0.39748 -1.98735,0.79493 -0.79493,0 -1.58987,0 -1.98735,0 -0.79492,0.39748 -1.58986,0.39748 -1.98732,0.79494 -1.58989,0 -2.78229,0.39747 -4.37216,0.39747 -2.38482,0.79494 -5.1671,0.79494 -7.94938,1.19239 -1.1924,0 -2.38481,0 -3.97468,0 -0.39747,0 -1.19241,0 -1.58987,0 -0.79493,0 -1.19241,0 -1.98735,0 -1.58987,-0.39745 -2.38481,0.39748 -3.57721,0.79496 -0.79494,0.39746 -1.19242,0.79494 -1.58987,0.79494 -0.79494,0.39745 1.19239,1.19239 1.19239,1.19239 1.19242,0.39748 2.78228,0.39748 4.37215,0.39748 0.39748,0 0.79496,0 1.58989,-0.39748 0.39746,-0.39746 0.79494,-0.39746 1.98732,-0.79494 2.38483,-0.39745 5.16711,0 7.55192,0 1.58987,0.39748 2.78229,0.39748 4.37215,0.79494 1.19241,0.79494 2.38481,1.19241 3.9747,1.58988 2.3848,0.79494 4.37215,1.98733 6.75696,3.17975 1.58986,0.39748 2.78228,0.79493 4.37215,0.79493 1.19241,0.39748 1.98735,0.79494 3.17975,1.19242 2.38481,0.79494 5.16709,1.58986 7.94938,1.58986 0.79493,0 1.98733,0 2.78227,0 1.1924,0 1.98734,-0.79492 2.78227,-0.39747 0.79494,0 1.58989,0 2.38483,0 0.79494,0 1.1924,0.39747 1.58986,0.79493 1.19242,0.39748 1.58988,0.39748 1.19242,1.58989 z m 20.66835,-21.06584 c -0.39747,0.39747 -0.39747,0.79494 -0.79493,0.79494 -0.39748,0 -1.19242,0 -1.58988,0 0,0 -0.79495,0.79494 -1.19241,0.79494 -1.1924,1.1924 -2.3848,2.38481 -3.57721,3.57723 -1.98735,1.19239 -3.57722,3.17973 -5.56457,4.37215 -1.19239,0.79493 -2.38481,1.58987 -3.17973,2.3848 -1.1924,0.39747 -2.78229,1.58987 -3.97469,1.98735 -2.78227,0.79493 -5.56456,1.58987 -8.34684,1.98735 -2.38481,0 -5.16709,0 -7.94937,-0.39748 -1.98735,0 -3.97469,-0.79494 -5.96202,-1.19242 -1.98735,-0.79493 -3.97469,-1.19239 -5.96204,-1.98733 -2.38481,-0.79494 -4.37215,-1.98734 -6.35949,-2.78227 2.78226,0.39745 5.16709,0.79493 7.94938,0.79493 2.78226,0 5.96202,0 8.7443,0 1.19239,0 2.78228,-0.39748 3.97467,-0.39748 1.19241,0 2.38483,-0.39745 3.9747,-0.79493 2.3848,-0.79494 5.56456,-0.79494 7.5519,-2.38481 -1.1924,0 -1.98734,0 -3.17975,0.39746 -0.39748,0.39748 -0.79494,0 -1.58987,0 -0.39748,0 -0.79494,0.39748 -1.58988,0.39748 -0.79494,0 -1.1924,-0.39748 -1.98734,-0.39748 -0.39747,0 -0.79493,0.39748 -1.58987,0.39748 -1.19241,0.39745 -2.78228,0.39745 -3.97469,0.79493 -2.38481,0.39748 -4.37215,0.39748 -6.3595,0.39748 -1.19241,0 -2.38481,0 -3.57721,0 -0.79494,0 -2.38481,0.39746 -3.17975,-0.39748 1.1924,-0.39748 1.98733,-0.79493 3.17975,-0.79493 1.58986,-0.39748 2.78227,-0.39748 3.97469,-0.79494 2.78227,-0.79493 5.56454,-1.58986 7.94936,-2.78228 2.38481,-0.79493 5.1671,-1.98735 7.94937,-2.78228 1.1924,0 2.38481,0 3.57723,0 1.58986,0 3.57721,0 5.56456,0 2.78226,0 5.16707,-1.58987 7.94935,-2.3848 1.98735,-0.39748 3.17976,-0.79494 5.16709,-0.79494 0.79493,0 1.58988,0 2.38482,0 0.39746,0 0.39746,0 0.79494,0.39746 0.39746,0 1.19239,1.19241 0.79493,1.58987 z m -15.50128,-24.64305 c -13.51391,0 -27.02785,-4.37216 -38.15696,-11.92406 -1.19241,-0.79494 -2.38483,-1.98733 -3.57722,-2.78227 -0.79494,-0.39748 -1.19241,-1.19241 -1.98734,-1.58989 -0.39748,-0.39746 -0.39748,-0.79493 -0.79494,-0.39746 -0.39748,0.39746 -0.79494,0.79494 -1.19241,1.1924 -2.38481,1.98735 -5.16709,3.9747 -7.94938,5.56456 -5.56456,3.57722 -11.92406,5.96204 -18.28354,7.94937 -23.0532,5.56457 -47.69624,-1.58987 -64.38992,-18.28354 -15.89873,-16.69368 -22.25823,-40.14433 -17.09115,-62.40257 5.16709,-21.4633 21.4633,-39.74685 42.52914,-47.29876 11.12913,-3.9747 23.84813,-5.16709 35.77217,-2.78228 6.3595,1.58987 12.719,3.97469 18.68103,7.15443 2.78227,1.19241 5.56456,3.17976 8.34684,5.16709 1.19239,0.79494 2.38481,1.98734 3.57722,2.78228 0.39746,0.39748 0.39746,0.39748 0.79494,0 0.39745,-0.39746 0.79493,-0.79494 1.1924,-0.79494 0.39746,-0.79493 1.1924,-1.1924 1.98733,-1.58986 20.27092,-15.50129 48.0937,-18.28357 70.74941,-6.75698 19.87342,9.93671 33.78482,29.81015 36.16964,52.06839 2.38481,22.65571 -6.75697,45.31142 -24.24559,59.62028 -11.92405,9.53925 -27.02786,15.10381 -42.13167,15.10381 z"
           id="path2657"
           inkscape:connector-curvature="0" />
        <path
           style="fill:#3a76bc;fill-opacity:1;fill-rule:evenodd;stroke:none;stroke-width:0.28;stroke-linecap:butt;stroke-linejoin:bevel"
           d="m 350.23347,587.80365 c -1.98734,0 -3.57721,-0.39746 -5.1671,-0.79494 -1.98732,-0.39746 -3.57721,-1.19239 -5.56455,-1.58987 -3.17975,-0.79494 -6.3595,-2.3848 -9.53925,-3.57722 -2.38481,-1.19241 -5.16709,-1.19241 -7.94937,-1.19241 0.39747,0.79496 3.17975,1.19241 3.97469,1.19241 0.79493,0.39748 1.98735,1.19242 3.17974,1.58988 2.38482,1.1924 4.76963,2.78228 7.15444,3.97469 1.1924,0.39746 2.78228,1.19239 3.97469,1.58987 1.58987,0 2.78229,0.39748 3.97467,0.39748 1.58988,0 3.9747,0.39746 5.56457,0 1.19241,-0.79496 2.78228,-0.79496 3.9747,-0.79496 0.39746,0 0.39746,-0.79493 0.39746,-0.79493 -1.58988,0 -2.78229,0 -3.97469,0 z"
           id="path2659"
           inkscape:connector-curvature="0" />
        <path
           style="fill:#3a76bc;fill-opacity:1;fill-rule:evenodd;stroke:none;stroke-width:0.28;stroke-linecap:butt;stroke-linejoin:bevel"
           d="m 269.94483,560.77579 c -0.79494,-0.39748 -1.58988,-1.58986 -2.38483,-1.98734 -0.39746,0.79494 1.58989,1.98734 1.98735,2.3848 0.39748,0.39748 2.3848,2.38483 1.98734,3.57722 -0.39747,-0.39745 -0.79493,-0.39745 -0.79493,0 0,0.39748 0.39746,1.19241 0.39746,1.58988 0,0.39747 0.39747,0.79494 0.39747,1.1924 0.79493,0.79494 1.58987,0.39748 1.98735,-0.39746 0,-1.19241 -0.39748,-2.78227 -1.19242,-3.97469 -0.39747,-0.79494 -1.58986,-1.58987 -2.38479,-2.38481 z"
           id="path2661"
           inkscape:connector-curvature="0" />
        <path
           style="fill:#3a76bc;fill-opacity:1;fill-rule:evenodd;stroke:none;stroke-width:0.28;stroke-linecap:butt;stroke-linejoin:bevel"
           d="m 318.03852,570.71252 c 2.78228,-0.79496 5.16709,-1.5899 7.5519,-2.38483 2.78228,-0.79494 5.56456,-1.1924 7.94936,-1.58987 2.78229,-0.79494 5.56457,-1.19241 8.34685,-1.19241 1.19242,0 2.78228,-0.39746 3.97468,-0.39746 1.19241,-0.39748 2.38482,-1.19241 3.17976,-1.58987 1.58986,-0.79496 2.78228,-0.79496 4.37215,-1.19242 1.19241,-0.39747 2.78228,0 3.57721,-0.39747 0.39748,0 0.79494,0 0.79494,-0.39746 0,-0.39748 0,-0.39748 -0.39746,-0.39748 -0.79495,0 -1.58989,0 -2.38482,0 -1.19239,0 -2.38481,0.39748 -3.57722,0.39748 -2.78228,0.39746 -5.56456,0.39746 -8.34682,0.79493 -2.38483,0.39746 -5.16712,0.39746 -7.55192,1.19242 -2.78228,0.79494 -6.3595,1.58987 -9.14178,2.78227 -3.17974,1.1924 -5.96203,2.78227 -9.14176,3.97469 0.39746,0.39748 0.79493,0.39748 0.79493,0.39748 z"
           id="path2663"
           inkscape:connector-curvature="0" />
        <path
           style="fill:#3a76bc;fill-opacity:1;fill-rule:nonzero;stroke:none;stroke-width:0.28;stroke-linecap:butt;stroke-linejoin:bevel"
           d="m 217.47897,473.73017 c 0,37.75952 30.60507,68.3646 68.36459,68.3646 16.69368,0 32.59242,-5.96203 44.91394,-17.09115 14.70635,-12.719 23.45066,-31.40002 23.45066,-51.27345 0,-19.47596 -8.74431,-38.15699 -23.45066,-51.27345 -12.32152,-10.73165 -28.22026,-16.69367 -44.91394,-16.69367 -37.75952,0 -68.36459,30.60507 -68.36459,67.96712 z m 2.78228,0 c 0,-35.77216 29.41266,-65.18483 65.58231,-65.18483 15.89874,0 31.40003,5.56454 43.32407,16.29619 13.91142,12.32154 22.25824,30.20761 22.25824,48.88864 0,19.0785 -8.34682,36.96458 -22.25824,49.28611 -11.92404,10.73165 -27.42533,16.29621 -43.32407,16.29621 -36.16965,0 -65.58231,-29.41267 -65.58231,-65.58232 z"
           id="path2665"
           inkscape:connector-curvature="0" />
        <path
           style="fill:#3a76bc;fill-opacity:1;fill-rule:nonzero;stroke:none;stroke-width:0.28;stroke-linecap:butt;stroke-linejoin:bevel"
           d="m 254.44354,428.02129 c 0.79493,-0.79493 1.19241,-1.19241 2.38481,-1.58987 0.39747,0 0.79495,0.39746 0.79495,0.39746 -0.39748,0.79494 -0.79495,0.79494 -0.79495,1.19241 -0.39746,1.19239 -0.79494,1.98735 -1.58988,3.17974 -0.39745,0.39748 0.39748,0.39748 -0.39745,0.79494 -0.39748,0 -0.79494,0.39748 -1.19242,0.39748 -0.39747,0.39745 -0.79493,0.39745 -1.1924,0.39745 -0.39746,0 -0.79494,-0.39745 -1.1924,-0.39745 -0.39748,0 -1.19241,0.39745 -1.19241,-0.39748 0,-0.39746 0.39748,-0.79494 0.79493,-1.1924 0.79494,-0.79493 1.58988,0 2.78228,-0.39747 0.79494,-0.39746 0.39748,-1.58988 0.79494,-2.38481 z"
           id="path2667"
           inkscape:connector-curvature="0" />
        <path
           style="fill:#3a76bc;fill-opacity:1;fill-rule:nonzero;stroke:none;stroke-width:0.28;stroke-linecap:butt;stroke-linejoin:bevel"
           d="m 248.87897,432.39345 c 0.39748,-0.39748 0.79494,0 0.39748,0.39745 -0.39748,0 -0.79494,-0.39745 -0.39748,-0.39745 z"
           id="path2669"
           inkscape:connector-curvature="0" />
        <path
           style="fill:#3a76bc;fill-opacity:1;fill-rule:nonzero;stroke:none;stroke-width:0.28;stroke-linecap:butt;stroke-linejoin:bevel"
           d="m 329.96257,426.03394 c -1.1924,-0.79493 -1.98733,-1.58987 -3.17975,-1.98735 -1.1924,-0.79493 -1.98734,-1.98733 -3.17975,-2.78227 -0.39746,-0.39746 -0.79494,-0.79494 -1.58987,-1.1924 -0.39746,-0.39748 -0.79494,-0.39748 -1.58988,-0.79493 -1.1924,-1.19242 -1.98734,-1.5899 -3.57721,-1.98735 -0.39748,0 -0.79494,0 -1.58987,0 -0.79494,0 -1.19242,0 -1.98734,0.79493 0,0 -0.79494,0 -0.79494,0 -0.39748,0 -0.39748,0.79494 -0.39748,0.79494 -0.39746,0.39748 -0.39746,1.19241 -0.79494,1.58987 -0.39745,0.79494 -0.79493,1.19241 -1.19239,1.19241 -0.79494,0 -1.58989,0 -2.38483,0 -0.39746,0.39747 -1.19238,0.39747 -1.98732,0.39747 -0.39748,0 -1.19241,0.39746 -1.58989,0.39746 -0.79494,0.39748 -1.58987,0.39748 -2.38481,0.39748 -0.39747,0 -1.19241,0 -1.98734,-0.39748 -0.79494,0 -1.1924,0 -1.58987,0.79494 -0.39748,0.39748 -0.79494,0.79493 -1.58988,1.19241 -1.1924,0.79494 -2.38482,1.58987 -3.97469,1.98735 -0.39746,0.39746 -1.19239,0.79494 -1.58987,1.1924 -1.19242,0.39747 0,0.39747 -0.39746,1.58986 -0.39748,-0.39746 -0.79496,-0.39746 -1.19241,-1.19239 0,0 -0.39747,-1.19241 -0.79493,-0.79493 -0.39748,0 -0.79494,0 -1.19242,0.39746 -0.39745,0.79492 -0.39745,0.79492 -1.19241,0.39747 -1.19239,0 -1.98733,0.39745 -3.17974,0.39745 -0.79493,0 -1.98735,-0.79492 -2.3848,-0.39745 -0.79494,0.39745 -0.79494,0.39745 -1.5899,0.39745 0,-0.39745 0,-1.19238 -0.39745,-1.58986 -0.39748,-0.39746 -0.79494,-0.79494 -0.79494,-1.58987 -0.79494,-1.19242 -1.58986,-1.58987 -3.17976,-1.58987 -0.79493,0 -1.19239,0 -1.58987,-0.39748 -0.39746,-0.39746 -1.58987,-0.79494 -1.98734,-0.39746 -0.39746,0.39746 -0.79494,0.79494 -1.19239,1.19239 -0.39748,0 -0.39748,0.39748 -0.79494,0.39748 0,0.39746 -0.39748,0.39746 -0.79494,0.39746 -0.79495,0 -0.79495,0.79494 -1.58989,0.79494 -0.79494,0 -1.19239,0 -1.98732,0.39747 -0.79496,0 -1.19242,0 -1.98735,0 -0.79494,0 -0.79494,0.79494 -1.58987,1.19242 -0.39748,0.39746 -0.39748,0.79493 -0.39748,1.58986 0,0.79494 1.19241,0.39746 1.58987,0.39746 0.39748,0 0.39748,0 0.39748,0.39748 0,0.39748 0,0.79494 0,0.79494 0,0.79493 -0.79494,1.19241 -0.79494,1.58987 0,1.19241 3.17975,0.39748 3.57722,0 0,0 0,-0.39746 0.39745,-0.79494 0,-0.39746 0.39748,-0.39746 0.79494,-0.39746 0.39748,-0.39747 0.79494,-1.19241 1.19241,-1.58989 0.39748,-0.79494 1.98736,-1.98732 2.78229,-2.3848 0.39746,0 1.58986,0 1.58986,0.39748 0,0.39746 0,1.19238 -0.79493,1.58986 -0.39747,0.39746 -1.19241,-0.39748 -1.58986,0 -0.39748,0.39746 -1.19242,0.39746 -1.58988,1.19242 0,0.39746 -0.39748,0.39746 0,0.79493 0,0 0.39746,0.39746 0.39746,0.39746 0.39748,0 1.19242,0.39748 1.58987,0 0.79494,0 1.58987,-0.39746 1.98734,-0.39746 0.79494,0 1.58988,0 0.79494,0.79494 -0.39746,1.19239 -2.3848,0.39746 -3.17973,0.79494 -0.79494,0.39745 -1.58988,0.39745 -2.38483,0.79493 -0.39746,0 -1.1924,-0.39748 -1.58988,0.39747 -0.39745,0.39746 -1.19238,0.79494 -1.58986,1.1924 -0.39748,0.39747 -1.58987,-0.39746 -1.58987,-0.39746 -1.58987,-0.79494 0,-2.78228 -1.19242,-3.57722 0,-0.39747 -1.19241,0 -1.58987,0 -0.79493,0 -1.1924,0 -1.98734,0.39746 -0.79494,0.79494 -1.98735,1.58987 -3.17974,1.98735 -0.79494,0 -1.19242,0.39747 -1.98735,0.39747 0,0.39746 -1.19241,0 -1.58987,0 -0.79493,0 -1.19241,0 -1.98735,0 -0.79494,0 -0.79494,0.39746 -1.19241,1.1924 -0.39746,0.39747 -0.79493,1.19241 -1.1924,1.58987 -0.39747,0.39748 -0.39747,1.19241 -1.1924,1.58989 -0.39748,0.39746 -0.79494,-0.79494 -1.19242,-0.79494 -0.39746,-0.39747 -1.58987,0.39746 -1.98733,-0.39747 -0.39748,-0.39748 -0.79495,-0.79494 -1.19241,0 -0.79493,0.39747 -1.19241,0.79493 -1.19241,1.58987 0,0.79493 -0.39746,0.79493 -0.79493,1.19241 -0.39746,0.39746 -1.19242,0.79493 -0.79494,1.58987 0.39748,0.79493 0.39748,1.19241 0.39748,1.98735 0,0.79493 1.19239,0.39745 1.58987,0.39745 0.79493,0 1.98734,0.39748 2.78228,0.39748 1.19239,0 0.79493,0 1.58987,-0.79493 0,-0.39748 0.39746,-0.39748 0.39746,-0.79494 0.39748,-0.39748 0,-0.39748 0.39748,-0.79494 0.39748,0 1.58987,0 1.98734,0.39746 0,0.39748 1.19239,0.39748 1.58987,0.39748 0.39746,-0.39748 1.19242,-0.39748 1.58987,0 0.79494,0.39746 0.79494,0.79494 1.19242,1.58987 0.39746,0.39748 0,1.19242 0,1.58987 0.39746,0.79493 0.39746,0.79493 0.79493,1.19241 0,0.39746 0.39746,0.79494 0.39746,1.19241 0,0.79494 0,0.79494 -0.79493,1.1924 0,0.39748 0,0.79494 0,1.19241 1.1924,0 1.58988,-0.39747 2.38482,-1.19241 0,0.39748 0,0.79494 0,1.19241 1.19239,-1.19241 1.19239,-1.98735 1.19239,-3.57722 0,-0.39748 -0.79494,-0.79494 -0.79494,-1.19241 0,-0.39745 0,-0.79493 0,-1.19239 0,-0.39748 0,-0.39748 0.39748,-0.39748 1.58987,0 1.1924,1.58987 1.1924,2.78228 0,1.19241 0,2.38481 0,3.57722 0.79495,0 2.38482,0 2.78227,-0.79493 0,-0.39748 -0.39745,-1.19242 -0.39745,-1.58988 0,-0.39747 0.79493,-0.39747 1.19239,-0.39747 -0.39746,0.79493 -0.39746,1.19241 -0.39746,1.98735 0,0.39746 -0.39748,0.39746 0,0.79493 0,0 0,0.79494 0,0.79494 0.39746,0.39746 1.19242,0.39746 1.58987,0.79493 0.39748,0.39747 0.39748,0.39747 0.39748,0.79493 0,0.79494 0.39746,0.39748 0.79494,0.39748 0.39746,0 1.19239,1.1924 0.79493,1.1924 0,0.79493 -0.39747,1.58989 -0.79493,1.58989 -0.39748,0 -1.58987,0 -1.98735,-0.39748 -0.39748,0 -1.19242,-0.39748 -1.98734,-0.79494 -0.39746,-0.39747 -0.39746,-0.79493 -1.1924,-1.19241 -0.79495,0 -1.19241,0 -1.98735,0 0,0 -1.58987,0 -1.58987,0 -0.39748,-0.79494 -0.39748,-1.1924 -1.19241,-1.58987 -0.39747,-0.79493 -2.78228,-0.79493 -2.78228,-1.98734 0,-0.39746 0,-0.79494 0,-1.1924 0,0 0.79493,0 0.79493,0 0.39748,0.79494 0.39748,1.1924 0.79494,1.58987 0.79494,-0.39747 0.39748,-0.79493 0.39748,-1.19241 -0.39748,-0.39746 -0.39748,-0.39746 -0.79494,-0.79494 -0.39748,-0.39746 0,-0.39746 -0.79493,-0.39746 -0.39748,0 0,0.39746 -0.39748,0 -0.39748,0 -0.39748,-0.39747 -0.79494,-0.39747 0,-0.79494 0,-0.39748 -0.39748,-0.79494 -0.39746,0 -0.39746,-0.39748 -0.79493,-0.39748 -0.39746,-0.39746 -1.1924,-0.39746 -1.58987,-0.39746 -0.79493,0 -1.58987,0 -2.78228,0 -0.39746,0 -1.1924,0 -1.58988,0 -0.79493,-0.39747 -1.1924,-0.79492 -1.98734,-1.1924 -0.39746,0 -1.19239,-0.79494 -1.19239,-0.79494 -0.39748,0.39748 -0.79496,0.79494 -1.19242,0.79494 -1.19241,1.1924 -2.78227,2.3848 -4.37215,3.17975 -1.98735,1.58988 -4.37216,2.78227 -5.96204,4.76961 -1.19239,1.19242 -2.38481,2.78229 -3.17974,3.9747 -0.79494,0.79494 -0.79494,2.3848 -0.79494,3.17974 -0.39747,1.58987 -0.39747,2.78229 -0.79493,4.37215 0,0.79494 -0.39747,1.19241 -0.39747,1.98735 -0.39746,0.39748 0,1.19241 0.39747,1.58987 0.39746,1.19242 0.79493,2.78228 1.19241,3.97469 0.39746,0.79494 0.79493,1.58988 1.19239,2.38481 0,0.39748 0,1.19242 0,1.58988 0,1.1924 0,1.1924 0.79494,1.58986 0.39748,0.79495 0.79494,0.39748 1.58987,0.39748 1.19242,-0.39748 1.19242,-0.39748 1.98735,0.39747 0.39747,0.39746 0.79493,0.39746 1.58987,0.39746 0.79495,0 3.57722,-0.39746 3.9747,0 0.39747,0.39748 0.79492,1.19242 1.1924,1.58988 0.79494,0 1.98733,0.39747 1.98733,0.79493 0.39748,0.39748 0,1.98734 0,2.38482 0,0.79494 0,0.79494 0.39748,1.58987 0.79494,1.19242 1.19241,2.78229 1.58987,3.97469 0.39748,1.1924 1.58987,2.38481 1.58987,3.57723 0,0.79493 0,1.19239 0,1.98732 0,0.79494 -0.39746,1.58987 -0.79493,1.98735 0,0.79494 0,0.79494 0.39747,1.58987 0.39746,0.79494 0.79493,1.58988 1.58987,2.38482 0.39748,0.79494 0.79494,1.98733 1.19241,2.78227 1.1924,2.78229 1.98736,5.56456 3.57722,8.34685 0.39746,1.1924 1.19239,2.3848 1.58987,3.57721 0.39746,0.39748 1.19242,0.79494 1.58987,0.79494 0.39748,0 1.19242,-0.79494 1.58988,-1.1924 1.1924,-0.79495 2.78227,-1.19241 3.97469,-1.98735 1.19241,-0.39747 1.19241,-2.38481 1.58987,-3.57721 0,-0.39748 0.39748,-0.39748 0.79494,-0.79494 1.1924,-0.39747 1.98734,-1.58989 1.1924,-2.78227 0,0 -0.39748,-0.39748 -0.39748,-0.79494 0,-0.39748 0,-1.19241 0,-1.58989 0,-1.58987 0.79494,-1.58987 1.5899,-2.38481 1.19239,-1.1924 1.19239,-1.98734 1.19239,-3.17974 0,-1.98735 0,-3.57722 0,-5.16708 0,-0.39748 -1.98735,-2.38483 -1.58987,-2.78229 1.19241,-1.19241 1.98735,-1.98734 2.78228,-2.78228 1.98735,-1.98735 3.97468,-3.9747 5.96203,-6.3595 0.79493,-0.79493 1.19241,-2.38481 1.58987,-3.57722 0,-0.79494 0.39747,-1.1924 0.79493,-1.98734 0,0 1.19241,-1.19241 0.39747,-1.58987 -1.1924,-0.39748 -3.17973,0.79493 -4.37215,1.58987 -0.39747,0 -1.58987,-0.39746 -1.98735,-0.39746 -1.19238,-0.79495 -1.19238,-2.38483 -1.98734,-3.17976 -0.39746,-0.39746 -0.79493,-1.1924 -1.19239,-1.58988 -0.39748,0 -0.79494,0.39748 -0.79494,0 -0.39748,0 0,-0.79492 0,-1.1924 0,-1.1924 -0.79493,-2.38481 -1.19241,-3.57722 -0.39748,-0.79494 -0.39748,-1.1924 -0.79494,-1.58987 -0.39748,-0.79493 -0.39748,-1.58987 -0.39748,-1.98735 0,-0.79493 0,-1.19239 0,-1.98733 0,-0.39748 1.19242,-1.19241 1.19242,-0.79495 0.79493,0.79495 0.79493,2.78228 1.19241,3.57722 0.39746,1.58988 0.79494,2.78228 1.58987,3.97469 0,0.79494 0.79494,0.79494 1.19242,1.19241 0.79493,0.39746 0.39746,1.1924 0.79493,1.58988 0,1.1924 0,1.98734 0.39745,2.78227 0.39748,1.1924 0.79494,1.1924 1.58988,1.1924 0.79495,0 1.58989,-0.39746 1.98735,-0.39746 0.79493,-0.39748 1.19241,-0.39748 1.98734,-0.79494 1.19241,-0.39747 2.38481,-1.19241 3.17974,-1.98735 0.79494,-0.39746 1.19242,-0.39746 1.98735,-0.39746 0.39747,0 1.19241,-1.1924 1.19241,-1.58988 0.39746,-0.39746 0.79494,-0.79493 1.19239,-1.19239 0,-0.39748 0.39748,-1.58989 0,-1.58989 0,0 -0.79493,0 -0.79493,0 0,-0.79494 -0.39746,-1.1924 -0.79493,-1.58987 -0.39747,-0.39746 -1.98735,-0.39746 -2.78229,-0.39746 -1.19239,0 -1.19239,0 -1.58987,-0.79495 -0.39746,-0.39746 -0.79494,-1.1924 -0.79494,-1.98733 -0.39747,-0.39748 -0.39747,-0.39748 -0.39747,-1.19242 0.39747,0.39748 1.19241,0.39748 1.19241,0.79494 0.39748,0.79494 0.39748,1.19241 0.39748,1.98735 0.39746,0 1.19239,-0.39748 1.58987,-0.39748 0.79494,0 0.79494,0.39748 1.58987,0.79494 0.39747,0.39748 0.79494,1.19241 1.19241,1.19241 0.79494,0 1.58987,0 1.98735,0.39747 1.19239,0 2.38481,-0.39747 3.17974,-0.39747 0.79493,0 1.19241,0 1.58987,0.79493 0.39748,0.39748 0.79493,0.79494 1.19241,1.58987 0.39746,0.79496 0.39746,0.79496 1.19242,0.79496 0.79493,0 0.79493,0 0.79493,0.79493 0,1.1924 0,2.78228 0.79494,3.97468 0.79493,1.19241 1.19238,1.98735 2.3848,3.17976 0.39748,0.79494 0.79493,1.98732 1.98735,2.78226 0.39746,-0.79494 1.19239,-1.98732 1.19239,-2.78226 0,-0.79495 0.39748,-0.79495 0.79496,-1.19241 0.39746,-0.39748 0.39746,-0.79494 0.39746,-1.58988 0,-1.58987 0.39747,-1.98735 1.1924,-2.78227 0.79494,-0.79494 1.98735,-1.58988 2.78229,-2.38481 0.79494,-0.79496 1.58987,-1.19242 2.78228,-1.19242 0.39746,0 0.79493,0.39746 1.19239,0.79494 0.39748,0.39748 0,1.19241 0.39748,1.58987 0,0 0,0.39748 0.39746,0.39748 0,0.39746 0.39748,0.39746 0.79493,0.39746 0,0.39748 0.39748,1.1924 0.39748,1.58988 0.79494,1.58987 1.58987,1.58987 2.3848,0.39746 0.39748,0.79494 0.39748,2.38481 1.19242,3.17975 0.39747,0.79495 0.39747,1.98735 0.79493,3.17975 0.39748,1.19241 0.79494,2.38481 1.19242,3.17975 0.79493,1.19241 1.58987,2.38481 2.78227,2.78227 0.39746,0 0.79494,0 0.39746,-0.79493 0,0 -0.39746,0 -0.39746,-0.39746 0,-0.39747 0,-0.79495 0,-1.19241 -0.39746,-1.19241 -0.79492,-2.38481 -1.1924,-3.17976 -0.39748,-0.39746 -1.19242,-0.79494 -1.58987,-1.1924 -0.39748,0 -0.39748,-0.79492 -0.79494,-1.1924 -0.39748,-1.19241 0,-1.98735 1.19239,-2.78229 0.79494,0.79494 1.5899,2.38483 2.78228,2.78229 0.79494,0 1.19242,-0.79494 1.58987,-1.19241 0.39748,-0.39746 0.39748,-0.39746 0.79494,-0.39746 0.39748,-0.39748 0.39748,-0.39748 0.79496,-1.19242 0.39746,-1.19239 -0.39748,-2.78227 -0.79496,-4.37215 -0.39746,-0.79493 -0.39746,-1.19239 -0.39746,-2.38481 0,-0.39747 1.19242,-1.19241 1.19242,-1.58987 0.39746,0.39746 0.79493,0.79494 0.39746,1.1924 -0.39746,0.39747 0,0.39747 0,0.79493 0.39747,0.39748 1.19241,0 1.19241,-0.39746 0.39746,0 0,-0.79493 0,-1.19241 0,-0.79493 0.79493,-1.58986 1.58986,-1.58986 0.79494,-0.39748 1.58988,-1.58988 1.98735,-1.98735 0.39746,-0.39746 0.79494,-1.58988 0.79494,-2.38481 0,-0.79493 0.39746,-1.98734 0,-2.78228 -0.39748,-1.98735 -0.39748,-3.97469 -1.98735,-5.16709 0.39748,-0.39747 1.19241,-0.79493 0.79494,-1.19241 -0.79494,-0.79494 -1.1924,0 -1.58988,0.39748 0,0 -0.79493,-1.19242 -0.39748,-1.58988 0.39748,0 0.39748,-0.39747 0.79496,-0.39747 0.39746,-0.39748 0.39746,-0.39748 0.79494,0 0.39746,0.39747 0.79493,0.79493 1.19239,1.19241 0.79494,0.39746 0.39748,1.1924 0.79494,1.98733 0,0.39748 0,0.39748 0.39748,0.79494 0.39747,0 0.39747,0 0.79493,-0.39746 0,-0.39748 0.79494,-0.79494 0.79494,-1.19241 0,-0.79494 0.39747,-1.58988 0,-1.98734 -0.79494,-0.79495 -1.1924,-0.79495 -1.1924,-1.98735 0,-1.1924 0,-2.78227 0.79493,-3.57721 0.79494,-0.39748 0.79494,-0.39748 0.39747,-1.58987 -0.39747,0 -0.79494,0 -0.39747,-0.39748 0,-0.39747 0,-0.39747 0,-0.79493 0,-1.58987 0.79494,-2.38481 0.39747,-3.9747 -0.39747,-0.79493 -1.1924,-2.3848 -1.98735,-3.17973 -0.39746,-0.79494 -0.79494,-1.19242 -1.1924,-1.58988 -0.39747,-0.39747 -1.58987,-0.79493 -1.58987,-1.19241 -0.39748,-0.39748 0,-0.79494 0,-0.79494 0,-0.39748 -0.39748,-0.79493 -0.79496,-0.79493 -0.39745,-0.39747 -1.19238,0.39745 -1.58986,0.39745 -0.39746,0 0,-1.58986 0.39748,-1.98732 0,-0.39748 0.39746,-0.79495 1.19238,-0.79495 0.79496,-0.39746 1.19242,-0.39746 1.5899,-0.79494 0.39746,-0.39746 0.39746,-1.19239 1.19239,-1.58987 0.39748,0.79493 0.79494,1.58987 1.19242,2.38481 0.39747,0.39747 0.39747,0.79495 0.79493,0.79495 0,0.39746 0.39747,0 0.39747,0 0.79494,0.39746 0.39747,0.79494 1.1924,0.79494 1.19241,0 1.98735,0.79493 3.17976,0.79493 0.79494,0 0.79494,0.39745 0.79494,-0.39747 0,-0.79494 -0.39748,-0.79494 -0.39748,-1.58988 z m -63.19751,8.34685 c 0.39748,0 0.39748,0.39746 0,0.79493 -0.39746,0 -0.79494,-0.39747 0,-0.79493 z m 2.78229,15.10381 c -0.39746,0.79493 -2.38481,-0.79494 -3.17975,-0.39748 -0.39748,0 -1.58986,-0.39746 -1.1924,-0.79494 0,-0.39746 0.39747,-1.58987 0.79492,-1.58987 0.39748,-0.39748 1.19242,-0.79494 1.58988,-0.39748 0,0 0,0 0.39747,0.39748 0,0.39746 0.39748,0.39746 0.79494,0.39746 0.79494,0 0.79494,0 1.19242,0.79495 0,0.79494 0,0.79494 -0.39748,1.58988 z m 6.75698,-0.39748 c -0.39748,0.39748 -0.79496,0.79494 -0.39748,1.58987 0,0.79494 0.39748,0.79494 -0.39748,1.98734 0,0.39748 0,1.19242 -1.19239,1.19242 -0.39748,0 -0.79494,0.39746 -1.19242,-0.39748 -0.39746,-0.39746 0,-0.79494 0.39748,-0.79494 0.79494,0 0.39746,-1.1924 0.39746,-1.58986 0,-0.79494 0,-1.19241 0,-1.58987 0,-0.79494 0.39748,-1.19242 1.19241,-1.19242 0.39746,-0.39746 1.58987,-0.39746 1.19242,0.79494 z"
           id="path2671"
           inkscape:connector-curvature="0" />
        <path
           style="fill:#3a76bc;fill-opacity:1;fill-rule:nonzero;stroke:none;stroke-width:0.28;stroke-linecap:butt;stroke-linejoin:bevel"
           d="m 250.46887,427.22636 c 0.39745,0 0.79493,-0.39748 0.79493,-0.39748 0.39746,0.39748 0.79494,0.39748 1.1924,0.39748 0.39747,0 0.79493,0.39746 0.79493,1.19238 0,0.39748 0.39747,0.79494 -0.39746,1.19242 -0.39747,0 -0.79493,0.39748 -1.19241,0.39748 -0.39746,0 -1.19239,0 -1.58987,0 -0.79494,0.39746 -1.19242,0.79493 -1.58988,0 -0.39747,-1.19242 0.39746,-1.19242 1.1924,-1.5899 0.39748,0 0.79496,-0.79492 0.79496,-1.19238 z"
           id="path2673"
           inkscape:connector-curvature="0" />
        <path
           style="fill:#3a76bc;fill-opacity:1;fill-rule:nonzero;stroke:none;stroke-width:0.28;stroke-linecap:butt;stroke-linejoin:bevel"
           d="m 268.35495,495.19347 c 0,-0.79494 0,-0.79494 0.79494,-1.1924 0.39746,0 1.19239,0.79494 1.19239,1.1924 0.79494,1.19241 0.39748,2.38482 0.39748,3.9747 0,0.39746 -0.79493,1.1924 -0.79493,1.58986 -0.39748,0.39748 -0.79494,0.79494 -0.79494,1.58987 0,0.39748 -0.39748,1.19242 -0.39748,1.98735 0,0.39748 0.79494,1.19242 0.39748,1.58988 0,0 -0.79494,0.79492 -1.19242,0.79492 -0.39747,-0.39746 -1.19241,-0.79492 -1.58987,-1.58986 -0.79493,-0.79494 -0.39748,-2.38481 -0.39748,-3.17975 0,-0.79493 0,-1.58987 0,-1.98735 -0.39745,-0.79492 0,-1.1924 0,-1.98734 0.39748,-0.39746 0.39748,-1.19239 0.79494,-1.58987 0.79494,0 0.79494,-0.79494 1.58989,-1.19241 z"
           id="path2675"
           inkscape:connector-curvature="0" />
        <path
           style="fill:#3a76bc;fill-opacity:1;fill-rule:nonzero;stroke:none;stroke-width:0.28;stroke-linecap:butt;stroke-linejoin:bevel"
           d="m 293.79294,477.30738 c 0,-0.39746 1.19241,-1.58986 1.19241,-1.58986 0.79493,0.39746 0.39746,1.58986 0.39746,1.98734 0,0.39747 -0.39746,1.58987 -1.19242,1.58987 -0.79493,-0.39746 -0.39745,-1.58987 -0.39745,-1.98735 z"
           id="path2677"
           inkscape:connector-curvature="0" />
        <path
           style="fill:#3a76bc;fill-opacity:1;fill-rule:nonzero;stroke:none;stroke-width:0.28;stroke-linecap:butt;stroke-linejoin:bevel"
           d="m 305.31952,479.29473 c 1.19242,0 1.98734,0 3.17974,0.79494 0.79495,0.39747 1.58989,1.19241 2.38483,1.98734 0.79493,0.79493 1.58987,1.58987 1.98735,2.38481 0.79492,0.39747 0,2.38482 0,3.17976 -0.39748,0.79493 -1.5899,-1.98735 -1.98735,-1.98735 -0.39748,-1.19241 -1.19242,-1.98735 -1.58988,-2.78229 -0.39747,-0.39746 -1.98735,-1.98734 -2.38482,-1.98734 -0.39745,0 -1.19239,0 -1.58987,-0.39746 0,0 -0.39748,-0.79493 0,-1.19241 z"
           id="path2679"
           inkscape:connector-curvature="0" />
        <path
           style="fill:#3a76bc;fill-opacity:1;fill-rule:nonzero;stroke:none;stroke-width:0.28;stroke-linecap:butt;stroke-linejoin:bevel"
           d="m 314.06382,486.05171 c 0.39748,0.39746 0.39748,1.19239 0.79494,1.98733 0,0.39747 1.58987,0.39747 1.98735,0.39747 0.39748,0 1.58987,0 1.58987,0.39747 0.79494,0.79494 0.39748,1.58988 -0.39746,1.58988 -0.39747,-0.39748 -0.79493,-0.79494 -1.58989,-0.79494 -0.79494,0 -1.19239,-0.39748 -1.98733,-0.39748 -0.39748,-0.39746 -1.1924,-0.79493 -0.79494,-1.58986 0.39746,-0.39748 0,-1.19241 0.39746,-1.58987 z"
           id="path2681"
           inkscape:connector-curvature="0" />
        <path
           style="fill:#3a76bc;fill-opacity:1;fill-rule:nonzero;stroke:none;stroke-width:0.28;stroke-linecap:butt;stroke-linejoin:bevel"
           d="m 319.62839,490.42386 c 0.79493,0 0.79493,0 1.58987,0.39746 0.39748,0 1.19241,0 1.19241,0 0.79494,0 1.1924,0 1.58988,0.39747 0.79493,0 1.1924,0.39746 0.39747,0.79494 -0.39747,0.39748 -2.38482,-0.39748 -2.78228,-0.39748 -0.79494,0 -0.79494,-0.39746 -1.5899,-0.39746 -0.39745,0 -1.19238,-0.39747 -0.39745,-0.79493 z"
           id="path2683"
           inkscape:connector-curvature="0" />
        <path
           style="fill:#3a76bc;fill-opacity:1;fill-rule:nonzero;stroke:none;stroke-width:0.28;stroke-linecap:butt;stroke-linejoin:bevel"
           d="m 326.38535,492.01373 c 0.39747,0 1.19241,0 1.19241,0 0.39748,0.79494 0.39748,1.19241 -0.39748,1.19241 -0.39746,0 -0.39746,0 -1.19239,0 -0.39747,-0.39747 -0.39747,0 -0.79494,0 -0.39747,0.39746 -1.1924,0.39746 -1.1924,0 -0.39748,0 -0.79494,-0.79493 -0.39748,-0.79493 0.79495,0 2.38482,0 2.78228,-0.39748 z"
           id="path2685"
           inkscape:connector-curvature="0" />
        <path
           style="fill:#3a76bc;fill-opacity:1;fill-rule:nonzero;stroke:none;stroke-width:0.28;stroke-linecap:butt;stroke-linejoin:bevel"
           d="m 315.65369,480.08967 c 1.19242,0 1.98736,-0.39746 2.78229,-1.1924 0.39748,-0.39748 1.19241,-0.79494 1.58986,-1.19241 0.39748,-0.39748 0.79496,-1.19242 1.19242,-0.79494 0.39748,0 1.58987,0.39746 1.58987,0.79494 -0.39746,0.79493 -0.39746,0.39747 -1.19239,1.19241 -0.39748,0 -0.39748,0.79494 0,1.1924 0.79493,0.79493 0.39746,0.79493 0,1.58988 -0.39748,0.39746 -1.19242,1.19239 -1.19242,1.58987 0,0.79494 -0.39748,0.79494 -0.39748,1.58987 -0.39745,0.39748 -0.79492,0.39748 -1.19238,0 -0.39748,-0.39747 -0.79494,-0.39747 -1.58987,-0.39747 -0.39748,0 -1.19242,0.39747 -1.5899,0 0,0 -0.39745,-1.1924 -0.39745,-1.58988 -0.39748,-0.39746 -0.79494,-0.79493 -0.39748,-1.58986 0,-0.79494 0,-0.79494 0.79493,-1.19241 z"
           id="path2687"
           inkscape:connector-curvature="0" />
        <path
           style="fill:#3a76bc;fill-opacity:1;fill-rule:nonzero;stroke:none;stroke-width:0.28;stroke-linecap:butt;stroke-linejoin:bevel"
           d="m 326.78282,482.07701 c -1.1924,0 -2.3848,0 -3.57721,0.79493 -0.79494,0.39748 -1.19241,1.58988 -1.19241,2.78229 0,0.39748 0,1.19241 0,1.58987 0.39747,0.39748 1.19241,1.19241 1.58987,1.19241 1.19241,-0.39747 -0.79494,-1.98734 -0.39746,-2.78228 0.39746,0 0.39746,0.39748 0.79494,0.79494 0,0.39747 0.39747,0.79493 0.79493,0.79493 0.39747,0 1.19241,-0.39746 0.79494,-0.39746 0,-0.39747 -0.39747,-0.79493 -0.79494,-0.79493 -1.19241,-0.79494 0.79494,-0.79494 1.19241,-0.79494 1.19239,-1.19241 -1.19241,-0.79495 -1.58987,-0.79495 0,-0.79494 0.79493,-1.1924 1.58987,-1.1924 0.39746,0 1.58987,-0.39748 0.79493,-1.19241 z"
           id="path2689"
           inkscape:connector-curvature="0" />
        <path
           style="fill:#3a76bc;fill-opacity:1;fill-rule:nonzero;stroke:none;stroke-width:0.28;stroke-linecap:butt;stroke-linejoin:bevel"
           d="m 327.57776,479.29473 c 0.39748,0 1.58987,0 1.58987,0.39748 0,0.39746 -0.39746,0.79493 -0.39746,1.19239 0,0.39748 0.39746,0 0.79494,0.39748 0.39746,0.39747 -0.39748,1.1924 -0.39748,1.1924 -0.39746,0.39746 -1.98735,-0.39747 -1.98735,-0.79493 -0.39746,-1.19241 0.39748,-1.58988 0.39748,-2.38482 z"
           id="path2691"
           inkscape:connector-curvature="0" />
        <path
           style="fill:#3a76bc;fill-opacity:1;fill-rule:nonzero;stroke:none;stroke-width:0.28;stroke-linecap:butt;stroke-linejoin:bevel"
           d="m 325.19295,474.12764 c 0,-0.39747 0.79494,-1.19241 1.1924,-1.19241 0.39747,0 0.79493,1.19241 0.39747,1.58989 -0.39747,0.79494 0.39746,0.79494 0.39746,1.58986 0,0.79494 0.79496,1.58988 0,1.98735 -1.19239,0 -1.19239,-0.39747 -1.58986,-0.79495 -0.39747,-0.39746 -0.79494,-0.39746 -1.1924,-0.39746 0,0 0,0.39746 -0.39747,0.39746 -0.79494,0 -0.79494,-0.79494 -0.39748,-1.1924 0.79495,0 1.19241,-0.39746 1.98735,0 0,-0.39746 0.39747,-0.79492 0.39747,-1.1924 0,-0.39746 -0.39747,-0.39746 -0.79494,-0.79494 z"
           id="path2693"
           inkscape:connector-curvature="0" />
        <path
           style="fill:#3a76bc;fill-opacity:1;fill-rule:nonzero;stroke:none;stroke-width:0.28;stroke-linecap:butt;stroke-linejoin:bevel"
           d="m 324.00055,471.74283 c 0.39747,0 1.58987,1.1924 0.79493,1.1924 -0.79493,0 -1.58987,-0.79494 -0.79493,-1.1924 z"
           id="path2695"
           inkscape:connector-curvature="0" />
        <path
           style="fill:#3a76bc;fill-opacity:1;fill-rule:nonzero;stroke:none;stroke-width:0.28;stroke-linecap:butt;stroke-linejoin:bevel"
           d="m 325.59042,470.55042 c 0,0 0.39747,0.79494 0.39747,1.19241 0,0.39746 -0.39747,0 -0.79494,0 -0.79493,0 -0.39747,-1.98735 0.39747,-1.19241 z"
           id="path2697"
           inkscape:connector-curvature="0" />
        <path
           style="fill:#3a76bc;fill-opacity:1;fill-rule:nonzero;stroke:none;stroke-width:0.28;stroke-linecap:butt;stroke-linejoin:bevel"
           d="m 323.20561,465.78079 c 0.39746,0 0.79494,0 1.19241,0.79496 0.39746,0.39746 0,0.79493 -0.39747,1.19239 -0.39748,0 0.39747,1.19242 0.39747,1.58988 0.39746,0 0.39746,1.1924 0,1.1924 -0.39747,0 -1.19241,-0.39746 -1.58989,-0.79494 -0.39746,-0.39746 -0.39746,-0.79492 0,-1.1924 0,-0.79494 -1.19239,-2.78229 0.39748,-2.78229 z"
           id="path2699"
           inkscape:connector-curvature="0" />
        <path
           style="fill:#3a76bc;fill-opacity:1;fill-rule:nonzero;stroke:none;stroke-width:0.28;stroke-linecap:butt;stroke-linejoin:bevel"
           d="m 324.00055,459.81877 c 0,-0.39746 0,-0.79494 0.39747,-1.19241 0.39746,-0.39746 0.79493,0.39747 0.79493,0.39747 0,0.79494 0.39747,1.98735 0.39747,2.38481 -0.39747,1.19242 -1.1924,1.19242 -1.98735,0.79494 0,-0.39746 0,-1.98733 0.39748,-2.38481 z"
           id="path2701"
           inkscape:connector-curvature="0" />
        <path
           style="fill:#3a76bc;fill-opacity:1;fill-rule:nonzero;stroke:none;stroke-width:0.28;stroke-linecap:butt;stroke-linejoin:bevel"
           d="m 330.7575,481.67955 c -1.19239,-1.58988 0.39748,-1.58988 1.98735,-1.19241 0.39747,0 0.39747,0.39746 0.79493,0.79494 0,0.39747 0,0.39747 -0.39746,0.79493 0,0.39747 0.39746,0.79493 0.79494,0.79493 0.79494,0.79494 1.98735,-1.19239 3.17975,-0.39746 1.1924,0.79494 1.58986,2.38481 2.78227,3.17975 0.39748,0 1.19242,0.39748 1.58988,0.79494 0.39747,0.39747 0.39747,0.39747 0.39747,0.79493 0.39746,0 0.79494,0 0.79494,0.39748 0.79494,1.1924 1.58986,2.3848 1.98734,3.57721 0.39746,0.79494 1.98735,3.17974 0.79494,3.57722 -0.79494,0.39746 -1.19242,-1.19241 -1.19242,-1.58987 -0.39746,-0.79493 -1.19238,0 -1.58986,-0.39747 -0.79494,-0.39746 -1.19241,-1.58988 -1.98735,-1.58988 -0.79494,-0.39747 -1.1924,1.19242 -1.98735,0.39746 -1.1924,-0.39746 -1.1924,-1.19239 -2.3848,-1.58987 -0.79494,-0.39746 -1.98735,-0.79494 -1.58987,-1.58987 0.39747,-0.39747 0.39747,-0.79493 0.39747,-1.19241 0,-0.79493 0,-0.79493 -0.39747,-1.19239 -0.79494,-0.79494 -1.58988,-1.19242 -2.38481,-1.19242 -0.39748,0 -1.19241,0 -1.58989,-0.39747 0,0 -0.39745,-0.79494 -0.79493,-1.1924 -0.39746,0 -0.79494,-0.39748 0,-0.79494 0.39748,0 0.79493,-0.39747 1.19241,-0.39747 0,0 0,0 -0.39748,-0.39746 z"
           id="path2703"
           inkscape:connector-curvature="0" />
        <path
           style="fill:#3a76bc;fill-opacity:1;fill-rule:nonzero;stroke:none;stroke-width:0.28;stroke-linecap:butt;stroke-linejoin:bevel"
           d="m 345.46385,483.66688 c 0,-0.39746 0,-0.39746 0,-0.39746 1.19241,0 2.78228,1.1924 2.38481,1.98735 0,0.39746 -0.39746,0.79494 -0.79494,0.79494 -0.39746,-0.39748 -0.39746,-0.39748 -0.39746,-0.79494 -0.39748,-0.39748 -0.39748,-0.79495 -0.39748,-1.19241 -0.39747,0 -0.79493,0 -0.79493,-0.39748 z"
           id="path2705"
           inkscape:connector-curvature="0" />
        <path
           style="fill:#3a76bc;fill-opacity:1;fill-rule:nonzero;stroke:none;stroke-width:0.28;stroke-linecap:butt;stroke-linejoin:bevel"
           d="m 345.06637,486.05171 c 0,0 0.39748,-0.39748 0.39748,-0.39748 0.39746,0 0.39746,0.39748 0.39746,0.79494 0,0.39747 0,0.79493 0,0.79493 -0.39746,0.39748 -0.39746,0.39748 -0.79494,0.39748 -0.39746,0.79493 -1.1924,0.39746 -0.79494,-0.39748 0.39748,-0.39746 1.19242,-0.39746 0.79494,-1.19239 z"
           id="path2707"
           inkscape:connector-curvature="0" />
        <path
           style="fill:#3a76bc;fill-opacity:1;fill-rule:nonzero;stroke:none;stroke-width:0.28;stroke-linecap:butt;stroke-linejoin:bevel"
           d="m 347.84866,486.05171 c 1.19241,-0.39748 1.19241,2.3848 0.39747,2.78227 -0.79493,0.39746 -1.19241,-2.38481 -0.39747,-2.78227 z"
           id="path2709"
           inkscape:connector-curvature="0" />
        <path
           style="fill:#3a76bc;fill-opacity:1;fill-rule:nonzero;stroke:none;stroke-width:0.28;stroke-linecap:butt;stroke-linejoin:bevel"
           d="m 348.24613,489.62892 c 0.39746,-0.39748 0.79494,-0.39748 1.1924,-0.79494 0,0.79494 0,1.1924 0,1.58988 -0.39746,0.39746 -0.39746,1.58987 -0.79494,1.58987 -0.79493,0.39748 -0.39746,-0.79494 -0.79493,-1.19241 0,-0.39746 -0.39746,0 0,-0.79494 0,0 0.39747,-0.39746 0.39747,-0.39746 z"
           id="path2711"
           inkscape:connector-curvature="0" />
        <path
           style="fill:#3a76bc;fill-opacity:1;fill-rule:nonzero;stroke:none;stroke-width:0.28;stroke-linecap:butt;stroke-linejoin:bevel"
           d="m 328.77017,493.6036 c 0.79494,0 1.1924,0 1.98733,0 0.39748,0 1.19241,0 1.98735,0 0.79493,0 0.39747,0.39747 0.39747,1.19241 0,0.79493 -0.39747,0.79493 -0.79493,1.58987 -1.19241,0.79494 0.39746,1.98735 1.19239,2.78229 0.39748,0.79492 0.79494,0.79492 1.19242,0 0.39747,-0.79494 0.79493,-0.79494 0.79493,-1.58988 0.39748,-0.79493 0.79494,-1.19241 0.79494,-1.58989 0.39748,-0.79493 0.39748,-1.58987 0.79494,-1.98733 1.58986,-1.1924 1.1924,2.38481 1.1924,3.17975 0,0.79493 0,1.19241 0.39746,1.98735 0.39748,0.79492 0.39748,1.1924 0.39748,1.98734 -0.39748,1.19239 0,2.78228 0.39747,3.97468 0,1.1924 0,2.38482 0,3.57721 0,0.79494 0,1.58988 -0.39747,1.98735 0,0.79494 -0.79494,1.19241 -0.79494,1.58987 -0.39748,0.79493 -0.79494,1.19241 -1.1924,1.98735 0,0.39747 -0.79494,0.79493 -1.1924,1.19241 0,0.79494 -0.39748,1.1924 -0.79494,1.58987 -0.39747,0.79493 -0.79495,1.1924 -1.19241,1.58987 -1.19241,0.79493 -1.98735,1.58987 -3.17976,2.38481 -0.79493,0 -1.19239,0 -1.58987,0 -0.79493,0 -1.58987,0.39747 -1.98735,0.39747 -0.79493,0 -1.19239,0 -1.58986,-0.39747 -0.39747,-0.39746 -0.39747,-1.1924 -0.79494,-1.98734 0,-1.19241 0,-2.38481 0.39747,-3.97469 -0.79493,0.39748 -1.1924,1.19242 -1.58988,0.79494 -0.79494,-0.39746 -0.39746,-0.79494 -0.79494,-1.58987 -0.79493,-1.19242 -1.19239,-2.38481 -2.78229,-2.78228 -2.78225,-0.39746 -5.16708,0.39747 -7.55188,0.79493 -0.39748,0 -1.19242,-0.79493 -1.58987,-0.79493 -0.39748,-0.39746 -0.79494,-1.19241 -0.39748,-1.58987 0.39748,-0.39748 0.79493,-1.19242 0.79493,-1.58988 0.39748,-0.79493 0.39748,-1.58989 0.39748,-1.98735 0,-0.79492 0.39746,-1.1924 0.79494,-1.58986 0.39748,-0.79494 0.39748,-1.19241 0.79494,-1.98735 0.39746,-0.79494 1.1924,-1.98735 2.38479,-2.38481 1.19242,-0.39748 2.38483,-0.79494 3.57723,-1.58988 0,0 0.39747,0 0.79492,0 0.39748,0 0.39748,-0.39746 0.79496,-0.39746 0.39746,-0.79494 0.79494,-0.79494 1.1924,-1.19241 1.19241,-1.19242 2.38482,-1.58988 3.57722,-1.58988 1.1924,-0.39747 1.98734,-1.58987 3.17975,-1.98734 z"
           id="path2713"
           inkscape:connector-curvature="0" />
        <path
           style="fill:#3a76bc;fill-opacity:1;fill-rule:nonzero;stroke:none;stroke-width:0.28;stroke-linecap:butt;stroke-linejoin:bevel"
           d="m 324.39802,523.01628 c 0.39746,0 0.79493,0 1.1924,0.39747 0,0 0,0.39746 0,0.39746 0,0 0.79493,0 0.79493,0 0.39747,-0.39746 0.79493,-0.79493 1.19241,-0.79493 0.79494,0.39747 0.79494,0.79493 0.39748,1.1924 -0.39748,0.39746 -0.79496,0.79494 -1.19242,1.1924 -0.39747,0 -0.39747,0.79495 -0.79493,1.19241 -0.79494,0.39748 -1.58987,0.39748 -1.58987,-0.79494 -0.79495,0.39748 -1.58989,-0.39747 -1.58989,-1.19241 0,-0.39746 0.79494,-1.19239 1.19242,-1.58986 l 0.39747,0 z"
           id="path2715"
           inkscape:connector-curvature="0" />
        <path
           style="fill:#3a76bc;fill-opacity:1;fill-rule:nonzero;stroke:none;stroke-width:0.28;stroke-linecap:butt;stroke-linejoin:bevel"
           d="m 258.8157,416.89216 c 0.39747,0 0.79492,0 1.58986,0.39748 0.79496,0 0.79496,0 1.19241,-0.39748 0.79494,0.39748 0.39748,1.19241 0,1.58989 -0.79493,0.39746 -1.19241,0.79494 -2.3848,0.79494 -0.79493,0 -1.58987,0 -1.58987,-0.79494 0,-0.79496 0.79494,-1.19241 1.1924,-1.58989 z"
           id="path2717"
           inkscape:connector-curvature="0" />
        <path
           style="fill:#3a76bc;fill-opacity:1;fill-rule:nonzero;stroke:none;stroke-width:0.28;stroke-linecap:butt;stroke-linejoin:bevel"
           d="m 321.61574,428.41874 c 1.58987,0.79494 3.17974,2.38483 4.37215,3.17977 0.39746,0.79494 0.39746,0.79494 0.79493,1.19239 0,0.79495 0,0.79495 0.39746,1.19241 0.39748,0.39748 2.38483,1.58987 1.58989,1.98735 -0.39747,0.39746 -2.38482,-0.39748 -2.78228,-0.79494 -0.39747,-0.39747 -0.39747,-1.98734 -0.79494,-2.38482 -1.1924,-1.58987 -3.17975,-2.3848 -3.97469,-3.97468 0.39748,0 0.39748,-0.39748 0.39748,-0.39748 z"
           id="path2719"
           inkscape:connector-curvature="0" />
        <path
           style="fill:#3a76bc;fill-opacity:1;fill-rule:nonzero;stroke:none;stroke-width:0.28;stroke-linecap:butt;stroke-linejoin:bevel"
           d="m 330.7575,428.81622 c 0,0 1.98735,0.79494 0.79495,1.19242 -0.39747,0 -1.1924,0.39746 -1.98734,-0.39748 0.39746,0 0.79494,-0.39748 1.19239,-0.79494 z"
           id="path2721"
           inkscape:connector-curvature="0" />
        <path
           style="fill:#3a76bc;fill-opacity:1;fill-rule:nonzero;stroke:none;stroke-width:0.28;stroke-linecap:butt;stroke-linejoin:bevel"
           d="m 331.55245,430.80357 c 0.39746,0.39746 0.39746,0.39746 0,0.79494 -0.39747,0.39746 -0.79495,0 -1.1924,0 -0.39748,0 -0.39748,-0.79494 0,-0.79494 0.39745,0 0.79493,0 1.1924,0 z"
           id="path2723"
           inkscape:connector-curvature="0" />
        <path
           style="fill:#3a76bc;fill-opacity:1;fill-rule:nonzero;stroke:none;stroke-width:0.28;stroke-linecap:butt;stroke-linejoin:bevel"
           d="m 328.3727,436.36812 c 0.39747,0.39748 1.19241,0.79495 1.19241,0.79495 0.39746,0 1.98734,-0.39747 1.98734,0 0.39746,0.79494 1.1924,0.79494 0.39746,1.1924 -0.39746,0.39748 -1.58986,0.79493 -1.58986,1.19241 0,0 -0.39748,1.19241 -0.79494,1.19241 -0.79494,-0.39748 -0.39748,-1.58989 -0.79494,-1.98734 0,-0.39748 -1.98735,-1.98735 -0.39747,-2.38483 z"
           id="path2725"
           inkscape:connector-curvature="0" />
        <path
           style="fill:#3a76bc;fill-opacity:1;fill-rule:nonzero;stroke:none;stroke-width:0.28;stroke-linecap:butt;stroke-linejoin:bevel"
           d="m 331.55245,439.54788 c 0.39746,0.39746 0,1.19241 0,1.58987 0.39746,0.39747 0.79494,0.39747 1.1924,0.79493 0,0.79494 -0.39746,1.58987 -0.39746,1.98735 0.39746,0.39748 0.39746,1.58987 0.39746,1.98734 0,0 -0.39746,0.39746 -0.39746,0.39746 0,0.39748 0.39746,0.79494 0,0.79494 0,0.39748 -0.39748,0.39748 -0.39748,0.39748 0,0.39747 0,0.79493 -0.39746,1.19241 0,0.39746 -0.39747,0.39746 -0.79495,0.39746 -0.79493,0.39748 -1.58987,1.19241 -2.3848,1.19241 0,0.39746 -0.39746,1.58987 -1.19242,1.1924 -0.39746,-0.39746 0,-1.58987 0.39748,-1.58987 0.39748,-0.79494 0.79494,-1.1924 1.19241,-1.98734 0.39746,-0.39747 0.79494,-0.39747 1.58988,-0.39747 -0.39748,-0.79494 -1.19242,-1.19242 -1.19242,-1.58988 0,-0.39747 1.19242,-1.1924 1.19242,-1.98734 0.39745,-0.39748 -0.39748,-1.58987 0,-2.38481 0.39745,-0.39747 0.39745,-1.98734 1.1924,-1.98734 z"
           id="path2727"
           inkscape:connector-curvature="0" />
        <path
           style="fill:#3a76bc;fill-opacity:1;fill-rule:nonzero;stroke:none;stroke-width:0.28;stroke-linecap:butt;stroke-linejoin:bevel"
           d="m 330.36005,450.67699 c -0.79494,-0.39746 -2.78229,0.79494 -1.98735,1.19241 0.79493,0 1.98735,-0.39747 1.98735,-1.19241 z"
           id="path2729"
           inkscape:connector-curvature="0" />
        <path
           style="fill:#3a76bc;fill-opacity:1;fill-rule:nonzero;stroke:none;stroke-width:0.28;stroke-linecap:butt;stroke-linejoin:bevel"
           d="m 327.97524,452.26687 c 0,-0.39747 -0.39748,-0.39747 -0.39748,-0.79494 -0.39748,0.39747 -1.58987,1.98734 -0.79494,2.38482 0.39746,0.39746 0.39746,-0.39748 0.79494,-0.79494 0,0 0.79494,-0.39748 0.39748,-0.79494 z"
           id="path2731"
           inkscape:connector-curvature="0" />
        <path
           style="fill:#3a76bc;fill-opacity:1;fill-rule:nonzero;stroke:none;stroke-width:0.28;stroke-linecap:butt;stroke-linejoin:bevel"
           d="m 338.30941,419.27699 c 1.58987,0 2.38481,-0.39748 3.17975,-1.5899 0.39747,-0.39745 0.79493,-0.79493 1.19241,-0.79493 0.79494,0 1.1924,-0.39746 1.98734,-0.79494 0.39746,0 1.1924,-0.39746 1.58987,-0.39746 0.79494,-0.39747 0.79494,-0.79492 1.58988,-1.1924 1.19241,0 2.38481,0.39748 3.57721,0.79493 0.79494,0.39747 2.78229,0.39747 2.78229,1.58987 0.39747,0.39748 0,0.79493 0.39747,1.58989 0.39746,0.39746 0.79493,1.19239 0.79493,1.58987 0,0.39746 -0.39747,0.39746 -0.39747,0.79494 0,0.39746 0,0.39746 0,0.79493 -0.39746,0.79493 -0.79493,1.19241 -1.19239,1.58987 -0.39748,0.39748 -0.79496,0.79493 -1.58989,0.79493 -0.39746,0 -0.39746,-1.98733 -0.39746,-2.3848 -0.39748,0 -0.79494,0 -0.79494,0.39747 -0.39748,0 -0.79494,-0.39747 -0.79494,-0.79494 -0.39747,0.39747 -0.79494,0.79494 -1.58988,1.1924 -0.79493,0 -1.19239,0 -1.98733,-0.39746 -1.19241,0 -2.38483,0 -3.97469,0 -0.39748,0 -1.19241,0 -1.58987,-0.39747 -0.39748,0 -0.79494,-0.39747 -0.79494,0 0,0.39747 -0.39748,0.39747 -0.79494,0.79493 -0.39747,0 -1.98735,0 -2.38481,0 -0.79494,0 -1.58988,0 -2.38481,0 0.79493,-1.58986 2.78227,-1.58986 3.57721,-3.17973 z"
           id="path2733"
           inkscape:connector-curvature="0" />
        <path
           style="fill:#3a76bc;fill-opacity:1;fill-rule:nonzero;stroke:none;stroke-width:0.28;stroke-linecap:butt;stroke-linejoin:bevel"
           d="m 346.25878,432.39345 c 0.39748,0 1.19242,0.39745 1.19242,0.79493 0,0.79493 -1.19242,0.39747 -1.58989,0.39747 -0.39746,0 -1.1924,-0.39747 -1.1924,-0.79495 0.39746,-0.39745 1.1924,-0.39745 1.58987,-0.39745 z"
           id="path2735"
           inkscape:connector-curvature="0" />
        <path
           style="fill:#3a76bc;fill-opacity:1;fill-rule:nonzero;stroke:none;stroke-width:0.28;stroke-linecap:butt;stroke-linejoin:bevel"
           d="m 343.47651,433.58585 c 0.39746,0.39746 0.79492,0.39746 1.1924,0.79494 0.39746,0.39746 -0.39748,0.79493 -0.79494,0.79493 -0.39746,-0.39747 -1.1924,0 -1.58988,-0.79493 -0.39746,-0.79494 0.39748,-0.39748 1.19242,-0.79494 z"
           id="path2737"
           inkscape:connector-curvature="0" />
        <path
           style="fill:#3a76bc;fill-opacity:1;fill-rule:nonzero;stroke:none;stroke-width:0.28;stroke-linecap:butt;stroke-linejoin:bevel"
           d="m 362.555,442.33016 c 0.79493,0.39746 0.79493,0.39746 1.19239,0.79494 0.39748,0.39745 0.79494,1.19241 0.39748,1.58987 -0.79494,0.39748 -1.19241,-0.79494 -1.19241,-1.19242 -0.39746,-0.39745 -0.79494,-0.79493 -0.39746,-1.19239 z"
           id="path2739"
           inkscape:connector-curvature="0" />
        <path
           style="fill:#3a76bc;fill-opacity:1;fill-rule:nonzero;stroke:none;stroke-width:0.28;stroke-linecap:butt;stroke-linejoin:bevel"
           d="m 369.31196,422.05926 c 0.39747,-0.39747 0.39747,-0.79494 0.79493,-0.39747 0.39748,0 0.39748,0 0.79494,0.39747 0.39748,0.39746 0.79494,1.1924 0.39748,1.98733 -0.39748,0.79494 -0.79494,0.79494 -1.58988,0 -0.79493,-0.39745 -0.39747,-1.58987 -0.39747,-1.98733 z"
           id="path2741"
           inkscape:connector-curvature="0" />
        <path
           style="fill:#3a76bc;fill-opacity:1;fill-rule:nonzero;stroke:none;stroke-width:0.28;stroke-linecap:butt;stroke-linejoin:bevel"
           d="m 375.27398,414.50736 c 0.39748,-0.79494 0.79494,-1.58987 1.58987,-1.98735 0.39748,-0.39746 2.38483,-0.79494 1.98735,0.39748 0,0 -0.79493,0 -1.19241,0 -0.39746,0.39745 -0.79494,0.79493 -0.79494,1.19239 -0.39746,0 -0.79493,0.39748 -0.79493,0.79496 -0.39746,0 -1.19242,0.39745 -0.79494,-0.39748 z"
           id="path2743"
           inkscape:connector-curvature="0" />
        <path
           style="fill:#3a76bc;fill-opacity:1;fill-rule:nonzero;stroke:none;stroke-width:0.28;stroke-linecap:butt;stroke-linejoin:bevel"
           d="m 378.05627,414.10988 c 0.79493,-0.39746 1.19241,-0.39746 1.98734,-0.39746 0.39746,0 0.39746,-1.19241 0.39746,-1.19241 0.39747,-0.79494 0.79493,-1.1924 1.19241,-1.58987 0.79494,-0.39748 1.19239,-0.39748 1.98735,-0.39748 1.58987,0 2.78226,-0.39746 3.97467,0.39748 0.39748,0.39747 0.39748,0.39747 1.19242,0 0.79493,0 1.19239,0 1.98735,0.39747 0.79493,0.39746 1.19239,0.79494 1.98732,1.1924 0.39748,0.39748 0.79494,0.79493 1.58989,1.19241 0.39746,0.39746 0.79494,0 1.58987,0.39746 0.79494,0 1.1924,0.39748 1.98734,0.79496 0.39746,0.39745 0.39746,0.39745 0.39746,1.58986 0,0.79494 0.39748,1.19239 0.79494,1.98735 0.39748,0.39746 0,0.79494 0.39748,1.58987 0.39746,0.39746 0.79493,1.1924 0.79493,1.98734 0.39746,0.39746 0.39746,0.79494 0.79494,1.1924 0.79494,0.39748 1.19241,1.19241 1.19241,1.58987 0,1.58989 -1.19241,1.98735 -2.38482,1.98735 -1.1924,0 -2.3848,-0.39746 -3.57722,-0.79494 -1.58987,-0.79493 -2.38481,-1.19241 -3.57722,-2.3848 -0.39746,-0.39748 -0.79493,-1.19242 -1.19239,-1.19242 -0.79493,-0.39746 -1.19241,-0.79493 -1.19241,-1.1924 0,-0.39746 0.39748,-1.58988 -0.39748,-1.58988 -0.79493,0 -1.19239,-0.39745 -1.98733,-0.39745 -1.19241,0 -2.38482,-0.39748 -3.57721,-0.39748 -0.39748,0 -1.19242,0 -1.98735,0.39748 0,0 0.39745,0.39745 0,0.79493 0,0 -0.79494,0 -0.79494,0 0,1.98734 1.98735,0.79494 3.17975,1.58987 1.58986,0.39747 2.78227,0.39747 3.97469,0.79493 0.79493,0.39748 0.79493,0.39748 1.19239,1.19242 0.39748,0.39745 0.79496,0.79493 1.58989,1.19239 0.79493,0.39748 1.19239,0.39748 1.98733,0.79494 0.79495,0 0.79495,0.79495 0,1.19241 -0.39746,0 -1.1924,0 -1.1924,0.39748 -0.39747,0.79493 0,1.19238 0,1.98732 0,0.39748 0,1.19242 -0.79493,1.19242 -0.39747,-0.39746 -1.19241,-0.39746 -1.98735,-0.79494 -0.79493,-0.39748 -3.57722,0.79494 -3.57722,-0.79494 0,-0.79493 0.79494,-1.1924 0.79494,-1.58986 0.39747,-0.79494 -0.39748,-0.79494 -0.79494,-1.19242 -0.79493,-0.39747 -1.1924,-0.39747 -1.98734,-0.79493 -0.79494,0 -1.58987,-0.39748 -1.98735,-1.19242 -0.39746,0 -0.79494,0 -0.79494,-0.39745 -0.39746,-0.39748 -0.39746,-0.79494 -0.79493,-1.19242 -0.39746,-0.79493 -0.79493,-1.1924 -1.58987,-1.1924 -1.19241,0 -1.19241,-0.79494 -1.58987,-1.58988 0,-0.39745 0,-0.79493 0,-1.19239 -0.39748,-0.79496 -0.39748,-0.39748 -0.79494,-0.39748 -0.39747,-0.39748 -0.39747,-0.39748 -0.39747,-0.79493 0,-0.39748 -0.79494,-0.79494 -0.79494,-1.19242 0.39748,-0.79493 1.58987,0 1.58987,0.39748 0.39748,0 0.79494,-0.79494 0.79494,-1.19241 0,-0.39745 0,-0.79493 0.39748,-1.19241 z"
           id="path2745"
           inkscape:connector-curvature="0" />
        <path
           style="fill:#3a76bc;fill-opacity:1;fill-rule:nonzero;stroke:none;stroke-width:0.28;stroke-linecap:butt;stroke-linejoin:bevel"
           d="m 403.89172,417.68709 c 0.79493,-0.79493 1.19239,-0.79493 1.98735,-0.39745 0.79493,0.79493 1.58987,0.79493 1.98733,1.19241 0.79494,0.79494 1.19241,1.19239 1.98735,1.58987 0,0.39746 0.39747,0.79494 0,1.1924 -0.39746,0 -0.79494,0 -1.19241,0 -0.79494,0 -1.1924,-0.39746 -1.98734,-0.79494 -0.39747,-0.39746 -0.39747,-0.79494 -0.79493,-0.79494 -0.39748,-0.39745 -0.79496,0 -1.19242,0 -0.79493,0.39748 -1.1924,0.39748 -1.58986,-0.39745 -0.39748,-0.39748 -0.39748,-1.19242 0,-1.19242 0.39746,0 0.79493,0 0.79493,-0.39748 z"
           id="path2747"
           inkscape:connector-curvature="0" />
        <path
           style="fill:#3a76bc;fill-opacity:1;fill-rule:nonzero;stroke:none;stroke-width:0.28;stroke-linecap:butt;stroke-linejoin:bevel"
           d="m 374.08157,418.08457 c 0,-0.39748 0.39747,-1.19241 1.19241,-0.79493 0.39748,0.39745 0,1.19241 0,1.98735 -0.79494,-0.39748 -1.19241,-0.39748 -1.19241,-1.19242 z"
           id="path2749"
           inkscape:connector-curvature="0" />
        <path
           style="fill:#3a76bc;fill-opacity:1;fill-rule:nonzero;stroke:none;stroke-width:0.28;stroke-linecap:butt;stroke-linejoin:bevel"
           d="m 372.09424,420.46938 c 0,-0.39746 0.39748,-0.79494 0.79494,-1.19239 0.39747,-0.39748 1.58986,-0.39748 1.19239,0.39745 0,0.39748 -0.39745,1.19242 -0.79492,1.58988 -0.39747,0.79494 -1.19241,0 -1.19241,-0.79494 z"
           id="path2751"
           inkscape:connector-curvature="0" />
        <path
           style="fill:#3a76bc;fill-opacity:1;fill-rule:nonzero;stroke:none;stroke-width:0.28;stroke-linecap:butt;stroke-linejoin:bevel"
           d="m 375.27398,420.07192 c 0.79494,-0.39748 1.19241,0.39746 1.19241,1.1924 0.39746,0.79494 0,1.1924 -0.39747,1.98734 -0.39746,0 -1.19242,-0.79494 -1.58988,-1.1924 -0.39747,-0.39747 0.39746,-0.79494 0.39746,-0.79494 0.39748,0 0,-0.79494 0,-1.1924 0,0 0.39748,0 0.39748,0 z"
           id="path2753"
           inkscape:connector-curvature="0" />
        <path
           style="fill:#3a76bc;fill-opacity:1;fill-rule:nonzero;stroke:none;stroke-width:0.28;stroke-linecap:butt;stroke-linejoin:bevel"
           d="m 372.88918,422.45672 c 0.39747,-0.39746 0.79494,-0.39746 1.58986,0 0.39746,0.39748 0.39746,0.39748 0.39746,1.19242 -0.39746,0 0,0.79493 0,0.79493 0,0.39746 0.39748,0.39746 0.79496,0.39746 0.39746,0 0.39746,0.39748 0.79493,0.79494 0,0.39747 0.39746,0.39747 0.79494,0.79495 0,0.39746 -0.39748,0.39746 -0.39748,0.79494 -0.79493,0.39746 -1.58987,0 -2.38481,-0.39748 -0.39747,0 -1.19239,0 -1.98732,-0.79494 0,0 0.39746,-1.19241 0.39746,-1.58987 0,-0.79493 -0.79494,-1.58987 0,-1.98735 z"
           id="path2755"
           inkscape:connector-curvature="0" />
        <path
           style="fill:#3a76bc;fill-opacity:1;fill-rule:nonzero;stroke:none;stroke-width:0.28;stroke-linecap:butt;stroke-linejoin:bevel"
           d="m 432.50946,490.82132 c -0.79493,-0.79494 -1.19241,-1.98734 -1.58989,-2.78228 0,-0.39746 -1.19239,-0.79494 -1.19239,-1.1924 -0.79494,-0.39747 -1.19242,-0.39747 -1.58988,-0.39747 -1.1924,-0.39746 -1.98734,-0.79494 -3.17975,-1.1924 -0.39746,0 -0.79494,-0.39748 -1.1924,-0.39748 -0.79495,0 -1.19241,0 -1.98734,0 0.39746,-1.19241 0.39746,-1.98735 0,-2.78228 -0.79493,-0.79493 -1.19241,-1.58987 -1.98735,-1.98734 -1.19241,0 -1.98735,-0.39746 -2.78228,-0.79494 -0.39746,-0.39746 -0.79494,-0.79494 -0.79494,-1.1924 -0.39747,-0.39747 -0.79493,-0.79495 -1.1924,-1.19241 -0.79494,-0.39748 -1.58988,-1.1924 -2.38481,-1.58986 -0.79494,-0.39748 -1.58988,-1.58989 -2.38481,-1.98735 -0.39747,0 -0.79493,0 -1.19241,-0.39748 -0.79493,0 -1.19241,-0.79494 -1.58987,0 -0.39748,0.39748 -1.19241,1.19241 -2.38483,1.19241 0.39748,-0.39747 0.79496,-0.79493 1.19242,-1.19241 0.39747,-0.39746 0.39747,-0.39746 0.39747,-0.79494 -0.39747,0 -0.39747,-0.39746 -0.79493,-0.39746 -1.19242,0.79494 -2.78228,0.79494 -3.97469,1.1924 -0.39746,0 -0.79494,0.79494 -1.19242,1.19241 0,0 0,-0.39747 -0.39746,0 0,0 0,0 -0.39747,0 0,0.39748 -0.39746,0.79494 -0.79494,0.79494 -0.39746,-0.39746 -1.1924,-0.39746 -1.58986,-0.39746 -0.39748,0 -1.19242,0.79494 -1.58988,0.79494 -0.79493,-0.39748 -1.19241,-0.39748 -1.58987,-0.79494 -0.39748,-0.39748 -0.39748,-1.58989 0,-1.98735 0,-1.19241 0.39746,-2.78229 -1.19241,-2.78229 -1.19241,0 -2.78228,1.19242 -3.57722,0 -0.39747,-1.1924 1.98735,-2.3848 0.39746,-3.17973 -1.19239,-0.79496 -2.38481,0.39746 -3.57722,0.79493 -0.39746,0.39746 -1.19239,0.39746 -1.58986,0 -0.39746,-0.39747 -0.79494,-1.19241 -1.1924,-1.58989 -0.39748,-0.79493 -0.39748,-0.79493 -0.79496,-1.98733 0,-0.79493 0.39748,-0.79493 0.79496,-1.58988 0,-0.39746 0,-1.1924 0.79494,-1.98733 0.39746,-0.39748 0.79493,0 1.58986,0 0.39746,0 1.19241,-0.39748 1.58987,-0.39748 0.79494,-0.39746 1.19242,-0.39746 1.98735,-0.79494 0.79494,0 1.19242,-0.39747 1.98735,-0.39747 0.79493,0.39747 1.19239,0.79495 1.58987,1.58989 0.39746,0.39746 0,0.79493 0,1.58987 0,0.39746 0.79493,1.58987 1.19241,0.79494 1.1924,-1.19242 1.1924,-2.38481 0.39746,-3.57723 0,-0.39747 -0.39746,-0.79493 -0.39746,-1.1924 0,-0.79494 0,-1.1924 0.39746,-1.58987 0.79494,-1.19242 1.58987,-1.98735 2.38481,-2.78229 0.39748,-0.79494 0.39748,-2.3848 0.39748,-3.17974 0.39746,-0.79493 0.39746,-2.38481 1.58986,-2.78228 1.19241,-0.79494 0.39748,-1.98735 1.19241,-2.78228 0.39746,-0.79494 1.19242,-1.58987 1.98735,-2.78229 0.39746,-0.39746 0.39746,-0.39746 0.39746,-1.19239 0,-0.39748 -1.19239,-0.39748 -0.79493,-1.19241 0.39747,0 0.79493,0 0.79493,0 0.39748,-0.39748 0,-0.39748 -0.39746,-0.79493 -0.39747,0 -1.19241,0.39745 -1.58989,0.39745 0.39748,0.39748 0.79496,0.39748 0.79496,1.19241 -0.39748,0.39748 -0.79496,0.79494 -1.19242,0.39748 -0.39747,-0.79495 0,-0.79495 -0.79493,-0.79495 -0.39748,-0.39746 -1.19242,0 -1.58988,0 0.39746,-0.39746 0.79494,-1.19239 1.1924,-1.19239 0.79494,0 1.19241,-0.39748 1.98735,-0.39748 1.19241,0 2.78228,-0.39746 2.78228,-1.58987 0.39747,-0.79494 -0.39747,-1.19242 -0.79493,-1.58988 0,-0.39747 -0.39748,-0.79493 -0.39748,-0.79493 -0.39746,0 -0.79493,0.39746 -1.19239,0.39746 -0.79496,0 -2.38483,-0.79494 -3.57723,-1.1924 -1.58988,-0.39747 -1.98734,-0.79495 -3.17975,-1.98734 0,-0.39748 -0.39746,-1.19241 -1.19241,-0.79494 -0.39746,0.39746 -0.79494,0.39746 -1.58987,0 -1.19239,-0.39747 -2.38481,-0.79493 -3.57722,-0.39747 -0.79494,0 -1.1924,0 -1.1924,0.79493 -0.39747,1.19242 0,1.19242 0.79494,1.58987 0.39746,0.39748 0,0.79495 0.39746,1.19241 0.39748,0.39748 1.19241,0.79494 1.19241,1.19241 0,1.1924 0.39746,2.38481 0.39746,3.57723 -0.79493,-0.39748 -1.19239,-1.19242 -1.98733,-1.19242 -1.19241,-0.39746 -1.58989,0 -2.38482,-0.79493 -0.79493,-0.39748 -1.58987,-0.79494 -2.38481,-0.79494 0,-0.39748 -0.79493,0 -0.79493,-0.39748 -0.39748,-0.39746 -0.79494,-0.79493 -0.79494,-0.79493 -0.79494,-0.79494 -0.79494,-1.1924 0,-1.58987 0.39746,-0.79493 1.19239,-1.19241 1.58987,-1.98735 0,-0.39746 -0.79493,-1.98735 -0.39748,-1.98735 0.39748,-0.39746 1.19242,-0.79494 1.98736,-1.19239 -0.39746,-0.79493 -1.98736,-1.58987 -2.78229,-1.98735 -0.79494,-0.39747 -1.1924,-0.79493 -1.58987,-1.19241 -0.79493,-0.39746 -0.79493,-1.19239 -1.58987,-1.19239 -0.39748,-0.39748 -0.79493,-0.39748 -1.19241,0.39745 0,0.39748 0.39748,1.19242 0.39748,1.58988 0.39745,0.79495 1.19241,1.19241 0.79493,1.98735 -0.79493,0.79492 -1.19241,0.39747 -1.98735,0.79492 -1.58987,0 -2.38481,0 -3.5772,-0.39745 -0.79493,-0.39747 -1.19241,-0.79493 -1.98734,-1.19241 -0.39748,-0.39746 -0.79494,-0.79494 -1.58988,-0.79494 -1.19241,-0.39747 -2.38481,0 -3.57721,-0.79493 -1.19241,-0.39748 -2.38483,-1.19242 -3.57722,-1.58987 -0.39748,-0.39748 -0.79494,-0.79494 -1.19241,-0.79494 0,-0.39748 -0.39747,-0.79494 -0.79493,-0.79494 -0.79494,-0.39747 -1.98735,0.39746 -3.17975,0.79494 -0.79495,0.39746 -1.98735,0.39746 -2.38482,0.79494 -0.39746,0.39745 -0.79493,1.19239 -0.79493,1.58987 0,0.39746 -0.39746,0.39746 -0.79494,0.39746 -1.19241,0.39747 -0.79494,0 -0.79494,0.79495 -0.39747,0.39746 -0.79493,0.79494 -0.79493,0.79494 -0.79494,0.79493 -0.79494,1.98732 -0.39748,2.78228 0.39748,0.79493 0.39748,0.79493 0,1.19239 -0.39746,0.79494 -0.39746,0.79494 -1.1924,0.39748 -0.79494,0 -1.98734,-0.39748 -2.78227,0.39746 0.39746,0.39748 0.79493,0.79493 0.79493,0.79493 0,0 0.39746,0 0.79494,0 0.39746,0.39748 1.1924,0.39748 1.98734,0.39748 0.79494,-0.39748 0.79494,-0.79493 1.58987,-0.39748 0.39746,0.39748 1.19242,0 1.58988,0 1.58986,-0.39745 2.78227,-0.39745 4.37215,0 1.19241,0 1.98735,1.58989 2.38481,2.38482 1.1924,2.38481 1.98734,4.76962 3.17975,7.15444 0,0.39746 0.39746,0.39746 0.39746,0.39746 0,0.39748 0.39748,0.79493 0.39748,1.19241 0,0.39748 0,1.19242 0,1.98734 -0.39748,1.58988 -0.39748,2.78229 -0.39748,4.37216 0,0.39746 0,1.1924 0.39748,1.58987 0,0.39747 0.79493,1.19241 0.79493,1.58987 0.39748,0.79494 0.79494,1.58987 1.19242,1.98735 0.39746,0.79494 0.79492,1.19241 1.19238,1.58987 0.39748,1.58987 0.79496,2.38482 1.58989,3.57722 0.79494,1.19241 1.1924,2.38482 2.38481,3.17975 0.79494,0.39746 0,-1.1924 0,-1.58988 -0.39747,-0.39746 -0.79493,-0.79494 -0.79493,-1.58987 0.39746,-0.79494 0,-0.79494 -0.39748,-1.58988 -0.39746,-0.39747 -1.1924,-0.79493 -1.58987,-1.58986 -0.39746,-0.79494 0,-1.19241 0.79493,-0.79494 0.39748,0 0.79494,0.79494 0.79494,1.1924 0.39748,0.79493 0.79494,1.1924 0.79494,1.58988 0.39747,0.79494 0.79495,1.1924 1.19241,1.98733 0.39747,0.39748 0.79494,0.39748 1.19239,1.19242 0,0.39747 0.39747,1.1924 0.79493,1.58986 0.39748,0.39748 1.19242,0 1.58989,0.79494 0.39746,0.39747 0.39746,1.19241 0.79494,1.58989 1.19239,2.38481 3.17974,4.76961 5.56454,4.76961 0.79496,0 1.5899,-0.39746 1.98736,0 0.79493,0 1.1924,0.39747 1.98734,0.79493 0.79493,0.79494 1.98735,1.58988 3.17974,1.98735 0.39748,0 1.19242,-0.39747 1.58989,0 0.79493,0.39748 0.79493,1.19242 1.19239,1.58988 0.39748,0.39746 1.19241,0.79492 1.58989,0.79492 0.39746,0 0.79494,0 0.79494,0 0.39746,0.39748 0.39746,0.79494 0.79493,1.19242 0.39746,0.39747 0.39746,-0.79494 0.79494,-1.19242 0.39746,-0.79492 0.79494,-0.79492 1.58986,-0.39746 0.79494,0.79494 1.58988,2.38481 1.19242,3.57723 -0.39748,0.39746 -0.79494,0.79493 -1.19242,1.58987 -0.39746,0.39747 -0.39746,1.1924 -0.79492,1.98734 -0.39748,0.79494 0,2.78229 0,3.57722 0.39746,0.39746 0.39746,1.1924 0.39746,1.98734 0,0.79494 0.39746,1.1924 0.39746,1.98734 0.79494,1.19241 0.39748,2.38482 0.79494,3.57721 0,0.79494 -0.39746,1.58987 -0.39746,1.98735 0.39746,0.39748 0.79494,1.19241 1.1924,1.58987 0.39747,0.79494 0.79493,1.19242 1.58989,1.58988 0,0.39746 0,1.58988 0,1.98734 0,0.39747 0,0.79493 -0.39748,1.19241 0,0.39746 -0.39748,0.79494 -0.39748,1.19241 0,1.1924 -0.39746,1.98734 -0.79493,2.78226 0,0.39748 -0.39746,0.79496 -0.39746,1.19242 0,0 -0.79494,0.39747 -0.79494,0.39747 0,0.79494 -0.39748,1.1924 -0.39748,1.58988 -0.39746,0.39746 -0.79492,0.79493 -0.79492,1.19241 0,0.39746 0,0.79493 0,1.19239 0,0.79493 0,0.39747 -0.39748,0.79493 -0.39746,0.79494 -0.79494,1.58989 -1.1924,2.38483 -0.79493,0.79494 -1.19241,1.58987 -1.58987,2.3848 0,0.79494 -0.79495,1.58987 -1.19241,2.38481 0.39746,0 0.79493,0.39748 0.39746,0.79494 0,0.39747 -0.79494,0.39747 -1.1924,0.79493 -0.39747,0.39748 -1.58986,0.79496 -1.58986,1.58989 -0.39748,0.79493 0.39746,2.3848 -0.39748,2.78228 -0.39748,0.39746 -1.19241,1.58987 0,1.98733 -0.79494,0.79494 -1.58987,1.58989 -0.39748,2.78228 0,0 0.79496,0.39748 0.79496,0.79494 0.39746,0.39747 0,1.19241 0,1.58989 0.79493,0 0.79493,-0.39748 1.19239,-0.39748 0.39747,0.39748 0.39747,0.39748 0.79493,0.39748 0,0.39746 0.79494,0.39746 0.79494,0.39746 0.39747,-0.39746 0.39747,-0.39746 0,-0.79494 0,-0.39748 0,-0.39748 0,-0.79494 0,-0.39747 0,-0.79493 0,-0.79493 -0.39746,-1.19242 -0.79494,0.39746 -1.1924,-0.39748 0,-0.39746 0,-0.39746 0.39746,-0.79494 0.39748,-0.39745 0.39748,0 0.79494,-0.39745 0.79495,0 0.79495,-0.39747 1.19241,-1.19241 0.79494,-1.19241 1.19241,-2.38481 1.98735,-3.17976 0.79494,-1.58987 1.58986,-2.3848 2.78228,-3.57722 1.19239,-0.79493 1.98735,-1.58987 2.78228,-1.98733 1.1924,-0.39748 2.78226,-0.79494 3.97468,-1.58988 0.79493,-0.79494 1.58987,-1.58987 2.78228,-2.78227 0.79494,-0.79494 2.3848,-1.19241 3.17974,-1.98735 0.79495,-0.39748 1.19241,-0.39748 1.98735,-0.79494 0.79494,0 1.19241,-0.39747 1.58987,-0.79493 1.19241,-0.79493 1.98734,-1.19241 3.17976,-1.98734 0.79493,-0.79494 1.58987,-1.98735 2.38481,-2.38481 1.1924,-0.39748 1.98734,-0.79496 2.78227,-1.58988 0.79494,-0.79494 1.98735,-1.58988 2.38481,-2.78229 0.39748,-0.79494 0.39748,-1.1924 1.19242,-1.58987 0,-0.39746 0,-1.1924 0.39746,-1.58988 0.39746,-1.1924 1.1924,-1.98734 1.98734,-3.17973 0.79493,-0.79496 1.19241,-1.58989 1.98735,-2.78229 0,-0.39747 0.39747,-1.1924 0.79493,-1.58986 0.39748,-0.39748 0,-0.79496 -0.39746,-1.58989 z m -37.75952,-46.50381 c 0.39748,-0.39748 0.79494,0 1.19241,-0.39748 0.39746,-0.39748 0.79494,0 0.79494,0.39748 0.39746,0.39746 -1.98735,0.39746 -2.38481,0.39746 0,0 0.39746,-0.39746 0.39746,-0.39746 z m -3.97467,-0.39748 c 0.79493,0 0.79493,0 1.58986,0.39748 0.39746,0.39746 1.58987,0.79494 0.79494,1.19239 -0.39748,0 -1.19241,-0.39745 -1.58987,-0.39745 -0.39747,-0.39748 -1.98735,-1.19242 -0.79493,-1.19242 z m -0.79496,0.39748 c -0.39746,0.39746 -1.58987,2.78226 -2.38481,2.3848 0,-0.39748 0.39748,-0.39748 0.39748,-0.79494 0,-0.39747 0.39746,-0.79492 0.39746,-1.1924 0,-0.79494 1.19241,-1.19242 1.58987,-0.39746 z m -3.97468,-1.98735 c 0.39746,0 1.19241,0 1.98735,-0.39748 0.39746,-0.39746 -1.19241,-0.79493 -0.79494,-1.58987 0.39746,-0.39747 1.58988,0.79494 1.98734,0.79494 0.39747,0.39747 0.39747,1.19241 0.79493,1.98735 -0.79493,0 -1.58987,0 -2.38481,0 -0.39746,0 -1.98734,0 -1.58987,-0.79494 z"
           id="path2757"
           inkscape:connector-curvature="0" />
        <path
           style="fill:#3a76bc;fill-opacity:1;fill-rule:nonzero;stroke:none;stroke-width:0.28;stroke-linecap:butt;stroke-linejoin:bevel"
           d="m 403.89172,441.93268 c 0,0.39748 -0.39747,0.79494 -0.79493,1.19242 -0.79494,0 -0.39748,-0.79494 -0.39748,-1.19242 0.39748,-0.39746 0.79494,-1.19239 1.19241,-1.19239 0.79493,0 0.79493,0.79493 0,1.19239 z"
           id="path2759"
           inkscape:connector-curvature="0" />
        <path
           style="fill:#3a76bc;fill-opacity:1;fill-rule:nonzero;stroke:none;stroke-width:0.28;stroke-linecap:butt;stroke-linejoin:bevel"
           d="m 404.28919,436.7656 c 0.39746,0 0.79492,-0.79494 1.1924,-0.39748 0.39748,0.39748 -0.39748,0.79495 -0.39748,1.19241 0.39748,0.39748 1.98735,0 1.98735,0.79494 0.39748,0.39748 0,1.19241 -0.39746,1.19241 -0.39747,0 -0.79493,-0.39748 -0.79493,-0.79493 -0.39748,-0.39748 -1.98735,1.19239 -2.38482,0.39745 -0.39746,-0.79493 0.39747,-1.98733 0.79494,-2.3848 z"
           id="path2761"
           inkscape:connector-curvature="0" />
        <path
           style="fill:#3a76bc;fill-opacity:1;fill-rule:nonzero;stroke:none;stroke-width:0.28;stroke-linecap:butt;stroke-linejoin:bevel"
           d="m 395.14742,464.98586 c 1.19239,0.39747 2.38481,1.19241 3.57721,1.19241 0.39746,0 0.79494,0.39748 0.79494,0.79494 0,0.39747 -1.19242,0.39747 -1.58988,0.39747 -1.1924,-0.39747 -1.98734,-0.79493 -3.17975,-1.58989 -0.39746,0 -0.79494,-0.39746 -0.79494,-1.19239 0,-0.39748 1.19242,0.39746 1.19242,0.39746 z"
           id="path2763"
           inkscape:connector-curvature="0" />
        <path
           style="fill:#3a76bc;fill-opacity:1;fill-rule:nonzero;stroke:none;stroke-width:0.28;stroke-linecap:butt;stroke-linejoin:bevel"
           d="m 403.49425,466.97321 c 0.79494,0 1.98734,-0.39746 2.38482,0.79493 0,0.79494 -0.79496,0 -0.79496,0 -0.39746,0 -1.19239,0 -1.58986,0 -0.39746,0 -0.79494,0 -1.1924,-0.39746 -0.39747,0 -0.39747,-0.39747 -0.79493,-0.79493 -0.39748,-0.39748 0.79493,-0.39748 0.79493,-0.39748 0.79494,0 0.79494,0 1.1924,0.79494 z"
           id="path2765"
           inkscape:connector-curvature="0" />
        <path
           style="fill:#3a76bc;fill-opacity:1;fill-rule:nonzero;stroke:none;stroke-width:0.28;stroke-linecap:butt;stroke-linejoin:bevel"
           d="m 407.07146,468.16562 c 0.39748,-0.39748 0.39748,-0.39748 1.19242,0 0,0 0.39746,0.39746 0.39746,0.79494 0,0.39746 -1.1924,-0.39748 -1.58988,-0.39748 0,-0.39746 0,-0.39746 0,-0.39746 z"
           id="path2767"
           inkscape:connector-curvature="0" />
        <path
           style="fill:#3a76bc;fill-opacity:1;fill-rule:nonzero;stroke:none;stroke-width:0.28;stroke-linecap:butt;stroke-linejoin:bevel"
           d="m 384.41577,429.21368 c 0.79493,0.39748 1.19239,0.39748 1.58986,0.79496 0,0.79493 0,1.19239 -0.79493,0.79493 -0.79493,0 -1.19241,-0.39747 -1.58987,-0.79493 0,-0.39748 0,-0.79496 0,-0.79496 0,0 0.79494,0 0.79494,0 z"
           id="path2769"
           inkscape:connector-curvature="0" />
        <polygon
           transform="matrix(2.2081588,0,0,2.2081588,76.112635,309.2665)"
           style="fill:#3a76bc;fill-opacity:1;fill-rule:nonzero;stroke:none;stroke-width:0.28;stroke-linecap:butt;stroke-linejoin:bevel"
           points="161.4,31.1 161.4,31.1 161.58,31.28 160.32,31.46 160.5,31.1 "
           id="polygon2771" />
        <polygon
           transform="matrix(2.2081588,0,0,2.2081588,76.112635,309.2665)"
           style="fill:#3a76bc;fill-opacity:1;fill-rule:nonzero;stroke:none;stroke-width:0.28;stroke-linecap:butt;stroke-linejoin:bevel"
           points="50.52,59.54 51.42,59.9 49.44,68.18 48.36,68 48.72,66.38 37.92,63.5 37.56,65.12 36.48,64.94 38.64,56.66 38.64,56.66 39.54,56.84 39.18,58.28 49.98,60.98 "
           id="polygon2773" />
        <polygon
           transform="matrix(2.2081588,0,0,2.2081588,76.112635,309.2665)"
           style="fill:#3a76bc;fill-opacity:1;fill-rule:nonzero;stroke:none;stroke-width:0.28;stroke-linecap:butt;stroke-linejoin:bevel"
           points="51.6,56.66 51.06,58.1 51.96,58.46 53.58,54.32 52.68,53.78 51.96,55.22 44.94,52.52 54.84,51.26 57.18,46.94 46.38,41 47.28,39.56 46.38,39.02 44.04,43.16 44.94,43.7 45.84,42.26 52.5,46.04 42.06,47.48 42.06,47.48 39.54,53.6 40.44,54.14 41.16,52.52 "
           id="polygon2775" />
        <path
           style="fill:#3a76bc;fill-opacity:1;fill-rule:nonzero;stroke:none;stroke-width:0.28;stroke-linecap:butt;stroke-linejoin:bevel"
           d="m 180.51439,392.24911 c 0.79493,-2.3848 19.07849,-25.83545 21.4633,-27.42532 l 5.16709,4.76961 -1.98734,1.98735 -1.98734,-1.58988 c 0,0 -3.97469,1.98735 -6.75697,5.16709 l 17.88608,14.30887 0,5.56457 -5.96202,8.34683 -1.98735,-1.1924 1.98735,-2.78228 -19.0785,-15.1038 c 0,0 -2.78228,4.76963 -3.57721,7.94936 l 1.98734,1.98735 -1.19241,1.58987 -5.96202,-3.57722 z"
           id="path2777"
           inkscape:connector-curvature="0" />
        <path
           style="fill:#3a76bc;fill-opacity:1;fill-rule:nonzero;stroke:none;stroke-width:0.28;stroke-linecap:butt;stroke-linejoin:bevel"
           d="m 204.3625,362.43896 c 0.39748,-1.19239 21.86078,-20.27089 24.24559,-21.06582 l 3.97469,5.56456 -1.58989,1.58987 -1.98734,-2.38481 c 0,0 -5.56456,1.58988 -11.52658,7.15444 l 7.15443,7.94937 c 0,0 3.97469,-1.98735 3.57723,-3.17976 l -1.58989,-1.58987 1.58989,-1.58987 5.16708,6.3595 -1.58987,1.19239 -1.98735,-1.98732 -3.17975,2.78227 c 0,0 0,0.39746 0,0.79494 0.39747,0 7.15443,7.5519 7.15443,7.5519 0,0 0,0 0.39748,-0.39746 0.79494,-0.39748 6.3595,-5.96204 6.75696,-7.94938 0,0 -0.39746,-0.79495 -1.1924,-1.58988 -0.79493,-0.79493 -0.39747,-0.79493 -0.39747,-0.79493 l 1.98734,-1.58988 4.37216,6.3595 -13.9114,11.12911 -9.53925,0 -13.9114,-15.50126 -2.38481,2.78228 -1.58988,-1.58989 z"
           id="path2779"
           inkscape:connector-curvature="0" />
        <polygon
           transform="matrix(2.2081588,0,0,2.2081588,76.112635,309.2665)"
           style="fill:#3a76bc;fill-opacity:1;fill-rule:nonzero;stroke:none;stroke-width:0.28;stroke-linecap:butt;stroke-linejoin:bevel"
           points="103.98,1.94 102.36,2.12 102.18,1.22 106.86,0.5 107.04,1.58 105.42,1.94 106.86,14 102.72,14.54 95.34,7.52 97.32,14.72 98.58,14.36 98.76,15.44 94.8,16.52 94.44,15.62 95.88,15.26 92.82,4.46 91.56,4.82 91.56,4.82 91.2,3.74 97.14,2.12 104.7,9.14 "
           id="polygon2781" />
        <path
           style="fill:#3a76bc;fill-opacity:1;fill-rule:nonzero;stroke:none;stroke-width:0.28;stroke-linecap:butt;stroke-linejoin:bevel"
           d="m 351.42587,338.19339 -11.12911,-28.22028 -9.53926,-0.39746 -12.32152,27.42534 -2.78229,0.39746 0.39748,2.38481 c 1.19242,-0.39747 9.14178,-0.39747 9.14178,-0.39747 l -0.39747,-2.78228 -2.38481,0 2.38481,-5.96202 11.12913,-0.39746 2.78226,6.35948 -3.17974,0.39748 0.39748,2.3848 c 2.3848,-0.39746 18.28355,1.58989 18.28355,1.58989 l 0,-2.38483 -2.78229,-0.39746 z m -25.43798,-9.93671 5.16709,-10.73165 3.97469,10.73165 -9.14178,0 z"
           id="path2783"
           inkscape:connector-curvature="0" />
        <path
           style="fill:#3a76bc;fill-opacity:1;fill-rule:nonzero;stroke:none;stroke-width:0.28;stroke-linecap:butt;stroke-linejoin:bevel"
           d="m 356.1955,318.71744 c 0,0 1.19241,-5.96204 1.58987,-6.75698 0,-0.39746 20.2709,3.17976 32.19494,8.34684 l -1.98733,6.75696 -2.78228,-0.79493 0.79493,-2.78228 c 0,0 -5.96202,-3.57722 -6.75695,-3.57722 0,0 -5.96203,22.65572 -5.96203,23.05318 0,0 3.17974,1.1924 3.17974,1.1924 l -0.39747,2.38481 c 0,0 -16.69368,-5.16708 -18.68101,-5.16708 l 0.39746,-1.98735 3.57722,0.39747 5.96203,-22.65571 -7.94938,-0.39746 -0.79493,2.38481 -2.38481,-0.39746 z"
           id="path2785"
           inkscape:connector-curvature="0" />
        <path
           style="fill:#3a76bc;fill-opacity:1;fill-rule:nonzero;stroke:none;stroke-width:0.28;stroke-linecap:butt;stroke-linejoin:bevel"
           d="m 394.35248,321.89718 c 0,0 17.09113,7.55191 17.09113,7.94937 0.39748,0.39748 -0.79493,2.3848 -0.79493,2.3848 l -3.17974,-1.58986 -10.33419,21.86077 3.17975,1.98734 -1.19241,1.98734 c 0,0 -15.50126,-7.94937 -17.09115,-7.94937 l 0.39748,-1.98735 3.57721,1.19242 10.33418,-22.25825 -3.17974,-1.98734 1.19241,-1.58987 z"
           id="path2787"
           inkscape:connector-curvature="0" />
        <path
           style="fill:#3a76bc;fill-opacity:1;fill-rule:nonzero;stroke:none;stroke-width:0.28;stroke-linecap:butt;stroke-linejoin:bevel"
           d="m 438.07401,347.33516 -12.32152,-8.74431 c -13.51394,-4.76961 -19.07849,3.17976 -20.66838,9.53926 -1.98732,8.7443 3.9747,13.11646 3.9747,13.11646 0,0 8.34684,7.55189 10.33418,8.34683 7.15443,3.97469 16.29621,1.98735 20.27091,-4.37215 5.96202,-9.93671 -1.58989,-17.88609 -1.58989,-17.88609 z m -5.16709,1.98735 c -0.79493,2.78228 -1.58987,5.16709 -8.74431,13.9114 0,0 -2.78227,3.97469 -6.3595,2.38481 0,0 -2.3848,-1.58987 -2.78227,-1.98735 -0.79494,-0.79493 -1.58988,-1.58987 -1.58988,-3.17973 0.39748,-1.58989 0,-2.78229 1.58988,-4.76964 1.1924,-1.98734 6.3595,-9.53924 6.3595,-9.53924 0,0 2.38481,-3.17975 3.97469,-3.17975 1.19239,0 2.38481,0 3.17973,0.39747 0.79494,0 1.98735,1.19241 1.98735,1.19241 0,0 3.17975,1.58987 2.38481,4.76962 z"
           id="path2789"
           inkscape:connector-curvature="0" />
        <path
           style="fill:#3a76bc;fill-opacity:1;fill-rule:nonzero;stroke:none;stroke-width:0.28;stroke-linecap:butt;stroke-linejoin:bevel"
           d="m 434.89426,378.33772 0.39748,-0.39747 4.37216,0 -0.79494,0.39747 -3.9747,0 z m 1.58988,-1.58989 14.70635,-14.70633 -2.38483,-2.78228 1.58989,-1.58987 9.9367,10.33417 -2.3848,20.2709 9.93671,-7.5519 -1.98735,-2.78227 1.98735,-1.58988 6.3595,8.74431 -1.98735,1.58987 -1.98734,-2.78228 -21.86077,15.50128 -3.17975,-3.97469 0,-2.78227 2.38481,-22.65572 -6.75697,6.75696 -4.37215,0 z"
           id="path2791"
           inkscape:connector-curvature="0" />
        <path
           style="fill:#3a76bc;fill-opacity:1;fill-rule:nonzero;stroke:none;stroke-width:0.28;stroke-linecap:butt;stroke-linejoin:bevel"
           d="m 488.15506,409.73773 -5.1671,-9.53925 -29.01519,3.57722 -1.98735,-2.78228 -1.58987,1.19241 5.16709,7.94937 1.58987,-1.19241 -1.19241,-2.78228 6.3595,-0.79494 5.56456,10.33419 -4.37215,4.76962 -2.78229,-5.16709 -1.98735,0.79493 8.74431,20.2709 1.98735,-0.79494 -0.39745,-2.78228 19.07848,-23.05317 z m -23.05319,-4.76962 0,0.39746 12.71901,-1.58987 -8.34685,9.53924 -4.37216,-8.34683 z"
           id="path2793"
           inkscape:connector-curvature="0" />
        <path
           style="fill:#3a76bc;fill-opacity:1;fill-rule:nonzero;stroke:none;stroke-width:0.28;stroke-linecap:butt;stroke-linejoin:bevel"
           d="m 496.10442,436.36812 -0.79494,-3.97467 1.98736,-0.39748 5.16708,19.0785 -2.3848,0.79493 -1.19241,-3.97468 -23.45065,5.96203 c 0,0 1.1924,8.34683 3.17975,9.14178 l 3.57722,0 0,2.78226 -7.15443,1.19242 c 0,0 -4.37216,-25.83546 -5.96202,-27.42533 l 1.58986,-0.79493 1.58987,3.57721 23.84811,-5.96204 z"
           id="path2795"
           inkscape:connector-curvature="0" />
        <path
           style="fill:#3a76bc;fill-opacity:1;fill-rule:nonzero;stroke:none;stroke-width:0.28;stroke-linecap:butt;stroke-linejoin:bevel"
           d="m 203.96504,564.75047 -6.75698,-12.32152 c -10.33417,-8.74431 -18.68102,-3.17974 -22.25824,1.58987 -5.16709,7.15443 -1.98733,13.11647 -1.98733,13.11647 0,0 4.76961,9.53925 5.96203,11.12911 4.76962,6.3595 14.30886,6.3595 19.87342,2.38481 7.5519,-5.96202 5.1671,-15.89874 5.1671,-15.89874 z m -4.76963,0.79494 c -0.39747,0.39747 -5.56457,4.37215 -13.91139,8.74432 0,0 -3.57723,1.98733 -5.96203,-0.39748 0,0 -1.98735,-1.98734 -1.98735,-2.78228 -0.39747,-0.79493 -0.79493,-1.58987 0,-3.17974 0.79494,-1.19241 0.79494,-2.38482 2.78229,-3.57721 1.98732,-1.19242 9.9367,-5.96205 9.9367,-5.96205 0,0 3.57721,-1.98733 4.76962,-1.19239 1.58988,0.39746 2.38481,0.79493 2.78229,1.19239 0.79494,0.79496 1.1924,1.98734 1.1924,1.98734 0,0 2.38481,2.78229 0.39747,5.1671 z"
           id="path2797"
           inkscape:connector-curvature="0" />
        <path
           style="fill:#3a76bc;fill-opacity:1;fill-rule:nonzero;stroke:none;stroke-width:0.28;stroke-linecap:butt;stroke-linejoin:bevel"
           d="m 181.70679,509.10488 -0.39747,-3.97469 2.38482,-0.39746 c 0,0 1.98734,14.30886 2.38481,15.1038 0.79494,0.39746 -12.719,9.14177 -12.719,9.14177 l 15.50128,1.98734 5.16709,13.11646 -1.98734,1.19241 -1.98735,-3.97467 -23.05318,8.34682 1.19242,3.57723 -1.98735,0.79493 -6.35951,-18.28354 1.98736,-0.79494 1.58986,3.57721 15.50129,-5.96204 -20.2709,-1.98733 -1.58987,-5.96204 17.48862,-11.12911 -16.69369,2.78229 0.79494,3.17973 -1.98734,0.79494 -1.98735,-10.33417 1.98735,-0.39748 0.79493,3.57721 24.24558,-3.97467 z"
           id="path2799"
           inkscape:connector-curvature="0" />
        <polygon
           transform="matrix(2.2081588,0,0,2.2081588,76.112635,309.2665)"
           style="fill:#3a76bc;fill-opacity:1;fill-rule:nonzero;stroke:none;stroke-width:0.28;stroke-linecap:butt;stroke-linejoin:bevel"
           points="53.76,130.82 52.68,129.38 58.8,124.7 56.46,135.32 59.88,138.74 68.34,129.92 69.24,130.82 69.78,129.92 67.08,127.22 66.36,127.94 67.26,129.02 61.86,134.42 64.2,123.8 60.78,119.66 59.88,120.38 60.78,121.28 51.96,128.3 51.96,128.3 50.88,126.86 49.98,127.4 53.04,131.36 "
           id="polygon2801" />
        <path
           style="fill:#3a76bc;fill-opacity:1;fill-rule:nonzero;stroke:none;stroke-width:0.28;stroke-linecap:butt;stroke-linejoin:bevel"
           d="m 234.57011,619.99861 -7.5519,8.34684 c 0,0 5.16709,4.37215 9.93672,5.56456 l 1.98735,-3.17975 2.3848,1.58987 -3.97469,5.96203 c 0,0 -20.66835,-14.70634 -23.05318,-17.48862 l 1.19242,-1.58987 2.3848,1.98734 15.50128,-19.47595 -1.98735,-1.98735 1.19242,-1.98735 c 0,0 11.52658,10.33419 21.06582,15.89875 l -3.97469,6.3595 -1.98733,-1.1924 1.58987,-3.17976 c 0,0 -3.57721,-5.56456 -6.75696,-6.75696 l -6.75698,8.74431 3.17977,2.38481 1.58987,-1.58987 1.98734,1.19241 -3.97469,6.35949 -1.98735,-0.79494 1.58987,-2.78227 -3.57721,-2.38482 z"
           id="path2803"
           inkscape:connector-curvature="0" />
        <path
           style="fill:#3a76bc;fill-opacity:1;fill-rule:nonzero;stroke:none;stroke-width:0.28;stroke-linecap:butt;stroke-linejoin:bevel"
           d="m 252.85367,621.19101 3.17974,-6.3595 c 0,0 18.28357,9.93673 28.22028,12.719 l -1.98734,6.75696 -2.78229,-0.79493 0.79494,-2.78228 c 0,0 -5.56457,-3.97468 -5.96202,-4.37216 l -9.93672,22.65572 3.17974,1.1924 -0.79494,1.98734 -17.48861,-7.5519 0.79494,-1.98734 3.57721,1.58987 9.53925,-22.65572 c 0,0 -5.16709,-1.58986 -6.75696,-0.79493 l -1.58987,1.58989 -1.98735,-1.19242 z"
           id="path2805"
           inkscape:connector-curvature="0" />
        <path
           style="fill:#3a76bc;fill-opacity:1;fill-rule:nonzero;stroke:none;stroke-width:0.28;stroke-linecap:butt;stroke-linejoin:bevel"
           d="m 289.02331,658.95052 c 1.58988,0.39748 19.87343,3.57722 19.87343,3.57722 l 0,-2.38481 -1.98735,0 -5.56456,-28.22026 -10.73164,-2.78228 -17.48863,22.65569 -2.78228,-0.39746 -0.79493,1.58988 8.34684,3.17975 1.19239,-1.58988 -2.78225,-1.1924 3.97467,-5.16708 12.719,3.17973 0.79494,6.3595 -4.76963,-0.39747 0,1.58987 z m -7.15444,-13.11646 7.94936,-9.14178 2.78229,12.32154 -10.73165,-3.17976 z"
           id="path2807"
           inkscape:connector-curvature="0" />
        <path
           style="fill:#3a76bc;fill-opacity:1;fill-rule:nonzero;stroke:none;stroke-width:0.28;stroke-linecap:butt;stroke-linejoin:bevel"
           d="m 281.07393,344.55289 -0.39745,0.39746 c 0,0 -1.19242,0.39748 -1.98735,0.39748 -0.39748,0 -1.58988,-0.79494 -1.98735,-1.19242 0,-0.39746 -1.58987,-3.57721 -1.98735,-3.97469 -0.39745,0 -2.38481,-2.38481 -4.37215,-1.98733 -1.98733,0.39746 -3.17974,0 -3.17974,0 7.55189,-6.3595 0.79493,-15.50128 -5.56457,-14.70634 -5.56456,0.79494 -27.8228,14.70634 -27.8228,14.70634 l 1.58989,1.58987 2.78226,-1.58987 11.92407,21.46331 -2.78228,1.98733 1.58986,1.58988 15.50129,-8.74431 -1.19241,-2.38481 c 0,0 -1.1924,1.19241 -1.98733,1.19241 -0.79496,0.39746 -0.79496,0 -0.79496,0 l -5.16709,-9.53925 4.37215,-1.98734 c 0,0 1.5899,-0.39747 2.38483,-0.79493 0.39746,0 1.1924,0.79493 1.1924,0.79493 0,0 3.57721,6.75696 4.37215,7.94937 0.39747,0.79493 1.98735,0.79493 2.38483,0.79493 0.39745,0.39746 4.37215,-0.79493 4.37215,-0.79493 l 7.55189,-2.78228 -0.79494,-2.38481 z m -21.46331,-5.96204 c -0.39745,0.79494 -5.56454,3.17976 -5.56454,3.17976 l -5.56457,-9.93672 5.96203,-2.78228 c 0,0 1.58987,-0.39747 2.38481,0.39748 0.79495,0.79494 3.97469,7.15442 3.97469,7.15442 0,0 -0.39748,1.58988 -1.19242,1.98734 z"
           id="path2809"
           inkscape:connector-curvature="0" />
        <path
           style="fill:#3a76bc;fill-opacity:1;fill-rule:nonzero;stroke:none;stroke-width:0.28;stroke-linecap:butt;stroke-linejoin:bevel"
           d="m 349.836,660.14293 -0.39747,0.39748 c 0,0 -2.38481,0 -3.17975,-0.79494 0,-0.39747 0,-0.39747 -0.39747,-0.39747 0.39747,0 0.39747,-0.39748 0,-1.98735 0,-3.97468 -4.37215,-7.15443 -4.37215,-7.15443 0,0 5.96204,-3.17975 5.96204,-7.94937 0,-4.76961 -4.37215,-7.5519 -5.56457,-7.5519 -1.19241,-0.39748 -3.57722,-0.39748 -3.57722,-0.39748 -7.15443,0.79494 -25.43797,-0.79493 -25.43797,-0.79493 l 0.39746,2.38481 2.78227,0.39747 -1.19241,24.24559 -2.78228,0 c 0,0 -0.39746,2.3848 0,2.3848 0.39748,0 17.48863,0.79494 17.48863,0.79494 l -0.39748,-2.3848 -2.38481,0 0.39746,-11.12913 c 0,0 5.16711,0 5.56457,0 0.39747,-0.39746 1.58987,1.98734 1.58987,1.98734 0,0 0.39748,8.34685 0.39748,8.74431 0,0.39748 1.98735,1.98734 2.78227,2.38482 0.79494,0 13.11646,-0.79495 13.11646,-0.79495 l -0.79493,-2.38481 z m -15.1038,-13.91139 c 0,0 0,1.19239 -0.79494,1.58987 -0.79494,0 -6.3595,0 -6.3595,0 l 0.79494,-11.12913 5.56456,0 c 0,0 0.79494,0.79496 1.19241,1.19242 0,0.79492 -0.39747,8.34684 -0.39747,8.34684 z"
           id="path2811"
           inkscape:connector-curvature="0" />
        <path
           style="fill:#3a76bc;fill-opacity:1;fill-rule:nonzero;stroke:none;stroke-width:0.28;stroke-linecap:butt;stroke-linejoin:bevel"
           d="m 347.84866,633.11506 19.0785,-3.17974 c 0,0 0.79492,1.58988 0.79492,1.98735 0,0.39746 -2.78227,0 -2.3848,0.79493 0,0.39746 9.14176,7.15444 9.14176,7.15444 0,0 5.56457,-10.33419 5.1671,-11.92407 l -2.38481,0.79494 -0.79494,-1.98733 8.74431,-3.17976 1.19239,1.58988 -2.78226,1.58988 -6.75698,16.2962 2.78229,10.73165 3.17973,-0.39746 0.79496,1.98734 -18.28355,4.37216 -0.79495,-1.58989 3.57721,-1.19239 -2.78226,-10.73165 -14.70635,-11.12913 -2.3848,0.39748 -0.39747,-2.38483 z"
           id="path2813"
           inkscape:connector-curvature="0" />
        <path
           style="fill:#3a76bc;fill-opacity:1;fill-rule:nonzero;stroke:none;stroke-width:0.28;stroke-linecap:butt;stroke-linejoin:bevel"
           d="m 400.71196,616.02393 c 0,0 19.47598,-11.12913 23.05319,-16.29622 l 4.76961,5.96203 -1.98734,1.98735 -2.38481,-2.38481 c 0,0 -6.3595,1.58987 -9.14177,4.37215 l 5.96204,9.53924 3.57721,-2.78228 -1.19241,-2.38481 2.38481,-1.58987 4.76962,5.96203 -2.38481,1.98734 -1.58988,-1.98734 -3.97468,2.78227 5.56456,9.14179 2.78227,-1.98735 1.58989,1.98735 -15.89874,10.73165 -1.58988,-1.98735 2.78227,-1.98734 -12.719,-21.06583 -3.57719,1.58987 -0.79496,-1.58987 z"
           id="path2815"
           inkscape:connector-curvature="0" />
        <path
           style="fill:#3a76bc;fill-opacity:1;fill-rule:nonzero;stroke:none;stroke-width:0.28;stroke-linecap:butt;stroke-linejoin:bevel"
           d="m 426.54742,598.13784 11.92407,-12.719 1.98734,1.98735 -1.98734,1.98735 13.11646,13.51391 c 0,0 3.17975,1.98735 5.96204,0 2.78226,-1.58987 4.76961,-3.17974 3.97467,-6.75696 -0.79494,-3.17974 -1.58987,-3.17974 -2.38481,-3.97469 -1.1924,-0.79494 -13.11646,-11.52659 -13.11646,-11.52659 l -1.98734,2.78229 -1.98735,-1.98733 5.56456,-7.15444 1.98734,1.58987 -1.58988,2.3848 13.51394,11.5266 c 0,0 3.17976,4.76963 3.17976,7.5519 -0.39748,2.78229 -0.79495,4.37216 -1.19241,4.76962 -0.79494,0.79493 -8.74431,9.14178 -8.74431,9.14178 0,0 -3.97469,2.38481 -5.96204,2.38481 -1.58987,0 -4.76961,-1.1924 -5.56455,-2.38481 -1.19241,-0.79494 -13.51393,-13.51394 -13.51393,-13.51394 l -1.98734,1.98735 -1.19242,-1.58987 z"
           id="path2817"
           inkscape:connector-curvature="0" />
        <polygon
           transform="matrix(2.2081588,0,0,2.2081588,76.112635,309.2665)"
           style="fill:#3a76bc;fill-opacity:1;fill-rule:nonzero;stroke:none;stroke-width:0.28;stroke-linecap:butt;stroke-linejoin:bevel"
           points="175.98,109.22 175.26,110.48 174.36,109.94 176.16,106.34 177.06,106.7 176.52,107.96 187.5,113.18 185.52,117.5 174.9,119.3 180.66,123.62 181.56,122 182.46,122.54 179.76,126.5 179.04,125.96 179.94,124.52 170.76,118.4 169.86,119.48 169.86,119.48 169.14,118.94 171.66,114.62 182.46,112.46 "
           id="polygon2819" />
        <path
           style="fill:#3a76bc;fill-opacity:1;fill-rule:nonzero;stroke:none;stroke-width:0.28;stroke-linecap:butt;stroke-linejoin:bevel"
           d="m 488.55253,511.48969 c -10.73165,-2.38481 -15.50128,7.5519 -15.50128,7.5519 l -6.75696,22.25825 1.98735,0.79493 1.19239,-3.17976 23.05318,7.94938 -1.1924,3.97469 2.38481,0.79493 c 0,0 7.15443,-20.66837 7.15443,-25.43798 0.39746,-4.76963 -3.17976,-12.719 -12.32152,-14.70634 z m 9.53924,18.28356 -1.58987,5.96203 c 0,0 -23.45065,-7.55192 -23.45065,-7.94938 0,0 0.39748,-2.78228 0.79493,-4.76962 0.79494,-1.98735 2.78228,-1.19242 2.78228,-1.19242 0,0 17.48863,4.76963 19.87344,5.56457 2.38481,0.39747 1.58987,2.38482 1.58987,2.38482 z"
           id="path2821"
           inkscape:connector-curvature="0" />
        <polygon
           transform="matrix(2.2081588,0,0,2.2081588,76.112635,309.2665)"
           style="fill:#3a76bc;fill-opacity:1;fill-rule:nonzero;stroke:none;stroke-width:0.28;stroke-linecap:butt;stroke-linejoin:bevel"
           points="43.68,80.6 44.94,84.56 41.7,82.04 38.1,84.74 39.54,80.6 36.3,78.08 40.44,78.08 40.44,78.08 41.88,74.12 42.96,78.08 47.1,78.08 "
           id="polygon2823" />
        <polygon
           transform="matrix(2.2081588,0,0,2.2081588,76.112635,309.2665)"
           style="fill:#3a76bc;fill-opacity:1;fill-rule:nonzero;stroke:none;stroke-width:0.28;stroke-linecap:butt;stroke-linejoin:bevel"
           points="189.66,81.68 191.1,85.64 187.68,83.12 184.08,85.82 185.52,81.68 182.28,79.16 186.42,79.16 186.42,79.16 187.86,75.2 188.94,79.16 193.08,79.16 "
           id="polygon2825" />
      </g>
    </g>
  </g>
</svg>
