<?xml version="1.0" encoding="UTF-8" standalone="no"?>
<svg
   xmlns:dc="http://purl.org/dc/elements/1.1/"
   xmlns:cc="http://creativecommons.org/ns#"
   xmlns:rdf="http://www.w3.org/1999/02/22-rdf-syntax-ns#"
   xmlns:svg="http://www.w3.org/2000/svg"
   xmlns="http://www.w3.org/2000/svg"
   xmlns:sodipodi="http://sodipodi.sourceforge.net/DTD/sodipodi-0.dtd"
   xmlns:inkscape="http://www.inkscape.org/namespaces/inkscape"
   xml:space="preserve"
   height="70.785156"
   width="82.41787"
   id="Layer_1"
   version="1.1"
   inkscape:version="0.91 r13725"
   sodipodi:docname="washington-post.svg"><metadata
     id="metadata14"><rdf:RDF><cc:Work
         rdf:about=""><dc:format>image/svg+xml</dc:format><dc:type
           rdf:resource="http://purl.org/dc/dcmitype/StillImage" /><dc:title></dc:title></cc:Work></rdf:RDF></metadata><defs
     id="defs12" /><sodipodi:namedview
     pagecolor="#ffffff"
     bordercolor="#666666"
     borderopacity="1"
     objecttolerance="10"
     gridtolerance="10"
     guidetolerance="10"
     inkscape:pageopacity="0"
     inkscape:pageshadow="2"
     inkscape:window-width="1920"
     inkscape:window-height="1057"
     id="namedview10"
     showgrid="false"
     fit-margin-top="0"
     fit-margin-left="0"
     fit-margin-right="0"
     fit-margin-bottom="0"
     inkscape:zoom="2.7794675"
     inkscape:cx="119.08507"
     inkscape:cy="35.392658"
     inkscape:window-x="0"
     inkscape:window-y="0"
     inkscape:window-maximized="1"
     inkscape:current-layer="g4148" /><g
     id="g4148"
     transform="translate(-95.408,-0.94)"><path
       inkscape:connector-curvature="0"
       d="m 127.147,56.906 -9.407,-8.121 -7.173,8.121 -9.745,-8.392 0,-13.263 -1.895,0 c -1.692,0 -2.571,1.083 -2.978,2.368 l -0.203,0 c -0.135,-0.541 -0.338,-1.488 -0.338,-2.571 0,-1.76 0.474,-6.361 5.414,-6.361 l 0,-11.64 c 0,-2.233 -2.639,-3.113 -2.639,-6.091 0,-3.856 3.654,-7.646 10.354,-10.016 l 0.271,0.203 c -2.436,1.422 -3.722,2.775 -3.722,5.685 0,4.467 4.331,3.316 4.331,10.354 l 0,2.707 7.918,-8.324 8.324,8.188 7.85,-8.188 7.579,7.444 0,25.039 z m -24.159,-9.474 0,-14.278 -3.79,0 c -1.963,0 -2.842,1.285 -2.978,2.436 l 0.067,0.068 c 0.677,-0.744 1.354,-1.15 2.91,-1.15 l 2.368,0 0,13.67 8.933,7.715 1.015,-1.219 z m 0,-31.062 c 0,-2.774 -2.436,-3.722 -2.436,-5.481 0,-2.437 0.947,-4.466 2.436,-6.361 l -0.135,-0.067 c -2.03,1.557 -3.925,4.061 -3.925,6.496 0,2.437 2.639,3.587 2.639,5.753 l 0,11.978 1.421,0 z m 14.279,6.768 -5.143,-5.008 -2.707,2.774 0,23.956 6.158,5.211 1.692,-1.895 z m 2.165,24.159 0,-25.106 -5.752,-5.685 -1.083,1.083 5.414,5.21 0,25.242 9.136,7.918 1.083,-1.016 -3.8887,-3.379519 z m 13.129,-25.039 -4.263,-4.061 -2.436,2.504 0,24.092 6.632,5.819 0.067,-0.067 z m 2.165,-0.947 -4.94,-4.805 -1.015,1.083 4.534,4.331 0,28.287 1.421,-1.354 z"
       id="path16"
       style="fill:#231f20"
       sodipodi:nodetypes="cccccsccscssccsscccccccccsccscccccssccssccsccccccccccccccccccccccccccccccc" /><path
       style="fill:#231f20"
       d="m 164.35742,10.625 -9,9.677734 0,-7.105468 -0.74414,0 0,7.783203 -1.48828,1.623047 0,-6.158204 -6.36133,-5.818359 -6.83398,7.240235 0.47265,0.474609 1.35547,-1.355469 2.77344,2.503906 0,7.310547 -0.4043,0 c -3.452,0 -5.55078,2.97536 -5.55078,5.81836 0,1.555 0.13489,2.505281 0.33789,3.113281 l 0.20313,0 c 0.947,-1.827 2.03019,-2.841797 3.99219,-2.841797 l 1.42187,0 0,13.195313 c -4.398,1.489 -6.96936,5.34564 -7.44336,10.55664 l 0.13477,0.06836 c 2.437,-2.435001 4.94059,-3.654313 7.30859,-4.195313 l 0,18.203125 0.13672,0.06641 7.84961,-7.240234 2.70703,2.435547 0.13672,-0.06641 0,-11.77539 0,-1.488281 c 2.234,0.609 2.90969,1.286406 4.80469,3.316406 l 11.83984,-8.933594 0,-29.4375 -7.64844,-6.970703 z m -21.04101,4.671875 3.38281,3.111328 0,8.390625 -1.41992,0 0,-7.646484 -3.04688,-2.707032 1.08399,-1.148437 z m 17.73047,0.06641 4.60156,4.263672 0,31.195313 -1.42188,1.083984 0,-31.46875 -4.26367,-3.923828 1.08399,-1.150391 z m -1.55665,1.691407 3.99219,3.654296 0,28.220704 -0.0684,0.06641 c -2.098,-2.3 -4.53373,-3.315297 -8.05273,-3.654297 l 0,-23.820313 4.1289,-4.466796 z m -4.87304,5.210937 0,42.09375 -1.48828,-1.353516 0,-39.183593 1.48828,-1.556641 z m -11.63867,8.324219 3.7207,0 0,37.083984 -1.41992,1.353516 0,-36.88086 -2.64063,0 c -1.624,0.202 -2.43604,0.675297 -3.24805,2.029297 l -0.0664,-0.06641 c 0.067,-1.895 1.0823,-3.519531 3.6543,-3.519531 z m 1.55468,19.421875 0,1.691406 c -2.301,0.542 -4.05906,1.286156 -5.95508,2.910156 l -0.0664,-0.136719 c 1.286,-2.232998 3.24748,-3.923843 6.02148,-4.464843 z m 10.82813,0 c 3.18,0.407 4.80469,1.622345 6.42969,3.652343 l -1.55664,1.21875 c -1.624,-1.893999 -2.57205,-2.570328 -4.87305,-3.111328 l 0,-1.759765 z"
       transform="translate(5.8200074,0.94)"
       id="path22"
       inkscape:connector-curvature="0" /></g></svg>