<?xml version="1.0" encoding="UTF-8" standalone="no"?>
<!-- Created with Inkscape (http://www.inkscape.org/) -->

<svg
   xmlns:dc="http://purl.org/dc/elements/1.1/"
   xmlns:cc="http://creativecommons.org/ns#"
   xmlns:rdf="http://www.w3.org/1999/02/22-rdf-syntax-ns#"
   xmlns:svg="http://www.w3.org/2000/svg"
   xmlns="http://www.w3.org/2000/svg"
   xmlns:sodipodi="http://sodipodi.sourceforge.net/DTD/sodipodi-0.dtd"
   xmlns:inkscape="http://www.inkscape.org/namespaces/inkscape"
   height="55.513451"
   width="51.645"
   version="1.1"
   id="svg2"
   inkscape:version="0.91 r13725"
   sodipodi:docname="wsws.svg">
  <defs
     id="defs14" />
  <sodipodi:namedview
     pagecolor="#ffffff"
     bordercolor="#666666"
     borderopacity="1"
     objecttolerance="10"
     gridtolerance="10"
     guidetolerance="10"
     inkscape:pageopacity="0"
     inkscape:pageshadow="2"
     inkscape:window-width="1920"
     inkscape:window-height="1057"
     id="namedview12"
     showgrid="true"
     inkscape:zoom="2.5778732"
     inkscape:cx="29.77563"
     inkscape:cy="31.060833"
     inkscape:window-x="0"
     inkscape:window-y="0"
     inkscape:window-maximized="1"
     inkscape:current-layer="svg2"
     fit-margin-top="0"
     fit-margin-left="0"
     fit-margin-right="0"
     fit-margin-bottom="0">
    <inkscape:grid
       type="xygrid"
       id="grid4342"
       originx="-289.67375"
       originy="5.2328342" />
  </sodipodi:namedview>
  <metadata
     id="metadata4">
    <rdf:RDF>
      <cc:Work
         rdf:about="">
        <dc:format>image/svg+xml</dc:format>
        <dc:type
           rdf:resource="http://purl.org/dc/dcmitype/StillImage" />
        <dc:title></dc:title>
      </cc:Work>
    </rdf:RDF>
  </metadata>
  <path
     style="fill:#006b9b"
     d="m 33.96417,26.4872 0,-4.473 c 2.01,0.845 3.51,1.35 4.5,1.514 0.99,0.165 1.91,0.247 2.74,0.247 1.51,0 2.63,-0.341 3.37,-1.022 0.74,-0.681 1.11,-1.497 1.11,-2.448 0,-0.728 -0.2,-1.385 -0.6,-1.972 -0.4,-0.575 -1.41,-1.321 -3.03,-2.237 l -1.75,-0.968 c -2.48,-1.397 -4.17,-2.689 -5.05,-3.875 -0.89,-1.185 -1.34,-2.5590002 -1.34,-4.1210006 0,-1.9603994 0.74,-3.6392994 2.22,-5.0363994 1.49,-1.3972 3.63,-2.0957 6.41,-2.0958 2.08,1e-4 4.42,0.2995 7.03,0.8982 l 0,4.1738 c -2.66,-0.9979 -4.76,-1.4969 -6.32,-1.4969 -1.3,0 -2.28,0.2877 -2.96,0.8629 -0.67,0.5636 -1.01,1.2446004 -1.01,2.0431994 0,0.61 0.2,1.18 0.6,1.708 0.39,0.5280004 1.39,1.2500004 3.01,2.1660006 l 1.87,1.039 c 2.85,1.609 4.67,3.006 5.46,4.192 0.77,1.197 1.16,2.542 1.16,4.033 0,2.136 -0.81,3.962 -2.43,5.477 -1.61,1.514 -4.17,2.271 -7.69,2.271 -2.09,0 -4.52,-0.293 -7.3,-0.88"
     id="path4340"
     inkscape:connector-curvature="0" />
  <path
     style="fill:#006b9b"
     d="M 6.49,26.7162 0,0.6512001 l 5.12,0 4.76,19.0729999 4.49,-19.0729999 4.52,0 4.26,18.9679999 5.01,-18.9679999 3.75,0 -6.84,26.0649999 -5.17,0 L 15.88,8.8411998 11.67,26.7162 l -5.18,0"
     id="path6"
     inkscape:connector-curvature="0" />
  <path
     style="fill:#006b9b"
     d="m 34.225,54.63345 0,-4.473 c 2.01,0.845 3.51,1.35 4.5,1.514 0.99,0.165 1.91,0.247 2.74,0.247 1.51,0 2.63,-0.341 3.37,-1.022 0.74,-0.681 1.11,-1.497 1.11,-2.448 0,-0.728 -0.2,-1.385 -0.6,-1.972 -0.4,-0.575 -1.41,-1.321 -3.03,-2.237 l -1.75,-0.968 c -2.48,-1.397 -4.17,-2.689 -5.05,-3.875 -0.89,-1.185 -1.34,-2.559 -1.34,-4.121 0,-1.9604 0.74,-3.6393 2.22,-5.0364 1.49,-1.3972 3.63,-2.0957 6.41,-2.0958 2.08,1e-4 4.42,0.2995 7.03,0.8982 l 0,4.1738 c -2.66,-0.9979 -4.76,-1.4969 -6.32,-1.4969 -1.3,0 -2.28,0.2877 -2.96,0.8629 -0.67,0.5636 -1.01,1.244601 -1.01,2.0432 0,0.61 0.2,1.18 0.6,1.708 0.39,0.528 1.39,1.25 3.01,2.166 l 1.87,1.039 c 2.85,1.609 4.67,3.006 5.46,4.192 0.77,1.197 1.16,2.542 1.16,4.033 0,2.136 -0.81,3.962 -2.43,5.477 -1.61,1.514 -4.17,2.271 -7.69,2.271 -2.09,0 -4.52,-0.293 -7.3,-0.88"
     id="path4340-0"
     inkscape:connector-curvature="0" />
  <path
     style="fill:#006b9b"
     d="m 6.75083,54.86245 -6.49,-26.065 5.12,0 4.76,19.073 4.49,-19.073 4.52,0 4.26,18.968 5.01,-18.968 3.75,0 -6.84,26.065 -5.17,0 -4.02,-17.875 -4.21,17.875 -5.18,0"
     id="path6-2"
     inkscape:connector-curvature="0" />
</svg>
